<?xml version="1.0" encoding="UTF-8" standalone="no"?>
<!DOCTYPE svg PUBLIC "-//W3C//DTD SVG 1.1//EN"
 "http://www.w3.org/Graphics/SVG/1.1/DTD/svg11.dtd">
<!-- Generated by graphviz version 2.40.1 (20161225.0304)
 -->
<!-- Title: src/adders/add_wrapped_position.cpp Pages: 1 -->
<!--zoomable 543 -->
<svg id="main" version="1.1" xmlns="http://www.w3.org/2000/svg" xmlns:xlink="http://www.w3.org/1999/xlink" xml:space="preserve" onload="init(evt)">
<style type="text/css"><![CDATA[
.edge:hover path { stroke: red; }
.edge:hover polygon { stroke: red; fill: red; }
]]></style>
<script type="text/javascript"><![CDATA[
var edges = document.getElementsByTagName('g');
if (edges && edges.length) {
  for (var i=0;i<edges.length;i++) {
    if (edges[i].id.substr(0,4)=='edge') {
      edges[i].setAttribute('class','edge');
    }
  }
}
]]></script>
        <defs>
                <circle id="rim" cx="0" cy="0" r="7"/>
                <circle id="rim2" cx="0" cy="0" r="3.5"/>
                <g id="zoomPlus">
                        <use xlink:href="#rim" fill="#404040">
                                <set attributeName="fill" to="#808080" begin="zoomplus.mouseover" end="zoomplus.mouseout"/>
                        </use>
                        <path d="M-4,0h8M0,-4v8" fill="none" stroke="white" stroke-width="1.5" pointer-events="none"/>
                </g>
                <g id="zoomMin">
                        <use xlink:href="#rim" fill="#404040">
                                <set attributeName="fill" to="#808080" begin="zoomminus.mouseover" end="zoomminus.mouseout"/>
                        </use>
                        <path d="M-4,0h8" fill="none" stroke="white" stroke-width="1.5" pointer-events="none"/>
                </g>
                <g id="dirArrow">
                        <path fill="none" stroke="white" stroke-width="1.5" d="M0,-3.0v7 M-2.5,-0.5L0,-3.0L2.5,-0.5"/>
                </g>
               <g id="resetDef">
                       <use xlink:href="#rim2" fill="#404040">
                               <set attributeName="fill" to="#808080" begin="reset.mouseover" end="reset.mouseout"/>
                       </use>
               </g>
        </defs>

<script type="text/javascript">
var viewWidth = 597;
var viewHeight = 543;
var sectionId = 'dynsection-0';
</script>
<script xlink:href="svgpan.js"/>
<svg id="graph" class="graph">
<g id="viewport">
<title>src/adders/add_wrapped_position.cpp</title>
<polygon fill="#ffffff" stroke="transparent" points="-4,4 -4,-539 593,-539 593,4 -4,4"/>
<!-- Node0 -->
<g id="node1" class="node">
<title>Node0</title>
<polygon fill="#bfbfbf" stroke="#000000" points="0,-504.5 0,-534.5 122,-534.5 122,-504.5 0,-504.5"/>
<text text-anchor="start" x="8" y="-522.5" font-family="Helvetica,sans-Serif" font-size="10.00" fill="#000000">src/adders/add_wrapped</text>
<text text-anchor="middle" x="61" y="-511.5" font-family="Helvetica,sans-Serif" font-size="10.00" fill="#000000">_position.cpp</text>
</g>
<!-- Node1 -->
<g id="node2" class="node">
<title>Node1</title>
<g id="a_node2"><a xlink:href="add__wrapped__position_8h.html" target="_top" xlink:title="This file has a definition of AddWrappedPosition class, which is a subclass of Adder class...">
<polygon fill="#ffffff" stroke="#000000" points=".5,-448.5 .5,-467.5 121.5,-467.5 121.5,-448.5 .5,-448.5"/>
<text text-anchor="middle" x="61" y="-455.5" font-family="Helvetica,sans-Serif" font-size="10.00" fill="#000000">add_wrapped_position.h</text>
</a>
</g>
</g>
<!-- Node0&#45;&gt;Node1 -->
<g id="edge1" class="edge">
<title>Node0&#45;&gt;Node1</title>
<path fill="none" stroke="#191970" d="M61,-504.2977C61,-496.3834 61,-486.6043 61,-478.0759"/>
<polygon fill="#191970" stroke="#191970" points="64.5001,-477.8469 61,-467.8469 57.5001,-477.847 64.5001,-477.8469"/>
</g>
<!-- Node2 -->
<g id="node3" class="node">
<title>Node2</title>
<g id="a_node3"><a xlink:href="adder_8h.html" target="_top" xlink:title="This file has a definition of Adder class, which is a subclass of Updater class. ">
<polygon fill="#ffffff" stroke="#000000" points="20.5,-392.5 20.5,-411.5 101.5,-411.5 101.5,-392.5 20.5,-392.5"/>
<text text-anchor="middle" x="61" y="-399.5" font-family="Helvetica,sans-Serif" font-size="10.00" fill="#000000">adders/adder.h</text>
</a>
</g>
</g>
<!-- Node1&#45;&gt;Node2 -->
<g id="edge2" class="edge">
<title>Node1&#45;&gt;Node2</title>
<path fill="none" stroke="#191970" d="M61,-448.2455C61,-440.9382 61,-430.6944 61,-421.7046"/>
<polygon fill="#191970" stroke="#191970" points="64.5001,-421.6426 61,-411.6427 57.5001,-421.6427 64.5001,-421.6426"/>
</g>
<!-- Node3 -->
<g id="node4" class="node">
<title>Node3</title>
<g id="a_node4"><a xlink:href="updater_8h.html" target="_top" xlink:title="This file has a definition of Updater class, which is one of the cores of this program. ">
<polygon fill="#ffffff" stroke="#000000" points="21.5,-336.5 21.5,-355.5 100.5,-355.5 100.5,-336.5 21.5,-336.5"/>
<text text-anchor="middle" x="61" y="-343.5" font-family="Helvetica,sans-Serif" font-size="10.00" fill="#000000">core/updater.h</text>
</a>
</g>
</g>
<!-- Node2&#45;&gt;Node3 -->
<g id="edge3" class="edge">
<title>Node2&#45;&gt;Node3</title>
<path fill="none" stroke="#191970" d="M61,-392.2455C61,-384.9382 61,-374.6944 61,-365.7046"/>
<polygon fill="#191970" stroke="#191970" points="64.5001,-365.6426 61,-355.6427 57.5001,-365.6427 64.5001,-365.6426"/>
</g>
<!-- Node4 -->
<g id="node5" class="node">
<title>Node4</title>
<polygon fill="#ffffff" stroke="#bfbfbf" points="2,-112.5 2,-131.5 46,-131.5 46,-112.5 2,-112.5"/>
<text text-anchor="middle" x="24" y="-119.5" font-family="Helvetica,sans-Serif" font-size="10.00" fill="#000000">omp.h</text>
</g>
<!-- Node3&#45;&gt;Node4 -->
<g id="edge4" class="edge">
<title>Node3&#45;&gt;Node4</title>
<path fill="none" stroke="#191970" d="M59.4102,-336.375C53.8004,-302.4133 34.86,-187.7472 27.2275,-141.5392"/>
<polygon fill="#191970" stroke="#191970" points="30.6669,-140.885 25.5839,-131.5891 23.7605,-142.0259 30.6669,-140.885"/>
</g>
<!-- Node5 -->
<g id="node6" class="node">
<title>Node5</title>
<g id="a_node6"><a xlink:href="generators_8h.html" target="_top" xlink:title="This file includes all the header files of subclasses of Generator class. ">
<polygon fill="#ffffff" stroke="#000000" points="69,-280.5 69,-299.5 161,-299.5 161,-280.5 69,-280.5"/>
<text text-anchor="middle" x="115" y="-287.5" font-family="Helvetica,sans-Serif" font-size="10.00" fill="#000000">core/generators.h</text>
</a>
</g>
</g>
<!-- Node3&#45;&gt;Node5 -->
<g id="edge5" class="edge">
<title>Node3&#45;&gt;Node5</title>
<path fill="none" stroke="#191970" d="M70.4061,-336.2455C78.1493,-328.2155 89.312,-316.6394 98.5318,-307.0781"/>
<polygon fill="#191970" stroke="#191970" points="101.2798,-309.2706 105.7017,-299.6427 96.2409,-304.4117 101.2798,-309.2706"/>
</g>
<!-- Node6 -->
<g id="node7" class="node">
<title>Node6</title>
<g id="a_node7"><a xlink:href="element_8h.html" target="_top" xlink:title="This file has a definition of Element class, which is one of the cores of this program. ">
<polygon fill="#ffffff" stroke="#000000" points="91.5,-168.5 91.5,-187.5 172.5,-187.5 172.5,-168.5 91.5,-168.5"/>
<text text-anchor="middle" x="132" y="-175.5" font-family="Helvetica,sans-Serif" font-size="10.00" fill="#000000">core/element.h</text>
</a>
</g>
</g>
<!-- Node5&#45;&gt;Node6 -->
<g id="edge6" class="edge">
<title>Node5&#45;&gt;Node6</title>
<path fill="none" stroke="#191970" d="M103.9645,-280.3308C90.8689,-267.6184 71.8867,-244.4925 81,-224 86.4508,-211.7432 96.9599,-201.3755 107.0289,-193.6036"/>
<polygon fill="#191970" stroke="#191970" points="109.1744,-196.3721 115.2627,-187.7012 105.096,-190.6828 109.1744,-196.3721"/>
</g>
<!-- Node20 -->
<g id="node21" class="node">
<title>Node20</title>
<g id="a_node21"><a xlink:href="gen__dict_8h.html" target="_top" xlink:title="This file has a definition of GenDict class. ">
<polygon fill="#ffffff" stroke="#000000" points="90.5,-224.5 90.5,-243.5 173.5,-243.5 173.5,-224.5 90.5,-224.5"/>
<text text-anchor="middle" x="132" y="-231.5" font-family="Helvetica,sans-Serif" font-size="10.00" fill="#000000">core/gen_dict.h</text>
</a>
</g>
</g>
<!-- Node5&#45;&gt;Node20 -->
<g id="edge21" class="edge">
<title>Node5&#45;&gt;Node20</title>
<path fill="none" stroke="#191970" d="M117.9612,-280.2455C120.2038,-272.8579 123.3577,-262.4689 126.1081,-253.4087"/>
<polygon fill="#191970" stroke="#191970" points="129.517,-254.2282 129.0728,-243.6427 122.8188,-252.1948 129.517,-254.2282"/>
</g>
<!-- Node21 -->
<g id="node22" class="node">
<title>Node21</title>
<g id="a_node22"><a xlink:href="gen__list_8h.html" target="_top" xlink:title="This file has a definition of GenList class. ">
<polygon fill="#ffffff" stroke="#000000" points="192,-224.5 192,-243.5 272,-243.5 272,-224.5 192,-224.5"/>
<text text-anchor="middle" x="232" y="-231.5" font-family="Helvetica,sans-Serif" font-size="10.00" fill="#000000">core/gen_list.h</text>
</a>
</g>
</g>
<!-- Node5&#45;&gt;Node21 -->
<g id="edge23" class="edge">
<title>Node5&#45;&gt;Node21</title>
<path fill="none" stroke="#191970" d="M135.113,-280.3733C153.8103,-271.4241 181.8744,-257.9917 202.9934,-247.8835"/>
<polygon fill="#191970" stroke="#191970" points="204.6405,-250.9755 212.1494,-243.5011 201.6183,-244.6614 204.6405,-250.9755"/>
</g>
<!-- Node6&#45;&gt;Node4 -->
<g id="edge7" class="edge">
<title>Node6&#45;&gt;Node4</title>
<path fill="none" stroke="#191970" d="M113.1878,-168.2455C96.1527,-159.4125 70.8425,-146.2887 51.5319,-136.2758"/>
<polygon fill="#191970" stroke="#191970" points="53.0853,-133.1388 42.5966,-131.6427 49.863,-139.353 53.0853,-133.1388"/>
</g>
<!-- Node7 -->
<g id="node8" class="node">
<title>Node7</title>
<g id="a_node8"><a xlink:href="eigen_8h.html" target="_top" xlink:title="This file includes Eigen and defines some aliases for the Eigen&#45;Vector, Matrix and Array...">
<polygon fill="#ffffff" stroke="#000000" points="64.5,-112.5 64.5,-131.5 135.5,-131.5 135.5,-112.5 64.5,-112.5"/>
<text text-anchor="middle" x="100" y="-119.5" font-family="Helvetica,sans-Serif" font-size="10.00" fill="#000000">alias/eigen.h</text>
</a>
</g>
</g>
<!-- Node6&#45;&gt;Node7 -->
<g id="edge8" class="edge">
<title>Node6&#45;&gt;Node7</title>
<path fill="none" stroke="#191970" d="M126.426,-168.2455C122.0669,-160.617 115.8789,-149.7881 110.5867,-140.5267"/>
<polygon fill="#191970" stroke="#191970" points="113.5104,-138.5886 105.5101,-131.6427 107.4327,-142.0616 113.5104,-138.5886"/>
</g>
<!-- Node9 -->
<g id="node10" class="node">
<title>Node9</title>
<g id="a_node10"><a xlink:href="alias_2pybind_8h.html" target="_top" xlink:title="This file includes pybind11 and defines an alias for the namespace pybind11. ">
<polygon fill="#ffffff" stroke="#000000" points="153.5,-112.5 153.5,-131.5 230.5,-131.5 230.5,-112.5 153.5,-112.5"/>
<text text-anchor="middle" x="192" y="-119.5" font-family="Helvetica,sans-Serif" font-size="10.00" fill="#000000">alias/pybind.h</text>
</a>
</g>
</g>
<!-- Node6&#45;&gt;Node9 -->
<g id="edge10" class="edge">
<title>Node6&#45;&gt;Node9</title>
<path fill="none" stroke="#191970" d="M142.4512,-168.2455C151.2269,-160.0549 163.9554,-148.1749 174.314,-138.5069"/>
<polygon fill="#191970" stroke="#191970" points="176.7461,-141.0246 181.6686,-131.6427 171.9699,-135.9072 176.7461,-141.0246"/>
</g>
<!-- Node11 -->
<g id="node12" class="node">
<title>Node11</title>
<g id="a_node12"><a xlink:href="generator_8h.html" target="_top" xlink:title="This file has a definition of Generator class, which is one of the cores of this program. ">
<polygon fill="#ffffff" stroke="#000000" points="250.5,-112.5 250.5,-131.5 337.5,-131.5 337.5,-112.5 250.5,-112.5"/>
<text text-anchor="middle" x="294" y="-119.5" font-family="Helvetica,sans-Serif" font-size="10.00" fill="#000000">core/generator.h</text>
</a>
</g>
</g>
<!-- Node6&#45;&gt;Node11 -->
<g id="edge12" class="edge">
<title>Node6&#45;&gt;Node11</title>
<path fill="none" stroke="#191970" d="M159.8488,-168.3733C186.6703,-159.1016 227.4127,-145.0178 256.9598,-134.804"/>
<polygon fill="#191970" stroke="#191970" points="258.2069,-138.0762 266.5146,-131.5011 255.9198,-131.4603 258.2069,-138.0762"/>
</g>
<!-- Node8 -->
<g id="node9" class="node">
<title>Node8</title>
<polygon fill="#ffffff" stroke="#bfbfbf" points="49,-56.5 49,-75.5 121,-75.5 121,-56.5 49,-56.5"/>
<text text-anchor="middle" x="85" y="-63.5" font-family="Helvetica,sans-Serif" font-size="10.00" fill="#000000">Eigen/Dense</text>
</g>
<!-- Node7&#45;&gt;Node8 -->
<g id="edge9" class="edge">
<title>Node7&#45;&gt;Node8</title>
<path fill="none" stroke="#191970" d="M97.3872,-112.2455C95.4084,-104.8579 92.6256,-94.4689 90.1988,-85.4087"/>
<polygon fill="#191970" stroke="#191970" points="93.5511,-84.3966 87.5829,-75.6427 86.7895,-86.2078 93.5511,-84.3966"/>
</g>
<!-- Node10 -->
<g id="node11" class="node">
<title>Node10</title>
<polygon fill="#ffffff" stroke="#bfbfbf" points="139,-56.5 139,-75.5 245,-75.5 245,-56.5 139,-56.5"/>
<text text-anchor="middle" x="192" y="-63.5" font-family="Helvetica,sans-Serif" font-size="10.00" fill="#000000">pybind11/pybind11.h</text>
</g>
<!-- Node9&#45;&gt;Node10 -->
<g id="edge11" class="edge">
<title>Node9&#45;&gt;Node10</title>
<path fill="none" stroke="#191970" d="M192,-112.2455C192,-104.9382 192,-94.6944 192,-85.7046"/>
<polygon fill="#191970" stroke="#191970" points="195.5001,-85.6426 192,-75.6427 188.5001,-85.6427 195.5001,-85.6426"/>
</g>
<!-- Node12 -->
<g id="node13" class="node">
<title>Node12</title>
<g id="a_node13"><a xlink:href="std_8h.html" target="_top" xlink:title="This file includes a part of C++ Standard Template Library and defines aliases for them...">
<polygon fill="#ffffff" stroke="#000000" points="263,-56.5 263,-75.5 325,-75.5 325,-56.5 263,-56.5"/>
<text text-anchor="middle" x="294" y="-63.5" font-family="Helvetica,sans-Serif" font-size="10.00" fill="#000000">alias/std.h</text>
</a>
</g>
</g>
<!-- Node11&#45;&gt;Node12 -->
<g id="edge13" class="edge">
<title>Node11&#45;&gt;Node12</title>
<path fill="none" stroke="#191970" d="M294,-112.2455C294,-104.9382 294,-94.6944 294,-85.7046"/>
<polygon fill="#191970" stroke="#191970" points="297.5001,-85.6426 294,-75.6427 290.5001,-85.6427 297.5001,-85.6426"/>
</g>
<!-- Node18 -->
<g id="node19" class="node">
<title>Node18</title>
<g id="a_node19"><a xlink:href="json_8h.html" target="_top" xlink:title="This file includes nlohmann/json and defines an alias for a JSON class. ">
<polygon fill="#ffffff" stroke="#000000" points="425,-56.5 425,-75.5 491,-75.5 491,-56.5 425,-56.5"/>
<text text-anchor="middle" x="458" y="-63.5" font-family="Helvetica,sans-Serif" font-size="10.00" fill="#000000">alias/json.h</text>
</a>
</g>
</g>
<!-- Node11&#45;&gt;Node18 -->
<g id="edge19" class="edge">
<title>Node11&#45;&gt;Node18</title>
<path fill="none" stroke="#191970" d="M322.1926,-112.3733C349.3453,-103.1016 390.5907,-89.0178 420.5025,-78.804"/>
<polygon fill="#191970" stroke="#191970" points="421.8428,-82.0449 430.1753,-75.5011 419.5808,-75.4204 421.8428,-82.0449"/>
</g>
<!-- Node13 -->
<g id="node14" class="node">
<title>Node13</title>
<polygon fill="#ffffff" stroke="#bfbfbf" points="101,-.5 101,-19.5 153,-19.5 153,-.5 101,-.5"/>
<text text-anchor="middle" x="127" y="-7.5" font-family="Helvetica,sans-Serif" font-size="10.00" fill="#000000">memory</text>
</g>
<!-- Node12&#45;&gt;Node13 -->
<g id="edge14" class="edge">
<title>Node12&#45;&gt;Node13</title>
<path fill="none" stroke="#191970" d="M265.2917,-56.3733C236.972,-46.8769 193.5976,-32.3321 162.989,-22.0682"/>
<polygon fill="#191970" stroke="#191970" points="163.7321,-18.6259 153.1382,-18.7649 161.5066,-25.2627 163.7321,-18.6259"/>
</g>
<!-- Node14 -->
<g id="node15" class="node">
<title>Node14</title>
<polygon fill="#ffffff" stroke="#bfbfbf" points="171.5,-.5 171.5,-19.5 212.5,-19.5 212.5,-.5 171.5,-.5"/>
<text text-anchor="middle" x="192" y="-7.5" font-family="Helvetica,sans-Serif" font-size="10.00" fill="#000000">string</text>
</g>
<!-- Node12&#45;&gt;Node14 -->
<g id="edge15" class="edge">
<title>Node12&#45;&gt;Node14</title>
<path fill="none" stroke="#191970" d="M276.233,-56.2455C260.2905,-47.4928 236.6741,-34.527 218.5011,-24.5496"/>
<polygon fill="#191970" stroke="#191970" points="220.0137,-21.3873 209.5634,-19.6427 216.6448,-27.5233 220.0137,-21.3873"/>
</g>
<!-- Node15 -->
<g id="node16" class="node">
<title>Node15</title>
<polygon fill="#ffffff" stroke="#bfbfbf" points="231,-.5 231,-19.5 275,-19.5 275,-.5 231,-.5"/>
<text text-anchor="middle" x="253" y="-7.5" font-family="Helvetica,sans-Serif" font-size="10.00" fill="#000000">vector</text>
</g>
<!-- Node12&#45;&gt;Node15 -->
<g id="edge16" class="edge">
<title>Node12&#45;&gt;Node15</title>
<path fill="none" stroke="#191970" d="M286.8583,-56.2455C281.1556,-48.4564 273.01,-37.3308 266.1375,-27.9439"/>
<polygon fill="#191970" stroke="#191970" points="268.7913,-25.6437 260.0598,-19.6427 263.1432,-29.7789 268.7913,-25.6437"/>
</g>
<!-- Node16 -->
<g id="node17" class="node">
<title>Node16</title>
<polygon fill="#ffffff" stroke="#bfbfbf" points="293.5,-.5 293.5,-19.5 376.5,-19.5 376.5,-.5 293.5,-.5"/>
<text text-anchor="middle" x="335" y="-7.5" font-family="Helvetica,sans-Serif" font-size="10.00" fill="#000000">unordered_map</text>
</g>
<!-- Node12&#45;&gt;Node16 -->
<g id="edge17" class="edge">
<title>Node12&#45;&gt;Node16</title>
<path fill="none" stroke="#191970" d="M301.1417,-56.2455C306.8444,-48.4564 314.99,-37.3308 321.8625,-27.9439"/>
<polygon fill="#191970" stroke="#191970" points="324.8568,-29.7789 327.9402,-19.6427 319.2087,-25.6437 324.8568,-29.7789"/>
</g>
<!-- Node17 -->
<g id="node18" class="node">
<title>Node17</title>
<polygon fill="#ffffff" stroke="#bfbfbf" points="395,-.5 395,-19.5 473,-19.5 473,-.5 395,-.5"/>
<text text-anchor="middle" x="434" y="-7.5" font-family="Helvetica,sans-Serif" font-size="10.00" fill="#000000">unordered_set</text>
</g>
<!-- Node12&#45;&gt;Node17 -->
<g id="edge18" class="edge">
<title>Node12&#45;&gt;Node17</title>
<path fill="none" stroke="#191970" d="M318.0669,-56.3733C340.8428,-47.2629 375.2344,-33.5062 400.649,-23.3404"/>
<polygon fill="#191970" stroke="#191970" points="402.2623,-26.4648 410.2472,-19.5011 399.6625,-19.9654 402.2623,-26.4648"/>
</g>
<!-- Node19 -->
<g id="node20" class="node">
<title>Node19</title>
<polygon fill="#ffffff" stroke="#bfbfbf" points="491,-.5 491,-19.5 589,-19.5 589,-.5 491,-.5"/>
<text text-anchor="middle" x="540" y="-7.5" font-family="Helvetica,sans-Serif" font-size="10.00" fill="#000000">nlohmann/json.hpp</text>
</g>
<!-- Node18&#45;&gt;Node19 -->
<g id="edge20" class="edge">
<title>Node18&#45;&gt;Node19</title>
<path fill="none" stroke="#191970" d="M472.2833,-56.2455C484.747,-47.7337 503.0451,-35.2375 517.4792,-25.3801"/>
<polygon fill="#191970" stroke="#191970" points="519.5962,-28.1726 525.8804,-19.6427 515.6485,-22.392 519.5962,-28.1726"/>
</g>
<!-- Node20&#45;&gt;Node6 -->
<g id="edge22" class="edge">
<title>Node20&#45;&gt;Node6</title>
<path fill="none" stroke="#191970" d="M132,-224.2455C132,-216.9382 132,-206.6944 132,-197.7046"/>
<polygon fill="#191970" stroke="#191970" points="135.5001,-197.6426 132,-187.6427 128.5001,-197.6427 135.5001,-197.6426"/>
</g>
<!-- Node21&#45;&gt;Node6 -->
<g id="edge24" class="edge">
<title>Node21&#45;&gt;Node6</title>
<path fill="none" stroke="#191970" d="M214.5813,-224.2455C198.9515,-215.4928 175.7981,-202.527 157.9815,-192.5496"/>
<polygon fill="#191970" stroke="#191970" points="159.6543,-189.475 149.2191,-187.6427 156.234,-195.5825 159.6543,-189.475"/>
</g>
</g>
</svg>
        <g id="navigator" transform="translate(0 0)" fill="#404254">
                <rect fill="#f2f5e9" fill-opacity="0.5" stroke="#606060" stroke-width=".5" x="0" y="0" width="60" height="60"/>
                <use id="zoomplus" xlink:href="#zoomPlus" x="17" y="9" onmousedown="handleZoom(evt,'in')"/>
                <use id="zoomminus" xlink:href="#zoomMin" x="42" y="9" onmousedown="handleZoom(evt,'out')"/>
                <use id="reset" xlink:href="#resetDef" x="30" y="36" onmousedown="handleReset()"/>
                <g id="arrowUp" xlink:href="#dirArrow" transform="translate(30 24)" onmousedown="handlePan(0,-1)">
                  <use xlink:href="#rim" fill="#404040">
                        <set attributeName="fill" to="#808080" begin="arrowUp.mouseover" end="arrowUp.mouseout"/>
                  </use>
                  <path fill="none" stroke="white" stroke-width="1.5" d="M0,-3.0v7 M-2.5,-0.5L0,-3.0L2.5,-0.5"/>
                </g>
                <g id="arrowRight" xlink:href="#dirArrow" transform="rotate(90) translate(36 -43)" onmousedown="handlePan(1,0)">
                  <use xlink:href="#rim" fill="#404040">
                        <set attributeName="fill" to="#808080" begin="arrowRight.mouseover" end="arrowRight.mouseout"/>
                  </use>
                  <path fill="none" stroke="white" stroke-width="1.5" d="M0,-3.0v7 M-2.5,-0.5L0,-3.0L2.5,-0.5"/>
                </g>
                <g id="arrowDown" xlink:href="#dirArrow" transform="rotate(180) translate(-30 -48)" onmousedown="handlePan(0,1)">
                  <use xlink:href="#rim" fill="#404040">
                        <set attributeName="fill" to="#808080" begin="arrowDown.mouseover" end="arrowDown.mouseout"/>
                  </use>
                  <path fill="none" stroke="white" stroke-width="1.5" d="M0,-3.0v7 M-2.5,-0.5L0,-3.0L2.5,-0.5"/>
                </g>
                <g id="arrowLeft" xlink:href="#dirArrow" transform="rotate(270) translate(-36 17)" onmousedown="handlePan(-1,0)">
                  <use xlink:href="#rim" fill="#404040">
                        <set attributeName="fill" to="#808080" begin="arrowLeft.mouseover" end="arrowLeft.mouseout"/>
                  </use>
                  <path fill="none" stroke="white" stroke-width="1.5" d="M0,-3.0v7 M-2.5,-0.5L0,-3.0L2.5,-0.5"/>
                </g>
        </g>
        <svg viewBox="0 0 15 15" width="100%" height="30px" preserveAspectRatio="xMaxYMin meet">
         <g id="arrow_out" transform="scale(0.3 0.3)">
          <a xlink:href="add__wrapped__position_8cpp__incl_org.svg" target="_base">
           <rect id="button" ry="5" rx="5" y="6" x="6" height="38" width="38"
                fill="#f2f5e9" fill-opacity="0.5" stroke="#606060" stroke-width="1.0"/>
           <path id="arrow"
             d="M 11.500037,31.436501 C 11.940474,20.09759 22.043105,11.32322 32.158766,21.979434 L 37.068811,17.246167 C 37.068811,17.246167 37.088388,32 37.088388,32 L 22.160133,31.978069 C 22.160133,31.978069 26.997745,27.140456 26.997745,27.140456 C 18.528582,18.264221 13.291696,25.230495 11.500037,31.436501 z"
             style="fill:#404040;"/>
          </a>
         </g>
        </svg>
</svg>
