<?xml version="1.0" encoding="UTF-8" standalone="no"?>
<!DOCTYPE svg PUBLIC "-//W3C//DTD SVG 1.1//EN"
 "http://www.w3.org/Graphics/SVG/1.1/DTD/svg11.dtd">
<!-- Generated by graphviz version 2.40.1 (20161225.0304)
 -->
<!-- Title: src/adders/add_child_ids.h Pages: 1 -->
<svg width="293pt" height="229pt"
 viewBox="0.00 0.00 293.00 229.00" xmlns="http://www.w3.org/2000/svg" xmlns:xlink="http://www.w3.org/1999/xlink">
<g id="graph0" class="graph" transform="scale(1 1) rotate(0) translate(4 225)">
<title>src/adders/add_child_ids.h</title>
<polygon fill="#ffffff" stroke="transparent" points="-4,4 -4,-225 289,-225 289,4 -4,4"/>
<!-- Node21 -->
<g id="node1" class="node">
<title>Node21</title>
<polygon fill="#bfbfbf" stroke="#000000" points="62,-190.5 62,-220.5 169,-220.5 169,-190.5 62,-190.5"/>
<text text-anchor="start" x="70" y="-208.5" font-family="Helvetica,sans-Serif" font-size="10.00" fill="#000000">src/adders/add_child</text>
<text text-anchor="middle" x="115.5" y="-197.5" font-family="Helvetica,sans-Serif" font-size="10.00" fill="#000000">_ids.h</text>
</g>
<!-- Node22 -->
<g id="node2" class="node">
<title>Node22</title>
<g id="a_node2"><a xlink:href="add__child__ids_8cpp.html" target="_top" xlink:title="This file has an implementation of AddChildIDs class, which is a subclass of Adder class...">
<polygon fill="#ffffff" stroke="#000000" points="0,-123.5 0,-153.5 107,-153.5 107,-123.5 0,-123.5"/>
<text text-anchor="start" x="8" y="-141.5" font-family="Helvetica,sans-Serif" font-size="10.00" fill="#000000">src/adders/add_child</text>
<text text-anchor="middle" x="53.5" y="-130.5" font-family="Helvetica,sans-Serif" font-size="10.00" fill="#000000">_ids.cpp</text>
</a>
</g>
</g>
<!-- Node21&#45;&gt;Node22 -->
<g id="edge1" class="edge">
<title>Node21&#45;&gt;Node22</title>
<path fill="none" stroke="#191970" d="M94.61,-182.9253C85.6871,-173.2828 75.5093,-162.2843 67.5131,-153.6432"/>
<polygon fill="#191970" stroke="#191970" points="92.0704,-185.3342 101.4312,-190.2967 97.2082,-180.5798 92.0704,-185.3342"/>
</g>
<!-- Node23 -->
<g id="node3" class="node">
<title>Node23</title>
<g id="a_node3"><a xlink:href="py__add__child__ids_8h.html" target="_top" xlink:title="This file is for binding AddChildIDs class to Python. ">
<polygon fill="#ffffff" stroke="#000000" points="125,-123.5 125,-153.5 232,-153.5 232,-123.5 125,-123.5"/>
<text text-anchor="start" x="133" y="-141.5" font-family="Helvetica,sans-Serif" font-size="10.00" fill="#000000">src/pybind/adders/py</text>
<text text-anchor="middle" x="178.5" y="-130.5" font-family="Helvetica,sans-Serif" font-size="10.00" fill="#000000">_add_child_ids.h</text>
</a>
</g>
</g>
<!-- Node21&#45;&gt;Node23 -->
<g id="edge2" class="edge">
<title>Node21&#45;&gt;Node23</title>
<path fill="none" stroke="#191970" d="M136.727,-182.9253C145.7938,-173.2828 156.1357,-162.2843 164.2609,-153.6432"/>
<polygon fill="#191970" stroke="#191970" points="134.0961,-180.6138 129.7957,-190.2967 139.1958,-185.409 134.0961,-180.6138"/>
</g>
<!-- Node24 -->
<g id="node4" class="node">
<title>Node24</title>
<g id="a_node4"><a xlink:href="pybind_8h.html" target="_top" xlink:title="This file includes all the header files containing definitions of functions to bind C++ and Python...">
<polygon fill="#ffffff" stroke="#000000" points="89.5,-62 89.5,-81 159.5,-81 159.5,-62 89.5,-62"/>
<text text-anchor="middle" x="124.5" y="-69" font-family="Helvetica,sans-Serif" font-size="10.00" fill="#000000">src/pybind.h</text>
</a>
</g>
</g>
<!-- Node23&#45;&gt;Node24 -->
<g id="edge3" class="edge">
<title>Node23&#45;&gt;Node24</title>
<path fill="none" stroke="#191970" d="M159.7084,-115.1845C150.2669,-103.47 139.3455,-89.9195 132.201,-81.055"/>
<polygon fill="#191970" stroke="#191970" points="157.2462,-117.707 166.2466,-123.2967 162.6964,-113.3143 157.2462,-117.707"/>
</g>
<!-- Node26 -->
<g id="node6" class="node">
<title>Node26</title>
<g id="a_node6"><a xlink:href="py__add__child__ids_8cpp.html" target="_top" xlink:title="This file is for binding AddChildIDs class to Python. ">
<polygon fill="#ffffff" stroke="#000000" points="178,-56.5 178,-86.5 285,-86.5 285,-56.5 178,-56.5"/>
<text text-anchor="start" x="186" y="-74.5" font-family="Helvetica,sans-Serif" font-size="10.00" fill="#000000">src/pybind/adders/py</text>
<text text-anchor="middle" x="231.5" y="-63.5" font-family="Helvetica,sans-Serif" font-size="10.00" fill="#000000">_add_child_ids.cpp</text>
</a>
</g>
</g>
<!-- Node23&#45;&gt;Node26 -->
<g id="edge5" class="edge">
<title>Node23&#45;&gt;Node26</title>
<path fill="none" stroke="#191970" d="M196.812,-115.3509C204.3291,-105.8482 212.8209,-95.1132 219.5211,-86.6432"/>
<polygon fill="#191970" stroke="#191970" points="193.9856,-113.2824 190.5265,-123.2967 199.4756,-117.6252 193.9856,-113.2824"/>
</g>
<!-- Node25 -->
<g id="node5" class="node">
<title>Node25</title>
<g id="a_node5"><a xlink:href="ppap4lmp_8cpp.html" target="_top" xlink:title="This file has no implementation, only includes a header file to bind C++ and Python. ">
<polygon fill="#ffffff" stroke="#000000" points="77.5,-.5 77.5,-19.5 171.5,-19.5 171.5,-.5 77.5,-.5"/>
<text text-anchor="middle" x="124.5" y="-7.5" font-family="Helvetica,sans-Serif" font-size="10.00" fill="#000000">src/ppap4lmp.cpp</text>
</a>
</g>
</g>
<!-- Node24&#45;&gt;Node25 -->
<g id="edge4" class="edge">
<title>Node24&#45;&gt;Node25</title>
<path fill="none" stroke="#191970" d="M124.5,-51.7462C124.5,-41.0519 124.5,-28.314 124.5,-19.7449"/>
<polygon fill="#191970" stroke="#191970" points="121.0001,-51.8906 124.5,-61.8906 128.0001,-51.8907 121.0001,-51.8906"/>
</g>
</g>
</svg>
