<?xml version="1.0" encoding="UTF-8" standalone="no"?>
<!DOCTYPE svg PUBLIC "-//W3C//DTD SVG 1.1//EN"
 "http://www.w3.org/Graphics/SVG/1.1/DTD/svg11.dtd">
<!-- Generated by graphviz version 2.40.1 (20161225.0304)
 -->
<!-- Title: src/adders/add_bond_angle.h Pages: 1 -->
<svg width="296pt" height="229pt"
 viewBox="0.00 0.00 296.00 229.00" xmlns="http://www.w3.org/2000/svg" xmlns:xlink="http://www.w3.org/1999/xlink">
<g id="graph0" class="graph" transform="scale(1 1) rotate(0) translate(4 225)">
<title>src/adders/add_bond_angle.h</title>
<polygon fill="#ffffff" stroke="transparent" points="-4,4 -4,-225 292,-225 292,4 -4,4"/>
<!-- Node21 -->
<g id="node1" class="node">
<title>Node21</title>
<polygon fill="#bfbfbf" stroke="#000000" points="62,-190.5 62,-220.5 169,-220.5 169,-190.5 62,-190.5"/>
<text text-anchor="start" x="70" y="-208.5" font-family="Helvetica,sans-Serif" font-size="10.00" fill="#000000">src/adders/add_bond</text>
<text text-anchor="middle" x="115.5" y="-197.5" font-family="Helvetica,sans-Serif" font-size="10.00" fill="#000000">_angle.h</text>
</g>
<!-- Node22 -->
<g id="node2" class="node">
<title>Node22</title>
<g id="a_node2"><a xlink:href="add__bond__angle_8cpp.html" target="_top" xlink:title="This file has an implementation of AddBondAngle class, which is a subclass of Adder class...">
<polygon fill="#ffffff" stroke="#000000" points="0,-123.5 0,-153.5 107,-153.5 107,-123.5 0,-123.5"/>
<text text-anchor="start" x="8" y="-141.5" font-family="Helvetica,sans-Serif" font-size="10.00" fill="#000000">src/adders/add_bond</text>
<text text-anchor="middle" x="53.5" y="-130.5" font-family="Helvetica,sans-Serif" font-size="10.00" fill="#000000">_angle.cpp</text>
</a>
</g>
</g>
<!-- Node21&#45;&gt;Node22 -->
<g id="edge1" class="edge">
<title>Node21&#45;&gt;Node22</title>
<path fill="none" stroke="#191970" d="M94.61,-182.9253C85.6871,-173.2828 75.5093,-162.2843 67.5131,-153.6432"/>
<polygon fill="#191970" stroke="#191970" points="92.0704,-185.3342 101.4312,-190.2967 97.2082,-180.5798 92.0704,-185.3342"/>
</g>
<!-- Node23 -->
<g id="node3" class="node">
<title>Node23</title>
<g id="a_node3"><a xlink:href="py__add__bond__angle_8h.html" target="_top" xlink:title="This file is for binding AddBondAngle class to Python. ">
<polygon fill="#ffffff" stroke="#000000" points="125,-123.5 125,-153.5 232,-153.5 232,-123.5 125,-123.5"/>
<text text-anchor="start" x="133" y="-141.5" font-family="Helvetica,sans-Serif" font-size="10.00" fill="#000000">src/pybind/adders/py</text>
<text text-anchor="middle" x="178.5" y="-130.5" font-family="Helvetica,sans-Serif" font-size="10.00" fill="#000000">_add_bond_angle.h</text>
</a>
</g>
</g>
<!-- Node21&#45;&gt;Node23 -->
<g id="edge2" class="edge">
<title>Node21&#45;&gt;Node23</title>
<path fill="none" stroke="#191970" d="M136.727,-182.9253C145.7938,-173.2828 156.1357,-162.2843 164.2609,-153.6432"/>
<polygon fill="#191970" stroke="#191970" points="134.0961,-180.6138 129.7957,-190.2967 139.1958,-185.409 134.0961,-180.6138"/>
</g>
<!-- Node24 -->
<g id="node4" class="node">
<title>Node24</title>
<g id="a_node4"><a xlink:href="pybind_8h.html" target="_top" xlink:title="This file includes all the header files containing definitions of functions to bind C++ and Python...">
<polygon fill="#ffffff" stroke="#000000" points="88.5,-62 88.5,-81 158.5,-81 158.5,-62 88.5,-62"/>
<text text-anchor="middle" x="123.5" y="-69" font-family="Helvetica,sans-Serif" font-size="10.00" fill="#000000">src/pybind.h</text>
</a>
</g>
</g>
<!-- Node23&#45;&gt;Node24 -->
<g id="edge3" class="edge">
<title>Node23&#45;&gt;Node24</title>
<path fill="none" stroke="#191970" d="M159.6401,-115.5252C149.9604,-103.7336 138.6911,-90.0055 131.3436,-81.055"/>
<polygon fill="#191970" stroke="#191970" points="156.9694,-117.7881 166.0196,-123.2967 162.3799,-113.3466 156.9694,-117.7881"/>
</g>
<!-- Node26 -->
<g id="node6" class="node">
<title>Node26</title>
<g id="a_node6"><a xlink:href="py__add__bond__angle_8cpp.html" target="_top" xlink:title="This file is for binding AddBondAngle class to Python. ">
<polygon fill="#ffffff" stroke="#000000" points="177,-56.5 177,-86.5 288,-86.5 288,-56.5 177,-56.5"/>
<text text-anchor="start" x="185" y="-74.5" font-family="Helvetica,sans-Serif" font-size="10.00" fill="#000000">src/pybind/adders/py</text>
<text text-anchor="middle" x="232.5" y="-63.5" font-family="Helvetica,sans-Serif" font-size="10.00" fill="#000000">_add_bond_angle.cpp</text>
</a>
</g>
</g>
<!-- Node23&#45;&gt;Node26 -->
<g id="edge5" class="edge">
<title>Node23&#45;&gt;Node26</title>
<path fill="none" stroke="#191970" d="M197.1575,-115.3509C204.8164,-105.8482 213.4685,-95.1132 220.2951,-86.6432"/>
<polygon fill="#191970" stroke="#191970" points="194.3036,-113.3143 190.7534,-123.2967 199.7538,-117.707 194.3036,-113.3143"/>
</g>
<!-- Node25 -->
<g id="node5" class="node">
<title>Node25</title>
<g id="a_node5"><a xlink:href="ppap4lmp_8cpp.html" target="_top" xlink:title="This file has no implementation, only includes a header file to bind C++ and Python. ">
<polygon fill="#ffffff" stroke="#000000" points="76.5,-.5 76.5,-19.5 170.5,-19.5 170.5,-.5 76.5,-.5"/>
<text text-anchor="middle" x="123.5" y="-7.5" font-family="Helvetica,sans-Serif" font-size="10.00" fill="#000000">src/ppap4lmp.cpp</text>
</a>
</g>
</g>
<!-- Node24&#45;&gt;Node25 -->
<g id="edge4" class="edge">
<title>Node24&#45;&gt;Node25</title>
<path fill="none" stroke="#191970" d="M123.5,-51.7462C123.5,-41.0519 123.5,-28.314 123.5,-19.7449"/>
<polygon fill="#191970" stroke="#191970" points="120.0001,-51.8906 123.5,-61.8906 127.0001,-51.8907 120.0001,-51.8906"/>
</g>
</g>
</svg>
