<?xml version="1.0" encoding="UTF-8" standalone="no"?>
<!DOCTYPE svg PUBLIC "-//W3C//DTD SVG 1.1//EN"
 "http://www.w3.org/Graphics/SVG/1.1/DTD/svg11.dtd">
<!-- Generated by graphviz version 2.40.1 (20161225.0304)
 -->
<!-- Title: src/adders/add_gyration_radius.cpp Pages: 1 -->
<svg width="597pt" height="543pt"
 viewBox="0.00 0.00 596.50 543.00" xmlns="http://www.w3.org/2000/svg" xmlns:xlink="http://www.w3.org/1999/xlink">
<g id="graph0" class="graph" transform="scale(1 1) rotate(0) translate(4 539)">
<title>src/adders/add_gyration_radius.cpp</title>
<polygon fill="#ffffff" stroke="transparent" points="-4,4 -4,-539 592.5,-539 592.5,4 -4,4"/>
<!-- Node0 -->
<g id="node1" class="node">
<title>Node0</title>
<polygon fill="#bfbfbf" stroke="#000000" points="0,-504.5 0,-534.5 121,-534.5 121,-504.5 0,-504.5"/>
<text text-anchor="start" x="8" y="-522.5" font-family="Helvetica,sans-Serif" font-size="10.00" fill="#000000">src/adders/add_gyration</text>
<text text-anchor="middle" x="60.5" y="-511.5" font-family="Helvetica,sans-Serif" font-size="10.00" fill="#000000">_radius.cpp</text>
</g>
<!-- Node1 -->
<g id="node2" class="node">
<title>Node1</title>
<g id="a_node2"><a xlink:href="add__gyration__radius_8h.html" target="_top" xlink:title="This file has a definition of AddGyrationRadius class, which is a subclass of Adder class...">
<polygon fill="#ffffff" stroke="#000000" points="4.5,-448.5 4.5,-467.5 116.5,-467.5 116.5,-448.5 4.5,-448.5"/>
<text text-anchor="middle" x="60.5" y="-455.5" font-family="Helvetica,sans-Serif" font-size="10.00" fill="#000000">add_gyration_radius.h</text>
</a>
</g>
</g>
<!-- Node0&#45;&gt;Node1 -->
<g id="edge1" class="edge">
<title>Node0&#45;&gt;Node1</title>
<path fill="none" stroke="#191970" d="M60.5,-504.2977C60.5,-496.3834 60.5,-486.6043 60.5,-478.0759"/>
<polygon fill="#191970" stroke="#191970" points="64.0001,-477.8469 60.5,-467.8469 57.0001,-477.847 64.0001,-477.8469"/>
</g>
<!-- Node2 -->
<g id="node3" class="node">
<title>Node2</title>
<g id="a_node3"><a xlink:href="adder_8h.html" target="_top" xlink:title="This file has a definition of Adder class, which is a subclass of Updater class. ">
<polygon fill="#ffffff" stroke="#000000" points="20,-392.5 20,-411.5 101,-411.5 101,-392.5 20,-392.5"/>
<text text-anchor="middle" x="60.5" y="-399.5" font-family="Helvetica,sans-Serif" font-size="10.00" fill="#000000">adders/adder.h</text>
</a>
</g>
</g>
<!-- Node1&#45;&gt;Node2 -->
<g id="edge2" class="edge">
<title>Node1&#45;&gt;Node2</title>
<path fill="none" stroke="#191970" d="M60.5,-448.2455C60.5,-440.9382 60.5,-430.6944 60.5,-421.7046"/>
<polygon fill="#191970" stroke="#191970" points="64.0001,-421.6426 60.5,-411.6427 57.0001,-421.6427 64.0001,-421.6426"/>
</g>
<!-- Node3 -->
<g id="node4" class="node">
<title>Node3</title>
<g id="a_node4"><a xlink:href="updater_8h.html" target="_top" xlink:title="This file has a definition of Updater class, which is one of the cores of this program. ">
<polygon fill="#ffffff" stroke="#000000" points="21,-336.5 21,-355.5 100,-355.5 100,-336.5 21,-336.5"/>
<text text-anchor="middle" x="60.5" y="-343.5" font-family="Helvetica,sans-Serif" font-size="10.00" fill="#000000">core/updater.h</text>
</a>
</g>
</g>
<!-- Node2&#45;&gt;Node3 -->
<g id="edge3" class="edge">
<title>Node2&#45;&gt;Node3</title>
<path fill="none" stroke="#191970" d="M60.5,-392.2455C60.5,-384.9382 60.5,-374.6944 60.5,-365.7046"/>
<polygon fill="#191970" stroke="#191970" points="64.0001,-365.6426 60.5,-355.6427 57.0001,-365.6427 64.0001,-365.6426"/>
</g>
<!-- Node4 -->
<g id="node5" class="node">
<title>Node4</title>
<polygon fill="#ffffff" stroke="#bfbfbf" points="1.5,-112.5 1.5,-131.5 45.5,-131.5 45.5,-112.5 1.5,-112.5"/>
<text text-anchor="middle" x="23.5" y="-119.5" font-family="Helvetica,sans-Serif" font-size="10.00" fill="#000000">omp.h</text>
</g>
<!-- Node3&#45;&gt;Node4 -->
<g id="edge4" class="edge">
<title>Node3&#45;&gt;Node4</title>
<path fill="none" stroke="#191970" d="M58.9102,-336.375C53.3004,-302.4133 34.36,-187.7472 26.7275,-141.5392"/>
<polygon fill="#191970" stroke="#191970" points="30.1669,-140.885 25.0839,-131.5891 23.2605,-142.0259 30.1669,-140.885"/>
</g>
<!-- Node5 -->
<g id="node6" class="node">
<title>Node5</title>
<g id="a_node6"><a xlink:href="generators_8h.html" target="_top" xlink:title="This file includes all the header files of subclasses of Generator class. ">
<polygon fill="#ffffff" stroke="#000000" points="68.5,-280.5 68.5,-299.5 160.5,-299.5 160.5,-280.5 68.5,-280.5"/>
<text text-anchor="middle" x="114.5" y="-287.5" font-family="Helvetica,sans-Serif" font-size="10.00" fill="#000000">core/generators.h</text>
</a>
</g>
</g>
<!-- Node3&#45;&gt;Node5 -->
<g id="edge5" class="edge">
<title>Node3&#45;&gt;Node5</title>
<path fill="none" stroke="#191970" d="M69.9061,-336.2455C77.6493,-328.2155 88.812,-316.6394 98.0318,-307.0781"/>
<polygon fill="#191970" stroke="#191970" points="100.7798,-309.2706 105.2017,-299.6427 95.7409,-304.4117 100.7798,-309.2706"/>
</g>
<!-- Node6 -->
<g id="node7" class="node">
<title>Node6</title>
<g id="a_node7"><a xlink:href="element_8h.html" target="_top" xlink:title="This file has a definition of Element class, which is one of the cores of this program. ">
<polygon fill="#ffffff" stroke="#000000" points="91,-168.5 91,-187.5 172,-187.5 172,-168.5 91,-168.5"/>
<text text-anchor="middle" x="131.5" y="-175.5" font-family="Helvetica,sans-Serif" font-size="10.00" fill="#000000">core/element.h</text>
</a>
</g>
</g>
<!-- Node5&#45;&gt;Node6 -->
<g id="edge6" class="edge">
<title>Node5&#45;&gt;Node6</title>
<path fill="none" stroke="#191970" d="M103.4645,-280.3308C90.3689,-267.6184 71.3867,-244.4925 80.5,-224 85.9508,-211.7432 96.4599,-201.3755 106.5289,-193.6036"/>
<polygon fill="#191970" stroke="#191970" points="108.6744,-196.3721 114.7627,-187.7012 104.596,-190.6828 108.6744,-196.3721"/>
</g>
<!-- Node20 -->
<g id="node21" class="node">
<title>Node20</title>
<g id="a_node21"><a xlink:href="gen__dict_8h.html" target="_top" xlink:title="This file has a definition of GenDict class. ">
<polygon fill="#ffffff" stroke="#000000" points="90,-224.5 90,-243.5 173,-243.5 173,-224.5 90,-224.5"/>
<text text-anchor="middle" x="131.5" y="-231.5" font-family="Helvetica,sans-Serif" font-size="10.00" fill="#000000">core/gen_dict.h</text>
</a>
</g>
</g>
<!-- Node5&#45;&gt;Node20 -->
<g id="edge21" class="edge">
<title>Node5&#45;&gt;Node20</title>
<path fill="none" stroke="#191970" d="M117.4612,-280.2455C119.7038,-272.8579 122.8577,-262.4689 125.6081,-253.4087"/>
<polygon fill="#191970" stroke="#191970" points="129.017,-254.2282 128.5728,-243.6427 122.3188,-252.1948 129.017,-254.2282"/>
</g>
<!-- Node21 -->
<g id="node22" class="node">
<title>Node21</title>
<g id="a_node22"><a xlink:href="gen__list_8h.html" target="_top" xlink:title="This file has a definition of GenList class. ">
<polygon fill="#ffffff" stroke="#000000" points="191.5,-224.5 191.5,-243.5 271.5,-243.5 271.5,-224.5 191.5,-224.5"/>
<text text-anchor="middle" x="231.5" y="-231.5" font-family="Helvetica,sans-Serif" font-size="10.00" fill="#000000">core/gen_list.h</text>
</a>
</g>
</g>
<!-- Node5&#45;&gt;Node21 -->
<g id="edge23" class="edge">
<title>Node5&#45;&gt;Node21</title>
<path fill="none" stroke="#191970" d="M134.613,-280.3733C153.3103,-271.4241 181.3744,-257.9917 202.4934,-247.8835"/>
<polygon fill="#191970" stroke="#191970" points="204.1405,-250.9755 211.6494,-243.5011 201.1183,-244.6614 204.1405,-250.9755"/>
</g>
<!-- Node6&#45;&gt;Node4 -->
<g id="edge7" class="edge">
<title>Node6&#45;&gt;Node4</title>
<path fill="none" stroke="#191970" d="M112.6878,-168.2455C95.6527,-159.4125 70.3425,-146.2887 51.0319,-136.2758"/>
<polygon fill="#191970" stroke="#191970" points="52.5853,-133.1388 42.0966,-131.6427 49.363,-139.353 52.5853,-133.1388"/>
</g>
<!-- Node7 -->
<g id="node8" class="node">
<title>Node7</title>
<g id="a_node8"><a xlink:href="eigen_8h.html" target="_top" xlink:title="This file includes Eigen and defines some aliases for the Eigen&#45;Vector, Matrix and Array...">
<polygon fill="#ffffff" stroke="#000000" points="64,-112.5 64,-131.5 135,-131.5 135,-112.5 64,-112.5"/>
<text text-anchor="middle" x="99.5" y="-119.5" font-family="Helvetica,sans-Serif" font-size="10.00" fill="#000000">alias/eigen.h</text>
</a>
</g>
</g>
<!-- Node6&#45;&gt;Node7 -->
<g id="edge8" class="edge">
<title>Node6&#45;&gt;Node7</title>
<path fill="none" stroke="#191970" d="M125.926,-168.2455C121.5669,-160.617 115.3789,-149.7881 110.0867,-140.5267"/>
<polygon fill="#191970" stroke="#191970" points="113.0104,-138.5886 105.0101,-131.6427 106.9327,-142.0616 113.0104,-138.5886"/>
</g>
<!-- Node9 -->
<g id="node10" class="node">
<title>Node9</title>
<g id="a_node10"><a xlink:href="alias_2pybind_8h.html" target="_top" xlink:title="This file includes pybind11 and defines an alias for the namespace pybind11. ">
<polygon fill="#ffffff" stroke="#000000" points="153,-112.5 153,-131.5 230,-131.5 230,-112.5 153,-112.5"/>
<text text-anchor="middle" x="191.5" y="-119.5" font-family="Helvetica,sans-Serif" font-size="10.00" fill="#000000">alias/pybind.h</text>
</a>
</g>
</g>
<!-- Node6&#45;&gt;Node9 -->
<g id="edge10" class="edge">
<title>Node6&#45;&gt;Node9</title>
<path fill="none" stroke="#191970" d="M141.9512,-168.2455C150.7269,-160.0549 163.4554,-148.1749 173.814,-138.5069"/>
<polygon fill="#191970" stroke="#191970" points="176.2461,-141.0246 181.1686,-131.6427 171.4699,-135.9072 176.2461,-141.0246"/>
</g>
<!-- Node11 -->
<g id="node12" class="node">
<title>Node11</title>
<g id="a_node12"><a xlink:href="generator_8h.html" target="_top" xlink:title="This file has a definition of Generator class, which is one of the cores of this program. ">
<polygon fill="#ffffff" stroke="#000000" points="250,-112.5 250,-131.5 337,-131.5 337,-112.5 250,-112.5"/>
<text text-anchor="middle" x="293.5" y="-119.5" font-family="Helvetica,sans-Serif" font-size="10.00" fill="#000000">core/generator.h</text>
</a>
</g>
</g>
<!-- Node6&#45;&gt;Node11 -->
<g id="edge12" class="edge">
<title>Node6&#45;&gt;Node11</title>
<path fill="none" stroke="#191970" d="M159.3488,-168.3733C186.1703,-159.1016 226.9127,-145.0178 256.4598,-134.804"/>
<polygon fill="#191970" stroke="#191970" points="257.7069,-138.0762 266.0146,-131.5011 255.4198,-131.4603 257.7069,-138.0762"/>
</g>
<!-- Node8 -->
<g id="node9" class="node">
<title>Node8</title>
<polygon fill="#ffffff" stroke="#bfbfbf" points="48.5,-56.5 48.5,-75.5 120.5,-75.5 120.5,-56.5 48.5,-56.5"/>
<text text-anchor="middle" x="84.5" y="-63.5" font-family="Helvetica,sans-Serif" font-size="10.00" fill="#000000">Eigen/Dense</text>
</g>
<!-- Node7&#45;&gt;Node8 -->
<g id="edge9" class="edge">
<title>Node7&#45;&gt;Node8</title>
<path fill="none" stroke="#191970" d="M96.8872,-112.2455C94.9084,-104.8579 92.1256,-94.4689 89.6988,-85.4087"/>
<polygon fill="#191970" stroke="#191970" points="93.0511,-84.3966 87.0829,-75.6427 86.2895,-86.2078 93.0511,-84.3966"/>
</g>
<!-- Node10 -->
<g id="node11" class="node">
<title>Node10</title>
<polygon fill="#ffffff" stroke="#bfbfbf" points="138.5,-56.5 138.5,-75.5 244.5,-75.5 244.5,-56.5 138.5,-56.5"/>
<text text-anchor="middle" x="191.5" y="-63.5" font-family="Helvetica,sans-Serif" font-size="10.00" fill="#000000">pybind11/pybind11.h</text>
</g>
<!-- Node9&#45;&gt;Node10 -->
<g id="edge11" class="edge">
<title>Node9&#45;&gt;Node10</title>
<path fill="none" stroke="#191970" d="M191.5,-112.2455C191.5,-104.9382 191.5,-94.6944 191.5,-85.7046"/>
<polygon fill="#191970" stroke="#191970" points="195.0001,-85.6426 191.5,-75.6427 188.0001,-85.6427 195.0001,-85.6426"/>
</g>
<!-- Node12 -->
<g id="node13" class="node">
<title>Node12</title>
<g id="a_node13"><a xlink:href="std_8h.html" target="_top" xlink:title="This file includes a part of C++ Standard Template Library and defines aliases for them...">
<polygon fill="#ffffff" stroke="#000000" points="262.5,-56.5 262.5,-75.5 324.5,-75.5 324.5,-56.5 262.5,-56.5"/>
<text text-anchor="middle" x="293.5" y="-63.5" font-family="Helvetica,sans-Serif" font-size="10.00" fill="#000000">alias/std.h</text>
</a>
</g>
</g>
<!-- Node11&#45;&gt;Node12 -->
<g id="edge13" class="edge">
<title>Node11&#45;&gt;Node12</title>
<path fill="none" stroke="#191970" d="M293.5,-112.2455C293.5,-104.9382 293.5,-94.6944 293.5,-85.7046"/>
<polygon fill="#191970" stroke="#191970" points="297.0001,-85.6426 293.5,-75.6427 290.0001,-85.6427 297.0001,-85.6426"/>
</g>
<!-- Node18 -->
<g id="node19" class="node">
<title>Node18</title>
<g id="a_node19"><a xlink:href="json_8h.html" target="_top" xlink:title="This file includes nlohmann/json and defines an alias for a JSON class. ">
<polygon fill="#ffffff" stroke="#000000" points="424.5,-56.5 424.5,-75.5 490.5,-75.5 490.5,-56.5 424.5,-56.5"/>
<text text-anchor="middle" x="457.5" y="-63.5" font-family="Helvetica,sans-Serif" font-size="10.00" fill="#000000">alias/json.h</text>
</a>
</g>
</g>
<!-- Node11&#45;&gt;Node18 -->
<g id="edge19" class="edge">
<title>Node11&#45;&gt;Node18</title>
<path fill="none" stroke="#191970" d="M321.6926,-112.3733C348.8453,-103.1016 390.0907,-89.0178 420.0025,-78.804"/>
<polygon fill="#191970" stroke="#191970" points="421.3428,-82.0449 429.6753,-75.5011 419.0808,-75.4204 421.3428,-82.0449"/>
</g>
<!-- Node13 -->
<g id="node14" class="node">
<title>Node13</title>
<polygon fill="#ffffff" stroke="#bfbfbf" points="100.5,-.5 100.5,-19.5 152.5,-19.5 152.5,-.5 100.5,-.5"/>
<text text-anchor="middle" x="126.5" y="-7.5" font-family="Helvetica,sans-Serif" font-size="10.00" fill="#000000">memory</text>
</g>
<!-- Node12&#45;&gt;Node13 -->
<g id="edge14" class="edge">
<title>Node12&#45;&gt;Node13</title>
<path fill="none" stroke="#191970" d="M264.7917,-56.3733C236.472,-46.8769 193.0976,-32.3321 162.489,-22.0682"/>
<polygon fill="#191970" stroke="#191970" points="163.2321,-18.6259 152.6382,-18.7649 161.0066,-25.2627 163.2321,-18.6259"/>
</g>
<!-- Node14 -->
<g id="node15" class="node">
<title>Node14</title>
<polygon fill="#ffffff" stroke="#bfbfbf" points="171,-.5 171,-19.5 212,-19.5 212,-.5 171,-.5"/>
<text text-anchor="middle" x="191.5" y="-7.5" font-family="Helvetica,sans-Serif" font-size="10.00" fill="#000000">string</text>
</g>
<!-- Node12&#45;&gt;Node14 -->
<g id="edge15" class="edge">
<title>Node12&#45;&gt;Node14</title>
<path fill="none" stroke="#191970" d="M275.733,-56.2455C259.7905,-47.4928 236.1741,-34.527 218.0011,-24.5496"/>
<polygon fill="#191970" stroke="#191970" points="219.5137,-21.3873 209.0634,-19.6427 216.1448,-27.5233 219.5137,-21.3873"/>
</g>
<!-- Node15 -->
<g id="node16" class="node">
<title>Node15</title>
<polygon fill="#ffffff" stroke="#bfbfbf" points="230.5,-.5 230.5,-19.5 274.5,-19.5 274.5,-.5 230.5,-.5"/>
<text text-anchor="middle" x="252.5" y="-7.5" font-family="Helvetica,sans-Serif" font-size="10.00" fill="#000000">vector</text>
</g>
<!-- Node12&#45;&gt;Node15 -->
<g id="edge16" class="edge">
<title>Node12&#45;&gt;Node15</title>
<path fill="none" stroke="#191970" d="M286.3583,-56.2455C280.6556,-48.4564 272.51,-37.3308 265.6375,-27.9439"/>
<polygon fill="#191970" stroke="#191970" points="268.2913,-25.6437 259.5598,-19.6427 262.6432,-29.7789 268.2913,-25.6437"/>
</g>
<!-- Node16 -->
<g id="node17" class="node">
<title>Node16</title>
<polygon fill="#ffffff" stroke="#bfbfbf" points="293,-.5 293,-19.5 376,-19.5 376,-.5 293,-.5"/>
<text text-anchor="middle" x="334.5" y="-7.5" font-family="Helvetica,sans-Serif" font-size="10.00" fill="#000000">unordered_map</text>
</g>
<!-- Node12&#45;&gt;Node16 -->
<g id="edge17" class="edge">
<title>Node12&#45;&gt;Node16</title>
<path fill="none" stroke="#191970" d="M300.6417,-56.2455C306.3444,-48.4564 314.49,-37.3308 321.3625,-27.9439"/>
<polygon fill="#191970" stroke="#191970" points="324.3568,-29.7789 327.4402,-19.6427 318.7087,-25.6437 324.3568,-29.7789"/>
</g>
<!-- Node17 -->
<g id="node18" class="node">
<title>Node17</title>
<polygon fill="#ffffff" stroke="#bfbfbf" points="394.5,-.5 394.5,-19.5 472.5,-19.5 472.5,-.5 394.5,-.5"/>
<text text-anchor="middle" x="433.5" y="-7.5" font-family="Helvetica,sans-Serif" font-size="10.00" fill="#000000">unordered_set</text>
</g>
<!-- Node12&#45;&gt;Node17 -->
<g id="edge18" class="edge">
<title>Node12&#45;&gt;Node17</title>
<path fill="none" stroke="#191970" d="M317.5669,-56.3733C340.3428,-47.2629 374.7344,-33.5062 400.149,-23.3404"/>
<polygon fill="#191970" stroke="#191970" points="401.7623,-26.4648 409.7472,-19.5011 399.1625,-19.9654 401.7623,-26.4648"/>
</g>
<!-- Node19 -->
<g id="node20" class="node">
<title>Node19</title>
<polygon fill="#ffffff" stroke="#bfbfbf" points="490.5,-.5 490.5,-19.5 588.5,-19.5 588.5,-.5 490.5,-.5"/>
<text text-anchor="middle" x="539.5" y="-7.5" font-family="Helvetica,sans-Serif" font-size="10.00" fill="#000000">nlohmann/json.hpp</text>
</g>
<!-- Node18&#45;&gt;Node19 -->
<g id="edge20" class="edge">
<title>Node18&#45;&gt;Node19</title>
<path fill="none" stroke="#191970" d="M471.7833,-56.2455C484.247,-47.7337 502.5451,-35.2375 516.9792,-25.3801"/>
<polygon fill="#191970" stroke="#191970" points="519.0962,-28.1726 525.3804,-19.6427 515.1485,-22.392 519.0962,-28.1726"/>
</g>
<!-- Node20&#45;&gt;Node6 -->
<g id="edge22" class="edge">
<title>Node20&#45;&gt;Node6</title>
<path fill="none" stroke="#191970" d="M131.5,-224.2455C131.5,-216.9382 131.5,-206.6944 131.5,-197.7046"/>
<polygon fill="#191970" stroke="#191970" points="135.0001,-197.6426 131.5,-187.6427 128.0001,-197.6427 135.0001,-197.6426"/>
</g>
<!-- Node21&#45;&gt;Node6 -->
<g id="edge24" class="edge">
<title>Node21&#45;&gt;Node6</title>
<path fill="none" stroke="#191970" d="M214.0813,-224.2455C198.4515,-215.4928 175.2981,-202.527 157.4815,-192.5496"/>
<polygon fill="#191970" stroke="#191970" points="159.1543,-189.475 148.7191,-187.6427 155.734,-195.5825 159.1543,-189.475"/>
</g>
</g>
</svg>
