<?xml version="1.0" encoding="UTF-8" standalone="no"?>
<!DOCTYPE svg PUBLIC "-//W3C//DTD SVG 1.1//EN"
 "http://www.w3.org/Graphics/SVG/1.1/DTD/svg11.dtd">
<!-- Generated by graphviz version 2.40.1 (20161225.0304)
 -->
<!-- Title: StaDumpAtoms::compute_impl Pages: 1 -->
<svg width="294pt" height="66pt"
 viewBox="0.00 0.00 294.00 66.00" xmlns="http://www.w3.org/2000/svg" xmlns:xlink="http://www.w3.org/1999/xlink">
<g id="graph0" class="graph" transform="scale(1 1) rotate(0) translate(4 62)">
<title>StaDumpAtoms::compute_impl</title>
<polygon fill="#ffffff" stroke="transparent" points="-4,4 -4,-62 290,-62 290,4 -4,4"/>
<!-- Node0 -->
<g id="node1" class="node">
<title>Node0</title>
<polygon fill="#bfbfbf" stroke="#000000" points="0,-19.5 0,-38.5 152,-38.5 152,-19.5 0,-19.5"/>
<text text-anchor="middle" x="76" y="-26.5" font-family="Helvetica,sans-Serif" font-size="10.00" fill="#000000">StaDumpAtoms::compute_impl</text>
</g>
<!-- Node1 -->
<g id="node2" class="node">
<title>Node1</title>
<g id="a_node2"><a xlink:href="namespaceutils.html#acee57b54806ee63ddaa30518fed90adb" target="_top" xlink:title="Raise (for Python) and throw (for C++) a runtime error. ">
<polygon fill="#ffffff" stroke="#000000" points="188,-38.5 188,-57.5 286,-57.5 286,-38.5 188,-38.5"/>
<text text-anchor="middle" x="237" y="-45.5" font-family="Helvetica,sans-Serif" font-size="10.00" fill="#000000">utils::runtime_error</text>
</a>
</g>
</g>
<!-- Node0&#45;&gt;Node1 -->
<g id="edge1" class="edge">
<title>Node0&#45;&gt;Node1</title>
<path fill="none" stroke="#191970" d="M152.2566,-37.9992C160.7145,-38.9974 169.2349,-40.0029 177.4432,-40.9716"/>
<polygon fill="#191970" stroke="#191970" points="177.3038,-44.4793 187.6451,-42.1755 178.1243,-37.5276 177.3038,-44.4793"/>
</g>
<!-- Node2 -->
<g id="node3" class="node">
<title>Node2</title>
<g id="a_node3"><a xlink:href="namespaceutils.html#a96d358b93c453a686f65db462e2be70f" target="_top" xlink:title="Mimicking Python&#39;s split. ">
<polygon fill="#ffffff" stroke="#000000" points="207.5,-.5 207.5,-19.5 266.5,-19.5 266.5,-.5 207.5,-.5"/>
<text text-anchor="middle" x="237" y="-7.5" font-family="Helvetica,sans-Serif" font-size="10.00" fill="#000000">utils::split</text>
</a>
</g>
</g>
<!-- Node0&#45;&gt;Node2 -->
<g id="edge2" class="edge">
<title>Node0&#45;&gt;Node2</title>
<path fill="none" stroke="#191970" d="M152.2566,-20.0008C167.8008,-18.1664 183.5564,-16.307 197.1968,-14.6973"/>
<polygon fill="#191970" stroke="#191970" points="197.6559,-18.1675 207.1768,-13.5195 196.8355,-11.2157 197.6559,-18.1675"/>
</g>
</g>
</svg>
