<?xml version="1.0" encoding="UTF-8" standalone="no"?>
<!DOCTYPE svg PUBLIC "-//W3C//DTD SVG 1.1//EN"
 "http://www.w3.org/Graphics/SVG/1.1/DTD/svg11.dtd">
<!-- Generated by graphviz version 2.40.1 (20161225.0304)
 -->
<!-- Title: InvOMP Pages: 1 -->
<svg width="97pt" height="215pt"
 viewBox="0.00 0.00 97.00 215.00" xmlns="http://www.w3.org/2000/svg" xmlns:xlink="http://www.w3.org/1999/xlink">
<g id="graph0" class="graph" transform="scale(1 1) rotate(0) translate(4 211)">
<title>InvOMP</title>
<polygon fill="#ffffff" stroke="transparent" points="-4,4 -4,-211 93,-211 93,4 -4,4"/>
<!-- Node0 -->
<g id="node1" class="node">
<title>Node0</title>
<polygon fill="#bfbfbf" stroke="#000000" points="0,-.5 0,-79.5 89,-79.5 89,-.5 0,-.5"/>
<text text-anchor="middle" x="44.5" y="-67.5" font-family="Helvetica,sans-Serif" font-size="10.00" fill="#000000">InvOMP</text>
<polyline fill="none" stroke="#000000" points="0,-60.5 89,-60.5 "/>
<text text-anchor="middle" x="44.5" y="-48.5" font-family="Helvetica,sans-Serif" font-size="10.00" fill="#000000"> </text>
<polyline fill="none" stroke="#000000" points="0,-41.5 89,-41.5 "/>
<text text-anchor="start" x="8" y="-29.5" font-family="Helvetica,sans-Serif" font-size="10.00" fill="#000000">+ ~InvOMP()</text>
<text text-anchor="start" x="8" y="-18.5" font-family="Helvetica,sans-Serif" font-size="10.00" fill="#000000">+ Invoker()</text>
<text text-anchor="start" x="8" y="-7.5" font-family="Helvetica,sans-Serif" font-size="10.00" fill="#000000"># execute_impl()</text>
</g>
<!-- Node1 -->
<g id="node2" class="node">
<title>Node1</title>
<g id="a_node2"><a xlink:href="classInvoker.html" target="_top" xlink:title="Invoker executes analysis programmed in one or more Processor objects. ">
<polygon fill="#ffffff" stroke="#000000" points="0,-116.5 0,-206.5 89,-206.5 89,-116.5 0,-116.5"/>
<text text-anchor="middle" x="44.5" y="-194.5" font-family="Helvetica,sans-Serif" font-size="10.00" fill="#000000">Invoker</text>
<polyline fill="none" stroke="#000000" points="0,-187.5 89,-187.5 "/>
<text text-anchor="middle" x="44.5" y="-175.5" font-family="Helvetica,sans-Serif" font-size="10.00" fill="#000000"> </text>
<polyline fill="none" stroke="#000000" points="0,-168.5 89,-168.5 "/>
<text text-anchor="start" x="8" y="-156.5" font-family="Helvetica,sans-Serif" font-size="10.00" fill="#000000">+ Invoker()</text>
<text text-anchor="start" x="8" y="-145.5" font-family="Helvetica,sans-Serif" font-size="10.00" fill="#000000">+ ~Invoker()</text>
<text text-anchor="start" x="8" y="-134.5" font-family="Helvetica,sans-Serif" font-size="10.00" fill="#000000">+ execute()</text>
<text text-anchor="start" x="8" y="-123.5" font-family="Helvetica,sans-Serif" font-size="10.00" fill="#000000"># execute_impl()</text>
</a>
</g>
</g>
<!-- Node1&#45;&gt;Node0 -->
<g id="edge1" class="edge">
<title>Node1&#45;&gt;Node0</title>
<path fill="none" stroke="#191970" d="M44.5,-106.254C44.5,-97.2956 44.5,-88.1763 44.5,-79.6838"/>
<polygon fill="none" stroke="#191970" points="41.0001,-106.2578 44.5,-116.2579 48.0001,-106.2579 41.0001,-106.2578"/>
</g>
</g>
</svg>
