<?xml version="1.0" encoding="UTF-8" standalone="no"?>
<!DOCTYPE svg PUBLIC "-//W3C//DTD SVG 1.1//EN"
 "http://www.w3.org/Graphics/SVG/1.1/DTD/svg11.dtd">
<!-- Generated by graphviz version 2.40.1 (20161225.0304)
 -->
<!-- Title: Updater::compute_impl Pages: 1 -->
<svg width="450pt" height="104pt"
 viewBox="0.00 0.00 450.00 104.00" xmlns="http://www.w3.org/2000/svg" xmlns:xlink="http://www.w3.org/1999/xlink">
<g id="graph0" class="graph" transform="scale(1 1) rotate(0) translate(4 100)">
<title>Updater::compute_impl</title>
<polygon fill="#ffffff" stroke="transparent" points="-4,4 -4,-100 446,-100 446,4 -4,4"/>
<!-- Node19 -->
<g id="node1" class="node">
<title>Node19</title>
<polygon fill="#bfbfbf" stroke="#000000" points="0,-38.5 0,-57.5 117,-57.5 117,-38.5 0,-38.5"/>
<text text-anchor="middle" x="58.5" y="-45.5" font-family="Helvetica,sans-Serif" font-size="10.00" fill="#000000">Updater::compute_impl</text>
</g>
<!-- Node20 -->
<g id="node2" class="node">
<title>Node20</title>
<g id="a_node2"><a xlink:href="classUpdater.html#a120ffbee19948c3fa566c880a4518110" target="_top" xlink:title="Common part of compute_body. ">
<polygon fill="#ffffff" stroke="#000000" points="153,-38.5 153,-57.5 290,-57.5 290,-38.5 153,-38.5"/>
<text text-anchor="middle" x="221.5" y="-45.5" font-family="Helvetica,sans-Serif" font-size="10.00" fill="#000000">Updater::compute_common</text>
</a>
</g>
</g>
<!-- Node19&#45;&gt;Node20 -->
<g id="edge1" class="edge">
<title>Node19&#45;&gt;Node20</title>
<path fill="none" stroke="#191970" d="M127.4497,-48C135.8261,-48 144.3838,-48 152.7572,-48"/>
<polygon fill="#191970" stroke="#191970" points="127.3468,-44.5001 117.3467,-48 127.3467,-51.5001 127.3468,-44.5001"/>
</g>
<!-- Node21 -->
<g id="node3" class="node">
<title>Node21</title>
<g id="a_node3"><a xlink:href="classAdder.html#a1f415b46dad2a76b7611ae44f04536f4" target="_top" xlink:title="Compute properties and add them to Element::data given as a mutable reference. ">
<polygon fill="#ffffff" stroke="#000000" points="328,-76.5 328,-95.5 440,-95.5 440,-76.5 328,-76.5"/>
<text text-anchor="middle" x="384" y="-83.5" font-family="Helvetica,sans-Serif" font-size="10.00" fill="#000000">Adder::compute_body</text>
</a>
</g>
</g>
<!-- Node20&#45;&gt;Node21 -->
<g id="edge2" class="edge">
<title>Node20&#45;&gt;Node21</title>
<path fill="none" stroke="#191970" d="M272.3714,-59.8961C295.2124,-65.2374 321.7953,-71.4537 343.2893,-76.4799"/>
<polygon fill="#191970" stroke="#191970" points="273.0399,-56.4581 262.5056,-57.589 271.4459,-63.2742 273.0399,-56.4581"/>
</g>
<!-- Node22 -->
<g id="node4" class="node">
<title>Node22</title>
<g id="a_node4"><a xlink:href="classFilter.html#a76f3336345386c2788c46258fdf6fa01" target="_top" xlink:title="Filter elements from array Element::data given as a mutable reference. ">
<polygon fill="#ffffff" stroke="#000000" points="330,-38.5 330,-57.5 438,-57.5 438,-38.5 330,-38.5"/>
<text text-anchor="middle" x="384" y="-45.5" font-family="Helvetica,sans-Serif" font-size="10.00" fill="#000000">Filter::compute_body</text>
</a>
</g>
</g>
<!-- Node20&#45;&gt;Node22 -->
<g id="edge3" class="edge">
<title>Node20&#45;&gt;Node22</title>
<path fill="none" stroke="#191970" d="M300.6477,-48C310.5051,-48 320.4037,-48 329.7628,-48"/>
<polygon fill="#191970" stroke="#191970" points="300.4147,-44.5001 290.4146,-48 300.4146,-51.5001 300.4147,-44.5001"/>
</g>
<!-- Node23 -->
<g id="node5" class="node">
<title>Node23</title>
<g id="a_node5"><a xlink:href="classStarter.html#a7861e6f5974ae1e1feaf8b0efd4409ab" target="_top" xlink:title="Compute or parse properties and set them to Element::data given as a mutable reference. ">
<polygon fill="#ffffff" stroke="#000000" points="326,-.5 326,-19.5 442,-19.5 442,-.5 326,-.5"/>
<text text-anchor="middle" x="384" y="-7.5" font-family="Helvetica,sans-Serif" font-size="10.00" fill="#000000">Starter::compute_body</text>
</a>
</g>
</g>
<!-- Node20&#45;&gt;Node23 -->
<g id="edge4" class="edge">
<title>Node20&#45;&gt;Node23</title>
<path fill="none" stroke="#191970" d="M272.3714,-36.1039C295.2124,-30.7626 321.7953,-24.5463 343.2893,-19.5201"/>
<polygon fill="#191970" stroke="#191970" points="271.4459,-32.7258 262.5056,-38.411 273.0399,-39.5419 271.4459,-32.7258"/>
</g>
</g>
</svg>
