<?xml version="1.0" encoding="UTF-8" standalone="no"?>
<!DOCTYPE svg PUBLIC "-//W3C//DTD SVG 1.1//EN"
 "http://www.w3.org/Graphics/SVG/1.1/DTD/svg11.dtd">
<!-- Generated by graphviz version 2.40.1 (20161225.0304)
 -->
<!-- Title: ProRadialDistributionFunctionWithDeformation::run_impl Pages: 1 -->
<svg width="409pt" height="66pt"
 viewBox="0.00 0.00 409.00 66.00" xmlns="http://www.w3.org/2000/svg" xmlns:xlink="http://www.w3.org/1999/xlink">
<g id="graph0" class="graph" transform="scale(1 1) rotate(0) translate(4 62)">
<title>ProRadialDistributionFunctionWithDeformation::run_impl</title>
<polygon fill="#ffffff" stroke="transparent" points="-4,4 -4,-62 405,-62 405,4 -4,4"/>
<!-- Node22 -->
<g id="node1" class="node">
<title>Node22</title>
<polygon fill="#bfbfbf" stroke="#000000" points="0,-14 0,-44 145,-44 145,-14 0,-14"/>
<text text-anchor="start" x="8" y="-32" font-family="Helvetica,sans-Serif" font-size="10.00" fill="#000000">ProRadialDistributionFunction</text>
<text text-anchor="middle" x="72.5" y="-21" font-family="Helvetica,sans-Serif" font-size="10.00" fill="#000000">WithDeformation::run_impl</text>
</g>
<!-- Node23 -->
<g id="node2" class="node">
<title>Node23</title>
<g id="a_node2"><a xlink:href="namespaceutils.html#a362e3ea9867513a7bba06b6382d6527b" target="_top" xlink:title="Waning with a message. ">
<polygon fill="#ffffff" stroke="#000000" points="193,-38.5 193,-57.5 267,-57.5 267,-38.5 193,-38.5"/>
<text text-anchor="middle" x="230" y="-45.5" font-family="Helvetica,sans-Serif" font-size="10.00" fill="#000000">utils::warning</text>
</a>
</g>
</g>
<!-- Node22&#45;&gt;Node23 -->
<g id="edge1" class="edge">
<title>Node22&#45;&gt;Node23</title>
<path fill="none" stroke="#191970" d="M145.2566,-37.777C157.974,-39.3111 170.901,-40.8706 182.7007,-42.2941"/>
<polygon fill="#191970" stroke="#191970" points="182.3992,-45.783 192.7464,-43.5059 183.2376,-38.8334 182.3992,-45.783"/>
</g>
<!-- Node25 -->
<g id="node4" class="node">
<title>Node25</title>
<g id="a_node4"><a xlink:href="namespaceutils.html#acee57b54806ee63ddaa30518fed90adb" target="_top" xlink:title="Raise (for Python) and throw (for C++) a runtime error. ">
<polygon fill="#ffffff" stroke="#000000" points="181,-.5 181,-19.5 279,-19.5 279,-.5 181,-.5"/>
<text text-anchor="middle" x="230" y="-7.5" font-family="Helvetica,sans-Serif" font-size="10.00" fill="#000000">utils::runtime_error</text>
</a>
</g>
</g>
<!-- Node22&#45;&gt;Node25 -->
<g id="edge3" class="edge">
<title>Node22&#45;&gt;Node25</title>
<path fill="none" stroke="#191970" d="M145.2566,-20.223C153.852,-19.1861 162.5431,-18.1377 170.9173,-17.1274"/>
<polygon fill="#191970" stroke="#191970" points="171.4381,-20.5901 180.9469,-15.9175 170.5997,-13.6405 171.4381,-20.5901"/>
</g>
<!-- Node24 -->
<g id="node3" class="node">
<title>Node24</title>
<g id="a_node3"><a xlink:href="namespaceutils.html#a3b5f21e223fdb0898119de641a1685f6" target="_top" xlink:title="Print to standard output. ">
<polygon fill="#ffffff" stroke="#000000" points="315,-38.5 315,-57.5 401,-57.5 401,-38.5 315,-38.5"/>
<text text-anchor="middle" x="358" y="-45.5" font-family="Helvetica,sans-Serif" font-size="10.00" fill="#000000">utils::_message</text>
</a>
</g>
</g>
<!-- Node23&#45;&gt;Node24 -->
<g id="edge2" class="edge">
<title>Node23&#45;&gt;Node24</title>
<path fill="none" stroke="#191970" d="M267.0229,-48C278.7914,-48 292.0496,-48 304.7293,-48"/>
<polygon fill="#191970" stroke="#191970" points="304.7348,-51.5001 314.7348,-48 304.7347,-44.5001 304.7348,-51.5001"/>
</g>
</g>
</svg>
