<?xml version="1.0" encoding="UTF-8" standalone="no"?>
<!DOCTYPE svg PUBLIC "-//W3C//DTD SVG 1.1//EN"
 "http://www.w3.org/Graphics/SVG/1.1/DTD/svg11.dtd">
<!-- Generated by graphviz version 2.40.1 (20161225.0304)
 -->
<!-- Title: AddSpecialBonds::compute_impl Pages: 1 -->
<svg width="440pt" height="47pt"
 viewBox="0.00 0.00 440.00 47.00" xmlns="http://www.w3.org/2000/svg" xmlns:xlink="http://www.w3.org/1999/xlink">
<g id="graph0" class="graph" transform="scale(1 1) rotate(0) translate(4 43)">
<title>AddSpecialBonds::compute_impl</title>
<polygon fill="#ffffff" stroke="transparent" points="-4,4 -4,-43 436,-43 436,4 -4,4"/>
<!-- Node4 -->
<g id="node1" class="node">
<title>Node4</title>
<polygon fill="#bfbfbf" stroke="#000000" points="0,-19.5 0,-38.5 161,-38.5 161,-19.5 0,-19.5"/>
<text text-anchor="middle" x="80.5" y="-26.5" font-family="Helvetica,sans-Serif" font-size="10.00" fill="#000000">AddSpecialBonds::compute_impl</text>
</g>
<!-- Node5 -->
<g id="node2" class="node">
<title>Node5</title>
<g id="a_node2"><a xlink:href="namespaceutils.html#acee57b54806ee63ddaa30518fed90adb" target="_top" xlink:title="Raise (for Python) and throw (for C++) a runtime error. ">
<polygon fill="#ffffff" stroke="#000000" points="334,-19.5 334,-38.5 432,-38.5 432,-19.5 334,-19.5"/>
<text text-anchor="middle" x="383" y="-26.5" font-family="Helvetica,sans-Serif" font-size="10.00" fill="#000000">utils::runtime_error</text>
</a>
</g>
</g>
<!-- Node4&#45;&gt;Node5 -->
<g id="edge1" class="edge">
<title>Node4&#45;&gt;Node5</title>
<path fill="none" stroke="#191970" d="M161.1671,-29C212.2598,-29 277.2044,-29 323.596,-29"/>
<polygon fill="#191970" stroke="#191970" points="323.7895,-32.5001 333.7895,-29 323.7894,-25.5001 323.7895,-32.5001"/>
</g>
<!-- Node6 -->
<g id="node3" class="node">
<title>Node6</title>
<g id="a_node3"><a xlink:href="namespaceutils.html#aeabf3fc19efc71936f355f069d336b5a" target="_top" xlink:title="Create a Map object from values of selected property in an array Json object to corresponding index i...">
<polygon fill="#ffffff" stroke="#000000" points="197,-.5 197,-19.5 298,-19.5 298,-.5 197,-.5"/>
<text text-anchor="middle" x="247.5" y="-7.5" font-family="Helvetica,sans-Serif" font-size="10.00" fill="#000000">utils::map_to_index</text>
</a>
</g>
</g>
<!-- Node4&#45;&gt;Node6 -->
<g id="edge2" class="edge">
<title>Node4&#45;&gt;Node6</title>
<path fill="none" stroke="#191970" d="M161.065,-19.8339C169.7225,-18.8489 178.4222,-17.8592 186.791,-16.907"/>
<polygon fill="#191970" stroke="#191970" points="187.2699,-20.3752 196.8101,-15.7671 186.4785,-13.4201 187.2699,-20.3752"/>
</g>
<!-- Node6&#45;&gt;Node5 -->
<g id="edge3" class="edge">
<title>Node6&#45;&gt;Node5</title>
<path fill="none" stroke="#191970" d="M298.3407,-17.129C306.5624,-18.2818 315.1391,-19.4845 323.543,-20.6628"/>
<polygon fill="#191970" stroke="#191970" points="323.2834,-24.1606 333.6726,-22.0832 324.2555,-17.2284 323.2834,-24.1606"/>
</g>
</g>
</svg>
