<?xml version="1.0" encoding="UTF-8" standalone="no"?>
<!DOCTYPE svg PUBLIC "-//W3C//DTD SVG 1.1//EN"
 "http://www.w3.org/Graphics/SVG/1.1/DTD/svg11.dtd">
<!-- Generated by graphviz version 2.40.1 (20161225.0304)
 -->
<!-- Title: AddRename Pages: 1 -->
<svg width="160pt" height="546pt"
 viewBox="0.00 0.00 160.00 546.00" xmlns="http://www.w3.org/2000/svg" xmlns:xlink="http://www.w3.org/1999/xlink">
<g id="graph0" class="graph" transform="scale(1 1) rotate(0) translate(4 542)">
<title>AddRename</title>
<polygon fill="#ffffff" stroke="transparent" points="-4,4 -4,-542 156,-542 156,4 -4,4"/>
<!-- Node4 -->
<g id="node1" class="node">
<title>Node4</title>
<polygon fill="#bfbfbf" stroke="#000000" points="30,-.5 30,-112.5 122,-112.5 122,-.5 30,-.5"/>
<text text-anchor="middle" x="76" y="-100.5" font-family="Helvetica,sans-Serif" font-size="10.00" fill="#000000">AddRename</text>
<polyline fill="none" stroke="#000000" points="30,-93.5 122,-93.5 "/>
<text text-anchor="start" x="38" y="-81.5" font-family="Helvetica,sans-Serif" font-size="10.00" fill="#000000">&#45; do_overwrite</text>
<text text-anchor="start" x="38" y="-70.5" font-family="Helvetica,sans-Serif" font-size="10.00" fill="#000000">&#45; key_old</text>
<text text-anchor="start" x="38" y="-59.5" font-family="Helvetica,sans-Serif" font-size="10.00" fill="#000000">&#45; key_new</text>
<polyline fill="none" stroke="#000000" points="30,-52.5 122,-52.5 "/>
<text text-anchor="start" x="38" y="-40.5" font-family="Helvetica,sans-Serif" font-size="10.00" fill="#000000">+ AddRename()</text>
<text text-anchor="start" x="38" y="-29.5" font-family="Helvetica,sans-Serif" font-size="10.00" fill="#000000">+ ~AddRename()</text>
<text text-anchor="start" x="38" y="-18.5" font-family="Helvetica,sans-Serif" font-size="10.00" fill="#000000">+ overwrite()</text>
<text text-anchor="start" x="38" y="-7.5" font-family="Helvetica,sans-Serif" font-size="10.00" fill="#000000"># compute_impl()</text>
</g>
<!-- Node5 -->
<g id="node2" class="node">
<title>Node5</title>
<g id="a_node2"><a xlink:href="classAdder.html" target="_top" xlink:title="Adder adds new properties to a non&#45;empty Element object. ">
<polygon fill="#ffffff" stroke="#000000" points="28.5,-149.5 28.5,-228.5 123.5,-228.5 123.5,-149.5 28.5,-149.5"/>
<text text-anchor="middle" x="76" y="-216.5" font-family="Helvetica,sans-Serif" font-size="10.00" fill="#000000">Adder</text>
<polyline fill="none" stroke="#000000" points="28.5,-209.5 123.5,-209.5 "/>
<text text-anchor="middle" x="76" y="-197.5" font-family="Helvetica,sans-Serif" font-size="10.00" fill="#000000"> </text>
<polyline fill="none" stroke="#000000" points="28.5,-190.5 123.5,-190.5 "/>
<text text-anchor="start" x="36.5" y="-178.5" font-family="Helvetica,sans-Serif" font-size="10.00" fill="#000000">+ ~Adder()</text>
<text text-anchor="start" x="36.5" y="-167.5" font-family="Helvetica,sans-Serif" font-size="10.00" fill="#000000">+ Updater()</text>
<text text-anchor="start" x="36.5" y="-156.5" font-family="Helvetica,sans-Serif" font-size="10.00" fill="#000000"># compute_body()</text>
</a>
</g>
</g>
<!-- Node5&#45;&gt;Node4 -->
<g id="edge1" class="edge">
<title>Node5&#45;&gt;Node4</title>
<path fill="none" stroke="#191970" d="M76,-139.0556C76,-130.5106 76,-121.5797 76,-112.8811"/>
<polygon fill="none" stroke="#191970" points="72.5001,-139.2456 76,-149.2456 79.5001,-139.2457 72.5001,-139.2456"/>
</g>
<!-- Node6 -->
<g id="node3" class="node">
<title>Node6</title>
<g id="a_node3"><a xlink:href="classUpdater.html" target="_top" xlink:title="Updater is an abstract class to update data held by an Element object. ">
<polygon fill="#ffffff" stroke="#000000" points="0,-265.5 0,-432.5 152,-432.5 152,-265.5 0,-265.5"/>
<text text-anchor="middle" x="76" y="-420.5" font-family="Helvetica,sans-Serif" font-size="10.00" fill="#000000">Updater</text>
<polyline fill="none" stroke="#000000" points="0,-413.5 152,-413.5 "/>
<text text-anchor="start" x="8" y="-401.5" font-family="Helvetica,sans-Serif" font-size="10.00" fill="#000000"># ext_generator</text>
<text text-anchor="start" x="8" y="-390.5" font-family="Helvetica,sans-Serif" font-size="10.00" fill="#000000">&#45; skippable_elementids</text>
<polyline fill="none" stroke="#000000" points="0,-383.5 152,-383.5 "/>
<text text-anchor="start" x="8" y="-371.5" font-family="Helvetica,sans-Serif" font-size="10.00" fill="#000000">+ Updater()</text>
<text text-anchor="start" x="8" y="-360.5" font-family="Helvetica,sans-Serif" font-size="10.00" fill="#000000">+ ~Updater()</text>
<text text-anchor="start" x="8" y="-349.5" font-family="Helvetica,sans-Serif" font-size="10.00" fill="#000000">+ compute()</text>
<text text-anchor="start" x="8" y="-338.5" font-family="Helvetica,sans-Serif" font-size="10.00" fill="#000000">+ remove_from_skippable</text>
<text text-anchor="start" x="8" y="-327.5" font-family="Helvetica,sans-Serif" font-size="10.00" fill="#000000">_elementids()</text>
<text text-anchor="start" x="8" y="-316.5" font-family="Helvetica,sans-Serif" font-size="10.00" fill="#000000">+ get_ext_generator()</text>
<text text-anchor="start" x="8" y="-305.5" font-family="Helvetica,sans-Serif" font-size="10.00" fill="#000000"># compute_body()</text>
<text text-anchor="start" x="8" y="-294.5" font-family="Helvetica,sans-Serif" font-size="10.00" fill="#000000"># compute_common()</text>
<text text-anchor="start" x="8" y="-283.5" font-family="Helvetica,sans-Serif" font-size="10.00" fill="#000000"># compute_impl()</text>
<text text-anchor="start" x="8" y="-272.5" font-family="Helvetica,sans-Serif" font-size="10.00" fill="#000000">&#45; check_compute_request_for()</text>
</a>
</g>
</g>
<!-- Node6&#45;&gt;Node5 -->
<g id="edge2" class="edge">
<title>Node6&#45;&gt;Node5</title>
<path fill="none" stroke="#191970" d="M76,-255.1798C76,-245.9673 76,-237.0069 76,-228.8076"/>
<polygon fill="none" stroke="#191970" points="72.5001,-255.2512 76,-265.2512 79.5001,-255.2513 72.5001,-255.2512"/>
</g>
<!-- Node7 -->
<g id="node4" class="node">
<title>Node7</title>
<polygon fill="#ffffff" stroke="#bfbfbf" points="19,-469.5 19,-537.5 133,-537.5 133,-469.5 19,-469.5"/>
<text text-anchor="start" x="27" y="-525.5" font-family="Helvetica,sans-Serif" font-size="10.00" fill="#000000">std::enable_shared</text>
<text text-anchor="middle" x="76" y="-514.5" font-family="Helvetica,sans-Serif" font-size="10.00" fill="#000000">_from_this&lt; Updater &gt;</text>
<polyline fill="none" stroke="#bfbfbf" points="19,-507.5 133,-507.5 "/>
<text text-anchor="middle" x="76" y="-495.5" font-family="Helvetica,sans-Serif" font-size="10.00" fill="#000000"> </text>
<polyline fill="none" stroke="#bfbfbf" points="19,-488.5 133,-488.5 "/>
<text text-anchor="middle" x="76" y="-476.5" font-family="Helvetica,sans-Serif" font-size="10.00" fill="#000000"> </text>
</g>
<!-- Node7&#45;&gt;Node6 -->
<g id="edge3" class="edge">
<title>Node7&#45;&gt;Node6</title>
<path fill="none" stroke="#191970" d="M76,-459.0651C76,-450.7629 76,-441.8395 76,-432.7956"/>
<polygon fill="none" stroke="#191970" points="72.5001,-459.2114 76,-469.2114 79.5001,-459.2115 72.5001,-459.2114"/>
</g>
</g>
</svg>
