<?xml version="1.0" encoding="UTF-8" standalone="no"?>
<!DOCTYPE svg PUBLIC "-//W3C//DTD SVG 1.1//EN"
 "http://www.w3.org/Graphics/SVG/1.1/DTD/svg11.dtd">
<!-- Generated by graphviz version 2.40.1 (20161225.0304)
 -->
<!-- Title: Filter Pages: 1 -->
<svg width="310pt" height="557pt"
 viewBox="0.00 0.00 310.00 557.00" xmlns="http://www.w3.org/2000/svg" xmlns:xlink="http://www.w3.org/1999/xlink">
<g id="graph0" class="graph" transform="scale(1 1) rotate(0) translate(4 553)">
<title>Filter</title>
<polygon fill="#ffffff" stroke="transparent" points="-4,4 -4,-553 306,-553 306,4 -4,4"/>
<!-- Node0 -->
<g id="node1" class="node">
<title>Node0</title>
<polygon fill="#bfbfbf" stroke="#000000" points="103.5,-160.5 103.5,-239.5 198.5,-239.5 198.5,-160.5 103.5,-160.5"/>
<text text-anchor="middle" x="151" y="-227.5" font-family="Helvetica,sans-Serif" font-size="10.00" fill="#000000">Filter</text>
<polyline fill="none" stroke="#000000" points="103.5,-220.5 198.5,-220.5 "/>
<text text-anchor="middle" x="151" y="-208.5" font-family="Helvetica,sans-Serif" font-size="10.00" fill="#000000"> </text>
<polyline fill="none" stroke="#000000" points="103.5,-201.5 198.5,-201.5 "/>
<text text-anchor="start" x="111.5" y="-189.5" font-family="Helvetica,sans-Serif" font-size="10.00" fill="#000000">+ ~Filter()</text>
<text text-anchor="start" x="111.5" y="-178.5" font-family="Helvetica,sans-Serif" font-size="10.00" fill="#000000">+ Updater()</text>
<text text-anchor="start" x="111.5" y="-167.5" font-family="Helvetica,sans-Serif" font-size="10.00" fill="#000000"># compute_body()</text>
</g>
<!-- Node3 -->
<g id="node4" class="node">
<title>Node3</title>
<g id="a_node4"><a xlink:href="classFilComparison.html" target="_top" xlink:title="FilComparison applies a filter defined by comparison operators. ">
<polygon fill="#ffffff" stroke="#000000" points="0,-.5 0,-123.5 142,-123.5 142,-.5 0,-.5"/>
<text text-anchor="middle" x="71" y="-111.5" font-family="Helvetica,sans-Serif" font-size="10.00" fill="#000000">FilComparison</text>
<polyline fill="none" stroke="#000000" points="0,-104.5 142,-104.5 "/>
<text text-anchor="start" x="8" y="-92.5" font-family="Helvetica,sans-Serif" font-size="10.00" fill="#000000">&#45; compare_expr_list</text>
<polyline fill="none" stroke="#000000" points="0,-85.5 142,-85.5 "/>
<text text-anchor="start" x="8" y="-73.5" font-family="Helvetica,sans-Serif" font-size="10.00" fill="#000000">+ FilComparison()</text>
<text text-anchor="start" x="8" y="-62.5" font-family="Helvetica,sans-Serif" font-size="10.00" fill="#000000">+ FilComparison()</text>
<text text-anchor="start" x="8" y="-51.5" font-family="Helvetica,sans-Serif" font-size="10.00" fill="#000000">+ ~FilComparison()</text>
<text text-anchor="start" x="8" y="-40.5" font-family="Helvetica,sans-Serif" font-size="10.00" fill="#000000"># compute_impl()</text>
<text text-anchor="start" x="8" y="-29.5" font-family="Helvetica,sans-Serif" font-size="10.00" fill="#000000">&#45; make_compare_func()</text>
<text text-anchor="start" x="8" y="-18.5" font-family="Helvetica,sans-Serif" font-size="10.00" fill="#000000">&#45; make_compare_func_list()</text>
<text text-anchor="start" x="8" y="-7.5" font-family="Helvetica,sans-Serif" font-size="10.00" fill="#000000">&#45; check_if_pass_data_elem()</text>
</a>
</g>
</g>
<!-- Node0&#45;&gt;Node3 -->
<g id="edge3" class="edge">
<title>Node0&#45;&gt;Node3</title>
<path fill="none" stroke="#191970" d="M122.9584,-151.6283C117.7264,-142.6031 112.1938,-133.0593 106.7663,-123.6969"/>
<polygon fill="none" stroke="#191970" points="120.0319,-153.5587 128.0752,-160.4547 126.0879,-150.048 120.0319,-153.5587"/>
</g>
<!-- Node4 -->
<g id="node5" class="node">
<title>Node4</title>
<g id="a_node5"><a xlink:href="classFilSet.html" target="_top" xlink:title="FilSet applies a filter defined by sets of acceptable values. ">
<polygon fill="#ffffff" stroke="#000000" points="160,-17 160,-107 302,-107 302,-17 160,-17"/>
<text text-anchor="middle" x="231" y="-95" font-family="Helvetica,sans-Serif" font-size="10.00" fill="#000000">FilSet</text>
<polyline fill="none" stroke="#000000" points="160,-88 302,-88 "/>
<text text-anchor="start" x="168" y="-76" font-family="Helvetica,sans-Serif" font-size="10.00" fill="#000000">&#45; acceptable_value_sets</text>
<polyline fill="none" stroke="#000000" points="160,-69 302,-69 "/>
<text text-anchor="start" x="168" y="-57" font-family="Helvetica,sans-Serif" font-size="10.00" fill="#000000">+ FilSet()</text>
<text text-anchor="start" x="168" y="-46" font-family="Helvetica,sans-Serif" font-size="10.00" fill="#000000">+ ~FilSet()</text>
<text text-anchor="start" x="168" y="-35" font-family="Helvetica,sans-Serif" font-size="10.00" fill="#000000"># compute_impl()</text>
<text text-anchor="start" x="168" y="-24" font-family="Helvetica,sans-Serif" font-size="10.00" fill="#000000">&#45; check_if_pass_data_elem()</text>
</a>
</g>
</g>
<!-- Node0&#45;&gt;Node4 -->
<g id="edge4" class="edge">
<title>Node0&#45;&gt;Node4</title>
<path fill="none" stroke="#191970" d="M179.0052,-151.691C187.3476,-137.3004 196.457,-121.5867 204.6873,-107.3894"/>
<polygon fill="none" stroke="#191970" points="175.9121,-150.048 173.9248,-160.4547 181.9681,-153.5587 175.9121,-150.048"/>
</g>
<!-- Node1 -->
<g id="node2" class="node">
<title>Node1</title>
<g id="a_node2"><a xlink:href="classUpdater.html" target="_top" xlink:title="Updater is an abstract class to update data held by an Element object. ">
<polygon fill="#ffffff" stroke="#000000" points="75,-276.5 75,-443.5 227,-443.5 227,-276.5 75,-276.5"/>
<text text-anchor="middle" x="151" y="-431.5" font-family="Helvetica,sans-Serif" font-size="10.00" fill="#000000">Updater</text>
<polyline fill="none" stroke="#000000" points="75,-424.5 227,-424.5 "/>
<text text-anchor="start" x="83" y="-412.5" font-family="Helvetica,sans-Serif" font-size="10.00" fill="#000000"># ext_generator</text>
<text text-anchor="start" x="83" y="-401.5" font-family="Helvetica,sans-Serif" font-size="10.00" fill="#000000">&#45; skippable_elementids</text>
<polyline fill="none" stroke="#000000" points="75,-394.5 227,-394.5 "/>
<text text-anchor="start" x="83" y="-382.5" font-family="Helvetica,sans-Serif" font-size="10.00" fill="#000000">+ Updater()</text>
<text text-anchor="start" x="83" y="-371.5" font-family="Helvetica,sans-Serif" font-size="10.00" fill="#000000">+ ~Updater()</text>
<text text-anchor="start" x="83" y="-360.5" font-family="Helvetica,sans-Serif" font-size="10.00" fill="#000000">+ compute()</text>
<text text-anchor="start" x="83" y="-349.5" font-family="Helvetica,sans-Serif" font-size="10.00" fill="#000000">+ remove_from_skippable</text>
<text text-anchor="start" x="83" y="-338.5" font-family="Helvetica,sans-Serif" font-size="10.00" fill="#000000">_elementids()</text>
<text text-anchor="start" x="83" y="-327.5" font-family="Helvetica,sans-Serif" font-size="10.00" fill="#000000">+ get_ext_generator()</text>
<text text-anchor="start" x="83" y="-316.5" font-family="Helvetica,sans-Serif" font-size="10.00" fill="#000000"># compute_body()</text>
<text text-anchor="start" x="83" y="-305.5" font-family="Helvetica,sans-Serif" font-size="10.00" fill="#000000"># compute_common()</text>
<text text-anchor="start" x="83" y="-294.5" font-family="Helvetica,sans-Serif" font-size="10.00" fill="#000000"># compute_impl()</text>
<text text-anchor="start" x="83" y="-283.5" font-family="Helvetica,sans-Serif" font-size="10.00" fill="#000000">&#45; check_compute_request_for()</text>
</a>
</g>
</g>
<!-- Node1&#45;&gt;Node0 -->
<g id="edge1" class="edge">
<title>Node1&#45;&gt;Node0</title>
<path fill="none" stroke="#191970" d="M151,-266.1798C151,-256.9673 151,-248.0069 151,-239.8076"/>
<polygon fill="none" stroke="#191970" points="147.5001,-266.2512 151,-276.2512 154.5001,-266.2513 147.5001,-266.2512"/>
</g>
<!-- Node2 -->
<g id="node3" class="node">
<title>Node2</title>
<polygon fill="#ffffff" stroke="#bfbfbf" points="94,-480.5 94,-548.5 208,-548.5 208,-480.5 94,-480.5"/>
<text text-anchor="start" x="102" y="-536.5" font-family="Helvetica,sans-Serif" font-size="10.00" fill="#000000">std::enable_shared</text>
<text text-anchor="middle" x="151" y="-525.5" font-family="Helvetica,sans-Serif" font-size="10.00" fill="#000000">_from_this&lt; Updater &gt;</text>
<polyline fill="none" stroke="#bfbfbf" points="94,-518.5 208,-518.5 "/>
<text text-anchor="middle" x="151" y="-506.5" font-family="Helvetica,sans-Serif" font-size="10.00" fill="#000000"> </text>
<polyline fill="none" stroke="#bfbfbf" points="94,-499.5 208,-499.5 "/>
<text text-anchor="middle" x="151" y="-487.5" font-family="Helvetica,sans-Serif" font-size="10.00" fill="#000000"> </text>
</g>
<!-- Node2&#45;&gt;Node1 -->
<g id="edge2" class="edge">
<title>Node2&#45;&gt;Node1</title>
<path fill="none" stroke="#191970" d="M151,-470.0651C151,-461.7629 151,-452.8395 151,-443.7956"/>
<polygon fill="none" stroke="#191970" points="147.5001,-470.2114 151,-480.2114 154.5001,-470.2115 147.5001,-470.2114"/>
</g>
</g>
</svg>
