<?xml version="1.0" encoding="UTF-8" standalone="no"?>
<!DOCTYPE svg PUBLIC "-//W3C//DTD SVG 1.1//EN"
 "http://www.w3.org/Graphics/SVG/1.1/DTD/svg11.dtd">
<!-- Generated by graphviz version 2.40.1 (20161225.0304)
 -->
<!-- Title: PyInvoker&lt; INVO &gt; Pages: 1 -->
<svg width="111pt" height="160pt"
 viewBox="0.00 0.00 111.00 160.00" xmlns="http://www.w3.org/2000/svg" xmlns:xlink="http://www.w3.org/1999/xlink">
<g id="graph0" class="graph" transform="scale(1 1) rotate(0) translate(4 156)">
<title>PyInvoker&lt; INVO &gt;</title>
<polygon fill="#ffffff" stroke="transparent" points="-4,4 -4,-156 107,-156 107,4 -4,4"/>
<!-- Node2 -->
<g id="node1" class="node">
<title>Node2</title>
<polygon fill="#bfbfbf" stroke="#000000" points="0,-.5 0,-57.5 103,-57.5 103,-.5 0,-.5"/>
<text text-anchor="middle" x="51.5" y="-45.5" font-family="Helvetica,sans-Serif" font-size="10.00" fill="#000000">PyInvoker&lt; INVO &gt;</text>
<polyline fill="none" stroke="#000000" points="0,-38.5 103,-38.5 "/>
<text text-anchor="middle" x="51.5" y="-26.5" font-family="Helvetica,sans-Serif" font-size="10.00" fill="#000000"> </text>
<polyline fill="none" stroke="#000000" points="0,-19.5 103,-19.5 "/>
<text text-anchor="start" x="8" y="-7.5" font-family="Helvetica,sans-Serif" font-size="10.00" fill="#000000"># execute_impl()</text>
</g>
<!-- Node3 -->
<g id="node2" class="node">
<title>Node3</title>
<polygon fill="#ffffff" stroke="#bfbfbf" points="31,-94.5 31,-151.5 72,-151.5 72,-94.5 31,-94.5"/>
<text text-anchor="middle" x="51.5" y="-139.5" font-family="Helvetica,sans-Serif" font-size="10.00" fill="#000000">INVO</text>
<polyline fill="none" stroke="#bfbfbf" points="31,-132.5 72,-132.5 "/>
<text text-anchor="middle" x="51.5" y="-120.5" font-family="Helvetica,sans-Serif" font-size="10.00" fill="#000000"> </text>
<polyline fill="none" stroke="#bfbfbf" points="31,-113.5 72,-113.5 "/>
<text text-anchor="middle" x="51.5" y="-101.5" font-family="Helvetica,sans-Serif" font-size="10.00" fill="#000000"> </text>
</g>
<!-- Node3&#45;&gt;Node2 -->
<g id="edge1" class="edge">
<title>Node3&#45;&gt;Node2</title>
<path fill="none" stroke="#191970" d="M51.5,-84.1035C51.5,-75.2052 51.5,-65.9073 51.5,-57.538"/>
<polygon fill="none" stroke="#191970" points="48.0001,-84.2861 51.5,-94.2861 55.0001,-84.2862 48.0001,-84.2861"/>
</g>
</g>
</svg>
