<?xml version="1.0" encoding="UTF-8" standalone="no"?>
<!DOCTYPE svg PUBLIC "-//W3C//DTD SVG 1.1//EN"
 "http://www.w3.org/Graphics/SVG/1.1/DTD/svg11.dtd">
<!-- Generated by graphviz version 2.40.1 (20161225.0304)
 -->
<!-- Title: PyUpdater&lt; UPD &gt; Pages: 1 -->
<svg width="119pt" height="182pt"
 viewBox="0.00 0.00 119.00 182.00" xmlns="http://www.w3.org/2000/svg" xmlns:xlink="http://www.w3.org/1999/xlink">
<g id="graph0" class="graph" transform="scale(1 1) rotate(0) translate(4 178)">
<title>PyUpdater&lt; UPD &gt;</title>
<polygon fill="#ffffff" stroke="transparent" points="-4,4 -4,-178 115,-178 115,4 -4,4"/>
<!-- Node2 -->
<g id="node1" class="node">
<title>Node2</title>
<polygon fill="#bfbfbf" stroke="#000000" points="0,-.5 0,-79.5 111,-79.5 111,-.5 0,-.5"/>
<text text-anchor="middle" x="55.5" y="-67.5" font-family="Helvetica,sans-Serif" font-size="10.00" fill="#000000">PyUpdater&lt; UPD &gt;</text>
<polyline fill="none" stroke="#000000" points="0,-60.5 111,-60.5 "/>
<text text-anchor="middle" x="55.5" y="-48.5" font-family="Helvetica,sans-Serif" font-size="10.00" fill="#000000"> </text>
<polyline fill="none" stroke="#000000" points="0,-41.5 111,-41.5 "/>
<text text-anchor="start" x="8" y="-29.5" font-family="Helvetica,sans-Serif" font-size="10.00" fill="#000000"># compute_body()</text>
<text text-anchor="start" x="8" y="-18.5" font-family="Helvetica,sans-Serif" font-size="10.00" fill="#000000"># compute_common()</text>
<text text-anchor="start" x="8" y="-7.5" font-family="Helvetica,sans-Serif" font-size="10.00" fill="#000000"># compute_impl()</text>
</g>
<!-- Node3 -->
<g id="node2" class="node">
<title>Node3</title>
<polygon fill="#ffffff" stroke="#bfbfbf" points="37,-116.5 37,-173.5 74,-173.5 74,-116.5 37,-116.5"/>
<text text-anchor="middle" x="55.5" y="-161.5" font-family="Helvetica,sans-Serif" font-size="10.00" fill="#000000">UPD</text>
<polyline fill="none" stroke="#bfbfbf" points="37,-154.5 74,-154.5 "/>
<text text-anchor="middle" x="55.5" y="-142.5" font-family="Helvetica,sans-Serif" font-size="10.00" fill="#000000"> </text>
<polyline fill="none" stroke="#bfbfbf" points="37,-135.5 74,-135.5 "/>
<text text-anchor="middle" x="55.5" y="-123.5" font-family="Helvetica,sans-Serif" font-size="10.00" fill="#000000"> </text>
</g>
<!-- Node3&#45;&gt;Node2 -->
<g id="edge1" class="edge">
<title>Node3&#45;&gt;Node2</title>
<path fill="none" stroke="#191970" d="M55.5,-106.1156C55.5,-97.4889 55.5,-88.3353 55.5,-79.6773"/>
<polygon fill="none" stroke="#191970" points="52.0001,-106.3083 55.5,-116.3083 59.0001,-106.3083 52.0001,-106.3083"/>
</g>
</g>
</svg>
