<?xml version="1.0" encoding="UTF-8" standalone="no"?>
<!DOCTYPE svg PUBLIC "-//W3C//DTD SVG 1.1//EN"
 "http://www.w3.org/Graphics/SVG/1.1/DTD/svg11.dtd">
<!-- Generated by graphviz version 2.40.1 (20161225.0304)
 -->
<!-- Title: Element::get_1d_int_py Pages: 1 -->
<svg width="477pt" height="154pt"
 viewBox="0.00 0.00 477.00 153.50" xmlns="http://www.w3.org/2000/svg" xmlns:xlink="http://www.w3.org/1999/xlink">
<g id="graph0" class="graph" transform="scale(1 1) rotate(0) translate(4 149.5)">
<title>Element::get_1d_int_py</title>
<polygon fill="#ffffff" stroke="transparent" points="-4,4 -4,-149.5 473,-149.5 473,4 -4,4"/>
<!-- Node37 -->
<g id="node1" class="node">
<title>Node37</title>
<polygon fill="#bfbfbf" stroke="#000000" points="0,-50 0,-69 119,-69 119,-50 0,-50"/>
<text text-anchor="middle" x="59.5" y="-57" font-family="Helvetica,sans-Serif" font-size="10.00" fill="#000000">Element::get_1d_int_py</text>
</g>
<!-- Node38 -->
<g id="node2" class="node">
<title>Node38</title>
<g id="a_node2"><a xlink:href="classElement.html#a1fdb9455f49d2c66a0276925f7246cad" target="_top" xlink:title="Element::init_for_python">
<polygon fill="#ffffff" stroke="#000000" points="169.5,-88 169.5,-107 291.5,-107 291.5,-88 169.5,-88"/>
<text text-anchor="middle" x="230.5" y="-95" font-family="Helvetica,sans-Serif" font-size="10.00" fill="#000000">Element::init_for_python</text>
</a>
</g>
</g>
<!-- Node37&#45;&gt;Node38 -->
<g id="edge1" class="edge">
<title>Node37&#45;&gt;Node38</title>
<path fill="none" stroke="#191970" d="M102.6505,-69.089C125.4191,-74.1487 153.5482,-80.3996 177.6194,-85.7488"/>
<polygon fill="#191970" stroke="#191970" points="177.1386,-89.2272 187.6598,-87.9799 178.6572,-82.3939 177.1386,-89.2272"/>
</g>
<!-- Node42 -->
<g id="node6" class="node">
<title>Node42</title>
<g id="a_node6"><a xlink:href="classElement.html#a343252084136e932e8830ec359d49558" target="_top" xlink:title="Check if this object has required key(s). ">
<polygon fill="#ffffff" stroke="#000000" points="155,-50 155,-69 306,-69 306,-50 155,-50"/>
<text text-anchor="middle" x="230.5" y="-57" font-family="Helvetica,sans-Serif" font-size="10.00" fill="#000000">Element::check_required_keys</text>
</a>
</g>
</g>
<!-- Node37&#45;&gt;Node42 -->
<g id="edge5" class="edge">
<title>Node37&#45;&gt;Node42</title>
<path fill="none" stroke="#191970" d="M119.3075,-59.5C127.5451,-59.5 136.1336,-59.5 144.7257,-59.5"/>
<polygon fill="#191970" stroke="#191970" points="144.793,-63.0001 154.793,-59.5 144.7929,-56.0001 144.793,-63.0001"/>
</g>
<!-- Node44 -->
<g id="node8" class="node">
<title>Node44</title>
<g id="a_node8"><a xlink:href="classElement.html#a4a44f5bd3a5bcfabbfaf9f73578da0ef" target="_top" xlink:title="Extract values of a property in data as a one&#45;dimensional Eigen&#45;Array. ">
<polygon fill="#ffffff" stroke="#000000" points="170.5,-.5 170.5,-30.5 290.5,-30.5 290.5,-.5 170.5,-.5"/>
<text text-anchor="start" x="178.5" y="-18.5" font-family="Helvetica,sans-Serif" font-size="10.00" fill="#000000">Element::make_1darray</text>
<text text-anchor="middle" x="230.5" y="-7.5" font-family="Helvetica,sans-Serif" font-size="10.00" fill="#000000">_from_data</text>
</a>
</g>
</g>
<!-- Node37&#45;&gt;Node44 -->
<g id="edge8" class="edge">
<title>Node37&#45;&gt;Node44</title>
<path fill="none" stroke="#191970" d="M96.6045,-49.9527C115.7711,-45.0209 139.7758,-38.8442 162.1471,-33.0879"/>
<polygon fill="#191970" stroke="#191970" points="163.1382,-36.447 171.9505,-30.5654 161.3938,-29.6678 163.1382,-36.447"/>
</g>
<!-- Node39 -->
<g id="node3" class="node">
<title>Node39</title>
<g id="a_node3"><a xlink:href="classGenerator.html#aa1831dae656216a78776430018cfd453" target="_top" xlink:title="Hello to this Generator object. ">
<polygon fill="#ffffff" stroke="#000000" points="342,-126 342,-145 469,-145 469,-126 342,-126"/>
<text text-anchor="middle" x="405.5" y="-133" font-family="Helvetica,sans-Serif" font-size="10.00" fill="#000000">Generator::generate_data</text>
</a>
</g>
</g>
<!-- Node38&#45;&gt;Node39 -->
<g id="edge2" class="edge">
<title>Node38&#45;&gt;Node39</title>
<path fill="none" stroke="#191970" d="M274.6599,-107.089C298.0651,-112.1713 327.0053,-118.4554 351.7121,-123.8203"/>
<polygon fill="#191970" stroke="#191970" points="351.1427,-127.2782 361.6577,-125.9799 352.6281,-120.4376 351.1427,-127.2782"/>
</g>
<!-- Node40 -->
<g id="node4" class="node">
<title>Node40</title>
<g id="a_node4"><a xlink:href="namespaceutils.html#acee57b54806ee63ddaa30518fed90adb" target="_top" xlink:title="Raise (for Python) and throw (for C++) a runtime error. ">
<polygon fill="#ffffff" stroke="#000000" points="356.5,-50 356.5,-69 454.5,-69 454.5,-50 356.5,-50"/>
<text text-anchor="middle" x="405.5" y="-57" font-family="Helvetica,sans-Serif" font-size="10.00" fill="#000000">utils::runtime_error</text>
</a>
</g>
</g>
<!-- Node38&#45;&gt;Node40 -->
<g id="edge3" class="edge">
<title>Node38&#45;&gt;Node40</title>
<path fill="none" stroke="#191970" d="M274.6599,-87.911C298.0651,-82.8287 327.0053,-76.5446 351.7121,-71.1797"/>
<polygon fill="#191970" stroke="#191970" points="352.6281,-74.5624 361.6577,-69.0201 351.1427,-67.7218 352.6281,-74.5624"/>
</g>
<!-- Node41 -->
<g id="node5" class="node">
<title>Node41</title>
<g id="a_node5"><a xlink:href="namespaceutils.html#a26267fe7371b6215c5d61374d716527b" target="_top" xlink:title="Logging a message. ">
<polygon fill="#ffffff" stroke="#000000" points="379,-88 379,-107 432,-107 432,-88 379,-88"/>
<text text-anchor="middle" x="405.5" y="-95" font-family="Helvetica,sans-Serif" font-size="10.00" fill="#000000">utils::log</text>
</a>
</g>
</g>
<!-- Node38&#45;&gt;Node41 -->
<g id="edge4" class="edge">
<title>Node38&#45;&gt;Node41</title>
<path fill="none" stroke="#191970" d="M291.7065,-97.5C317.4033,-97.5 346.4355,-97.5 368.7434,-97.5"/>
<polygon fill="#191970" stroke="#191970" points="368.7963,-101.0001 378.7963,-97.5 368.7963,-94.0001 368.7963,-101.0001"/>
</g>
<!-- Node42&#45;&gt;Node40 -->
<g id="edge7" class="edge">
<title>Node42&#45;&gt;Node40</title>
<path fill="none" stroke="#191970" d="M306.2397,-59.5C319.6514,-59.5 333.4384,-59.5 346.3095,-59.5"/>
<polygon fill="#191970" stroke="#191970" points="346.4109,-63.0001 356.4109,-59.5 346.4108,-56.0001 346.4109,-63.0001"/>
</g>
<!-- Node43 -->
<g id="node7" class="node">
<title>Node43</title>
<g id="a_node7"><a xlink:href="namespaceutils.html#a5e5339e32b770a14691521435849c949" target="_top" xlink:title="Mimicking Python&#39;s join. ">
<polygon fill="#ffffff" stroke="#000000" points="377.5,-12 377.5,-31 433.5,-31 433.5,-12 377.5,-12"/>
<text text-anchor="middle" x="405.5" y="-19" font-family="Helvetica,sans-Serif" font-size="10.00" fill="#000000">utils::join</text>
</a>
</g>
</g>
<!-- Node42&#45;&gt;Node43 -->
<g id="edge6" class="edge">
<title>Node42&#45;&gt;Node43</title>
<path fill="none" stroke="#191970" d="M274.6599,-49.911C303.2113,-43.7113 339.9992,-35.723 367.2914,-29.7967"/>
<polygon fill="#191970" stroke="#191970" points="368.22,-33.1767 377.2496,-27.6344 366.7346,-26.3361 368.22,-33.1767"/>
</g>
</g>
</svg>
