<?xml version="1.0" encoding="UTF-8" standalone="no"?>
<!DOCTYPE svg PUBLIC "-//W3C//DTD SVG 1.1//EN"
 "http://www.w3.org/Graphics/SVG/1.1/DTD/svg11.dtd">
<!-- Generated by graphviz version 2.40.1 (20161225.0304)
 -->
<!-- Title: Adder Pages: 1 -->
<!--zoomable 557 -->
<svg id="main" version="1.1" xmlns="http://www.w3.org/2000/svg" xmlns:xlink="http://www.w3.org/1999/xlink" xml:space="preserve" onload="init(evt)">
<style type="text/css"><![CDATA[
.edge:hover path { stroke: red; }
.edge:hover polygon { stroke: red; fill: red; }
]]></style>
<script type="text/javascript"><![CDATA[
var edges = document.getElementsByTagName('g');
if (edges && edges.length) {
  for (var i=0;i<edges.length;i++) {
    if (edges[i].id.substr(0,4)=='edge') {
      edges[i].setAttribute('class','edge');
    }
  }
}
]]></script>
        <defs>
                <circle id="rim" cx="0" cy="0" r="7"/>
                <circle id="rim2" cx="0" cy="0" r="3.5"/>
                <g id="zoomPlus">
                        <use xlink:href="#rim" fill="#404040">
                                <set attributeName="fill" to="#808080" begin="zoomplus.mouseover" end="zoomplus.mouseout"/>
                        </use>
                        <path d="M-4,0h8M0,-4v8" fill="none" stroke="white" stroke-width="1.5" pointer-events="none"/>
                </g>
                <g id="zoomMin">
                        <use xlink:href="#rim" fill="#404040">
                                <set attributeName="fill" to="#808080" begin="zoomminus.mouseover" end="zoomminus.mouseout"/>
                        </use>
                        <path d="M-4,0h8" fill="none" stroke="white" stroke-width="1.5" pointer-events="none"/>
                </g>
                <g id="dirArrow">
                        <path fill="none" stroke="white" stroke-width="1.5" d="M0,-3.0v7 M-2.5,-0.5L0,-3.0L2.5,-0.5"/>
                </g>
               <g id="resetDef">
                       <use xlink:href="#rim2" fill="#404040">
                               <set attributeName="fill" to="#808080" begin="reset.mouseover" end="reset.mouseout"/>
                       </use>
               </g>
        </defs>

<script type="text/javascript">
var viewWidth = 1690;
var viewHeight = 557;
var sectionId = 'dynsection-0';
</script>
<script xlink:href="svgpan.js"/>
<svg id="graph" class="graph">
<g id="viewport">
<title>Adder</title>
<polygon fill="#ffffff" stroke="transparent" points="-4,4 -4,-553 1686,-553 1686,4 -4,4"/>
<!-- Node0 -->
<g id="node1" class="node">
<title>Node0</title>
<polygon fill="#bfbfbf" stroke="#000000" points="775.5,-160.5 775.5,-239.5 870.5,-239.5 870.5,-160.5 775.5,-160.5"/>
<text text-anchor="middle" x="823" y="-227.5" font-family="Helvetica,sans-Serif" font-size="10.00" fill="#000000">Adder</text>
<polyline fill="none" stroke="#000000" points="775.5,-220.5 870.5,-220.5 "/>
<text text-anchor="middle" x="823" y="-208.5" font-family="Helvetica,sans-Serif" font-size="10.00" fill="#000000"> </text>
<polyline fill="none" stroke="#000000" points="775.5,-201.5 870.5,-201.5 "/>
<text text-anchor="start" x="783.5" y="-189.5" font-family="Helvetica,sans-Serif" font-size="10.00" fill="#000000">+ ~Adder()</text>
<text text-anchor="start" x="783.5" y="-178.5" font-family="Helvetica,sans-Serif" font-size="10.00" fill="#000000">+ Updater()</text>
<text text-anchor="start" x="783.5" y="-167.5" font-family="Helvetica,sans-Serif" font-size="10.00" fill="#000000"># compute_body()</text>
</g>
<!-- Node3 -->
<g id="node4" class="node">
<title>Node3</title>
<g id="a_node4"><a xlink:href="classAddBondAngle.html" target="_top" xlink:title="AddBondAngle adds angle property to bond&#45;angles, each of them is defined by three consecutive atoms...">
<polygon fill="#ffffff" stroke="#000000" points="0,-22.5 0,-101.5 102,-101.5 102,-22.5 0,-22.5"/>
<text text-anchor="middle" x="51" y="-89.5" font-family="Helvetica,sans-Serif" font-size="10.00" fill="#000000">AddBondAngle</text>
<polyline fill="none" stroke="#000000" points="0,-82.5 102,-82.5 "/>
<text text-anchor="middle" x="51" y="-70.5" font-family="Helvetica,sans-Serif" font-size="10.00" fill="#000000"> </text>
<polyline fill="none" stroke="#000000" points="0,-63.5 102,-63.5 "/>
<text text-anchor="start" x="8" y="-51.5" font-family="Helvetica,sans-Serif" font-size="10.00" fill="#000000">+ AddBondAngle()</text>
<text text-anchor="start" x="8" y="-40.5" font-family="Helvetica,sans-Serif" font-size="10.00" fill="#000000">+ ~AddBondAngle()</text>
<text text-anchor="start" x="8" y="-29.5" font-family="Helvetica,sans-Serif" font-size="10.00" fill="#000000"># compute_impl()</text>
</a>
</g>
</g>
<!-- Node0&#45;&gt;Node3 -->
<g id="edge3" class="edge">
<title>Node0&#45;&gt;Node3</title>
<path fill="none" stroke="#191970" d="M764.8864,-198.852C616.2654,-195.1225 225.9625,-180.1107 111,-124 99.9619,-118.6125 89.839,-110.3152 81.1776,-101.5249"/>
<polygon fill="none" stroke="#191970" points="765.0803,-202.3576 775.1623,-199.1014 765.2503,-195.3597 765.0803,-202.3576"/>
</g>
<!-- Node4 -->
<g id="node5" class="node">
<title>Node4</title>
<g id="a_node5"><a xlink:href="classAddBondLength.html" target="_top" xlink:title="AddBondLength adds length property to bonds, each of them connects two atoms. ">
<polygon fill="#ffffff" stroke="#000000" points="120.5,-22.5 120.5,-101.5 227.5,-101.5 227.5,-22.5 120.5,-22.5"/>
<text text-anchor="middle" x="174" y="-89.5" font-family="Helvetica,sans-Serif" font-size="10.00" fill="#000000">AddBondLength</text>
<polyline fill="none" stroke="#000000" points="120.5,-82.5 227.5,-82.5 "/>
<text text-anchor="middle" x="174" y="-70.5" font-family="Helvetica,sans-Serif" font-size="10.00" fill="#000000"> </text>
<polyline fill="none" stroke="#000000" points="120.5,-63.5 227.5,-63.5 "/>
<text text-anchor="start" x="128.5" y="-51.5" font-family="Helvetica,sans-Serif" font-size="10.00" fill="#000000">+ AddBondLength()</text>
<text text-anchor="start" x="128.5" y="-40.5" font-family="Helvetica,sans-Serif" font-size="10.00" fill="#000000">+ ~AddBondLength()</text>
<text text-anchor="start" x="128.5" y="-29.5" font-family="Helvetica,sans-Serif" font-size="10.00" fill="#000000"># compute_impl()</text>
</a>
</g>
</g>
<!-- Node0&#45;&gt;Node4 -->
<g id="edge4" class="edge">
<title>Node0&#45;&gt;Node4</title>
<path fill="none" stroke="#191970" d="M765.0145,-197.1633C636.012,-190.1062 329.3824,-168.9893 237,-124 225.8247,-118.5577 215.4142,-110.3524 206.4032,-101.6774"/>
<polygon fill="none" stroke="#191970" points="764.9229,-200.6634 775.0965,-197.7059 765.2991,-193.6735 764.9229,-200.6634"/>
</g>
<!-- Node5 -->
<g id="node6" class="node">
<title>Node5</title>
<g id="a_node6"><a xlink:href="classAddChildIDs.html" target="_top" xlink:title="AddChildIDs adds id property of a child Element object to a parent Element object. ">
<polygon fill="#ffffff" stroke="#000000" points="246,-17 246,-107 346,-107 346,-17 246,-17"/>
<text text-anchor="middle" x="296" y="-95" font-family="Helvetica,sans-Serif" font-size="10.00" fill="#000000">AddChildIDs</text>
<polyline fill="none" stroke="#000000" points="246,-88 346,-88 "/>
<text text-anchor="start" x="254" y="-76" font-family="Helvetica,sans-Serif" font-size="10.00" fill="#000000">&#45; child_name</text>
<text text-anchor="start" x="254" y="-65" font-family="Helvetica,sans-Serif" font-size="10.00" fill="#000000">&#45; key_for_parent_id</text>
<polyline fill="none" stroke="#000000" points="246,-58 346,-58 "/>
<text text-anchor="start" x="254" y="-46" font-family="Helvetica,sans-Serif" font-size="10.00" fill="#000000">+ AddChildIDs()</text>
<text text-anchor="start" x="254" y="-35" font-family="Helvetica,sans-Serif" font-size="10.00" fill="#000000">+ ~AddChildIDs()</text>
<text text-anchor="start" x="254" y="-24" font-family="Helvetica,sans-Serif" font-size="10.00" fill="#000000"># compute_impl()</text>
</a>
</g>
</g>
<!-- Node0&#45;&gt;Node5 -->
<g id="edge5" class="edge">
<title>Node0&#45;&gt;Node5</title>
<path fill="none" stroke="#191970" d="M765.1343,-195.2332C656.2103,-185.5108 425.3476,-161.1248 355,-124 346.7211,-119.631 338.9438,-113.6575 331.9227,-107.1338"/>
<polygon fill="none" stroke="#191970" points="765.0164,-198.7363 775.2852,-196.1282 765.6313,-191.7634 765.0164,-198.7363"/>
</g>
<!-- Node6 -->
<g id="node7" class="node">
<title>Node6</title>
<g id="a_node7"><a xlink:href="classAddChildPositions.html" target="_top" xlink:title="AddChildPositions adds relative positions of a child Element object to a parent Element object...">
<polygon fill="#ffffff" stroke="#000000" points="364.5,-22.5 364.5,-101.5 481.5,-101.5 481.5,-22.5 364.5,-22.5"/>
<text text-anchor="middle" x="423" y="-89.5" font-family="Helvetica,sans-Serif" font-size="10.00" fill="#000000">AddChildPositions</text>
<polyline fill="none" stroke="#000000" points="364.5,-82.5 481.5,-82.5 "/>
<text text-anchor="start" x="372.5" y="-70.5" font-family="Helvetica,sans-Serif" font-size="10.00" fill="#000000">&#45; child_name</text>
<polyline fill="none" stroke="#000000" points="364.5,-63.5 481.5,-63.5 "/>
<text text-anchor="start" x="372.5" y="-51.5" font-family="Helvetica,sans-Serif" font-size="10.00" fill="#000000">+ AddChildPositions()</text>
<text text-anchor="start" x="372.5" y="-40.5" font-family="Helvetica,sans-Serif" font-size="10.00" fill="#000000">+ ~AddChildPositions()</text>
<text text-anchor="start" x="372.5" y="-29.5" font-family="Helvetica,sans-Serif" font-size="10.00" fill="#000000"># compute_impl()</text>
</a>
</g>
</g>
<!-- Node0&#45;&gt;Node6 -->
<g id="edge6" class="edge">
<title>Node0&#45;&gt;Node6</title>
<path fill="none" stroke="#191970" d="M765.0832,-195.7267C696.2902,-188.6822 579.6988,-170.4211 491,-124 479.8178,-118.1477 469.0615,-110.0031 459.5331,-101.5383"/>
<polygon fill="none" stroke="#191970" points="764.9962,-199.2349 775.2895,-196.7252 765.6778,-192.2681 764.9962,-199.2349"/>
</g>
<!-- Node7 -->
<g id="node8" class="node">
<title>Node7</title>
<g id="a_node8"><a xlink:href="classAddCoMPosition.html" target="_top" xlink:title="AddCoMPosition adds center of mass to an Element object as its unwrapped position. ">
<polygon fill="#ffffff" stroke="#000000" points="500,-22.5 500,-101.5 610,-101.5 610,-22.5 500,-22.5"/>
<text text-anchor="middle" x="555" y="-89.5" font-family="Helvetica,sans-Serif" font-size="10.00" fill="#000000">AddCoMPosition</text>
<polyline fill="none" stroke="#000000" points="500,-82.5 610,-82.5 "/>
<text text-anchor="middle" x="555" y="-70.5" font-family="Helvetica,sans-Serif" font-size="10.00" fill="#000000"> </text>
<polyline fill="none" stroke="#000000" points="500,-63.5 610,-63.5 "/>
<text text-anchor="start" x="508" y="-51.5" font-family="Helvetica,sans-Serif" font-size="10.00" fill="#000000">+ AddCoMPosition()</text>
<text text-anchor="start" x="508" y="-40.5" font-family="Helvetica,sans-Serif" font-size="10.00" fill="#000000">+ ~AddCoMPosition()</text>
<text text-anchor="start" x="508" y="-29.5" font-family="Helvetica,sans-Serif" font-size="10.00" fill="#000000"># compute_impl()</text>
</a>
</g>
</g>
<!-- Node0&#45;&gt;Node7 -->
<g id="edge7" class="edge">
<title>Node0&#45;&gt;Node7</title>
<path fill="none" stroke="#191970" d="M765.4465,-185.4787C722.8952,-173.1459 664.6614,-152.8232 619,-124 609.058,-117.7242 599.3784,-109.7103 590.6817,-101.5434"/>
<polygon fill="none" stroke="#191970" points="764.5155,-188.8526 775.0912,-188.2155 766.4265,-182.1185 764.5155,-188.8526"/>
</g>
<!-- Node8 -->
<g id="node9" class="node">
<title>Node8</title>
<g id="a_node9"><a xlink:href="classAddDihedralAngle.html" target="_top" xlink:title="AddDihedralAngle adds dihedral&#45;angle property to dehedrals, each of them is defined by four consecuti...">
<polygon fill="#ffffff" stroke="#000000" points="628.5,-22.5 628.5,-101.5 743.5,-101.5 743.5,-22.5 628.5,-22.5"/>
<text text-anchor="middle" x="686" y="-89.5" font-family="Helvetica,sans-Serif" font-size="10.00" fill="#000000">AddDihedralAngle</text>
<polyline fill="none" stroke="#000000" points="628.5,-82.5 743.5,-82.5 "/>
<text text-anchor="middle" x="686" y="-70.5" font-family="Helvetica,sans-Serif" font-size="10.00" fill="#000000"> </text>
<polyline fill="none" stroke="#000000" points="628.5,-63.5 743.5,-63.5 "/>
<text text-anchor="start" x="636.5" y="-51.5" font-family="Helvetica,sans-Serif" font-size="10.00" fill="#000000">+ AddDihedralAngle()</text>
<text text-anchor="start" x="636.5" y="-40.5" font-family="Helvetica,sans-Serif" font-size="10.00" fill="#000000">+ ~AddDihedralAngle()</text>
<text text-anchor="start" x="636.5" y="-29.5" font-family="Helvetica,sans-Serif" font-size="10.00" fill="#000000"># compute_impl()</text>
</a>
</g>
</g>
<!-- Node0&#45;&gt;Node8 -->
<g id="edge8" class="edge">
<title>Node0&#45;&gt;Node8</title>
<path fill="none" stroke="#191970" d="M776.2662,-152.9251C759.6706,-136.2083 741.1727,-117.5754 725.2644,-101.551"/>
<polygon fill="none" stroke="#191970" points="774.2121,-155.8238 783.7413,-160.4547 779.1798,-150.8921 774.2121,-155.8238"/>
</g>
<!-- Node9 -->
<g id="node10" class="node">
<title>Node9</title>
<g id="a_node10"><a xlink:href="classAddGyrationRadius.html" target="_top" xlink:title="AddGyrationRadius adds gyration radius to an Element object. ">
<polygon fill="#ffffff" stroke="#000000" points="762,-22.5 762,-101.5 884,-101.5 884,-22.5 762,-22.5"/>
<text text-anchor="middle" x="823" y="-89.5" font-family="Helvetica,sans-Serif" font-size="10.00" fill="#000000">AddGyrationRadius</text>
<polyline fill="none" stroke="#000000" points="762,-82.5 884,-82.5 "/>
<text text-anchor="start" x="770" y="-70.5" font-family="Helvetica,sans-Serif" font-size="10.00" fill="#000000">&#45; add_sqrted</text>
<polyline fill="none" stroke="#000000" points="762,-63.5 884,-63.5 "/>
<text text-anchor="start" x="770" y="-51.5" font-family="Helvetica,sans-Serif" font-size="10.00" fill="#000000">+ ~AddGyrationRadius()</text>
<text text-anchor="start" x="770" y="-40.5" font-family="Helvetica,sans-Serif" font-size="10.00" fill="#000000">+ with_sqrted()</text>
<text text-anchor="start" x="770" y="-29.5" font-family="Helvetica,sans-Serif" font-size="10.00" fill="#000000"># compute_impl()</text>
</a>
</g>
</g>
<!-- Node0&#45;&gt;Node9 -->
<g id="edge9" class="edge">
<title>Node0&#45;&gt;Node9</title>
<path fill="none" stroke="#191970" d="M823,-150.1982C823,-134.2016 823,-116.7093 823,-101.551"/>
<polygon fill="none" stroke="#191970" points="819.5001,-150.4547 823,-160.4547 826.5001,-150.4548 819.5001,-150.4547"/>
</g>
<!-- Node10 -->
<g id="node11" class="node">
<title>Node10</title>
<g id="a_node11"><a xlink:href="classAddInertiaMoment.html" target="_top" xlink:title="AddInertiaMoment adds inertia moment to an Element object. ">
<polygon fill="#ffffff" stroke="#000000" points="902.5,-22.5 902.5,-101.5 1019.5,-101.5 1019.5,-22.5 902.5,-22.5"/>
<text text-anchor="middle" x="961" y="-89.5" font-family="Helvetica,sans-Serif" font-size="10.00" fill="#000000">AddInertiaMoment</text>
<polyline fill="none" stroke="#000000" points="902.5,-82.5 1019.5,-82.5 "/>
<text text-anchor="middle" x="961" y="-70.5" font-family="Helvetica,sans-Serif" font-size="10.00" fill="#000000"> </text>
<polyline fill="none" stroke="#000000" points="902.5,-63.5 1019.5,-63.5 "/>
<text text-anchor="start" x="910.5" y="-51.5" font-family="Helvetica,sans-Serif" font-size="10.00" fill="#000000">+ AddInertiaMoment()</text>
<text text-anchor="start" x="910.5" y="-40.5" font-family="Helvetica,sans-Serif" font-size="10.00" fill="#000000">+ ~AddInertiaMoment()</text>
<text text-anchor="start" x="910.5" y="-29.5" font-family="Helvetica,sans-Serif" font-size="10.00" fill="#000000"># compute_impl()</text>
</a>
</g>
</g>
<!-- Node0&#45;&gt;Node10 -->
<g id="edge10" class="edge">
<title>Node0&#45;&gt;Node10</title>
<path fill="none" stroke="#191970" d="M869.6235,-153.3765C886.4557,-136.5443 905.2802,-117.7198 921.449,-101.551"/>
<polygon fill="none" stroke="#191970" points="867.1415,-150.9088 862.5453,-160.4547 872.0912,-155.8585 867.1415,-150.9088"/>
</g>
<!-- Node11 -->
<g id="node12" class="node">
<title>Node11</title>
<g id="a_node12"><a xlink:href="classAddMap.html" target="_top" xlink:title="AddMap adds a new property by mapping from an existing property. ">
<polygon fill="#ffffff" stroke="#000000" points="1038,-.5 1038,-123.5 1130,-123.5 1130,-.5 1038,-.5"/>
<text text-anchor="middle" x="1084" y="-111.5" font-family="Helvetica,sans-Serif" font-size="10.00" fill="#000000">AddMap</text>
<polyline fill="none" stroke="#000000" points="1038,-104.5 1130,-104.5 "/>
<text text-anchor="start" x="1046" y="-92.5" font-family="Helvetica,sans-Serif" font-size="10.00" fill="#000000">&#45; do_overwrite</text>
<text text-anchor="start" x="1046" y="-81.5" font-family="Helvetica,sans-Serif" font-size="10.00" fill="#000000">&#45; key_ref</text>
<text text-anchor="start" x="1046" y="-70.5" font-family="Helvetica,sans-Serif" font-size="10.00" fill="#000000">&#45; key_new</text>
<text text-anchor="start" x="1046" y="-59.5" font-family="Helvetica,sans-Serif" font-size="10.00" fill="#000000">&#45; mapping</text>
<polyline fill="none" stroke="#000000" points="1038,-52.5 1130,-52.5 "/>
<text text-anchor="start" x="1046" y="-40.5" font-family="Helvetica,sans-Serif" font-size="10.00" fill="#000000">+ AddMap()</text>
<text text-anchor="start" x="1046" y="-29.5" font-family="Helvetica,sans-Serif" font-size="10.00" fill="#000000">+ ~AddMap()</text>
<text text-anchor="start" x="1046" y="-18.5" font-family="Helvetica,sans-Serif" font-size="10.00" fill="#000000">+ overwrite()</text>
<text text-anchor="start" x="1046" y="-7.5" font-family="Helvetica,sans-Serif" font-size="10.00" fill="#000000"># compute_impl()</text>
</a>
</g>
</g>
<!-- Node0&#45;&gt;Node11 -->
<g id="edge11" class="edge">
<title>Node0&#45;&gt;Node11</title>
<path fill="none" stroke="#191970" d="M880.5231,-186.9316C923.942,-175.2132 983.5904,-155.0196 1029,-124 1031.9703,-121.971 1034.885,-119.7469 1037.7266,-117.3854"/>
<polygon fill="none" stroke="#191970" points="879.4685,-183.5899 870.6867,-189.5169 881.2479,-190.3599 879.4685,-183.5899"/>
</g>
<!-- Node12 -->
<g id="node13" class="node">
<title>Node12</title>
<g id="a_node13"><a xlink:href="classAddMolecularOrientation.html" target="_top" xlink:title="AddMolecularOrientation adds molecular orientation (order parameter) to an Element object...">
<polygon fill="#ffffff" stroke="#000000" points="1148,-28 1148,-96 1292,-96 1292,-28 1148,-28"/>
<text text-anchor="middle" x="1220" y="-84" font-family="Helvetica,sans-Serif" font-size="10.00" fill="#000000">AddMolecularOrientation</text>
<polyline fill="none" stroke="#000000" points="1148,-77 1292,-77 "/>
<text text-anchor="middle" x="1220" y="-65" font-family="Helvetica,sans-Serif" font-size="10.00" fill="#000000"> </text>
<polyline fill="none" stroke="#000000" points="1148,-58 1292,-58 "/>
<text text-anchor="start" x="1156" y="-46" font-family="Helvetica,sans-Serif" font-size="10.00" fill="#000000">+ ~AddMolecularOrientation()</text>
<text text-anchor="start" x="1156" y="-35" font-family="Helvetica,sans-Serif" font-size="10.00" fill="#000000"># compute_impl()</text>
</a>
</g>
</g>
<!-- Node0&#45;&gt;Node12 -->
<g id="edge12" class="edge">
<title>Node0&#45;&gt;Node12</title>
<path fill="none" stroke="#191970" d="M880.6622,-193.4602C945.9128,-184.4268 1054.1428,-164.4337 1139,-124 1154.1877,-116.7632 1169.2578,-106.3594 1182.2062,-96.1357"/>
<polygon fill="none" stroke="#191970" points="880.0134,-190.0159 870.5691,-194.8174 880.9463,-196.9534 880.0134,-190.0159"/>
</g>
<!-- Node13 -->
<g id="node14" class="node">
<title>Node13</title>
<g id="a_node14"><a xlink:href="classAddRename.html" target="_top" xlink:title="AddRename renames an existing property. ">
<polygon fill="#ffffff" stroke="#000000" points="1310,-6 1310,-118 1402,-118 1402,-6 1310,-6"/>
<text text-anchor="middle" x="1356" y="-106" font-family="Helvetica,sans-Serif" font-size="10.00" fill="#000000">AddRename</text>
<polyline fill="none" stroke="#000000" points="1310,-99 1402,-99 "/>
<text text-anchor="start" x="1318" y="-87" font-family="Helvetica,sans-Serif" font-size="10.00" fill="#000000">&#45; do_overwrite</text>
<text text-anchor="start" x="1318" y="-76" font-family="Helvetica,sans-Serif" font-size="10.00" fill="#000000">&#45; key_old</text>
<text text-anchor="start" x="1318" y="-65" font-family="Helvetica,sans-Serif" font-size="10.00" fill="#000000">&#45; key_new</text>
<polyline fill="none" stroke="#000000" points="1310,-58 1402,-58 "/>
<text text-anchor="start" x="1318" y="-46" font-family="Helvetica,sans-Serif" font-size="10.00" fill="#000000">+ AddRename()</text>
<text text-anchor="start" x="1318" y="-35" font-family="Helvetica,sans-Serif" font-size="10.00" fill="#000000">+ ~AddRename()</text>
<text text-anchor="start" x="1318" y="-24" font-family="Helvetica,sans-Serif" font-size="10.00" fill="#000000">+ overwrite()</text>
<text text-anchor="start" x="1318" y="-13" font-family="Helvetica,sans-Serif" font-size="10.00" fill="#000000"># compute_impl()</text>
</a>
</g>
</g>
<!-- Node0&#45;&gt;Node13 -->
<g id="edge13" class="edge">
<title>Node0&#45;&gt;Node13</title>
<path fill="none" stroke="#191970" d="M880.6319,-195.7061C991.4138,-186.6675 1229.4566,-163.216 1301,-124 1304.1544,-122.2709 1307.2172,-120.2883 1310.1763,-118.1181"/>
<polygon fill="none" stroke="#191970" points="880.3246,-192.2195 870.6376,-196.5106 880.8862,-199.1969 880.3246,-192.2195"/>
</g>
<!-- Node14 -->
<g id="node15" class="node">
<title>Node14</title>
<g id="a_node15"><a xlink:href="classAddSpecialBonds.html" target="_top" xlink:title="AddSpecialBonds adds special bonds. ">
<polygon fill="#ffffff" stroke="#000000" points="1420.5,-11.5 1420.5,-112.5 1535.5,-112.5 1535.5,-11.5 1420.5,-11.5"/>
<text text-anchor="middle" x="1478" y="-100.5" font-family="Helvetica,sans-Serif" font-size="10.00" fill="#000000">AddSpecialBonds</text>
<polyline fill="none" stroke="#000000" points="1420.5,-93.5 1535.5,-93.5 "/>
<text text-anchor="start" x="1428.5" y="-81.5" font-family="Helvetica,sans-Serif" font-size="10.00" fill="#000000">&#45; mol_type_to_sbonds</text>
<text text-anchor="start" x="1428.5" y="-70.5" font-family="Helvetica,sans-Serif" font-size="10.00" fill="#000000">_list_in_mol</text>
<polyline fill="none" stroke="#000000" points="1420.5,-63.5 1535.5,-63.5 "/>
<text text-anchor="start" x="1428.5" y="-51.5" font-family="Helvetica,sans-Serif" font-size="10.00" fill="#000000">+ AddSpecialBonds()</text>
<text text-anchor="start" x="1428.5" y="-40.5" font-family="Helvetica,sans-Serif" font-size="10.00" fill="#000000">+ AddSpecialBonds()</text>
<text text-anchor="start" x="1428.5" y="-29.5" font-family="Helvetica,sans-Serif" font-size="10.00" fill="#000000">+ ~AddSpecialBonds()</text>
<text text-anchor="start" x="1428.5" y="-18.5" font-family="Helvetica,sans-Serif" font-size="10.00" fill="#000000"># compute_impl()</text>
</a>
</g>
</g>
<!-- Node0&#45;&gt;Node14 -->
<g id="edge14" class="edge">
<title>Node0&#45;&gt;Node14</title>
<path fill="none" stroke="#191970" d="M880.6156,-197.006C1009.5803,-189.5942 1317.5017,-167.7432 1411,-124 1417.4597,-120.9778 1423.7186,-117.1024 1429.6477,-112.7671"/>
<polygon fill="none" stroke="#191970" points="880.3257,-193.5167 870.5396,-197.5766 880.7215,-200.5055 880.3257,-193.5167"/>
</g>
<!-- Node15 -->
<g id="node16" class="node">
<title>Node15</title>
<g id="a_node16"><a xlink:href="classAddWrappedPosition.html" target="_top" xlink:title="AddWrappedPosition adds wrapped positions for an Element object. ">
<polygon fill="#ffffff" stroke="#000000" points="1554,-22.5 1554,-101.5 1682,-101.5 1682,-22.5 1554,-22.5"/>
<text text-anchor="middle" x="1618" y="-89.5" font-family="Helvetica,sans-Serif" font-size="10.00" fill="#000000">AddWrappedPosition</text>
<polyline fill="none" stroke="#000000" points="1554,-82.5 1682,-82.5 "/>
<text text-anchor="middle" x="1618" y="-70.5" font-family="Helvetica,sans-Serif" font-size="10.00" fill="#000000"> </text>
<polyline fill="none" stroke="#000000" points="1554,-63.5 1682,-63.5 "/>
<text text-anchor="start" x="1562" y="-51.5" font-family="Helvetica,sans-Serif" font-size="10.00" fill="#000000">+ AddWrappedPosition()</text>
<text text-anchor="start" x="1562" y="-40.5" font-family="Helvetica,sans-Serif" font-size="10.00" fill="#000000">+ ~AddWrappedPosition()</text>
<text text-anchor="start" x="1562" y="-29.5" font-family="Helvetica,sans-Serif" font-size="10.00" fill="#000000"># compute_impl()</text>
</a>
</g>
</g>
<!-- Node0&#45;&gt;Node15 -->
<g id="edge15" class="edge">
<title>Node0&#45;&gt;Node15</title>
<path fill="none" stroke="#191970" d="M881.0906,-198.2859C1030.6604,-193.1785 1425.6233,-175.1042 1545,-124 1557.5345,-118.6341 1569.5289,-110.3445 1580.0431,-101.5548"/>
<polygon fill="none" stroke="#191970" points="880.6303,-194.7992 870.7528,-198.6315 880.8642,-201.7953 880.6303,-194.7992"/>
</g>
<!-- Node1 -->
<g id="node2" class="node">
<title>Node1</title>
<g id="a_node2"><a xlink:href="classUpdater.html" target="_top" xlink:title="Updater is an abstract class to update data held by an Element object. ">
<polygon fill="#ffffff" stroke="#000000" points="747,-276.5 747,-443.5 899,-443.5 899,-276.5 747,-276.5"/>
<text text-anchor="middle" x="823" y="-431.5" font-family="Helvetica,sans-Serif" font-size="10.00" fill="#000000">Updater</text>
<polyline fill="none" stroke="#000000" points="747,-424.5 899,-424.5 "/>
<text text-anchor="start" x="755" y="-412.5" font-family="Helvetica,sans-Serif" font-size="10.00" fill="#000000"># ext_generator</text>
<text text-anchor="start" x="755" y="-401.5" font-family="Helvetica,sans-Serif" font-size="10.00" fill="#000000">&#45; skippable_elementids</text>
<polyline fill="none" stroke="#000000" points="747,-394.5 899,-394.5 "/>
<text text-anchor="start" x="755" y="-382.5" font-family="Helvetica,sans-Serif" font-size="10.00" fill="#000000">+ Updater()</text>
<text text-anchor="start" x="755" y="-371.5" font-family="Helvetica,sans-Serif" font-size="10.00" fill="#000000">+ ~Updater()</text>
<text text-anchor="start" x="755" y="-360.5" font-family="Helvetica,sans-Serif" font-size="10.00" fill="#000000">+ compute()</text>
<text text-anchor="start" x="755" y="-349.5" font-family="Helvetica,sans-Serif" font-size="10.00" fill="#000000">+ remove_from_skippable</text>
<text text-anchor="start" x="755" y="-338.5" font-family="Helvetica,sans-Serif" font-size="10.00" fill="#000000">_elementids()</text>
<text text-anchor="start" x="755" y="-327.5" font-family="Helvetica,sans-Serif" font-size="10.00" fill="#000000">+ get_ext_generator()</text>
<text text-anchor="start" x="755" y="-316.5" font-family="Helvetica,sans-Serif" font-size="10.00" fill="#000000"># compute_body()</text>
<text text-anchor="start" x="755" y="-305.5" font-family="Helvetica,sans-Serif" font-size="10.00" fill="#000000"># compute_common()</text>
<text text-anchor="start" x="755" y="-294.5" font-family="Helvetica,sans-Serif" font-size="10.00" fill="#000000"># compute_impl()</text>
<text text-anchor="start" x="755" y="-283.5" font-family="Helvetica,sans-Serif" font-size="10.00" fill="#000000">&#45; check_compute_request_for()</text>
</a>
</g>
</g>
<!-- Node1&#45;&gt;Node0 -->
<g id="edge1" class="edge">
<title>Node1&#45;&gt;Node0</title>
<path fill="none" stroke="#191970" d="M823,-266.1798C823,-256.9673 823,-248.0069 823,-239.8076"/>
<polygon fill="none" stroke="#191970" points="819.5001,-266.2512 823,-276.2512 826.5001,-266.2513 819.5001,-266.2512"/>
</g>
<!-- Node2 -->
<g id="node3" class="node">
<title>Node2</title>
<polygon fill="#ffffff" stroke="#bfbfbf" points="766,-480.5 766,-548.5 880,-548.5 880,-480.5 766,-480.5"/>
<text text-anchor="start" x="774" y="-536.5" font-family="Helvetica,sans-Serif" font-size="10.00" fill="#000000">std::enable_shared</text>
<text text-anchor="middle" x="823" y="-525.5" font-family="Helvetica,sans-Serif" font-size="10.00" fill="#000000">_from_this&lt; Updater &gt;</text>
<polyline fill="none" stroke="#bfbfbf" points="766,-518.5 880,-518.5 "/>
<text text-anchor="middle" x="823" y="-506.5" font-family="Helvetica,sans-Serif" font-size="10.00" fill="#000000"> </text>
<polyline fill="none" stroke="#bfbfbf" points="766,-499.5 880,-499.5 "/>
<text text-anchor="middle" x="823" y="-487.5" font-family="Helvetica,sans-Serif" font-size="10.00" fill="#000000"> </text>
</g>
<!-- Node2&#45;&gt;Node1 -->
<g id="edge2" class="edge">
<title>Node2&#45;&gt;Node1</title>
<path fill="none" stroke="#191970" d="M823,-470.0651C823,-461.7629 823,-452.8395 823,-443.7956"/>
<polygon fill="none" stroke="#191970" points="819.5001,-470.2114 823,-480.2114 826.5001,-470.2115 819.5001,-470.2114"/>
</g>
</g>
</svg>
        <g id="navigator" transform="translate(0 0)" fill="#404254">
                <rect fill="#f2f5e9" fill-opacity="0.5" stroke="#606060" stroke-width=".5" x="0" y="0" width="60" height="60"/>
                <use id="zoomplus" xlink:href="#zoomPlus" x="17" y="9" onmousedown="handleZoom(evt,'in')"/>
                <use id="zoomminus" xlink:href="#zoomMin" x="42" y="9" onmousedown="handleZoom(evt,'out')"/>
                <use id="reset" xlink:href="#resetDef" x="30" y="36" onmousedown="handleReset()"/>
                <g id="arrowUp" xlink:href="#dirArrow" transform="translate(30 24)" onmousedown="handlePan(0,-1)">
                  <use xlink:href="#rim" fill="#404040">
                        <set attributeName="fill" to="#808080" begin="arrowUp.mouseover" end="arrowUp.mouseout"/>
                  </use>
                  <path fill="none" stroke="white" stroke-width="1.5" d="M0,-3.0v7 M-2.5,-0.5L0,-3.0L2.5,-0.5"/>
                </g>
                <g id="arrowRight" xlink:href="#dirArrow" transform="rotate(90) translate(36 -43)" onmousedown="handlePan(1,0)">
                  <use xlink:href="#rim" fill="#404040">
                        <set attributeName="fill" to="#808080" begin="arrowRight.mouseover" end="arrowRight.mouseout"/>
                  </use>
                  <path fill="none" stroke="white" stroke-width="1.5" d="M0,-3.0v7 M-2.5,-0.5L0,-3.0L2.5,-0.5"/>
                </g>
                <g id="arrowDown" xlink:href="#dirArrow" transform="rotate(180) translate(-30 -48)" onmousedown="handlePan(0,1)">
                  <use xlink:href="#rim" fill="#404040">
                        <set attributeName="fill" to="#808080" begin="arrowDown.mouseover" end="arrowDown.mouseout"/>
                  </use>
                  <path fill="none" stroke="white" stroke-width="1.5" d="M0,-3.0v7 M-2.5,-0.5L0,-3.0L2.5,-0.5"/>
                </g>
                <g id="arrowLeft" xlink:href="#dirArrow" transform="rotate(270) translate(-36 17)" onmousedown="handlePan(-1,0)">
                  <use xlink:href="#rim" fill="#404040">
                        <set attributeName="fill" to="#808080" begin="arrowLeft.mouseover" end="arrowLeft.mouseout"/>
                  </use>
                  <path fill="none" stroke="white" stroke-width="1.5" d="M0,-3.0v7 M-2.5,-0.5L0,-3.0L2.5,-0.5"/>
                </g>
        </g>
        <svg viewBox="0 0 15 15" width="100%" height="30px" preserveAspectRatio="xMaxYMin meet">
         <g id="arrow_out" transform="scale(0.3 0.3)">
          <a xlink:href="classAdder__inherit__graph_org.svg" target="_base">
           <rect id="button" ry="5" rx="5" y="6" x="6" height="38" width="38"
                fill="#f2f5e9" fill-opacity="0.5" stroke="#606060" stroke-width="1.0"/>
           <path id="arrow"
             d="M 11.500037,31.436501 C 11.940474,20.09759 22.043105,11.32322 32.158766,21.979434 L 37.068811,17.246167 C 37.068811,17.246167 37.088388,32 37.088388,32 L 22.160133,31.978069 C 22.160133,31.978069 26.997745,27.140456 26.997745,27.140456 C 18.528582,18.264221 13.291696,25.230495 11.500037,31.436501 z"
             style="fill:#404040;"/>
          </a>
         </g>
        </svg>
</svg>
