<?xml version="1.0" encoding="UTF-8" standalone="no"?>
<!DOCTYPE svg PUBLIC "-//W3C//DTD SVG 1.1//EN"
 "http://www.w3.org/Graphics/SVG/1.1/DTD/svg11.dtd">
<!-- Generated by graphviz version 2.40.1 (20161225.0304)
 -->
<!-- Title: Adder::compute_body Pages: 1 -->
<svg width="446pt" height="66pt"
 viewBox="0.00 0.00 446.00 66.00" xmlns="http://www.w3.org/2000/svg" xmlns:xlink="http://www.w3.org/1999/xlink">
<g id="graph0" class="graph" transform="scale(1 1) rotate(0) translate(4 62)">
<title>Adder::compute_body</title>
<polygon fill="#ffffff" stroke="transparent" points="-4,4 -4,-62 442,-62 442,4 -4,4"/>
<!-- Node0 -->
<g id="node1" class="node">
<title>Node0</title>
<polygon fill="#bfbfbf" stroke="#000000" points="0,-19.5 0,-38.5 112,-38.5 112,-19.5 0,-19.5"/>
<text text-anchor="middle" x="56" y="-26.5" font-family="Helvetica,sans-Serif" font-size="10.00" fill="#000000">Adder::compute_body</text>
</g>
<!-- Node1 -->
<g id="node2" class="node">
<title>Node1</title>
<g id="a_node2"><a xlink:href="namespaceutils.html#acee57b54806ee63ddaa30518fed90adb" target="_top" xlink:title="Raise (for Python) and throw (for C++) a runtime error. ">
<polygon fill="#ffffff" stroke="#000000" points="167.5,-38.5 167.5,-57.5 265.5,-57.5 265.5,-38.5 167.5,-38.5"/>
<text text-anchor="middle" x="216.5" y="-45.5" font-family="Helvetica,sans-Serif" font-size="10.00" fill="#000000">utils::runtime_error</text>
</a>
</g>
</g>
<!-- Node0&#45;&gt;Node1 -->
<g id="edge1" class="edge">
<title>Node0&#45;&gt;Node1</title>
<path fill="none" stroke="#191970" d="M112.1351,-35.6453C126.7513,-37.3755 142.544,-39.2451 157.3125,-40.9934"/>
<polygon fill="#191970" stroke="#191970" points="157.0041,-44.4812 167.3462,-42.1812 157.8271,-37.5298 157.0041,-44.4812"/>
</g>
<!-- Node2 -->
<g id="node3" class="node">
<title>Node2</title>
<g id="a_node3"><a xlink:href="classUpdater.html#a120ffbee19948c3fa566c880a4518110" target="_top" xlink:title="Common part of compute_body. ">
<polygon fill="#ffffff" stroke="#000000" points="148,-.5 148,-19.5 285,-19.5 285,-.5 148,-.5"/>
<text text-anchor="middle" x="216.5" y="-7.5" font-family="Helvetica,sans-Serif" font-size="10.00" fill="#000000">Updater::compute_common</text>
</a>
</g>
</g>
<!-- Node0&#45;&gt;Node2 -->
<g id="edge2" class="edge">
<title>Node0&#45;&gt;Node2</title>
<path fill="none" stroke="#191970" d="M112.1351,-22.3547C120.4517,-21.3702 129.1492,-20.3406 137.8222,-19.3139"/>
<polygon fill="#191970" stroke="#191970" points="138.4488,-22.7642 147.968,-18.1128 137.6259,-15.8128 138.4488,-22.7642"/>
</g>
<!-- Node3 -->
<g id="node4" class="node">
<title>Node3</title>
<g id="a_node4"><a xlink:href="classUpdater.html#a351c03aed09fbf09f04ce703bb89b367" target="_top" xlink:title="Implementation of computation updating Element::data. ">
<polygon fill="#ffffff" stroke="#000000" points="321,-.5 321,-19.5 438,-19.5 438,-.5 321,-.5"/>
<text text-anchor="middle" x="379.5" y="-7.5" font-family="Helvetica,sans-Serif" font-size="10.00" fill="#000000">Updater::compute_impl</text>
</a>
</g>
</g>
<!-- Node2&#45;&gt;Node3 -->
<g id="edge3" class="edge">
<title>Node2&#45;&gt;Node3</title>
<path fill="none" stroke="#191970" d="M285.1543,-10C293.6284,-10 302.2927,-10 310.768,-10"/>
<polygon fill="#191970" stroke="#191970" points="310.987,-13.5001 320.9869,-10 310.9869,-6.5001 310.987,-13.5001"/>
</g>
</g>
</svg>
