<?xml version="1.0" encoding="UTF-8" standalone="no"?>
<!DOCTYPE svg PUBLIC "-//W3C//DTD SVG 1.1//EN"
 "http://www.w3.org/Graphics/SVG/1.1/DTD/svg11.dtd">
<!-- Generated by graphviz version 2.40.1 (20161225.0304)
 -->
<!-- Title: Updater::compute Pages: 1 -->
<svg width="263pt" height="78pt"
 viewBox="0.00 0.00 263.00 77.50" xmlns="http://www.w3.org/2000/svg" xmlns:xlink="http://www.w3.org/1999/xlink">
<g id="graph0" class="graph" transform="scale(1 1) rotate(0) translate(4 73.5)">
<title>Updater::compute</title>
<polygon fill="#ffffff" stroke="transparent" points="-4,4 -4,-73.5 259,-73.5 259,4 -4,4"/>
<!-- Node5 -->
<g id="node1" class="node">
<title>Node5</title>
<polygon fill="#bfbfbf" stroke="#000000" points="0,-22.5 0,-41.5 94,-41.5 94,-22.5 0,-22.5"/>
<text text-anchor="middle" x="47" y="-29.5" font-family="Helvetica,sans-Serif" font-size="10.00" fill="#000000">Updater::compute</text>
</g>
<!-- Node6 -->
<g id="node2" class="node">
<title>Node6</title>
<g id="a_node2"><a xlink:href="classUpdater.html#a40fdccd27e60624d7e5e87d84260c176" target="_top" xlink:title="Updater::check_compute\l_request_for">
<polygon fill="#ffffff" stroke="#000000" points="130,-39 130,-69 255,-69 255,-39 130,-39"/>
<text text-anchor="start" x="138" y="-57" font-family="Helvetica,sans-Serif" font-size="10.00" fill="#000000">Updater::check_compute</text>
<text text-anchor="middle" x="192.5" y="-46" font-family="Helvetica,sans-Serif" font-size="10.00" fill="#000000">_request_for</text>
</a>
</g>
</g>
<!-- Node5&#45;&gt;Node6 -->
<g id="edge1" class="edge">
<title>Node5&#45;&gt;Node6</title>
<path fill="none" stroke="#191970" d="M94.2397,-39.1428C102.4105,-40.3782 111.0729,-41.688 119.7355,-42.9978"/>
<polygon fill="#191970" stroke="#191970" points="119.4645,-46.4965 129.8754,-44.531 120.5111,-39.5752 119.4645,-46.4965"/>
</g>
<!-- Node7 -->
<g id="node3" class="node">
<title>Node7</title>
<g id="a_node3"><a xlink:href="classUpdater.html#a3a273f245f58f4076bd346673542c6a9" target="_top" xlink:title="Managing computation to update Element::data. ">
<polygon fill="#ffffff" stroke="#000000" points="132.5,-.5 132.5,-19.5 252.5,-19.5 252.5,-.5 132.5,-.5"/>
<text text-anchor="middle" x="192.5" y="-7.5" font-family="Helvetica,sans-Serif" font-size="10.00" fill="#000000">Updater::compute_body</text>
</a>
</g>
</g>
<!-- Node5&#45;&gt;Node7 -->
<g id="edge2" class="edge">
<title>Node5&#45;&gt;Node7</title>
<path fill="none" stroke="#191970" d="M94.2397,-24.8572C103.2928,-23.4884 112.9493,-22.0283 122.5411,-20.578"/>
<polygon fill="#191970" stroke="#191970" points="123.121,-24.0302 132.4853,-19.0744 122.0744,-17.1088 123.121,-24.0302"/>
</g>
</g>
</svg>
