<?xml version="1.0" encoding="UTF-8" standalone="no"?>
<!DOCTYPE svg PUBLIC "-//W3C//DTD SVG 1.1//EN"
 "http://www.w3.org/Graphics/SVG/1.1/DTD/svg11.dtd">
<!-- Generated by graphviz version 2.40.1 (20161225.0304)
 -->
<!-- Title: AddCoMPosition::compute_impl Pages: 1 -->
<svg width="435pt" height="28pt"
 viewBox="0.00 0.00 435.00 28.00" xmlns="http://www.w3.org/2000/svg" xmlns:xlink="http://www.w3.org/1999/xlink">
<g id="graph0" class="graph" transform="scale(1 1) rotate(0) translate(4 24)">
<title>AddCoMPosition::compute_impl</title>
<polygon fill="#ffffff" stroke="transparent" points="-4,4 -4,-24 431,-24 431,4 -4,4"/>
<!-- Node2 -->
<g id="node1" class="node">
<title>Node2</title>
<polygon fill="#bfbfbf" stroke="#000000" points="0,-.5 0,-19.5 156,-19.5 156,-.5 0,-.5"/>
<text text-anchor="middle" x="78" y="-7.5" font-family="Helvetica,sans-Serif" font-size="10.00" fill="#000000">AddCoMPosition::compute_impl</text>
</g>
<!-- Node3 -->
<g id="node2" class="node">
<title>Node3</title>
<g id="a_node2"><a xlink:href="namespaceutils.html#aeabf3fc19efc71936f355f069d336b5a" target="_top" xlink:title="Create a Map object from values of selected property in an array Json object to corresponding index i...">
<polygon fill="#ffffff" stroke="#000000" points="192,-.5 192,-19.5 293,-19.5 293,-.5 192,-.5"/>
<text text-anchor="middle" x="242.5" y="-7.5" font-family="Helvetica,sans-Serif" font-size="10.00" fill="#000000">utils::map_to_index</text>
</a>
</g>
</g>
<!-- Node2&#45;&gt;Node3 -->
<g id="edge1" class="edge">
<title>Node2&#45;&gt;Node3</title>
<path fill="none" stroke="#191970" d="M156.3958,-10C164.8907,-10 173.4406,-10 181.6819,-10"/>
<polygon fill="#191970" stroke="#191970" points="181.9286,-13.5001 191.9285,-10 181.9285,-6.5001 181.9286,-13.5001"/>
</g>
<!-- Node4 -->
<g id="node3" class="node">
<title>Node4</title>
<g id="a_node3"><a xlink:href="namespaceutils.html#acee57b54806ee63ddaa30518fed90adb" target="_top" xlink:title="Raise (for Python) and throw (for C++) a runtime error. ">
<polygon fill="#ffffff" stroke="#000000" points="329,-.5 329,-19.5 427,-19.5 427,-.5 329,-.5"/>
<text text-anchor="middle" x="378" y="-7.5" font-family="Helvetica,sans-Serif" font-size="10.00" fill="#000000">utils::runtime_error</text>
</a>
</g>
</g>
<!-- Node3&#45;&gt;Node4 -->
<g id="edge2" class="edge">
<title>Node3&#45;&gt;Node4</title>
<path fill="none" stroke="#191970" d="M293.3407,-10C301.5624,-10 310.1391,-10 318.543,-10"/>
<polygon fill="#191970" stroke="#191970" points="318.6726,-13.5001 328.6726,-10 318.6726,-6.5001 318.6726,-13.5001"/>
</g>
</g>
</svg>
