<?xml version="1.0" encoding="UTF-8" standalone="no"?>
<!DOCTYPE svg PUBLIC "-//W3C//DTD SVG 1.1//EN"
 "http://www.w3.org/Graphics/SVG/1.1/DTD/svg11.dtd">
<!-- Generated by graphviz version 2.40.1 (20161225.0304)
 -->
<!-- Title: AddMap Pages: 1 -->
<svg width="160pt" height="557pt"
 viewBox="0.00 0.00 160.00 557.00" xmlns="http://www.w3.org/2000/svg" xmlns:xlink="http://www.w3.org/1999/xlink">
<g id="graph0" class="graph" transform="scale(1 1) rotate(0) translate(4 553)">
<title>AddMap</title>
<polygon fill="#ffffff" stroke="transparent" points="-4,4 -4,-553 156,-553 156,4 -4,4"/>
<!-- Node0 -->
<g id="node1" class="node">
<title>Node0</title>
<polygon fill="#bfbfbf" stroke="#000000" points="30,-.5 30,-123.5 122,-123.5 122,-.5 30,-.5"/>
<text text-anchor="middle" x="76" y="-111.5" font-family="Helvetica,sans-Serif" font-size="10.00" fill="#000000">AddMap</text>
<polyline fill="none" stroke="#000000" points="30,-104.5 122,-104.5 "/>
<text text-anchor="start" x="38" y="-92.5" font-family="Helvetica,sans-Serif" font-size="10.00" fill="#000000">&#45; do_overwrite</text>
<text text-anchor="start" x="38" y="-81.5" font-family="Helvetica,sans-Serif" font-size="10.00" fill="#000000">&#45; key_ref</text>
<text text-anchor="start" x="38" y="-70.5" font-family="Helvetica,sans-Serif" font-size="10.00" fill="#000000">&#45; key_new</text>
<text text-anchor="start" x="38" y="-59.5" font-family="Helvetica,sans-Serif" font-size="10.00" fill="#000000">&#45; mapping</text>
<polyline fill="none" stroke="#000000" points="30,-52.5 122,-52.5 "/>
<text text-anchor="start" x="38" y="-40.5" font-family="Helvetica,sans-Serif" font-size="10.00" fill="#000000">+ AddMap()</text>
<text text-anchor="start" x="38" y="-29.5" font-family="Helvetica,sans-Serif" font-size="10.00" fill="#000000">+ ~AddMap()</text>
<text text-anchor="start" x="38" y="-18.5" font-family="Helvetica,sans-Serif" font-size="10.00" fill="#000000">+ overwrite()</text>
<text text-anchor="start" x="38" y="-7.5" font-family="Helvetica,sans-Serif" font-size="10.00" fill="#000000"># compute_impl()</text>
</g>
<!-- Node1 -->
<g id="node2" class="node">
<title>Node1</title>
<g id="a_node2"><a xlink:href="classAdder.html" target="_top" xlink:title="Adder adds new properties to a non&#45;empty Element object. ">
<polygon fill="#ffffff" stroke="#000000" points="28.5,-160.5 28.5,-239.5 123.5,-239.5 123.5,-160.5 28.5,-160.5"/>
<text text-anchor="middle" x="76" y="-227.5" font-family="Helvetica,sans-Serif" font-size="10.00" fill="#000000">Adder</text>
<polyline fill="none" stroke="#000000" points="28.5,-220.5 123.5,-220.5 "/>
<text text-anchor="middle" x="76" y="-208.5" font-family="Helvetica,sans-Serif" font-size="10.00" fill="#000000"> </text>
<polyline fill="none" stroke="#000000" points="28.5,-201.5 123.5,-201.5 "/>
<text text-anchor="start" x="36.5" y="-189.5" font-family="Helvetica,sans-Serif" font-size="10.00" fill="#000000">+ ~Adder()</text>
<text text-anchor="start" x="36.5" y="-178.5" font-family="Helvetica,sans-Serif" font-size="10.00" fill="#000000">+ Updater()</text>
<text text-anchor="start" x="36.5" y="-167.5" font-family="Helvetica,sans-Serif" font-size="10.00" fill="#000000"># compute_body()</text>
</a>
</g>
</g>
<!-- Node1&#45;&gt;Node0 -->
<g id="edge1" class="edge">
<title>Node1&#45;&gt;Node0</title>
<path fill="none" stroke="#191970" d="M76,-150.214C76,-141.6094 76,-132.5717 76,-123.6969"/>
<polygon fill="none" stroke="#191970" points="72.5001,-150.4547 76,-160.4547 79.5001,-150.4548 72.5001,-150.4547"/>
</g>
<!-- Node2 -->
<g id="node3" class="node">
<title>Node2</title>
<g id="a_node3"><a xlink:href="classUpdater.html" target="_top" xlink:title="Updater is an abstract class to update data held by an Element object. ">
<polygon fill="#ffffff" stroke="#000000" points="0,-276.5 0,-443.5 152,-443.5 152,-276.5 0,-276.5"/>
<text text-anchor="middle" x="76" y="-431.5" font-family="Helvetica,sans-Serif" font-size="10.00" fill="#000000">Updater</text>
<polyline fill="none" stroke="#000000" points="0,-424.5 152,-424.5 "/>
<text text-anchor="start" x="8" y="-412.5" font-family="Helvetica,sans-Serif" font-size="10.00" fill="#000000"># ext_generator</text>
<text text-anchor="start" x="8" y="-401.5" font-family="Helvetica,sans-Serif" font-size="10.00" fill="#000000">&#45; skippable_elementids</text>
<polyline fill="none" stroke="#000000" points="0,-394.5 152,-394.5 "/>
<text text-anchor="start" x="8" y="-382.5" font-family="Helvetica,sans-Serif" font-size="10.00" fill="#000000">+ Updater()</text>
<text text-anchor="start" x="8" y="-371.5" font-family="Helvetica,sans-Serif" font-size="10.00" fill="#000000">+ ~Updater()</text>
<text text-anchor="start" x="8" y="-360.5" font-family="Helvetica,sans-Serif" font-size="10.00" fill="#000000">+ compute()</text>
<text text-anchor="start" x="8" y="-349.5" font-family="Helvetica,sans-Serif" font-size="10.00" fill="#000000">+ remove_from_skippable</text>
<text text-anchor="start" x="8" y="-338.5" font-family="Helvetica,sans-Serif" font-size="10.00" fill="#000000">_elementids()</text>
<text text-anchor="start" x="8" y="-327.5" font-family="Helvetica,sans-Serif" font-size="10.00" fill="#000000">+ get_ext_generator()</text>
<text text-anchor="start" x="8" y="-316.5" font-family="Helvetica,sans-Serif" font-size="10.00" fill="#000000"># compute_body()</text>
<text text-anchor="start" x="8" y="-305.5" font-family="Helvetica,sans-Serif" font-size="10.00" fill="#000000"># compute_common()</text>
<text text-anchor="start" x="8" y="-294.5" font-family="Helvetica,sans-Serif" font-size="10.00" fill="#000000"># compute_impl()</text>
<text text-anchor="start" x="8" y="-283.5" font-family="Helvetica,sans-Serif" font-size="10.00" fill="#000000">&#45; check_compute_request_for()</text>
</a>
</g>
</g>
<!-- Node2&#45;&gt;Node1 -->
<g id="edge2" class="edge">
<title>Node2&#45;&gt;Node1</title>
<path fill="none" stroke="#191970" d="M76,-266.1798C76,-256.9673 76,-248.0069 76,-239.8076"/>
<polygon fill="none" stroke="#191970" points="72.5001,-266.2512 76,-276.2512 79.5001,-266.2513 72.5001,-266.2512"/>
</g>
<!-- Node3 -->
<g id="node4" class="node">
<title>Node3</title>
<polygon fill="#ffffff" stroke="#bfbfbf" points="19,-480.5 19,-548.5 133,-548.5 133,-480.5 19,-480.5"/>
<text text-anchor="start" x="27" y="-536.5" font-family="Helvetica,sans-Serif" font-size="10.00" fill="#000000">std::enable_shared</text>
<text text-anchor="middle" x="76" y="-525.5" font-family="Helvetica,sans-Serif" font-size="10.00" fill="#000000">_from_this&lt; Updater &gt;</text>
<polyline fill="none" stroke="#bfbfbf" points="19,-518.5 133,-518.5 "/>
<text text-anchor="middle" x="76" y="-506.5" font-family="Helvetica,sans-Serif" font-size="10.00" fill="#000000"> </text>
<polyline fill="none" stroke="#bfbfbf" points="19,-499.5 133,-499.5 "/>
<text text-anchor="middle" x="76" y="-487.5" font-family="Helvetica,sans-Serif" font-size="10.00" fill="#000000"> </text>
</g>
<!-- Node3&#45;&gt;Node2 -->
<g id="edge3" class="edge">
<title>Node3&#45;&gt;Node2</title>
<path fill="none" stroke="#191970" d="M76,-470.0651C76,-461.7629 76,-452.8395 76,-443.7956"/>
<polygon fill="none" stroke="#191970" points="72.5001,-470.2114 76,-480.2114 79.5001,-470.2115 72.5001,-470.2114"/>
</g>
</g>
</svg>
