<?xml version="1.0" encoding="UTF-8" standalone="no"?>
<!DOCTYPE svg PUBLIC "-//W3C//DTD SVG 1.1//EN"
 "http://www.w3.org/Graphics/SVG/1.1/DTD/svg11.dtd">
<!-- Generated by graphviz version 2.40.1 (20161225.0304)
 -->
<!-- Title: PyProcessor&lt; PRO &gt; Pages: 1 -->
<svg width="150pt" height="215pt"
 viewBox="0.00 0.00 150.00 215.00" xmlns="http://www.w3.org/2000/svg" xmlns:xlink="http://www.w3.org/1999/xlink">
<g id="graph0" class="graph" transform="scale(1 1) rotate(0) translate(4 211)">
<title>PyProcessor&lt; PRO &gt;</title>
<polygon fill="#ffffff" stroke="transparent" points="-4,4 -4,-211 146,-211 146,4 -4,4"/>
<!-- Node2 -->
<g id="node1" class="node">
<title>Node2</title>
<polygon fill="#bfbfbf" stroke="#000000" points="0,-.5 0,-112.5 142,-112.5 142,-.5 0,-.5"/>
<text text-anchor="middle" x="71" y="-100.5" font-family="Helvetica,sans-Serif" font-size="10.00" fill="#000000">PyProcessor&lt; PRO &gt;</text>
<polyline fill="none" stroke="#000000" points="0,-93.5 142,-93.5 "/>
<text text-anchor="middle" x="71" y="-81.5" font-family="Helvetica,sans-Serif" font-size="10.00" fill="#000000"> </text>
<polyline fill="none" stroke="#000000" points="0,-74.5 142,-74.5 "/>
<text text-anchor="start" x="8" y="-62.5" font-family="Helvetica,sans-Serif" font-size="10.00" fill="#000000">+ prepare()</text>
<text text-anchor="start" x="8" y="-51.5" font-family="Helvetica,sans-Serif" font-size="10.00" fill="#000000">+ finish()</text>
<text text-anchor="start" x="8" y="-40.5" font-family="Helvetica,sans-Serif" font-size="10.00" fill="#000000">+ run()</text>
<text text-anchor="start" x="8" y="-29.5" font-family="Helvetica,sans-Serif" font-size="10.00" fill="#000000"># run_impl()</text>
<text text-anchor="start" x="8" y="-18.5" font-family="Helvetica,sans-Serif" font-size="10.00" fill="#000000"># use_generator_at()</text>
<text text-anchor="start" x="8" y="-7.5" font-family="Helvetica,sans-Serif" font-size="10.00" fill="#000000"># finish_using_generator_at()</text>
</g>
<!-- Node3 -->
<g id="node2" class="node">
<title>Node3</title>
<polygon fill="#ffffff" stroke="#bfbfbf" points="52,-149.5 52,-206.5 90,-206.5 90,-149.5 52,-149.5"/>
<text text-anchor="middle" x="71" y="-194.5" font-family="Helvetica,sans-Serif" font-size="10.00" fill="#000000">PRO</text>
<polyline fill="none" stroke="#bfbfbf" points="52,-187.5 90,-187.5 "/>
<text text-anchor="middle" x="71" y="-175.5" font-family="Helvetica,sans-Serif" font-size="10.00" fill="#000000"> </text>
<polyline fill="none" stroke="#bfbfbf" points="52,-168.5 90,-168.5 "/>
<text text-anchor="middle" x="71" y="-156.5" font-family="Helvetica,sans-Serif" font-size="10.00" fill="#000000"> </text>
</g>
<!-- Node3&#45;&gt;Node2 -->
<g id="edge1" class="edge">
<title>Node3&#45;&gt;Node2</title>
<path fill="none" stroke="#191970" d="M71,-139.0021C71,-130.6329 71,-121.6292 71,-112.7541"/>
<polygon fill="none" stroke="#191970" points="67.5001,-139.2062 71,-149.2062 74.5001,-139.2062 67.5001,-139.2062"/>
</g>
</g>
</svg>
