<?xml version="1.0" encoding="UTF-8" standalone="no"?>
<!DOCTYPE svg PUBLIC "-//W3C//DTD SVG 1.1//EN"
 "http://www.w3.org/Graphics/SVG/1.1/DTD/svg11.dtd">
<!-- Generated by graphviz version 2.40.1 (20161225.0304)
 -->
<!-- Title: ProMeanSquareDisplacement::prepare Pages: 1 -->
<svg width="336pt" height="78pt"
 viewBox="0.00 0.00 336.00 77.50" xmlns="http://www.w3.org/2000/svg" xmlns:xlink="http://www.w3.org/1999/xlink">
<g id="graph0" class="graph" transform="scale(1 1) rotate(0) translate(4 73.5)">
<title>ProMeanSquareDisplacement::prepare</title>
<polygon fill="#ffffff" stroke="transparent" points="-4,4 -4,-73.5 332,-73.5 332,4 -4,4"/>
<!-- Node18 -->
<g id="node1" class="node">
<title>Node18</title>
<polygon fill="#bfbfbf" stroke="#000000" points="0,-22.5 0,-52.5 146,-52.5 146,-22.5 0,-22.5"/>
<text text-anchor="start" x="8" y="-40.5" font-family="Helvetica,sans-Serif" font-size="10.00" fill="#000000">ProMeanSquareDisplacement</text>
<text text-anchor="middle" x="73" y="-29.5" font-family="Helvetica,sans-Serif" font-size="10.00" fill="#000000">::prepare</text>
</g>
<!-- Node19 -->
<g id="node2" class="node">
<title>Node19</title>
<g id="a_node2"><a xlink:href="classProcessor.html#a57281dd581aae6784ce4821147343a35" target="_top" xlink:title="Call Generator::generate_data of i th Generator object in generators. ">
<polygon fill="#ffffff" stroke="#000000" points="184,-50 184,-69 326,-69 326,-50 184,-50"/>
<text text-anchor="middle" x="255" y="-57" font-family="Helvetica,sans-Serif" font-size="10.00" fill="#000000">Processor::use_generator_at</text>
</a>
</g>
</g>
<!-- Node18&#45;&gt;Node19 -->
<g id="edge1" class="edge">
<title>Node18&#45;&gt;Node19</title>
<path fill="none" stroke="#191970" d="M146.2397,-46.3531C155.3795,-47.458 164.768,-48.5928 174.0168,-49.7108"/>
<polygon fill="#191970" stroke="#191970" points="173.6317,-53.1897 183.9795,-50.9151 174.4718,-46.2403 173.6317,-53.1897"/>
</g>
<!-- Node20 -->
<g id="node3" class="node">
<title>Node20</title>
<g id="a_node3"><a xlink:href="classProMeanSquareDisplacement.html#a36d664faccd4a628e3d7666303580d83" target="_top" xlink:title="Extract position vectors from an Element object. ">
<polygon fill="#ffffff" stroke="#000000" points="182,-.5 182,-30.5 328,-30.5 328,-.5 182,-.5"/>
<text text-anchor="start" x="190" y="-18.5" font-family="Helvetica,sans-Serif" font-size="10.00" fill="#000000">ProMeanSquareDisplacement</text>
<text text-anchor="middle" x="255" y="-7.5" font-family="Helvetica,sans-Serif" font-size="10.00" fill="#000000">::extract_positions</text>
</a>
</g>
</g>
<!-- Node18&#45;&gt;Node20 -->
<g id="edge2" class="edge">
<title>Node18&#45;&gt;Node20</title>
<path fill="none" stroke="#191970" d="M146.2397,-28.6469C154.688,-27.6256 163.3489,-26.5787 171.9155,-25.5432"/>
<polygon fill="#191970" stroke="#191970" points="172.4026,-29.0099 181.9103,-24.335 171.5625,-22.0605 172.4026,-29.0099"/>
</g>
</g>
</svg>
