<?xml version="1.0" encoding="UTF-8" standalone="no"?>
<!DOCTYPE svg PUBLIC "-//W3C//DTD SVG 1.1//EN"
 "http://www.w3.org/Graphics/SVG/1.1/DTD/svg11.dtd">
<!-- Generated by graphviz version 2.40.1 (20161225.0304)
 -->
<!-- Title: Element::decrement_bookings Pages: 1 -->
<svg width="262pt" height="104pt"
 viewBox="0.00 0.00 262.00 104.00" xmlns="http://www.w3.org/2000/svg" xmlns:xlink="http://www.w3.org/1999/xlink">
<g id="graph0" class="graph" transform="scale(1 1) rotate(0) translate(4 100)">
<title>Element::decrement_bookings</title>
<polygon fill="#ffffff" stroke="transparent" points="-4,4 -4,-100 258,-100 258,4 -4,4"/>
<!-- Node21 -->
<g id="node1" class="node">
<title>Node21</title>
<polygon fill="#bfbfbf" stroke="#000000" points="0,-33 0,-63 104,-63 104,-33 0,-33"/>
<text text-anchor="start" x="8" y="-51" font-family="Helvetica,sans-Serif" font-size="10.00" fill="#000000">Element::decrement</text>
<text text-anchor="middle" x="52" y="-40" font-family="Helvetica,sans-Serif" font-size="10.00" fill="#000000">_bookings</text>
</g>
<!-- Node22 -->
<g id="node2" class="node">
<title>Node22</title>
<g id="a_node2"><a xlink:href="classElement.html#a536675d255a5d38f1bb37dea285467e9" target="_top" xlink:title="Update datakeys. This method must be called after setting new properties to data. ...">
<polygon fill="#ffffff" stroke="#000000" points="140,-76.5 140,-95.5 254,-95.5 254,-76.5 140,-76.5"/>
<text text-anchor="middle" x="197" y="-83.5" font-family="Helvetica,sans-Serif" font-size="10.00" fill="#000000">Element::update_keys</text>
</a>
</g>
</g>
<!-- Node21&#45;&gt;Node22 -->
<g id="edge1" class="edge">
<title>Node21&#45;&gt;Node22</title>
<path fill="none" stroke="#191970" d="M104.3483,-61.7189C119.5077,-65.6917 135.9438,-69.9991 150.7053,-73.8676"/>
<polygon fill="#191970" stroke="#191970" points="150.0603,-77.3167 160.6209,-76.4662 151.8349,-70.5453 150.0603,-77.3167"/>
</g>
<!-- Node23 -->
<g id="node3" class="node">
<title>Node23</title>
<g id="a_node3"><a xlink:href="namespaceutils.html#a26267fe7371b6215c5d61374d716527b" target="_top" xlink:title="Logging a message. ">
<polygon fill="#ffffff" stroke="#000000" points="170.5,-38.5 170.5,-57.5 223.5,-57.5 223.5,-38.5 170.5,-38.5"/>
<text text-anchor="middle" x="197" y="-45.5" font-family="Helvetica,sans-Serif" font-size="10.00" fill="#000000">utils::log</text>
</a>
</g>
</g>
<!-- Node21&#45;&gt;Node23 -->
<g id="edge2" class="edge">
<title>Node21&#45;&gt;Node23</title>
<path fill="none" stroke="#191970" d="M104.3483,-48C122.8893,-48 143.3404,-48 160.3013,-48"/>
<polygon fill="#191970" stroke="#191970" points="160.3626,-51.5001 170.3626,-48 160.3625,-44.5001 160.3626,-51.5001"/>
</g>
<!-- Node24 -->
<g id="node4" class="node">
<title>Node24</title>
<g id="a_node4"><a xlink:href="namespaceutils.html#acee57b54806ee63ddaa30518fed90adb" target="_top" xlink:title="Raise (for Python) and throw (for C++) a runtime error. ">
<polygon fill="#ffffff" stroke="#000000" points="148,-.5 148,-19.5 246,-19.5 246,-.5 148,-.5"/>
<text text-anchor="middle" x="197" y="-7.5" font-family="Helvetica,sans-Serif" font-size="10.00" fill="#000000">utils::runtime_error</text>
</a>
</g>
</g>
<!-- Node21&#45;&gt;Node24 -->
<g id="edge3" class="edge">
<title>Node21&#45;&gt;Node24</title>
<path fill="none" stroke="#191970" d="M104.3483,-34.2811C119.5077,-30.3083 135.9438,-26.0009 150.7053,-22.1324"/>
<polygon fill="#191970" stroke="#191970" points="151.8349,-25.4547 160.6209,-19.5338 150.0603,-18.6833 151.8349,-25.4547"/>
</g>
</g>
</svg>
