<?xml version="1.0" encoding="UTF-8" standalone="no"?>
<!DOCTYPE svg PUBLIC "-//W3C//DTD SVG 1.1//EN"
 "http://www.w3.org/Graphics/SVG/1.1/DTD/svg11.dtd">
<!-- Generated by graphviz version 2.40.1 (20161225.0304)
 -->
<!-- Title: src/filters/fil_comparison.cpp Pages: 1 -->
<svg width="666pt" height="532pt"
 viewBox="0.00 0.00 666.00 532.00" xmlns="http://www.w3.org/2000/svg" xmlns:xlink="http://www.w3.org/1999/xlink">
<g id="graph0" class="graph" transform="scale(1 1) rotate(0) translate(4 528)">
<title>src/filters/fil_comparison.cpp</title>
<polygon fill="#ffffff" stroke="transparent" points="-4,4 -4,-528 662,-528 662,4 -4,4"/>
<!-- Node0 -->
<g id="node1" class="node">
<title>Node0</title>
<polygon fill="#bfbfbf" stroke="#000000" points="292,-504.5 292,-523.5 434,-523.5 434,-504.5 292,-504.5"/>
<text text-anchor="middle" x="363" y="-511.5" font-family="Helvetica,sans-Serif" font-size="10.00" fill="#000000">src/filters/fil_comparison.cpp</text>
</g>
<!-- Node1 -->
<g id="node2" class="node">
<title>Node1</title>
<g id="a_node2"><a xlink:href="fil__comparison_8h.html" target="_top" xlink:title="This file has a definition of FilComparison class, which is a subclass of Filter class. ">
<polygon fill="#ffffff" stroke="#000000" points="283,-448.5 283,-467.5 371,-467.5 371,-448.5 283,-448.5"/>
<text text-anchor="middle" x="327" y="-455.5" font-family="Helvetica,sans-Serif" font-size="10.00" fill="#000000">fil_comparison.h</text>
</a>
</g>
</g>
<!-- Node0&#45;&gt;Node1 -->
<g id="edge1" class="edge">
<title>Node0&#45;&gt;Node1</title>
<path fill="none" stroke="#191970" d="M356.7293,-504.2455C351.7736,-496.5367 344.717,-485.5598 338.7224,-476.2348"/>
<polygon fill="#191970" stroke="#191970" points="341.5506,-474.1618 333.1989,-467.6427 335.6624,-477.9471 341.5506,-474.1618"/>
</g>
<!-- Node22 -->
<g id="node23" class="node">
<title>Node22</title>
<g id="a_node23"><a xlink:href="runtime__error_8h.html" target="_top" xlink:title="This file has a definition of utils::runtime_error. ">
<polygon fill="#ffffff" stroke="#000000" points="362,-392.5 362,-411.5 474,-411.5 474,-392.5 362,-392.5"/>
<text text-anchor="middle" x="418" y="-399.5" font-family="Helvetica,sans-Serif" font-size="10.00" fill="#000000">../utils/runtime_error.h</text>
</a>
</g>
</g>
<!-- Node0&#45;&gt;Node22 -->
<g id="edge25" class="edge">
<title>Node0&#45;&gt;Node22</title>
<path fill="none" stroke="#191970" d="M367.6893,-504.4509C376.7814,-485.936 396.9531,-444.8591 408.8078,-420.7187"/>
<polygon fill="#191970" stroke="#191970" points="412.0563,-422.0438 413.3226,-411.5249 405.773,-418.9582 412.0563,-422.0438"/>
</g>
<!-- Node2 -->
<g id="node3" class="node">
<title>Node2</title>
<g id="a_node3"><a xlink:href="filter_8h.html" target="_top" xlink:title="This file has a definition of Filter class, which is a subclass of Updater class. ...">
<polygon fill="#ffffff" stroke="#000000" points="272.5,-392.5 272.5,-411.5 343.5,-411.5 343.5,-392.5 272.5,-392.5"/>
<text text-anchor="middle" x="308" y="-399.5" font-family="Helvetica,sans-Serif" font-size="10.00" fill="#000000">filters/filter.h</text>
</a>
</g>
</g>
<!-- Node1&#45;&gt;Node2 -->
<g id="edge2" class="edge">
<title>Node1&#45;&gt;Node2</title>
<path fill="none" stroke="#191970" d="M323.6905,-448.2455C321.1567,-440.7776 317.5823,-430.2427 314.485,-421.1137"/>
<polygon fill="#191970" stroke="#191970" points="317.7991,-419.9879 311.2716,-411.6427 311.1702,-422.237 317.7991,-419.9879"/>
</g>
<!-- Node3 -->
<g id="node4" class="node">
<title>Node3</title>
<g id="a_node4"><a xlink:href="updater_8h.html" target="_top" xlink:title="This file has a definition of Updater class, which is one of the cores of this program. ">
<polygon fill="#ffffff" stroke="#000000" points="268.5,-336.5 268.5,-355.5 347.5,-355.5 347.5,-336.5 268.5,-336.5"/>
<text text-anchor="middle" x="308" y="-343.5" font-family="Helvetica,sans-Serif" font-size="10.00" fill="#000000">core/updater.h</text>
</a>
</g>
</g>
<!-- Node2&#45;&gt;Node3 -->
<g id="edge3" class="edge">
<title>Node2&#45;&gt;Node3</title>
<path fill="none" stroke="#191970" d="M308,-392.2455C308,-384.9382 308,-374.6944 308,-365.7046"/>
<polygon fill="#191970" stroke="#191970" points="311.5001,-365.6426 308,-355.6427 304.5001,-365.6427 311.5001,-365.6426"/>
</g>
<!-- Node4 -->
<g id="node5" class="node">
<title>Node4</title>
<polygon fill="#ffffff" stroke="#bfbfbf" points="316,-112.5 316,-131.5 360,-131.5 360,-112.5 316,-112.5"/>
<text text-anchor="middle" x="338" y="-119.5" font-family="Helvetica,sans-Serif" font-size="10.00" fill="#000000">omp.h</text>
</g>
<!-- Node3&#45;&gt;Node4 -->
<g id="edge4" class="edge">
<title>Node3&#45;&gt;Node4</title>
<path fill="none" stroke="#191970" d="M309.2891,-336.375C313.8375,-302.4133 329.1946,-187.7472 335.3831,-141.5392"/>
<polygon fill="#191970" stroke="#191970" points="338.8572,-141.9653 336.7157,-131.5891 331.9192,-141.036 338.8572,-141.9653"/>
</g>
<!-- Node5 -->
<g id="node6" class="node">
<title>Node5</title>
<g id="a_node6"><a xlink:href="generators_8h.html" target="_top" xlink:title="This file includes all the header files of subclasses of Generator class. ">
<polygon fill="#ffffff" stroke="#000000" points="171,-280.5 171,-299.5 263,-299.5 263,-280.5 171,-280.5"/>
<text text-anchor="middle" x="217" y="-287.5" font-family="Helvetica,sans-Serif" font-size="10.00" fill="#000000">core/generators.h</text>
</a>
</g>
</g>
<!-- Node3&#45;&gt;Node5 -->
<g id="edge5" class="edge">
<title>Node3&#45;&gt;Node5</title>
<path fill="none" stroke="#191970" d="M292.149,-336.2455C278.1868,-327.6534 257.6272,-315.0014 241.5404,-305.1018"/>
<polygon fill="#191970" stroke="#191970" points="243.0203,-301.9029 232.6693,-299.6427 239.3516,-307.8645 243.0203,-301.9029"/>
</g>
<!-- Node6 -->
<g id="node7" class="node">
<title>Node6</title>
<g id="a_node7"><a xlink:href="element_8h.html" target="_top" xlink:title="This file has a definition of Element class, which is one of the cores of this program. ">
<polygon fill="#ffffff" stroke="#000000" points="129.5,-168.5 129.5,-187.5 210.5,-187.5 210.5,-168.5 129.5,-168.5"/>
<text text-anchor="middle" x="170" y="-175.5" font-family="Helvetica,sans-Serif" font-size="10.00" fill="#000000">core/element.h</text>
</a>
</g>
</g>
<!-- Node5&#45;&gt;Node6 -->
<g id="edge6" class="edge">
<title>Node5&#45;&gt;Node6</title>
<path fill="none" stroke="#191970" d="M172.1284,-280.4588C152.2752,-273.7646 130.7918,-262.5612 119,-244 107.4556,-225.8283 126.5208,-206.5032 144.5361,-193.4931"/>
<polygon fill="#191970" stroke="#191970" points="146.8454,-196.1561 153.157,-187.6464 142.9162,-190.3627 146.8454,-196.1561"/>
</g>
<!-- Node20 -->
<g id="node21" class="node">
<title>Node20</title>
<g id="a_node21"><a xlink:href="gen__dict_8h.html" target="_top" xlink:title="This file has a definition of GenDict class. ">
<polygon fill="#ffffff" stroke="#000000" points="128.5,-224.5 128.5,-243.5 211.5,-243.5 211.5,-224.5 128.5,-224.5"/>
<text text-anchor="middle" x="170" y="-231.5" font-family="Helvetica,sans-Serif" font-size="10.00" fill="#000000">core/gen_dict.h</text>
</a>
</g>
</g>
<!-- Node5&#45;&gt;Node20 -->
<g id="edge21" class="edge">
<title>Node5&#45;&gt;Node20</title>
<path fill="none" stroke="#191970" d="M208.8132,-280.2455C202.1411,-272.2958 192.5521,-260.8706 184.5747,-251.3656"/>
<polygon fill="#191970" stroke="#191970" points="187.2026,-249.0524 178.093,-243.6427 181.8408,-253.5525 187.2026,-249.0524"/>
</g>
<!-- Node21 -->
<g id="node22" class="node">
<title>Node21</title>
<g id="a_node22"><a xlink:href="gen__list_8h.html" target="_top" xlink:title="This file has a definition of GenList class. ">
<polygon fill="#ffffff" stroke="#000000" points="230,-224.5 230,-243.5 310,-243.5 310,-224.5 230,-224.5"/>
<text text-anchor="middle" x="270" y="-231.5" font-family="Helvetica,sans-Serif" font-size="10.00" fill="#000000">core/gen_list.h</text>
</a>
</g>
</g>
<!-- Node5&#45;&gt;Node21 -->
<g id="edge23" class="edge">
<title>Node5&#45;&gt;Node21</title>
<path fill="none" stroke="#191970" d="M226.2319,-280.2455C233.8317,-272.2155 244.7877,-260.6394 253.8368,-251.0781"/>
<polygon fill="#191970" stroke="#191970" points="256.5421,-253.3115 260.8739,-243.6427 251.458,-248.4998 256.5421,-253.3115"/>
</g>
<!-- Node6&#45;&gt;Node4 -->
<g id="edge7" class="edge">
<title>Node6&#45;&gt;Node4</title>
<path fill="none" stroke="#191970" d="M198.8802,-168.3733C228.718,-158.4273 275.1685,-142.9438 306.0791,-132.6403"/>
<polygon fill="#191970" stroke="#191970" points="307.5396,-135.8429 315.9196,-129.3601 305.3259,-129.2021 307.5396,-135.8429"/>
</g>
<!-- Node7 -->
<g id="node8" class="node">
<title>Node7</title>
<g id="a_node8"><a xlink:href="eigen_8h.html" target="_top" xlink:title="This file includes Eigen and defines some aliases for the Eigen&#45;Vector, Matrix and Array...">
<polygon fill="#ffffff" stroke="#000000" points="121.5,-112.5 121.5,-131.5 192.5,-131.5 192.5,-112.5 121.5,-112.5"/>
<text text-anchor="middle" x="157" y="-119.5" font-family="Helvetica,sans-Serif" font-size="10.00" fill="#000000">alias/eigen.h</text>
</a>
</g>
</g>
<!-- Node6&#45;&gt;Node7 -->
<g id="edge8" class="edge">
<title>Node6&#45;&gt;Node7</title>
<path fill="none" stroke="#191970" d="M167.7356,-168.2455C166.0206,-160.8579 163.6088,-150.4689 161.5056,-141.4087"/>
<polygon fill="#191970" stroke="#191970" points="164.9092,-140.5922 159.2385,-131.6427 158.0905,-142.1751 164.9092,-140.5922"/>
</g>
<!-- Node9 -->
<g id="node10" class="node">
<title>Node9</title>
<g id="a_node10"><a xlink:href="alias_2pybind_8h.html" target="_top" xlink:title="This file includes pybind11 and defines an alias for the namespace pybind11. ">
<polygon fill="#ffffff" stroke="#000000" points="21.5,-112.5 21.5,-131.5 98.5,-131.5 98.5,-112.5 21.5,-112.5"/>
<text text-anchor="middle" x="60" y="-119.5" font-family="Helvetica,sans-Serif" font-size="10.00" fill="#000000">alias/pybind.h</text>
</a>
</g>
</g>
<!-- Node6&#45;&gt;Node9 -->
<g id="edge10" class="edge">
<title>Node6&#45;&gt;Node9</title>
<path fill="none" stroke="#191970" d="M150.8395,-168.2455C133.4889,-159.4125 107.7099,-146.2887 88.0417,-136.2758"/>
<polygon fill="#191970" stroke="#191970" points="89.4405,-133.0605 78.941,-131.6427 86.2647,-139.2986 89.4405,-133.0605"/>
</g>
<!-- Node11 -->
<g id="node12" class="node">
<title>Node11</title>
<g id="a_node12"><a xlink:href="generator_8h.html" target="_top" xlink:title="This file has a definition of Generator class, which is one of the cores of this program. ">
<polygon fill="#ffffff" stroke="#000000" points="210.5,-112.5 210.5,-131.5 297.5,-131.5 297.5,-112.5 210.5,-112.5"/>
<text text-anchor="middle" x="254" y="-119.5" font-family="Helvetica,sans-Serif" font-size="10.00" fill="#000000">core/generator.h</text>
</a>
</g>
</g>
<!-- Node6&#45;&gt;Node11 -->
<g id="edge12" class="edge">
<title>Node6&#45;&gt;Node11</title>
<path fill="none" stroke="#191970" d="M184.6317,-168.2455C197.3994,-159.7337 216.1438,-147.2375 230.9299,-137.3801"/>
<polygon fill="#191970" stroke="#191970" points="233.1569,-140.1019 239.536,-131.6427 229.274,-134.2775 233.1569,-140.1019"/>
</g>
<!-- Node8 -->
<g id="node9" class="node">
<title>Node8</title>
<polygon fill="#ffffff" stroke="#bfbfbf" points="124,-56.5 124,-75.5 196,-75.5 196,-56.5 124,-56.5"/>
<text text-anchor="middle" x="160" y="-63.5" font-family="Helvetica,sans-Serif" font-size="10.00" fill="#000000">Eigen/Dense</text>
</g>
<!-- Node7&#45;&gt;Node8 -->
<g id="edge9" class="edge">
<title>Node7&#45;&gt;Node8</title>
<path fill="none" stroke="#191970" d="M157.5226,-112.2455C157.914,-104.9382 158.4628,-94.6944 158.9444,-85.7046"/>
<polygon fill="#191970" stroke="#191970" points="162.4434,-85.8156 159.4834,-75.6427 155.4534,-85.4411 162.4434,-85.8156"/>
</g>
<!-- Node10 -->
<g id="node11" class="node">
<title>Node10</title>
<polygon fill="#ffffff" stroke="#bfbfbf" points="0,-56.5 0,-75.5 106,-75.5 106,-56.5 0,-56.5"/>
<text text-anchor="middle" x="53" y="-63.5" font-family="Helvetica,sans-Serif" font-size="10.00" fill="#000000">pybind11/pybind11.h</text>
</g>
<!-- Node9&#45;&gt;Node10 -->
<g id="edge11" class="edge">
<title>Node9&#45;&gt;Node10</title>
<path fill="none" stroke="#191970" d="M58.7807,-112.2455C57.8673,-104.9382 56.5868,-94.6944 55.4631,-85.7046"/>
<polygon fill="#191970" stroke="#191970" points="58.9187,-85.1313 54.2053,-75.6427 51.9728,-85.9996 58.9187,-85.1313"/>
</g>
<!-- Node12 -->
<g id="node13" class="node">
<title>Node12</title>
<g id="a_node13"><a xlink:href="std_8h.html" target="_top" xlink:title="This file includes a part of C++ Standard Template Library and defines aliases for them...">
<polygon fill="#ffffff" stroke="#000000" points="387,-56.5 387,-75.5 449,-75.5 449,-56.5 387,-56.5"/>
<text text-anchor="middle" x="418" y="-63.5" font-family="Helvetica,sans-Serif" font-size="10.00" fill="#000000">alias/std.h</text>
</a>
</g>
</g>
<!-- Node11&#45;&gt;Node12 -->
<g id="edge13" class="edge">
<title>Node11&#45;&gt;Node12</title>
<path fill="none" stroke="#191970" d="M282.1926,-112.3733C309.3453,-103.1016 350.5907,-89.0178 380.5025,-78.804"/>
<polygon fill="#191970" stroke="#191970" points="381.8428,-82.0449 390.1753,-75.5011 379.5808,-75.4204 381.8428,-82.0449"/>
</g>
<!-- Node18 -->
<g id="node19" class="node">
<title>Node18</title>
<g id="a_node19"><a xlink:href="json_8h.html" target="_top" xlink:title="This file includes nlohmann/json and defines an alias for a JSON class. ">
<polygon fill="#ffffff" stroke="#000000" points="219,-56.5 219,-75.5 285,-75.5 285,-56.5 219,-56.5"/>
<text text-anchor="middle" x="252" y="-63.5" font-family="Helvetica,sans-Serif" font-size="10.00" fill="#000000">alias/json.h</text>
</a>
</g>
</g>
<!-- Node11&#45;&gt;Node18 -->
<g id="edge19" class="edge">
<title>Node11&#45;&gt;Node18</title>
<path fill="none" stroke="#191970" d="M253.6516,-112.2455C253.3907,-104.9382 253.0248,-94.6944 252.7037,-85.7046"/>
<polygon fill="#191970" stroke="#191970" points="256.1992,-85.5113 252.3444,-75.6427 249.2036,-85.7613 256.1992,-85.5113"/>
</g>
<!-- Node13 -->
<g id="node14" class="node">
<title>Node13</title>
<polygon fill="#ffffff" stroke="#bfbfbf" points="606,-.5 606,-19.5 658,-19.5 658,-.5 606,-.5"/>
<text text-anchor="middle" x="632" y="-7.5" font-family="Helvetica,sans-Serif" font-size="10.00" fill="#000000">memory</text>
</g>
<!-- Node12&#45;&gt;Node13 -->
<g id="edge14" class="edge">
<title>Node12&#45;&gt;Node13</title>
<path fill="none" stroke="#191970" d="M449.1101,-58.2736C482.9129,-49.8197 538.7511,-35.6845 595.7482,-20.2937"/>
<polygon fill="#191970" stroke="#191970" points="596.9115,-23.6048 605.6478,-17.6109 595.0804,-16.8485 596.9115,-23.6048"/>
</g>
<!-- Node14 -->
<g id="node15" class="node">
<title>Node14</title>
<polygon fill="#ffffff" stroke="#bfbfbf" points="286.5,-.5 286.5,-19.5 327.5,-19.5 327.5,-.5 286.5,-.5"/>
<text text-anchor="middle" x="307" y="-7.5" font-family="Helvetica,sans-Serif" font-size="10.00" fill="#000000">string</text>
</g>
<!-- Node12&#45;&gt;Node14 -->
<g id="edge15" class="edge">
<title>Node12&#45;&gt;Node14</title>
<path fill="none" stroke="#191970" d="M398.9184,-56.3733C381.2598,-47.4644 354.7947,-34.1127 334.7902,-24.0203"/>
<polygon fill="#191970" stroke="#191970" points="336.3372,-20.8806 325.8326,-19.5011 333.1842,-27.1303 336.3372,-20.8806"/>
</g>
<!-- Node15 -->
<g id="node16" class="node">
<title>Node15</title>
<polygon fill="#ffffff" stroke="#bfbfbf" points="346,-.5 346,-19.5 390,-19.5 390,-.5 346,-.5"/>
<text text-anchor="middle" x="368" y="-7.5" font-family="Helvetica,sans-Serif" font-size="10.00" fill="#000000">vector</text>
</g>
<!-- Node12&#45;&gt;Node15 -->
<g id="edge16" class="edge">
<title>Node12&#45;&gt;Node15</title>
<path fill="none" stroke="#191970" d="M409.2907,-56.2455C402.1927,-48.2958 391.9916,-36.8706 383.505,-27.3656"/>
<polygon fill="#191970" stroke="#191970" points="385.8805,-24.771 376.6095,-19.6427 380.6589,-29.4331 385.8805,-24.771"/>
</g>
<!-- Node16 -->
<g id="node17" class="node">
<title>Node16</title>
<polygon fill="#ffffff" stroke="#bfbfbf" points="408.5,-.5 408.5,-19.5 491.5,-19.5 491.5,-.5 408.5,-.5"/>
<text text-anchor="middle" x="450" y="-7.5" font-family="Helvetica,sans-Serif" font-size="10.00" fill="#000000">unordered_map</text>
</g>
<!-- Node12&#45;&gt;Node16 -->
<g id="edge17" class="edge">
<title>Node12&#45;&gt;Node16</title>
<path fill="none" stroke="#191970" d="M423.574,-56.2455C427.9331,-48.617 434.1211,-37.7881 439.4133,-28.5267"/>
<polygon fill="#191970" stroke="#191970" points="442.5673,-30.0616 444.4899,-19.6427 436.4896,-26.5886 442.5673,-30.0616"/>
</g>
<!-- Node17 -->
<g id="node18" class="node">
<title>Node17</title>
<polygon fill="#ffffff" stroke="#bfbfbf" points="510,-.5 510,-19.5 588,-19.5 588,-.5 510,-.5"/>
<text text-anchor="middle" x="549" y="-7.5" font-family="Helvetica,sans-Serif" font-size="10.00" fill="#000000">unordered_set</text>
</g>
<!-- Node12&#45;&gt;Node17 -->
<g id="edge18" class="edge">
<title>Node12&#45;&gt;Node17</title>
<path fill="none" stroke="#191970" d="M440.5197,-56.3733C461.7372,-47.3032 493.7276,-33.6279 517.4769,-23.4755"/>
<polygon fill="#191970" stroke="#191970" points="518.9548,-26.6502 526.7742,-19.5011 516.2033,-20.2136 518.9548,-26.6502"/>
</g>
<!-- Node19 -->
<g id="node20" class="node">
<title>Node19</title>
<polygon fill="#ffffff" stroke="#bfbfbf" points="170,-.5 170,-19.5 268,-19.5 268,-.5 170,-.5"/>
<text text-anchor="middle" x="219" y="-7.5" font-family="Helvetica,sans-Serif" font-size="10.00" fill="#000000">nlohmann/json.hpp</text>
</g>
<!-- Node18&#45;&gt;Node19 -->
<g id="edge20" class="edge">
<title>Node18&#45;&gt;Node19</title>
<path fill="none" stroke="#191970" d="M246.2518,-56.2455C241.7565,-48.617 235.3752,-37.7881 229.9175,-28.5267"/>
<polygon fill="#191970" stroke="#191970" points="232.7747,-26.4811 224.6823,-19.6427 226.7439,-30.035 232.7747,-26.4811"/>
</g>
<!-- Node20&#45;&gt;Node6 -->
<g id="edge22" class="edge">
<title>Node20&#45;&gt;Node6</title>
<path fill="none" stroke="#191970" d="M170,-224.2455C170,-216.9382 170,-206.6944 170,-197.7046"/>
<polygon fill="#191970" stroke="#191970" points="173.5001,-197.6426 170,-187.6427 166.5001,-197.6427 173.5001,-197.6426"/>
</g>
<!-- Node21&#45;&gt;Node6 -->
<g id="edge24" class="edge">
<title>Node21&#45;&gt;Node6</title>
<path fill="none" stroke="#191970" d="M252.5813,-224.2455C236.9515,-215.4928 213.7981,-202.527 195.9815,-192.5496"/>
<polygon fill="#191970" stroke="#191970" points="197.6543,-189.475 187.2191,-187.6427 194.234,-195.5825 197.6543,-189.475"/>
</g>
<!-- Node22&#45;&gt;Node12 -->
<g id="edge26" class="edge">
<title>Node22&#45;&gt;Node12</title>
<path fill="none" stroke="#191970" d="M418,-392.4116C418,-373.0538 418,-327.9167 418,-290 418,-290 418,-290 418,-178 418,-145.7116 418,-108.1872 418,-85.8048"/>
<polygon fill="#191970" stroke="#191970" points="421.5001,-85.5883 418,-75.5884 414.5001,-85.5884 421.5001,-85.5883"/>
</g>
</g>
</svg>
