<?xml version="1.0" encoding="UTF-8" standalone="no"?>
<!DOCTYPE svg PUBLIC "-//W3C//DTD SVG 1.1//EN"
 "http://www.w3.org/Graphics/SVG/1.1/DTD/svg11.dtd">
<!-- Generated by graphviz version 2.40.1 (20161225.0304)
 -->
<!-- Title: src/invokers/invoker.cpp Pages: 1 -->
<!--zoomable 476 -->
<svg id="main" version="1.1" xmlns="http://www.w3.org/2000/svg" xmlns:xlink="http://www.w3.org/1999/xlink" xml:space="preserve" onload="init(evt)">
<style type="text/css"><![CDATA[
.edge:hover path { stroke: red; }
.edge:hover polygon { stroke: red; fill: red; }
]]></style>
<script type="text/javascript"><![CDATA[
var edges = document.getElementsByTagName('g');
if (edges && edges.length) {
  for (var i=0;i<edges.length;i++) {
    if (edges[i].id.substr(0,4)=='edge') {
      edges[i].setAttribute('class','edge');
    }
  }
}
]]></script>
        <defs>
                <circle id="rim" cx="0" cy="0" r="7"/>
                <circle id="rim2" cx="0" cy="0" r="3.5"/>
                <g id="zoomPlus">
                        <use xlink:href="#rim" fill="#404040">
                                <set attributeName="fill" to="#808080" begin="zoomplus.mouseover" end="zoomplus.mouseout"/>
                        </use>
                        <path d="M-4,0h8M0,-4v8" fill="none" stroke="white" stroke-width="1.5" pointer-events="none"/>
                </g>
                <g id="zoomMin">
                        <use xlink:href="#rim" fill="#404040">
                                <set attributeName="fill" to="#808080" begin="zoomminus.mouseover" end="zoomminus.mouseout"/>
                        </use>
                        <path d="M-4,0h8" fill="none" stroke="white" stroke-width="1.5" pointer-events="none"/>
                </g>
                <g id="dirArrow">
                        <path fill="none" stroke="white" stroke-width="1.5" d="M0,-3.0v7 M-2.5,-0.5L0,-3.0L2.5,-0.5"/>
                </g>
               <g id="resetDef">
                       <use xlink:href="#rim2" fill="#404040">
                               <set attributeName="fill" to="#808080" begin="reset.mouseover" end="reset.mouseout"/>
                       </use>
               </g>
        </defs>

<script type="text/javascript">
var viewWidth = 637;
var viewHeight = 476;
var sectionId = 'dynsection-0';
</script>
<script xlink:href="svgpan.js"/>
<svg id="graph" class="graph">
<g id="viewport">
<title>src/invokers/invoker.cpp</title>
<polygon fill="#ffffff" stroke="transparent" points="-4,4 -4,-472 633,-472 633,4 -4,4"/>
<!-- Node0 -->
<g id="node1" class="node">
<title>Node0</title>
<polygon fill="#bfbfbf" stroke="#000000" points="252.5,-448.5 252.5,-467.5 375.5,-467.5 375.5,-448.5 252.5,-448.5"/>
<text text-anchor="middle" x="314" y="-455.5" font-family="Helvetica,sans-Serif" font-size="10.00" fill="#000000">src/invokers/invoker.cpp</text>
</g>
<!-- Node1 -->
<g id="node2" class="node">
<title>Node1</title>
<g id="a_node2"><a xlink:href="invoker_8h.html" target="_top" xlink:title="This file has a definition of Invoker class, which executes one or more analysis. ...">
<polygon fill="#ffffff" stroke="#000000" points="258,-392.5 258,-411.5 314,-411.5 314,-392.5 258,-392.5"/>
<text text-anchor="middle" x="286" y="-399.5" font-family="Helvetica,sans-Serif" font-size="10.00" fill="#000000">invoker.h</text>
</a>
</g>
</g>
<!-- Node0&#45;&gt;Node1 -->
<g id="edge1" class="edge">
<title>Node0&#45;&gt;Node1</title>
<path fill="none" stroke="#191970" d="M309.1228,-448.2455C305.3487,-440.6973 300.0079,-430.0158 295.4099,-420.8197"/>
<polygon fill="#191970" stroke="#191970" points="298.424,-419.0217 290.8213,-411.6427 292.163,-422.1522 298.424,-419.0217"/>
</g>
<!-- Node21 -->
<g id="node22" class="node">
<title>Node21</title>
<g id="a_node22"><a xlink:href="message_8h.html" target="_top" xlink:title="This file has definitions of messaging functions. ">
<polygon fill="#ffffff" stroke="#000000" points="331.5,-336.5 331.5,-355.5 426.5,-355.5 426.5,-336.5 331.5,-336.5"/>
<text text-anchor="middle" x="379" y="-343.5" font-family="Helvetica,sans-Serif" font-size="10.00" fill="#000000">../utils/message.h</text>
</a>
</g>
</g>
<!-- Node0&#45;&gt;Node21 -->
<g id="edge23" class="edge">
<title>Node0&#45;&gt;Node21</title>
<path fill="none" stroke="#191970" d="M319.5419,-448.4509C330.3351,-429.8533 354.3395,-388.4919 368.3235,-364.3964"/>
<polygon fill="#191970" stroke="#191970" points="371.4798,-365.9307 373.4722,-355.5249 365.4255,-362.417 371.4798,-365.9307"/>
</g>
<!-- Node2 -->
<g id="node3" class="node">
<title>Node2</title>
<g id="a_node3"><a xlink:href="processor_8h.html" target="_top" xlink:title="This file has a definition of Processor class, where an analysis process is programmed. ">
<polygon fill="#ffffff" stroke="#000000" points="192.5,-336.5 192.5,-355.5 311.5,-355.5 311.5,-336.5 192.5,-336.5"/>
<text text-anchor="middle" x="252" y="-343.5" font-family="Helvetica,sans-Serif" font-size="10.00" fill="#000000">processors/processor.h</text>
</a>
</g>
</g>
<!-- Node1&#45;&gt;Node2 -->
<g id="edge2" class="edge">
<title>Node1&#45;&gt;Node2</title>
<path fill="none" stroke="#191970" d="M280.0777,-392.2455C275.3973,-384.5367 268.7327,-373.5598 263.0711,-364.2348"/>
<polygon fill="#191970" stroke="#191970" points="266.0361,-362.3741 257.8545,-355.6427 260.0525,-366.007 266.0361,-362.3741"/>
</g>
<!-- Node3 -->
<g id="node4" class="node">
<title>Node3</title>
<g id="a_node4"><a xlink:href="generators_8h.html" target="_top" xlink:title="This file includes all the header files of subclasses of Generator class. ">
<polygon fill="#ffffff" stroke="#000000" points="202,-280.5 202,-299.5 294,-299.5 294,-280.5 202,-280.5"/>
<text text-anchor="middle" x="248" y="-287.5" font-family="Helvetica,sans-Serif" font-size="10.00" fill="#000000">core/generators.h</text>
</a>
</g>
</g>
<!-- Node2&#45;&gt;Node3 -->
<g id="edge3" class="edge">
<title>Node2&#45;&gt;Node3</title>
<path fill="none" stroke="#191970" d="M251.3033,-336.2455C250.7813,-328.9382 250.0496,-318.6944 249.4075,-309.7046"/>
<polygon fill="#191970" stroke="#191970" points="252.8924,-309.3679 248.6888,-299.6427 245.9102,-309.8667 252.8924,-309.3679"/>
</g>
<!-- Node4 -->
<g id="node5" class="node">
<title>Node4</title>
<g id="a_node5"><a xlink:href="element_8h.html" target="_top" xlink:title="This file has a definition of Element class, which is one of the cores of this program. ">
<polygon fill="#ffffff" stroke="#000000" points="205.5,-168.5 205.5,-187.5 286.5,-187.5 286.5,-168.5 205.5,-168.5"/>
<text text-anchor="middle" x="246" y="-175.5" font-family="Helvetica,sans-Serif" font-size="10.00" fill="#000000">core/element.h</text>
</a>
</g>
</g>
<!-- Node3&#45;&gt;Node4 -->
<g id="edge4" class="edge">
<title>Node3&#45;&gt;Node4</title>
<path fill="none" stroke="#191970" d="M263.5811,-280.3409C281.0482,-268.1806 305.7355,-246.1855 296,-224 290.6677,-211.8487 280.3661,-201.4938 270.4924,-193.7031"/>
<polygon fill="#191970" stroke="#191970" points="272.5509,-190.8723 262.4177,-187.7788 268.41,-196.5162 272.5509,-190.8723"/>
</g>
<!-- Node19 -->
<g id="node20" class="node">
<title>Node19</title>
<g id="a_node20"><a xlink:href="gen__dict_8h.html" target="_top" xlink:title="This file has a definition of GenDict class. ">
<polygon fill="#ffffff" stroke="#000000" points="105.5,-224.5 105.5,-243.5 188.5,-243.5 188.5,-224.5 105.5,-224.5"/>
<text text-anchor="middle" x="147" y="-231.5" font-family="Helvetica,sans-Serif" font-size="10.00" fill="#000000">core/gen_dict.h</text>
</a>
</g>
</g>
<!-- Node3&#45;&gt;Node19 -->
<g id="edge19" class="edge">
<title>Node3&#45;&gt;Node19</title>
<path fill="none" stroke="#191970" d="M230.4071,-280.2455C214.621,-271.4928 191.2361,-258.527 173.2413,-248.5496"/>
<polygon fill="#191970" stroke="#191970" points="174.8341,-245.4308 164.3913,-243.6427 171.4397,-251.5528 174.8341,-245.4308"/>
</g>
<!-- Node20 -->
<g id="node21" class="node">
<title>Node20</title>
<g id="a_node21"><a xlink:href="gen__list_8h.html" target="_top" xlink:title="This file has a definition of GenList class. ">
<polygon fill="#ffffff" stroke="#000000" points="207,-224.5 207,-243.5 287,-243.5 287,-224.5 207,-224.5"/>
<text text-anchor="middle" x="247" y="-231.5" font-family="Helvetica,sans-Serif" font-size="10.00" fill="#000000">core/gen_list.h</text>
</a>
</g>
</g>
<!-- Node3&#45;&gt;Node20 -->
<g id="edge21" class="edge">
<title>Node3&#45;&gt;Node20</title>
<path fill="none" stroke="#191970" d="M247.8258,-280.2455C247.6953,-272.9382 247.5124,-262.6944 247.3519,-253.7046"/>
<polygon fill="#191970" stroke="#191970" points="250.8503,-253.5786 247.1722,-243.6427 243.8514,-253.7036 250.8503,-253.5786"/>
</g>
<!-- Node5 -->
<g id="node6" class="node">
<title>Node5</title>
<polygon fill="#ffffff" stroke="#bfbfbf" points="308,-112.5 308,-131.5 352,-131.5 352,-112.5 308,-112.5"/>
<text text-anchor="middle" x="330" y="-119.5" font-family="Helvetica,sans-Serif" font-size="10.00" fill="#000000">omp.h</text>
</g>
<!-- Node4&#45;&gt;Node5 -->
<g id="edge5" class="edge">
<title>Node4&#45;&gt;Node5</title>
<path fill="none" stroke="#191970" d="M260.6317,-168.2455C273.3994,-159.7337 292.1438,-147.2375 306.9299,-137.3801"/>
<polygon fill="#191970" stroke="#191970" points="309.1569,-140.1019 315.536,-131.6427 305.274,-134.2775 309.1569,-140.1019"/>
</g>
<!-- Node6 -->
<g id="node7" class="node">
<title>Node6</title>
<g id="a_node7"><a xlink:href="eigen_8h.html" target="_top" xlink:title="This file includes Eigen and defines some aliases for the Eigen&#45;Vector, Matrix and Array...">
<polygon fill="#ffffff" stroke="#000000" points="9.5,-112.5 9.5,-131.5 80.5,-131.5 80.5,-112.5 9.5,-112.5"/>
<text text-anchor="middle" x="45" y="-119.5" font-family="Helvetica,sans-Serif" font-size="10.00" fill="#000000">alias/eigen.h</text>
</a>
</g>
</g>
<!-- Node4&#45;&gt;Node6 -->
<g id="edge6" class="edge">
<title>Node4&#45;&gt;Node6</title>
<path fill="none" stroke="#191970" d="M211.4469,-168.3733C177.5896,-158.9404 125.854,-144.5265 89.0574,-134.2747"/>
<polygon fill="#191970" stroke="#191970" points="89.6747,-130.8135 79.1022,-131.5011 87.796,-137.5566 89.6747,-130.8135"/>
</g>
<!-- Node8 -->
<g id="node9" class="node">
<title>Node8</title>
<g id="a_node9"><a xlink:href="alias_2pybind_8h.html" target="_top" xlink:title="This file includes pybind11 and defines an alias for the namespace pybind11. ">
<polygon fill="#ffffff" stroke="#000000" points="105.5,-112.5 105.5,-131.5 182.5,-131.5 182.5,-112.5 105.5,-112.5"/>
<text text-anchor="middle" x="144" y="-119.5" font-family="Helvetica,sans-Serif" font-size="10.00" fill="#000000">alias/pybind.h</text>
</a>
</g>
</g>
<!-- Node4&#45;&gt;Node8 -->
<g id="edge8" class="edge">
<title>Node4&#45;&gt;Node8</title>
<path fill="none" stroke="#191970" d="M228.233,-168.2455C212.2905,-159.4928 188.6741,-146.527 170.5011,-136.5496"/>
<polygon fill="#191970" stroke="#191970" points="172.0137,-133.3873 161.5634,-131.6427 168.6448,-139.5233 172.0137,-133.3873"/>
</g>
<!-- Node10 -->
<g id="node11" class="node">
<title>Node10</title>
<g id="a_node11"><a xlink:href="generator_8h.html" target="_top" xlink:title="This file has a definition of Generator class, which is one of the cores of this program. ">
<polygon fill="#ffffff" stroke="#000000" points="202.5,-112.5 202.5,-131.5 289.5,-131.5 289.5,-112.5 202.5,-112.5"/>
<text text-anchor="middle" x="246" y="-119.5" font-family="Helvetica,sans-Serif" font-size="10.00" fill="#000000">core/generator.h</text>
</a>
</g>
</g>
<!-- Node4&#45;&gt;Node10 -->
<g id="edge10" class="edge">
<title>Node4&#45;&gt;Node10</title>
<path fill="none" stroke="#191970" d="M246,-168.2455C246,-160.9382 246,-150.6944 246,-141.7046"/>
<polygon fill="#191970" stroke="#191970" points="249.5001,-141.6426 246,-131.6427 242.5001,-141.6427 249.5001,-141.6426"/>
</g>
<!-- Node7 -->
<g id="node8" class="node">
<title>Node7</title>
<polygon fill="#ffffff" stroke="#bfbfbf" points="0,-56.5 0,-75.5 72,-75.5 72,-56.5 0,-56.5"/>
<text text-anchor="middle" x="36" y="-63.5" font-family="Helvetica,sans-Serif" font-size="10.00" fill="#000000">Eigen/Dense</text>
</g>
<!-- Node6&#45;&gt;Node7 -->
<g id="edge7" class="edge">
<title>Node6&#45;&gt;Node7</title>
<path fill="none" stroke="#191970" d="M43.4323,-112.2455C42.2579,-104.9382 40.6116,-94.6944 39.1668,-85.7046"/>
<polygon fill="#191970" stroke="#191970" points="42.5922,-84.9606 37.5497,-75.6427 35.6809,-86.0714 42.5922,-84.9606"/>
</g>
<!-- Node9 -->
<g id="node10" class="node">
<title>Node9</title>
<polygon fill="#ffffff" stroke="#bfbfbf" points="90,-56.5 90,-75.5 196,-75.5 196,-56.5 90,-56.5"/>
<text text-anchor="middle" x="143" y="-63.5" font-family="Helvetica,sans-Serif" font-size="10.00" fill="#000000">pybind11/pybind11.h</text>
</g>
<!-- Node8&#45;&gt;Node9 -->
<g id="edge9" class="edge">
<title>Node8&#45;&gt;Node9</title>
<path fill="none" stroke="#191970" d="M143.8258,-112.2455C143.6953,-104.9382 143.5124,-94.6944 143.3519,-85.7046"/>
<polygon fill="#191970" stroke="#191970" points="146.8503,-85.5786 143.1722,-75.6427 139.8514,-85.7036 146.8503,-85.5786"/>
</g>
<!-- Node11 -->
<g id="node12" class="node">
<title>Node11</title>
<g id="a_node12"><a xlink:href="std_8h.html" target="_top" xlink:title="This file includes a part of C++ Standard Template Library and defines aliases for them...">
<polygon fill="#ffffff" stroke="#000000" points="349,-56.5 349,-75.5 411,-75.5 411,-56.5 349,-56.5"/>
<text text-anchor="middle" x="380" y="-63.5" font-family="Helvetica,sans-Serif" font-size="10.00" fill="#000000">alias/std.h</text>
</a>
</g>
</g>
<!-- Node10&#45;&gt;Node11 -->
<g id="edge11" class="edge">
<title>Node10&#45;&gt;Node11</title>
<path fill="none" stroke="#191970" d="M269.0354,-112.3733C290.7388,-103.3032 323.4618,-89.6279 347.755,-79.4755"/>
<polygon fill="#191970" stroke="#191970" points="349.3881,-82.5865 357.2652,-75.5011 346.6889,-76.1278 349.3881,-82.5865"/>
</g>
<!-- Node17 -->
<g id="node18" class="node">
<title>Node17</title>
<g id="a_node18"><a xlink:href="json_8h.html" target="_top" xlink:title="This file includes nlohmann/json and defines an alias for a JSON class. ">
<polygon fill="#ffffff" stroke="#000000" points="214,-56.5 214,-75.5 280,-75.5 280,-56.5 214,-56.5"/>
<text text-anchor="middle" x="247" y="-63.5" font-family="Helvetica,sans-Serif" font-size="10.00" fill="#000000">alias/json.h</text>
</a>
</g>
</g>
<!-- Node10&#45;&gt;Node17 -->
<g id="edge17" class="edge">
<title>Node10&#45;&gt;Node17</title>
<path fill="none" stroke="#191970" d="M246.1742,-112.2455C246.3047,-104.9382 246.4876,-94.6944 246.6481,-85.7046"/>
<polygon fill="#191970" stroke="#191970" points="250.1486,-85.7036 246.8278,-75.6427 243.1497,-85.5786 250.1486,-85.7036"/>
</g>
<!-- Node12 -->
<g id="node13" class="node">
<title>Node12</title>
<polygon fill="#ffffff" stroke="#bfbfbf" points="577,-.5 577,-19.5 629,-19.5 629,-.5 577,-.5"/>
<text text-anchor="middle" x="603" y="-7.5" font-family="Helvetica,sans-Serif" font-size="10.00" fill="#000000">memory</text>
</g>
<!-- Node11&#45;&gt;Node12 -->
<g id="edge12" class="edge">
<title>Node11&#45;&gt;Node12</title>
<path fill="none" stroke="#191970" d="M411.0306,-58.7923C446.4823,-50.4735 506.4592,-36.1446 566.9478,-20.2136"/>
<polygon fill="#191970" stroke="#191970" points="567.8852,-23.5861 576.6566,-17.6437 566.0939,-16.8191 567.8852,-23.5861"/>
</g>
<!-- Node13 -->
<g id="node14" class="node">
<title>Node13</title>
<polygon fill="#ffffff" stroke="#bfbfbf" points="257.5,-.5 257.5,-19.5 298.5,-19.5 298.5,-.5 257.5,-.5"/>
<text text-anchor="middle" x="278" y="-7.5" font-family="Helvetica,sans-Serif" font-size="10.00" fill="#000000">string</text>
</g>
<!-- Node11&#45;&gt;Node13 -->
<g id="edge13" class="edge">
<title>Node11&#45;&gt;Node13</title>
<path fill="none" stroke="#191970" d="M362.233,-56.2455C346.2905,-47.4928 322.6741,-34.527 304.5011,-24.5496"/>
<polygon fill="#191970" stroke="#191970" points="306.0137,-21.3873 295.5634,-19.6427 302.6448,-27.5233 306.0137,-21.3873"/>
</g>
<!-- Node14 -->
<g id="node15" class="node">
<title>Node14</title>
<polygon fill="#ffffff" stroke="#bfbfbf" points="317,-.5 317,-19.5 361,-19.5 361,-.5 317,-.5"/>
<text text-anchor="middle" x="339" y="-7.5" font-family="Helvetica,sans-Serif" font-size="10.00" fill="#000000">vector</text>
</g>
<!-- Node11&#45;&gt;Node14 -->
<g id="edge14" class="edge">
<title>Node11&#45;&gt;Node14</title>
<path fill="none" stroke="#191970" d="M372.8583,-56.2455C367.1556,-48.4564 359.01,-37.3308 352.1375,-27.9439"/>
<polygon fill="#191970" stroke="#191970" points="354.7913,-25.6437 346.0598,-19.6427 349.1432,-29.7789 354.7913,-25.6437"/>
</g>
<!-- Node15 -->
<g id="node16" class="node">
<title>Node15</title>
<polygon fill="#ffffff" stroke="#bfbfbf" points="379.5,-.5 379.5,-19.5 462.5,-19.5 462.5,-.5 379.5,-.5"/>
<text text-anchor="middle" x="421" y="-7.5" font-family="Helvetica,sans-Serif" font-size="10.00" fill="#000000">unordered_map</text>
</g>
<!-- Node11&#45;&gt;Node15 -->
<g id="edge15" class="edge">
<title>Node11&#45;&gt;Node15</title>
<path fill="none" stroke="#191970" d="M387.1417,-56.2455C392.8444,-48.4564 400.99,-37.3308 407.8625,-27.9439"/>
<polygon fill="#191970" stroke="#191970" points="410.8568,-29.7789 413.9402,-19.6427 405.2087,-25.6437 410.8568,-29.7789"/>
</g>
<!-- Node16 -->
<g id="node17" class="node">
<title>Node16</title>
<polygon fill="#ffffff" stroke="#bfbfbf" points="481,-.5 481,-19.5 559,-19.5 559,-.5 481,-.5"/>
<text text-anchor="middle" x="520" y="-7.5" font-family="Helvetica,sans-Serif" font-size="10.00" fill="#000000">unordered_set</text>
</g>
<!-- Node11&#45;&gt;Node16 -->
<g id="edge16" class="edge">
<title>Node11&#45;&gt;Node16</title>
<path fill="none" stroke="#191970" d="M404.0669,-56.3733C426.8428,-47.2629 461.2344,-33.5062 486.649,-23.3404"/>
<polygon fill="#191970" stroke="#191970" points="488.2623,-26.4648 496.2472,-19.5011 485.6625,-19.9654 488.2623,-26.4648"/>
</g>
<!-- Node18 -->
<g id="node19" class="node">
<title>Node18</title>
<polygon fill="#ffffff" stroke="#bfbfbf" points="141,-.5 141,-19.5 239,-19.5 239,-.5 141,-.5"/>
<text text-anchor="middle" x="190" y="-7.5" font-family="Helvetica,sans-Serif" font-size="10.00" fill="#000000">nlohmann/json.hpp</text>
</g>
<!-- Node17&#45;&gt;Node18 -->
<g id="edge18" class="edge">
<title>Node17&#45;&gt;Node18</title>
<path fill="none" stroke="#191970" d="M237.0714,-56.2455C228.8162,-48.1352 216.8791,-36.4075 207.0918,-26.7919"/>
<polygon fill="#191970" stroke="#191970" points="209.4011,-24.1542 199.8149,-19.6427 204.4954,-29.1476 209.4011,-24.1542"/>
</g>
<!-- Node19&#45;&gt;Node4 -->
<g id="edge20" class="edge">
<title>Node19&#45;&gt;Node4</title>
<path fill="none" stroke="#191970" d="M164.2445,-224.2455C179.5761,-215.5731 202.2199,-202.7645 219.7916,-192.825"/>
<polygon fill="#191970" stroke="#191970" points="221.9724,-195.6126 228.9531,-187.6427 218.5259,-189.5198 221.9724,-195.6126"/>
</g>
<!-- Node20&#45;&gt;Node4 -->
<g id="edge22" class="edge">
<title>Node20&#45;&gt;Node4</title>
<path fill="none" stroke="#191970" d="M246.8258,-224.2455C246.6953,-216.9382 246.5124,-206.6944 246.3519,-197.7046"/>
<polygon fill="#191970" stroke="#191970" points="249.8503,-197.5786 246.1722,-187.6427 242.8514,-197.7036 249.8503,-197.5786"/>
</g>
<!-- Node21&#45;&gt;Node11 -->
<g id="edge24" class="edge">
<title>Node21&#45;&gt;Node11</title>
<path fill="none" stroke="#191970" d="M379.1433,-336.4119C379.4198,-317.0545 380,-271.9182 380,-234 380,-234 380,-234 380,-178 380,-145.7116 380,-108.1872 380,-85.8048"/>
<polygon fill="#191970" stroke="#191970" points="383.5001,-85.5883 380,-75.5884 376.5001,-85.5884 383.5001,-85.5883"/>
</g>
</g>
</svg>
        <g id="navigator" transform="translate(0 0)" fill="#404254">
                <rect fill="#f2f5e9" fill-opacity="0.5" stroke="#606060" stroke-width=".5" x="0" y="0" width="60" height="60"/>
                <use id="zoomplus" xlink:href="#zoomPlus" x="17" y="9" onmousedown="handleZoom(evt,'in')"/>
                <use id="zoomminus" xlink:href="#zoomMin" x="42" y="9" onmousedown="handleZoom(evt,'out')"/>
                <use id="reset" xlink:href="#resetDef" x="30" y="36" onmousedown="handleReset()"/>
                <g id="arrowUp" xlink:href="#dirArrow" transform="translate(30 24)" onmousedown="handlePan(0,-1)">
                  <use xlink:href="#rim" fill="#404040">
                        <set attributeName="fill" to="#808080" begin="arrowUp.mouseover" end="arrowUp.mouseout"/>
                  </use>
                  <path fill="none" stroke="white" stroke-width="1.5" d="M0,-3.0v7 M-2.5,-0.5L0,-3.0L2.5,-0.5"/>
                </g>
                <g id="arrowRight" xlink:href="#dirArrow" transform="rotate(90) translate(36 -43)" onmousedown="handlePan(1,0)">
                  <use xlink:href="#rim" fill="#404040">
                        <set attributeName="fill" to="#808080" begin="arrowRight.mouseover" end="arrowRight.mouseout"/>
                  </use>
                  <path fill="none" stroke="white" stroke-width="1.5" d="M0,-3.0v7 M-2.5,-0.5L0,-3.0L2.5,-0.5"/>
                </g>
                <g id="arrowDown" xlink:href="#dirArrow" transform="rotate(180) translate(-30 -48)" onmousedown="handlePan(0,1)">
                  <use xlink:href="#rim" fill="#404040">
                        <set attributeName="fill" to="#808080" begin="arrowDown.mouseover" end="arrowDown.mouseout"/>
                  </use>
                  <path fill="none" stroke="white" stroke-width="1.5" d="M0,-3.0v7 M-2.5,-0.5L0,-3.0L2.5,-0.5"/>
                </g>
                <g id="arrowLeft" xlink:href="#dirArrow" transform="rotate(270) translate(-36 17)" onmousedown="handlePan(-1,0)">
                  <use xlink:href="#rim" fill="#404040">
                        <set attributeName="fill" to="#808080" begin="arrowLeft.mouseover" end="arrowLeft.mouseout"/>
                  </use>
                  <path fill="none" stroke="white" stroke-width="1.5" d="M0,-3.0v7 M-2.5,-0.5L0,-3.0L2.5,-0.5"/>
                </g>
        </g>
        <svg viewBox="0 0 15 15" width="100%" height="30px" preserveAspectRatio="xMaxYMin meet">
         <g id="arrow_out" transform="scale(0.3 0.3)">
          <a xlink:href="invoker_8cpp__incl_org.svg" target="_base">
           <rect id="button" ry="5" rx="5" y="6" x="6" height="38" width="38"
                fill="#f2f5e9" fill-opacity="0.5" stroke="#606060" stroke-width="1.0"/>
           <path id="arrow"
             d="M 11.500037,31.436501 C 11.940474,20.09759 22.043105,11.32322 32.158766,21.979434 L 37.068811,17.246167 C 37.068811,17.246167 37.088388,32 37.088388,32 L 22.160133,31.978069 C 22.160133,31.978069 26.997745,27.140456 26.997745,27.140456 C 18.528582,18.264221 13.291696,25.230495 11.500037,31.436501 z"
             style="fill:#404040;"/>
          </a>
         </g>
        </svg>
</svg>
