<?xml version="1.0" encoding="UTF-8" standalone="no"?>
<!DOCTYPE svg PUBLIC "-//W3C//DTD SVG 1.1//EN"
 "http://www.w3.org/Graphics/SVG/1.1/DTD/svg11.dtd">
<!-- Generated by graphviz version 2.40.1 (20161225.0304)
 -->
<!-- Title: src/invokers/invoker.h Pages: 1 -->
<svg width="443pt" height="285pt"
 viewBox="0.00 0.00 442.50 285.00" xmlns="http://www.w3.org/2000/svg" xmlns:xlink="http://www.w3.org/1999/xlink">
<g id="graph0" class="graph" transform="scale(1 1) rotate(0) translate(4 281)">
<title>src/invokers/invoker.h</title>
<polygon fill="#ffffff" stroke="transparent" points="-4,4 -4,-281 438.5,-281 438.5,4 -4,4"/>
<!-- Node20 -->
<g id="node1" class="node">
<title>Node20</title>
<polygon fill="#bfbfbf" stroke="#000000" points="146.5,-257.5 146.5,-276.5 259.5,-276.5 259.5,-257.5 146.5,-257.5"/>
<text text-anchor="middle" x="203" y="-264.5" font-family="Helvetica,sans-Serif" font-size="10.00" fill="#000000">src/invokers/invoker.h</text>
</g>
<!-- Node21 -->
<g id="node2" class="node">
<title>Node21</title>
<g id="a_node2"><a xlink:href="inv__omp_8h.html" target="_top" xlink:title="This file has a definition of InvOMP class, which is a subclass of Invoker class. ...">
<polygon fill="#ffffff" stroke="#000000" points="5,-196 5,-215 123,-215 123,-196 5,-196"/>
<text text-anchor="middle" x="64" y="-203" font-family="Helvetica,sans-Serif" font-size="10.00" fill="#000000">src/invokers/inv_omp.h</text>
</a>
</g>
</g>
<!-- Node20&#45;&gt;Node21 -->
<g id="edge1" class="edge">
<title>Node20&#45;&gt;Node21</title>
<path fill="none" stroke="#191970" d="M172.1325,-253.3428C145.8494,-241.7139 108.7628,-225.3051 85.5662,-215.0419"/>
<polygon fill="#191970" stroke="#191970" points="170.7202,-256.5452 181.2813,-257.3906 173.5525,-250.1437 170.7202,-256.5452"/>
</g>
<!-- Node27 -->
<g id="node8" class="node">
<title>Node27</title>
<g id="a_node8"><a xlink:href="invoker_8cpp.html" target="_top" xlink:title="This file has an implementation of Invoker class, which executes one or more analysis. ">
<polygon fill="#ffffff" stroke="#000000" points="141.5,-196 141.5,-215 264.5,-215 264.5,-196 141.5,-196"/>
<text text-anchor="middle" x="203" y="-203" font-family="Helvetica,sans-Serif" font-size="10.00" fill="#000000">src/invokers/invoker.cpp</text>
</a>
</g>
</g>
<!-- Node20&#45;&gt;Node27 -->
<g id="edge7" class="edge">
<title>Node20&#45;&gt;Node27</title>
<path fill="none" stroke="#191970" d="M203,-247.2462C203,-236.5519 203,-223.814 203,-215.2449"/>
<polygon fill="#191970" stroke="#191970" points="199.5001,-247.3906 203,-257.3906 206.5001,-247.3907 199.5001,-247.3906"/>
</g>
<!-- Node28 -->
<g id="node9" class="node">
<title>Node28</title>
<g id="a_node9"><a xlink:href="py__invoker_8h.html" target="_top" xlink:title="This file is for binding Invoker class to Python. ">
<polygon fill="#ffffff" stroke="#000000" points="282.5,-190.5 282.5,-220.5 383.5,-220.5 383.5,-190.5 282.5,-190.5"/>
<text text-anchor="start" x="290.5" y="-208.5" font-family="Helvetica,sans-Serif" font-size="10.00" fill="#000000">src/pybind/invokers</text>
<text text-anchor="middle" x="333" y="-197.5" font-family="Helvetica,sans-Serif" font-size="10.00" fill="#000000">/py_invoker.h</text>
</a>
</g>
</g>
<!-- Node20&#45;&gt;Node28 -->
<g id="edge8" class="edge">
<title>Node20&#45;&gt;Node28</title>
<path fill="none" stroke="#191970" d="M232.48,-253.0537C252.96,-243.3651 280.2296,-230.4644 301.1984,-220.5446"/>
<polygon fill="#191970" stroke="#191970" points="230.8553,-249.9504 223.3125,-257.3906 233.8488,-256.278 230.8553,-249.9504"/>
</g>
<!-- Node22 -->
<g id="node3" class="node">
<title>Node22</title>
<g id="a_node3"><a xlink:href="inv__omp_8cpp.html" target="_top" xlink:title="This file has an implementation of InvOMP class, which is a subclass of Invoker class. ">
<polygon fill="#ffffff" stroke="#000000" points="0,-129 0,-148 128,-148 128,-129 0,-129"/>
<text text-anchor="middle" x="64" y="-136" font-family="Helvetica,sans-Serif" font-size="10.00" fill="#000000">src/invokers/inv_omp.cpp</text>
</a>
</g>
</g>
<!-- Node21&#45;&gt;Node22 -->
<g id="edge2" class="edge">
<title>Node21&#45;&gt;Node22</title>
<path fill="none" stroke="#191970" d="M64,-185.6079C64,-173.214 64,-157.8263 64,-148.0817"/>
<polygon fill="#191970" stroke="#191970" points="60.5001,-185.9005 64,-195.9005 67.5001,-185.9006 60.5001,-185.9005"/>
</g>
<!-- Node23 -->
<g id="node4" class="node">
<title>Node23</title>
<g id="a_node4"><a xlink:href="py__inv__omp_8h.html" target="_top" xlink:title="This file is for binding InvOMP class to Python. ">
<polygon fill="#ffffff" stroke="#000000" points="162.5,-123.5 162.5,-153.5 263.5,-153.5 263.5,-123.5 162.5,-123.5"/>
<text text-anchor="start" x="170.5" y="-141.5" font-family="Helvetica,sans-Serif" font-size="10.00" fill="#000000">src/pybind/invokers</text>
<text text-anchor="middle" x="213" y="-130.5" font-family="Helvetica,sans-Serif" font-size="10.00" fill="#000000">/py_inv_omp.h</text>
</a>
</g>
</g>
<!-- Node21&#45;&gt;Node23 -->
<g id="edge3" class="edge">
<title>Node21&#45;&gt;Node23</title>
<path fill="none" stroke="#191970" d="M94.6254,-191.7289C119.3667,-180.6035 154.1376,-164.9683 179.5934,-153.5218"/>
<polygon fill="#191970" stroke="#191970" points="93.033,-188.6072 85.3481,-195.9005 95.9038,-194.9915 93.033,-188.6072"/>
</g>
<!-- Node24 -->
<g id="node5" class="node">
<title>Node24</title>
<g id="a_node5"><a xlink:href="pybind_8h.html" target="_top" xlink:title="This file includes all the header files containing definitions of functions to bind C++ and Python...">
<polygon fill="#ffffff" stroke="#000000" points="270,-62 270,-81 340,-81 340,-62 270,-62"/>
<text text-anchor="middle" x="305" y="-69" font-family="Helvetica,sans-Serif" font-size="10.00" fill="#000000">src/pybind.h</text>
</a>
</g>
</g>
<!-- Node23&#45;&gt;Node24 -->
<g id="edge4" class="edge">
<title>Node23&#45;&gt;Node24</title>
<path fill="none" stroke="#191970" d="M242.2317,-117.2117C258.9113,-105.0646 278.9986,-90.4358 291.8797,-81.055"/>
<polygon fill="#191970" stroke="#191970" points="239.8994,-114.5804 233.8762,-123.2967 244.0202,-120.2389 239.8994,-114.5804"/>
</g>
<!-- Node26 -->
<g id="node7" class="node">
<title>Node26</title>
<g id="a_node7"><a xlink:href="py__inv__omp_8cpp.html" target="_top" xlink:title="This file is for binding InvOMP class to Python. ">
<polygon fill="#ffffff" stroke="#000000" points="150.5,-56.5 150.5,-86.5 251.5,-86.5 251.5,-56.5 150.5,-56.5"/>
<text text-anchor="start" x="158.5" y="-74.5" font-family="Helvetica,sans-Serif" font-size="10.00" fill="#000000">src/pybind/invokers</text>
<text text-anchor="middle" x="201" y="-63.5" font-family="Helvetica,sans-Serif" font-size="10.00" fill="#000000">/py_inv_omp.cpp</text>
</a>
</g>
</g>
<!-- Node23&#45;&gt;Node26 -->
<g id="edge6" class="edge">
<title>Node23&#45;&gt;Node26</title>
<path fill="none" stroke="#191970" d="M208.4898,-113.3179C206.882,-104.3414 205.122,-94.5143 203.7122,-86.6432"/>
<polygon fill="#191970" stroke="#191970" points="205.0688,-114.0704 210.277,-123.2967 211.9591,-112.8362 205.0688,-114.0704"/>
</g>
<!-- Node25 -->
<g id="node6" class="node">
<title>Node25</title>
<g id="a_node6"><a xlink:href="ppap4lmp_8cpp.html" target="_top" xlink:title="This file has no implementation, only includes a header file to bind C++ and Python. ">
<polygon fill="#ffffff" stroke="#000000" points="258,-.5 258,-19.5 352,-19.5 352,-.5 258,-.5"/>
<text text-anchor="middle" x="305" y="-7.5" font-family="Helvetica,sans-Serif" font-size="10.00" fill="#000000">src/ppap4lmp.cpp</text>
</a>
</g>
</g>
<!-- Node24&#45;&gt;Node25 -->
<g id="edge5" class="edge">
<title>Node24&#45;&gt;Node25</title>
<path fill="none" stroke="#191970" d="M305,-51.7462C305,-41.0519 305,-28.314 305,-19.7449"/>
<polygon fill="#191970" stroke="#191970" points="301.5001,-51.8906 305,-61.8906 308.5001,-51.8907 301.5001,-51.8906"/>
</g>
<!-- Node28&#45;&gt;Node23 -->
<g id="edge10" class="edge">
<title>Node28&#45;&gt;Node23</title>
<path fill="none" stroke="#191970" d="M296.9214,-185.3561C278.7305,-175.1995 257.0315,-163.0843 240.2556,-153.7177"/>
<polygon fill="#191970" stroke="#191970" points="295.6321,-188.6448 306.0697,-190.4639 299.0446,-182.5329 295.6321,-188.6448"/>
</g>
<!-- Node28&#45;&gt;Node24 -->
<g id="edge9" class="edge">
<title>Node28&#45;&gt;Node24</title>
<path fill="none" stroke="#191970" d="M327.7251,-180.2559C321.4516,-150.2327 311.2911,-101.6073 307.0068,-81.1042"/>
<polygon fill="#191970" stroke="#191970" points="324.371,-181.3163 329.8425,-190.389 331.223,-179.8845 324.371,-181.3163"/>
</g>
<!-- Node29 -->
<g id="node10" class="node">
<title>Node29</title>
<g id="a_node10"><a xlink:href="py__invoker_8cpp.html" target="_top" xlink:title="This file is for binding Invoker class to Python. ">
<polygon fill="#ffffff" stroke="#000000" points="333.5,-123.5 333.5,-153.5 434.5,-153.5 434.5,-123.5 333.5,-123.5"/>
<text text-anchor="start" x="341.5" y="-141.5" font-family="Helvetica,sans-Serif" font-size="10.00" fill="#000000">src/pybind/invokers</text>
<text text-anchor="middle" x="384" y="-130.5" font-family="Helvetica,sans-Serif" font-size="10.00" fill="#000000">/py_invoker.cpp</text>
</a>
</g>
</g>
<!-- Node28&#45;&gt;Node29 -->
<g id="edge11" class="edge">
<title>Node28&#45;&gt;Node29</title>
<path fill="none" stroke="#191970" d="M350.8404,-182.0626C358.0193,-172.6315 366.0909,-162.0276 372.4731,-153.6432"/>
<polygon fill="#191970" stroke="#191970" points="347.8446,-180.2197 344.5727,-190.2967 353.4146,-184.4595 347.8446,-180.2197"/>
</g>
</g>
</svg>
