<?xml version="1.0" encoding="UTF-8" standalone="no"?>
<!DOCTYPE svg PUBLIC "-//W3C//DTD SVG 1.1//EN"
 "http://www.w3.org/Graphics/SVG/1.1/DTD/svg11.dtd">
<!-- Generated by graphviz version 2.40.1 (20161225.0304)
 -->
<!-- Title: src/utils/map_to_index.h Pages: 1 -->
<svg width="496pt" height="140pt"
 viewBox="0.00 0.00 496.00 140.00" xmlns="http://www.w3.org/2000/svg" xmlns:xlink="http://www.w3.org/1999/xlink">
<g id="graph0" class="graph" transform="scale(1 1) rotate(0) translate(4 136)">
<title>src/utils/map_to_index.h</title>
<polygon fill="#ffffff" stroke="transparent" points="-4,4 -4,-136 492,-136 492,4 -4,4"/>
<!-- Node0 -->
<g id="node1" class="node">
<title>Node0</title>
<polygon fill="#bfbfbf" stroke="#000000" points="172.5,-112.5 172.5,-131.5 295.5,-131.5 295.5,-112.5 172.5,-112.5"/>
<text text-anchor="middle" x="234" y="-119.5" font-family="Helvetica,sans-Serif" font-size="10.00" fill="#000000">src/utils/map_to_index.h</text>
</g>
<!-- Node1 -->
<g id="node2" class="node">
<title>Node1</title>
<g id="a_node2"><a xlink:href="std_8h.html" target="_top" xlink:title="This file includes a part of C++ Standard Template Library and defines aliases for them...">
<polygon fill="#ffffff" stroke="#000000" points="162,-56.5 162,-75.5 224,-75.5 224,-56.5 162,-56.5"/>
<text text-anchor="middle" x="193" y="-63.5" font-family="Helvetica,sans-Serif" font-size="10.00" fill="#000000">alias/std.h</text>
</a>
</g>
</g>
<!-- Node0&#45;&gt;Node1 -->
<g id="edge1" class="edge">
<title>Node0&#45;&gt;Node1</title>
<path fill="none" stroke="#191970" d="M226.8583,-112.2455C221.1556,-104.4564 213.01,-93.3308 206.1375,-83.9439"/>
<polygon fill="#191970" stroke="#191970" points="208.7913,-81.6437 200.0598,-75.6427 203.1432,-85.7789 208.7913,-81.6437"/>
</g>
<!-- Node7 -->
<g id="node8" class="node">
<title>Node7</title>
<g id="a_node8"><a xlink:href="json_8h.html" target="_top" xlink:title="This file includes nlohmann/json and defines an alias for a JSON class. ">
<polygon fill="#ffffff" stroke="#000000" points="324,-56.5 324,-75.5 390,-75.5 390,-56.5 324,-56.5"/>
<text text-anchor="middle" x="357" y="-63.5" font-family="Helvetica,sans-Serif" font-size="10.00" fill="#000000">alias/json.h</text>
</a>
</g>
</g>
<!-- Node0&#45;&gt;Node7 -->
<g id="edge7" class="edge">
<title>Node0&#45;&gt;Node7</title>
<path fill="none" stroke="#191970" d="M255.1445,-112.3733C274.8892,-103.3838 304.5698,-89.8706 326.8055,-79.7471"/>
<polygon fill="#191970" stroke="#191970" points="328.4806,-82.8302 336.1315,-75.5011 325.58,-76.4594 328.4806,-82.8302"/>
</g>
<!-- Node2 -->
<g id="node3" class="node">
<title>Node2</title>
<polygon fill="#ffffff" stroke="#bfbfbf" points="0,-.5 0,-19.5 52,-19.5 52,-.5 0,-.5"/>
<text text-anchor="middle" x="26" y="-7.5" font-family="Helvetica,sans-Serif" font-size="10.00" fill="#000000">memory</text>
</g>
<!-- Node1&#45;&gt;Node2 -->
<g id="edge2" class="edge">
<title>Node1&#45;&gt;Node2</title>
<path fill="none" stroke="#191970" d="M164.2917,-56.3733C135.972,-46.8769 92.5976,-32.3321 61.989,-22.0682"/>
<polygon fill="#191970" stroke="#191970" points="62.7321,-18.6259 52.1382,-18.7649 60.5066,-25.2627 62.7321,-18.6259"/>
</g>
<!-- Node3 -->
<g id="node4" class="node">
<title>Node3</title>
<polygon fill="#ffffff" stroke="#bfbfbf" points="70.5,-.5 70.5,-19.5 111.5,-19.5 111.5,-.5 70.5,-.5"/>
<text text-anchor="middle" x="91" y="-7.5" font-family="Helvetica,sans-Serif" font-size="10.00" fill="#000000">string</text>
</g>
<!-- Node1&#45;&gt;Node3 -->
<g id="edge3" class="edge">
<title>Node1&#45;&gt;Node3</title>
<path fill="none" stroke="#191970" d="M175.233,-56.2455C159.2905,-47.4928 135.6741,-34.527 117.5011,-24.5496"/>
<polygon fill="#191970" stroke="#191970" points="119.0137,-21.3873 108.5634,-19.6427 115.6448,-27.5233 119.0137,-21.3873"/>
</g>
<!-- Node4 -->
<g id="node5" class="node">
<title>Node4</title>
<polygon fill="#ffffff" stroke="#bfbfbf" points="130,-.5 130,-19.5 174,-19.5 174,-.5 130,-.5"/>
<text text-anchor="middle" x="152" y="-7.5" font-family="Helvetica,sans-Serif" font-size="10.00" fill="#000000">vector</text>
</g>
<!-- Node1&#45;&gt;Node4 -->
<g id="edge4" class="edge">
<title>Node1&#45;&gt;Node4</title>
<path fill="none" stroke="#191970" d="M185.8583,-56.2455C180.1556,-48.4564 172.01,-37.3308 165.1375,-27.9439"/>
<polygon fill="#191970" stroke="#191970" points="167.7913,-25.6437 159.0598,-19.6427 162.1432,-29.7789 167.7913,-25.6437"/>
</g>
<!-- Node5 -->
<g id="node6" class="node">
<title>Node5</title>
<polygon fill="#ffffff" stroke="#bfbfbf" points="192.5,-.5 192.5,-19.5 275.5,-19.5 275.5,-.5 192.5,-.5"/>
<text text-anchor="middle" x="234" y="-7.5" font-family="Helvetica,sans-Serif" font-size="10.00" fill="#000000">unordered_map</text>
</g>
<!-- Node1&#45;&gt;Node5 -->
<g id="edge5" class="edge">
<title>Node1&#45;&gt;Node5</title>
<path fill="none" stroke="#191970" d="M200.1417,-56.2455C205.8444,-48.4564 213.99,-37.3308 220.8625,-27.9439"/>
<polygon fill="#191970" stroke="#191970" points="223.8568,-29.7789 226.9402,-19.6427 218.2087,-25.6437 223.8568,-29.7789"/>
</g>
<!-- Node6 -->
<g id="node7" class="node">
<title>Node6</title>
<polygon fill="#ffffff" stroke="#bfbfbf" points="294,-.5 294,-19.5 372,-19.5 372,-.5 294,-.5"/>
<text text-anchor="middle" x="333" y="-7.5" font-family="Helvetica,sans-Serif" font-size="10.00" fill="#000000">unordered_set</text>
</g>
<!-- Node1&#45;&gt;Node6 -->
<g id="edge6" class="edge">
<title>Node1&#45;&gt;Node6</title>
<path fill="none" stroke="#191970" d="M217.0669,-56.3733C239.8428,-47.2629 274.2344,-33.5062 299.649,-23.3404"/>
<polygon fill="#191970" stroke="#191970" points="301.2623,-26.4648 309.2472,-19.5011 298.6625,-19.9654 301.2623,-26.4648"/>
</g>
<!-- Node8 -->
<g id="node9" class="node">
<title>Node8</title>
<polygon fill="#ffffff" stroke="#bfbfbf" points="390,-.5 390,-19.5 488,-19.5 488,-.5 390,-.5"/>
<text text-anchor="middle" x="439" y="-7.5" font-family="Helvetica,sans-Serif" font-size="10.00" fill="#000000">nlohmann/json.hpp</text>
</g>
<!-- Node7&#45;&gt;Node8 -->
<g id="edge8" class="edge">
<title>Node7&#45;&gt;Node8</title>
<path fill="none" stroke="#191970" d="M371.2833,-56.2455C383.747,-47.7337 402.0451,-35.2375 416.4792,-25.3801"/>
<polygon fill="#191970" stroke="#191970" points="418.5962,-28.1726 424.8804,-19.6427 414.6485,-22.392 418.5962,-28.1726"/>
</g>
</g>
</svg>
