<?xml version="1.0" encoding="UTF-8" standalone="no"?>
<!DOCTYPE svg PUBLIC "-//W3C//DTD SVG 1.1//EN"
 "http://www.w3.org/Graphics/SVG/1.1/DTD/svg11.dtd">
<!-- Generated by graphviz version 2.40.1 (20161225.0304)
 -->
<!-- Title: pybind::py_element Pages: 1 -->
<!--zoomable 302 -->
<svg id="main" version="1.1" xmlns="http://www.w3.org/2000/svg" xmlns:xlink="http://www.w3.org/1999/xlink" xml:space="preserve" onload="init(evt)">
<style type="text/css"><![CDATA[
.edge:hover path { stroke: red; }
.edge:hover polygon { stroke: red; fill: red; }
]]></style>
<script type="text/javascript"><![CDATA[
var edges = document.getElementsByTagName('g');
if (edges && edges.length) {
  for (var i=0;i<edges.length;i++) {
    if (edges[i].id.substr(0,4)=='edge') {
      edges[i].setAttribute('class','edge');
    }
  }
}
]]></script>
        <defs>
                <circle id="rim" cx="0" cy="0" r="7"/>
                <circle id="rim2" cx="0" cy="0" r="3.5"/>
                <g id="zoomPlus">
                        <use xlink:href="#rim" fill="#404040">
                                <set attributeName="fill" to="#808080" begin="zoomplus.mouseover" end="zoomplus.mouseout"/>
                        </use>
                        <path d="M-4,0h8M0,-4v8" fill="none" stroke="white" stroke-width="1.5" pointer-events="none"/>
                </g>
                <g id="zoomMin">
                        <use xlink:href="#rim" fill="#404040">
                                <set attributeName="fill" to="#808080" begin="zoomminus.mouseover" end="zoomminus.mouseout"/>
                        </use>
                        <path d="M-4,0h8" fill="none" stroke="white" stroke-width="1.5" pointer-events="none"/>
                </g>
                <g id="dirArrow">
                        <path fill="none" stroke="white" stroke-width="1.5" d="M0,-3.0v7 M-2.5,-0.5L0,-3.0L2.5,-0.5"/>
                </g>
               <g id="resetDef">
                       <use xlink:href="#rim2" fill="#404040">
                               <set attributeName="fill" to="#808080" begin="reset.mouseover" end="reset.mouseout"/>
                       </use>
               </g>
        </defs>

<script type="text/javascript">
var viewWidth = 623;
var viewHeight = 302;
var sectionId = 'dynsection-18';
</script>
<script xlink:href="svgpan.js"/>
<svg id="graph" class="graph">
<g id="viewport">
<title>pybind::py_element</title>
<polygon fill="#ffffff" stroke="transparent" points="-4,4 -4,-297.5 619,-297.5 619,4 -4,4"/>
<!-- Node51 -->
<g id="node1" class="node">
<title>Node51</title>
<polygon fill="#bfbfbf" stroke="#000000" points="0,-149.5 0,-168.5 101,-168.5 101,-149.5 0,-149.5"/>
<text text-anchor="middle" x="50.5" y="-156.5" font-family="Helvetica,sans-Serif" font-size="10.00" fill="#000000">pybind::py_element</text>
</g>
<!-- Node52 -->
<g id="node2" class="node">
<title>Node52</title>
<g id="a_node2"><a xlink:href="classElement.html#adc43106f0ea5e11d03105c40df1fe0a8" target="_top" xlink:title="Append an Updater object to this Element object: the only way to extend an updating process associate...">
<polygon fill="#ffffff" stroke="#000000" points="137,-266.5 137,-285.5 265,-285.5 265,-266.5 137,-266.5"/>
<text text-anchor="middle" x="201" y="-273.5" font-family="Helvetica,sans-Serif" font-size="10.00" fill="#000000">Element::append_updater</text>
</a>
</g>
</g>
<!-- Node51&#45;&gt;Node52 -->
<g id="edge1" class="edge">
<title>Node51&#45;&gt;Node52</title>
<path fill="none" stroke="#191970" d="M56.7028,-168.5408C69.4914,-187.4913 100.6565,-230.1033 137,-254 142.0313,-257.3082 147.6131,-260.1736 153.3234,-262.6408"/>
<polygon fill="#191970" stroke="#191970" points="152.3925,-266.0351 162.9801,-266.425 154.9465,-259.5176 152.3925,-266.0351"/>
</g>
<!-- Node54 -->
<g id="node4" class="node">
<title>Node54</title>
<g id="a_node4"><a xlink:href="classElement.html#a62989090a40d237e617bc6e5f5087388" target="_top" xlink:title="Get a reference to data of this object. ">
<polygon fill="#ffffff" stroke="#000000" points="145,-187.5 145,-206.5 257,-206.5 257,-187.5 145,-187.5"/>
<text text-anchor="middle" x="201" y="-194.5" font-family="Helvetica,sans-Serif" font-size="10.00" fill="#000000">Element::get_data_py</text>
</a>
</g>
</g>
<!-- Node51&#45;&gt;Node54 -->
<g id="edge3" class="edge">
<title>Node51&#45;&gt;Node54</title>
<path fill="none" stroke="#191970" d="M88.4775,-168.589C108.1587,-173.5583 132.3907,-179.6767 153.3206,-184.9613"/>
<polygon fill="#191970" stroke="#191970" points="152.743,-188.4253 163.2956,-187.4799 154.4567,-181.6383 152.743,-188.4253"/>
</g>
<!-- Node59 -->
<g id="node9" class="node">
<title>Node59</title>
<g id="a_node9"><a xlink:href="classElement.html#afa6debec21fb714908f8c44a7cea0a49" target="_top" xlink:title="Get keys of the data of this object. ">
<polygon fill="#ffffff" stroke="#000000" points="144,-225.5 144,-244.5 258,-244.5 258,-225.5 144,-225.5"/>
<text text-anchor="middle" x="201" y="-232.5" font-family="Helvetica,sans-Serif" font-size="10.00" fill="#000000">Element::get_keys_py</text>
</a>
</g>
</g>
<!-- Node51&#45;&gt;Node59 -->
<g id="edge8" class="edge">
<title>Node51&#45;&gt;Node59</title>
<path fill="none" stroke="#191970" d="M62.4295,-168.5195C78.5219,-180.9596 108.4661,-202.7192 137,-216 141.9256,-218.2926 147.1932,-220.3826 152.5123,-222.2674"/>
<polygon fill="#191970" stroke="#191970" points="151.4864,-225.6145 162.0798,-225.4378 153.6883,-218.9699 151.4864,-225.6145"/>
</g>
<!-- Node61 -->
<g id="node11" class="node">
<title>Node61</title>
<g id="a_node11"><a xlink:href="classElement.html#a8257b02b1e3b208f193b35d5d47b9af8" target="_top" xlink:title="Get integer values stored in Element::data of this object as a one&#45;dimensional Numpy&#45;Array. ">
<polygon fill="#ffffff" stroke="#000000" points="141.5,-149.5 141.5,-168.5 260.5,-168.5 260.5,-149.5 141.5,-149.5"/>
<text text-anchor="middle" x="201" y="-156.5" font-family="Helvetica,sans-Serif" font-size="10.00" fill="#000000">Element::get_1d_int_py</text>
</a>
</g>
</g>
<!-- Node51&#45;&gt;Node61 -->
<g id="edge11" class="edge">
<title>Node51&#45;&gt;Node61</title>
<path fill="none" stroke="#191970" d="M101.033,-159C110.7679,-159 121.1237,-159 131.3413,-159"/>
<polygon fill="#191970" stroke="#191970" points="131.4847,-162.5001 141.4846,-159 131.4846,-155.5001 131.4847,-162.5001"/>
</g>
<!-- Node65 -->
<g id="node15" class="node">
<title>Node65</title>
<g id="a_node15"><a xlink:href="classElement.html#a3f11848589faad4cbca8119385887713" target="_top" xlink:title="Get float values stored in Element::data of this object as a one&#45;dimensional Numpy&#45;Array. ">
<polygon fill="#ffffff" stroke="#000000" points="137,-111.5 137,-130.5 265,-130.5 265,-111.5 137,-111.5"/>
<text text-anchor="middle" x="201" y="-118.5" font-family="Helvetica,sans-Serif" font-size="10.00" fill="#000000">Element::get_1d_float_py</text>
</a>
</g>
</g>
<!-- Node51&#45;&gt;Node65 -->
<g id="edge17" class="edge">
<title>Node51&#45;&gt;Node65</title>
<path fill="none" stroke="#191970" d="M88.4775,-149.411C108.1587,-144.4417 132.3907,-138.3233 153.3206,-133.0387"/>
<polygon fill="#191970" stroke="#191970" points="154.4567,-136.3617 163.2956,-130.5201 152.743,-129.5747 154.4567,-136.3617"/>
</g>
<!-- Node66 -->
<g id="node16" class="node">
<title>Node66</title>
<g id="a_node16"><a xlink:href="classElement.html#a8e8245fb94b6417e3e804e6bfdf2f906" target="_top" xlink:title="Get integer values stored in Element::data of this object as a two&#45;dimensional Numpy&#45;Array. ">
<polygon fill="#ffffff" stroke="#000000" points="141.5,-35.5 141.5,-54.5 260.5,-54.5 260.5,-35.5 141.5,-35.5"/>
<text text-anchor="middle" x="201" y="-42.5" font-family="Helvetica,sans-Serif" font-size="10.00" fill="#000000">Element::get_2d_int_py</text>
</a>
</g>
</g>
<!-- Node51&#45;&gt;Node66 -->
<g id="edge21" class="edge">
<title>Node51&#45;&gt;Node66</title>
<path fill="none" stroke="#191970" d="M56.6177,-149.3268C69.2533,-130.1381 100.1568,-87.1189 137,-64 140.3288,-61.9112 143.8985,-60.0424 147.5869,-58.372"/>
<polygon fill="#191970" stroke="#191970" points="148.9573,-61.5934 156.9302,-54.6161 146.3464,-55.0985 148.9573,-61.5934"/>
</g>
<!-- Node70 -->
<g id="node20" class="node">
<title>Node70</title>
<g id="a_node20"><a xlink:href="classElement.html#a6a62280eadd3d4e6bfe8c43082797733" target="_top" xlink:title="Get float values stored in Element::data of this object as a two&#45;dimensional Numpy&#45;Array. ">
<polygon fill="#ffffff" stroke="#000000" points="137,-73.5 137,-92.5 265,-92.5 265,-73.5 137,-73.5"/>
<text text-anchor="middle" x="201" y="-80.5" font-family="Helvetica,sans-Serif" font-size="10.00" fill="#000000">Element::get_2d_float_py</text>
</a>
</g>
</g>
<!-- Node51&#45;&gt;Node70 -->
<g id="edge27" class="edge">
<title>Node51&#45;&gt;Node70</title>
<path fill="none" stroke="#191970" d="M62.4295,-149.4805C78.5219,-137.0404 108.4661,-115.2808 137,-102 141.9256,-99.7074 147.1932,-97.6174 152.5123,-95.7326"/>
<polygon fill="#191970" stroke="#191970" points="153.6883,-99.0301 162.0798,-92.5622 151.4864,-92.3855 153.6883,-99.0301"/>
</g>
<!-- Node53 -->
<g id="node3" class="node">
<title>Node53</title>
<g id="a_node3"><a xlink:href="classGenerator.html#a540c397ab90d552e413ddfa4bf5e51cc" target="_top" xlink:title="Generator::merge_update\l_chain">
<polygon fill="#ffffff" stroke="#000000" points="313,-263 313,-293 440,-293 440,-263 313,-263"/>
<text text-anchor="start" x="321" y="-281" font-family="Helvetica,sans-Serif" font-size="10.00" fill="#000000">Generator::merge_update</text>
<text text-anchor="middle" x="376.5" y="-270" font-family="Helvetica,sans-Serif" font-size="10.00" fill="#000000">_chain</text>
</a>
</g>
</g>
<!-- Node52&#45;&gt;Node53 -->
<g id="edge2" class="edge">
<title>Node52&#45;&gt;Node53</title>
<path fill="none" stroke="#191970" d="M265.3532,-276.7334C277.4287,-276.871 290.142,-277.0159 302.4836,-277.1565"/>
<polygon fill="#191970" stroke="#191970" points="302.7018,-280.6591 312.741,-277.2734 302.7816,-273.6596 302.7018,-280.6591"/>
</g>
<!-- Node55 -->
<g id="node5" class="node">
<title>Node55</title>
<g id="a_node5"><a xlink:href="classElement.html#a1fdb9455f49d2c66a0276925f7246cad" target="_top" xlink:title="Element::init_for_python">
<polygon fill="#ffffff" stroke="#000000" points="315.5,-176.5 315.5,-195.5 437.5,-195.5 437.5,-176.5 315.5,-176.5"/>
<text text-anchor="middle" x="376.5" y="-183.5" font-family="Helvetica,sans-Serif" font-size="10.00" fill="#000000">Element::init_for_python</text>
</a>
</g>
</g>
<!-- Node54&#45;&gt;Node55 -->
<g id="edge4" class="edge">
<title>Node54&#45;&gt;Node55</title>
<path fill="none" stroke="#191970" d="M257.0118,-193.4893C272.2354,-192.5351 288.9319,-191.4886 304.8908,-190.4883"/>
<polygon fill="#191970" stroke="#191970" points="305.4871,-193.9579 315.2486,-189.8391 305.0492,-186.9716 305.4871,-193.9579"/>
</g>
<!-- Node56 -->
<g id="node6" class="node">
<title>Node56</title>
<g id="a_node6"><a xlink:href="classGenerator.html#aa1831dae656216a78776430018cfd453" target="_top" xlink:title="Hello to this Generator object. ">
<polygon fill="#ffffff" stroke="#000000" points="488,-173.5 488,-192.5 615,-192.5 615,-173.5 488,-173.5"/>
<text text-anchor="middle" x="551.5" y="-180.5" font-family="Helvetica,sans-Serif" font-size="10.00" fill="#000000">Generator::generate_data</text>
</a>
</g>
</g>
<!-- Node55&#45;&gt;Node56 -->
<g id="edge5" class="edge">
<title>Node55&#45;&gt;Node56</title>
<path fill="none" stroke="#191970" d="M437.7065,-184.9507C450.6662,-184.7286 464.4742,-184.4919 477.8402,-184.2627"/>
<polygon fill="#191970" stroke="#191970" points="478.0151,-187.7604 487.9536,-184.0894 477.8951,-180.7614 478.0151,-187.7604"/>
</g>
<!-- Node57 -->
<g id="node7" class="node">
<title>Node57</title>
<g id="a_node7"><a xlink:href="namespaceutils.html#acee57b54806ee63ddaa30518fed90adb" target="_top" xlink:title="Raise (for Python) and throw (for C++) a runtime error. ">
<polygon fill="#ffffff" stroke="#000000" points="502.5,-132.5 502.5,-151.5 600.5,-151.5 600.5,-132.5 502.5,-132.5"/>
<text text-anchor="middle" x="551.5" y="-139.5" font-family="Helvetica,sans-Serif" font-size="10.00" fill="#000000">utils::runtime_error</text>
</a>
</g>
</g>
<!-- Node55&#45;&gt;Node57 -->
<g id="edge6" class="edge">
<title>Node55&#45;&gt;Node57</title>
<path fill="none" stroke="#191970" d="M414.4724,-176.4527C440.6152,-169.8796 475.5531,-161.0952 503.6067,-154.0417"/>
<polygon fill="#191970" stroke="#191970" points="504.757,-157.3615 513.6017,-151.5287 503.0501,-150.5728 504.757,-157.3615"/>
</g>
<!-- Node58 -->
<g id="node8" class="node">
<title>Node58</title>
<g id="a_node8"><a xlink:href="namespaceutils.html#a26267fe7371b6215c5d61374d716527b" target="_top" xlink:title="Logging a message. ">
<polygon fill="#ffffff" stroke="#000000" points="525,-211.5 525,-230.5 578,-230.5 578,-211.5 525,-211.5"/>
<text text-anchor="middle" x="551.5" y="-218.5" font-family="Helvetica,sans-Serif" font-size="10.00" fill="#000000">utils::log</text>
</a>
</g>
</g>
<!-- Node55&#45;&gt;Node58 -->
<g id="edge7" class="edge">
<title>Node55&#45;&gt;Node58</title>
<path fill="none" stroke="#191970" d="M424.3195,-195.5639C452.9084,-201.2817 488.6675,-208.4335 514.9807,-213.6961"/>
<polygon fill="#191970" stroke="#191970" points="514.429,-217.155 524.9213,-215.6843 515.8019,-210.291 514.429,-217.155"/>
</g>
<!-- Node59&#45;&gt;Node55 -->
<g id="edge9" class="edge">
<title>Node59&#45;&gt;Node55</title>
<path fill="none" stroke="#191970" d="M235.2548,-225.436C263.0376,-217.6789 302.3899,-206.6917 332.5034,-198.2839"/>
<polygon fill="#191970" stroke="#191970" points="333.6412,-201.6002 342.3316,-195.5399 331.7587,-194.8581 333.6412,-201.6002"/>
</g>
<!-- Node60 -->
<g id="node10" class="node">
<title>Node60</title>
<g id="a_node10"><a xlink:href="classElement.html#a5dfb31b61142eff280750d3dd0cffc6a" target="_top" xlink:title="Get keys of the data of this object. ">
<polygon fill="#ffffff" stroke="#000000" points="327.5,-224.5 327.5,-243.5 425.5,-243.5 425.5,-224.5 327.5,-224.5"/>
<text text-anchor="middle" x="376.5" y="-231.5" font-family="Helvetica,sans-Serif" font-size="10.00" fill="#000000">Element::get_keys</text>
</a>
</g>
</g>
<!-- Node59&#45;&gt;Node60 -->
<g id="edge10" class="edge">
<title>Node59&#45;&gt;Node60</title>
<path fill="none" stroke="#191970" d="M258.4653,-234.6726C277.3618,-234.5649 298.394,-234.445 317.4092,-234.3367"/>
<polygon fill="#191970" stroke="#191970" points="317.4623,-237.8366 327.4421,-234.2795 317.4223,-230.8367 317.4623,-237.8366"/>
</g>
<!-- Node61&#45;&gt;Node55 -->
<g id="edge12" class="edge">
<title>Node61&#45;&gt;Node55</title>
<path fill="none" stroke="#191970" d="M260.9063,-168.2164C275.1867,-170.4133 290.5647,-172.7792 305.297,-175.0457"/>
<polygon fill="#191970" stroke="#191970" points="304.9558,-178.5343 315.3717,-176.5956 306.0202,-171.6157 304.9558,-178.5343"/>
</g>
<!-- Node62 -->
<g id="node12" class="node">
<title>Node62</title>
<g id="a_node12"><a xlink:href="classElement.html#a343252084136e932e8830ec359d49558" target="_top" xlink:title="Check if this object has required key(s). ">
<polygon fill="#ffffff" stroke="#000000" points="301,-88.5 301,-107.5 452,-107.5 452,-88.5 301,-88.5"/>
<text text-anchor="middle" x="376.5" y="-95.5" font-family="Helvetica,sans-Serif" font-size="10.00" fill="#000000">Element::check_required_keys</text>
</a>
</g>
</g>
<!-- Node61&#45;&gt;Node62 -->
<g id="edge13" class="edge">
<title>Node61&#45;&gt;Node62</title>
<path fill="none" stroke="#191970" d="M239.544,-149.4585C248.0923,-146.8222 256.9879,-143.6605 265,-140 282.2696,-132.1099 283.5683,-124.5252 301,-117 306.7006,-114.5391 312.7863,-112.3496 318.9356,-110.4133"/>
<polygon fill="#191970" stroke="#191970" points="319.9945,-113.7502 328.6046,-107.5764 318.0237,-107.0333 319.9945,-113.7502"/>
</g>
<!-- Node64 -->
<g id="node14" class="node">
<title>Node64</title>
<g id="a_node14"><a xlink:href="classElement.html#a4a44f5bd3a5bcfabbfaf9f73578da0ef" target="_top" xlink:title="Extract values of a property in data as a one&#45;dimensional Eigen&#45;Array. ">
<polygon fill="#ffffff" stroke="#000000" points="316.5,-127 316.5,-157 436.5,-157 436.5,-127 316.5,-127"/>
<text text-anchor="start" x="324.5" y="-145" font-family="Helvetica,sans-Serif" font-size="10.00" fill="#000000">Element::make_1darray</text>
<text text-anchor="middle" x="376.5" y="-134" font-family="Helvetica,sans-Serif" font-size="10.00" fill="#000000">_from_data</text>
</a>
</g>
</g>
<!-- Node61&#45;&gt;Node64 -->
<g id="edge16" class="edge">
<title>Node61&#45;&gt;Node64</title>
<path fill="none" stroke="#191970" d="M260.9063,-153.1971C275.4287,-151.7904 291.0863,-150.2737 306.0455,-148.8246"/>
<polygon fill="#191970" stroke="#191970" points="306.6519,-152.2824 316.2678,-147.8345 305.977,-145.315 306.6519,-152.2824"/>
</g>
<!-- Node62&#45;&gt;Node57 -->
<g id="edge15" class="edge">
<title>Node62&#45;&gt;Node57</title>
<path fill="none" stroke="#191970" d="M414.4724,-107.5473C440.6152,-114.1204 475.5531,-122.9048 503.6067,-129.9583"/>
<polygon fill="#191970" stroke="#191970" points="503.0501,-133.4272 513.6017,-132.4713 504.757,-126.6385 503.0501,-133.4272"/>
</g>
<!-- Node63 -->
<g id="node13" class="node">
<title>Node63</title>
<g id="a_node13"><a xlink:href="namespaceutils.html#a5e5339e32b770a14691521435849c949" target="_top" xlink:title="Mimicking Python&#39;s join. ">
<polygon fill="#ffffff" stroke="#000000" points="523.5,-88.5 523.5,-107.5 579.5,-107.5 579.5,-88.5 523.5,-88.5"/>
<text text-anchor="middle" x="551.5" y="-95.5" font-family="Helvetica,sans-Serif" font-size="10.00" fill="#000000">utils::join</text>
</a>
</g>
</g>
<!-- Node62&#45;&gt;Node63 -->
<g id="edge14" class="edge">
<title>Node62&#45;&gt;Node63</title>
<path fill="none" stroke="#191970" d="M452.2397,-98C473.2434,-98 495.1678,-98 513.0529,-98"/>
<polygon fill="#191970" stroke="#191970" points="513.0791,-101.5001 523.0791,-98 513.0791,-94.5001 513.0791,-101.5001"/>
</g>
<!-- Node65&#45;&gt;Node55 -->
<g id="edge18" class="edge">
<title>Node65&#45;&gt;Node55</title>
<path fill="none" stroke="#191970" d="M240.7162,-130.5223C248.9409,-133.1169 257.4074,-136.2662 265,-140 282.7109,-148.7095 283.162,-157.5538 301,-166 307.0109,-168.8461 313.4898,-171.3358 320.0369,-173.5011"/>
<polygon fill="#191970" stroke="#191970" points="319.0444,-176.8576 329.6313,-176.4453 321.098,-170.1656 319.0444,-176.8576"/>
</g>
<!-- Node65&#45;&gt;Node62 -->
<g id="edge19" class="edge">
<title>Node65&#45;&gt;Node62</title>
<path fill="none" stroke="#191970" d="M265.3532,-112.5662C274.6468,-111.3483 284.3181,-110.0808 293.907,-108.8241"/>
<polygon fill="#191970" stroke="#191970" points="294.3902,-112.2908 303.8506,-107.521 293.4805,-105.3502 294.3902,-112.2908"/>
</g>
<!-- Node65&#45;&gt;Node64 -->
<g id="edge20" class="edge">
<title>Node65&#45;&gt;Node64</title>
<path fill="none" stroke="#191970" d="M265.3532,-128.7004C278.6057,-130.2862 292.6264,-131.9638 306.0809,-133.5738"/>
<polygon fill="#191970" stroke="#191970" points="305.8921,-137.0761 316.2372,-134.7891 306.7239,-130.1257 305.8921,-137.0761"/>
</g>
<!-- Node66&#45;&gt;Node55 -->
<g id="edge22" class="edge">
<title>Node66&#45;&gt;Node55</title>
<path fill="none" stroke="#191970" d="M250.7892,-54.5034C255.9983,-56.9762 260.8836,-60.0872 265,-64 299.8443,-97.1208 265.6688,-133.3991 301,-166 303.1955,-168.0259 305.5723,-169.8512 308.083,-171.4954"/>
<polygon fill="#191970" stroke="#191970" points="306.6138,-174.6814 317.0656,-176.4166 309.9772,-168.5423 306.6138,-174.6814"/>
</g>
<!-- Node66&#45;&gt;Node62 -->
<g id="edge24" class="edge">
<title>Node66&#45;&gt;Node62</title>
<path fill="none" stroke="#191970" d="M235.0439,-54.5413C244.7718,-57.4202 255.3499,-60.6974 265,-64 281.2424,-69.5587 284.677,-72.6826 301,-78 309.4307,-80.7464 318.4805,-83.3947 327.2831,-85.8158"/>
<polygon fill="#191970" stroke="#191970" points="326.5045,-89.2307 337.0702,-88.4459 328.3212,-82.4705 326.5045,-89.2307"/>
</g>
<!-- Node67 -->
<g id="node17" class="node">
<title>Node67</title>
<g id="a_node17"><a xlink:href="namespaceutils.html#a9fdbb91c9e48ca033fca642b6e73d850" target="_top" xlink:title="Convert a py::args (a variable number arguments) object to a Vec object. ">
<polygon fill="#ffffff" stroke="#000000" points="324.5,-.5 324.5,-19.5 428.5,-19.5 428.5,-.5 324.5,-.5"/>
<text text-anchor="middle" x="376.5" y="-7.5" font-family="Helvetica,sans-Serif" font-size="10.00" fill="#000000">utils::pyargs_to_vec</text>
</a>
</g>
</g>
<!-- Node66&#45;&gt;Node67 -->
<g id="edge23" class="edge">
<title>Node66&#45;&gt;Node67</title>
<path fill="none" stroke="#191970" d="M248.9561,-35.4361C270.5273,-31.1342 296.1688,-26.0205 318.7838,-21.5103"/>
<polygon fill="#191970" stroke="#191970" points="319.4795,-24.9406 328.6018,-19.5523 318.1104,-18.0758 319.4795,-24.9406"/>
</g>
<!-- Node68 -->
<g id="node18" class="node">
<title>Node68</title>
<g id="a_node18"><a xlink:href="classElement.html#afaa377d93eafff59a2c1f2b6ff3d0a5b" target="_top" xlink:title="Extract values of properties in data as a two&#45;dimensional Eigen&#45;Array. ">
<polygon fill="#ffffff" stroke="#000000" points="316.5,-39 316.5,-69 436.5,-69 436.5,-39 316.5,-39"/>
<text text-anchor="start" x="324.5" y="-57" font-family="Helvetica,sans-Serif" font-size="10.00" fill="#000000">Element::make_2darray</text>
<text text-anchor="middle" x="376.5" y="-46" font-family="Helvetica,sans-Serif" font-size="10.00" fill="#000000">_from_data</text>
</a>
</g>
</g>
<!-- Node66&#45;&gt;Node68 -->
<g id="edge25" class="edge">
<title>Node66&#45;&gt;Node68</title>
<path fill="none" stroke="#191970" d="M260.9063,-48.0721C275.4287,-48.8169 291.0863,-49.6198 306.0455,-50.387"/>
<polygon fill="#191970" stroke="#191970" points="306.1017,-53.8943 316.2678,-50.9112 306.4603,-46.9035 306.1017,-53.8943"/>
</g>
<!-- Node69 -->
<g id="node19" class="node">
<title>Node69</title>
<g id="a_node19"><a xlink:href="classElement.html#a0caa9de9d810087b181300324307f9f1" target="_top" xlink:title="To speed up accessing values in Json. ">
<polygon fill="#ffffff" stroke="#000000" points="492,-39 492,-69 611,-69 611,-39 492,-39"/>
<text text-anchor="start" x="500" y="-57" font-family="Helvetica,sans-Serif" font-size="10.00" fill="#000000">Element::get_distances</text>
<text text-anchor="middle" x="551.5" y="-46" font-family="Helvetica,sans-Serif" font-size="10.00" fill="#000000">_between_keys</text>
</a>
</g>
</g>
<!-- Node68&#45;&gt;Node69 -->
<g id="edge26" class="edge">
<title>Node68&#45;&gt;Node69</title>
<path fill="none" stroke="#191970" d="M436.7251,-54C451.1848,-54 466.7486,-54 481.606,-54"/>
<polygon fill="#191970" stroke="#191970" points="481.7568,-57.5001 491.7567,-54 481.7567,-50.5001 481.7568,-57.5001"/>
</g>
<!-- Node70&#45;&gt;Node55 -->
<g id="edge28" class="edge">
<title>Node70&#45;&gt;Node55</title>
<path fill="none" stroke="#191970" d="M248.5205,-92.5288C254.4319,-94.994 260.1078,-98.0962 265,-102 290.5095,-122.3556 275.1917,-146.0246 301,-166 303.9622,-168.2928 307.1643,-170.3236 310.52,-172.1223"/>
<polygon fill="#191970" stroke="#191970" points="309.1561,-175.3476 319.7022,-176.362 312.0905,-168.9923 309.1561,-175.3476"/>
</g>
<!-- Node70&#45;&gt;Node62 -->
<g id="edge30" class="edge">
<title>Node70&#45;&gt;Node62</title>
<path fill="none" stroke="#191970" d="M265.3532,-88.5003C273.6502,-89.2094 282.2482,-89.9443 290.8199,-90.6769"/>
<polygon fill="#191970" stroke="#191970" points="290.5888,-94.1698 300.8506,-91.5342 291.185,-87.1953 290.5888,-94.1698"/>
</g>
<!-- Node70&#45;&gt;Node67 -->
<g id="edge29" class="edge">
<title>Node70&#45;&gt;Node67</title>
<path fill="none" stroke="#191970" d="M243.8619,-73.4123C251.1742,-70.9075 258.4996,-67.8083 265,-64 284.2544,-52.7198 281.5127,-39.8729 301,-29 305.275,-26.6147 309.8517,-24.5241 314.559,-22.6925"/>
<polygon fill="#191970" stroke="#191970" points="316.056,-25.8775 324.3501,-19.2851 313.7553,-19.2663 316.056,-25.8775"/>
</g>
<!-- Node70&#45;&gt;Node68 -->
<g id="edge31" class="edge">
<title>Node70&#45;&gt;Node68</title>
<path fill="none" stroke="#191970" d="M258.9516,-73.4239C274.0216,-70.9338 290.4221,-68.2237 306.0589,-65.6398"/>
<polygon fill="#191970" stroke="#191970" points="306.9071,-69.0472 316.2026,-63.9637 305.7658,-62.1409 306.9071,-69.0472"/>
</g>
</g>
</svg>
        <g id="navigator" transform="translate(0 0)" fill="#404254">
                <rect fill="#f2f5e9" fill-opacity="0.5" stroke="#606060" stroke-width=".5" x="0" y="0" width="60" height="60"/>
                <use id="zoomplus" xlink:href="#zoomPlus" x="17" y="9" onmousedown="handleZoom(evt,'in')"/>
                <use id="zoomminus" xlink:href="#zoomMin" x="42" y="9" onmousedown="handleZoom(evt,'out')"/>
                <use id="reset" xlink:href="#resetDef" x="30" y="36" onmousedown="handleReset()"/>
                <g id="arrowUp" xlink:href="#dirArrow" transform="translate(30 24)" onmousedown="handlePan(0,-1)">
                  <use xlink:href="#rim" fill="#404040">
                        <set attributeName="fill" to="#808080" begin="arrowUp.mouseover" end="arrowUp.mouseout"/>
                  </use>
                  <path fill="none" stroke="white" stroke-width="1.5" d="M0,-3.0v7 M-2.5,-0.5L0,-3.0L2.5,-0.5"/>
                </g>
                <g id="arrowRight" xlink:href="#dirArrow" transform="rotate(90) translate(36 -43)" onmousedown="handlePan(1,0)">
                  <use xlink:href="#rim" fill="#404040">
                        <set attributeName="fill" to="#808080" begin="arrowRight.mouseover" end="arrowRight.mouseout"/>
                  </use>
                  <path fill="none" stroke="white" stroke-width="1.5" d="M0,-3.0v7 M-2.5,-0.5L0,-3.0L2.5,-0.5"/>
                </g>
                <g id="arrowDown" xlink:href="#dirArrow" transform="rotate(180) translate(-30 -48)" onmousedown="handlePan(0,1)">
                  <use xlink:href="#rim" fill="#404040">
                        <set attributeName="fill" to="#808080" begin="arrowDown.mouseover" end="arrowDown.mouseout"/>
                  </use>
                  <path fill="none" stroke="white" stroke-width="1.5" d="M0,-3.0v7 M-2.5,-0.5L0,-3.0L2.5,-0.5"/>
                </g>
                <g id="arrowLeft" xlink:href="#dirArrow" transform="rotate(270) translate(-36 17)" onmousedown="handlePan(-1,0)">
                  <use xlink:href="#rim" fill="#404040">
                        <set attributeName="fill" to="#808080" begin="arrowLeft.mouseover" end="arrowLeft.mouseout"/>
                  </use>
                  <path fill="none" stroke="white" stroke-width="1.5" d="M0,-3.0v7 M-2.5,-0.5L0,-3.0L2.5,-0.5"/>
                </g>
        </g>
        <svg viewBox="0 0 15 15" width="100%" height="30px" preserveAspectRatio="xMaxYMin meet">
         <g id="arrow_out" transform="scale(0.3 0.3)">
          <a xlink:href="namespacepybind_aa960fe0db10e19d7b7b60784a7e81be0_cgraph_org.svg" target="_base">
           <rect id="button" ry="5" rx="5" y="6" x="6" height="38" width="38"
                fill="#f2f5e9" fill-opacity="0.5" stroke="#606060" stroke-width="1.0"/>
           <path id="arrow"
             d="M 11.500037,31.436501 C 11.940474,20.09759 22.043105,11.32322 32.158766,21.979434 L 37.068811,17.246167 C 37.068811,17.246167 37.088388,32 37.088388,32 L 22.160133,31.978069 C 22.160133,31.978069 26.997745,27.140456 26.997745,27.140456 C 18.528582,18.264221 13.291696,25.230495 11.500037,31.436501 z"
             style="fill:#404040;"/>
          </a>
         </g>
        </svg>
</svg>
