<?xml version="1.0" encoding="UTF-8" standalone="no"?>
<!DOCTYPE svg PUBLIC "-//W3C//DTD SVG 1.1//EN"
 "http://www.w3.org/Graphics/SVG/1.1/DTD/svg11.dtd">
<!-- Generated by graphviz version 2.40.1 (20161225.0304)
 -->
<!-- Title: utils::join Pages: 1 -->
<svg width="698pt" height="142pt"
 viewBox="0.00 0.00 698.00 142.00" xmlns="http://www.w3.org/2000/svg" xmlns:xlink="http://www.w3.org/1999/xlink">
<g id="graph0" class="graph" transform="scale(1 1) rotate(0) translate(4 138)">
<title>utils::join</title>
<polygon fill="#ffffff" stroke="transparent" points="-4,4 -4,-138 694,-138 694,4 -4,4"/>
<!-- Node7 -->
<g id="node1" class="node">
<title>Node7</title>
<polygon fill="#bfbfbf" stroke="#000000" points="0,-57.5 0,-76.5 56,-76.5 56,-57.5 0,-57.5"/>
<text text-anchor="middle" x="28" y="-64.5" font-family="Helvetica,sans-Serif" font-size="10.00" fill="#000000">utils::join</text>
</g>
<!-- Node8 -->
<g id="node2" class="node">
<title>Node8</title>
<g id="a_node2"><a xlink:href="classElement.html#a343252084136e932e8830ec359d49558" target="_top" xlink:title="Check if this object has required key(s). ">
<polygon fill="#ffffff" stroke="#000000" points="92,-57.5 92,-76.5 243,-76.5 243,-57.5 92,-57.5"/>
<text text-anchor="middle" x="167.5" y="-64.5" font-family="Helvetica,sans-Serif" font-size="10.00" fill="#000000">Element::check_required_keys</text>
</a>
</g>
</g>
<!-- Node7&#45;&gt;Node8 -->
<g id="edge1" class="edge">
<title>Node7&#45;&gt;Node8</title>
<path fill="none" stroke="#191970" d="M66.3379,-67C74.3717,-67 83.1084,-67 91.9704,-67"/>
<polygon fill="#191970" stroke="#191970" points="66.2299,-63.5001 56.2299,-67 66.2299,-70.5001 66.2299,-63.5001"/>
</g>
<!-- Node9 -->
<g id="node3" class="node">
<title>Node9</title>
<g id="a_node3"><a xlink:href="classElement.html#a8257b02b1e3b208f193b35d5d47b9af8" target="_top" xlink:title="Get integer values stored in Element::data of this object as a one&#45;dimensional Numpy&#45;Array. ">
<polygon fill="#ffffff" stroke="#000000" points="283.5,-114.5 283.5,-133.5 402.5,-133.5 402.5,-114.5 283.5,-114.5"/>
<text text-anchor="middle" x="343" y="-121.5" font-family="Helvetica,sans-Serif" font-size="10.00" fill="#000000">Element::get_1d_int_py</text>
</a>
</g>
</g>
<!-- Node8&#45;&gt;Node9 -->
<g id="edge2" class="edge">
<title>Node8&#45;&gt;Node9</title>
<path fill="none" stroke="#191970" d="M203.9316,-79.8257C225.6561,-87.3713 253.8228,-96.976 279,-105 289.0493,-108.2027 300.041,-111.5293 310.0355,-114.487"/>
<polygon fill="#191970" stroke="#191970" points="205.0321,-76.5028 194.4373,-76.5168 202.7284,-83.1129 205.0321,-76.5028"/>
</g>
<!-- Node12 -->
<g id="node6" class="node">
<title>Node12</title>
<g id="a_node6"><a xlink:href="classElement.html#a3f11848589faad4cbca8119385887713" target="_top" xlink:title="Get float values stored in Element::data of this object as a one&#45;dimensional Numpy&#45;Array. ">
<polygon fill="#ffffff" stroke="#000000" points="279,-76.5 279,-95.5 407,-95.5 407,-76.5 279,-76.5"/>
<text text-anchor="middle" x="343" y="-83.5" font-family="Helvetica,sans-Serif" font-size="10.00" fill="#000000">Element::get_1d_float_py</text>
</a>
</g>
</g>
<!-- Node8&#45;&gt;Node12 -->
<g id="edge5" class="edge">
<title>Node8&#45;&gt;Node12</title>
<path fill="none" stroke="#191970" d="M253.2718,-76.2858C261.8774,-77.2175 270.5083,-78.1519 278.8334,-79.0532"/>
<polygon fill="#191970" stroke="#191970" points="253.5198,-72.7923 243.2012,-75.1956 252.7663,-79.7517 253.5198,-72.7923"/>
</g>
<!-- Node13 -->
<g id="node7" class="node">
<title>Node13</title>
<g id="a_node7"><a xlink:href="classElement.html#a8e8245fb94b6417e3e804e6bfdf2f906" target="_top" xlink:title="Get integer values stored in Element::data of this object as a two&#45;dimensional Numpy&#45;Array. ">
<polygon fill="#ffffff" stroke="#000000" points="283.5,-38.5 283.5,-57.5 402.5,-57.5 402.5,-38.5 283.5,-38.5"/>
<text text-anchor="middle" x="343" y="-45.5" font-family="Helvetica,sans-Serif" font-size="10.00" fill="#000000">Element::get_2d_int_py</text>
</a>
</g>
</g>
<!-- Node8&#45;&gt;Node13 -->
<g id="edge7" class="edge">
<title>Node8&#45;&gt;Node13</title>
<path fill="none" stroke="#191970" d="M253.342,-57.7066C263.5145,-56.6053 273.7212,-55.5003 283.4149,-54.4508"/>
<polygon fill="#191970" stroke="#191970" points="252.7663,-54.2483 243.2012,-58.8044 253.5198,-61.2077 252.7663,-54.2483"/>
</g>
<!-- Node14 -->
<g id="node8" class="node">
<title>Node14</title>
<g id="a_node8"><a xlink:href="classElement.html#a6a62280eadd3d4e6bfe8c43082797733" target="_top" xlink:title="Get float values stored in Element::data of this object as a two&#45;dimensional Numpy&#45;Array. ">
<polygon fill="#ffffff" stroke="#000000" points="279,-.5 279,-19.5 407,-19.5 407,-.5 279,-.5"/>
<text text-anchor="middle" x="343" y="-7.5" font-family="Helvetica,sans-Serif" font-size="10.00" fill="#000000">Element::get_2d_float_py</text>
</a>
</g>
</g>
<!-- Node8&#45;&gt;Node14 -->
<g id="edge9" class="edge">
<title>Node8&#45;&gt;Node14</title>
<path fill="none" stroke="#191970" d="M203.9316,-54.1743C225.6561,-46.6287 253.8228,-37.024 279,-29 289.0493,-25.7973 300.041,-22.4707 310.0355,-19.513"/>
<polygon fill="#191970" stroke="#191970" points="202.7284,-50.8871 194.4373,-57.4832 205.0321,-57.4972 202.7284,-50.8871"/>
</g>
<!-- Node10 -->
<g id="node4" class="node">
<title>Node10</title>
<g id="a_node4"><a xlink:href="namespacepybind.html#aa960fe0db10e19d7b7b60784a7e81be0" target="_top" xlink:title="Bind Element class to Python. ">
<polygon fill="#ffffff" stroke="#000000" points="443,-57.5 443,-76.5 544,-76.5 544,-57.5 443,-57.5"/>
<text text-anchor="middle" x="493.5" y="-64.5" font-family="Helvetica,sans-Serif" font-size="10.00" fill="#000000">pybind::py_element</text>
</a>
</g>
</g>
<!-- Node9&#45;&gt;Node10 -->
<g id="edge3" class="edge">
<title>Node9&#45;&gt;Node10</title>
<path fill="none" stroke="#191970" d="M388.0686,-111.3954C394.4658,-109.3818 400.9295,-107.2246 407,-105 430.2556,-96.4779 456.1716,-84.7884 473.5185,-76.6331"/>
<polygon fill="#191970" stroke="#191970" points="386.6771,-108.1607 378.1364,-114.4304 388.7228,-114.8552 386.6771,-108.1607"/>
</g>
<!-- Node11 -->
<g id="node5" class="node">
<title>Node11</title>
<g id="a_node5"><a xlink:href="pybind_8h.html#a4714c4a855ebb82892410d5254e9ccdc" target="_top" xlink:title="Macro for generating Python module named _ppap4lmp. ">
<polygon fill="#ffffff" stroke="#000000" points="580,-57.5 580,-76.5 690,-76.5 690,-57.5 580,-57.5"/>
<text text-anchor="middle" x="635" y="-64.5" font-family="Helvetica,sans-Serif" font-size="10.00" fill="#000000">PYBIND11_MODULE</text>
</a>
</g>
</g>
<!-- Node10&#45;&gt;Node11 -->
<g id="edge4" class="edge">
<title>Node10&#45;&gt;Node11</title>
<path fill="none" stroke="#191970" d="M554.3877,-67C562.8576,-67 571.5199,-67 579.8761,-67"/>
<polygon fill="#191970" stroke="#191970" points="554.1851,-63.5001 544.1851,-67 554.185,-70.5001 554.1851,-63.5001"/>
</g>
<!-- Node12&#45;&gt;Node10 -->
<g id="edge6" class="edge">
<title>Node12&#45;&gt;Node10</title>
<path fill="none" stroke="#191970" d="M417.2998,-76.62C425.8797,-75.5368 434.4761,-74.4515 442.6427,-73.4205"/>
<polygon fill="#191970" stroke="#191970" points="416.7449,-73.1621 407.2621,-77.8872 417.6218,-80.107 416.7449,-73.1621"/>
</g>
<!-- Node13&#45;&gt;Node10 -->
<g id="edge8" class="edge">
<title>Node13&#45;&gt;Node10</title>
<path fill="none" stroke="#191970" d="M412.971,-56.8336C423.0981,-58.1121 433.3533,-59.4067 442.9981,-60.6243"/>
<polygon fill="#191970" stroke="#191970" points="413.2737,-53.3441 402.914,-55.5639 412.3969,-60.2889 413.2737,-53.3441"/>
</g>
<!-- Node14&#45;&gt;Node10 -->
<g id="edge10" class="edge">
<title>Node14&#45;&gt;Node10</title>
<path fill="none" stroke="#191970" d="M388.0686,-22.6046C394.4658,-24.6182 400.9295,-26.7754 407,-29 430.2556,-37.5221 456.1716,-49.2116 473.5185,-57.3669"/>
<polygon fill="#191970" stroke="#191970" points="388.7228,-19.1448 378.1364,-19.5696 386.6771,-25.8393 388.7228,-19.1448"/>
</g>
</g>
</svg>
