<?xml version="1.0" encoding="UTF-8" standalone="no"?>
<!DOCTYPE svg PUBLIC "-//W3C//DTD SVG 1.1//EN"
 "http://www.w3.org/Graphics/SVG/1.1/DTD/svg11.dtd">
<!-- Generated by graphviz version 2.40.1 (20161225.0304)
 -->
<!-- Title: src/processors/pro_thickness_profile.h Pages: 1 -->
<svg width="318pt" height="229pt"
 viewBox="0.00 0.00 318.00 229.00" xmlns="http://www.w3.org/2000/svg" xmlns:xlink="http://www.w3.org/1999/xlink">
<g id="graph0" class="graph" transform="scale(1 1) rotate(0) translate(4 225)">
<title>src/processors/pro_thickness_profile.h</title>
<polygon fill="#ffffff" stroke="transparent" points="-4,4 -4,-225 314,-225 314,4 -4,4"/>
<!-- Node20 -->
<g id="node1" class="node">
<title>Node20</title>
<polygon fill="#bfbfbf" stroke="#000000" points="129,-190.5 129,-220.5 233,-220.5 233,-190.5 129,-190.5"/>
<text text-anchor="start" x="137" y="-208.5" font-family="Helvetica,sans-Serif" font-size="10.00" fill="#000000">src/processors/pro</text>
<text text-anchor="middle" x="181" y="-197.5" font-family="Helvetica,sans-Serif" font-size="10.00" fill="#000000">_thickness_profile.h</text>
</g>
<!-- Node21 -->
<g id="node2" class="node">
<title>Node21</title>
<g id="a_node2"><a xlink:href="py__pro__thickness__profile_8h.html" target="_top" xlink:title="This file is for binding ProThicknessProfile class to Python. ">
<polygon fill="#ffffff" stroke="#000000" points="42,-123.5 42,-153.5 178,-153.5 178,-123.5 42,-123.5"/>
<text text-anchor="start" x="50" y="-141.5" font-family="Helvetica,sans-Serif" font-size="10.00" fill="#000000">src/pybind/processors</text>
<text text-anchor="middle" x="110" y="-130.5" font-family="Helvetica,sans-Serif" font-size="10.00" fill="#000000">/py_pro_thickness_profile.h</text>
</a>
</g>
</g>
<!-- Node20&#45;&gt;Node21 -->
<g id="edge1" class="edge">
<title>Node20&#45;&gt;Node21</title>
<path fill="none" stroke="#191970" d="M157.3806,-183.2113C147.0905,-173.5009 135.2949,-162.3698 126.0472,-153.6432"/>
<polygon fill="#191970" stroke="#191970" points="155.2139,-185.979 164.889,-190.2967 160.0181,-180.8879 155.2139,-185.979"/>
</g>
<!-- Node25 -->
<g id="node6" class="node">
<title>Node25</title>
<g id="a_node6"><a xlink:href="pro__thickness__profile_8cpp.html" target="_top" xlink:title="This file has an implementation of ProThicknessProfile class, which is a subclass of Processor class...">
<polygon fill="#ffffff" stroke="#000000" points="196,-123.5 196,-153.5 310,-153.5 310,-123.5 196,-123.5"/>
<text text-anchor="start" x="204" y="-141.5" font-family="Helvetica,sans-Serif" font-size="10.00" fill="#000000">src/processors/pro</text>
<text text-anchor="middle" x="253" y="-130.5" font-family="Helvetica,sans-Serif" font-size="10.00" fill="#000000">_thickness_profile.cpp</text>
</a>
</g>
</g>
<!-- Node20&#45;&gt;Node25 -->
<g id="edge5" class="edge">
<title>Node20&#45;&gt;Node25</title>
<path fill="none" stroke="#191970" d="M204.952,-183.2113C215.3871,-173.5009 227.3488,-162.3698 236.7267,-153.6432"/>
<polygon fill="#191970" stroke="#191970" points="202.2743,-180.9221 197.3379,-190.2967 207.0429,-186.0466 202.2743,-180.9221"/>
</g>
<!-- Node22 -->
<g id="node3" class="node">
<title>Node22</title>
<g id="a_node3"><a xlink:href="pybind_8h.html" target="_top" xlink:title="This file includes all the header files containing definitions of functions to bind C++ and Python...">
<polygon fill="#ffffff" stroke="#000000" points="12,-62 12,-81 82,-81 82,-62 12,-62"/>
<text text-anchor="middle" x="47" y="-69" font-family="Helvetica,sans-Serif" font-size="10.00" fill="#000000">src/pybind.h</text>
</a>
</g>
</g>
<!-- Node21&#45;&gt;Node22 -->
<g id="edge2" class="edge">
<title>Node21&#45;&gt;Node22</title>
<path fill="none" stroke="#191970" d="M88.7161,-115.8648C77.5578,-103.998 64.4816,-90.0916 55.9845,-81.055"/>
<polygon fill="#191970" stroke="#191970" points="86.3042,-118.409 95.7043,-123.2967 91.4039,-113.6138 86.3042,-118.409"/>
</g>
<!-- Node24 -->
<g id="node5" class="node">
<title>Node24</title>
<g id="a_node5"><a xlink:href="py__pro__thickness__profile_8cpp.html" target="_top" xlink:title="This file is for binding ProThicknessProfile class to Python. ">
<polygon fill="#ffffff" stroke="#000000" points="100,-56.5 100,-86.5 246,-86.5 246,-56.5 100,-56.5"/>
<text text-anchor="start" x="108" y="-74.5" font-family="Helvetica,sans-Serif" font-size="10.00" fill="#000000">src/pybind/processors</text>
<text text-anchor="middle" x="173" y="-63.5" font-family="Helvetica,sans-Serif" font-size="10.00" fill="#000000">/py_pro_thickness_profile.cpp</text>
</a>
</g>
</g>
<!-- Node21&#45;&gt;Node24 -->
<g id="edge4" class="edge">
<title>Node21&#45;&gt;Node24</title>
<path fill="none" stroke="#191970" d="M131.227,-115.9253C140.2938,-106.2828 150.6357,-95.2843 158.7609,-86.6432"/>
<polygon fill="#191970" stroke="#191970" points="128.5961,-113.6138 124.2957,-123.2967 133.6958,-118.409 128.5961,-113.6138"/>
</g>
<!-- Node23 -->
<g id="node4" class="node">
<title>Node23</title>
<g id="a_node4"><a xlink:href="ppap4lmp_8cpp.html" target="_top" xlink:title="This file has no implementation, only includes a header file to bind C++ and Python. ">
<polygon fill="#ffffff" stroke="#000000" points="0,-.5 0,-19.5 94,-19.5 94,-.5 0,-.5"/>
<text text-anchor="middle" x="47" y="-7.5" font-family="Helvetica,sans-Serif" font-size="10.00" fill="#000000">src/ppap4lmp.cpp</text>
</a>
</g>
</g>
<!-- Node22&#45;&gt;Node23 -->
<g id="edge3" class="edge">
<title>Node22&#45;&gt;Node23</title>
<path fill="none" stroke="#191970" d="M47,-51.7462C47,-41.0519 47,-28.314 47,-19.7449"/>
<polygon fill="#191970" stroke="#191970" points="43.5001,-51.8906 47,-61.8906 50.5001,-51.8907 43.5001,-51.8906"/>
</g>
</g>
</svg>
