<?xml version="1.0" encoding="UTF-8" standalone="no"?>
<!DOCTYPE svg PUBLIC "-//W3C//DTD SVG 1.1//EN"
 "http://www.w3.org/Graphics/SVG/1.1/DTD/svg11.dtd">
<!-- Generated by graphviz version 2.40.1 (20161225.0304)
 -->
<!-- Title: src/processors/pro_mean_square_displacement.cpp Pages: 1 -->
<svg width="637pt" height="487pt"
 viewBox="0.00 0.00 637.00 487.00" xmlns="http://www.w3.org/2000/svg" xmlns:xlink="http://www.w3.org/1999/xlink">
<g id="graph0" class="graph" transform="scale(1 1) rotate(0) translate(4 483)">
<title>src/processors/pro_mean_square_displacement.cpp</title>
<polygon fill="#ffffff" stroke="transparent" points="-4,4 -4,-483 633,-483 633,4 -4,4"/>
<!-- Node0 -->
<g id="node1" class="node">
<title>Node0</title>
<polygon fill="#bfbfbf" stroke="#000000" points="231,-448.5 231,-478.5 393,-478.5 393,-448.5 231,-448.5"/>
<text text-anchor="start" x="239" y="-466.5" font-family="Helvetica,sans-Serif" font-size="10.00" fill="#000000">src/processors/pro</text>
<text text-anchor="middle" x="312" y="-455.5" font-family="Helvetica,sans-Serif" font-size="10.00" fill="#000000">_mean_square_displacement.cpp</text>
</g>
<!-- Node1 -->
<g id="node2" class="node">
<title>Node1</title>
<g id="a_node2"><a xlink:href="pro__mean__square__displacement_8h.html" target="_top" xlink:title="This file has a definition of ProMeanSquareDisplacement class, which is a subclass of Processor class...">
<polygon fill="#ffffff" stroke="#000000" points="174.5,-392.5 174.5,-411.5 339.5,-411.5 339.5,-392.5 174.5,-392.5"/>
<text text-anchor="middle" x="257" y="-399.5" font-family="Helvetica,sans-Serif" font-size="10.00" fill="#000000">pro_mean_square_displacement.h</text>
</a>
</g>
</g>
<!-- Node0&#45;&gt;Node1 -->
<g id="edge1" class="edge">
<title>Node0&#45;&gt;Node1</title>
<path fill="none" stroke="#191970" d="M298.4045,-448.2977C290.6109,-439.5831 280.7953,-428.6075 272.6774,-419.5302"/>
<polygon fill="#191970" stroke="#191970" points="275.0813,-416.9678 265.8062,-411.8469 269.8635,-421.6341 275.0813,-416.9678"/>
</g>
<!-- Node21 -->
<g id="node22" class="node">
<title>Node21</title>
<g id="a_node22"><a xlink:href="runtime__error_8h.html" target="_top" xlink:title="This file has a definition of utils::runtime_error. ">
<polygon fill="#ffffff" stroke="#000000" points="324,-336.5 324,-355.5 436,-355.5 436,-336.5 324,-336.5"/>
<text text-anchor="middle" x="380" y="-343.5" font-family="Helvetica,sans-Serif" font-size="10.00" fill="#000000">../utils/runtime_error.h</text>
</a>
</g>
</g>
<!-- Node0&#45;&gt;Node21 -->
<g id="edge23" class="edge">
<title>Node0&#45;&gt;Node21</title>
<path fill="none" stroke="#191970" d="M324.1097,-448.2262C331.7414,-438.2346 341.5287,-424.7206 349,-412 357.9036,-396.8407 366.27,-378.7058 372.0618,-365.2849"/>
<polygon fill="#191970" stroke="#191970" points="375.4521,-366.2532 376.1159,-355.6792 369.0029,-363.5313 375.4521,-366.2532"/>
</g>
<!-- Node2 -->
<g id="node3" class="node">
<title>Node2</title>
<g id="a_node3"><a xlink:href="processor_8h.html" target="_top" xlink:title="This file has a definition of Processor class, where an analysis process is programmed. ">
<polygon fill="#ffffff" stroke="#000000" points="186.5,-336.5 186.5,-355.5 305.5,-355.5 305.5,-336.5 186.5,-336.5"/>
<text text-anchor="middle" x="246" y="-343.5" font-family="Helvetica,sans-Serif" font-size="10.00" fill="#000000">processors/processor.h</text>
</a>
</g>
</g>
<!-- Node1&#45;&gt;Node2 -->
<g id="edge2" class="edge">
<title>Node1&#45;&gt;Node2</title>
<path fill="none" stroke="#191970" d="M255.0839,-392.2455C253.6486,-384.9382 251.6364,-374.6944 249.8705,-365.7046"/>
<polygon fill="#191970" stroke="#191970" points="253.256,-364.7805 247.8941,-355.6427 246.3873,-366.1298 253.256,-364.7805"/>
</g>
<!-- Node3 -->
<g id="node4" class="node">
<title>Node3</title>
<g id="a_node4"><a xlink:href="generators_8h.html" target="_top" xlink:title="This file includes all the header files of subclasses of Generator class. ">
<polygon fill="#ffffff" stroke="#000000" points="200,-280.5 200,-299.5 292,-299.5 292,-280.5 200,-280.5"/>
<text text-anchor="middle" x="246" y="-287.5" font-family="Helvetica,sans-Serif" font-size="10.00" fill="#000000">core/generators.h</text>
</a>
</g>
</g>
<!-- Node2&#45;&gt;Node3 -->
<g id="edge3" class="edge">
<title>Node2&#45;&gt;Node3</title>
<path fill="none" stroke="#191970" d="M246,-336.2455C246,-328.9382 246,-318.6944 246,-309.7046"/>
<polygon fill="#191970" stroke="#191970" points="249.5001,-309.6426 246,-299.6427 242.5001,-309.6427 249.5001,-309.6426"/>
</g>
<!-- Node4 -->
<g id="node5" class="node">
<title>Node4</title>
<g id="a_node5"><a xlink:href="element_8h.html" target="_top" xlink:title="This file has a definition of Element class, which is one of the cores of this program. ">
<polygon fill="#ffffff" stroke="#000000" points="205.5,-168.5 205.5,-187.5 286.5,-187.5 286.5,-168.5 205.5,-168.5"/>
<text text-anchor="middle" x="246" y="-175.5" font-family="Helvetica,sans-Serif" font-size="10.00" fill="#000000">core/element.h</text>
</a>
</g>
</g>
<!-- Node3&#45;&gt;Node4 -->
<g id="edge4" class="edge">
<title>Node3&#45;&gt;Node4</title>
<path fill="none" stroke="#191970" d="M261.618,-280.4791C273.2472,-272.3972 288.2332,-259.6339 295,-244 303.2546,-224.9287 286.2644,-206.1991 270.0779,-193.593"/>
<polygon fill="#191970" stroke="#191970" points="271.9704,-190.6416 261.8247,-187.5896 267.8528,-196.3025 271.9704,-190.6416"/>
</g>
<!-- Node19 -->
<g id="node20" class="node">
<title>Node19</title>
<g id="a_node20"><a xlink:href="gen__dict_8h.html" target="_top" xlink:title="This file has a definition of GenDict class. ">
<polygon fill="#ffffff" stroke="#000000" points="104.5,-224.5 104.5,-243.5 187.5,-243.5 187.5,-224.5 104.5,-224.5"/>
<text text-anchor="middle" x="146" y="-231.5" font-family="Helvetica,sans-Serif" font-size="10.00" fill="#000000">core/gen_dict.h</text>
</a>
</g>
</g>
<!-- Node3&#45;&gt;Node19 -->
<g id="edge19" class="edge">
<title>Node3&#45;&gt;Node19</title>
<path fill="none" stroke="#191970" d="M228.5813,-280.2455C212.9515,-271.4928 189.7981,-258.527 171.9815,-248.5496"/>
<polygon fill="#191970" stroke="#191970" points="173.6543,-245.475 163.2191,-243.6427 170.234,-251.5825 173.6543,-245.475"/>
</g>
<!-- Node20 -->
<g id="node21" class="node">
<title>Node20</title>
<g id="a_node21"><a xlink:href="gen__list_8h.html" target="_top" xlink:title="This file has a definition of GenList class. ">
<polygon fill="#ffffff" stroke="#000000" points="206,-224.5 206,-243.5 286,-243.5 286,-224.5 206,-224.5"/>
<text text-anchor="middle" x="246" y="-231.5" font-family="Helvetica,sans-Serif" font-size="10.00" fill="#000000">core/gen_list.h</text>
</a>
</g>
</g>
<!-- Node3&#45;&gt;Node20 -->
<g id="edge21" class="edge">
<title>Node3&#45;&gt;Node20</title>
<path fill="none" stroke="#191970" d="M246,-280.2455C246,-272.9382 246,-262.6944 246,-253.7046"/>
<polygon fill="#191970" stroke="#191970" points="249.5001,-253.6426 246,-243.6427 242.5001,-253.6427 249.5001,-253.6426"/>
</g>
<!-- Node5 -->
<g id="node6" class="node">
<title>Node5</title>
<polygon fill="#ffffff" stroke="#bfbfbf" points="308,-112.5 308,-131.5 352,-131.5 352,-112.5 308,-112.5"/>
<text text-anchor="middle" x="330" y="-119.5" font-family="Helvetica,sans-Serif" font-size="10.00" fill="#000000">omp.h</text>
</g>
<!-- Node4&#45;&gt;Node5 -->
<g id="edge5" class="edge">
<title>Node4&#45;&gt;Node5</title>
<path fill="none" stroke="#191970" d="M260.6317,-168.2455C273.3994,-159.7337 292.1438,-147.2375 306.9299,-137.3801"/>
<polygon fill="#191970" stroke="#191970" points="309.1569,-140.1019 315.536,-131.6427 305.274,-134.2775 309.1569,-140.1019"/>
</g>
<!-- Node6 -->
<g id="node7" class="node">
<title>Node6</title>
<g id="a_node7"><a xlink:href="eigen_8h.html" target="_top" xlink:title="This file includes Eigen and defines some aliases for the Eigen&#45;Vector, Matrix and Array...">
<polygon fill="#ffffff" stroke="#000000" points="9.5,-112.5 9.5,-131.5 80.5,-131.5 80.5,-112.5 9.5,-112.5"/>
<text text-anchor="middle" x="45" y="-119.5" font-family="Helvetica,sans-Serif" font-size="10.00" fill="#000000">alias/eigen.h</text>
</a>
</g>
</g>
<!-- Node4&#45;&gt;Node6 -->
<g id="edge6" class="edge">
<title>Node4&#45;&gt;Node6</title>
<path fill="none" stroke="#191970" d="M211.4469,-168.3733C177.5896,-158.9404 125.854,-144.5265 89.0574,-134.2747"/>
<polygon fill="#191970" stroke="#191970" points="89.6747,-130.8135 79.1022,-131.5011 87.796,-137.5566 89.6747,-130.8135"/>
</g>
<!-- Node8 -->
<g id="node9" class="node">
<title>Node8</title>
<g id="a_node9"><a xlink:href="alias_2pybind_8h.html" target="_top" xlink:title="This file includes pybind11 and defines an alias for the namespace pybind11. ">
<polygon fill="#ffffff" stroke="#000000" points="105.5,-112.5 105.5,-131.5 182.5,-131.5 182.5,-112.5 105.5,-112.5"/>
<text text-anchor="middle" x="144" y="-119.5" font-family="Helvetica,sans-Serif" font-size="10.00" fill="#000000">alias/pybind.h</text>
</a>
</g>
</g>
<!-- Node4&#45;&gt;Node8 -->
<g id="edge8" class="edge">
<title>Node4&#45;&gt;Node8</title>
<path fill="none" stroke="#191970" d="M228.233,-168.2455C212.2905,-159.4928 188.6741,-146.527 170.5011,-136.5496"/>
<polygon fill="#191970" stroke="#191970" points="172.0137,-133.3873 161.5634,-131.6427 168.6448,-139.5233 172.0137,-133.3873"/>
</g>
<!-- Node10 -->
<g id="node11" class="node">
<title>Node10</title>
<g id="a_node11"><a xlink:href="generator_8h.html" target="_top" xlink:title="This file has a definition of Generator class, which is one of the cores of this program. ">
<polygon fill="#ffffff" stroke="#000000" points="202.5,-112.5 202.5,-131.5 289.5,-131.5 289.5,-112.5 202.5,-112.5"/>
<text text-anchor="middle" x="246" y="-119.5" font-family="Helvetica,sans-Serif" font-size="10.00" fill="#000000">core/generator.h</text>
</a>
</g>
</g>
<!-- Node4&#45;&gt;Node10 -->
<g id="edge10" class="edge">
<title>Node4&#45;&gt;Node10</title>
<path fill="none" stroke="#191970" d="M246,-168.2455C246,-160.9382 246,-150.6944 246,-141.7046"/>
<polygon fill="#191970" stroke="#191970" points="249.5001,-141.6426 246,-131.6427 242.5001,-141.6427 249.5001,-141.6426"/>
</g>
<!-- Node7 -->
<g id="node8" class="node">
<title>Node7</title>
<polygon fill="#ffffff" stroke="#bfbfbf" points="0,-56.5 0,-75.5 72,-75.5 72,-56.5 0,-56.5"/>
<text text-anchor="middle" x="36" y="-63.5" font-family="Helvetica,sans-Serif" font-size="10.00" fill="#000000">Eigen/Dense</text>
</g>
<!-- Node6&#45;&gt;Node7 -->
<g id="edge7" class="edge">
<title>Node6&#45;&gt;Node7</title>
<path fill="none" stroke="#191970" d="M43.4323,-112.2455C42.2579,-104.9382 40.6116,-94.6944 39.1668,-85.7046"/>
<polygon fill="#191970" stroke="#191970" points="42.5922,-84.9606 37.5497,-75.6427 35.6809,-86.0714 42.5922,-84.9606"/>
</g>
<!-- Node9 -->
<g id="node10" class="node">
<title>Node9</title>
<polygon fill="#ffffff" stroke="#bfbfbf" points="90,-56.5 90,-75.5 196,-75.5 196,-56.5 90,-56.5"/>
<text text-anchor="middle" x="143" y="-63.5" font-family="Helvetica,sans-Serif" font-size="10.00" fill="#000000">pybind11/pybind11.h</text>
</g>
<!-- Node8&#45;&gt;Node9 -->
<g id="edge9" class="edge">
<title>Node8&#45;&gt;Node9</title>
<path fill="none" stroke="#191970" d="M143.8258,-112.2455C143.6953,-104.9382 143.5124,-94.6944 143.3519,-85.7046"/>
<polygon fill="#191970" stroke="#191970" points="146.8503,-85.5786 143.1722,-75.6427 139.8514,-85.7036 146.8503,-85.5786"/>
</g>
<!-- Node11 -->
<g id="node12" class="node">
<title>Node11</title>
<g id="a_node12"><a xlink:href="std_8h.html" target="_top" xlink:title="This file includes a part of C++ Standard Template Library and defines aliases for them...">
<polygon fill="#ffffff" stroke="#000000" points="349,-56.5 349,-75.5 411,-75.5 411,-56.5 349,-56.5"/>
<text text-anchor="middle" x="380" y="-63.5" font-family="Helvetica,sans-Serif" font-size="10.00" fill="#000000">alias/std.h</text>
</a>
</g>
</g>
<!-- Node10&#45;&gt;Node11 -->
<g id="edge11" class="edge">
<title>Node10&#45;&gt;Node11</title>
<path fill="none" stroke="#191970" d="M269.0354,-112.3733C290.7388,-103.3032 323.4618,-89.6279 347.755,-79.4755"/>
<polygon fill="#191970" stroke="#191970" points="349.3881,-82.5865 357.2652,-75.5011 346.6889,-76.1278 349.3881,-82.5865"/>
</g>
<!-- Node17 -->
<g id="node18" class="node">
<title>Node17</title>
<g id="a_node18"><a xlink:href="json_8h.html" target="_top" xlink:title="This file includes nlohmann/json and defines an alias for a JSON class. ">
<polygon fill="#ffffff" stroke="#000000" points="214,-56.5 214,-75.5 280,-75.5 280,-56.5 214,-56.5"/>
<text text-anchor="middle" x="247" y="-63.5" font-family="Helvetica,sans-Serif" font-size="10.00" fill="#000000">alias/json.h</text>
</a>
</g>
</g>
<!-- Node10&#45;&gt;Node17 -->
<g id="edge17" class="edge">
<title>Node10&#45;&gt;Node17</title>
<path fill="none" stroke="#191970" d="M246.1742,-112.2455C246.3047,-104.9382 246.4876,-94.6944 246.6481,-85.7046"/>
<polygon fill="#191970" stroke="#191970" points="250.1486,-85.7036 246.8278,-75.6427 243.1497,-85.5786 250.1486,-85.7036"/>
</g>
<!-- Node12 -->
<g id="node13" class="node">
<title>Node12</title>
<polygon fill="#ffffff" stroke="#bfbfbf" points="577,-.5 577,-19.5 629,-19.5 629,-.5 577,-.5"/>
<text text-anchor="middle" x="603" y="-7.5" font-family="Helvetica,sans-Serif" font-size="10.00" fill="#000000">memory</text>
</g>
<!-- Node11&#45;&gt;Node12 -->
<g id="edge12" class="edge">
<title>Node11&#45;&gt;Node12</title>
<path fill="none" stroke="#191970" d="M411.0306,-58.7923C446.4823,-50.4735 506.4592,-36.1446 566.9478,-20.2136"/>
<polygon fill="#191970" stroke="#191970" points="567.8852,-23.5861 576.6566,-17.6437 566.0939,-16.8191 567.8852,-23.5861"/>
</g>
<!-- Node13 -->
<g id="node14" class="node">
<title>Node13</title>
<polygon fill="#ffffff" stroke="#bfbfbf" points="257.5,-.5 257.5,-19.5 298.5,-19.5 298.5,-.5 257.5,-.5"/>
<text text-anchor="middle" x="278" y="-7.5" font-family="Helvetica,sans-Serif" font-size="10.00" fill="#000000">string</text>
</g>
<!-- Node11&#45;&gt;Node13 -->
<g id="edge13" class="edge">
<title>Node11&#45;&gt;Node13</title>
<path fill="none" stroke="#191970" d="M362.233,-56.2455C346.2905,-47.4928 322.6741,-34.527 304.5011,-24.5496"/>
<polygon fill="#191970" stroke="#191970" points="306.0137,-21.3873 295.5634,-19.6427 302.6448,-27.5233 306.0137,-21.3873"/>
</g>
<!-- Node14 -->
<g id="node15" class="node">
<title>Node14</title>
<polygon fill="#ffffff" stroke="#bfbfbf" points="317,-.5 317,-19.5 361,-19.5 361,-.5 317,-.5"/>
<text text-anchor="middle" x="339" y="-7.5" font-family="Helvetica,sans-Serif" font-size="10.00" fill="#000000">vector</text>
</g>
<!-- Node11&#45;&gt;Node14 -->
<g id="edge14" class="edge">
<title>Node11&#45;&gt;Node14</title>
<path fill="none" stroke="#191970" d="M372.8583,-56.2455C367.1556,-48.4564 359.01,-37.3308 352.1375,-27.9439"/>
<polygon fill="#191970" stroke="#191970" points="354.7913,-25.6437 346.0598,-19.6427 349.1432,-29.7789 354.7913,-25.6437"/>
</g>
<!-- Node15 -->
<g id="node16" class="node">
<title>Node15</title>
<polygon fill="#ffffff" stroke="#bfbfbf" points="379.5,-.5 379.5,-19.5 462.5,-19.5 462.5,-.5 379.5,-.5"/>
<text text-anchor="middle" x="421" y="-7.5" font-family="Helvetica,sans-Serif" font-size="10.00" fill="#000000">unordered_map</text>
</g>
<!-- Node11&#45;&gt;Node15 -->
<g id="edge15" class="edge">
<title>Node11&#45;&gt;Node15</title>
<path fill="none" stroke="#191970" d="M387.1417,-56.2455C392.8444,-48.4564 400.99,-37.3308 407.8625,-27.9439"/>
<polygon fill="#191970" stroke="#191970" points="410.8568,-29.7789 413.9402,-19.6427 405.2087,-25.6437 410.8568,-29.7789"/>
</g>
<!-- Node16 -->
<g id="node17" class="node">
<title>Node16</title>
<polygon fill="#ffffff" stroke="#bfbfbf" points="481,-.5 481,-19.5 559,-19.5 559,-.5 481,-.5"/>
<text text-anchor="middle" x="520" y="-7.5" font-family="Helvetica,sans-Serif" font-size="10.00" fill="#000000">unordered_set</text>
</g>
<!-- Node11&#45;&gt;Node16 -->
<g id="edge16" class="edge">
<title>Node11&#45;&gt;Node16</title>
<path fill="none" stroke="#191970" d="M404.0669,-56.3733C426.8428,-47.2629 461.2344,-33.5062 486.649,-23.3404"/>
<polygon fill="#191970" stroke="#191970" points="488.2623,-26.4648 496.2472,-19.5011 485.6625,-19.9654 488.2623,-26.4648"/>
</g>
<!-- Node18 -->
<g id="node19" class="node">
<title>Node18</title>
<polygon fill="#ffffff" stroke="#bfbfbf" points="141,-.5 141,-19.5 239,-19.5 239,-.5 141,-.5"/>
<text text-anchor="middle" x="190" y="-7.5" font-family="Helvetica,sans-Serif" font-size="10.00" fill="#000000">nlohmann/json.hpp</text>
</g>
<!-- Node17&#45;&gt;Node18 -->
<g id="edge18" class="edge">
<title>Node17&#45;&gt;Node18</title>
<path fill="none" stroke="#191970" d="M237.0714,-56.2455C228.8162,-48.1352 216.8791,-36.4075 207.0918,-26.7919"/>
<polygon fill="#191970" stroke="#191970" points="209.4011,-24.1542 199.8149,-19.6427 204.4954,-29.1476 209.4011,-24.1542"/>
</g>
<!-- Node19&#45;&gt;Node4 -->
<g id="edge20" class="edge">
<title>Node19&#45;&gt;Node4</title>
<path fill="none" stroke="#191970" d="M163.4187,-224.2455C179.0485,-215.4928 202.2019,-202.527 220.0185,-192.5496"/>
<polygon fill="#191970" stroke="#191970" points="221.766,-195.5825 228.7809,-187.6427 218.3457,-189.475 221.766,-195.5825"/>
</g>
<!-- Node20&#45;&gt;Node4 -->
<g id="edge22" class="edge">
<title>Node20&#45;&gt;Node4</title>
<path fill="none" stroke="#191970" d="M246,-224.2455C246,-216.9382 246,-206.6944 246,-197.7046"/>
<polygon fill="#191970" stroke="#191970" points="249.5001,-197.6426 246,-187.6427 242.5001,-197.6427 249.5001,-197.6426"/>
</g>
<!-- Node21&#45;&gt;Node11 -->
<g id="edge24" class="edge">
<title>Node21&#45;&gt;Node11</title>
<path fill="none" stroke="#191970" d="M380,-336.4116C380,-317.0538 380,-271.9167 380,-234 380,-234 380,-234 380,-178 380,-145.7116 380,-108.1872 380,-85.8048"/>
<polygon fill="#191970" stroke="#191970" points="383.5001,-85.5883 380,-75.5884 376.5001,-85.5884 383.5001,-85.5883"/>
</g>
</g>
</svg>
