<?xml version="1.0" encoding="UTF-8" standalone="no"?>
<!DOCTYPE svg PUBLIC "-//W3C//DTD SVG 1.1//EN"
 "http://www.w3.org/Graphics/SVG/1.1/DTD/svg11.dtd">
<!-- Generated by graphviz version 2.40.1 (20161225.0304)
 -->
<!-- Title: src/processors/pro_value_array.h Pages: 1 -->
<svg width="595pt" height="431pt"
 viewBox="0.00 0.00 595.00 431.00" xmlns="http://www.w3.org/2000/svg" xmlns:xlink="http://www.w3.org/1999/xlink">
<g id="graph0" class="graph" transform="scale(1 1) rotate(0) translate(4 427)">
<title>src/processors/pro_value_array.h</title>
<polygon fill="#ffffff" stroke="transparent" points="-4,4 -4,-427 591,-427 591,4 -4,4"/>
<!-- Node0 -->
<g id="node1" class="node">
<title>Node0</title>
<polygon fill="#bfbfbf" stroke="#000000" points="95,-392.5 95,-422.5 193,-422.5 193,-392.5 95,-392.5"/>
<text text-anchor="start" x="103" y="-410.5" font-family="Helvetica,sans-Serif" font-size="10.00" fill="#000000">src/processors/pro</text>
<text text-anchor="middle" x="144" y="-399.5" font-family="Helvetica,sans-Serif" font-size="10.00" fill="#000000">_value_array.h</text>
</g>
<!-- Node1 -->
<g id="node2" class="node">
<title>Node1</title>
<g id="a_node2"><a xlink:href="processor_8h.html" target="_top" xlink:title="This file has a definition of Processor class, where an analysis process is programmed. ">
<polygon fill="#ffffff" stroke="#000000" points="84.5,-336.5 84.5,-355.5 203.5,-355.5 203.5,-336.5 84.5,-336.5"/>
<text text-anchor="middle" x="144" y="-343.5" font-family="Helvetica,sans-Serif" font-size="10.00" fill="#000000">processors/processor.h</text>
</a>
</g>
</g>
<!-- Node0&#45;&gt;Node1 -->
<g id="edge1" class="edge">
<title>Node0&#45;&gt;Node1</title>
<path fill="none" stroke="#191970" d="M144,-392.2977C144,-384.3834 144,-374.6043 144,-366.0759"/>
<polygon fill="#191970" stroke="#191970" points="147.5001,-365.8469 144,-355.8469 140.5001,-365.847 147.5001,-365.8469"/>
</g>
<!-- Node2 -->
<g id="node3" class="node">
<title>Node2</title>
<g id="a_node3"><a xlink:href="generators_8h.html" target="_top" xlink:title="This file includes all the header files of subclasses of Generator class. ">
<polygon fill="#ffffff" stroke="#000000" points="98,-280.5 98,-299.5 190,-299.5 190,-280.5 98,-280.5"/>
<text text-anchor="middle" x="144" y="-287.5" font-family="Helvetica,sans-Serif" font-size="10.00" fill="#000000">core/generators.h</text>
</a>
</g>
</g>
<!-- Node1&#45;&gt;Node2 -->
<g id="edge2" class="edge">
<title>Node1&#45;&gt;Node2</title>
<path fill="none" stroke="#191970" d="M144,-336.2455C144,-328.9382 144,-318.6944 144,-309.7046"/>
<polygon fill="#191970" stroke="#191970" points="147.5001,-309.6426 144,-299.6427 140.5001,-309.6427 147.5001,-309.6426"/>
</g>
<!-- Node3 -->
<g id="node4" class="node">
<title>Node3</title>
<g id="a_node4"><a xlink:href="element_8h.html" target="_top" xlink:title="This file has a definition of Element class, which is one of the cores of this program. ">
<polygon fill="#ffffff" stroke="#000000" points="103.5,-168.5 103.5,-187.5 184.5,-187.5 184.5,-168.5 103.5,-168.5"/>
<text text-anchor="middle" x="144" y="-175.5" font-family="Helvetica,sans-Serif" font-size="10.00" fill="#000000">core/element.h</text>
</a>
</g>
</g>
<!-- Node2&#45;&gt;Node3 -->
<g id="edge3" class="edge">
<title>Node2&#45;&gt;Node3</title>
<path fill="none" stroke="#191970" d="M127.2627,-280.2988C115.2416,-272.2823 99.977,-259.6887 93,-244 84.4317,-224.733 102.1122,-206.0303 118.9522,-193.4838"/>
<polygon fill="#191970" stroke="#191970" points="121.3262,-196.0961 127.5384,-187.5136 117.33,-190.3489 121.3262,-196.0961"/>
</g>
<!-- Node18 -->
<g id="node19" class="node">
<title>Node18</title>
<g id="a_node19"><a xlink:href="gen__dict_8h.html" target="_top" xlink:title="This file has a definition of GenDict class. ">
<polygon fill="#ffffff" stroke="#000000" points="102.5,-224.5 102.5,-243.5 185.5,-243.5 185.5,-224.5 102.5,-224.5"/>
<text text-anchor="middle" x="144" y="-231.5" font-family="Helvetica,sans-Serif" font-size="10.00" fill="#000000">core/gen_dict.h</text>
</a>
</g>
</g>
<!-- Node2&#45;&gt;Node18 -->
<g id="edge18" class="edge">
<title>Node2&#45;&gt;Node18</title>
<path fill="none" stroke="#191970" d="M144,-280.2455C144,-272.9382 144,-262.6944 144,-253.7046"/>
<polygon fill="#191970" stroke="#191970" points="147.5001,-253.6426 144,-243.6427 140.5001,-253.6427 147.5001,-253.6426"/>
</g>
<!-- Node19 -->
<g id="node20" class="node">
<title>Node19</title>
<g id="a_node20"><a xlink:href="gen__list_8h.html" target="_top" xlink:title="This file has a definition of GenList class. ">
<polygon fill="#ffffff" stroke="#000000" points="204,-224.5 204,-243.5 284,-243.5 284,-224.5 204,-224.5"/>
<text text-anchor="middle" x="244" y="-231.5" font-family="Helvetica,sans-Serif" font-size="10.00" fill="#000000">core/gen_list.h</text>
</a>
</g>
</g>
<!-- Node2&#45;&gt;Node19 -->
<g id="edge20" class="edge">
<title>Node2&#45;&gt;Node19</title>
<path fill="none" stroke="#191970" d="M161.4187,-280.2455C177.0485,-271.4928 200.2019,-258.527 218.0185,-248.5496"/>
<polygon fill="#191970" stroke="#191970" points="219.766,-251.5825 226.7809,-243.6427 216.3457,-245.475 219.766,-251.5825"/>
</g>
<!-- Node4 -->
<g id="node5" class="node">
<title>Node4</title>
<polygon fill="#ffffff" stroke="#bfbfbf" points="0,-112.5 0,-131.5 44,-131.5 44,-112.5 0,-112.5"/>
<text text-anchor="middle" x="22" y="-119.5" font-family="Helvetica,sans-Serif" font-size="10.00" fill="#000000">omp.h</text>
</g>
<!-- Node3&#45;&gt;Node4 -->
<g id="edge4" class="edge">
<title>Node3&#45;&gt;Node4</title>
<path fill="none" stroke="#191970" d="M123.0275,-168.3733C103.4433,-159.3838 74.0039,-145.8706 51.949,-135.7471"/>
<polygon fill="#191970" stroke="#191970" points="53.2473,-132.4919 42.6989,-131.5011 50.3271,-138.8538 53.2473,-132.4919"/>
</g>
<!-- Node5 -->
<g id="node6" class="node">
<title>Node5</title>
<g id="a_node6"><a xlink:href="eigen_8h.html" target="_top" xlink:title="This file includes Eigen and defines some aliases for the Eigen&#45;Vector, Matrix and Array...">
<polygon fill="#ffffff" stroke="#000000" points="62.5,-112.5 62.5,-131.5 133.5,-131.5 133.5,-112.5 62.5,-112.5"/>
<text text-anchor="middle" x="98" y="-119.5" font-family="Helvetica,sans-Serif" font-size="10.00" fill="#000000">alias/eigen.h</text>
</a>
</g>
</g>
<!-- Node3&#45;&gt;Node5 -->
<g id="edge5" class="edge">
<title>Node3&#45;&gt;Node5</title>
<path fill="none" stroke="#191970" d="M135.9874,-168.2455C129.5232,-160.3761 120.2615,-149.101 112.5017,-139.6542"/>
<polygon fill="#191970" stroke="#191970" points="114.9727,-137.1484 105.9208,-131.6427 109.5636,-141.5916 114.9727,-137.1484"/>
</g>
<!-- Node7 -->
<g id="node8" class="node">
<title>Node7</title>
<g id="a_node8"><a xlink:href="alias_2pybind_8h.html" target="_top" xlink:title="This file includes pybind11 and defines an alias for the namespace pybind11. ">
<polygon fill="#ffffff" stroke="#000000" points="151.5,-112.5 151.5,-131.5 228.5,-131.5 228.5,-112.5 151.5,-112.5"/>
<text text-anchor="middle" x="190" y="-119.5" font-family="Helvetica,sans-Serif" font-size="10.00" fill="#000000">alias/pybind.h</text>
</a>
</g>
</g>
<!-- Node3&#45;&gt;Node7 -->
<g id="edge7" class="edge">
<title>Node3&#45;&gt;Node7</title>
<path fill="none" stroke="#191970" d="M152.0126,-168.2455C158.4768,-160.3761 167.7385,-149.101 175.4983,-139.6542"/>
<polygon fill="#191970" stroke="#191970" points="178.4364,-141.5916 182.0792,-131.6427 173.0273,-137.1484 178.4364,-141.5916"/>
</g>
<!-- Node9 -->
<g id="node10" class="node">
<title>Node9</title>
<g id="a_node10"><a xlink:href="generator_8h.html" target="_top" xlink:title="This file has a definition of Generator class, which is one of the cores of this program. ">
<polygon fill="#ffffff" stroke="#000000" points="248.5,-112.5 248.5,-131.5 335.5,-131.5 335.5,-112.5 248.5,-112.5"/>
<text text-anchor="middle" x="292" y="-119.5" font-family="Helvetica,sans-Serif" font-size="10.00" fill="#000000">core/generator.h</text>
</a>
</g>
</g>
<!-- Node3&#45;&gt;Node9 -->
<g id="edge9" class="edge">
<title>Node3&#45;&gt;Node9</title>
<path fill="none" stroke="#191970" d="M169.4421,-168.3733C193.7326,-159.1822 230.5208,-145.2624 257.4543,-135.0713"/>
<polygon fill="#191970" stroke="#191970" points="258.7757,-138.3136 266.8899,-131.5011 256.2984,-131.7666 258.7757,-138.3136"/>
</g>
<!-- Node6 -->
<g id="node7" class="node">
<title>Node6</title>
<polygon fill="#ffffff" stroke="#bfbfbf" points="47,-56.5 47,-75.5 119,-75.5 119,-56.5 47,-56.5"/>
<text text-anchor="middle" x="83" y="-63.5" font-family="Helvetica,sans-Serif" font-size="10.00" fill="#000000">Eigen/Dense</text>
</g>
<!-- Node5&#45;&gt;Node6 -->
<g id="edge6" class="edge">
<title>Node5&#45;&gt;Node6</title>
<path fill="none" stroke="#191970" d="M95.3872,-112.2455C93.4084,-104.8579 90.6256,-94.4689 88.1988,-85.4087"/>
<polygon fill="#191970" stroke="#191970" points="91.5511,-84.3966 85.5829,-75.6427 84.7895,-86.2078 91.5511,-84.3966"/>
</g>
<!-- Node8 -->
<g id="node9" class="node">
<title>Node8</title>
<polygon fill="#ffffff" stroke="#bfbfbf" points="137,-56.5 137,-75.5 243,-75.5 243,-56.5 137,-56.5"/>
<text text-anchor="middle" x="190" y="-63.5" font-family="Helvetica,sans-Serif" font-size="10.00" fill="#000000">pybind11/pybind11.h</text>
</g>
<!-- Node7&#45;&gt;Node8 -->
<g id="edge8" class="edge">
<title>Node7&#45;&gt;Node8</title>
<path fill="none" stroke="#191970" d="M190,-112.2455C190,-104.9382 190,-94.6944 190,-85.7046"/>
<polygon fill="#191970" stroke="#191970" points="193.5001,-85.6426 190,-75.6427 186.5001,-85.6427 193.5001,-85.6426"/>
</g>
<!-- Node10 -->
<g id="node11" class="node">
<title>Node10</title>
<g id="a_node11"><a xlink:href="std_8h.html" target="_top" xlink:title="This file includes a part of C++ Standard Template Library and defines aliases for them...">
<polygon fill="#ffffff" stroke="#000000" points="261,-56.5 261,-75.5 323,-75.5 323,-56.5 261,-56.5"/>
<text text-anchor="middle" x="292" y="-63.5" font-family="Helvetica,sans-Serif" font-size="10.00" fill="#000000">alias/std.h</text>
</a>
</g>
</g>
<!-- Node9&#45;&gt;Node10 -->
<g id="edge10" class="edge">
<title>Node9&#45;&gt;Node10</title>
<path fill="none" stroke="#191970" d="M292,-112.2455C292,-104.9382 292,-94.6944 292,-85.7046"/>
<polygon fill="#191970" stroke="#191970" points="295.5001,-85.6426 292,-75.6427 288.5001,-85.6427 295.5001,-85.6426"/>
</g>
<!-- Node16 -->
<g id="node17" class="node">
<title>Node16</title>
<g id="a_node17"><a xlink:href="json_8h.html" target="_top" xlink:title="This file includes nlohmann/json and defines an alias for a JSON class. ">
<polygon fill="#ffffff" stroke="#000000" points="443,-56.5 443,-75.5 509,-75.5 509,-56.5 443,-56.5"/>
<text text-anchor="middle" x="476" y="-63.5" font-family="Helvetica,sans-Serif" font-size="10.00" fill="#000000">alias/json.h</text>
</a>
</g>
</g>
<!-- Node9&#45;&gt;Node16 -->
<g id="edge16" class="edge">
<title>Node9&#45;&gt;Node16</title>
<path fill="none" stroke="#191970" d="M323.6307,-112.3733C354.3596,-103.021 401.176,-88.7725 434.8022,-78.5385"/>
<polygon fill="#191970" stroke="#191970" points="436.2344,-81.7612 444.782,-75.5011 434.1962,-75.0644 436.2344,-81.7612"/>
</g>
<!-- Node11 -->
<g id="node12" class="node">
<title>Node11</title>
<polygon fill="#ffffff" stroke="#bfbfbf" points="99,-.5 99,-19.5 151,-19.5 151,-.5 99,-.5"/>
<text text-anchor="middle" x="125" y="-7.5" font-family="Helvetica,sans-Serif" font-size="10.00" fill="#000000">memory</text>
</g>
<!-- Node10&#45;&gt;Node11 -->
<g id="edge11" class="edge">
<title>Node10&#45;&gt;Node11</title>
<path fill="none" stroke="#191970" d="M263.2917,-56.3733C234.972,-46.8769 191.5976,-32.3321 160.989,-22.0682"/>
<polygon fill="#191970" stroke="#191970" points="161.7321,-18.6259 151.1382,-18.7649 159.5066,-25.2627 161.7321,-18.6259"/>
</g>
<!-- Node12 -->
<g id="node13" class="node">
<title>Node12</title>
<polygon fill="#ffffff" stroke="#bfbfbf" points="169.5,-.5 169.5,-19.5 210.5,-19.5 210.5,-.5 169.5,-.5"/>
<text text-anchor="middle" x="190" y="-7.5" font-family="Helvetica,sans-Serif" font-size="10.00" fill="#000000">string</text>
</g>
<!-- Node10&#45;&gt;Node12 -->
<g id="edge12" class="edge">
<title>Node10&#45;&gt;Node12</title>
<path fill="none" stroke="#191970" d="M274.233,-56.2455C258.2905,-47.4928 234.6741,-34.527 216.5011,-24.5496"/>
<polygon fill="#191970" stroke="#191970" points="218.0137,-21.3873 207.5634,-19.6427 214.6448,-27.5233 218.0137,-21.3873"/>
</g>
<!-- Node13 -->
<g id="node14" class="node">
<title>Node13</title>
<polygon fill="#ffffff" stroke="#bfbfbf" points="229,-.5 229,-19.5 273,-19.5 273,-.5 229,-.5"/>
<text text-anchor="middle" x="251" y="-7.5" font-family="Helvetica,sans-Serif" font-size="10.00" fill="#000000">vector</text>
</g>
<!-- Node10&#45;&gt;Node13 -->
<g id="edge13" class="edge">
<title>Node10&#45;&gt;Node13</title>
<path fill="none" stroke="#191970" d="M284.8583,-56.2455C279.1556,-48.4564 271.01,-37.3308 264.1375,-27.9439"/>
<polygon fill="#191970" stroke="#191970" points="266.7913,-25.6437 258.0598,-19.6427 261.1432,-29.7789 266.7913,-25.6437"/>
</g>
<!-- Node14 -->
<g id="node15" class="node">
<title>Node14</title>
<polygon fill="#ffffff" stroke="#bfbfbf" points="291.5,-.5 291.5,-19.5 374.5,-19.5 374.5,-.5 291.5,-.5"/>
<text text-anchor="middle" x="333" y="-7.5" font-family="Helvetica,sans-Serif" font-size="10.00" fill="#000000">unordered_map</text>
</g>
<!-- Node10&#45;&gt;Node14 -->
<g id="edge14" class="edge">
<title>Node10&#45;&gt;Node14</title>
<path fill="none" stroke="#191970" d="M299.1417,-56.2455C304.8444,-48.4564 312.99,-37.3308 319.8625,-27.9439"/>
<polygon fill="#191970" stroke="#191970" points="322.8568,-29.7789 325.9402,-19.6427 317.2087,-25.6437 322.8568,-29.7789"/>
</g>
<!-- Node15 -->
<g id="node16" class="node">
<title>Node15</title>
<polygon fill="#ffffff" stroke="#bfbfbf" points="393,-.5 393,-19.5 471,-19.5 471,-.5 393,-.5"/>
<text text-anchor="middle" x="432" y="-7.5" font-family="Helvetica,sans-Serif" font-size="10.00" fill="#000000">unordered_set</text>
</g>
<!-- Node10&#45;&gt;Node15 -->
<g id="edge15" class="edge">
<title>Node10&#45;&gt;Node15</title>
<path fill="none" stroke="#191970" d="M316.0669,-56.3733C338.8428,-47.2629 373.2344,-33.5062 398.649,-23.3404"/>
<polygon fill="#191970" stroke="#191970" points="400.2623,-26.4648 408.2472,-19.5011 397.6625,-19.9654 400.2623,-26.4648"/>
</g>
<!-- Node17 -->
<g id="node18" class="node">
<title>Node17</title>
<polygon fill="#ffffff" stroke="#bfbfbf" points="489,-.5 489,-19.5 587,-19.5 587,-.5 489,-.5"/>
<text text-anchor="middle" x="538" y="-7.5" font-family="Helvetica,sans-Serif" font-size="10.00" fill="#000000">nlohmann/json.hpp</text>
</g>
<!-- Node16&#45;&gt;Node17 -->
<g id="edge17" class="edge">
<title>Node16&#45;&gt;Node17</title>
<path fill="none" stroke="#191970" d="M486.7996,-56.2455C495.8678,-48.0549 509.0206,-36.1749 519.7245,-26.5069"/>
<polygon fill="#191970" stroke="#191970" points="522.2491,-28.9429 527.3242,-19.6427 517.5571,-23.7482 522.2491,-28.9429"/>
</g>
<!-- Node18&#45;&gt;Node3 -->
<g id="edge19" class="edge">
<title>Node18&#45;&gt;Node3</title>
<path fill="none" stroke="#191970" d="M144,-224.2455C144,-216.9382 144,-206.6944 144,-197.7046"/>
<polygon fill="#191970" stroke="#191970" points="147.5001,-197.6426 144,-187.6427 140.5001,-197.6427 147.5001,-197.6426"/>
</g>
<!-- Node19&#45;&gt;Node3 -->
<g id="edge21" class="edge">
<title>Node19&#45;&gt;Node3</title>
<path fill="none" stroke="#191970" d="M226.5813,-224.2455C210.9515,-215.4928 187.7981,-202.527 169.9815,-192.5496"/>
<polygon fill="#191970" stroke="#191970" points="171.6543,-189.475 161.2191,-187.6427 168.234,-195.5825 171.6543,-189.475"/>
</g>
</g>
</svg>
