<?xml version="1.0" encoding="UTF-8" standalone="no"?>
<!DOCTYPE svg PUBLIC "-//W3C//DTD SVG 1.1//EN"
 "http://www.w3.org/Graphics/SVG/1.1/DTD/svg11.dtd">
<!-- Generated by graphviz version 2.40.1 (20161225.0304)
 -->
<!-- Title: src/pybind/filters/py_filter.h Pages: 1 -->
<svg width="403pt" height="229pt"
 viewBox="0.00 0.00 403.00 229.00" xmlns="http://www.w3.org/2000/svg" xmlns:xlink="http://www.w3.org/1999/xlink">
<g id="graph0" class="graph" transform="scale(1 1) rotate(0) translate(4 225)">
<title>src/pybind/filters/py_filter.h</title>
<polygon fill="#ffffff" stroke="transparent" points="-4,4 -4,-225 399,-225 399,4 -4,4"/>
<!-- Node22 -->
<g id="node1" class="node">
<title>Node22</title>
<polygon fill="#bfbfbf" stroke="#000000" points="162,-190.5 162,-220.5 251,-220.5 251,-190.5 162,-190.5"/>
<text text-anchor="start" x="170" y="-208.5" font-family="Helvetica,sans-Serif" font-size="10.00" fill="#000000">src/pybind/filters</text>
<text text-anchor="middle" x="206.5" y="-197.5" font-family="Helvetica,sans-Serif" font-size="10.00" fill="#000000">/py_filter.h</text>
</g>
<!-- Node23 -->
<g id="node2" class="node">
<title>Node23</title>
<g id="a_node2"><a xlink:href="pybind_8h.html" target="_top" xlink:title="This file includes all the header files containing definitions of functions to bind C++ and Python...">
<polygon fill="#ffffff" stroke="#000000" points="135.5,-62 135.5,-81 205.5,-81 205.5,-62 135.5,-62"/>
<text text-anchor="middle" x="170.5" y="-69" font-family="Helvetica,sans-Serif" font-size="10.00" fill="#000000">src/pybind.h</text>
</a>
</g>
</g>
<!-- Node22&#45;&gt;Node23 -->
<g id="edge1" class="edge">
<title>Node22&#45;&gt;Node23</title>
<path fill="none" stroke="#191970" d="M198.4236,-180.6273C195.7825,-172.2064 192.9105,-162.7256 190.5,-154 183.2792,-127.8615 176.1063,-96.6775 172.6427,-81.204"/>
<polygon fill="#191970" stroke="#191970" points="195.118,-181.7822 201.484,-190.2512 201.7889,-179.6608 195.118,-181.7822"/>
</g>
<!-- Node25 -->
<g id="node4" class="node">
<title>Node25</title>
<g id="a_node4"><a xlink:href="py__fil__comparison_8h.html" target="_top" xlink:title="This file is for binding FilComparison class to Python. ">
<polygon fill="#ffffff" stroke="#000000" points="35,-123.5 35,-153.5 142,-153.5 142,-123.5 35,-123.5"/>
<text text-anchor="start" x="43" y="-141.5" font-family="Helvetica,sans-Serif" font-size="10.00" fill="#000000">src/pybind/filters</text>
<text text-anchor="middle" x="88.5" y="-130.5" font-family="Helvetica,sans-Serif" font-size="10.00" fill="#000000">/py_fil_comparison.h</text>
</a>
</g>
</g>
<!-- Node22&#45;&gt;Node25 -->
<g id="edge3" class="edge">
<title>Node22&#45;&gt;Node25</title>
<path fill="none" stroke="#191970" d="M171.0227,-185.3561C153.135,-175.1995 131.7977,-163.0843 115.3014,-153.7177"/>
<polygon fill="#191970" stroke="#191970" points="169.5943,-188.5699 180.0185,-190.4639 173.0506,-182.4827 169.5943,-188.5699"/>
</g>
<!-- Node27 -->
<g id="node6" class="node">
<title>Node27</title>
<g id="a_node6"><a xlink:href="py__fil__set_8h.html" target="_top" xlink:title="This file is for binding FilSet class to Python. ">
<polygon fill="#ffffff" stroke="#000000" points="199,-123.5 199,-153.5 288,-153.5 288,-123.5 199,-123.5"/>
<text text-anchor="start" x="207" y="-141.5" font-family="Helvetica,sans-Serif" font-size="10.00" fill="#000000">src/pybind/filters</text>
<text text-anchor="middle" x="243.5" y="-130.5" font-family="Helvetica,sans-Serif" font-size="10.00" fill="#000000">/py_fil_set.h</text>
</a>
</g>
</g>
<!-- Node22&#45;&gt;Node27 -->
<g id="edge6" class="edge">
<title>Node22&#45;&gt;Node27</title>
<path fill="none" stroke="#191970" d="M219.7627,-181.4837C224.8897,-172.1996 230.6016,-161.8565 235.1374,-153.6432"/>
<polygon fill="#191970" stroke="#191970" points="216.6663,-179.8508 214.8959,-190.2967 222.794,-183.2348 216.6663,-179.8508"/>
</g>
<!-- Node29 -->
<g id="node8" class="node">
<title>Node29</title>
<g id="a_node8"><a xlink:href="py__filter_8cpp.html" target="_top" xlink:title="This file is for binding Filter class to Python. ">
<polygon fill="#ffffff" stroke="#000000" points="306,-123.5 306,-153.5 395,-153.5 395,-123.5 306,-123.5"/>
<text text-anchor="start" x="314" y="-141.5" font-family="Helvetica,sans-Serif" font-size="10.00" fill="#000000">src/pybind/filters</text>
<text text-anchor="middle" x="350.5" y="-130.5" font-family="Helvetica,sans-Serif" font-size="10.00" fill="#000000">/py_filter.cpp</text>
</a>
</g>
</g>
<!-- Node22&#45;&gt;Node29 -->
<g id="edge9" class="edge">
<title>Node22&#45;&gt;Node29</title>
<path fill="none" stroke="#191970" d="M248.0017,-186.1902C270.1856,-175.8685 297.1081,-163.3421 317.7932,-153.7177"/>
<polygon fill="#191970" stroke="#191970" points="246.4066,-183.072 238.8164,-190.4639 249.3596,-189.4187 246.4066,-183.072"/>
</g>
<!-- Node24 -->
<g id="node3" class="node">
<title>Node24</title>
<g id="a_node3"><a xlink:href="ppap4lmp_8cpp.html" target="_top" xlink:title="This file has no implementation, only includes a header file to bind C++ and Python. ">
<polygon fill="#ffffff" stroke="#000000" points="123.5,-.5 123.5,-19.5 217.5,-19.5 217.5,-.5 123.5,-.5"/>
<text text-anchor="middle" x="170.5" y="-7.5" font-family="Helvetica,sans-Serif" font-size="10.00" fill="#000000">src/ppap4lmp.cpp</text>
</a>
</g>
</g>
<!-- Node23&#45;&gt;Node24 -->
<g id="edge2" class="edge">
<title>Node23&#45;&gt;Node24</title>
<path fill="none" stroke="#191970" d="M170.5,-51.7462C170.5,-41.0519 170.5,-28.314 170.5,-19.7449"/>
<polygon fill="#191970" stroke="#191970" points="167.0001,-51.8906 170.5,-61.8906 174.0001,-51.8907 167.0001,-51.8906"/>
</g>
<!-- Node25&#45;&gt;Node23 -->
<g id="edge4" class="edge">
<title>Node25&#45;&gt;Node23</title>
<path fill="none" stroke="#191970" d="M114.9643,-116.8767C129.7489,-104.7967 147.4301,-90.3498 158.8059,-81.055"/>
<polygon fill="#191970" stroke="#191970" points="112.6363,-114.2591 107.1071,-123.2967 117.0654,-119.6797 112.6363,-114.2591"/>
</g>
<!-- Node26 -->
<g id="node5" class="node">
<title>Node26</title>
<g id="a_node5"><a xlink:href="py__fil__comparison_8cpp.html" target="_top" xlink:title="This file is for binding FilComparison class to Python. ">
<polygon fill="#ffffff" stroke="#000000" points="0,-56.5 0,-86.5 117,-86.5 117,-56.5 0,-56.5"/>
<text text-anchor="start" x="8" y="-74.5" font-family="Helvetica,sans-Serif" font-size="10.00" fill="#000000">src/pybind/filters</text>
<text text-anchor="middle" x="58.5" y="-63.5" font-family="Helvetica,sans-Serif" font-size="10.00" fill="#000000">/py_fil_comparison.cpp</text>
</a>
</g>
</g>
<!-- Node25&#45;&gt;Node26 -->
<g id="edge5" class="edge">
<title>Node25&#45;&gt;Node26</title>
<path fill="none" stroke="#191970" d="M77.486,-113.9021C73.3968,-104.7696 68.8815,-94.6854 65.2805,-86.6432"/>
<polygon fill="#191970" stroke="#191970" points="74.4114,-115.6002 81.6925,-123.2967 80.8002,-112.7395 74.4114,-115.6002"/>
</g>
<!-- Node27&#45;&gt;Node23 -->
<g id="edge7" class="edge">
<title>Node27&#45;&gt;Node23</title>
<path fill="none" stroke="#191970" d="M219.2065,-116.2032C206.1974,-104.2634 190.8503,-90.1776 180.9106,-81.055"/>
<polygon fill="#191970" stroke="#191970" points="217.2011,-119.1134 226.9352,-123.2967 221.9344,-113.9562 217.2011,-119.1134"/>
</g>
<!-- Node28 -->
<g id="node7" class="node">
<title>Node28</title>
<g id="a_node7"><a xlink:href="py__fil__set_8cpp.html" target="_top" xlink:title="This file is for binding FilSet class to Python. ">
<polygon fill="#ffffff" stroke="#000000" points="224,-56.5 224,-86.5 313,-86.5 313,-56.5 224,-56.5"/>
<text text-anchor="start" x="232" y="-74.5" font-family="Helvetica,sans-Serif" font-size="10.00" fill="#000000">src/pybind/filters</text>
<text text-anchor="middle" x="268.5" y="-63.5" font-family="Helvetica,sans-Serif" font-size="10.00" fill="#000000">/py_fil_set.cpp</text>
</a>
</g>
</g>
<!-- Node27&#45;&gt;Node28 -->
<g id="edge8" class="edge">
<title>Node27&#45;&gt;Node28</title>
<path fill="none" stroke="#191970" d="M252.6783,-113.9021C256.086,-104.7696 259.8487,-94.6854 262.8496,-86.6432"/>
<polygon fill="#191970" stroke="#191970" points="249.3897,-112.704 249.1729,-123.2967 255.948,-115.1512 249.3897,-112.704"/>
</g>
</g>
</svg>
