<?xml version="1.0" encoding="UTF-8" standalone="no"?>
<!DOCTYPE svg PUBLIC "-//W3C//DTD SVG 1.1//EN"
 "http://www.w3.org/Graphics/SVG/1.1/DTD/svg11.dtd">
<!-- Generated by graphviz version 2.40.1 (20161225.0304)
 -->
<!-- Title: src/pybind/py_element.cpp Pages: 1 -->
<!--zoomable 532 -->
<svg id="main" version="1.1" xmlns="http://www.w3.org/2000/svg" xmlns:xlink="http://www.w3.org/1999/xlink" xml:space="preserve" onload="init(evt)">
<style type="text/css"><![CDATA[
.edge:hover path { stroke: red; }
.edge:hover polygon { stroke: red; fill: red; }
]]></style>
<script type="text/javascript"><![CDATA[
var edges = document.getElementsByTagName('g');
if (edges && edges.length) {
  for (var i=0;i<edges.length;i++) {
    if (edges[i].id.substr(0,4)=='edge') {
      edges[i].setAttribute('class','edge');
    }
  }
}
]]></script>
        <defs>
                <circle id="rim" cx="0" cy="0" r="7"/>
                <circle id="rim2" cx="0" cy="0" r="3.5"/>
                <g id="zoomPlus">
                        <use xlink:href="#rim" fill="#404040">
                                <set attributeName="fill" to="#808080" begin="zoomplus.mouseover" end="zoomplus.mouseout"/>
                        </use>
                        <path d="M-4,0h8M0,-4v8" fill="none" stroke="white" stroke-width="1.5" pointer-events="none"/>
                </g>
                <g id="zoomMin">
                        <use xlink:href="#rim" fill="#404040">
                                <set attributeName="fill" to="#808080" begin="zoomminus.mouseover" end="zoomminus.mouseout"/>
                        </use>
                        <path d="M-4,0h8" fill="none" stroke="white" stroke-width="1.5" pointer-events="none"/>
                </g>
                <g id="dirArrow">
                        <path fill="none" stroke="white" stroke-width="1.5" d="M0,-3.0v7 M-2.5,-0.5L0,-3.0L2.5,-0.5"/>
                </g>
               <g id="resetDef">
                       <use xlink:href="#rim2" fill="#404040">
                               <set attributeName="fill" to="#808080" begin="reset.mouseover" end="reset.mouseout"/>
                       </use>
               </g>
        </defs>

<script type="text/javascript">
var viewWidth = 496;
var viewHeight = 532;
var sectionId = 'dynsection-0';
</script>
<script xlink:href="svgpan.js"/>
<svg id="graph" class="graph">
<g id="viewport">
<title>src/pybind/py_element.cpp</title>
<polygon fill="#ffffff" stroke="transparent" points="-4,4 -4,-528 492,-528 492,4 -4,4"/>
<!-- Node0 -->
<g id="node1" class="node">
<title>Node0</title>
<polygon fill="#bfbfbf" stroke="#000000" points="144,-504.5 144,-523.5 278,-523.5 278,-504.5 144,-504.5"/>
<text text-anchor="middle" x="211" y="-511.5" font-family="Helvetica,sans-Serif" font-size="10.00" fill="#000000">src/pybind/py_element.cpp</text>
</g>
<!-- Node1 -->
<g id="node2" class="node">
<title>Node1</title>
<g id="a_node2"><a xlink:href="py__element_8h.html" target="_top" xlink:title="This file is for binding Element class to Python. ">
<polygon fill="#ffffff" stroke="#000000" points="37.5,-224.5 37.5,-243.5 112.5,-243.5 112.5,-224.5 37.5,-224.5"/>
<text text-anchor="middle" x="75" y="-231.5" font-family="Helvetica,sans-Serif" font-size="10.00" fill="#000000">py_element.h</text>
</a>
</g>
</g>
<!-- Node0&#45;&gt;Node1 -->
<g id="edge1" class="edge">
<title>Node0&#45;&gt;Node1</title>
<path fill="none" stroke="#191970" d="M187.8846,-504.4252C153.7872,-488.5793 94,-453.458 94,-402 94,-402 94,-402 94,-346 94,-313.2688 86.0148,-275.9052 80.3978,-253.6716"/>
<polygon fill="#191970" stroke="#191970" points="83.7289,-252.5763 77.8035,-243.7934 76.9585,-254.3545 83.7289,-252.5763"/>
</g>
<!-- Node17 -->
<g id="node18" class="node">
<title>Node17</title>
<g id="a_node18"><a xlink:href="updater_8h.html" target="_top" xlink:title="This file has a definition of Updater class, which is one of the cores of this program. ">
<polygon fill="#ffffff" stroke="#000000" points="228,-336.5 228,-355.5 316,-355.5 316,-336.5 228,-336.5"/>
<text text-anchor="middle" x="272" y="-343.5" font-family="Helvetica,sans-Serif" font-size="10.00" fill="#000000">../core/updater.h</text>
</a>
</g>
</g>
<!-- Node0&#45;&gt;Node17 -->
<g id="edge18" class="edge">
<title>Node0&#45;&gt;Node17</title>
<path fill="none" stroke="#191970" d="M204.0997,-504.2974C195.886,-491.5487 183.884,-468.3838 189,-448 195.8734,-420.614 201.3801,-414.063 219,-392 227.9099,-380.8434 239.7686,-370.2618 250.0093,-362.0666"/>
<polygon fill="#191970" stroke="#191970" points="252.3629,-364.6709 258.1307,-355.7836 248.0796,-359.1343 252.3629,-364.6709"/>
</g>
<!-- Node21 -->
<g id="node22" class="node">
<title>Node21</title>
<g id="a_node22"><a xlink:href="sta__copy_8h.html" target="_top" xlink:title="This file has a definition of StaCopy class, which is a subclass of Starter class. ">
<polygon fill="#ffffff" stroke="#000000" points="198,-448.5 198,-467.5 308,-467.5 308,-448.5 198,-448.5"/>
<text text-anchor="middle" x="253" y="-455.5" font-family="Helvetica,sans-Serif" font-size="10.00" fill="#000000">../starters/sta_copy.h</text>
</a>
</g>
</g>
<!-- Node0&#45;&gt;Node21 -->
<g id="edge26" class="edge">
<title>Node0&#45;&gt;Node21</title>
<path fill="none" stroke="#191970" d="M218.3158,-504.2455C224.2179,-496.3761 232.6742,-485.101 239.7594,-475.6542"/>
<polygon fill="#191970" stroke="#191970" points="242.568,-477.7427 245.768,-467.6427 236.9679,-473.5427 242.568,-477.7427"/>
</g>
<!-- Node23 -->
<g id="node24" class="node">
<title>Node23</title>
<g id="a_node24"><a xlink:href="sta__custom_8h.html" target="_top" xlink:title="This file has a definition of StaCustom class, which is a subclass of Starter class. ">
<polygon fill="#ffffff" stroke="#000000" points="326.5,-448.5 326.5,-467.5 447.5,-467.5 447.5,-448.5 326.5,-448.5"/>
<text text-anchor="middle" x="387" y="-455.5" font-family="Helvetica,sans-Serif" font-size="10.00" fill="#000000">../starters/sta_custom.h</text>
</a>
</g>
</g>
<!-- Node0&#45;&gt;Node23 -->
<g id="edge29" class="edge">
<title>Node0&#45;&gt;Node23</title>
<path fill="none" stroke="#191970" d="M241.2555,-504.3733C270.6483,-495.021 315.4292,-480.7725 347.5934,-470.5385"/>
<polygon fill="#191970" stroke="#191970" points="348.6713,-473.8685 357.1393,-467.5011 346.5488,-467.198 348.6713,-473.8685"/>
</g>
<!-- Node2 -->
<g id="node3" class="node">
<title>Node2</title>
<g id="a_node3"><a xlink:href="alias_2pybind_8h.html" target="_top" xlink:title="This file includes pybind11 and defines an alias for the namespace pybind11. ">
<polygon fill="#ffffff" stroke="#000000" points="36.5,-112.5 36.5,-131.5 113.5,-131.5 113.5,-112.5 36.5,-112.5"/>
<text text-anchor="middle" x="75" y="-119.5" font-family="Helvetica,sans-Serif" font-size="10.00" fill="#000000">alias/pybind.h</text>
</a>
</g>
</g>
<!-- Node1&#45;&gt;Node2 -->
<g id="edge2" class="edge">
<title>Node1&#45;&gt;Node2</title>
<path fill="none" stroke="#191970" d="M75,-224.4509C75,-206.184 75,-165.9553 75,-141.6976"/>
<polygon fill="#191970" stroke="#191970" points="78.5001,-141.5249 75,-131.5249 71.5001,-141.5249 78.5001,-141.5249"/>
</g>
<!-- Node4 -->
<g id="node5" class="node">
<title>Node4</title>
<g id="a_node5"><a xlink:href="element_8h.html" target="_top" xlink:title="This file has a definition of Element class, which is one of the cores of this program. ">
<polygon fill="#ffffff" stroke="#000000" points="197.5,-168.5 197.5,-187.5 278.5,-187.5 278.5,-168.5 197.5,-168.5"/>
<text text-anchor="middle" x="238" y="-175.5" font-family="Helvetica,sans-Serif" font-size="10.00" fill="#000000">core/element.h</text>
</a>
</g>
</g>
<!-- Node1&#45;&gt;Node4 -->
<g id="edge4" class="edge">
<title>Node1&#45;&gt;Node4</title>
<path fill="none" stroke="#191970" d="M103.0207,-224.3733C130.0078,-215.1016 171.0017,-201.0178 200.7311,-190.804"/>
<polygon fill="#191970" stroke="#191970" points="202.0248,-194.0605 210.3449,-187.5011 199.7503,-187.4403 202.0248,-194.0605"/>
</g>
<!-- Node3 -->
<g id="node4" class="node">
<title>Node3</title>
<polygon fill="#ffffff" stroke="#bfbfbf" points="0,-56.5 0,-75.5 106,-75.5 106,-56.5 0,-56.5"/>
<text text-anchor="middle" x="53" y="-63.5" font-family="Helvetica,sans-Serif" font-size="10.00" fill="#000000">pybind11/pybind11.h</text>
</g>
<!-- Node2&#45;&gt;Node3 -->
<g id="edge3" class="edge">
<title>Node2&#45;&gt;Node3</title>
<path fill="none" stroke="#191970" d="M71.1679,-112.2455C68.2341,-104.7776 64.0953,-94.2427 60.509,-85.1137"/>
<polygon fill="#191970" stroke="#191970" points="63.7024,-83.6704 56.7882,-75.6427 57.1871,-86.23 63.7024,-83.6704"/>
</g>
<!-- Node4&#45;&gt;Node2 -->
<g id="edge8" class="edge">
<title>Node4&#45;&gt;Node2</title>
<path fill="none" stroke="#191970" d="M209.9793,-168.3733C182.9922,-159.1016 141.9983,-145.0178 112.2689,-134.804"/>
<polygon fill="#191970" stroke="#191970" points="113.2497,-131.4403 102.6551,-131.5011 110.9752,-138.0605 113.2497,-131.4403"/>
</g>
<!-- Node5 -->
<g id="node6" class="node">
<title>Node5</title>
<polygon fill="#ffffff" stroke="#bfbfbf" points="356,-112.5 356,-131.5 400,-131.5 400,-112.5 356,-112.5"/>
<text text-anchor="middle" x="378" y="-119.5" font-family="Helvetica,sans-Serif" font-size="10.00" fill="#000000">omp.h</text>
</g>
<!-- Node4&#45;&gt;Node5 -->
<g id="edge5" class="edge">
<title>Node4&#45;&gt;Node5</title>
<path fill="none" stroke="#191970" d="M262.0669,-168.3733C285.2569,-159.0972 320.4888,-145.0045 346.0263,-134.7895"/>
<polygon fill="#191970" stroke="#191970" points="347.6478,-137.9106 355.6327,-130.9469 345.048,-131.4112 347.6478,-137.9106"/>
</g>
<!-- Node6 -->
<g id="node7" class="node">
<title>Node6</title>
<g id="a_node7"><a xlink:href="eigen_8h.html" target="_top" xlink:title="This file includes Eigen and defines some aliases for the Eigen&#45;Vector, Matrix and Array...">
<polygon fill="#ffffff" stroke="#000000" points="266.5,-112.5 266.5,-131.5 337.5,-131.5 337.5,-112.5 266.5,-112.5"/>
<text text-anchor="middle" x="302" y="-119.5" font-family="Helvetica,sans-Serif" font-size="10.00" fill="#000000">alias/eigen.h</text>
</a>
</g>
</g>
<!-- Node4&#45;&gt;Node6 -->
<g id="edge6" class="edge">
<title>Node4&#45;&gt;Node6</title>
<path fill="none" stroke="#191970" d="M249.1479,-168.2455C258.5087,-160.0549 272.0858,-148.1749 283.1349,-138.5069"/>
<polygon fill="#191970" stroke="#191970" points="285.7588,-140.8618 290.9798,-131.6427 281.1492,-135.5937 285.7588,-140.8618"/>
</g>
<!-- Node8 -->
<g id="node9" class="node">
<title>Node8</title>
<g id="a_node9"><a xlink:href="generator_8h.html" target="_top" xlink:title="This file has a definition of Generator class, which is one of the cores of this program. ">
<polygon fill="#ffffff" stroke="#000000" points="161.5,-112.5 161.5,-131.5 248.5,-131.5 248.5,-112.5 161.5,-112.5"/>
<text text-anchor="middle" x="205" y="-119.5" font-family="Helvetica,sans-Serif" font-size="10.00" fill="#000000">core/generator.h</text>
</a>
</g>
</g>
<!-- Node4&#45;&gt;Node8 -->
<g id="edge9" class="edge">
<title>Node4&#45;&gt;Node8</title>
<path fill="none" stroke="#191970" d="M232.2518,-168.2455C227.7565,-160.617 221.3752,-149.7881 215.9175,-140.5267"/>
<polygon fill="#191970" stroke="#191970" points="218.7747,-138.4811 210.6823,-131.6427 212.7439,-142.035 218.7747,-138.4811"/>
</g>
<!-- Node7 -->
<g id="node8" class="node">
<title>Node7</title>
<polygon fill="#ffffff" stroke="#bfbfbf" points="288,-56.5 288,-75.5 360,-75.5 360,-56.5 288,-56.5"/>
<text text-anchor="middle" x="324" y="-63.5" font-family="Helvetica,sans-Serif" font-size="10.00" fill="#000000">Eigen/Dense</text>
</g>
<!-- Node6&#45;&gt;Node7 -->
<g id="edge7" class="edge">
<title>Node6&#45;&gt;Node7</title>
<path fill="none" stroke="#191970" d="M305.8321,-112.2455C308.7659,-104.7776 312.9047,-94.2427 316.491,-85.1137"/>
<polygon fill="#191970" stroke="#191970" points="319.8129,-86.23 320.2118,-75.6427 313.2976,-83.6704 319.8129,-86.23"/>
</g>
<!-- Node9 -->
<g id="node10" class="node">
<title>Node9</title>
<g id="a_node10"><a xlink:href="std_8h.html" target="_top" xlink:title="This file includes a part of C++ Standard Template Library and defines aliases for them...">
<polygon fill="#ffffff" stroke="#000000" points="208,-56.5 208,-75.5 270,-75.5 270,-56.5 208,-56.5"/>
<text text-anchor="middle" x="239" y="-63.5" font-family="Helvetica,sans-Serif" font-size="10.00" fill="#000000">alias/std.h</text>
</a>
</g>
</g>
<!-- Node8&#45;&gt;Node9 -->
<g id="edge10" class="edge">
<title>Node8&#45;&gt;Node9</title>
<path fill="none" stroke="#191970" d="M210.9223,-112.2455C215.6027,-104.5367 222.2673,-93.5598 227.9289,-84.2348"/>
<polygon fill="#191970" stroke="#191970" points="230.9475,-86.007 233.1455,-75.6427 224.9639,-82.3741 230.9475,-86.007"/>
</g>
<!-- Node15 -->
<g id="node16" class="node">
<title>Node15</title>
<g id="a_node16"><a xlink:href="json_8h.html" target="_top" xlink:title="This file includes nlohmann/json and defines an alias for a JSON class. ">
<polygon fill="#ffffff" stroke="#000000" points="124,-56.5 124,-75.5 190,-75.5 190,-56.5 124,-56.5"/>
<text text-anchor="middle" x="157" y="-63.5" font-family="Helvetica,sans-Serif" font-size="10.00" fill="#000000">alias/json.h</text>
</a>
</g>
</g>
<!-- Node8&#45;&gt;Node15 -->
<g id="edge16" class="edge">
<title>Node8&#45;&gt;Node15</title>
<path fill="none" stroke="#191970" d="M196.639,-112.2455C189.825,-104.2958 180.0319,-92.8706 171.8848,-83.3656"/>
<polygon fill="#191970" stroke="#191970" points="174.4305,-80.9575 165.2651,-75.6427 169.1157,-85.513 174.4305,-80.9575"/>
</g>
<!-- Node10 -->
<g id="node11" class="node">
<title>Node10</title>
<polygon fill="#ffffff" stroke="#bfbfbf" points="436,-.5 436,-19.5 488,-19.5 488,-.5 436,-.5"/>
<text text-anchor="middle" x="462" y="-7.5" font-family="Helvetica,sans-Serif" font-size="10.00" fill="#000000">memory</text>
</g>
<!-- Node9&#45;&gt;Node10 -->
<g id="edge11" class="edge">
<title>Node9&#45;&gt;Node10</title>
<path fill="none" stroke="#191970" d="M270.004,-58.2283C273.0432,-57.4727 276.081,-56.7199 279,-56 341.6456,-40.5504 359.8678,-37.5656 425.6032,-20.3015"/>
<polygon fill="#191970" stroke="#191970" points="426.8821,-23.5839 435.6576,-17.6475 425.0955,-16.8157 426.8821,-23.5839"/>
</g>
<!-- Node11 -->
<g id="node12" class="node">
<title>Node11</title>
<polygon fill="#ffffff" stroke="#bfbfbf" points="116.5,-.5 116.5,-19.5 157.5,-19.5 157.5,-.5 116.5,-.5"/>
<text text-anchor="middle" x="137" y="-7.5" font-family="Helvetica,sans-Serif" font-size="10.00" fill="#000000">string</text>
</g>
<!-- Node9&#45;&gt;Node11 -->
<g id="edge12" class="edge">
<title>Node9&#45;&gt;Node11</title>
<path fill="none" stroke="#191970" d="M221.233,-56.2455C205.2905,-47.4928 181.6741,-34.527 163.5011,-24.5496"/>
<polygon fill="#191970" stroke="#191970" points="165.0137,-21.3873 154.5634,-19.6427 161.6448,-27.5233 165.0137,-21.3873"/>
</g>
<!-- Node12 -->
<g id="node13" class="node">
<title>Node12</title>
<polygon fill="#ffffff" stroke="#bfbfbf" points="176,-.5 176,-19.5 220,-19.5 220,-.5 176,-.5"/>
<text text-anchor="middle" x="198" y="-7.5" font-family="Helvetica,sans-Serif" font-size="10.00" fill="#000000">vector</text>
</g>
<!-- Node9&#45;&gt;Node12 -->
<g id="edge13" class="edge">
<title>Node9&#45;&gt;Node12</title>
<path fill="none" stroke="#191970" d="M231.8583,-56.2455C226.1556,-48.4564 218.01,-37.3308 211.1375,-27.9439"/>
<polygon fill="#191970" stroke="#191970" points="213.7913,-25.6437 205.0598,-19.6427 208.1432,-29.7789 213.7913,-25.6437"/>
</g>
<!-- Node13 -->
<g id="node14" class="node">
<title>Node13</title>
<polygon fill="#ffffff" stroke="#bfbfbf" points="238.5,-.5 238.5,-19.5 321.5,-19.5 321.5,-.5 238.5,-.5"/>
<text text-anchor="middle" x="280" y="-7.5" font-family="Helvetica,sans-Serif" font-size="10.00" fill="#000000">unordered_map</text>
</g>
<!-- Node9&#45;&gt;Node13 -->
<g id="edge14" class="edge">
<title>Node9&#45;&gt;Node13</title>
<path fill="none" stroke="#191970" d="M246.1417,-56.2455C251.8444,-48.4564 259.99,-37.3308 266.8625,-27.9439"/>
<polygon fill="#191970" stroke="#191970" points="269.8568,-29.7789 272.9402,-19.6427 264.2087,-25.6437 269.8568,-29.7789"/>
</g>
<!-- Node14 -->
<g id="node15" class="node">
<title>Node14</title>
<polygon fill="#ffffff" stroke="#bfbfbf" points="340,-.5 340,-19.5 418,-19.5 418,-.5 340,-.5"/>
<text text-anchor="middle" x="379" y="-7.5" font-family="Helvetica,sans-Serif" font-size="10.00" fill="#000000">unordered_set</text>
</g>
<!-- Node9&#45;&gt;Node14 -->
<g id="edge15" class="edge">
<title>Node9&#45;&gt;Node14</title>
<path fill="none" stroke="#191970" d="M263.0669,-56.3733C285.8428,-47.2629 320.2344,-33.5062 345.649,-23.3404"/>
<polygon fill="#191970" stroke="#191970" points="347.2623,-26.4648 355.2472,-19.5011 344.6625,-19.9654 347.2623,-26.4648"/>
</g>
<!-- Node16 -->
<g id="node17" class="node">
<title>Node16</title>
<polygon fill="#ffffff" stroke="#bfbfbf" points="0,-.5 0,-19.5 98,-19.5 98,-.5 0,-.5"/>
<text text-anchor="middle" x="49" y="-7.5" font-family="Helvetica,sans-Serif" font-size="10.00" fill="#000000">nlohmann/json.hpp</text>
</g>
<!-- Node15&#45;&gt;Node16 -->
<g id="edge17" class="edge">
<title>Node15&#45;&gt;Node16</title>
<path fill="none" stroke="#191970" d="M138.1878,-56.2455C121.1527,-47.4125 95.8425,-34.2887 76.5319,-24.2758"/>
<polygon fill="#191970" stroke="#191970" points="78.0853,-21.1388 67.5966,-19.6427 74.863,-27.353 78.0853,-21.1388"/>
</g>
<!-- Node17&#45;&gt;Node5 -->
<g id="edge19" class="edge">
<title>Node17&#45;&gt;Node5</title>
<path fill="none" stroke="#191970" d="M287.9958,-336.4262C300.3691,-328.23 317.0231,-315.3396 327,-300 360.0683,-249.157 372.0956,-176.5726 376.1346,-141.9099"/>
<polygon fill="#191970" stroke="#191970" points="379.6437,-142.0078 377.2169,-131.6947 372.6827,-141.2702 379.6437,-142.0078"/>
</g>
<!-- Node18 -->
<g id="node19" class="node">
<title>Node18</title>
<g id="a_node19"><a xlink:href="generators_8h.html" target="_top" xlink:title="This file includes all the header files of subclasses of Generator class. ">
<polygon fill="#ffffff" stroke="#000000" points="226,-280.5 226,-299.5 318,-299.5 318,-280.5 226,-280.5"/>
<text text-anchor="middle" x="272" y="-287.5" font-family="Helvetica,sans-Serif" font-size="10.00" fill="#000000">core/generators.h</text>
</a>
</g>
</g>
<!-- Node17&#45;&gt;Node18 -->
<g id="edge20" class="edge">
<title>Node17&#45;&gt;Node18</title>
<path fill="none" stroke="#191970" d="M272,-336.2455C272,-328.9382 272,-318.6944 272,-309.7046"/>
<polygon fill="#191970" stroke="#191970" points="275.5001,-309.6426 272,-299.6427 268.5001,-309.6427 275.5001,-309.6426"/>
</g>
<!-- Node18&#45;&gt;Node4 -->
<g id="edge21" class="edge">
<title>Node18&#45;&gt;Node4</title>
<path fill="none" stroke="#191970" d="M288.0641,-280.3936C306.7484,-267.9346 333.5313,-245.2722 321,-224 312.2054,-209.071 296.6283,-198.6447 281.3258,-191.541"/>
<polygon fill="#191970" stroke="#191970" points="282.469,-188.224 271.8965,-187.5368 279.7329,-194.6672 282.469,-188.224"/>
</g>
<!-- Node19 -->
<g id="node20" class="node">
<title>Node19</title>
<g id="a_node20"><a xlink:href="gen__dict_8h.html" target="_top" xlink:title="This file has a definition of GenDict class. ">
<polygon fill="#ffffff" stroke="#000000" points="130.5,-224.5 130.5,-243.5 213.5,-243.5 213.5,-224.5 130.5,-224.5"/>
<text text-anchor="middle" x="172" y="-231.5" font-family="Helvetica,sans-Serif" font-size="10.00" fill="#000000">core/gen_dict.h</text>
</a>
</g>
</g>
<!-- Node18&#45;&gt;Node19 -->
<g id="edge22" class="edge">
<title>Node18&#45;&gt;Node19</title>
<path fill="none" stroke="#191970" d="M254.5813,-280.2455C238.9515,-271.4928 215.7981,-258.527 197.9815,-248.5496"/>
<polygon fill="#191970" stroke="#191970" points="199.6543,-245.475 189.2191,-243.6427 196.234,-251.5825 199.6543,-245.475"/>
</g>
<!-- Node20 -->
<g id="node21" class="node">
<title>Node20</title>
<g id="a_node21"><a xlink:href="gen__list_8h.html" target="_top" xlink:title="This file has a definition of GenList class. ">
<polygon fill="#ffffff" stroke="#000000" points="232,-224.5 232,-243.5 312,-243.5 312,-224.5 232,-224.5"/>
<text text-anchor="middle" x="272" y="-231.5" font-family="Helvetica,sans-Serif" font-size="10.00" fill="#000000">core/gen_list.h</text>
</a>
</g>
</g>
<!-- Node18&#45;&gt;Node20 -->
<g id="edge24" class="edge">
<title>Node18&#45;&gt;Node20</title>
<path fill="none" stroke="#191970" d="M272,-280.2455C272,-272.9382 272,-262.6944 272,-253.7046"/>
<polygon fill="#191970" stroke="#191970" points="275.5001,-253.6426 272,-243.6427 268.5001,-253.6427 275.5001,-253.6426"/>
</g>
<!-- Node19&#45;&gt;Node4 -->
<g id="edge23" class="edge">
<title>Node19&#45;&gt;Node4</title>
<path fill="none" stroke="#191970" d="M183.4963,-224.2455C193.2442,-215.9746 207.4259,-203.9416 218.8798,-194.2232"/>
<polygon fill="#191970" stroke="#191970" points="221.2747,-196.7813 226.6354,-187.6427 216.7459,-191.4437 221.2747,-196.7813"/>
</g>
<!-- Node20&#45;&gt;Node4 -->
<g id="edge25" class="edge">
<title>Node20&#45;&gt;Node4</title>
<path fill="none" stroke="#191970" d="M266.0777,-224.2455C261.3973,-216.5367 254.7327,-205.5598 249.0711,-196.2348"/>
<polygon fill="#191970" stroke="#191970" points="252.0361,-194.3741 243.8545,-187.6427 246.0525,-198.007 252.0361,-194.3741"/>
</g>
<!-- Node22 -->
<g id="node23" class="node">
<title>Node22</title>
<g id="a_node23"><a xlink:href="starter_8h.html" target="_top" xlink:title="This file has a definition of Starter class, which is a subclass of Updater class. ">
<polygon fill="#ffffff" stroke="#000000" points="227.5,-392.5 227.5,-411.5 316.5,-411.5 316.5,-392.5 227.5,-392.5"/>
<text text-anchor="middle" x="272" y="-399.5" font-family="Helvetica,sans-Serif" font-size="10.00" fill="#000000">starters/starter.h</text>
</a>
</g>
</g>
<!-- Node21&#45;&gt;Node22 -->
<g id="edge27" class="edge">
<title>Node21&#45;&gt;Node22</title>
<path fill="none" stroke="#191970" d="M256.3095,-448.2455C258.8433,-440.7776 262.4177,-430.2427 265.515,-421.1137"/>
<polygon fill="#191970" stroke="#191970" points="268.8298,-422.237 268.7284,-411.6427 262.2009,-419.9879 268.8298,-422.237"/>
</g>
<!-- Node22&#45;&gt;Node17 -->
<g id="edge28" class="edge">
<title>Node22&#45;&gt;Node17</title>
<path fill="none" stroke="#191970" d="M272,-392.2455C272,-384.9382 272,-374.6944 272,-365.7046"/>
<polygon fill="#191970" stroke="#191970" points="275.5001,-365.6426 272,-355.6427 268.5001,-365.6427 275.5001,-365.6426"/>
</g>
<!-- Node23&#45;&gt;Node22 -->
<g id="edge30" class="edge">
<title>Node23&#45;&gt;Node22</title>
<path fill="none" stroke="#191970" d="M367.2308,-448.3733C348.8531,-439.4241 321.2688,-425.9917 300.5107,-415.8835"/>
<polygon fill="#191970" stroke="#191970" points="302.0343,-412.7325 291.5112,-411.5011 298.9696,-419.026 302.0343,-412.7325"/>
</g>
</g>
</svg>
        <g id="navigator" transform="translate(0 0)" fill="#404254">
                <rect fill="#f2f5e9" fill-opacity="0.5" stroke="#606060" stroke-width=".5" x="0" y="0" width="60" height="60"/>
                <use id="zoomplus" xlink:href="#zoomPlus" x="17" y="9" onmousedown="handleZoom(evt,'in')"/>
                <use id="zoomminus" xlink:href="#zoomMin" x="42" y="9" onmousedown="handleZoom(evt,'out')"/>
                <use id="reset" xlink:href="#resetDef" x="30" y="36" onmousedown="handleReset()"/>
                <g id="arrowUp" xlink:href="#dirArrow" transform="translate(30 24)" onmousedown="handlePan(0,-1)">
                  <use xlink:href="#rim" fill="#404040">
                        <set attributeName="fill" to="#808080" begin="arrowUp.mouseover" end="arrowUp.mouseout"/>
                  </use>
                  <path fill="none" stroke="white" stroke-width="1.5" d="M0,-3.0v7 M-2.5,-0.5L0,-3.0L2.5,-0.5"/>
                </g>
                <g id="arrowRight" xlink:href="#dirArrow" transform="rotate(90) translate(36 -43)" onmousedown="handlePan(1,0)">
                  <use xlink:href="#rim" fill="#404040">
                        <set attributeName="fill" to="#808080" begin="arrowRight.mouseover" end="arrowRight.mouseout"/>
                  </use>
                  <path fill="none" stroke="white" stroke-width="1.5" d="M0,-3.0v7 M-2.5,-0.5L0,-3.0L2.5,-0.5"/>
                </g>
                <g id="arrowDown" xlink:href="#dirArrow" transform="rotate(180) translate(-30 -48)" onmousedown="handlePan(0,1)">
                  <use xlink:href="#rim" fill="#404040">
                        <set attributeName="fill" to="#808080" begin="arrowDown.mouseover" end="arrowDown.mouseout"/>
                  </use>
                  <path fill="none" stroke="white" stroke-width="1.5" d="M0,-3.0v7 M-2.5,-0.5L0,-3.0L2.5,-0.5"/>
                </g>
                <g id="arrowLeft" xlink:href="#dirArrow" transform="rotate(270) translate(-36 17)" onmousedown="handlePan(-1,0)">
                  <use xlink:href="#rim" fill="#404040">
                        <set attributeName="fill" to="#808080" begin="arrowLeft.mouseover" end="arrowLeft.mouseout"/>
                  </use>
                  <path fill="none" stroke="white" stroke-width="1.5" d="M0,-3.0v7 M-2.5,-0.5L0,-3.0L2.5,-0.5"/>
                </g>
        </g>
        <svg viewBox="0 0 15 15" width="100%" height="30px" preserveAspectRatio="xMaxYMin meet">
         <g id="arrow_out" transform="scale(0.3 0.3)">
          <a xlink:href="py__element_8cpp__incl_org.svg" target="_base">
           <rect id="button" ry="5" rx="5" y="6" x="6" height="38" width="38"
                fill="#f2f5e9" fill-opacity="0.5" stroke="#606060" stroke-width="1.0"/>
           <path id="arrow"
             d="M 11.500037,31.436501 C 11.940474,20.09759 22.043105,11.32322 32.158766,21.979434 L 37.068811,17.246167 C 37.068811,17.246167 37.088388,32 37.088388,32 L 22.160133,31.978069 C 22.160133,31.978069 26.997745,27.140456 26.997745,27.140456 C 18.528582,18.264221 13.291696,25.230495 11.500037,31.436501 z"
             style="fill:#404040;"/>
          </a>
         </g>
        </svg>
</svg>
