<?xml version="1.0" encoding="UTF-8" standalone="no"?>
<!DOCTYPE svg PUBLIC "-//W3C//DTD SVG 1.1//EN"
 "http://www.w3.org/Graphics/SVG/1.1/DTD/svg11.dtd">
<!-- Generated by graphviz version 2.40.1 (20161225.0304)
 -->
<!-- Title: src/pybind/py_utils.h Pages: 1 -->
<svg width="226pt" height="140pt"
 viewBox="0.00 0.00 225.50 140.00" xmlns="http://www.w3.org/2000/svg" xmlns:xlink="http://www.w3.org/1999/xlink">
<g id="graph0" class="graph" transform="scale(1 1) rotate(0) translate(4 136)">
<title>src/pybind/py_utils.h</title>
<polygon fill="#ffffff" stroke="transparent" points="-4,4 -4,-136 221.5,-136 221.5,4 -4,4"/>
<!-- Node10 -->
<g id="node1" class="node">
<title>Node10</title>
<polygon fill="#bfbfbf" stroke="#000000" points="49.5,-112.5 49.5,-131.5 156.5,-131.5 156.5,-112.5 49.5,-112.5"/>
<text text-anchor="middle" x="103" y="-119.5" font-family="Helvetica,sans-Serif" font-size="10.00" fill="#000000">src/pybind/py_utils.h</text>
</g>
<!-- Node11 -->
<g id="node2" class="node">
<title>Node11</title>
<g id="a_node2"><a xlink:href="pybind_8h.html" target="_top" xlink:title="This file includes all the header files containing definitions of functions to bind C++ and Python...">
<polygon fill="#ffffff" stroke="#000000" points="12,-56.5 12,-75.5 82,-75.5 82,-56.5 12,-56.5"/>
<text text-anchor="middle" x="47" y="-63.5" font-family="Helvetica,sans-Serif" font-size="10.00" fill="#000000">src/pybind.h</text>
</a>
</g>
</g>
<!-- Node10&#45;&gt;Node11 -->
<g id="edge1" class="edge">
<title>Node10&#45;&gt;Node11</title>
<path fill="none" stroke="#191970" d="M86.0751,-105.0751C76.4402,-95.4402 64.7196,-83.7196 56.6427,-75.6427"/>
<polygon fill="#191970" stroke="#191970" points="83.6996,-107.6493 93.2455,-112.2455 88.6493,-102.6996 83.6996,-107.6493"/>
</g>
<!-- Node13 -->
<g id="node4" class="node">
<title>Node13</title>
<g id="a_node4"><a xlink:href="py__utils_8cpp.html" target="_top" xlink:title="This file is for binding utility functions to Python. ">
<polygon fill="#ffffff" stroke="#000000" points="100.5,-56.5 100.5,-75.5 217.5,-75.5 217.5,-56.5 100.5,-56.5"/>
<text text-anchor="middle" x="159" y="-63.5" font-family="Helvetica,sans-Serif" font-size="10.00" fill="#000000">src/pybind/py_utils.cpp</text>
</a>
</g>
</g>
<!-- Node10&#45;&gt;Node13 -->
<g id="edge3" class="edge">
<title>Node10&#45;&gt;Node13</title>
<path fill="none" stroke="#191970" d="M119.9249,-105.0751C129.5598,-95.4402 141.2804,-83.7196 149.3573,-75.6427"/>
<polygon fill="#191970" stroke="#191970" points="117.3507,-102.6996 112.7545,-112.2455 122.3004,-107.6493 117.3507,-102.6996"/>
</g>
<!-- Node12 -->
<g id="node3" class="node">
<title>Node12</title>
<g id="a_node3"><a xlink:href="ppap4lmp_8cpp.html" target="_top" xlink:title="This file has no implementation, only includes a header file to bind C++ and Python. ">
<polygon fill="#ffffff" stroke="#000000" points="0,-.5 0,-19.5 94,-19.5 94,-.5 0,-.5"/>
<text text-anchor="middle" x="47" y="-7.5" font-family="Helvetica,sans-Serif" font-size="10.00" fill="#000000">src/ppap4lmp.cpp</text>
</a>
</g>
</g>
<!-- Node11&#45;&gt;Node12 -->
<g id="edge2" class="edge">
<title>Node11&#45;&gt;Node12</title>
<path fill="none" stroke="#191970" d="M47,-46.1575C47,-37.155 47,-26.9199 47,-19.6427"/>
<polygon fill="#191970" stroke="#191970" points="43.5001,-46.2455 47,-56.2455 50.5001,-46.2456 43.5001,-46.2455"/>
</g>
</g>
</svg>
