<?xml version="1.0" encoding="UTF-8" standalone="no"?>
<!DOCTYPE svg PUBLIC "-//W3C//DTD SVG 1.1//EN"
 "http://www.w3.org/Graphics/SVG/1.1/DTD/svg11.dtd">
<!-- Generated by graphviz version 2.40.1 (20161225.0304)
 -->
<!-- Title: src/pybind/processors/py_pro_data.h Pages: 1 -->
<!--zoomable 498 -->
<svg id="main" version="1.1" xmlns="http://www.w3.org/2000/svg" xmlns:xlink="http://www.w3.org/1999/xlink" xml:space="preserve" onload="init(evt)">
<style type="text/css"><![CDATA[
.edge:hover path { stroke: red; }
.edge:hover polygon { stroke: red; fill: red; }
]]></style>
<script type="text/javascript"><![CDATA[
var edges = document.getElementsByTagName('g');
if (edges && edges.length) {
  for (var i=0;i<edges.length;i++) {
    if (edges[i].id.substr(0,4)=='edge') {
      edges[i].setAttribute('class','edge');
    }
  }
}
]]></script>
        <defs>
                <circle id="rim" cx="0" cy="0" r="7"/>
                <circle id="rim2" cx="0" cy="0" r="3.5"/>
                <g id="zoomPlus">
                        <use xlink:href="#rim" fill="#404040">
                                <set attributeName="fill" to="#808080" begin="zoomplus.mouseover" end="zoomplus.mouseout"/>
                        </use>
                        <path d="M-4,0h8M0,-4v8" fill="none" stroke="white" stroke-width="1.5" pointer-events="none"/>
                </g>
                <g id="zoomMin">
                        <use xlink:href="#rim" fill="#404040">
                                <set attributeName="fill" to="#808080" begin="zoomminus.mouseover" end="zoomminus.mouseout"/>
                        </use>
                        <path d="M-4,0h8" fill="none" stroke="white" stroke-width="1.5" pointer-events="none"/>
                </g>
                <g id="dirArrow">
                        <path fill="none" stroke="white" stroke-width="1.5" d="M0,-3.0v7 M-2.5,-0.5L0,-3.0L2.5,-0.5"/>
                </g>
               <g id="resetDef">
                       <use xlink:href="#rim2" fill="#404040">
                               <set attributeName="fill" to="#808080" begin="reset.mouseover" end="reset.mouseout"/>
                       </use>
               </g>
        </defs>

<script type="text/javascript">
var viewWidth = 496;
var viewHeight = 498;
var sectionId = 'dynsection-0';
</script>
<script xlink:href="svgpan.js"/>
<svg id="graph" class="graph">
<g id="viewport">
<title>src/pybind/processors/py_pro_data.h</title>
<polygon fill="#ffffff" stroke="transparent" points="-4,4 -4,-494 492,-494 492,4 -4,4"/>
<!-- Node0 -->
<g id="node1" class="node">
<title>Node0</title>
<polygon fill="#bfbfbf" stroke="#000000" points="216.5,-459.5 216.5,-489.5 329.5,-489.5 329.5,-459.5 216.5,-459.5"/>
<text text-anchor="start" x="224.5" y="-477.5" font-family="Helvetica,sans-Serif" font-size="10.00" fill="#000000">src/pybind/processors</text>
<text text-anchor="middle" x="273" y="-466.5" font-family="Helvetica,sans-Serif" font-size="10.00" fill="#000000">/py_pro_data.h</text>
</g>
<!-- Node1 -->
<g id="node2" class="node">
<title>Node1</title>
<g id="a_node2"><a xlink:href="pro__data_8h.html" target="_top" xlink:title="This file has a definition of ProData class, which is a subclass of Processor class. ">
<polygon fill="#ffffff" stroke="#000000" points="151.5,-398 151.5,-417 264.5,-417 264.5,-398 151.5,-398"/>
<text text-anchor="middle" x="208" y="-405" font-family="Helvetica,sans-Serif" font-size="10.00" fill="#000000">processors/pro_data.h</text>
</a>
</g>
</g>
<!-- Node0&#45;&gt;Node1 -->
<g id="edge1" class="edge">
<title>Node0&#45;&gt;Node1</title>
<path fill="none" stroke="#191970" d="M258.2505,-459.2967C248.1232,-448.8578 234.6788,-434.9997 224.2448,-424.2446"/>
<polygon fill="#191970" stroke="#191970" points="226.745,-421.7953 217.2697,-417.055 221.7208,-426.6695 226.745,-421.7953"/>
</g>
<!-- Node21 -->
<g id="node22" class="node">
<title>Node21</title>
<g id="a_node22"><a xlink:href="py__processor_8h.html" target="_top" xlink:title="This file is for binding Processor class to Python. ">
<polygon fill="#ffffff" stroke="#000000" points="283,-392.5 283,-422.5 393,-422.5 393,-392.5 283,-392.5"/>
<text text-anchor="start" x="291" y="-410.5" font-family="Helvetica,sans-Serif" font-size="10.00" fill="#000000">pybind/processors/py</text>
<text text-anchor="middle" x="338" y="-399.5" font-family="Helvetica,sans-Serif" font-size="10.00" fill="#000000">_processor.h</text>
</a>
</g>
</g>
<!-- Node0&#45;&gt;Node21 -->
<g id="edge23" class="edge">
<title>Node0&#45;&gt;Node21</title>
<path fill="none" stroke="#191970" d="M287.7495,-459.2967C296.1433,-450.6446 306.8157,-439.6438 316.1642,-430.0076"/>
<polygon fill="#191970" stroke="#191970" points="318.8578,-432.2577 323.3089,-422.6432 313.8336,-427.3835 318.8578,-432.2577"/>
</g>
<!-- Node2 -->
<g id="node3" class="node">
<title>Node2</title>
<g id="a_node3"><a xlink:href="processor_8h.html" target="_top" xlink:title="This file has a definition of Processor class, where an analysis process is programmed. ">
<polygon fill="#ffffff" stroke="#000000" points="160.5,-336.5 160.5,-355.5 279.5,-355.5 279.5,-336.5 160.5,-336.5"/>
<text text-anchor="middle" x="220" y="-343.5" font-family="Helvetica,sans-Serif" font-size="10.00" fill="#000000">processors/processor.h</text>
</a>
</g>
</g>
<!-- Node1&#45;&gt;Node2 -->
<g id="edge2" class="edge">
<title>Node1&#45;&gt;Node2</title>
<path fill="none" stroke="#191970" d="M209.875,-397.8906C211.5559,-389.276 214.074,-376.3708 216.1784,-365.5858"/>
<polygon fill="#191970" stroke="#191970" points="219.6186,-366.2301 218.0986,-355.7449 212.7482,-364.8895 219.6186,-366.2301"/>
</g>
<!-- Node3 -->
<g id="node4" class="node">
<title>Node3</title>
<g id="a_node4"><a xlink:href="generators_8h.html" target="_top" xlink:title="This file includes all the header files of subclasses of Generator class. ">
<polygon fill="#ffffff" stroke="#000000" points="174,-280.5 174,-299.5 266,-299.5 266,-280.5 174,-280.5"/>
<text text-anchor="middle" x="220" y="-287.5" font-family="Helvetica,sans-Serif" font-size="10.00" fill="#000000">core/generators.h</text>
</a>
</g>
</g>
<!-- Node2&#45;&gt;Node3 -->
<g id="edge3" class="edge">
<title>Node2&#45;&gt;Node3</title>
<path fill="none" stroke="#191970" d="M220,-336.2455C220,-328.9382 220,-318.6944 220,-309.7046"/>
<polygon fill="#191970" stroke="#191970" points="223.5001,-309.6426 220,-299.6427 216.5001,-309.6427 223.5001,-309.6426"/>
</g>
<!-- Node4 -->
<g id="node5" class="node">
<title>Node4</title>
<g id="a_node5"><a xlink:href="element_8h.html" target="_top" xlink:title="This file has a definition of Element class, which is one of the cores of this program. ">
<polygon fill="#ffffff" stroke="#000000" points="179.5,-168.5 179.5,-187.5 260.5,-187.5 260.5,-168.5 179.5,-168.5"/>
<text text-anchor="middle" x="220" y="-175.5" font-family="Helvetica,sans-Serif" font-size="10.00" fill="#000000">core/element.h</text>
</a>
</g>
</g>
<!-- Node3&#45;&gt;Node4 -->
<g id="edge4" class="edge">
<title>Node3&#45;&gt;Node4</title>
<path fill="none" stroke="#191970" d="M235.618,-280.4791C247.2472,-272.3972 262.2332,-259.6339 269,-244 277.2546,-224.9287 260.2644,-206.1991 244.0779,-193.593"/>
<polygon fill="#191970" stroke="#191970" points="245.9704,-190.6416 235.8247,-187.5896 241.8528,-196.3025 245.9704,-190.6416"/>
</g>
<!-- Node19 -->
<g id="node20" class="node">
<title>Node19</title>
<g id="a_node20"><a xlink:href="gen__dict_8h.html" target="_top" xlink:title="This file has a definition of GenDict class. ">
<polygon fill="#ffffff" stroke="#000000" points="78.5,-224.5 78.5,-243.5 161.5,-243.5 161.5,-224.5 78.5,-224.5"/>
<text text-anchor="middle" x="120" y="-231.5" font-family="Helvetica,sans-Serif" font-size="10.00" fill="#000000">core/gen_dict.h</text>
</a>
</g>
</g>
<!-- Node3&#45;&gt;Node19 -->
<g id="edge19" class="edge">
<title>Node3&#45;&gt;Node19</title>
<path fill="none" stroke="#191970" d="M202.5813,-280.2455C186.9515,-271.4928 163.7981,-258.527 145.9815,-248.5496"/>
<polygon fill="#191970" stroke="#191970" points="147.6543,-245.475 137.2191,-243.6427 144.234,-251.5825 147.6543,-245.475"/>
</g>
<!-- Node20 -->
<g id="node21" class="node">
<title>Node20</title>
<g id="a_node21"><a xlink:href="gen__list_8h.html" target="_top" xlink:title="This file has a definition of GenList class. ">
<polygon fill="#ffffff" stroke="#000000" points="180,-224.5 180,-243.5 260,-243.5 260,-224.5 180,-224.5"/>
<text text-anchor="middle" x="220" y="-231.5" font-family="Helvetica,sans-Serif" font-size="10.00" fill="#000000">core/gen_list.h</text>
</a>
</g>
</g>
<!-- Node3&#45;&gt;Node20 -->
<g id="edge21" class="edge">
<title>Node3&#45;&gt;Node20</title>
<path fill="none" stroke="#191970" d="M220,-280.2455C220,-272.9382 220,-262.6944 220,-253.7046"/>
<polygon fill="#191970" stroke="#191970" points="223.5001,-253.6426 220,-243.6427 216.5001,-253.6427 223.5001,-253.6426"/>
</g>
<!-- Node5 -->
<g id="node6" class="node">
<title>Node5</title>
<polygon fill="#ffffff" stroke="#bfbfbf" points="130,-112.5 130,-131.5 174,-131.5 174,-112.5 130,-112.5"/>
<text text-anchor="middle" x="152" y="-119.5" font-family="Helvetica,sans-Serif" font-size="10.00" fill="#000000">omp.h</text>
</g>
<!-- Node4&#45;&gt;Node5 -->
<g id="edge5" class="edge">
<title>Node4&#45;&gt;Node5</title>
<path fill="none" stroke="#191970" d="M208.1553,-168.2455C198.112,-159.9746 183.5005,-147.9416 171.6996,-138.2232"/>
<polygon fill="#191970" stroke="#191970" points="173.6533,-135.298 163.709,-131.6427 169.2033,-140.7015 173.6533,-135.298"/>
</g>
<!-- Node6 -->
<g id="node7" class="node">
<title>Node6</title>
<g id="a_node7"><a xlink:href="eigen_8h.html" target="_top" xlink:title="This file includes Eigen and defines some aliases for the Eigen&#45;Vector, Matrix and Array...">
<polygon fill="#ffffff" stroke="#000000" points="38.5,-112.5 38.5,-131.5 109.5,-131.5 109.5,-112.5 38.5,-112.5"/>
<text text-anchor="middle" x="74" y="-119.5" font-family="Helvetica,sans-Serif" font-size="10.00" fill="#000000">alias/eigen.h</text>
</a>
</g>
</g>
<!-- Node4&#45;&gt;Node6 -->
<g id="edge6" class="edge">
<title>Node4&#45;&gt;Node6</title>
<path fill="none" stroke="#191970" d="M194.9017,-168.3733C171.0445,-159.2226 134.9665,-145.3844 108.429,-135.2057"/>
<polygon fill="#191970" stroke="#191970" points="109.361,-131.8145 98.7708,-131.5011 106.8541,-138.3503 109.361,-131.8145"/>
</g>
<!-- Node8 -->
<g id="node9" class="node">
<title>Node8</title>
<g id="a_node9"><a xlink:href="alias_2pybind_8h.html" target="_top" xlink:title="This file includes pybind11 and defines an alias for the namespace pybind11. ">
<polygon fill="#ffffff" stroke="#000000" points="299.5,-112.5 299.5,-131.5 376.5,-131.5 376.5,-112.5 299.5,-112.5"/>
<text text-anchor="middle" x="338" y="-119.5" font-family="Helvetica,sans-Serif" font-size="10.00" fill="#000000">alias/pybind.h</text>
</a>
</g>
</g>
<!-- Node4&#45;&gt;Node8 -->
<g id="edge8" class="edge">
<title>Node4&#45;&gt;Node8</title>
<path fill="none" stroke="#191970" d="M240.2849,-168.3733C259.1421,-159.4241 287.446,-145.9917 308.7455,-135.8835"/>
<polygon fill="#191970" stroke="#191970" points="310.4461,-138.9506 317.9798,-131.5011 307.4449,-132.6266 310.4461,-138.9506"/>
</g>
<!-- Node10 -->
<g id="node11" class="node">
<title>Node10</title>
<g id="a_node11"><a xlink:href="generator_8h.html" target="_top" xlink:title="This file has a definition of Generator class, which is one of the cores of this program. ">
<polygon fill="#ffffff" stroke="#000000" points="192.5,-112.5 192.5,-131.5 279.5,-131.5 279.5,-112.5 192.5,-112.5"/>
<text text-anchor="middle" x="236" y="-119.5" font-family="Helvetica,sans-Serif" font-size="10.00" fill="#000000">core/generator.h</text>
</a>
</g>
</g>
<!-- Node4&#45;&gt;Node10 -->
<g id="edge10" class="edge">
<title>Node4&#45;&gt;Node10</title>
<path fill="none" stroke="#191970" d="M222.787,-168.2455C224.8977,-160.8579 227.866,-150.4689 230.4547,-141.4087"/>
<polygon fill="#191970" stroke="#191970" points="233.863,-142.2195 233.245,-131.6427 227.1323,-140.2964 233.863,-142.2195"/>
</g>
<!-- Node7 -->
<g id="node8" class="node">
<title>Node7</title>
<polygon fill="#ffffff" stroke="#bfbfbf" points="34,-56.5 34,-75.5 106,-75.5 106,-56.5 34,-56.5"/>
<text text-anchor="middle" x="70" y="-63.5" font-family="Helvetica,sans-Serif" font-size="10.00" fill="#000000">Eigen/Dense</text>
</g>
<!-- Node6&#45;&gt;Node7 -->
<g id="edge7" class="edge">
<title>Node6&#45;&gt;Node7</title>
<path fill="none" stroke="#191970" d="M73.3033,-112.2455C72.7813,-104.9382 72.0496,-94.6944 71.4075,-85.7046"/>
<polygon fill="#191970" stroke="#191970" points="74.8924,-85.3679 70.6888,-75.6427 67.9102,-85.8667 74.8924,-85.3679"/>
</g>
<!-- Node9 -->
<g id="node10" class="node">
<title>Node9</title>
<polygon fill="#ffffff" stroke="#bfbfbf" points="288,-56.5 288,-75.5 394,-75.5 394,-56.5 288,-56.5"/>
<text text-anchor="middle" x="341" y="-63.5" font-family="Helvetica,sans-Serif" font-size="10.00" fill="#000000">pybind11/pybind11.h</text>
</g>
<!-- Node8&#45;&gt;Node9 -->
<g id="edge9" class="edge">
<title>Node8&#45;&gt;Node9</title>
<path fill="none" stroke="#191970" d="M338.5226,-112.2455C338.914,-104.9382 339.4628,-94.6944 339.9444,-85.7046"/>
<polygon fill="#191970" stroke="#191970" points="343.4434,-85.8156 340.4834,-75.6427 336.4534,-85.4411 343.4434,-85.8156"/>
</g>
<!-- Node11 -->
<g id="node12" class="node">
<title>Node11</title>
<g id="a_node12"><a xlink:href="std_8h.html" target="_top" xlink:title="This file includes a part of C++ Standard Template Library and defines aliases for them...">
<polygon fill="#ffffff" stroke="#000000" points="208,-56.5 208,-75.5 270,-75.5 270,-56.5 208,-56.5"/>
<text text-anchor="middle" x="239" y="-63.5" font-family="Helvetica,sans-Serif" font-size="10.00" fill="#000000">alias/std.h</text>
</a>
</g>
</g>
<!-- Node10&#45;&gt;Node11 -->
<g id="edge11" class="edge">
<title>Node10&#45;&gt;Node11</title>
<path fill="none" stroke="#191970" d="M236.5226,-112.2455C236.914,-104.9382 237.4628,-94.6944 237.9444,-85.7046"/>
<polygon fill="#191970" stroke="#191970" points="241.4434,-85.8156 238.4834,-75.6427 234.4534,-85.4411 241.4434,-85.8156"/>
</g>
<!-- Node17 -->
<g id="node18" class="node">
<title>Node17</title>
<g id="a_node18"><a xlink:href="json_8h.html" target="_top" xlink:title="This file includes nlohmann/json and defines an alias for a JSON class. ">
<polygon fill="#ffffff" stroke="#000000" points="124,-56.5 124,-75.5 190,-75.5 190,-56.5 124,-56.5"/>
<text text-anchor="middle" x="157" y="-63.5" font-family="Helvetica,sans-Serif" font-size="10.00" fill="#000000">alias/json.h</text>
</a>
</g>
</g>
<!-- Node10&#45;&gt;Node17 -->
<g id="edge17" class="edge">
<title>Node10&#45;&gt;Node17</title>
<path fill="none" stroke="#191970" d="M222.2393,-112.2455C210.3448,-103.814 192.935,-91.4729 179.0915,-81.6598"/>
<polygon fill="#191970" stroke="#191970" points="180.7854,-78.5704 170.6031,-75.6427 176.7372,-84.2811 180.7854,-78.5704"/>
</g>
<!-- Node12 -->
<g id="node13" class="node">
<title>Node12</title>
<polygon fill="#ffffff" stroke="#bfbfbf" points="436,-.5 436,-19.5 488,-19.5 488,-.5 436,-.5"/>
<text text-anchor="middle" x="462" y="-7.5" font-family="Helvetica,sans-Serif" font-size="10.00" fill="#000000">memory</text>
</g>
<!-- Node11&#45;&gt;Node12 -->
<g id="edge12" class="edge">
<title>Node11&#45;&gt;Node12</title>
<path fill="none" stroke="#191970" d="M270.004,-58.2283C273.0432,-57.4727 276.081,-56.7199 279,-56 341.6456,-40.5504 359.8678,-37.5656 425.6032,-20.3015"/>
<polygon fill="#191970" stroke="#191970" points="426.8821,-23.5839 435.6576,-17.6475 425.0955,-16.8157 426.8821,-23.5839"/>
</g>
<!-- Node13 -->
<g id="node14" class="node">
<title>Node13</title>
<polygon fill="#ffffff" stroke="#bfbfbf" points="116.5,-.5 116.5,-19.5 157.5,-19.5 157.5,-.5 116.5,-.5"/>
<text text-anchor="middle" x="137" y="-7.5" font-family="Helvetica,sans-Serif" font-size="10.00" fill="#000000">string</text>
</g>
<!-- Node11&#45;&gt;Node13 -->
<g id="edge13" class="edge">
<title>Node11&#45;&gt;Node13</title>
<path fill="none" stroke="#191970" d="M221.233,-56.2455C205.2905,-47.4928 181.6741,-34.527 163.5011,-24.5496"/>
<polygon fill="#191970" stroke="#191970" points="165.0137,-21.3873 154.5634,-19.6427 161.6448,-27.5233 165.0137,-21.3873"/>
</g>
<!-- Node14 -->
<g id="node15" class="node">
<title>Node14</title>
<polygon fill="#ffffff" stroke="#bfbfbf" points="176,-.5 176,-19.5 220,-19.5 220,-.5 176,-.5"/>
<text text-anchor="middle" x="198" y="-7.5" font-family="Helvetica,sans-Serif" font-size="10.00" fill="#000000">vector</text>
</g>
<!-- Node11&#45;&gt;Node14 -->
<g id="edge14" class="edge">
<title>Node11&#45;&gt;Node14</title>
<path fill="none" stroke="#191970" d="M231.8583,-56.2455C226.1556,-48.4564 218.01,-37.3308 211.1375,-27.9439"/>
<polygon fill="#191970" stroke="#191970" points="213.7913,-25.6437 205.0598,-19.6427 208.1432,-29.7789 213.7913,-25.6437"/>
</g>
<!-- Node15 -->
<g id="node16" class="node">
<title>Node15</title>
<polygon fill="#ffffff" stroke="#bfbfbf" points="238.5,-.5 238.5,-19.5 321.5,-19.5 321.5,-.5 238.5,-.5"/>
<text text-anchor="middle" x="280" y="-7.5" font-family="Helvetica,sans-Serif" font-size="10.00" fill="#000000">unordered_map</text>
</g>
<!-- Node11&#45;&gt;Node15 -->
<g id="edge15" class="edge">
<title>Node11&#45;&gt;Node15</title>
<path fill="none" stroke="#191970" d="M246.1417,-56.2455C251.8444,-48.4564 259.99,-37.3308 266.8625,-27.9439"/>
<polygon fill="#191970" stroke="#191970" points="269.8568,-29.7789 272.9402,-19.6427 264.2087,-25.6437 269.8568,-29.7789"/>
</g>
<!-- Node16 -->
<g id="node17" class="node">
<title>Node16</title>
<polygon fill="#ffffff" stroke="#bfbfbf" points="340,-.5 340,-19.5 418,-19.5 418,-.5 340,-.5"/>
<text text-anchor="middle" x="379" y="-7.5" font-family="Helvetica,sans-Serif" font-size="10.00" fill="#000000">unordered_set</text>
</g>
<!-- Node11&#45;&gt;Node16 -->
<g id="edge16" class="edge">
<title>Node11&#45;&gt;Node16</title>
<path fill="none" stroke="#191970" d="M263.0669,-56.3733C285.8428,-47.2629 320.2344,-33.5062 345.649,-23.3404"/>
<polygon fill="#191970" stroke="#191970" points="347.2623,-26.4648 355.2472,-19.5011 344.6625,-19.9654 347.2623,-26.4648"/>
</g>
<!-- Node18 -->
<g id="node19" class="node">
<title>Node18</title>
<polygon fill="#ffffff" stroke="#bfbfbf" points="0,-.5 0,-19.5 98,-19.5 98,-.5 0,-.5"/>
<text text-anchor="middle" x="49" y="-7.5" font-family="Helvetica,sans-Serif" font-size="10.00" fill="#000000">nlohmann/json.hpp</text>
</g>
<!-- Node17&#45;&gt;Node18 -->
<g id="edge18" class="edge">
<title>Node17&#45;&gt;Node18</title>
<path fill="none" stroke="#191970" d="M138.1878,-56.2455C121.1527,-47.4125 95.8425,-34.2887 76.5319,-24.2758"/>
<polygon fill="#191970" stroke="#191970" points="78.0853,-21.1388 67.5966,-19.6427 74.863,-27.353 78.0853,-21.1388"/>
</g>
<!-- Node19&#45;&gt;Node4 -->
<g id="edge20" class="edge">
<title>Node19&#45;&gt;Node4</title>
<path fill="none" stroke="#191970" d="M137.4187,-224.2455C153.0485,-215.4928 176.2019,-202.527 194.0185,-192.5496"/>
<polygon fill="#191970" stroke="#191970" points="195.766,-195.5825 202.7809,-187.6427 192.3457,-189.475 195.766,-195.5825"/>
</g>
<!-- Node20&#45;&gt;Node4 -->
<g id="edge22" class="edge">
<title>Node20&#45;&gt;Node4</title>
<path fill="none" stroke="#191970" d="M220,-224.2455C220,-216.9382 220,-206.6944 220,-197.7046"/>
<polygon fill="#191970" stroke="#191970" points="223.5001,-197.6426 220,-187.6427 216.5001,-197.6427 223.5001,-197.6426"/>
</g>
<!-- Node21&#45;&gt;Node2 -->
<g id="edge25" class="edge">
<title>Node21&#45;&gt;Node2</title>
<path fill="none" stroke="#191970" d="M309.134,-392.4554C290.3089,-382.644 265.889,-369.9167 247.3708,-360.2653"/>
<polygon fill="#191970" stroke="#191970" points="248.7713,-357.0484 238.2858,-355.5303 245.536,-363.2559 248.7713,-357.0484"/>
</g>
<!-- Node21&#45;&gt;Node8 -->
<g id="edge24" class="edge">
<title>Node21&#45;&gt;Node8</title>
<path fill="none" stroke="#191970" d="M338,-392.2899C338,-369.892 338,-326.7188 338,-290 338,-290 338,-290 338,-234 338,-201.7116 338,-164.1872 338,-141.8048"/>
<polygon fill="#191970" stroke="#191970" points="341.5001,-141.5883 338,-131.5884 334.5001,-141.5884 341.5001,-141.5883"/>
</g>
</g>
</svg>
        <g id="navigator" transform="translate(0 0)" fill="#404254">
                <rect fill="#f2f5e9" fill-opacity="0.5" stroke="#606060" stroke-width=".5" x="0" y="0" width="60" height="60"/>
                <use id="zoomplus" xlink:href="#zoomPlus" x="17" y="9" onmousedown="handleZoom(evt,'in')"/>
                <use id="zoomminus" xlink:href="#zoomMin" x="42" y="9" onmousedown="handleZoom(evt,'out')"/>
                <use id="reset" xlink:href="#resetDef" x="30" y="36" onmousedown="handleReset()"/>
                <g id="arrowUp" xlink:href="#dirArrow" transform="translate(30 24)" onmousedown="handlePan(0,-1)">
                  <use xlink:href="#rim" fill="#404040">
                        <set attributeName="fill" to="#808080" begin="arrowUp.mouseover" end="arrowUp.mouseout"/>
                  </use>
                  <path fill="none" stroke="white" stroke-width="1.5" d="M0,-3.0v7 M-2.5,-0.5L0,-3.0L2.5,-0.5"/>
                </g>
                <g id="arrowRight" xlink:href="#dirArrow" transform="rotate(90) translate(36 -43)" onmousedown="handlePan(1,0)">
                  <use xlink:href="#rim" fill="#404040">
                        <set attributeName="fill" to="#808080" begin="arrowRight.mouseover" end="arrowRight.mouseout"/>
                  </use>
                  <path fill="none" stroke="white" stroke-width="1.5" d="M0,-3.0v7 M-2.5,-0.5L0,-3.0L2.5,-0.5"/>
                </g>
                <g id="arrowDown" xlink:href="#dirArrow" transform="rotate(180) translate(-30 -48)" onmousedown="handlePan(0,1)">
                  <use xlink:href="#rim" fill="#404040">
                        <set attributeName="fill" to="#808080" begin="arrowDown.mouseover" end="arrowDown.mouseout"/>
                  </use>
                  <path fill="none" stroke="white" stroke-width="1.5" d="M0,-3.0v7 M-2.5,-0.5L0,-3.0L2.5,-0.5"/>
                </g>
                <g id="arrowLeft" xlink:href="#dirArrow" transform="rotate(270) translate(-36 17)" onmousedown="handlePan(-1,0)">
                  <use xlink:href="#rim" fill="#404040">
                        <set attributeName="fill" to="#808080" begin="arrowLeft.mouseover" end="arrowLeft.mouseout"/>
                  </use>
                  <path fill="none" stroke="white" stroke-width="1.5" d="M0,-3.0v7 M-2.5,-0.5L0,-3.0L2.5,-0.5"/>
                </g>
        </g>
        <svg viewBox="0 0 15 15" width="100%" height="30px" preserveAspectRatio="xMaxYMin meet">
         <g id="arrow_out" transform="scale(0.3 0.3)">
          <a xlink:href="py__pro__data_8h__incl_org.svg" target="_base">
           <rect id="button" ry="5" rx="5" y="6" x="6" height="38" width="38"
                fill="#f2f5e9" fill-opacity="0.5" stroke="#606060" stroke-width="1.0"/>
           <path id="arrow"
             d="M 11.500037,31.436501 C 11.940474,20.09759 22.043105,11.32322 32.158766,21.979434 L 37.068811,17.246167 C 37.068811,17.246167 37.088388,32 37.088388,32 L 22.160133,31.978069 C 22.160133,31.978069 26.997745,27.140456 26.997745,27.140456 C 18.528582,18.264221 13.291696,25.230495 11.500037,31.436501 z"
             style="fill:#404040;"/>
          </a>
         </g>
        </svg>
</svg>
