<?xml version="1.0" encoding="UTF-8" standalone="no"?>
<!DOCTYPE svg PUBLIC "-//W3C//DTD SVG 1.1//EN"
 "http://www.w3.org/Graphics/SVG/1.1/DTD/svg11.dtd">
<!-- Generated by graphviz version 2.40.1 (20161225.0304)
 -->
<!-- Title: src/pybind/py_element.h Pages: 1 -->
<svg width="602pt" height="252pt"
 viewBox="0.00 0.00 602.00 252.00" xmlns="http://www.w3.org/2000/svg" xmlns:xlink="http://www.w3.org/1999/xlink">
<g id="graph0" class="graph" transform="scale(1 1) rotate(0) translate(4 248)">
<title>src/pybind/py_element.h</title>
<polygon fill="#ffffff" stroke="transparent" points="-4,4 -4,-248 598,-248 598,4 -4,4"/>
<!-- Node0 -->
<g id="node1" class="node">
<title>Node0</title>
<polygon fill="#bfbfbf" stroke="#000000" points="30.5,-224.5 30.5,-243.5 153.5,-243.5 153.5,-224.5 30.5,-224.5"/>
<text text-anchor="middle" x="92" y="-231.5" font-family="Helvetica,sans-Serif" font-size="10.00" fill="#000000">src/pybind/py_element.h</text>
</g>
<!-- Node1 -->
<g id="node2" class="node">
<title>Node1</title>
<g id="a_node2"><a xlink:href="alias_2pybind_8h.html" target="_top" xlink:title="This file includes pybind11 and defines an alias for the namespace pybind11. ">
<polygon fill="#ffffff" stroke="#000000" points="14.5,-112.5 14.5,-131.5 91.5,-131.5 91.5,-112.5 14.5,-112.5"/>
<text text-anchor="middle" x="53" y="-119.5" font-family="Helvetica,sans-Serif" font-size="10.00" fill="#000000">alias/pybind.h</text>
</a>
</g>
</g>
<!-- Node0&#45;&gt;Node1 -->
<g id="edge1" class="edge">
<title>Node0&#45;&gt;Node1</title>
<path fill="none" stroke="#191970" d="M88.6749,-224.4509C82.2565,-206.0186 68.0517,-165.2254 59.631,-141.043"/>
<polygon fill="#191970" stroke="#191970" points="62.9106,-139.8177 56.3167,-131.5249 56.2999,-142.1197 62.9106,-139.8177"/>
</g>
<!-- Node3 -->
<g id="node4" class="node">
<title>Node3</title>
<g id="a_node4"><a xlink:href="element_8h.html" target="_top" xlink:title="This file has a definition of Element class, which is one of the cores of this program. ">
<polygon fill="#ffffff" stroke="#000000" points="91.5,-168.5 91.5,-187.5 172.5,-187.5 172.5,-168.5 91.5,-168.5"/>
<text text-anchor="middle" x="132" y="-175.5" font-family="Helvetica,sans-Serif" font-size="10.00" fill="#000000">core/element.h</text>
</a>
</g>
</g>
<!-- Node0&#45;&gt;Node3 -->
<g id="edge3" class="edge">
<title>Node0&#45;&gt;Node3</title>
<path fill="none" stroke="#191970" d="M98.9675,-224.2455C104.5311,-216.4564 112.478,-205.3308 119.1829,-195.9439"/>
<polygon fill="#191970" stroke="#191970" points="122.148,-197.8144 125.1124,-187.6427 116.4519,-193.7457 122.148,-197.8144"/>
</g>
<!-- Node2 -->
<g id="node3" class="node">
<title>Node2</title>
<polygon fill="#ffffff" stroke="#bfbfbf" points="0,-56.5 0,-75.5 106,-75.5 106,-56.5 0,-56.5"/>
<text text-anchor="middle" x="53" y="-63.5" font-family="Helvetica,sans-Serif" font-size="10.00" fill="#000000">pybind11/pybind11.h</text>
</g>
<!-- Node1&#45;&gt;Node2 -->
<g id="edge2" class="edge">
<title>Node1&#45;&gt;Node2</title>
<path fill="none" stroke="#191970" d="M53,-112.2455C53,-104.9382 53,-94.6944 53,-85.7046"/>
<polygon fill="#191970" stroke="#191970" points="56.5001,-85.6426 53,-75.6427 49.5001,-85.6427 56.5001,-85.6426"/>
</g>
<!-- Node3&#45;&gt;Node1 -->
<g id="edge7" class="edge">
<title>Node3&#45;&gt;Node1</title>
<path fill="none" stroke="#191970" d="M118.2393,-168.2455C106.3448,-159.814 88.935,-147.4729 75.0915,-137.6598"/>
<polygon fill="#191970" stroke="#191970" points="76.7854,-134.5704 66.6031,-131.6427 72.7372,-140.2811 76.7854,-134.5704"/>
</g>
<!-- Node4 -->
<g id="node5" class="node">
<title>Node4</title>
<polygon fill="#ffffff" stroke="#bfbfbf" points="110,-112.5 110,-131.5 154,-131.5 154,-112.5 110,-112.5"/>
<text text-anchor="middle" x="132" y="-119.5" font-family="Helvetica,sans-Serif" font-size="10.00" fill="#000000">omp.h</text>
</g>
<!-- Node3&#45;&gt;Node4 -->
<g id="edge4" class="edge">
<title>Node3&#45;&gt;Node4</title>
<path fill="none" stroke="#191970" d="M132,-168.2455C132,-160.9382 132,-150.6944 132,-141.7046"/>
<polygon fill="#191970" stroke="#191970" points="135.5001,-141.6426 132,-131.6427 128.5001,-141.6427 135.5001,-141.6426"/>
</g>
<!-- Node5 -->
<g id="node6" class="node">
<title>Node5</title>
<g id="a_node6"><a xlink:href="eigen_8h.html" target="_top" xlink:title="This file includes Eigen and defines some aliases for the Eigen&#45;Vector, Matrix and Array...">
<polygon fill="#ffffff" stroke="#000000" points="172.5,-112.5 172.5,-131.5 243.5,-131.5 243.5,-112.5 172.5,-112.5"/>
<text text-anchor="middle" x="208" y="-119.5" font-family="Helvetica,sans-Serif" font-size="10.00" fill="#000000">alias/eigen.h</text>
</a>
</g>
</g>
<!-- Node3&#45;&gt;Node5 -->
<g id="edge5" class="edge">
<title>Node3&#45;&gt;Node5</title>
<path fill="none" stroke="#191970" d="M145.2382,-168.2455C156.681,-159.814 173.4296,-147.4729 186.7475,-137.6598"/>
<polygon fill="#191970" stroke="#191970" points="188.9391,-140.3924 194.9135,-131.6427 184.7867,-134.757 188.9391,-140.3924"/>
</g>
<!-- Node7 -->
<g id="node8" class="node">
<title>Node7</title>
<g id="a_node8"><a xlink:href="generator_8h.html" target="_top" xlink:title="This file has a definition of Generator class, which is one of the cores of this program. ">
<polygon fill="#ffffff" stroke="#000000" points="261.5,-112.5 261.5,-131.5 348.5,-131.5 348.5,-112.5 261.5,-112.5"/>
<text text-anchor="middle" x="305" y="-119.5" font-family="Helvetica,sans-Serif" font-size="10.00" fill="#000000">core/generator.h</text>
</a>
</g>
</g>
<!-- Node3&#45;&gt;Node7 -->
<g id="edge8" class="edge">
<title>Node3&#45;&gt;Node7</title>
<path fill="none" stroke="#191970" d="M161.7398,-168.3733C190.507,-159.0613 234.27,-144.8953 265.8556,-134.671"/>
<polygon fill="#191970" stroke="#191970" points="267.2122,-137.9107 275.6483,-131.5011 265.0564,-131.251 267.2122,-137.9107"/>
</g>
<!-- Node6 -->
<g id="node7" class="node">
<title>Node6</title>
<polygon fill="#ffffff" stroke="#bfbfbf" points="172,-56.5 172,-75.5 244,-75.5 244,-56.5 172,-56.5"/>
<text text-anchor="middle" x="208" y="-63.5" font-family="Helvetica,sans-Serif" font-size="10.00" fill="#000000">Eigen/Dense</text>
</g>
<!-- Node5&#45;&gt;Node6 -->
<g id="edge6" class="edge">
<title>Node5&#45;&gt;Node6</title>
<path fill="none" stroke="#191970" d="M208,-112.2455C208,-104.9382 208,-94.6944 208,-85.7046"/>
<polygon fill="#191970" stroke="#191970" points="211.5001,-85.6426 208,-75.6427 204.5001,-85.6427 211.5001,-85.6426"/>
</g>
<!-- Node8 -->
<g id="node9" class="node">
<title>Node8</title>
<g id="a_node9"><a xlink:href="std_8h.html" target="_top" xlink:title="This file includes a part of C++ Standard Template Library and defines aliases for them...">
<polygon fill="#ffffff" stroke="#000000" points="268,-56.5 268,-75.5 330,-75.5 330,-56.5 268,-56.5"/>
<text text-anchor="middle" x="299" y="-63.5" font-family="Helvetica,sans-Serif" font-size="10.00" fill="#000000">alias/std.h</text>
</a>
</g>
</g>
<!-- Node7&#45;&gt;Node8 -->
<g id="edge9" class="edge">
<title>Node7&#45;&gt;Node8</title>
<path fill="none" stroke="#191970" d="M303.9549,-112.2455C303.172,-104.9382 302.0744,-94.6944 301.1112,-85.7046"/>
<polygon fill="#191970" stroke="#191970" points="304.5786,-85.2129 300.0331,-75.6427 297.6185,-85.9587 304.5786,-85.2129"/>
</g>
<!-- Node14 -->
<g id="node15" class="node">
<title>Node14</title>
<g id="a_node15"><a xlink:href="json_8h.html" target="_top" xlink:title="This file includes nlohmann/json and defines an alias for a JSON class. ">
<polygon fill="#ffffff" stroke="#000000" points="450,-56.5 450,-75.5 516,-75.5 516,-56.5 450,-56.5"/>
<text text-anchor="middle" x="483" y="-63.5" font-family="Helvetica,sans-Serif" font-size="10.00" fill="#000000">alias/json.h</text>
</a>
</g>
</g>
<!-- Node7&#45;&gt;Node14 -->
<g id="edge15" class="edge">
<title>Node7&#45;&gt;Node14</title>
<path fill="none" stroke="#191970" d="M335.5993,-112.3733C365.3261,-103.021 410.6159,-88.7725 443.1456,-78.5385"/>
<polygon fill="#191970" stroke="#191970" points="444.3113,-81.8409 452.8,-75.5011 442.2105,-75.1636 444.3113,-81.8409"/>
</g>
<!-- Node9 -->
<g id="node10" class="node">
<title>Node9</title>
<polygon fill="#ffffff" stroke="#bfbfbf" points="106,-.5 106,-19.5 158,-19.5 158,-.5 106,-.5"/>
<text text-anchor="middle" x="132" y="-7.5" font-family="Helvetica,sans-Serif" font-size="10.00" fill="#000000">memory</text>
</g>
<!-- Node8&#45;&gt;Node9 -->
<g id="edge10" class="edge">
<title>Node8&#45;&gt;Node9</title>
<path fill="none" stroke="#191970" d="M270.2917,-56.3733C241.972,-46.8769 198.5976,-32.3321 167.989,-22.0682"/>
<polygon fill="#191970" stroke="#191970" points="168.7321,-18.6259 158.1382,-18.7649 166.5066,-25.2627 168.7321,-18.6259"/>
</g>
<!-- Node10 -->
<g id="node11" class="node">
<title>Node10</title>
<polygon fill="#ffffff" stroke="#bfbfbf" points="176.5,-.5 176.5,-19.5 217.5,-19.5 217.5,-.5 176.5,-.5"/>
<text text-anchor="middle" x="197" y="-7.5" font-family="Helvetica,sans-Serif" font-size="10.00" fill="#000000">string</text>
</g>
<!-- Node8&#45;&gt;Node10 -->
<g id="edge11" class="edge">
<title>Node8&#45;&gt;Node10</title>
<path fill="none" stroke="#191970" d="M281.233,-56.2455C265.2905,-47.4928 241.6741,-34.527 223.5011,-24.5496"/>
<polygon fill="#191970" stroke="#191970" points="225.0137,-21.3873 214.5634,-19.6427 221.6448,-27.5233 225.0137,-21.3873"/>
</g>
<!-- Node11 -->
<g id="node12" class="node">
<title>Node11</title>
<polygon fill="#ffffff" stroke="#bfbfbf" points="236,-.5 236,-19.5 280,-19.5 280,-.5 236,-.5"/>
<text text-anchor="middle" x="258" y="-7.5" font-family="Helvetica,sans-Serif" font-size="10.00" fill="#000000">vector</text>
</g>
<!-- Node8&#45;&gt;Node11 -->
<g id="edge12" class="edge">
<title>Node8&#45;&gt;Node11</title>
<path fill="none" stroke="#191970" d="M291.8583,-56.2455C286.1556,-48.4564 278.01,-37.3308 271.1375,-27.9439"/>
<polygon fill="#191970" stroke="#191970" points="273.7913,-25.6437 265.0598,-19.6427 268.1432,-29.7789 273.7913,-25.6437"/>
</g>
<!-- Node12 -->
<g id="node13" class="node">
<title>Node12</title>
<polygon fill="#ffffff" stroke="#bfbfbf" points="298.5,-.5 298.5,-19.5 381.5,-19.5 381.5,-.5 298.5,-.5"/>
<text text-anchor="middle" x="340" y="-7.5" font-family="Helvetica,sans-Serif" font-size="10.00" fill="#000000">unordered_map</text>
</g>
<!-- Node8&#45;&gt;Node12 -->
<g id="edge13" class="edge">
<title>Node8&#45;&gt;Node12</title>
<path fill="none" stroke="#191970" d="M306.1417,-56.2455C311.8444,-48.4564 319.99,-37.3308 326.8625,-27.9439"/>
<polygon fill="#191970" stroke="#191970" points="329.8568,-29.7789 332.9402,-19.6427 324.2087,-25.6437 329.8568,-29.7789"/>
</g>
<!-- Node13 -->
<g id="node14" class="node">
<title>Node13</title>
<polygon fill="#ffffff" stroke="#bfbfbf" points="400,-.5 400,-19.5 478,-19.5 478,-.5 400,-.5"/>
<text text-anchor="middle" x="439" y="-7.5" font-family="Helvetica,sans-Serif" font-size="10.00" fill="#000000">unordered_set</text>
</g>
<!-- Node8&#45;&gt;Node13 -->
<g id="edge14" class="edge">
<title>Node8&#45;&gt;Node13</title>
<path fill="none" stroke="#191970" d="M323.0669,-56.3733C345.8428,-47.2629 380.2344,-33.5062 405.649,-23.3404"/>
<polygon fill="#191970" stroke="#191970" points="407.2623,-26.4648 415.2472,-19.5011 404.6625,-19.9654 407.2623,-26.4648"/>
</g>
<!-- Node15 -->
<g id="node16" class="node">
<title>Node15</title>
<polygon fill="#ffffff" stroke="#bfbfbf" points="496,-.5 496,-19.5 594,-19.5 594,-.5 496,-.5"/>
<text text-anchor="middle" x="545" y="-7.5" font-family="Helvetica,sans-Serif" font-size="10.00" fill="#000000">nlohmann/json.hpp</text>
</g>
<!-- Node14&#45;&gt;Node15 -->
<g id="edge16" class="edge">
<title>Node14&#45;&gt;Node15</title>
<path fill="none" stroke="#191970" d="M493.7996,-56.2455C502.8678,-48.0549 516.0206,-36.1749 526.7245,-26.5069"/>
<polygon fill="#191970" stroke="#191970" points="529.2491,-28.9429 534.3242,-19.6427 524.5571,-23.7482 529.2491,-28.9429"/>
</g>
</g>
</svg>
