<?xml version="1.0" encoding="UTF-8" standalone="no"?>
<!DOCTYPE svg PUBLIC "-//W3C//DTD SVG 1.1//EN"
 "http://www.w3.org/Graphics/SVG/1.1/DTD/svg11.dtd">
<!-- Generated by graphviz version 2.40.1 (20161225.0304)
 -->
<!-- Title: src/utils/pyargs_to_vec.cpp Pages: 1 -->
<svg width="504pt" height="207pt"
 viewBox="0.00 0.00 504.00 207.00" xmlns="http://www.w3.org/2000/svg" xmlns:xlink="http://www.w3.org/1999/xlink">
<g id="graph0" class="graph" transform="scale(1 1) rotate(0) translate(4 203)">
<title>src/utils/pyargs_to_vec.cpp</title>
<polygon fill="#ffffff" stroke="transparent" points="-4,4 -4,-203 500,-203 500,4 -4,4"/>
<!-- Node0 -->
<g id="node1" class="node">
<title>Node0</title>
<polygon fill="#bfbfbf" stroke="#000000" points="188.5,-168.5 188.5,-198.5 285.5,-198.5 285.5,-168.5 188.5,-168.5"/>
<text text-anchor="start" x="196.5" y="-186.5" font-family="Helvetica,sans-Serif" font-size="10.00" fill="#000000">src/utils/pyargs_to</text>
<text text-anchor="middle" x="237" y="-175.5" font-family="Helvetica,sans-Serif" font-size="10.00" fill="#000000">_vec.cpp</text>
</g>
<!-- Node1 -->
<g id="node2" class="node">
<title>Node1</title>
<g id="a_node2"><a xlink:href="pyargs__to__vec_8h.html" target="_top" xlink:title="This file has a definition of utils::pyargs_to_vec. ">
<polygon fill="#ffffff" stroke="#000000" points="192.5,-112.5 192.5,-131.5 281.5,-131.5 281.5,-112.5 192.5,-112.5"/>
<text text-anchor="middle" x="237" y="-119.5" font-family="Helvetica,sans-Serif" font-size="10.00" fill="#000000">pyargs_to_vec.h</text>
</a>
</g>
</g>
<!-- Node0&#45;&gt;Node1 -->
<g id="edge1" class="edge">
<title>Node0&#45;&gt;Node1</title>
<path fill="none" stroke="#191970" d="M237,-168.2977C237,-160.3834 237,-150.6043 237,-142.0759"/>
<polygon fill="#191970" stroke="#191970" points="240.5001,-141.8469 237,-131.8469 233.5001,-141.847 240.5001,-141.8469"/>
</g>
<!-- Node2 -->
<g id="node3" class="node">
<title>Node2</title>
<g id="a_node3"><a xlink:href="std_8h.html" target="_top" xlink:title="This file includes a part of C++ Standard Template Library and defines aliases for them...">
<polygon fill="#ffffff" stroke="#000000" points="162,-56.5 162,-75.5 224,-75.5 224,-56.5 162,-56.5"/>
<text text-anchor="middle" x="193" y="-63.5" font-family="Helvetica,sans-Serif" font-size="10.00" fill="#000000">alias/std.h</text>
</a>
</g>
</g>
<!-- Node1&#45;&gt;Node2 -->
<g id="edge2" class="edge">
<title>Node1&#45;&gt;Node2</title>
<path fill="none" stroke="#191970" d="M229.3358,-112.2455C223.1527,-104.3761 214.2937,-93.101 206.8711,-83.6542"/>
<polygon fill="#191970" stroke="#191970" points="209.5068,-81.3435 200.5764,-75.6427 204.0025,-85.6683 209.5068,-81.3435"/>
</g>
<!-- Node8 -->
<g id="node9" class="node">
<title>Node8</title>
<g id="a_node9"><a xlink:href="alias_2pybind_8h.html" target="_top" xlink:title="This file includes pybind11 and defines an alias for the namespace pybind11. ">
<polygon fill="#ffffff" stroke="#000000" points="323.5,-56.5 323.5,-75.5 400.5,-75.5 400.5,-56.5 323.5,-56.5"/>
<text text-anchor="middle" x="362" y="-63.5" font-family="Helvetica,sans-Serif" font-size="10.00" fill="#000000">alias/pybind.h</text>
</a>
</g>
</g>
<!-- Node1&#45;&gt;Node8 -->
<g id="edge8" class="edge">
<title>Node1&#45;&gt;Node8</title>
<path fill="none" stroke="#191970" d="M258.4883,-112.3733C278.644,-103.3435 308.988,-89.7494 331.618,-79.6111"/>
<polygon fill="#191970" stroke="#191970" points="333.0971,-82.7838 340.7921,-75.5011 330.2351,-76.3955 333.0971,-82.7838"/>
</g>
<!-- Node3 -->
<g id="node4" class="node">
<title>Node3</title>
<polygon fill="#ffffff" stroke="#bfbfbf" points="0,-.5 0,-19.5 52,-19.5 52,-.5 0,-.5"/>
<text text-anchor="middle" x="26" y="-7.5" font-family="Helvetica,sans-Serif" font-size="10.00" fill="#000000">memory</text>
</g>
<!-- Node2&#45;&gt;Node3 -->
<g id="edge3" class="edge">
<title>Node2&#45;&gt;Node3</title>
<path fill="none" stroke="#191970" d="M164.2917,-56.3733C135.972,-46.8769 92.5976,-32.3321 61.989,-22.0682"/>
<polygon fill="#191970" stroke="#191970" points="62.7321,-18.6259 52.1382,-18.7649 60.5066,-25.2627 62.7321,-18.6259"/>
</g>
<!-- Node4 -->
<g id="node5" class="node">
<title>Node4</title>
<polygon fill="#ffffff" stroke="#bfbfbf" points="70.5,-.5 70.5,-19.5 111.5,-19.5 111.5,-.5 70.5,-.5"/>
<text text-anchor="middle" x="91" y="-7.5" font-family="Helvetica,sans-Serif" font-size="10.00" fill="#000000">string</text>
</g>
<!-- Node2&#45;&gt;Node4 -->
<g id="edge4" class="edge">
<title>Node2&#45;&gt;Node4</title>
<path fill="none" stroke="#191970" d="M175.233,-56.2455C159.2905,-47.4928 135.6741,-34.527 117.5011,-24.5496"/>
<polygon fill="#191970" stroke="#191970" points="119.0137,-21.3873 108.5634,-19.6427 115.6448,-27.5233 119.0137,-21.3873"/>
</g>
<!-- Node5 -->
<g id="node6" class="node">
<title>Node5</title>
<polygon fill="#ffffff" stroke="#bfbfbf" points="130,-.5 130,-19.5 174,-19.5 174,-.5 130,-.5"/>
<text text-anchor="middle" x="152" y="-7.5" font-family="Helvetica,sans-Serif" font-size="10.00" fill="#000000">vector</text>
</g>
<!-- Node2&#45;&gt;Node5 -->
<g id="edge5" class="edge">
<title>Node2&#45;&gt;Node5</title>
<path fill="none" stroke="#191970" d="M185.8583,-56.2455C180.1556,-48.4564 172.01,-37.3308 165.1375,-27.9439"/>
<polygon fill="#191970" stroke="#191970" points="167.7913,-25.6437 159.0598,-19.6427 162.1432,-29.7789 167.7913,-25.6437"/>
</g>
<!-- Node6 -->
<g id="node7" class="node">
<title>Node6</title>
<polygon fill="#ffffff" stroke="#bfbfbf" points="192.5,-.5 192.5,-19.5 275.5,-19.5 275.5,-.5 192.5,-.5"/>
<text text-anchor="middle" x="234" y="-7.5" font-family="Helvetica,sans-Serif" font-size="10.00" fill="#000000">unordered_map</text>
</g>
<!-- Node2&#45;&gt;Node6 -->
<g id="edge6" class="edge">
<title>Node2&#45;&gt;Node6</title>
<path fill="none" stroke="#191970" d="M200.1417,-56.2455C205.8444,-48.4564 213.99,-37.3308 220.8625,-27.9439"/>
<polygon fill="#191970" stroke="#191970" points="223.8568,-29.7789 226.9402,-19.6427 218.2087,-25.6437 223.8568,-29.7789"/>
</g>
<!-- Node7 -->
<g id="node8" class="node">
<title>Node7</title>
<polygon fill="#ffffff" stroke="#bfbfbf" points="294,-.5 294,-19.5 372,-19.5 372,-.5 294,-.5"/>
<text text-anchor="middle" x="333" y="-7.5" font-family="Helvetica,sans-Serif" font-size="10.00" fill="#000000">unordered_set</text>
</g>
<!-- Node2&#45;&gt;Node7 -->
<g id="edge7" class="edge">
<title>Node2&#45;&gt;Node7</title>
<path fill="none" stroke="#191970" d="M217.0669,-56.3733C239.8428,-47.2629 274.2344,-33.5062 299.649,-23.3404"/>
<polygon fill="#191970" stroke="#191970" points="301.2623,-26.4648 309.2472,-19.5011 298.6625,-19.9654 301.2623,-26.4648"/>
</g>
<!-- Node9 -->
<g id="node10" class="node">
<title>Node9</title>
<polygon fill="#ffffff" stroke="#bfbfbf" points="390,-.5 390,-19.5 496,-19.5 496,-.5 390,-.5"/>
<text text-anchor="middle" x="443" y="-7.5" font-family="Helvetica,sans-Serif" font-size="10.00" fill="#000000">pybind11/pybind11.h</text>
</g>
<!-- Node8&#45;&gt;Node9 -->
<g id="edge9" class="edge">
<title>Node8&#45;&gt;Node9</title>
<path fill="none" stroke="#191970" d="M376.1091,-56.2455C388.4209,-47.7337 406.4958,-35.2375 420.7538,-25.3801"/>
<polygon fill="#191970" stroke="#191970" points="422.8174,-28.2085 429.0526,-19.6427 418.8366,-22.4506 422.8174,-28.2085"/>
</g>
</g>
</svg>
