<?xml version="1.0" encoding="UTF-8" standalone="no"?>
<!DOCTYPE svg PUBLIC "-//W3C//DTD SVG 1.1//EN"
 "http://www.w3.org/Graphics/SVG/1.1/DTD/svg11.dtd">
<!-- Generated by graphviz version 2.40.1 (20161225.0304)
 -->
<!-- Title: src/utils/runtime_error.h Pages: 1 -->
<svg width="3232pt" height="106pt"
 viewBox="0.00 0.00 3231.50 106.00" xmlns="http://www.w3.org/2000/svg" xmlns:xlink="http://www.w3.org/1999/xlink">
<g id="graph0" class="graph" transform="scale(1 1) rotate(0) translate(4 102)">
<title>src/utils/runtime_error.h</title>
<polygon fill="#ffffff" stroke="transparent" points="-4,4 -4,-102 3227.5,-102 3227.5,4 -4,4"/>
<!-- Node7 -->
<g id="node1" class="node">
<title>Node7</title>
<polygon fill="#bfbfbf" stroke="#000000" points="1523,-78.5 1523,-97.5 1642,-97.5 1642,-78.5 1523,-78.5"/>
<text text-anchor="middle" x="1582.5" y="-85.5" font-family="Helvetica,sans-Serif" font-size="10.00" fill="#000000">src/utils/runtime_error.h</text>
</g>
<!-- Node8 -->
<g id="node2" class="node">
<title>Node8</title>
<g id="a_node2"><a xlink:href="add__child__ids_8cpp.html" target="_top" xlink:title="This file has an implementation of AddChildIDs class, which is a subclass of Adder class...">
<polygon fill="#ffffff" stroke="#000000" points="0,-6 0,-36 107,-36 107,-6 0,-6"/>
<text text-anchor="start" x="8" y="-24" font-family="Helvetica,sans-Serif" font-size="10.00" fill="#000000">src/adders/add_child</text>
<text text-anchor="middle" x="53.5" y="-13" font-family="Helvetica,sans-Serif" font-size="10.00" fill="#000000">_ids.cpp</text>
</a>
</g>
</g>
<!-- Node7&#45;&gt;Node8 -->
<g id="edge1" class="edge">
<title>Node7&#45;&gt;Node8</title>
<path fill="none" stroke="#191970" d="M1512.4395,-87.0161C1239.2158,-83.0133 253.5145,-66.9667 115.5,-42 107.7837,-40.6041 99.7228,-38.4351 92.0637,-36.0112"/>
<polygon fill="#191970" stroke="#191970" points="1512.5726,-90.5183 1522.6226,-87.1646 1512.6747,-83.5191 1512.5726,-90.5183"/>
</g>
<!-- Node9 -->
<g id="node3" class="node">
<title>Node9</title>
<g id="a_node3"><a xlink:href="add__child__positions_8cpp.html" target="_top" xlink:title="This file has an implementation of AddChildPositions class, which is a subclass of Adder class...">
<polygon fill="#ffffff" stroke="#000000" points="125,-6 125,-36 232,-36 232,-6 125,-6"/>
<text text-anchor="start" x="133" y="-24" font-family="Helvetica,sans-Serif" font-size="10.00" fill="#000000">src/adders/add_child</text>
<text text-anchor="middle" x="178.5" y="-13" font-family="Helvetica,sans-Serif" font-size="10.00" fill="#000000">_positions.cpp</text>
</a>
</g>
</g>
<!-- Node7&#45;&gt;Node9 -->
<g id="edge2" class="edge">
<title>Node7&#45;&gt;Node9</title>
<path fill="none" stroke="#191970" d="M1512.5676,-86.7767C1254.8641,-82.1075 366.7214,-64.5304 241.5,-42 233.7841,-40.6117 225.7222,-38.4793 218.0425,-36.0959"/>
<polygon fill="#191970" stroke="#191970" points="1512.8554,-90.2824 1522.9169,-86.9634 1512.9817,-83.2835 1512.8554,-90.2824"/>
</g>
<!-- Node10 -->
<g id="node4" class="node">
<title>Node10</title>
<g id="a_node4"><a xlink:href="add__map_8cpp.html" target="_top" xlink:title="This file has an implementation of AddMap class, which is a subclass of Adder class. ">
<polygon fill="#ffffff" stroke="#000000" points="250.5,-11.5 250.5,-30.5 374.5,-30.5 374.5,-11.5 250.5,-11.5"/>
<text text-anchor="middle" x="312.5" y="-18.5" font-family="Helvetica,sans-Serif" font-size="10.00" fill="#000000">src/adders/add_map.cpp</text>
</a>
</g>
</g>
<!-- Node7&#45;&gt;Node10 -->
<g id="edge3" class="edge">
<title>Node7&#45;&gt;Node10</title>
<path fill="none" stroke="#191970" d="M1512.435,-87.6003C1290.2092,-85.9724 602.9137,-78.0758 383.5,-42 368.5329,-39.5391 352.2787,-34.8851 339.1039,-30.5827"/>
<polygon fill="#191970" stroke="#191970" points="1512.6373,-91.1017 1522.662,-87.6731 1512.6872,-84.1019 1512.6373,-91.1017"/>
</g>
<!-- Node11 -->
<g id="node5" class="node">
<title>Node11</title>
<g id="a_node5"><a xlink:href="add__rename_8cpp.html" target="_top" xlink:title="This file has an implementation of AddRename class, which is a subclass of Adder class. ">
<polygon fill="#ffffff" stroke="#000000" points="393,-11.5 393,-30.5 530,-30.5 530,-11.5 393,-11.5"/>
<text text-anchor="middle" x="461.5" y="-18.5" font-family="Helvetica,sans-Serif" font-size="10.00" fill="#000000">src/adders/add_rename.cpp</text>
</a>
</g>
</g>
<!-- Node7&#45;&gt;Node11 -->
<g id="edge4" class="edge">
<title>Node7&#45;&gt;Node11</title>
<path fill="none" stroke="#191970" d="M1512.7109,-86.9459C1310.5593,-83.5719 727.0164,-71.4838 538.5,-42 522.3459,-39.4735 504.7242,-34.8144 490.42,-30.5255"/>
<polygon fill="#191970" stroke="#191970" points="1512.849,-90.4485 1522.9054,-87.114 1512.9645,-83.4495 1512.849,-90.4485"/>
</g>
<!-- Node12 -->
<g id="node6" class="node">
<title>Node12</title>
<g id="a_node6"><a xlink:href="add__special__bonds_8cpp.html" target="_top" xlink:title="This file has an implementation of AddSpecialBonds class, which is a subclass of Adder class...">
<polygon fill="#ffffff" stroke="#000000" points="548,-6 548,-36 665,-36 665,-6 548,-6"/>
<text text-anchor="start" x="556" y="-24" font-family="Helvetica,sans-Serif" font-size="10.00" fill="#000000">src/adders/add_special</text>
<text text-anchor="middle" x="606.5" y="-13" font-family="Helvetica,sans-Serif" font-size="10.00" fill="#000000">_bonds.cpp</text>
</a>
</g>
</g>
<!-- Node7&#45;&gt;Node12 -->
<g id="edge5" class="edge">
<title>Node7&#45;&gt;Node12</title>
<path fill="none" stroke="#191970" d="M1512.6912,-86.7081C1328.9884,-82.9495 835.2436,-70.4332 674.5,-42 666.3482,-40.5581 657.8056,-38.4325 649.6351,-36.0798"/>
<polygon fill="#191970" stroke="#191970" points="1512.7046,-90.209 1522.7734,-86.9119 1512.8462,-83.2104 1512.7046,-90.209"/>
</g>
<!-- Node13 -->
<g id="node7" class="node">
<title>Node13</title>
<g id="a_node7"><a xlink:href="adder_8cpp.html" target="_top" xlink:title="This file has an implementation of Adder class, which is a subclass of Updater class. ">
<polygon fill="#ffffff" stroke="#000000" points="683.5,-11.5 683.5,-30.5 791.5,-30.5 791.5,-11.5 683.5,-11.5"/>
<text text-anchor="middle" x="737.5" y="-18.5" font-family="Helvetica,sans-Serif" font-size="10.00" fill="#000000">src/adders/adder.cpp</text>
</a>
</g>
</g>
<!-- Node7&#45;&gt;Node13 -->
<g id="edge6" class="edge">
<title>Node7&#45;&gt;Node13</title>
<path fill="none" stroke="#191970" d="M1512.9547,-86.2498C1347.8482,-81.717 935.9659,-68.0884 800.5,-42 787.2543,-39.4491 772.9567,-34.8435 761.3355,-30.5941"/>
<polygon fill="#191970" stroke="#191970" points="1512.9046,-89.7497 1522.996,-86.5226 1513.0948,-82.7523 1512.9046,-89.7497"/>
</g>
<!-- Node14 -->
<g id="node8" class="node">
<title>Node14</title>
<g id="a_node8"><a xlink:href="element_8cpp.html" target="_top" xlink:title="This file has an implementation of Element class, which is one of the cores of this program...">
<polygon fill="#ffffff" stroke="#000000" points="809.5,-11.5 809.5,-30.5 917.5,-30.5 917.5,-11.5 809.5,-11.5"/>
<text text-anchor="middle" x="863.5" y="-18.5" font-family="Helvetica,sans-Serif" font-size="10.00" fill="#000000">src/core/element.cpp</text>
</a>
</g>
</g>
<!-- Node7&#45;&gt;Node14 -->
<g id="edge7" class="edge">
<title>Node7&#45;&gt;Node14</title>
<path fill="none" stroke="#191970" d="M1512.7339,-85.3299C1367.5171,-79.4087 1037.091,-63.9438 926.5,-42 913.2689,-39.3746 898.9725,-34.7626 887.3483,-30.5282"/>
<polygon fill="#191970" stroke="#191970" points="1512.7306,-88.8326 1522.8639,-85.7397 1513.0136,-81.8383 1512.7306,-88.8326"/>
</g>
<!-- Node15 -->
<g id="node9" class="node">
<title>Node15</title>
<g id="a_node9"><a xlink:href="gen__dict_8cpp.html" target="_top" xlink:title="This file has an implementation of GenDict class. ">
<polygon fill="#ffffff" stroke="#000000" points="935.5,-11.5 935.5,-30.5 1045.5,-30.5 1045.5,-11.5 935.5,-11.5"/>
<text text-anchor="middle" x="990.5" y="-18.5" font-family="Helvetica,sans-Serif" font-size="10.00" fill="#000000">src/core/gen_dict.cpp</text>
</a>
</g>
</g>
<!-- Node7&#45;&gt;Node15 -->
<g id="edge8" class="edge">
<title>Node7&#45;&gt;Node15</title>
<path fill="none" stroke="#191970" d="M1512.6867,-83.919C1389.906,-76.408 1140.2058,-59.5501 1054.5,-42 1041.2108,-39.2787 1026.8243,-34.7119 1015.0635,-30.5307"/>
<polygon fill="#191970" stroke="#191970" points="1512.5402,-87.4165 1522.7343,-84.5301 1512.9653,-80.4294 1512.5402,-87.4165"/>
</g>
<!-- Node16 -->
<g id="node10" class="node">
<title>Node16</title>
<g id="a_node10"><a xlink:href="gen__list_8cpp.html" target="_top" xlink:title="This file has an implementation of GenList class. ">
<polygon fill="#ffffff" stroke="#000000" points="1064,-11.5 1064,-30.5 1171,-30.5 1171,-11.5 1064,-11.5"/>
<text text-anchor="middle" x="1117.5" y="-18.5" font-family="Helvetica,sans-Serif" font-size="10.00" fill="#000000">src/core/gen_list.cpp</text>
</a>
</g>
</g>
<!-- Node7&#45;&gt;Node16 -->
<g id="edge9" class="edge">
<title>Node7&#45;&gt;Node16</title>
<path fill="none" stroke="#191970" d="M1512.8961,-84.4335C1432.1635,-79.2868 1295.4396,-67.4424 1180.5,-42 1167.6674,-39.1595 1153.7707,-34.6844 1142.3024,-30.5939"/>
<polygon fill="#191970" stroke="#191970" points="1512.7437,-87.9307 1522.9415,-85.0577 1513.1779,-80.9442 1512.7437,-87.9307"/>
</g>
<!-- Node17 -->
<g id="node11" class="node">
<title>Node17</title>
<g id="a_node11"><a xlink:href="fil__comparison_8cpp.html" target="_top" xlink:title="This file has an implementation of FilComparison class, which is a subclass of Filter class...">
<polygon fill="#ffffff" stroke="#000000" points="1189.5,-11.5 1189.5,-30.5 1331.5,-30.5 1331.5,-11.5 1189.5,-11.5"/>
<text text-anchor="middle" x="1260.5" y="-18.5" font-family="Helvetica,sans-Serif" font-size="10.00" fill="#000000">src/filters/fil_comparison.cpp</text>
</a>
</g>
</g>
<!-- Node7&#45;&gt;Node17 -->
<g id="edge10" class="edge">
<title>Node7&#45;&gt;Node17</title>
<path fill="none" stroke="#191970" d="M1516.4146,-76.7056C1467.6236,-68.0596 1399.6948,-55.3786 1340.5,-42 1325.3733,-38.5812 1308.7715,-34.3095 1294.6314,-30.513"/>
<polygon fill="#191970" stroke="#191970" points="1516.0697,-80.1987 1526.5255,-78.4881 1517.2851,-73.305 1516.0697,-80.1987"/>
</g>
<!-- Node18 -->
<g id="node12" class="node">
<title>Node18</title>
<g id="a_node12"><a xlink:href="pro__distance__in__molecule_8cpp.html" target="_top" xlink:title="This file has an implementation of ProDistanceInMolecule class, which is a subclass of Processor clas...">
<polygon fill="#ffffff" stroke="#000000" points="1349.5,-6 1349.5,-36 1483.5,-36 1483.5,-6 1349.5,-6"/>
<text text-anchor="start" x="1357.5" y="-24" font-family="Helvetica,sans-Serif" font-size="10.00" fill="#000000">src/processors/pro</text>
<text text-anchor="middle" x="1416.5" y="-13" font-family="Helvetica,sans-Serif" font-size="10.00" fill="#000000">_distance_in_molecule.cpp</text>
</a>
</g>
</g>
<!-- Node7&#45;&gt;Node18 -->
<g id="edge11" class="edge">
<title>Node7&#45;&gt;Node18</title>
<path fill="none" stroke="#191970" d="M1549.1096,-74.5231C1521.5027,-63.3806 1482.3292,-47.5696 1453.7181,-36.0218"/>
<polygon fill="#191970" stroke="#191970" points="1548.1331,-77.9033 1558.7162,-78.4005 1550.7531,-71.4121 1548.1331,-77.9033"/>
</g>
<!-- Node19 -->
<g id="node13" class="node">
<title>Node19</title>
<g id="a_node13"><a xlink:href="pro__mean__square__displacement_8cpp.html" target="_top" xlink:title="This file has an implementation of ProMeanSquareDisplacement class, which is a subclass of Processor ...">
<polygon fill="#ffffff" stroke="#000000" points="1501.5,-6 1501.5,-36 1663.5,-36 1663.5,-6 1501.5,-6"/>
<text text-anchor="start" x="1509.5" y="-24" font-family="Helvetica,sans-Serif" font-size="10.00" fill="#000000">src/processors/pro</text>
<text text-anchor="middle" x="1582.5" y="-13" font-family="Helvetica,sans-Serif" font-size="10.00" fill="#000000">_mean_square_displacement.cpp</text>
</a>
</g>
</g>
<!-- Node7&#45;&gt;Node19 -->
<g id="edge12" class="edge">
<title>Node7&#45;&gt;Node19</title>
<path fill="none" stroke="#191970" d="M1582.5,-68.2758C1582.5,-57.9641 1582.5,-45.5437 1582.5,-36.0218"/>
<polygon fill="#191970" stroke="#191970" points="1579.0001,-68.4005 1582.5,-78.4005 1586.0001,-68.4006 1579.0001,-68.4005"/>
</g>
<!-- Node20 -->
<g id="node14" class="node">
<title>Node20</title>
<g id="a_node14"><a xlink:href="pro__radial__distribution__function__with__deformation_8cpp.html" target="_top" xlink:title="This file has an implementation of ProRadialDistributionFunctionWithDeformation class, which is a subclass of Processor class. ">
<polygon fill="#ffffff" stroke="#000000" points="1681.5,-.5 1681.5,-41.5 1835.5,-41.5 1835.5,-.5 1681.5,-.5"/>
<text text-anchor="start" x="1689.5" y="-29.5" font-family="Helvetica,sans-Serif" font-size="10.00" fill="#000000">src/processors/pro</text>
<text text-anchor="start" x="1689.5" y="-18.5" font-family="Helvetica,sans-Serif" font-size="10.00" fill="#000000">_radial_distribution</text>
<text text-anchor="middle" x="1758.5" y="-7.5" font-family="Helvetica,sans-Serif" font-size="10.00" fill="#000000">_function_with_deformation.cpp</text>
</a>
</g>
</g>
<!-- Node7&#45;&gt;Node20 -->
<g id="edge13" class="edge">
<title>Node7&#45;&gt;Node20</title>
<path fill="none" stroke="#191970" d="M1617.0895,-74.8324C1641.924,-65.3784 1675.8863,-52.4495 1704.3031,-41.6318"/>
<polygon fill="#191970" stroke="#191970" points="1615.817,-71.5717 1607.7165,-78.4005 1618.3075,-78.1137 1615.817,-71.5717"/>
</g>
<!-- Node21 -->
<g id="node15" class="node">
<title>Node21</title>
<g id="a_node15"><a xlink:href="pro__time__correlation__in__molecule_8cpp.html" target="_top" xlink:title="This file has an implementation of ProTimeCorrelationInMolecule class, which is a subclass of Process...">
<polygon fill="#ffffff" stroke="#000000" points="1853.5,-.5 1853.5,-41.5 1957.5,-41.5 1957.5,-.5 1853.5,-.5"/>
<text text-anchor="start" x="1861.5" y="-29.5" font-family="Helvetica,sans-Serif" font-size="10.00" fill="#000000">src/processors/pro</text>
<text text-anchor="start" x="1861.5" y="-18.5" font-family="Helvetica,sans-Serif" font-size="10.00" fill="#000000">_time_correlation_in</text>
<text text-anchor="middle" x="1905.5" y="-7.5" font-family="Helvetica,sans-Serif" font-size="10.00" fill="#000000">_molecule.cpp</text>
</a>
</g>
</g>
<!-- Node7&#45;&gt;Node21 -->
<g id="edge14" class="edge">
<title>Node7&#45;&gt;Node21</title>
<path fill="none" stroke="#191970" d="M1652.1233,-78.832C1705.2901,-71.0968 1780.1227,-58.622 1844.5,-42 1847.428,-41.244 1850.417,-40.4139 1853.4215,-39.5336"/>
<polygon fill="#191970" stroke="#191970" points="1651.523,-75.3822 1642.1222,-80.2683 1652.5182,-82.3111 1651.523,-75.3822"/>
</g>
<!-- Node22 -->
<g id="node16" class="node">
<title>Node22</title>
<g id="a_node16"><a xlink:href="pro__value__array_8cpp.html" target="_top" xlink:title="This file has an implementation of ProValueArray class, which is a subclass of Processor class...">
<polygon fill="#ffffff" stroke="#000000" points="1975.5,-6 1975.5,-36 2073.5,-36 2073.5,-6 1975.5,-6"/>
<text text-anchor="start" x="1983.5" y="-24" font-family="Helvetica,sans-Serif" font-size="10.00" fill="#000000">src/processors/pro</text>
<text text-anchor="middle" x="2024.5" y="-13" font-family="Helvetica,sans-Serif" font-size="10.00" fill="#000000">_value_array.cpp</text>
</a>
</g>
</g>
<!-- Node7&#45;&gt;Node22 -->
<g id="edge15" class="edge">
<title>Node7&#45;&gt;Node22</title>
<path fill="none" stroke="#191970" d="M1652.249,-84.4344C1729.841,-79.3651 1858.5013,-67.6639 1966.5,-42 1973.1682,-40.4154 1980.1273,-38.3106 1986.815,-36.0448"/>
<polygon fill="#191970" stroke="#191970" points="1651.8713,-80.9512 1642.1132,-85.0777 1652.3148,-87.9371 1651.8713,-80.9512"/>
</g>
<!-- Node23 -->
<g id="node17" class="node">
<title>Node23</title>
<g id="a_node17"><a xlink:href="sta__beads_8cpp.html" target="_top" xlink:title="This file has an implementation of StaBeads class, which is a subclass of Starter class...">
<polygon fill="#ffffff" stroke="#000000" points="2092,-11.5 2092,-30.5 2225,-30.5 2225,-11.5 2092,-11.5"/>
<text text-anchor="middle" x="2158.5" y="-18.5" font-family="Helvetica,sans-Serif" font-size="10.00" fill="#000000">src/starters/sta_beads.cpp</text>
</a>
</g>
</g>
<!-- Node7&#45;&gt;Node23 -->
<g id="edge16" class="edge">
<title>Node7&#45;&gt;Node23</title>
<path fill="none" stroke="#191970" d="M1652.5143,-85.4861C1749.7,-81.1073 1930.6747,-69.732 2082.5,-42 2097.986,-39.1714 2114.8954,-34.6463 2128.8243,-30.5198"/>
<polygon fill="#191970" stroke="#191970" points="1652.0668,-82.0023 1642.2299,-85.9373 1652.3737,-88.9955 1652.0668,-82.0023"/>
</g>
<!-- Node24 -->
<g id="node18" class="node">
<title>Node24</title>
<g id="a_node18"><a xlink:href="sta__copy_8cpp.html" target="_top" xlink:title="This file has an implementation of StaCopy class, which is a subclass of Starter class. ">
<polygon fill="#ffffff" stroke="#000000" points="2243.5,-11.5 2243.5,-30.5 2371.5,-30.5 2371.5,-11.5 2243.5,-11.5"/>
<text text-anchor="middle" x="2307.5" y="-18.5" font-family="Helvetica,sans-Serif" font-size="10.00" fill="#000000">src/starters/sta_copy.cpp</text>
</a>
</g>
</g>
<!-- Node7&#45;&gt;Node24 -->
<g id="edge17" class="edge">
<title>Node7&#45;&gt;Node24</title>
<path fill="none" stroke="#191970" d="M1652.309,-84.929C1796.7868,-78.2693 2124.2904,-61.5169 2234.5,-42 2249.5632,-39.3325 2265.9639,-34.7706 2279.3972,-30.5789"/>
<polygon fill="#191970" stroke="#191970" points="1652.0577,-81.4367 1642.2284,-85.3909 1652.3782,-88.4294 1652.0577,-81.4367"/>
</g>
<!-- Node25 -->
<g id="node19" class="node">
<title>Node25</title>
<g id="a_node19"><a xlink:href="sta__custom_8cpp.html" target="_top" xlink:title="This file has an implementation of StaCustom class, which is a subclass of Starter class...">
<polygon fill="#ffffff" stroke="#000000" points="2390,-11.5 2390,-30.5 2529,-30.5 2529,-11.5 2390,-11.5"/>
<text text-anchor="middle" x="2459.5" y="-18.5" font-family="Helvetica,sans-Serif" font-size="10.00" fill="#000000">src/starters/sta_custom.cpp</text>
</a>
</g>
</g>
<!-- Node7&#45;&gt;Node25 -->
<g id="edge18" class="edge">
<title>Node7&#45;&gt;Node25</title>
<path fill="none" stroke="#191970" d="M1652.4583,-85.784C1820.1155,-80.1798 2241.2491,-64.2862 2380.5,-42 2396.8955,-39.376 2414.8058,-34.7641 2429.4217,-30.5294"/>
<polygon fill="#191970" stroke="#191970" points="1652.1441,-82.2924 1642.2658,-86.1224 1652.3765,-89.2885 1652.1441,-82.2924"/>
</g>
<!-- Node26 -->
<g id="node20" class="node">
<title>Node26</title>
<g id="a_node20"><a xlink:href="sta__dump__atoms_8cpp.html" target="_top" xlink:title="This file has an implementation of StaDumpAtoms class, which is a subclass of Starter class...">
<polygon fill="#ffffff" stroke="#000000" points="2547.5,-6 2547.5,-36 2659.5,-36 2659.5,-6 2547.5,-6"/>
<text text-anchor="start" x="2555.5" y="-24" font-family="Helvetica,sans-Serif" font-size="10.00" fill="#000000">src/starters/sta_dump</text>
<text text-anchor="middle" x="2603.5" y="-13" font-family="Helvetica,sans-Serif" font-size="10.00" fill="#000000">_atoms.cpp</text>
</a>
</g>
</g>
<!-- Node7&#45;&gt;Node26 -->
<g id="edge19" class="edge">
<title>Node7&#45;&gt;Node26</title>
<path fill="none" stroke="#191970" d="M1652.3268,-87.0305C1842.7791,-84.0052 2368.3511,-73.0122 2538.5,-42 2546.4335,-40.554 2554.7384,-38.3945 2562.6578,-36.0026"/>
<polygon fill="#191970" stroke="#191970" points="1652.1032,-83.5334 1642.1592,-87.1894 1652.2127,-90.5326 1652.1032,-83.5334"/>
</g>
<!-- Node27 -->
<g id="node21" class="node">
<title>Node27</title>
<g id="a_node21"><a xlink:href="sta__dump__box_8cpp.html" target="_top" xlink:title="This file has an implementation of StaDumpBox class, which is a subclass of Starter class...">
<polygon fill="#ffffff" stroke="#000000" points="2677.5,-6 2677.5,-36 2789.5,-36 2789.5,-6 2677.5,-6"/>
<text text-anchor="start" x="2685.5" y="-24" font-family="Helvetica,sans-Serif" font-size="10.00" fill="#000000">src/starters/sta_dump</text>
<text text-anchor="middle" x="2733.5" y="-13" font-family="Helvetica,sans-Serif" font-size="10.00" fill="#000000">_box.cpp</text>
</a>
</g>
</g>
<!-- Node7&#45;&gt;Node27 -->
<g id="edge20" class="edge">
<title>Node7&#45;&gt;Node27</title>
<path fill="none" stroke="#191970" d="M1652.2962,-87.5009C1860.0644,-85.6266 2472.2493,-77.1871 2668.5,-42 2676.4376,-40.5768 2684.7445,-38.428 2692.6645,-36.0395"/>
<polygon fill="#191970" stroke="#191970" points="1652.0923,-84.0024 1642.1234,-87.5903 1652.1538,-91.0021 1652.0923,-84.0024"/>
</g>
<!-- Node28 -->
<g id="node22" class="node">
<title>Node28</title>
<g id="a_node22"><a xlink:href="starter_8cpp.html" target="_top" xlink:title="This file has an implementation of Starter class, which is a subclass of Updater class. ">
<polygon fill="#ffffff" stroke="#000000" points="2807.5,-11.5 2807.5,-30.5 2923.5,-30.5 2923.5,-11.5 2807.5,-11.5"/>
<text text-anchor="middle" x="2865.5" y="-18.5" font-family="Helvetica,sans-Serif" font-size="10.00" fill="#000000">src/starters/starter.cpp</text>
</a>
</g>
</g>
<!-- Node7&#45;&gt;Node28 -->
<g id="edge21" class="edge">
<title>Node7&#45;&gt;Node28</title>
<path fill="none" stroke="#191970" d="M1652.4177,-87.7917C1876.6211,-86.7411 2575.8882,-80.3899 2798.5,-42 2812.6749,-39.5555 2828.0173,-34.9028 2840.4394,-30.5969"/>
<polygon fill="#191970" stroke="#191970" points="1652.0884,-84.2931 1642.1042,-87.8379 1652.1198,-91.293 1652.0884,-84.2931"/>
</g>
<!-- Node29 -->
<g id="node23" class="node">
<title>Node29</title>
<g id="a_node23"><a xlink:href="map__to__index_8cpp.html" target="_top" xlink:title="This file has an implementation of utils::map_to_index. ">
<polygon fill="#ffffff" stroke="#000000" points="2941.5,-11.5 2941.5,-30.5 3075.5,-30.5 3075.5,-11.5 2941.5,-11.5"/>
<text text-anchor="middle" x="3008.5" y="-18.5" font-family="Helvetica,sans-Serif" font-size="10.00" fill="#000000">src/utils/map_to_index.cpp</text>
</a>
</g>
</g>
<!-- Node7&#45;&gt;Node29 -->
<g id="edge22" class="edge">
<title>Node7&#45;&gt;Node29</title>
<path fill="none" stroke="#191970" d="M1652.6125,-87.788C1892.899,-86.7208 2682.0971,-80.3122 2932.5,-42 2948.4671,-39.557 2965.8617,-34.9044 2979.9755,-30.5982"/>
<polygon fill="#191970" stroke="#191970" points="1652.2485,-84.2894 1642.2636,-87.8321 1652.2785,-91.2893 1652.2485,-84.2894"/>
</g>
<!-- Node30 -->
<g id="node24" class="node">
<title>Node30</title>
<g id="a_node24"><a xlink:href="runtime__error_8cpp.html" target="_top" xlink:title="This file has an implementation of utils::runtime_error. ">
<polygon fill="#ffffff" stroke="#000000" points="3093.5,-11.5 3093.5,-30.5 3223.5,-30.5 3223.5,-11.5 3093.5,-11.5"/>
<text text-anchor="middle" x="3158.5" y="-18.5" font-family="Helvetica,sans-Serif" font-size="10.00" fill="#000000">src/utils/runtime_error.cpp</text>
</a>
</g>
</g>
<!-- Node7&#45;&gt;Node30 -->
<g id="edge23" class="edge">
<title>Node7&#45;&gt;Node30</title>
<path fill="none" stroke="#191970" d="M1652.3269,-86.8709C1929.2782,-82.2547 2942.2741,-64.0143 3084.5,-42 3100.2049,-39.5691 3117.299,-34.8605 3131.0973,-30.5171"/>
<polygon fill="#191970" stroke="#191970" points="1651.9523,-83.3765 1642.0119,-87.0422 1652.0686,-90.3756 1651.9523,-83.3765"/>
</g>
</g>
</svg>
