<?xml version="1.0" encoding="UTF-8" standalone="no"?>
<!DOCTYPE svg PUBLIC "-//W3C//DTD SVG 1.1//EN"
 "http://www.w3.org/Graphics/SVG/1.1/DTD/svg11.dtd">
<!-- Generated by graphviz version 2.40.1 (20161225.0304)
 -->
<!-- Title: src/starters/sta_dump_box.cpp Pages: 1 -->
<!--zoomable 599 -->
<svg id="main" version="1.1" xmlns="http://www.w3.org/2000/svg" xmlns:xlink="http://www.w3.org/1999/xlink" xml:space="preserve" onload="init(evt)">
<style type="text/css"><![CDATA[
.edge:hover path { stroke: red; }
.edge:hover polygon { stroke: red; fill: red; }
]]></style>
<script type="text/javascript"><![CDATA[
var edges = document.getElementsByTagName('g');
if (edges && edges.length) {
  for (var i=0;i<edges.length;i++) {
    if (edges[i].id.substr(0,4)=='edge') {
      edges[i].setAttribute('class','edge');
    }
  }
}
]]></script>
        <defs>
                <circle id="rim" cx="0" cy="0" r="7"/>
                <circle id="rim2" cx="0" cy="0" r="3.5"/>
                <g id="zoomPlus">
                        <use xlink:href="#rim" fill="#404040">
                                <set attributeName="fill" to="#808080" begin="zoomplus.mouseover" end="zoomplus.mouseout"/>
                        </use>
                        <path d="M-4,0h8M0,-4v8" fill="none" stroke="white" stroke-width="1.5" pointer-events="none"/>
                </g>
                <g id="zoomMin">
                        <use xlink:href="#rim" fill="#404040">
                                <set attributeName="fill" to="#808080" begin="zoomminus.mouseover" end="zoomminus.mouseout"/>
                        </use>
                        <path d="M-4,0h8" fill="none" stroke="white" stroke-width="1.5" pointer-events="none"/>
                </g>
                <g id="dirArrow">
                        <path fill="none" stroke="white" stroke-width="1.5" d="M0,-3.0v7 M-2.5,-0.5L0,-3.0L2.5,-0.5"/>
                </g>
               <g id="resetDef">
                       <use xlink:href="#rim2" fill="#404040">
                               <set attributeName="fill" to="#808080" begin="reset.mouseover" end="reset.mouseout"/>
                       </use>
               </g>
        </defs>

<script type="text/javascript">
var viewWidth = 644;
var viewHeight = 599;
var sectionId = 'dynsection-0';
</script>
<script xlink:href="svgpan.js"/>
<svg id="graph" class="graph">
<g id="viewport">
<title>src/starters/sta_dump_box.cpp</title>
<polygon fill="#ffffff" stroke="transparent" points="-4,4 -4,-595 640,-595 640,4 -4,4"/>
<!-- Node0 -->
<g id="node1" class="node">
<title>Node0</title>
<polygon fill="#bfbfbf" stroke="#000000" points="252,-560.5 252,-590.5 364,-590.5 364,-560.5 252,-560.5"/>
<text text-anchor="start" x="260" y="-578.5" font-family="Helvetica,sans-Serif" font-size="10.00" fill="#000000">src/starters/sta_dump</text>
<text text-anchor="middle" x="308" y="-567.5" font-family="Helvetica,sans-Serif" font-size="10.00" fill="#000000">_box.cpp</text>
</g>
<!-- Node1 -->
<g id="node2" class="node">
<title>Node1</title>
<polygon fill="#ffffff" stroke="#bfbfbf" points="159,-504.5 159,-523.5 209,-523.5 209,-504.5 159,-504.5"/>
<text text-anchor="middle" x="184" y="-511.5" font-family="Helvetica,sans-Serif" font-size="10.00" fill="#000000">fstream</text>
</g>
<!-- Node0&#45;&gt;Node1 -->
<g id="edge1" class="edge">
<title>Node0&#45;&gt;Node1</title>
<path fill="none" stroke="#191970" d="M277.6662,-560.4554C257.7024,-550.554 231.751,-537.683 212.2285,-528.0004"/>
<polygon fill="#191970" stroke="#191970" points="213.7294,-524.838 203.2156,-523.5303 210.6191,-531.1091 213.7294,-524.838"/>
</g>
<!-- Node2 -->
<g id="node3" class="node">
<title>Node2</title>
<g id="a_node3"><a xlink:href="sta__dump__box_8h.html" target="_top" xlink:title="This file has a definition of StaDumpBox class, which is a subclass of Starter class. ">
<polygon fill="#ffffff" stroke="#000000" points="227.5,-504.5 227.5,-523.5 316.5,-523.5 316.5,-504.5 227.5,-504.5"/>
<text text-anchor="middle" x="272" y="-511.5" font-family="Helvetica,sans-Serif" font-size="10.00" fill="#000000">sta_dump_box.h</text>
</a>
</g>
</g>
<!-- Node0&#45;&gt;Node2 -->
<g id="edge2" class="edge">
<title>Node0&#45;&gt;Node2</title>
<path fill="none" stroke="#191970" d="M299.1011,-560.2977C294.2081,-551.9388 288.0974,-541.4997 282.9176,-532.6509"/>
<polygon fill="#191970" stroke="#191970" points="285.8365,-530.7089 277.7641,-523.8469 279.7953,-534.2452 285.8365,-530.7089"/>
</g>
<!-- Node24 -->
<g id="node25" class="node">
<title>Node24</title>
<g id="a_node25"><a xlink:href="runtime__error_8h.html" target="_top" xlink:title="This file has a definition of utils::runtime_error. ">
<polygon fill="#ffffff" stroke="#000000" points="289,-448.5 289,-467.5 401,-467.5 401,-448.5 289,-448.5"/>
<text text-anchor="middle" x="345" y="-455.5" font-family="Helvetica,sans-Serif" font-size="10.00" fill="#000000">../utils/runtime_error.h</text>
</a>
</g>
</g>
<!-- Node0&#45;&gt;Node24 -->
<g id="edge27" class="edge">
<title>Node0&#45;&gt;Node24</title>
<path fill="none" stroke="#191970" d="M313.5811,-560.2516C317.2559,-550.0414 322.0917,-536.2738 326,-524 330.9179,-508.5553 335.9703,-490.9032 339.6277,-477.7429"/>
<polygon fill="#191970" stroke="#191970" points="343.0599,-478.462 342.3382,-467.8918 336.3107,-476.605 343.0599,-478.462"/>
</g>
<!-- Node25 -->
<g id="node26" class="node">
<title>Node25</title>
<g id="a_node26"><a xlink:href="split_8h.html" target="_top" xlink:title="This file has a definition of utils::split. ">
<polygon fill="#ffffff" stroke="#000000" points="392.5,-392.5 392.5,-411.5 465.5,-411.5 465.5,-392.5 392.5,-392.5"/>
<text text-anchor="middle" x="429" y="-399.5" font-family="Helvetica,sans-Serif" font-size="10.00" fill="#000000">../utils/split.h</text>
</a>
</g>
</g>
<!-- Node0&#45;&gt;Node25 -->
<g id="edge29" class="edge">
<title>Node0&#45;&gt;Node25</title>
<path fill="none" stroke="#191970" d="M327.0413,-560.4451C349.9802,-541.3216 388.1508,-506.1847 410,-468 418.235,-453.6081 423.1298,-435.3766 425.8833,-421.7238"/>
<polygon fill="#191970" stroke="#191970" points="429.3935,-421.9787 427.7189,-411.5171 422.5041,-420.7396 429.3935,-421.9787"/>
</g>
<!-- Node3 -->
<g id="node4" class="node">
<title>Node3</title>
<g id="a_node4"><a xlink:href="sta__dump_8h.html" target="_top" xlink:title="This file has a definition of StaDump class, which is a subclass of Starter class. ">
<polygon fill="#ffffff" stroke="#000000" points="153,-448.5 153,-467.5 257,-467.5 257,-448.5 153,-448.5"/>
<text text-anchor="middle" x="205" y="-455.5" font-family="Helvetica,sans-Serif" font-size="10.00" fill="#000000">starters/sta_dump.h</text>
</a>
</g>
</g>
<!-- Node2&#45;&gt;Node3 -->
<g id="edge3" class="edge">
<title>Node2&#45;&gt;Node3</title>
<path fill="none" stroke="#191970" d="M260.3295,-504.2455C250.4339,-495.9746 236.0373,-483.9416 224.4099,-474.2232"/>
<polygon fill="#191970" stroke="#191970" points="226.4542,-471.3703 216.5368,-467.6427 221.965,-476.7413 226.4542,-471.3703"/>
</g>
<!-- Node4 -->
<g id="node5" class="node">
<title>Node4</title>
<g id="a_node5"><a xlink:href="starter_8h.html" target="_top" xlink:title="This file has a definition of Starter class, which is a subclass of Updater class. ">
<polygon fill="#ffffff" stroke="#000000" points="132.5,-392.5 132.5,-411.5 221.5,-411.5 221.5,-392.5 132.5,-392.5"/>
<text text-anchor="middle" x="177" y="-399.5" font-family="Helvetica,sans-Serif" font-size="10.00" fill="#000000">starters/starter.h</text>
</a>
</g>
</g>
<!-- Node3&#45;&gt;Node4 -->
<g id="edge4" class="edge">
<title>Node3&#45;&gt;Node4</title>
<path fill="none" stroke="#191970" d="M200.1228,-448.2455C196.3487,-440.6973 191.0079,-430.0158 186.4099,-420.8197"/>
<polygon fill="#191970" stroke="#191970" points="189.424,-419.0217 181.8213,-411.6427 183.163,-422.1522 189.424,-419.0217"/>
</g>
<!-- Node5 -->
<g id="node6" class="node">
<title>Node5</title>
<g id="a_node6"><a xlink:href="updater_8h.html" target="_top" xlink:title="This file has a definition of Updater class, which is one of the cores of this program. ">
<polygon fill="#ffffff" stroke="#000000" points="120.5,-336.5 120.5,-355.5 199.5,-355.5 199.5,-336.5 120.5,-336.5"/>
<text text-anchor="middle" x="160" y="-343.5" font-family="Helvetica,sans-Serif" font-size="10.00" fill="#000000">core/updater.h</text>
</a>
</g>
</g>
<!-- Node4&#45;&gt;Node5 -->
<g id="edge5" class="edge">
<title>Node4&#45;&gt;Node5</title>
<path fill="none" stroke="#191970" d="M174.0388,-392.2455C171.7962,-384.8579 168.6423,-374.4689 165.8919,-365.4087"/>
<polygon fill="#191970" stroke="#191970" points="169.1812,-364.1948 162.9272,-355.6427 162.483,-366.2282 169.1812,-364.1948"/>
</g>
<!-- Node6 -->
<g id="node7" class="node">
<title>Node6</title>
<polygon fill="#ffffff" stroke="#bfbfbf" points="0,-112.5 0,-131.5 44,-131.5 44,-112.5 0,-112.5"/>
<text text-anchor="middle" x="22" y="-119.5" font-family="Helvetica,sans-Serif" font-size="10.00" fill="#000000">omp.h</text>
</g>
<!-- Node5&#45;&gt;Node6 -->
<g id="edge6" class="edge">
<title>Node5&#45;&gt;Node6</title>
<path fill="none" stroke="#191970" d="M145.3726,-336.4859C133.3057,-328.0528 116.3786,-314.8045 105,-300 65.6261,-248.7716 39.0658,-175.8556 27.9227,-141.4266"/>
<polygon fill="#191970" stroke="#191970" points="31.1941,-140.1624 24.8499,-131.677 24.5178,-142.2667 31.1941,-140.1624"/>
</g>
<!-- Node7 -->
<g id="node8" class="node">
<title>Node7</title>
<g id="a_node8"><a xlink:href="generators_8h.html" target="_top" xlink:title="This file includes all the header files of subclasses of Generator class. ">
<polygon fill="#ffffff" stroke="#000000" points="114,-280.5 114,-299.5 206,-299.5 206,-280.5 114,-280.5"/>
<text text-anchor="middle" x="160" y="-287.5" font-family="Helvetica,sans-Serif" font-size="10.00" fill="#000000">core/generators.h</text>
</a>
</g>
</g>
<!-- Node5&#45;&gt;Node7 -->
<g id="edge7" class="edge">
<title>Node5&#45;&gt;Node7</title>
<path fill="none" stroke="#191970" d="M160,-336.2455C160,-328.9382 160,-318.6944 160,-309.7046"/>
<polygon fill="#191970" stroke="#191970" points="163.5001,-309.6426 160,-299.6427 156.5001,-309.6427 163.5001,-309.6426"/>
</g>
<!-- Node8 -->
<g id="node9" class="node">
<title>Node8</title>
<g id="a_node9"><a xlink:href="element_8h.html" target="_top" xlink:title="This file has a definition of Element class, which is one of the cores of this program. ">
<polygon fill="#ffffff" stroke="#000000" points="119.5,-168.5 119.5,-187.5 200.5,-187.5 200.5,-168.5 119.5,-168.5"/>
<text text-anchor="middle" x="160" y="-175.5" font-family="Helvetica,sans-Serif" font-size="10.00" fill="#000000">core/element.h</text>
</a>
</g>
</g>
<!-- Node7&#45;&gt;Node8 -->
<g id="edge8" class="edge">
<title>Node7&#45;&gt;Node8</title>
<path fill="none" stroke="#191970" d="M143.2627,-280.2988C131.2416,-272.2823 115.977,-259.6887 109,-244 100.4317,-224.733 118.1122,-206.0303 134.9522,-193.4838"/>
<polygon fill="#191970" stroke="#191970" points="137.3262,-196.0961 143.5384,-187.5136 133.33,-190.3489 137.3262,-196.0961"/>
</g>
<!-- Node22 -->
<g id="node23" class="node">
<title>Node22</title>
<g id="a_node23"><a xlink:href="gen__dict_8h.html" target="_top" xlink:title="This file has a definition of GenDict class. ">
<polygon fill="#ffffff" stroke="#000000" points="118.5,-224.5 118.5,-243.5 201.5,-243.5 201.5,-224.5 118.5,-224.5"/>
<text text-anchor="middle" x="160" y="-231.5" font-family="Helvetica,sans-Serif" font-size="10.00" fill="#000000">core/gen_dict.h</text>
</a>
</g>
</g>
<!-- Node7&#45;&gt;Node22 -->
<g id="edge23" class="edge">
<title>Node7&#45;&gt;Node22</title>
<path fill="none" stroke="#191970" d="M160,-280.2455C160,-272.9382 160,-262.6944 160,-253.7046"/>
<polygon fill="#191970" stroke="#191970" points="163.5001,-253.6426 160,-243.6427 156.5001,-253.6427 163.5001,-253.6426"/>
</g>
<!-- Node23 -->
<g id="node24" class="node">
<title>Node23</title>
<g id="a_node24"><a xlink:href="gen__list_8h.html" target="_top" xlink:title="This file has a definition of GenList class. ">
<polygon fill="#ffffff" stroke="#000000" points="220,-224.5 220,-243.5 300,-243.5 300,-224.5 220,-224.5"/>
<text text-anchor="middle" x="260" y="-231.5" font-family="Helvetica,sans-Serif" font-size="10.00" fill="#000000">core/gen_list.h</text>
</a>
</g>
</g>
<!-- Node7&#45;&gt;Node23 -->
<g id="edge25" class="edge">
<title>Node7&#45;&gt;Node23</title>
<path fill="none" stroke="#191970" d="M177.4187,-280.2455C193.0485,-271.4928 216.2019,-258.527 234.0185,-248.5496"/>
<polygon fill="#191970" stroke="#191970" points="235.766,-251.5825 242.7809,-243.6427 232.3457,-245.475 235.766,-251.5825"/>
</g>
<!-- Node8&#45;&gt;Node6 -->
<g id="edge9" class="edge">
<title>Node8&#45;&gt;Node6</title>
<path fill="none" stroke="#191970" d="M136.277,-168.3733C113.4182,-159.0972 78.6896,-145.0045 53.517,-134.7895"/>
<polygon fill="#191970" stroke="#191970" points="54.63,-131.464 44.0478,-130.9469 51.9978,-137.9503 54.63,-131.464"/>
</g>
<!-- Node9 -->
<g id="node10" class="node">
<title>Node9</title>
<g id="a_node10"><a xlink:href="eigen_8h.html" target="_top" xlink:title="This file includes Eigen and defines some aliases for the Eigen&#45;Vector, Matrix and Array...">
<polygon fill="#ffffff" stroke="#000000" points="62.5,-112.5 62.5,-131.5 133.5,-131.5 133.5,-112.5 62.5,-112.5"/>
<text text-anchor="middle" x="98" y="-119.5" font-family="Helvetica,sans-Serif" font-size="10.00" fill="#000000">alias/eigen.h</text>
</a>
</g>
</g>
<!-- Node8&#45;&gt;Node9 -->
<g id="edge10" class="edge">
<title>Node8&#45;&gt;Node9</title>
<path fill="none" stroke="#191970" d="M149.2004,-168.2455C140.1322,-160.0549 126.9794,-148.1749 116.2755,-138.5069"/>
<polygon fill="#191970" stroke="#191970" points="118.4429,-135.7482 108.6758,-131.6427 113.7509,-140.9429 118.4429,-135.7482"/>
</g>
<!-- Node11 -->
<g id="node12" class="node">
<title>Node11</title>
<g id="a_node12"><a xlink:href="alias_2pybind_8h.html" target="_top" xlink:title="This file includes pybind11 and defines an alias for the namespace pybind11. ">
<polygon fill="#ffffff" stroke="#000000" points="151.5,-112.5 151.5,-131.5 228.5,-131.5 228.5,-112.5 151.5,-112.5"/>
<text text-anchor="middle" x="190" y="-119.5" font-family="Helvetica,sans-Serif" font-size="10.00" fill="#000000">alias/pybind.h</text>
</a>
</g>
</g>
<!-- Node8&#45;&gt;Node11 -->
<g id="edge12" class="edge">
<title>Node8&#45;&gt;Node11</title>
<path fill="none" stroke="#191970" d="M165.2256,-168.2455C169.3123,-160.617 175.1135,-149.7881 180.075,-140.5267"/>
<polygon fill="#191970" stroke="#191970" points="183.1972,-142.1103 184.8343,-131.6427 177.0268,-138.8047 183.1972,-142.1103"/>
</g>
<!-- Node13 -->
<g id="node14" class="node">
<title>Node13</title>
<g id="a_node14"><a xlink:href="generator_8h.html" target="_top" xlink:title="This file has a definition of Generator class, which is one of the cores of this program. ">
<polygon fill="#ffffff" stroke="#000000" points="248.5,-112.5 248.5,-131.5 335.5,-131.5 335.5,-112.5 248.5,-112.5"/>
<text text-anchor="middle" x="292" y="-119.5" font-family="Helvetica,sans-Serif" font-size="10.00" fill="#000000">core/generator.h</text>
</a>
</g>
</g>
<!-- Node8&#45;&gt;Node13 -->
<g id="edge14" class="edge">
<title>Node8&#45;&gt;Node13</title>
<path fill="none" stroke="#191970" d="M182.6916,-168.3733C204.0711,-159.3032 236.3057,-145.6279 260.2362,-135.4755"/>
<polygon fill="#191970" stroke="#191970" points="261.7656,-138.6287 269.6045,-131.5011 259.0317,-132.1846 261.7656,-138.6287"/>
</g>
<!-- Node10 -->
<g id="node11" class="node">
<title>Node10</title>
<polygon fill="#ffffff" stroke="#bfbfbf" points="46,-56.5 46,-75.5 118,-75.5 118,-56.5 46,-56.5"/>
<text text-anchor="middle" x="82" y="-63.5" font-family="Helvetica,sans-Serif" font-size="10.00" fill="#000000">Eigen/Dense</text>
</g>
<!-- Node9&#45;&gt;Node10 -->
<g id="edge11" class="edge">
<title>Node9&#45;&gt;Node10</title>
<path fill="none" stroke="#191970" d="M95.213,-112.2455C93.1023,-104.8579 90.134,-94.4689 87.5453,-85.4087"/>
<polygon fill="#191970" stroke="#191970" points="90.8677,-84.2964 84.755,-75.6427 84.137,-86.2195 90.8677,-84.2964"/>
</g>
<!-- Node12 -->
<g id="node13" class="node">
<title>Node12</title>
<polygon fill="#ffffff" stroke="#bfbfbf" points="136,-56.5 136,-75.5 242,-75.5 242,-56.5 136,-56.5"/>
<text text-anchor="middle" x="189" y="-63.5" font-family="Helvetica,sans-Serif" font-size="10.00" fill="#000000">pybind11/pybind11.h</text>
</g>
<!-- Node11&#45;&gt;Node12 -->
<g id="edge13" class="edge">
<title>Node11&#45;&gt;Node12</title>
<path fill="none" stroke="#191970" d="M189.8258,-112.2455C189.6953,-104.9382 189.5124,-94.6944 189.3519,-85.7046"/>
<polygon fill="#191970" stroke="#191970" points="192.8503,-85.5786 189.1722,-75.6427 185.8514,-85.7036 192.8503,-85.5786"/>
</g>
<!-- Node14 -->
<g id="node15" class="node">
<title>Node14</title>
<g id="a_node15"><a xlink:href="std_8h.html" target="_top" xlink:title="This file includes a part of C++ Standard Template Library and defines aliases for them...">
<polygon fill="#ffffff" stroke="#000000" points="356,-56.5 356,-75.5 418,-75.5 418,-56.5 356,-56.5"/>
<text text-anchor="middle" x="387" y="-63.5" font-family="Helvetica,sans-Serif" font-size="10.00" fill="#000000">alias/std.h</text>
</a>
</g>
</g>
<!-- Node13&#45;&gt;Node14 -->
<g id="edge15" class="edge">
<title>Node13&#45;&gt;Node14</title>
<path fill="none" stroke="#191970" d="M308.5477,-112.2455C323.2599,-103.5731 344.9888,-90.7645 361.8505,-80.825"/>
<polygon fill="#191970" stroke="#191970" points="363.8046,-83.736 370.6419,-75.6427 360.2498,-77.7057 363.8046,-83.736"/>
</g>
<!-- Node20 -->
<g id="node21" class="node">
<title>Node20</title>
<g id="a_node21"><a xlink:href="json_8h.html" target="_top" xlink:title="This file includes nlohmann/json and defines an alias for a JSON class. ">
<polygon fill="#ffffff" stroke="#000000" points="260,-56.5 260,-75.5 326,-75.5 326,-56.5 260,-56.5"/>
<text text-anchor="middle" x="293" y="-63.5" font-family="Helvetica,sans-Serif" font-size="10.00" fill="#000000">alias/json.h</text>
</a>
</g>
</g>
<!-- Node13&#45;&gt;Node20 -->
<g id="edge21" class="edge">
<title>Node13&#45;&gt;Node20</title>
<path fill="none" stroke="#191970" d="M292.1742,-112.2455C292.3047,-104.9382 292.4876,-94.6944 292.6481,-85.7046"/>
<polygon fill="#191970" stroke="#191970" points="296.1486,-85.7036 292.8278,-75.6427 289.1497,-85.5786 296.1486,-85.7036"/>
</g>
<!-- Node15 -->
<g id="node16" class="node">
<title>Node15</title>
<polygon fill="#ffffff" stroke="#bfbfbf" points="584,-.5 584,-19.5 636,-19.5 636,-.5 584,-.5"/>
<text text-anchor="middle" x="610" y="-7.5" font-family="Helvetica,sans-Serif" font-size="10.00" fill="#000000">memory</text>
</g>
<!-- Node14&#45;&gt;Node15 -->
<g id="edge16" class="edge">
<title>Node14&#45;&gt;Node15</title>
<path fill="none" stroke="#191970" d="M418.0306,-58.7923C453.4823,-50.4735 513.4592,-36.1446 573.9478,-20.2136"/>
<polygon fill="#191970" stroke="#191970" points="574.8852,-23.5861 583.6566,-17.6437 573.0939,-16.8191 574.8852,-23.5861"/>
</g>
<!-- Node16 -->
<g id="node17" class="node">
<title>Node16</title>
<polygon fill="#ffffff" stroke="#bfbfbf" points="264.5,-.5 264.5,-19.5 305.5,-19.5 305.5,-.5 264.5,-.5"/>
<text text-anchor="middle" x="285" y="-7.5" font-family="Helvetica,sans-Serif" font-size="10.00" fill="#000000">string</text>
</g>
<!-- Node14&#45;&gt;Node16 -->
<g id="edge17" class="edge">
<title>Node14&#45;&gt;Node16</title>
<path fill="none" stroke="#191970" d="M369.233,-56.2455C353.2905,-47.4928 329.6741,-34.527 311.5011,-24.5496"/>
<polygon fill="#191970" stroke="#191970" points="313.0137,-21.3873 302.5634,-19.6427 309.6448,-27.5233 313.0137,-21.3873"/>
</g>
<!-- Node17 -->
<g id="node18" class="node">
<title>Node17</title>
<polygon fill="#ffffff" stroke="#bfbfbf" points="324,-.5 324,-19.5 368,-19.5 368,-.5 324,-.5"/>
<text text-anchor="middle" x="346" y="-7.5" font-family="Helvetica,sans-Serif" font-size="10.00" fill="#000000">vector</text>
</g>
<!-- Node14&#45;&gt;Node17 -->
<g id="edge18" class="edge">
<title>Node14&#45;&gt;Node17</title>
<path fill="none" stroke="#191970" d="M379.8583,-56.2455C374.1556,-48.4564 366.01,-37.3308 359.1375,-27.9439"/>
<polygon fill="#191970" stroke="#191970" points="361.7913,-25.6437 353.0598,-19.6427 356.1432,-29.7789 361.7913,-25.6437"/>
</g>
<!-- Node18 -->
<g id="node19" class="node">
<title>Node18</title>
<polygon fill="#ffffff" stroke="#bfbfbf" points="386.5,-.5 386.5,-19.5 469.5,-19.5 469.5,-.5 386.5,-.5"/>
<text text-anchor="middle" x="428" y="-7.5" font-family="Helvetica,sans-Serif" font-size="10.00" fill="#000000">unordered_map</text>
</g>
<!-- Node14&#45;&gt;Node18 -->
<g id="edge19" class="edge">
<title>Node14&#45;&gt;Node18</title>
<path fill="none" stroke="#191970" d="M394.1417,-56.2455C399.8444,-48.4564 407.99,-37.3308 414.8625,-27.9439"/>
<polygon fill="#191970" stroke="#191970" points="417.8568,-29.7789 420.9402,-19.6427 412.2087,-25.6437 417.8568,-29.7789"/>
</g>
<!-- Node19 -->
<g id="node20" class="node">
<title>Node19</title>
<polygon fill="#ffffff" stroke="#bfbfbf" points="488,-.5 488,-19.5 566,-19.5 566,-.5 488,-.5"/>
<text text-anchor="middle" x="527" y="-7.5" font-family="Helvetica,sans-Serif" font-size="10.00" fill="#000000">unordered_set</text>
</g>
<!-- Node14&#45;&gt;Node19 -->
<g id="edge20" class="edge">
<title>Node14&#45;&gt;Node19</title>
<path fill="none" stroke="#191970" d="M411.0669,-56.3733C433.8428,-47.2629 468.2344,-33.5062 493.649,-23.3404"/>
<polygon fill="#191970" stroke="#191970" points="495.2623,-26.4648 503.2472,-19.5011 492.6625,-19.9654 495.2623,-26.4648"/>
</g>
<!-- Node21 -->
<g id="node22" class="node">
<title>Node21</title>
<polygon fill="#ffffff" stroke="#bfbfbf" points="148,-.5 148,-19.5 246,-19.5 246,-.5 148,-.5"/>
<text text-anchor="middle" x="197" y="-7.5" font-family="Helvetica,sans-Serif" font-size="10.00" fill="#000000">nlohmann/json.hpp</text>
</g>
<!-- Node20&#45;&gt;Node21 -->
<g id="edge22" class="edge">
<title>Node20&#45;&gt;Node21</title>
<path fill="none" stroke="#191970" d="M276.2781,-56.2455C261.4111,-47.5731 239.4534,-34.7645 222.4142,-24.825"/>
<polygon fill="#191970" stroke="#191970" points="223.9317,-21.6582 213.5303,-19.6427 220.4045,-27.7047 223.9317,-21.6582"/>
</g>
<!-- Node22&#45;&gt;Node8 -->
<g id="edge24" class="edge">
<title>Node22&#45;&gt;Node8</title>
<path fill="none" stroke="#191970" d="M160,-224.2455C160,-216.9382 160,-206.6944 160,-197.7046"/>
<polygon fill="#191970" stroke="#191970" points="163.5001,-197.6426 160,-187.6427 156.5001,-197.6427 163.5001,-197.6426"/>
</g>
<!-- Node23&#45;&gt;Node8 -->
<g id="edge26" class="edge">
<title>Node23&#45;&gt;Node8</title>
<path fill="none" stroke="#191970" d="M242.5813,-224.2455C226.9515,-215.4928 203.7981,-202.527 185.9815,-192.5496"/>
<polygon fill="#191970" stroke="#191970" points="187.6543,-189.475 177.2191,-187.6427 184.234,-195.5825 187.6543,-189.475"/>
</g>
<!-- Node24&#45;&gt;Node14 -->
<g id="edge28" class="edge">
<title>Node24&#45;&gt;Node14</title>
<path fill="none" stroke="#191970" d="M347.8035,-448.2066C353.0887,-428.8521 364,-384.2612 364,-346 364,-346 364,-346 364,-178 364,-144.906 373.7548,-107.4151 380.5588,-85.2901"/>
<polygon fill="#191970" stroke="#191970" points="383.8974,-86.3405 383.6063,-75.7497 377.2294,-84.2105 383.8974,-86.3405"/>
</g>
<!-- Node25&#45;&gt;Node14 -->
<g id="edge30" class="edge">
<title>Node25&#45;&gt;Node14</title>
<path fill="none" stroke="#191970" d="M426.9941,-392.4619C423.123,-373.1944 415,-328.2117 415,-290 415,-290 415,-290 415,-178 415,-144.5848 403.1246,-107.1911 394.8415,-85.1729"/>
<polygon fill="#191970" stroke="#191970" points="398.0326,-83.7229 391.1315,-75.6839 391.5132,-86.2719 398.0326,-83.7229"/>
</g>
</g>
</svg>
        <g id="navigator" transform="translate(0 0)" fill="#404254">
                <rect fill="#f2f5e9" fill-opacity="0.5" stroke="#606060" stroke-width=".5" x="0" y="0" width="60" height="60"/>
                <use id="zoomplus" xlink:href="#zoomPlus" x="17" y="9" onmousedown="handleZoom(evt,'in')"/>
                <use id="zoomminus" xlink:href="#zoomMin" x="42" y="9" onmousedown="handleZoom(evt,'out')"/>
                <use id="reset" xlink:href="#resetDef" x="30" y="36" onmousedown="handleReset()"/>
                <g id="arrowUp" xlink:href="#dirArrow" transform="translate(30 24)" onmousedown="handlePan(0,-1)">
                  <use xlink:href="#rim" fill="#404040">
                        <set attributeName="fill" to="#808080" begin="arrowUp.mouseover" end="arrowUp.mouseout"/>
                  </use>
                  <path fill="none" stroke="white" stroke-width="1.5" d="M0,-3.0v7 M-2.5,-0.5L0,-3.0L2.5,-0.5"/>
                </g>
                <g id="arrowRight" xlink:href="#dirArrow" transform="rotate(90) translate(36 -43)" onmousedown="handlePan(1,0)">
                  <use xlink:href="#rim" fill="#404040">
                        <set attributeName="fill" to="#808080" begin="arrowRight.mouseover" end="arrowRight.mouseout"/>
                  </use>
                  <path fill="none" stroke="white" stroke-width="1.5" d="M0,-3.0v7 M-2.5,-0.5L0,-3.0L2.5,-0.5"/>
                </g>
                <g id="arrowDown" xlink:href="#dirArrow" transform="rotate(180) translate(-30 -48)" onmousedown="handlePan(0,1)">
                  <use xlink:href="#rim" fill="#404040">
                        <set attributeName="fill" to="#808080" begin="arrowDown.mouseover" end="arrowDown.mouseout"/>
                  </use>
                  <path fill="none" stroke="white" stroke-width="1.5" d="M0,-3.0v7 M-2.5,-0.5L0,-3.0L2.5,-0.5"/>
                </g>
                <g id="arrowLeft" xlink:href="#dirArrow" transform="rotate(270) translate(-36 17)" onmousedown="handlePan(-1,0)">
                  <use xlink:href="#rim" fill="#404040">
                        <set attributeName="fill" to="#808080" begin="arrowLeft.mouseover" end="arrowLeft.mouseout"/>
                  </use>
                  <path fill="none" stroke="white" stroke-width="1.5" d="M0,-3.0v7 M-2.5,-0.5L0,-3.0L2.5,-0.5"/>
                </g>
        </g>
        <svg viewBox="0 0 15 15" width="100%" height="30px" preserveAspectRatio="xMaxYMin meet">
         <g id="arrow_out" transform="scale(0.3 0.3)">
          <a xlink:href="sta__dump__box_8cpp__incl_org.svg" target="_base">
           <rect id="button" ry="5" rx="5" y="6" x="6" height="38" width="38"
                fill="#f2f5e9" fill-opacity="0.5" stroke="#606060" stroke-width="1.0"/>
           <path id="arrow"
             d="M 11.500037,31.436501 C 11.940474,20.09759 22.043105,11.32322 32.158766,21.979434 L 37.068811,17.246167 C 37.068811,17.246167 37.088388,32 37.088388,32 L 22.160133,31.978069 C 22.160133,31.978069 26.997745,27.140456 26.997745,27.140456 C 18.528582,18.264221 13.291696,25.230495 11.500037,31.436501 z"
             style="fill:#404040;"/>
          </a>
         </g>
        </svg>
</svg>
