<?xml version="1.0" encoding="UTF-8" standalone="no"?>
<!DOCTYPE svg PUBLIC "-//W3C//DTD SVG 1.1//EN"
 "http://www.w3.org/Graphics/SVG/1.1/DTD/svg11.dtd">
<!-- Generated by graphviz version 2.40.1 (20161225.0304)
 -->
<!-- Title: src/starters/sta_copy.h Pages: 1 -->
<svg width="453pt" height="218pt"
 viewBox="0.00 0.00 453.00 218.00" xmlns="http://www.w3.org/2000/svg" xmlns:xlink="http://www.w3.org/1999/xlink">
<g id="graph0" class="graph" transform="scale(1 1) rotate(0) translate(4 214)">
<title>src/starters/sta_copy.h</title>
<polygon fill="#ffffff" stroke="transparent" points="-4,4 -4,-214 449,-214 449,4 -4,4"/>
<!-- Node21 -->
<g id="node1" class="node">
<title>Node21</title>
<polygon fill="#bfbfbf" stroke="#000000" points="173.5,-190.5 173.5,-209.5 290.5,-209.5 290.5,-190.5 173.5,-190.5"/>
<text text-anchor="middle" x="232" y="-197.5" font-family="Helvetica,sans-Serif" font-size="10.00" fill="#000000">src/starters/sta_copy.h</text>
</g>
<!-- Node22 -->
<g id="node2" class="node">
<title>Node22</title>
<g id="a_node2"><a xlink:href="py__sta__copy_8h.html" target="_top" xlink:title="This file is for binding StaCopy class to Python. ">
<polygon fill="#ffffff" stroke="#000000" points="49,-123.5 49,-153.5 147,-153.5 147,-123.5 49,-123.5"/>
<text text-anchor="start" x="57" y="-141.5" font-family="Helvetica,sans-Serif" font-size="10.00" fill="#000000">src/pybind/starters</text>
<text text-anchor="middle" x="98" y="-130.5" font-family="Helvetica,sans-Serif" font-size="10.00" fill="#000000">/py_sta_copy.h</text>
</a>
</g>
</g>
<!-- Node21&#45;&gt;Node22 -->
<g id="edge1" class="edge">
<title>Node21&#45;&gt;Node22</title>
<path fill="none" stroke="#191970" d="M201.8991,-186.185C180.7573,-176.4819 152.4919,-163.5093 130.7801,-153.5446"/>
<polygon fill="#191970" stroke="#191970" points="200.514,-189.4003 211.0625,-190.3906 203.4339,-183.0384 200.514,-189.4003"/>
</g>
<!-- Node26 -->
<g id="node6" class="node">
<title>Node26</title>
<g id="a_node6"><a xlink:href="py__element_8cpp.html" target="_top" xlink:title="This file is for binding Element class to Python. ">
<polygon fill="#ffffff" stroke="#000000" points="165,-129 165,-148 299,-148 299,-129 165,-129"/>
<text text-anchor="middle" x="232" y="-136" font-family="Helvetica,sans-Serif" font-size="10.00" fill="#000000">src/pybind/py_element.cpp</text>
</a>
</g>
</g>
<!-- Node21&#45;&gt;Node26 -->
<g id="edge5" class="edge">
<title>Node21&#45;&gt;Node26</title>
<path fill="none" stroke="#191970" d="M232,-180.2462C232,-169.5519 232,-156.814 232,-148.2449"/>
<polygon fill="#191970" stroke="#191970" points="228.5001,-180.3906 232,-190.3906 235.5001,-180.3907 228.5001,-180.3906"/>
</g>
<!-- Node27 -->
<g id="node7" class="node">
<title>Node27</title>
<g id="a_node7"><a xlink:href="sta__copy_8cpp.html" target="_top" xlink:title="This file has an implementation of StaCopy class, which is a subclass of Starter class. ">
<polygon fill="#ffffff" stroke="#000000" points="317,-129 317,-148 445,-148 445,-129 317,-129"/>
<text text-anchor="middle" x="381" y="-136" font-family="Helvetica,sans-Serif" font-size="10.00" fill="#000000">src/starters/sta_copy.cpp</text>
</a>
</g>
</g>
<!-- Node21&#45;&gt;Node27 -->
<g id="edge6" class="edge">
<title>Node21&#45;&gt;Node27</title>
<path fill="none" stroke="#191970" d="M264.7181,-186.4955C292.9132,-174.858 332.9078,-158.3501 357.8822,-148.0419"/>
<polygon fill="#191970" stroke="#191970" points="263.1894,-183.34 255.2813,-190.3906 265.8602,-189.8105 263.1894,-183.34"/>
</g>
<!-- Node23 -->
<g id="node3" class="node">
<title>Node23</title>
<g id="a_node3"><a xlink:href="pybind_8h.html" target="_top" xlink:title="This file includes all the header files containing definitions of functions to bind C++ and Python...">
<polygon fill="#ffffff" stroke="#000000" points="12,-62 12,-81 82,-81 82,-62 12,-62"/>
<text text-anchor="middle" x="47" y="-69" font-family="Helvetica,sans-Serif" font-size="10.00" fill="#000000">src/pybind.h</text>
</a>
</g>
</g>
<!-- Node22&#45;&gt;Node23 -->
<g id="edge2" class="edge">
<title>Node22&#45;&gt;Node23</title>
<path fill="none" stroke="#191970" d="M80.2524,-115.1845C71.3354,-103.47 61.0208,-89.9195 54.2732,-81.055"/>
<polygon fill="#191970" stroke="#191970" points="77.5854,-117.4595 86.4273,-123.2967 83.1554,-113.2197 77.5854,-117.4595"/>
</g>
<!-- Node25 -->
<g id="node5" class="node">
<title>Node25</title>
<g id="a_node5"><a xlink:href="py__sta__copy_8cpp.html" target="_top" xlink:title="This file is for binding StaCopy class to Python. ">
<polygon fill="#ffffff" stroke="#000000" points="100,-56.5 100,-86.5 198,-86.5 198,-56.5 100,-56.5"/>
<text text-anchor="start" x="108" y="-74.5" font-family="Helvetica,sans-Serif" font-size="10.00" fill="#000000">src/pybind/starters</text>
<text text-anchor="middle" x="149" y="-63.5" font-family="Helvetica,sans-Serif" font-size="10.00" fill="#000000">/py_sta_copy.cpp</text>
</a>
</g>
</g>
<!-- Node22&#45;&gt;Node25 -->
<g id="edge4" class="edge">
<title>Node22&#45;&gt;Node25</title>
<path fill="none" stroke="#191970" d="M115.8404,-115.0626C123.0193,-105.6315 131.0909,-95.0276 137.4731,-86.6432"/>
<polygon fill="#191970" stroke="#191970" points="112.8446,-113.2197 109.5727,-123.2967 118.4146,-117.4595 112.8446,-113.2197"/>
</g>
<!-- Node24 -->
<g id="node4" class="node">
<title>Node24</title>
<g id="a_node4"><a xlink:href="ppap4lmp_8cpp.html" target="_top" xlink:title="This file has no implementation, only includes a header file to bind C++ and Python. ">
<polygon fill="#ffffff" stroke="#000000" points="0,-.5 0,-19.5 94,-19.5 94,-.5 0,-.5"/>
<text text-anchor="middle" x="47" y="-7.5" font-family="Helvetica,sans-Serif" font-size="10.00" fill="#000000">src/ppap4lmp.cpp</text>
</a>
</g>
</g>
<!-- Node23&#45;&gt;Node24 -->
<g id="edge3" class="edge">
<title>Node23&#45;&gt;Node24</title>
<path fill="none" stroke="#191970" d="M47,-51.7462C47,-41.0519 47,-28.314 47,-19.7449"/>
<polygon fill="#191970" stroke="#191970" points="43.5001,-51.8906 47,-61.8906 50.5001,-51.8907 43.5001,-51.8906"/>
</g>
</g>
</svg>
