<?xml version="1.0" encoding="UTF-8" standalone="no"?>
<!DOCTYPE svg PUBLIC "-//W3C//DTD SVG 1.1//EN"
 "http://www.w3.org/Graphics/SVG/1.1/DTD/svg11.dtd">
<!-- Generated by graphviz version 2.40.1 (20161225.0304)
 -->
<!-- Title: src/adders/add_com_position.h Pages: 1 -->
<svg width="240pt" height="218pt"
 viewBox="0.00 0.00 240.00 218.00" xmlns="http://www.w3.org/2000/svg" xmlns:xlink="http://www.w3.org/1999/xlink">
<g id="graph0" class="graph" transform="scale(1 1) rotate(0) translate(4 214)">
<title>src/adders/add_com_position.h</title>
<polygon fill="#ffffff" stroke="transparent" points="-4,4 -4,-214 236,-214 236,4 -4,4"/>
<!-- Node22 -->
<g id="node1" class="node">
<title>Node22</title>
<polygon fill="#bfbfbf" stroke="#000000" points="62,-179.5 62,-209.5 167,-209.5 167,-179.5 62,-179.5"/>
<text text-anchor="start" x="70" y="-197.5" font-family="Helvetica,sans-Serif" font-size="10.00" fill="#000000">src/adders/add_com</text>
<text text-anchor="middle" x="114.5" y="-186.5" font-family="Helvetica,sans-Serif" font-size="10.00" fill="#000000">_position.h</text>
</g>
<!-- Node23 -->
<g id="node2" class="node">
<title>Node23</title>
<g id="a_node2"><a xlink:href="add__com__position_8cpp.html" target="_top" xlink:title="This file has an implementation of AddCoMPosition class, which is a subclass of Adder class...">
<polygon fill="#ffffff" stroke="#000000" points="0,-112.5 0,-142.5 105,-142.5 105,-112.5 0,-112.5"/>
<text text-anchor="start" x="8" y="-130.5" font-family="Helvetica,sans-Serif" font-size="10.00" fill="#000000">src/adders/add_com</text>
<text text-anchor="middle" x="52.5" y="-119.5" font-family="Helvetica,sans-Serif" font-size="10.00" fill="#000000">_position.cpp</text>
</a>
</g>
</g>
<!-- Node22&#45;&gt;Node23 -->
<g id="edge1" class="edge">
<title>Node22&#45;&gt;Node23</title>
<path fill="none" stroke="#191970" d="M93.61,-171.9253C84.6871,-162.2828 74.5093,-151.2843 66.5131,-142.6432"/>
<polygon fill="#191970" stroke="#191970" points="91.0704,-174.3342 100.4312,-179.2967 96.2082,-169.5798 91.0704,-174.3342"/>
</g>
<!-- Node24 -->
<g id="node3" class="node">
<title>Node24</title>
<g id="a_node3"><a xlink:href="py__add__com__position_8h.html" target="_top" xlink:title="This file is for binding AddCoMPosition class to Python. ">
<polygon fill="#ffffff" stroke="#000000" points="123,-112.5 123,-142.5 232,-142.5 232,-112.5 123,-112.5"/>
<text text-anchor="start" x="131" y="-130.5" font-family="Helvetica,sans-Serif" font-size="10.00" fill="#000000">src/pybind/adders/py</text>
<text text-anchor="middle" x="177.5" y="-119.5" font-family="Helvetica,sans-Serif" font-size="10.00" fill="#000000">_add_com_position.h</text>
</a>
</g>
</g>
<!-- Node22&#45;&gt;Node24 -->
<g id="edge2" class="edge">
<title>Node22&#45;&gt;Node24</title>
<path fill="none" stroke="#191970" d="M135.727,-171.9253C144.7938,-162.2828 155.1357,-151.2843 163.2609,-142.6432"/>
<polygon fill="#191970" stroke="#191970" points="133.0961,-169.6138 128.7957,-179.2967 138.1958,-174.409 133.0961,-169.6138"/>
</g>
<!-- Node25 -->
<g id="node4" class="node">
<title>Node25</title>
<g id="a_node4"><a xlink:href="pybind_8h.html" target="_top" xlink:title="This file includes all the header files containing definitions of functions to bind C++ and Python...">
<polygon fill="#ffffff" stroke="#000000" points="142.5,-56.5 142.5,-75.5 212.5,-75.5 212.5,-56.5 142.5,-56.5"/>
<text text-anchor="middle" x="177.5" y="-63.5" font-family="Helvetica,sans-Serif" font-size="10.00" fill="#000000">src/pybind.h</text>
</a>
</g>
</g>
<!-- Node24&#45;&gt;Node25 -->
<g id="edge3" class="edge">
<title>Node24&#45;&gt;Node25</title>
<path fill="none" stroke="#191970" d="M177.5,-102.2849C177.5,-92.9858 177.5,-82.9883 177.5,-75.8469"/>
<polygon fill="#191970" stroke="#191970" points="174.0001,-102.2977 177.5,-112.2977 181.0001,-102.2978 174.0001,-102.2977"/>
</g>
<!-- Node26 -->
<g id="node5" class="node">
<title>Node26</title>
<g id="a_node5"><a xlink:href="ppap4lmp_8cpp.html" target="_top" xlink:title="This file has no implementation, only includes a header file to bind C++ and Python. ">
<polygon fill="#ffffff" stroke="#000000" points="130.5,-.5 130.5,-19.5 224.5,-19.5 224.5,-.5 130.5,-.5"/>
<text text-anchor="middle" x="177.5" y="-7.5" font-family="Helvetica,sans-Serif" font-size="10.00" fill="#000000">src/ppap4lmp.cpp</text>
</a>
</g>
</g>
<!-- Node25&#45;&gt;Node26 -->
<g id="edge4" class="edge">
<title>Node25&#45;&gt;Node26</title>
<path fill="none" stroke="#191970" d="M177.5,-46.1575C177.5,-37.155 177.5,-26.9199 177.5,-19.6427"/>
<polygon fill="#191970" stroke="#191970" points="174.0001,-46.2455 177.5,-56.2455 181.0001,-46.2456 174.0001,-46.2455"/>
</g>
</g>
</svg>
