<?xml version="1.0" encoding="UTF-8" standalone="no"?>
<!DOCTYPE svg PUBLIC "-//W3C//DTD SVG 1.1//EN"
 "http://www.w3.org/Graphics/SVG/1.1/DTD/svg11.dtd">
<!-- Generated by graphviz version 2.40.1 (20161225.0304)
 -->
<!-- Title: src/adders/add_map.cpp Pages: 1 -->
<!--zoomable 532 -->
<svg id="main" version="1.1" xmlns="http://www.w3.org/2000/svg" xmlns:xlink="http://www.w3.org/1999/xlink" xml:space="preserve" onload="init(evt)">
<style type="text/css"><![CDATA[
.edge:hover path { stroke: red; }
.edge:hover polygon { stroke: red; fill: red; }
]]></style>
<script type="text/javascript"><![CDATA[
var edges = document.getElementsByTagName('g');
if (edges && edges.length) {
  for (var i=0;i<edges.length;i++) {
    if (edges[i].id.substr(0,4)=='edge') {
      edges[i].setAttribute('class','edge');
    }
  }
}
]]></script>
        <defs>
                <circle id="rim" cx="0" cy="0" r="7"/>
                <circle id="rim2" cx="0" cy="0" r="3.5"/>
                <g id="zoomPlus">
                        <use xlink:href="#rim" fill="#404040">
                                <set attributeName="fill" to="#808080" begin="zoomplus.mouseover" end="zoomplus.mouseout"/>
                        </use>
                        <path d="M-4,0h8M0,-4v8" fill="none" stroke="white" stroke-width="1.5" pointer-events="none"/>
                </g>
                <g id="zoomMin">
                        <use xlink:href="#rim" fill="#404040">
                                <set attributeName="fill" to="#808080" begin="zoomminus.mouseover" end="zoomminus.mouseout"/>
                        </use>
                        <path d="M-4,0h8" fill="none" stroke="white" stroke-width="1.5" pointer-events="none"/>
                </g>
                <g id="dirArrow">
                        <path fill="none" stroke="white" stroke-width="1.5" d="M0,-3.0v7 M-2.5,-0.5L0,-3.0L2.5,-0.5"/>
                </g>
               <g id="resetDef">
                       <use xlink:href="#rim2" fill="#404040">
                               <set attributeName="fill" to="#808080" begin="reset.mouseover" end="reset.mouseout"/>
                       </use>
               </g>
        </defs>

<script type="text/javascript">
var viewWidth = 666;
var viewHeight = 532;
var sectionId = 'dynsection-0';
</script>
<script xlink:href="svgpan.js"/>
<svg id="graph" class="graph">
<g id="viewport">
<title>src/adders/add_map.cpp</title>
<polygon fill="#ffffff" stroke="transparent" points="-4,4 -4,-528 661.5,-528 661.5,4 -4,4"/>
<!-- Node0 -->
<g id="node1" class="node">
<title>Node0</title>
<polygon fill="#bfbfbf" stroke="#000000" points="228,-504.5 228,-523.5 352,-523.5 352,-504.5 228,-504.5"/>
<text text-anchor="middle" x="290" y="-511.5" font-family="Helvetica,sans-Serif" font-size="10.00" fill="#000000">src/adders/add_map.cpp</text>
</g>
<!-- Node1 -->
<g id="node2" class="node">
<title>Node1</title>
<g id="a_node2"><a xlink:href="add__map_8h.html" target="_top" xlink:title="This file has a definition of AddMap class, which is a subclass of Adder class. ">
<polygon fill="#ffffff" stroke="#000000" points="227.5,-448.5 227.5,-467.5 292.5,-467.5 292.5,-448.5 227.5,-448.5"/>
<text text-anchor="middle" x="260" y="-455.5" font-family="Helvetica,sans-Serif" font-size="10.00" fill="#000000">add_map.h</text>
</a>
</g>
</g>
<!-- Node0&#45;&gt;Node1 -->
<g id="edge1" class="edge">
<title>Node0&#45;&gt;Node1</title>
<path fill="none" stroke="#191970" d="M284.7744,-504.2455C280.6877,-496.617 274.8865,-485.7881 269.925,-476.5267"/>
<polygon fill="#191970" stroke="#191970" points="272.9732,-474.8047 265.1657,-467.6427 266.8028,-478.1103 272.9732,-474.8047"/>
</g>
<!-- Node23 -->
<g id="node24" class="node">
<title>Node23</title>
<g id="a_node24"><a xlink:href="runtime__error_8h.html" target="_top" xlink:title="This file has a definition of utils::runtime_error. ">
<polygon fill="#ffffff" stroke="#000000" points="378,-392.5 378,-411.5 490,-411.5 490,-392.5 378,-392.5"/>
<text text-anchor="middle" x="434" y="-399.5" font-family="Helvetica,sans-Serif" font-size="10.00" fill="#000000">../utils/runtime_error.h</text>
</a>
</g>
</g>
<!-- Node0&#45;&gt;Node23 -->
<g id="edge28" class="edge">
<title>Node0&#45;&gt;Node23</title>
<path fill="none" stroke="#191970" d="M302.2774,-504.4509C327.0387,-485.1921 383.1862,-441.5218 413.5655,-417.8935"/>
<polygon fill="#191970" stroke="#191970" points="416.009,-420.4271 421.7537,-411.5249 411.7114,-414.9016 416.009,-420.4271"/>
</g>
<!-- Node2 -->
<g id="node3" class="node">
<title>Node2</title>
<g id="a_node3"><a xlink:href="adder_8h.html" target="_top" xlink:title="This file has a definition of Adder class, which is a subclass of Updater class. ">
<polygon fill="#ffffff" stroke="#000000" points="192.5,-392.5 192.5,-411.5 273.5,-411.5 273.5,-392.5 192.5,-392.5"/>
<text text-anchor="middle" x="233" y="-399.5" font-family="Helvetica,sans-Serif" font-size="10.00" fill="#000000">adders/adder.h</text>
</a>
</g>
</g>
<!-- Node1&#45;&gt;Node2 -->
<g id="edge2" class="edge">
<title>Node1&#45;&gt;Node2</title>
<path fill="none" stroke="#191970" d="M255.297,-448.2455C251.6576,-440.6973 246.5076,-430.0158 242.0738,-420.8197"/>
<polygon fill="#191970" stroke="#191970" points="245.1449,-419.1303 237.6491,-411.6427 238.8395,-422.1704 245.1449,-419.1303"/>
</g>
<!-- Node3 -->
<g id="node4" class="node">
<title>Node3</title>
<g id="a_node4"><a xlink:href="updater_8h.html" target="_top" xlink:title="This file has a definition of Updater class, which is one of the cores of this program. ">
<polygon fill="#ffffff" stroke="#000000" points="150.5,-336.5 150.5,-355.5 229.5,-355.5 229.5,-336.5 150.5,-336.5"/>
<text text-anchor="middle" x="190" y="-343.5" font-family="Helvetica,sans-Serif" font-size="10.00" fill="#000000">core/updater.h</text>
</a>
</g>
</g>
<!-- Node2&#45;&gt;Node3 -->
<g id="edge3" class="edge">
<title>Node2&#45;&gt;Node3</title>
<path fill="none" stroke="#191970" d="M225.51,-392.2455C219.4674,-384.3761 210.8097,-373.101 203.5559,-363.6542"/>
<polygon fill="#191970" stroke="#191970" points="206.2705,-361.4426 197.4042,-355.6427 200.7185,-365.7058 206.2705,-361.4426"/>
</g>
<!-- Node4 -->
<g id="node5" class="node">
<title>Node4</title>
<polygon fill="#ffffff" stroke="#bfbfbf" points="0,-112.5 0,-131.5 44,-131.5 44,-112.5 0,-112.5"/>
<text text-anchor="middle" x="22" y="-119.5" font-family="Helvetica,sans-Serif" font-size="10.00" fill="#000000">omp.h</text>
</g>
<!-- Node3&#45;&gt;Node4 -->
<g id="edge4" class="edge">
<title>Node3&#45;&gt;Node4</title>
<path fill="none" stroke="#191970" d="M175.0369,-336.4674C150.6026,-320.2166 101.9629,-284.9078 73,-244 49.8894,-211.3581 34.6142,-166.6418 27.2132,-141.4031"/>
<polygon fill="#191970" stroke="#191970" points="30.5264,-140.256 24.445,-131.5803 23.7888,-142.1548 30.5264,-140.256"/>
</g>
<!-- Node5 -->
<g id="node6" class="node">
<title>Node5</title>
<g id="a_node6"><a xlink:href="generators_8h.html" target="_top" xlink:title="This file includes all the header files of subclasses of Generator class. ">
<polygon fill="#ffffff" stroke="#000000" points="144,-280.5 144,-299.5 236,-299.5 236,-280.5 144,-280.5"/>
<text text-anchor="middle" x="190" y="-287.5" font-family="Helvetica,sans-Serif" font-size="10.00" fill="#000000">core/generators.h</text>
</a>
</g>
</g>
<!-- Node3&#45;&gt;Node5 -->
<g id="edge5" class="edge">
<title>Node3&#45;&gt;Node5</title>
<path fill="none" stroke="#191970" d="M190,-336.2455C190,-328.9382 190,-318.6944 190,-309.7046"/>
<polygon fill="#191970" stroke="#191970" points="193.5001,-309.6426 190,-299.6427 186.5001,-309.6427 193.5001,-309.6426"/>
</g>
<!-- Node6 -->
<g id="node7" class="node">
<title>Node6</title>
<g id="a_node7"><a xlink:href="element_8h.html" target="_top" xlink:title="This file has a definition of Element class, which is one of the cores of this program. ">
<polygon fill="#ffffff" stroke="#000000" points="149.5,-168.5 149.5,-187.5 230.5,-187.5 230.5,-168.5 149.5,-168.5"/>
<text text-anchor="middle" x="190" y="-175.5" font-family="Helvetica,sans-Serif" font-size="10.00" fill="#000000">core/element.h</text>
</a>
</g>
</g>
<!-- Node5&#45;&gt;Node6 -->
<g id="edge6" class="edge">
<title>Node5&#45;&gt;Node6</title>
<path fill="none" stroke="#191970" d="M190,-280.4509C190,-262.184 190,-221.9553 190,-197.6976"/>
<polygon fill="#191970" stroke="#191970" points="193.5001,-197.5249 190,-187.5249 186.5001,-197.5249 193.5001,-197.5249"/>
</g>
<!-- Node21 -->
<g id="node22" class="node">
<title>Node21</title>
<g id="a_node22"><a xlink:href="gen__dict_8h.html" target="_top" xlink:title="This file has a definition of GenDict class. ">
<polygon fill="#ffffff" stroke="#000000" points="218.5,-224.5 218.5,-243.5 301.5,-243.5 301.5,-224.5 218.5,-224.5"/>
<text text-anchor="middle" x="260" y="-231.5" font-family="Helvetica,sans-Serif" font-size="10.00" fill="#000000">core/gen_dict.h</text>
</a>
</g>
</g>
<!-- Node5&#45;&gt;Node21 -->
<g id="edge24" class="edge">
<title>Node5&#45;&gt;Node21</title>
<path fill="none" stroke="#191970" d="M202.1931,-280.2455C212.6321,-271.8943 227.8655,-259.7076 240.074,-249.9408"/>
<polygon fill="#191970" stroke="#191970" points="242.3244,-252.6227 247.9467,-243.6427 237.9515,-247.1566 242.3244,-252.6227"/>
</g>
<!-- Node22 -->
<g id="node23" class="node">
<title>Node22</title>
<g id="a_node23"><a xlink:href="gen__list_8h.html" target="_top" xlink:title="This file has a definition of GenList class. ">
<polygon fill="#ffffff" stroke="#000000" points="82,-224.5 82,-243.5 162,-243.5 162,-224.5 82,-224.5"/>
<text text-anchor="middle" x="122" y="-231.5" font-family="Helvetica,sans-Serif" font-size="10.00" fill="#000000">core/gen_list.h</text>
</a>
</g>
</g>
<!-- Node5&#45;&gt;Node22 -->
<g id="edge26" class="edge">
<title>Node5&#45;&gt;Node22</title>
<path fill="none" stroke="#191970" d="M178.1553,-280.2455C168.112,-271.9746 153.5005,-259.9416 141.6996,-250.2232"/>
<polygon fill="#191970" stroke="#191970" points="143.6533,-247.298 133.709,-243.6427 139.2033,-252.7015 143.6533,-247.298"/>
</g>
<!-- Node6&#45;&gt;Node4 -->
<g id="edge7" class="edge">
<title>Node6&#45;&gt;Node4</title>
<path fill="none" stroke="#191970" d="M161.1198,-168.3733C131.282,-158.4273 84.8315,-142.9438 53.9209,-132.6403"/>
<polygon fill="#191970" stroke="#191970" points="54.6741,-129.2021 44.0804,-129.3601 52.4604,-135.8429 54.6741,-129.2021"/>
</g>
<!-- Node7 -->
<g id="node8" class="node">
<title>Node7</title>
<g id="a_node8"><a xlink:href="eigen_8h.html" target="_top" xlink:title="This file includes Eigen and defines some aliases for the Eigen&#45;Vector, Matrix and Array...">
<polygon fill="#ffffff" stroke="#000000" points="62.5,-112.5 62.5,-131.5 133.5,-131.5 133.5,-112.5 62.5,-112.5"/>
<text text-anchor="middle" x="98" y="-119.5" font-family="Helvetica,sans-Serif" font-size="10.00" fill="#000000">alias/eigen.h</text>
</a>
</g>
</g>
<!-- Node6&#45;&gt;Node7 -->
<g id="edge8" class="edge">
<title>Node6&#45;&gt;Node7</title>
<path fill="none" stroke="#191970" d="M173.9748,-168.2455C159.8592,-159.6534 139.0737,-147.0014 122.8101,-137.1018"/>
<polygon fill="#191970" stroke="#191970" points="124.2034,-133.8525 113.8415,-131.6427 120.5637,-139.8319 124.2034,-133.8525"/>
</g>
<!-- Node9 -->
<g id="node10" class="node">
<title>Node9</title>
<g id="a_node10"><a xlink:href="alias_2pybind_8h.html" target="_top" xlink:title="This file includes pybind11 and defines an alias for the namespace pybind11. ">
<polygon fill="#ffffff" stroke="#000000" points="151.5,-112.5 151.5,-131.5 228.5,-131.5 228.5,-112.5 151.5,-112.5"/>
<text text-anchor="middle" x="190" y="-119.5" font-family="Helvetica,sans-Serif" font-size="10.00" fill="#000000">alias/pybind.h</text>
</a>
</g>
</g>
<!-- Node6&#45;&gt;Node9 -->
<g id="edge10" class="edge">
<title>Node6&#45;&gt;Node9</title>
<path fill="none" stroke="#191970" d="M190,-168.2455C190,-160.9382 190,-150.6944 190,-141.7046"/>
<polygon fill="#191970" stroke="#191970" points="193.5001,-141.6426 190,-131.6427 186.5001,-141.6427 193.5001,-141.6426"/>
</g>
<!-- Node11 -->
<g id="node12" class="node">
<title>Node11</title>
<g id="a_node12"><a xlink:href="generator_8h.html" target="_top" xlink:title="This file has a definition of Generator class, which is one of the cores of this program. ">
<polygon fill="#ffffff" stroke="#000000" points="361.5,-112.5 361.5,-131.5 448.5,-131.5 448.5,-112.5 361.5,-112.5"/>
<text text-anchor="middle" x="405" y="-119.5" font-family="Helvetica,sans-Serif" font-size="10.00" fill="#000000">core/generator.h</text>
</a>
</g>
</g>
<!-- Node6&#45;&gt;Node11 -->
<g id="edge12" class="edge">
<title>Node6&#45;&gt;Node11</title>
<path fill="none" stroke="#191970" d="M226.9598,-168.3733C263.4075,-158.8799 319.2246,-144.3415 358.6289,-134.0781"/>
<polygon fill="#191970" stroke="#191970" points="359.7276,-137.4087 368.5225,-131.5011 357.9631,-130.6348 359.7276,-137.4087"/>
</g>
<!-- Node20 -->
<g id="node21" class="node">
<title>Node20</title>
<g id="a_node21"><a xlink:href="data__keys_8h.html" target="_top" xlink:title="This file has a definition of DataKeys class, which is owned by Element class. ">
<polygon fill="#ffffff" stroke="#000000" points="247,-112.5 247,-131.5 343,-131.5 343,-112.5 247,-112.5"/>
<text text-anchor="middle" x="295" y="-119.5" font-family="Helvetica,sans-Serif" font-size="10.00" fill="#000000">class/data_keys.h</text>
</a>
</g>
</g>
<!-- Node6&#45;&gt;Node20 -->
<g id="edge21" class="edge">
<title>Node6&#45;&gt;Node20</title>
<path fill="none" stroke="#191970" d="M208.2896,-168.2455C224.7762,-159.4527 249.2352,-146.4079 267.9765,-136.4125"/>
<polygon fill="#191970" stroke="#191970" points="269.7435,-139.4368 276.92,-131.6427 266.4494,-133.2604 269.7435,-139.4368"/>
</g>
<!-- Node8 -->
<g id="node9" class="node">
<title>Node8</title>
<polygon fill="#ffffff" stroke="#bfbfbf" points="48,-56.5 48,-75.5 120,-75.5 120,-56.5 48,-56.5"/>
<text text-anchor="middle" x="84" y="-63.5" font-family="Helvetica,sans-Serif" font-size="10.00" fill="#000000">Eigen/Dense</text>
</g>
<!-- Node7&#45;&gt;Node8 -->
<g id="edge9" class="edge">
<title>Node7&#45;&gt;Node8</title>
<path fill="none" stroke="#191970" d="M95.5614,-112.2455C93.7145,-104.8579 91.1172,-94.4689 88.8522,-85.4087"/>
<polygon fill="#191970" stroke="#191970" points="92.2316,-84.4952 86.4107,-75.6427 85.4406,-86.193 92.2316,-84.4952"/>
</g>
<!-- Node10 -->
<g id="node11" class="node">
<title>Node10</title>
<polygon fill="#ffffff" stroke="#bfbfbf" points="138,-56.5 138,-75.5 244,-75.5 244,-56.5 138,-56.5"/>
<text text-anchor="middle" x="191" y="-63.5" font-family="Helvetica,sans-Serif" font-size="10.00" fill="#000000">pybind11/pybind11.h</text>
</g>
<!-- Node9&#45;&gt;Node10 -->
<g id="edge11" class="edge">
<title>Node9&#45;&gt;Node10</title>
<path fill="none" stroke="#191970" d="M190.1742,-112.2455C190.3047,-104.9382 190.4876,-94.6944 190.6481,-85.7046"/>
<polygon fill="#191970" stroke="#191970" points="194.1486,-85.7036 190.8278,-75.6427 187.1497,-85.5786 194.1486,-85.7036"/>
</g>
<!-- Node12 -->
<g id="node13" class="node">
<title>Node12</title>
<g id="a_node13"><a xlink:href="std_8h.html" target="_top" xlink:title="This file includes a part of C++ Standard Template Library and defines aliases for them...">
<polygon fill="#ffffff" stroke="#000000" points="410,-56.5 410,-75.5 472,-75.5 472,-56.5 410,-56.5"/>
<text text-anchor="middle" x="441" y="-63.5" font-family="Helvetica,sans-Serif" font-size="10.00" fill="#000000">alias/std.h</text>
</a>
</g>
</g>
<!-- Node11&#45;&gt;Node12 -->
<g id="edge13" class="edge">
<title>Node11&#45;&gt;Node12</title>
<path fill="none" stroke="#191970" d="M411.2707,-112.2455C416.2264,-104.5367 423.283,-93.5598 429.2776,-84.2348"/>
<polygon fill="#191970" stroke="#191970" points="432.3376,-85.9471 434.8011,-75.6427 426.4494,-82.1618 432.3376,-85.9471"/>
</g>
<!-- Node18 -->
<g id="node19" class="node">
<title>Node18</title>
<g id="a_node19"><a xlink:href="json_8h.html" target="_top" xlink:title="This file includes nlohmann/json and defines an alias for a JSON class. ">
<polygon fill="#ffffff" stroke="#000000" points="262,-56.5 262,-75.5 328,-75.5 328,-56.5 262,-56.5"/>
<text text-anchor="middle" x="295" y="-63.5" font-family="Helvetica,sans-Serif" font-size="10.00" fill="#000000">alias/json.h</text>
</a>
</g>
</g>
<!-- Node11&#45;&gt;Node18 -->
<g id="edge19" class="edge">
<title>Node11&#45;&gt;Node18</title>
<path fill="none" stroke="#191970" d="M385.8395,-112.2455C368.4889,-103.4125 342.7099,-90.2887 323.0417,-80.2758"/>
<polygon fill="#191970" stroke="#191970" points="324.4405,-77.0605 313.941,-75.6427 321.2647,-83.2986 324.4405,-77.0605"/>
</g>
<!-- Node13 -->
<g id="node14" class="node">
<title>Node13</title>
<polygon fill="#ffffff" stroke="#bfbfbf" points="382,-.5 382,-19.5 434,-19.5 434,-.5 382,-.5"/>
<text text-anchor="middle" x="408" y="-7.5" font-family="Helvetica,sans-Serif" font-size="10.00" fill="#000000">memory</text>
</g>
<!-- Node12&#45;&gt;Node13 -->
<g id="edge14" class="edge">
<title>Node12&#45;&gt;Node13</title>
<path fill="none" stroke="#191970" d="M435.2518,-56.2455C430.7565,-48.617 424.3752,-37.7881 418.9175,-28.5267"/>
<polygon fill="#191970" stroke="#191970" points="421.7747,-26.4811 413.6823,-19.6427 415.7439,-30.035 421.7747,-26.4811"/>
</g>
<!-- Node14 -->
<g id="node15" class="node">
<title>Node14</title>
<polygon fill="#ffffff" stroke="#bfbfbf" points="452.5,-.5 452.5,-19.5 493.5,-19.5 493.5,-.5 452.5,-.5"/>
<text text-anchor="middle" x="473" y="-7.5" font-family="Helvetica,sans-Serif" font-size="10.00" fill="#000000">string</text>
</g>
<!-- Node12&#45;&gt;Node14 -->
<g id="edge15" class="edge">
<title>Node12&#45;&gt;Node14</title>
<path fill="none" stroke="#191970" d="M446.574,-56.2455C450.9331,-48.617 457.1211,-37.7881 462.4133,-28.5267"/>
<polygon fill="#191970" stroke="#191970" points="465.5673,-30.0616 467.4899,-19.6427 459.4896,-26.5886 465.5673,-30.0616"/>
</g>
<!-- Node15 -->
<g id="node16" class="node">
<title>Node15</title>
<polygon fill="#ffffff" stroke="#bfbfbf" points="512,-.5 512,-19.5 556,-19.5 556,-.5 512,-.5"/>
<text text-anchor="middle" x="534" y="-7.5" font-family="Helvetica,sans-Serif" font-size="10.00" fill="#000000">vector</text>
</g>
<!-- Node12&#45;&gt;Node15 -->
<g id="edge16" class="edge">
<title>Node12&#45;&gt;Node15</title>
<path fill="none" stroke="#191970" d="M457.1994,-56.2455C471.6018,-47.5731 492.8732,-34.7645 509.3799,-24.825"/>
<polygon fill="#191970" stroke="#191970" points="511.225,-27.7996 517.9863,-19.6427 507.614,-21.8028 511.225,-27.7996"/>
</g>
<!-- Node16 -->
<g id="node17" class="node">
<title>Node16</title>
<polygon fill="#ffffff" stroke="#bfbfbf" points="574.5,-.5 574.5,-19.5 657.5,-19.5 657.5,-.5 574.5,-.5"/>
<text text-anchor="middle" x="616" y="-7.5" font-family="Helvetica,sans-Serif" font-size="10.00" fill="#000000">unordered_map</text>
</g>
<!-- Node12&#45;&gt;Node16 -->
<g id="edge17" class="edge">
<title>Node12&#45;&gt;Node16</title>
<path fill="none" stroke="#191970" d="M471.0836,-56.3733C500.1834,-47.0613 544.4523,-32.8953 576.403,-22.671"/>
<polygon fill="#191970" stroke="#191970" points="577.8515,-25.8824 586.309,-19.5011 575.718,-19.2155 577.8515,-25.8824"/>
</g>
<!-- Node17 -->
<g id="node18" class="node">
<title>Node17</title>
<polygon fill="#ffffff" stroke="#bfbfbf" points="286,-.5 286,-19.5 364,-19.5 364,-.5 286,-.5"/>
<text text-anchor="middle" x="325" y="-7.5" font-family="Helvetica,sans-Serif" font-size="10.00" fill="#000000">unordered_set</text>
</g>
<!-- Node12&#45;&gt;Node17 -->
<g id="edge18" class="edge">
<title>Node12&#45;&gt;Node17</title>
<path fill="none" stroke="#191970" d="M421.0589,-56.3733C402.5214,-47.4241 374.6972,-33.9917 353.7587,-23.8835"/>
<polygon fill="#191970" stroke="#191970" points="355.2081,-20.6967 344.6809,-19.5011 352.1648,-27.0006 355.2081,-20.6967"/>
</g>
<!-- Node19 -->
<g id="node20" class="node">
<title>Node19</title>
<polygon fill="#ffffff" stroke="#bfbfbf" points="170,-.5 170,-19.5 268,-19.5 268,-.5 170,-.5"/>
<text text-anchor="middle" x="219" y="-7.5" font-family="Helvetica,sans-Serif" font-size="10.00" fill="#000000">nlohmann/json.hpp</text>
</g>
<!-- Node18&#45;&gt;Node19 -->
<g id="edge20" class="edge">
<title>Node18&#45;&gt;Node19</title>
<path fill="none" stroke="#191970" d="M281.7618,-56.2455C270.319,-47.814 253.5704,-35.4729 240.2525,-25.6598"/>
<polygon fill="#191970" stroke="#191970" points="242.2133,-22.757 232.0865,-19.6427 238.0609,-28.3924 242.2133,-22.757"/>
</g>
<!-- Node20&#45;&gt;Node12 -->
<g id="edge22" class="edge">
<title>Node20&#45;&gt;Node12</title>
<path fill="none" stroke="#191970" d="M320.0983,-112.3733C343.9555,-103.2226 380.0335,-89.3844 406.571,-79.2057"/>
<polygon fill="#191970" stroke="#191970" points="408.1459,-82.3503 416.2292,-75.5011 405.639,-75.8145 408.1459,-82.3503"/>
</g>
<!-- Node20&#45;&gt;Node18 -->
<g id="edge23" class="edge">
<title>Node20&#45;&gt;Node18</title>
<path fill="none" stroke="#191970" d="M295,-112.2455C295,-104.9382 295,-94.6944 295,-85.7046"/>
<polygon fill="#191970" stroke="#191970" points="298.5001,-85.6426 295,-75.6427 291.5001,-85.6427 298.5001,-85.6426"/>
</g>
<!-- Node21&#45;&gt;Node6 -->
<g id="edge25" class="edge">
<title>Node21&#45;&gt;Node6</title>
<path fill="none" stroke="#191970" d="M247.8069,-224.2455C237.3679,-215.8943 222.1345,-203.7076 209.926,-193.9408"/>
<polygon fill="#191970" stroke="#191970" points="212.0485,-191.1566 202.0533,-187.6427 207.6756,-196.6227 212.0485,-191.1566"/>
</g>
<!-- Node22&#45;&gt;Node6 -->
<g id="edge27" class="edge">
<title>Node22&#45;&gt;Node6</title>
<path fill="none" stroke="#191970" d="M133.8447,-224.2455C143.888,-215.9746 158.4995,-203.9416 170.3004,-194.2232"/>
<polygon fill="#191970" stroke="#191970" points="172.7967,-196.7015 178.291,-187.6427 168.3467,-191.298 172.7967,-196.7015"/>
</g>
<!-- Node23&#45;&gt;Node12 -->
<g id="edge29" class="edge">
<title>Node23&#45;&gt;Node12</title>
<path fill="none" stroke="#191970" d="M440.5308,-392.2931C452.5599,-373.4432 477,-330.1986 477,-290 477,-290 477,-290 477,-178 477,-143.7942 461.5926,-106.4094 450.9369,-84.6445"/>
<polygon fill="#191970" stroke="#191970" points="453.9659,-82.8795 446.3119,-75.5538 447.727,-86.0537 453.9659,-82.8795"/>
</g>
</g>
</svg>
        <g id="navigator" transform="translate(0 0)" fill="#404254">
                <rect fill="#f2f5e9" fill-opacity="0.5" stroke="#606060" stroke-width=".5" x="0" y="0" width="60" height="60"/>
                <use id="zoomplus" xlink:href="#zoomPlus" x="17" y="9" onmousedown="handleZoom(evt,'in')"/>
                <use id="zoomminus" xlink:href="#zoomMin" x="42" y="9" onmousedown="handleZoom(evt,'out')"/>
                <use id="reset" xlink:href="#resetDef" x="30" y="36" onmousedown="handleReset()"/>
                <g id="arrowUp" xlink:href="#dirArrow" transform="translate(30 24)" onmousedown="handlePan(0,-1)">
                  <use xlink:href="#rim" fill="#404040">
                        <set attributeName="fill" to="#808080" begin="arrowUp.mouseover" end="arrowUp.mouseout"/>
                  </use>
                  <path fill="none" stroke="white" stroke-width="1.5" d="M0,-3.0v7 M-2.5,-0.5L0,-3.0L2.5,-0.5"/>
                </g>
                <g id="arrowRight" xlink:href="#dirArrow" transform="rotate(90) translate(36 -43)" onmousedown="handlePan(1,0)">
                  <use xlink:href="#rim" fill="#404040">
                        <set attributeName="fill" to="#808080" begin="arrowRight.mouseover" end="arrowRight.mouseout"/>
                  </use>
                  <path fill="none" stroke="white" stroke-width="1.5" d="M0,-3.0v7 M-2.5,-0.5L0,-3.0L2.5,-0.5"/>
                </g>
                <g id="arrowDown" xlink:href="#dirArrow" transform="rotate(180) translate(-30 -48)" onmousedown="handlePan(0,1)">
                  <use xlink:href="#rim" fill="#404040">
                        <set attributeName="fill" to="#808080" begin="arrowDown.mouseover" end="arrowDown.mouseout"/>
                  </use>
                  <path fill="none" stroke="white" stroke-width="1.5" d="M0,-3.0v7 M-2.5,-0.5L0,-3.0L2.5,-0.5"/>
                </g>
                <g id="arrowLeft" xlink:href="#dirArrow" transform="rotate(270) translate(-36 17)" onmousedown="handlePan(-1,0)">
                  <use xlink:href="#rim" fill="#404040">
                        <set attributeName="fill" to="#808080" begin="arrowLeft.mouseover" end="arrowLeft.mouseout"/>
                  </use>
                  <path fill="none" stroke="white" stroke-width="1.5" d="M0,-3.0v7 M-2.5,-0.5L0,-3.0L2.5,-0.5"/>
                </g>
        </g>
        <svg viewBox="0 0 15 15" width="100%" height="30px" preserveAspectRatio="xMaxYMin meet">
         <g id="arrow_out" transform="scale(0.3 0.3)">
          <a xlink:href="add__map_8cpp__incl_org.svg" target="_base">
           <rect id="button" ry="5" rx="5" y="6" x="6" height="38" width="38"
                fill="#f2f5e9" fill-opacity="0.5" stroke="#606060" stroke-width="1.0"/>
           <path id="arrow"
             d="M 11.500037,31.436501 C 11.940474,20.09759 22.043105,11.32322 32.158766,21.979434 L 37.068811,17.246167 C 37.068811,17.246167 37.088388,32 37.088388,32 L 22.160133,31.978069 C 22.160133,31.978069 26.997745,27.140456 26.997745,27.140456 C 18.528582,18.264221 13.291696,25.230495 11.500037,31.436501 z"
             style="fill:#404040;"/>
          </a>
         </g>
        </svg>
</svg>
