<?xml version="1.0" encoding="UTF-8" standalone="no"?>
<!DOCTYPE svg PUBLIC "-//W3C//DTD SVG 1.1//EN"
 "http://www.w3.org/Graphics/SVG/1.1/DTD/svg11.dtd">
<!-- Generated by graphviz version 2.40.1 (20161225.0304)
 -->
<!-- Title: src/adders/add_com_position.cpp Pages: 1 -->
<svg width="496pt" height="207pt"
 viewBox="0.00 0.00 496.00 207.00" xmlns="http://www.w3.org/2000/svg" xmlns:xlink="http://www.w3.org/1999/xlink">
<g id="graph0" class="graph" transform="scale(1 1) rotate(0) translate(4 203)">
<title>src/adders/add_com_position.cpp</title>
<polygon fill="#ffffff" stroke="transparent" points="-4,4 -4,-203 492,-203 492,4 -4,4"/>
<!-- Node0 -->
<g id="node1" class="node">
<title>Node0</title>
<polygon fill="#bfbfbf" stroke="#000000" points="95.5,-168.5 95.5,-198.5 200.5,-198.5 200.5,-168.5 95.5,-168.5"/>
<text text-anchor="start" x="103.5" y="-186.5" font-family="Helvetica,sans-Serif" font-size="10.00" fill="#000000">src/adders/add_com</text>
<text text-anchor="middle" x="148" y="-175.5" font-family="Helvetica,sans-Serif" font-size="10.00" fill="#000000">_position.cpp</text>
</g>
<!-- Node1 -->
<g id="node2" class="node">
<title>Node1</title>
<g id="a_node2"><a xlink:href="adders_2add__com__position_8h.html" target="_top" xlink:title="add_com_position.h">
<polygon fill="#ffffff" stroke="#000000" points="32,-112.5 32,-131.5 136,-131.5 136,-112.5 32,-112.5"/>
<text text-anchor="middle" x="84" y="-119.5" font-family="Helvetica,sans-Serif" font-size="10.00" fill="#000000">add_com_position.h</text>
</a>
</g>
</g>
<!-- Node0&#45;&gt;Node1 -->
<g id="edge1" class="edge">
<title>Node0&#45;&gt;Node1</title>
<path fill="none" stroke="#191970" d="M132.1798,-168.2977C122.9258,-159.4052 111.2219,-148.1586 101.667,-138.9769"/>
<polygon fill="#191970" stroke="#191970" points="103.8828,-136.2521 94.2472,-131.8469 99.0326,-141.2995 103.8828,-136.2521"/>
</g>
<!-- Node3 -->
<g id="node4" class="node">
<title>Node3</title>
<g id="a_node4"><a xlink:href="map__to__index_8h.html" target="_top" xlink:title="../utils/map_to_index.h">
<polygon fill="#ffffff" stroke="#000000" points="154,-112.5 154,-131.5 270,-131.5 270,-112.5 154,-112.5"/>
<text text-anchor="middle" x="212" y="-119.5" font-family="Helvetica,sans-Serif" font-size="10.00" fill="#000000">../utils/map_to_index.h</text>
</a>
</g>
</g>
<!-- Node0&#45;&gt;Node3 -->
<g id="edge3" class="edge">
<title>Node0&#45;&gt;Node3</title>
<path fill="none" stroke="#191970" d="M163.8202,-168.2977C173.0742,-159.4052 184.7781,-148.1586 194.333,-138.9769"/>
<polygon fill="#191970" stroke="#191970" points="196.9674,-141.2995 201.7528,-131.8469 192.1172,-136.2521 196.9674,-141.2995"/>
</g>
<!-- Node2 -->
<g id="node3" class="node">
<title>Node2</title>
<polygon fill="#ffffff" stroke="#bfbfbf" points="43.5,-56.5 43.5,-75.5 124.5,-75.5 124.5,-56.5 43.5,-56.5"/>
<text text-anchor="middle" x="84" y="-63.5" font-family="Helvetica,sans-Serif" font-size="10.00" fill="#000000">adders/adder.h</text>
</g>
<!-- Node1&#45;&gt;Node2 -->
<g id="edge2" class="edge">
<title>Node1&#45;&gt;Node2</title>
<path fill="none" stroke="#191970" d="M84,-112.2455C84,-104.9382 84,-94.6944 84,-85.7046"/>
<polygon fill="#191970" stroke="#191970" points="87.5001,-85.6426 84,-75.6427 80.5001,-85.6427 87.5001,-85.6426"/>
</g>
<!-- Node4 -->
<g id="node5" class="node">
<title>Node4</title>
<g id="a_node5"><a xlink:href="std_8h.html" target="_top" xlink:title="This file includes a part of C++ Standard Template Library and defines aliases for them...">
<polygon fill="#ffffff" stroke="#000000" points="162,-56.5 162,-75.5 224,-75.5 224,-56.5 162,-56.5"/>
<text text-anchor="middle" x="193" y="-63.5" font-family="Helvetica,sans-Serif" font-size="10.00" fill="#000000">alias/std.h</text>
</a>
</g>
</g>
<!-- Node3&#45;&gt;Node4 -->
<g id="edge4" class="edge">
<title>Node3&#45;&gt;Node4</title>
<path fill="none" stroke="#191970" d="M208.6905,-112.2455C206.1567,-104.7776 202.5823,-94.2427 199.485,-85.1137"/>
<polygon fill="#191970" stroke="#191970" points="202.7991,-83.9879 196.2716,-75.6427 196.1702,-86.237 202.7991,-83.9879"/>
</g>
<!-- Node10 -->
<g id="node11" class="node">
<title>Node10</title>
<g id="a_node11"><a xlink:href="json_8h.html" target="_top" xlink:title="This file includes nlohmann/json and defines an alias for the JSON type. ">
<polygon fill="#ffffff" stroke="#000000" points="344,-56.5 344,-75.5 410,-75.5 410,-56.5 344,-56.5"/>
<text text-anchor="middle" x="377" y="-63.5" font-family="Helvetica,sans-Serif" font-size="10.00" fill="#000000">alias/json.h</text>
</a>
</g>
</g>
<!-- Node3&#45;&gt;Node10 -->
<g id="edge10" class="edge">
<title>Node3&#45;&gt;Node10</title>
<path fill="none" stroke="#191970" d="M240.3645,-112.3733C267.6827,-103.1016 309.1796,-89.0178 339.2738,-78.804"/>
<polygon fill="#191970" stroke="#191970" points="340.661,-82.0294 349.0056,-75.5011 338.4113,-75.4008 340.661,-82.0294"/>
</g>
<!-- Node5 -->
<g id="node6" class="node">
<title>Node5</title>
<polygon fill="#ffffff" stroke="#bfbfbf" points="0,-.5 0,-19.5 52,-19.5 52,-.5 0,-.5"/>
<text text-anchor="middle" x="26" y="-7.5" font-family="Helvetica,sans-Serif" font-size="10.00" fill="#000000">memory</text>
</g>
<!-- Node4&#45;&gt;Node5 -->
<g id="edge5" class="edge">
<title>Node4&#45;&gt;Node5</title>
<path fill="none" stroke="#191970" d="M164.2917,-56.3733C135.972,-46.8769 92.5976,-32.3321 61.989,-22.0682"/>
<polygon fill="#191970" stroke="#191970" points="62.7321,-18.6259 52.1382,-18.7649 60.5066,-25.2627 62.7321,-18.6259"/>
</g>
<!-- Node6 -->
<g id="node7" class="node">
<title>Node6</title>
<polygon fill="#ffffff" stroke="#bfbfbf" points="70.5,-.5 70.5,-19.5 111.5,-19.5 111.5,-.5 70.5,-.5"/>
<text text-anchor="middle" x="91" y="-7.5" font-family="Helvetica,sans-Serif" font-size="10.00" fill="#000000">string</text>
</g>
<!-- Node4&#45;&gt;Node6 -->
<g id="edge6" class="edge">
<title>Node4&#45;&gt;Node6</title>
<path fill="none" stroke="#191970" d="M175.233,-56.2455C159.2905,-47.4928 135.6741,-34.527 117.5011,-24.5496"/>
<polygon fill="#191970" stroke="#191970" points="119.0137,-21.3873 108.5634,-19.6427 115.6448,-27.5233 119.0137,-21.3873"/>
</g>
<!-- Node7 -->
<g id="node8" class="node">
<title>Node7</title>
<polygon fill="#ffffff" stroke="#bfbfbf" points="130,-.5 130,-19.5 174,-19.5 174,-.5 130,-.5"/>
<text text-anchor="middle" x="152" y="-7.5" font-family="Helvetica,sans-Serif" font-size="10.00" fill="#000000">vector</text>
</g>
<!-- Node4&#45;&gt;Node7 -->
<g id="edge7" class="edge">
<title>Node4&#45;&gt;Node7</title>
<path fill="none" stroke="#191970" d="M185.8583,-56.2455C180.1556,-48.4564 172.01,-37.3308 165.1375,-27.9439"/>
<polygon fill="#191970" stroke="#191970" points="167.7913,-25.6437 159.0598,-19.6427 162.1432,-29.7789 167.7913,-25.6437"/>
</g>
<!-- Node8 -->
<g id="node9" class="node">
<title>Node8</title>
<polygon fill="#ffffff" stroke="#bfbfbf" points="192.5,-.5 192.5,-19.5 275.5,-19.5 275.5,-.5 192.5,-.5"/>
<text text-anchor="middle" x="234" y="-7.5" font-family="Helvetica,sans-Serif" font-size="10.00" fill="#000000">unordered_map</text>
</g>
<!-- Node4&#45;&gt;Node8 -->
<g id="edge8" class="edge">
<title>Node4&#45;&gt;Node8</title>
<path fill="none" stroke="#191970" d="M200.1417,-56.2455C205.8444,-48.4564 213.99,-37.3308 220.8625,-27.9439"/>
<polygon fill="#191970" stroke="#191970" points="223.8568,-29.7789 226.9402,-19.6427 218.2087,-25.6437 223.8568,-29.7789"/>
</g>
<!-- Node9 -->
<g id="node10" class="node">
<title>Node9</title>
<polygon fill="#ffffff" stroke="#bfbfbf" points="294,-.5 294,-19.5 372,-19.5 372,-.5 294,-.5"/>
<text text-anchor="middle" x="333" y="-7.5" font-family="Helvetica,sans-Serif" font-size="10.00" fill="#000000">unordered_set</text>
</g>
<!-- Node4&#45;&gt;Node9 -->
<g id="edge9" class="edge">
<title>Node4&#45;&gt;Node9</title>
<path fill="none" stroke="#191970" d="M217.0669,-56.3733C239.8428,-47.2629 274.2344,-33.5062 299.649,-23.3404"/>
<polygon fill="#191970" stroke="#191970" points="301.2623,-26.4648 309.2472,-19.5011 298.6625,-19.9654 301.2623,-26.4648"/>
</g>
<!-- Node11 -->
<g id="node12" class="node">
<title>Node11</title>
<polygon fill="#ffffff" stroke="#bfbfbf" points="390,-.5 390,-19.5 488,-19.5 488,-.5 390,-.5"/>
<text text-anchor="middle" x="439" y="-7.5" font-family="Helvetica,sans-Serif" font-size="10.00" fill="#000000">nlohmann/json.hpp</text>
</g>
<!-- Node10&#45;&gt;Node11 -->
<g id="edge11" class="edge">
<title>Node10&#45;&gt;Node11</title>
<path fill="none" stroke="#191970" d="M387.7996,-56.2455C396.8678,-48.0549 410.0206,-36.1749 420.7245,-26.5069"/>
<polygon fill="#191970" stroke="#191970" points="423.2491,-28.9429 428.3242,-19.6427 418.5571,-23.7482 423.2491,-28.9429"/>
</g>
</g>
</svg>
