<?xml version="1.0" encoding="UTF-8" standalone="no"?>
<!DOCTYPE svg PUBLIC "-//W3C//DTD SVG 1.1//EN"
 "http://www.w3.org/Graphics/SVG/1.1/DTD/svg11.dtd">
<!-- Generated by graphviz version 2.40.1 (20161225.0304)
 -->
<!-- Title: src/adders/add_child_ids.cpp Pages: 1 -->
<svg width="721pt" height="543pt"
 viewBox="0.00 0.00 721.00 543.00" xmlns="http://www.w3.org/2000/svg" xmlns:xlink="http://www.w3.org/1999/xlink">
<g id="graph0" class="graph" transform="scale(1 1) rotate(0) translate(4 539)">
<title>src/adders/add_child_ids.cpp</title>
<polygon fill="#ffffff" stroke="transparent" points="-4,4 -4,-539 717,-539 717,4 -4,4"/>
<!-- Node0 -->
<g id="node1" class="node">
<title>Node0</title>
<polygon fill="#bfbfbf" stroke="#000000" points="470.5,-504.5 470.5,-534.5 577.5,-534.5 577.5,-504.5 470.5,-504.5"/>
<text text-anchor="start" x="478.5" y="-522.5" font-family="Helvetica,sans-Serif" font-size="10.00" fill="#000000">src/adders/add_child</text>
<text text-anchor="middle" x="524" y="-511.5" font-family="Helvetica,sans-Serif" font-size="10.00" fill="#000000">_ids.cpp</text>
</g>
<!-- Node1 -->
<g id="node2" class="node">
<title>Node1</title>
<g id="a_node2"><a xlink:href="add__child__ids_8h.html" target="_top" xlink:title="This file has a definition of AddChildIDs class, which is a subclass of Adder class. ">
<polygon fill="#ffffff" stroke="#000000" points="346,-448.5 346,-467.5 430,-467.5 430,-448.5 346,-448.5"/>
<text text-anchor="middle" x="388" y="-455.5" font-family="Helvetica,sans-Serif" font-size="10.00" fill="#000000">add_child_ids.h</text>
</a>
</g>
</g>
<!-- Node0&#45;&gt;Node1 -->
<g id="edge1" class="edge">
<title>Node0&#45;&gt;Node1</title>
<path fill="none" stroke="#191970" d="M490.7307,-504.4554C468.6359,-494.464 439.854,-481.4487 418.3781,-471.7372"/>
<polygon fill="#191970" stroke="#191970" points="419.629,-468.4616 409.0752,-467.5303 416.7447,-474.8398 419.629,-468.4616"/>
</g>
<!-- Node23 -->
<g id="node24" class="node">
<title>Node23</title>
<g id="a_node24"><a xlink:href="map__to__index_8h.html" target="_top" xlink:title="This file has a definition of utils::map_to_index. ">
<polygon fill="#ffffff" stroke="#000000" points="466,-112.5 466,-131.5 582,-131.5 582,-112.5 466,-112.5"/>
<text text-anchor="middle" x="524" y="-119.5" font-family="Helvetica,sans-Serif" font-size="10.00" fill="#000000">../utils/map_to_index.h</text>
</a>
</g>
</g>
<!-- Node0&#45;&gt;Node23 -->
<g id="edge28" class="edge">
<title>Node0&#45;&gt;Node23</title>
<path fill="none" stroke="#191970" d="M524,-504.2899C524,-481.892 524,-438.7188 524,-402 524,-402 524,-402 524,-234 524,-201.7116 524,-164.1872 524,-141.8048"/>
<polygon fill="#191970" stroke="#191970" points="527.5001,-141.5883 524,-131.5884 520.5001,-141.5884 527.5001,-141.5883"/>
</g>
<!-- Node24 -->
<g id="node25" class="node">
<title>Node24</title>
<g id="a_node25"><a xlink:href="runtime__error_8h.html" target="_top" xlink:title="This file has a definition of utils::runtime_error. ">
<polygon fill="#ffffff" stroke="#000000" points="553,-392.5 553,-411.5 665,-411.5 665,-392.5 553,-392.5"/>
<text text-anchor="middle" x="609" y="-399.5" font-family="Helvetica,sans-Serif" font-size="10.00" fill="#000000">../utils/runtime_error.h</text>
</a>
</g>
</g>
<!-- Node0&#45;&gt;Node24 -->
<g id="edge31" class="edge">
<title>Node0&#45;&gt;Node24</title>
<path fill="none" stroke="#191970" d="M535.1123,-504.1389C550.8442,-482.3919 579.5402,-442.7238 596.1621,-419.7465"/>
<polygon fill="#191970" stroke="#191970" points="599.0592,-421.7132 602.0846,-411.5595 593.3876,-417.6103 599.0592,-421.7132"/>
</g>
<!-- Node2 -->
<g id="node3" class="node">
<title>Node2</title>
<g id="a_node3"><a xlink:href="adder_8h.html" target="_top" xlink:title="This file has a definition of Adder class, which is a subclass of Updater class. ">
<polygon fill="#ffffff" stroke="#000000" points="215.5,-392.5 215.5,-411.5 296.5,-411.5 296.5,-392.5 215.5,-392.5"/>
<text text-anchor="middle" x="256" y="-399.5" font-family="Helvetica,sans-Serif" font-size="10.00" fill="#000000">adders/adder.h</text>
</a>
</g>
</g>
<!-- Node1&#45;&gt;Node2 -->
<g id="edge2" class="edge">
<title>Node1&#45;&gt;Node2</title>
<path fill="none" stroke="#191970" d="M365.3084,-448.3733C343.9289,-439.3032 311.6943,-425.6279 287.7638,-415.4755"/>
<polygon fill="#191970" stroke="#191970" points="288.9683,-412.1846 278.3955,-411.5011 286.2344,-418.6287 288.9683,-412.1846"/>
</g>
<!-- Node3 -->
<g id="node4" class="node">
<title>Node3</title>
<g id="a_node4"><a xlink:href="updater_8h.html" target="_top" xlink:title="This file has a definition of Updater class, which is one of the cores of this program. ">
<polygon fill="#ffffff" stroke="#000000" points="150.5,-336.5 150.5,-355.5 229.5,-355.5 229.5,-336.5 150.5,-336.5"/>
<text text-anchor="middle" x="190" y="-343.5" font-family="Helvetica,sans-Serif" font-size="10.00" fill="#000000">core/updater.h</text>
</a>
</g>
</g>
<!-- Node2&#45;&gt;Node3 -->
<g id="edge3" class="edge">
<title>Node2&#45;&gt;Node3</title>
<path fill="none" stroke="#191970" d="M244.5037,-392.2455C234.7558,-383.9746 220.5741,-371.9416 209.1202,-362.2232"/>
<polygon fill="#191970" stroke="#191970" points="211.2541,-359.4437 201.3646,-355.6427 206.7253,-364.7813 211.2541,-359.4437"/>
</g>
<!-- Node4 -->
<g id="node5" class="node">
<title>Node4</title>
<polygon fill="#ffffff" stroke="#bfbfbf" points="0,-112.5 0,-131.5 44,-131.5 44,-112.5 0,-112.5"/>
<text text-anchor="middle" x="22" y="-119.5" font-family="Helvetica,sans-Serif" font-size="10.00" fill="#000000">omp.h</text>
</g>
<!-- Node3&#45;&gt;Node4 -->
<g id="edge4" class="edge">
<title>Node3&#45;&gt;Node4</title>
<path fill="none" stroke="#191970" d="M176.3206,-336.4362C164.5261,-327.775 147.4756,-314.2255 135,-300 89.0684,-247.6257 48.9785,-174.7497 31.4292,-140.7991"/>
<polygon fill="#191970" stroke="#191970" points="34.3872,-138.8954 26.725,-131.5783 28.1518,-142.0766 34.3872,-138.8954"/>
</g>
<!-- Node5 -->
<g id="node6" class="node">
<title>Node5</title>
<g id="a_node6"><a xlink:href="generators_8h.html" target="_top" xlink:title="This file includes all the header files of subclasses of Generator class. ">
<polygon fill="#ffffff" stroke="#000000" points="144,-280.5 144,-299.5 236,-299.5 236,-280.5 144,-280.5"/>
<text text-anchor="middle" x="190" y="-287.5" font-family="Helvetica,sans-Serif" font-size="10.00" fill="#000000">core/generators.h</text>
</a>
</g>
</g>
<!-- Node3&#45;&gt;Node5 -->
<g id="edge5" class="edge">
<title>Node3&#45;&gt;Node5</title>
<path fill="none" stroke="#191970" d="M190,-336.2455C190,-328.9382 190,-318.6944 190,-309.7046"/>
<polygon fill="#191970" stroke="#191970" points="193.5001,-309.6426 190,-299.6427 186.5001,-309.6427 193.5001,-309.6426"/>
</g>
<!-- Node6 -->
<g id="node7" class="node">
<title>Node6</title>
<g id="a_node7"><a xlink:href="element_8h.html" target="_top" xlink:title="This file has a definition of Element class, which is one of the cores of this program. ">
<polygon fill="#ffffff" stroke="#000000" points="149.5,-168.5 149.5,-187.5 230.5,-187.5 230.5,-168.5 149.5,-168.5"/>
<text text-anchor="middle" x="190" y="-175.5" font-family="Helvetica,sans-Serif" font-size="10.00" fill="#000000">core/element.h</text>
</a>
</g>
</g>
<!-- Node5&#45;&gt;Node6 -->
<g id="edge6" class="edge">
<title>Node5&#45;&gt;Node6</title>
<path fill="none" stroke="#191970" d="M173.2627,-280.2988C161.2416,-272.2823 145.977,-259.6887 139,-244 130.4317,-224.733 148.1122,-206.0303 164.9522,-193.4838"/>
<polygon fill="#191970" stroke="#191970" points="167.3262,-196.0961 173.5384,-187.5136 163.33,-190.3489 167.3262,-196.0961"/>
</g>
<!-- Node21 -->
<g id="node22" class="node">
<title>Node21</title>
<g id="a_node22"><a xlink:href="gen__dict_8h.html" target="_top" xlink:title="This file has a definition of GenDict class. ">
<polygon fill="#ffffff" stroke="#000000" points="148.5,-224.5 148.5,-243.5 231.5,-243.5 231.5,-224.5 148.5,-224.5"/>
<text text-anchor="middle" x="190" y="-231.5" font-family="Helvetica,sans-Serif" font-size="10.00" fill="#000000">core/gen_dict.h</text>
</a>
</g>
</g>
<!-- Node5&#45;&gt;Node21 -->
<g id="edge24" class="edge">
<title>Node5&#45;&gt;Node21</title>
<path fill="none" stroke="#191970" d="M190,-280.2455C190,-272.9382 190,-262.6944 190,-253.7046"/>
<polygon fill="#191970" stroke="#191970" points="193.5001,-253.6426 190,-243.6427 186.5001,-253.6427 193.5001,-253.6426"/>
</g>
<!-- Node22 -->
<g id="node23" class="node">
<title>Node22</title>
<g id="a_node23"><a xlink:href="gen__list_8h.html" target="_top" xlink:title="This file has a definition of GenList class. ">
<polygon fill="#ffffff" stroke="#000000" points="250,-224.5 250,-243.5 330,-243.5 330,-224.5 250,-224.5"/>
<text text-anchor="middle" x="290" y="-231.5" font-family="Helvetica,sans-Serif" font-size="10.00" fill="#000000">core/gen_list.h</text>
</a>
</g>
</g>
<!-- Node5&#45;&gt;Node22 -->
<g id="edge26" class="edge">
<title>Node5&#45;&gt;Node22</title>
<path fill="none" stroke="#191970" d="M207.4187,-280.2455C223.0485,-271.4928 246.2019,-258.527 264.0185,-248.5496"/>
<polygon fill="#191970" stroke="#191970" points="265.766,-251.5825 272.7809,-243.6427 262.3457,-245.475 265.766,-251.5825"/>
</g>
<!-- Node6&#45;&gt;Node4 -->
<g id="edge7" class="edge">
<title>Node6&#45;&gt;Node4</title>
<path fill="none" stroke="#191970" d="M161.1198,-168.3733C131.282,-158.4273 84.8315,-142.9438 53.9209,-132.6403"/>
<polygon fill="#191970" stroke="#191970" points="54.6741,-129.2021 44.0804,-129.3601 52.4604,-135.8429 54.6741,-129.2021"/>
</g>
<!-- Node7 -->
<g id="node8" class="node">
<title>Node7</title>
<g id="a_node8"><a xlink:href="eigen_8h.html" target="_top" xlink:title="This file includes Eigen and defines some aliases for the Eigen&#45;Vector, Matrix and Array...">
<polygon fill="#ffffff" stroke="#000000" points="62.5,-112.5 62.5,-131.5 133.5,-131.5 133.5,-112.5 62.5,-112.5"/>
<text text-anchor="middle" x="98" y="-119.5" font-family="Helvetica,sans-Serif" font-size="10.00" fill="#000000">alias/eigen.h</text>
</a>
</g>
</g>
<!-- Node6&#45;&gt;Node7 -->
<g id="edge8" class="edge">
<title>Node6&#45;&gt;Node7</title>
<path fill="none" stroke="#191970" d="M173.9748,-168.2455C159.8592,-159.6534 139.0737,-147.0014 122.8101,-137.1018"/>
<polygon fill="#191970" stroke="#191970" points="124.2034,-133.8525 113.8415,-131.6427 120.5637,-139.8319 124.2034,-133.8525"/>
</g>
<!-- Node9 -->
<g id="node10" class="node">
<title>Node9</title>
<g id="a_node10"><a xlink:href="alias_2pybind_8h.html" target="_top" xlink:title="This file includes pybind11 and defines an alias for the namespace pybind11. ">
<polygon fill="#ffffff" stroke="#000000" points="151.5,-112.5 151.5,-131.5 228.5,-131.5 228.5,-112.5 151.5,-112.5"/>
<text text-anchor="middle" x="190" y="-119.5" font-family="Helvetica,sans-Serif" font-size="10.00" fill="#000000">alias/pybind.h</text>
</a>
</g>
</g>
<!-- Node6&#45;&gt;Node9 -->
<g id="edge10" class="edge">
<title>Node6&#45;&gt;Node9</title>
<path fill="none" stroke="#191970" d="M190,-168.2455C190,-160.9382 190,-150.6944 190,-141.7046"/>
<polygon fill="#191970" stroke="#191970" points="193.5001,-141.6426 190,-131.6427 186.5001,-141.6427 193.5001,-141.6426"/>
</g>
<!-- Node11 -->
<g id="node12" class="node">
<title>Node11</title>
<g id="a_node12"><a xlink:href="generator_8h.html" target="_top" xlink:title="This file has a definition of Generator class, which is one of the cores of this program. ">
<polygon fill="#ffffff" stroke="#000000" points="246.5,-112.5 246.5,-131.5 333.5,-131.5 333.5,-112.5 246.5,-112.5"/>
<text text-anchor="middle" x="290" y="-119.5" font-family="Helvetica,sans-Serif" font-size="10.00" fill="#000000">core/generator.h</text>
</a>
</g>
</g>
<!-- Node6&#45;&gt;Node11 -->
<g id="edge12" class="edge">
<title>Node6&#45;&gt;Node11</title>
<path fill="none" stroke="#191970" d="M207.4187,-168.2455C223.0485,-159.4928 246.2019,-146.527 264.0185,-136.5496"/>
<polygon fill="#191970" stroke="#191970" points="265.766,-139.5825 272.7809,-131.6427 262.3457,-133.475 265.766,-139.5825"/>
</g>
<!-- Node20 -->
<g id="node21" class="node">
<title>Node20</title>
<g id="a_node21"><a xlink:href="data__keys_8h.html" target="_top" xlink:title="This file has a definition of DataKeys class, which is owned by Element class. ">
<polygon fill="#ffffff" stroke="#000000" points="352,-112.5 352,-131.5 448,-131.5 448,-112.5 352,-112.5"/>
<text text-anchor="middle" x="400" y="-119.5" font-family="Helvetica,sans-Serif" font-size="10.00" fill="#000000">class/data_keys.h</text>
</a>
</g>
</g>
<!-- Node6&#45;&gt;Node20 -->
<g id="edge21" class="edge">
<title>Node6&#45;&gt;Node20</title>
<path fill="none" stroke="#191970" d="M226.1003,-168.3733C261.6248,-158.9001 315.988,-144.4032 354.4619,-134.1435"/>
<polygon fill="#191970" stroke="#191970" points="355.6103,-137.4596 364.3708,-131.5011 353.8066,-130.696 355.6103,-137.4596"/>
</g>
<!-- Node8 -->
<g id="node9" class="node">
<title>Node8</title>
<polygon fill="#ffffff" stroke="#bfbfbf" points="67,-56.5 67,-75.5 123,-75.5 123,-56.5 67,-56.5"/>
<text text-anchor="middle" x="95" y="-63.5" font-family="Helvetica,sans-Serif" font-size="10.00" fill="#000000">Eigen/LU</text>
</g>
<!-- Node7&#45;&gt;Node8 -->
<g id="edge9" class="edge">
<title>Node7&#45;&gt;Node8</title>
<path fill="none" stroke="#191970" d="M97.4774,-112.2455C97.086,-104.9382 96.5372,-94.6944 96.0556,-85.7046"/>
<polygon fill="#191970" stroke="#191970" points="99.5466,-85.4411 95.5166,-75.6427 92.5566,-85.8156 99.5466,-85.4411"/>
</g>
<!-- Node10 -->
<g id="node11" class="node">
<title>Node10</title>
<polygon fill="#ffffff" stroke="#bfbfbf" points="141,-56.5 141,-75.5 247,-75.5 247,-56.5 141,-56.5"/>
<text text-anchor="middle" x="194" y="-63.5" font-family="Helvetica,sans-Serif" font-size="10.00" fill="#000000">pybind11/pybind11.h</text>
</g>
<!-- Node9&#45;&gt;Node10 -->
<g id="edge11" class="edge">
<title>Node9&#45;&gt;Node10</title>
<path fill="none" stroke="#191970" d="M190.6967,-112.2455C191.2187,-104.9382 191.9504,-94.6944 192.5925,-85.7046"/>
<polygon fill="#191970" stroke="#191970" points="196.0898,-85.8667 193.3112,-75.6427 189.1076,-85.3679 196.0898,-85.8667"/>
</g>
<!-- Node12 -->
<g id="node13" class="node">
<title>Node12</title>
<g id="a_node13"><a xlink:href="std_8h.html" target="_top" xlink:title="This file includes a part of C++ Standard Template Library and defines aliases for them...">
<polygon fill="#ffffff" stroke="#000000" points="493,-56.5 493,-75.5 555,-75.5 555,-56.5 493,-56.5"/>
<text text-anchor="middle" x="524" y="-63.5" font-family="Helvetica,sans-Serif" font-size="10.00" fill="#000000">alias/std.h</text>
</a>
</g>
</g>
<!-- Node11&#45;&gt;Node12 -->
<g id="edge13" class="edge">
<title>Node11&#45;&gt;Node12</title>
<path fill="none" stroke="#191970" d="M329.9602,-112.4369C372.6186,-102.228 439.8735,-86.1328 482.9467,-75.8247"/>
<polygon fill="#191970" stroke="#191970" points="483.9039,-79.1946 492.8146,-73.4632 482.2746,-72.3868 483.9039,-79.1946"/>
</g>
<!-- Node18 -->
<g id="node19" class="node">
<title>Node18</title>
<g id="a_node19"><a xlink:href="json_8h.html" target="_top" xlink:title="This file includes nlohmann/json and defines an alias for a JSON class. ">
<polygon fill="#ffffff" stroke="#000000" points="316,-56.5 316,-75.5 382,-75.5 382,-56.5 316,-56.5"/>
<text text-anchor="middle" x="349" y="-63.5" font-family="Helvetica,sans-Serif" font-size="10.00" fill="#000000">alias/json.h</text>
</a>
</g>
</g>
<!-- Node11&#45;&gt;Node18 -->
<g id="edge19" class="edge">
<title>Node11&#45;&gt;Node18</title>
<path fill="none" stroke="#191970" d="M300.277,-112.2455C308.8218,-104.1352 321.1778,-92.4075 331.3085,-82.7919"/>
<polygon fill="#191970" stroke="#191970" points="333.9972,-85.0655 338.8408,-75.6427 329.1782,-79.9884 333.9972,-85.0655"/>
</g>
<!-- Node13 -->
<g id="node14" class="node">
<title>Node13</title>
<polygon fill="#ffffff" stroke="#bfbfbf" points="539,-.5 539,-19.5 591,-19.5 591,-.5 539,-.5"/>
<text text-anchor="middle" x="565" y="-7.5" font-family="Helvetica,sans-Serif" font-size="10.00" fill="#000000">memory</text>
</g>
<!-- Node12&#45;&gt;Node13 -->
<g id="edge14" class="edge">
<title>Node12&#45;&gt;Node13</title>
<path fill="none" stroke="#191970" d="M531.1417,-56.2455C536.8444,-48.4564 544.99,-37.3308 551.8625,-27.9439"/>
<polygon fill="#191970" stroke="#191970" points="554.8568,-29.7789 557.9402,-19.6427 549.2087,-25.6437 554.8568,-29.7789"/>
</g>
<!-- Node14 -->
<g id="node15" class="node">
<title>Node14</title>
<polygon fill="#ffffff" stroke="#bfbfbf" points="609.5,-.5 609.5,-19.5 650.5,-19.5 650.5,-.5 609.5,-.5"/>
<text text-anchor="middle" x="630" y="-7.5" font-family="Helvetica,sans-Serif" font-size="10.00" fill="#000000">string</text>
</g>
<!-- Node12&#45;&gt;Node14 -->
<g id="edge15" class="edge">
<title>Node12&#45;&gt;Node14</title>
<path fill="none" stroke="#191970" d="M542.4638,-56.2455C559.1074,-47.4527 583.7993,-34.4079 602.7192,-24.4125"/>
<polygon fill="#191970" stroke="#191970" points="604.5408,-27.4086 611.7478,-19.6427 601.2709,-21.2193 604.5408,-27.4086"/>
</g>
<!-- Node15 -->
<g id="node16" class="node">
<title>Node15</title>
<polygon fill="#ffffff" stroke="#bfbfbf" points="669,-.5 669,-19.5 713,-19.5 713,-.5 669,-.5"/>
<text text-anchor="middle" x="691" y="-7.5" font-family="Helvetica,sans-Serif" font-size="10.00" fill="#000000">vector</text>
</g>
<!-- Node12&#45;&gt;Node15 -->
<g id="edge16" class="edge">
<title>Node12&#45;&gt;Node15</title>
<path fill="none" stroke="#191970" d="M552.7083,-56.3733C582.2847,-46.4554 628.2818,-31.0313 659.0083,-20.7278"/>
<polygon fill="#191970" stroke="#191970" points="660.429,-23.943 668.7974,-17.4452 658.2035,-17.3062 660.429,-23.943"/>
</g>
<!-- Node16 -->
<g id="node17" class="node">
<title>Node16</title>
<polygon fill="#ffffff" stroke="#bfbfbf" points="341.5,-.5 341.5,-19.5 424.5,-19.5 424.5,-.5 341.5,-.5"/>
<text text-anchor="middle" x="383" y="-7.5" font-family="Helvetica,sans-Serif" font-size="10.00" fill="#000000">unordered_map</text>
</g>
<!-- Node12&#45;&gt;Node16 -->
<g id="edge17" class="edge">
<title>Node12&#45;&gt;Node16</title>
<path fill="none" stroke="#191970" d="M499.7612,-56.3733C476.7211,-47.2226 441.8786,-33.3844 416.2499,-23.2057"/>
<polygon fill="#191970" stroke="#191970" points="417.5082,-19.9395 406.9225,-19.5011 414.9244,-26.4452 417.5082,-19.9395"/>
</g>
<!-- Node17 -->
<g id="node18" class="node">
<title>Node17</title>
<polygon fill="#ffffff" stroke="#bfbfbf" points="443,-.5 443,-19.5 521,-19.5 521,-.5 443,-.5"/>
<text text-anchor="middle" x="482" y="-7.5" font-family="Helvetica,sans-Serif" font-size="10.00" fill="#000000">unordered_set</text>
</g>
<!-- Node12&#45;&gt;Node17 -->
<g id="edge18" class="edge">
<title>Node12&#45;&gt;Node17</title>
<path fill="none" stroke="#191970" d="M516.6842,-56.2455C510.7821,-48.3761 502.3258,-37.101 495.2406,-27.6542"/>
<polygon fill="#191970" stroke="#191970" points="498.0321,-25.5427 489.232,-19.6427 492.432,-29.7427 498.0321,-25.5427"/>
</g>
<!-- Node19 -->
<g id="node20" class="node">
<title>Node19</title>
<polygon fill="#ffffff" stroke="#bfbfbf" points="225,-.5 225,-19.5 323,-19.5 323,-.5 225,-.5"/>
<text text-anchor="middle" x="274" y="-7.5" font-family="Helvetica,sans-Serif" font-size="10.00" fill="#000000">nlohmann/json.hpp</text>
</g>
<!-- Node18&#45;&gt;Node19 -->
<g id="edge20" class="edge">
<title>Node18&#45;&gt;Node19</title>
<path fill="none" stroke="#191970" d="M335.936,-56.2455C324.6438,-47.814 308.1155,-35.4729 294.9729,-25.6598"/>
<polygon fill="#191970" stroke="#191970" points="297.0211,-22.8211 286.9143,-19.6427 292.8331,-28.4301 297.0211,-22.8211"/>
</g>
<!-- Node20&#45;&gt;Node12 -->
<g id="edge22" class="edge">
<title>Node20&#45;&gt;Node12</title>
<path fill="none" stroke="#191970" d="M421.3164,-112.3733C441.2216,-103.3838 471.1436,-89.8706 493.56,-79.7471"/>
<polygon fill="#191970" stroke="#191970" points="495.2887,-82.8068 502.9618,-75.5011 492.4075,-76.4272 495.2887,-82.8068"/>
</g>
<!-- Node20&#45;&gt;Node18 -->
<g id="edge23" class="edge">
<title>Node20&#45;&gt;Node18</title>
<path fill="none" stroke="#191970" d="M391.1165,-112.2455C383.8034,-104.2155 373.2609,-92.6394 364.5533,-83.0781"/>
<polygon fill="#191970" stroke="#191970" points="367.1028,-80.6795 357.7817,-75.6427 361.9273,-85.3928 367.1028,-80.6795"/>
</g>
<!-- Node21&#45;&gt;Node6 -->
<g id="edge25" class="edge">
<title>Node21&#45;&gt;Node6</title>
<path fill="none" stroke="#191970" d="M190,-224.2455C190,-216.9382 190,-206.6944 190,-197.7046"/>
<polygon fill="#191970" stroke="#191970" points="193.5001,-197.6426 190,-187.6427 186.5001,-197.6427 193.5001,-197.6426"/>
</g>
<!-- Node22&#45;&gt;Node6 -->
<g id="edge27" class="edge">
<title>Node22&#45;&gt;Node6</title>
<path fill="none" stroke="#191970" d="M272.5813,-224.2455C256.9515,-215.4928 233.7981,-202.527 215.9815,-192.5496"/>
<polygon fill="#191970" stroke="#191970" points="217.6543,-189.475 207.2191,-187.6427 214.234,-195.5825 217.6543,-189.475"/>
</g>
<!-- Node23&#45;&gt;Node12 -->
<g id="edge29" class="edge">
<title>Node23&#45;&gt;Node12</title>
<path fill="none" stroke="#191970" d="M524,-112.2455C524,-104.9382 524,-94.6944 524,-85.7046"/>
<polygon fill="#191970" stroke="#191970" points="527.5001,-85.6426 524,-75.6427 520.5001,-85.6427 527.5001,-85.6426"/>
</g>
<!-- Node23&#45;&gt;Node18 -->
<g id="edge30" class="edge">
<title>Node23&#45;&gt;Node18</title>
<path fill="none" stroke="#191970" d="M493.9164,-112.3733C464.8166,-103.0613 420.5477,-88.8953 388.597,-78.671"/>
<polygon fill="#191970" stroke="#191970" points="389.282,-75.2155 378.691,-75.5011 387.1485,-81.8824 389.282,-75.2155"/>
</g>
<!-- Node24&#45;&gt;Node12 -->
<g id="edge32" class="edge">
<title>Node24&#45;&gt;Node12</title>
<path fill="none" stroke="#191970" d="M609.1433,-392.4119C609.4198,-373.0545 610,-327.9182 610,-290 610,-290 610,-290 610,-178 610,-147.4754 608.853,-136.7593 591,-112 581.4789,-98.7957 566.9311,-88.15 553.8213,-80.4387"/>
<polygon fill="#191970" stroke="#191970" points="555.4967,-77.3657 545.0545,-75.5735 552.1,-83.4863 555.4967,-77.3657"/>
</g>
</g>
</svg>
