<?xml version="1.0" encoding="UTF-8" standalone="no"?>
<!DOCTYPE svg PUBLIC "-//W3C//DTD SVG 1.1//EN"
 "http://www.w3.org/Graphics/SVG/1.1/DTD/svg11.dtd">
<!-- Generated by graphviz version 2.40.1 (20161225.0304)
 -->
<!-- Title: src/adders/add_child_positions.h Pages: 1 -->
<svg width="250pt" height="218pt"
 viewBox="0.00 0.00 249.50 218.00" xmlns="http://www.w3.org/2000/svg" xmlns:xlink="http://www.w3.org/1999/xlink">
<g id="graph0" class="graph" transform="scale(1 1) rotate(0) translate(4 214)">
<title>src/adders/add_child_positions.h</title>
<polygon fill="#ffffff" stroke="transparent" points="-4,4 -4,-214 245.5,-214 245.5,4 -4,4"/>
<!-- Node22 -->
<g id="node1" class="node">
<title>Node22</title>
<polygon fill="#bfbfbf" stroke="#000000" points="65,-179.5 65,-209.5 172,-209.5 172,-179.5 65,-179.5"/>
<text text-anchor="start" x="73" y="-197.5" font-family="Helvetica,sans-Serif" font-size="10.00" fill="#000000">src/adders/add_child</text>
<text text-anchor="middle" x="118.5" y="-186.5" font-family="Helvetica,sans-Serif" font-size="10.00" fill="#000000">_positions.h</text>
</g>
<!-- Node23 -->
<g id="node2" class="node">
<title>Node23</title>
<g id="a_node2"><a xlink:href="add__child__positions_8cpp.html" target="_top" xlink:title="This file has an implementation of AddChildPositions class, which is a subclass of Adder class...">
<polygon fill="#ffffff" stroke="#000000" points="0,-112.5 0,-142.5 107,-142.5 107,-112.5 0,-112.5"/>
<text text-anchor="start" x="8" y="-130.5" font-family="Helvetica,sans-Serif" font-size="10.00" fill="#000000">src/adders/add_child</text>
<text text-anchor="middle" x="53.5" y="-119.5" font-family="Helvetica,sans-Serif" font-size="10.00" fill="#000000">_positions.cpp</text>
</a>
</g>
</g>
<!-- Node22&#45;&gt;Node23 -->
<g id="edge1" class="edge">
<title>Node22&#45;&gt;Node23</title>
<path fill="none" stroke="#191970" d="M96.5992,-171.9253C87.2445,-162.2828 76.5743,-151.2843 68.1911,-142.6432"/>
<polygon fill="#191970" stroke="#191970" points="94.2752,-174.5564 103.7505,-179.2967 99.2994,-169.6821 94.2752,-174.5564"/>
</g>
<!-- Node24 -->
<g id="node3" class="node">
<title>Node24</title>
<g id="a_node3"><a xlink:href="py__add__child__positions_8h.html" target="_top" xlink:title="This file is for binding AddChildPositions class to Python. ">
<polygon fill="#ffffff" stroke="#000000" points="125.5,-112.5 125.5,-142.5 241.5,-142.5 241.5,-112.5 125.5,-112.5"/>
<text text-anchor="start" x="133.5" y="-130.5" font-family="Helvetica,sans-Serif" font-size="10.00" fill="#000000">src/pybind/adders/py</text>
<text text-anchor="middle" x="183.5" y="-119.5" font-family="Helvetica,sans-Serif" font-size="10.00" fill="#000000">_add_child_positions.h</text>
</a>
</g>
</g>
<!-- Node22&#45;&gt;Node24 -->
<g id="edge2" class="edge">
<title>Node22&#45;&gt;Node24</title>
<path fill="none" stroke="#191970" d="M140.4008,-171.9253C149.7555,-162.2828 160.4257,-151.2843 168.8089,-142.6432"/>
<polygon fill="#191970" stroke="#191970" points="137.7006,-169.6821 133.2495,-179.2967 142.7248,-174.5564 137.7006,-169.6821"/>
</g>
<!-- Node25 -->
<g id="node4" class="node">
<title>Node25</title>
<g id="a_node4"><a xlink:href="pybind_8h.html" target="_top" xlink:title="This file includes all the header files containing definitions of functions to bind C++ and Python...">
<polygon fill="#ffffff" stroke="#000000" points="148.5,-56.5 148.5,-75.5 218.5,-75.5 218.5,-56.5 148.5,-56.5"/>
<text text-anchor="middle" x="183.5" y="-63.5" font-family="Helvetica,sans-Serif" font-size="10.00" fill="#000000">src/pybind.h</text>
</a>
</g>
</g>
<!-- Node24&#45;&gt;Node25 -->
<g id="edge3" class="edge">
<title>Node24&#45;&gt;Node25</title>
<path fill="none" stroke="#191970" d="M183.5,-102.2849C183.5,-92.9858 183.5,-82.9883 183.5,-75.8469"/>
<polygon fill="#191970" stroke="#191970" points="180.0001,-102.2977 183.5,-112.2977 187.0001,-102.2978 180.0001,-102.2977"/>
</g>
<!-- Node26 -->
<g id="node5" class="node">
<title>Node26</title>
<g id="a_node5"><a xlink:href="ppap4lmp_8cpp.html" target="_top" xlink:title="This file has no implementation, only includes a header file to bind C++ and Python. ">
<polygon fill="#ffffff" stroke="#000000" points="136.5,-.5 136.5,-19.5 230.5,-19.5 230.5,-.5 136.5,-.5"/>
<text text-anchor="middle" x="183.5" y="-7.5" font-family="Helvetica,sans-Serif" font-size="10.00" fill="#000000">src/ppap4lmp.cpp</text>
</a>
</g>
</g>
<!-- Node25&#45;&gt;Node26 -->
<g id="edge4" class="edge">
<title>Node25&#45;&gt;Node26</title>
<path fill="none" stroke="#191970" d="M183.5,-46.1575C183.5,-37.155 183.5,-26.9199 183.5,-19.6427"/>
<polygon fill="#191970" stroke="#191970" points="180.0001,-46.2455 183.5,-56.2455 187.0001,-46.2456 180.0001,-46.2455"/>
</g>
</g>
</svg>
