<?xml version="1.0" encoding="UTF-8" standalone="no"?>
<!DOCTYPE svg PUBLIC "-//W3C//DTD SVG 1.1//EN"
 "http://www.w3.org/Graphics/SVG/1.1/DTD/svg11.dtd">
<!-- Generated by graphviz version 2.40.1 (20161225.0304)
 -->
<!-- Title: src/adders/add_rename.cpp Pages: 1 -->
<svg width="382pt" height="196pt"
 viewBox="0.00 0.00 381.50 196.00" xmlns="http://www.w3.org/2000/svg" xmlns:xlink="http://www.w3.org/1999/xlink">
<g id="graph0" class="graph" transform="scale(1 1) rotate(0) translate(4 192)">
<title>src/adders/add_rename.cpp</title>
<polygon fill="#ffffff" stroke="transparent" points="-4,4 -4,-192 377.5,-192 377.5,4 -4,4"/>
<!-- Node0 -->
<g id="node1" class="node">
<title>Node0</title>
<polygon fill="#bfbfbf" stroke="#000000" points="28,-168.5 28,-187.5 165,-187.5 165,-168.5 28,-168.5"/>
<text text-anchor="middle" x="96.5" y="-175.5" font-family="Helvetica,sans-Serif" font-size="10.00" fill="#000000">src/adders/add_rename.cpp</text>
</g>
<!-- Node1 -->
<g id="node2" class="node">
<title>Node1</title>
<g id="a_node2"><a xlink:href="adders_2add__rename_8h.html" target="_top" xlink:title="This file has a definition of the AddRename class, which is a subclass of the Adder class...">
<polygon fill="#ffffff" stroke="#000000" points="1.5,-112.5 1.5,-131.5 79.5,-131.5 79.5,-112.5 1.5,-112.5"/>
<text text-anchor="middle" x="40.5" y="-119.5" font-family="Helvetica,sans-Serif" font-size="10.00" fill="#000000">add_rename.h</text>
</a>
</g>
</g>
<!-- Node0&#45;&gt;Node1 -->
<g id="edge1" class="edge">
<title>Node0&#45;&gt;Node1</title>
<path fill="none" stroke="#191970" d="M86.7455,-168.2455C78.6352,-160.1352 66.9075,-148.4075 57.2919,-138.7919"/>
<polygon fill="#191970" stroke="#191970" points="59.6887,-136.2389 50.1427,-131.6427 54.7389,-141.1887 59.6887,-136.2389"/>
</g>
<!-- Node3 -->
<g id="node4" class="node">
<title>Node3</title>
<g id="a_node4"><a xlink:href="runtime__error_8h_source.html" target="_top" xlink:title="../utils/runtime_error.h">
<polygon fill="#ffffff" stroke="#000000" points="97.5,-112.5 97.5,-131.5 209.5,-131.5 209.5,-112.5 97.5,-112.5"/>
<text text-anchor="middle" x="153.5" y="-119.5" font-family="Helvetica,sans-Serif" font-size="10.00" fill="#000000">../utils/runtime_error.h</text>
</a>
</g>
</g>
<!-- Node0&#45;&gt;Node3 -->
<g id="edge3" class="edge">
<title>Node0&#45;&gt;Node3</title>
<path fill="none" stroke="#191970" d="M106.4286,-168.2455C114.6838,-160.1352 126.6209,-148.4075 136.4082,-138.7919"/>
<polygon fill="#191970" stroke="#191970" points="139.0046,-141.1476 143.6851,-131.6427 134.0989,-136.1542 139.0046,-141.1476"/>
</g>
<!-- Node2 -->
<g id="node3" class="node">
<title>Node2</title>
<polygon fill="#ffffff" stroke="#bfbfbf" points="0,-56.5 0,-75.5 81,-75.5 81,-56.5 0,-56.5"/>
<text text-anchor="middle" x="40.5" y="-63.5" font-family="Helvetica,sans-Serif" font-size="10.00" fill="#000000">adders/adder.h</text>
</g>
<!-- Node1&#45;&gt;Node2 -->
<g id="edge2" class="edge">
<title>Node1&#45;&gt;Node2</title>
<path fill="none" stroke="#191970" d="M40.5,-112.2455C40.5,-104.9382 40.5,-94.6944 40.5,-85.7046"/>
<polygon fill="#191970" stroke="#191970" points="44.0001,-85.6426 40.5,-75.6427 37.0001,-85.6427 44.0001,-85.6426"/>
</g>
<!-- Node4 -->
<g id="node5" class="node">
<title>Node4</title>
<g id="a_node5"><a xlink:href="std_8h.html" target="_top" xlink:title="This file includes a part of C++ Standard Template Library and defines aliases for them...">
<polygon fill="#ffffff" stroke="#000000" points="122.5,-56.5 122.5,-75.5 184.5,-75.5 184.5,-56.5 122.5,-56.5"/>
<text text-anchor="middle" x="153.5" y="-63.5" font-family="Helvetica,sans-Serif" font-size="10.00" fill="#000000">alias/std.h</text>
</a>
</g>
</g>
<!-- Node3&#45;&gt;Node4 -->
<g id="edge4" class="edge">
<title>Node3&#45;&gt;Node4</title>
<path fill="none" stroke="#191970" d="M153.5,-112.2455C153.5,-104.9382 153.5,-94.6944 153.5,-85.7046"/>
<polygon fill="#191970" stroke="#191970" points="157.0001,-85.6426 153.5,-75.6427 150.0001,-85.6427 157.0001,-85.6426"/>
</g>
<!-- Node5 -->
<g id="node6" class="node">
<title>Node5</title>
<polygon fill="#ffffff" stroke="#bfbfbf" points="1.5,-.5 1.5,-19.5 53.5,-19.5 53.5,-.5 1.5,-.5"/>
<text text-anchor="middle" x="27.5" y="-7.5" font-family="Helvetica,sans-Serif" font-size="10.00" fill="#000000">memory</text>
</g>
<!-- Node4&#45;&gt;Node5 -->
<g id="edge5" class="edge">
<title>Node4&#45;&gt;Node5</title>
<path fill="none" stroke="#191970" d="M131.8398,-56.3733C111.5228,-47.3435 80.936,-33.7494 58.125,-23.6111"/>
<polygon fill="#191970" stroke="#191970" points="59.4372,-20.3642 48.8775,-19.5011 56.5941,-26.7609 59.4372,-20.3642"/>
</g>
<!-- Node6 -->
<g id="node7" class="node">
<title>Node6</title>
<polygon fill="#ffffff" stroke="#bfbfbf" points="72,-.5 72,-19.5 113,-19.5 113,-.5 72,-.5"/>
<text text-anchor="middle" x="92.5" y="-7.5" font-family="Helvetica,sans-Serif" font-size="10.00" fill="#000000">string</text>
</g>
<!-- Node4&#45;&gt;Node6 -->
<g id="edge6" class="edge">
<title>Node4&#45;&gt;Node6</title>
<path fill="none" stroke="#191970" d="M142.8746,-56.2455C133.9527,-48.0549 121.012,-36.1749 110.4808,-26.5069"/>
<polygon fill="#191970" stroke="#191970" points="112.7371,-23.8271 103.0036,-19.6427 108.0032,-28.9837 112.7371,-23.8271"/>
</g>
<!-- Node7 -->
<g id="node8" class="node">
<title>Node7</title>
<polygon fill="#ffffff" stroke="#bfbfbf" points="131.5,-.5 131.5,-19.5 175.5,-19.5 175.5,-.5 131.5,-.5"/>
<text text-anchor="middle" x="153.5" y="-7.5" font-family="Helvetica,sans-Serif" font-size="10.00" fill="#000000">vector</text>
</g>
<!-- Node4&#45;&gt;Node7 -->
<g id="edge7" class="edge">
<title>Node4&#45;&gt;Node7</title>
<path fill="none" stroke="#191970" d="M153.5,-56.2455C153.5,-48.9382 153.5,-38.6944 153.5,-29.7046"/>
<polygon fill="#191970" stroke="#191970" points="157.0001,-29.6426 153.5,-19.6427 150.0001,-29.6427 157.0001,-29.6426"/>
</g>
<!-- Node8 -->
<g id="node9" class="node">
<title>Node8</title>
<polygon fill="#ffffff" stroke="#bfbfbf" points="194,-.5 194,-19.5 277,-19.5 277,-.5 194,-.5"/>
<text text-anchor="middle" x="235.5" y="-7.5" font-family="Helvetica,sans-Serif" font-size="10.00" fill="#000000">unordered_map</text>
</g>
<!-- Node4&#45;&gt;Node8 -->
<g id="edge8" class="edge">
<title>Node4&#45;&gt;Node8</title>
<path fill="none" stroke="#191970" d="M167.7833,-56.2455C180.247,-47.7337 198.5451,-35.2375 212.9792,-25.3801"/>
<polygon fill="#191970" stroke="#191970" points="215.0962,-28.1726 221.3804,-19.6427 211.1485,-22.392 215.0962,-28.1726"/>
</g>
<!-- Node9 -->
<g id="node10" class="node">
<title>Node9</title>
<polygon fill="#ffffff" stroke="#bfbfbf" points="295.5,-.5 295.5,-19.5 373.5,-19.5 373.5,-.5 295.5,-.5"/>
<text text-anchor="middle" x="334.5" y="-7.5" font-family="Helvetica,sans-Serif" font-size="10.00" fill="#000000">unordered_set</text>
</g>
<!-- Node4&#45;&gt;Node9 -->
<g id="edge9" class="edge">
<title>Node4&#45;&gt;Node9</title>
<path fill="none" stroke="#191970" d="M184.615,-56.3733C214.8429,-47.021 260.896,-32.7725 293.9739,-22.5385"/>
<polygon fill="#191970" stroke="#191970" points="295.2723,-25.8005 303.791,-19.5011 293.2033,-19.1133 295.2723,-25.8005"/>
</g>
</g>
</svg>
