<?xml version="1.0" encoding="UTF-8" standalone="no"?>
<!DOCTYPE svg PUBLIC "-//W3C//DTD SVG 1.1//EN"
 "http://www.w3.org/Graphics/SVG/1.1/DTD/svg11.dtd">
<!-- Generated by graphviz version 2.40.1 (20161225.0304)
 -->
<!-- Title: src/adders/add_wrapped_position.h Pages: 1 -->
<svg width="341pt" height="229pt"
 viewBox="0.00 0.00 340.50 229.00" xmlns="http://www.w3.org/2000/svg" xmlns:xlink="http://www.w3.org/1999/xlink">
<g id="graph0" class="graph" transform="scale(1 1) rotate(0) translate(4 225)">
<title>src/adders/add_wrapped_position.h</title>
<polygon fill="#ffffff" stroke="transparent" points="-4,4 -4,-225 336.5,-225 336.5,4 -4,4"/>
<!-- Node22 -->
<g id="node1" class="node">
<title>Node22</title>
<polygon fill="#bfbfbf" stroke="#000000" points="71,-190.5 71,-220.5 193,-220.5 193,-190.5 71,-190.5"/>
<text text-anchor="start" x="79" y="-208.5" font-family="Helvetica,sans-Serif" font-size="10.00" fill="#000000">src/adders/add_wrapped</text>
<text text-anchor="middle" x="132" y="-197.5" font-family="Helvetica,sans-Serif" font-size="10.00" fill="#000000">_position.h</text>
</g>
<!-- Node23 -->
<g id="node2" class="node">
<title>Node23</title>
<g id="a_node2"><a xlink:href="add__wrapped__position_8cpp.html" target="_top" xlink:title="This file has an implementation of AddWrappedPosition class, which is a subclass of Adder class...">
<polygon fill="#ffffff" stroke="#000000" points="0,-123.5 0,-153.5 122,-153.5 122,-123.5 0,-123.5"/>
<text text-anchor="start" x="8" y="-141.5" font-family="Helvetica,sans-Serif" font-size="10.00" fill="#000000">src/adders/add_wrapped</text>
<text text-anchor="middle" x="61" y="-130.5" font-family="Helvetica,sans-Serif" font-size="10.00" fill="#000000">_position.cpp</text>
</a>
</g>
</g>
<!-- Node22&#45;&gt;Node23 -->
<g id="edge1" class="edge">
<title>Node22&#45;&gt;Node23</title>
<path fill="none" stroke="#191970" d="M108.3806,-183.2113C98.0905,-173.5009 86.2949,-162.3698 77.0472,-153.6432"/>
<polygon fill="#191970" stroke="#191970" points="106.2139,-185.979 115.889,-190.2967 111.0181,-180.8879 106.2139,-185.979"/>
</g>
<!-- Node24 -->
<g id="node3" class="node">
<title>Node24</title>
<g id="a_node3"><a xlink:href="py__add__wrapped__position_8h.html" target="_top" xlink:title="This file is for binding AddWrappedPosition class to Python. ">
<polygon fill="#ffffff" stroke="#000000" points="140,-123.5 140,-153.5 266,-153.5 266,-123.5 140,-123.5"/>
<text text-anchor="start" x="148" y="-141.5" font-family="Helvetica,sans-Serif" font-size="10.00" fill="#000000">src/pybind/adders/py</text>
<text text-anchor="middle" x="203" y="-130.5" font-family="Helvetica,sans-Serif" font-size="10.00" fill="#000000">_add_wrapped_position.h</text>
</a>
</g>
</g>
<!-- Node22&#45;&gt;Node24 -->
<g id="edge2" class="edge">
<title>Node22&#45;&gt;Node24</title>
<path fill="none" stroke="#191970" d="M155.6194,-183.2113C165.9095,-173.5009 177.7051,-162.3698 186.9528,-153.6432"/>
<polygon fill="#191970" stroke="#191970" points="152.9819,-180.8879 148.111,-190.2967 157.7861,-185.979 152.9819,-180.8879"/>
</g>
<!-- Node25 -->
<g id="node4" class="node">
<title>Node25</title>
<g id="a_node4"><a xlink:href="pybind_8h.html" target="_top" xlink:title="This file includes all the header files containing definitions of functions to bind C++ and Python...">
<polygon fill="#ffffff" stroke="#000000" points="107,-62 107,-81 177,-81 177,-62 107,-62"/>
<text text-anchor="middle" x="142" y="-69" font-family="Helvetica,sans-Serif" font-size="10.00" fill="#000000">src/pybind.h</text>
</a>
</g>
</g>
<!-- Node24&#45;&gt;Node25 -->
<g id="edge3" class="edge">
<title>Node24&#45;&gt;Node25</title>
<path fill="none" stroke="#191970" d="M182.3918,-115.8648C171.5878,-103.998 158.9267,-90.0916 150.6993,-81.055"/>
<polygon fill="#191970" stroke="#191970" points="179.8379,-118.2585 189.1582,-123.2967 185.014,-113.5459 179.8379,-118.2585"/>
</g>
<!-- Node27 -->
<g id="node6" class="node">
<title>Node27</title>
<g id="a_node6"><a xlink:href="py__add__wrapped__position_8cpp.html" target="_top" xlink:title="This file is for binding AddWrappedPosition class to Python. ">
<polygon fill="#ffffff" stroke="#000000" points="195.5,-56.5 195.5,-86.5 332.5,-86.5 332.5,-56.5 195.5,-56.5"/>
<text text-anchor="start" x="203.5" y="-74.5" font-family="Helvetica,sans-Serif" font-size="10.00" fill="#000000">src/pybind/adders/py</text>
<text text-anchor="middle" x="264" y="-63.5" font-family="Helvetica,sans-Serif" font-size="10.00" fill="#000000">_add_wrapped_position.cpp</text>
</a>
</g>
</g>
<!-- Node24&#45;&gt;Node27 -->
<g id="edge5" class="edge">
<title>Node24&#45;&gt;Node27</title>
<path fill="none" stroke="#191970" d="M223.8142,-115.6385C232.5301,-106.0653 242.4235,-95.1987 250.2129,-86.6432"/>
<polygon fill="#191970" stroke="#191970" points="220.986,-113.5459 216.8418,-123.2967 226.1621,-118.2585 220.986,-113.5459"/>
</g>
<!-- Node26 -->
<g id="node5" class="node">
<title>Node26</title>
<g id="a_node5"><a xlink:href="ppap4lmp_8cpp.html" target="_top" xlink:title="This file has no implementation, only includes a header file to bind C++ and Python. ">
<polygon fill="#ffffff" stroke="#000000" points="95,-.5 95,-19.5 189,-19.5 189,-.5 95,-.5"/>
<text text-anchor="middle" x="142" y="-7.5" font-family="Helvetica,sans-Serif" font-size="10.00" fill="#000000">src/ppap4lmp.cpp</text>
</a>
</g>
</g>
<!-- Node25&#45;&gt;Node26 -->
<g id="edge4" class="edge">
<title>Node25&#45;&gt;Node26</title>
<path fill="none" stroke="#191970" d="M142,-51.7462C142,-41.0519 142,-28.314 142,-19.7449"/>
<polygon fill="#191970" stroke="#191970" points="138.5001,-51.8906 142,-61.8906 145.5001,-51.8907 138.5001,-51.8906"/>
</g>
</g>
</svg>
