<?xml version="1.0" encoding="UTF-8" standalone="no"?>
<!DOCTYPE svg PUBLIC "-//W3C//DTD SVG 1.1//EN"
 "http://www.w3.org/Graphics/SVG/1.1/DTD/svg11.dtd">
<!-- Generated by graphviz version 2.40.1 (20161225.0304)
 -->
<!-- Title: src/adders/add_wrapped_position.cpp Pages: 1 -->
<svg width="130pt" height="151pt"
 viewBox="0.00 0.00 130.00 151.00" xmlns="http://www.w3.org/2000/svg" xmlns:xlink="http://www.w3.org/1999/xlink">
<g id="graph0" class="graph" transform="scale(1 1) rotate(0) translate(4 147)">
<title>src/adders/add_wrapped_position.cpp</title>
<polygon fill="#ffffff" stroke="transparent" points="-4,4 -4,-147 126,-147 126,4 -4,4"/>
<!-- Node0 -->
<g id="node1" class="node">
<title>Node0</title>
<polygon fill="#bfbfbf" stroke="#000000" points="0,-112.5 0,-142.5 122,-142.5 122,-112.5 0,-112.5"/>
<text text-anchor="start" x="8" y="-130.5" font-family="Helvetica,sans-Serif" font-size="10.00" fill="#000000">src/adders/add_wrapped</text>
<text text-anchor="middle" x="61" y="-119.5" font-family="Helvetica,sans-Serif" font-size="10.00" fill="#000000">_position.cpp</text>
</g>
<!-- Node1 -->
<g id="node2" class="node">
<title>Node1</title>
<g id="a_node2"><a xlink:href="adders_2add__wrapped__position_8h.html" target="_top" xlink:title="add_wrapped_position.h">
<polygon fill="#ffffff" stroke="#000000" points=".5,-56.5 .5,-75.5 121.5,-75.5 121.5,-56.5 .5,-56.5"/>
<text text-anchor="middle" x="61" y="-63.5" font-family="Helvetica,sans-Serif" font-size="10.00" fill="#000000">add_wrapped_position.h</text>
</a>
</g>
</g>
<!-- Node0&#45;&gt;Node1 -->
<g id="edge1" class="edge">
<title>Node0&#45;&gt;Node1</title>
<path fill="none" stroke="#191970" d="M61,-112.2977C61,-104.3834 61,-94.6043 61,-86.0759"/>
<polygon fill="#191970" stroke="#191970" points="64.5001,-85.8469 61,-75.8469 57.5001,-85.847 64.5001,-85.8469"/>
</g>
<!-- Node2 -->
<g id="node3" class="node">
<title>Node2</title>
<polygon fill="#ffffff" stroke="#bfbfbf" points="20.5,-.5 20.5,-19.5 101.5,-19.5 101.5,-.5 20.5,-.5"/>
<text text-anchor="middle" x="61" y="-7.5" font-family="Helvetica,sans-Serif" font-size="10.00" fill="#000000">adders/adder.h</text>
</g>
<!-- Node1&#45;&gt;Node2 -->
<g id="edge2" class="edge">
<title>Node1&#45;&gt;Node2</title>
<path fill="none" stroke="#191970" d="M61,-56.2455C61,-48.9382 61,-38.6944 61,-29.7046"/>
<polygon fill="#191970" stroke="#191970" points="64.5001,-29.6426 61,-19.6427 57.5001,-29.6427 64.5001,-29.6426"/>
</g>
</g>
</svg>
