<?xml version="1.0" encoding="UTF-8" standalone="no"?>
<!DOCTYPE svg PUBLIC "-//W3C//DTD SVG 1.1//EN"
 "http://www.w3.org/Graphics/SVG/1.1/DTD/svg11.dtd">
<!-- Generated by graphviz version 2.40.1 (20161225.0304)
 -->
<!-- Title: src/adders/add_rename.h Pages: 1 -->
<svg width="600pt" height="476pt"
 viewBox="0.00 0.00 599.50 476.00" xmlns="http://www.w3.org/2000/svg" xmlns:xlink="http://www.w3.org/1999/xlink">
<g id="graph0" class="graph" transform="scale(1 1) rotate(0) translate(4 472)">
<title>src/adders/add_rename.h</title>
<polygon fill="#ffffff" stroke="transparent" points="-4,4 -4,-472 595.5,-472 595.5,4 -4,4"/>
<!-- Node0 -->
<g id="node1" class="node">
<title>Node0</title>
<polygon fill="#bfbfbf" stroke="#000000" points="0,-448.5 0,-467.5 127,-467.5 127,-448.5 0,-448.5"/>
<text text-anchor="middle" x="63.5" y="-455.5" font-family="Helvetica,sans-Serif" font-size="10.00" fill="#000000">src/adders/add_rename.h</text>
</g>
<!-- Node1 -->
<g id="node2" class="node">
<title>Node1</title>
<g id="a_node2"><a xlink:href="adder_8h.html" target="_top" xlink:title="This file has a definition of Adder class, which is a subclass of Updater class. ">
<polygon fill="#ffffff" stroke="#000000" points="23,-392.5 23,-411.5 104,-411.5 104,-392.5 23,-392.5"/>
<text text-anchor="middle" x="63.5" y="-399.5" font-family="Helvetica,sans-Serif" font-size="10.00" fill="#000000">adders/adder.h</text>
</a>
</g>
</g>
<!-- Node0&#45;&gt;Node1 -->
<g id="edge1" class="edge">
<title>Node0&#45;&gt;Node1</title>
<path fill="none" stroke="#191970" d="M63.5,-448.2455C63.5,-440.9382 63.5,-430.6944 63.5,-421.7046"/>
<polygon fill="#191970" stroke="#191970" points="67.0001,-421.6426 63.5,-411.6427 60.0001,-421.6427 67.0001,-421.6426"/>
</g>
<!-- Node2 -->
<g id="node3" class="node">
<title>Node2</title>
<g id="a_node3"><a xlink:href="updater_8h.html" target="_top" xlink:title="This file has a definition of Updater class, which is one of the cores of this program. ">
<polygon fill="#ffffff" stroke="#000000" points="24,-336.5 24,-355.5 103,-355.5 103,-336.5 24,-336.5"/>
<text text-anchor="middle" x="63.5" y="-343.5" font-family="Helvetica,sans-Serif" font-size="10.00" fill="#000000">core/updater.h</text>
</a>
</g>
</g>
<!-- Node1&#45;&gt;Node2 -->
<g id="edge2" class="edge">
<title>Node1&#45;&gt;Node2</title>
<path fill="none" stroke="#191970" d="M63.5,-392.2455C63.5,-384.9382 63.5,-374.6944 63.5,-365.7046"/>
<polygon fill="#191970" stroke="#191970" points="67.0001,-365.6426 63.5,-355.6427 60.0001,-365.6427 67.0001,-365.6426"/>
</g>
<!-- Node3 -->
<g id="node4" class="node">
<title>Node3</title>
<polygon fill="#ffffff" stroke="#bfbfbf" points="4.5,-112.5 4.5,-131.5 48.5,-131.5 48.5,-112.5 4.5,-112.5"/>
<text text-anchor="middle" x="26.5" y="-119.5" font-family="Helvetica,sans-Serif" font-size="10.00" fill="#000000">omp.h</text>
</g>
<!-- Node2&#45;&gt;Node3 -->
<g id="edge3" class="edge">
<title>Node2&#45;&gt;Node3</title>
<path fill="none" stroke="#191970" d="M61.9102,-336.375C56.3004,-302.4133 37.36,-187.7472 29.7275,-141.5392"/>
<polygon fill="#191970" stroke="#191970" points="33.1669,-140.885 28.0839,-131.5891 26.2605,-142.0259 33.1669,-140.885"/>
</g>
<!-- Node4 -->
<g id="node5" class="node">
<title>Node4</title>
<g id="a_node5"><a xlink:href="generators_8h.html" target="_top" xlink:title="This file includes all the header files of subclasses of Generator class. ">
<polygon fill="#ffffff" stroke="#000000" points="71.5,-280.5 71.5,-299.5 163.5,-299.5 163.5,-280.5 71.5,-280.5"/>
<text text-anchor="middle" x="117.5" y="-287.5" font-family="Helvetica,sans-Serif" font-size="10.00" fill="#000000">core/generators.h</text>
</a>
</g>
</g>
<!-- Node2&#45;&gt;Node4 -->
<g id="edge4" class="edge">
<title>Node2&#45;&gt;Node4</title>
<path fill="none" stroke="#191970" d="M72.9061,-336.2455C80.6493,-328.2155 91.812,-316.6394 101.0318,-307.0781"/>
<polygon fill="#191970" stroke="#191970" points="103.7798,-309.2706 108.2017,-299.6427 98.7409,-304.4117 103.7798,-309.2706"/>
</g>
<!-- Node5 -->
<g id="node6" class="node">
<title>Node5</title>
<g id="a_node6"><a xlink:href="element_8h.html" target="_top" xlink:title="This file has a definition of Element class, which is one of the cores of this program. ">
<polygon fill="#ffffff" stroke="#000000" points="94,-168.5 94,-187.5 175,-187.5 175,-168.5 94,-168.5"/>
<text text-anchor="middle" x="134.5" y="-175.5" font-family="Helvetica,sans-Serif" font-size="10.00" fill="#000000">core/element.h</text>
</a>
</g>
</g>
<!-- Node4&#45;&gt;Node5 -->
<g id="edge5" class="edge">
<title>Node4&#45;&gt;Node5</title>
<path fill="none" stroke="#191970" d="M106.4645,-280.3308C93.3689,-267.6184 74.3867,-244.4925 83.5,-224 88.9508,-211.7432 99.4599,-201.3755 109.5289,-193.6036"/>
<polygon fill="#191970" stroke="#191970" points="111.6744,-196.3721 117.7627,-187.7012 107.596,-190.6828 111.6744,-196.3721"/>
</g>
<!-- Node19 -->
<g id="node20" class="node">
<title>Node19</title>
<g id="a_node20"><a xlink:href="gen__dict_8h.html" target="_top" xlink:title="This file has a definition of GenDict class. ">
<polygon fill="#ffffff" stroke="#000000" points="93,-224.5 93,-243.5 176,-243.5 176,-224.5 93,-224.5"/>
<text text-anchor="middle" x="134.5" y="-231.5" font-family="Helvetica,sans-Serif" font-size="10.00" fill="#000000">core/gen_dict.h</text>
</a>
</g>
</g>
<!-- Node4&#45;&gt;Node19 -->
<g id="edge20" class="edge">
<title>Node4&#45;&gt;Node19</title>
<path fill="none" stroke="#191970" d="M120.4612,-280.2455C122.7038,-272.8579 125.8577,-262.4689 128.6081,-253.4087"/>
<polygon fill="#191970" stroke="#191970" points="132.017,-254.2282 131.5728,-243.6427 125.3188,-252.1948 132.017,-254.2282"/>
</g>
<!-- Node20 -->
<g id="node21" class="node">
<title>Node20</title>
<g id="a_node21"><a xlink:href="gen__list_8h.html" target="_top" xlink:title="This file has a definition of GenList class. ">
<polygon fill="#ffffff" stroke="#000000" points="194.5,-224.5 194.5,-243.5 274.5,-243.5 274.5,-224.5 194.5,-224.5"/>
<text text-anchor="middle" x="234.5" y="-231.5" font-family="Helvetica,sans-Serif" font-size="10.00" fill="#000000">core/gen_list.h</text>
</a>
</g>
</g>
<!-- Node4&#45;&gt;Node20 -->
<g id="edge22" class="edge">
<title>Node4&#45;&gt;Node20</title>
<path fill="none" stroke="#191970" d="M137.613,-280.3733C156.3103,-271.4241 184.3744,-257.9917 205.4934,-247.8835"/>
<polygon fill="#191970" stroke="#191970" points="207.1405,-250.9755 214.6494,-243.5011 204.1183,-244.6614 207.1405,-250.9755"/>
</g>
<!-- Node5&#45;&gt;Node3 -->
<g id="edge6" class="edge">
<title>Node5&#45;&gt;Node3</title>
<path fill="none" stroke="#191970" d="M115.6878,-168.2455C98.6527,-159.4125 73.3425,-146.2887 54.0319,-136.2758"/>
<polygon fill="#191970" stroke="#191970" points="55.5853,-133.1388 45.0966,-131.6427 52.363,-139.353 55.5853,-133.1388"/>
</g>
<!-- Node6 -->
<g id="node7" class="node">
<title>Node6</title>
<g id="a_node7"><a xlink:href="eigen_8h.html" target="_top" xlink:title="This file includes Eigen and defines some aliases for the Eigen&#45;Vector, Matrix and Array...">
<polygon fill="#ffffff" stroke="#000000" points="67,-112.5 67,-131.5 138,-131.5 138,-112.5 67,-112.5"/>
<text text-anchor="middle" x="102.5" y="-119.5" font-family="Helvetica,sans-Serif" font-size="10.00" fill="#000000">alias/eigen.h</text>
</a>
</g>
</g>
<!-- Node5&#45;&gt;Node6 -->
<g id="edge7" class="edge">
<title>Node5&#45;&gt;Node6</title>
<path fill="none" stroke="#191970" d="M128.926,-168.2455C124.5669,-160.617 118.3789,-149.7881 113.0867,-140.5267"/>
<polygon fill="#191970" stroke="#191970" points="116.0104,-138.5886 108.0101,-131.6427 109.9327,-142.0616 116.0104,-138.5886"/>
</g>
<!-- Node8 -->
<g id="node9" class="node">
<title>Node8</title>
<g id="a_node9"><a xlink:href="alias_2pybind_8h.html" target="_top" xlink:title="This file includes pybind11 and defines an alias for the namespace pybind11. ">
<polygon fill="#ffffff" stroke="#000000" points="156,-112.5 156,-131.5 233,-131.5 233,-112.5 156,-112.5"/>
<text text-anchor="middle" x="194.5" y="-119.5" font-family="Helvetica,sans-Serif" font-size="10.00" fill="#000000">alias/pybind.h</text>
</a>
</g>
</g>
<!-- Node5&#45;&gt;Node8 -->
<g id="edge9" class="edge">
<title>Node5&#45;&gt;Node8</title>
<path fill="none" stroke="#191970" d="M144.9512,-168.2455C153.7269,-160.0549 166.4554,-148.1749 176.814,-138.5069"/>
<polygon fill="#191970" stroke="#191970" points="179.2461,-141.0246 184.1686,-131.6427 174.4699,-135.9072 179.2461,-141.0246"/>
</g>
<!-- Node10 -->
<g id="node11" class="node">
<title>Node10</title>
<g id="a_node11"><a xlink:href="generator_8h.html" target="_top" xlink:title="This file has a definition of Generator class, which is one of the cores of this program. ">
<polygon fill="#ffffff" stroke="#000000" points="253,-112.5 253,-131.5 340,-131.5 340,-112.5 253,-112.5"/>
<text text-anchor="middle" x="296.5" y="-119.5" font-family="Helvetica,sans-Serif" font-size="10.00" fill="#000000">core/generator.h</text>
</a>
</g>
</g>
<!-- Node5&#45;&gt;Node10 -->
<g id="edge11" class="edge">
<title>Node5&#45;&gt;Node10</title>
<path fill="none" stroke="#191970" d="M162.3488,-168.3733C189.1703,-159.1016 229.9127,-145.0178 259.4598,-134.804"/>
<polygon fill="#191970" stroke="#191970" points="260.7069,-138.0762 269.0146,-131.5011 258.4198,-131.4603 260.7069,-138.0762"/>
</g>
<!-- Node7 -->
<g id="node8" class="node">
<title>Node7</title>
<polygon fill="#ffffff" stroke="#bfbfbf" points="51.5,-56.5 51.5,-75.5 123.5,-75.5 123.5,-56.5 51.5,-56.5"/>
<text text-anchor="middle" x="87.5" y="-63.5" font-family="Helvetica,sans-Serif" font-size="10.00" fill="#000000">Eigen/Dense</text>
</g>
<!-- Node6&#45;&gt;Node7 -->
<g id="edge8" class="edge">
<title>Node6&#45;&gt;Node7</title>
<path fill="none" stroke="#191970" d="M99.8872,-112.2455C97.9084,-104.8579 95.1256,-94.4689 92.6988,-85.4087"/>
<polygon fill="#191970" stroke="#191970" points="96.0511,-84.3966 90.0829,-75.6427 89.2895,-86.2078 96.0511,-84.3966"/>
</g>
<!-- Node9 -->
<g id="node10" class="node">
<title>Node9</title>
<polygon fill="#ffffff" stroke="#bfbfbf" points="141.5,-56.5 141.5,-75.5 247.5,-75.5 247.5,-56.5 141.5,-56.5"/>
<text text-anchor="middle" x="194.5" y="-63.5" font-family="Helvetica,sans-Serif" font-size="10.00" fill="#000000">pybind11/pybind11.h</text>
</g>
<!-- Node8&#45;&gt;Node9 -->
<g id="edge10" class="edge">
<title>Node8&#45;&gt;Node9</title>
<path fill="none" stroke="#191970" d="M194.5,-112.2455C194.5,-104.9382 194.5,-94.6944 194.5,-85.7046"/>
<polygon fill="#191970" stroke="#191970" points="198.0001,-85.6426 194.5,-75.6427 191.0001,-85.6427 198.0001,-85.6426"/>
</g>
<!-- Node11 -->
<g id="node12" class="node">
<title>Node11</title>
<g id="a_node12"><a xlink:href="std_8h.html" target="_top" xlink:title="This file includes a part of C++ Standard Template Library and defines aliases for them...">
<polygon fill="#ffffff" stroke="#000000" points="265.5,-56.5 265.5,-75.5 327.5,-75.5 327.5,-56.5 265.5,-56.5"/>
<text text-anchor="middle" x="296.5" y="-63.5" font-family="Helvetica,sans-Serif" font-size="10.00" fill="#000000">alias/std.h</text>
</a>
</g>
</g>
<!-- Node10&#45;&gt;Node11 -->
<g id="edge12" class="edge">
<title>Node10&#45;&gt;Node11</title>
<path fill="none" stroke="#191970" d="M296.5,-112.2455C296.5,-104.9382 296.5,-94.6944 296.5,-85.7046"/>
<polygon fill="#191970" stroke="#191970" points="300.0001,-85.6426 296.5,-75.6427 293.0001,-85.6427 300.0001,-85.6426"/>
</g>
<!-- Node17 -->
<g id="node18" class="node">
<title>Node17</title>
<g id="a_node18"><a xlink:href="json_8h.html" target="_top" xlink:title="This file includes nlohmann/json and defines an alias for a JSON class. ">
<polygon fill="#ffffff" stroke="#000000" points="427.5,-56.5 427.5,-75.5 493.5,-75.5 493.5,-56.5 427.5,-56.5"/>
<text text-anchor="middle" x="460.5" y="-63.5" font-family="Helvetica,sans-Serif" font-size="10.00" fill="#000000">alias/json.h</text>
</a>
</g>
</g>
<!-- Node10&#45;&gt;Node17 -->
<g id="edge18" class="edge">
<title>Node10&#45;&gt;Node17</title>
<path fill="none" stroke="#191970" d="M324.6926,-112.3733C351.8453,-103.1016 393.0907,-89.0178 423.0025,-78.804"/>
<polygon fill="#191970" stroke="#191970" points="424.3428,-82.0449 432.6753,-75.5011 422.0808,-75.4204 424.3428,-82.0449"/>
</g>
<!-- Node12 -->
<g id="node13" class="node">
<title>Node12</title>
<polygon fill="#ffffff" stroke="#bfbfbf" points="103.5,-.5 103.5,-19.5 155.5,-19.5 155.5,-.5 103.5,-.5"/>
<text text-anchor="middle" x="129.5" y="-7.5" font-family="Helvetica,sans-Serif" font-size="10.00" fill="#000000">memory</text>
</g>
<!-- Node11&#45;&gt;Node12 -->
<g id="edge13" class="edge">
<title>Node11&#45;&gt;Node12</title>
<path fill="none" stroke="#191970" d="M267.7917,-56.3733C239.472,-46.8769 196.0976,-32.3321 165.489,-22.0682"/>
<polygon fill="#191970" stroke="#191970" points="166.2321,-18.6259 155.6382,-18.7649 164.0066,-25.2627 166.2321,-18.6259"/>
</g>
<!-- Node13 -->
<g id="node14" class="node">
<title>Node13</title>
<polygon fill="#ffffff" stroke="#bfbfbf" points="174,-.5 174,-19.5 215,-19.5 215,-.5 174,-.5"/>
<text text-anchor="middle" x="194.5" y="-7.5" font-family="Helvetica,sans-Serif" font-size="10.00" fill="#000000">string</text>
</g>
<!-- Node11&#45;&gt;Node13 -->
<g id="edge14" class="edge">
<title>Node11&#45;&gt;Node13</title>
<path fill="none" stroke="#191970" d="M278.733,-56.2455C262.7905,-47.4928 239.1741,-34.527 221.0011,-24.5496"/>
<polygon fill="#191970" stroke="#191970" points="222.5137,-21.3873 212.0634,-19.6427 219.1448,-27.5233 222.5137,-21.3873"/>
</g>
<!-- Node14 -->
<g id="node15" class="node">
<title>Node14</title>
<polygon fill="#ffffff" stroke="#bfbfbf" points="233.5,-.5 233.5,-19.5 277.5,-19.5 277.5,-.5 233.5,-.5"/>
<text text-anchor="middle" x="255.5" y="-7.5" font-family="Helvetica,sans-Serif" font-size="10.00" fill="#000000">vector</text>
</g>
<!-- Node11&#45;&gt;Node14 -->
<g id="edge15" class="edge">
<title>Node11&#45;&gt;Node14</title>
<path fill="none" stroke="#191970" d="M289.3583,-56.2455C283.6556,-48.4564 275.51,-37.3308 268.6375,-27.9439"/>
<polygon fill="#191970" stroke="#191970" points="271.2913,-25.6437 262.5598,-19.6427 265.6432,-29.7789 271.2913,-25.6437"/>
</g>
<!-- Node15 -->
<g id="node16" class="node">
<title>Node15</title>
<polygon fill="#ffffff" stroke="#bfbfbf" points="296,-.5 296,-19.5 379,-19.5 379,-.5 296,-.5"/>
<text text-anchor="middle" x="337.5" y="-7.5" font-family="Helvetica,sans-Serif" font-size="10.00" fill="#000000">unordered_map</text>
</g>
<!-- Node11&#45;&gt;Node15 -->
<g id="edge16" class="edge">
<title>Node11&#45;&gt;Node15</title>
<path fill="none" stroke="#191970" d="M303.6417,-56.2455C309.3444,-48.4564 317.49,-37.3308 324.3625,-27.9439"/>
<polygon fill="#191970" stroke="#191970" points="327.3568,-29.7789 330.4402,-19.6427 321.7087,-25.6437 327.3568,-29.7789"/>
</g>
<!-- Node16 -->
<g id="node17" class="node">
<title>Node16</title>
<polygon fill="#ffffff" stroke="#bfbfbf" points="397.5,-.5 397.5,-19.5 475.5,-19.5 475.5,-.5 397.5,-.5"/>
<text text-anchor="middle" x="436.5" y="-7.5" font-family="Helvetica,sans-Serif" font-size="10.00" fill="#000000">unordered_set</text>
</g>
<!-- Node11&#45;&gt;Node16 -->
<g id="edge17" class="edge">
<title>Node11&#45;&gt;Node16</title>
<path fill="none" stroke="#191970" d="M320.5669,-56.3733C343.3428,-47.2629 377.7344,-33.5062 403.149,-23.3404"/>
<polygon fill="#191970" stroke="#191970" points="404.7623,-26.4648 412.7472,-19.5011 402.1625,-19.9654 404.7623,-26.4648"/>
</g>
<!-- Node18 -->
<g id="node19" class="node">
<title>Node18</title>
<polygon fill="#ffffff" stroke="#bfbfbf" points="493.5,-.5 493.5,-19.5 591.5,-19.5 591.5,-.5 493.5,-.5"/>
<text text-anchor="middle" x="542.5" y="-7.5" font-family="Helvetica,sans-Serif" font-size="10.00" fill="#000000">nlohmann/json.hpp</text>
</g>
<!-- Node17&#45;&gt;Node18 -->
<g id="edge19" class="edge">
<title>Node17&#45;&gt;Node18</title>
<path fill="none" stroke="#191970" d="M474.7833,-56.2455C487.247,-47.7337 505.5451,-35.2375 519.9792,-25.3801"/>
<polygon fill="#191970" stroke="#191970" points="522.0962,-28.1726 528.3804,-19.6427 518.1485,-22.392 522.0962,-28.1726"/>
</g>
<!-- Node19&#45;&gt;Node5 -->
<g id="edge21" class="edge">
<title>Node19&#45;&gt;Node5</title>
<path fill="none" stroke="#191970" d="M134.5,-224.2455C134.5,-216.9382 134.5,-206.6944 134.5,-197.7046"/>
<polygon fill="#191970" stroke="#191970" points="138.0001,-197.6426 134.5,-187.6427 131.0001,-197.6427 138.0001,-197.6426"/>
</g>
<!-- Node20&#45;&gt;Node5 -->
<g id="edge23" class="edge">
<title>Node20&#45;&gt;Node5</title>
<path fill="none" stroke="#191970" d="M217.0813,-224.2455C201.4515,-215.4928 178.2981,-202.527 160.4815,-192.5496"/>
<polygon fill="#191970" stroke="#191970" points="162.1543,-189.475 151.7191,-187.6427 158.734,-195.5825 162.1543,-189.475"/>
</g>
</g>
</svg>
