<?xml version="1.0" encoding="UTF-8" standalone="no"?>
<!DOCTYPE svg PUBLIC "-//W3C//DTD SVG 1.1//EN"
 "http://www.w3.org/Graphics/SVG/1.1/DTD/svg11.dtd">
<!-- Generated by graphviz version 2.40.1 (20161225.0304)
 -->
<!-- Title: src/adders/add_dihedral_angle.cpp Pages: 1 -->
<!--zoomable 543 -->
<svg id="main" version="1.1" xmlns="http://www.w3.org/2000/svg" xmlns:xlink="http://www.w3.org/1999/xlink" xml:space="preserve" onload="init(evt)">
<style type="text/css"><![CDATA[
.edge:hover path { stroke: red; }
.edge:hover polygon { stroke: red; fill: red; }
]]></style>
<script type="text/javascript"><![CDATA[
var edges = document.getElementsByTagName('g');
if (edges && edges.length) {
  for (var i=0;i<edges.length;i++) {
    if (edges[i].id.substr(0,4)=='edge') {
      edges[i].setAttribute('class','edge');
    }
  }
}
]]></script>
        <defs>
                <circle id="rim" cx="0" cy="0" r="7"/>
                <circle id="rim2" cx="0" cy="0" r="3.5"/>
                <g id="zoomPlus">
                        <use xlink:href="#rim" fill="#404040">
                                <set attributeName="fill" to="#808080" begin="zoomplus.mouseover" end="zoomplus.mouseout"/>
                        </use>
                        <path d="M-4,0h8M0,-4v8" fill="none" stroke="white" stroke-width="1.5" pointer-events="none"/>
                </g>
                <g id="zoomMin">
                        <use xlink:href="#rim" fill="#404040">
                                <set attributeName="fill" to="#808080" begin="zoomminus.mouseover" end="zoomminus.mouseout"/>
                        </use>
                        <path d="M-4,0h8" fill="none" stroke="white" stroke-width="1.5" pointer-events="none"/>
                </g>
                <g id="dirArrow">
                        <path fill="none" stroke="white" stroke-width="1.5" d="M0,-3.0v7 M-2.5,-0.5L0,-3.0L2.5,-0.5"/>
                </g>
               <g id="resetDef">
                       <use xlink:href="#rim2" fill="#404040">
                               <set attributeName="fill" to="#808080" begin="reset.mouseover" end="reset.mouseout"/>
                       </use>
               </g>
        </defs>

<script type="text/javascript">
var viewWidth = 536;
var viewHeight = 543;
var sectionId = 'dynsection-0';
</script>
<script xlink:href="svgpan.js"/>
<svg id="graph" class="graph">
<g id="viewport">
<title>src/adders/add_dihedral_angle.cpp</title>
<polygon fill="#ffffff" stroke="transparent" points="-4,4 -4,-539 532,-539 532,4 -4,4"/>
<!-- Node0 -->
<g id="node1" class="node">
<title>Node0</title>
<polygon fill="#bfbfbf" stroke="#000000" points="329,-504.5 329,-534.5 449,-534.5 449,-504.5 329,-504.5"/>
<text text-anchor="start" x="337" y="-522.5" font-family="Helvetica,sans-Serif" font-size="10.00" fill="#000000">src/adders/add_dihedral</text>
<text text-anchor="middle" x="389" y="-511.5" font-family="Helvetica,sans-Serif" font-size="10.00" fill="#000000">_angle.cpp</text>
</g>
<!-- Node1 -->
<g id="node2" class="node">
<title>Node1</title>
<g id="a_node2"><a xlink:href="add__dihedral__angle_8h.html" target="_top" xlink:title="This file has a definition of AddDihedralAngle class, which is a subclass of Adder class...">
<polygon fill="#ffffff" stroke="#000000" points="294,-448.5 294,-467.5 402,-467.5 402,-448.5 294,-448.5"/>
<text text-anchor="middle" x="348" y="-455.5" font-family="Helvetica,sans-Serif" font-size="10.00" fill="#000000">add_dihedral_angle.h</text>
</a>
</g>
</g>
<!-- Node0&#45;&gt;Node1 -->
<g id="edge1" class="edge">
<title>Node0&#45;&gt;Node1</title>
<path fill="none" stroke="#191970" d="M378.8652,-504.2977C373.2332,-495.8498 366.1849,-485.2773 360.246,-476.369"/>
<polygon fill="#191970" stroke="#191970" points="363.0238,-474.226 354.5646,-467.8469 357.1995,-478.1089 363.0238,-474.226"/>
</g>
<!-- Node22 -->
<g id="node23" class="node">
<title>Node22</title>
<g id="a_node23"><a xlink:href="map__to__index_8h.html" target="_top" xlink:title="This file has a definition of utils::map_to_index. ">
<polygon fill="#ffffff" stroke="#000000" points="375,-112.5 375,-131.5 491,-131.5 491,-112.5 375,-112.5"/>
<text text-anchor="middle" x="433" y="-119.5" font-family="Helvetica,sans-Serif" font-size="10.00" fill="#000000">../utils/map_to_index.h</text>
</a>
</g>
</g>
<!-- Node0&#45;&gt;Node22 -->
<g id="edge25" class="edge">
<title>Node0&#45;&gt;Node22</title>
<path fill="none" stroke="#191970" d="M398.5431,-504.1915C411.2112,-482.3685 432,-440.6658 432,-402 432,-402 432,-402 432,-234 432,-201.7103 432.4207,-164.1863 432.7164,-141.8043"/>
<polygon fill="#191970" stroke="#191970" points="436.219,-141.6353 432.8567,-131.5881 429.2196,-141.5391 436.219,-141.6353"/>
</g>
<!-- Node2 -->
<g id="node3" class="node">
<title>Node2</title>
<g id="a_node3"><a xlink:href="adder_8h.html" target="_top" xlink:title="This file has a definition of Adder class, which is a subclass of Updater class. ">
<polygon fill="#ffffff" stroke="#000000" points="303.5,-392.5 303.5,-411.5 384.5,-411.5 384.5,-392.5 303.5,-392.5"/>
<text text-anchor="middle" x="344" y="-399.5" font-family="Helvetica,sans-Serif" font-size="10.00" fill="#000000">adders/adder.h</text>
</a>
</g>
</g>
<!-- Node1&#45;&gt;Node2 -->
<g id="edge2" class="edge">
<title>Node1&#45;&gt;Node2</title>
<path fill="none" stroke="#191970" d="M347.3033,-448.2455C346.7813,-440.9382 346.0496,-430.6944 345.4075,-421.7046"/>
<polygon fill="#191970" stroke="#191970" points="348.8924,-421.3679 344.6888,-411.6427 341.9102,-421.8667 348.8924,-421.3679"/>
</g>
<!-- Node3 -->
<g id="node4" class="node">
<title>Node3</title>
<g id="a_node4"><a xlink:href="updater_8h.html" target="_top" xlink:title="This file has a definition of Updater class, which is one of the cores of this program. ">
<polygon fill="#ffffff" stroke="#000000" points="296.5,-336.5 296.5,-355.5 375.5,-355.5 375.5,-336.5 296.5,-336.5"/>
<text text-anchor="middle" x="336" y="-343.5" font-family="Helvetica,sans-Serif" font-size="10.00" fill="#000000">core/updater.h</text>
</a>
</g>
</g>
<!-- Node2&#45;&gt;Node3 -->
<g id="edge3" class="edge">
<title>Node2&#45;&gt;Node3</title>
<path fill="none" stroke="#191970" d="M342.6065,-392.2455C341.5626,-384.9382 340.0992,-374.6944 338.8149,-365.7046"/>
<polygon fill="#191970" stroke="#191970" points="342.2566,-365.0472 337.3775,-355.6427 335.327,-366.0372 342.2566,-365.0472"/>
</g>
<!-- Node4 -->
<g id="node5" class="node">
<title>Node4</title>
<polygon fill="#ffffff" stroke="#bfbfbf" points="313,-112.5 313,-131.5 357,-131.5 357,-112.5 313,-112.5"/>
<text text-anchor="middle" x="335" y="-119.5" font-family="Helvetica,sans-Serif" font-size="10.00" fill="#000000">omp.h</text>
</g>
<!-- Node3&#45;&gt;Node4 -->
<g id="edge4" class="edge">
<title>Node3&#45;&gt;Node4</title>
<path fill="none" stroke="#191970" d="M335.957,-336.375C335.8057,-302.4851 335.2957,-188.2317 335.0885,-141.8332"/>
<polygon fill="#191970" stroke="#191970" points="338.5875,-141.5734 335.0428,-131.5891 331.5876,-141.6047 338.5875,-141.5734"/>
</g>
<!-- Node5 -->
<g id="node6" class="node">
<title>Node5</title>
<g id="a_node6"><a xlink:href="generators_8h.html" target="_top" xlink:title="This file includes all the header files of subclasses of Generator class. ">
<polygon fill="#ffffff" stroke="#000000" points="169,-280.5 169,-299.5 261,-299.5 261,-280.5 169,-280.5"/>
<text text-anchor="middle" x="215" y="-287.5" font-family="Helvetica,sans-Serif" font-size="10.00" fill="#000000">core/generators.h</text>
</a>
</g>
</g>
<!-- Node3&#45;&gt;Node5 -->
<g id="edge5" class="edge">
<title>Node3&#45;&gt;Node5</title>
<path fill="none" stroke="#191970" d="M315.1994,-336.3733C295.7757,-327.3838 266.5776,-313.8706 244.7036,-303.7471"/>
<polygon fill="#191970" stroke="#191970" points="246.0745,-300.5249 235.5292,-299.5011 243.1344,-306.8776 246.0745,-300.5249"/>
</g>
<!-- Node6 -->
<g id="node7" class="node">
<title>Node6</title>
<g id="a_node7"><a xlink:href="element_8h.html" target="_top" xlink:title="This file has a definition of Element class, which is one of the cores of this program. ">
<polygon fill="#ffffff" stroke="#000000" points="127.5,-168.5 127.5,-187.5 208.5,-187.5 208.5,-168.5 127.5,-168.5"/>
<text text-anchor="middle" x="168" y="-175.5" font-family="Helvetica,sans-Serif" font-size="10.00" fill="#000000">core/element.h</text>
</a>
</g>
</g>
<!-- Node5&#45;&gt;Node6 -->
<g id="edge6" class="edge">
<title>Node5&#45;&gt;Node6</title>
<path fill="none" stroke="#191970" d="M170.1284,-280.4588C150.2752,-273.7646 128.7918,-262.5612 117,-244 105.4556,-225.8283 124.5208,-206.5032 142.5361,-193.4931"/>
<polygon fill="#191970" stroke="#191970" points="144.8454,-196.1561 151.157,-187.6464 140.9162,-190.3627 144.8454,-196.1561"/>
</g>
<!-- Node20 -->
<g id="node21" class="node">
<title>Node20</title>
<g id="a_node21"><a xlink:href="gen__dict_8h.html" target="_top" xlink:title="This file has a definition of GenDict class. ">
<polygon fill="#ffffff" stroke="#000000" points="126.5,-224.5 126.5,-243.5 209.5,-243.5 209.5,-224.5 126.5,-224.5"/>
<text text-anchor="middle" x="168" y="-231.5" font-family="Helvetica,sans-Serif" font-size="10.00" fill="#000000">core/gen_dict.h</text>
</a>
</g>
</g>
<!-- Node5&#45;&gt;Node20 -->
<g id="edge21" class="edge">
<title>Node5&#45;&gt;Node20</title>
<path fill="none" stroke="#191970" d="M206.8132,-280.2455C200.1411,-272.2958 190.5521,-260.8706 182.5747,-251.3656"/>
<polygon fill="#191970" stroke="#191970" points="185.2026,-249.0524 176.093,-243.6427 179.8408,-253.5525 185.2026,-249.0524"/>
</g>
<!-- Node21 -->
<g id="node22" class="node">
<title>Node21</title>
<g id="a_node22"><a xlink:href="gen__list_8h.html" target="_top" xlink:title="This file has a definition of GenList class. ">
<polygon fill="#ffffff" stroke="#000000" points="228,-224.5 228,-243.5 308,-243.5 308,-224.5 228,-224.5"/>
<text text-anchor="middle" x="268" y="-231.5" font-family="Helvetica,sans-Serif" font-size="10.00" fill="#000000">core/gen_list.h</text>
</a>
</g>
</g>
<!-- Node5&#45;&gt;Node21 -->
<g id="edge23" class="edge">
<title>Node5&#45;&gt;Node21</title>
<path fill="none" stroke="#191970" d="M224.2319,-280.2455C231.8317,-272.2155 242.7877,-260.6394 251.8368,-251.0781"/>
<polygon fill="#191970" stroke="#191970" points="254.5421,-253.3115 258.8739,-243.6427 249.458,-248.4998 254.5421,-253.3115"/>
</g>
<!-- Node6&#45;&gt;Node4 -->
<g id="edge7" class="edge">
<title>Node6&#45;&gt;Node4</title>
<path fill="none" stroke="#191970" d="M196.7083,-168.3733C226.2847,-158.4554 272.2818,-143.0313 303.0083,-132.7278"/>
<polygon fill="#191970" stroke="#191970" points="304.429,-135.943 312.7974,-129.4452 302.2035,-129.3062 304.429,-135.943"/>
</g>
<!-- Node7 -->
<g id="node8" class="node">
<title>Node7</title>
<g id="a_node8"><a xlink:href="eigen_8h.html" target="_top" xlink:title="This file includes Eigen and defines some aliases for the Eigen&#45;Vector, Matrix and Array...">
<polygon fill="#ffffff" stroke="#000000" points="118.5,-112.5 118.5,-131.5 189.5,-131.5 189.5,-112.5 118.5,-112.5"/>
<text text-anchor="middle" x="154" y="-119.5" font-family="Helvetica,sans-Serif" font-size="10.00" fill="#000000">alias/eigen.h</text>
</a>
</g>
</g>
<!-- Node6&#45;&gt;Node7 -->
<g id="edge8" class="edge">
<title>Node6&#45;&gt;Node7</title>
<path fill="none" stroke="#191970" d="M165.5614,-168.2455C163.7145,-160.8579 161.1172,-150.4689 158.8522,-141.4087"/>
<polygon fill="#191970" stroke="#191970" points="162.2316,-140.4952 156.4107,-131.6427 155.4406,-142.193 162.2316,-140.4952"/>
</g>
<!-- Node9 -->
<g id="node10" class="node">
<title>Node9</title>
<g id="a_node10"><a xlink:href="alias_2pybind_8h.html" target="_top" xlink:title="This file includes pybind11 and defines an alias for the namespace pybind11. ">
<polygon fill="#ffffff" stroke="#000000" points="19.5,-112.5 19.5,-131.5 96.5,-131.5 96.5,-112.5 19.5,-112.5"/>
<text text-anchor="middle" x="58" y="-119.5" font-family="Helvetica,sans-Serif" font-size="10.00" fill="#000000">alias/pybind.h</text>
</a>
</g>
</g>
<!-- Node6&#45;&gt;Node9 -->
<g id="edge10" class="edge">
<title>Node6&#45;&gt;Node9</title>
<path fill="none" stroke="#191970" d="M148.8395,-168.2455C131.4889,-159.4125 105.7099,-146.2887 86.0417,-136.2758"/>
<polygon fill="#191970" stroke="#191970" points="87.4405,-133.0605 76.941,-131.6427 84.2647,-139.2986 87.4405,-133.0605"/>
</g>
<!-- Node11 -->
<g id="node12" class="node">
<title>Node11</title>
<g id="a_node12"><a xlink:href="generator_8h.html" target="_top" xlink:title="This file has a definition of Generator class, which is one of the cores of this program. ">
<polygon fill="#ffffff" stroke="#000000" points="207.5,-112.5 207.5,-131.5 294.5,-131.5 294.5,-112.5 207.5,-112.5"/>
<text text-anchor="middle" x="251" y="-119.5" font-family="Helvetica,sans-Serif" font-size="10.00" fill="#000000">core/generator.h</text>
</a>
</g>
</g>
<!-- Node6&#45;&gt;Node11 -->
<g id="edge12" class="edge">
<title>Node6&#45;&gt;Node11</title>
<path fill="none" stroke="#191970" d="M182.4575,-168.2455C195.0732,-159.7337 213.5944,-147.2375 228.2045,-137.3801"/>
<polygon fill="#191970" stroke="#191970" points="230.3761,-140.1371 236.7082,-131.6427 226.4609,-134.3343 230.3761,-140.1371"/>
</g>
<!-- Node8 -->
<g id="node9" class="node">
<title>Node8</title>
<polygon fill="#ffffff" stroke="#bfbfbf" points="124,-56.5 124,-75.5 196,-75.5 196,-56.5 124,-56.5"/>
<text text-anchor="middle" x="160" y="-63.5" font-family="Helvetica,sans-Serif" font-size="10.00" fill="#000000">Eigen/Dense</text>
</g>
<!-- Node7&#45;&gt;Node8 -->
<g id="edge9" class="edge">
<title>Node7&#45;&gt;Node8</title>
<path fill="none" stroke="#191970" d="M155.0451,-112.2455C155.828,-104.9382 156.9256,-94.6944 157.8888,-85.7046"/>
<polygon fill="#191970" stroke="#191970" points="161.3815,-85.9587 158.9669,-75.6427 154.4214,-85.2129 161.3815,-85.9587"/>
</g>
<!-- Node10 -->
<g id="node11" class="node">
<title>Node10</title>
<polygon fill="#ffffff" stroke="#bfbfbf" points="0,-56.5 0,-75.5 106,-75.5 106,-56.5 0,-56.5"/>
<text text-anchor="middle" x="53" y="-63.5" font-family="Helvetica,sans-Serif" font-size="10.00" fill="#000000">pybind11/pybind11.h</text>
</g>
<!-- Node9&#45;&gt;Node10 -->
<g id="edge11" class="edge">
<title>Node9&#45;&gt;Node10</title>
<path fill="none" stroke="#191970" d="M57.1291,-112.2455C56.4766,-104.9382 55.562,-94.6944 54.7593,-85.7046"/>
<polygon fill="#191970" stroke="#191970" points="58.2365,-85.2918 53.861,-75.6427 51.2642,-85.9143 58.2365,-85.2918"/>
</g>
<!-- Node12 -->
<g id="node13" class="node">
<title>Node12</title>
<g id="a_node13"><a xlink:href="std_8h.html" target="_top" xlink:title="This file includes a part of C++ Standard Template Library and defines aliases for them...">
<polygon fill="#ffffff" stroke="#000000" points="220,-56.5 220,-75.5 282,-75.5 282,-56.5 220,-56.5"/>
<text text-anchor="middle" x="251" y="-63.5" font-family="Helvetica,sans-Serif" font-size="10.00" fill="#000000">alias/std.h</text>
</a>
</g>
</g>
<!-- Node11&#45;&gt;Node12 -->
<g id="edge13" class="edge">
<title>Node11&#45;&gt;Node12</title>
<path fill="none" stroke="#191970" d="M251,-112.2455C251,-104.9382 251,-94.6944 251,-85.7046"/>
<polygon fill="#191970" stroke="#191970" points="254.5001,-85.6426 251,-75.6427 247.5001,-85.6427 254.5001,-85.6426"/>
</g>
<!-- Node18 -->
<g id="node19" class="node">
<title>Node18</title>
<g id="a_node19"><a xlink:href="json_8h.html" target="_top" xlink:title="This file includes nlohmann/json and defines an alias for a JSON class. ">
<polygon fill="#ffffff" stroke="#000000" points="400,-56.5 400,-75.5 466,-75.5 466,-56.5 400,-56.5"/>
<text text-anchor="middle" x="433" y="-63.5" font-family="Helvetica,sans-Serif" font-size="10.00" fill="#000000">alias/json.h</text>
</a>
</g>
</g>
<!-- Node11&#45;&gt;Node18 -->
<g id="edge19" class="edge">
<title>Node11&#45;&gt;Node18</title>
<path fill="none" stroke="#191970" d="M282.2869,-112.3733C312.6818,-103.021 358.9893,-88.7725 392.25,-78.5385"/>
<polygon fill="#191970" stroke="#191970" points="393.5929,-81.7873 402.1214,-75.5011 391.5342,-75.0968 393.5929,-81.7873"/>
</g>
<!-- Node13 -->
<g id="node14" class="node">
<title>Node13</title>
<polygon fill="#ffffff" stroke="#bfbfbf" points="360,-.5 360,-19.5 412,-19.5 412,-.5 360,-.5"/>
<text text-anchor="middle" x="386" y="-7.5" font-family="Helvetica,sans-Serif" font-size="10.00" fill="#000000">memory</text>
</g>
<!-- Node12&#45;&gt;Node13 -->
<g id="edge14" class="edge">
<title>Node12&#45;&gt;Node13</title>
<path fill="none" stroke="#191970" d="M274.2073,-56.3733C296.1699,-47.2629 329.3332,-33.5062 353.8401,-23.3404"/>
<polygon fill="#191970" stroke="#191970" points="355.1997,-26.5657 363.0955,-19.5011 352.5176,-20.0999 355.1997,-26.5657"/>
</g>
<!-- Node14 -->
<g id="node15" class="node">
<title>Node14</title>
<polygon fill="#ffffff" stroke="#bfbfbf" points="40.5,-.5 40.5,-19.5 81.5,-19.5 81.5,-.5 40.5,-.5"/>
<text text-anchor="middle" x="61" y="-7.5" font-family="Helvetica,sans-Serif" font-size="10.00" fill="#000000">string</text>
</g>
<!-- Node12&#45;&gt;Node14 -->
<g id="edge15" class="edge">
<title>Node12&#45;&gt;Node14</title>
<path fill="none" stroke="#191970" d="M219.914,-57.4777C189.5483,-49.0618 141.8076,-35.5898 91.3964,-20.0325"/>
<polygon fill="#191970" stroke="#191970" points="92.2082,-16.6198 81.6202,-16.9993 90.1339,-23.3054 92.2082,-16.6198"/>
</g>
<!-- Node15 -->
<g id="node16" class="node">
<title>Node15</title>
<polygon fill="#ffffff" stroke="#bfbfbf" points="100,-.5 100,-19.5 144,-19.5 144,-.5 100,-.5"/>
<text text-anchor="middle" x="122" y="-7.5" font-family="Helvetica,sans-Serif" font-size="10.00" fill="#000000">vector</text>
</g>
<!-- Node12&#45;&gt;Node15 -->
<g id="edge16" class="edge">
<title>Node12&#45;&gt;Node15</title>
<path fill="none" stroke="#191970" d="M228.8241,-56.3733C208.0234,-47.3435 176.7083,-33.7494 153.3542,-23.6111"/>
<polygon fill="#191970" stroke="#191970" points="154.4532,-20.2727 143.8865,-19.5011 151.6657,-26.6938 154.4532,-20.2727"/>
</g>
<!-- Node16 -->
<g id="node17" class="node">
<title>Node16</title>
<polygon fill="#ffffff" stroke="#bfbfbf" points="162.5,-.5 162.5,-19.5 245.5,-19.5 245.5,-.5 162.5,-.5"/>
<text text-anchor="middle" x="204" y="-7.5" font-family="Helvetica,sans-Serif" font-size="10.00" fill="#000000">unordered_map</text>
</g>
<!-- Node12&#45;&gt;Node16 -->
<g id="edge17" class="edge">
<title>Node12&#45;&gt;Node16</title>
<path fill="none" stroke="#191970" d="M242.8132,-56.2455C236.1411,-48.2958 226.5521,-36.8706 218.5747,-27.3656"/>
<polygon fill="#191970" stroke="#191970" points="221.2026,-25.0524 212.093,-19.6427 215.8408,-29.5525 221.2026,-25.0524"/>
</g>
<!-- Node17 -->
<g id="node18" class="node">
<title>Node17</title>
<polygon fill="#ffffff" stroke="#bfbfbf" points="264,-.5 264,-19.5 342,-19.5 342,-.5 264,-.5"/>
<text text-anchor="middle" x="303" y="-7.5" font-family="Helvetica,sans-Serif" font-size="10.00" fill="#000000">unordered_set</text>
</g>
<!-- Node12&#45;&gt;Node17 -->
<g id="edge18" class="edge">
<title>Node12&#45;&gt;Node17</title>
<path fill="none" stroke="#191970" d="M260.0577,-56.2455C267.5142,-48.2155 278.2634,-36.6394 287.1417,-27.0781"/>
<polygon fill="#191970" stroke="#191970" points="289.8063,-29.3522 294.0461,-19.6427 284.6768,-24.589 289.8063,-29.3522"/>
</g>
<!-- Node19 -->
<g id="node20" class="node">
<title>Node19</title>
<polygon fill="#ffffff" stroke="#bfbfbf" points="430,-.5 430,-19.5 528,-19.5 528,-.5 430,-.5"/>
<text text-anchor="middle" x="479" y="-7.5" font-family="Helvetica,sans-Serif" font-size="10.00" fill="#000000">nlohmann/json.hpp</text>
</g>
<!-- Node18&#45;&gt;Node19 -->
<g id="edge20" class="edge">
<title>Node18&#45;&gt;Node19</title>
<path fill="none" stroke="#191970" d="M441.0126,-56.2455C447.4768,-48.3761 456.7385,-37.101 464.4983,-27.6542"/>
<polygon fill="#191970" stroke="#191970" points="467.4364,-29.5916 471.0792,-19.6427 462.0273,-25.1484 467.4364,-29.5916"/>
</g>
<!-- Node20&#45;&gt;Node6 -->
<g id="edge22" class="edge">
<title>Node20&#45;&gt;Node6</title>
<path fill="none" stroke="#191970" d="M168,-224.2455C168,-216.9382 168,-206.6944 168,-197.7046"/>
<polygon fill="#191970" stroke="#191970" points="171.5001,-197.6426 168,-187.6427 164.5001,-197.6427 171.5001,-197.6426"/>
</g>
<!-- Node21&#45;&gt;Node6 -->
<g id="edge24" class="edge">
<title>Node21&#45;&gt;Node6</title>
<path fill="none" stroke="#191970" d="M250.5813,-224.2455C234.9515,-215.4928 211.7981,-202.527 193.9815,-192.5496"/>
<polygon fill="#191970" stroke="#191970" points="195.6543,-189.475 185.2191,-187.6427 192.234,-195.5825 195.6543,-189.475"/>
</g>
<!-- Node22&#45;&gt;Node12 -->
<g id="edge26" class="edge">
<title>Node22&#45;&gt;Node12</title>
<path fill="none" stroke="#191970" d="M401.7131,-112.3733C371.3182,-103.021 325.0107,-88.7725 291.75,-78.5385"/>
<polygon fill="#191970" stroke="#191970" points="292.4658,-75.0968 281.8786,-75.5011 290.4071,-81.7873 292.4658,-75.0968"/>
</g>
<!-- Node22&#45;&gt;Node18 -->
<g id="edge27" class="edge">
<title>Node22&#45;&gt;Node18</title>
<path fill="none" stroke="#191970" d="M433,-112.2455C433,-104.9382 433,-94.6944 433,-85.7046"/>
<polygon fill="#191970" stroke="#191970" points="436.5001,-85.6426 433,-75.6427 429.5001,-85.6427 436.5001,-85.6426"/>
</g>
</g>
</svg>
        <g id="navigator" transform="translate(0 0)" fill="#404254">
                <rect fill="#f2f5e9" fill-opacity="0.5" stroke="#606060" stroke-width=".5" x="0" y="0" width="60" height="60"/>
                <use id="zoomplus" xlink:href="#zoomPlus" x="17" y="9" onmousedown="handleZoom(evt,'in')"/>
                <use id="zoomminus" xlink:href="#zoomMin" x="42" y="9" onmousedown="handleZoom(evt,'out')"/>
                <use id="reset" xlink:href="#resetDef" x="30" y="36" onmousedown="handleReset()"/>
                <g id="arrowUp" xlink:href="#dirArrow" transform="translate(30 24)" onmousedown="handlePan(0,-1)">
                  <use xlink:href="#rim" fill="#404040">
                        <set attributeName="fill" to="#808080" begin="arrowUp.mouseover" end="arrowUp.mouseout"/>
                  </use>
                  <path fill="none" stroke="white" stroke-width="1.5" d="M0,-3.0v7 M-2.5,-0.5L0,-3.0L2.5,-0.5"/>
                </g>
                <g id="arrowRight" xlink:href="#dirArrow" transform="rotate(90) translate(36 -43)" onmousedown="handlePan(1,0)">
                  <use xlink:href="#rim" fill="#404040">
                        <set attributeName="fill" to="#808080" begin="arrowRight.mouseover" end="arrowRight.mouseout"/>
                  </use>
                  <path fill="none" stroke="white" stroke-width="1.5" d="M0,-3.0v7 M-2.5,-0.5L0,-3.0L2.5,-0.5"/>
                </g>
                <g id="arrowDown" xlink:href="#dirArrow" transform="rotate(180) translate(-30 -48)" onmousedown="handlePan(0,1)">
                  <use xlink:href="#rim" fill="#404040">
                        <set attributeName="fill" to="#808080" begin="arrowDown.mouseover" end="arrowDown.mouseout"/>
                  </use>
                  <path fill="none" stroke="white" stroke-width="1.5" d="M0,-3.0v7 M-2.5,-0.5L0,-3.0L2.5,-0.5"/>
                </g>
                <g id="arrowLeft" xlink:href="#dirArrow" transform="rotate(270) translate(-36 17)" onmousedown="handlePan(-1,0)">
                  <use xlink:href="#rim" fill="#404040">
                        <set attributeName="fill" to="#808080" begin="arrowLeft.mouseover" end="arrowLeft.mouseout"/>
                  </use>
                  <path fill="none" stroke="white" stroke-width="1.5" d="M0,-3.0v7 M-2.5,-0.5L0,-3.0L2.5,-0.5"/>
                </g>
        </g>
        <svg viewBox="0 0 15 15" width="100%" height="30px" preserveAspectRatio="xMaxYMin meet">
         <g id="arrow_out" transform="scale(0.3 0.3)">
          <a xlink:href="add__dihedral__angle_8cpp__incl_org.svg" target="_base">
           <rect id="button" ry="5" rx="5" y="6" x="6" height="38" width="38"
                fill="#f2f5e9" fill-opacity="0.5" stroke="#606060" stroke-width="1.0"/>
           <path id="arrow"
             d="M 11.500037,31.436501 C 11.940474,20.09759 22.043105,11.32322 32.158766,21.979434 L 37.068811,17.246167 C 37.068811,17.246167 37.088388,32 37.088388,32 L 22.160133,31.978069 C 22.160133,31.978069 26.997745,27.140456 26.997745,27.140456 C 18.528582,18.264221 13.291696,25.230495 11.500037,31.436501 z"
             style="fill:#404040;"/>
          </a>
         </g>
        </svg>
</svg>
