<?xml version="1.0" encoding="UTF-8" standalone="no"?>
<!DOCTYPE svg PUBLIC "-//W3C//DTD SVG 1.1//EN"
 "http://www.w3.org/Graphics/SVG/1.1/DTD/svg11.dtd">
<!-- Generated by graphviz version 2.40.1 (20161225.0304)
 -->
<!-- Title: src/adders/add_wrapped_position.h Pages: 1 -->
<svg width="272pt" height="218pt"
 viewBox="0.00 0.00 272.00 218.00" xmlns="http://www.w3.org/2000/svg" xmlns:xlink="http://www.w3.org/1999/xlink">
<g id="graph0" class="graph" transform="scale(1 1) rotate(0) translate(4 214)">
<title>src/adders/add_wrapped_position.h</title>
<polygon fill="#ffffff" stroke="transparent" points="-4,4 -4,-214 268,-214 268,4 -4,4"/>
<!-- Node22 -->
<g id="node1" class="node">
<title>Node22</title>
<polygon fill="#bfbfbf" stroke="#000000" points="70,-179.5 70,-209.5 192,-209.5 192,-179.5 70,-179.5"/>
<text text-anchor="start" x="78" y="-197.5" font-family="Helvetica,sans-Serif" font-size="10.00" fill="#000000">src/adders/add_wrapped</text>
<text text-anchor="middle" x="131" y="-186.5" font-family="Helvetica,sans-Serif" font-size="10.00" fill="#000000">_position.h</text>
</g>
<!-- Node23 -->
<g id="node2" class="node">
<title>Node23</title>
<g id="a_node2"><a xlink:href="add__wrapped__position_8cpp.html" target="_top" xlink:title="This file has implementations of the AddWrappedPosition class, which is a subclass of the Adder class...">
<polygon fill="#ffffff" stroke="#000000" points="0,-112.5 0,-142.5 122,-142.5 122,-112.5 0,-112.5"/>
<text text-anchor="start" x="8" y="-130.5" font-family="Helvetica,sans-Serif" font-size="10.00" fill="#000000">src/adders/add_wrapped</text>
<text text-anchor="middle" x="61" y="-119.5" font-family="Helvetica,sans-Serif" font-size="10.00" fill="#000000">_position.cpp</text>
</a>
</g>
</g>
<!-- Node22&#45;&gt;Node23 -->
<g id="edge1" class="edge">
<title>Node22&#45;&gt;Node23</title>
<path fill="none" stroke="#191970" d="M107.7133,-172.2113C97.5681,-162.5009 85.9386,-151.3698 76.8212,-142.6432"/>
<polygon fill="#191970" stroke="#191970" points="105.4716,-174.9105 115.1159,-179.2967 110.3118,-169.8536 105.4716,-174.9105"/>
</g>
<!-- Node24 -->
<g id="node3" class="node">
<title>Node24</title>
<g id="a_node3"><a xlink:href="pybind_2adders__py_2add__wrapped__position_8h.html" target="_top" xlink:title="This file has a function to bind AddWrappedPosition class to Python. ">
<polygon fill="#ffffff" stroke="#000000" points="140,-112.5 140,-142.5 264,-142.5 264,-112.5 140,-112.5"/>
<text text-anchor="start" x="148" y="-130.5" font-family="Helvetica,sans-Serif" font-size="10.00" fill="#000000">src/pybind/adders_py</text>
<text text-anchor="middle" x="202" y="-119.5" font-family="Helvetica,sans-Serif" font-size="10.00" fill="#000000">/add_wrapped_position.h</text>
</a>
</g>
</g>
<!-- Node22&#45;&gt;Node24 -->
<g id="edge2" class="edge">
<title>Node22&#45;&gt;Node24</title>
<path fill="none" stroke="#191970" d="M154.6194,-172.2113C164.9095,-162.5009 176.7051,-151.3698 185.9528,-142.6432"/>
<polygon fill="#191970" stroke="#191970" points="151.9819,-169.8879 147.111,-179.2967 156.7861,-174.979 151.9819,-169.8879"/>
</g>
<!-- Node25 -->
<g id="node4" class="node">
<title>Node25</title>
<g id="a_node4"><a xlink:href="pybind_8h.html" target="_top" xlink:title="This file includes all the header files containing definitions of functions to bind C++ and Python...">
<polygon fill="#ffffff" stroke="#000000" points="167,-56.5 167,-75.5 237,-75.5 237,-56.5 167,-56.5"/>
<text text-anchor="middle" x="202" y="-63.5" font-family="Helvetica,sans-Serif" font-size="10.00" fill="#000000">src/pybind.h</text>
</a>
</g>
</g>
<!-- Node24&#45;&gt;Node25 -->
<g id="edge3" class="edge">
<title>Node24&#45;&gt;Node25</title>
<path fill="none" stroke="#191970" d="M202,-102.2849C202,-92.9858 202,-82.9883 202,-75.8469"/>
<polygon fill="#191970" stroke="#191970" points="198.5001,-102.2977 202,-112.2977 205.5001,-102.2978 198.5001,-102.2977"/>
</g>
<!-- Node26 -->
<g id="node5" class="node">
<title>Node26</title>
<g id="a_node5"><a xlink:href="ppap4lmp_8cpp.html" target="_top" xlink:title="This file has no implementation, only includes a header file to bind C++ and Python. ">
<polygon fill="#ffffff" stroke="#000000" points="155,-.5 155,-19.5 249,-19.5 249,-.5 155,-.5"/>
<text text-anchor="middle" x="202" y="-7.5" font-family="Helvetica,sans-Serif" font-size="10.00" fill="#000000">src/ppap4lmp.cpp</text>
</a>
</g>
</g>
<!-- Node25&#45;&gt;Node26 -->
<g id="edge4" class="edge">
<title>Node25&#45;&gt;Node26</title>
<path fill="none" stroke="#191970" d="M202,-46.1575C202,-37.155 202,-26.9199 202,-19.6427"/>
<polygon fill="#191970" stroke="#191970" points="198.5001,-46.2455 202,-56.2455 205.5001,-46.2456 198.5001,-46.2455"/>
</g>
</g>
</svg>
