<?xml version="1.0" encoding="UTF-8" standalone="no"?>
<!DOCTYPE svg PUBLIC "-//W3C//DTD SVG 1.1//EN"
 "http://www.w3.org/Graphics/SVG/1.1/DTD/svg11.dtd">
<!-- Generated by graphviz version 2.40.1 (20161225.0304)
 -->
<!-- Title: src/adders/adder.h Pages: 1 -->
<!--zoomable 274 -->
<svg id="main" version="1.1" xmlns="http://www.w3.org/2000/svg" xmlns:xlink="http://www.w3.org/1999/xlink" xml:space="preserve" onload="init(evt)">
<style type="text/css"><![CDATA[
.edge:hover path { stroke: red; }
.edge:hover polygon { stroke: red; fill: red; }
]]></style>
<script type="text/javascript"><![CDATA[
var edges = document.getElementsByTagName('g');
if (edges && edges.length) {
  for (var i=0;i<edges.length;i++) {
    if (edges[i].id.substr(0,4)=='edge') {
      edges[i].setAttribute('class','edge');
    }
  }
}
]]></script>
        <defs>
                <circle id="rim" cx="0" cy="0" r="7"/>
                <circle id="rim2" cx="0" cy="0" r="3.5"/>
                <g id="zoomPlus">
                        <use xlink:href="#rim" fill="#404040">
                                <set attributeName="fill" to="#808080" begin="zoomplus.mouseover" end="zoomplus.mouseout"/>
                        </use>
                        <path d="M-4,0h8M0,-4v8" fill="none" stroke="white" stroke-width="1.5" pointer-events="none"/>
                </g>
                <g id="zoomMin">
                        <use xlink:href="#rim" fill="#404040">
                                <set attributeName="fill" to="#808080" begin="zoomminus.mouseover" end="zoomminus.mouseout"/>
                        </use>
                        <path d="M-4,0h8" fill="none" stroke="white" stroke-width="1.5" pointer-events="none"/>
                </g>
                <g id="dirArrow">
                        <path fill="none" stroke="white" stroke-width="1.5" d="M0,-3.0v7 M-2.5,-0.5L0,-3.0L2.5,-0.5"/>
                </g>
               <g id="resetDef">
                       <use xlink:href="#rim2" fill="#404040">
                               <set attributeName="fill" to="#808080" begin="reset.mouseover" end="reset.mouseout"/>
                       </use>
               </g>
        </defs>

<script type="text/javascript">
var viewWidth = 2736;
var viewHeight = 274;
var sectionId = 'dynsection-1';
</script>
<script xlink:href="svgpan.js"/>
<svg id="graph" class="graph">
<g id="viewport">
<title>src/adders/adder.h</title>
<polygon fill="#ffffff" stroke="transparent" points="-4,4 -4,-270 2731.5,-270 2731.5,4 -4,4"/>
<!-- Node21 -->
<g id="node1" class="node">
<title>Node21</title>
<polygon fill="#bfbfbf" stroke="#000000" points="1284.5,-246.5 1284.5,-265.5 1382.5,-265.5 1382.5,-246.5 1284.5,-246.5"/>
<text text-anchor="middle" x="1333.5" y="-253.5" font-family="Helvetica,sans-Serif" font-size="10.00" fill="#000000">src/adders/adder.h</text>
</g>
<!-- Node22 -->
<g id="node2" class="node">
<title>Node22</title>
<g id="a_node2"><a xlink:href="add__child__ids_8h.html" target="_top" xlink:title="This file has a definition of AddChildIDs class, which is a subclass of Adder class. ">
<polygon fill="#ffffff" stroke="#000000" points="125,-179.5 125,-209.5 232,-209.5 232,-179.5 125,-179.5"/>
<text text-anchor="start" x="133" y="-197.5" font-family="Helvetica,sans-Serif" font-size="10.00" fill="#000000">src/adders/add_child</text>
<text text-anchor="middle" x="178.5" y="-186.5" font-family="Helvetica,sans-Serif" font-size="10.00" fill="#000000">_ids.h</text>
</a>
</g>
</g>
<!-- Node21&#45;&gt;Node22 -->
<g id="edge1" class="edge">
<title>Node21&#45;&gt;Node22</title>
<path fill="none" stroke="#191970" d="M1274.204,-252.8427C1073.8819,-242.1762 424.103,-207.5776 232.2838,-197.3638"/>
<polygon fill="#191970" stroke="#191970" points="1274.0686,-256.3403 1284.2406,-253.3771 1274.4409,-249.3502 1274.0686,-256.3403"/>
</g>
<!-- Node27 -->
<g id="node7" class="node">
<title>Node27</title>
<g id="a_node7"><a xlink:href="add__child__positions_8h.html" target="_top" xlink:title="This file has a definition of AddChildPositions class, which is a subclass of Adder class...">
<polygon fill="#ffffff" stroke="#000000" points="503,-179.5 503,-209.5 610,-209.5 610,-179.5 503,-179.5"/>
<text text-anchor="start" x="511" y="-197.5" font-family="Helvetica,sans-Serif" font-size="10.00" fill="#000000">src/adders/add_child</text>
<text text-anchor="middle" x="556.5" y="-186.5" font-family="Helvetica,sans-Serif" font-size="10.00" fill="#000000">_positions.h</text>
</a>
</g>
</g>
<!-- Node21&#45;&gt;Node27 -->
<g id="edge6" class="edge">
<title>Node21&#45;&gt;Node27</title>
<path fill="none" stroke="#191970" d="M1274.1599,-251.3032C1127.6174,-239.7043 750.3246,-209.8413 610.0631,-198.7396"/>
<polygon fill="#191970" stroke="#191970" points="1274.0607,-254.8062 1284.3057,-252.1062 1274.6131,-247.828 1274.0607,-254.8062"/>
</g>
<!-- Node30 -->
<g id="node10" class="node">
<title>Node30</title>
<g id="a_node10"><a xlink:href="add__com__position_8h.html" target="_top" xlink:title="This file has a definition of AddCoMPosition class, which is a subclass of Adder class. ">
<polygon fill="#ffffff" stroke="#000000" points="774,-179.5 774,-209.5 879,-209.5 879,-179.5 774,-179.5"/>
<text text-anchor="start" x="782" y="-197.5" font-family="Helvetica,sans-Serif" font-size="10.00" fill="#000000">src/adders/add_com</text>
<text text-anchor="middle" x="826.5" y="-186.5" font-family="Helvetica,sans-Serif" font-size="10.00" fill="#000000">_position.h</text>
</a>
</g>
</g>
<!-- Node21&#45;&gt;Node30 -->
<g id="edge10" class="edge">
<title>Node21&#45;&gt;Node30</title>
<path fill="none" stroke="#191970" d="M1274.2675,-252.6526C1188.472,-247.1803 1024.8529,-234.3991 887.5,-210 884.8104,-209.5222 882.0644,-208.9899 879.2986,-208.4184"/>
<polygon fill="#191970" stroke="#191970" points="1274.1382,-256.1512 1284.3376,-253.284 1274.5763,-249.165 1274.1382,-256.1512"/>
</g>
<!-- Node33 -->
<g id="node13" class="node">
<title>Node33</title>
<g id="a_node13"><a xlink:href="add__gyration__radius_8h.html" target="_top" xlink:title="This file has a definition of AddGyrationRadius class, which is a subclass of Adder class...">
<polygon fill="#ffffff" stroke="#000000" points="897,-179.5 897,-209.5 1018,-209.5 1018,-179.5 897,-179.5"/>
<text text-anchor="start" x="905" y="-197.5" font-family="Helvetica,sans-Serif" font-size="10.00" fill="#000000">src/adders/add_gyration</text>
<text text-anchor="middle" x="957.5" y="-186.5" font-family="Helvetica,sans-Serif" font-size="10.00" fill="#000000">_radius.h</text>
</a>
</g>
</g>
<!-- Node21&#45;&gt;Node33 -->
<g id="edge14" class="edge">
<title>Node21&#45;&gt;Node33</title>
<path fill="none" stroke="#191970" d="M1274.3748,-246.3293C1204.4754,-234.8962 1088.7533,-215.9683 1018.1818,-204.4253"/>
<polygon fill="#191970" stroke="#191970" points="1273.9107,-249.7998 1284.3446,-247.9599 1275.0407,-242.8916 1273.9107,-249.7998"/>
</g>
<!-- Node36 -->
<g id="node16" class="node">
<title>Node36</title>
<g id="a_node16"><a xlink:href="add__inertia__moment_8h.html" target="_top" xlink:title="This file has a definition of AddInertiaMoment class, which is a subclass of Adder class...">
<polygon fill="#ffffff" stroke="#000000" points="1622,-179.5 1622,-209.5 1735,-209.5 1735,-179.5 1622,-179.5"/>
<text text-anchor="start" x="1630" y="-197.5" font-family="Helvetica,sans-Serif" font-size="10.00" fill="#000000">src/adders/add_inertia</text>
<text text-anchor="middle" x="1678.5" y="-186.5" font-family="Helvetica,sans-Serif" font-size="10.00" fill="#000000">_moment.h</text>
</a>
</g>
</g>
<!-- Node21&#45;&gt;Node36 -->
<g id="edge18" class="edge">
<title>Node21&#45;&gt;Node36</title>
<path fill="none" stroke="#191970" d="M1392.7393,-247.5208C1449.5657,-239.0917 1537.6855,-225.2469 1613.5,-210 1616.2296,-209.4511 1619.0187,-208.8688 1621.8322,-208.2643"/>
<polygon fill="#191970" stroke="#191970" points="1391.8849,-244.1089 1382.5027,-249.0308 1392.9065,-251.034 1391.8849,-244.1089"/>
</g>
<!-- Node39 -->
<g id="node19" class="node">
<title>Node39</title>
<g id="a_node19"><a xlink:href="add__map_8h.html" target="_top" xlink:title="This file has a definition of AddMap class, which is a subclass of Adder class. ">
<polygon fill="#ffffff" stroke="#000000" points="1902,-185 1902,-204 2015,-204 2015,-185 1902,-185"/>
<text text-anchor="middle" x="1958.5" y="-192" font-family="Helvetica,sans-Serif" font-size="10.00" fill="#000000">src/adders/add_map.h</text>
</a>
</g>
</g>
<!-- Node21&#45;&gt;Node39 -->
<g id="edge22" class="edge">
<title>Node21&#45;&gt;Node39</title>
<path fill="none" stroke="#191970" d="M1392.6484,-250.1798C1512.707,-238.366 1783.5883,-211.7113 1901.6734,-200.0917"/>
<polygon fill="#191970" stroke="#191970" points="1392.1519,-246.7117 1382.5427,-251.1742 1392.8374,-253.678 1392.1519,-246.7117"/>
</g>
<!-- Node42 -->
<g id="node22" class="node">
<title>Node42</title>
<g id="a_node22"><a xlink:href="add__molecular__orientation_8h.html" target="_top" xlink:title="This file has a definition of AddMolecularOrientation class, which is a subclass of Adder class...">
<polygon fill="#ffffff" stroke="#000000" points="2168.5,-179.5 2168.5,-209.5 2296.5,-209.5 2296.5,-179.5 2168.5,-179.5"/>
<text text-anchor="start" x="2176.5" y="-197.5" font-family="Helvetica,sans-Serif" font-size="10.00" fill="#000000">src/adders/add_molecular</text>
<text text-anchor="middle" x="2232.5" y="-186.5" font-family="Helvetica,sans-Serif" font-size="10.00" fill="#000000">_orientation.h</text>
</a>
</g>
</g>
<!-- Node21&#45;&gt;Node42 -->
<g id="edge26" class="edge">
<title>Node21&#45;&gt;Node42</title>
<path fill="none" stroke="#191970" d="M1392.5488,-252.2271C1511.9332,-244.5642 1790.5535,-226.5034 2024.5,-210 2072.7222,-206.5982 2127.2149,-202.5292 2168.3243,-199.414"/>
<polygon fill="#191970" stroke="#191970" points="1392.2765,-248.7373 1382.521,-252.8703 1392.7246,-255.7229 1392.2765,-248.7373"/>
</g>
<!-- Node45 -->
<g id="node25" class="node">
<title>Node45</title>
<g id="a_node25"><a xlink:href="add__rename_8h.html" target="_top" xlink:title="This file has a definition of AddRename class, which is a subclass of Adder class. ">
<polygon fill="#ffffff" stroke="#000000" points="1342,-185 1342,-204 1469,-204 1469,-185 1342,-185"/>
<text text-anchor="middle" x="1405.5" y="-192" font-family="Helvetica,sans-Serif" font-size="10.00" fill="#000000">src/adders/add_rename.h</text>
</a>
</g>
</g>
<!-- Node21&#45;&gt;Node45 -->
<g id="edge30" class="edge">
<title>Node21&#45;&gt;Node45</title>
<path fill="none" stroke="#191970" d="M1352.3848,-239.8692C1365.6277,-228.5576 1382.8976,-213.8062 1394.0914,-204.2449"/>
<polygon fill="#191970" stroke="#191970" points="1350.0805,-237.2344 1344.75,-246.3906 1354.627,-242.557 1350.0805,-237.2344"/>
</g>
<!-- Node48 -->
<g id="node28" class="node">
<title>Node48</title>
<g id="a_node28"><a xlink:href="add__special__bonds_8h.html" target="_top" xlink:title="This file has a definition of AddSpecialBonds class, which is a subclass of Adder class...">
<polygon fill="#ffffff" stroke="#000000" points="1487,-179.5 1487,-209.5 1604,-209.5 1604,-179.5 1487,-179.5"/>
<text text-anchor="start" x="1495" y="-197.5" font-family="Helvetica,sans-Serif" font-size="10.00" fill="#000000">src/adders/add_special</text>
<text text-anchor="middle" x="1545.5" y="-186.5" font-family="Helvetica,sans-Serif" font-size="10.00" fill="#000000">_bonds.h</text>
</a>
</g>
</g>
<!-- Node21&#45;&gt;Node48 -->
<g id="edge34" class="edge">
<title>Node21&#45;&gt;Node48</title>
<path fill="none" stroke="#191970" d="M1376.2359,-243.6025C1410.1136,-233.7748 1457.587,-220.0031 1493.639,-209.5446"/>
<polygon fill="#191970" stroke="#191970" points="1375.2539,-240.2431 1366.625,-246.3906 1377.2042,-246.9659 1375.2539,-240.2431"/>
</g>
<!-- Node51 -->
<g id="node31" class="node">
<title>Node51</title>
<g id="a_node31"><a xlink:href="add__wrapped__position_8h.html" target="_top" xlink:title="This file has a definition of AddWrappedPosition class, which is a subclass of Adder class...">
<polygon fill="#ffffff" stroke="#000000" points="1201.5,-179.5 1201.5,-209.5 1323.5,-209.5 1323.5,-179.5 1201.5,-179.5"/>
<text text-anchor="start" x="1209.5" y="-197.5" font-family="Helvetica,sans-Serif" font-size="10.00" fill="#000000">src/adders/add_wrapped</text>
<text text-anchor="middle" x="1262.5" y="-186.5" font-family="Helvetica,sans-Serif" font-size="10.00" fill="#000000">_position.h</text>
</a>
</g>
</g>
<!-- Node21&#45;&gt;Node51 -->
<g id="edge38" class="edge">
<title>Node21&#45;&gt;Node51</title>
<path fill="none" stroke="#191970" d="M1314.7556,-239.7637C1303.9432,-230.398 1290.4398,-218.7014 1279.8686,-209.5446"/>
<polygon fill="#191970" stroke="#191970" points="1312.556,-242.4888 1322.4063,-246.3906 1317.1391,-237.1978 1312.556,-242.4888"/>
</g>
<!-- Node54 -->
<g id="node34" class="node">
<title>Node54</title>
<g id="a_node34"><a xlink:href="adder_8cpp.html" target="_top" xlink:title="This file has an implementation of Adder class, which is a subclass of Updater class. ">
<polygon fill="#ffffff" stroke="#000000" points="2314.5,-185 2314.5,-204 2422.5,-204 2422.5,-185 2314.5,-185"/>
<text text-anchor="middle" x="2368.5" y="-192" font-family="Helvetica,sans-Serif" font-size="10.00" fill="#000000">src/adders/adder.cpp</text>
</a>
</g>
</g>
<!-- Node21&#45;&gt;Node54 -->
<g id="edge42" class="edge">
<title>Node21&#45;&gt;Node54</title>
<path fill="none" stroke="#191970" d="M1392.7711,-254.7021C1575.3967,-250.4652 2127.8673,-235.8055 2305.5,-210 2315.1976,-208.5912 2325.58,-206.3498 2335.0617,-204.0044"/>
<polygon fill="#191970" stroke="#191970" points="1392.4758,-251.2079 1382.5589,-254.9371 1392.6368,-258.206 1392.4758,-251.2079"/>
</g>
<!-- Node55 -->
<g id="node35" class="node">
<title>Node55</title>
<g id="a_node35"><a xlink:href="py__adder_8h.html" target="_top" xlink:title="This file is for binding Adder class to Python. ">
<polygon fill="#ffffff" stroke="#000000" points="1076,-179.5 1076,-209.5 1183,-209.5 1183,-179.5 1076,-179.5"/>
<text text-anchor="start" x="1084" y="-197.5" font-family="Helvetica,sans-Serif" font-size="10.00" fill="#000000">src/pybind/adders/py</text>
<text text-anchor="middle" x="1129.5" y="-186.5" font-family="Helvetica,sans-Serif" font-size="10.00" fill="#000000">_adder.h</text>
</a>
</g>
</g>
<!-- Node21&#45;&gt;Node55 -->
<g id="edge43" class="edge">
<title>Node21&#45;&gt;Node55</title>
<path fill="none" stroke="#191970" d="M1291.9563,-243.4758C1259.3856,-233.6567 1213.9467,-219.9582 1179.404,-209.5446"/>
<polygon fill="#191970" stroke="#191970" points="1291.0404,-246.8552 1301.625,-246.3906 1293.0609,-240.1531 1291.0404,-246.8552"/>
</g>
<!-- Node23 -->
<g id="node3" class="node">
<title>Node23</title>
<g id="a_node3"><a xlink:href="add__child__ids_8cpp.html" target="_top" xlink:title="This file has an implementation of AddChildIDs class, which is a subclass of Adder class...">
<polygon fill="#ffffff" stroke="#000000" points="0,-112.5 0,-142.5 107,-142.5 107,-112.5 0,-112.5"/>
<text text-anchor="start" x="8" y="-130.5" font-family="Helvetica,sans-Serif" font-size="10.00" fill="#000000">src/adders/add_child</text>
<text text-anchor="middle" x="53.5" y="-119.5" font-family="Helvetica,sans-Serif" font-size="10.00" fill="#000000">_ids.cpp</text>
</a>
</g>
</g>
<!-- Node22&#45;&gt;Node23 -->
<g id="edge2" class="edge">
<title>Node22&#45;&gt;Node23</title>
<path fill="none" stroke="#191970" d="M141.4387,-174.6352C122.3844,-164.422 99.5265,-152.1702 81.8913,-142.7177"/>
<polygon fill="#191970" stroke="#191970" points="139.9803,-177.8245 150.4476,-179.4639 143.2873,-171.6549 139.9803,-177.8245"/>
</g>
<!-- Node24 -->
<g id="node4" class="node">
<title>Node24</title>
<g id="a_node4"><a xlink:href="py__add__child__ids_8h.html" target="_top" xlink:title="This file is for binding AddChildIDs class to Python. ">
<polygon fill="#ffffff" stroke="#000000" points="125,-112.5 125,-142.5 232,-142.5 232,-112.5 125,-112.5"/>
<text text-anchor="start" x="133" y="-130.5" font-family="Helvetica,sans-Serif" font-size="10.00" fill="#000000">src/pybind/adders/py</text>
<text text-anchor="middle" x="178.5" y="-119.5" font-family="Helvetica,sans-Serif" font-size="10.00" fill="#000000">_add_child_ids.h</text>
</a>
</g>
</g>
<!-- Node22&#45;&gt;Node24 -->
<g id="edge3" class="edge">
<title>Node22&#45;&gt;Node24</title>
<path fill="none" stroke="#191970" d="M178.5,-169.0249C178.5,-160.128 178.5,-150.4287 178.5,-142.6432"/>
<polygon fill="#191970" stroke="#191970" points="175.0001,-169.2966 178.5,-179.2967 182.0001,-169.2967 175.0001,-169.2966"/>
</g>
<!-- Node25 -->
<g id="node5" class="node">
<title>Node25</title>
<g id="a_node5"><a xlink:href="pybind_8h.html" target="_top" xlink:title="This file includes all the header files containing definitions of functions to bind C++ and Python...">
<polygon fill="#ffffff" stroke="#000000" points="1100.5,-56.5 1100.5,-75.5 1170.5,-75.5 1170.5,-56.5 1100.5,-56.5"/>
<text text-anchor="middle" x="1135.5" y="-63.5" font-family="Helvetica,sans-Serif" font-size="10.00" fill="#000000">src/pybind.h</text>
</a>
</g>
</g>
<!-- Node24&#45;&gt;Node25 -->
<g id="edge4" class="edge">
<title>Node24&#45;&gt;Node25</title>
<path fill="none" stroke="#191970" d="M242.185,-111.9702C430.5053,-85.9936 959.0596,-70.638 1100.4025,-66.8952"/>
<polygon fill="#191970" stroke="#191970" points="241.5403,-108.5268 232.1404,-113.4148 242.5368,-115.4555 241.5403,-108.5268"/>
</g>
<!-- Node26 -->
<g id="node6" class="node">
<title>Node26</title>
<g id="a_node6"><a xlink:href="ppap4lmp_8cpp.html" target="_top" xlink:title="This file has no implementation, only includes a header file to bind C++ and Python. ">
<polygon fill="#ffffff" stroke="#000000" points="1088.5,-.5 1088.5,-19.5 1182.5,-19.5 1182.5,-.5 1088.5,-.5"/>
<text text-anchor="middle" x="1135.5" y="-7.5" font-family="Helvetica,sans-Serif" font-size="10.00" fill="#000000">src/ppap4lmp.cpp</text>
</a>
</g>
</g>
<!-- Node25&#45;&gt;Node26 -->
<g id="edge5" class="edge">
<title>Node25&#45;&gt;Node26</title>
<path fill="none" stroke="#191970" d="M1135.5,-46.1575C1135.5,-37.155 1135.5,-26.9199 1135.5,-19.6427"/>
<polygon fill="#191970" stroke="#191970" points="1132.0001,-46.2455 1135.5,-56.2455 1139.0001,-46.2456 1132.0001,-46.2455"/>
</g>
<!-- Node28 -->
<g id="node8" class="node">
<title>Node28</title>
<g id="a_node8"><a xlink:href="add__child__positions_8cpp.html" target="_top" xlink:title="This file has an implementation of AddChildPositions class, which is a subclass of Adder class...">
<polygon fill="#ffffff" stroke="#000000" points="250,-112.5 250,-142.5 357,-142.5 357,-112.5 250,-112.5"/>
<text text-anchor="start" x="258" y="-130.5" font-family="Helvetica,sans-Serif" font-size="10.00" fill="#000000">src/adders/add_child</text>
<text text-anchor="middle" x="303.5" y="-119.5" font-family="Helvetica,sans-Serif" font-size="10.00" fill="#000000">_positions.cpp</text>
</a>
</g>
</g>
<!-- Node27&#45;&gt;Node28 -->
<g id="edge7" class="edge">
<title>Node27&#45;&gt;Node28</title>
<path fill="none" stroke="#191970" d="M493.0187,-177.6888C451.1098,-166.5903 396.8069,-152.2097 357.0775,-141.6885"/>
<polygon fill="#191970" stroke="#191970" points="492.2824,-181.1143 502.8452,-180.291 494.0744,-174.3476 492.2824,-181.1143"/>
</g>
<!-- Node29 -->
<g id="node9" class="node">
<title>Node29</title>
<g id="a_node9"><a xlink:href="py__add__child__positions_8h.html" target="_top" xlink:title="This file is for binding AddChildPositions class to Python. ">
<polygon fill="#ffffff" stroke="#000000" points="498.5,-112.5 498.5,-142.5 614.5,-142.5 614.5,-112.5 498.5,-112.5"/>
<text text-anchor="start" x="506.5" y="-130.5" font-family="Helvetica,sans-Serif" font-size="10.00" fill="#000000">src/pybind/adders/py</text>
<text text-anchor="middle" x="556.5" y="-119.5" font-family="Helvetica,sans-Serif" font-size="10.00" fill="#000000">_add_child_positions.h</text>
</a>
</g>
</g>
<!-- Node27&#45;&gt;Node29 -->
<g id="edge8" class="edge">
<title>Node27&#45;&gt;Node29</title>
<path fill="none" stroke="#191970" d="M556.5,-169.0249C556.5,-160.128 556.5,-150.4287 556.5,-142.6432"/>
<polygon fill="#191970" stroke="#191970" points="553.0001,-169.2966 556.5,-179.2967 560.0001,-169.2967 553.0001,-169.2966"/>
</g>
<!-- Node29&#45;&gt;Node25 -->
<g id="edge9" class="edge">
<title>Node29&#45;&gt;Node25</title>
<path fill="none" stroke="#191970" d="M624.6595,-111.9576C809.0447,-83.1472 1018.3553,-71.317 1100.2205,-67.4936"/>
<polygon fill="#191970" stroke="#191970" points="623.8379,-108.5441 614.5084,-113.5652 624.9328,-115.4579 623.8379,-108.5441"/>
</g>
<!-- Node31 -->
<g id="node11" class="node">
<title>Node31</title>
<g id="a_node11"><a xlink:href="add__com__position_8cpp.html" target="_top" xlink:title="This file has an implementation of AddCoMPosition class, which is a subclass of Adder class...">
<polygon fill="#ffffff" stroke="#000000" points="375,-112.5 375,-142.5 480,-142.5 480,-112.5 375,-112.5"/>
<text text-anchor="start" x="383" y="-130.5" font-family="Helvetica,sans-Serif" font-size="10.00" fill="#000000">src/adders/add_com</text>
<text text-anchor="middle" x="427.5" y="-119.5" font-family="Helvetica,sans-Serif" font-size="10.00" fill="#000000">_position.cpp</text>
</a>
</g>
</g>
<!-- Node30&#45;&gt;Node31 -->
<g id="edge11" class="edge">
<title>Node30&#45;&gt;Node31</title>
<path fill="none" stroke="#191970" d="M763.883,-186.7102C695.9848,-177.8496 584.5697,-162.1046 489.5,-143 486.4542,-142.3879 483.333,-141.7244 480.1893,-141.0278"/>
<polygon fill="#191970" stroke="#191970" points="763.6205,-190.2053 773.9875,-188.0198 764.5203,-183.2634 763.6205,-190.2053"/>
</g>
<!-- Node32 -->
<g id="node12" class="node">
<title>Node32</title>
<g id="a_node12"><a xlink:href="py__add__com__position_8h.html" target="_top" xlink:title="This file is for binding AddCoMPosition class to Python. ">
<polygon fill="#ffffff" stroke="#000000" points="772,-112.5 772,-142.5 881,-142.5 881,-112.5 772,-112.5"/>
<text text-anchor="start" x="780" y="-130.5" font-family="Helvetica,sans-Serif" font-size="10.00" fill="#000000">src/pybind/adders/py</text>
<text text-anchor="middle" x="826.5" y="-119.5" font-family="Helvetica,sans-Serif" font-size="10.00" fill="#000000">_add_com_position.h</text>
</a>
</g>
</g>
<!-- Node30&#45;&gt;Node32 -->
<g id="edge12" class="edge">
<title>Node30&#45;&gt;Node32</title>
<path fill="none" stroke="#191970" d="M826.5,-169.0249C826.5,-160.128 826.5,-150.4287 826.5,-142.6432"/>
<polygon fill="#191970" stroke="#191970" points="823.0001,-169.2966 826.5,-179.2967 830.0001,-169.2967 823.0001,-169.2966"/>
</g>
<!-- Node32&#45;&gt;Node25 -->
<g id="edge13" class="edge">
<title>Node32&#45;&gt;Node25</title>
<path fill="none" stroke="#191970" d="M891.3458,-111.6617C971.4116,-94.5576 1054.4491,-79.8152 1100.341,-71.932"/>
<polygon fill="#191970" stroke="#191970" points="890.1316,-108.3429 881.0921,-113.869 891.6047,-115.1861 890.1316,-108.3429"/>
</g>
<!-- Node34 -->
<g id="node14" class="node">
<title>Node34</title>
<g id="a_node14"><a xlink:href="add__gyration__radius_8cpp.html" target="_top" xlink:title="This file has an implementation of AddGyrationRadius class, which is a subclass of Adder class...">
<polygon fill="#ffffff" stroke="#000000" points="633,-112.5 633,-142.5 754,-142.5 754,-112.5 633,-112.5"/>
<text text-anchor="start" x="641" y="-130.5" font-family="Helvetica,sans-Serif" font-size="10.00" fill="#000000">src/adders/add_gyration</text>
<text text-anchor="middle" x="693.5" y="-119.5" font-family="Helvetica,sans-Serif" font-size="10.00" fill="#000000">_radius.cpp</text>
</a>
</g>
</g>
<!-- Node33&#45;&gt;Node34 -->
<g id="edge15" class="edge">
<title>Node33&#45;&gt;Node34</title>
<path fill="none" stroke="#191970" d="M888.3674,-176.955C846.3213,-166.2842 793.172,-152.7955 753.0052,-142.6017"/>
<polygon fill="#191970" stroke="#191970" points="887.6995,-180.3964 898.2532,-179.4639 889.4215,-173.6115 887.6995,-180.3964"/>
</g>
<!-- Node35 -->
<g id="node15" class="node">
<title>Node35</title>
<g id="a_node15"><a xlink:href="py__add__gyration__radius_8h.html" target="_top" xlink:title="This file is for binding AddGyrationRadius class to Python. ">
<polygon fill="#ffffff" stroke="#000000" points="899,-112.5 899,-142.5 1016,-142.5 1016,-112.5 899,-112.5"/>
<text text-anchor="start" x="907" y="-130.5" font-family="Helvetica,sans-Serif" font-size="10.00" fill="#000000">src/pybind/adders/py</text>
<text text-anchor="middle" x="957.5" y="-119.5" font-family="Helvetica,sans-Serif" font-size="10.00" fill="#000000">_add_gyration_radius.h</text>
</a>
</g>
</g>
<!-- Node33&#45;&gt;Node35 -->
<g id="edge16" class="edge">
<title>Node33&#45;&gt;Node35</title>
<path fill="none" stroke="#191970" d="M957.5,-169.0249C957.5,-160.128 957.5,-150.4287 957.5,-142.6432"/>
<polygon fill="#191970" stroke="#191970" points="954.0001,-169.2966 957.5,-179.2967 961.0001,-169.2967 954.0001,-169.2966"/>
</g>
<!-- Node35&#45;&gt;Node25 -->
<g id="edge17" class="edge">
<title>Node35&#45;&gt;Node25</title>
<path fill="none" stroke="#191970" d="M1010.7063,-109.1169C1042.681,-98.0695 1082.0519,-84.4666 1107.9163,-75.5303"/>
<polygon fill="#191970" stroke="#191970" points="1009.3525,-105.8816 1001.0437,-112.4554 1011.6385,-112.4978 1009.3525,-105.8816"/>
</g>
<!-- Node37 -->
<g id="node17" class="node">
<title>Node37</title>
<g id="a_node17"><a xlink:href="add__inertia__moment_8cpp.html" target="_top" xlink:title="This file has an implementation of the AddInertiaMoment class, which is a subclass of the Adder class...">
<polygon fill="#ffffff" stroke="#000000" points="2165,-112.5 2165,-142.5 2278,-142.5 2278,-112.5 2165,-112.5"/>
<text text-anchor="start" x="2173" y="-130.5" font-family="Helvetica,sans-Serif" font-size="10.00" fill="#000000">src/adders/add_inertia</text>
<text text-anchor="middle" x="2221.5" y="-119.5" font-family="Helvetica,sans-Serif" font-size="10.00" fill="#000000">_moment.cpp</text>
</a>
</g>
</g>
<!-- Node36&#45;&gt;Node37 -->
<g id="edge19" class="edge">
<title>Node36&#45;&gt;Node37</title>
<path fill="none" stroke="#191970" d="M1745.1987,-189.9968C1837.9246,-183.1277 2010.8209,-168.113 2156.5,-143 2159.2438,-142.527 2162.0444,-142.0065 2164.8671,-141.4515"/>
<polygon fill="#191970" stroke="#191970" points="1744.8319,-186.5142 1735.1142,-190.7351 1745.3431,-193.4955 1744.8319,-186.5142"/>
</g>
<!-- Node38 -->
<g id="node18" class="node">
<title>Node38</title>
<g id="a_node18"><a xlink:href="py__add__inertia__moment_8h.html" target="_top" xlink:title="This file is for binding AddInertiaMoment class to Python. ">
<polygon fill="#ffffff" stroke="#000000" points="1613.5,-112.5 1613.5,-142.5 1731.5,-142.5 1731.5,-112.5 1613.5,-112.5"/>
<text text-anchor="start" x="1621.5" y="-130.5" font-family="Helvetica,sans-Serif" font-size="10.00" fill="#000000">src/pybind/adders/py</text>
<text text-anchor="middle" x="1672.5" y="-119.5" font-family="Helvetica,sans-Serif" font-size="10.00" fill="#000000">_add_inertia_moment.h</text>
</a>
</g>
</g>
<!-- Node36&#45;&gt;Node38 -->
<g id="edge20" class="edge">
<title>Node36&#45;&gt;Node38</title>
<path fill="none" stroke="#191970" d="M1676.2449,-169.3179C1675.441,-160.3414 1674.561,-150.5143 1673.8561,-142.6432"/>
<polygon fill="#191970" stroke="#191970" points="1672.7604,-169.6487 1677.1385,-179.2967 1679.7325,-169.0243 1672.7604,-169.6487"/>
</g>
<!-- Node38&#45;&gt;Node25 -->
<g id="edge21" class="edge">
<title>Node38&#45;&gt;Node25</title>
<path fill="none" stroke="#191970" d="M1603.2801,-111.9266C1436.0366,-85.3602 1247.5176,-72.462 1170.7023,-67.9282"/>
<polygon fill="#191970" stroke="#191970" points="1602.8193,-115.3974 1613.2484,-113.5305 1603.9314,-108.4863 1602.8193,-115.3974"/>
</g>
<!-- Node40 -->
<g id="node20" class="node">
<title>Node40</title>
<g id="a_node20"><a xlink:href="add__map_8cpp.html" target="_top" xlink:title="This file has an implementation of AddMap class, which is a subclass of Adder class. ">
<polygon fill="#ffffff" stroke="#000000" points="2457.5,-118 2457.5,-137 2581.5,-137 2581.5,-118 2457.5,-118"/>
<text text-anchor="middle" x="2519.5" y="-125" font-family="Helvetica,sans-Serif" font-size="10.00" fill="#000000">src/adders/add_map.cpp</text>
</a>
</g>
</g>
<!-- Node39&#45;&gt;Node40 -->
<g id="edge23" class="edge">
<title>Node39&#45;&gt;Node40</title>
<path fill="none" stroke="#191970" d="M2025.3613,-189.8207C2119.978,-182.6666 2298.1714,-167.2334 2448.5,-143 2458.5893,-141.3736 2469.402,-139.2246 2479.4702,-137.0466"/>
<polygon fill="#191970" stroke="#191970" points="2025.0675,-186.3328 2015.3568,-190.5698 2025.5903,-193.3132 2025.0675,-186.3328"/>
</g>
<!-- Node41 -->
<g id="node21" class="node">
<title>Node41</title>
<g id="a_node21"><a xlink:href="py__add__map_8h.html" target="_top" xlink:title="This file is for binding AddMap class to Python. ">
<polygon fill="#ffffff" stroke="#000000" points="1905,-112.5 1905,-142.5 2012,-142.5 2012,-112.5 1905,-112.5"/>
<text text-anchor="start" x="1913" y="-130.5" font-family="Helvetica,sans-Serif" font-size="10.00" fill="#000000">src/pybind/adders/py</text>
<text text-anchor="middle" x="1958.5" y="-119.5" font-family="Helvetica,sans-Serif" font-size="10.00" fill="#000000">_add_map.h</text>
</a>
</g>
</g>
<!-- Node39&#45;&gt;Node41 -->
<g id="edge24" class="edge">
<title>Node39&#45;&gt;Node41</title>
<path fill="none" stroke="#191970" d="M1958.5,-174.7758C1958.5,-164.4641 1958.5,-152.0437 1958.5,-142.5218"/>
<polygon fill="#191970" stroke="#191970" points="1955.0001,-174.9005 1958.5,-184.9005 1962.0001,-174.9006 1955.0001,-174.9005"/>
</g>
<!-- Node41&#45;&gt;Node25 -->
<g id="edge25" class="edge">
<title>Node41&#45;&gt;Node25</title>
<path fill="none" stroke="#191970" d="M1894.6928,-111.9421C1734.2499,-89.2426 1297.4612,-71.9437 1170.5037,-67.2563"/>
<polygon fill="#191970" stroke="#191970" points="1894.4505,-115.4443 1904.855,-113.445 1895.4747,-108.5196 1894.4505,-115.4443"/>
</g>
<!-- Node43 -->
<g id="node23" class="node">
<title>Node43</title>
<g id="a_node23"><a xlink:href="add__molecular__orientation_8cpp.html" target="_top" xlink:title="This file has an implementation of AddMolecularOrientation class, which is a subclass of Adder class...">
<polygon fill="#ffffff" stroke="#000000" points="2599.5,-112.5 2599.5,-142.5 2727.5,-142.5 2727.5,-112.5 2599.5,-112.5"/>
<text text-anchor="start" x="2607.5" y="-130.5" font-family="Helvetica,sans-Serif" font-size="10.00" fill="#000000">src/adders/add_molecular</text>
<text text-anchor="middle" x="2663.5" y="-119.5" font-family="Helvetica,sans-Serif" font-size="10.00" fill="#000000">_orientation.cpp</text>
</a>
</g>
</g>
<!-- Node42&#45;&gt;Node43 -->
<g id="edge27" class="edge">
<title>Node42&#45;&gt;Node43</title>
<path fill="none" stroke="#191970" d="M2306.6147,-178.9014C2433.1346,-158.0376 2467.8086,-163.7371 2590.5,-143 2593.4382,-142.5034 2596.4378,-141.9709 2599.4638,-141.413"/>
<polygon fill="#191970" stroke="#191970" points="2305.8218,-175.4853 2296.5362,-180.587 2306.9766,-182.3894 2305.8218,-175.4853"/>
</g>
<!-- Node44 -->
<g id="node24" class="node">
<title>Node44</title>
<g id="a_node24"><a xlink:href="py__add__molecular__orientation_8h.html" target="_top" xlink:title="This file is for binding AddMolecularOrientation class to Python. ">
<polygon fill="#ffffff" stroke="#000000" points="2296,-112.5 2296,-142.5 2439,-142.5 2439,-112.5 2296,-112.5"/>
<text text-anchor="start" x="2304" y="-130.5" font-family="Helvetica,sans-Serif" font-size="10.00" fill="#000000">src/pybind/adders/py</text>
<text text-anchor="middle" x="2367.5" y="-119.5" font-family="Helvetica,sans-Serif" font-size="10.00" fill="#000000">_add_molecular_orientation.h</text>
</a>
</g>
</g>
<!-- Node42&#45;&gt;Node44 -->
<g id="edge28" class="edge">
<title>Node42&#45;&gt;Node44</title>
<path fill="none" stroke="#191970" d="M2271.966,-174.9132C2292.6555,-164.645 2317.6182,-152.2561 2336.8374,-142.7177"/>
<polygon fill="#191970" stroke="#191970" points="2270.1982,-171.8831 2262.7966,-179.4639 2273.3101,-178.1534 2270.1982,-171.8831"/>
</g>
<!-- Node44&#45;&gt;Node25 -->
<g id="edge29" class="edge">
<title>Node44&#45;&gt;Node25</title>
<path fill="none" stroke="#191970" d="M2285.4503,-111.8961C2042.674,-85.484 1336.248,-70.02 1170.5533,-66.6831"/>
<polygon fill="#191970" stroke="#191970" points="2285.293,-115.4004 2295.6218,-113.0409 2286.076,-108.4443 2285.293,-115.4004"/>
</g>
<!-- Node46 -->
<g id="node26" class="node">
<title>Node46</title>
<g id="a_node26"><a xlink:href="add__rename_8cpp.html" target="_top" xlink:title="This file has an implementation of AddRename class, which is a subclass of Adder class. ">
<polygon fill="#ffffff" stroke="#000000" points="1750,-118 1750,-137 1887,-137 1887,-118 1750,-118"/>
<text text-anchor="middle" x="1818.5" y="-125" font-family="Helvetica,sans-Serif" font-size="10.00" fill="#000000">src/adders/add_rename.cpp</text>
</a>
</g>
</g>
<!-- Node45&#45;&gt;Node46 -->
<g id="edge31" class="edge">
<title>Node45&#45;&gt;Node46</title>
<path fill="none" stroke="#191970" d="M1457.8836,-182.899C1464.802,-181.5074 1471.8114,-180.168 1478.5,-179 1594.2863,-158.7804 1624.5841,-162.4632 1740.5,-143 1750.9842,-141.2396 1762.2181,-139.1359 1772.8022,-137.0547"/>
<polygon fill="#191970" stroke="#191970" points="1456.9496,-179.5178 1447.8602,-184.9614 1458.3604,-186.3741 1456.9496,-179.5178"/>
</g>
<!-- Node47 -->
<g id="node27" class="node">
<title>Node47</title>
<g id="a_node27"><a xlink:href="py__add__rename_8h.html" target="_top" xlink:title="This file is for binding AddRename class to Python. ">
<polygon fill="#ffffff" stroke="#000000" points="1217,-112.5 1217,-142.5 1324,-142.5 1324,-112.5 1217,-112.5"/>
<text text-anchor="start" x="1225" y="-130.5" font-family="Helvetica,sans-Serif" font-size="10.00" fill="#000000">src/pybind/adders/py</text>
<text text-anchor="middle" x="1270.5" y="-119.5" font-family="Helvetica,sans-Serif" font-size="10.00" fill="#000000">_add_rename.h</text>
</a>
</g>
</g>
<!-- Node45&#45;&gt;Node47 -->
<g id="edge32" class="edge">
<title>Node45&#45;&gt;Node47</title>
<path fill="none" stroke="#191970" d="M1377.1549,-180.4324C1354.7786,-169.3271 1323.6276,-153.867 1300.7677,-142.5218"/>
<polygon fill="#191970" stroke="#191970" points="1375.6443,-183.59 1386.1578,-184.9005 1378.7562,-177.3198 1375.6443,-183.59"/>
</g>
<!-- Node47&#45;&gt;Node25 -->
<g id="edge33" class="edge">
<title>Node47&#45;&gt;Node25</title>
<path fill="none" stroke="#191970" d="M1228.2544,-108.2548C1204.3588,-97.369 1175.5292,-84.2355 1156.4202,-75.5303"/>
<polygon fill="#191970" stroke="#191970" points="1226.9241,-111.4948 1237.4753,-112.4554 1229.8261,-105.1246 1226.9241,-111.4948"/>
</g>
<!-- Node49 -->
<g id="node29" class="node">
<title>Node49</title>
<g id="a_node29"><a xlink:href="add__special__bonds_8cpp.html" target="_top" xlink:title="This file has an implementation of AddSpecialBonds class, which is a subclass of Adder class...">
<polygon fill="#ffffff" stroke="#000000" points="2030,-112.5 2030,-142.5 2147,-142.5 2147,-112.5 2030,-112.5"/>
<text text-anchor="start" x="2038" y="-130.5" font-family="Helvetica,sans-Serif" font-size="10.00" fill="#000000">src/adders/add_special</text>
<text text-anchor="middle" x="2088.5" y="-119.5" font-family="Helvetica,sans-Serif" font-size="10.00" fill="#000000">_bonds.cpp</text>
</a>
</g>
</g>
<!-- Node48&#45;&gt;Node49 -->
<g id="edge35" class="edge">
<title>Node48&#45;&gt;Node49</title>
<path fill="none" stroke="#191970" d="M1614.1319,-179.0593C1795.1171,-151.4446 1844.9683,-171.0677 2021.5,-143 2024.2119,-142.5688 2026.9774,-142.09 2029.7649,-141.5756"/>
<polygon fill="#191970" stroke="#191970" points="1613.3515,-175.6384 1604.0073,-180.6321 1614.4261,-182.5555 1613.3515,-175.6384"/>
</g>
<!-- Node50 -->
<g id="node30" class="node">
<title>Node50</title>
<g id="a_node30"><a xlink:href="py__add__special__bonds_8h.html" target="_top" xlink:title="This file is for binding AddSpecialBonds class to Python. ">
<polygon fill="#ffffff" stroke="#000000" points="1342,-112.5 1342,-142.5 1455,-142.5 1455,-112.5 1342,-112.5"/>
<text text-anchor="start" x="1350" y="-130.5" font-family="Helvetica,sans-Serif" font-size="10.00" fill="#000000">src/pybind/adders/py</text>
<text text-anchor="middle" x="1398.5" y="-119.5" font-family="Helvetica,sans-Serif" font-size="10.00" fill="#000000">_add_special_bonds.h</text>
</a>
</g>
</g>
<!-- Node48&#45;&gt;Node50 -->
<g id="edge36" class="edge">
<title>Node48&#45;&gt;Node50</title>
<path fill="none" stroke="#191970" d="M1503.4036,-175.3132C1480.6153,-164.9267 1452.8667,-152.2794 1431.6336,-142.6017"/>
<polygon fill="#191970" stroke="#191970" points="1501.9593,-178.5013 1512.5103,-179.4639 1504.8625,-172.1317 1501.9593,-178.5013"/>
</g>
<!-- Node50&#45;&gt;Node25 -->
<g id="edge37" class="edge">
<title>Node50&#45;&gt;Node25</title>
<path fill="none" stroke="#191970" d="M1331.8308,-111.6132C1269.8092,-97.0335 1208.1417,-82.7563 1170.5655,-74.0817"/>
<polygon fill="#191970" stroke="#191970" points="1331.2485,-115.0717 1341.7843,-113.955 1332.8517,-108.2578 1331.2485,-115.0717"/>
</g>
<!-- Node52 -->
<g id="node32" class="node">
<title>Node52</title>
<g id="a_node32"><a xlink:href="add__wrapped__position_8cpp.html" target="_top" xlink:title="This file has an implementation of AddWrappedPosition class, which is a subclass of Adder class...">
<polygon fill="#ffffff" stroke="#000000" points="1473.5,-112.5 1473.5,-142.5 1595.5,-142.5 1595.5,-112.5 1473.5,-112.5"/>
<text text-anchor="start" x="1481.5" y="-130.5" font-family="Helvetica,sans-Serif" font-size="10.00" fill="#000000">src/adders/add_wrapped</text>
<text text-anchor="middle" x="1534.5" y="-119.5" font-family="Helvetica,sans-Serif" font-size="10.00" fill="#000000">_position.cpp</text>
</a>
</g>
</g>
<!-- Node51&#45;&gt;Node52 -->
<g id="edge39" class="edge">
<title>Node51&#45;&gt;Node52</title>
<path fill="none" stroke="#191970" d="M1333.4535,-177.0225C1376.8166,-166.3411 1431.7203,-152.8171 1473.1917,-142.6017"/>
<polygon fill="#191970" stroke="#191970" points="1332.4147,-173.6737 1323.5421,-179.4639 1334.089,-180.4705 1332.4147,-173.6737"/>
</g>
<!-- Node53 -->
<g id="node33" class="node">
<title>Node53</title>
<g id="a_node33"><a xlink:href="py__add__wrapped__position_8h.html" target="_top" xlink:title="This file is for binding AddWrappedPosition class to Python. ">
<polygon fill="#ffffff" stroke="#000000" points="1072.5,-112.5 1072.5,-142.5 1198.5,-142.5 1198.5,-112.5 1072.5,-112.5"/>
<text text-anchor="start" x="1080.5" y="-130.5" font-family="Helvetica,sans-Serif" font-size="10.00" fill="#000000">src/pybind/adders/py</text>
<text text-anchor="middle" x="1135.5" y="-119.5" font-family="Helvetica,sans-Serif" font-size="10.00" fill="#000000">_add_wrapped_position.h</text>
</a>
</g>
</g>
<!-- Node51&#45;&gt;Node53 -->
<g id="edge40" class="edge">
<title>Node51&#45;&gt;Node53</title>
<path fill="none" stroke="#191970" d="M1225.1095,-174.7743C1205.6978,-164.5335 1182.3444,-152.2132 1164.3456,-142.7177"/>
<polygon fill="#191970" stroke="#191970" points="1223.5209,-177.8934 1233.9987,-179.4639 1226.7872,-171.7021 1223.5209,-177.8934"/>
</g>
<!-- Node53&#45;&gt;Node25 -->
<g id="edge41" class="edge">
<title>Node53&#45;&gt;Node25</title>
<path fill="none" stroke="#191970" d="M1135.5,-102.2849C1135.5,-92.9858 1135.5,-82.9883 1135.5,-75.8469"/>
<polygon fill="#191970" stroke="#191970" points="1132.0001,-102.2977 1135.5,-112.2977 1139.0001,-102.2978 1132.0001,-102.2977"/>
</g>
<!-- Node55&#45;&gt;Node24 -->
<g id="edge47" class="edge">
<title>Node55&#45;&gt;Node24</title>
<path fill="none" stroke="#191970" d="M1065.6847,-183.8449C1052.7457,-181.9812 1039.2099,-180.244 1026.5,-179 678.4636,-144.9349 586.5108,-193.6584 240.5,-143 237.7555,-142.5982 234.9557,-142.127 232.1377,-141.6039"/>
<polygon fill="#191970" stroke="#191970" points="1065.5012,-187.3558 1075.9062,-185.3596 1066.5273,-180.4314 1065.5012,-187.3558"/>
</g>
<!-- Node55&#45;&gt;Node25 -->
<g id="edge44" class="edge">
<title>Node55&#45;&gt;Node25</title>
<path fill="none" stroke="#191970" d="M1091.1477,-173.6919C1080.1683,-165.6618 1069.5455,-155.3855 1063.5,-143 1057.4564,-130.6185 1056.8809,-124.0836 1063.5,-112 1073.0492,-94.5674 1092.3286,-82.7812 1108.5356,-75.5066"/>
<polygon fill="#191970" stroke="#191970" points="1089.3042,-176.6707 1099.5434,-179.3925 1093.2364,-170.8795 1089.3042,-176.6707"/>
</g>
<!-- Node55&#45;&gt;Node29 -->
<g id="edge48" class="edge">
<title>Node55&#45;&gt;Node29</title>
<path fill="none" stroke="#191970" d="M1065.6376,-184.2775C1052.7024,-182.3795 1039.18,-180.519 1026.5,-179 847.9523,-157.6105 801.0782,-171.333 623.5,-143 620.5525,-142.5297 617.5417,-142.0035 614.5081,-141.4367"/>
<polygon fill="#191970" stroke="#191970" points="1065.4512,-187.7883 1075.8581,-185.8019 1066.4838,-180.8649 1065.4512,-187.7883"/>
</g>
<!-- Node55&#45;&gt;Node32 -->
<g id="edge49" class="edge">
<title>Node55&#45;&gt;Node32</title>
<path fill="none" stroke="#191970" d="M1065.5203,-181.3132C1017.1044,-171.2028 949.0131,-156.7031 889.5,-143 886.7559,-142.3682 883.9469,-141.7119 881.1119,-141.042"/>
<polygon fill="#191970" stroke="#191970" points="1065.0392,-184.788 1075.543,-183.4021 1066.4675,-177.9353 1065.0392,-184.788"/>
</g>
<!-- Node55&#45;&gt;Node35 -->
<g id="edge50" class="edge">
<title>Node55&#45;&gt;Node35</title>
<path fill="none" stroke="#191970" d="M1081.3078,-175.7275C1054.4477,-165.2645 1021.4441,-152.4084 996.2685,-142.6017"/>
<polygon fill="#191970" stroke="#191970" points="1080.3114,-179.0954 1090.8998,-179.4639 1082.8522,-172.5728 1080.3114,-179.0954"/>
</g>
<!-- Node55&#45;&gt;Node38 -->
<g id="edge51" class="edge">
<title>Node55&#45;&gt;Node38</title>
<path fill="none" stroke="#191970" d="M1193.259,-179.0512C1375.6028,-149.7308 1426.1048,-170.9909 1604.5,-143 1607.3709,-142.5495 1610.3011,-142.0473 1613.2544,-141.507"/>
<polygon fill="#191970" stroke="#191970" points="1192.6464,-175.6048 1183.3431,-180.6742 1193.7771,-182.5129 1192.6464,-175.6048"/>
</g>
<!-- Node55&#45;&gt;Node41 -->
<g id="edge45" class="edge">
<title>Node55&#45;&gt;Node41</title>
<path fill="none" stroke="#191970" d="M1193.5266,-179.0593C1504.2914,-134.5573 1589.9576,-188.7135 1896.5,-143 1899.2435,-142.5909 1902.0424,-142.1138 1904.8597,-141.5861"/>
<polygon fill="#191970" stroke="#191970" points="1192.7145,-175.6405 1183.3227,-180.5442 1193.7226,-182.5676 1192.7145,-175.6405"/>
</g>
<!-- Node55&#45;&gt;Node44 -->
<g id="edge52" class="edge">
<title>Node55&#45;&gt;Node44</title>
<path fill="none" stroke="#191970" d="M1193.3433,-179.105C1676.6407,-113.6294 1806.9356,-197.1087 2287.5,-143 2290.1711,-142.6993 2292.8864,-142.3578 2295.6245,-141.9832"/>
<polygon fill="#191970" stroke="#191970" points="1192.7461,-175.6541 1183.3134,-180.4783 1193.6957,-182.5894 1192.7461,-175.6541"/>
</g>
<!-- Node55&#45;&gt;Node47 -->
<g id="edge46" class="edge">
<title>Node55&#45;&gt;Node47</title>
<path fill="none" stroke="#191970" d="M1170.4283,-175.0518C1192.0941,-164.7567 1218.3108,-152.2991 1238.4746,-142.7177"/>
<polygon fill="#191970" stroke="#191970" points="1168.6731,-172.0107 1161.1432,-179.4639 1171.6775,-178.3332 1168.6731,-172.0107"/>
</g>
<!-- Node55&#45;&gt;Node50 -->
<g id="edge53" class="edge">
<title>Node55&#45;&gt;Node50</title>
<path fill="none" stroke="#191970" d="M1193.2407,-178.6241C1238.2776,-167.4067 1298.113,-152.5034 1341.5535,-141.6837"/>
<polygon fill="#191970" stroke="#191970" points="1192.1473,-175.2894 1183.2896,-181.1026 1193.8391,-182.0819 1192.1473,-175.2894"/>
</g>
<!-- Node55&#45;&gt;Node53 -->
<g id="edge54" class="edge">
<title>Node55&#45;&gt;Node53</title>
<path fill="none" stroke="#191970" d="M1131.7551,-169.3179C1132.559,-160.3414 1133.439,-150.5143 1134.1439,-142.6432"/>
<polygon fill="#191970" stroke="#191970" points="1128.2675,-169.0243 1130.8615,-179.2967 1135.2396,-169.6487 1128.2675,-169.0243"/>
</g>
</g>
</svg>
        <g id="navigator" transform="translate(0 0)" fill="#404254">
                <rect fill="#f2f5e9" fill-opacity="0.5" stroke="#606060" stroke-width=".5" x="0" y="0" width="60" height="60"/>
                <use id="zoomplus" xlink:href="#zoomPlus" x="17" y="9" onmousedown="handleZoom(evt,'in')"/>
                <use id="zoomminus" xlink:href="#zoomMin" x="42" y="9" onmousedown="handleZoom(evt,'out')"/>
                <use id="reset" xlink:href="#resetDef" x="30" y="36" onmousedown="handleReset()"/>
                <g id="arrowUp" xlink:href="#dirArrow" transform="translate(30 24)" onmousedown="handlePan(0,-1)">
                  <use xlink:href="#rim" fill="#404040">
                        <set attributeName="fill" to="#808080" begin="arrowUp.mouseover" end="arrowUp.mouseout"/>
                  </use>
                  <path fill="none" stroke="white" stroke-width="1.5" d="M0,-3.0v7 M-2.5,-0.5L0,-3.0L2.5,-0.5"/>
                </g>
                <g id="arrowRight" xlink:href="#dirArrow" transform="rotate(90) translate(36 -43)" onmousedown="handlePan(1,0)">
                  <use xlink:href="#rim" fill="#404040">
                        <set attributeName="fill" to="#808080" begin="arrowRight.mouseover" end="arrowRight.mouseout"/>
                  </use>
                  <path fill="none" stroke="white" stroke-width="1.5" d="M0,-3.0v7 M-2.5,-0.5L0,-3.0L2.5,-0.5"/>
                </g>
                <g id="arrowDown" xlink:href="#dirArrow" transform="rotate(180) translate(-30 -48)" onmousedown="handlePan(0,1)">
                  <use xlink:href="#rim" fill="#404040">
                        <set attributeName="fill" to="#808080" begin="arrowDown.mouseover" end="arrowDown.mouseout"/>
                  </use>
                  <path fill="none" stroke="white" stroke-width="1.5" d="M0,-3.0v7 M-2.5,-0.5L0,-3.0L2.5,-0.5"/>
                </g>
                <g id="arrowLeft" xlink:href="#dirArrow" transform="rotate(270) translate(-36 17)" onmousedown="handlePan(-1,0)">
                  <use xlink:href="#rim" fill="#404040">
                        <set attributeName="fill" to="#808080" begin="arrowLeft.mouseover" end="arrowLeft.mouseout"/>
                  </use>
                  <path fill="none" stroke="white" stroke-width="1.5" d="M0,-3.0v7 M-2.5,-0.5L0,-3.0L2.5,-0.5"/>
                </g>
        </g>
        <svg viewBox="0 0 15 15" width="100%" height="30px" preserveAspectRatio="xMaxYMin meet">
         <g id="arrow_out" transform="scale(0.3 0.3)">
          <a xlink:href="adder_8h__dep__incl_org.svg" target="_base">
           <rect id="button" ry="5" rx="5" y="6" x="6" height="38" width="38"
                fill="#f2f5e9" fill-opacity="0.5" stroke="#606060" stroke-width="1.0"/>
           <path id="arrow"
             d="M 11.500037,31.436501 C 11.940474,20.09759 22.043105,11.32322 32.158766,21.979434 L 37.068811,17.246167 C 37.068811,17.246167 37.088388,32 37.088388,32 L 22.160133,31.978069 C 22.160133,31.978069 26.997745,27.140456 26.997745,27.140456 C 18.528582,18.264221 13.291696,25.230495 11.500037,31.436501 z"
             style="fill:#404040;"/>
          </a>
         </g>
        </svg>
</svg>
