<?xml version="1.0" encoding="UTF-8" standalone="no"?>
<!DOCTYPE svg PUBLIC "-//W3C//DTD SVG 1.1//EN"
 "http://www.w3.org/Graphics/SVG/1.1/DTD/svg11.dtd">
<!-- Generated by graphviz version 2.40.1 (20161225.0304)
 -->
<!-- Title: src/adders/add_rename.h Pages: 1 -->
<svg width="274pt" height="207pt"
 viewBox="0.00 0.00 273.50 207.00" xmlns="http://www.w3.org/2000/svg" xmlns:xlink="http://www.w3.org/1999/xlink">
<g id="graph0" class="graph" transform="scale(1 1) rotate(0) translate(4 203)">
<title>src/adders/add_rename.h</title>
<polygon fill="#ffffff" stroke="transparent" points="-4,4 -4,-203 269.5,-203 269.5,4 -4,4"/>
<!-- Node22 -->
<g id="node1" class="node">
<title>Node22</title>
<polygon fill="#bfbfbf" stroke="#000000" points="76,-179.5 76,-198.5 203,-198.5 203,-179.5 76,-179.5"/>
<text text-anchor="middle" x="139.5" y="-186.5" font-family="Helvetica,sans-Serif" font-size="10.00" fill="#000000">src/adders/add_rename.h</text>
</g>
<!-- Node23 -->
<g id="node2" class="node">
<title>Node23</title>
<g id="a_node2"><a xlink:href="add__rename_8cpp.html" target="_top" xlink:title="This file has implementations of the AddRename class, which is a subclass of the Adder class...">
<polygon fill="#ffffff" stroke="#000000" points="0,-118 0,-137 137,-137 137,-118 0,-118"/>
<text text-anchor="middle" x="68.5" y="-125" font-family="Helvetica,sans-Serif" font-size="10.00" fill="#000000">src/adders/add_rename.cpp</text>
</a>
</g>
</g>
<!-- Node22&#45;&gt;Node23 -->
<g id="edge1" class="edge">
<title>Node22&#45;&gt;Node23</title>
<path fill="none" stroke="#191970" d="M120.5068,-172.5482C107.4978,-161.2798 90.6843,-146.716 79.7502,-137.2449"/>
<polygon fill="#191970" stroke="#191970" points="118.556,-175.4888 128.4063,-179.3906 123.1391,-170.1978 118.556,-175.4888"/>
</g>
<!-- Node24 -->
<g id="node3" class="node">
<title>Node24</title>
<g id="a_node3"><a xlink:href="pybind_2adders__py_2add__rename_8h.html" target="_top" xlink:title="This file has a function to bind AddRename class to Python. ">
<polygon fill="#ffffff" stroke="#000000" points="155.5,-112.5 155.5,-142.5 265.5,-142.5 265.5,-112.5 155.5,-112.5"/>
<text text-anchor="start" x="163.5" y="-130.5" font-family="Helvetica,sans-Serif" font-size="10.00" fill="#000000">src/pybind/adders_py</text>
<text text-anchor="middle" x="210.5" y="-119.5" font-family="Helvetica,sans-Serif" font-size="10.00" fill="#000000">/add_rename.h</text>
</a>
</g>
</g>
<!-- Node22&#45;&gt;Node24 -->
<g id="edge2" class="edge">
<title>Node22&#45;&gt;Node24</title>
<path fill="none" stroke="#191970" d="M158.2444,-172.7637C169.0568,-163.398 182.5602,-151.7014 193.1314,-142.5446"/>
<polygon fill="#191970" stroke="#191970" points="155.8609,-170.1978 150.5938,-179.3906 160.444,-175.4888 155.8609,-170.1978"/>
</g>
<!-- Node25 -->
<g id="node4" class="node">
<title>Node25</title>
<g id="a_node4"><a xlink:href="pybind_8h.html" target="_top" xlink:title="This file includes all the header files containing definitions of functions to bind C++ and Python...">
<polygon fill="#ffffff" stroke="#000000" points="175.5,-56.5 175.5,-75.5 245.5,-75.5 245.5,-56.5 175.5,-56.5"/>
<text text-anchor="middle" x="210.5" y="-63.5" font-family="Helvetica,sans-Serif" font-size="10.00" fill="#000000">src/pybind.h</text>
</a>
</g>
</g>
<!-- Node24&#45;&gt;Node25 -->
<g id="edge3" class="edge">
<title>Node24&#45;&gt;Node25</title>
<path fill="none" stroke="#191970" d="M210.5,-102.2849C210.5,-92.9858 210.5,-82.9883 210.5,-75.8469"/>
<polygon fill="#191970" stroke="#191970" points="207.0001,-102.2977 210.5,-112.2977 214.0001,-102.2978 207.0001,-102.2977"/>
</g>
<!-- Node26 -->
<g id="node5" class="node">
<title>Node26</title>
<g id="a_node5"><a xlink:href="ppap4lmp_8cpp.html" target="_top" xlink:title="This file has no implementation, only includes a header file to bind C++ and Python. ">
<polygon fill="#ffffff" stroke="#000000" points="163.5,-.5 163.5,-19.5 257.5,-19.5 257.5,-.5 163.5,-.5"/>
<text text-anchor="middle" x="210.5" y="-7.5" font-family="Helvetica,sans-Serif" font-size="10.00" fill="#000000">src/ppap4lmp.cpp</text>
</a>
</g>
</g>
<!-- Node25&#45;&gt;Node26 -->
<g id="edge4" class="edge">
<title>Node25&#45;&gt;Node26</title>
<path fill="none" stroke="#191970" d="M210.5,-46.1575C210.5,-37.155 210.5,-26.9199 210.5,-19.6427"/>
<polygon fill="#191970" stroke="#191970" points="207.0001,-46.2455 210.5,-56.2455 214.0001,-46.2456 207.0001,-46.2455"/>
</g>
</g>
</svg>
