<?xml version="1.0" encoding="UTF-8" standalone="no"?>
<!DOCTYPE svg PUBLIC "-//W3C//DTD SVG 1.1//EN"
 "http://www.w3.org/Graphics/SVG/1.1/DTD/svg11.dtd">
<!-- Generated by graphviz version 2.40.1 (20161225.0304)
 -->
<!-- Title: src/adders/add_gyration_radius.h Pages: 1 -->
<svg width="262pt" height="218pt"
 viewBox="0.00 0.00 262.00 218.00" xmlns="http://www.w3.org/2000/svg" xmlns:xlink="http://www.w3.org/1999/xlink">
<g id="graph0" class="graph" transform="scale(1 1) rotate(0) translate(4 214)">
<title>src/adders/add_gyration_radius.h</title>
<polygon fill="#ffffff" stroke="transparent" points="-4,4 -4,-214 258,-214 258,4 -4,4"/>
<!-- Node22 -->
<g id="node1" class="node">
<title>Node22</title>
<polygon fill="#bfbfbf" stroke="#000000" points="68,-179.5 68,-209.5 189,-209.5 189,-179.5 68,-179.5"/>
<text text-anchor="start" x="76" y="-197.5" font-family="Helvetica,sans-Serif" font-size="10.00" fill="#000000">src/adders/add_gyration</text>
<text text-anchor="middle" x="128.5" y="-186.5" font-family="Helvetica,sans-Serif" font-size="10.00" fill="#000000">_radius.h</text>
</g>
<!-- Node23 -->
<g id="node2" class="node">
<title>Node23</title>
<g id="a_node2"><a xlink:href="add__gyration__radius_8cpp.html" target="_top" xlink:title="This file has implementations of the AddGyrationRadius class, which is a subclass of the Adder class...">
<polygon fill="#ffffff" stroke="#000000" points="0,-112.5 0,-142.5 121,-142.5 121,-112.5 0,-112.5"/>
<text text-anchor="start" x="8" y="-130.5" font-family="Helvetica,sans-Serif" font-size="10.00" fill="#000000">src/adders/add_gyration</text>
<text text-anchor="middle" x="60.5" y="-119.5" font-family="Helvetica,sans-Serif" font-size="10.00" fill="#000000">_radius.cpp</text>
</a>
</g>
</g>
<!-- Node22&#45;&gt;Node23 -->
<g id="edge1" class="edge">
<title>Node22&#45;&gt;Node23</title>
<path fill="none" stroke="#191970" d="M105.8786,-172.2113C96.0233,-162.5009 84.7261,-151.3698 75.8692,-142.6432"/>
<polygon fill="#191970" stroke="#191970" points="103.49,-174.7713 113.0697,-179.2967 108.403,-169.785 103.49,-174.7713"/>
</g>
<!-- Node24 -->
<g id="node3" class="node">
<title>Node24</title>
<g id="a_node3"><a xlink:href="pybind_2adders__py_2add__gyration__radius_8h.html" target="_top" xlink:title="This file has a function to bind AddGyrationRadius class to Python. ">
<polygon fill="#ffffff" stroke="#000000" points="139,-112.5 139,-142.5 254,-142.5 254,-112.5 139,-112.5"/>
<text text-anchor="start" x="147" y="-130.5" font-family="Helvetica,sans-Serif" font-size="10.00" fill="#000000">src/pybind/adders_py</text>
<text text-anchor="middle" x="196.5" y="-119.5" font-family="Helvetica,sans-Serif" font-size="10.00" fill="#000000">/add_gyration_radius.h</text>
</a>
</g>
</g>
<!-- Node22&#45;&gt;Node24 -->
<g id="edge2" class="edge">
<title>Node22&#45;&gt;Node24</title>
<path fill="none" stroke="#191970" d="M151.1214,-172.2113C160.9767,-162.5009 172.2739,-151.3698 181.1308,-142.6432"/>
<polygon fill="#191970" stroke="#191970" points="148.597,-169.785 143.9303,-179.2967 153.51,-174.7713 148.597,-169.785"/>
</g>
<!-- Node25 -->
<g id="node4" class="node">
<title>Node25</title>
<g id="a_node4"><a xlink:href="pybind_8h.html" target="_top" xlink:title="This file includes all the header files containing definitions of functions to bind C++ and Python...">
<polygon fill="#ffffff" stroke="#000000" points="161.5,-56.5 161.5,-75.5 231.5,-75.5 231.5,-56.5 161.5,-56.5"/>
<text text-anchor="middle" x="196.5" y="-63.5" font-family="Helvetica,sans-Serif" font-size="10.00" fill="#000000">src/pybind.h</text>
</a>
</g>
</g>
<!-- Node24&#45;&gt;Node25 -->
<g id="edge3" class="edge">
<title>Node24&#45;&gt;Node25</title>
<path fill="none" stroke="#191970" d="M196.5,-102.2849C196.5,-92.9858 196.5,-82.9883 196.5,-75.8469"/>
<polygon fill="#191970" stroke="#191970" points="193.0001,-102.2977 196.5,-112.2977 200.0001,-102.2978 193.0001,-102.2977"/>
</g>
<!-- Node26 -->
<g id="node5" class="node">
<title>Node26</title>
<g id="a_node5"><a xlink:href="ppap4lmp_8cpp.html" target="_top" xlink:title="This file has no implementation, only includes a header file to bind C++ and Python. ">
<polygon fill="#ffffff" stroke="#000000" points="149.5,-.5 149.5,-19.5 243.5,-19.5 243.5,-.5 149.5,-.5"/>
<text text-anchor="middle" x="196.5" y="-7.5" font-family="Helvetica,sans-Serif" font-size="10.00" fill="#000000">src/ppap4lmp.cpp</text>
</a>
</g>
</g>
<!-- Node25&#45;&gt;Node26 -->
<g id="edge4" class="edge">
<title>Node25&#45;&gt;Node26</title>
<path fill="none" stroke="#191970" d="M196.5,-46.1575C196.5,-37.155 196.5,-26.9199 196.5,-19.6427"/>
<polygon fill="#191970" stroke="#191970" points="193.0001,-46.2455 196.5,-56.2455 200.0001,-46.2456 193.0001,-46.2455"/>
</g>
</g>
</svg>
