<?xml version="1.0" encoding="UTF-8" standalone="no"?>
<!DOCTYPE svg PUBLIC "-//W3C//DTD SVG 1.1//EN"
 "http://www.w3.org/Graphics/SVG/1.1/DTD/svg11.dtd">
<!-- Generated by graphviz version 2.40.1 (20161225.0304)
 -->
<!-- Title: src/adders/add_special_bonds.h Pages: 1 -->
<svg width="254pt" height="218pt"
 viewBox="0.00 0.00 254.00 218.00" xmlns="http://www.w3.org/2000/svg" xmlns:xlink="http://www.w3.org/1999/xlink">
<g id="graph0" class="graph" transform="scale(1 1) rotate(0) translate(4 214)">
<title>src/adders/add_special_bonds.h</title>
<polygon fill="#ffffff" stroke="transparent" points="-4,4 -4,-214 250,-214 250,4 -4,4"/>
<!-- Node22 -->
<g id="node1" class="node">
<title>Node22</title>
<polygon fill="#bfbfbf" stroke="#000000" points="66,-179.5 66,-209.5 183,-209.5 183,-179.5 66,-179.5"/>
<text text-anchor="start" x="74" y="-197.5" font-family="Helvetica,sans-Serif" font-size="10.00" fill="#000000">src/adders/add_special</text>
<text text-anchor="middle" x="124.5" y="-186.5" font-family="Helvetica,sans-Serif" font-size="10.00" fill="#000000">_bonds.h</text>
</g>
<!-- Node23 -->
<g id="node2" class="node">
<title>Node23</title>
<g id="a_node2"><a xlink:href="add__special__bonds_8cpp.html" target="_top" xlink:title="This file has implementations of the AddSpecialBonds class, which is a subclass of the Adder class...">
<polygon fill="#ffffff" stroke="#000000" points="0,-112.5 0,-142.5 117,-142.5 117,-112.5 0,-112.5"/>
<text text-anchor="start" x="8" y="-130.5" font-family="Helvetica,sans-Serif" font-size="10.00" fill="#000000">src/adders/add_special</text>
<text text-anchor="middle" x="58.5" y="-119.5" font-family="Helvetica,sans-Serif" font-size="10.00" fill="#000000">_bonds.cpp</text>
</a>
</g>
</g>
<!-- Node22&#45;&gt;Node23 -->
<g id="edge1" class="edge">
<title>Node22&#45;&gt;Node23</title>
<path fill="none" stroke="#191970" d="M102.2622,-171.9253C92.7637,-162.2828 81.9293,-151.2843 73.4172,-142.6432"/>
<polygon fill="#191970" stroke="#191970" points="100.0124,-174.6288 109.5236,-179.2967 104.9993,-169.7164 100.0124,-174.6288"/>
</g>
<!-- Node24 -->
<g id="node3" class="node">
<title>Node24</title>
<g id="a_node3"><a xlink:href="pybind_2adders__py_2add__special__bonds_8h.html" target="_top" xlink:title="This file has a function to bind AddSpecialBonds class to Python. ">
<polygon fill="#ffffff" stroke="#000000" points="135,-112.5 135,-142.5 246,-142.5 246,-112.5 135,-112.5"/>
<text text-anchor="start" x="143" y="-130.5" font-family="Helvetica,sans-Serif" font-size="10.00" fill="#000000">src/pybind/adders_py</text>
<text text-anchor="middle" x="190.5" y="-119.5" font-family="Helvetica,sans-Serif" font-size="10.00" fill="#000000">/add_special_bonds.h</text>
</a>
</g>
</g>
<!-- Node22&#45;&gt;Node24 -->
<g id="edge2" class="edge">
<title>Node22&#45;&gt;Node24</title>
<path fill="none" stroke="#191970" d="M146.7378,-171.9253C156.2363,-162.2828 167.0707,-151.2843 175.5828,-142.6432"/>
<polygon fill="#191970" stroke="#191970" points="144.0007,-169.7164 139.4764,-179.2967 148.9876,-174.6288 144.0007,-169.7164"/>
</g>
<!-- Node25 -->
<g id="node4" class="node">
<title>Node25</title>
<g id="a_node4"><a xlink:href="pybind_8h.html" target="_top" xlink:title="This file includes all the header files containing definitions of functions to bind C++ and Python...">
<polygon fill="#ffffff" stroke="#000000" points="155.5,-56.5 155.5,-75.5 225.5,-75.5 225.5,-56.5 155.5,-56.5"/>
<text text-anchor="middle" x="190.5" y="-63.5" font-family="Helvetica,sans-Serif" font-size="10.00" fill="#000000">src/pybind.h</text>
</a>
</g>
</g>
<!-- Node24&#45;&gt;Node25 -->
<g id="edge3" class="edge">
<title>Node24&#45;&gt;Node25</title>
<path fill="none" stroke="#191970" d="M190.5,-102.2849C190.5,-92.9858 190.5,-82.9883 190.5,-75.8469"/>
<polygon fill="#191970" stroke="#191970" points="187.0001,-102.2977 190.5,-112.2977 194.0001,-102.2978 187.0001,-102.2977"/>
</g>
<!-- Node26 -->
<g id="node5" class="node">
<title>Node26</title>
<g id="a_node5"><a xlink:href="ppap4lmp_8cpp.html" target="_top" xlink:title="This file has no implementation, only includes a header file to bind C++ and Python. ">
<polygon fill="#ffffff" stroke="#000000" points="143.5,-.5 143.5,-19.5 237.5,-19.5 237.5,-.5 143.5,-.5"/>
<text text-anchor="middle" x="190.5" y="-7.5" font-family="Helvetica,sans-Serif" font-size="10.00" fill="#000000">src/ppap4lmp.cpp</text>
</a>
</g>
</g>
<!-- Node25&#45;&gt;Node26 -->
<g id="edge4" class="edge">
<title>Node25&#45;&gt;Node26</title>
<path fill="none" stroke="#191970" d="M190.5,-46.1575C190.5,-37.155 190.5,-26.9199 190.5,-19.6427"/>
<polygon fill="#191970" stroke="#191970" points="187.0001,-46.2455 190.5,-56.2455 194.0001,-46.2456 187.0001,-46.2455"/>
</g>
</g>
</svg>
