<?xml version="1.0" encoding="UTF-8" standalone="no"?>
<!DOCTYPE svg PUBLIC "-//W3C//DTD SVG 1.1//EN"
 "http://www.w3.org/Graphics/SVG/1.1/DTD/svg11.dtd">
<!-- Generated by graphviz version 2.40.1 (20161225.0304)
 -->
<!-- Title: src/adders/add_com_position.h Pages: 1 -->
<svg width="242pt" height="218pt"
 viewBox="0.00 0.00 241.50 218.00" xmlns="http://www.w3.org/2000/svg" xmlns:xlink="http://www.w3.org/1999/xlink">
<g id="graph0" class="graph" transform="scale(1 1) rotate(0) translate(4 214)">
<title>src/adders/add_com_position.h</title>
<polygon fill="#ffffff" stroke="transparent" points="-4,4 -4,-214 237.5,-214 237.5,4 -4,4"/>
<!-- Node22 -->
<g id="node1" class="node">
<title>Node22</title>
<polygon fill="#bfbfbf" stroke="#000000" points="63,-179.5 63,-209.5 168,-209.5 168,-179.5 63,-179.5"/>
<text text-anchor="start" x="71" y="-197.5" font-family="Helvetica,sans-Serif" font-size="10.00" fill="#000000">src/adders/add_com</text>
<text text-anchor="middle" x="115.5" y="-186.5" font-family="Helvetica,sans-Serif" font-size="10.00" fill="#000000">_position.h</text>
</g>
<!-- Node23 -->
<g id="node2" class="node">
<title>Node23</title>
<g id="a_node2"><a xlink:href="add__com__position_8cpp.html" target="_top" xlink:title="This file has implementations of the AddCoMPosition class, which is a subclass of the Adder class...">
<polygon fill="#ffffff" stroke="#000000" points="0,-112.5 0,-142.5 105,-142.5 105,-112.5 0,-112.5"/>
<text text-anchor="start" x="8" y="-130.5" font-family="Helvetica,sans-Serif" font-size="10.00" fill="#000000">src/adders/add_com</text>
<text text-anchor="middle" x="52.5" y="-119.5" font-family="Helvetica,sans-Serif" font-size="10.00" fill="#000000">_position.cpp</text>
</a>
</g>
</g>
<!-- Node22&#45;&gt;Node23 -->
<g id="edge1" class="edge">
<title>Node22&#45;&gt;Node23</title>
<path fill="none" stroke="#191970" d="M94.273,-171.9253C85.2062,-162.2828 74.8643,-151.2843 66.7391,-142.6432"/>
<polygon fill="#191970" stroke="#191970" points="91.8042,-174.409 101.2043,-179.2967 96.9039,-169.6138 91.8042,-174.409"/>
</g>
<!-- Node24 -->
<g id="node3" class="node">
<title>Node24</title>
<g id="a_node3"><a xlink:href="pybind_2adders__py_2add__com__position_8h.html" target="_top" xlink:title="This file has a function to bind AddCoMPosition class to Python. ">
<polygon fill="#ffffff" stroke="#000000" points="123.5,-112.5 123.5,-142.5 233.5,-142.5 233.5,-112.5 123.5,-112.5"/>
<text text-anchor="start" x="131.5" y="-130.5" font-family="Helvetica,sans-Serif" font-size="10.00" fill="#000000">src/pybind/adders_py</text>
<text text-anchor="middle" x="178.5" y="-119.5" font-family="Helvetica,sans-Serif" font-size="10.00" fill="#000000">/add_com_position.h</text>
</a>
</g>
</g>
<!-- Node22&#45;&gt;Node24 -->
<g id="edge2" class="edge">
<title>Node22&#45;&gt;Node24</title>
<path fill="none" stroke="#191970" d="M136.727,-171.9253C145.7938,-162.2828 156.1357,-151.2843 164.2609,-142.6432"/>
<polygon fill="#191970" stroke="#191970" points="134.0961,-169.6138 129.7957,-179.2967 139.1958,-174.409 134.0961,-169.6138"/>
</g>
<!-- Node25 -->
<g id="node4" class="node">
<title>Node25</title>
<g id="a_node4"><a xlink:href="pybind_8h.html" target="_top" xlink:title="This file includes all the header files containing definitions of functions to bind C++ and Python...">
<polygon fill="#ffffff" stroke="#000000" points="143.5,-56.5 143.5,-75.5 213.5,-75.5 213.5,-56.5 143.5,-56.5"/>
<text text-anchor="middle" x="178.5" y="-63.5" font-family="Helvetica,sans-Serif" font-size="10.00" fill="#000000">src/pybind.h</text>
</a>
</g>
</g>
<!-- Node24&#45;&gt;Node25 -->
<g id="edge3" class="edge">
<title>Node24&#45;&gt;Node25</title>
<path fill="none" stroke="#191970" d="M178.5,-102.2849C178.5,-92.9858 178.5,-82.9883 178.5,-75.8469"/>
<polygon fill="#191970" stroke="#191970" points="175.0001,-102.2977 178.5,-112.2977 182.0001,-102.2978 175.0001,-102.2977"/>
</g>
<!-- Node26 -->
<g id="node5" class="node">
<title>Node26</title>
<g id="a_node5"><a xlink:href="ppap4lmp_8cpp.html" target="_top" xlink:title="This file has no implementation, only includes a header file to bind C++ and Python. ">
<polygon fill="#ffffff" stroke="#000000" points="131.5,-.5 131.5,-19.5 225.5,-19.5 225.5,-.5 131.5,-.5"/>
<text text-anchor="middle" x="178.5" y="-7.5" font-family="Helvetica,sans-Serif" font-size="10.00" fill="#000000">src/ppap4lmp.cpp</text>
</a>
</g>
</g>
<!-- Node25&#45;&gt;Node26 -->
<g id="edge4" class="edge">
<title>Node25&#45;&gt;Node26</title>
<path fill="none" stroke="#191970" d="M178.5,-46.1575C178.5,-37.155 178.5,-26.9199 178.5,-19.6427"/>
<polygon fill="#191970" stroke="#191970" points="175.0001,-46.2455 178.5,-56.2455 182.0001,-46.2456 175.0001,-46.2455"/>
</g>
</g>
</svg>
