<?xml version="1.0" encoding="UTF-8" standalone="no"?>
<!DOCTYPE svg PUBLIC "-//W3C//DTD SVG 1.1//EN"
 "http://www.w3.org/Graphics/SVG/1.1/DTD/svg11.dtd">
<!-- Generated by graphviz version 2.40.1 (20161225.0304)
 -->
<!-- Title: Adder Pages: 1 -->
<svg width="1750pt" height="430pt"
 viewBox="0.00 0.00 1750.00 430.00" xmlns="http://www.w3.org/2000/svg" xmlns:xlink="http://www.w3.org/1999/xlink">
<g id="graph0" class="graph" transform="scale(1 1) rotate(0) translate(4 426)">
<title>Adder</title>
<polygon fill="#ffffff" stroke="transparent" points="-4,4 -4,-426 1746,-426 1746,4 -4,4"/>
<!-- Node0 -->
<g id="node1" class="node">
<title>Node0</title>
<polygon fill="#bfbfbf" stroke="#000000" points="818.5,-160.5 818.5,-239.5 887.5,-239.5 887.5,-160.5 818.5,-160.5"/>
<text text-anchor="middle" x="853" y="-227.5" font-family="Helvetica,sans-Serif" font-size="10.00" fill="#000000">Adder</text>
<polyline fill="none" stroke="#000000" points="818.5,-220.5 887.5,-220.5 "/>
<text text-anchor="middle" x="853" y="-208.5" font-family="Helvetica,sans-Serif" font-size="10.00" fill="#000000"> </text>
<polyline fill="none" stroke="#000000" points="818.5,-201.5 887.5,-201.5 "/>
<text text-anchor="start" x="826.5" y="-189.5" font-family="Helvetica,sans-Serif" font-size="10.00" fill="#000000">+ ~Adder()</text>
<text text-anchor="start" x="826.5" y="-178.5" font-family="Helvetica,sans-Serif" font-size="10.00" fill="#000000">+ compute()</text>
<text text-anchor="start" x="826.5" y="-167.5" font-family="Helvetica,sans-Serif" font-size="10.00" fill="#000000">+ Updater()</text>
</g>
<!-- Node2 -->
<g id="node3" class="node">
<title>Node2</title>
<g id="a_node3"><a xlink:href="classAddBondAngle.html" target="_top" xlink:title="AddBondAngle adds angle property to bond&#45;angles, each of them is defined by three consecutive atoms...">
<polygon fill="#ffffff" stroke="#000000" points="0,-22.5 0,-101.5 102,-101.5 102,-22.5 0,-22.5"/>
<text text-anchor="middle" x="51" y="-89.5" font-family="Helvetica,sans-Serif" font-size="10.00" fill="#000000">AddBondAngle</text>
<polyline fill="none" stroke="#000000" points="0,-82.5 102,-82.5 "/>
<text text-anchor="middle" x="51" y="-70.5" font-family="Helvetica,sans-Serif" font-size="10.00" fill="#000000"> </text>
<polyline fill="none" stroke="#000000" points="0,-63.5 102,-63.5 "/>
<text text-anchor="start" x="8" y="-51.5" font-family="Helvetica,sans-Serif" font-size="10.00" fill="#000000">+ AddBondAngle()</text>
<text text-anchor="start" x="8" y="-40.5" font-family="Helvetica,sans-Serif" font-size="10.00" fill="#000000">+ ~AddBondAngle()</text>
<text text-anchor="start" x="8" y="-29.5" font-family="Helvetica,sans-Serif" font-size="10.00" fill="#000000"># compute_impl()</text>
</a>
</g>
</g>
<!-- Node0&#45;&gt;Node2 -->
<g id="edge2" class="edge">
<title>Node0&#45;&gt;Node2</title>
<path fill="none" stroke="#191970" d="M808.0594,-199.3911C667.0174,-196.8647 235.1615,-184.2727 111,-124 99.9504,-118.6361 89.8234,-110.3472 81.1617,-101.5576"/>
<polygon fill="none" stroke="#191970" points="808.0341,-202.8911 818.0924,-199.5624 808.1537,-195.8921 808.0341,-202.8911"/>
</g>
<!-- Node3 -->
<g id="node4" class="node">
<title>Node3</title>
<g id="a_node4"><a xlink:href="classAddBondLength.html" target="_top" xlink:title="AddBondLength adds length property to bonds, each of them connects two atoms. ">
<polygon fill="#ffffff" stroke="#000000" points="120.5,-22.5 120.5,-101.5 227.5,-101.5 227.5,-22.5 120.5,-22.5"/>
<text text-anchor="middle" x="174" y="-89.5" font-family="Helvetica,sans-Serif" font-size="10.00" fill="#000000">AddBondLength</text>
<polyline fill="none" stroke="#000000" points="120.5,-82.5 227.5,-82.5 "/>
<text text-anchor="middle" x="174" y="-70.5" font-family="Helvetica,sans-Serif" font-size="10.00" fill="#000000"> </text>
<polyline fill="none" stroke="#000000" points="120.5,-63.5 227.5,-63.5 "/>
<text text-anchor="start" x="128.5" y="-51.5" font-family="Helvetica,sans-Serif" font-size="10.00" fill="#000000">+ AddBondLength()</text>
<text text-anchor="start" x="128.5" y="-40.5" font-family="Helvetica,sans-Serif" font-size="10.00" fill="#000000">+ ~AddBondLength()</text>
<text text-anchor="start" x="128.5" y="-29.5" font-family="Helvetica,sans-Serif" font-size="10.00" fill="#000000"># compute_impl()</text>
</a>
</g>
</g>
<!-- Node0&#45;&gt;Node3 -->
<g id="edge3" class="edge">
<title>Node0&#45;&gt;Node3</title>
<path fill="none" stroke="#191970" d="M807.9955,-198.1824C683.7059,-192.5803 338.2295,-172.9091 237,-124 225.8079,-118.5925 215.3911,-110.3999 206.3796,-101.7261"/>
<polygon fill="none" stroke="#191970" points="808.1432,-201.6923 818.2879,-198.6368 808.452,-194.6991 808.1432,-201.6923"/>
</g>
<!-- Node4 -->
<g id="node5" class="node">
<title>Node4</title>
<g id="a_node5"><a xlink:href="classAddChildIDs.html" target="_top" xlink:title="AddChildIDs adds id property of a child Element object to a parent Element object. ">
<polygon fill="#ffffff" stroke="#000000" points="246,-17 246,-107 346,-107 346,-17 246,-17"/>
<text text-anchor="middle" x="296" y="-95" font-family="Helvetica,sans-Serif" font-size="10.00" fill="#000000">AddChildIDs</text>
<polyline fill="none" stroke="#000000" points="246,-88 346,-88 "/>
<text text-anchor="start" x="254" y="-76" font-family="Helvetica,sans-Serif" font-size="10.00" fill="#000000">&#45; child_name</text>
<text text-anchor="start" x="254" y="-65" font-family="Helvetica,sans-Serif" font-size="10.00" fill="#000000">&#45; key_for_parent_id</text>
<polyline fill="none" stroke="#000000" points="246,-58 346,-58 "/>
<text text-anchor="start" x="254" y="-46" font-family="Helvetica,sans-Serif" font-size="10.00" fill="#000000">+ AddChildIDs()</text>
<text text-anchor="start" x="254" y="-35" font-family="Helvetica,sans-Serif" font-size="10.00" fill="#000000">+ ~AddChildIDs()</text>
<text text-anchor="start" x="254" y="-24" font-family="Helvetica,sans-Serif" font-size="10.00" fill="#000000"># compute_impl()</text>
</a>
</g>
</g>
<!-- Node0&#45;&gt;Node4 -->
<g id="edge4" class="edge">
<title>Node0&#45;&gt;Node4</title>
<path fill="none" stroke="#191970" d="M808.2906,-196.8833C701.3431,-188.8432 433.7963,-165.1038 355,-124 346.7004,-119.6705 338.9125,-113.7171 331.8873,-107.2013"/>
<polygon fill="none" stroke="#191970" points="808.1961,-200.3858 818.4274,-197.6343 808.7134,-193.4049 808.1961,-200.3858"/>
</g>
<!-- Node5 -->
<g id="node6" class="node">
<title>Node5</title>
<g id="a_node6"><a xlink:href="classAddChildPositions.html" target="_top" xlink:title="AddChildPositions adds relative positions of a child Element object to a parent Element object...">
<polygon fill="#ffffff" stroke="#000000" points="364.5,-22.5 364.5,-101.5 481.5,-101.5 481.5,-22.5 364.5,-22.5"/>
<text text-anchor="middle" x="423" y="-89.5" font-family="Helvetica,sans-Serif" font-size="10.00" fill="#000000">AddChildPositions</text>
<polyline fill="none" stroke="#000000" points="364.5,-82.5 481.5,-82.5 "/>
<text text-anchor="start" x="372.5" y="-70.5" font-family="Helvetica,sans-Serif" font-size="10.00" fill="#000000">&#45; child_name</text>
<polyline fill="none" stroke="#000000" points="364.5,-63.5 481.5,-63.5 "/>
<text text-anchor="start" x="372.5" y="-51.5" font-family="Helvetica,sans-Serif" font-size="10.00" fill="#000000">+ AddChildPositions()</text>
<text text-anchor="start" x="372.5" y="-40.5" font-family="Helvetica,sans-Serif" font-size="10.00" fill="#000000">+ ~AddChildPositions()</text>
<text text-anchor="start" x="372.5" y="-29.5" font-family="Helvetica,sans-Serif" font-size="10.00" fill="#000000"># compute_impl()</text>
</a>
</g>
</g>
<!-- Node0&#45;&gt;Node5 -->
<g id="edge5" class="edge">
<title>Node0&#45;&gt;Node5</title>
<path fill="none" stroke="#191970" d="M807.9471,-198.109C736.8889,-193.515 596.0744,-177.7857 491,-124 479.7653,-118.2492 468.9889,-110.1434 459.4578,-101.6838"/>
<polygon fill="none" stroke="#191970" points="808.1328,-201.6264 818.3246,-198.7322 808.5524,-194.639 808.1328,-201.6264"/>
</g>
<!-- Node6 -->
<g id="node7" class="node">
<title>Node6</title>
<g id="a_node7"><a xlink:href="classAddCoMPosition.html" target="_top" xlink:title="AddCoMPosition adds center of mass to an Element object as its unwrapped position. ">
<polygon fill="#ffffff" stroke="#000000" points="500,-11.5 500,-112.5 640,-112.5 640,-11.5 500,-11.5"/>
<text text-anchor="middle" x="570" y="-100.5" font-family="Helvetica,sans-Serif" font-size="10.00" fill="#000000">AddCoMPosition</text>
<polyline fill="none" stroke="#000000" points="500,-93.5 640,-93.5 "/>
<text text-anchor="middle" x="570" y="-81.5" font-family="Helvetica,sans-Serif" font-size="10.00" fill="#000000"> </text>
<polyline fill="none" stroke="#000000" points="500,-74.5 640,-74.5 "/>
<text text-anchor="start" x="508" y="-62.5" font-family="Helvetica,sans-Serif" font-size="10.00" fill="#000000">+ AddCoMPosition()</text>
<text text-anchor="start" x="508" y="-51.5" font-family="Helvetica,sans-Serif" font-size="10.00" fill="#000000">+ ~AddCoMPosition()</text>
<text text-anchor="start" x="508" y="-40.5" font-family="Helvetica,sans-Serif" font-size="10.00" fill="#000000"># compute_impl()</text>
<text text-anchor="start" x="508" y="-29.5" font-family="Helvetica,sans-Serif" font-size="10.00" fill="#000000">&#45; compute_with_weights()</text>
<text text-anchor="start" x="508" y="-18.5" font-family="Helvetica,sans-Serif" font-size="10.00" fill="#000000">&#45; compute_without_weights()</text>
</a>
</g>
</g>
<!-- Node0&#45;&gt;Node6 -->
<g id="edge6" class="edge">
<title>Node0&#45;&gt;Node6</title>
<path fill="none" stroke="#191970" d="M808.6027,-187.8056C766.0752,-175.1369 700.8833,-153.0906 649,-124 642.917,-120.5893 636.8063,-116.7308 630.8249,-112.6477"/>
<polygon fill="none" stroke="#191970" points="807.7946,-191.2159 818.3753,-190.6704 809.7638,-184.4986 807.7946,-191.2159"/>
</g>
<!-- Node7 -->
<g id="node8" class="node">
<title>Node7</title>
<g id="a_node8"><a xlink:href="classAddDihedralAngle.html" target="_top" xlink:title="AddDihedralAngle adds dihedral&#45;angle property to dehedrals, each of them is defined by four consecuti...">
<polygon fill="#ffffff" stroke="#000000" points="658.5,-22.5 658.5,-101.5 773.5,-101.5 773.5,-22.5 658.5,-22.5"/>
<text text-anchor="middle" x="716" y="-89.5" font-family="Helvetica,sans-Serif" font-size="10.00" fill="#000000">AddDihedralAngle</text>
<polyline fill="none" stroke="#000000" points="658.5,-82.5 773.5,-82.5 "/>
<text text-anchor="middle" x="716" y="-70.5" font-family="Helvetica,sans-Serif" font-size="10.00" fill="#000000"> </text>
<polyline fill="none" stroke="#000000" points="658.5,-63.5 773.5,-63.5 "/>
<text text-anchor="start" x="666.5" y="-51.5" font-family="Helvetica,sans-Serif" font-size="10.00" fill="#000000">+ AddDihedralAngle()</text>
<text text-anchor="start" x="666.5" y="-40.5" font-family="Helvetica,sans-Serif" font-size="10.00" fill="#000000">+ ~AddDihedralAngle()</text>
<text text-anchor="start" x="666.5" y="-29.5" font-family="Helvetica,sans-Serif" font-size="10.00" fill="#000000"># compute_impl()</text>
</a>
</g>
</g>
<!-- Node0&#45;&gt;Node7 -->
<g id="edge7" class="edge">
<title>Node0&#45;&gt;Node7</title>
<path fill="none" stroke="#191970" d="M811.0301,-157.7237C793.3262,-139.8906 772.8259,-119.2407 755.4078,-101.6955"/>
<polygon fill="none" stroke="#191970" points="808.8999,-160.5459 818.4291,-165.1768 813.8676,-155.6141 808.8999,-160.5459"/>
</g>
<!-- Node8 -->
<g id="node9" class="node">
<title>Node8</title>
<g id="a_node9"><a xlink:href="classAddGyrationRadius.html" target="_top" xlink:title="AddGyrationRadius adds gyration radius to an Element object. ">
<polygon fill="#ffffff" stroke="#000000" points="792,-22.5 792,-101.5 914,-101.5 914,-22.5 792,-22.5"/>
<text text-anchor="middle" x="853" y="-89.5" font-family="Helvetica,sans-Serif" font-size="10.00" fill="#000000">AddGyrationRadius</text>
<polyline fill="none" stroke="#000000" points="792,-82.5 914,-82.5 "/>
<text text-anchor="start" x="800" y="-70.5" font-family="Helvetica,sans-Serif" font-size="10.00" fill="#000000">&#45; add_sqrted</text>
<polyline fill="none" stroke="#000000" points="792,-63.5 914,-63.5 "/>
<text text-anchor="start" x="800" y="-51.5" font-family="Helvetica,sans-Serif" font-size="10.00" fill="#000000">+ ~AddGyrationRadius()</text>
<text text-anchor="start" x="800" y="-40.5" font-family="Helvetica,sans-Serif" font-size="10.00" fill="#000000">+ with_sqrted()</text>
<text text-anchor="start" x="800" y="-29.5" font-family="Helvetica,sans-Serif" font-size="10.00" fill="#000000"># compute_impl()</text>
</a>
</g>
</g>
<!-- Node0&#45;&gt;Node8 -->
<g id="edge8" class="edge">
<title>Node0&#45;&gt;Node8</title>
<path fill="none" stroke="#191970" d="M853,-150.1982C853,-134.2016 853,-116.7093 853,-101.551"/>
<polygon fill="none" stroke="#191970" points="849.5001,-150.4547 853,-160.4547 856.5001,-150.4548 849.5001,-150.4547"/>
</g>
<!-- Node9 -->
<g id="node10" class="node">
<title>Node9</title>
<g id="a_node10"><a xlink:href="classAddInertiaMoment.html" target="_top" xlink:title="AddInertiaMoment adds inertia moment to an Element object. ">
<polygon fill="#ffffff" stroke="#000000" points="932,-11.5 932,-112.5 1072,-112.5 1072,-11.5 932,-11.5"/>
<text text-anchor="middle" x="1002" y="-100.5" font-family="Helvetica,sans-Serif" font-size="10.00" fill="#000000">AddInertiaMoment</text>
<polyline fill="none" stroke="#000000" points="932,-93.5 1072,-93.5 "/>
<text text-anchor="middle" x="1002" y="-81.5" font-family="Helvetica,sans-Serif" font-size="10.00" fill="#000000"> </text>
<polyline fill="none" stroke="#000000" points="932,-74.5 1072,-74.5 "/>
<text text-anchor="start" x="940" y="-62.5" font-family="Helvetica,sans-Serif" font-size="10.00" fill="#000000">+ AddInertiaMoment()</text>
<text text-anchor="start" x="940" y="-51.5" font-family="Helvetica,sans-Serif" font-size="10.00" fill="#000000">+ ~AddInertiaMoment()</text>
<text text-anchor="start" x="940" y="-40.5" font-family="Helvetica,sans-Serif" font-size="10.00" fill="#000000"># compute_impl()</text>
<text text-anchor="start" x="940" y="-29.5" font-family="Helvetica,sans-Serif" font-size="10.00" fill="#000000">&#45; compute_with_weights()</text>
<text text-anchor="start" x="940" y="-18.5" font-family="Helvetica,sans-Serif" font-size="10.00" fill="#000000">&#45; compute_without_weights()</text>
</a>
</g>
</g>
<!-- Node0&#45;&gt;Node9 -->
<g id="edge9" class="edge">
<title>Node0&#45;&gt;Node9</title>
<path fill="none" stroke="#191970" d="M895.2654,-160.8548C911.4108,-145.9014 930.0584,-128.6305 947.2055,-112.7493"/>
<polygon fill="none" stroke="#191970" points="892.5165,-158.6302 887.5581,-167.9932 897.2731,-163.7659 892.5165,-158.6302"/>
</g>
<!-- Node10 -->
<g id="node11" class="node">
<title>Node10</title>
<g id="a_node11"><a xlink:href="classAddMap.html" target="_top" xlink:title="AddMap adds a new property by mapping from an existing property. ">
<polygon fill="#ffffff" stroke="#000000" points="1090,-.5 1090,-123.5 1182,-123.5 1182,-.5 1090,-.5"/>
<text text-anchor="middle" x="1136" y="-111.5" font-family="Helvetica,sans-Serif" font-size="10.00" fill="#000000">AddMap</text>
<polyline fill="none" stroke="#000000" points="1090,-104.5 1182,-104.5 "/>
<text text-anchor="start" x="1098" y="-92.5" font-family="Helvetica,sans-Serif" font-size="10.00" fill="#000000">&#45; do_overwrite</text>
<text text-anchor="start" x="1098" y="-81.5" font-family="Helvetica,sans-Serif" font-size="10.00" fill="#000000">&#45; key_ref</text>
<text text-anchor="start" x="1098" y="-70.5" font-family="Helvetica,sans-Serif" font-size="10.00" fill="#000000">&#45; key_new</text>
<text text-anchor="start" x="1098" y="-59.5" font-family="Helvetica,sans-Serif" font-size="10.00" fill="#000000">&#45; mapping</text>
<polyline fill="none" stroke="#000000" points="1090,-52.5 1182,-52.5 "/>
<text text-anchor="start" x="1098" y="-40.5" font-family="Helvetica,sans-Serif" font-size="10.00" fill="#000000">+ AddMap()</text>
<text text-anchor="start" x="1098" y="-29.5" font-family="Helvetica,sans-Serif" font-size="10.00" fill="#000000">+ ~AddMap()</text>
<text text-anchor="start" x="1098" y="-18.5" font-family="Helvetica,sans-Serif" font-size="10.00" fill="#000000">+ overwrite()</text>
<text text-anchor="start" x="1098" y="-7.5" font-family="Helvetica,sans-Serif" font-size="10.00" fill="#000000"># compute_impl()</text>
</a>
</g>
</g>
<!-- Node0&#45;&gt;Node10 -->
<g id="edge10" class="edge">
<title>Node0&#45;&gt;Node10</title>
<path fill="none" stroke="#191970" d="M897.3608,-192.3554C945.6454,-182.4809 1023.6209,-161.8768 1081,-124 1084.0021,-122.0183 1086.9424,-119.8323 1089.8043,-117.5009"/>
<polygon fill="none" stroke="#191970" points="896.6563,-188.9269 887.5262,-194.302 898.0155,-195.7936 896.6563,-188.9269"/>
</g>
<!-- Node11 -->
<g id="node12" class="node">
<title>Node11</title>
<g id="a_node12"><a xlink:href="classAddMolecularOrientation.html" target="_top" xlink:title="AddMolecularOrientation adds molecular orientation (order parameter) to an Element object...">
<polygon fill="#ffffff" stroke="#000000" points="1200,-28 1200,-96 1344,-96 1344,-28 1200,-28"/>
<text text-anchor="middle" x="1272" y="-84" font-family="Helvetica,sans-Serif" font-size="10.00" fill="#000000">AddMolecularOrientation</text>
<polyline fill="none" stroke="#000000" points="1200,-77 1344,-77 "/>
<text text-anchor="middle" x="1272" y="-65" font-family="Helvetica,sans-Serif" font-size="10.00" fill="#000000"> </text>
<polyline fill="none" stroke="#000000" points="1200,-58 1344,-58 "/>
<text text-anchor="start" x="1208" y="-46" font-family="Helvetica,sans-Serif" font-size="10.00" fill="#000000">+ ~AddMolecularOrientation()</text>
<text text-anchor="start" x="1208" y="-35" font-family="Helvetica,sans-Serif" font-size="10.00" fill="#000000"># compute_impl()</text>
</a>
</g>
</g>
<!-- Node0&#45;&gt;Node11 -->
<g id="edge11" class="edge">
<title>Node0&#45;&gt;Node11</title>
<path fill="none" stroke="#191970" d="M897.8315,-196.1019C964.4957,-188.9656 1092.4725,-170.053 1191,-124 1206.241,-116.8762 1221.3249,-106.5015 1234.2694,-96.2697"/>
<polygon fill="none" stroke="#191970" points="897.2612,-192.642 887.6726,-197.1484 897.9786,-199.6051 897.2612,-192.642"/>
</g>
<!-- Node12 -->
<g id="node13" class="node">
<title>Node12</title>
<g id="a_node13"><a xlink:href="classAddRename.html" target="_top" xlink:title="AddRename renames an existing property. ">
<polygon fill="#ffffff" stroke="#000000" points="1362,-6 1362,-118 1454,-118 1454,-6 1362,-6"/>
<text text-anchor="middle" x="1408" y="-106" font-family="Helvetica,sans-Serif" font-size="10.00" fill="#000000">AddRename</text>
<polyline fill="none" stroke="#000000" points="1362,-99 1454,-99 "/>
<text text-anchor="start" x="1370" y="-87" font-family="Helvetica,sans-Serif" font-size="10.00" fill="#000000">&#45; do_overwrite</text>
<text text-anchor="start" x="1370" y="-76" font-family="Helvetica,sans-Serif" font-size="10.00" fill="#000000">&#45; key_old</text>
<text text-anchor="start" x="1370" y="-65" font-family="Helvetica,sans-Serif" font-size="10.00" fill="#000000">&#45; key_new</text>
<polyline fill="none" stroke="#000000" points="1362,-58 1454,-58 "/>
<text text-anchor="start" x="1370" y="-46" font-family="Helvetica,sans-Serif" font-size="10.00" fill="#000000">+ AddRename()</text>
<text text-anchor="start" x="1370" y="-35" font-family="Helvetica,sans-Serif" font-size="10.00" fill="#000000">+ ~AddRename()</text>
<text text-anchor="start" x="1370" y="-24" font-family="Helvetica,sans-Serif" font-size="10.00" fill="#000000">+ overwrite()</text>
<text text-anchor="start" x="1370" y="-13" font-family="Helvetica,sans-Serif" font-size="10.00" fill="#000000"># compute_impl()</text>
</a>
</g>
</g>
<!-- Node0&#45;&gt;Node12 -->
<g id="edge12" class="edge">
<title>Node0&#45;&gt;Node12</title>
<path fill="none" stroke="#191970" d="M897.9818,-197.0763C1005.5661,-189.4676 1274.6152,-166.6185 1353,-124 1356.1603,-122.2817 1359.2278,-120.3078 1362.1906,-118.1445"/>
<polygon fill="none" stroke="#191970" points="897.5172,-193.6001 887.7843,-197.7859 898.0032,-200.5832 897.5172,-193.6001"/>
</g>
<!-- Node13 -->
<g id="node14" class="node">
<title>Node13</title>
<g id="a_node14"><a xlink:href="classAddSpecialBonds.html" target="_top" xlink:title="AddSpecialBonds adds special bonds. ">
<polygon fill="#ffffff" stroke="#000000" points="1472.5,-11.5 1472.5,-112.5 1595.5,-112.5 1595.5,-11.5 1472.5,-11.5"/>
<text text-anchor="middle" x="1534" y="-100.5" font-family="Helvetica,sans-Serif" font-size="10.00" fill="#000000">AddSpecialBonds</text>
<polyline fill="none" stroke="#000000" points="1472.5,-93.5 1595.5,-93.5 "/>
<text text-anchor="start" x="1480.5" y="-81.5" font-family="Helvetica,sans-Serif" font-size="10.00" fill="#000000">&#45; mol_type_to_sbondses</text>
<text text-anchor="start" x="1480.5" y="-70.5" font-family="Helvetica,sans-Serif" font-size="10.00" fill="#000000">_in_mol</text>
<polyline fill="none" stroke="#000000" points="1472.5,-63.5 1595.5,-63.5 "/>
<text text-anchor="start" x="1480.5" y="-51.5" font-family="Helvetica,sans-Serif" font-size="10.00" fill="#000000">+ AddSpecialBonds()</text>
<text text-anchor="start" x="1480.5" y="-40.5" font-family="Helvetica,sans-Serif" font-size="10.00" fill="#000000">+ AddSpecialBonds()</text>
<text text-anchor="start" x="1480.5" y="-29.5" font-family="Helvetica,sans-Serif" font-size="10.00" fill="#000000">+ ~AddSpecialBonds()</text>
<text text-anchor="start" x="1480.5" y="-18.5" font-family="Helvetica,sans-Serif" font-size="10.00" fill="#000000"># compute_impl()</text>
</a>
</g>
</g>
<!-- Node0&#45;&gt;Node13 -->
<g id="edge13" class="edge">
<title>Node0&#45;&gt;Node13</title>
<path fill="none" stroke="#191970" d="M897.8535,-197.8094C1020.9269,-191.2665 1361.4891,-169.4406 1463,-124 1469.8707,-120.9244 1476.5647,-116.9522 1482.9237,-112.505"/>
<polygon fill="none" stroke="#191970" points="897.4613,-194.325 887.6578,-198.3427 897.827,-201.3154 897.4613,-194.325"/>
</g>
<!-- Node14 -->
<g id="node15" class="node">
<title>Node14</title>
<g id="a_node15"><a xlink:href="classAddWrappedPosition.html" target="_top" xlink:title="AddWrappedPosition adds wrapped positions for an Element object. ">
<polygon fill="#ffffff" stroke="#000000" points="1614,-22.5 1614,-101.5 1742,-101.5 1742,-22.5 1614,-22.5"/>
<text text-anchor="middle" x="1678" y="-89.5" font-family="Helvetica,sans-Serif" font-size="10.00" fill="#000000">AddWrappedPosition</text>
<polyline fill="none" stroke="#000000" points="1614,-82.5 1742,-82.5 "/>
<text text-anchor="middle" x="1678" y="-70.5" font-family="Helvetica,sans-Serif" font-size="10.00" fill="#000000"> </text>
<polyline fill="none" stroke="#000000" points="1614,-63.5 1742,-63.5 "/>
<text text-anchor="start" x="1622" y="-51.5" font-family="Helvetica,sans-Serif" font-size="10.00" fill="#000000">+ AddWrappedPosition()</text>
<text text-anchor="start" x="1622" y="-40.5" font-family="Helvetica,sans-Serif" font-size="10.00" fill="#000000">+ ~AddWrappedPosition()</text>
<text text-anchor="start" x="1622" y="-29.5" font-family="Helvetica,sans-Serif" font-size="10.00" fill="#000000"># compute_impl()</text>
</a>
</g>
</g>
<!-- Node0&#45;&gt;Node14 -->
<g id="edge14" class="edge">
<title>Node0&#45;&gt;Node14</title>
<path fill="none" stroke="#191970" d="M897.8197,-198.9426C1039.5371,-195.0616 1476.1661,-178.8363 1605,-124 1617.5456,-118.6601 1629.544,-110.3799 1640.0585,-101.5909"/>
<polygon fill="none" stroke="#191970" points="897.6469,-195.4459 887.7437,-199.2112 897.8335,-202.4434 897.6469,-195.4459"/>
</g>
<!-- Node1 -->
<g id="node2" class="node">
<title>Node1</title>
<g id="a_node2"><a xlink:href="classUpdater.html" target="_top" xlink:title="Updater is an abstract class to update data held by an Element object. ">
<polygon fill="#ffffff" stroke="#000000" points="788,-276.5 788,-421.5 918,-421.5 918,-276.5 788,-276.5"/>
<text text-anchor="middle" x="853" y="-409.5" font-family="Helvetica,sans-Serif" font-size="10.00" fill="#000000">Updater</text>
<polyline fill="none" stroke="#000000" points="788,-402.5 918,-402.5 "/>
<text text-anchor="start" x="796" y="-390.5" font-family="Helvetica,sans-Serif" font-size="10.00" fill="#000000"># ext_generator</text>
<text text-anchor="start" x="796" y="-379.5" font-family="Helvetica,sans-Serif" font-size="10.00" fill="#000000">&#45; dataid_blacklist</text>
<text text-anchor="start" x="796" y="-368.5" font-family="Helvetica,sans-Serif" font-size="10.00" fill="#000000">&#45; omp_lock</text>
<polyline fill="none" stroke="#000000" points="788,-361.5 918,-361.5 "/>
<text text-anchor="start" x="796" y="-349.5" font-family="Helvetica,sans-Serif" font-size="10.00" fill="#000000">+ Updater()</text>
<text text-anchor="start" x="796" y="-338.5" font-family="Helvetica,sans-Serif" font-size="10.00" fill="#000000">+ ~Updater()</text>
<text text-anchor="start" x="796" y="-327.5" font-family="Helvetica,sans-Serif" font-size="10.00" fill="#000000">+ compute()</text>
<text text-anchor="start" x="796" y="-316.5" font-family="Helvetica,sans-Serif" font-size="10.00" fill="#000000">+ remove_from_blacklist()</text>
<text text-anchor="start" x="796" y="-305.5" font-family="Helvetica,sans-Serif" font-size="10.00" fill="#000000">+ get_ext_generator()</text>
<text text-anchor="start" x="796" y="-294.5" font-family="Helvetica,sans-Serif" font-size="10.00" fill="#000000"># compute_impl()</text>
<text text-anchor="start" x="796" y="-283.5" font-family="Helvetica,sans-Serif" font-size="10.00" fill="#000000"># check_blacklist()</text>
</a>
</g>
</g>
<!-- Node1&#45;&gt;Node0 -->
<g id="edge1" class="edge">
<title>Node1&#45;&gt;Node0</title>
<path fill="none" stroke="#191970" d="M853,-265.9585C853,-256.8854 853,-247.9835 853,-239.8008"/>
<polygon fill="none" stroke="#191970" points="849.5001,-266.2459 853,-276.246 856.5001,-266.246 849.5001,-266.2459"/>
</g>
</g>
</svg>
