<?xml version="1.0" encoding="UTF-8" standalone="no"?>
<!DOCTYPE svg PUBLIC "-//W3C//DTD SVG 1.1//EN"
 "http://www.w3.org/Graphics/SVG/1.1/DTD/svg11.dtd">
<!-- Generated by graphviz version 2.40.1 (20161225.0304)
 -->
<!-- Title: Processor::say_hello Pages: 1 -->
<svg width="299pt" height="127pt"
 viewBox="0.00 0.00 299.00 126.50" xmlns="http://www.w3.org/2000/svg" xmlns:xlink="http://www.w3.org/1999/xlink">
<g id="graph0" class="graph" transform="scale(1 1) rotate(0) translate(4 122.5)">
<title>Processor::say_hello</title>
<polygon fill="#ffffff" stroke="transparent" points="-4,4 -4,-122.5 295,-122.5 295,4 -4,4"/>
<!-- Node32 -->
<g id="node1" class="node">
<title>Node32</title>
<polygon fill="#bfbfbf" stroke="#000000" points="0,-44.5 0,-63.5 108,-63.5 108,-44.5 0,-44.5"/>
<text text-anchor="middle" x="54" y="-51.5" font-family="Helvetica,sans-Serif" font-size="10.00" fill="#000000">Processor::say_hello</text>
</g>
<!-- Node33 -->
<g id="node2" class="node">
<title>Node33</title>
<g id="a_node2"><a xlink:href="classProMeanSquareDisplacement.html#a712c0f5baedaaf562fdb16d5645837d5" target="_top" xlink:title="Set initial positions and resize displacement2_traj. ">
<polygon fill="#ffffff" stroke="#000000" points="144.5,-88 144.5,-118 290.5,-118 290.5,-88 144.5,-88"/>
<text text-anchor="start" x="152.5" y="-106" font-family="Helvetica,sans-Serif" font-size="10.00" fill="#000000">ProMeanSquareDisplacement</text>
<text text-anchor="middle" x="217.5" y="-95" font-family="Helvetica,sans-Serif" font-size="10.00" fill="#000000">::prepare</text>
</a>
</g>
</g>
<!-- Node32&#45;&gt;Node33 -->
<g id="edge1" class="edge">
<title>Node32&#45;&gt;Node33</title>
<path fill="none" stroke="#191970" d="M95.5559,-66.4541C117.3954,-72.9992 144.3298,-81.0713 167.3256,-87.963"/>
<polygon fill="#191970" stroke="#191970" points="96.4965,-63.0822 85.9126,-63.564 94.4869,-69.7876 96.4965,-63.0822"/>
</g>
<!-- Node34 -->
<g id="node3" class="node">
<title>Node34</title>
<g id="a_node3"><a xlink:href="classProTimeCorrelationInMolecule.html#a8368ef9e43e92c51b3b8ed31b1519e3d" target="_top" xlink:title="Set initial vectors and resize coefficients_traj. ">
<polygon fill="#ffffff" stroke="#000000" points="144,-39 144,-69 291,-69 291,-39 144,-39"/>
<text text-anchor="start" x="152" y="-57" font-family="Helvetica,sans-Serif" font-size="10.00" fill="#000000">ProTimeCorrelationInMolecule</text>
<text text-anchor="middle" x="217.5" y="-46" font-family="Helvetica,sans-Serif" font-size="10.00" fill="#000000">::prepare</text>
</a>
</g>
</g>
<!-- Node32&#45;&gt;Node34 -->
<g id="edge2" class="edge">
<title>Node32&#45;&gt;Node34</title>
<path fill="none" stroke="#191970" d="M118.4448,-54C126.7665,-54 135.3389,-54 143.7954,-54"/>
<polygon fill="#191970" stroke="#191970" points="118.4432,-50.5001 108.4431,-54 118.4431,-57.5001 118.4432,-50.5001"/>
</g>
<!-- Node35 -->
<g id="node4" class="node">
<title>Node35</title>
<g id="a_node4"><a xlink:href="classProcessor.html#a929cbeccc7a4120da4a58ef7f7a609b1" target="_top" xlink:title="Run analysis using i th Generator object in generators, where i = i_generator. ">
<polygon fill="#ffffff" stroke="#000000" points="177.5,-.5 177.5,-19.5 257.5,-19.5 257.5,-.5 177.5,-.5"/>
<text text-anchor="middle" x="217.5" y="-7.5" font-family="Helvetica,sans-Serif" font-size="10.00" fill="#000000">Processor::run</text>
</a>
</g>
</g>
<!-- Node32&#45;&gt;Node35 -->
<g id="edge3" class="edge">
<title>Node32&#45;&gt;Node35</title>
<path fill="none" stroke="#191970" d="M99.1658,-41.8453C125.3287,-34.8045 157.7899,-26.0688 182.0922,-19.5287"/>
<polygon fill="#191970" stroke="#191970" points="98.2239,-38.4741 89.4771,-44.4527 100.0431,-45.2337 98.2239,-38.4741"/>
</g>
</g>
</svg>
