<?xml version="1.0" encoding="UTF-8" standalone="no"?>
<!DOCTYPE svg PUBLIC "-//W3C//DTD SVG 1.1//EN"
 "http://www.w3.org/Graphics/SVG/1.1/DTD/svg11.dtd">
<!-- Generated by graphviz version 2.40.1 (20161225.0304)
 -->
<!-- Title: AddCoMPosition Pages: 1 -->
<svg width="160pt" height="568pt"
 viewBox="0.00 0.00 160.00 568.00" xmlns="http://www.w3.org/2000/svg" xmlns:xlink="http://www.w3.org/1999/xlink">
<g id="graph0" class="graph" transform="scale(1 1) rotate(0) translate(4 564)">
<title>AddCoMPosition</title>
<polygon fill="#ffffff" stroke="transparent" points="-4,4 -4,-564 156,-564 156,4 -4,4"/>
<!-- Node0 -->
<g id="node1" class="node">
<title>Node0</title>
<polygon fill="#bfbfbf" stroke="#000000" points="6,-.5 6,-101.5 146,-101.5 146,-.5 6,-.5"/>
<text text-anchor="middle" x="76" y="-89.5" font-family="Helvetica,sans-Serif" font-size="10.00" fill="#000000">AddCoMPosition</text>
<polyline fill="none" stroke="#000000" points="6,-82.5 146,-82.5 "/>
<text text-anchor="middle" x="76" y="-70.5" font-family="Helvetica,sans-Serif" font-size="10.00" fill="#000000"> </text>
<polyline fill="none" stroke="#000000" points="6,-63.5 146,-63.5 "/>
<text text-anchor="start" x="14" y="-51.5" font-family="Helvetica,sans-Serif" font-size="10.00" fill="#000000">+ AddCoMPosition()</text>
<text text-anchor="start" x="14" y="-40.5" font-family="Helvetica,sans-Serif" font-size="10.00" fill="#000000">+ ~AddCoMPosition()</text>
<text text-anchor="start" x="14" y="-29.5" font-family="Helvetica,sans-Serif" font-size="10.00" fill="#000000"># compute_impl()</text>
<text text-anchor="start" x="14" y="-18.5" font-family="Helvetica,sans-Serif" font-size="10.00" fill="#000000">&#45; compute_with_weights()</text>
<text text-anchor="start" x="14" y="-7.5" font-family="Helvetica,sans-Serif" font-size="10.00" fill="#000000">&#45; compute_without_weights()</text>
</g>
<!-- Node1 -->
<g id="node2" class="node">
<title>Node1</title>
<g id="a_node2"><a xlink:href="classAdder.html" target="_top" xlink:title="Adder adds new properties to a non&#45;empty Element object. ">
<polygon fill="#ffffff" stroke="#000000" points="41.5,-138.5 41.5,-217.5 110.5,-217.5 110.5,-138.5 41.5,-138.5"/>
<text text-anchor="middle" x="76" y="-205.5" font-family="Helvetica,sans-Serif" font-size="10.00" fill="#000000">Adder</text>
<polyline fill="none" stroke="#000000" points="41.5,-198.5 110.5,-198.5 "/>
<text text-anchor="middle" x="76" y="-186.5" font-family="Helvetica,sans-Serif" font-size="10.00" fill="#000000"> </text>
<polyline fill="none" stroke="#000000" points="41.5,-179.5 110.5,-179.5 "/>
<text text-anchor="start" x="49.5" y="-167.5" font-family="Helvetica,sans-Serif" font-size="10.00" fill="#000000">+ ~Adder()</text>
<text text-anchor="start" x="49.5" y="-156.5" font-family="Helvetica,sans-Serif" font-size="10.00" fill="#000000">+ compute()</text>
<text text-anchor="start" x="49.5" y="-145.5" font-family="Helvetica,sans-Serif" font-size="10.00" fill="#000000">+ Updater()</text>
</a>
</g>
</g>
<!-- Node1&#45;&gt;Node0 -->
<g id="edge1" class="edge">
<title>Node1&#45;&gt;Node0</title>
<path fill="none" stroke="#191970" d="M76,-127.9396C76,-119.3816 76,-110.4823 76,-101.9026"/>
<polygon fill="none" stroke="#191970" points="72.5001,-128.1648 76,-138.1649 79.5001,-128.1649 72.5001,-128.1648"/>
</g>
<!-- Node2 -->
<g id="node3" class="node">
<title>Node2</title>
<g id="a_node3"><a xlink:href="classUpdater.html" target="_top" xlink:title="Updater is an abstract class to update data held by an Element object. ">
<polygon fill="#ffffff" stroke="#000000" points="0,-254.5 0,-454.5 152,-454.5 152,-254.5 0,-254.5"/>
<text text-anchor="middle" x="76" y="-442.5" font-family="Helvetica,sans-Serif" font-size="10.00" fill="#000000">Updater</text>
<polyline fill="none" stroke="#000000" points="0,-435.5 152,-435.5 "/>
<text text-anchor="start" x="8" y="-423.5" font-family="Helvetica,sans-Serif" font-size="10.00" fill="#000000"># ext_generator</text>
<text text-anchor="start" x="8" y="-412.5" font-family="Helvetica,sans-Serif" font-size="10.00" fill="#000000"># check_required_keys</text>
<text text-anchor="start" x="8" y="-401.5" font-family="Helvetica,sans-Serif" font-size="10.00" fill="#000000"># check_optional_keys</text>
<text text-anchor="start" x="8" y="-390.5" font-family="Helvetica,sans-Serif" font-size="10.00" fill="#000000">&#45; skippable_elementids</text>
<text text-anchor="start" x="8" y="-379.5" font-family="Helvetica,sans-Serif" font-size="10.00" fill="#000000">&#45; omp_lock</text>
<polyline fill="none" stroke="#000000" points="0,-372.5 152,-372.5 "/>
<text text-anchor="start" x="8" y="-360.5" font-family="Helvetica,sans-Serif" font-size="10.00" fill="#000000">+ Updater()</text>
<text text-anchor="start" x="8" y="-349.5" font-family="Helvetica,sans-Serif" font-size="10.00" fill="#000000">+ ~Updater()</text>
<text text-anchor="start" x="8" y="-338.5" font-family="Helvetica,sans-Serif" font-size="10.00" fill="#000000">+ compute()</text>
<text text-anchor="start" x="8" y="-327.5" font-family="Helvetica,sans-Serif" font-size="10.00" fill="#000000">+ remove_from_skippable</text>
<text text-anchor="start" x="8" y="-316.5" font-family="Helvetica,sans-Serif" font-size="10.00" fill="#000000">_elementids()</text>
<text text-anchor="start" x="8" y="-305.5" font-family="Helvetica,sans-Serif" font-size="10.00" fill="#000000">+ get_ext_generator()</text>
<text text-anchor="start" x="8" y="-294.5" font-family="Helvetica,sans-Serif" font-size="10.00" fill="#000000"># compute_impl()</text>
<text text-anchor="start" x="8" y="-283.5" font-family="Helvetica,sans-Serif" font-size="10.00" fill="#000000"># make_check_required_keys()</text>
<text text-anchor="start" x="8" y="-272.5" font-family="Helvetica,sans-Serif" font-size="10.00" fill="#000000"># make_check_optional_keys()</text>
<text text-anchor="start" x="8" y="-261.5" font-family="Helvetica,sans-Serif" font-size="10.00" fill="#000000"># check_update_requirest_for()</text>
</a>
</g>
</g>
<!-- Node2&#45;&gt;Node1 -->
<g id="edge2" class="edge">
<title>Node2&#45;&gt;Node1</title>
<path fill="none" stroke="#191970" d="M76,-244.191C76,-234.8995 76,-225.9565 76,-217.8112"/>
<polygon fill="none" stroke="#191970" points="72.5001,-244.3889 76,-254.3889 79.5001,-244.389 72.5001,-244.3889"/>
</g>
<!-- Node3 -->
<g id="node4" class="node">
<title>Node3</title>
<polygon fill="#ffffff" stroke="#bfbfbf" points="19,-491.5 19,-559.5 133,-559.5 133,-491.5 19,-491.5"/>
<text text-anchor="start" x="27" y="-547.5" font-family="Helvetica,sans-Serif" font-size="10.00" fill="#000000">std::enable_shared</text>
<text text-anchor="middle" x="76" y="-536.5" font-family="Helvetica,sans-Serif" font-size="10.00" fill="#000000">_from_this&lt; Updater &gt;</text>
<polyline fill="none" stroke="#bfbfbf" points="19,-529.5 133,-529.5 "/>
<text text-anchor="middle" x="76" y="-517.5" font-family="Helvetica,sans-Serif" font-size="10.00" fill="#000000"> </text>
<polyline fill="none" stroke="#bfbfbf" points="19,-510.5 133,-510.5 "/>
<text text-anchor="middle" x="76" y="-498.5" font-family="Helvetica,sans-Serif" font-size="10.00" fill="#000000"> </text>
</g>
<!-- Node3&#45;&gt;Node2 -->
<g id="edge3" class="edge">
<title>Node3&#45;&gt;Node2</title>
<path fill="none" stroke="#191970" d="M76,-481.1502C76,-472.816 76,-463.7968 76,-454.5434"/>
<polygon fill="none" stroke="#191970" points="72.5001,-481.3065 76,-491.3066 79.5001,-481.3066 72.5001,-481.3065"/>
</g>
</g>
</svg>
