<?xml version="1.0" encoding="UTF-8" standalone="no"?>
<!DOCTYPE svg PUBLIC "-//W3C//DTD SVG 1.1//EN"
 "http://www.w3.org/Graphics/SVG/1.1/DTD/svg11.dtd">
<!-- Generated by graphviz version 2.40.1 (20161225.0304)
 -->
<!-- Title: Starter Pages: 1 -->
<!--zoomable 695 -->
<svg id="main" version="1.1" xmlns="http://www.w3.org/2000/svg" xmlns:xlink="http://www.w3.org/1999/xlink" xml:space="preserve" onload="init(evt)">
<style type="text/css"><![CDATA[
.edge:hover path { stroke: red; }
.edge:hover polygon { stroke: red; fill: red; }
]]></style>
<script type="text/javascript"><![CDATA[
var edges = document.getElementsByTagName('g');
if (edges && edges.length) {
  for (var i=0;i<edges.length;i++) {
    if (edges[i].id.substr(0,4)=='edge') {
      edges[i].setAttribute('class','edge');
    }
  }
}
]]></script>
        <defs>
                <circle id="rim" cx="0" cy="0" r="7"/>
                <circle id="rim2" cx="0" cy="0" r="3.5"/>
                <g id="zoomPlus">
                        <use xlink:href="#rim" fill="#404040">
                                <set attributeName="fill" to="#808080" begin="zoomplus.mouseover" end="zoomplus.mouseout"/>
                        </use>
                        <path d="M-4,0h8M0,-4v8" fill="none" stroke="white" stroke-width="1.5" pointer-events="none"/>
                </g>
                <g id="zoomMin">
                        <use xlink:href="#rim" fill="#404040">
                                <set attributeName="fill" to="#808080" begin="zoomminus.mouseover" end="zoomminus.mouseout"/>
                        </use>
                        <path d="M-4,0h8" fill="none" stroke="white" stroke-width="1.5" pointer-events="none"/>
                </g>
                <g id="dirArrow">
                        <path fill="none" stroke="white" stroke-width="1.5" d="M0,-3.0v7 M-2.5,-0.5L0,-3.0L2.5,-0.5"/>
                </g>
               <g id="resetDef">
                       <use xlink:href="#rim2" fill="#404040">
                               <set attributeName="fill" to="#808080" begin="reset.mouseover" end="reset.mouseout"/>
                       </use>
               </g>
        </defs>

<script type="text/javascript">
var viewWidth = 577;
var viewHeight = 695;
var sectionId = 'dynsection-0';
</script>
<script xlink:href="svgpan.js"/>
<svg id="graph" class="graph">
<g id="viewport">
<title>Starter</title>
<polygon fill="#ffffff" stroke="transparent" points="-4,4 -4,-691 573,-691 573,4 -4,4"/>
<!-- Node0 -->
<g id="node1" class="node">
<title>Node0</title>
<polygon fill="#bfbfbf" stroke="#000000" points="262.5,-265.5 262.5,-355.5 360.5,-355.5 360.5,-265.5 262.5,-265.5"/>
<text text-anchor="middle" x="311.5" y="-343.5" font-family="Helvetica,sans-Serif" font-size="10.00" fill="#000000">Starter</text>
<polyline fill="none" stroke="#000000" points="262.5,-336.5 360.5,-336.5 "/>
<text text-anchor="start" x="270.5" y="-324.5" font-family="Helvetica,sans-Serif" font-size="10.00" fill="#000000"># do_sorting_by_id</text>
<polyline fill="none" stroke="#000000" points="262.5,-317.5 360.5,-317.5 "/>
<text text-anchor="start" x="270.5" y="-305.5" font-family="Helvetica,sans-Serif" font-size="10.00" fill="#000000">+ ~Starter()</text>
<text text-anchor="start" x="270.5" y="-294.5" font-family="Helvetica,sans-Serif" font-size="10.00" fill="#000000">+ compute()</text>
<text text-anchor="start" x="270.5" y="-283.5" font-family="Helvetica,sans-Serif" font-size="10.00" fill="#000000">+ Updater()</text>
<text text-anchor="start" x="270.5" y="-272.5" font-family="Helvetica,sans-Serif" font-size="10.00" fill="#000000">&#45; sort_by_id()</text>
</g>
<!-- Node3 -->
<g id="node4" class="node">
<title>Node3</title>
<g id="a_node4"><a xlink:href="classStaBeads.html" target="_top" xlink:title="StaBeads sets properties for beads using mapping (coarse&#45;graining) scheme for each molecule...">
<polygon fill="#ffffff" stroke="#000000" points="0,-116.5 0,-228.5 131,-228.5 131,-116.5 0,-116.5"/>
<text text-anchor="middle" x="65.5" y="-216.5" font-family="Helvetica,sans-Serif" font-size="10.00" fill="#000000">StaBeads</text>
<polyline fill="none" stroke="#000000" points="0,-209.5 131,-209.5 "/>
<text text-anchor="start" x="8" y="-197.5" font-family="Helvetica,sans-Serif" font-size="10.00" fill="#000000">&#45; mol_type_to_abst_beads</text>
<polyline fill="none" stroke="#000000" points="0,-190.5 131,-190.5 "/>
<text text-anchor="start" x="8" y="-178.5" font-family="Helvetica,sans-Serif" font-size="10.00" fill="#000000">+ StaBeads()</text>
<text text-anchor="start" x="8" y="-167.5" font-family="Helvetica,sans-Serif" font-size="10.00" fill="#000000">+ StaBeads()</text>
<text text-anchor="start" x="8" y="-156.5" font-family="Helvetica,sans-Serif" font-size="10.00" fill="#000000">+ ~StaBeads()</text>
<text text-anchor="start" x="8" y="-145.5" font-family="Helvetica,sans-Serif" font-size="10.00" fill="#000000"># compute_impl()</text>
<text text-anchor="start" x="8" y="-134.5" font-family="Helvetica,sans-Serif" font-size="10.00" fill="#000000">&#45; check_mol_type_to_abst</text>
<text text-anchor="start" x="8" y="-123.5" font-family="Helvetica,sans-Serif" font-size="10.00" fill="#000000">_beads()</text>
</a>
</g>
</g>
<!-- Node0&#45;&gt;Node3 -->
<g id="edge3" class="edge">
<title>Node0&#45;&gt;Node3</title>
<path fill="none" stroke="#191970" d="M252.9697,-286.1116C219.2217,-271.195 176.4838,-250.8247 140.5,-229 137.4335,-227.1401 134.3401,-225.1826 131.2472,-223.1581"/>
<polygon fill="none" stroke="#191970" points="251.6728,-289.3645 262.2369,-290.1708 254.4814,-282.9526 251.6728,-289.3645"/>
</g>
<!-- Node4 -->
<g id="node5" class="node">
<title>Node4</title>
<g id="a_node5"><a xlink:href="classStaCopy.html" target="_top" xlink:title="StaCopy copies Element::data of an existing Element object and sets it to a new Element object...">
<polygon fill="#ffffff" stroke="#000000" points="149.5,-133 149.5,-212 247.5,-212 247.5,-133 149.5,-133"/>
<text text-anchor="middle" x="198.5" y="-200" font-family="Helvetica,sans-Serif" font-size="10.00" fill="#000000">StaCopy</text>
<polyline fill="none" stroke="#000000" points="149.5,-193 247.5,-193 "/>
<text text-anchor="start" x="157.5" y="-181" font-family="Helvetica,sans-Serif" font-size="10.00" fill="#000000"># do_sorting_by_id</text>
<polyline fill="none" stroke="#000000" points="149.5,-174 247.5,-174 "/>
<text text-anchor="start" x="157.5" y="-162" font-family="Helvetica,sans-Serif" font-size="10.00" fill="#000000">+ StaCopy()</text>
<text text-anchor="start" x="157.5" y="-151" font-family="Helvetica,sans-Serif" font-size="10.00" fill="#000000">+ ~StaCopy()</text>
<text text-anchor="start" x="157.5" y="-140" font-family="Helvetica,sans-Serif" font-size="10.00" fill="#000000"># compute_impl()</text>
</a>
</g>
</g>
<!-- Node0&#45;&gt;Node4 -->
<g id="edge4" class="edge">
<title>Node0&#45;&gt;Node4</title>
<path fill="none" stroke="#191970" d="M268.1435,-257.5514C255.8091,-242.4881 242.5899,-226.3443 231.0185,-212.2128"/>
<polygon fill="none" stroke="#191970" points="265.4561,-259.794 274.4996,-265.3136 270.8721,-255.3591 265.4561,-259.794"/>
</g>
<!-- Node5 -->
<g id="node6" class="node">
<title>Node5</title>
<g id="a_node6"><a xlink:href="classStaCustom.html" target="_top" xlink:title="StaCustom sets an user&#45;defined Json object to a new Element object as its Element::data. ">
<polygon fill="#ffffff" stroke="#000000" points="265.5,-133 265.5,-212 357.5,-212 357.5,-133 265.5,-133"/>
<text text-anchor="middle" x="311.5" y="-200" font-family="Helvetica,sans-Serif" font-size="10.00" fill="#000000">StaCustom</text>
<polyline fill="none" stroke="#000000" points="265.5,-193 357.5,-193 "/>
<text text-anchor="start" x="273.5" y="-181" font-family="Helvetica,sans-Serif" font-size="10.00" fill="#000000">&#45; json</text>
<polyline fill="none" stroke="#000000" points="265.5,-174 357.5,-174 "/>
<text text-anchor="start" x="273.5" y="-162" font-family="Helvetica,sans-Serif" font-size="10.00" fill="#000000">+ StaCustom()</text>
<text text-anchor="start" x="273.5" y="-151" font-family="Helvetica,sans-Serif" font-size="10.00" fill="#000000">+ ~StaCustom()</text>
<text text-anchor="start" x="273.5" y="-140" font-family="Helvetica,sans-Serif" font-size="10.00" fill="#000000"># compute_impl()</text>
</a>
</g>
</g>
<!-- Node0&#45;&gt;Node5 -->
<g id="edge5" class="edge">
<title>Node0&#45;&gt;Node5</title>
<path fill="none" stroke="#191970" d="M311.5,-255.0546C311.5,-240.7169 311.5,-225.5664 311.5,-212.2128"/>
<polygon fill="none" stroke="#191970" points="308.0001,-255.3136 311.5,-265.3136 315.0001,-255.3137 308.0001,-255.3136"/>
</g>
<!-- Node6 -->
<g id="node7" class="node">
<title>Node6</title>
<g id="a_node7"><a xlink:href="classStaDump.html" target="_top" xlink:title="StaDump is an abstract class whose subclasses read a Lammps&#39; dump file. ">
<polygon fill="#ffffff" stroke="#000000" points="375.5,-133 375.5,-212 453.5,-212 453.5,-133 375.5,-133"/>
<text text-anchor="middle" x="414.5" y="-200" font-family="Helvetica,sans-Serif" font-size="10.00" fill="#000000">StaDump</text>
<polyline fill="none" stroke="#000000" points="375.5,-193 453.5,-193 "/>
<text text-anchor="start" x="383.5" y="-181" font-family="Helvetica,sans-Serif" font-size="10.00" fill="#000000"># timestep</text>
<text text-anchor="start" x="383.5" y="-170" font-family="Helvetica,sans-Serif" font-size="10.00" fill="#000000"># filepath</text>
<polyline fill="none" stroke="#000000" points="375.5,-163 453.5,-163 "/>
<text text-anchor="start" x="383.5" y="-151" font-family="Helvetica,sans-Serif" font-size="10.00" fill="#000000">+ StaDump()</text>
<text text-anchor="start" x="383.5" y="-140" font-family="Helvetica,sans-Serif" font-size="10.00" fill="#000000">+ ~StaDump()</text>
</a>
</g>
</g>
<!-- Node0&#45;&gt;Node6 -->
<g id="edge6" class="edge">
<title>Node0&#45;&gt;Node6</title>
<path fill="none" stroke="#191970" d="M351.3293,-257.1365C362.4835,-242.1921 374.4086,-226.2146 384.8593,-212.2128"/>
<polygon fill="none" stroke="#191970" points="348.4026,-255.2062 345.2261,-265.3136 354.0124,-259.3932 348.4026,-255.2062"/>
</g>
<!-- Node9 -->
<g id="node10" class="node">
<title>Node9</title>
<g id="a_node10"><a xlink:href="classStaMolecules.html" target="_top" xlink:title="StaMolecules sets properties for molecules using atoms forming the molecules. ">
<polygon fill="#ffffff" stroke="#000000" points="472,-133 472,-212 569,-212 569,-133 472,-133"/>
<text text-anchor="middle" x="520.5" y="-200" font-family="Helvetica,sans-Serif" font-size="10.00" fill="#000000">StaMolecules</text>
<polyline fill="none" stroke="#000000" points="472,-193 569,-193 "/>
<text text-anchor="middle" x="520.5" y="-181" font-family="Helvetica,sans-Serif" font-size="10.00" fill="#000000"> </text>
<polyline fill="none" stroke="#000000" points="472,-174 569,-174 "/>
<text text-anchor="start" x="480" y="-162" font-family="Helvetica,sans-Serif" font-size="10.00" fill="#000000">+ StaMolecules()</text>
<text text-anchor="start" x="480" y="-151" font-family="Helvetica,sans-Serif" font-size="10.00" fill="#000000">+ ~StaMolecules()</text>
<text text-anchor="start" x="480" y="-140" font-family="Helvetica,sans-Serif" font-size="10.00" fill="#000000"># compute_impl()</text>
</a>
</g>
</g>
<!-- Node0&#45;&gt;Node9 -->
<g id="edge9" class="edge">
<title>Node0&#45;&gt;Node9</title>
<path fill="none" stroke="#191970" d="M369.9961,-283.6956C398.9678,-269.2546 433.7964,-250.0875 462.5,-229 469.4106,-223.9231 476.3209,-218.0577 482.8388,-212.0678"/>
<polygon fill="none" stroke="#191970" points="368.2385,-280.6596 360.8107,-288.2146 371.3286,-286.9406 368.2385,-280.6596"/>
</g>
<!-- Node1 -->
<g id="node2" class="node">
<title>Node1</title>
<g id="a_node2"><a xlink:href="classUpdater.html" target="_top" xlink:title="Updater is an abstract class to update data held by an Element object. ">
<polygon fill="#ffffff" stroke="#000000" points="246.5,-392.5 246.5,-581.5 376.5,-581.5 376.5,-392.5 246.5,-392.5"/>
<text text-anchor="middle" x="311.5" y="-569.5" font-family="Helvetica,sans-Serif" font-size="10.00" fill="#000000">Updater</text>
<polyline fill="none" stroke="#000000" points="246.5,-562.5 376.5,-562.5 "/>
<text text-anchor="start" x="254.5" y="-550.5" font-family="Helvetica,sans-Serif" font-size="10.00" fill="#000000"># ext_generator</text>
<text text-anchor="start" x="254.5" y="-539.5" font-family="Helvetica,sans-Serif" font-size="10.00" fill="#000000"># required_keys</text>
<text text-anchor="start" x="254.5" y="-528.5" font-family="Helvetica,sans-Serif" font-size="10.00" fill="#000000"># optional_keys</text>
<text text-anchor="start" x="254.5" y="-517.5" font-family="Helvetica,sans-Serif" font-size="10.00" fill="#000000">&#45; dataid_blacklist</text>
<text text-anchor="start" x="254.5" y="-506.5" font-family="Helvetica,sans-Serif" font-size="10.00" fill="#000000">&#45; omp_lock</text>
<polyline fill="none" stroke="#000000" points="246.5,-499.5 376.5,-499.5 "/>
<text text-anchor="start" x="254.5" y="-487.5" font-family="Helvetica,sans-Serif" font-size="10.00" fill="#000000">+ Updater()</text>
<text text-anchor="start" x="254.5" y="-476.5" font-family="Helvetica,sans-Serif" font-size="10.00" fill="#000000">+ ~Updater()</text>
<text text-anchor="start" x="254.5" y="-465.5" font-family="Helvetica,sans-Serif" font-size="10.00" fill="#000000">+ compute()</text>
<text text-anchor="start" x="254.5" y="-454.5" font-family="Helvetica,sans-Serif" font-size="10.00" fill="#000000">+ remove_from_blacklist()</text>
<text text-anchor="start" x="254.5" y="-443.5" font-family="Helvetica,sans-Serif" font-size="10.00" fill="#000000">+ get_ext_generator()</text>
<text text-anchor="start" x="254.5" y="-432.5" font-family="Helvetica,sans-Serif" font-size="10.00" fill="#000000"># compute_impl()</text>
<text text-anchor="start" x="254.5" y="-421.5" font-family="Helvetica,sans-Serif" font-size="10.00" fill="#000000"># make_required_keys()</text>
<text text-anchor="start" x="254.5" y="-410.5" font-family="Helvetica,sans-Serif" font-size="10.00" fill="#000000"># make_optional_keys()</text>
<text text-anchor="start" x="254.5" y="-399.5" font-family="Helvetica,sans-Serif" font-size="10.00" fill="#000000"># check_blacklist()</text>
</a>
</g>
</g>
<!-- Node1&#45;&gt;Node0 -->
<g id="edge1" class="edge">
<title>Node1&#45;&gt;Node0</title>
<path fill="none" stroke="#191970" d="M311.5,-382.1839C311.5,-372.9415 311.5,-363.9505 311.5,-355.6363"/>
<polygon fill="none" stroke="#191970" points="308.0001,-382.2915 311.5,-392.2915 315.0001,-382.2915 308.0001,-382.2915"/>
</g>
<!-- Node2 -->
<g id="node3" class="node">
<title>Node2</title>
<polygon fill="#ffffff" stroke="#bfbfbf" points="254.5,-618.5 254.5,-686.5 368.5,-686.5 368.5,-618.5 254.5,-618.5"/>
<text text-anchor="start" x="262.5" y="-674.5" font-family="Helvetica,sans-Serif" font-size="10.00" fill="#000000">std::enable_shared</text>
<text text-anchor="middle" x="311.5" y="-663.5" font-family="Helvetica,sans-Serif" font-size="10.00" fill="#000000">_from_this&lt; Updater &gt;</text>
<polyline fill="none" stroke="#bfbfbf" points="254.5,-656.5 368.5,-656.5 "/>
<text text-anchor="middle" x="311.5" y="-644.5" font-family="Helvetica,sans-Serif" font-size="10.00" fill="#000000"> </text>
<polyline fill="none" stroke="#bfbfbf" points="254.5,-637.5 368.5,-637.5 "/>
<text text-anchor="middle" x="311.5" y="-625.5" font-family="Helvetica,sans-Serif" font-size="10.00" fill="#000000"> </text>
</g>
<!-- Node2&#45;&gt;Node1 -->
<g id="edge2" class="edge">
<title>Node2&#45;&gt;Node1</title>
<path fill="none" stroke="#191970" d="M311.5,-608.0888C311.5,-599.7937 311.5,-590.8388 311.5,-581.6848"/>
<polygon fill="none" stroke="#191970" points="308.0001,-608.2083 311.5,-618.2083 315.0001,-608.2083 308.0001,-608.2083"/>
</g>
<!-- Node7 -->
<g id="node8" class="node">
<title>Node7</title>
<g id="a_node8"><a xlink:href="classStaDumpAtoms.html" target="_top" xlink:title="StaDumpAtoms reads a Lammps&#39; dump file and sets properties for atoms. ">
<polygon fill="#ffffff" stroke="#000000" points="302,-.5 302,-79.5 409,-79.5 409,-.5 302,-.5"/>
<text text-anchor="middle" x="355.5" y="-67.5" font-family="Helvetica,sans-Serif" font-size="10.00" fill="#000000">StaDumpAtoms</text>
<polyline fill="none" stroke="#000000" points="302,-60.5 409,-60.5 "/>
<text text-anchor="middle" x="355.5" y="-48.5" font-family="Helvetica,sans-Serif" font-size="10.00" fill="#000000"> </text>
<polyline fill="none" stroke="#000000" points="302,-41.5 409,-41.5 "/>
<text text-anchor="start" x="310" y="-29.5" font-family="Helvetica,sans-Serif" font-size="10.00" fill="#000000">+ ~StaDumpAtoms()</text>
<text text-anchor="start" x="310" y="-18.5" font-family="Helvetica,sans-Serif" font-size="10.00" fill="#000000">+ StaDump()</text>
<text text-anchor="start" x="310" y="-7.5" font-family="Helvetica,sans-Serif" font-size="10.00" fill="#000000"># compute_impl()</text>
</a>
</g>
</g>
<!-- Node6&#45;&gt;Node7 -->
<g id="edge7" class="edge">
<title>Node6&#45;&gt;Node7</title>
<path fill="none" stroke="#191970" d="M392.6697,-123.4743C386.252,-109.0618 379.314,-93.4806 373.1895,-79.7263"/>
<polygon fill="none" stroke="#191970" points="389.5329,-125.0341 396.7981,-132.7456 395.9276,-122.1866 389.5329,-125.0341"/>
</g>
<!-- Node8 -->
<g id="node9" class="node">
<title>Node8</title>
<g id="a_node9"><a xlink:href="classStaDumpBox.html" target="_top" xlink:title="StaDumpBox reads a Lammps&#39; dump file and sets properties for simulation box. ">
<polygon fill="#ffffff" stroke="#000000" points="427,-.5 427,-79.5 522,-79.5 522,-.5 427,-.5"/>
<text text-anchor="middle" x="474.5" y="-67.5" font-family="Helvetica,sans-Serif" font-size="10.00" fill="#000000">StaDumpBox</text>
<polyline fill="none" stroke="#000000" points="427,-60.5 522,-60.5 "/>
<text text-anchor="middle" x="474.5" y="-48.5" font-family="Helvetica,sans-Serif" font-size="10.00" fill="#000000"> </text>
<polyline fill="none" stroke="#000000" points="427,-41.5 522,-41.5 "/>
<text text-anchor="start" x="435" y="-29.5" font-family="Helvetica,sans-Serif" font-size="10.00" fill="#000000">+ ~StaDumpBox()</text>
<text text-anchor="start" x="435" y="-18.5" font-family="Helvetica,sans-Serif" font-size="10.00" fill="#000000">+ StaDump()</text>
<text text-anchor="start" x="435" y="-7.5" font-family="Helvetica,sans-Serif" font-size="10.00" fill="#000000"># compute_impl()</text>
</a>
</g>
</g>
<!-- Node6&#45;&gt;Node8 -->
<g id="edge8" class="edge">
<title>Node6&#45;&gt;Node8</title>
<path fill="none" stroke="#191970" d="M436.7003,-123.4743C443.2267,-109.0618 450.2824,-93.4806 456.5107,-79.7263"/>
<polygon fill="none" stroke="#191970" points="433.4388,-122.1923 432.502,-132.7456 439.8155,-125.0799 433.4388,-122.1923"/>
</g>
</g>
</svg>
        <g id="navigator" transform="translate(0 0)" fill="#404254">
                <rect fill="#f2f5e9" fill-opacity="0.5" stroke="#606060" stroke-width=".5" x="0" y="0" width="60" height="60"/>
                <use id="zoomplus" xlink:href="#zoomPlus" x="17" y="9" onmousedown="handleZoom(evt,'in')"/>
                <use id="zoomminus" xlink:href="#zoomMin" x="42" y="9" onmousedown="handleZoom(evt,'out')"/>
                <use id="reset" xlink:href="#resetDef" x="30" y="36" onmousedown="handleReset()"/>
                <g id="arrowUp" xlink:href="#dirArrow" transform="translate(30 24)" onmousedown="handlePan(0,-1)">
                  <use xlink:href="#rim" fill="#404040">
                        <set attributeName="fill" to="#808080" begin="arrowUp.mouseover" end="arrowUp.mouseout"/>
                  </use>
                  <path fill="none" stroke="white" stroke-width="1.5" d="M0,-3.0v7 M-2.5,-0.5L0,-3.0L2.5,-0.5"/>
                </g>
                <g id="arrowRight" xlink:href="#dirArrow" transform="rotate(90) translate(36 -43)" onmousedown="handlePan(1,0)">
                  <use xlink:href="#rim" fill="#404040">
                        <set attributeName="fill" to="#808080" begin="arrowRight.mouseover" end="arrowRight.mouseout"/>
                  </use>
                  <path fill="none" stroke="white" stroke-width="1.5" d="M0,-3.0v7 M-2.5,-0.5L0,-3.0L2.5,-0.5"/>
                </g>
                <g id="arrowDown" xlink:href="#dirArrow" transform="rotate(180) translate(-30 -48)" onmousedown="handlePan(0,1)">
                  <use xlink:href="#rim" fill="#404040">
                        <set attributeName="fill" to="#808080" begin="arrowDown.mouseover" end="arrowDown.mouseout"/>
                  </use>
                  <path fill="none" stroke="white" stroke-width="1.5" d="M0,-3.0v7 M-2.5,-0.5L0,-3.0L2.5,-0.5"/>
                </g>
                <g id="arrowLeft" xlink:href="#dirArrow" transform="rotate(270) translate(-36 17)" onmousedown="handlePan(-1,0)">
                  <use xlink:href="#rim" fill="#404040">
                        <set attributeName="fill" to="#808080" begin="arrowLeft.mouseover" end="arrowLeft.mouseout"/>
                  </use>
                  <path fill="none" stroke="white" stroke-width="1.5" d="M0,-3.0v7 M-2.5,-0.5L0,-3.0L2.5,-0.5"/>
                </g>
        </g>
        <svg viewBox="0 0 15 15" width="100%" height="30px" preserveAspectRatio="xMaxYMin meet">
         <g id="arrow_out" transform="scale(0.3 0.3)">
          <a xlink:href="classStarter__inherit__graph_org.svg" target="_base">
           <rect id="button" ry="5" rx="5" y="6" x="6" height="38" width="38"
                fill="#f2f5e9" fill-opacity="0.5" stroke="#606060" stroke-width="1.0"/>
           <path id="arrow"
             d="M 11.500037,31.436501 C 11.940474,20.09759 22.043105,11.32322 32.158766,21.979434 L 37.068811,17.246167 C 37.068811,17.246167 37.088388,32 37.088388,32 L 22.160133,31.978069 C 22.160133,31.978069 26.997745,27.140456 26.997745,27.140456 C 18.528582,18.264221 13.291696,25.230495 11.500037,31.436501 z"
             style="fill:#404040;"/>
          </a>
         </g>
        </svg>
</svg>
