<?xml version="1.0" encoding="UTF-8" standalone="no"?>
<!DOCTYPE svg PUBLIC "-//W3C//DTD SVG 1.1//EN"
 "http://www.w3.org/Graphics/SVG/1.1/DTD/svg11.dtd">
<!-- Generated by graphviz version 2.40.1 (20161225.0304)
 -->
<!-- Title: Element::get_1d_float_py Pages: 1 -->
<svg width="564pt" height="170pt"
 viewBox="0.00 0.00 564.00 170.00" xmlns="http://www.w3.org/2000/svg" xmlns:xlink="http://www.w3.org/1999/xlink">
<g id="graph0" class="graph" transform="scale(1 1) rotate(0) translate(4 166)">
<title>Element::get_1d_float_py</title>
<polygon fill="#ffffff" stroke="transparent" points="-4,4 -4,-166 560,-166 560,4 -4,4"/>
<!-- Node21 -->
<g id="node1" class="node">
<title>Node21</title>
<polygon fill="#bfbfbf" stroke="#000000" points="0,-38.5 0,-57.5 128,-57.5 128,-38.5 0,-38.5"/>
<text text-anchor="middle" x="64" y="-45.5" font-family="Helvetica,sans-Serif" font-size="10.00" fill="#000000">Element::get_1d_float_py</text>
</g>
<!-- Node22 -->
<g id="node2" class="node">
<title>Node22</title>
<g id="a_node2"><a xlink:href="classElement.html#a1fdb9455f49d2c66a0276925f7246cad" target="_top" xlink:title="Element::init_for_python">
<polygon fill="#ffffff" stroke="#000000" points="164,-85.5 164,-104.5 286,-104.5 286,-85.5 164,-85.5"/>
<text text-anchor="middle" x="225" y="-92.5" font-family="Helvetica,sans-Serif" font-size="10.00" fill="#000000">Element::init_for_python</text>
</a>
</g>
</g>
<!-- Node21&#45;&gt;Node22 -->
<g id="edge1" class="edge">
<title>Node21&#45;&gt;Node22</title>
<path fill="none" stroke="#191970" d="M96.5808,-57.5112C121.2678,-64.7179 155.4083,-74.6844 182.2826,-82.5297"/>
<polygon fill="#191970" stroke="#191970" points="181.6116,-85.9799 192.1918,-85.4224 183.5733,-79.2603 181.6116,-85.9799"/>
</g>
<!-- Node26 -->
<g id="node6" class="node">
<title>Node26</title>
<g id="a_node6"><a xlink:href="classElement.html#a2dd2b3ed6f76878ae6cc1c1a36183517" target="_top" xlink:title="Wrapper for DataKeys::required. ">
<polygon fill="#ffffff" stroke="#000000" points="178.5,-38.5 178.5,-57.5 271.5,-57.5 271.5,-38.5 178.5,-38.5"/>
<text text-anchor="middle" x="225" y="-45.5" font-family="Helvetica,sans-Serif" font-size="10.00" fill="#000000">Element::required</text>
</a>
</g>
</g>
<!-- Node21&#45;&gt;Node26 -->
<g id="edge5" class="edge">
<title>Node21&#45;&gt;Node26</title>
<path fill="none" stroke="#191970" d="M128.0941,-48C141.3792,-48 155.287,-48 168.2856,-48"/>
<polygon fill="#191970" stroke="#191970" points="168.4862,-51.5001 178.4862,-48 168.4861,-44.5001 168.4862,-51.5001"/>
</g>
<!-- Node29 -->
<g id="node9" class="node">
<title>Node29</title>
<g id="a_node9"><a xlink:href="classElement.html#a576395d61902a76979ffd336afa714b3" target="_top" xlink:title="Extract values of a property in data as a one&#45;dimensional Eigen&#45;Array. ">
<polygon fill="#ffffff" stroke="#000000" points="179.5,-.5 179.5,-19.5 270.5,-19.5 270.5,-.5 179.5,-.5"/>
<text text-anchor="middle" x="225" y="-7.5" font-family="Helvetica,sans-Serif" font-size="10.00" fill="#000000">Element::array1d</text>
</a>
</g>
</g>
<!-- Node21&#45;&gt;Node29 -->
<g id="edge9" class="edge">
<title>Node21&#45;&gt;Node29</title>
<path fill="none" stroke="#191970" d="M104.6271,-38.411C125.9685,-33.3739 152.3119,-27.1562 174.9081,-21.8229"/>
<polygon fill="#191970" stroke="#191970" points="175.7365,-25.2237 184.665,-19.5201 174.1284,-18.4109 175.7365,-25.2237"/>
</g>
<!-- Node23 -->
<g id="node3" class="node">
<title>Node23</title>
<g id="a_node3"><a xlink:href="classGenerator.html#ac4648b055ee0e51c1e68ea084156c222" target="_top" xlink:title="Hello to this Generator object. ">
<polygon fill="#ffffff" stroke="#000000" points="329,-142.5 329,-161.5 415,-161.5 415,-142.5 329,-142.5"/>
<text text-anchor="middle" x="372" y="-149.5" font-family="Helvetica,sans-Serif" font-size="10.00" fill="#000000">Generator::hello</text>
</a>
</g>
</g>
<!-- Node22&#45;&gt;Node23 -->
<g id="edge2" class="edge">
<title>Node22&#45;&gt;Node23</title>
<path fill="none" stroke="#191970" d="M249.6045,-104.5405C273.7719,-113.9116 310.847,-128.2876 337.8606,-138.7623"/>
<polygon fill="#191970" stroke="#191970" points="336.7262,-142.0763 347.3152,-142.4284 339.257,-135.5497 336.7262,-142.0763"/>
</g>
<!-- Node24 -->
<g id="node4" class="node">
<title>Node24</title>
<g id="a_node4"><a xlink:href="namespaceutils.html#acee57b54806ee63ddaa30518fed90adb" target="_top" xlink:title="Raise (for Python) and throw (for C++) a runtime error. ">
<polygon fill="#ffffff" stroke="#000000" points="458,-85.5 458,-104.5 556,-104.5 556,-85.5 458,-85.5"/>
<text text-anchor="middle" x="507" y="-92.5" font-family="Helvetica,sans-Serif" font-size="10.00" fill="#000000">utils::runtime_error</text>
</a>
</g>
</g>
<!-- Node22&#45;&gt;Node24 -->
<g id="edge3" class="edge">
<title>Node22&#45;&gt;Node24</title>
<path fill="none" stroke="#191970" d="M286.1898,-95C334.0301,-95 400.1476,-95 447.5399,-95"/>
<polygon fill="#191970" stroke="#191970" points="447.6551,-98.5001 457.6551,-95 447.655,-91.5001 447.6551,-98.5001"/>
</g>
<!-- Node25 -->
<g id="node5" class="node">
<title>Node25</title>
<g id="a_node5"><a xlink:href="namespaceutils.html#a26267fe7371b6215c5d61374d716527b" target="_top" xlink:title="Logging a message. ">
<polygon fill="#ffffff" stroke="#000000" points="345.5,-66.5 345.5,-85.5 398.5,-85.5 398.5,-66.5 345.5,-66.5"/>
<text text-anchor="middle" x="372" y="-73.5" font-family="Helvetica,sans-Serif" font-size="10.00" fill="#000000">utils::log</text>
</a>
</g>
</g>
<!-- Node22&#45;&gt;Node25 -->
<g id="edge4" class="edge">
<title>Node22&#45;&gt;Node25</title>
<path fill="none" stroke="#191970" d="M286.0642,-87.1074C302.6949,-84.9578 320.2005,-82.6952 335.0406,-80.7771"/>
<polygon fill="#191970" stroke="#191970" points="335.856,-84.2009 345.3248,-79.4478 334.9586,-77.2586 335.856,-84.2009"/>
</g>
<!-- Node27 -->
<g id="node7" class="node">
<title>Node27</title>
<g id="a_node7"><a xlink:href="classDataKeys.html#a03517cffe825c983c3582ffb55318a7b" target="_top" xlink:title="Check if this object has required key(s). ">
<polygon fill="#ffffff" stroke="#000000" points="322,-28.5 322,-47.5 422,-47.5 422,-28.5 322,-28.5"/>
<text text-anchor="middle" x="372" y="-35.5" font-family="Helvetica,sans-Serif" font-size="10.00" fill="#000000">DataKeys::required</text>
</a>
</g>
</g>
<!-- Node26&#45;&gt;Node27 -->
<g id="edge6" class="edge">
<title>Node26&#45;&gt;Node27</title>
<path fill="none" stroke="#191970" d="M271.5117,-44.8359C284.3141,-43.965 298.3852,-43.0078 311.8392,-42.0926"/>
<polygon fill="#191970" stroke="#191970" points="312.2367,-45.5737 321.9761,-41.403 311.7616,-38.5899 312.2367,-45.5737"/>
</g>
<!-- Node27&#45;&gt;Node24 -->
<g id="edge7" class="edge">
<title>Node27&#45;&gt;Node24</title>
<path fill="none" stroke="#191970" d="M398.0622,-47.5808C405.8027,-50.5131 414.2757,-53.8088 422,-57 440.4342,-64.6158 460.8452,-73.7182 477.0447,-81.1048"/>
<polygon fill="#191970" stroke="#191970" points="475.9827,-84.4681 486.5316,-85.4536 478.8997,-78.1048 475.9827,-84.4681"/>
</g>
<!-- Node28 -->
<g id="node8" class="node">
<title>Node28</title>
<g id="a_node8"><a xlink:href="namespaceutils.html#a5e5339e32b770a14691521435849c949" target="_top" xlink:title="Mimicking Python&#39;s join. ">
<polygon fill="#ffffff" stroke="#000000" points="479,-28.5 479,-47.5 535,-47.5 535,-28.5 479,-28.5"/>
<text text-anchor="middle" x="507" y="-35.5" font-family="Helvetica,sans-Serif" font-size="10.00" fill="#000000">utils::join</text>
</a>
</g>
</g>
<!-- Node27&#45;&gt;Node28 -->
<g id="edge8" class="edge">
<title>Node27&#45;&gt;Node28</title>
<path fill="none" stroke="#191970" d="M422.269,-38C437.5913,-38 454.1831,-38 468.589,-38"/>
<polygon fill="#191970" stroke="#191970" points="468.6431,-41.5001 478.643,-38 468.643,-34.5001 468.6431,-41.5001"/>
</g>
</g>
</svg>
