<?xml version="1.0" encoding="UTF-8" standalone="no"?>
<!DOCTYPE svg PUBLIC "-//W3C//DTD SVG 1.1//EN"
 "http://www.w3.org/Graphics/SVG/1.1/DTD/svg11.dtd">
<!-- Generated by graphviz version 2.40.1 (20161225.0304)
 -->
<!-- Title: Element::get_1d_int_py Pages: 1 -->
<svg width="394pt" height="28pt"
 viewBox="0.00 0.00 394.00 28.00" xmlns="http://www.w3.org/2000/svg" xmlns:xlink="http://www.w3.org/1999/xlink">
<g id="graph0" class="graph" transform="scale(1 1) rotate(0) translate(4 24)">
<title>Element::get_1d_int_py</title>
<polygon fill="#ffffff" stroke="transparent" points="-4,4 -4,-24 390,-24 390,4 -4,4"/>
<!-- Node50 -->
<g id="node1" class="node">
<title>Node50</title>
<polygon fill="#bfbfbf" stroke="#000000" points="0,-.5 0,-19.5 119,-19.5 119,-.5 0,-.5"/>
<text text-anchor="middle" x="59.5" y="-7.5" font-family="Helvetica,sans-Serif" font-size="10.00" fill="#000000">Element::get_1d_int_py</text>
</g>
<!-- Node51 -->
<g id="node2" class="node">
<title>Node51</title>
<g id="a_node2"><a xlink:href="pybind_2element_8h.html#a32471b3cace9ede01900bfbdaca5e16a" target="_top" xlink:title="pybind_element">
<polygon fill="#ffffff" stroke="#000000" points="155,-.5 155,-19.5 240,-19.5 240,-.5 155,-.5"/>
<text text-anchor="middle" x="197.5" y="-7.5" font-family="Helvetica,sans-Serif" font-size="10.00" fill="#000000">pybind_element</text>
</a>
</g>
</g>
<!-- Node50&#45;&gt;Node51 -->
<g id="edge1" class="edge">
<title>Node50&#45;&gt;Node51</title>
<path fill="none" stroke="#191970" d="M129.363,-10C138.0187,-10 146.6564,-10 154.7309,-10"/>
<polygon fill="#191970" stroke="#191970" points="129.2262,-6.5001 119.2262,-10 129.2262,-13.5001 129.2262,-6.5001"/>
</g>
<!-- Node52 -->
<g id="node3" class="node">
<title>Node52</title>
<g id="a_node3"><a xlink:href="pybind_8h.html#a4714c4a855ebb82892410d5254e9ccdc" target="_top" xlink:title="PYBIND11_MODULE">
<polygon fill="#ffffff" stroke="#000000" points="276,-.5 276,-19.5 386,-19.5 386,-.5 276,-.5"/>
<text text-anchor="middle" x="331" y="-7.5" font-family="Helvetica,sans-Serif" font-size="10.00" fill="#000000">PYBIND11_MODULE</text>
</a>
</g>
</g>
<!-- Node51&#45;&gt;Node52 -->
<g id="edge2" class="edge">
<title>Node51&#45;&gt;Node52</title>
<path fill="none" stroke="#191970" d="M250.1304,-10C258.5048,-10 267.1898,-10 275.6252,-10"/>
<polygon fill="#191970" stroke="#191970" points="250.1073,-6.5001 240.1073,-10 250.1072,-13.5001 250.1073,-6.5001"/>
</g>
</g>
</svg>
