<?xml version="1.0" encoding="UTF-8" standalone="no"?>
<!DOCTYPE svg PUBLIC "-//W3C//DTD SVG 1.1//EN"
 "http://www.w3.org/Graphics/SVG/1.1/DTD/svg11.dtd">
<!-- Generated by graphviz version 2.40.1 (20161225.0304)
 -->
<!-- Title: AddMap::overwrite Pages: 1 -->
<svg width="378pt" height="28pt"
 viewBox="0.00 0.00 378.00 28.00" xmlns="http://www.w3.org/2000/svg" xmlns:xlink="http://www.w3.org/1999/xlink">
<g id="graph0" class="graph" transform="scale(1 1) rotate(0) translate(4 24)">
<title>AddMap::overwrite</title>
<polygon fill="#ffffff" stroke="transparent" points="-4,4 -4,-24 374,-24 374,4 -4,4"/>
<!-- Node12 -->
<g id="node1" class="node">
<title>Node12</title>
<polygon fill="#bfbfbf" stroke="#000000" points="0,-.5 0,-19.5 98,-19.5 98,-.5 0,-.5"/>
<text text-anchor="middle" x="49" y="-7.5" font-family="Helvetica,sans-Serif" font-size="10.00" fill="#000000">AddMap::overwrite</text>
</g>
<!-- Node13 -->
<g id="node2" class="node">
<title>Node13</title>
<g id="a_node2"><a xlink:href="pybind_2adders_2add__map_8h.html#a66e54cbcd8ddb3406864a39436f29595" target="_top" xlink:title="pybind_add_map">
<polygon fill="#ffffff" stroke="#000000" points="134,-.5 134,-19.5 224,-19.5 224,-.5 134,-.5"/>
<text text-anchor="middle" x="179" y="-7.5" font-family="Helvetica,sans-Serif" font-size="10.00" fill="#000000">pybind_add_map</text>
</a>
</g>
</g>
<!-- Node12&#45;&gt;Node13 -->
<g id="edge1" class="edge">
<title>Node12&#45;&gt;Node13</title>
<path fill="none" stroke="#191970" d="M108.3906,-10C116.8725,-10 125.4827,-10 133.6378,-10"/>
<polygon fill="#191970" stroke="#191970" points="108.1475,-6.5001 98.1474,-10 108.1474,-13.5001 108.1475,-6.5001"/>
</g>
<!-- Node14 -->
<g id="node3" class="node">
<title>Node14</title>
<g id="a_node3"><a xlink:href="pybind_8h.html#a4714c4a855ebb82892410d5254e9ccdc" target="_top" xlink:title="PYBIND11_MODULE">
<polygon fill="#ffffff" stroke="#000000" points="260,-.5 260,-19.5 370,-19.5 370,-.5 260,-.5"/>
<text text-anchor="middle" x="315" y="-7.5" font-family="Helvetica,sans-Serif" font-size="10.00" fill="#000000">PYBIND11_MODULE</text>
</a>
</g>
</g>
<!-- Node13&#45;&gt;Node14 -->
<g id="edge2" class="edge">
<title>Node13&#45;&gt;Node14</title>
<path fill="none" stroke="#191970" d="M234.4093,-10C242.8476,-10 251.5539,-10 259.9838,-10"/>
<polygon fill="#191970" stroke="#191970" points="234.2861,-6.5001 224.286,-10 234.286,-13.5001 234.2861,-6.5001"/>
</g>
</g>
</svg>
