<?xml version="1.0" encoding="UTF-8" standalone="no"?>
<!DOCTYPE svg PUBLIC "-//W3C//DTD SVG 1.1//EN"
 "http://www.w3.org/Graphics/SVG/1.1/DTD/svg11.dtd">
<!-- Generated by graphviz version 2.40.1 (20161225.0304)
 -->
<!-- Title: DataKeys::add Pages: 1 -->
<svg width="288pt" height="684pt"
 viewBox="0.00 0.00 288.00 684.00" xmlns="http://www.w3.org/2000/svg" xmlns:xlink="http://www.w3.org/1999/xlink">
<g id="graph0" class="graph" transform="scale(1 1) rotate(0) translate(4 680)">
<title>DataKeys::add</title>
<polygon fill="#ffffff" stroke="transparent" points="-4,4 -4,-680 284,-680 284,4 -4,4"/>
<!-- Node1 -->
<g id="node1" class="node">
<title>Node1</title>
<polygon fill="#bfbfbf" stroke="#000000" points="0,-328.5 0,-347.5 81,-347.5 81,-328.5 0,-328.5"/>
<text text-anchor="middle" x="40.5" y="-335.5" font-family="Helvetica,sans-Serif" font-size="10.00" fill="#000000">DataKeys::add</text>
</g>
<!-- Node2 -->
<g id="node2" class="node">
<title>Node2</title>
<g id="a_node2"><a xlink:href="classAddBondAngle.html#a3c9ff4e8d0806fe652cbc89877cca142" target="_top" xlink:title="This method overrides Updater::compute_impl. ">
<polygon fill="#ffffff" stroke="#000000" points="124.5,-656.5 124.5,-675.5 272.5,-675.5 272.5,-656.5 124.5,-656.5"/>
<text text-anchor="middle" x="198.5" y="-663.5" font-family="Helvetica,sans-Serif" font-size="10.00" fill="#000000">AddBondAngle::compute_impl</text>
</a>
</g>
</g>
<!-- Node1&#45;&gt;Node2 -->
<g id="edge1" class="edge">
<title>Node1&#45;&gt;Node2</title>
<path fill="none" stroke="#191970" d="M42.7253,-357.9123C50.015,-419.5755 75.1402,-605.708 117,-647 120.827,-650.7751 125.2502,-653.8559 130.0174,-656.3641"/>
<polygon fill="#191970" stroke="#191970" points="46.1603,-357.1465 41.5384,-347.613 39.2063,-357.9479 46.1603,-357.1465"/>
</g>
<!-- Node3 -->
<g id="node3" class="node">
<title>Node3</title>
<g id="a_node3"><a xlink:href="classAddBondLength.html#a19665cbd2bd195ee9717d084bb669a8f" target="_top" xlink:title="This method overrides Updater::compute_impl. ">
<polygon fill="#ffffff" stroke="#000000" points="122.5,-618.5 122.5,-637.5 274.5,-637.5 274.5,-618.5 122.5,-618.5"/>
<text text-anchor="middle" x="198.5" y="-625.5" font-family="Helvetica,sans-Serif" font-size="10.00" fill="#000000">AddBondLength::compute_impl</text>
</a>
</g>
</g>
<!-- Node1&#45;&gt;Node3 -->
<g id="edge2" class="edge">
<title>Node1&#45;&gt;Node3</title>
<path fill="none" stroke="#191970" d="M43.4227,-357.6471C52.1729,-413.8545 79.8709,-573.544 117,-609 120.9928,-612.8129 125.596,-615.9125 130.5404,-618.4265"/>
<polygon fill="#191970" stroke="#191970" points="46.8548,-356.9361 41.8871,-347.5781 39.9348,-357.9915 46.8548,-356.9361"/>
</g>
<!-- Node4 -->
<g id="node4" class="node">
<title>Node4</title>
<g id="a_node4"><a xlink:href="classAddChildIDs.html#a44a0b778c9c4b17c9ce9051b990af73d" target="_top" xlink:title="This method overrides Updater::compute_impl. ">
<polygon fill="#ffffff" stroke="#000000" points="130,-580.5 130,-599.5 267,-599.5 267,-580.5 130,-580.5"/>
<text text-anchor="middle" x="198.5" y="-587.5" font-family="Helvetica,sans-Serif" font-size="10.00" fill="#000000">AddChildIDs::compute_impl</text>
</a>
</g>
</g>
<!-- Node1&#45;&gt;Node4 -->
<g id="edge3" class="edge">
<title>Node1&#45;&gt;Node4</title>
<path fill="none" stroke="#191970" d="M44.3541,-357.5161C54.7164,-408.0562 84.5929,-541.3322 117,-571 121.1793,-574.8261 125.9768,-577.9274 131.107,-580.4359"/>
<polygon fill="#191970" stroke="#191970" points="47.7521,-356.6607 42.3452,-347.5494 40.8901,-358.0438 47.7521,-356.6607"/>
</g>
<!-- Node5 -->
<g id="node5" class="node">
<title>Node5</title>
<g id="a_node5"><a xlink:href="classAddChildPositions.html#ab200c619009c1db1deefb92c68010f9a" target="_top" xlink:title="This method overrides Updater::compute_impl. ">
<polygon fill="#ffffff" stroke="#000000" points="147.5,-531 147.5,-561 249.5,-561 249.5,-531 147.5,-531"/>
<text text-anchor="start" x="155.5" y="-549" font-family="Helvetica,sans-Serif" font-size="10.00" fill="#000000">AddChildPositions::</text>
<text text-anchor="middle" x="198.5" y="-538" font-family="Helvetica,sans-Serif" font-size="10.00" fill="#000000">compute_impl</text>
</a>
</g>
</g>
<!-- Node1&#45;&gt;Node5 -->
<g id="edge4" class="edge">
<title>Node1&#45;&gt;Node5</title>
<path fill="none" stroke="#191970" d="M43.1683,-357.6673C49.2748,-394.9957 67.7454,-476.3646 117,-521 125.5541,-528.7519 136.4616,-534.1008 147.4942,-537.7915"/>
<polygon fill="#191970" stroke="#191970" points="46.6003,-356.9531 41.6497,-347.586 39.6784,-357.9958 46.6003,-356.9531"/>
</g>
<!-- Node6 -->
<g id="node6" class="node">
<title>Node6</title>
<g id="a_node6"><a xlink:href="classAddCoMPosition.html#a8769c07c61840444ad80bf7e20acdbf2" target="_top" xlink:title="This method overrides Updater::compute_impl. ">
<polygon fill="#ffffff" stroke="#000000" points="120.5,-492.5 120.5,-511.5 276.5,-511.5 276.5,-492.5 120.5,-492.5"/>
<text text-anchor="middle" x="198.5" y="-499.5" font-family="Helvetica,sans-Serif" font-size="10.00" fill="#000000">AddCoMPosition::compute_impl</text>
</a>
</g>
</g>
<!-- Node1&#45;&gt;Node6 -->
<g id="edge5" class="edge">
<title>Node1&#45;&gt;Node6</title>
<path fill="none" stroke="#191970" d="M45.1213,-357.3095C53.6804,-388.7278 75.0725,-450.6488 117,-483 121.9461,-486.8164 127.5301,-489.8868 133.398,-492.3542"/>
<polygon fill="#191970" stroke="#191970" points="48.4963,-356.3805 42.6164,-347.567 41.7168,-358.1236 48.4963,-356.3805"/>
</g>
<!-- Node7 -->
<g id="node7" class="node">
<title>Node7</title>
<g id="a_node7"><a xlink:href="classAddDihedralAngle.html#a7b40381c00d949b64fcbbd95e2a61e33" target="_top" xlink:title="This method overrides Updater::compute_impl. ">
<polygon fill="#ffffff" stroke="#000000" points="118,-454.5 118,-473.5 279,-473.5 279,-454.5 118,-454.5"/>
<text text-anchor="middle" x="198.5" y="-461.5" font-family="Helvetica,sans-Serif" font-size="10.00" fill="#000000">AddDihedralAngle::compute_impl</text>
</a>
</g>
</g>
<!-- Node1&#45;&gt;Node7 -->
<g id="edge6" class="edge">
<title>Node1&#45;&gt;Node7</title>
<path fill="none" stroke="#191970" d="M48.8279,-357.0493C60.4677,-381.3561 83.95,-422.8917 117,-445 122.7965,-448.8775 129.2845,-451.9688 136.001,-454.4326"/>
<polygon fill="#191970" stroke="#191970" points="51.9295,-355.4165 44.5711,-347.7938 45.5698,-358.3414 51.9295,-355.4165"/>
</g>
<!-- Node8 -->
<g id="node8" class="node">
<title>Node8</title>
<g id="a_node8"><a xlink:href="classAddGyrationRadius.html#a53d9c62c9dbf976b815cb715a9f18a36" target="_top" xlink:title="This method overrides Updater::compute_impl. ">
<polygon fill="#ffffff" stroke="#000000" points="145,-405 145,-435 252,-435 252,-405 145,-405"/>
<text text-anchor="start" x="153" y="-423" font-family="Helvetica,sans-Serif" font-size="10.00" fill="#000000">AddGyrationRadius::</text>
<text text-anchor="middle" x="198.5" y="-412" font-family="Helvetica,sans-Serif" font-size="10.00" fill="#000000">compute_impl</text>
</a>
</g>
</g>
<!-- Node1&#45;&gt;Node8 -->
<g id="edge7" class="edge">
<title>Node1&#45;&gt;Node8</title>
<path fill="none" stroke="#191970" d="M58.9537,-354.6157C73.7446,-367.1949 95.5105,-384.1112 117,-395 125.7133,-399.4151 135.3509,-403.2153 144.857,-406.4242"/>
<polygon fill="#191970" stroke="#191970" points="60.9478,-351.7114 51.1059,-347.7887 56.3535,-356.9927 60.9478,-351.7114"/>
</g>
<!-- Node9 -->
<g id="node9" class="node">
<title>Node9</title>
<g id="a_node9"><a xlink:href="classAddInertiaMoment.html#a50d3efa11e6c2a8d12c397224679d259" target="_top" xlink:title="This method overrides Updater::compute_impl. ">
<polygon fill="#ffffff" stroke="#000000" points="117,-366.5 117,-385.5 280,-385.5 280,-366.5 117,-366.5"/>
<text text-anchor="middle" x="198.5" y="-373.5" font-family="Helvetica,sans-Serif" font-size="10.00" fill="#000000">AddInertiaMoment::compute_impl</text>
</a>
</g>
</g>
<!-- Node1&#45;&gt;Node9 -->
<g id="edge8" class="edge">
<title>Node1&#45;&gt;Node9</title>
<path fill="none" stroke="#191970" d="M88.3152,-349.9881C97.8135,-352.3378 107.7179,-354.7655 117,-357 129.9952,-360.1284 144.1758,-363.4621 157.0116,-366.4495"/>
<polygon fill="#191970" stroke="#191970" points="89.1558,-346.5907 78.6072,-347.5792 87.4699,-353.3846 89.1558,-346.5907"/>
</g>
<!-- Node10 -->
<g id="node10" class="node">
<title>Node10</title>
<g id="a_node10"><a xlink:href="classAddMap.html#a43e6a1d41af46c02ac2ad813075466cf" target="_top" xlink:title="This method overrides Updater::compute_impl. ">
<polygon fill="#ffffff" stroke="#000000" points="139,-328.5 139,-347.5 258,-347.5 258,-328.5 139,-328.5"/>
<text text-anchor="middle" x="198.5" y="-335.5" font-family="Helvetica,sans-Serif" font-size="10.00" fill="#000000">AddMap::compute_impl</text>
</a>
</g>
</g>
<!-- Node1&#45;&gt;Node10 -->
<g id="edge9" class="edge">
<title>Node1&#45;&gt;Node10</title>
<path fill="none" stroke="#191970" d="M91.3823,-338C106.5189,-338 123.2393,-338 138.8796,-338"/>
<polygon fill="#191970" stroke="#191970" points="91.189,-334.5001 81.1889,-338 91.1889,-341.5001 91.189,-334.5001"/>
</g>
<!-- Node11 -->
<g id="node11" class="node">
<title>Node11</title>
<g id="a_node11"><a xlink:href="classAddMolecularOrientation.html#a886b802585d1dfa299dd9f42e3eef29e" target="_top" xlink:title="This method overrides Updater::compute_impl. ">
<polygon fill="#ffffff" stroke="#000000" points="137,-279 137,-309 260,-309 260,-279 137,-279"/>
<text text-anchor="start" x="145" y="-297" font-family="Helvetica,sans-Serif" font-size="10.00" fill="#000000">AddMolecularOrientation</text>
<text text-anchor="middle" x="198.5" y="-286" font-family="Helvetica,sans-Serif" font-size="10.00" fill="#000000">::compute_impl</text>
</a>
</g>
</g>
<!-- Node1&#45;&gt;Node11 -->
<g id="edge10" class="edge">
<title>Node1&#45;&gt;Node11</title>
<path fill="none" stroke="#191970" d="M84.4534,-325.7598C103.03,-320.5866 124.8493,-314.5103 144.4016,-309.0654"/>
<polygon fill="#191970" stroke="#191970" points="83.4781,-322.3982 74.7836,-328.4527 85.3561,-329.1416 83.4781,-322.3982"/>
</g>
<!-- Node12 -->
<g id="node12" class="node">
<title>Node12</title>
<g id="a_node12"><a xlink:href="classAddRename.html#a34e997ee2632a7ef703810ebfbf1aa8d" target="_top" xlink:title="This method overrides Updater::compute_impl. ">
<polygon fill="#ffffff" stroke="#000000" points="130,-240.5 130,-259.5 267,-259.5 267,-240.5 130,-240.5"/>
<text text-anchor="middle" x="198.5" y="-247.5" font-family="Helvetica,sans-Serif" font-size="10.00" fill="#000000">AddRename::compute_impl</text>
</a>
</g>
</g>
<!-- Node1&#45;&gt;Node12 -->
<g id="edge11" class="edge">
<title>Node1&#45;&gt;Node12</title>
<path fill="none" stroke="#191970" d="M55.3715,-320.6542C69.6413,-305.1061 92.5766,-282.8284 117,-270 125.2548,-265.6642 134.476,-262.2462 143.6644,-259.5583"/>
<polygon fill="#191970" stroke="#191970" points="52.422,-318.703 48.3809,-328.4969 57.6476,-323.3608 52.422,-318.703"/>
</g>
<!-- Node13 -->
<g id="node13" class="node">
<title>Node13</title>
<g id="a_node13"><a xlink:href="classAddSpecialBonds.html#ac8f026ec0d609bf9bbc98d5c7899a13b" target="_top" xlink:title="This method overrides Updater::compute_impl. ">
<polygon fill="#ffffff" stroke="#000000" points="118,-202.5 118,-221.5 279,-221.5 279,-202.5 118,-202.5"/>
<text text-anchor="middle" x="198.5" y="-209.5" font-family="Helvetica,sans-Serif" font-size="10.00" fill="#000000">AddSpecialBonds::compute_impl</text>
</a>
</g>
</g>
<!-- Node1&#45;&gt;Node13 -->
<g id="edge12" class="edge">
<title>Node1&#45;&gt;Node13</title>
<path fill="none" stroke="#191970" d="M48.8279,-318.9507C60.4677,-294.6439 83.95,-253.1083 117,-231 122.7965,-227.1225 129.2845,-224.0312 136.001,-221.5674"/>
<polygon fill="#191970" stroke="#191970" points="45.5698,-317.6586 44.5711,-328.2062 51.9295,-320.5835 45.5698,-317.6586"/>
</g>
<!-- Node14 -->
<g id="node14" class="node">
<title>Node14</title>
<g id="a_node14"><a xlink:href="classAddWrappedPosition.html#af5ea4e6203dc8db97b8a8f73b2d83822" target="_top" xlink:title="This method overrides Updater::compute_impl. ">
<polygon fill="#ffffff" stroke="#000000" points="145,-153 145,-183 252,-183 252,-153 145,-153"/>
<text text-anchor="start" x="153" y="-171" font-family="Helvetica,sans-Serif" font-size="10.00" fill="#000000">AddWrappedPosition</text>
<text text-anchor="middle" x="198.5" y="-160" font-family="Helvetica,sans-Serif" font-size="10.00" fill="#000000">::compute_impl</text>
</a>
</g>
</g>
<!-- Node1&#45;&gt;Node14 -->
<g id="edge13" class="edge">
<title>Node1&#45;&gt;Node14</title>
<path fill="none" stroke="#191970" d="M45.5048,-318.5595C54.5111,-287.4588 76.4027,-226.6076 117,-193 124.9804,-186.3936 134.69,-181.5309 144.5867,-177.9523"/>
<polygon fill="#191970" stroke="#191970" points="42.1234,-317.656 42.847,-328.2261 48.873,-319.5118 42.1234,-317.656"/>
</g>
<!-- Node15 -->
<g id="node15" class="node">
<title>Node15</title>
<g id="a_node15"><a xlink:href="classStaBeads.html#a28dd7a99528b0c892dc3ab85b131ed85" target="_top" xlink:title="This method overrides Updater::compute_impl. ">
<polygon fill="#ffffff" stroke="#000000" points="135.5,-114.5 135.5,-133.5 261.5,-133.5 261.5,-114.5 135.5,-114.5"/>
<text text-anchor="middle" x="198.5" y="-121.5" font-family="Helvetica,sans-Serif" font-size="10.00" fill="#000000">StaBeads::compute_impl</text>
</a>
</g>
</g>
<!-- Node1&#45;&gt;Node15 -->
<g id="edge14" class="edge">
<title>Node1&#45;&gt;Node15</title>
<path fill="none" stroke="#191970" d="M42.4203,-317.9774C47.3115,-278.4889 63.8882,-190.3872 117,-144 122.3768,-139.3039 128.6812,-135.6729 135.3611,-132.8711"/>
<polygon fill="#191970" stroke="#191970" points="38.9144,-317.8383 41.2896,-328.1635 45.8716,-318.6107 38.9144,-317.8383"/>
</g>
<!-- Node16 -->
<g id="node16" class="node">
<title>Node16</title>
<g id="a_node16"><a xlink:href="classStaDumpAtoms.html#a258c7068bcc6b3d071f0acff027e2561" target="_top" xlink:title="This method overrides Updater::compute_impl. ">
<polygon fill="#ffffff" stroke="#000000" points="122.5,-76.5 122.5,-95.5 274.5,-95.5 274.5,-76.5 122.5,-76.5"/>
<text text-anchor="middle" x="198.5" y="-83.5" font-family="Helvetica,sans-Serif" font-size="10.00" fill="#000000">StaDumpAtoms::compute_impl</text>
</a>
</g>
</g>
<!-- Node1&#45;&gt;Node16 -->
<g id="edge15" class="edge">
<title>Node1&#45;&gt;Node16</title>
<path fill="none" stroke="#191970" d="M44.3541,-318.4839C54.7164,-267.9438 84.5929,-134.6678 117,-105 121.1793,-101.1739 125.9768,-98.0726 131.107,-95.5641"/>
<polygon fill="#191970" stroke="#191970" points="40.8901,-317.9562 42.3452,-328.4506 47.7521,-319.3393 40.8901,-317.9562"/>
</g>
<!-- Node17 -->
<g id="node17" class="node">
<title>Node17</title>
<g id="a_node17"><a xlink:href="classStaDumpBox.html#af25a2a80d9607d892b78d78cd725692e" target="_top" xlink:title="This method overrides Updater::compute_impl. ">
<polygon fill="#ffffff" stroke="#000000" points="128,-38.5 128,-57.5 269,-57.5 269,-38.5 128,-38.5"/>
<text text-anchor="middle" x="198.5" y="-45.5" font-family="Helvetica,sans-Serif" font-size="10.00" fill="#000000">StaDumpBox::compute_impl</text>
</a>
</g>
</g>
<!-- Node1&#45;&gt;Node17 -->
<g id="edge16" class="edge">
<title>Node1&#45;&gt;Node17</title>
<path fill="none" stroke="#191970" d="M43.4227,-318.3529C52.1729,-262.1455 79.8709,-102.456 117,-67 120.9928,-63.1871 125.596,-60.0875 130.5404,-57.5735"/>
<polygon fill="#191970" stroke="#191970" points="39.9348,-318.0085 41.8871,-328.4219 46.8548,-319.0639 39.9348,-318.0085"/>
</g>
<!-- Node18 -->
<g id="node18" class="node">
<title>Node18</title>
<g id="a_node18"><a xlink:href="classStaMolecules.html#a6e43cdfdce04105ab20a5f93584aabec" target="_top" xlink:title="This method overrides Updater::compute_impl. ">
<polygon fill="#ffffff" stroke="#000000" points="127,-.5 127,-19.5 270,-19.5 270,-.5 127,-.5"/>
<text text-anchor="middle" x="198.5" y="-7.5" font-family="Helvetica,sans-Serif" font-size="10.00" fill="#000000">StaMolecules::compute_impl</text>
</a>
</g>
</g>
<!-- Node1&#45;&gt;Node18 -->
<g id="edge17" class="edge">
<title>Node1&#45;&gt;Node18</title>
<path fill="none" stroke="#191970" d="M42.7253,-318.0877C50.015,-256.4245 75.1402,-70.292 117,-29 120.827,-25.2249 125.2502,-22.1441 130.0174,-19.6359"/>
<polygon fill="#191970" stroke="#191970" points="39.2063,-318.0521 41.5384,-328.387 46.1603,-318.8535 39.2063,-318.0521"/>
</g>
</g>
</svg>
