<?xml version="1.0" encoding="UTF-8" standalone="no"?>
<!DOCTYPE svg PUBLIC "-//W3C//DTD SVG 1.1//EN"
 "http://www.w3.org/Graphics/SVG/1.1/DTD/svg11.dtd">
<!-- Generated by graphviz version 2.40.1 (20161225.0304)
 -->
<!-- Title: AddChildPositions::compute_impl Pages: 1 -->
<svg width="381pt" height="39pt"
 viewBox="0.00 0.00 381.00 39.00" xmlns="http://www.w3.org/2000/svg" xmlns:xlink="http://www.w3.org/1999/xlink">
<g id="graph0" class="graph" transform="scale(1 1) rotate(0) translate(4 35)">
<title>AddChildPositions::compute_impl</title>
<polygon fill="#ffffff" stroke="transparent" points="-4,4 -4,-35 377,-35 377,4 -4,4"/>
<!-- Node2 -->
<g id="node1" class="node">
<title>Node2</title>
<polygon fill="#bfbfbf" stroke="#000000" points="0,-.5 0,-30.5 102,-30.5 102,-.5 0,-.5"/>
<text text-anchor="start" x="8" y="-18.5" font-family="Helvetica,sans-Serif" font-size="10.00" fill="#000000">AddChildPositions::</text>
<text text-anchor="middle" x="51" y="-7.5" font-family="Helvetica,sans-Serif" font-size="10.00" fill="#000000">compute_impl</text>
</g>
<!-- Node3 -->
<g id="node2" class="node">
<title>Node3</title>
<g id="a_node2"><a xlink:href="namespaceutils.html#aeabf3fc19efc71936f355f069d336b5a" target="_top" xlink:title="Create a Map object from values of selected property in an array Json object to corresponding index i...">
<polygon fill="#ffffff" stroke="#000000" points="138,-6 138,-25 239,-25 239,-6 138,-6"/>
<text text-anchor="middle" x="188.5" y="-13" font-family="Helvetica,sans-Serif" font-size="10.00" fill="#000000">utils::map_to_index</text>
</a>
</g>
</g>
<!-- Node2&#45;&gt;Node3 -->
<g id="edge1" class="edge">
<title>Node2&#45;&gt;Node3</title>
<path fill="none" stroke="#191970" d="M102.1999,-15.5C110.4509,-15.5 119.0633,-15.5 127.5171,-15.5"/>
<polygon fill="#191970" stroke="#191970" points="127.7152,-19.0001 137.7151,-15.5 127.7151,-12.0001 127.7152,-19.0001"/>
</g>
<!-- Node4 -->
<g id="node3" class="node">
<title>Node4</title>
<g id="a_node3"><a xlink:href="namespaceutils.html#acee57b54806ee63ddaa30518fed90adb" target="_top" xlink:title="Raise (for Python) and throw (for C++) a runtime error. ">
<polygon fill="#ffffff" stroke="#000000" points="275,-6 275,-25 373,-25 373,-6 275,-6"/>
<text text-anchor="middle" x="324" y="-13" font-family="Helvetica,sans-Serif" font-size="10.00" fill="#000000">utils::runtime_error</text>
</a>
</g>
</g>
<!-- Node3&#45;&gt;Node4 -->
<g id="edge2" class="edge">
<title>Node3&#45;&gt;Node4</title>
<path fill="none" stroke="#191970" d="M239.3407,-15.5C247.5624,-15.5 256.1391,-15.5 264.543,-15.5"/>
<polygon fill="#191970" stroke="#191970" points="264.6726,-19.0001 274.6726,-15.5 264.6726,-12.0001 264.6726,-19.0001"/>
</g>
</g>
</svg>
