<?xml version="1.0" encoding="UTF-8" standalone="no"?>
<!DOCTYPE svg PUBLIC "-//W3C//DTD SVG 1.1//EN"
 "http://www.w3.org/Graphics/SVG/1.1/DTD/svg11.dtd">
<!-- Generated by graphviz version 2.40.1 (20161225.0304)
 -->
<!-- Title: Element::get_1d_int_py Pages: 1 -->
<svg width="477pt" height="192pt"
 viewBox="0.00 0.00 477.00 191.50" xmlns="http://www.w3.org/2000/svg" xmlns:xlink="http://www.w3.org/1999/xlink">
<g id="graph0" class="graph" transform="scale(1 1) rotate(0) translate(4 187.5)">
<title>Element::get_1d_int_py</title>
<polygon fill="#ffffff" stroke="transparent" points="-4,4 -4,-187.5 473,-187.5 473,4 -4,4"/>
<!-- Node38 -->
<g id="node1" class="node">
<title>Node38</title>
<polygon fill="#bfbfbf" stroke="#000000" points="0,-69 0,-88 119,-88 119,-69 0,-69"/>
<text text-anchor="middle" x="59.5" y="-76" font-family="Helvetica,sans-Serif" font-size="10.00" fill="#000000">Element::get_1d_int_py</text>
</g>
<!-- Node39 -->
<g id="node2" class="node">
<title>Node39</title>
<g id="a_node2"><a xlink:href="classElement.html#a1fdb9455f49d2c66a0276925f7246cad" target="_top" xlink:title="Element::init_for_python">
<polygon fill="#ffffff" stroke="#000000" points="169.5,-107 169.5,-126 291.5,-126 291.5,-107 169.5,-107"/>
<text text-anchor="middle" x="230.5" y="-114" font-family="Helvetica,sans-Serif" font-size="10.00" fill="#000000">Element::init_for_python</text>
</a>
</g>
</g>
<!-- Node38&#45;&gt;Node39 -->
<g id="edge1" class="edge">
<title>Node38&#45;&gt;Node39</title>
<path fill="none" stroke="#191970" d="M102.6505,-88.089C125.4191,-93.1487 153.5482,-99.3996 177.6194,-104.7488"/>
<polygon fill="#191970" stroke="#191970" points="177.1386,-108.2272 187.6598,-106.9799 178.6572,-101.3939 177.1386,-108.2272"/>
</g>
<!-- Node43 -->
<g id="node6" class="node">
<title>Node43</title>
<g id="a_node6"><a xlink:href="classElement.html#a343252084136e932e8830ec359d49558" target="_top" xlink:title="Check if this object has required key(s). ">
<polygon fill="#ffffff" stroke="#000000" points="155,-69 155,-88 306,-88 306,-69 155,-69"/>
<text text-anchor="middle" x="230.5" y="-76" font-family="Helvetica,sans-Serif" font-size="10.00" fill="#000000">Element::check_required_keys</text>
</a>
</g>
</g>
<!-- Node38&#45;&gt;Node43 -->
<g id="edge5" class="edge">
<title>Node38&#45;&gt;Node43</title>
<path fill="none" stroke="#191970" d="M119.3075,-78.5C127.5451,-78.5 136.1336,-78.5 144.7257,-78.5"/>
<polygon fill="#191970" stroke="#191970" points="144.793,-82.0001 154.793,-78.5 144.7929,-75.0001 144.793,-82.0001"/>
</g>
<!-- Node45 -->
<g id="node8" class="node">
<title>Node45</title>
<g id="a_node8"><a xlink:href="classElement.html#a4a44f5bd3a5bcfabbfaf9f73578da0ef" target="_top" xlink:title="Extract values of a property in data as a one&#45;dimensional Eigen&#45;Array. ">
<polygon fill="#ffffff" stroke="#000000" points="170.5,-19.5 170.5,-49.5 290.5,-49.5 290.5,-19.5 170.5,-19.5"/>
<text text-anchor="start" x="178.5" y="-37.5" font-family="Helvetica,sans-Serif" font-size="10.00" fill="#000000">Element::make_1darray</text>
<text text-anchor="middle" x="230.5" y="-26.5" font-family="Helvetica,sans-Serif" font-size="10.00" fill="#000000">_from_data</text>
</a>
</g>
</g>
<!-- Node38&#45;&gt;Node45 -->
<g id="edge8" class="edge">
<title>Node38&#45;&gt;Node45</title>
<path fill="none" stroke="#191970" d="M96.6045,-68.9527C115.7711,-64.0209 139.7758,-57.8442 162.1471,-52.0879"/>
<polygon fill="#191970" stroke="#191970" points="163.1382,-55.447 171.9505,-49.5654 161.3938,-48.6678 163.1382,-55.447"/>
</g>
<!-- Node40 -->
<g id="node3" class="node">
<title>Node40</title>
<g id="a_node3"><a xlink:href="classGenerator.html#aa1831dae656216a78776430018cfd453" target="_top" xlink:title="Hello to this Generator object. ">
<polygon fill="#ffffff" stroke="#000000" points="342,-164 342,-183 469,-183 469,-164 342,-164"/>
<text text-anchor="middle" x="405.5" y="-171" font-family="Helvetica,sans-Serif" font-size="10.00" fill="#000000">Generator::generate_data</text>
</a>
</g>
</g>
<!-- Node39&#45;&gt;Node40 -->
<g id="edge2" class="edge">
<title>Node39&#45;&gt;Node40</title>
<path fill="none" stroke="#191970" d="M257.4425,-126.0005C279.9667,-133.8662 312.9768,-145.2159 342,-154.5 348.7011,-156.6436 355.8234,-158.847 362.7834,-160.9594"/>
<polygon fill="#191970" stroke="#191970" points="362.2123,-164.4425 372.7967,-163.9717 364.2289,-157.7393 362.2123,-164.4425"/>
</g>
<!-- Node41 -->
<g id="node4" class="node">
<title>Node41</title>
<g id="a_node4"><a xlink:href="namespaceutils.html#acee57b54806ee63ddaa30518fed90adb" target="_top" xlink:title="Raise (for Python) and throw (for C++) a runtime error. ">
<polygon fill="#ffffff" stroke="#000000" points="356.5,-88 356.5,-107 454.5,-107 454.5,-88 356.5,-88"/>
<text text-anchor="middle" x="405.5" y="-95" font-family="Helvetica,sans-Serif" font-size="10.00" fill="#000000">utils::runtime_error</text>
</a>
</g>
</g>
<!-- Node39&#45;&gt;Node41 -->
<g id="edge3" class="edge">
<title>Node39&#45;&gt;Node41</title>
<path fill="none" stroke="#191970" d="M291.7065,-109.8547C309.4211,-107.9314 328.7208,-105.836 346.31,-103.9263"/>
<polygon fill="#191970" stroke="#191970" points="346.8799,-107.3851 356.4436,-102.8261 346.1242,-100.426 346.8799,-107.3851"/>
</g>
<!-- Node42 -->
<g id="node5" class="node">
<title>Node42</title>
<g id="a_node5"><a xlink:href="namespaceutils.html#a26267fe7371b6215c5d61374d716527b" target="_top" xlink:title="Logging a message. ">
<polygon fill="#ffffff" stroke="#000000" points="379,-126 379,-145 432,-145 432,-126 379,-126"/>
<text text-anchor="middle" x="405.5" y="-133" font-family="Helvetica,sans-Serif" font-size="10.00" fill="#000000">utils::log</text>
</a>
</g>
</g>
<!-- Node39&#45;&gt;Node42 -->
<g id="edge4" class="edge">
<title>Node39&#45;&gt;Node42</title>
<path fill="none" stroke="#191970" d="M291.7065,-123.1453C317.4033,-125.9352 346.4355,-129.0873 368.7434,-131.5093"/>
<polygon fill="#191970" stroke="#191970" points="368.4769,-135.0008 378.7963,-132.6007 369.2325,-128.0417 368.4769,-135.0008"/>
</g>
<!-- Node43&#45;&gt;Node41 -->
<g id="edge7" class="edge">
<title>Node43&#45;&gt;Node41</title>
<path fill="none" stroke="#191970" d="M306.2397,-86.7232C319.6514,-88.1793 333.4384,-89.6762 346.3095,-91.0736"/>
<polygon fill="#191970" stroke="#191970" points="346.0915,-94.5704 356.4109,-92.1703 346.8471,-87.6113 346.0915,-94.5704"/>
</g>
<!-- Node44 -->
<g id="node7" class="node">
<title>Node44</title>
<g id="a_node7"><a xlink:href="namespaceutils.html#a5e5339e32b770a14691521435849c949" target="_top" xlink:title="Mimicking Python&#39;s join. ">
<polygon fill="#ffffff" stroke="#000000" points="377.5,-50 377.5,-69 433.5,-69 433.5,-50 377.5,-50"/>
<text text-anchor="middle" x="405.5" y="-57" font-family="Helvetica,sans-Serif" font-size="10.00" fill="#000000">utils::join</text>
</a>
</g>
</g>
<!-- Node43&#45;&gt;Node44 -->
<g id="edge6" class="edge">
<title>Node43&#45;&gt;Node44</title>
<path fill="none" stroke="#191970" d="M306.2397,-70.2768C327.2434,-67.9964 349.1678,-65.6161 367.0529,-63.6743"/>
<polygon fill="#191970" stroke="#191970" points="367.5153,-67.1447 377.0791,-62.5857 366.7597,-60.1856 367.5153,-67.1447"/>
</g>
<!-- Node46 -->
<g id="node9" class="node">
<title>Node46</title>
<g id="a_node9"><a xlink:href="classElement.html#a0caa9de9d810087b181300324307f9f1" target="_top" xlink:title="For speeding up to access values in Json. ">
<polygon fill="#ffffff" stroke="#000000" points="346,-.5 346,-30.5 465,-30.5 465,-.5 346,-.5"/>
<text text-anchor="start" x="354" y="-18.5" font-family="Helvetica,sans-Serif" font-size="10.00" fill="#000000">Element::get_distances</text>
<text text-anchor="middle" x="405.5" y="-7.5" font-family="Helvetica,sans-Serif" font-size="10.00" fill="#000000">_between_keys</text>
</a>
</g>
</g>
<!-- Node45&#45;&gt;Node46 -->
<g id="edge9" class="edge">
<title>Node45&#45;&gt;Node46</title>
<path fill="none" stroke="#191970" d="M290.7251,-27.9613C305.1848,-26.3914 320.7486,-24.7016 335.606,-23.0885"/>
<polygon fill="#191970" stroke="#191970" points="336.193,-26.5454 345.7567,-21.9864 335.4374,-19.5863 336.193,-26.5454"/>
</g>
</g>
</svg>
