<?xml version="1.0" encoding="UTF-8" standalone="no"?>
<!DOCTYPE svg PUBLIC "-//W3C//DTD SVG 1.1//EN"
 "http://www.w3.org/Graphics/SVG/1.1/DTD/svg11.dtd">
<!-- Generated by graphviz version 2.40.1 (20161225.0304)
 -->
<!-- Title: AddMap::compute_impl Pages: 1 -->
<svg width="263pt" height="104pt"
 viewBox="0.00 0.00 263.00 104.00" xmlns="http://www.w3.org/2000/svg" xmlns:xlink="http://www.w3.org/1999/xlink">
<g id="graph0" class="graph" transform="scale(1 1) rotate(0) translate(4 100)">
<title>AddMap::compute_impl</title>
<polygon fill="#ffffff" stroke="transparent" points="-4,4 -4,-100 259,-100 259,4 -4,4"/>
<!-- Node0 -->
<g id="node1" class="node">
<title>Node0</title>
<polygon fill="#bfbfbf" stroke="#000000" points="0,-38.5 0,-57.5 119,-57.5 119,-38.5 0,-38.5"/>
<text text-anchor="middle" x="59.5" y="-45.5" font-family="Helvetica,sans-Serif" font-size="10.00" fill="#000000">AddMap::compute_impl</text>
</g>
<!-- Node1 -->
<g id="node2" class="node">
<title>Node1</title>
<g id="a_node2"><a xlink:href="classDataKeys.html#a03517cffe825c983c3582ffb55318a7b" target="_top" xlink:title="Check if this instance has required key(s). ">
<polygon fill="#ffffff" stroke="#000000" points="155,-76.5 155,-95.5 255,-95.5 255,-76.5 155,-76.5"/>
<text text-anchor="middle" x="205" y="-83.5" font-family="Helvetica,sans-Serif" font-size="10.00" fill="#000000">DataKeys::required</text>
</a>
</g>
</g>
<!-- Node0&#45;&gt;Node1 -->
<g id="edge1" class="edge">
<title>Node0&#45;&gt;Node1</title>
<path fill="none" stroke="#191970" d="M96.2158,-57.589C115.1566,-62.5358 138.4572,-68.6211 158.6285,-73.8892"/>
<polygon fill="#191970" stroke="#191970" points="157.9883,-77.3394 168.5482,-76.4799 159.7572,-70.5665 157.9883,-77.3394"/>
</g>
<!-- Node2 -->
<g id="node3" class="node">
<title>Node2</title>
<g id="a_node3"><a xlink:href="classDataKeys.html#a83c539d93200a30f57d0d795c68ee5a2" target="_top" xlink:title="Check if this instance has optional key(s). ">
<polygon fill="#ffffff" stroke="#000000" points="155.5,-38.5 155.5,-57.5 254.5,-57.5 254.5,-38.5 155.5,-38.5"/>
<text text-anchor="middle" x="205" y="-45.5" font-family="Helvetica,sans-Serif" font-size="10.00" fill="#000000">DataKeys::optional</text>
</a>
</g>
</g>
<!-- Node0&#45;&gt;Node2 -->
<g id="edge2" class="edge">
<title>Node0&#45;&gt;Node2</title>
<path fill="none" stroke="#191970" d="M119.1002,-48C127.787,-48 136.7325,-48 145.4189,-48"/>
<polygon fill="#191970" stroke="#191970" points="145.4659,-51.5001 155.4659,-48 145.4659,-44.5001 145.4659,-51.5001"/>
</g>
<!-- Node3 -->
<g id="node4" class="node">
<title>Node3</title>
<g id="a_node4"><a xlink:href="classDataKeys.html#a626d56b99861008c2a63580ed17b809d" target="_top" xlink:title="Add a key or keys in an array to the _keys. ">
<polygon fill="#ffffff" stroke="#000000" points="164.5,-.5 164.5,-19.5 245.5,-19.5 245.5,-.5 164.5,-.5"/>
<text text-anchor="middle" x="205" y="-7.5" font-family="Helvetica,sans-Serif" font-size="10.00" fill="#000000">DataKeys::add</text>
</a>
</g>
</g>
<!-- Node0&#45;&gt;Node3 -->
<g id="edge3" class="edge">
<title>Node0&#45;&gt;Node3</title>
<path fill="none" stroke="#191970" d="M96.2158,-38.411C115.1566,-33.4642 138.4572,-27.3789 158.6285,-22.1108"/>
<polygon fill="#191970" stroke="#191970" points="159.7572,-25.4335 168.5482,-19.5201 157.9883,-18.6606 159.7572,-25.4335"/>
</g>
</g>
</svg>
