<?xml version="1.0" encoding="UTF-8" standalone="no"?>
<!DOCTYPE svg PUBLIC "-//W3C//DTD SVG 1.1//EN"
 "http://www.w3.org/Graphics/SVG/1.1/DTD/svg11.dtd">
<!-- Generated by graphviz version 2.40.1 (20161225.0304)
 -->
<!-- Title: StaDumpBox::compute_impl Pages: 1 -->
<svg width="283pt" height="66pt"
 viewBox="0.00 0.00 283.00 66.00" xmlns="http://www.w3.org/2000/svg" xmlns:xlink="http://www.w3.org/1999/xlink">
<g id="graph0" class="graph" transform="scale(1 1) rotate(0) translate(4 62)">
<title>StaDumpBox::compute_impl</title>
<polygon fill="#ffffff" stroke="transparent" points="-4,4 -4,-62 279,-62 279,4 -4,4"/>
<!-- Node0 -->
<g id="node1" class="node">
<title>Node0</title>
<polygon fill="#bfbfbf" stroke="#000000" points="0,-19.5 0,-38.5 141,-38.5 141,-19.5 0,-19.5"/>
<text text-anchor="middle" x="70.5" y="-26.5" font-family="Helvetica,sans-Serif" font-size="10.00" fill="#000000">StaDumpBox::compute_impl</text>
</g>
<!-- Node1 -->
<g id="node2" class="node">
<title>Node1</title>
<g id="a_node2"><a xlink:href="namespaceutils.html#acee57b54806ee63ddaa30518fed90adb" target="_top" xlink:title="Raise (for Python) and throw (for C++) a runtime error. ">
<polygon fill="#ffffff" stroke="#000000" points="177,-38.5 177,-57.5 275,-57.5 275,-38.5 177,-38.5"/>
<text text-anchor="middle" x="226" y="-45.5" font-family="Helvetica,sans-Serif" font-size="10.00" fill="#000000">utils::runtime_error</text>
</a>
</g>
</g>
<!-- Node0&#45;&gt;Node1 -->
<g id="edge1" class="edge">
<title>Node0&#45;&gt;Node1</title>
<path fill="none" stroke="#191970" d="M141.4243,-37.666C149.9663,-38.7097 158.619,-39.767 166.9658,-40.7868"/>
<polygon fill="#191970" stroke="#191970" points="166.6166,-44.2701 176.9673,-42.0089 167.4656,-37.3218 166.6166,-44.2701"/>
</g>
<!-- Node2 -->
<g id="node3" class="node">
<title>Node2</title>
<g id="a_node3"><a xlink:href="namespaceutils.html#a96d358b93c453a686f65db462e2be70f" target="_top" xlink:title="Mimicking Python&#39;s split. ">
<polygon fill="#ffffff" stroke="#000000" points="196.5,-.5 196.5,-19.5 255.5,-19.5 255.5,-.5 196.5,-.5"/>
<text text-anchor="middle" x="226" y="-7.5" font-family="Helvetica,sans-Serif" font-size="10.00" fill="#000000">utils::split</text>
</a>
</g>
</g>
<!-- Node0&#45;&gt;Node2 -->
<g id="edge2" class="edge">
<title>Node0&#45;&gt;Node2</title>
<path fill="none" stroke="#191970" d="M141.4243,-20.334C156.8712,-18.4466 172.6803,-16.515 186.3873,-14.8401"/>
<polygon fill="#191970" stroke="#191970" points="186.9169,-18.3015 196.4186,-13.6145 186.0679,-11.3532 186.9169,-18.3015"/>
</g>
</g>
</svg>
