<?xml version="1.0" encoding="UTF-8" standalone="no"?>
<!DOCTYPE svg PUBLIC "-//W3C//DTD SVG 1.1//EN"
 "http://www.w3.org/Graphics/SVG/1.1/DTD/svg11.dtd">
<!-- Generated by graphviz version 2.40.1 (20161225.0304)
 -->
<!-- Title: Element::get_distances_between_keys Pages: 1 -->
<!--zoomable 153 -->
<svg id="main" version="1.1" xmlns="http://www.w3.org/2000/svg" xmlns:xlink="http://www.w3.org/1999/xlink" xml:space="preserve" onload="init(evt)">
<style type="text/css"><![CDATA[
.edge:hover path { stroke: red; }
.edge:hover polygon { stroke: red; fill: red; }
]]></style>
<script type="text/javascript"><![CDATA[
var edges = document.getElementsByTagName('g');
if (edges && edges.length) {
  for (var i=0;i<edges.length;i++) {
    if (edges[i].id.substr(0,4)=='edge') {
      edges[i].setAttribute('class','edge');
    }
  }
}
]]></script>
        <defs>
                <circle id="rim" cx="0" cy="0" r="7"/>
                <circle id="rim2" cx="0" cy="0" r="3.5"/>
                <g id="zoomPlus">
                        <use xlink:href="#rim" fill="#404040">
                                <set attributeName="fill" to="#808080" begin="zoomplus.mouseover" end="zoomplus.mouseout"/>
                        </use>
                        <path d="M-4,0h8M0,-4v8" fill="none" stroke="white" stroke-width="1.5" pointer-events="none"/>
                </g>
                <g id="zoomMin">
                        <use xlink:href="#rim" fill="#404040">
                                <set attributeName="fill" to="#808080" begin="zoomminus.mouseover" end="zoomminus.mouseout"/>
                        </use>
                        <path d="M-4,0h8" fill="none" stroke="white" stroke-width="1.5" pointer-events="none"/>
                </g>
                <g id="dirArrow">
                        <path fill="none" stroke="white" stroke-width="1.5" d="M0,-3.0v7 M-2.5,-0.5L0,-3.0L2.5,-0.5"/>
                </g>
               <g id="resetDef">
                       <use xlink:href="#rim2" fill="#404040">
                               <set attributeName="fill" to="#808080" begin="reset.mouseover" end="reset.mouseout"/>
                       </use>
               </g>
        </defs>

<script type="text/javascript">
var viewWidth = 746;
var viewHeight = 153;
var sectionId = 'dynsection-17';
</script>
<script xlink:href="svgpan.js"/>
<svg id="graph" class="graph">
<g id="viewport">
<title>Element::get_distances_between_keys</title>
<polygon fill="#ffffff" stroke="transparent" points="-4,4 -4,-149 742,-149 742,4 -4,4"/>
<!-- Node87 -->
<g id="node1" class="node">
<title>Node87</title>
<polygon fill="#bfbfbf" stroke="#000000" points="0,-76 0,-106 119,-106 119,-76 0,-76"/>
<text text-anchor="start" x="8" y="-94" font-family="Helvetica,sans-Serif" font-size="10.00" fill="#000000">Element::get_distances</text>
<text text-anchor="middle" x="59.5" y="-83" font-family="Helvetica,sans-Serif" font-size="10.00" fill="#000000">_between_keys</text>
</g>
<!-- Node88 -->
<g id="node2" class="node">
<title>Node88</title>
<g id="a_node2"><a xlink:href="classElement.html#a3527671eeaa63da468ee3e7be5f64e89" target="_top" xlink:title="Get reduced data of this object. ">
<polygon fill="#ffffff" stroke="#000000" points="155,-125.5 155,-144.5 291,-144.5 291,-125.5 155,-125.5"/>
<text text-anchor="middle" x="223" y="-132.5" font-family="Helvetica,sans-Serif" font-size="10.00" fill="#000000">Element::get_reduced_data</text>
</a>
</g>
</g>
<!-- Node87&#45;&gt;Node88 -->
<g id="edge1" class="edge">
<title>Node87&#45;&gt;Node88</title>
<path fill="none" stroke="#191970" d="M124.972,-108.6194C146.2841,-114.3547 169.1345,-120.5041 187.408,-125.4217"/>
<polygon fill="#191970" stroke="#191970" points="125.8761,-105.2382 115.3101,-106.0192 124.057,-111.9977 125.8761,-105.2382"/>
</g>
<!-- Node89 -->
<g id="node3" class="node">
<title>Node89</title>
<g id="a_node3"><a xlink:href="classElement.html#a4a44f5bd3a5bcfabbfaf9f73578da0ef" target="_top" xlink:title="Extract values of a property in data as a one&#45;dimensional Eigen&#45;Array. ">
<polygon fill="#ffffff" stroke="#000000" points="163,-76 163,-106 283,-106 283,-76 163,-76"/>
<text text-anchor="start" x="171" y="-94" font-family="Helvetica,sans-Serif" font-size="10.00" fill="#000000">Element::make_1darray</text>
<text text-anchor="middle" x="223" y="-83" font-family="Helvetica,sans-Serif" font-size="10.00" fill="#000000">_from_data</text>
</a>
</g>
</g>
<!-- Node87&#45;&gt;Node89 -->
<g id="edge2" class="edge">
<title>Node87&#45;&gt;Node89</title>
<path fill="none" stroke="#191970" d="M129.516,-91C140.5895,-91 151.9562,-91 162.7808,-91"/>
<polygon fill="#191970" stroke="#191970" points="129.453,-87.5001 119.453,-91 129.4529,-94.5001 129.453,-87.5001"/>
</g>
<!-- Node94 -->
<g id="node8" class="node">
<title>Node94</title>
<g id="a_node8"><a xlink:href="classElement.html#afaa377d93eafff59a2c1f2b6ff3d0a5b" target="_top" xlink:title="Extract values of properties in data as a two&#45;dimensional Eigen&#45;Array. ">
<polygon fill="#ffffff" stroke="#000000" points="163,-27 163,-57 283,-57 283,-27 163,-27"/>
<text text-anchor="start" x="171" y="-45" font-family="Helvetica,sans-Serif" font-size="10.00" fill="#000000">Element::make_2darray</text>
<text text-anchor="middle" x="223" y="-34" font-family="Helvetica,sans-Serif" font-size="10.00" fill="#000000">_from_data</text>
</a>
</g>
</g>
<!-- Node87&#45;&gt;Node94 -->
<g id="edge8" class="edge">
<title>Node87&#45;&gt;Node94</title>
<path fill="none" stroke="#191970" d="M119.938,-72.8871C137.32,-67.6778 156.084,-62.0543 172.7769,-57.0516"/>
<polygon fill="#191970" stroke="#191970" points="118.4638,-69.675 109.8895,-75.8986 120.4734,-76.3804 118.4638,-69.675"/>
</g>
<!-- Node90 -->
<g id="node4" class="node">
<title>Node90</title>
<g id="a_node4"><a xlink:href="classElement.html#a8257b02b1e3b208f193b35d5d47b9af8" target="_top" xlink:title="Get integer values stored in Element::data of this object as a one&#45;dimensional Numpy&#45;Array. ">
<polygon fill="#ffffff" stroke="#000000" points="331.5,-114.5 331.5,-133.5 450.5,-133.5 450.5,-114.5 331.5,-114.5"/>
<text text-anchor="middle" x="391" y="-121.5" font-family="Helvetica,sans-Serif" font-size="10.00" fill="#000000">Element::get_1d_int_py</text>
</a>
</g>
</g>
<!-- Node89&#45;&gt;Node90 -->
<g id="edge3" class="edge">
<title>Node89&#45;&gt;Node90</title>
<path fill="none" stroke="#191970" d="M293.3681,-104.8223C309.9239,-108.0743 327.2056,-111.469 342.5475,-114.4825"/>
<polygon fill="#191970" stroke="#191970" points="293.6645,-101.3137 283.1773,-102.8205 292.3152,-108.1825 293.6645,-101.3137"/>
</g>
<!-- Node93 -->
<g id="node7" class="node">
<title>Node93</title>
<g id="a_node7"><a xlink:href="classElement.html#a3f11848589faad4cbca8119385887713" target="_top" xlink:title="Get float values stored in Element::data of this object as a one&#45;dimensional Numpy&#45;Array. ">
<polygon fill="#ffffff" stroke="#000000" points="327,-76.5 327,-95.5 455,-95.5 455,-76.5 327,-76.5"/>
<text text-anchor="middle" x="391" y="-83.5" font-family="Helvetica,sans-Serif" font-size="10.00" fill="#000000">Element::get_1d_float_py</text>
</a>
</g>
</g>
<!-- Node89&#45;&gt;Node93 -->
<g id="edge6" class="edge">
<title>Node89&#45;&gt;Node93</title>
<path fill="none" stroke="#191970" d="M293.3137,-88.9073C304.4782,-88.5751 315.9741,-88.2329 326.9837,-87.9052"/>
<polygon fill="#191970" stroke="#191970" points="293.0688,-85.413 283.1773,-89.209 293.2771,-92.4099 293.0688,-85.413"/>
</g>
<!-- Node91 -->
<g id="node5" class="node">
<title>Node91</title>
<g id="a_node5"><a xlink:href="namespacepybind.html#aa960fe0db10e19d7b7b60784a7e81be0" target="_top" xlink:title="Bind Element class to Python. ">
<polygon fill="#ffffff" stroke="#000000" points="491,-57.5 491,-76.5 592,-76.5 592,-57.5 491,-57.5"/>
<text text-anchor="middle" x="541.5" y="-64.5" font-family="Helvetica,sans-Serif" font-size="10.00" fill="#000000">pybind::py_element</text>
</a>
</g>
</g>
<!-- Node90&#45;&gt;Node91 -->
<g id="edge4" class="edge">
<title>Node90&#45;&gt;Node91</title>
<path fill="none" stroke="#191970" d="M436.0686,-111.3954C442.4658,-109.3818 448.9295,-107.2246 455,-105 478.2556,-96.4779 504.1716,-84.7884 521.5185,-76.6331"/>
<polygon fill="#191970" stroke="#191970" points="434.6771,-108.1607 426.1364,-114.4304 436.7228,-114.8552 434.6771,-108.1607"/>
</g>
<!-- Node92 -->
<g id="node6" class="node">
<title>Node92</title>
<g id="a_node6"><a xlink:href="pybind_8h.html#a4714c4a855ebb82892410d5254e9ccdc" target="_top" xlink:title="Macro for generating Python module named _ppap4lmp. ">
<polygon fill="#ffffff" stroke="#000000" points="628,-57.5 628,-76.5 738,-76.5 738,-57.5 628,-57.5"/>
<text text-anchor="middle" x="683" y="-64.5" font-family="Helvetica,sans-Serif" font-size="10.00" fill="#000000">PYBIND11_MODULE</text>
</a>
</g>
</g>
<!-- Node91&#45;&gt;Node92 -->
<g id="edge5" class="edge">
<title>Node91&#45;&gt;Node92</title>
<path fill="none" stroke="#191970" d="M602.3877,-67C610.8576,-67 619.5199,-67 627.8761,-67"/>
<polygon fill="#191970" stroke="#191970" points="602.1851,-63.5001 592.1851,-67 602.185,-70.5001 602.1851,-63.5001"/>
</g>
<!-- Node93&#45;&gt;Node91 -->
<g id="edge7" class="edge">
<title>Node93&#45;&gt;Node91</title>
<path fill="none" stroke="#191970" d="M465.2998,-76.62C473.8797,-75.5368 482.4761,-74.4515 490.6427,-73.4205"/>
<polygon fill="#191970" stroke="#191970" points="464.7449,-73.1621 455.2621,-77.8872 465.6218,-80.107 464.7449,-73.1621"/>
</g>
<!-- Node95 -->
<g id="node9" class="node">
<title>Node95</title>
<g id="a_node9"><a xlink:href="classElement.html#a8e8245fb94b6417e3e804e6bfdf2f906" target="_top" xlink:title="Get integer values stored in Element::data of this object as a two&#45;dimensional Numpy&#45;Array. ">
<polygon fill="#ffffff" stroke="#000000" points="331.5,-38.5 331.5,-57.5 450.5,-57.5 450.5,-38.5 331.5,-38.5"/>
<text text-anchor="middle" x="391" y="-45.5" font-family="Helvetica,sans-Serif" font-size="10.00" fill="#000000">Element::get_2d_int_py</text>
</a>
</g>
</g>
<!-- Node94&#45;&gt;Node95 -->
<g id="edge9" class="edge">
<title>Node94&#45;&gt;Node95</title>
<path fill="none" stroke="#191970" d="M293.2051,-44.5073C305.8518,-44.959 318.9275,-45.426 331.2428,-45.8658"/>
<polygon fill="#191970" stroke="#191970" points="293.2959,-41.0084 283.1773,-44.1492 293.046,-48.004 293.2959,-41.0084"/>
</g>
<!-- Node96 -->
<g id="node10" class="node">
<title>Node96</title>
<g id="a_node10"><a xlink:href="classElement.html#a6a62280eadd3d4e6bfe8c43082797733" target="_top" xlink:title="Get float values stored in Element::data of this object as a two&#45;dimensional Numpy&#45;Array. ">
<polygon fill="#ffffff" stroke="#000000" points="327,-.5 327,-19.5 455,-19.5 455,-.5 327,-.5"/>
<text text-anchor="middle" x="391" y="-7.5" font-family="Helvetica,sans-Serif" font-size="10.00" fill="#000000">Element::get_2d_float_py</text>
</a>
</g>
</g>
<!-- Node94&#45;&gt;Node96 -->
<g id="edge11" class="edge">
<title>Node94&#45;&gt;Node96</title>
<path fill="none" stroke="#191970" d="M293.0693,-28.6535C309.1367,-25.593 325.9036,-22.3993 340.9295,-19.5372"/>
<polygon fill="#191970" stroke="#191970" points="292.3458,-25.2283 283.1773,-30.5377 293.6556,-32.1046 292.3458,-25.2283"/>
</g>
<!-- Node95&#45;&gt;Node91 -->
<g id="edge10" class="edge">
<title>Node95&#45;&gt;Node91</title>
<path fill="none" stroke="#191970" d="M460.971,-56.8336C471.0981,-58.1121 481.3533,-59.4067 490.9981,-60.6243"/>
<polygon fill="#191970" stroke="#191970" points="461.2737,-53.3441 450.914,-55.5639 460.3969,-60.2889 461.2737,-53.3441"/>
</g>
<!-- Node96&#45;&gt;Node91 -->
<g id="edge12" class="edge">
<title>Node96&#45;&gt;Node91</title>
<path fill="none" stroke="#191970" d="M436.0686,-22.6046C442.4658,-24.6182 448.9295,-26.7754 455,-29 478.2556,-37.5221 504.1716,-49.2116 521.5185,-57.3669"/>
<polygon fill="#191970" stroke="#191970" points="436.7228,-19.1448 426.1364,-19.5696 434.6771,-25.8393 436.7228,-19.1448"/>
</g>
</g>
</svg>
        <g id="navigator" transform="translate(0 0)" fill="#404254">
                <rect fill="#f2f5e9" fill-opacity="0.5" stroke="#606060" stroke-width=".5" x="0" y="0" width="60" height="60"/>
                <use id="zoomplus" xlink:href="#zoomPlus" x="17" y="9" onmousedown="handleZoom(evt,'in')"/>
                <use id="zoomminus" xlink:href="#zoomMin" x="42" y="9" onmousedown="handleZoom(evt,'out')"/>
                <use id="reset" xlink:href="#resetDef" x="30" y="36" onmousedown="handleReset()"/>
                <g id="arrowUp" xlink:href="#dirArrow" transform="translate(30 24)" onmousedown="handlePan(0,-1)">
                  <use xlink:href="#rim" fill="#404040">
                        <set attributeName="fill" to="#808080" begin="arrowUp.mouseover" end="arrowUp.mouseout"/>
                  </use>
                  <path fill="none" stroke="white" stroke-width="1.5" d="M0,-3.0v7 M-2.5,-0.5L0,-3.0L2.5,-0.5"/>
                </g>
                <g id="arrowRight" xlink:href="#dirArrow" transform="rotate(90) translate(36 -43)" onmousedown="handlePan(1,0)">
                  <use xlink:href="#rim" fill="#404040">
                        <set attributeName="fill" to="#808080" begin="arrowRight.mouseover" end="arrowRight.mouseout"/>
                  </use>
                  <path fill="none" stroke="white" stroke-width="1.5" d="M0,-3.0v7 M-2.5,-0.5L0,-3.0L2.5,-0.5"/>
                </g>
                <g id="arrowDown" xlink:href="#dirArrow" transform="rotate(180) translate(-30 -48)" onmousedown="handlePan(0,1)">
                  <use xlink:href="#rim" fill="#404040">
                        <set attributeName="fill" to="#808080" begin="arrowDown.mouseover" end="arrowDown.mouseout"/>
                  </use>
                  <path fill="none" stroke="white" stroke-width="1.5" d="M0,-3.0v7 M-2.5,-0.5L0,-3.0L2.5,-0.5"/>
                </g>
                <g id="arrowLeft" xlink:href="#dirArrow" transform="rotate(270) translate(-36 17)" onmousedown="handlePan(-1,0)">
                  <use xlink:href="#rim" fill="#404040">
                        <set attributeName="fill" to="#808080" begin="arrowLeft.mouseover" end="arrowLeft.mouseout"/>
                  </use>
                  <path fill="none" stroke="white" stroke-width="1.5" d="M0,-3.0v7 M-2.5,-0.5L0,-3.0L2.5,-0.5"/>
                </g>
        </g>
        <svg viewBox="0 0 15 15" width="100%" height="30px" preserveAspectRatio="xMaxYMin meet">
         <g id="arrow_out" transform="scale(0.3 0.3)">
          <a xlink:href="classElement_a0caa9de9d810087b181300324307f9f1_icgraph_org.svg" target="_base">
           <rect id="button" ry="5" rx="5" y="6" x="6" height="38" width="38"
                fill="#f2f5e9" fill-opacity="0.5" stroke="#606060" stroke-width="1.0"/>
           <path id="arrow"
             d="M 11.500037,31.436501 C 11.940474,20.09759 22.043105,11.32322 32.158766,21.979434 L 37.068811,17.246167 C 37.068811,17.246167 37.088388,32 37.088388,32 L 22.160133,31.978069 C 22.160133,31.978069 26.997745,27.140456 26.997745,27.140456 C 18.528582,18.264221 13.291696,25.230495 11.500037,31.436501 z"
             style="fill:#404040;"/>
          </a>
         </g>
        </svg>
</svg>
