<?xml version="1.0" encoding="UTF-8" standalone="no"?>
<!DOCTYPE svg PUBLIC "-//W3C//DTD SVG 1.1//EN"
 "http://www.w3.org/Graphics/SVG/1.1/DTD/svg11.dtd">
<!-- Generated by graphviz version 2.40.1 (20161225.0304)
 -->
<!-- Title: Updater::compute_impl Pages: 1 -->
<svg width="250pt" height="104pt"
 viewBox="0.00 0.00 250.00 104.00" xmlns="http://www.w3.org/2000/svg" xmlns:xlink="http://www.w3.org/1999/xlink">
<g id="graph0" class="graph" transform="scale(1 1) rotate(0) translate(4 100)">
<title>Updater::compute_impl</title>
<polygon fill="#ffffff" stroke="transparent" points="-4,4 -4,-100 246,-100 246,4 -4,4"/>
<!-- Node10 -->
<g id="node1" class="node">
<title>Node10</title>
<polygon fill="#bfbfbf" stroke="#000000" points="0,-38.5 0,-57.5 117,-57.5 117,-38.5 0,-38.5"/>
<text text-anchor="middle" x="58.5" y="-45.5" font-family="Helvetica,sans-Serif" font-size="10.00" fill="#000000">Updater::compute_impl</text>
</g>
<!-- Node11 -->
<g id="node2" class="node">
<title>Node11</title>
<g id="a_node2"><a xlink:href="classAdder.html#ac4de42742fffbb58ac8ab71a1eb17100" target="_top" xlink:title="Compute properties and add them to Element::data given as a reference. ">
<polygon fill="#ffffff" stroke="#000000" points="154.5,-76.5 154.5,-95.5 240.5,-95.5 240.5,-76.5 154.5,-76.5"/>
<text text-anchor="middle" x="197.5" y="-83.5" font-family="Helvetica,sans-Serif" font-size="10.00" fill="#000000">Adder::compute</text>
</a>
</g>
</g>
<!-- Node10&#45;&gt;Node11 -->
<g id="edge1" class="edge">
<title>Node10&#45;&gt;Node11</title>
<path fill="none" stroke="#191970" d="M103.2953,-60.2462C122.4547,-65.484 144.4938,-71.5091 162.4357,-76.4141"/>
<polygon fill="#191970" stroke="#191970" points="104.1446,-56.85 93.5756,-57.589 102.2986,-63.6022 104.1446,-56.85"/>
</g>
<!-- Node12 -->
<g id="node3" class="node">
<title>Node12</title>
<g id="a_node3"><a xlink:href="classFilter.html#acd658aa335c8b5215242737aabcf5155" target="_top" xlink:title="Filter items in array Element::data given as a reference or copied from ext_generator if the referenc...">
<polygon fill="#ffffff" stroke="#000000" points="156.5,-38.5 156.5,-57.5 238.5,-57.5 238.5,-38.5 156.5,-38.5"/>
<text text-anchor="middle" x="197.5" y="-45.5" font-family="Helvetica,sans-Serif" font-size="10.00" fill="#000000">Filter::compute</text>
</a>
</g>
</g>
<!-- Node10&#45;&gt;Node12 -->
<g id="edge2" class="edge">
<title>Node10&#45;&gt;Node12</title>
<path fill="none" stroke="#191970" d="M127.3343,-48C137.246,-48 147.1757,-48 156.3171,-48"/>
<polygon fill="#191970" stroke="#191970" points="127.0457,-44.5001 117.0457,-48 127.0456,-51.5001 127.0457,-44.5001"/>
</g>
<!-- Node13 -->
<g id="node4" class="node">
<title>Node13</title>
<g id="a_node4"><a xlink:href="classStarter.html#a5e1cc4f19ad4d82b765b48c5aa8eb22a" target="_top" xlink:title="Managing computation to update the data. ">
<polygon fill="#ffffff" stroke="#000000" points="153,-.5 153,-19.5 242,-19.5 242,-.5 153,-.5"/>
<text text-anchor="middle" x="197.5" y="-7.5" font-family="Helvetica,sans-Serif" font-size="10.00" fill="#000000">Starter::compute</text>
</a>
</g>
</g>
<!-- Node10&#45;&gt;Node13 -->
<g id="edge3" class="edge">
<title>Node10&#45;&gt;Node13</title>
<path fill="none" stroke="#191970" d="M103.2953,-35.7538C122.4547,-30.516 144.4938,-24.4909 162.4357,-19.5859"/>
<polygon fill="#191970" stroke="#191970" points="102.2986,-32.3978 93.5756,-38.411 104.1446,-39.15 102.2986,-32.3978"/>
</g>
</g>
</svg>
