<?xml version="1.0" encoding="UTF-8" standalone="no"?>
<!DOCTYPE svg PUBLIC "-//W3C//DTD SVG 1.1//EN"
 "http://www.w3.org/Graphics/SVG/1.1/DTD/svg11.dtd">
<!-- Generated by graphviz version 2.40.1 (20161225.0304)
 -->
<!-- Title: Starter Pages: 1 -->
<svg width="138pt" height="430pt"
 viewBox="0.00 0.00 138.00 430.00" xmlns="http://www.w3.org/2000/svg" xmlns:xlink="http://www.w3.org/1999/xlink">
<g id="graph0" class="graph" transform="scale(1 1) rotate(0) translate(4 426)">
<title>Starter</title>
<polygon fill="#ffffff" stroke="transparent" points="-4,4 -4,-426 134,-426 134,4 -4,4"/>
<!-- Node10 -->
<g id="node1" class="node">
<title>Node10</title>
<polygon fill="#bfbfbf" stroke="#000000" points="16,-.5 16,-90.5 114,-90.5 114,-.5 16,-.5"/>
<text text-anchor="middle" x="65" y="-78.5" font-family="Helvetica,sans-Serif" font-size="10.00" fill="#000000">Starter</text>
<polyline fill="none" stroke="#000000" points="16,-71.5 114,-71.5 "/>
<text text-anchor="start" x="24" y="-59.5" font-family="Helvetica,sans-Serif" font-size="10.00" fill="#000000"># do_sorting_by_id</text>
<polyline fill="none" stroke="#000000" points="16,-52.5 114,-52.5 "/>
<text text-anchor="start" x="24" y="-40.5" font-family="Helvetica,sans-Serif" font-size="10.00" fill="#000000">+ ~Starter()</text>
<text text-anchor="start" x="24" y="-29.5" font-family="Helvetica,sans-Serif" font-size="10.00" fill="#000000">+ compute()</text>
<text text-anchor="start" x="24" y="-18.5" font-family="Helvetica,sans-Serif" font-size="10.00" fill="#000000">+ Updater()</text>
<text text-anchor="start" x="24" y="-7.5" font-family="Helvetica,sans-Serif" font-size="10.00" fill="#000000">&#45; sort_by_id()</text>
</g>
<!-- Node11 -->
<g id="node2" class="node">
<title>Node11</title>
<g id="a_node2"><a xlink:href="classUpdater.html" target="_top" xlink:title="Updater is an abstract class to update data held by an Element object. ">
<polygon fill="#ffffff" stroke="#000000" points="0,-127.5 0,-316.5 130,-316.5 130,-127.5 0,-127.5"/>
<text text-anchor="middle" x="65" y="-304.5" font-family="Helvetica,sans-Serif" font-size="10.00" fill="#000000">Updater</text>
<polyline fill="none" stroke="#000000" points="0,-297.5 130,-297.5 "/>
<text text-anchor="start" x="8" y="-285.5" font-family="Helvetica,sans-Serif" font-size="10.00" fill="#000000"># ext_generator</text>
<text text-anchor="start" x="8" y="-274.5" font-family="Helvetica,sans-Serif" font-size="10.00" fill="#000000"># required_keys</text>
<text text-anchor="start" x="8" y="-263.5" font-family="Helvetica,sans-Serif" font-size="10.00" fill="#000000"># optional_keys</text>
<text text-anchor="start" x="8" y="-252.5" font-family="Helvetica,sans-Serif" font-size="10.00" fill="#000000">&#45; dataid_blacklist</text>
<text text-anchor="start" x="8" y="-241.5" font-family="Helvetica,sans-Serif" font-size="10.00" fill="#000000">&#45; omp_lock</text>
<polyline fill="none" stroke="#000000" points="0,-234.5 130,-234.5 "/>
<text text-anchor="start" x="8" y="-222.5" font-family="Helvetica,sans-Serif" font-size="10.00" fill="#000000">+ Updater()</text>
<text text-anchor="start" x="8" y="-211.5" font-family="Helvetica,sans-Serif" font-size="10.00" fill="#000000">+ ~Updater()</text>
<text text-anchor="start" x="8" y="-200.5" font-family="Helvetica,sans-Serif" font-size="10.00" fill="#000000">+ compute()</text>
<text text-anchor="start" x="8" y="-189.5" font-family="Helvetica,sans-Serif" font-size="10.00" fill="#000000">+ remove_from_blacklist()</text>
<text text-anchor="start" x="8" y="-178.5" font-family="Helvetica,sans-Serif" font-size="10.00" fill="#000000">+ get_ext_generator()</text>
<text text-anchor="start" x="8" y="-167.5" font-family="Helvetica,sans-Serif" font-size="10.00" fill="#000000"># compute_impl()</text>
<text text-anchor="start" x="8" y="-156.5" font-family="Helvetica,sans-Serif" font-size="10.00" fill="#000000"># make_required_keys()</text>
<text text-anchor="start" x="8" y="-145.5" font-family="Helvetica,sans-Serif" font-size="10.00" fill="#000000"># make_optional_keys()</text>
<text text-anchor="start" x="8" y="-134.5" font-family="Helvetica,sans-Serif" font-size="10.00" fill="#000000"># check_blacklist()</text>
</a>
</g>
</g>
<!-- Node11&#45;&gt;Node10 -->
<g id="edge1" class="edge">
<title>Node11&#45;&gt;Node10</title>
<path fill="none" stroke="#191970" d="M65,-117.1839C65,-107.9415 65,-98.9505 65,-90.6363"/>
<polygon fill="none" stroke="#191970" points="61.5001,-117.2915 65,-127.2915 68.5001,-117.2915 61.5001,-117.2915"/>
</g>
<!-- Node12 -->
<g id="node3" class="node">
<title>Node12</title>
<polygon fill="#ffffff" stroke="#bfbfbf" points="8,-353.5 8,-421.5 122,-421.5 122,-353.5 8,-353.5"/>
<text text-anchor="start" x="16" y="-409.5" font-family="Helvetica,sans-Serif" font-size="10.00" fill="#000000">std::enable_shared</text>
<text text-anchor="middle" x="65" y="-398.5" font-family="Helvetica,sans-Serif" font-size="10.00" fill="#000000">_from_this&lt; Updater &gt;</text>
<polyline fill="none" stroke="#bfbfbf" points="8,-391.5 122,-391.5 "/>
<text text-anchor="middle" x="65" y="-379.5" font-family="Helvetica,sans-Serif" font-size="10.00" fill="#000000"> </text>
<polyline fill="none" stroke="#bfbfbf" points="8,-372.5 122,-372.5 "/>
<text text-anchor="middle" x="65" y="-360.5" font-family="Helvetica,sans-Serif" font-size="10.00" fill="#000000"> </text>
</g>
<!-- Node12&#45;&gt;Node11 -->
<g id="edge2" class="edge">
<title>Node12&#45;&gt;Node11</title>
<path fill="none" stroke="#191970" d="M65,-343.0888C65,-334.7937 65,-325.8388 65,-316.6848"/>
<polygon fill="none" stroke="#191970" points="61.5001,-343.2083 65,-353.2083 68.5001,-343.2083 61.5001,-343.2083"/>
</g>
</g>
</svg>
