<?xml version="1.0" encoding="UTF-8" standalone="no"?>
<!DOCTYPE svg PUBLIC "-//W3C//DTD SVG 1.1//EN"
 "http://www.w3.org/Graphics/SVG/1.1/DTD/svg11.dtd">
<!-- Generated by graphviz version 2.40.1 (20161225.0304)
 -->
<!-- Title: Generator Pages: 1 -->
<svg width="335pt" height="573pt"
 viewBox="0.00 0.00 335.00 573.00" xmlns="http://www.w3.org/2000/svg" xmlns:xlink="http://www.w3.org/1999/xlink">
<g id="graph0" class="graph" transform="scale(1 1) rotate(0) translate(4 569)">
<title>Generator</title>
<polygon fill="#ffffff" stroke="transparent" points="-4,4 -4,-569 331,-569 331,4 -4,4"/>
<!-- Node0 -->
<g id="node1" class="node">
<title>Node0</title>
<polygon fill="#bfbfbf" stroke="#000000" points="112,-419.5 112,-564.5 233,-564.5 233,-419.5 112,-419.5"/>
<text text-anchor="middle" x="172.5" y="-552.5" font-family="Helvetica,sans-Serif" font-size="10.00" fill="#000000">Generator</text>
<polyline fill="none" stroke="#000000" points="112,-545.5 233,-545.5 "/>
<text text-anchor="start" x="120" y="-533.5" font-family="Helvetica,sans-Serif" font-size="10.00" fill="#000000"># update_chain</text>
<polyline fill="none" stroke="#000000" points="112,-526.5 233,-526.5 "/>
<text text-anchor="start" x="120" y="-514.5" font-family="Helvetica,sans-Serif" font-size="10.00" fill="#000000">+ Generator()</text>
<text text-anchor="start" x="120" y="-503.5" font-family="Helvetica,sans-Serif" font-size="10.00" fill="#000000">+ ~Generator()</text>
<text text-anchor="start" x="120" y="-492.5" font-family="Helvetica,sans-Serif" font-size="10.00" fill="#000000">+ get_element()</text>
<text text-anchor="start" x="120" y="-481.5" font-family="Helvetica,sans-Serif" font-size="10.00" fill="#000000">+ get_generator()</text>
<text text-anchor="start" x="120" y="-470.5" font-family="Helvetica,sans-Serif" font-size="10.00" fill="#000000">+ appoint()</text>
<text text-anchor="start" x="120" y="-459.5" font-family="Helvetica,sans-Serif" font-size="10.00" fill="#000000">+ hello()</text>
<text text-anchor="start" x="120" y="-448.5" font-family="Helvetica,sans-Serif" font-size="10.00" fill="#000000">+ goodbye()</text>
<text text-anchor="start" x="120" y="-437.5" font-family="Helvetica,sans-Serif" font-size="10.00" fill="#000000">+ get_update_chain()</text>
<text text-anchor="start" x="120" y="-426.5" font-family="Helvetica,sans-Serif" font-size="10.00" fill="#000000"># merge_update_chain()</text>
</g>
<!-- Node1 -->
<g id="node2" class="node">
<title>Node1</title>
<g id="a_node2"><a xlink:href="classElement.html" target="_top" xlink:title="Element inherits Generator class and contains data element (or entity) as a Json object. ">
<polygon fill="#ffffff" stroke="#000000" points="0,-116.5 0,-382.5 109,-382.5 109,-116.5 0,-116.5"/>
<text text-anchor="middle" x="54.5" y="-370.5" font-family="Helvetica,sans-Serif" font-size="10.00" fill="#000000">Element</text>
<polyline fill="none" stroke="#000000" points="0,-363.5 109,-363.5 "/>
<text text-anchor="start" x="8" y="-351.5" font-family="Helvetica,sans-Serif" font-size="10.00" fill="#000000">&#45; n_remain</text>
<text text-anchor="start" x="8" y="-340.5" font-family="Helvetica,sans-Serif" font-size="10.00" fill="#000000">&#45; dataid</text>
<text text-anchor="start" x="8" y="-329.5" font-family="Helvetica,sans-Serif" font-size="10.00" fill="#000000">&#45; data</text>
<text text-anchor="start" x="8" y="-318.5" font-family="Helvetica,sans-Serif" font-size="10.00" fill="#000000">&#45; datakeys</text>
<text text-anchor="start" x="8" y="-307.5" font-family="Helvetica,sans-Serif" font-size="10.00" fill="#000000">&#45; omp_lock</text>
<text text-anchor="start" x="8" y="-296.5" font-family="Helvetica,sans-Serif" font-size="10.00" fill="#000000">&#45; instance_count</text>
<polyline fill="none" stroke="#000000" points="0,-289.5 109,-289.5 "/>
<text text-anchor="start" x="8" y="-277.5" font-family="Helvetica,sans-Serif" font-size="10.00" fill="#000000">+ Element()</text>
<text text-anchor="start" x="8" y="-266.5" font-family="Helvetica,sans-Serif" font-size="10.00" fill="#000000">+ ~Element()</text>
<text text-anchor="start" x="8" y="-255.5" font-family="Helvetica,sans-Serif" font-size="10.00" fill="#000000">+ get_element()</text>
<text text-anchor="start" x="8" y="-244.5" font-family="Helvetica,sans-Serif" font-size="10.00" fill="#000000">+ get_generator()</text>
<text text-anchor="start" x="8" y="-233.5" font-family="Helvetica,sans-Serif" font-size="10.00" fill="#000000">+ append_updater()</text>
<text text-anchor="start" x="8" y="-222.5" font-family="Helvetica,sans-Serif" font-size="10.00" fill="#000000">+ get_data()</text>
<text text-anchor="start" x="8" y="-211.5" font-family="Helvetica,sans-Serif" font-size="10.00" fill="#000000">+ get_data()</text>
<text text-anchor="start" x="8" y="-200.5" font-family="Helvetica,sans-Serif" font-size="10.00" fill="#000000">+ get_keys()</text>
<text text-anchor="start" x="8" y="-189.5" font-family="Helvetica,sans-Serif" font-size="10.00" fill="#000000">+ array1d()</text>
<text text-anchor="start" x="8" y="-178.5" font-family="Helvetica,sans-Serif" font-size="10.00" fill="#000000">+ array2d()</text>
<text text-anchor="start" x="8" y="-167.5" font-family="Helvetica,sans-Serif" font-size="10.00" fill="#000000">and 8 more...</text>
<text text-anchor="start" x="8" y="-156.5" font-family="Helvetica,sans-Serif" font-size="10.00" fill="#000000">&#45; increment_remain()</text>
<text text-anchor="start" x="8" y="-145.5" font-family="Helvetica,sans-Serif" font-size="10.00" fill="#000000">&#45; decrement_remain()</text>
<text text-anchor="start" x="8" y="-134.5" font-family="Helvetica,sans-Serif" font-size="10.00" fill="#000000">&#45; update_data()</text>
<text text-anchor="start" x="8" y="-123.5" font-family="Helvetica,sans-Serif" font-size="10.00" fill="#000000">&#45; init_for_python()</text>
</a>
</g>
</g>
<!-- Node0&#45;&gt;Node1 -->
<g id="edge1" class="edge">
<title>Node0&#45;&gt;Node1</title>
<path fill="none" stroke="#191970" d="M131.8417,-410.218C127.3234,-401.0444 122.8024,-391.8275 118.5,-383 115.4033,-376.6462 112.2333,-370.117 109.0417,-363.5233"/>
<polygon fill="none" stroke="#191970" points="128.7887,-411.9406 136.3509,-419.3611 135.0667,-408.8444 128.7887,-411.9406"/>
</g>
<!-- Node3 -->
<g id="node4" class="node">
<title>Node3</title>
<g id="a_node4"><a xlink:href="classGenDict.html" target="_top" xlink:title="GenDict is a dictionary (or map) of Generator objects. ">
<polygon fill="#ffffff" stroke="#000000" points="127,-199 127,-300 218,-300 218,-199 127,-199"/>
<text text-anchor="middle" x="172.5" y="-288" font-family="Helvetica,sans-Serif" font-size="10.00" fill="#000000">GenDict</text>
<polyline fill="none" stroke="#000000" points="127,-281 218,-281 "/>
<text text-anchor="start" x="135" y="-269" font-family="Helvetica,sans-Serif" font-size="10.00" fill="#000000">&#45; generator_dict</text>
<polyline fill="none" stroke="#000000" points="127,-262 218,-262 "/>
<text text-anchor="start" x="135" y="-250" font-family="Helvetica,sans-Serif" font-size="10.00" fill="#000000">+ GenDict()</text>
<text text-anchor="start" x="135" y="-239" font-family="Helvetica,sans-Serif" font-size="10.00" fill="#000000">+ ~GenDict()</text>
<text text-anchor="start" x="135" y="-228" font-family="Helvetica,sans-Serif" font-size="10.00" fill="#000000">+ get_element()</text>
<text text-anchor="start" x="135" y="-217" font-family="Helvetica,sans-Serif" font-size="10.00" fill="#000000">+ get_generator()</text>
<text text-anchor="start" x="135" y="-206" font-family="Helvetica,sans-Serif" font-size="10.00" fill="#000000">+ get_keys()</text>
</a>
</g>
</g>
<!-- Node0&#45;&gt;Node3 -->
<g id="edge3" class="edge">
<title>Node0&#45;&gt;Node3</title>
<path fill="none" stroke="#191970" d="M172.5,-409.1913C172.5,-373.0353 172.5,-331.7926 172.5,-300.2782"/>
<polygon fill="none" stroke="#191970" points="169.0001,-409.242 172.5,-419.242 176.0001,-409.242 169.0001,-409.242"/>
</g>
<!-- Node4 -->
<g id="node5" class="node">
<title>Node4</title>
<g id="a_node5"><a xlink:href="classGenList.html" target="_top" xlink:title="GenList is a list (or vector) of Generator objects. ">
<polygon fill="#ffffff" stroke="#000000" points="236,-199 236,-300 327,-300 327,-199 236,-199"/>
<text text-anchor="middle" x="281.5" y="-288" font-family="Helvetica,sans-Serif" font-size="10.00" fill="#000000">GenList</text>
<polyline fill="none" stroke="#000000" points="236,-281 327,-281 "/>
<text text-anchor="start" x="244" y="-269" font-family="Helvetica,sans-Serif" font-size="10.00" fill="#000000">&#45; generator_list</text>
<polyline fill="none" stroke="#000000" points="236,-262 327,-262 "/>
<text text-anchor="start" x="244" y="-250" font-family="Helvetica,sans-Serif" font-size="10.00" fill="#000000">+ GenList()</text>
<text text-anchor="start" x="244" y="-239" font-family="Helvetica,sans-Serif" font-size="10.00" fill="#000000">+ ~GenList()</text>
<text text-anchor="start" x="244" y="-228" font-family="Helvetica,sans-Serif" font-size="10.00" fill="#000000">+ get_element()</text>
<text text-anchor="start" x="244" y="-217" font-family="Helvetica,sans-Serif" font-size="10.00" fill="#000000">+ get_generator()</text>
<text text-anchor="start" x="244" y="-206" font-family="Helvetica,sans-Serif" font-size="10.00" fill="#000000">+ get_length()</text>
</a>
</g>
</g>
<!-- Node0&#45;&gt;Node4 -->
<g id="edge4" class="edge">
<title>Node0&#45;&gt;Node4</title>
<path fill="none" stroke="#191970" d="M214.6437,-410.293C219.0925,-401.1373 223.4613,-391.9036 227.5,-383 239.7384,-356.0193 252.2172,-325.4121 262.0915,-300.3168"/>
<polygon fill="none" stroke="#191970" points="211.4347,-408.8877 210.1774,-419.4077 217.7206,-411.9679 211.4347,-408.8877"/>
</g>
<!-- Node2 -->
<g id="node3" class="node">
<title>Node2</title>
<g id="a_node3"><a xlink:href="classPyElement.html" target="_top" xlink:title="Trampoline class to bind Element class to Python. ">
<polygon fill="#ffffff" stroke="#000000" points="9,-.5 9,-79.5 100,-79.5 100,-.5 9,-.5"/>
<text text-anchor="middle" x="54.5" y="-67.5" font-family="Helvetica,sans-Serif" font-size="10.00" fill="#000000">PyElement</text>
<polyline fill="none" stroke="#000000" points="9,-60.5 100,-60.5 "/>
<text text-anchor="middle" x="54.5" y="-48.5" font-family="Helvetica,sans-Serif" font-size="10.00" fill="#000000"> </text>
<polyline fill="none" stroke="#000000" points="9,-41.5 100,-41.5 "/>
<text text-anchor="start" x="17" y="-29.5" font-family="Helvetica,sans-Serif" font-size="10.00" fill="#000000">+ get_element()</text>
<text text-anchor="start" x="17" y="-18.5" font-family="Helvetica,sans-Serif" font-size="10.00" fill="#000000">+ get_generator()</text>
<text text-anchor="start" x="17" y="-7.5" font-family="Helvetica,sans-Serif" font-size="10.00" fill="#000000">+ Element()</text>
</a>
</g>
</g>
<!-- Node1&#45;&gt;Node2 -->
<g id="edge2" class="edge">
<title>Node1&#45;&gt;Node2</title>
<path fill="none" stroke="#191970" d="M54.5,-105.9619C54.5,-96.6583 54.5,-87.8301 54.5,-79.8348"/>
<polygon fill="none" stroke="#191970" points="51.0001,-106.2269 54.5,-116.2269 58.0001,-106.227 51.0001,-106.2269"/>
</g>
</g>
</svg>
