<?xml version="1.0" encoding="UTF-8" standalone="no"?>
<!DOCTYPE svg PUBLIC "-//W3C//DTD SVG 1.1//EN"
 "http://www.w3.org/Graphics/SVG/1.1/DTD/svg11.dtd">
<!-- Generated by graphviz version 2.40.1 (20161225.0304)
 -->
<!-- Title: Element::make_1darray_from_data Pages: 1 -->
<svg width="575pt" height="66pt"
 viewBox="0.00 0.00 575.00 66.00" xmlns="http://www.w3.org/2000/svg" xmlns:xlink="http://www.w3.org/1999/xlink">
<g id="graph0" class="graph" transform="scale(1 1) rotate(0) translate(4 62)">
<title>Element::make_1darray_from_data</title>
<polygon fill="#ffffff" stroke="transparent" points="-4,4 -4,-62 571,-62 571,4 -4,4"/>
<!-- Node137 -->
<g id="node1" class="node">
<title>Node137</title>
<polygon fill="#bfbfbf" stroke="#000000" points="0,-14 0,-44 120,-44 120,-14 0,-14"/>
<text text-anchor="start" x="8" y="-32" font-family="Helvetica,sans-Serif" font-size="10.00" fill="#000000">Element::make_1darray</text>
<text text-anchor="middle" x="60" y="-21" font-family="Helvetica,sans-Serif" font-size="10.00" fill="#000000">_from_data</text>
</g>
<!-- Node138 -->
<g id="node2" class="node">
<title>Node138</title>
<g id="a_node2"><a xlink:href="classElement.html#a8257b02b1e3b208f193b35d5d47b9af8" target="_top" xlink:title="Get integer values stored in Element::data of this object as a one&#45;dimensional Numpy&#45;Array. ">
<polygon fill="#ffffff" stroke="#000000" points="160.5,-38.5 160.5,-57.5 279.5,-57.5 279.5,-38.5 160.5,-38.5"/>
<text text-anchor="middle" x="220" y="-45.5" font-family="Helvetica,sans-Serif" font-size="10.00" fill="#000000">Element::get_1d_int_py</text>
</a>
</g>
</g>
<!-- Node137&#45;&gt;Node138 -->
<g id="edge1" class="edge">
<title>Node137&#45;&gt;Node138</title>
<path fill="none" stroke="#191970" d="M130.0635,-37.32C140.1902,-38.5226 150.5326,-39.7507 160.4281,-40.9258"/>
<polygon fill="#191970" stroke="#191970" points="130.3763,-33.8327 120.0333,-36.129 129.5508,-40.7838 130.3763,-33.8327"/>
</g>
<!-- Node141 -->
<g id="node5" class="node">
<title>Node141</title>
<g id="a_node5"><a xlink:href="classElement.html#a3f11848589faad4cbca8119385887713" target="_top" xlink:title="Get float values stored in Element::data of this object as a one&#45;dimensional Numpy&#45;Array. ">
<polygon fill="#ffffff" stroke="#000000" points="156,-.5 156,-19.5 284,-19.5 284,-.5 156,-.5"/>
<text text-anchor="middle" x="220" y="-7.5" font-family="Helvetica,sans-Serif" font-size="10.00" fill="#000000">Element::get_1d_float_py</text>
</a>
</g>
</g>
<!-- Node137&#45;&gt;Node141 -->
<g id="edge4" class="edge">
<title>Node137&#45;&gt;Node141</title>
<path fill="none" stroke="#191970" d="M130.0296,-20.684C138.6266,-19.6631 147.3797,-18.6237 155.8834,-17.6139"/>
<polygon fill="#191970" stroke="#191970" points="129.5508,-17.2162 120.0333,-21.871 130.3763,-24.1673 129.5508,-17.2162"/>
</g>
<!-- Node139 -->
<g id="node3" class="node">
<title>Node139</title>
<g id="a_node3"><a xlink:href="namespacepybind.html#aa960fe0db10e19d7b7b60784a7e81be0" target="_top" xlink:title="Bind Element class to Python. ">
<polygon fill="#ffffff" stroke="#000000" points="320,-19.5 320,-38.5 421,-38.5 421,-19.5 320,-19.5"/>
<text text-anchor="middle" x="370.5" y="-26.5" font-family="Helvetica,sans-Serif" font-size="10.00" fill="#000000">pybind::py_element</text>
</a>
</g>
</g>
<!-- Node138&#45;&gt;Node139 -->
<g id="edge2" class="edge">
<title>Node138&#45;&gt;Node139</title>
<path fill="none" stroke="#191970" d="M289.971,-39.1664C300.0981,-37.8879 310.3533,-36.5933 319.9981,-35.3757"/>
<polygon fill="#191970" stroke="#191970" points="289.3969,-35.7111 279.914,-40.4361 290.2737,-42.6559 289.3969,-35.7111"/>
</g>
<!-- Node140 -->
<g id="node4" class="node">
<title>Node140</title>
<g id="a_node4"><a xlink:href="pybind_8h.html#a4714c4a855ebb82892410d5254e9ccdc" target="_top" xlink:title="Macro for generating Python module named _ppap4lmp. ">
<polygon fill="#ffffff" stroke="#000000" points="457,-19.5 457,-38.5 567,-38.5 567,-19.5 457,-19.5"/>
<text text-anchor="middle" x="512" y="-26.5" font-family="Helvetica,sans-Serif" font-size="10.00" fill="#000000">PYBIND11_MODULE</text>
</a>
</g>
</g>
<!-- Node139&#45;&gt;Node140 -->
<g id="edge3" class="edge">
<title>Node139&#45;&gt;Node140</title>
<path fill="none" stroke="#191970" d="M431.3877,-29C439.8576,-29 448.5199,-29 456.8761,-29"/>
<polygon fill="#191970" stroke="#191970" points="431.1851,-25.5001 421.1851,-29 431.185,-32.5001 431.1851,-25.5001"/>
</g>
<!-- Node141&#45;&gt;Node139 -->
<g id="edge5" class="edge">
<title>Node141&#45;&gt;Node139</title>
<path fill="none" stroke="#191970" d="M294.2998,-19.38C302.8797,-20.4632 311.4761,-21.5485 319.6427,-22.5795"/>
<polygon fill="#191970" stroke="#191970" points="294.6218,-15.893 284.2621,-18.1128 293.7449,-22.8379 294.6218,-15.893"/>
</g>
</g>
</svg>
