<?xml version="1.0" encoding="UTF-8" standalone="no"?>
<!DOCTYPE svg PUBLIC "-//W3C//DTD SVG 1.1//EN"
 "http://www.w3.org/Graphics/SVG/1.1/DTD/svg11.dtd">
<!-- Generated by graphviz version 2.40.1 (20161225.0304)
 -->
<!-- Title: Starter::compute Pages: 1 -->
<svg width="528pt" height="172pt"
 viewBox="0.00 0.00 528.00 171.77" xmlns="http://www.w3.org/2000/svg" xmlns:xlink="http://www.w3.org/1999/xlink">
<g id="graph0" class="graph" transform="scale(1 1) rotate(0) translate(4 167.7738)">
<title>Starter::compute</title>
<polygon fill="#ffffff" stroke="transparent" points="-4,4 -4,-167.7738 524,-167.7738 524,4 -4,4"/>
<!-- Node2 -->
<g id="node1" class="node">
<title>Node2</title>
<polygon fill="#bfbfbf" stroke="#000000" points="0,-68.2738 0,-87.2738 89,-87.2738 89,-68.2738 0,-68.2738"/>
<text text-anchor="middle" x="44.5" y="-75.2738" font-family="Helvetica,sans-Serif" font-size="10.00" fill="#000000">Starter::compute</text>
</g>
<!-- Node3 -->
<g id="node2" class="node">
<title>Node3</title>
<g id="a_node2"><a xlink:href="classUpdater.html#a2184a4efa52ad2f4a631c134379ef7b8" target="_top" xlink:title="Look for Element::dataid in dataid_blacklist. ">
<polygon fill="#ffffff" stroke="#000000" points="125,-144.2738 125,-163.2738 249,-163.2738 249,-144.2738 125,-144.2738"/>
<text text-anchor="middle" x="187" y="-151.2738" font-family="Helvetica,sans-Serif" font-size="10.00" fill="#000000">Updater::check_blacklist</text>
</a>
</g>
</g>
<!-- Node2&#45;&gt;Node3 -->
<g id="edge1" class="edge">
<title>Node2&#45;&gt;Node3</title>
<path fill="none" stroke="#191970" d="M55.4995,-87.3125C70.3622,-99.774 98.1041,-121.5571 125,-134.7738 129.5563,-137.0127 134.4311,-139.0524 139.3709,-140.8936"/>
<polygon fill="#191970" stroke="#191970" points="138.2891,-144.2229 148.8839,-144.1899 140.5809,-137.6087 138.2891,-144.2229"/>
</g>
<!-- Node4 -->
<g id="node3" class="node">
<title>Node4</title>
<g id="a_node3"><a xlink:href="classUpdater.html#a91e7bdd1442c19e682ec9b3154ee910f" target="_top" xlink:title="Implementation of computation to update the data. ">
<polygon fill="#ffffff" stroke="#000000" points="128.5,-106.2738 128.5,-125.2738 245.5,-125.2738 245.5,-106.2738 128.5,-106.2738"/>
<text text-anchor="middle" x="187" y="-113.2738" font-family="Helvetica,sans-Serif" font-size="10.00" fill="#000000">Updater::compute_impl</text>
</a>
</g>
</g>
<!-- Node2&#45;&gt;Node4 -->
<g id="edge2" class="edge">
<title>Node2&#45;&gt;Node4</title>
<path fill="none" stroke="#191970" d="M80.4588,-87.3628C98.9385,-92.2907 121.6558,-98.3487 141.3591,-103.6029"/>
<polygon fill="#191970" stroke="#191970" points="140.4885,-106.993 151.0527,-106.1879 142.2922,-100.2293 140.4885,-106.993"/>
</g>
<!-- Node5 -->
<g id="node4" class="node">
<title>Node5</title>
<g id="a_node4"><a xlink:href="classDataKeys.html#a83c539d93200a30f57d0d795c68ee5a2" target="_top" xlink:title="... ">
<polygon fill="#ffffff" stroke="#000000" points="137.5,-68.2738 137.5,-87.2738 236.5,-87.2738 236.5,-68.2738 137.5,-68.2738"/>
<text text-anchor="middle" x="187" y="-75.2738" font-family="Helvetica,sans-Serif" font-size="10.00" fill="#000000">DataKeys::optional</text>
</a>
</g>
</g>
<!-- Node2&#45;&gt;Node5 -->
<g id="edge3" class="edge">
<title>Node2&#45;&gt;Node5</title>
<path fill="none" stroke="#191970" d="M89.1969,-77.7738C101.2407,-77.7738 114.4656,-77.7738 127.1906,-77.7738"/>
<polygon fill="#191970" stroke="#191970" points="127.2566,-81.2739 137.2566,-77.7738 127.2565,-74.2739 127.2566,-81.2739"/>
</g>
<!-- Node6 -->
<g id="node5" class="node">
<title>Node6</title>
<g id="a_node5"><a xlink:href="classStarter.html#a112a95fc261365ba92609db3fa907939" target="_top" xlink:title="Starter::sort_by_id">
<polygon fill="#ffffff" stroke="#000000" points="138.5,-30.2738 138.5,-49.2738 235.5,-49.2738 235.5,-30.2738 138.5,-30.2738"/>
<text text-anchor="middle" x="187" y="-37.2738" font-family="Helvetica,sans-Serif" font-size="10.00" fill="#000000">Starter::sort_by_id</text>
</a>
</g>
</g>
<!-- Node2&#45;&gt;Node6 -->
<g id="edge4" class="edge">
<title>Node2&#45;&gt;Node6</title>
<path fill="none" stroke="#191970" d="M80.4588,-68.1848C98.9385,-63.2568 121.6558,-57.1989 141.3591,-51.9447"/>
<polygon fill="#191970" stroke="#191970" points="142.2922,-55.3183 151.0527,-49.3597 140.4885,-48.5546 142.2922,-55.3183"/>
</g>
<!-- Node8 -->
<g id="node7" class="node">
<title>Node8</title>
<g id="a_node7"><a xlink:href="namespaceutils.html#acee57b54806ee63ddaa30518fed90adb" target="_top" xlink:title="utils::runtime_error">
<polygon fill="#ffffff" stroke="#000000" points="422,-11.2738 422,-30.2738 520,-30.2738 520,-11.2738 422,-11.2738"/>
<text text-anchor="middle" x="471" y="-18.2738" font-family="Helvetica,sans-Serif" font-size="10.00" fill="#000000">utils::runtime_error</text>
</a>
</g>
</g>
<!-- Node2&#45;&gt;Node8 -->
<g id="edge7" class="edge">
<title>Node2&#45;&gt;Node8</title>
<path fill="none" stroke="#191970" d="M53.8056,-68.1567C67.7618,-54.5031 95.6271,-30.12 125,-20.7738 221.7047,9.9969 341.4577,.1547 411.7232,-10.098"/>
<polygon fill="#191970" stroke="#191970" points="411.3119,-13.5755 421.7226,-11.6088 412.3578,-6.654 411.3119,-13.5755"/>
</g>
<!-- Node7 -->
<g id="node6" class="node">
<title>Node7</title>
<g id="a_node6"><a xlink:href="namespaceutils.html#aeabf3fc19efc71936f355f069d336b5a" target="_top" xlink:title="utils::map_to_index">
<polygon fill="#ffffff" stroke="#000000" points="285,-30.2738 285,-49.2738 386,-49.2738 386,-30.2738 285,-30.2738"/>
<text text-anchor="middle" x="335.5" y="-37.2738" font-family="Helvetica,sans-Serif" font-size="10.00" fill="#000000">utils::map_to_index</text>
</a>
</g>
</g>
<!-- Node6&#45;&gt;Node7 -->
<g id="edge5" class="edge">
<title>Node6&#45;&gt;Node7</title>
<path fill="none" stroke="#191970" d="M235.6245,-39.7738C248.1058,-39.7738 261.6882,-39.7738 274.7004,-39.7738"/>
<polygon fill="#191970" stroke="#191970" points="274.9819,-43.2739 284.9818,-39.7738 274.9818,-36.2739 274.9819,-43.2739"/>
</g>
<!-- Node7&#45;&gt;Node8 -->
<g id="edge6" class="edge">
<title>Node7&#45;&gt;Node8</title>
<path fill="none" stroke="#191970" d="M386.3407,-32.6448C394.5624,-31.492 403.1391,-30.2893 411.543,-29.1109"/>
<polygon fill="#191970" stroke="#191970" points="412.2555,-32.5454 421.6726,-27.6905 411.2834,-25.6132 412.2555,-32.5454"/>
</g>
</g>
</svg>
