<?xml version="1.0" encoding="UTF-8" standalone="no"?>
<!DOCTYPE svg PUBLIC "-//W3C//DTD SVG 1.1//EN"
 "http://www.w3.org/Graphics/SVG/1.1/DTD/svg11.dtd">
<!-- Generated by graphviz version 2.40.1 (20161225.0304)
 -->
<!-- Title: AddMap::compute_impl Pages: 1 -->
<svg width="397pt" height="142pt"
 viewBox="0.00 0.00 397.00 142.00" xmlns="http://www.w3.org/2000/svg" xmlns:xlink="http://www.w3.org/1999/xlink">
<g id="graph0" class="graph" transform="scale(1 1) rotate(0) translate(4 138)">
<title>AddMap::compute_impl</title>
<polygon fill="#ffffff" stroke="transparent" points="-4,4 -4,-138 393,-138 393,4 -4,4"/>
<!-- Node2 -->
<g id="node1" class="node">
<title>Node2</title>
<polygon fill="#bfbfbf" stroke="#000000" points="0,-57.5 0,-76.5 119,-76.5 119,-57.5 0,-57.5"/>
<text text-anchor="middle" x="59.5" y="-64.5" font-family="Helvetica,sans-Serif" font-size="10.00" fill="#000000">AddMap::compute_impl</text>
</g>
<!-- Node3 -->
<g id="node2" class="node">
<title>Node3</title>
<g id="a_node2"><a xlink:href="classDataKeys.html#a03517cffe825c983c3582ffb55318a7b" target="_top" xlink:title="Check if this object has required key(s). ">
<polygon fill="#ffffff" stroke="#000000" points="155,-114.5 155,-133.5 255,-133.5 255,-114.5 155,-114.5"/>
<text text-anchor="middle" x="205" y="-121.5" font-family="Helvetica,sans-Serif" font-size="10.00" fill="#000000">DataKeys::required</text>
</a>
</g>
</g>
<!-- Node2&#45;&gt;Node3 -->
<g id="edge1" class="edge">
<title>Node2&#45;&gt;Node3</title>
<path fill="none" stroke="#191970" d="M83.8534,-76.5405C107.7743,-85.9116 144.471,-100.2876 171.209,-110.7623"/>
<polygon fill="#191970" stroke="#191970" points="169.9794,-114.0395 180.5671,-114.4284 172.5328,-107.5218 169.9794,-114.0395"/>
</g>
<!-- Node5 -->
<g id="node4" class="node">
<title>Node5</title>
<g id="a_node4"><a xlink:href="namespaceutils.html#acee57b54806ee63ddaa30518fed90adb" target="_top" xlink:title="Raise (for Python) and throw (for C++) a runtime error. ">
<polygon fill="#ffffff" stroke="#000000" points="291,-76.5 291,-95.5 389,-95.5 389,-76.5 291,-76.5"/>
<text text-anchor="middle" x="340" y="-83.5" font-family="Helvetica,sans-Serif" font-size="10.00" fill="#000000">utils::runtime_error</text>
</a>
</g>
</g>
<!-- Node2&#45;&gt;Node5 -->
<g id="edge5" class="edge">
<title>Node2&#45;&gt;Node5</title>
<path fill="none" stroke="#191970" d="M119.3302,-71.0527C166.8483,-74.2714 232.9686,-78.7501 280.4209,-81.9643"/>
<polygon fill="#191970" stroke="#191970" points="280.3364,-85.4665 290.5501,-82.6505 280.8096,-78.4826 280.3364,-85.4665"/>
</g>
<!-- Node6 -->
<g id="node5" class="node">
<title>Node6</title>
<g id="a_node5"><a xlink:href="classDataKeys.html#a83c539d93200a30f57d0d795c68ee5a2" target="_top" xlink:title="Check if this object has optional key(s). ">
<polygon fill="#ffffff" stroke="#000000" points="155.5,-38.5 155.5,-57.5 254.5,-57.5 254.5,-38.5 155.5,-38.5"/>
<text text-anchor="middle" x="205" y="-45.5" font-family="Helvetica,sans-Serif" font-size="10.00" fill="#000000">DataKeys::optional</text>
</a>
</g>
</g>
<!-- Node2&#45;&gt;Node6 -->
<g id="edge4" class="edge">
<title>Node2&#45;&gt;Node6</title>
<path fill="none" stroke="#191970" d="M119.1002,-59.2172C127.787,-58.0828 136.7325,-56.9147 145.4189,-55.7804"/>
<polygon fill="#191970" stroke="#191970" points="146.0033,-59.2338 155.4659,-54.4684 145.0968,-52.2928 146.0033,-59.2338"/>
</g>
<!-- Node7 -->
<g id="node6" class="node">
<title>Node7</title>
<g id="a_node6"><a xlink:href="classDataKeys.html#a626d56b99861008c2a63580ed17b809d" target="_top" xlink:title="Add key(s) in an array to _keys. ">
<polygon fill="#ffffff" stroke="#000000" points="164.5,-.5 164.5,-19.5 245.5,-19.5 245.5,-.5 164.5,-.5"/>
<text text-anchor="middle" x="205" y="-7.5" font-family="Helvetica,sans-Serif" font-size="10.00" fill="#000000">DataKeys::add</text>
</a>
</g>
</g>
<!-- Node2&#45;&gt;Node7 -->
<g id="edge6" class="edge">
<title>Node2&#45;&gt;Node7</title>
<path fill="none" stroke="#191970" d="M83.4002,-57.3706C102.6928,-49.6264 130.5529,-38.5081 155,-29 159.852,-27.1129 164.9768,-25.1412 170.0222,-23.2123"/>
<polygon fill="#191970" stroke="#191970" points="171.435,-26.4196 179.5344,-19.5894 168.9435,-19.878 171.435,-26.4196"/>
</g>
<!-- Node4 -->
<g id="node3" class="node">
<title>Node4</title>
<g id="a_node3"><a xlink:href="namespaceutils.html#a5e5339e32b770a14691521435849c949" target="_top" xlink:title="Mimicking Python&#39;s join. ">
<polygon fill="#ffffff" stroke="#000000" points="312,-114.5 312,-133.5 368,-133.5 368,-114.5 312,-114.5"/>
<text text-anchor="middle" x="340" y="-121.5" font-family="Helvetica,sans-Serif" font-size="10.00" fill="#000000">utils::join</text>
</a>
</g>
</g>
<!-- Node3&#45;&gt;Node4 -->
<g id="edge2" class="edge">
<title>Node3&#45;&gt;Node4</title>
<path fill="none" stroke="#191970" d="M255.269,-124C270.5913,-124 287.1831,-124 301.589,-124"/>
<polygon fill="#191970" stroke="#191970" points="301.6431,-127.5001 311.643,-124 301.643,-120.5001 301.6431,-127.5001"/>
</g>
<!-- Node3&#45;&gt;Node5 -->
<g id="edge3" class="edge">
<title>Node3&#45;&gt;Node5</title>
<path fill="none" stroke="#191970" d="M239.0662,-114.411C256.4135,-109.5281 277.7022,-103.5357 296.2492,-98.315"/>
<polygon fill="#191970" stroke="#191970" points="297.2671,-101.6646 305.9447,-95.5859 295.3704,-94.9265 297.2671,-101.6646"/>
</g>
</g>
</svg>
