<?xml version="1.0" encoding="UTF-8" standalone="no"?>
<!DOCTYPE svg PUBLIC "-//W3C//DTD SVG 1.1//EN"
 "http://www.w3.org/Graphics/SVG/1.1/DTD/svg11.dtd">
<!-- Generated by graphviz version 2.40.1 (20161225.0304)
 -->
<!-- Title: InvOMP Pages: 1 -->
<svg width="97pt" height="237pt"
 viewBox="0.00 0.00 97.00 237.00" xmlns="http://www.w3.org/2000/svg" xmlns:xlink="http://www.w3.org/1999/xlink">
<g id="graph0" class="graph" transform="scale(1 1) rotate(0) translate(4 233)">
<title>InvOMP</title>
<polygon fill="#ffffff" stroke="transparent" points="-4,4 -4,-233 93,-233 93,4 -4,4"/>
<!-- Node0 -->
<g id="node1" class="node">
<title>Node0</title>
<polygon fill="#bfbfbf" stroke="#000000" points="0,-.5 0,-90.5 89,-90.5 89,-.5 0,-.5"/>
<text text-anchor="middle" x="44.5" y="-78.5" font-family="Helvetica,sans-Serif" font-size="10.00" fill="#000000">InvOMP</text>
<polyline fill="none" stroke="#000000" points="0,-71.5 89,-71.5 "/>
<text text-anchor="middle" x="44.5" y="-59.5" font-family="Helvetica,sans-Serif" font-size="10.00" fill="#000000"> </text>
<polyline fill="none" stroke="#000000" points="0,-52.5 89,-52.5 "/>
<text text-anchor="start" x="8" y="-40.5" font-family="Helvetica,sans-Serif" font-size="10.00" fill="#000000">+ ~InvOMP()</text>
<text text-anchor="start" x="8" y="-29.5" font-family="Helvetica,sans-Serif" font-size="10.00" fill="#000000">+ Invoker()</text>
<text text-anchor="start" x="8" y="-18.5" font-family="Helvetica,sans-Serif" font-size="10.00" fill="#000000">+ Invoker()</text>
<text text-anchor="start" x="8" y="-7.5" font-family="Helvetica,sans-Serif" font-size="10.00" fill="#000000"># execute_impl()</text>
</g>
<!-- Node1 -->
<g id="node2" class="node">
<title>Node1</title>
<g id="a_node2"><a xlink:href="classInvoker.html" target="_top" xlink:title="Invoker is an abstract class to execute analysis defined by one or more Processor objects...">
<polygon fill="#ffffff" stroke="#000000" points="0,-127.5 0,-228.5 89,-228.5 89,-127.5 0,-127.5"/>
<text text-anchor="middle" x="44.5" y="-216.5" font-family="Helvetica,sans-Serif" font-size="10.00" fill="#000000">Invoker</text>
<polyline fill="none" stroke="#000000" points="0,-209.5 89,-209.5 "/>
<text text-anchor="start" x="8" y="-197.5" font-family="Helvetica,sans-Serif" font-size="10.00" fill="#000000"># processors</text>
<polyline fill="none" stroke="#000000" points="0,-190.5 89,-190.5 "/>
<text text-anchor="start" x="8" y="-178.5" font-family="Helvetica,sans-Serif" font-size="10.00" fill="#000000">+ Invoker()</text>
<text text-anchor="start" x="8" y="-167.5" font-family="Helvetica,sans-Serif" font-size="10.00" fill="#000000">+ Invoker()</text>
<text text-anchor="start" x="8" y="-156.5" font-family="Helvetica,sans-Serif" font-size="10.00" fill="#000000">+ ~Invoker()</text>
<text text-anchor="start" x="8" y="-145.5" font-family="Helvetica,sans-Serif" font-size="10.00" fill="#000000">+ execute()</text>
<text text-anchor="start" x="8" y="-134.5" font-family="Helvetica,sans-Serif" font-size="10.00" fill="#000000"># execute_impl()</text>
</a>
</g>
</g>
<!-- Node1&#45;&gt;Node0 -->
<g id="edge1" class="edge">
<title>Node1&#45;&gt;Node0</title>
<path fill="none" stroke="#191970" d="M44.5,-116.9214C44.5,-108.1275 44.5,-99.2114 44.5,-90.7978"/>
<polygon fill="none" stroke="#191970" points="41.0001,-117.1509 44.5,-127.151 48.0001,-117.151 41.0001,-117.1509"/>
</g>
</g>
</svg>
