<?xml version="1.0" encoding="UTF-8" standalone="no"?>
<!DOCTYPE svg PUBLIC "-//W3C//DTD SVG 1.1//EN"
 "http://www.w3.org/Graphics/SVG/1.1/DTD/svg11.dtd">
<!-- Generated by graphviz version 2.40.1 (20161225.0304)
 -->
<!-- Title: Invoker::execute_impl Pages: 1 -->
<svg width="380pt" height="28pt"
 viewBox="0.00 0.00 380.00 28.00" xmlns="http://www.w3.org/2000/svg" xmlns:xlink="http://www.w3.org/1999/xlink">
<g id="graph0" class="graph" transform="scale(1 1) rotate(0) translate(4 24)">
<title>Invoker::execute_impl</title>
<polygon fill="#ffffff" stroke="transparent" points="-4,4 -4,-24 376,-24 376,4 -4,4"/>
<!-- Node11 -->
<g id="node1" class="node">
<title>Node11</title>
<polygon fill="#bfbfbf" stroke="#000000" points="0,-.5 0,-19.5 113,-19.5 113,-.5 0,-.5"/>
<text text-anchor="middle" x="56.5" y="-7.5" font-family="Helvetica,sans-Serif" font-size="10.00" fill="#000000">Invoker::execute_impl</text>
</g>
<!-- Node12 -->
<g id="node2" class="node">
<title>Node12</title>
<g id="a_node2"><a xlink:href="classInvoker.html#a72e473312201d41ea0711cea5346476c" target="_top" xlink:title="Execute analysis defined by elements of processors. ">
<polygon fill="#ffffff" stroke="#000000" points="149,-.5 149,-19.5 238,-19.5 238,-.5 149,-.5"/>
<text text-anchor="middle" x="193.5" y="-7.5" font-family="Helvetica,sans-Serif" font-size="10.00" fill="#000000">Invoker::execute</text>
</a>
</g>
</g>
<!-- Node11&#45;&gt;Node12 -->
<g id="edge1" class="edge">
<title>Node11&#45;&gt;Node12</title>
<path fill="none" stroke="#191970" d="M123.1743,-10C131.8734,-10 140.6118,-10 148.8277,-10"/>
<polygon fill="#191970" stroke="#191970" points="123.0141,-6.5001 113.0141,-10 123.0141,-13.5001 123.0141,-6.5001"/>
</g>
<!-- Node13 -->
<g id="node3" class="node">
<title>Node13</title>
<g id="a_node3"><a xlink:href="namespacepybind.html#abed3a52f6c96fc1ece01e46b05bc127b" target="_top" xlink:title="Bind Invoker class to Python. ">
<polygon fill="#ffffff" stroke="#000000" points="274,-.5 274,-19.5 372,-19.5 372,-.5 274,-.5"/>
<text text-anchor="middle" x="323" y="-7.5" font-family="Helvetica,sans-Serif" font-size="10.00" fill="#000000">pybind::py_invoker</text>
</a>
</g>
</g>
<!-- Node12&#45;&gt;Node13 -->
<g id="edge2" class="edge">
<title>Node12&#45;&gt;Node13</title>
<path fill="none" stroke="#191970" d="M248.2893,-10C256.7993,-10 265.5444,-10 273.9176,-10"/>
<polygon fill="#191970" stroke="#191970" points="248.0666,-6.5001 238.0666,-10 248.0665,-13.5001 248.0666,-6.5001"/>
</g>
</g>
</svg>
