<?xml version="1.0" encoding="UTF-8" standalone="no"?>
<!DOCTYPE svg PUBLIC "-//W3C//DTD SVG 1.1//EN"
 "http://www.w3.org/Graphics/SVG/1.1/DTD/svg11.dtd">
<!-- Generated by graphviz version 2.40.1 (20161225.0304)
 -->
<!-- Title: PyElement Pages: 1 -->
<svg width="359pt" height="574pt"
 viewBox="0.00 0.00 358.50 574.00" xmlns="http://www.w3.org/2000/svg" xmlns:xlink="http://www.w3.org/1999/xlink">
<g id="graph0" class="graph" transform="scale(1 1) rotate(0) translate(4 570)">
<title>PyElement</title>
<polygon fill="#ffffff" stroke="transparent" points="-4,4 -4,-570 354.5,-570 354.5,4 -4,4"/>
<!-- Node4 -->
<g id="node1" class="node">
<title>Node4</title>
<polygon fill="#bfbfbf" stroke="#000000" points="150,-.5 150,-79.5 241,-79.5 241,-.5 150,-.5"/>
<text text-anchor="middle" x="195.5" y="-67.5" font-family="Helvetica,sans-Serif" font-size="10.00" fill="#000000">PyElement</text>
<polyline fill="none" stroke="#000000" points="150,-60.5 241,-60.5 "/>
<text text-anchor="middle" x="195.5" y="-48.5" font-family="Helvetica,sans-Serif" font-size="10.00" fill="#000000"> </text>
<polyline fill="none" stroke="#000000" points="150,-41.5 241,-41.5 "/>
<text text-anchor="start" x="158" y="-29.5" font-family="Helvetica,sans-Serif" font-size="10.00" fill="#000000">+ get_element()</text>
<text text-anchor="start" x="158" y="-18.5" font-family="Helvetica,sans-Serif" font-size="10.00" fill="#000000">+ get_generator()</text>
<text text-anchor="start" x="158" y="-7.5" font-family="Helvetica,sans-Serif" font-size="10.00" fill="#000000">+ Element()</text>
</g>
<!-- Node5 -->
<g id="node2" class="node">
<title>Node5</title>
<g id="a_node2"><a xlink:href="classElement.html" target="_top" xlink:title="Element is a Generator containing data element (or entity) as a Json object. ">
<polygon fill="#ffffff" stroke="#000000" points="141,-117.5 141,-372.5 250,-372.5 250,-117.5 141,-117.5"/>
<text text-anchor="middle" x="195.5" y="-360.5" font-family="Helvetica,sans-Serif" font-size="10.00" fill="#000000">Element</text>
<polyline fill="none" stroke="#000000" points="141,-353.5 250,-353.5 "/>
<text text-anchor="start" x="149" y="-341.5" font-family="Helvetica,sans-Serif" font-size="10.00" fill="#000000">&#45; n_remain</text>
<text text-anchor="start" x="149" y="-330.5" font-family="Helvetica,sans-Serif" font-size="10.00" fill="#000000">&#45; dataid</text>
<text text-anchor="start" x="149" y="-319.5" font-family="Helvetica,sans-Serif" font-size="10.00" fill="#000000">&#45; data</text>
<text text-anchor="start" x="149" y="-308.5" font-family="Helvetica,sans-Serif" font-size="10.00" fill="#000000">&#45; omp_lock</text>
<text text-anchor="start" x="149" y="-297.5" font-family="Helvetica,sans-Serif" font-size="10.00" fill="#000000">&#45; instance_count</text>
<polyline fill="none" stroke="#000000" points="141,-290.5 250,-290.5 "/>
<text text-anchor="start" x="149" y="-278.5" font-family="Helvetica,sans-Serif" font-size="10.00" fill="#000000">+ Element()</text>
<text text-anchor="start" x="149" y="-267.5" font-family="Helvetica,sans-Serif" font-size="10.00" fill="#000000">+ ~Element()</text>
<text text-anchor="start" x="149" y="-256.5" font-family="Helvetica,sans-Serif" font-size="10.00" fill="#000000">+ get_element()</text>
<text text-anchor="start" x="149" y="-245.5" font-family="Helvetica,sans-Serif" font-size="10.00" fill="#000000">+ get_generator()</text>
<text text-anchor="start" x="149" y="-234.5" font-family="Helvetica,sans-Serif" font-size="10.00" fill="#000000">+ append_updater()</text>
<text text-anchor="start" x="149" y="-223.5" font-family="Helvetica,sans-Serif" font-size="10.00" fill="#000000">+ get_data()</text>
<text text-anchor="start" x="149" y="-212.5" font-family="Helvetica,sans-Serif" font-size="10.00" fill="#000000">+ get_data()</text>
<text text-anchor="start" x="149" y="-201.5" font-family="Helvetica,sans-Serif" font-size="10.00" fill="#000000">+ get_keys()</text>
<text text-anchor="start" x="149" y="-190.5" font-family="Helvetica,sans-Serif" font-size="10.00" fill="#000000">+ array1d()</text>
<text text-anchor="start" x="149" y="-179.5" font-family="Helvetica,sans-Serif" font-size="10.00" fill="#000000">+ array2d()</text>
<text text-anchor="start" x="149" y="-168.5" font-family="Helvetica,sans-Serif" font-size="10.00" fill="#000000">and 8 more...</text>
<text text-anchor="start" x="149" y="-157.5" font-family="Helvetica,sans-Serif" font-size="10.00" fill="#000000">&#45; increment_remain()</text>
<text text-anchor="start" x="149" y="-146.5" font-family="Helvetica,sans-Serif" font-size="10.00" fill="#000000">&#45; decrement_remain()</text>
<text text-anchor="start" x="149" y="-135.5" font-family="Helvetica,sans-Serif" font-size="10.00" fill="#000000">&#45; update_data()</text>
<text text-anchor="start" x="149" y="-124.5" font-family="Helvetica,sans-Serif" font-size="10.00" fill="#000000">&#45; init_for_python()</text>
</a>
</g>
</g>
<!-- Node5&#45;&gt;Node4 -->
<g id="edge1" class="edge">
<title>Node5&#45;&gt;Node4</title>
<path fill="none" stroke="#191970" d="M195.5,-106.9284C195.5,-97.2149 195.5,-87.988 195.5,-79.6618"/>
<polygon fill="none" stroke="#191970" points="192.0001,-107.2096 195.5,-117.2096 199.0001,-107.2096 192.0001,-107.2096"/>
</g>
<!-- Node6 -->
<g id="node3" class="node">
<title>Node6</title>
<g id="a_node3"><a xlink:href="classGenerator.html" target="_top" xlink:title="Generator is an abstract class to generate data. ">
<polygon fill="#ffffff" stroke="#000000" points="0,-420.5 0,-565.5 121,-565.5 121,-420.5 0,-420.5"/>
<text text-anchor="middle" x="60.5" y="-553.5" font-family="Helvetica,sans-Serif" font-size="10.00" fill="#000000">Generator</text>
<polyline fill="none" stroke="#000000" points="0,-546.5 121,-546.5 "/>
<text text-anchor="start" x="8" y="-534.5" font-family="Helvetica,sans-Serif" font-size="10.00" fill="#000000"># update_chain</text>
<polyline fill="none" stroke="#000000" points="0,-527.5 121,-527.5 "/>
<text text-anchor="start" x="8" y="-515.5" font-family="Helvetica,sans-Serif" font-size="10.00" fill="#000000">+ Generator()</text>
<text text-anchor="start" x="8" y="-504.5" font-family="Helvetica,sans-Serif" font-size="10.00" fill="#000000">+ ~Generator()</text>
<text text-anchor="start" x="8" y="-493.5" font-family="Helvetica,sans-Serif" font-size="10.00" fill="#000000">+ get_element()</text>
<text text-anchor="start" x="8" y="-482.5" font-family="Helvetica,sans-Serif" font-size="10.00" fill="#000000">+ get_generator()</text>
<text text-anchor="start" x="8" y="-471.5" font-family="Helvetica,sans-Serif" font-size="10.00" fill="#000000">+ appoint()</text>
<text text-anchor="start" x="8" y="-460.5" font-family="Helvetica,sans-Serif" font-size="10.00" fill="#000000">+ hello()</text>
<text text-anchor="start" x="8" y="-449.5" font-family="Helvetica,sans-Serif" font-size="10.00" fill="#000000">+ goodbye()</text>
<text text-anchor="start" x="8" y="-438.5" font-family="Helvetica,sans-Serif" font-size="10.00" fill="#000000">+ get_update_chain()</text>
<text text-anchor="start" x="8" y="-427.5" font-family="Helvetica,sans-Serif" font-size="10.00" fill="#000000"># merge_update_chain()</text>
</a>
</g>
</g>
<!-- Node6&#45;&gt;Node5 -->
<g id="edge2" class="edge">
<title>Node6&#45;&gt;Node5</title>
<path fill="none" stroke="#191970" d="M104.9482,-411.347C116.434,-390.2472 128.9318,-367.2883 140.8716,-345.3544"/>
<polygon fill="none" stroke="#191970" points="101.7994,-409.8111 100.0923,-420.2675 107.9475,-413.1579 101.7994,-409.8111"/>
</g>
<!-- Node7 -->
<g id="node4" class="node">
<title>Node7</title>
<polygon fill="#ffffff" stroke="#bfbfbf" points="139,-464.5 139,-521.5 252,-521.5 252,-464.5 139,-464.5"/>
<text text-anchor="middle" x="195.5" y="-509.5" font-family="Helvetica,sans-Serif" font-size="10.00" fill="#000000">EnShThis&lt; Element &gt;</text>
<polyline fill="none" stroke="#bfbfbf" points="139,-502.5 252,-502.5 "/>
<text text-anchor="middle" x="195.5" y="-490.5" font-family="Helvetica,sans-Serif" font-size="10.00" fill="#000000"> </text>
<polyline fill="none" stroke="#bfbfbf" points="139,-483.5 252,-483.5 "/>
<text text-anchor="middle" x="195.5" y="-471.5" font-family="Helvetica,sans-Serif" font-size="10.00" fill="#000000"> </text>
</g>
<!-- Node7&#45;&gt;Node5 -->
<g id="edge3" class="edge">
<title>Node7&#45;&gt;Node5</title>
<path fill="none" stroke="#191970" d="M195.5,-454.0187C195.5,-431.6915 195.5,-402.2722 195.5,-372.5792"/>
<polygon fill="none" stroke="#191970" points="192.0001,-454.0659 195.5,-464.0659 199.0001,-454.0659 192.0001,-454.0659"/>
</g>
<!-- Node8 -->
<g id="node5" class="node">
<title>Node8</title>
<g id="a_node5"><a xlink:href="classDataKeys.html" target="_top" xlink:title="DataKeys is a small class owning a set of string keys in Element::data. ">
<polygon fill="#ffffff" stroke="#000000" points="270.5,-420.5 270.5,-565.5 350.5,-565.5 350.5,-420.5 270.5,-420.5"/>
<text text-anchor="middle" x="310.5" y="-553.5" font-family="Helvetica,sans-Serif" font-size="10.00" fill="#000000">DataKeys</text>
<polyline fill="none" stroke="#000000" points="270.5,-546.5 350.5,-546.5 "/>
<text text-anchor="start" x="278.5" y="-534.5" font-family="Helvetica,sans-Serif" font-size="10.00" fill="#000000">&#45; _keys</text>
<polyline fill="none" stroke="#000000" points="270.5,-527.5 350.5,-527.5 "/>
<text text-anchor="start" x="278.5" y="-515.5" font-family="Helvetica,sans-Serif" font-size="10.00" fill="#000000">+ DataKeys()</text>
<text text-anchor="start" x="278.5" y="-504.5" font-family="Helvetica,sans-Serif" font-size="10.00" fill="#000000">+ ~DataKeys()</text>
<text text-anchor="start" x="278.5" y="-493.5" font-family="Helvetica,sans-Serif" font-size="10.00" fill="#000000">+ clear()</text>
<text text-anchor="start" x="278.5" y="-482.5" font-family="Helvetica,sans-Serif" font-size="10.00" fill="#000000">+ set()</text>
<text text-anchor="start" x="278.5" y="-471.5" font-family="Helvetica,sans-Serif" font-size="10.00" fill="#000000">+ add()</text>
<text text-anchor="start" x="278.5" y="-460.5" font-family="Helvetica,sans-Serif" font-size="10.00" fill="#000000">+ remove()</text>
<text text-anchor="start" x="278.5" y="-449.5" font-family="Helvetica,sans-Serif" font-size="10.00" fill="#000000">+ required()</text>
<text text-anchor="start" x="278.5" y="-438.5" font-family="Helvetica,sans-Serif" font-size="10.00" fill="#000000">+ optional()</text>
<text text-anchor="start" x="278.5" y="-427.5" font-family="Helvetica,sans-Serif" font-size="10.00" fill="#000000">+ get()</text>
</a>
</g>
</g>
<!-- Node8&#45;&gt;Node5 -->
<g id="edge4" class="edge">
<title>Node8&#45;&gt;Node5</title>
<path fill="none" stroke="#404040" d="M276.7732,-420.2675C269.9883,-405.6355 262.6673,-389.8477 255.2959,-373.9511"/>
<polygon fill="none" stroke="#404040" points="255.2388,-373.8278 249.0858,-370.0673 250.1905,-362.9413 256.3435,-366.7018 255.2388,-373.8278"/>
<text text-anchor="middle" x="289.5" y="-394" font-family="Helvetica,sans-Serif" font-size="10.00" fill="#000000"> &#45;datakeys</text>
</g>
</g>
</svg>
