<?xml version="1.0" encoding="UTF-8" standalone="no"?>
<!DOCTYPE svg PUBLIC "-//W3C//DTD SVG 1.1//EN"
 "http://www.w3.org/Graphics/SVG/1.1/DTD/svg11.dtd">
<!-- Generated by graphviz version 2.40.1 (20161225.0304)
 -->
<!-- Title: Adder Pages: 1 -->
<svg width="1606pt" height="430pt"
 viewBox="0.00 0.00 1606.00 430.00" xmlns="http://www.w3.org/2000/svg" xmlns:xlink="http://www.w3.org/1999/xlink">
<g id="graph0" class="graph" transform="scale(1 1) rotate(0) translate(4 426)">
<title>Adder</title>
<polygon fill="#ffffff" stroke="transparent" points="-4,4 -4,-426 1602,-426 1602,4 -4,4"/>
<!-- Node0 -->
<g id="node1" class="node">
<title>Node0</title>
<polygon fill="#bfbfbf" stroke="#000000" points="748.5,-160.5 748.5,-239.5 817.5,-239.5 817.5,-160.5 748.5,-160.5"/>
<text text-anchor="middle" x="783" y="-227.5" font-family="Helvetica,sans-Serif" font-size="10.00" fill="#000000">Adder</text>
<polyline fill="none" stroke="#000000" points="748.5,-220.5 817.5,-220.5 "/>
<text text-anchor="middle" x="783" y="-208.5" font-family="Helvetica,sans-Serif" font-size="10.00" fill="#000000"> </text>
<polyline fill="none" stroke="#000000" points="748.5,-201.5 817.5,-201.5 "/>
<text text-anchor="start" x="756.5" y="-189.5" font-family="Helvetica,sans-Serif" font-size="10.00" fill="#000000">+ ~Adder()</text>
<text text-anchor="start" x="756.5" y="-178.5" font-family="Helvetica,sans-Serif" font-size="10.00" fill="#000000">+ compute()</text>
<text text-anchor="start" x="756.5" y="-167.5" font-family="Helvetica,sans-Serif" font-size="10.00" fill="#000000">+ Updater()</text>
</g>
<!-- Node2 -->
<g id="node3" class="node">
<title>Node2</title>
<g id="a_node3"><a xlink:href="classAddAngle.html" target="_top" xlink:title="AddAngle adds center of mass to an Element object as its unwrapped position. ">
<polygon fill="#ffffff" stroke="#000000" points="0,-22.5 0,-101.5 92,-101.5 92,-22.5 0,-22.5"/>
<text text-anchor="middle" x="46" y="-89.5" font-family="Helvetica,sans-Serif" font-size="10.00" fill="#000000">AddAngle</text>
<polyline fill="none" stroke="#000000" points="0,-82.5 92,-82.5 "/>
<text text-anchor="middle" x="46" y="-70.5" font-family="Helvetica,sans-Serif" font-size="10.00" fill="#000000"> </text>
<polyline fill="none" stroke="#000000" points="0,-63.5 92,-63.5 "/>
<text text-anchor="start" x="8" y="-51.5" font-family="Helvetica,sans-Serif" font-size="10.00" fill="#000000">+ AddAngle()</text>
<text text-anchor="start" x="8" y="-40.5" font-family="Helvetica,sans-Serif" font-size="10.00" fill="#000000">+ ~AddAngle()</text>
<text text-anchor="start" x="8" y="-29.5" font-family="Helvetica,sans-Serif" font-size="10.00" fill="#000000"># compute_impl()</text>
</a>
</g>
</g>
<!-- Node0&#45;&gt;Node2 -->
<g id="edge2" class="edge">
<title>Node0&#45;&gt;Node2</title>
<path fill="none" stroke="#191970" d="M738.0627,-199.1533C604.5726,-195.9958 212.7439,-181.9009 101,-124 90.6518,-118.638 81.3458,-110.4621 73.4586,-101.7899"/>
<polygon fill="none" stroke="#191970" points="738.2519,-202.6584 748.3288,-199.3864 738.4109,-195.6602 738.2519,-202.6584"/>
</g>
<!-- Node3 -->
<g id="node4" class="node">
<title>Node3</title>
<g id="a_node4"><a xlink:href="classAddBondLength.html" target="_top" xlink:title="AddBondLength adds center of mass to an Element object as its unwrapped position. ...">
<polygon fill="#ffffff" stroke="#000000" points="110.5,-22.5 110.5,-101.5 217.5,-101.5 217.5,-22.5 110.5,-22.5"/>
<text text-anchor="middle" x="164" y="-89.5" font-family="Helvetica,sans-Serif" font-size="10.00" fill="#000000">AddBondLength</text>
<polyline fill="none" stroke="#000000" points="110.5,-82.5 217.5,-82.5 "/>
<text text-anchor="middle" x="164" y="-70.5" font-family="Helvetica,sans-Serif" font-size="10.00" fill="#000000"> </text>
<polyline fill="none" stroke="#000000" points="110.5,-63.5 217.5,-63.5 "/>
<text text-anchor="start" x="118.5" y="-51.5" font-family="Helvetica,sans-Serif" font-size="10.00" fill="#000000">+ AddBondLength()</text>
<text text-anchor="start" x="118.5" y="-40.5" font-family="Helvetica,sans-Serif" font-size="10.00" fill="#000000">+ ~AddBondLength()</text>
<text text-anchor="start" x="118.5" y="-29.5" font-family="Helvetica,sans-Serif" font-size="10.00" fill="#000000"># compute_impl()</text>
</a>
</g>
</g>
<!-- Node0&#45;&gt;Node3 -->
<g id="edge3" class="edge">
<title>Node0&#45;&gt;Node3</title>
<path fill="none" stroke="#191970" d="M738.076,-197.5053C622.4029,-190.5095 317.0964,-168.2599 227,-124 215.8435,-118.5194 205.4398,-110.2999 196.4296,-101.6235"/>
<polygon fill="none" stroke="#191970" points="738.1524,-201.0159 748.3426,-198.1161 738.5682,-194.0283 738.1524,-201.0159"/>
</g>
<!-- Node4 -->
<g id="node5" class="node">
<title>Node4</title>
<g id="a_node5"><a xlink:href="classAddChildIDs.html" target="_top" xlink:title="AddChildIDs adds id property of a child Element object to a parent Element object. ">
<polygon fill="#ffffff" stroke="#000000" points="236,-17 236,-107 336,-107 336,-17 236,-17"/>
<text text-anchor="middle" x="286" y="-95" font-family="Helvetica,sans-Serif" font-size="10.00" fill="#000000">AddChildIDs</text>
<polyline fill="none" stroke="#000000" points="236,-88 336,-88 "/>
<text text-anchor="start" x="244" y="-76" font-family="Helvetica,sans-Serif" font-size="10.00" fill="#000000">&#45; child_name</text>
<text text-anchor="start" x="244" y="-65" font-family="Helvetica,sans-Serif" font-size="10.00" fill="#000000">&#45; key_for_parent_id</text>
<polyline fill="none" stroke="#000000" points="236,-58 336,-58 "/>
<text text-anchor="start" x="244" y="-46" font-family="Helvetica,sans-Serif" font-size="10.00" fill="#000000">+ AddChildIDs()</text>
<text text-anchor="start" x="244" y="-35" font-family="Helvetica,sans-Serif" font-size="10.00" fill="#000000">+ ~AddChildIDs()</text>
<text text-anchor="start" x="244" y="-24" font-family="Helvetica,sans-Serif" font-size="10.00" fill="#000000"># compute_impl()</text>
</a>
</g>
</g>
<!-- Node0&#45;&gt;Node4 -->
<g id="edge4" class="edge">
<title>Node0&#45;&gt;Node4</title>
<path fill="none" stroke="#191970" d="M738.3062,-195.8298C640.9237,-186.1728 412.8839,-160.2954 345,-124 336.7449,-119.5863 328.9797,-113.59 321.9632,-107.0575"/>
<polygon fill="none" stroke="#191970" points="738.1231,-199.3286 748.4168,-196.8206 738.8058,-192.3619 738.1231,-199.3286"/>
</g>
<!-- Node5 -->
<g id="node6" class="node">
<title>Node5</title>
<g id="a_node6"><a xlink:href="classAddChildPositions.html" target="_top" xlink:title="AddChildPositions adds relative positions of a child Element object to a parent Element object...">
<polygon fill="#ffffff" stroke="#000000" points="354.5,-22.5 354.5,-101.5 471.5,-101.5 471.5,-22.5 354.5,-22.5"/>
<text text-anchor="middle" x="413" y="-89.5" font-family="Helvetica,sans-Serif" font-size="10.00" fill="#000000">AddChildPositions</text>
<polyline fill="none" stroke="#000000" points="354.5,-82.5 471.5,-82.5 "/>
<text text-anchor="start" x="362.5" y="-70.5" font-family="Helvetica,sans-Serif" font-size="10.00" fill="#000000">&#45; child_name</text>
<polyline fill="none" stroke="#000000" points="354.5,-63.5 471.5,-63.5 "/>
<text text-anchor="start" x="362.5" y="-51.5" font-family="Helvetica,sans-Serif" font-size="10.00" fill="#000000">+ AddChildPositions()</text>
<text text-anchor="start" x="362.5" y="-40.5" font-family="Helvetica,sans-Serif" font-size="10.00" fill="#000000">+ ~AddChildPositions()</text>
<text text-anchor="start" x="362.5" y="-29.5" font-family="Helvetica,sans-Serif" font-size="10.00" fill="#000000"># compute_impl()</text>
</a>
</g>
</g>
<!-- Node0&#45;&gt;Node5 -->
<g id="edge5" class="edge">
<title>Node0&#45;&gt;Node5</title>
<path fill="none" stroke="#191970" d="M738.3213,-195.6625C677.1134,-188.2301 565.1962,-169.2241 481,-124 470.0221,-118.1035 459.4211,-110.0444 449.9865,-101.688"/>
<polygon fill="none" stroke="#191970" points="738.082,-199.1583 748.4198,-196.8391 738.8921,-192.2053 738.082,-199.1583"/>
</g>
<!-- Node6 -->
<g id="node7" class="node">
<title>Node6</title>
<g id="a_node7"><a xlink:href="classAddCoMPosition.html" target="_top" xlink:title="AddCoMPosition adds center of mass to an Element object as its unwrapped position. ">
<polygon fill="#ffffff" stroke="#000000" points="490,-11.5 490,-112.5 630,-112.5 630,-11.5 490,-11.5"/>
<text text-anchor="middle" x="560" y="-100.5" font-family="Helvetica,sans-Serif" font-size="10.00" fill="#000000">AddCoMPosition</text>
<polyline fill="none" stroke="#000000" points="490,-93.5 630,-93.5 "/>
<text text-anchor="middle" x="560" y="-81.5" font-family="Helvetica,sans-Serif" font-size="10.00" fill="#000000"> </text>
<polyline fill="none" stroke="#000000" points="490,-74.5 630,-74.5 "/>
<text text-anchor="start" x="498" y="-62.5" font-family="Helvetica,sans-Serif" font-size="10.00" fill="#000000">+ AddCoMPosition()</text>
<text text-anchor="start" x="498" y="-51.5" font-family="Helvetica,sans-Serif" font-size="10.00" fill="#000000">+ ~AddCoMPosition()</text>
<text text-anchor="start" x="498" y="-40.5" font-family="Helvetica,sans-Serif" font-size="10.00" fill="#000000"># compute_impl()</text>
<text text-anchor="start" x="498" y="-29.5" font-family="Helvetica,sans-Serif" font-size="10.00" fill="#000000">&#45; compute_with_weights()</text>
<text text-anchor="start" x="498" y="-18.5" font-family="Helvetica,sans-Serif" font-size="10.00" fill="#000000">&#45; compute_without_weights()</text>
</a>
</g>
</g>
<!-- Node0&#45;&gt;Node6 -->
<g id="edge6" class="edge">
<title>Node0&#45;&gt;Node6</title>
<path fill="none" stroke="#191970" d="M739.164,-179.4307C710.0209,-165.1409 671.312,-144.9633 639,-124 633.5883,-120.489 628.0907,-116.6978 622.645,-112.7807"/>
<polygon fill="none" stroke="#191970" points="737.7457,-182.6328 748.2696,-183.8568 740.806,-176.3372 737.7457,-182.6328"/>
</g>
<!-- Node7 -->
<g id="node8" class="node">
<title>Node7</title>
<g id="a_node8"><a xlink:href="classAddGyrationRadius.html" target="_top" xlink:title="AddGyrationRadius adds gyration radius to an Element object. ">
<polygon fill="#ffffff" stroke="#000000" points="648,-22.5 648,-101.5 770,-101.5 770,-22.5 648,-22.5"/>
<text text-anchor="middle" x="709" y="-89.5" font-family="Helvetica,sans-Serif" font-size="10.00" fill="#000000">AddGyrationRadius</text>
<polyline fill="none" stroke="#000000" points="648,-82.5 770,-82.5 "/>
<text text-anchor="start" x="656" y="-70.5" font-family="Helvetica,sans-Serif" font-size="10.00" fill="#000000">&#45; add_sqrted</text>
<polyline fill="none" stroke="#000000" points="648,-63.5 770,-63.5 "/>
<text text-anchor="start" x="656" y="-51.5" font-family="Helvetica,sans-Serif" font-size="10.00" fill="#000000">+ ~AddGyrationRadius()</text>
<text text-anchor="start" x="656" y="-40.5" font-family="Helvetica,sans-Serif" font-size="10.00" fill="#000000">+ with_sqrted()</text>
<text text-anchor="start" x="656" y="-29.5" font-family="Helvetica,sans-Serif" font-size="10.00" fill="#000000"># compute_impl()</text>
</a>
</g>
</g>
<!-- Node0&#45;&gt;Node7 -->
<g id="edge7" class="edge">
<title>Node0&#45;&gt;Node7</title>
<path fill="none" stroke="#191970" d="M757.0279,-151.5656C748.2538,-135.203 738.5691,-117.1423 730.2085,-101.551"/>
<polygon fill="none" stroke="#191970" points="753.9842,-153.2959 761.7946,-160.4547 760.1533,-149.9878 753.9842,-153.2959"/>
</g>
<!-- Node8 -->
<g id="node9" class="node">
<title>Node8</title>
<g id="a_node9"><a xlink:href="classAddInertiaMoment.html" target="_top" xlink:title="AddInertiaMoment adds inertia moment to an Element object. ">
<polygon fill="#ffffff" stroke="#000000" points="788,-11.5 788,-112.5 928,-112.5 928,-11.5 788,-11.5"/>
<text text-anchor="middle" x="858" y="-100.5" font-family="Helvetica,sans-Serif" font-size="10.00" fill="#000000">AddInertiaMoment</text>
<polyline fill="none" stroke="#000000" points="788,-93.5 928,-93.5 "/>
<text text-anchor="middle" x="858" y="-81.5" font-family="Helvetica,sans-Serif" font-size="10.00" fill="#000000"> </text>
<polyline fill="none" stroke="#000000" points="788,-74.5 928,-74.5 "/>
<text text-anchor="start" x="796" y="-62.5" font-family="Helvetica,sans-Serif" font-size="10.00" fill="#000000">+ AddInertiaMoment()</text>
<text text-anchor="start" x="796" y="-51.5" font-family="Helvetica,sans-Serif" font-size="10.00" fill="#000000">+ ~AddInertiaMoment()</text>
<text text-anchor="start" x="796" y="-40.5" font-family="Helvetica,sans-Serif" font-size="10.00" fill="#000000"># compute_impl()</text>
<text text-anchor="start" x="796" y="-29.5" font-family="Helvetica,sans-Serif" font-size="10.00" fill="#000000">&#45; compute_with_weights()</text>
<text text-anchor="start" x="796" y="-18.5" font-family="Helvetica,sans-Serif" font-size="10.00" fill="#000000">&#45; compute_without_weights()</text>
</a>
</g>
</g>
<!-- Node0&#45;&gt;Node8 -->
<g id="edge8" class="edge">
<title>Node0&#45;&gt;Node8</title>
<path fill="none" stroke="#191970" d="M809.3603,-151.497C816.1983,-138.9152 823.5797,-125.3333 830.4758,-112.6445"/>
<polygon fill="none" stroke="#191970" points="806.192,-149.9972 804.492,-160.4547 812.3424,-153.3398 806.192,-149.9972"/>
</g>
<!-- Node9 -->
<g id="node10" class="node">
<title>Node9</title>
<g id="a_node10"><a xlink:href="classAddMap.html" target="_top" xlink:title="AddMap adds a new property by mapping from an existing property. ">
<polygon fill="#ffffff" stroke="#000000" points="946,-.5 946,-123.5 1038,-123.5 1038,-.5 946,-.5"/>
<text text-anchor="middle" x="992" y="-111.5" font-family="Helvetica,sans-Serif" font-size="10.00" fill="#000000">AddMap</text>
<polyline fill="none" stroke="#000000" points="946,-104.5 1038,-104.5 "/>
<text text-anchor="start" x="954" y="-92.5" font-family="Helvetica,sans-Serif" font-size="10.00" fill="#000000">&#45; do_overwrite</text>
<text text-anchor="start" x="954" y="-81.5" font-family="Helvetica,sans-Serif" font-size="10.00" fill="#000000">&#45; key_ref</text>
<text text-anchor="start" x="954" y="-70.5" font-family="Helvetica,sans-Serif" font-size="10.00" fill="#000000">&#45; key_new</text>
<text text-anchor="start" x="954" y="-59.5" font-family="Helvetica,sans-Serif" font-size="10.00" fill="#000000">&#45; mapping</text>
<polyline fill="none" stroke="#000000" points="946,-52.5 1038,-52.5 "/>
<text text-anchor="start" x="954" y="-40.5" font-family="Helvetica,sans-Serif" font-size="10.00" fill="#000000">+ AddMap()</text>
<text text-anchor="start" x="954" y="-29.5" font-family="Helvetica,sans-Serif" font-size="10.00" fill="#000000">+ ~AddMap()</text>
<text text-anchor="start" x="954" y="-18.5" font-family="Helvetica,sans-Serif" font-size="10.00" fill="#000000">+ overwrite()</text>
<text text-anchor="start" x="954" y="-7.5" font-family="Helvetica,sans-Serif" font-size="10.00" fill="#000000"># compute_impl()</text>
</a>
</g>
</g>
<!-- Node0&#45;&gt;Node9 -->
<g id="edge9" class="edge">
<title>Node0&#45;&gt;Node9</title>
<path fill="none" stroke="#191970" d="M827.2029,-183.5666C859.4682,-170.3382 903.2758,-149.7331 937,-124 939.9741,-121.7306 942.9115,-119.2826 945.7888,-116.7158"/>
<polygon fill="none" stroke="#191970" points="825.5574,-180.4558 817.584,-187.4327 828.1679,-186.9508 825.5574,-180.4558"/>
</g>
<!-- Node10 -->
<g id="node11" class="node">
<title>Node10</title>
<g id="a_node11"><a xlink:href="classAddMolecularOrientation.html" target="_top" xlink:title="AddMolecularOrientation adds molecular orientation (order parameter) to an Element object...">
<polygon fill="#ffffff" stroke="#000000" points="1056,-28 1056,-96 1200,-96 1200,-28 1056,-28"/>
<text text-anchor="middle" x="1128" y="-84" font-family="Helvetica,sans-Serif" font-size="10.00" fill="#000000">AddMolecularOrientation</text>
<polyline fill="none" stroke="#000000" points="1056,-77 1200,-77 "/>
<text text-anchor="middle" x="1128" y="-65" font-family="Helvetica,sans-Serif" font-size="10.00" fill="#000000"> </text>
<polyline fill="none" stroke="#000000" points="1056,-58 1200,-58 "/>
<text text-anchor="start" x="1064" y="-46" font-family="Helvetica,sans-Serif" font-size="10.00" fill="#000000">+ ~AddMolecularOrientation()</text>
<text text-anchor="start" x="1064" y="-35" font-family="Helvetica,sans-Serif" font-size="10.00" fill="#000000"># compute_impl()</text>
</a>
</g>
</g>
<!-- Node0&#45;&gt;Node10 -->
<g id="edge10" class="edge">
<title>Node0&#45;&gt;Node10</title>
<path fill="none" stroke="#191970" d="M827.8097,-192.3932C881.8888,-182.0409 974.5762,-160.4979 1047,-124 1061.8656,-116.5085 1076.7353,-106.1593 1089.6017,-96.0611"/>
<polygon fill="none" stroke="#191970" points="827.0364,-188.9771 817.8505,-194.2564 828.3236,-195.8577 827.0364,-188.9771"/>
</g>
<!-- Node11 -->
<g id="node12" class="node">
<title>Node11</title>
<g id="a_node12"><a xlink:href="classAddRename.html" target="_top" xlink:title="AddRename renames an existing property. ">
<polygon fill="#ffffff" stroke="#000000" points="1218,-6 1218,-118 1310,-118 1310,-6 1218,-6"/>
<text text-anchor="middle" x="1264" y="-106" font-family="Helvetica,sans-Serif" font-size="10.00" fill="#000000">AddRename</text>
<polyline fill="none" stroke="#000000" points="1218,-99 1310,-99 "/>
<text text-anchor="start" x="1226" y="-87" font-family="Helvetica,sans-Serif" font-size="10.00" fill="#000000">&#45; do_overwrite</text>
<text text-anchor="start" x="1226" y="-76" font-family="Helvetica,sans-Serif" font-size="10.00" fill="#000000">&#45; key_old</text>
<text text-anchor="start" x="1226" y="-65" font-family="Helvetica,sans-Serif" font-size="10.00" fill="#000000">&#45; key_new</text>
<polyline fill="none" stroke="#000000" points="1218,-58 1310,-58 "/>
<text text-anchor="start" x="1226" y="-46" font-family="Helvetica,sans-Serif" font-size="10.00" fill="#000000">+ AddRename()</text>
<text text-anchor="start" x="1226" y="-35" font-family="Helvetica,sans-Serif" font-size="10.00" fill="#000000">+ ~AddRename()</text>
<text text-anchor="start" x="1226" y="-24" font-family="Helvetica,sans-Serif" font-size="10.00" fill="#000000">+ overwrite()</text>
<text text-anchor="start" x="1226" y="-13" font-family="Helvetica,sans-Serif" font-size="10.00" fill="#000000"># compute_impl()</text>
</a>
</g>
</g>
<!-- Node0&#45;&gt;Node11 -->
<g id="edge11" class="edge">
<title>Node0&#45;&gt;Node11</title>
<path fill="none" stroke="#191970" d="M827.8939,-195.7456C923.5314,-186.0845 1143.9383,-160.4656 1209,-124 1212.1379,-122.2413 1215.1875,-120.2347 1218.1361,-118.0456"/>
<polygon fill="none" stroke="#191970" points="827.2823,-192.2892 817.6791,-196.7646 827.9772,-199.2546 827.2823,-192.2892"/>
</g>
<!-- Node12 -->
<g id="node13" class="node">
<title>Node12</title>
<g id="a_node13"><a xlink:href="classAddSpecialBonds.html" target="_top" xlink:title="AddSpecialBonds adds special bonds. ">
<polygon fill="#ffffff" stroke="#000000" points="1328.5,-11.5 1328.5,-112.5 1451.5,-112.5 1451.5,-11.5 1328.5,-11.5"/>
<text text-anchor="middle" x="1390" y="-100.5" font-family="Helvetica,sans-Serif" font-size="10.00" fill="#000000">AddSpecialBonds</text>
<polyline fill="none" stroke="#000000" points="1328.5,-93.5 1451.5,-93.5 "/>
<text text-anchor="start" x="1336.5" y="-81.5" font-family="Helvetica,sans-Serif" font-size="10.00" fill="#000000">&#45; mol_type_to_sbondses</text>
<text text-anchor="start" x="1336.5" y="-70.5" font-family="Helvetica,sans-Serif" font-size="10.00" fill="#000000">_in_mol</text>
<polyline fill="none" stroke="#000000" points="1328.5,-63.5 1451.5,-63.5 "/>
<text text-anchor="start" x="1336.5" y="-51.5" font-family="Helvetica,sans-Serif" font-size="10.00" fill="#000000">+ AddSpecialBonds()</text>
<text text-anchor="start" x="1336.5" y="-40.5" font-family="Helvetica,sans-Serif" font-size="10.00" fill="#000000">+ AddSpecialBonds()</text>
<text text-anchor="start" x="1336.5" y="-29.5" font-family="Helvetica,sans-Serif" font-size="10.00" fill="#000000">+ ~AddSpecialBonds()</text>
<text text-anchor="start" x="1336.5" y="-18.5" font-family="Helvetica,sans-Serif" font-size="10.00" fill="#000000"># compute_impl()</text>
</a>
</g>
</g>
<!-- Node0&#45;&gt;Node12 -->
<g id="edge12" class="edge">
<title>Node0&#45;&gt;Node12</title>
<path fill="none" stroke="#191970" d="M827.7536,-196.9393C940.1136,-188.7365 1231.366,-164.121 1319,-124 1325.6957,-120.9345 1332.2313,-117.031 1338.4562,-112.6788"/>
<polygon fill="none" stroke="#191970" points="827.4875,-193.4493 817.7652,-197.6595 827.991,-200.4312 827.4875,-193.4493"/>
</g>
<!-- Node13 -->
<g id="node14" class="node">
<title>Node13</title>
<g id="a_node14"><a xlink:href="classAddWrappedPosition.html" target="_top" xlink:title="AddWrappedPosition adds wrapped positions for an Element object. ">
<polygon fill="#ffffff" stroke="#000000" points="1470,-22.5 1470,-101.5 1598,-101.5 1598,-22.5 1470,-22.5"/>
<text text-anchor="middle" x="1534" y="-89.5" font-family="Helvetica,sans-Serif" font-size="10.00" fill="#000000">AddWrappedPosition</text>
<polyline fill="none" stroke="#000000" points="1470,-82.5 1598,-82.5 "/>
<text text-anchor="middle" x="1534" y="-70.5" font-family="Helvetica,sans-Serif" font-size="10.00" fill="#000000"> </text>
<polyline fill="none" stroke="#000000" points="1470,-63.5 1598,-63.5 "/>
<text text-anchor="start" x="1478" y="-51.5" font-family="Helvetica,sans-Serif" font-size="10.00" fill="#000000">+ AddWrappedPosition()</text>
<text text-anchor="start" x="1478" y="-40.5" font-family="Helvetica,sans-Serif" font-size="10.00" fill="#000000">+ ~AddWrappedPosition()</text>
<text text-anchor="start" x="1478" y="-29.5" font-family="Helvetica,sans-Serif" font-size="10.00" fill="#000000"># compute_impl()</text>
</a>
</g>
</g>
<!-- Node0&#45;&gt;Node13 -->
<g id="edge13" class="edge">
<title>Node0&#45;&gt;Node13</title>
<path fill="none" stroke="#191970" d="M827.7847,-198.3778C959.9544,-193.0613 1346.2713,-173.5733 1461,-124 1473.3637,-118.6578 1485.2117,-110.4892 1495.6326,-101.8176"/>
<polygon fill="none" stroke="#191970" points="827.4706,-194.8874 817.6164,-198.7789 827.7466,-201.8819 827.4706,-194.8874"/>
</g>
<!-- Node1 -->
<g id="node2" class="node">
<title>Node1</title>
<g id="a_node2"><a xlink:href="classUpdater.html" target="_top" xlink:title="Updater is an abstract class to update data held by an Element object. ">
<polygon fill="#ffffff" stroke="#000000" points="718,-276.5 718,-421.5 848,-421.5 848,-276.5 718,-276.5"/>
<text text-anchor="middle" x="783" y="-409.5" font-family="Helvetica,sans-Serif" font-size="10.00" fill="#000000">Updater</text>
<polyline fill="none" stroke="#000000" points="718,-402.5 848,-402.5 "/>
<text text-anchor="start" x="726" y="-390.5" font-family="Helvetica,sans-Serif" font-size="10.00" fill="#000000"># ext_generator</text>
<text text-anchor="start" x="726" y="-379.5" font-family="Helvetica,sans-Serif" font-size="10.00" fill="#000000">&#45; dataid_blacklist</text>
<text text-anchor="start" x="726" y="-368.5" font-family="Helvetica,sans-Serif" font-size="10.00" fill="#000000">&#45; omp_lock</text>
<polyline fill="none" stroke="#000000" points="718,-361.5 848,-361.5 "/>
<text text-anchor="start" x="726" y="-349.5" font-family="Helvetica,sans-Serif" font-size="10.00" fill="#000000">+ Updater()</text>
<text text-anchor="start" x="726" y="-338.5" font-family="Helvetica,sans-Serif" font-size="10.00" fill="#000000">+ ~Updater()</text>
<text text-anchor="start" x="726" y="-327.5" font-family="Helvetica,sans-Serif" font-size="10.00" fill="#000000">+ compute()</text>
<text text-anchor="start" x="726" y="-316.5" font-family="Helvetica,sans-Serif" font-size="10.00" fill="#000000">+ remove_from_blacklist()</text>
<text text-anchor="start" x="726" y="-305.5" font-family="Helvetica,sans-Serif" font-size="10.00" fill="#000000">+ get_ext_generator()</text>
<text text-anchor="start" x="726" y="-294.5" font-family="Helvetica,sans-Serif" font-size="10.00" fill="#000000"># compute_impl()</text>
<text text-anchor="start" x="726" y="-283.5" font-family="Helvetica,sans-Serif" font-size="10.00" fill="#000000"># check_blacklist()</text>
</a>
</g>
</g>
<!-- Node1&#45;&gt;Node0 -->
<g id="edge1" class="edge">
<title>Node1&#45;&gt;Node0</title>
<path fill="none" stroke="#191970" d="M783,-265.9585C783,-256.8854 783,-247.9835 783,-239.8008"/>
<polygon fill="none" stroke="#191970" points="779.5001,-266.2459 783,-276.246 786.5001,-266.246 779.5001,-266.2459"/>
</g>
</g>
</svg>
