<?xml version="1.0" encoding="UTF-8" standalone="no"?>
<!DOCTYPE svg PUBLIC "-//W3C//DTD SVG 1.1//EN"
 "http://www.w3.org/Graphics/SVG/1.1/DTD/svg11.dtd">
<!-- Generated by graphviz version 2.40.1 (20161225.0304)
 -->
<!-- Title: ProRadialDistributionFunctionWithDeformation::get_gyration_radius Pages: 1 -->
<svg width="332pt" height="50pt"
 viewBox="0.00 0.00 332.00 50.00" xmlns="http://www.w3.org/2000/svg" xmlns:xlink="http://www.w3.org/1999/xlink">
<g id="graph0" class="graph" transform="scale(1 1) rotate(0) translate(4 46)">
<title>ProRadialDistributionFunctionWithDeformation::get_gyration_radius</title>
<polygon fill="#ffffff" stroke="transparent" points="-4,4 -4,-46 328,-46 328,4 -4,4"/>
<!-- Node4 -->
<g id="node1" class="node">
<title>Node4</title>
<polygon fill="#bfbfbf" stroke="#000000" points="0,-6 0,-36 179,-36 179,-6 0,-6"/>
<text text-anchor="start" x="8" y="-24" font-family="Helvetica,sans-Serif" font-size="10.00" fill="#000000">ProRadialDistributionFunction</text>
<text text-anchor="middle" x="89.5" y="-13" font-family="Helvetica,sans-Serif" font-size="10.00" fill="#000000">WithDeformation::get_gyration_radius</text>
</g>
<!-- Node5 -->
<g id="node2" class="node">
<title>Node5</title>
<g id="a_node2"><a xlink:href="namespacepybind.html#aa222a98ee38677552739f7831587f565" target="_top" xlink:title="Bind ProRadialDistributionFunctionWithDeformation class to Python. ">
<polygon fill="#ffffff" stroke="#000000" points="215,-.5 215,-41.5 324,-41.5 324,-.5 215,-.5"/>
<text text-anchor="start" x="223" y="-29.5" font-family="Helvetica,sans-Serif" font-size="10.00" fill="#000000">pybind::py_pro_radial</text>
<text text-anchor="start" x="223" y="-18.5" font-family="Helvetica,sans-Serif" font-size="10.00" fill="#000000">_distribution_function</text>
<text text-anchor="middle" x="269.5" y="-7.5" font-family="Helvetica,sans-Serif" font-size="10.00" fill="#000000">_with_deformation</text>
</a>
</g>
</g>
<!-- Node4&#45;&gt;Node5 -->
<g id="edge1" class="edge">
<title>Node4&#45;&gt;Node5</title>
<path fill="none" stroke="#191970" d="M189.4718,-21C198.1587,-21 206.7201,-21 214.8269,-21"/>
<polygon fill="#191970" stroke="#191970" points="189.2364,-17.5001 179.2363,-21 189.2363,-24.5001 189.2364,-17.5001"/>
</g>
</g>
</svg>
