<?xml version="1.0" encoding="UTF-8" standalone="no"?>
<!DOCTYPE svg PUBLIC "-//W3C//DTD SVG 1.1//EN"
 "http://www.w3.org/Graphics/SVG/1.1/DTD/svg11.dtd">
<!-- Generated by graphviz version 2.40.1 (20161225.0304)
 -->
<!-- Title: Element::get_keys_py Pages: 1 -->
<svg width="402pt" height="66pt"
 viewBox="0.00 0.00 402.00 66.00" xmlns="http://www.w3.org/2000/svg" xmlns:xlink="http://www.w3.org/1999/xlink">
<g id="graph0" class="graph" transform="scale(1 1) rotate(0) translate(4 62)">
<title>Element::get_keys_py</title>
<polygon fill="#ffffff" stroke="transparent" points="-4,4 -4,-62 398,-62 398,4 -4,4"/>
<!-- Node58 -->
<g id="node1" class="node">
<title>Node58</title>
<polygon fill="#bfbfbf" stroke="#000000" points="0,-19.5 0,-38.5 114,-38.5 114,-19.5 0,-19.5"/>
<text text-anchor="middle" x="57" y="-26.5" font-family="Helvetica,sans-Serif" font-size="10.00" fill="#000000">Element::get_keys_py</text>
</g>
<!-- Node59 -->
<g id="node2" class="node">
<title>Node59</title>
<g id="a_node2"><a xlink:href="classElement.html#a1fdb9455f49d2c66a0276925f7246cad" target="_top" xlink:title="Routines to be conducted when a wrapper of getter is called from Python. ">
<polygon fill="#ffffff" stroke="#000000" points="150,-38.5 150,-57.5 272,-57.5 272,-38.5 150,-38.5"/>
<text text-anchor="middle" x="211" y="-45.5" font-family="Helvetica,sans-Serif" font-size="10.00" fill="#000000">Element::init_for_python</text>
</a>
</g>
</g>
<!-- Node58&#45;&gt;Node59 -->
<g id="edge1" class="edge">
<title>Node58&#45;&gt;Node59</title>
<path fill="none" stroke="#191970" d="M114.3439,-36.0749C122.7031,-37.1062 131.3936,-38.1784 139.9841,-39.2383"/>
<polygon fill="#191970" stroke="#191970" points="139.6435,-42.7227 149.9969,-40.4736 140.5007,-35.7754 139.6435,-42.7227"/>
</g>
<!-- Node61 -->
<g id="node4" class="node">
<title>Node61</title>
<g id="a_node4"><a xlink:href="classDataKeys.html#ab29d313282fe7c52adfa35b8335f3ca6" target="_top" xlink:title="Get a constant reference to the _keys. ">
<polygon fill="#ffffff" stroke="#000000" points="171.5,-.5 171.5,-19.5 250.5,-19.5 250.5,-.5 171.5,-.5"/>
<text text-anchor="middle" x="211" y="-7.5" font-family="Helvetica,sans-Serif" font-size="10.00" fill="#000000">DataKeys::get</text>
</a>
</g>
</g>
<!-- Node58&#45;&gt;Node61 -->
<g id="edge3" class="edge">
<title>Node58&#45;&gt;Node61</title>
<path fill="none" stroke="#191970" d="M114.3439,-21.9251C129.7689,-20.022 146.3218,-17.9798 161.2934,-16.1326"/>
<polygon fill="#191970" stroke="#191970" points="161.8763,-19.5873 171.3724,-14.8891 161.0191,-12.64 161.8763,-19.5873"/>
</g>
<!-- Node60 -->
<g id="node3" class="node">
<title>Node60</title>
<g id="a_node3"><a xlink:href="classGenerator.html#ac4648b055ee0e51c1e68ea084156c222" target="_top" xlink:title="Hello to this Generator instance. ">
<polygon fill="#ffffff" stroke="#000000" points="308,-38.5 308,-57.5 394,-57.5 394,-38.5 308,-38.5"/>
<text text-anchor="middle" x="351" y="-45.5" font-family="Helvetica,sans-Serif" font-size="10.00" fill="#000000">Generator::hello</text>
</a>
</g>
</g>
<!-- Node59&#45;&gt;Node60 -->
<g id="edge2" class="edge">
<title>Node59&#45;&gt;Node60</title>
<path fill="none" stroke="#191970" d="M272.406,-48C280.7746,-48 289.3096,-48 297.5228,-48"/>
<polygon fill="#191970" stroke="#191970" points="297.7172,-51.5001 307.7172,-48 297.7171,-44.5001 297.7172,-51.5001"/>
</g>
</g>
</svg>
