<?xml version="1.0" encoding="UTF-8" standalone="no"?>
<!DOCTYPE svg PUBLIC "-//W3C//DTD SVG 1.1//EN"
 "http://www.w3.org/Graphics/SVG/1.1/DTD/svg11.dtd">
<!-- Generated by graphviz version 2.40.1 (20161225.0304)
 -->
<!-- Title: Adder::compute Pages: 1 -->
<svg width="247pt" height="215pt"
 viewBox="0.00 0.00 247.00 214.50" xmlns="http://www.w3.org/2000/svg" xmlns:xlink="http://www.w3.org/1999/xlink">
<g id="graph0" class="graph" transform="scale(1 1) rotate(0) translate(4 210.5)">
<title>Adder::compute</title>
<polygon fill="#ffffff" stroke="transparent" points="-4,4 -4,-210.5 243,-210.5 243,4 -4,4"/>
<!-- Node0 -->
<g id="node1" class="node">
<title>Node0</title>
<polygon fill="#bfbfbf" stroke="#000000" points="0,-93.5 0,-112.5 86,-112.5 86,-93.5 0,-93.5"/>
<text text-anchor="middle" x="43" y="-100.5" font-family="Helvetica,sans-Serif" font-size="10.00" fill="#000000">Adder::compute</text>
</g>
<!-- Node1 -->
<g id="node2" class="node">
<title>Node1</title>
<g id="a_node2"><a xlink:href="classUpdater.html#a8e144f917459792836eefd723c2545e9" target="_top" xlink:title="Updater::check_update\l_requirest_for">
<polygon fill="#ffffff" stroke="#000000" points="122,-176 122,-206 239,-206 239,-176 122,-176"/>
<text text-anchor="start" x="130" y="-194" font-family="Helvetica,sans-Serif" font-size="10.00" fill="#000000">Updater::check_update</text>
<text text-anchor="middle" x="180.5" y="-183" font-family="Helvetica,sans-Serif" font-size="10.00" fill="#000000">_requirest_for</text>
</a>
</g>
</g>
<!-- Node0&#45;&gt;Node1 -->
<g id="edge1" class="edge">
<title>Node0&#45;&gt;Node1</title>
<path fill="none" stroke="#191970" d="M53.0671,-112.5216C67.4718,-125.7831 95.1939,-149.9853 122,-166 125.1734,-167.8959 128.5169,-169.7233 131.9318,-171.4678"/>
<polygon fill="#191970" stroke="#191970" points="130.5434,-174.6841 141.0703,-175.882 133.588,-168.3809 130.5434,-174.6841"/>
</g>
<!-- Node2 -->
<g id="node3" class="node">
<title>Node2</title>
<g id="a_node3"><a xlink:href="namespaceutils.html#acee57b54806ee63ddaa30518fed90adb" target="_top" xlink:title="Raise (for Python) and throw (for C++) a runtime error. ">
<polygon fill="#ffffff" stroke="#000000" points="131.5,-137.5 131.5,-156.5 229.5,-156.5 229.5,-137.5 131.5,-137.5"/>
<text text-anchor="middle" x="180.5" y="-144.5" font-family="Helvetica,sans-Serif" font-size="10.00" fill="#000000">utils::runtime_error</text>
</a>
</g>
</g>
<!-- Node0&#45;&gt;Node2 -->
<g id="edge2" class="edge">
<title>Node0&#45;&gt;Node2</title>
<path fill="none" stroke="#191970" d="M72.8355,-112.5473C92.8357,-118.9474 119.3875,-127.444 141.1184,-134.3979"/>
<polygon fill="#191970" stroke="#191970" points="140.1318,-137.7569 150.7228,-137.4713 142.2653,-131.09 140.1318,-137.7569"/>
</g>
<!-- Node3 -->
<g id="node4" class="node">
<title>Node3</title>
<g id="a_node4"><a xlink:href="classUpdater.html#ab3aade931c7812d866e73ac1009e6cea" target="_top" xlink:title="Make check_required_keys. ">
<polygon fill="#ffffff" stroke="#000000" points="124.5,-88 124.5,-118 236.5,-118 236.5,-88 124.5,-88"/>
<text text-anchor="start" x="132.5" y="-106" font-family="Helvetica,sans-Serif" font-size="10.00" fill="#000000">Updater::make_check</text>
<text text-anchor="middle" x="180.5" y="-95" font-family="Helvetica,sans-Serif" font-size="10.00" fill="#000000">_required_keys</text>
</a>
</g>
</g>
<!-- Node0&#45;&gt;Node3 -->
<g id="edge3" class="edge">
<title>Node0&#45;&gt;Node3</title>
<path fill="none" stroke="#191970" d="M86.1286,-103C95.0357,-103 104.6123,-103 114.1281,-103"/>
<polygon fill="#191970" stroke="#191970" points="114.3953,-106.5001 124.3953,-103 114.3953,-99.5001 114.3953,-106.5001"/>
</g>
<!-- Node4 -->
<g id="node5" class="node">
<title>Node4</title>
<g id="a_node5"><a xlink:href="classUpdater.html#ad973d7a2bc52bc390ba299335f3ffdf2" target="_top" xlink:title="Make check_optional_keys. ">
<polygon fill="#ffffff" stroke="#000000" points="124.5,-39 124.5,-69 236.5,-69 236.5,-39 124.5,-39"/>
<text text-anchor="start" x="132.5" y="-57" font-family="Helvetica,sans-Serif" font-size="10.00" fill="#000000">Updater::make_check</text>
<text text-anchor="middle" x="180.5" y="-46" font-family="Helvetica,sans-Serif" font-size="10.00" fill="#000000">_optional_keys</text>
</a>
</g>
</g>
<!-- Node0&#45;&gt;Node4 -->
<g id="edge4" class="edge">
<title>Node0&#45;&gt;Node4</title>
<path fill="none" stroke="#191970" d="M69.8378,-93.436C86.5616,-87.4762 108.636,-79.6097 128.6674,-72.4713"/>
<polygon fill="#191970" stroke="#191970" points="130.0596,-75.6908 138.3044,-69.037 127.7098,-69.097 130.0596,-75.6908"/>
</g>
<!-- Node5 -->
<g id="node6" class="node">
<title>Node5</title>
<g id="a_node6"><a xlink:href="classUpdater.html#a8f2256a52be76c16dc71987aca1164c9" target="_top" xlink:title="Implementation of computation for updating Element::data. ">
<polygon fill="#ffffff" stroke="#000000" points="122,-.5 122,-19.5 239,-19.5 239,-.5 122,-.5"/>
<text text-anchor="middle" x="180.5" y="-7.5" font-family="Helvetica,sans-Serif" font-size="10.00" fill="#000000">Updater::compute_impl</text>
</a>
</g>
</g>
<!-- Node0&#45;&gt;Node5 -->
<g id="edge5" class="edge">
<title>Node0&#45;&gt;Node5</title>
<path fill="none" stroke="#191970" d="M51.2286,-93.1009C64.5878,-77.6107 92.4877,-47.5978 122,-30 126.16,-27.5194 130.6711,-25.292 135.2803,-23.3054"/>
<polygon fill="#191970" stroke="#191970" points="136.7727,-26.4795 144.7978,-19.5622 134.2107,-19.9652 136.7727,-26.4795"/>
</g>
</g>
</svg>
