<?xml version="1.0" encoding="UTF-8" standalone="no"?>
<!DOCTYPE svg PUBLIC "-//W3C//DTD SVG 1.1//EN"
 "http://www.w3.org/Graphics/SVG/1.1/DTD/svg11.dtd">
<!-- Generated by graphviz version 2.40.1 (20161225.0304)
 -->
<!-- Title: Invoker::execute Pages: 1 -->
<svg width="377pt" height="28pt"
 viewBox="0.00 0.00 377.00 28.00" xmlns="http://www.w3.org/2000/svg" xmlns:xlink="http://www.w3.org/1999/xlink">
<g id="graph0" class="graph" transform="scale(1 1) rotate(0) translate(4 24)">
<title>Invoker::execute</title>
<polygon fill="#ffffff" stroke="transparent" points="-4,4 -4,-24 373,-24 373,4 -4,4"/>
<!-- Node8 -->
<g id="node1" class="node">
<title>Node8</title>
<polygon fill="#bfbfbf" stroke="#000000" points="0,-.5 0,-19.5 89,-19.5 89,-.5 0,-.5"/>
<text text-anchor="middle" x="44.5" y="-7.5" font-family="Helvetica,sans-Serif" font-size="10.00" fill="#000000">Invoker::execute</text>
</g>
<!-- Node9 -->
<g id="node2" class="node">
<title>Node9</title>
<g id="a_node2"><a xlink:href="namespacepybind.html#abed3a52f6c96fc1ece01e46b05bc127b" target="_top" xlink:title="Bind Invoker class to Python. ">
<polygon fill="#ffffff" stroke="#000000" points="125,-.5 125,-19.5 223,-19.5 223,-.5 125,-.5"/>
<text text-anchor="middle" x="174" y="-7.5" font-family="Helvetica,sans-Serif" font-size="10.00" fill="#000000">pybind::py_invoker</text>
</a>
</g>
</g>
<!-- Node8&#45;&gt;Node9 -->
<g id="edge1" class="edge">
<title>Node8&#45;&gt;Node9</title>
<path fill="none" stroke="#191970" d="M99.2893,-10C107.7993,-10 116.5444,-10 124.9176,-10"/>
<polygon fill="#191970" stroke="#191970" points="99.0666,-6.5001 89.0666,-10 99.0665,-13.5001 99.0666,-6.5001"/>
</g>
<!-- Node10 -->
<g id="node3" class="node">
<title>Node10</title>
<g id="a_node3"><a xlink:href="pybind_8h.html#a4714c4a855ebb82892410d5254e9ccdc" target="_top" xlink:title="Macro for generating Python module named _ppap4lmp. ">
<polygon fill="#ffffff" stroke="#000000" points="259,-.5 259,-19.5 369,-19.5 369,-.5 259,-.5"/>
<text text-anchor="middle" x="314" y="-7.5" font-family="Helvetica,sans-Serif" font-size="10.00" fill="#000000">PYBIND11_MODULE</text>
</a>
</g>
</g>
<!-- Node9&#45;&gt;Node10 -->
<g id="edge2" class="edge">
<title>Node9&#45;&gt;Node10</title>
<path fill="none" stroke="#191970" d="M233.4966,-10C241.9199,-10 250.5509,-10 258.8865,-10"/>
<polygon fill="#191970" stroke="#191970" points="233.3588,-6.5001 223.3588,-10 233.3587,-13.5001 233.3588,-6.5001"/>
</g>
</g>
</svg>
