<?xml version="1.0" encoding="UTF-8" standalone="no"?>
<!DOCTYPE svg PUBLIC "-//W3C//DTD SVG 1.1//EN"
 "http://www.w3.org/Graphics/SVG/1.1/DTD/svg11.dtd">
<!-- Generated by graphviz version 2.40.1 (20161225.0304)
 -->
<!-- Title: Element::array2d Pages: 1 -->
<svg width="400pt" height="66pt"
 viewBox="0.00 0.00 400.00 66.00" xmlns="http://www.w3.org/2000/svg" xmlns:xlink="http://www.w3.org/1999/xlink">
<g id="graph0" class="graph" transform="scale(1 1) rotate(0) translate(4 62)">
<title>Element::array2d</title>
<polygon fill="#ffffff" stroke="transparent" points="-4,4 -4,-62 396,-62 396,4 -4,4"/>
<!-- Node12 -->
<g id="node1" class="node">
<title>Node12</title>
<polygon fill="#bfbfbf" stroke="#000000" points="0,-19.5 0,-38.5 91,-38.5 91,-19.5 0,-19.5"/>
<text text-anchor="middle" x="45.5" y="-26.5" font-family="Helvetica,sans-Serif" font-size="10.00" fill="#000000">Element::array2d</text>
</g>
<!-- Node13 -->
<g id="node2" class="node">
<title>Node13</title>
<g id="a_node2"><a xlink:href="classElement.html#a8e8245fb94b6417e3e804e6bfdf2f906" target="_top" xlink:title="Wrapper for array2d method for integer values. ">
<polygon fill="#ffffff" stroke="#000000" points="131.5,-38.5 131.5,-57.5 250.5,-57.5 250.5,-38.5 131.5,-38.5"/>
<text text-anchor="middle" x="191" y="-45.5" font-family="Helvetica,sans-Serif" font-size="10.00" fill="#000000">Element::get_2d_int_py</text>
</a>
</g>
</g>
<!-- Node12&#45;&gt;Node13 -->
<g id="edge1" class="edge">
<title>Node12&#45;&gt;Node13</title>
<path fill="none" stroke="#191970" d="M101.2259,-36.2769C111.0914,-37.5652 121.3995,-38.9113 131.3678,-40.213"/>
<polygon fill="#191970" stroke="#191970" points="101.5069,-32.784 91.1379,-34.9596 100.6005,-39.7251 101.5069,-32.784"/>
</g>
<!-- Node15 -->
<g id="node4" class="node">
<title>Node15</title>
<g id="a_node4"><a xlink:href="classElement.html#a6a62280eadd3d4e6bfe8c43082797733" target="_top" xlink:title="Wrapper for array2d method for float (double in C++) values. ">
<polygon fill="#ffffff" stroke="#000000" points="127,-.5 127,-19.5 255,-19.5 255,-.5 127,-.5"/>
<text text-anchor="middle" x="191" y="-7.5" font-family="Helvetica,sans-Serif" font-size="10.00" fill="#000000">Element::get_2d_float_py</text>
</a>
</g>
</g>
<!-- Node12&#45;&gt;Node15 -->
<g id="edge3" class="edge">
<title>Node12&#45;&gt;Node15</title>
<path fill="none" stroke="#191970" d="M101.1913,-21.7276C109.5905,-20.6308 118.3113,-19.492 126.8706,-18.3743"/>
<polygon fill="#191970" stroke="#191970" points="100.6005,-18.2749 91.1379,-23.0404 101.5069,-25.216 100.6005,-18.2749"/>
</g>
<!-- Node14 -->
<g id="node3" class="node">
<title>Node14</title>
<g id="a_node3"><a xlink:href="namespacepybind.html#aa960fe0db10e19d7b7b60784a7e81be0" target="_top" xlink:title="Bind Element class to Python. ">
<polygon fill="#ffffff" stroke="#000000" points="291,-19.5 291,-38.5 392,-38.5 392,-19.5 291,-19.5"/>
<text text-anchor="middle" x="341.5" y="-26.5" font-family="Helvetica,sans-Serif" font-size="10.00" fill="#000000">pybind::py_element</text>
</a>
</g>
</g>
<!-- Node13&#45;&gt;Node14 -->
<g id="edge2" class="edge">
<title>Node13&#45;&gt;Node14</title>
<path fill="none" stroke="#191970" d="M260.971,-39.1664C271.0981,-37.8879 281.3533,-36.5933 290.9981,-35.3757"/>
<polygon fill="#191970" stroke="#191970" points="260.3969,-35.7111 250.914,-40.4361 261.2737,-42.6559 260.3969,-35.7111"/>
</g>
<!-- Node15&#45;&gt;Node14 -->
<g id="edge4" class="edge">
<title>Node15&#45;&gt;Node14</title>
<path fill="none" stroke="#191970" d="M265.2998,-19.38C273.8797,-20.4632 282.4761,-21.5485 290.6427,-22.5795"/>
<polygon fill="#191970" stroke="#191970" points="265.6218,-15.893 255.2621,-18.1128 264.7449,-22.8379 265.6218,-15.893"/>
</g>
</g>
</svg>
