<?xml version="1.0" encoding="UTF-8" standalone="no"?>
<!DOCTYPE svg PUBLIC "-//W3C//DTD SVG 1.1//EN"
 "http://www.w3.org/Graphics/SVG/1.1/DTD/svg11.dtd">
<!-- Generated by graphviz version 2.40.1 (20161225.0304)
 -->
<!-- Title: Element::required_keys Pages: 1 -->
<svg width="574pt" height="142pt"
 viewBox="0.00 0.00 574.00 142.00" xmlns="http://www.w3.org/2000/svg" xmlns:xlink="http://www.w3.org/1999/xlink">
<g id="graph0" class="graph" transform="scale(1 1) rotate(0) translate(4 138)">
<title>Element::required_keys</title>
<polygon fill="#ffffff" stroke="transparent" points="-4,4 -4,-138 570,-138 570,4 -4,4"/>
<!-- Node142 -->
<g id="node1" class="node">
<title>Node142</title>
<polygon fill="#bfbfbf" stroke="#000000" points="0,-57.5 0,-76.5 119,-76.5 119,-57.5 0,-57.5"/>
<text text-anchor="middle" x="59.5" y="-64.5" font-family="Helvetica,sans-Serif" font-size="10.00" fill="#000000">Element::required_keys</text>
</g>
<!-- Node143 -->
<g id="node2" class="node">
<title>Node143</title>
<g id="a_node2"><a xlink:href="classElement.html#a8257b02b1e3b208f193b35d5d47b9af8" target="_top" xlink:title="Get integer values stored in Element::data of this object as a one&#45;dimensional Numpy&#45;Array. ">
<polygon fill="#ffffff" stroke="#000000" points="159.5,-114.5 159.5,-133.5 278.5,-133.5 278.5,-114.5 159.5,-114.5"/>
<text text-anchor="middle" x="219" y="-121.5" font-family="Helvetica,sans-Serif" font-size="10.00" fill="#000000">Element::get_1d_int_py</text>
</a>
</g>
</g>
<!-- Node142&#45;&gt;Node143 -->
<g id="edge1" class="edge">
<title>Node142&#45;&gt;Node143</title>
<path fill="none" stroke="#191970" d="M91.4338,-80.5425C109.8615,-88.1463 133.5625,-97.5698 155,-105 164.5276,-108.3023 174.971,-111.5544 184.6074,-114.4091"/>
<polygon fill="#191970" stroke="#191970" points="92.6302,-77.2495 82.0528,-76.6413 89.9422,-83.7129 92.6302,-77.2495"/>
</g>
<!-- Node146 -->
<g id="node5" class="node">
<title>Node146</title>
<g id="a_node5"><a xlink:href="classElement.html#a3f11848589faad4cbca8119385887713" target="_top" xlink:title="Get float values stored in Element::data of this object as a one&#45;dimensional Numpy&#45;Array. ">
<polygon fill="#ffffff" stroke="#000000" points="155,-76.5 155,-95.5 283,-95.5 283,-76.5 155,-76.5"/>
<text text-anchor="middle" x="219" y="-83.5" font-family="Helvetica,sans-Serif" font-size="10.00" fill="#000000">Element::get_1d_float_py</text>
</a>
</g>
</g>
<!-- Node142&#45;&gt;Node146 -->
<g id="edge4" class="edge">
<title>Node142&#45;&gt;Node146</title>
<path fill="none" stroke="#191970" d="M129.5119,-75.34C137.9271,-76.3424 146.4891,-77.3623 154.8156,-78.3542"/>
<polygon fill="#191970" stroke="#191970" points="129.6895,-71.8365 119.3457,-74.129 128.8615,-78.7873 129.6895,-71.8365"/>
</g>
<!-- Node147 -->
<g id="node6" class="node">
<title>Node147</title>
<g id="a_node6"><a xlink:href="classElement.html#a8e8245fb94b6417e3e804e6bfdf2f906" target="_top" xlink:title="Get integer values stored in Element::data of this object as a two&#45;dimensional Numpy&#45;Array. ">
<polygon fill="#ffffff" stroke="#000000" points="159.5,-38.5 159.5,-57.5 278.5,-57.5 278.5,-38.5 159.5,-38.5"/>
<text text-anchor="middle" x="219" y="-45.5" font-family="Helvetica,sans-Serif" font-size="10.00" fill="#000000">Element::get_2d_int_py</text>
</a>
</g>
</g>
<!-- Node142&#45;&gt;Node147 -->
<g id="edge6" class="edge">
<title>Node142&#45;&gt;Node147</title>
<path fill="none" stroke="#191970" d="M129.2768,-58.688C139.3032,-57.4937 149.5431,-56.2739 159.3494,-55.1057"/>
<polygon fill="#191970" stroke="#191970" points="128.8615,-55.2127 119.3457,-59.871 129.6895,-62.1635 128.8615,-55.2127"/>
</g>
<!-- Node148 -->
<g id="node7" class="node">
<title>Node148</title>
<g id="a_node7"><a xlink:href="classElement.html#a6a62280eadd3d4e6bfe8c43082797733" target="_top" xlink:title="Get float values stored in Element::data of this object as a two&#45;dimensional Numpy&#45;Array. ">
<polygon fill="#ffffff" stroke="#000000" points="155,-.5 155,-19.5 283,-19.5 283,-.5 155,-.5"/>
<text text-anchor="middle" x="219" y="-7.5" font-family="Helvetica,sans-Serif" font-size="10.00" fill="#000000">Element::get_2d_float_py</text>
</a>
</g>
</g>
<!-- Node142&#45;&gt;Node148 -->
<g id="edge8" class="edge">
<title>Node142&#45;&gt;Node148</title>
<path fill="none" stroke="#191970" d="M91.4338,-53.4575C109.8615,-45.8537 133.5625,-36.4302 155,-29 164.5276,-25.6977 174.971,-22.4456 184.6074,-19.5909"/>
<polygon fill="#191970" stroke="#191970" points="89.9422,-50.2871 82.0528,-57.3587 92.6302,-56.7505 89.9422,-50.2871"/>
</g>
<!-- Node144 -->
<g id="node3" class="node">
<title>Node144</title>
<g id="a_node3"><a xlink:href="namespacepybind.html#aa960fe0db10e19d7b7b60784a7e81be0" target="_top" xlink:title="Bind Element class to Python. ">
<polygon fill="#ffffff" stroke="#000000" points="319,-57.5 319,-76.5 420,-76.5 420,-57.5 319,-57.5"/>
<text text-anchor="middle" x="369.5" y="-64.5" font-family="Helvetica,sans-Serif" font-size="10.00" fill="#000000">pybind::py_element</text>
</a>
</g>
</g>
<!-- Node143&#45;&gt;Node144 -->
<g id="edge2" class="edge">
<title>Node143&#45;&gt;Node144</title>
<path fill="none" stroke="#191970" d="M264.0686,-111.3954C270.4658,-109.3818 276.9295,-107.2246 283,-105 306.2556,-96.4779 332.1716,-84.7884 349.5185,-76.6331"/>
<polygon fill="#191970" stroke="#191970" points="262.6771,-108.1607 254.1364,-114.4304 264.7228,-114.8552 262.6771,-108.1607"/>
</g>
<!-- Node145 -->
<g id="node4" class="node">
<title>Node145</title>
<g id="a_node4"><a xlink:href="pybind_8h.html#a4714c4a855ebb82892410d5254e9ccdc" target="_top" xlink:title="Macro for generating Python module named _ppap4lmp. ">
<polygon fill="#ffffff" stroke="#000000" points="456,-57.5 456,-76.5 566,-76.5 566,-57.5 456,-57.5"/>
<text text-anchor="middle" x="511" y="-64.5" font-family="Helvetica,sans-Serif" font-size="10.00" fill="#000000">PYBIND11_MODULE</text>
</a>
</g>
</g>
<!-- Node144&#45;&gt;Node145 -->
<g id="edge3" class="edge">
<title>Node144&#45;&gt;Node145</title>
<path fill="none" stroke="#191970" d="M430.3877,-67C438.8576,-67 447.5199,-67 455.8761,-67"/>
<polygon fill="#191970" stroke="#191970" points="430.1851,-63.5001 420.1851,-67 430.185,-70.5001 430.1851,-63.5001"/>
</g>
<!-- Node146&#45;&gt;Node144 -->
<g id="edge5" class="edge">
<title>Node146&#45;&gt;Node144</title>
<path fill="none" stroke="#191970" d="M293.2998,-76.62C301.8797,-75.5368 310.4761,-74.4515 318.6427,-73.4205"/>
<polygon fill="#191970" stroke="#191970" points="292.7449,-73.1621 283.2621,-77.8872 293.6218,-80.107 292.7449,-73.1621"/>
</g>
<!-- Node147&#45;&gt;Node144 -->
<g id="edge7" class="edge">
<title>Node147&#45;&gt;Node144</title>
<path fill="none" stroke="#191970" d="M288.971,-56.8336C299.0981,-58.1121 309.3533,-59.4067 318.9981,-60.6243"/>
<polygon fill="#191970" stroke="#191970" points="289.2737,-53.3441 278.914,-55.5639 288.3969,-60.2889 289.2737,-53.3441"/>
</g>
<!-- Node148&#45;&gt;Node144 -->
<g id="edge9" class="edge">
<title>Node148&#45;&gt;Node144</title>
<path fill="none" stroke="#191970" d="M264.0686,-22.6046C270.4658,-24.6182 276.9295,-26.7754 283,-29 306.2556,-37.5221 332.1716,-49.2116 349.5185,-57.3669"/>
<polygon fill="#191970" stroke="#191970" points="264.7228,-19.1448 254.1364,-19.5696 262.6771,-25.8393 264.7228,-19.1448"/>
</g>
</g>
</svg>
