<?xml version="1.0" encoding="UTF-8" standalone="no"?>
<!DOCTYPE svg PUBLIC "-//W3C//DTD SVG 1.1//EN"
 "http://www.w3.org/Graphics/SVG/1.1/DTD/svg11.dtd">
<!-- Generated by graphviz version 2.40.1 (20161225.0304)
 -->
<!-- Title: Updater::check_update_requirest_for Pages: 1 -->
<svg width="250pt" height="104pt"
 viewBox="0.00 0.00 250.00 104.00" xmlns="http://www.w3.org/2000/svg" xmlns:xlink="http://www.w3.org/1999/xlink">
<g id="graph0" class="graph" transform="scale(1 1) rotate(0) translate(4 100)">
<title>Updater::check_update_requirest_for</title>
<polygon fill="#ffffff" stroke="transparent" points="-4,4 -4,-100 246,-100 246,4 -4,4"/>
<!-- Node3 -->
<g id="node1" class="node">
<title>Node3</title>
<polygon fill="#bfbfbf" stroke="#000000" points="0,-33 0,-63 117,-63 117,-33 0,-33"/>
<text text-anchor="start" x="8" y="-51" font-family="Helvetica,sans-Serif" font-size="10.00" fill="#000000">Updater::check_update</text>
<text text-anchor="middle" x="58.5" y="-40" font-family="Helvetica,sans-Serif" font-size="10.00" fill="#000000">_requirest_for</text>
</g>
<!-- Node4 -->
<g id="node2" class="node">
<title>Node4</title>
<g id="a_node2"><a xlink:href="classAdder.html#a1ad2c73b355e25ef29d61277ca843ff0" target="_top" xlink:title="Compute properties and add them to Element::data given as a mutable reference. ">
<polygon fill="#ffffff" stroke="#000000" points="154.5,-76.5 154.5,-95.5 240.5,-95.5 240.5,-76.5 154.5,-76.5"/>
<text text-anchor="middle" x="197.5" y="-83.5" font-family="Helvetica,sans-Serif" font-size="10.00" fill="#000000">Adder::compute</text>
</a>
</g>
</g>
<!-- Node3&#45;&gt;Node4 -->
<g id="edge1" class="edge">
<title>Node3&#45;&gt;Node4</title>
<path fill="none" stroke="#191970" d="M123.2318,-65.6965C136.7837,-69.4013 150.5785,-73.1725 162.5422,-76.4432"/>
<polygon fill="#191970" stroke="#191970" points="124.0055,-62.2796 113.4365,-63.0186 122.1595,-69.0318 124.0055,-62.2796"/>
</g>
<!-- Node5 -->
<g id="node3" class="node">
<title>Node5</title>
<g id="a_node3"><a xlink:href="classFilter.html#a660dd63387e5cf589578d63deee55d5c" target="_top" xlink:title="Filter elements from array Element::data given as a mutable reference. ">
<polygon fill="#ffffff" stroke="#000000" points="156.5,-38.5 156.5,-57.5 238.5,-57.5 238.5,-38.5 156.5,-38.5"/>
<text text-anchor="middle" x="197.5" y="-45.5" font-family="Helvetica,sans-Serif" font-size="10.00" fill="#000000">Filter::compute</text>
</a>
</g>
</g>
<!-- Node3&#45;&gt;Node5 -->
<g id="edge2" class="edge">
<title>Node3&#45;&gt;Node5</title>
<path fill="none" stroke="#191970" d="M127.3343,-48C137.246,-48 147.1757,-48 156.3171,-48"/>
<polygon fill="#191970" stroke="#191970" points="127.0457,-44.5001 117.0457,-48 127.0456,-51.5001 127.0457,-44.5001"/>
</g>
<!-- Node6 -->
<g id="node4" class="node">
<title>Node6</title>
<g id="a_node4"><a xlink:href="classStarter.html#a1e59be564d3139e249c710cb134b9d7b" target="_top" xlink:title="Compute or parse properties and set them to Element::data given as a mutable reference. ">
<polygon fill="#ffffff" stroke="#000000" points="153,-.5 153,-19.5 242,-19.5 242,-.5 153,-.5"/>
<text text-anchor="middle" x="197.5" y="-7.5" font-family="Helvetica,sans-Serif" font-size="10.00" fill="#000000">Starter::compute</text>
</a>
</g>
</g>
<!-- Node3&#45;&gt;Node6 -->
<g id="edge3" class="edge">
<title>Node3&#45;&gt;Node6</title>
<path fill="none" stroke="#191970" d="M123.2318,-30.3035C136.7837,-26.5987 150.5785,-22.8275 162.5422,-19.5568"/>
<polygon fill="#191970" stroke="#191970" points="122.1595,-26.9682 113.4365,-32.9814 124.0055,-33.7204 122.1595,-26.9682"/>
</g>
</g>
</svg>
