<?xml version="1.0" encoding="UTF-8" standalone="no"?>
<!DOCTYPE svg PUBLIC "-//W3C//DTD SVG 1.1//EN"
 "http://www.w3.org/Graphics/SVG/1.1/DTD/svg11.dtd">
<!-- Generated by graphviz version 2.40.1 (20161225.0304)
 -->
<!-- Title: Element::get_data_py Pages: 1 -->
<svg width="534pt" height="104pt"
 viewBox="0.00 0.00 534.00 104.00" xmlns="http://www.w3.org/2000/svg" xmlns:xlink="http://www.w3.org/1999/xlink">
<g id="graph0" class="graph" transform="scale(1 1) rotate(0) translate(4 100)">
<title>Element::get_data_py</title>
<polygon fill="#ffffff" stroke="transparent" points="-4,4 -4,-100 530,-100 530,4 -4,4"/>
<!-- Node85 -->
<g id="node1" class="node">
<title>Node85</title>
<polygon fill="#bfbfbf" stroke="#000000" points="0,-38.5 0,-57.5 112,-57.5 112,-38.5 0,-38.5"/>
<text text-anchor="middle" x="56" y="-45.5" font-family="Helvetica,sans-Serif" font-size="10.00" fill="#000000">Element::get_data_py</text>
</g>
<!-- Node86 -->
<g id="node2" class="node">
<title>Node86</title>
<g id="a_node2"><a xlink:href="classElement.html#a1fdb9455f49d2c66a0276925f7246cad" target="_top" xlink:title="Routines to be conducted when a wrapper of getter is called from Python. ">
<polygon fill="#ffffff" stroke="#000000" points="148,-38.5 148,-57.5 270,-57.5 270,-38.5 148,-38.5"/>
<text text-anchor="middle" x="209" y="-45.5" font-family="Helvetica,sans-Serif" font-size="10.00" fill="#000000">Element::init_for_python</text>
</a>
</g>
</g>
<!-- Node85&#45;&gt;Node86 -->
<g id="edge1" class="edge">
<title>Node85&#45;&gt;Node86</title>
<path fill="none" stroke="#191970" d="M112.1028,-48C120.4394,-48 129.1247,-48 137.7216,-48"/>
<polygon fill="#191970" stroke="#191970" points="137.747,-51.5001 147.7469,-48 137.7469,-44.5001 137.747,-51.5001"/>
</g>
<!-- Node87 -->
<g id="node3" class="node">
<title>Node87</title>
<g id="a_node3"><a xlink:href="classGenerator.html#ac4648b055ee0e51c1e68ea084156c222" target="_top" xlink:title="Hello to this Generator instance. ">
<polygon fill="#ffffff" stroke="#000000" points="312,-76.5 312,-95.5 398,-95.5 398,-76.5 312,-76.5"/>
<text text-anchor="middle" x="355" y="-83.5" font-family="Helvetica,sans-Serif" font-size="10.00" fill="#000000">Generator::hello</text>
</a>
</g>
</g>
<!-- Node86&#45;&gt;Node87 -->
<g id="edge2" class="edge">
<title>Node86&#45;&gt;Node87</title>
<path fill="none" stroke="#191970" d="M245.842,-57.589C264.8479,-62.5358 288.2286,-68.6211 308.4692,-73.8892"/>
<polygon fill="#191970" stroke="#191970" points="307.8638,-77.3482 318.423,-76.4799 309.627,-70.5739 307.8638,-77.3482"/>
</g>
<!-- Node88 -->
<g id="node4" class="node">
<title>Node88</title>
<g id="a_node4"><a xlink:href="namespaceutils.html#acee57b54806ee63ddaa30518fed90adb" target="_top" xlink:title="utils::runtime_error">
<polygon fill="#ffffff" stroke="#000000" points="306,-38.5 306,-57.5 404,-57.5 404,-38.5 306,-38.5"/>
<text text-anchor="middle" x="355" y="-45.5" font-family="Helvetica,sans-Serif" font-size="10.00" fill="#000000">utils::runtime_error</text>
</a>
</g>
</g>
<!-- Node86&#45;&gt;Node88 -->
<g id="edge3" class="edge">
<title>Node86&#45;&gt;Node88</title>
<path fill="none" stroke="#191970" d="M270.0712,-48C278.5152,-48 287.1781,-48 295.5913,-48"/>
<polygon fill="#191970" stroke="#191970" points="295.6983,-51.5001 305.6983,-48 295.6983,-44.5001 295.6983,-51.5001"/>
</g>
<!-- Node89 -->
<g id="node5" class="node">
<title>Node89</title>
<g id="a_node5"><a xlink:href="namespaceutils.html#a26267fe7371b6215c5d61374d716527b" target="_top" xlink:title="utils::log">
<polygon fill="#ffffff" stroke="#000000" points="328.5,-.5 328.5,-19.5 381.5,-19.5 381.5,-.5 328.5,-.5"/>
<text text-anchor="middle" x="355" y="-7.5" font-family="Helvetica,sans-Serif" font-size="10.00" fill="#000000">utils::log</text>
</a>
</g>
</g>
<!-- Node86&#45;&gt;Node89 -->
<g id="edge4" class="edge">
<title>Node86&#45;&gt;Node89</title>
<path fill="none" stroke="#191970" d="M245.842,-38.411C268.1117,-32.6148 296.3878,-25.2552 318.5809,-19.4789"/>
<polygon fill="#191970" stroke="#191970" points="319.5103,-22.8537 328.3063,-16.9477 317.7471,-16.0794 319.5103,-22.8537"/>
</g>
<!-- Node90 -->
<g id="node6" class="node">
<title>Node90</title>
<g id="a_node6"><a xlink:href="namespaceutils.html#a3b5f21e223fdb0898119de641a1685f6" target="_top" xlink:title="utils::_message">
<polygon fill="#ffffff" stroke="#000000" points="440,-.5 440,-19.5 526,-19.5 526,-.5 440,-.5"/>
<text text-anchor="middle" x="483" y="-7.5" font-family="Helvetica,sans-Serif" font-size="10.00" fill="#000000">utils::_message</text>
</a>
</g>
</g>
<!-- Node89&#45;&gt;Node90 -->
<g id="edge5" class="edge">
<title>Node89&#45;&gt;Node90</title>
<path fill="none" stroke="#191970" d="M381.5217,-10C395.4691,-10 413.083,-10 429.7053,-10"/>
<polygon fill="#191970" stroke="#191970" points="429.8853,-13.5001 439.8853,-10 429.8853,-6.5001 429.8853,-13.5001"/>
</g>
</g>
</svg>
