<?xml version="1.0" encoding="UTF-8" standalone="no"?>
<!DOCTYPE svg PUBLIC "-//W3C//DTD SVG 1.1//EN"
 "http://www.w3.org/Graphics/SVG/1.1/DTD/svg11.dtd">
<!-- Generated by graphviz version 2.40.1 (20161225.0304)
 -->
<!-- Title: Element::get_1d_int_py Pages: 1 -->
<svg width="555pt" height="170pt"
 viewBox="0.00 0.00 555.00 170.00" xmlns="http://www.w3.org/2000/svg" xmlns:xlink="http://www.w3.org/1999/xlink">
<g id="graph0" class="graph" transform="scale(1 1) rotate(0) translate(4 166)">
<title>Element::get_1d_int_py</title>
<polygon fill="#ffffff" stroke="transparent" points="-4,4 -4,-166 551,-166 551,4 -4,4"/>
<!-- Node40 -->
<g id="node1" class="node">
<title>Node40</title>
<polygon fill="#bfbfbf" stroke="#000000" points="0,-38.5 0,-57.5 119,-57.5 119,-38.5 0,-38.5"/>
<text text-anchor="middle" x="59.5" y="-45.5" font-family="Helvetica,sans-Serif" font-size="10.00" fill="#000000">Element::get_1d_int_py</text>
</g>
<!-- Node41 -->
<g id="node2" class="node">
<title>Node41</title>
<g id="a_node2"><a xlink:href="classElement.html#a1fdb9455f49d2c66a0276925f7246cad" target="_top" xlink:title="Routines to be conducted when a wrapper of getter is called from Python. ">
<polygon fill="#ffffff" stroke="#000000" points="155,-85.5 155,-104.5 277,-104.5 277,-85.5 155,-85.5"/>
<text text-anchor="middle" x="216" y="-92.5" font-family="Helvetica,sans-Serif" font-size="10.00" fill="#000000">Element::init_for_python</text>
</a>
</g>
</g>
<!-- Node40&#45;&gt;Node41 -->
<g id="edge1" class="edge">
<title>Node40&#45;&gt;Node41</title>
<path fill="none" stroke="#191970" d="M91.1701,-57.5112C115.1671,-64.7179 148.3534,-74.6844 174.4765,-82.5297"/>
<polygon fill="#191970" stroke="#191970" points="173.5246,-85.8982 184.1088,-85.4224 175.5381,-79.194 173.5246,-85.8982"/>
</g>
<!-- Node46 -->
<g id="node7" class="node">
<title>Node46</title>
<g id="a_node7"><a xlink:href="classElement.html#a2dd2b3ed6f76878ae6cc1c1a36183517" target="_top" xlink:title="Wrapper for DataKeys::required. ">
<polygon fill="#ffffff" stroke="#000000" points="169.5,-38.5 169.5,-57.5 262.5,-57.5 262.5,-38.5 169.5,-38.5"/>
<text text-anchor="middle" x="216" y="-45.5" font-family="Helvetica,sans-Serif" font-size="10.00" fill="#000000">Element::required</text>
</a>
</g>
</g>
<!-- Node40&#45;&gt;Node46 -->
<g id="edge6" class="edge">
<title>Node40&#45;&gt;Node46</title>
<path fill="none" stroke="#191970" d="M119.1124,-48C132.199,-48 146.0241,-48 159.0048,-48"/>
<polygon fill="#191970" stroke="#191970" points="159.2039,-51.5001 169.2039,-48 159.2038,-44.5001 159.2039,-51.5001"/>
</g>
<!-- Node49 -->
<g id="node10" class="node">
<title>Node49</title>
<g id="a_node10"><a xlink:href="classElement.html#a576395d61902a76979ffd336afa714b3" target="_top" xlink:title="Extract values in data as an one&#45;dimensional Eigen&#45;Array. ">
<polygon fill="#ffffff" stroke="#000000" points="170.5,-.5 170.5,-19.5 261.5,-19.5 261.5,-.5 170.5,-.5"/>
<text text-anchor="middle" x="216" y="-7.5" font-family="Helvetica,sans-Serif" font-size="10.00" fill="#000000">Element::array1d</text>
</a>
</g>
</g>
<!-- Node40&#45;&gt;Node49 -->
<g id="edge10" class="edge">
<title>Node40&#45;&gt;Node49</title>
<path fill="none" stroke="#191970" d="M98.9916,-38.411C119.6434,-33.3965 145.114,-27.2119 167.0125,-21.8947"/>
<polygon fill="#191970" stroke="#191970" points="167.9007,-25.2809 176.7924,-19.5201 166.2489,-18.4785 167.9007,-25.2809"/>
</g>
<!-- Node42 -->
<g id="node3" class="node">
<title>Node42</title>
<g id="a_node3"><a xlink:href="classGenerator.html#ac4648b055ee0e51c1e68ea084156c222" target="_top" xlink:title="Hello to this Generator instance. ">
<polygon fill="#ffffff" stroke="#000000" points="320,-104.5 320,-123.5 406,-123.5 406,-104.5 320,-104.5"/>
<text text-anchor="middle" x="363" y="-111.5" font-family="Helvetica,sans-Serif" font-size="10.00" fill="#000000">Generator::hello</text>
</a>
</g>
</g>
<!-- Node41&#45;&gt;Node42 -->
<g id="edge2" class="edge">
<title>Node41&#45;&gt;Node42</title>
<path fill="none" stroke="#191970" d="M277.0642,-102.8926C287.9438,-104.2989 299.1979,-105.7535 309.8353,-107.1284"/>
<polygon fill="#191970" stroke="#191970" points="309.4464,-110.6071 319.8126,-108.418 310.3437,-103.6649 309.4464,-110.6071"/>
</g>
<!-- Node43 -->
<g id="node4" class="node">
<title>Node43</title>
<g id="a_node4"><a xlink:href="namespaceutils.html#acee57b54806ee63ddaa30518fed90adb" target="_top" xlink:title="utils::runtime_error">
<polygon fill="#ffffff" stroke="#000000" points="449,-66.5 449,-85.5 547,-85.5 547,-66.5 449,-66.5"/>
<text text-anchor="middle" x="498" y="-73.5" font-family="Helvetica,sans-Serif" font-size="10.00" fill="#000000">utils::runtime_error</text>
</a>
</g>
</g>
<!-- Node41&#45;&gt;Node43 -->
<g id="edge3" class="edge">
<title>Node41&#45;&gt;Node43</title>
<path fill="none" stroke="#191970" d="M277.1898,-90.8773C325.0301,-87.654 391.1476,-83.1993 438.5399,-80.0062"/>
<polygon fill="#191970" stroke="#191970" points="438.913,-83.4891 448.6551,-79.3247 438.4424,-76.5049 438.913,-83.4891"/>
</g>
<!-- Node44 -->
<g id="node5" class="node">
<title>Node44</title>
<g id="a_node5"><a xlink:href="namespaceutils.html#a26267fe7371b6215c5d61374d716527b" target="_top" xlink:title="utils::log">
<polygon fill="#ffffff" stroke="#000000" points="336.5,-142.5 336.5,-161.5 389.5,-161.5 389.5,-142.5 336.5,-142.5"/>
<text text-anchor="middle" x="363" y="-149.5" font-family="Helvetica,sans-Serif" font-size="10.00" fill="#000000">utils::log</text>
</a>
</g>
</g>
<!-- Node41&#45;&gt;Node44 -->
<g id="edge4" class="edge">
<title>Node41&#45;&gt;Node44</title>
<path fill="none" stroke="#191970" d="M240.2901,-104.5951C259.8939,-112.3199 288.1955,-123.4288 313,-133 317.9098,-134.8945 323.0961,-136.8814 328.1959,-138.8268"/>
<polygon fill="#191970" stroke="#191970" points="327.21,-142.1964 337.801,-142.4818 329.6996,-135.6541 327.21,-142.1964"/>
</g>
<!-- Node45 -->
<g id="node6" class="node">
<title>Node45</title>
<g id="a_node6"><a xlink:href="namespaceutils.html#a3b5f21e223fdb0898119de641a1685f6" target="_top" xlink:title="utils::_message">
<polygon fill="#ffffff" stroke="#000000" points="455,-142.5 455,-161.5 541,-161.5 541,-142.5 455,-142.5"/>
<text text-anchor="middle" x="498" y="-149.5" font-family="Helvetica,sans-Serif" font-size="10.00" fill="#000000">utils::_message</text>
</a>
</g>
</g>
<!-- Node44&#45;&gt;Node45 -->
<g id="edge5" class="edge">
<title>Node44&#45;&gt;Node45</title>
<path fill="none" stroke="#191970" d="M389.6717,-152C405.4345,-152 425.9555,-152 444.8916,-152"/>
<polygon fill="#191970" stroke="#191970" points="444.9111,-155.5001 454.9111,-152 444.911,-148.5001 444.9111,-155.5001"/>
</g>
<!-- Node47 -->
<g id="node8" class="node">
<title>Node47</title>
<g id="a_node8"><a xlink:href="classDataKeys.html#a03517cffe825c983c3582ffb55318a7b" target="_top" xlink:title="... ">
<polygon fill="#ffffff" stroke="#000000" points="313,-28.5 313,-47.5 413,-47.5 413,-28.5 313,-28.5"/>
<text text-anchor="middle" x="363" y="-35.5" font-family="Helvetica,sans-Serif" font-size="10.00" fill="#000000">DataKeys::required</text>
</a>
</g>
</g>
<!-- Node46&#45;&gt;Node47 -->
<g id="edge7" class="edge">
<title>Node46&#45;&gt;Node47</title>
<path fill="none" stroke="#191970" d="M262.5117,-44.8359C275.3141,-43.965 289.3852,-43.0078 302.8392,-42.0926"/>
<polygon fill="#191970" stroke="#191970" points="303.2367,-45.5737 312.9761,-41.403 302.7616,-38.5899 303.2367,-45.5737"/>
</g>
<!-- Node47&#45;&gt;Node43 -->
<g id="edge8" class="edge">
<title>Node47&#45;&gt;Node43</title>
<path fill="none" stroke="#191970" d="M397.0662,-47.589C414.4135,-52.4719 435.7022,-58.4643 454.2492,-63.685"/>
<polygon fill="#191970" stroke="#191970" points="453.3704,-67.0735 463.9447,-66.4141 455.2671,-60.3354 453.3704,-67.0735"/>
</g>
<!-- Node48 -->
<g id="node9" class="node">
<title>Node48</title>
<g id="a_node9"><a xlink:href="namespaceutils.html#a5e5339e32b770a14691521435849c949" target="_top" xlink:title="utils::join">
<polygon fill="#ffffff" stroke="#000000" points="470,-28.5 470,-47.5 526,-47.5 526,-28.5 470,-28.5"/>
<text text-anchor="middle" x="498" y="-35.5" font-family="Helvetica,sans-Serif" font-size="10.00" fill="#000000">utils::join</text>
</a>
</g>
</g>
<!-- Node47&#45;&gt;Node48 -->
<g id="edge9" class="edge">
<title>Node47&#45;&gt;Node48</title>
<path fill="none" stroke="#191970" d="M413.269,-38C428.5913,-38 445.1831,-38 459.589,-38"/>
<polygon fill="#191970" stroke="#191970" points="459.6431,-41.5001 469.643,-38 459.643,-34.5001 459.6431,-41.5001"/>
</g>
</g>
</svg>
