<?xml version="1.0" encoding="UTF-8" standalone="no"?>
<!DOCTYPE svg PUBLIC "-//W3C//DTD SVG 1.1//EN"
 "http://www.w3.org/Graphics/SVG/1.1/DTD/svg11.dtd">
<!-- Generated by graphviz version 2.40.1 (20161225.0304)
 -->
<!-- Title: Updater::check_blacklist Pages: 1 -->
<svg width="266pt" height="142pt"
 viewBox="0.00 0.00 266.00 142.00" xmlns="http://www.w3.org/2000/svg" xmlns:xlink="http://www.w3.org/1999/xlink">
<g id="graph0" class="graph" transform="scale(1 1) rotate(0) translate(4 138)">
<title>Updater::check_blacklist</title>
<polygon fill="#ffffff" stroke="transparent" points="-4,4 -4,-138 262,-138 262,4 -4,4"/>
<!-- Node3 -->
<g id="node1" class="node">
<title>Node3</title>
<polygon fill="#bfbfbf" stroke="#000000" points="0,-57.5 0,-76.5 124,-76.5 124,-57.5 0,-57.5"/>
<text text-anchor="middle" x="62" y="-64.5" font-family="Helvetica,sans-Serif" font-size="10.00" fill="#000000">Updater::check_blacklist</text>
</g>
<!-- Node4 -->
<g id="node2" class="node">
<title>Node4</title>
<g id="a_node2"><a xlink:href="classAdder.html#a2702febc51f2643de5d7aa18a4fc42e9" target="_top" xlink:title="Compute properties and add them to Element::data given as a mutable reference. ">
<polygon fill="#ffffff" stroke="#000000" points="166,-114.5 166,-133.5 252,-133.5 252,-114.5 166,-114.5"/>
<text text-anchor="middle" x="209" y="-121.5" font-family="Helvetica,sans-Serif" font-size="10.00" fill="#000000">Adder::compute</text>
</a>
</g>
</g>
<!-- Node3&#45;&gt;Node4 -->
<g id="edge1" class="edge">
<title>Node3&#45;&gt;Node4</title>
<path fill="none" stroke="#191970" d="M96.0497,-80.203C123.0411,-90.669 160.1193,-105.0462 184.3152,-114.4284"/>
<polygon fill="#191970" stroke="#191970" points="97.1935,-76.8926 86.6045,-76.5405 94.6627,-83.4191 97.1935,-76.8926"/>
</g>
<!-- Node5 -->
<g id="node3" class="node">
<title>Node5</title>
<g id="a_node3"><a xlink:href="classFilter.html#a6fcd5c57bf85541b46b946335ebb7707" target="_top" xlink:title="Filter elements from array Element::data given as a mutable reference. ">
<polygon fill="#ffffff" stroke="#000000" points="168,-76.5 168,-95.5 250,-95.5 250,-76.5 168,-76.5"/>
<text text-anchor="middle" x="209" y="-83.5" font-family="Helvetica,sans-Serif" font-size="10.00" fill="#000000">Filter::compute</text>
</a>
</g>
</g>
<!-- Node3&#45;&gt;Node5 -->
<g id="edge2" class="edge">
<title>Node3&#45;&gt;Node5</title>
<path fill="none" stroke="#191970" d="M134.4061,-76.3586C145.9018,-77.8445 157.4332,-79.3349 167.8752,-80.6845"/>
<polygon fill="#191970" stroke="#191970" points="134.7074,-72.8685 124.3412,-75.0577 133.8101,-79.8108 134.7074,-72.8685"/>
</g>
<!-- Node6 -->
<g id="node4" class="node">
<title>Node6</title>
<g id="a_node4"><a xlink:href="classStaCopy.html#a2e7e1b1e53f63b63d92486fab68a758f" target="_top" xlink:title="StaCopy::compute">
<polygon fill="#ffffff" stroke="#000000" points="160,-38.5 160,-57.5 258,-57.5 258,-38.5 160,-38.5"/>
<text text-anchor="middle" x="209" y="-45.5" font-family="Helvetica,sans-Serif" font-size="10.00" fill="#000000">StaCopy::compute</text>
</a>
</g>
</g>
<!-- Node3&#45;&gt;Node6 -->
<g id="edge3" class="edge">
<title>Node3&#45;&gt;Node6</title>
<path fill="none" stroke="#191970" d="M134.4431,-57.6366C143.0804,-56.5202 151.7372,-55.4013 159.9362,-54.3416"/>
<polygon fill="#191970" stroke="#191970" points="133.8101,-54.1892 124.3412,-58.9423 134.7074,-61.1315 133.8101,-54.1892"/>
</g>
<!-- Node7 -->
<g id="node5" class="node">
<title>Node7</title>
<g id="a_node5"><a xlink:href="classStarter.html#a06098875ca2584225ac5aec4e0c82d09" target="_top" xlink:title="Compute or parse properties and set them to Element::data given as a mutable reference. ">
<polygon fill="#ffffff" stroke="#000000" points="164.5,-.5 164.5,-19.5 253.5,-19.5 253.5,-.5 164.5,-.5"/>
<text text-anchor="middle" x="209" y="-7.5" font-family="Helvetica,sans-Serif" font-size="10.00" fill="#000000">Starter::compute</text>
</a>
</g>
</g>
<!-- Node3&#45;&gt;Node7 -->
<g id="edge4" class="edge">
<title>Node3&#45;&gt;Node7</title>
<path fill="none" stroke="#191970" d="M96.0497,-53.797C123.0411,-43.331 160.1193,-28.9538 184.3152,-19.5716"/>
<polygon fill="#191970" stroke="#191970" points="94.6627,-50.5809 86.6045,-57.4595 97.1935,-57.1074 94.6627,-50.5809"/>
</g>
</g>
</svg>
