<?xml version="1.0" encoding="UTF-8" standalone="no"?>
<!DOCTYPE svg PUBLIC "-//W3C//DTD SVG 1.1//EN"
 "http://www.w3.org/Graphics/SVG/1.1/DTD/svg11.dtd">
<!-- Generated by graphviz version 2.40.1 (20161225.0304)
 -->
<!-- Title: AddDihedralAngle::compute_impl Pages: 1 -->
<svg width="440pt" height="104pt"
 viewBox="0.00 0.00 440.00 104.00" xmlns="http://www.w3.org/2000/svg" xmlns:xlink="http://www.w3.org/1999/xlink">
<g id="graph0" class="graph" transform="scale(1 1) rotate(0) translate(4 100)">
<title>AddDihedralAngle::compute_impl</title>
<polygon fill="#ffffff" stroke="transparent" points="-4,4 -4,-100 436,-100 436,4 -4,4"/>
<!-- Node2 -->
<g id="node1" class="node">
<title>Node2</title>
<polygon fill="#bfbfbf" stroke="#000000" points="0,-38.5 0,-57.5 161,-57.5 161,-38.5 0,-38.5"/>
<text text-anchor="middle" x="80.5" y="-45.5" font-family="Helvetica,sans-Serif" font-size="10.00" fill="#000000">AddDihedralAngle::compute_impl</text>
</g>
<!-- Node3 -->
<g id="node2" class="node">
<title>Node3</title>
<g id="a_node2"><a xlink:href="classDataKeys.html#a03517cffe825c983c3582ffb55318a7b" target="_top" xlink:title="Check if this object has required key(s). ">
<polygon fill="#ffffff" stroke="#000000" points="197.5,-76.5 197.5,-95.5 297.5,-95.5 297.5,-76.5 197.5,-76.5"/>
<text text-anchor="middle" x="247.5" y="-83.5" font-family="Helvetica,sans-Serif" font-size="10.00" fill="#000000">DataKeys::required</text>
</a>
</g>
</g>
<!-- Node2&#45;&gt;Node3 -->
<g id="edge1" class="edge">
<title>Node2&#45;&gt;Node3</title>
<path fill="none" stroke="#191970" d="M122.6412,-57.589C144.8771,-62.6487 172.3482,-68.8996 195.8564,-74.2488"/>
<polygon fill="#191970" stroke="#191970" points="195.1345,-77.6739 205.6619,-76.4799 196.6877,-70.8484 195.1345,-77.6739"/>
</g>
<!-- Node6 -->
<g id="node5" class="node">
<title>Node6</title>
<g id="a_node5"><a xlink:href="namespaceutils.html#aeabf3fc19efc71936f355f069d336b5a" target="_top" xlink:title="Create a Map object from values of selected property in an array Json object to corresponding index i...">
<polygon fill="#ffffff" stroke="#000000" points="197,-38.5 197,-57.5 298,-57.5 298,-38.5 197,-38.5"/>
<text text-anchor="middle" x="247.5" y="-45.5" font-family="Helvetica,sans-Serif" font-size="10.00" fill="#000000">utils::map_to_index</text>
</a>
</g>
</g>
<!-- Node2&#45;&gt;Node6 -->
<g id="edge4" class="edge">
<title>Node2&#45;&gt;Node6</title>
<path fill="none" stroke="#191970" d="M161.065,-48C169.7225,-48 178.4222,-48 186.791,-48"/>
<polygon fill="#191970" stroke="#191970" points="186.8101,-51.5001 196.8101,-48 186.8101,-44.5001 186.8101,-51.5001"/>
</g>
<!-- Node7 -->
<g id="node6" class="node">
<title>Node7</title>
<g id="a_node6"><a xlink:href="classDataKeys.html#a626d56b99861008c2a63580ed17b809d" target="_top" xlink:title="Add key(s) in an array to _keys. ">
<polygon fill="#ffffff" stroke="#000000" points="207,-.5 207,-19.5 288,-19.5 288,-.5 207,-.5"/>
<text text-anchor="middle" x="247.5" y="-7.5" font-family="Helvetica,sans-Serif" font-size="10.00" fill="#000000">DataKeys::add</text>
</a>
</g>
</g>
<!-- Node2&#45;&gt;Node7 -->
<g id="edge6" class="edge">
<title>Node2&#45;&gt;Node7</title>
<path fill="none" stroke="#191970" d="M122.6412,-38.411C145.2153,-33.2744 173.1851,-26.91 196.9262,-21.5078"/>
<polygon fill="#191970" stroke="#191970" points="197.8399,-24.8895 206.8141,-19.2579 196.2867,-18.0639 197.8399,-24.8895"/>
</g>
<!-- Node4 -->
<g id="node3" class="node">
<title>Node4</title>
<g id="a_node3"><a xlink:href="namespaceutils.html#a5e5339e32b770a14691521435849c949" target="_top" xlink:title="Mimicking Python&#39;s join. ">
<polygon fill="#ffffff" stroke="#000000" points="355,-76.5 355,-95.5 411,-95.5 411,-76.5 355,-76.5"/>
<text text-anchor="middle" x="383" y="-83.5" font-family="Helvetica,sans-Serif" font-size="10.00" fill="#000000">utils::join</text>
</a>
</g>
</g>
<!-- Node3&#45;&gt;Node4 -->
<g id="edge2" class="edge">
<title>Node3&#45;&gt;Node4</title>
<path fill="none" stroke="#191970" d="M297.5702,-86C313.1002,-86 329.9629,-86 344.5718,-86"/>
<polygon fill="#191970" stroke="#191970" points="344.7597,-89.5001 354.7597,-86 344.7597,-82.5001 344.7597,-89.5001"/>
</g>
<!-- Node5 -->
<g id="node4" class="node">
<title>Node5</title>
<g id="a_node4"><a xlink:href="namespaceutils.html#acee57b54806ee63ddaa30518fed90adb" target="_top" xlink:title="Raise (for Python) and throw (for C++) a runtime error. ">
<polygon fill="#ffffff" stroke="#000000" points="334,-38.5 334,-57.5 432,-57.5 432,-38.5 334,-38.5"/>
<text text-anchor="middle" x="383" y="-45.5" font-family="Helvetica,sans-Serif" font-size="10.00" fill="#000000">utils::runtime_error</text>
</a>
</g>
</g>
<!-- Node3&#45;&gt;Node5 -->
<g id="edge3" class="edge">
<title>Node3&#45;&gt;Node5</title>
<path fill="none" stroke="#191970" d="M281.6924,-76.411C299.1039,-71.5281 320.4715,-65.5357 339.0871,-60.315"/>
<polygon fill="#191970" stroke="#191970" points="340.1351,-63.6562 348.8186,-57.5859 338.2449,-56.9163 340.1351,-63.6562"/>
</g>
<!-- Node6&#45;&gt;Node5 -->
<g id="edge5" class="edge">
<title>Node6&#45;&gt;Node5</title>
<path fill="none" stroke="#191970" d="M298.3407,-48C306.5624,-48 315.1391,-48 323.543,-48"/>
<polygon fill="#191970" stroke="#191970" points="323.6726,-51.5001 333.6726,-48 323.6726,-44.5001 323.6726,-51.5001"/>
</g>
</g>
</svg>
