<?xml version="1.0" encoding="UTF-8" standalone="no"?>
<!DOCTYPE svg PUBLIC "-//W3C//DTD SVG 1.1//EN"
 "http://www.w3.org/Graphics/SVG/1.1/DTD/svg11.dtd">
<!-- Generated by graphviz version 2.40.1 (20161225.0304)
 -->
<!-- Title: Processor::run Pages: 1 -->
<svg width="249pt" height="104pt"
 viewBox="0.00 0.00 249.00 104.00" xmlns="http://www.w3.org/2000/svg" xmlns:xlink="http://www.w3.org/1999/xlink">
<g id="graph0" class="graph" transform="scale(1 1) rotate(0) translate(4 100)">
<title>Processor::run</title>
<polygon fill="#ffffff" stroke="transparent" points="-4,4 -4,-100 245,-100 245,4 -4,4"/>
<!-- Node20 -->
<g id="node1" class="node">
<title>Node20</title>
<polygon fill="#bfbfbf" stroke="#000000" points="0,-38.5 0,-57.5 80,-57.5 80,-38.5 0,-38.5"/>
<text text-anchor="middle" x="40" y="-45.5" font-family="Helvetica,sans-Serif" font-size="10.00" fill="#000000">Processor::run</text>
</g>
<!-- Node21 -->
<g id="node2" class="node">
<title>Node21</title>
<g id="a_node2"><a xlink:href="classProcessor.html#a7d4a978d396b9ec0c738d314ef0ef5d5" target="_top" xlink:title="Call Generator::hello of i th Generator object in generators. ">
<polygon fill="#ffffff" stroke="#000000" points="124.5,-76.5 124.5,-95.5 232.5,-95.5 232.5,-76.5 124.5,-76.5"/>
<text text-anchor="middle" x="178.5" y="-83.5" font-family="Helvetica,sans-Serif" font-size="10.00" fill="#000000">Processor::say_hello</text>
</a>
</g>
</g>
<!-- Node20&#45;&gt;Node21 -->
<g id="edge1" class="edge">
<title>Node20&#45;&gt;Node21</title>
<path fill="none" stroke="#191970" d="M74.9494,-57.589C92.8284,-62.4944 114.7884,-68.5196 133.8778,-73.7571"/>
<polygon fill="#191970" stroke="#191970" points="132.9921,-77.1434 143.5618,-76.4141 134.8443,-70.3928 132.9921,-77.1434"/>
</g>
<!-- Node22 -->
<g id="node3" class="node">
<title>Node22</title>
<g id="a_node3"><a xlink:href="classProcessor.html#a46c873071eb6309273eb330b6b837a40" target="_top" xlink:title="Implementation of analysis using an element of generators. ">
<polygon fill="#ffffff" stroke="#000000" points="126.5,-38.5 126.5,-57.5 230.5,-57.5 230.5,-38.5 126.5,-38.5"/>
<text text-anchor="middle" x="178.5" y="-45.5" font-family="Helvetica,sans-Serif" font-size="10.00" fill="#000000">Processor::run_impl</text>
</a>
</g>
</g>
<!-- Node20&#45;&gt;Node22 -->
<g id="edge2" class="edge">
<title>Node20&#45;&gt;Node22</title>
<path fill="none" stroke="#191970" d="M80.0599,-48C91.3571,-48 103.9228,-48 116.1947,-48"/>
<polygon fill="#191970" stroke="#191970" points="116.3997,-51.5001 126.3996,-48 116.3996,-44.5001 116.3997,-51.5001"/>
</g>
<!-- Node23 -->
<g id="node4" class="node">
<title>Node23</title>
<g id="a_node4"><a xlink:href="classProcessor.html#a3d25e6d6f7dd0e698f61ea5dfef08695" target="_top" xlink:title="Call Generator::goodbye of i th Generator object in generators. ">
<polygon fill="#ffffff" stroke="#000000" points="116,-.5 116,-19.5 241,-19.5 241,-.5 116,-.5"/>
<text text-anchor="middle" x="178.5" y="-7.5" font-family="Helvetica,sans-Serif" font-size="10.00" fill="#000000">Processor::say_goodbye</text>
</a>
</g>
</g>
<!-- Node20&#45;&gt;Node23 -->
<g id="edge3" class="edge">
<title>Node20&#45;&gt;Node23</title>
<path fill="none" stroke="#191970" d="M74.9494,-38.411C92.8284,-33.5056 114.7884,-27.4804 133.8778,-22.2429"/>
<polygon fill="#191970" stroke="#191970" points="134.8443,-25.6072 143.5618,-19.5859 132.9921,-18.8566 134.8443,-25.6072"/>
</g>
</g>
</svg>
