<?xml version="1.0" encoding="UTF-8" standalone="no"?>
<!DOCTYPE svg PUBLIC "-//W3C//DTD SVG 1.1//EN"
 "http://www.w3.org/Graphics/SVG/1.1/DTD/svg11.dtd">
<!-- Generated by graphviz version 2.40.1 (20161225.0304)
 -->
<!-- Title: Generator::merge_update_chain Pages: 1 -->
<svg width="566pt" height="104pt"
 viewBox="0.00 0.00 566.00 104.00" xmlns="http://www.w3.org/2000/svg" xmlns:xlink="http://www.w3.org/1999/xlink">
<g id="graph0" class="graph" transform="scale(1 1) rotate(0) translate(4 100)">
<title>Generator::merge_update_chain</title>
<polygon fill="#ffffff" stroke="transparent" points="-4,4 -4,-100 562,-100 562,4 -4,4"/>
<!-- Node26 -->
<g id="node1" class="node">
<title>Node26</title>
<polygon fill="#bfbfbf" stroke="#000000" points="0,-33 0,-63 127,-63 127,-33 0,-33"/>
<text text-anchor="start" x="8" y="-51" font-family="Helvetica,sans-Serif" font-size="10.00" fill="#000000">Generator::merge_update</text>
<text text-anchor="middle" x="63.5" y="-40" font-family="Helvetica,sans-Serif" font-size="10.00" fill="#000000">_chain</text>
</g>
<!-- Node27 -->
<g id="node2" class="node">
<title>Node27</title>
<g id="a_node2"><a xlink:href="classElement.html#adc43106f0ea5e11d03105c40df1fe0a8" target="_top" xlink:title="Append an instance of Updater class to this instance. Can be called from Python. ">
<polygon fill="#ffffff" stroke="#000000" points="163,-76.5 163,-95.5 291,-95.5 291,-76.5 163,-76.5"/>
<text text-anchor="middle" x="227" y="-83.5" font-family="Helvetica,sans-Serif" font-size="10.00" fill="#000000">Element::append_updater</text>
</a>
</g>
</g>
<!-- Node26&#45;&gt;Node27 -->
<g id="edge1" class="edge">
<title>Node26&#45;&gt;Node27</title>
<path fill="none" stroke="#191970" d="M136.9881,-65.0798C153.7727,-68.9808 171.0265,-72.9909 185.8806,-76.4432"/>
<polygon fill="#191970" stroke="#191970" points="137.7143,-61.6554 127.1815,-62.8006 136.1296,-68.4736 137.7143,-61.6554"/>
</g>
<!-- Node30 -->
<g id="node5" class="node">
<title>Node30</title>
<g id="a_node5"><a xlink:href="classGenDict.html#a658c404044ae2dbf9bfe1564a6f2977c" target="_top" xlink:title="Constructor of GenDict class. ">
<polygon fill="#ffffff" stroke="#000000" points="180.5,-38.5 180.5,-57.5 273.5,-57.5 273.5,-38.5 180.5,-38.5"/>
<text text-anchor="middle" x="227" y="-45.5" font-family="Helvetica,sans-Serif" font-size="10.00" fill="#000000">GenDict::GenDict</text>
</a>
</g>
</g>
<!-- Node26&#45;&gt;Node30 -->
<g id="edge4" class="edge">
<title>Node26&#45;&gt;Node30</title>
<path fill="none" stroke="#191970" d="M137.2705,-48C151.9576,-48 166.9915,-48 180.4517,-48"/>
<polygon fill="#191970" stroke="#191970" points="137.1816,-44.5001 127.1815,-48 137.1815,-51.5001 137.1816,-44.5001"/>
</g>
<!-- Node31 -->
<g id="node6" class="node">
<title>Node31</title>
<g id="a_node6"><a xlink:href="classGenList.html#a52312e9310f32ffe141e661409ab3a59" target="_top" xlink:title="Constructor of GenList class. ">
<polygon fill="#ffffff" stroke="#000000" points="182,-.5 182,-19.5 272,-19.5 272,-.5 182,-.5"/>
<text text-anchor="middle" x="227" y="-7.5" font-family="Helvetica,sans-Serif" font-size="10.00" fill="#000000">GenList::GenList</text>
</a>
</g>
</g>
<!-- Node26&#45;&gt;Node31 -->
<g id="edge5" class="edge">
<title>Node26&#45;&gt;Node31</title>
<path fill="none" stroke="#191970" d="M136.9881,-30.9202C153.7727,-27.0192 171.0265,-23.0091 185.8806,-19.5568"/>
<polygon fill="#191970" stroke="#191970" points="136.1296,-27.5264 127.1815,-33.1994 137.7143,-34.3446 136.1296,-27.5264"/>
</g>
<!-- Node28 -->
<g id="node3" class="node">
<title>Node28</title>
<g id="a_node3"><a xlink:href="pybind_2element_8h.html#a32471b3cace9ede01900bfbdaca5e16a" target="_top" xlink:title="pybind_element">
<polygon fill="#ffffff" stroke="#000000" points="327,-76.5 327,-95.5 412,-95.5 412,-76.5 327,-76.5"/>
<text text-anchor="middle" x="369.5" y="-83.5" font-family="Helvetica,sans-Serif" font-size="10.00" fill="#000000">pybind_element</text>
</a>
</g>
</g>
<!-- Node27&#45;&gt;Node28 -->
<g id="edge2" class="edge">
<title>Node27&#45;&gt;Node28</title>
<path fill="none" stroke="#191970" d="M301.4194,-86C310.1581,-86 318.8331,-86 326.9172,-86"/>
<polygon fill="#191970" stroke="#191970" points="301.1633,-82.5001 291.1633,-86 301.1632,-89.5001 301.1633,-82.5001"/>
</g>
<!-- Node29 -->
<g id="node4" class="node">
<title>Node29</title>
<g id="a_node4"><a xlink:href="pybind_8h.html#a4714c4a855ebb82892410d5254e9ccdc" target="_top" xlink:title="PYBIND11_MODULE">
<polygon fill="#ffffff" stroke="#000000" points="448,-76.5 448,-95.5 558,-95.5 558,-76.5 448,-76.5"/>
<text text-anchor="middle" x="503" y="-83.5" font-family="Helvetica,sans-Serif" font-size="10.00" fill="#000000">PYBIND11_MODULE</text>
</a>
</g>
</g>
<!-- Node28&#45;&gt;Node29 -->
<g id="edge3" class="edge">
<title>Node28&#45;&gt;Node29</title>
<path fill="none" stroke="#191970" d="M422.1304,-86C430.5048,-86 439.1898,-86 447.6252,-86"/>
<polygon fill="#191970" stroke="#191970" points="422.1073,-82.5001 412.1073,-86 422.1072,-89.5001 422.1073,-82.5001"/>
</g>
</g>
</svg>
