<?xml version="1.0" encoding="UTF-8" standalone="no"?>
<!DOCTYPE svg PUBLIC "-//W3C//DTD SVG 1.1//EN"
 "http://www.w3.org/Graphics/SVG/1.1/DTD/svg11.dtd">
<!-- Generated by graphviz version 2.40.1 (20161225.0304)
 -->
<!-- Title: FilComparison::make_lambda Pages: 1 -->
<svg width="452pt" height="39pt"
 viewBox="0.00 0.00 452.00 39.00" xmlns="http://www.w3.org/2000/svg" xmlns:xlink="http://www.w3.org/1999/xlink">
<g id="graph0" class="graph" transform="scale(1 1) rotate(0) translate(4 35)">
<title>FilComparison::make_lambda</title>
<polygon fill="#ffffff" stroke="transparent" points="-4,4 -4,-35 448,-35 448,4 -4,4"/>
<!-- Node18 -->
<g id="node1" class="node">
<title>Node18</title>
<polygon fill="#bfbfbf" stroke="#000000" points="0,-.5 0,-30.5 109,-30.5 109,-.5 0,-.5"/>
<text text-anchor="start" x="8" y="-18.5" font-family="Helvetica,sans-Serif" font-size="10.00" fill="#000000">FilComparison::make</text>
<text text-anchor="middle" x="54.5" y="-7.5" font-family="Helvetica,sans-Serif" font-size="10.00" fill="#000000">_lambda</text>
</g>
<!-- Node19 -->
<g id="node2" class="node">
<title>Node19</title>
<g id="a_node2"><a xlink:href="classFilComparison.html#a7300b226ef91df3cdabf2799129a979d" target="_top" xlink:title="Convert tuples in comparisons to pairs of a string key and CompareFunc. ">
<polygon fill="#ffffff" stroke="#000000" points="145,-.5 145,-30.5 262,-30.5 262,-.5 145,-.5"/>
<text text-anchor="start" x="153" y="-18.5" font-family="Helvetica,sans-Serif" font-size="10.00" fill="#000000">FilComparison::convert</text>
<text text-anchor="middle" x="203.5" y="-7.5" font-family="Helvetica,sans-Serif" font-size="10.00" fill="#000000">_to_funcs</text>
</a>
</g>
</g>
<!-- Node18&#45;&gt;Node19 -->
<g id="edge1" class="edge">
<title>Node18&#45;&gt;Node19</title>
<path fill="none" stroke="#191970" d="M119.3639,-15.5C127.8425,-15.5 136.4905,-15.5 144.8585,-15.5"/>
<polygon fill="#191970" stroke="#191970" points="119.1361,-12.0001 109.136,-15.5 119.136,-19.0001 119.1361,-12.0001"/>
</g>
<!-- Node20 -->
<g id="node3" class="node">
<title>Node20</title>
<g id="a_node3"><a xlink:href="classFilComparison.html#af7dc169cdedf15e6b8dc355cc973e90f" target="_top" xlink:title="Implementation of computation to update Element::data. ">
<polygon fill="#ffffff" stroke="#000000" points="298,-6 298,-25 444,-25 444,-6 298,-6"/>
<text text-anchor="middle" x="371" y="-13" font-family="Helvetica,sans-Serif" font-size="10.00" fill="#000000">FilComparison::compute_impl</text>
</a>
</g>
</g>
<!-- Node19&#45;&gt;Node20 -->
<g id="edge2" class="edge">
<title>Node19&#45;&gt;Node20</title>
<path fill="none" stroke="#191970" d="M272.2157,-15.5C280.6269,-15.5 289.2474,-15.5 297.7224,-15.5"/>
<polygon fill="#191970" stroke="#191970" points="272.0834,-12.0001 262.0834,-15.5 272.0833,-19.0001 272.0834,-12.0001"/>
</g>
</g>
</svg>
