<?xml version="1.0" encoding="UTF-8" standalone="no"?>
<!DOCTYPE svg PUBLIC "-//W3C//DTD SVG 1.1//EN"
 "http://www.w3.org/Graphics/SVG/1.1/DTD/svg11.dtd">
<!-- Generated by graphviz version 2.40.1 (20161225.0304)
 -->
<!-- Title: Invoker::execute_impl Pages: 1 -->
<svg width="510pt" height="28pt"
 viewBox="0.00 0.00 510.00 28.00" xmlns="http://www.w3.org/2000/svg" xmlns:xlink="http://www.w3.org/1999/xlink">
<g id="graph0" class="graph" transform="scale(1 1) rotate(0) translate(4 24)">
<title>Invoker::execute_impl</title>
<polygon fill="#ffffff" stroke="transparent" points="-4,4 -4,-24 506,-24 506,4 -4,4"/>
<!-- Node15 -->
<g id="node1" class="node">
<title>Node15</title>
<polygon fill="#bfbfbf" stroke="#000000" points="0,-.5 0,-19.5 113,-19.5 113,-.5 0,-.5"/>
<text text-anchor="middle" x="56.5" y="-7.5" font-family="Helvetica,sans-Serif" font-size="10.00" fill="#000000">Invoker::execute_impl</text>
</g>
<!-- Node16 -->
<g id="node2" class="node">
<title>Node16</title>
<g id="a_node2"><a xlink:href="classInvoker.html#a72e473312201d41ea0711cea5346476c" target="_top" xlink:title="Invoker::execute">
<polygon fill="#ffffff" stroke="#000000" points="149,-.5 149,-19.5 238,-19.5 238,-.5 149,-.5"/>
<text text-anchor="middle" x="193.5" y="-7.5" font-family="Helvetica,sans-Serif" font-size="10.00" fill="#000000">Invoker::execute</text>
</a>
</g>
</g>
<!-- Node15&#45;&gt;Node16 -->
<g id="edge1" class="edge">
<title>Node15&#45;&gt;Node16</title>
<path fill="none" stroke="#191970" d="M123.1743,-10C131.8734,-10 140.6118,-10 148.8277,-10"/>
<polygon fill="#191970" stroke="#191970" points="123.0141,-6.5001 113.0141,-10 123.0141,-13.5001 123.0141,-6.5001"/>
</g>
<!-- Node17 -->
<g id="node3" class="node">
<title>Node17</title>
<g id="a_node3"><a xlink:href="pybind_2invokers_2invoker_8h.html#a862abb0356ee584e3363ac24ec776fbb" target="_top" xlink:title="pybind_invoker">
<polygon fill="#ffffff" stroke="#000000" points="274,-.5 274,-19.5 356,-19.5 356,-.5 274,-.5"/>
<text text-anchor="middle" x="315" y="-7.5" font-family="Helvetica,sans-Serif" font-size="10.00" fill="#000000">pybind_invoker</text>
</a>
</g>
</g>
<!-- Node16&#45;&gt;Node17 -->
<g id="edge2" class="edge">
<title>Node16&#45;&gt;Node17</title>
<path fill="none" stroke="#191970" d="M248.3233,-10C256.845,-10 265.5237,-10 273.6802,-10"/>
<polygon fill="#191970" stroke="#191970" points="248.0522,-6.5001 238.0522,-10 248.0522,-13.5001 248.0522,-6.5001"/>
</g>
<!-- Node18 -->
<g id="node4" class="node">
<title>Node18</title>
<g id="a_node4"><a xlink:href="pybind_8h.html#a4714c4a855ebb82892410d5254e9ccdc" target="_top" xlink:title="PYBIND11_MODULE">
<polygon fill="#ffffff" stroke="#000000" points="392,-.5 392,-19.5 502,-19.5 502,-.5 392,-.5"/>
<text text-anchor="middle" x="447" y="-7.5" font-family="Helvetica,sans-Serif" font-size="10.00" fill="#000000">PYBIND11_MODULE</text>
</a>
</g>
</g>
<!-- Node17&#45;&gt;Node18 -->
<g id="edge3" class="edge">
<title>Node17&#45;&gt;Node18</title>
<path fill="none" stroke="#191970" d="M366.1363,-10C374.5837,-10 383.3739,-10 391.9133,-10"/>
<polygon fill="#191970" stroke="#191970" points="366.0421,-6.5001 356.0421,-10 366.042,-13.5001 366.0421,-6.5001"/>
</g>
</g>
</svg>
