<?xml version="1.0" encoding="UTF-8" standalone="no"?>
<!DOCTYPE svg PUBLIC "-//W3C//DTD SVG 1.1//EN"
 "http://www.w3.org/Graphics/SVG/1.1/DTD/svg11.dtd">
<!-- Generated by graphviz version 2.40.1 (20161225.0304)
 -->
<!-- Title: AddBondAngle::compute_impl Pages: 1 -->
<svg width="427pt" height="104pt"
 viewBox="0.00 0.00 427.00 104.00" xmlns="http://www.w3.org/2000/svg" xmlns:xlink="http://www.w3.org/1999/xlink">
<g id="graph0" class="graph" transform="scale(1 1) rotate(0) translate(4 100)">
<title>AddBondAngle::compute_impl</title>
<polygon fill="#ffffff" stroke="transparent" points="-4,4 -4,-100 423,-100 423,4 -4,4"/>
<!-- Node2 -->
<g id="node1" class="node">
<title>Node2</title>
<polygon fill="#bfbfbf" stroke="#000000" points="0,-38.5 0,-57.5 148,-57.5 148,-38.5 0,-38.5"/>
<text text-anchor="middle" x="74" y="-45.5" font-family="Helvetica,sans-Serif" font-size="10.00" fill="#000000">AddBondAngle::compute_impl</text>
</g>
<!-- Node3 -->
<g id="node2" class="node">
<title>Node3</title>
<g id="a_node2"><a xlink:href="classDataKeys.html#a03517cffe825c983c3582ffb55318a7b" target="_top" xlink:title="Check if this object has required key(s). ">
<polygon fill="#ffffff" stroke="#000000" points="184.5,-76.5 184.5,-95.5 284.5,-95.5 284.5,-76.5 184.5,-76.5"/>
<text text-anchor="middle" x="234.5" y="-83.5" font-family="Helvetica,sans-Serif" font-size="10.00" fill="#000000">DataKeys::required</text>
</a>
</g>
</g>
<!-- Node2&#45;&gt;Node3 -->
<g id="edge1" class="edge">
<title>Node2&#45;&gt;Node3</title>
<path fill="none" stroke="#191970" d="M114.5009,-57.589C135.6806,-62.6035 161.8022,-68.7881 184.2604,-74.1053"/>
<polygon fill="#191970" stroke="#191970" points="183.7529,-77.5818 194.2903,-76.4799 185.3657,-70.7701 183.7529,-77.5818"/>
</g>
<!-- Node6 -->
<g id="node5" class="node">
<title>Node6</title>
<g id="a_node5"><a xlink:href="namespaceutils.html#aeabf3fc19efc71936f355f069d336b5a" target="_top" xlink:title="Create a Map object from values of selected property in an array Json object to corresponding index i...">
<polygon fill="#ffffff" stroke="#000000" points="184,-38.5 184,-57.5 285,-57.5 285,-38.5 184,-38.5"/>
<text text-anchor="middle" x="234.5" y="-45.5" font-family="Helvetica,sans-Serif" font-size="10.00" fill="#000000">utils::map_to_index</text>
</a>
</g>
</g>
<!-- Node2&#45;&gt;Node6 -->
<g id="edge4" class="edge">
<title>Node2&#45;&gt;Node6</title>
<path fill="none" stroke="#191970" d="M148.1425,-48C156.5743,-48 165.0965,-48 173.334,-48"/>
<polygon fill="#191970" stroke="#191970" points="173.5876,-51.5001 183.5876,-48 173.5876,-44.5001 173.5876,-51.5001"/>
</g>
<!-- Node7 -->
<g id="node6" class="node">
<title>Node7</title>
<g id="a_node6"><a xlink:href="classDataKeys.html#a626d56b99861008c2a63580ed17b809d" target="_top" xlink:title="Add key(s) in an array to _keys. ">
<polygon fill="#ffffff" stroke="#000000" points="194,-.5 194,-19.5 275,-19.5 275,-.5 194,-.5"/>
<text text-anchor="middle" x="234.5" y="-7.5" font-family="Helvetica,sans-Serif" font-size="10.00" fill="#000000">DataKeys::add</text>
</a>
</g>
</g>
<!-- Node2&#45;&gt;Node7 -->
<g id="edge6" class="edge">
<title>Node2&#45;&gt;Node7</title>
<path fill="none" stroke="#191970" d="M114.5009,-38.411C135.6806,-33.3965 161.8022,-27.2119 184.2604,-21.8947"/>
<polygon fill="#191970" stroke="#191970" points="185.3657,-25.2299 194.2903,-19.5201 183.7529,-18.4182 185.3657,-25.2299"/>
</g>
<!-- Node4 -->
<g id="node3" class="node">
<title>Node4</title>
<g id="a_node3"><a xlink:href="namespaceutils.html#a5e5339e32b770a14691521435849c949" target="_top" xlink:title="Mimicking Python&#39;s join. ">
<polygon fill="#ffffff" stroke="#000000" points="342,-76.5 342,-95.5 398,-95.5 398,-76.5 342,-76.5"/>
<text text-anchor="middle" x="370" y="-83.5" font-family="Helvetica,sans-Serif" font-size="10.00" fill="#000000">utils::join</text>
</a>
</g>
</g>
<!-- Node3&#45;&gt;Node4 -->
<g id="edge2" class="edge">
<title>Node3&#45;&gt;Node4</title>
<path fill="none" stroke="#191970" d="M284.5702,-86C300.1002,-86 316.9629,-86 331.5718,-86"/>
<polygon fill="#191970" stroke="#191970" points="331.7597,-89.5001 341.7597,-86 331.7597,-82.5001 331.7597,-89.5001"/>
</g>
<!-- Node5 -->
<g id="node4" class="node">
<title>Node5</title>
<g id="a_node4"><a xlink:href="namespaceutils.html#acee57b54806ee63ddaa30518fed90adb" target="_top" xlink:title="Raise (for Python) and throw (for C++) a runtime error. ">
<polygon fill="#ffffff" stroke="#000000" points="321,-38.5 321,-57.5 419,-57.5 419,-38.5 321,-38.5"/>
<text text-anchor="middle" x="370" y="-45.5" font-family="Helvetica,sans-Serif" font-size="10.00" fill="#000000">utils::runtime_error</text>
</a>
</g>
</g>
<!-- Node3&#45;&gt;Node5 -->
<g id="edge3" class="edge">
<title>Node3&#45;&gt;Node5</title>
<path fill="none" stroke="#191970" d="M268.6924,-76.411C286.1039,-71.5281 307.4715,-65.5357 326.0871,-60.315"/>
<polygon fill="#191970" stroke="#191970" points="327.1351,-63.6562 335.8186,-57.5859 325.2449,-56.9163 327.1351,-63.6562"/>
</g>
<!-- Node6&#45;&gt;Node5 -->
<g id="edge5" class="edge">
<title>Node6&#45;&gt;Node5</title>
<path fill="none" stroke="#191970" d="M285.3407,-48C293.5624,-48 302.1391,-48 310.543,-48"/>
<polygon fill="#191970" stroke="#191970" points="310.6726,-51.5001 320.6726,-48 310.6726,-44.5001 310.6726,-51.5001"/>
</g>
</g>
</svg>
