<?xml version="1.0" encoding="UTF-8" standalone="no"?>
<!DOCTYPE svg PUBLIC "-//W3C//DTD SVG 1.1//EN"
 "http://www.w3.org/Graphics/SVG/1.1/DTD/svg11.dtd">
<!-- Generated by graphviz version 2.40.1 (20161225.0304)
 -->
<!-- Title: AddChildIDs::compute_impl Pages: 1 -->
<svg width="416pt" height="180pt"
 viewBox="0.00 0.00 416.00 180.00" xmlns="http://www.w3.org/2000/svg" xmlns:xlink="http://www.w3.org/1999/xlink">
<g id="graph0" class="graph" transform="scale(1 1) rotate(0) translate(4 176)">
<title>AddChildIDs::compute_impl</title>
<polygon fill="#ffffff" stroke="transparent" points="-4,4 -4,-176 412,-176 412,4 -4,4"/>
<!-- Node2 -->
<g id="node1" class="node">
<title>Node2</title>
<polygon fill="#bfbfbf" stroke="#000000" points="0,-76.5 0,-95.5 137,-95.5 137,-76.5 0,-76.5"/>
<text text-anchor="middle" x="68.5" y="-83.5" font-family="Helvetica,sans-Serif" font-size="10.00" fill="#000000">AddChildIDs::compute_impl</text>
</g>
<!-- Node3 -->
<g id="node2" class="node">
<title>Node3</title>
<g id="a_node2"><a xlink:href="classDataKeys.html#a03517cffe825c983c3582ffb55318a7b" target="_top" xlink:title="Check if this object has required key(s). ">
<polygon fill="#ffffff" stroke="#000000" points="173.5,-38.5 173.5,-57.5 273.5,-57.5 273.5,-38.5 173.5,-38.5"/>
<text text-anchor="middle" x="223.5" y="-45.5" font-family="Helvetica,sans-Serif" font-size="10.00" fill="#000000">DataKeys::required</text>
</a>
</g>
</g>
<!-- Node2&#45;&gt;Node3 -->
<g id="edge1" class="edge">
<title>Node2&#45;&gt;Node3</title>
<path fill="none" stroke="#191970" d="M107.613,-76.411C127.9748,-71.4191 153.0663,-65.2676 174.6887,-59.9666"/>
<polygon fill="#191970" stroke="#191970" points="175.7892,-63.3006 184.6682,-57.5201 174.1224,-56.5019 175.7892,-63.3006"/>
</g>
<!-- Node4 -->
<g id="node3" class="node">
<title>Node4</title>
<g id="a_node3"><a xlink:href="namespaceutils.html#acee57b54806ee63ddaa30518fed90adb" target="_top" xlink:title="Raise (for Python) and throw (for C++) a runtime error. ">
<polygon fill="#ffffff" stroke="#000000" points="310,-114.5 310,-133.5 408,-133.5 408,-114.5 310,-114.5"/>
<text text-anchor="middle" x="359" y="-121.5" font-family="Helvetica,sans-Serif" font-size="10.00" fill="#000000">utils::runtime_error</text>
</a>
</g>
</g>
<!-- Node2&#45;&gt;Node4 -->
<g id="edge5" class="edge">
<title>Node2&#45;&gt;Node4</title>
<path fill="none" stroke="#191970" d="M116.4954,-95.5375C134.205,-98.8423 154.4689,-102.373 173,-105 215.3021,-110.9969 263.2752,-115.8499 299.9047,-119.15"/>
<polygon fill="#191970" stroke="#191970" points="299.6507,-122.6411 309.9211,-120.0393 300.2698,-115.6686 299.6507,-122.6411"/>
</g>
<!-- Node6 -->
<g id="node5" class="node">
<title>Node6</title>
<g id="a_node5"><a xlink:href="classDataKeys.html#a83c539d93200a30f57d0d795c68ee5a2" target="_top" xlink:title="Check if this object has optional key(s). ">
<polygon fill="#ffffff" stroke="#000000" points="174,-76.5 174,-95.5 273,-95.5 273,-76.5 174,-76.5"/>
<text text-anchor="middle" x="223.5" y="-83.5" font-family="Helvetica,sans-Serif" font-size="10.00" fill="#000000">DataKeys::optional</text>
</a>
</g>
</g>
<!-- Node2&#45;&gt;Node6 -->
<g id="edge4" class="edge">
<title>Node2&#45;&gt;Node6</title>
<path fill="none" stroke="#191970" d="M137.3879,-86C146.2211,-86 155.2054,-86 163.8741,-86"/>
<polygon fill="#191970" stroke="#191970" points="163.8775,-89.5001 173.8775,-86 163.8775,-82.5001 163.8775,-89.5001"/>
</g>
<!-- Node7 -->
<g id="node6" class="node">
<title>Node7</title>
<g id="a_node6"><a xlink:href="namespaceutils.html#aeabf3fc19efc71936f355f069d336b5a" target="_top" xlink:title="Create a map from values of selected property in an array Json to corresponding index in the array Js...">
<polygon fill="#ffffff" stroke="#000000" points="173,-152.5 173,-171.5 274,-171.5 274,-152.5 173,-152.5"/>
<text text-anchor="middle" x="223.5" y="-159.5" font-family="Helvetica,sans-Serif" font-size="10.00" fill="#000000">utils::map_to_index</text>
</a>
</g>
</g>
<!-- Node2&#45;&gt;Node7 -->
<g id="edge6" class="edge">
<title>Node2&#45;&gt;Node7</title>
<path fill="none" stroke="#191970" d="M87.7088,-95.6885C108.6325,-106.2115 143.1139,-123.464 173,-138 179.5688,-141.1949 186.6393,-144.5853 193.3489,-147.7801"/>
<polygon fill="#191970" stroke="#191970" points="192.2858,-151.1497 202.8207,-152.2755 195.2872,-144.8258 192.2858,-151.1497"/>
</g>
<!-- Node8 -->
<g id="node7" class="node">
<title>Node8</title>
<g id="a_node7"><a xlink:href="classDataKeys.html#a626d56b99861008c2a63580ed17b809d" target="_top" xlink:title="Add key(s) in an array to _keys. ">
<polygon fill="#ffffff" stroke="#000000" points="183,-.5 183,-19.5 264,-19.5 264,-.5 183,-.5"/>
<text text-anchor="middle" x="223.5" y="-7.5" font-family="Helvetica,sans-Serif" font-size="10.00" fill="#000000">DataKeys::add</text>
</a>
</g>
</g>
<!-- Node2&#45;&gt;Node8 -->
<g id="edge8" class="edge">
<title>Node2&#45;&gt;Node8</title>
<path fill="none" stroke="#191970" d="M84.432,-76.3984C104.6202,-64.4464 140.6848,-43.8048 173,-29 177.3486,-27.0078 181.9715,-25.0543 186.5865,-23.2035"/>
<polygon fill="#191970" stroke="#191970" points="187.8997,-26.4483 195.9573,-19.569 185.3684,-19.922 187.8997,-26.4483"/>
</g>
<!-- Node3&#45;&gt;Node4 -->
<g id="edge2" class="edge">
<title>Node3&#45;&gt;Node4</title>
<path fill="none" stroke="#191970" d="M252.3097,-57.5293C259.5343,-60.2726 267.1701,-63.4851 274,-67 297.0608,-78.8678 321.4585,-95.7335 338.171,-108.0391"/>
<polygon fill="#191970" stroke="#191970" points="336.5027,-111.1618 346.6078,-114.3457 340.6938,-105.5551 336.5027,-111.1618"/>
</g>
<!-- Node5 -->
<g id="node4" class="node">
<title>Node5</title>
<g id="a_node4"><a xlink:href="namespaceutils.html#a5e5339e32b770a14691521435849c949" target="_top" xlink:title="Mimicking Python&#39;s join. ">
<polygon fill="#ffffff" stroke="#000000" points="331,-38.5 331,-57.5 387,-57.5 387,-38.5 331,-38.5"/>
<text text-anchor="middle" x="359" y="-45.5" font-family="Helvetica,sans-Serif" font-size="10.00" fill="#000000">utils::join</text>
</a>
</g>
</g>
<!-- Node3&#45;&gt;Node5 -->
<g id="edge3" class="edge">
<title>Node3&#45;&gt;Node5</title>
<path fill="none" stroke="#191970" d="M273.5702,-48C289.1002,-48 305.9629,-48 320.5718,-48"/>
<polygon fill="#191970" stroke="#191970" points="320.7597,-51.5001 330.7597,-48 320.7597,-44.5001 320.7597,-51.5001"/>
</g>
<!-- Node7&#45;&gt;Node4 -->
<g id="edge7" class="edge">
<title>Node7&#45;&gt;Node4</title>
<path fill="none" stroke="#191970" d="M257.6924,-152.411C275.1039,-147.5281 296.4715,-141.5357 315.0871,-136.315"/>
<polygon fill="#191970" stroke="#191970" points="316.1351,-139.6562 324.8186,-133.5859 314.2449,-132.9163 316.1351,-139.6562"/>
</g>
</g>
</svg>
