<?xml version="1.0" encoding="UTF-8" standalone="no"?>
<!DOCTYPE svg PUBLIC "-//W3C//DTD SVG 1.1//EN"
 "http://www.w3.org/Graphics/SVG/1.1/DTD/svg11.dtd">
<!-- Generated by graphviz version 2.40.1 (20161225.0304)
 -->
<!-- Title: ProData::get_results Pages: 1 -->
<svg width="400pt" height="28pt"
 viewBox="0.00 0.00 400.00 28.00" xmlns="http://www.w3.org/2000/svg" xmlns:xlink="http://www.w3.org/1999/xlink">
<g id="graph0" class="graph" transform="scale(1 1) rotate(0) translate(4 24)">
<title>ProData::get_results</title>
<polygon fill="#ffffff" stroke="transparent" points="-4,4 -4,-24 396,-24 396,4 -4,4"/>
<!-- Node7 -->
<g id="node1" class="node">
<title>Node7</title>
<polygon fill="#bfbfbf" stroke="#000000" points="0,-.5 0,-19.5 106,-19.5 106,-.5 0,-.5"/>
<text text-anchor="middle" x="53" y="-7.5" font-family="Helvetica,sans-Serif" font-size="10.00" fill="#000000">ProData::get_results</text>
</g>
<!-- Node8 -->
<g id="node2" class="node">
<title>Node8</title>
<g id="a_node2"><a xlink:href="namespacepybind.html#a6cb2529ac748a66776d5a1215ccec87d" target="_top" xlink:title="Bind ProData class to Python. ">
<polygon fill="#ffffff" stroke="#000000" points="142,-.5 142,-19.5 246,-19.5 246,-.5 142,-.5"/>
<text text-anchor="middle" x="194" y="-7.5" font-family="Helvetica,sans-Serif" font-size="10.00" fill="#000000">pybind::py_pro_data</text>
</a>
</g>
</g>
<!-- Node7&#45;&gt;Node8 -->
<g id="edge1" class="edge">
<title>Node7&#45;&gt;Node8</title>
<path fill="none" stroke="#191970" d="M116.4467,-10C124.8417,-10 133.3713,-10 141.5532,-10"/>
<polygon fill="#191970" stroke="#191970" points="116.3061,-6.5001 106.3061,-10 116.306,-13.5001 116.3061,-6.5001"/>
</g>
<!-- Node9 -->
<g id="node3" class="node">
<title>Node9</title>
<g id="a_node3"><a xlink:href="pybind_8h.html#a4714c4a855ebb82892410d5254e9ccdc" target="_top" xlink:title="Macro for generating Python module named _ppap4lmp. ">
<polygon fill="#ffffff" stroke="#000000" points="282,-.5 282,-19.5 392,-19.5 392,-.5 282,-.5"/>
<text text-anchor="middle" x="337" y="-7.5" font-family="Helvetica,sans-Serif" font-size="10.00" fill="#000000">PYBIND11_MODULE</text>
</a>
</g>
</g>
<!-- Node8&#45;&gt;Node9 -->
<g id="edge2" class="edge">
<title>Node8&#45;&gt;Node9</title>
<path fill="none" stroke="#191970" d="M256.2958,-10C264.8104,-10 273.5022,-10 281.8771,-10"/>
<polygon fill="#191970" stroke="#191970" points="256.0308,-6.5001 246.0308,-10 256.0308,-13.5001 256.0308,-6.5001"/>
</g>
</g>
</svg>
