<?xml version="1.0" encoding="UTF-8" standalone="no"?>
<!DOCTYPE svg PUBLIC "-//W3C//DTD SVG 1.1//EN"
 "http://www.w3.org/Graphics/SVG/1.1/DTD/svg11.dtd">
<!-- Generated by graphviz version 2.40.1 (20161225.0304)
 -->
<!-- Title: AddSpecialBonds::compute_impl Pages: 1 -->
<svg width="304pt" height="66pt"
 viewBox="0.00 0.00 304.00 66.00" xmlns="http://www.w3.org/2000/svg" xmlns:xlink="http://www.w3.org/1999/xlink">
<g id="graph0" class="graph" transform="scale(1 1) rotate(0) translate(4 62)">
<title>AddSpecialBonds::compute_impl</title>
<polygon fill="#ffffff" stroke="transparent" points="-4,4 -4,-62 300,-62 300,4 -4,4"/>
<!-- Node4 -->
<g id="node1" class="node">
<title>Node4</title>
<polygon fill="#bfbfbf" stroke="#000000" points="0,-19.5 0,-38.5 161,-38.5 161,-19.5 0,-19.5"/>
<text text-anchor="middle" x="80.5" y="-26.5" font-family="Helvetica,sans-Serif" font-size="10.00" fill="#000000">AddSpecialBonds::compute_impl</text>
</g>
<!-- Node5 -->
<g id="node2" class="node">
<title>Node5</title>
<g id="a_node2"><a xlink:href="classDataKeys.html#a83c539d93200a30f57d0d795c68ee5a2" target="_top" xlink:title="Check if this object has optional key(s). ">
<polygon fill="#ffffff" stroke="#000000" points="197,-38.5 197,-57.5 296,-57.5 296,-38.5 197,-38.5"/>
<text text-anchor="middle" x="246.5" y="-45.5" font-family="Helvetica,sans-Serif" font-size="10.00" fill="#000000">DataKeys::optional</text>
</a>
</g>
</g>
<!-- Node4&#45;&gt;Node5 -->
<g id="edge1" class="edge">
<title>Node4&#45;&gt;Node5</title>
<path fill="none" stroke="#191970" d="M161.0687,-38.2217C169.7604,-39.2166 178.4877,-40.2155 186.8689,-41.1748"/>
<polygon fill="#191970" stroke="#191970" points="186.5616,-44.6624 196.8948,-42.3223 187.3577,-37.7078 186.5616,-44.6624"/>
</g>
<!-- Node6 -->
<g id="node3" class="node">
<title>Node6</title>
<g id="a_node3"><a xlink:href="classDataKeys.html#a626d56b99861008c2a63580ed17b809d" target="_top" xlink:title="Add a key or keys in an array to the _keys. ">
<polygon fill="#ffffff" stroke="#000000" points="206,-.5 206,-19.5 287,-19.5 287,-.5 206,-.5"/>
<text text-anchor="middle" x="246.5" y="-7.5" font-family="Helvetica,sans-Serif" font-size="10.00" fill="#000000">DataKeys::add</text>
</a>
</g>
</g>
<!-- Node4&#45;&gt;Node6 -->
<g id="edge2" class="edge">
<title>Node4&#45;&gt;Node6</title>
<path fill="none" stroke="#191970" d="M161.0687,-19.7783C172.8375,-18.4313 184.6715,-17.0768 195.6233,-15.8232"/>
<polygon fill="#191970" stroke="#191970" points="196.285,-19.2704 205.8221,-14.6559 195.4889,-12.3158 196.285,-19.2704"/>
</g>
</g>
</svg>
