<?xml version="1.0" encoding="UTF-8" standalone="no"?>
<!DOCTYPE svg PUBLIC "-//W3C//DTD SVG 1.1//EN"
 "http://www.w3.org/Graphics/SVG/1.1/DTD/svg11.dtd">
<!-- Generated by graphviz version 2.40.1 (20161225.0304)
 -->
<!-- Title: DataKeys::add Pages: 1 -->
<svg width="288pt" height="608pt"
 viewBox="0.00 0.00 288.00 608.00" xmlns="http://www.w3.org/2000/svg" xmlns:xlink="http://www.w3.org/1999/xlink">
<g id="graph0" class="graph" transform="scale(1 1) rotate(0) translate(4 604)">
<title>DataKeys::add</title>
<polygon fill="#ffffff" stroke="transparent" points="-4,4 -4,-604 284,-604 284,4 -4,4"/>
<!-- Node1 -->
<g id="node1" class="node">
<title>Node1</title>
<polygon fill="#bfbfbf" stroke="#000000" points="0,-284.5 0,-303.5 81,-303.5 81,-284.5 0,-284.5"/>
<text text-anchor="middle" x="40.5" y="-291.5" font-family="Helvetica,sans-Serif" font-size="10.00" fill="#000000">DataKeys::add</text>
</g>
<!-- Node2 -->
<g id="node2" class="node">
<title>Node2</title>
<g id="a_node2"><a xlink:href="classAddBondLength.html#a19665cbd2bd195ee9717d084bb669a8f" target="_top" xlink:title="This method overrides Updater::compute_impl. ">
<polygon fill="#ffffff" stroke="#000000" points="122.5,-580.5 122.5,-599.5 274.5,-599.5 274.5,-580.5 122.5,-580.5"/>
<text text-anchor="middle" x="198.5" y="-587.5" font-family="Helvetica,sans-Serif" font-size="10.00" fill="#000000">AddBondLength::compute_impl</text>
</a>
</g>
</g>
<!-- Node1&#45;&gt;Node2 -->
<g id="edge1" class="edge">
<title>Node1&#45;&gt;Node2</title>
<path fill="none" stroke="#191970" d="M43.3054,-313.7189C51.8223,-370.834 79.1328,-534.6333 117,-571 120.982,-574.8242 125.5775,-577.9317 130.5168,-580.4511"/>
<polygon fill="#191970" stroke="#191970" points="46.7635,-313.177 41.8551,-303.7877 39.837,-314.1886 46.7635,-313.177"/>
</g>
<!-- Node3 -->
<g id="node3" class="node">
<title>Node3</title>
<g id="a_node3"><a xlink:href="classAddChildIDs.html#a44a0b778c9c4b17c9ce9051b990af73d" target="_top" xlink:title="This method overrides Updater::compute_impl. ">
<polygon fill="#ffffff" stroke="#000000" points="130,-542.5 130,-561.5 267,-561.5 267,-542.5 130,-542.5"/>
<text text-anchor="middle" x="198.5" y="-549.5" font-family="Helvetica,sans-Serif" font-size="10.00" fill="#000000">AddChildIDs::compute_impl</text>
</a>
</g>
</g>
<!-- Node1&#45;&gt;Node3 -->
<g id="edge2" class="edge">
<title>Node1&#45;&gt;Node3</title>
<path fill="none" stroke="#191970" d="M44.1498,-313.3403C54.2111,-364.6476 83.8081,-502.3854 117,-533 121.165,-536.8416 125.9526,-539.9537 131.0762,-542.4694"/>
<polygon fill="#191970" stroke="#191970" points="47.5862,-312.6756 42.2569,-303.5188 40.7127,-314.0004 47.5862,-312.6756"/>
</g>
<!-- Node4 -->
<g id="node4" class="node">
<title>Node4</title>
<g id="a_node4"><a xlink:href="classAddChildPositions.html#ab200c619009c1db1deefb92c68010f9a" target="_top" xlink:title="This method overrides Updater::compute_impl. ">
<polygon fill="#ffffff" stroke="#000000" points="147.5,-493 147.5,-523 249.5,-523 249.5,-493 147.5,-493"/>
<text text-anchor="start" x="155.5" y="-511" font-family="Helvetica,sans-Serif" font-size="10.00" fill="#000000">AddChildPositions::</text>
<text text-anchor="middle" x="198.5" y="-500" font-family="Helvetica,sans-Serif" font-size="10.00" fill="#000000">compute_impl</text>
</a>
</g>
</g>
<!-- Node1&#45;&gt;Node4 -->
<g id="edge3" class="edge">
<title>Node1&#45;&gt;Node4</title>
<path fill="none" stroke="#191970" d="M42.8918,-313.8034C48.5717,-352.1042 66.4115,-436.6303 117,-483 125.51,-490.8003 136.4002,-496.1682 147.4302,-499.8617"/>
<polygon fill="#191970" stroke="#191970" points="46.3599,-313.3313 41.5454,-303.8935 39.4236,-314.2737 46.3599,-313.3313"/>
</g>
<!-- Node5 -->
<g id="node5" class="node">
<title>Node5</title>
<g id="a_node5"><a xlink:href="classAddCoMPosition.html#a8769c07c61840444ad80bf7e20acdbf2" target="_top" xlink:title="This method overrides Updater::compute_impl. ">
<polygon fill="#ffffff" stroke="#000000" points="120.5,-454.5 120.5,-473.5 276.5,-473.5 276.5,-454.5 120.5,-454.5"/>
<text text-anchor="middle" x="198.5" y="-461.5" font-family="Helvetica,sans-Serif" font-size="10.00" fill="#000000">AddCoMPosition::compute_impl</text>
</a>
</g>
</g>
<!-- Node1&#45;&gt;Node5 -->
<g id="edge4" class="edge">
<title>Node1&#45;&gt;Node5</title>
<path fill="none" stroke="#191970" d="M44.7608,-313.6235C52.8869,-346.1682 73.7803,-411.0779 117,-445 121.9144,-448.8572 127.4773,-451.9547 133.3321,-454.4388"/>
<polygon fill="#191970" stroke="#191970" points="48.0931,-312.5029 42.4032,-303.5656 41.2778,-314.1005 48.0931,-312.5029"/>
</g>
<!-- Node6 -->
<g id="node6" class="node">
<title>Node6</title>
<g id="a_node6"><a xlink:href="classAddGyrationRadius.html#a53d9c62c9dbf976b815cb715a9f18a36" target="_top" xlink:title="This method overrides Updater::compute_impl. ">
<polygon fill="#ffffff" stroke="#000000" points="145,-405 145,-435 252,-435 252,-405 145,-405"/>
<text text-anchor="start" x="153" y="-423" font-family="Helvetica,sans-Serif" font-size="10.00" fill="#000000">AddGyrationRadius::</text>
<text text-anchor="middle" x="198.5" y="-412" font-family="Helvetica,sans-Serif" font-size="10.00" fill="#000000">compute_impl</text>
</a>
</g>
</g>
<!-- Node1&#45;&gt;Node6 -->
<g id="edge5" class="edge">
<title>Node1&#45;&gt;Node6</title>
<path fill="none" stroke="#191970" d="M49.8734,-312.6413C62.2267,-335.3562 86.0623,-373.3726 117,-395 125.3697,-400.851 135.1483,-405.3641 144.9684,-408.8354"/>
<polygon fill="#191970" stroke="#191970" points="52.907,-310.89 45.1578,-303.665 46.7101,-314.1455 52.907,-310.89"/>
</g>
<!-- Node7 -->
<g id="node7" class="node">
<title>Node7</title>
<g id="a_node7"><a xlink:href="classAddInertiaMoment.html#a50d3efa11e6c2a8d12c397224679d259" target="_top" xlink:title="This method overrides Updater::compute_impl. ">
<polygon fill="#ffffff" stroke="#000000" points="117,-366.5 117,-385.5 280,-385.5 280,-366.5 117,-366.5"/>
<text text-anchor="middle" x="198.5" y="-373.5" font-family="Helvetica,sans-Serif" font-size="10.00" fill="#000000">AddInertiaMoment::compute_impl</text>
</a>
</g>
</g>
<!-- Node1&#45;&gt;Node7 -->
<g id="edge6" class="edge">
<title>Node1&#45;&gt;Node7</title>
<path fill="none" stroke="#191970" d="M56.5458,-311.0434C71.0185,-325.4092 93.5739,-345.4233 117,-357 124.815,-360.862 133.4437,-363.9574 142.0753,-366.4334"/>
<polygon fill="#191970" stroke="#191970" points="58.8814,-308.4261 49.3827,-303.7329 53.8815,-313.3252 58.8814,-308.4261"/>
</g>
<!-- Node8 -->
<g id="node8" class="node">
<title>Node8</title>
<g id="a_node8"><a xlink:href="classAddMap.html#a43e6a1d41af46c02ac2ad813075466cf" target="_top" xlink:title="This method overrides Updater::compute_impl. ">
<polygon fill="#ffffff" stroke="#000000" points="139,-328.5 139,-347.5 258,-347.5 258,-328.5 139,-328.5"/>
<text text-anchor="middle" x="198.5" y="-335.5" font-family="Helvetica,sans-Serif" font-size="10.00" fill="#000000">AddMap::compute_impl</text>
</a>
</g>
</g>
<!-- Node1&#45;&gt;Node8 -->
<g id="edge7" class="edge">
<title>Node1&#45;&gt;Node8</title>
<path fill="none" stroke="#191970" d="M77.5525,-306.8259C90.0163,-310.9481 104.0455,-315.3806 117,-319 129.0338,-322.3622 142.18,-325.6096 154.3332,-328.44"/>
<polygon fill="#191970" stroke="#191970" points="78.5367,-303.4645 67.9428,-303.6079 76.3139,-310.1022 78.5367,-303.4645"/>
</g>
<!-- Node9 -->
<g id="node9" class="node">
<title>Node9</title>
<g id="a_node9"><a xlink:href="classAddMolecularOrientation.html#a886b802585d1dfa299dd9f42e3eef29e" target="_top" xlink:title="This method overrides Updater::compute_impl. ">
<polygon fill="#ffffff" stroke="#000000" points="137,-279 137,-309 260,-309 260,-279 137,-279"/>
<text text-anchor="start" x="145" y="-297" font-family="Helvetica,sans-Serif" font-size="10.00" fill="#000000">AddMolecularOrientation</text>
<text text-anchor="middle" x="198.5" y="-286" font-family="Helvetica,sans-Serif" font-size="10.00" fill="#000000">::compute_impl</text>
</a>
</g>
</g>
<!-- Node1&#45;&gt;Node9 -->
<g id="edge8" class="edge">
<title>Node1&#45;&gt;Node9</title>
<path fill="none" stroke="#191970" d="M91.421,-294C105.868,-294 121.7553,-294 136.7679,-294"/>
<polygon fill="#191970" stroke="#191970" points="91.189,-290.5001 81.1889,-294 91.1889,-297.5001 91.189,-290.5001"/>
</g>
<!-- Node10 -->
<g id="node10" class="node">
<title>Node10</title>
<g id="a_node10"><a xlink:href="classAddRename.html#a34e997ee2632a7ef703810ebfbf1aa8d" target="_top" xlink:title="This method overrides Updater::compute_impl. ">
<polygon fill="#ffffff" stroke="#000000" points="130,-240.5 130,-259.5 267,-259.5 267,-240.5 130,-240.5"/>
<text text-anchor="middle" x="198.5" y="-247.5" font-family="Helvetica,sans-Serif" font-size="10.00" fill="#000000">AddRename::compute_impl</text>
</a>
</g>
</g>
<!-- Node1&#45;&gt;Node10 -->
<g id="edge9" class="edge">
<title>Node1&#45;&gt;Node10</title>
<path fill="none" stroke="#191970" d="M79.202,-281.335C91.2626,-277.5293 104.6408,-273.4514 117,-270 130.05,-266.3557 144.3741,-262.7197 157.3245,-259.567"/>
<polygon fill="#191970" stroke="#191970" points="77.8976,-278.0771 69.4322,-284.4479 80.0228,-284.7467 77.8976,-278.0771"/>
</g>
<!-- Node11 -->
<g id="node11" class="node">
<title>Node11</title>
<g id="a_node11"><a xlink:href="classAddSpecialBonds.html#ac8f026ec0d609bf9bbc98d5c7899a13b" target="_top" xlink:title="This method overrides Updater::compute_impl. ">
<polygon fill="#ffffff" stroke="#000000" points="118,-202.5 118,-221.5 279,-221.5 279,-202.5 118,-202.5"/>
<text text-anchor="middle" x="198.5" y="-209.5" font-family="Helvetica,sans-Serif" font-size="10.00" fill="#000000">AddSpecialBonds::compute_impl</text>
</a>
</g>
</g>
<!-- Node1&#45;&gt;Node11 -->
<g id="edge10" class="edge">
<title>Node1&#45;&gt;Node11</title>
<path fill="none" stroke="#191970" d="M56.5458,-276.9566C71.0185,-262.5908 93.5739,-242.5767 117,-231 124.815,-227.138 133.4437,-224.0426 142.0753,-221.5666"/>
<polygon fill="#191970" stroke="#191970" points="53.8815,-274.6748 49.3827,-284.2671 58.8814,-279.5739 53.8815,-274.6748"/>
</g>
<!-- Node12 -->
<g id="node12" class="node">
<title>Node12</title>
<g id="a_node12"><a xlink:href="classAddWrappedPosition.html#af5ea4e6203dc8db97b8a8f73b2d83822" target="_top" xlink:title="This method overrides Updater::compute_impl. ">
<polygon fill="#ffffff" stroke="#000000" points="145,-153 145,-183 252,-183 252,-153 145,-153"/>
<text text-anchor="start" x="153" y="-171" font-family="Helvetica,sans-Serif" font-size="10.00" fill="#000000">AddWrappedPosition</text>
<text text-anchor="middle" x="198.5" y="-160" font-family="Helvetica,sans-Serif" font-size="10.00" fill="#000000">::compute_impl</text>
</a>
</g>
</g>
<!-- Node1&#45;&gt;Node12 -->
<g id="edge11" class="edge">
<title>Node1&#45;&gt;Node12</title>
<path fill="none" stroke="#191970" d="M49.8734,-275.3587C62.2267,-252.6438 86.0623,-214.6274 117,-193 125.3697,-187.149 135.1483,-182.6359 144.9684,-179.1646"/>
<polygon fill="#191970" stroke="#191970" points="46.7101,-273.8545 45.1578,-284.335 52.907,-277.11 46.7101,-273.8545"/>
</g>
<!-- Node13 -->
<g id="node13" class="node">
<title>Node13</title>
<g id="a_node13"><a xlink:href="classStaBeads.html#a28dd7a99528b0c892dc3ab85b131ed85" target="_top" xlink:title="This method overrides Updater::compute_impl. ">
<polygon fill="#ffffff" stroke="#000000" points="135.5,-114.5 135.5,-133.5 261.5,-133.5 261.5,-114.5 135.5,-114.5"/>
<text text-anchor="middle" x="198.5" y="-121.5" font-family="Helvetica,sans-Serif" font-size="10.00" fill="#000000">StaBeads::compute_impl</text>
</a>
</g>
</g>
<!-- Node1&#45;&gt;Node13 -->
<g id="edge12" class="edge">
<title>Node1&#45;&gt;Node13</title>
<path fill="none" stroke="#191970" d="M44.9626,-274.0931C53.2932,-241.6901 74.3639,-177.7725 117,-144 122.4818,-139.6578 128.7731,-136.2408 135.3777,-133.5547"/>
<polygon fill="#191970" stroke="#191970" points="41.4819,-273.5966 42.5328,-284.1391 48.2857,-275.2422 41.4819,-273.5966"/>
</g>
<!-- Node14 -->
<g id="node14" class="node">
<title>Node14</title>
<g id="a_node14"><a xlink:href="classStaDumpAtoms.html#a258c7068bcc6b3d071f0acff027e2561" target="_top" xlink:title="This method overrides Updater::compute_impl. ">
<polygon fill="#ffffff" stroke="#000000" points="122.5,-76.5 122.5,-95.5 274.5,-95.5 274.5,-76.5 122.5,-76.5"/>
<text text-anchor="middle" x="198.5" y="-83.5" font-family="Helvetica,sans-Serif" font-size="10.00" fill="#000000">StaDumpAtoms::compute_impl</text>
</a>
</g>
</g>
<!-- Node1&#45;&gt;Node14 -->
<g id="edge13" class="edge">
<title>Node1&#45;&gt;Node14</title>
<path fill="none" stroke="#191970" d="M42.5436,-274.4292C47.655,-235.8435 64.6063,-149.817 117,-105 121.5266,-101.128 126.6938,-98.0088 132.1803,-95.5008"/>
<polygon fill="#191970" stroke="#191970" points="39.0654,-274.0389 41.3533,-284.3838 46.0159,-274.8701 39.0654,-274.0389"/>
</g>
<!-- Node15 -->
<g id="node15" class="node">
<title>Node15</title>
<g id="a_node15"><a xlink:href="classStaDumpBox.html#af25a2a80d9607d892b78d78cd725692e" target="_top" xlink:title="This method overrides Updater::compute_impl. ">
<polygon fill="#ffffff" stroke="#000000" points="128,-38.5 128,-57.5 269,-57.5 269,-38.5 128,-38.5"/>
<text text-anchor="middle" x="198.5" y="-45.5" font-family="Helvetica,sans-Serif" font-size="10.00" fill="#000000">StaDumpBox::compute_impl</text>
</a>
</g>
</g>
<!-- Node1&#45;&gt;Node15 -->
<g id="edge14" class="edge">
<title>Node1&#45;&gt;Node15</title>
<path fill="none" stroke="#191970" d="M44.5647,-274.3339C55.2275,-224.6014 85.3704,-95.7297 117,-67 121.1943,-63.1903 126.0021,-60.1004 131.1392,-57.5994"/>
<polygon fill="#191970" stroke="#191970" points="41.0744,-273.9234 42.4361,-284.4303 47.9238,-275.3675 41.0744,-273.9234"/>
</g>
<!-- Node16 -->
<g id="node16" class="node">
<title>Node16</title>
<g id="a_node16"><a xlink:href="classStaMolecules.html#a6e43cdfdce04105ab20a5f93584aabec" target="_top" xlink:title="This method overrides Updater::compute_impl. ">
<polygon fill="#ffffff" stroke="#000000" points="127,-.5 127,-19.5 270,-19.5 270,-.5 127,-.5"/>
<text text-anchor="middle" x="198.5" y="-7.5" font-family="Helvetica,sans-Serif" font-size="10.00" fill="#000000">StaMolecules::compute_impl</text>
</a>
</g>
</g>
<!-- Node1&#45;&gt;Node16 -->
<g id="edge15" class="edge">
<title>Node1&#45;&gt;Node16</title>
<path fill="none" stroke="#191970" d="M43.5462,-274.4143C52.5346,-219.1122 80.6105,-63.5448 117,-29 121.004,-25.1989 125.6151,-22.1077 130.5648,-19.5992"/>
<polygon fill="#191970" stroke="#191970" points="40.0813,-273.9179 41.9638,-284.3441 46.994,-275.0196 40.0813,-273.9179"/>
</g>
</g>
</svg>
