<?xml version="1.0" encoding="UTF-8" standalone="no"?>
<!DOCTYPE svg PUBLIC "-//W3C//DTD SVG 1.1//EN"
 "http://www.w3.org/Graphics/SVG/1.1/DTD/svg11.dtd">
<!-- Generated by graphviz version 2.40.1 (20161225.0304)
 -->
<!-- Title: Generator Pages: 1 -->
<svg width="470pt" height="606pt"
 viewBox="0.00 0.00 470.00 606.00" xmlns="http://www.w3.org/2000/svg" xmlns:xlink="http://www.w3.org/1999/xlink">
<g id="graph0" class="graph" transform="scale(1 1) rotate(0) translate(4 602)">
<title>Generator</title>
<polygon fill="#ffffff" stroke="transparent" points="-4,4 -4,-602 466,-602 466,4 -4,4"/>
<!-- Node0 -->
<g id="node1" class="node">
<title>Node0</title>
<polygon fill="#bfbfbf" stroke="#000000" points="160,-441.5 160,-597.5 302,-597.5 302,-441.5 160,-441.5"/>
<text text-anchor="middle" x="231" y="-585.5" font-family="Helvetica,sans-Serif" font-size="10.00" fill="#000000">Generator</text>
<polyline fill="none" stroke="#000000" points="160,-578.5 302,-578.5 "/>
<text text-anchor="start" x="168" y="-566.5" font-family="Helvetica,sans-Serif" font-size="10.00" fill="#000000"># update_chain</text>
<polyline fill="none" stroke="#000000" points="160,-559.5 302,-559.5 "/>
<text text-anchor="start" x="168" y="-547.5" font-family="Helvetica,sans-Serif" font-size="10.00" fill="#000000">+ Generator()</text>
<text text-anchor="start" x="168" y="-536.5" font-family="Helvetica,sans-Serif" font-size="10.00" fill="#000000">+ ~Generator()</text>
<text text-anchor="start" x="168" y="-525.5" font-family="Helvetica,sans-Serif" font-size="10.00" fill="#000000">+ get_element()</text>
<text text-anchor="start" x="168" y="-514.5" font-family="Helvetica,sans-Serif" font-size="10.00" fill="#000000">+ get_generator()</text>
<text text-anchor="start" x="168" y="-503.5" font-family="Helvetica,sans-Serif" font-size="10.00" fill="#000000">+ set_checking_classname()</text>
<text text-anchor="start" x="168" y="-492.5" font-family="Helvetica,sans-Serif" font-size="10.00" fill="#000000">+ appoint()</text>
<text text-anchor="start" x="168" y="-481.5" font-family="Helvetica,sans-Serif" font-size="10.00" fill="#000000">+ hello()</text>
<text text-anchor="start" x="168" y="-470.5" font-family="Helvetica,sans-Serif" font-size="10.00" fill="#000000">+ goodbye()</text>
<text text-anchor="start" x="168" y="-459.5" font-family="Helvetica,sans-Serif" font-size="10.00" fill="#000000">+ get_update_chain()</text>
<text text-anchor="start" x="168" y="-448.5" font-family="Helvetica,sans-Serif" font-size="10.00" fill="#000000"># merge_update_chain()</text>
</g>
<!-- Node1 -->
<g id="node2" class="node">
<title>Node1</title>
<g id="a_node2"><a xlink:href="classElement.html" target="_top" xlink:title="Element inherits Generator class and contains data element (or entity) as a Json object. ">
<polygon fill="#ffffff" stroke="#000000" points="0,-127.5 0,-404.5 142,-404.5 142,-127.5 0,-127.5"/>
<text text-anchor="middle" x="71" y="-392.5" font-family="Helvetica,sans-Serif" font-size="10.00" fill="#000000">Element</text>
<polyline fill="none" stroke="#000000" points="0,-385.5 142,-385.5 "/>
<text text-anchor="start" x="8" y="-373.5" font-family="Helvetica,sans-Serif" font-size="10.00" fill="#000000">&#45; n_remain</text>
<text text-anchor="start" x="8" y="-362.5" font-family="Helvetica,sans-Serif" font-size="10.00" fill="#000000">&#45; dataid</text>
<text text-anchor="start" x="8" y="-351.5" font-family="Helvetica,sans-Serif" font-size="10.00" fill="#000000">&#45; data</text>
<text text-anchor="start" x="8" y="-340.5" font-family="Helvetica,sans-Serif" font-size="10.00" fill="#000000">&#45; datakeys</text>
<text text-anchor="start" x="8" y="-329.5" font-family="Helvetica,sans-Serif" font-size="10.00" fill="#000000">&#45; checking_classname</text>
<text text-anchor="start" x="8" y="-318.5" font-family="Helvetica,sans-Serif" font-size="10.00" fill="#000000">&#45; omp_lock</text>
<text text-anchor="start" x="8" y="-307.5" font-family="Helvetica,sans-Serif" font-size="10.00" fill="#000000">&#45; instance_count</text>
<polyline fill="none" stroke="#000000" points="0,-300.5 142,-300.5 "/>
<text text-anchor="start" x="8" y="-288.5" font-family="Helvetica,sans-Serif" font-size="10.00" fill="#000000">+ Element()</text>
<text text-anchor="start" x="8" y="-277.5" font-family="Helvetica,sans-Serif" font-size="10.00" fill="#000000">+ ~Element()</text>
<text text-anchor="start" x="8" y="-266.5" font-family="Helvetica,sans-Serif" font-size="10.00" fill="#000000">+ get_element()</text>
<text text-anchor="start" x="8" y="-255.5" font-family="Helvetica,sans-Serif" font-size="10.00" fill="#000000">+ get_generator()</text>
<text text-anchor="start" x="8" y="-244.5" font-family="Helvetica,sans-Serif" font-size="10.00" fill="#000000">+ set_checking_classname()</text>
<text text-anchor="start" x="8" y="-233.5" font-family="Helvetica,sans-Serif" font-size="10.00" fill="#000000">+ append_updater()</text>
<text text-anchor="start" x="8" y="-222.5" font-family="Helvetica,sans-Serif" font-size="10.00" fill="#000000">+ get_data()</text>
<text text-anchor="start" x="8" y="-211.5" font-family="Helvetica,sans-Serif" font-size="10.00" fill="#000000">+ get_mutable_data()</text>
<text text-anchor="start" x="8" y="-200.5" font-family="Helvetica,sans-Serif" font-size="10.00" fill="#000000">+ get_data()</text>
<text text-anchor="start" x="8" y="-189.5" font-family="Helvetica,sans-Serif" font-size="10.00" fill="#000000">+ get_keys()</text>
<text text-anchor="start" x="8" y="-178.5" font-family="Helvetica,sans-Serif" font-size="10.00" fill="#000000">and 11 more...</text>
<text text-anchor="start" x="8" y="-167.5" font-family="Helvetica,sans-Serif" font-size="10.00" fill="#000000">&#45; increment_remain()</text>
<text text-anchor="start" x="8" y="-156.5" font-family="Helvetica,sans-Serif" font-size="10.00" fill="#000000">&#45; decrement_remain()</text>
<text text-anchor="start" x="8" y="-145.5" font-family="Helvetica,sans-Serif" font-size="10.00" fill="#000000">&#45; update_data()</text>
<text text-anchor="start" x="8" y="-134.5" font-family="Helvetica,sans-Serif" font-size="10.00" fill="#000000">&#45; init_for_python()</text>
</a>
</g>
</g>
<!-- Node0&#45;&gt;Node1 -->
<g id="edge1" class="edge">
<title>Node0&#45;&gt;Node1</title>
<path fill="none" stroke="#191970" d="M169.2223,-432.768C162.9538,-423.4698 156.7751,-414.0889 151,-405 148.0882,-400.4174 145.1558,-395.7264 142.2229,-390.9701"/>
<polygon fill="none" stroke="#191970" points="166.4832,-434.9648 174.9953,-441.2731 172.275,-431.0335 166.4832,-434.9648"/>
</g>
<!-- Node3 -->
<g id="node4" class="node">
<title>Node3</title>
<g id="a_node4"><a xlink:href="classGenDict.html" target="_top" xlink:title="GenDict is a dictionary (or map) of Generator objects. ">
<polygon fill="#ffffff" stroke="#000000" points="160,-210 160,-322 302,-322 302,-210 160,-210"/>
<text text-anchor="middle" x="231" y="-310" font-family="Helvetica,sans-Serif" font-size="10.00" fill="#000000">GenDict</text>
<polyline fill="none" stroke="#000000" points="160,-303 302,-303 "/>
<text text-anchor="start" x="168" y="-291" font-family="Helvetica,sans-Serif" font-size="10.00" fill="#000000">&#45; generator_dict</text>
<polyline fill="none" stroke="#000000" points="160,-284 302,-284 "/>
<text text-anchor="start" x="168" y="-272" font-family="Helvetica,sans-Serif" font-size="10.00" fill="#000000">+ GenDict()</text>
<text text-anchor="start" x="168" y="-261" font-family="Helvetica,sans-Serif" font-size="10.00" fill="#000000">+ ~GenDict()</text>
<text text-anchor="start" x="168" y="-250" font-family="Helvetica,sans-Serif" font-size="10.00" fill="#000000">+ get_element()</text>
<text text-anchor="start" x="168" y="-239" font-family="Helvetica,sans-Serif" font-size="10.00" fill="#000000">+ get_generator()</text>
<text text-anchor="start" x="168" y="-228" font-family="Helvetica,sans-Serif" font-size="10.00" fill="#000000">+ set_checking_classname()</text>
<text text-anchor="start" x="168" y="-217" font-family="Helvetica,sans-Serif" font-size="10.00" fill="#000000">+ get_keys()</text>
</a>
</g>
</g>
<!-- Node0&#45;&gt;Node3 -->
<g id="edge3" class="edge">
<title>Node0&#45;&gt;Node3</title>
<path fill="none" stroke="#191970" d="M231,-431.2886C231,-395.058 231,-354.1848 231,-322.148"/>
<polygon fill="none" stroke="#191970" points="227.5001,-431.3731 231,-441.3732 234.5001,-431.3732 227.5001,-431.3731"/>
</g>
<!-- Node4 -->
<g id="node5" class="node">
<title>Node4</title>
<g id="a_node5"><a xlink:href="classGenList.html" target="_top" xlink:title="GenList is a list (or vector) of Generator objects. ">
<polygon fill="#ffffff" stroke="#000000" points="320,-210 320,-322 462,-322 462,-210 320,-210"/>
<text text-anchor="middle" x="391" y="-310" font-family="Helvetica,sans-Serif" font-size="10.00" fill="#000000">GenList</text>
<polyline fill="none" stroke="#000000" points="320,-303 462,-303 "/>
<text text-anchor="start" x="328" y="-291" font-family="Helvetica,sans-Serif" font-size="10.00" fill="#000000">&#45; generator_list</text>
<polyline fill="none" stroke="#000000" points="320,-284 462,-284 "/>
<text text-anchor="start" x="328" y="-272" font-family="Helvetica,sans-Serif" font-size="10.00" fill="#000000">+ GenList()</text>
<text text-anchor="start" x="328" y="-261" font-family="Helvetica,sans-Serif" font-size="10.00" fill="#000000">+ ~GenList()</text>
<text text-anchor="start" x="328" y="-250" font-family="Helvetica,sans-Serif" font-size="10.00" fill="#000000">+ get_element()</text>
<text text-anchor="start" x="328" y="-239" font-family="Helvetica,sans-Serif" font-size="10.00" fill="#000000">+ get_generator()</text>
<text text-anchor="start" x="328" y="-228" font-family="Helvetica,sans-Serif" font-size="10.00" fill="#000000">+ set_checking_classname()</text>
<text text-anchor="start" x="328" y="-217" font-family="Helvetica,sans-Serif" font-size="10.00" fill="#000000">+ get_length()</text>
</a>
</g>
</g>
<!-- Node0&#45;&gt;Node4 -->
<g id="edge4" class="edge">
<title>Node0&#45;&gt;Node4</title>
<path fill="none" stroke="#191970" d="M292.7777,-432.768C299.0462,-423.4698 305.2249,-414.0889 311,-405 328.0228,-378.2093 345.7489,-347.7149 360.1763,-322.1281"/>
<polygon fill="none" stroke="#191970" points="289.725,-431.0335 287.0047,-441.2731 295.5168,-434.9648 289.725,-431.0335"/>
</g>
<!-- Node2 -->
<g id="node3" class="node">
<title>Node2</title>
<g id="a_node3"><a xlink:href="classPyElement.html" target="_top" xlink:title="Trampoline class to bind Element class to Python. ">
<polygon fill="#ffffff" stroke="#000000" points="0,-.5 0,-90.5 142,-90.5 142,-.5 0,-.5"/>
<text text-anchor="middle" x="71" y="-78.5" font-family="Helvetica,sans-Serif" font-size="10.00" fill="#000000">PyElement</text>
<polyline fill="none" stroke="#000000" points="0,-71.5 142,-71.5 "/>
<text text-anchor="middle" x="71" y="-59.5" font-family="Helvetica,sans-Serif" font-size="10.00" fill="#000000"> </text>
<polyline fill="none" stroke="#000000" points="0,-52.5 142,-52.5 "/>
<text text-anchor="start" x="8" y="-40.5" font-family="Helvetica,sans-Serif" font-size="10.00" fill="#000000">+ get_element()</text>
<text text-anchor="start" x="8" y="-29.5" font-family="Helvetica,sans-Serif" font-size="10.00" fill="#000000">+ get_generator()</text>
<text text-anchor="start" x="8" y="-18.5" font-family="Helvetica,sans-Serif" font-size="10.00" fill="#000000">+ set_checking_classname()</text>
<text text-anchor="start" x="8" y="-7.5" font-family="Helvetica,sans-Serif" font-size="10.00" fill="#000000">+ Element()</text>
</a>
</g>
</g>
<!-- Node1&#45;&gt;Node2 -->
<g id="edge2" class="edge">
<title>Node1&#45;&gt;Node2</title>
<path fill="none" stroke="#191970" d="M71,-117.1151C71,-107.8722 71,-99.044 71,-90.9402"/>
<polygon fill="none" stroke="#191970" points="67.5001,-117.2927 71,-127.2927 74.5001,-117.2927 67.5001,-117.2927"/>
</g>
</g>
</svg>
