<?xml version="1.0" encoding="UTF-8" standalone="no"?>
<!DOCTYPE svg PUBLIC "-//W3C//DTD SVG 1.1//EN"
 "http://www.w3.org/Graphics/SVG/1.1/DTD/svg11.dtd">
<!-- Generated by graphviz version 2.40.1 (20161225.0304)
 -->
<!-- Title: Element::get_1d_int_py Pages: 1 -->
<svg width="419pt" height="142pt"
 viewBox="0.00 0.00 419.00 142.00" xmlns="http://www.w3.org/2000/svg" xmlns:xlink="http://www.w3.org/1999/xlink">
<g id="graph0" class="graph" transform="scale(1 1) rotate(0) translate(4 138)">
<title>Element::get_1d_int_py</title>
<polygon fill="#ffffff" stroke="transparent" points="-4,4 -4,-138 415,-138 415,4 -4,4"/>
<!-- Node35 -->
<g id="node1" class="node">
<title>Node35</title>
<polygon fill="#bfbfbf" stroke="#000000" points="0,-38.5 0,-57.5 119,-57.5 119,-38.5 0,-38.5"/>
<text text-anchor="middle" x="59.5" y="-45.5" font-family="Helvetica,sans-Serif" font-size="10.00" fill="#000000">Element::get_1d_int_py</text>
</g>
<!-- Node36 -->
<g id="node2" class="node">
<title>Node36</title>
<g id="a_node2"><a xlink:href="classElement.html#a1fdb9455f49d2c66a0276925f7246cad" target="_top" xlink:title="Element::init_for_python">
<polygon fill="#ffffff" stroke="#000000" points="155,-76.5 155,-95.5 277,-95.5 277,-76.5 155,-76.5"/>
<text text-anchor="middle" x="216" y="-83.5" font-family="Helvetica,sans-Serif" font-size="10.00" fill="#000000">Element::init_for_python</text>
</a>
</g>
</g>
<!-- Node35&#45;&gt;Node36 -->
<g id="edge1" class="edge">
<title>Node35&#45;&gt;Node36</title>
<path fill="none" stroke="#191970" d="M98.9916,-57.589C119.6434,-62.6035 145.114,-68.7881 167.0125,-74.1053"/>
<polygon fill="#191970" stroke="#191970" points="166.2489,-77.5215 176.7924,-76.4799 167.9007,-70.7191 166.2489,-77.5215"/>
</g>
<!-- Node40 -->
<g id="node6" class="node">
<title>Node40</title>
<g id="a_node6"><a xlink:href="classElement.html#af851a0ffe85ec6c9b88dac84dbe5f4f2" target="_top" xlink:title="Check if this object has required key(s). ">
<polygon fill="#ffffff" stroke="#000000" points="156.5,-38.5 156.5,-57.5 275.5,-57.5 275.5,-38.5 156.5,-38.5"/>
<text text-anchor="middle" x="216" y="-45.5" font-family="Helvetica,sans-Serif" font-size="10.00" fill="#000000">Element::required_keys</text>
</a>
</g>
</g>
<!-- Node35&#45;&gt;Node40 -->
<g id="edge5" class="edge">
<title>Node35&#45;&gt;Node40</title>
<path fill="none" stroke="#191970" d="M119.1124,-48C127.9617,-48 137.1486,-48 146.1838,-48"/>
<polygon fill="#191970" stroke="#191970" points="146.2943,-51.5001 156.2942,-48 146.2942,-44.5001 146.2943,-51.5001"/>
</g>
<!-- Node42 -->
<g id="node8" class="node">
<title>Node42</title>
<g id="a_node8"><a xlink:href="classElement.html#a576395d61902a76979ffd336afa714b3" target="_top" xlink:title="Extract values of a property in data as a one&#45;dimensional Eigen&#45;Array. ">
<polygon fill="#ffffff" stroke="#000000" points="170.5,-.5 170.5,-19.5 261.5,-19.5 261.5,-.5 170.5,-.5"/>
<text text-anchor="middle" x="216" y="-7.5" font-family="Helvetica,sans-Serif" font-size="10.00" fill="#000000">Element::array1d</text>
</a>
</g>
</g>
<!-- Node35&#45;&gt;Node42 -->
<g id="edge8" class="edge">
<title>Node35&#45;&gt;Node42</title>
<path fill="none" stroke="#191970" d="M98.9916,-38.411C119.6434,-33.3965 145.114,-27.2119 167.0125,-21.8947"/>
<polygon fill="#191970" stroke="#191970" points="167.9007,-25.2809 176.7924,-19.5201 166.2489,-18.4785 167.9007,-25.2809"/>
</g>
<!-- Node37 -->
<g id="node3" class="node">
<title>Node37</title>
<g id="a_node3"><a xlink:href="classGenerator.html#ac4648b055ee0e51c1e68ea084156c222" target="_top" xlink:title="Hello to this Generator object. ">
<polygon fill="#ffffff" stroke="#000000" points="319,-114.5 319,-133.5 405,-133.5 405,-114.5 319,-114.5"/>
<text text-anchor="middle" x="362" y="-121.5" font-family="Helvetica,sans-Serif" font-size="10.00" fill="#000000">Generator::hello</text>
</a>
</g>
</g>
<!-- Node36&#45;&gt;Node37 -->
<g id="edge2" class="edge">
<title>Node36&#45;&gt;Node37</title>
<path fill="none" stroke="#191970" d="M252.842,-95.589C271.8479,-100.5358 295.2286,-106.6211 315.4692,-111.8892"/>
<polygon fill="#191970" stroke="#191970" points="314.8638,-115.3482 325.423,-114.4799 316.627,-108.5739 314.8638,-115.3482"/>
</g>
<!-- Node38 -->
<g id="node4" class="node">
<title>Node38</title>
<g id="a_node4"><a xlink:href="namespaceutils.html#acee57b54806ee63ddaa30518fed90adb" target="_top" xlink:title="Raise (for Python) and throw (for C++) a runtime error. ">
<polygon fill="#ffffff" stroke="#000000" points="313,-38.5 313,-57.5 411,-57.5 411,-38.5 313,-38.5"/>
<text text-anchor="middle" x="362" y="-45.5" font-family="Helvetica,sans-Serif" font-size="10.00" fill="#000000">utils::runtime_error</text>
</a>
</g>
</g>
<!-- Node36&#45;&gt;Node38 -->
<g id="edge3" class="edge">
<title>Node36&#45;&gt;Node38</title>
<path fill="none" stroke="#191970" d="M252.842,-76.411C271.8479,-71.4642 295.2286,-65.3789 315.4692,-60.1108"/>
<polygon fill="#191970" stroke="#191970" points="316.627,-63.4261 325.423,-57.5201 314.8638,-56.6518 316.627,-63.4261"/>
</g>
<!-- Node39 -->
<g id="node5" class="node">
<title>Node39</title>
<g id="a_node5"><a xlink:href="namespaceutils.html#a26267fe7371b6215c5d61374d716527b" target="_top" xlink:title="Logging a message. ">
<polygon fill="#ffffff" stroke="#000000" points="335.5,-76.5 335.5,-95.5 388.5,-95.5 388.5,-76.5 335.5,-76.5"/>
<text text-anchor="middle" x="362" y="-83.5" font-family="Helvetica,sans-Serif" font-size="10.00" fill="#000000">utils::log</text>
</a>
</g>
</g>
<!-- Node36&#45;&gt;Node39 -->
<g id="edge4" class="edge">
<title>Node36&#45;&gt;Node39</title>
<path fill="none" stroke="#191970" d="M277.0712,-86C293.4196,-86 310.5884,-86 325.1773,-86"/>
<polygon fill="#191970" stroke="#191970" points="325.2957,-89.5001 335.2957,-86 325.2956,-82.5001 325.2957,-89.5001"/>
</g>
<!-- Node40&#45;&gt;Node38 -->
<g id="edge7" class="edge">
<title>Node40&#45;&gt;Node38</title>
<path fill="none" stroke="#191970" d="M275.805,-48C284.6349,-48 293.7311,-48 302.5536,-48"/>
<polygon fill="#191970" stroke="#191970" points="302.7524,-51.5001 312.7523,-48 302.7523,-44.5001 302.7524,-51.5001"/>
</g>
<!-- Node41 -->
<g id="node7" class="node">
<title>Node41</title>
<g id="a_node7"><a xlink:href="namespaceutils.html#a5e5339e32b770a14691521435849c949" target="_top" xlink:title="Mimicking Python&#39;s join. ">
<polygon fill="#ffffff" stroke="#000000" points="334,-.5 334,-19.5 390,-19.5 390,-.5 334,-.5"/>
<text text-anchor="middle" x="362" y="-7.5" font-family="Helvetica,sans-Serif" font-size="10.00" fill="#000000">utils::join</text>
</a>
</g>
</g>
<!-- Node40&#45;&gt;Node41 -->
<g id="edge6" class="edge">
<title>Node40&#45;&gt;Node41</title>
<path fill="none" stroke="#191970" d="M252.842,-38.411C274.5739,-32.7547 302.0254,-25.6098 323.9624,-19.9002"/>
<polygon fill="#191970" stroke="#191970" points="325.1294,-23.2131 333.9254,-17.3071 323.3662,-16.4388 325.1294,-23.2131"/>
</g>
</g>
</svg>
