<?xml version="1.0" encoding="UTF-8" standalone="no"?>
<!DOCTYPE svg PUBLIC "-//W3C//DTD SVG 1.1//EN"
 "http://www.w3.org/Graphics/SVG/1.1/DTD/svg11.dtd">
<!-- Generated by graphviz version 2.40.1 (20161225.0304)
 -->
<!-- Title: Element::get_keys Pages: 1 -->
<svg width="539pt" height="28pt"
 viewBox="0.00 0.00 539.00 28.00" xmlns="http://www.w3.org/2000/svg" xmlns:xlink="http://www.w3.org/1999/xlink">
<g id="graph0" class="graph" transform="scale(1 1) rotate(0) translate(4 24)">
<title>Element::get_keys</title>
<polygon fill="#ffffff" stroke="transparent" points="-4,4 -4,-24 535,-24 535,4 -4,4"/>
<!-- Node89 -->
<g id="node1" class="node">
<title>Node89</title>
<polygon fill="#bfbfbf" stroke="#000000" points="0,-.5 0,-19.5 98,-19.5 98,-.5 0,-.5"/>
<text text-anchor="middle" x="49" y="-7.5" font-family="Helvetica,sans-Serif" font-size="10.00" fill="#000000">Element::get_keys</text>
</g>
<!-- Node90 -->
<g id="node2" class="node">
<title>Node90</title>
<g id="a_node2"><a xlink:href="classElement.html#afa6debec21fb714908f8c44a7cea0a49" target="_top" xlink:title="Get keys of the data of this object. ">
<polygon fill="#ffffff" stroke="#000000" points="134,-.5 134,-19.5 248,-19.5 248,-.5 134,-.5"/>
<text text-anchor="middle" x="191" y="-7.5" font-family="Helvetica,sans-Serif" font-size="10.00" fill="#000000">Element::get_keys_py</text>
</a>
</g>
</g>
<!-- Node89&#45;&gt;Node90 -->
<g id="edge1" class="edge">
<title>Node89&#45;&gt;Node90</title>
<path fill="none" stroke="#191970" d="M108.3045,-10C116.6506,-10 125.2184,-10 133.5294,-10"/>
<polygon fill="#191970" stroke="#191970" points="108.2662,-6.5001 98.2662,-10 108.2662,-13.5001 108.2662,-6.5001"/>
</g>
<!-- Node91 -->
<g id="node3" class="node">
<title>Node91</title>
<g id="a_node3"><a xlink:href="namespacepybind.html#aa960fe0db10e19d7b7b60784a7e81be0" target="_top" xlink:title="Bind Element class to Python. ">
<polygon fill="#ffffff" stroke="#000000" points="284,-.5 284,-19.5 385,-19.5 385,-.5 284,-.5"/>
<text text-anchor="middle" x="334.5" y="-7.5" font-family="Helvetica,sans-Serif" font-size="10.00" fill="#000000">pybind::py_element</text>
</a>
</g>
</g>
<!-- Node90&#45;&gt;Node91 -->
<g id="edge2" class="edge">
<title>Node90&#45;&gt;Node91</title>
<path fill="none" stroke="#191970" d="M258.3985,-10C266.8783,-10 275.4395,-10 283.6059,-10"/>
<polygon fill="#191970" stroke="#191970" points="258.1274,-6.5001 248.1273,-10 258.1273,-13.5001 258.1274,-6.5001"/>
</g>
<!-- Node92 -->
<g id="node4" class="node">
<title>Node92</title>
<g id="a_node4"><a xlink:href="pybind_8h.html#a4714c4a855ebb82892410d5254e9ccdc" target="_top" xlink:title="Macro for generating Python module named _ppap4lmp. ">
<polygon fill="#ffffff" stroke="#000000" points="421,-.5 421,-19.5 531,-19.5 531,-.5 421,-.5"/>
<text text-anchor="middle" x="476" y="-7.5" font-family="Helvetica,sans-Serif" font-size="10.00" fill="#000000">PYBIND11_MODULE</text>
</a>
</g>
</g>
<!-- Node91&#45;&gt;Node92 -->
<g id="edge3" class="edge">
<title>Node91&#45;&gt;Node92</title>
<path fill="none" stroke="#191970" d="M395.3877,-10C403.8576,-10 412.5199,-10 420.8761,-10"/>
<polygon fill="#191970" stroke="#191970" points="395.1851,-6.5001 385.1851,-10 395.185,-13.5001 395.1851,-6.5001"/>
</g>
</g>
</svg>
