<?xml version="1.0" encoding="UTF-8" standalone="no"?>
<!DOCTYPE svg PUBLIC "-//W3C//DTD SVG 1.1//EN"
 "http://www.w3.org/Graphics/SVG/1.1/DTD/svg11.dtd">
<!-- Generated by graphviz version 2.40.1 (20161225.0304)
 -->
<!-- Title: ProRadialDistributionFunctionWithDeformation::get_gyration_radius_traj Pages: 1 -->
<svg width="301pt" height="50pt"
 viewBox="0.00 0.00 301.00 50.00" xmlns="http://www.w3.org/2000/svg" xmlns:xlink="http://www.w3.org/1999/xlink">
<g id="graph0" class="graph" transform="scale(1 1) rotate(0) translate(4 46)">
<title>ProRadialDistributionFunctionWithDeformation::get_gyration_radius_traj</title>
<polygon fill="#ffffff" stroke="transparent" points="-4,4 -4,-46 297,-46 297,4 -4,4"/>
<!-- Node7 -->
<g id="node1" class="node">
<title>Node7</title>
<polygon fill="#bfbfbf" stroke="#000000" points="0,-.5 0,-41.5 148,-41.5 148,-.5 0,-.5"/>
<text text-anchor="start" x="8" y="-29.5" font-family="Helvetica,sans-Serif" font-size="10.00" fill="#000000">ProRadialDistributionFunction</text>
<text text-anchor="start" x="8" y="-18.5" font-family="Helvetica,sans-Serif" font-size="10.00" fill="#000000">WithDeformation::get_gyration</text>
<text text-anchor="middle" x="74" y="-7.5" font-family="Helvetica,sans-Serif" font-size="10.00" fill="#000000">_radius_traj</text>
</g>
<!-- Node8 -->
<g id="node2" class="node">
<title>Node8</title>
<g id="a_node2"><a xlink:href="namespacepybind.html#aa222a98ee38677552739f7831587f565" target="_top" xlink:title="Bind ProRadialDistributionFunctionWithDeformation class to Python. ">
<polygon fill="#ffffff" stroke="#000000" points="184,-.5 184,-41.5 293,-41.5 293,-.5 184,-.5"/>
<text text-anchor="start" x="192" y="-29.5" font-family="Helvetica,sans-Serif" font-size="10.00" fill="#000000">pybind::py_pro_radial</text>
<text text-anchor="start" x="192" y="-18.5" font-family="Helvetica,sans-Serif" font-size="10.00" fill="#000000">_distribution_function</text>
<text text-anchor="middle" x="238.5" y="-7.5" font-family="Helvetica,sans-Serif" font-size="10.00" fill="#000000">_with_deformation</text>
</a>
</g>
</g>
<!-- Node7&#45;&gt;Node8 -->
<g id="edge1" class="edge">
<title>Node7&#45;&gt;Node8</title>
<path fill="none" stroke="#191970" d="M158.1751,-21C166.7922,-21 175.381,-21 183.5631,-21"/>
<polygon fill="#191970" stroke="#191970" points="158.0692,-17.5001 148.0692,-21 158.0691,-24.5001 158.0692,-17.5001"/>
</g>
</g>
</svg>
