<?xml version="1.0" encoding="UTF-8" standalone="no"?>
<!DOCTYPE svg PUBLIC "-//W3C//DTD SVG 1.1//EN"
 "http://www.w3.org/Graphics/SVG/1.1/DTD/svg11.dtd">
<!-- Generated by graphviz version 2.40.1 (20161225.0304)
 -->
<!-- Title: Element::get_2d_float_py Pages: 1 -->
<svg width="430pt" height="104pt"
 viewBox="0.00 0.00 430.00 104.00" xmlns="http://www.w3.org/2000/svg" xmlns:xlink="http://www.w3.org/1999/xlink">
<g id="graph0" class="graph" transform="scale(1 1) rotate(0) translate(4 100)">
<title>Element::get_2d_float_py</title>
<polygon fill="#ffffff" stroke="transparent" points="-4,4 -4,-100 426,-100 426,4 -4,4"/>
<!-- Node35 -->
<g id="node1" class="node">
<title>Node35</title>
<polygon fill="#bfbfbf" stroke="#000000" points="0,-38.5 0,-57.5 128,-57.5 128,-38.5 0,-38.5"/>
<text text-anchor="middle" x="64" y="-45.5" font-family="Helvetica,sans-Serif" font-size="10.00" fill="#000000">Element::get_2d_float_py</text>
</g>
<!-- Node36 -->
<g id="node2" class="node">
<title>Node36</title>
<g id="a_node2"><a xlink:href="classElement.html#a1fdb9455f49d2c66a0276925f7246cad" target="_top" xlink:title="Routines to be conducted when a wrapper of getter is called from Python. ">
<polygon fill="#ffffff" stroke="#000000" points="164,-76.5 164,-95.5 286,-95.5 286,-76.5 164,-76.5"/>
<text text-anchor="middle" x="225" y="-83.5" font-family="Helvetica,sans-Serif" font-size="10.00" fill="#000000">Element::init_for_python</text>
</a>
</g>
</g>
<!-- Node35&#45;&gt;Node36 -->
<g id="edge1" class="edge">
<title>Node35&#45;&gt;Node36</title>
<path fill="none" stroke="#191970" d="M104.6271,-57.589C125.9685,-62.6261 152.3119,-68.8438 174.9081,-74.1771"/>
<polygon fill="#191970" stroke="#191970" points="174.1284,-77.5891 184.665,-76.4799 175.7365,-70.7763 174.1284,-77.5891"/>
</g>
<!-- Node38 -->
<g id="node4" class="node">
<title>Node38</title>
<g id="a_node4"><a xlink:href="classElement.html#a2dd2b3ed6f76878ae6cc1c1a36183517" target="_top" xlink:title="Wrapper for DataKeys::required. ">
<polygon fill="#ffffff" stroke="#000000" points="178.5,-38.5 178.5,-57.5 271.5,-57.5 271.5,-38.5 178.5,-38.5"/>
<text text-anchor="middle" x="225" y="-45.5" font-family="Helvetica,sans-Serif" font-size="10.00" fill="#000000">Element::required</text>
</a>
</g>
</g>
<!-- Node35&#45;&gt;Node38 -->
<g id="edge3" class="edge">
<title>Node35&#45;&gt;Node38</title>
<path fill="none" stroke="#191970" d="M128.0941,-48C141.3792,-48 155.287,-48 168.2856,-48"/>
<polygon fill="#191970" stroke="#191970" points="168.4862,-51.5001 178.4862,-48 168.4861,-44.5001 168.4862,-51.5001"/>
</g>
<!-- Node40 -->
<g id="node6" class="node">
<title>Node40</title>
<g id="a_node6"><a xlink:href="classElement.html#a4c2fcdb60e23dedce2b54b9deeadc469" target="_top" xlink:title="Extract values in data as a two&#45;dimensional Eigen&#45;Array. ">
<polygon fill="#ffffff" stroke="#000000" points="179.5,-.5 179.5,-19.5 270.5,-19.5 270.5,-.5 179.5,-.5"/>
<text text-anchor="middle" x="225" y="-7.5" font-family="Helvetica,sans-Serif" font-size="10.00" fill="#000000">Element::array2d</text>
</a>
</g>
</g>
<!-- Node35&#45;&gt;Node40 -->
<g id="edge5" class="edge">
<title>Node35&#45;&gt;Node40</title>
<path fill="none" stroke="#191970" d="M104.6271,-38.411C125.9685,-33.3739 152.3119,-27.1562 174.9081,-21.8229"/>
<polygon fill="#191970" stroke="#191970" points="175.7365,-25.2237 184.665,-19.5201 174.1284,-18.4109 175.7365,-25.2237"/>
</g>
<!-- Node37 -->
<g id="node3" class="node">
<title>Node37</title>
<g id="a_node3"><a xlink:href="classGenerator.html#ac4648b055ee0e51c1e68ea084156c222" target="_top" xlink:title="Hello to this object. ">
<polygon fill="#ffffff" stroke="#000000" points="329,-76.5 329,-95.5 415,-95.5 415,-76.5 329,-76.5"/>
<text text-anchor="middle" x="372" y="-83.5" font-family="Helvetica,sans-Serif" font-size="10.00" fill="#000000">Generator::hello</text>
</a>
</g>
</g>
<!-- Node36&#45;&gt;Node37 -->
<g id="edge2" class="edge">
<title>Node36&#45;&gt;Node37</title>
<path fill="none" stroke="#191970" d="M286.0642,-86C296.8317,-86 307.9659,-86 318.5061,-86"/>
<polygon fill="#191970" stroke="#191970" points="318.8126,-89.5001 328.8126,-86 318.8125,-82.5001 318.8126,-89.5001"/>
</g>
<!-- Node39 -->
<g id="node5" class="node">
<title>Node39</title>
<g id="a_node5"><a xlink:href="classDataKeys.html#a03517cffe825c983c3582ffb55318a7b" target="_top" xlink:title="Check if this object has required key(s). ">
<polygon fill="#ffffff" stroke="#000000" points="322,-38.5 322,-57.5 422,-57.5 422,-38.5 322,-38.5"/>
<text text-anchor="middle" x="372" y="-45.5" font-family="Helvetica,sans-Serif" font-size="10.00" fill="#000000">DataKeys::required</text>
</a>
</g>
</g>
<!-- Node38&#45;&gt;Node39 -->
<g id="edge4" class="edge">
<title>Node38&#45;&gt;Node39</title>
<path fill="none" stroke="#191970" d="M271.5117,-48C284.3141,-48 298.3852,-48 311.8392,-48"/>
<polygon fill="#191970" stroke="#191970" points="311.9761,-51.5001 321.9761,-48 311.976,-44.5001 311.9761,-51.5001"/>
</g>
</g>
</svg>
