<?xml version="1.0" encoding="UTF-8" standalone="no"?>
<!DOCTYPE svg PUBLIC "-//W3C//DTD SVG 1.1//EN"
 "http://www.w3.org/Graphics/SVG/1.1/DTD/svg11.dtd">
<!-- Generated by graphviz version 2.40.1 (20161225.0304)
 -->
<!-- Title: ProMeanSquareDisplacement::get_mean_square_displacement Pages: 1 -->
<svg width="481pt" height="39pt"
 viewBox="0.00 0.00 481.00 39.00" xmlns="http://www.w3.org/2000/svg" xmlns:xlink="http://www.w3.org/1999/xlink">
<g id="graph0" class="graph" transform="scale(1 1) rotate(0) translate(4 35)">
<title>ProMeanSquareDisplacement::get_mean_square_displacement</title>
<polygon fill="#ffffff" stroke="transparent" points="-4,4 -4,-35 477,-35 477,4 -4,4"/>
<!-- Node13 -->
<g id="node1" class="node">
<title>Node13</title>
<polygon fill="#bfbfbf" stroke="#000000" points="0,-.5 0,-30.5 163,-30.5 163,-.5 0,-.5"/>
<text text-anchor="start" x="8" y="-18.5" font-family="Helvetica,sans-Serif" font-size="10.00" fill="#000000">ProMeanSquareDisplacement</text>
<text text-anchor="middle" x="81.5" y="-7.5" font-family="Helvetica,sans-Serif" font-size="10.00" fill="#000000">::get_mean_square_displacement</text>
</g>
<!-- Node14 -->
<g id="node2" class="node">
<title>Node14</title>
<g id="a_node2"><a xlink:href="pybind_2processors_2pro__mean__square__displacement_8h.html#ad8fadfe25854c802e635e0d774d8ad56" target="_top" xlink:title="pybind_pro_mean_square\l_displacement">
<polygon fill="#ffffff" stroke="#000000" points="199,-.5 199,-30.5 327,-30.5 327,-.5 199,-.5"/>
<text text-anchor="start" x="207" y="-18.5" font-family="Helvetica,sans-Serif" font-size="10.00" fill="#000000">pybind_pro_mean_square</text>
<text text-anchor="middle" x="263" y="-7.5" font-family="Helvetica,sans-Serif" font-size="10.00" fill="#000000">_displacement</text>
</a>
</g>
</g>
<!-- Node13&#45;&gt;Node14 -->
<g id="edge1" class="edge">
<title>Node13&#45;&gt;Node14</title>
<path fill="none" stroke="#191970" d="M173.3376,-15.5C181.9638,-15.5 190.577,-15.5 198.8652,-15.5"/>
<polygon fill="#191970" stroke="#191970" points="173.2238,-12.0001 163.2237,-15.5 173.2237,-19.0001 173.2238,-12.0001"/>
</g>
<!-- Node15 -->
<g id="node3" class="node">
<title>Node15</title>
<g id="a_node3"><a xlink:href="pybind_8h.html#a4714c4a855ebb82892410d5254e9ccdc" target="_top" xlink:title="PYBIND11_MODULE">
<polygon fill="#ffffff" stroke="#000000" points="363,-6 363,-25 473,-25 473,-6 363,-6"/>
<text text-anchor="middle" x="418" y="-13" font-family="Helvetica,sans-Serif" font-size="10.00" fill="#000000">PYBIND11_MODULE</text>
</a>
</g>
</g>
<!-- Node14&#45;&gt;Node15 -->
<g id="edge2" class="edge">
<title>Node14&#45;&gt;Node15</title>
<path fill="none" stroke="#191970" d="M337.4268,-15.5C346.0203,-15.5 354.6643,-15.5 362.9351,-15.5"/>
<polygon fill="#191970" stroke="#191970" points="337.3874,-12.0001 327.3874,-15.5 337.3874,-19.0001 337.3874,-12.0001"/>
</g>
</g>
</svg>
