<?xml version="1.0" encoding="UTF-8" standalone="no"?>
<!DOCTYPE svg PUBLIC "-//W3C//DTD SVG 1.1//EN"
 "http://www.w3.org/Graphics/SVG/1.1/DTD/svg11.dtd">
<!-- Generated by graphviz version 2.40.1 (20161225.0304)
 -->
<!-- Title: Element::init_for_python Pages: 1 -->
<svg width="264pt" height="104pt"
 viewBox="0.00 0.00 264.00 104.00" xmlns="http://www.w3.org/2000/svg" xmlns:xlink="http://www.w3.org/1999/xlink">
<g id="graph0" class="graph" transform="scale(1 1) rotate(0) translate(4 100)">
<title>Element::init_for_python</title>
<polygon fill="#ffffff" stroke="transparent" points="-4,4 -4,-100 260,-100 260,4 -4,4"/>
<!-- Node105 -->
<g id="node1" class="node">
<title>Node105</title>
<polygon fill="#bfbfbf" stroke="#000000" points="0,-38.5 0,-57.5 122,-57.5 122,-38.5 0,-38.5"/>
<text text-anchor="middle" x="61" y="-45.5" font-family="Helvetica,sans-Serif" font-size="10.00" fill="#000000">Element::init_for_python</text>
</g>
<!-- Node106 -->
<g id="node2" class="node">
<title>Node106</title>
<g id="a_node2"><a xlink:href="classGenerator.html#ac4648b055ee0e51c1e68ea084156c222" target="_top" xlink:title="Hello to this Generator object. ">
<polygon fill="#ffffff" stroke="#000000" points="164,-76.5 164,-95.5 250,-95.5 250,-76.5 164,-76.5"/>
<text text-anchor="middle" x="207" y="-83.5" font-family="Helvetica,sans-Serif" font-size="10.00" fill="#000000">Generator::hello</text>
</a>
</g>
</g>
<!-- Node105&#45;&gt;Node106 -->
<g id="edge1" class="edge">
<title>Node105&#45;&gt;Node106</title>
<path fill="none" stroke="#191970" d="M97.842,-57.589C116.8479,-62.5358 140.2286,-68.6211 160.4692,-73.8892"/>
<polygon fill="#191970" stroke="#191970" points="159.8638,-77.3482 170.423,-76.4799 161.627,-70.5739 159.8638,-77.3482"/>
</g>
<!-- Node107 -->
<g id="node3" class="node">
<title>Node107</title>
<g id="a_node3"><a xlink:href="namespaceutils.html#acee57b54806ee63ddaa30518fed90adb" target="_top" xlink:title="Raise (for Python) and throw (for C++) a runtime error. ">
<polygon fill="#ffffff" stroke="#000000" points="158,-38.5 158,-57.5 256,-57.5 256,-38.5 158,-38.5"/>
<text text-anchor="middle" x="207" y="-45.5" font-family="Helvetica,sans-Serif" font-size="10.00" fill="#000000">utils::runtime_error</text>
</a>
</g>
</g>
<!-- Node105&#45;&gt;Node107 -->
<g id="edge2" class="edge">
<title>Node105&#45;&gt;Node107</title>
<path fill="none" stroke="#191970" d="M122.0712,-48C130.5152,-48 139.1781,-48 147.5913,-48"/>
<polygon fill="#191970" stroke="#191970" points="147.6983,-51.5001 157.6983,-48 147.6983,-44.5001 147.6983,-51.5001"/>
</g>
<!-- Node108 -->
<g id="node4" class="node">
<title>Node108</title>
<g id="a_node4"><a xlink:href="namespaceutils.html#a26267fe7371b6215c5d61374d716527b" target="_top" xlink:title="Logging a message. ">
<polygon fill="#ffffff" stroke="#000000" points="180.5,-.5 180.5,-19.5 233.5,-19.5 233.5,-.5 180.5,-.5"/>
<text text-anchor="middle" x="207" y="-7.5" font-family="Helvetica,sans-Serif" font-size="10.00" fill="#000000">utils::log</text>
</a>
</g>
</g>
<!-- Node105&#45;&gt;Node108 -->
<g id="edge3" class="edge">
<title>Node105&#45;&gt;Node108</title>
<path fill="none" stroke="#191970" d="M97.842,-38.411C120.1117,-32.6148 148.3878,-25.2552 170.5809,-19.4789"/>
<polygon fill="#191970" stroke="#191970" points="171.5103,-22.8537 180.3063,-16.9477 169.7471,-16.0794 171.5103,-22.8537"/>
</g>
</g>
</svg>
