<?xml version="1.0" encoding="UTF-8" standalone="no"?>
<!DOCTYPE svg PUBLIC "-//W3C//DTD SVG 1.1//EN"
 "http://www.w3.org/Graphics/SVG/1.1/DTD/svg11.dtd">
<!-- Generated by graphviz version 2.40.1 (20161225.0304)
 -->
<!-- Title: StaDumpAtoms::compute_impl Pages: 1 -->
<svg width="294pt" height="104pt"
 viewBox="0.00 0.00 294.00 104.00" xmlns="http://www.w3.org/2000/svg" xmlns:xlink="http://www.w3.org/1999/xlink">
<g id="graph0" class="graph" transform="scale(1 1) rotate(0) translate(4 100)">
<title>StaDumpAtoms::compute_impl</title>
<polygon fill="#ffffff" stroke="transparent" points="-4,4 -4,-100 290,-100 290,4 -4,4"/>
<!-- Node0 -->
<g id="node1" class="node">
<title>Node0</title>
<polygon fill="#bfbfbf" stroke="#000000" points="0,-38.5 0,-57.5 152,-57.5 152,-38.5 0,-38.5"/>
<text text-anchor="middle" x="76" y="-45.5" font-family="Helvetica,sans-Serif" font-size="10.00" fill="#000000">StaDumpAtoms::compute_impl</text>
</g>
<!-- Node1 -->
<g id="node2" class="node">
<title>Node1</title>
<g id="a_node2"><a xlink:href="namespaceutils.html#acee57b54806ee63ddaa30518fed90adb" target="_top" xlink:title="Raise (for Python) and throw (for C++) a runtime error. ">
<polygon fill="#ffffff" stroke="#000000" points="188,-76.5 188,-95.5 286,-95.5 286,-76.5 188,-76.5"/>
<text text-anchor="middle" x="237" y="-83.5" font-family="Helvetica,sans-Serif" font-size="10.00" fill="#000000">utils::runtime_error</text>
</a>
</g>
</g>
<!-- Node0&#45;&gt;Node1 -->
<g id="edge1" class="edge">
<title>Node0&#45;&gt;Node1</title>
<path fill="none" stroke="#191970" d="M116.6271,-57.589C137.9685,-62.6261 164.3119,-68.8438 186.9081,-74.1771"/>
<polygon fill="#191970" stroke="#191970" points="186.1284,-77.5891 196.665,-76.4799 187.7365,-70.7763 186.1284,-77.5891"/>
</g>
<!-- Node2 -->
<g id="node3" class="node">
<title>Node2</title>
<g id="a_node3"><a xlink:href="namespaceutils.html#a96d358b93c453a686f65db462e2be70f" target="_top" xlink:title="Mimicking Python&#39;s split. ">
<polygon fill="#ffffff" stroke="#000000" points="207.5,-38.5 207.5,-57.5 266.5,-57.5 266.5,-38.5 207.5,-38.5"/>
<text text-anchor="middle" x="237" y="-45.5" font-family="Helvetica,sans-Serif" font-size="10.00" fill="#000000">utils::split</text>
</a>
</g>
</g>
<!-- Node0&#45;&gt;Node2 -->
<g id="edge2" class="edge">
<title>Node0&#45;&gt;Node2</title>
<path fill="none" stroke="#191970" d="M152.2566,-48C167.6484,-48 183.2475,-48 196.795,-48"/>
<polygon fill="#191970" stroke="#191970" points="197.1768,-51.5001 207.1768,-48 197.1767,-44.5001 197.1768,-51.5001"/>
</g>
<!-- Node3 -->
<g id="node4" class="node">
<title>Node3</title>
<g id="a_node4"><a xlink:href="classDataKeys.html#a626d56b99861008c2a63580ed17b809d" target="_top" xlink:title="Add key(s) in an array to the _keys. ">
<polygon fill="#ffffff" stroke="#000000" points="196.5,-.5 196.5,-19.5 277.5,-19.5 277.5,-.5 196.5,-.5"/>
<text text-anchor="middle" x="237" y="-7.5" font-family="Helvetica,sans-Serif" font-size="10.00" fill="#000000">DataKeys::add</text>
</a>
</g>
</g>
<!-- Node0&#45;&gt;Node3 -->
<g id="edge3" class="edge">
<title>Node0&#45;&gt;Node3</title>
<path fill="none" stroke="#191970" d="M116.6271,-38.411C137.9685,-33.3739 164.3119,-27.1562 186.9081,-21.8229"/>
<polygon fill="#191970" stroke="#191970" points="187.7365,-25.2237 196.665,-19.5201 186.1284,-18.4109 187.7365,-25.2237"/>
</g>
</g>
</svg>
