<?xml version="1.0" encoding="UTF-8" standalone="no"?>
<!DOCTYPE svg PUBLIC "-//W3C//DTD SVG 1.1//EN"
 "http://www.w3.org/Graphics/SVG/1.1/DTD/svg11.dtd">
<!-- Generated by graphviz version 2.40.1 (20161225.0304)
 -->
<!-- Title: Processor::register_generators Pages: 1 -->
<svg width="295pt" height="263pt"
 viewBox="0.00 0.00 295.00 263.00" xmlns="http://www.w3.org/2000/svg" xmlns:xlink="http://www.w3.org/1999/xlink">
<g id="graph0" class="graph" transform="scale(1 1) rotate(0) translate(4 259)">
<title>Processor::register_generators</title>
<polygon fill="#ffffff" stroke="transparent" points="-4,4 -4,-259 291,-259 291,4 -4,4"/>
<!-- Node12 -->
<g id="node1" class="node">
<title>Node12</title>
<polygon fill="#bfbfbf" stroke="#000000" points="0,-112 0,-142 99,-142 99,-112 0,-112"/>
<text text-anchor="start" x="8" y="-130" font-family="Helvetica,sans-Serif" font-size="10.00" fill="#000000">Processor::register</text>
<text text-anchor="middle" x="49.5" y="-119" font-family="Helvetica,sans-Serif" font-size="10.00" fill="#000000">_generators</text>
</g>
<!-- Node13 -->
<g id="node2" class="node">
<title>Node13</title>
<g id="a_node2"><a xlink:href="classProData.html#aea831016a9ba366a8e352a19f0808e65" target="_top" xlink:title="Constructor of ProData class for a sequence of Element objects. ">
<polygon fill="#ffffff" stroke="#000000" points="164.5,-235.5 164.5,-254.5 257.5,-254.5 257.5,-235.5 164.5,-235.5"/>
<text text-anchor="middle" x="211" y="-242.5" font-family="Helvetica,sans-Serif" font-size="10.00" fill="#000000">ProData::ProData</text>
</a>
</g>
</g>
<!-- Node12&#45;&gt;Node13 -->
<g id="edge1" class="edge">
<title>Node12&#45;&gt;Node13</title>
<path fill="none" stroke="#191970" d="M64.0037,-151.0603C78.9699,-173.8039 104.4026,-207.1686 135,-226 143.8028,-231.4178 154.0772,-235.2933 164.1735,-238.0648"/>
<polygon fill="#191970" stroke="#191970" points="66.7603,-148.8738 58.4276,-142.3302 60.8609,-152.6419 66.7603,-148.8738"/>
</g>
<!-- Node14 -->
<g id="node3" class="node">
<title>Node14</title>
<g id="a_node3"><a xlink:href="classProDistanceInMolecule.html#a48295b7fcd5c13e60c0fdee579e0cfbf" target="_top" xlink:title="Constructor of ProDistanceInMolecule class for multiple snapshots of simulation. ">
<polygon fill="#ffffff" stroke="#000000" points="149.5,-186 149.5,-216 272.5,-216 272.5,-186 149.5,-186"/>
<text text-anchor="start" x="157.5" y="-204" font-family="Helvetica,sans-Serif" font-size="10.00" fill="#000000">ProDistanceInMolecule</text>
<text text-anchor="middle" x="211" y="-193" font-family="Helvetica,sans-Serif" font-size="10.00" fill="#000000">::ProDistanceInMolecule</text>
</a>
</g>
</g>
<!-- Node12&#45;&gt;Node14 -->
<g id="edge2" class="edge">
<title>Node12&#45;&gt;Node14</title>
<path fill="none" stroke="#191970" d="M80.799,-147.5767C96.6038,-157.3718 116.3417,-168.7231 135,-177 142.3359,-180.2542 150.2488,-183.2658 158.1008,-185.9777"/>
<polygon fill="#191970" stroke="#191970" points="82.3124,-144.3935 71.9858,-142.0244 78.5811,-150.3162 82.3124,-144.3935"/>
</g>
<!-- Node15 -->
<g id="node4" class="node">
<title>Node15</title>
<g id="a_node4"><a xlink:href="classProMeanSquareDisplacement.html#a950046a0badb23515b3a3ad346de50a4" target="_top" xlink:title="Constructor of ProMeanSquareDisplacement class. ">
<polygon fill="#ffffff" stroke="#000000" points="135,-137 135,-167 287,-167 287,-137 135,-137"/>
<text text-anchor="start" x="143" y="-155" font-family="Helvetica,sans-Serif" font-size="10.00" fill="#000000">ProMeanSquareDisplacement</text>
<text text-anchor="middle" x="211" y="-144" font-family="Helvetica,sans-Serif" font-size="10.00" fill="#000000">::ProMeanSquareDisplacement</text>
</a>
</g>
</g>
<!-- Node12&#45;&gt;Node15 -->
<g id="edge3" class="edge">
<title>Node12&#45;&gt;Node15</title>
<path fill="none" stroke="#191970" d="M109.2914,-136.2556C117.6574,-137.5507 126.3458,-138.8956 134.9624,-140.2295"/>
<polygon fill="#191970" stroke="#191970" points="109.6909,-132.7759 99.2731,-134.7048 108.62,-139.6935 109.6909,-132.7759"/>
</g>
<!-- Node16 -->
<g id="node5" class="node">
<title>Node16</title>
<g id="a_node5"><a xlink:href="classProRadialDistributionFunction.html#ad873a6f5e730027d51f07fc28d526ae9" target="_top" xlink:title="Constructor of ProThicknessProfile class for multiple snapshots of simulation. ">
<polygon fill="#ffffff" stroke="#000000" points="135.5,-88 135.5,-118 286.5,-118 286.5,-88 135.5,-88"/>
<text text-anchor="start" x="143.5" y="-106" font-family="Helvetica,sans-Serif" font-size="10.00" fill="#000000">ProRadialDistributionFunction</text>
<text text-anchor="middle" x="211" y="-95" font-family="Helvetica,sans-Serif" font-size="10.00" fill="#000000">::ProRadialDistributionFunction</text>
</a>
</g>
</g>
<!-- Node12&#45;&gt;Node16 -->
<g id="edge4" class="edge">
<title>Node12&#45;&gt;Node16</title>
<path fill="none" stroke="#191970" d="M109.375,-118.1022C117.8117,-116.8484 126.5749,-115.5461 135.2604,-114.2554"/>
<polygon fill="#191970" stroke="#191970" points="108.65,-114.6714 99.2731,-119.6034 109.679,-121.5953 108.65,-114.6714"/>
</g>
<!-- Node17 -->
<g id="node6" class="node">
<title>Node17</title>
<g id="a_node6"><a xlink:href="classProThicknessProfile.html#a92005a1bc4dbe5b2c2ad3437b16e6e5c" target="_top" xlink:title="Constructor of ProThicknessProfile class for multiple snapshots of simulation. ">
<polygon fill="#ffffff" stroke="#000000" points="156,-39 156,-69 266,-69 266,-39 156,-39"/>
<text text-anchor="start" x="164" y="-57" font-family="Helvetica,sans-Serif" font-size="10.00" fill="#000000">ProThicknessProfile</text>
<text text-anchor="middle" x="211" y="-46" font-family="Helvetica,sans-Serif" font-size="10.00" fill="#000000">::ProThicknessProfile</text>
</a>
</g>
</g>
<!-- Node12&#45;&gt;Node17 -->
<g id="edge5" class="edge">
<title>Node12&#45;&gt;Node17</title>
<path fill="none" stroke="#191970" d="M82.2883,-106.6202C97.8901,-97.4401 117.0268,-86.9119 135,-79 143.1362,-75.4184 151.9542,-72.0652 160.6048,-69.0499"/>
<polygon fill="#191970" stroke="#191970" points="80.3381,-103.7081 73.5461,-111.8395 83.9265,-109.7184 80.3381,-103.7081"/>
</g>
<!-- Node18 -->
<g id="node7" class="node">
<title>Node18</title>
<g id="a_node7"><a xlink:href="classProValueArray.html#aed8b1a367c7f2b4b6e17fa1ef9c89eb7" target="_top" xlink:title="Constructor of ProValueArray class for a sequence of Element objects. ">
<polygon fill="#ffffff" stroke="#000000" points="136.5,-.5 136.5,-19.5 285.5,-19.5 285.5,-.5 136.5,-.5"/>
<text text-anchor="middle" x="211" y="-7.5" font-family="Helvetica,sans-Serif" font-size="10.00" fill="#000000">ProValueArray::ProValueArray</text>
</a>
</g>
</g>
<!-- Node12&#45;&gt;Node18 -->
<g id="edge6" class="edge">
<title>Node12&#45;&gt;Node18</title>
<path fill="none" stroke="#191970" d="M64.4196,-103.1408C79.5389,-80.9301 104.9438,-48.5447 135,-30 142.0829,-25.6298 150.1055,-22.2068 158.2178,-19.5276"/>
<polygon fill="#191970" stroke="#191970" points="61.3695,-101.4079 58.7708,-111.6791 67.2075,-105.2703 61.3695,-101.4079"/>
</g>
</g>
</svg>
