<?xml version="1.0" encoding="UTF-8" standalone="no"?>
<!DOCTYPE svg PUBLIC "-//W3C//DTD SVG 1.1//EN"
 "http://www.w3.org/Graphics/SVG/1.1/DTD/svg11.dtd">
<!-- Generated by graphviz version 2.40.1 (20161225.0304)
 -->
<!-- Title: Element::get_2d_float_py Pages: 1 -->
<svg width="564pt" height="180pt"
 viewBox="0.00 0.00 564.00 180.00" xmlns="http://www.w3.org/2000/svg" xmlns:xlink="http://www.w3.org/1999/xlink">
<g id="graph0" class="graph" transform="scale(1 1) rotate(0) translate(4 176)">
<title>Element::get_2d_float_py</title>
<polygon fill="#ffffff" stroke="transparent" points="-4,4 -4,-176 560,-176 560,4 -4,4"/>
<!-- Node53 -->
<g id="node1" class="node">
<title>Node53</title>
<polygon fill="#bfbfbf" stroke="#000000" points="0,-57.5 0,-76.5 128,-76.5 128,-57.5 0,-57.5"/>
<text text-anchor="middle" x="64" y="-64.5" font-family="Helvetica,sans-Serif" font-size="10.00" fill="#000000">Element::get_2d_float_py</text>
</g>
<!-- Node54 -->
<g id="node2" class="node">
<title>Node54</title>
<g id="a_node2"><a xlink:href="classElement.html#a1fdb9455f49d2c66a0276925f7246cad" target="_top" xlink:title="Routines to be conducted when a wrapper of getter is called from Python. ">
<polygon fill="#ffffff" stroke="#000000" points="164,-114.5 164,-133.5 286,-133.5 286,-114.5 164,-114.5"/>
<text text-anchor="middle" x="225" y="-121.5" font-family="Helvetica,sans-Serif" font-size="10.00" fill="#000000">Element::init_for_python</text>
</a>
</g>
</g>
<!-- Node53&#45;&gt;Node54 -->
<g id="edge1" class="edge">
<title>Node53&#45;&gt;Node54</title>
<path fill="none" stroke="#191970" d="M88.0972,-76.6316C108.2586,-84.5754 137.8433,-95.9661 164,-105 170.1235,-107.1149 176.6281,-109.2538 183.0211,-111.2956"/>
<polygon fill="#191970" stroke="#191970" points="182.315,-114.7426 192.9045,-114.4069 184.417,-108.0656 182.315,-114.7426"/>
</g>
<!-- Node59 -->
<g id="node7" class="node">
<title>Node59</title>
<g id="a_node7"><a xlink:href="namespaceutils.html#a9fdbb91c9e48ca033fca642b6e73d850" target="_top" xlink:title="utils::pyargs_to_vec">
<polygon fill="#ffffff" stroke="#000000" points="173,-76.5 173,-95.5 277,-95.5 277,-76.5 173,-76.5"/>
<text text-anchor="middle" x="225" y="-83.5" font-family="Helvetica,sans-Serif" font-size="10.00" fill="#000000">utils::pyargs_to_vec</text>
</a>
</g>
</g>
<!-- Node53&#45;&gt;Node59 -->
<g id="edge6" class="edge">
<title>Node53&#45;&gt;Node59</title>
<path fill="none" stroke="#191970" d="M128.0941,-74.5639C139.4404,-75.9029 151.2409,-77.2955 162.5414,-78.6291"/>
<polygon fill="#191970" stroke="#191970" points="162.4101,-82.1378 172.7514,-79.834 163.2305,-75.1861 162.4101,-82.1378"/>
</g>
<!-- Node60 -->
<g id="node8" class="node">
<title>Node60</title>
<g id="a_node8"><a xlink:href="classElement.html#a2dd2b3ed6f76878ae6cc1c1a36183517" target="_top" xlink:title="Wrapper for DataKeys::required. ">
<polygon fill="#ffffff" stroke="#000000" points="178.5,-38.5 178.5,-57.5 271.5,-57.5 271.5,-38.5 178.5,-38.5"/>
<text text-anchor="middle" x="225" y="-45.5" font-family="Helvetica,sans-Serif" font-size="10.00" fill="#000000">Element::required</text>
</a>
</g>
</g>
<!-- Node53&#45;&gt;Node60 -->
<g id="edge7" class="edge">
<title>Node53&#45;&gt;Node60</title>
<path fill="none" stroke="#191970" d="M128.0941,-59.4361C141.3792,-57.8683 155.287,-56.227 168.2856,-54.693"/>
<polygon fill="#191970" stroke="#191970" points="168.9653,-58.1372 178.4862,-53.4892 168.1448,-51.1854 168.9653,-58.1372"/>
</g>
<!-- Node63 -->
<g id="node11" class="node">
<title>Node63</title>
<g id="a_node11"><a xlink:href="classElement.html#a4c2fcdb60e23dedce2b54b9deeadc469" target="_top" xlink:title="Extract values in data as a two&#45;dimensional Eigen&#45;Array. ">
<polygon fill="#ffffff" stroke="#000000" points="179.5,-.5 179.5,-19.5 270.5,-19.5 270.5,-.5 179.5,-.5"/>
<text text-anchor="middle" x="225" y="-7.5" font-family="Helvetica,sans-Serif" font-size="10.00" fill="#000000">Element::array2d</text>
</a>
</g>
</g>
<!-- Node53&#45;&gt;Node63 -->
<g id="edge11" class="edge">
<title>Node53&#45;&gt;Node63</title>
<path fill="none" stroke="#191970" d="M88.0972,-57.3684C108.2586,-49.4246 137.8433,-38.0339 164,-29 170.1235,-26.8851 176.6281,-24.7462 183.0211,-22.7044"/>
<polygon fill="#191970" stroke="#191970" points="184.417,-25.9344 192.9045,-19.5931 182.315,-19.2574 184.417,-25.9344"/>
</g>
<!-- Node55 -->
<g id="node3" class="node">
<title>Node55</title>
<g id="a_node3"><a xlink:href="classGenerator.html#ac4648b055ee0e51c1e68ea084156c222" target="_top" xlink:title="Hello to this Generator instance. ">
<polygon fill="#ffffff" stroke="#000000" points="329,-114.5 329,-133.5 415,-133.5 415,-114.5 329,-114.5"/>
<text text-anchor="middle" x="372" y="-121.5" font-family="Helvetica,sans-Serif" font-size="10.00" fill="#000000">Generator::hello</text>
</a>
</g>
</g>
<!-- Node54&#45;&gt;Node55 -->
<g id="edge2" class="edge">
<title>Node54&#45;&gt;Node55</title>
<path fill="none" stroke="#191970" d="M286.0642,-124C296.8317,-124 307.9659,-124 318.5061,-124"/>
<polygon fill="#191970" stroke="#191970" points="318.8126,-127.5001 328.8126,-124 318.8125,-120.5001 318.8126,-127.5001"/>
</g>
<!-- Node56 -->
<g id="node4" class="node">
<title>Node56</title>
<g id="a_node4"><a xlink:href="namespaceutils.html#acee57b54806ee63ddaa30518fed90adb" target="_top" xlink:title="utils::runtime_error">
<polygon fill="#ffffff" stroke="#000000" points="458,-76.5 458,-95.5 556,-95.5 556,-76.5 458,-76.5"/>
<text text-anchor="middle" x="507" y="-83.5" font-family="Helvetica,sans-Serif" font-size="10.00" fill="#000000">utils::runtime_error</text>
</a>
</g>
</g>
<!-- Node54&#45;&gt;Node56 -->
<g id="edge3" class="edge">
<title>Node54&#45;&gt;Node56</title>
<path fill="none" stroke="#191970" d="M269.2792,-114.4452C285.772,-111.1193 304.6876,-107.5791 322,-105 363.7089,-98.7865 411.0128,-93.9676 447.3462,-90.7376"/>
<polygon fill="#191970" stroke="#191970" points="448.1116,-94.1841 457.7693,-89.8277 447.5028,-87.2107 448.1116,-94.1841"/>
</g>
<!-- Node57 -->
<g id="node5" class="node">
<title>Node57</title>
<g id="a_node5"><a xlink:href="namespaceutils.html#a26267fe7371b6215c5d61374d716527b" target="_top" xlink:title="utils::log">
<polygon fill="#ffffff" stroke="#000000" points="345.5,-152.5 345.5,-171.5 398.5,-171.5 398.5,-152.5 345.5,-152.5"/>
<text text-anchor="middle" x="372" y="-159.5" font-family="Helvetica,sans-Serif" font-size="10.00" fill="#000000">utils::log</text>
</a>
</g>
</g>
<!-- Node54&#45;&gt;Node57 -->
<g id="edge4" class="edge">
<title>Node54&#45;&gt;Node57</title>
<path fill="none" stroke="#191970" d="M262.0943,-133.589C284.5166,-139.3852 312.9863,-146.7448 335.3315,-152.5211"/>
<polygon fill="#191970" stroke="#191970" points="334.5657,-155.9381 345.1234,-155.0523 336.3177,-149.1609 334.5657,-155.9381"/>
</g>
<!-- Node58 -->
<g id="node6" class="node">
<title>Node58</title>
<g id="a_node6"><a xlink:href="namespaceutils.html#a3b5f21e223fdb0898119de641a1685f6" target="_top" xlink:title="utils::_message">
<polygon fill="#ffffff" stroke="#000000" points="464,-152.5 464,-171.5 550,-171.5 550,-152.5 464,-152.5"/>
<text text-anchor="middle" x="507" y="-159.5" font-family="Helvetica,sans-Serif" font-size="10.00" fill="#000000">utils::_message</text>
</a>
</g>
</g>
<!-- Node57&#45;&gt;Node58 -->
<g id="edge5" class="edge">
<title>Node57&#45;&gt;Node58</title>
<path fill="none" stroke="#191970" d="M398.6717,-162C414.4345,-162 434.9555,-162 453.8916,-162"/>
<polygon fill="#191970" stroke="#191970" points="453.9111,-165.5001 463.9111,-162 453.911,-158.5001 453.9111,-165.5001"/>
</g>
<!-- Node61 -->
<g id="node9" class="node">
<title>Node61</title>
<g id="a_node9"><a xlink:href="classDataKeys.html#a03517cffe825c983c3582ffb55318a7b" target="_top" xlink:title="... ">
<polygon fill="#ffffff" stroke="#000000" points="322,-38.5 322,-57.5 422,-57.5 422,-38.5 322,-38.5"/>
<text text-anchor="middle" x="372" y="-45.5" font-family="Helvetica,sans-Serif" font-size="10.00" fill="#000000">DataKeys::required</text>
</a>
</g>
</g>
<!-- Node60&#45;&gt;Node61 -->
<g id="edge8" class="edge">
<title>Node60&#45;&gt;Node61</title>
<path fill="none" stroke="#191970" d="M271.5117,-48C284.3141,-48 298.3852,-48 311.8392,-48"/>
<polygon fill="#191970" stroke="#191970" points="311.9761,-51.5001 321.9761,-48 311.976,-44.5001 311.9761,-51.5001"/>
</g>
<!-- Node61&#45;&gt;Node56 -->
<g id="edge9" class="edge">
<title>Node61&#45;&gt;Node56</title>
<path fill="none" stroke="#191970" d="M406.0662,-57.589C423.4135,-62.4719 444.7022,-68.4643 463.2492,-73.685"/>
<polygon fill="#191970" stroke="#191970" points="462.3704,-77.0735 472.9447,-76.4141 464.2671,-70.3354 462.3704,-77.0735"/>
</g>
<!-- Node62 -->
<g id="node10" class="node">
<title>Node62</title>
<g id="a_node10"><a xlink:href="namespaceutils.html#a5e5339e32b770a14691521435849c949" target="_top" xlink:title="utils::join">
<polygon fill="#ffffff" stroke="#000000" points="479,-38.5 479,-57.5 535,-57.5 535,-38.5 479,-38.5"/>
<text text-anchor="middle" x="507" y="-45.5" font-family="Helvetica,sans-Serif" font-size="10.00" fill="#000000">utils::join</text>
</a>
</g>
</g>
<!-- Node61&#45;&gt;Node62 -->
<g id="edge10" class="edge">
<title>Node61&#45;&gt;Node62</title>
<path fill="none" stroke="#191970" d="M422.269,-48C437.5913,-48 454.1831,-48 468.589,-48"/>
<polygon fill="#191970" stroke="#191970" points="468.6431,-51.5001 478.643,-48 468.643,-44.5001 468.6431,-51.5001"/>
</g>
</g>
</svg>
