<?xml version="1.0" encoding="UTF-8" standalone="no"?>
<!DOCTYPE svg PUBLIC "-//W3C//DTD SVG 1.1//EN"
 "http://www.w3.org/Graphics/SVG/1.1/DTD/svg11.dtd">
<!-- Generated by graphviz version 2.40.1 (20161225.0304)
 -->
<!-- Title: AddGyrationRadius::without_sqrted Pages: 1 -->
<svg width="257pt" height="39pt"
 viewBox="0.00 0.00 257.00 39.00" xmlns="http://www.w3.org/2000/svg" xmlns:xlink="http://www.w3.org/1999/xlink">
<g id="graph0" class="graph" transform="scale(1 1) rotate(0) translate(4 35)">
<title>AddGyrationRadius::without_sqrted</title>
<polygon fill="#ffffff" stroke="transparent" points="-4,4 -4,-35 253,-35 253,4 -4,4"/>
<!-- Node10 -->
<g id="node1" class="node">
<title>Node10</title>
<polygon fill="#bfbfbf" stroke="#000000" points="0,-.5 0,-30.5 107,-30.5 107,-.5 0,-.5"/>
<text text-anchor="start" x="8" y="-18.5" font-family="Helvetica,sans-Serif" font-size="10.00" fill="#000000">AddGyrationRadius::</text>
<text text-anchor="middle" x="53.5" y="-7.5" font-family="Helvetica,sans-Serif" font-size="10.00" fill="#000000">without_sqrted</text>
</g>
<!-- Node11 -->
<g id="node2" class="node">
<title>Node11</title>
<g id="a_node2"><a xlink:href="py__add__gyration__radius_8h.html#a048d51f0746bbe667f9e7ecb7f1431c7" target="_top" xlink:title="Function to bind AddGyrationRadius class to Python. ">
<polygon fill="#ffffff" stroke="#000000" points="143,-.5 143,-30.5 249,-30.5 249,-.5 143,-.5"/>
<text text-anchor="start" x="151" y="-18.5" font-family="Helvetica,sans-Serif" font-size="10.00" fill="#000000">pybind_add_gyration</text>
<text text-anchor="middle" x="196" y="-7.5" font-family="Helvetica,sans-Serif" font-size="10.00" fill="#000000">_radius</text>
</a>
</g>
</g>
<!-- Node10&#45;&gt;Node11 -->
<g id="edge1" class="edge">
<title>Node10&#45;&gt;Node11</title>
<path fill="none" stroke="#191970" d="M117.6217,-15.5C126.1059,-15.5 134.7263,-15.5 142.9952,-15.5"/>
<polygon fill="#191970" stroke="#191970" points="117.3732,-12.0001 107.3731,-15.5 117.3731,-19.0001 117.3732,-12.0001"/>
</g>
</g>
</svg>
