<?xml version="1.0" encoding="UTF-8" standalone="no"?>
<!DOCTYPE svg PUBLIC "-//W3C//DTD SVG 1.1//EN"
 "http://www.w3.org/Graphics/SVG/1.1/DTD/svg11.dtd">
<!-- Generated by graphviz version 2.40.1 (20161225.0304)
 -->
<!-- Title: PyElement Pages: 1 -->
<svg width="260pt" height="573pt"
 viewBox="0.00 0.00 260.00 573.00" xmlns="http://www.w3.org/2000/svg" xmlns:xlink="http://www.w3.org/1999/xlink">
<g id="graph0" class="graph" transform="scale(1 1) rotate(0) translate(4 569)">
<title>PyElement</title>
<polygon fill="#ffffff" stroke="transparent" points="-4,4 -4,-569 256,-569 256,4 -4,4"/>
<!-- Node0 -->
<g id="node1" class="node">
<title>Node0</title>
<polygon fill="#bfbfbf" stroke="#000000" points="82,-.5 82,-79.5 173,-79.5 173,-.5 82,-.5"/>
<text text-anchor="middle" x="127.5" y="-67.5" font-family="Helvetica,sans-Serif" font-size="10.00" fill="#000000">PyElement</text>
<polyline fill="none" stroke="#000000" points="82,-60.5 173,-60.5 "/>
<text text-anchor="middle" x="127.5" y="-48.5" font-family="Helvetica,sans-Serif" font-size="10.00" fill="#000000"> </text>
<polyline fill="none" stroke="#000000" points="82,-41.5 173,-41.5 "/>
<text text-anchor="start" x="90" y="-29.5" font-family="Helvetica,sans-Serif" font-size="10.00" fill="#000000">+ get_element()</text>
<text text-anchor="start" x="90" y="-18.5" font-family="Helvetica,sans-Serif" font-size="10.00" fill="#000000">+ get_generator()</text>
<text text-anchor="start" x="90" y="-7.5" font-family="Helvetica,sans-Serif" font-size="10.00" fill="#000000">+ Element()</text>
</g>
<!-- Node1 -->
<g id="node2" class="node">
<title>Node1</title>
<g id="a_node2"><a xlink:href="classElement.html" target="_top" xlink:title="Element is a Generator containing data element (or entity) as a Json object. ">
<polygon fill="#ffffff" stroke="#000000" points="73,-116.5 73,-382.5 182,-382.5 182,-116.5 73,-116.5"/>
<text text-anchor="middle" x="127.5" y="-370.5" font-family="Helvetica,sans-Serif" font-size="10.00" fill="#000000">Element</text>
<polyline fill="none" stroke="#000000" points="73,-363.5 182,-363.5 "/>
<text text-anchor="start" x="81" y="-351.5" font-family="Helvetica,sans-Serif" font-size="10.00" fill="#000000">&#45; n_remain</text>
<text text-anchor="start" x="81" y="-340.5" font-family="Helvetica,sans-Serif" font-size="10.00" fill="#000000">&#45; dataid</text>
<text text-anchor="start" x="81" y="-329.5" font-family="Helvetica,sans-Serif" font-size="10.00" fill="#000000">&#45; data</text>
<text text-anchor="start" x="81" y="-318.5" font-family="Helvetica,sans-Serif" font-size="10.00" fill="#000000">&#45; datakeys</text>
<text text-anchor="start" x="81" y="-307.5" font-family="Helvetica,sans-Serif" font-size="10.00" fill="#000000">&#45; omp_lock</text>
<text text-anchor="start" x="81" y="-296.5" font-family="Helvetica,sans-Serif" font-size="10.00" fill="#000000">&#45; instance_count</text>
<polyline fill="none" stroke="#000000" points="73,-289.5 182,-289.5 "/>
<text text-anchor="start" x="81" y="-277.5" font-family="Helvetica,sans-Serif" font-size="10.00" fill="#000000">+ Element()</text>
<text text-anchor="start" x="81" y="-266.5" font-family="Helvetica,sans-Serif" font-size="10.00" fill="#000000">+ ~Element()</text>
<text text-anchor="start" x="81" y="-255.5" font-family="Helvetica,sans-Serif" font-size="10.00" fill="#000000">+ get_element()</text>
<text text-anchor="start" x="81" y="-244.5" font-family="Helvetica,sans-Serif" font-size="10.00" fill="#000000">+ get_generator()</text>
<text text-anchor="start" x="81" y="-233.5" font-family="Helvetica,sans-Serif" font-size="10.00" fill="#000000">+ append_updater()</text>
<text text-anchor="start" x="81" y="-222.5" font-family="Helvetica,sans-Serif" font-size="10.00" fill="#000000">+ get_data()</text>
<text text-anchor="start" x="81" y="-211.5" font-family="Helvetica,sans-Serif" font-size="10.00" fill="#000000">+ get_data()</text>
<text text-anchor="start" x="81" y="-200.5" font-family="Helvetica,sans-Serif" font-size="10.00" fill="#000000">+ get_keys()</text>
<text text-anchor="start" x="81" y="-189.5" font-family="Helvetica,sans-Serif" font-size="10.00" fill="#000000">+ array1d()</text>
<text text-anchor="start" x="81" y="-178.5" font-family="Helvetica,sans-Serif" font-size="10.00" fill="#000000">+ array2d()</text>
<text text-anchor="start" x="81" y="-167.5" font-family="Helvetica,sans-Serif" font-size="10.00" fill="#000000">and 8 more...</text>
<text text-anchor="start" x="81" y="-156.5" font-family="Helvetica,sans-Serif" font-size="10.00" fill="#000000">&#45; increment_remain()</text>
<text text-anchor="start" x="81" y="-145.5" font-family="Helvetica,sans-Serif" font-size="10.00" fill="#000000">&#45; decrement_remain()</text>
<text text-anchor="start" x="81" y="-134.5" font-family="Helvetica,sans-Serif" font-size="10.00" fill="#000000">&#45; update_data()</text>
<text text-anchor="start" x="81" y="-123.5" font-family="Helvetica,sans-Serif" font-size="10.00" fill="#000000">&#45; init_for_python()</text>
</a>
</g>
</g>
<!-- Node1&#45;&gt;Node0 -->
<g id="edge1" class="edge">
<title>Node1&#45;&gt;Node0</title>
<path fill="none" stroke="#191970" d="M127.5,-105.9619C127.5,-96.6583 127.5,-87.8301 127.5,-79.8348"/>
<polygon fill="none" stroke="#191970" points="124.0001,-106.2269 127.5,-116.2269 131.0001,-106.227 124.0001,-106.2269"/>
</g>
<!-- Node2 -->
<g id="node3" class="node">
<title>Node2</title>
<g id="a_node3"><a xlink:href="classGenerator.html" target="_top" xlink:title="Generator is an abstract class to generate data. ">
<polygon fill="#ffffff" stroke="#000000" points="0,-419.5 0,-564.5 121,-564.5 121,-419.5 0,-419.5"/>
<text text-anchor="middle" x="60.5" y="-552.5" font-family="Helvetica,sans-Serif" font-size="10.00" fill="#000000">Generator</text>
<polyline fill="none" stroke="#000000" points="0,-545.5 121,-545.5 "/>
<text text-anchor="start" x="8" y="-533.5" font-family="Helvetica,sans-Serif" font-size="10.00" fill="#000000"># update_chain</text>
<polyline fill="none" stroke="#000000" points="0,-526.5 121,-526.5 "/>
<text text-anchor="start" x="8" y="-514.5" font-family="Helvetica,sans-Serif" font-size="10.00" fill="#000000">+ Generator()</text>
<text text-anchor="start" x="8" y="-503.5" font-family="Helvetica,sans-Serif" font-size="10.00" fill="#000000">+ ~Generator()</text>
<text text-anchor="start" x="8" y="-492.5" font-family="Helvetica,sans-Serif" font-size="10.00" fill="#000000">+ get_element()</text>
<text text-anchor="start" x="8" y="-481.5" font-family="Helvetica,sans-Serif" font-size="10.00" fill="#000000">+ get_generator()</text>
<text text-anchor="start" x="8" y="-470.5" font-family="Helvetica,sans-Serif" font-size="10.00" fill="#000000">+ appoint()</text>
<text text-anchor="start" x="8" y="-459.5" font-family="Helvetica,sans-Serif" font-size="10.00" fill="#000000">+ hello()</text>
<text text-anchor="start" x="8" y="-448.5" font-family="Helvetica,sans-Serif" font-size="10.00" fill="#000000">+ goodbye()</text>
<text text-anchor="start" x="8" y="-437.5" font-family="Helvetica,sans-Serif" font-size="10.00" fill="#000000">+ get_update_chain()</text>
<text text-anchor="start" x="8" y="-426.5" font-family="Helvetica,sans-Serif" font-size="10.00" fill="#000000"># merge_update_chain()</text>
</a>
</g>
</g>
<!-- Node2&#45;&gt;Node1 -->
<g id="edge2" class="edge">
<title>Node2&#45;&gt;Node1</title>
<path fill="none" stroke="#191970" d="M83.2674,-409.5957C85.6614,-400.9308 88.1372,-391.9699 90.6382,-382.9176"/>
<polygon fill="none" stroke="#191970" points="79.8918,-408.671 80.6022,-419.242 86.639,-410.5352 79.8918,-408.671"/>
</g>
<!-- Node3 -->
<g id="node4" class="node">
<title>Node3</title>
<polygon fill="#ffffff" stroke="#bfbfbf" points="139,-463.5 139,-520.5 252,-520.5 252,-463.5 139,-463.5"/>
<text text-anchor="middle" x="195.5" y="-508.5" font-family="Helvetica,sans-Serif" font-size="10.00" fill="#000000">EnShThis&lt; Element &gt;</text>
<polyline fill="none" stroke="#bfbfbf" points="139,-501.5 252,-501.5 "/>
<text text-anchor="middle" x="195.5" y="-489.5" font-family="Helvetica,sans-Serif" font-size="10.00" fill="#000000"> </text>
<polyline fill="none" stroke="#bfbfbf" points="139,-482.5 252,-482.5 "/>
<text text-anchor="middle" x="195.5" y="-470.5" font-family="Helvetica,sans-Serif" font-size="10.00" fill="#000000"> </text>
</g>
<!-- Node3&#45;&gt;Node1 -->
<g id="edge3" class="edge">
<title>Node3&#45;&gt;Node1</title>
<path fill="none" stroke="#191970" d="M184.6994,-453.483C179.1883,-433.8294 172.1225,-408.6318 164.8504,-382.698"/>
<polygon fill="none" stroke="#191970" points="181.3624,-454.5462 187.4325,-463.2298 188.1024,-452.6562 181.3624,-454.5462"/>
</g>
</g>
</svg>
