<?xml version="1.0" encoding="UTF-8" standalone="no"?>
<!DOCTYPE svg PUBLIC "-//W3C//DTD SVG 1.1//EN"
 "http://www.w3.org/Graphics/SVG/1.1/DTD/svg11.dtd">
<!-- Generated by graphviz version 2.40.1 (20161225.0304)
 -->
<!-- Title: Processor::register_generator Pages: 1 -->
<svg width="266pt" height="78pt"
 viewBox="0.00 0.00 266.00 77.50" xmlns="http://www.w3.org/2000/svg" xmlns:xlink="http://www.w3.org/1999/xlink">
<g id="graph0" class="graph" transform="scale(1 1) rotate(0) translate(4 73.5)">
<title>Processor::register_generator</title>
<polygon fill="#ffffff" stroke="transparent" points="-4,4 -4,-73.5 262,-73.5 262,4 -4,4"/>
<!-- Node5 -->
<g id="node1" class="node">
<title>Node5</title>
<polygon fill="#bfbfbf" stroke="#000000" points="0,-22.5 0,-52.5 99,-52.5 99,-22.5 0,-22.5"/>
<text text-anchor="start" x="8" y="-40.5" font-family="Helvetica,sans-Serif" font-size="10.00" fill="#000000">Processor::register</text>
<text text-anchor="middle" x="49.5" y="-29.5" font-family="Helvetica,sans-Serif" font-size="10.00" fill="#000000">_generator</text>
</g>
<!-- Node6 -->
<g id="node2" class="node">
<title>Node6</title>
<g id="a_node2"><a xlink:href="classProData.html#afcff6bc44862d6f5a42877d1623606b2" target="_top" xlink:title="Constructor of ProData class for one Element object. ">
<polygon fill="#ffffff" stroke="#000000" points="150,-50 150,-69 243,-69 243,-50 150,-50"/>
<text text-anchor="middle" x="196.5" y="-57" font-family="Helvetica,sans-Serif" font-size="10.00" fill="#000000">ProData::ProData</text>
</a>
</g>
</g>
<!-- Node5&#45;&gt;Node6 -->
<g id="edge1" class="edge">
<title>Node5&#45;&gt;Node6</title>
<path fill="none" stroke="#191970" d="M109.4011,-46.4648C122.8541,-48.4782 136.937,-50.5858 149.761,-52.5051"/>
<polygon fill="#191970" stroke="#191970" points="109.6754,-42.9669 99.2675,-44.9482 108.6393,-49.8898 109.6754,-42.9669"/>
</g>
<!-- Node7 -->
<g id="node3" class="node">
<title>Node7</title>
<g id="a_node3"><a xlink:href="classProDistanceInMolecule.html#ac6ce74799e397e16310818529d2d1df3" target="_top" xlink:title="Constructor of ProDistanceInMolecule class for a pair of two Element objects. ">
<polygon fill="#ffffff" stroke="#000000" points="135,-.5 135,-30.5 258,-30.5 258,-.5 135,-.5"/>
<text text-anchor="start" x="143" y="-18.5" font-family="Helvetica,sans-Serif" font-size="10.00" fill="#000000">ProDistanceInMolecule</text>
<text text-anchor="middle" x="196.5" y="-7.5" font-family="Helvetica,sans-Serif" font-size="10.00" fill="#000000">::ProDistanceInMolecule</text>
</a>
</g>
</g>
<!-- Node5&#45;&gt;Node7 -->
<g id="edge2" class="edge">
<title>Node5&#45;&gt;Node7</title>
<path fill="none" stroke="#191970" d="M109.3466,-28.5434C117.7348,-27.288 126.369,-25.9958 134.7911,-24.7354"/>
<polygon fill="#191970" stroke="#191970" points="108.6393,-25.1102 99.2675,-30.0518 109.6754,-32.0331 108.6393,-25.1102"/>
</g>
</g>
</svg>
