<?xml version="1.0" encoding="UTF-8" standalone="no"?>
<!DOCTYPE svg PUBLIC "-//W3C//DTD SVG 1.1//EN"
 "http://www.w3.org/Graphics/SVG/1.1/DTD/svg11.dtd">
<!-- Generated by graphviz version 2.40.1 (20161225.0304)
 -->
<!-- Title: StaCustom Pages: 1 -->
<svg width="138pt" height="441pt"
 viewBox="0.00 0.00 138.00 441.00" xmlns="http://www.w3.org/2000/svg" xmlns:xlink="http://www.w3.org/1999/xlink">
<g id="graph0" class="graph" transform="scale(1 1) rotate(0) translate(4 437)">
<title>StaCustom</title>
<polygon fill="#ffffff" stroke="transparent" points="-4,4 -4,-437 134,-437 134,4 -4,4"/>
<!-- Node0 -->
<g id="node1" class="node">
<title>Node0</title>
<polygon fill="#bfbfbf" stroke="#000000" points="19,-.5 19,-123.5 111,-123.5 111,-.5 19,-.5"/>
<text text-anchor="middle" x="65" y="-111.5" font-family="Helvetica,sans-Serif" font-size="10.00" fill="#000000">StaCustom</text>
<polyline fill="none" stroke="#000000" points="19,-104.5 111,-104.5 "/>
<text text-anchor="start" x="27" y="-92.5" font-family="Helvetica,sans-Serif" font-size="10.00" fill="#000000">&#45; json</text>
<text text-anchor="start" x="27" y="-81.5" font-family="Helvetica,sans-Serif" font-size="10.00" fill="#000000">&#45; jsonkeys</text>
<polyline fill="none" stroke="#000000" points="19,-74.5 111,-74.5 "/>
<text text-anchor="start" x="27" y="-62.5" font-family="Helvetica,sans-Serif" font-size="10.00" fill="#000000">+ StaCustom()</text>
<text text-anchor="start" x="27" y="-51.5" font-family="Helvetica,sans-Serif" font-size="10.00" fill="#000000">+ ~StaCustom()</text>
<text text-anchor="start" x="27" y="-40.5" font-family="Helvetica,sans-Serif" font-size="10.00" fill="#000000">+ StaCustom()</text>
<text text-anchor="start" x="27" y="-29.5" font-family="Helvetica,sans-Serif" font-size="10.00" fill="#000000">+ ~StaCustom()</text>
<text text-anchor="start" x="27" y="-18.5" font-family="Helvetica,sans-Serif" font-size="10.00" fill="#000000"># compute_impl()</text>
<text text-anchor="start" x="27" y="-7.5" font-family="Helvetica,sans-Serif" font-size="10.00" fill="#000000"># compute_impl()</text>
</g>
<!-- Node1 -->
<g id="node2" class="node">
<title>Node1</title>
<g id="a_node2"><a xlink:href="classStarter.html" target="_top" xlink:title="{Starter\n||+ ~Starter()\l+ compute()\l+ Updater()\l&#45; sort_by_id()\l}">
<polygon fill="#ffffff" stroke="#000000" points="28,-160.5 28,-250.5 102,-250.5 102,-160.5 28,-160.5"/>
<text text-anchor="middle" x="65" y="-238.5" font-family="Helvetica,sans-Serif" font-size="10.00" fill="#000000">Starter</text>
<polyline fill="none" stroke="#000000" points="28,-231.5 102,-231.5 "/>
<text text-anchor="middle" x="65" y="-219.5" font-family="Helvetica,sans-Serif" font-size="10.00" fill="#000000"> </text>
<polyline fill="none" stroke="#000000" points="28,-212.5 102,-212.5 "/>
<text text-anchor="start" x="36" y="-200.5" font-family="Helvetica,sans-Serif" font-size="10.00" fill="#000000">+ ~Starter()</text>
<text text-anchor="start" x="36" y="-189.5" font-family="Helvetica,sans-Serif" font-size="10.00" fill="#000000">+ compute()</text>
<text text-anchor="start" x="36" y="-178.5" font-family="Helvetica,sans-Serif" font-size="10.00" fill="#000000">+ Updater()</text>
<text text-anchor="start" x="36" y="-167.5" font-family="Helvetica,sans-Serif" font-size="10.00" fill="#000000">&#45; sort_by_id()</text>
</a>
</g>
</g>
<!-- Node1&#45;&gt;Node0 -->
<g id="edge1" class="edge">
<title>Node1&#45;&gt;Node0</title>
<path fill="none" stroke="#191970" d="M58.4145,-150.4136C58.2389,-141.665 58.2039,-132.5665 58.3095,-123.6783"/>
<polygon fill="none" stroke="#191970" points="54.9178,-150.5871 58.6852,-160.4894 61.9152,-150.399 54.9178,-150.5871"/>
</g>
<!-- Node1&#45;&gt;Node0 -->
<g id="edge3" class="edge">
<title>Node1&#45;&gt;Node0</title>
<path fill="none" stroke="#191970" d="M71.5855,-150.4136C71.7611,-141.665 71.7961,-132.5665 71.6905,-123.6783"/>
<polygon fill="none" stroke="#191970" points="68.0848,-150.399 71.3148,-160.4894 75.0822,-150.5871 68.0848,-150.399"/>
</g>
<!-- Node2 -->
<g id="node3" class="node">
<title>Node2</title>
<g id="a_node3"><a xlink:href="classUpdater.html" target="_top" xlink:title="Updater is an abstract class to update data held by Element class. ">
<polygon fill="#ffffff" stroke="#000000" points="0,-287.5 0,-432.5 130,-432.5 130,-287.5 0,-287.5"/>
<text text-anchor="middle" x="65" y="-420.5" font-family="Helvetica,sans-Serif" font-size="10.00" fill="#000000">Updater</text>
<polyline fill="none" stroke="#000000" points="0,-413.5 130,-413.5 "/>
<text text-anchor="start" x="8" y="-401.5" font-family="Helvetica,sans-Serif" font-size="10.00" fill="#000000"># ext_generator</text>
<text text-anchor="start" x="8" y="-390.5" font-family="Helvetica,sans-Serif" font-size="10.00" fill="#000000">&#45; dataid_blacklist</text>
<text text-anchor="start" x="8" y="-379.5" font-family="Helvetica,sans-Serif" font-size="10.00" fill="#000000">&#45; omp_lock</text>
<polyline fill="none" stroke="#000000" points="0,-372.5 130,-372.5 "/>
<text text-anchor="start" x="8" y="-360.5" font-family="Helvetica,sans-Serif" font-size="10.00" fill="#000000">+ Updater()</text>
<text text-anchor="start" x="8" y="-349.5" font-family="Helvetica,sans-Serif" font-size="10.00" fill="#000000">+ ~Updater()</text>
<text text-anchor="start" x="8" y="-338.5" font-family="Helvetica,sans-Serif" font-size="10.00" fill="#000000">+ compute()</text>
<text text-anchor="start" x="8" y="-327.5" font-family="Helvetica,sans-Serif" font-size="10.00" fill="#000000">+ remove_from_blacklist()</text>
<text text-anchor="start" x="8" y="-316.5" font-family="Helvetica,sans-Serif" font-size="10.00" fill="#000000">+ get_ext_generator()</text>
<text text-anchor="start" x="8" y="-305.5" font-family="Helvetica,sans-Serif" font-size="10.00" fill="#000000"># compute_impl()</text>
<text text-anchor="start" x="8" y="-294.5" font-family="Helvetica,sans-Serif" font-size="10.00" fill="#000000"># check_blacklist()</text>
</a>
</g>
</g>
<!-- Node2&#45;&gt;Node1 -->
<g id="edge2" class="edge">
<title>Node2&#45;&gt;Node1</title>
<path fill="none" stroke="#191970" d="M65,-276.9929C65,-267.903 65,-258.9201 65,-250.5512"/>
<polygon fill="none" stroke="#191970" points="61.5001,-277.274 65,-287.2741 68.5001,-277.2741 61.5001,-277.274"/>
</g>
</g>
</svg>
