<?xml version="1.0" encoding="UTF-8" standalone="no"?>
<!DOCTYPE svg PUBLIC "-//W3C//DTD SVG 1.1//EN"
 "http://www.w3.org/Graphics/SVG/1.1/DTD/svg11.dtd">
<!-- Generated by graphviz version 2.40.1 (20161225.0304)
 -->
<!-- Title: Filter::compute Pages: 1 -->
<svg width="365pt" height="214pt"
 viewBox="0.00 0.00 365.00 213.50" xmlns="http://www.w3.org/2000/svg" xmlns:xlink="http://www.w3.org/1999/xlink">
<g id="graph0" class="graph" transform="scale(1 1) rotate(0) translate(4 209.5)">
<title>Filter::compute</title>
<polygon fill="#ffffff" stroke="transparent" points="-4,4 -4,-209.5 361,-209.5 361,4 -4,4"/>
<!-- Node0 -->
<g id="node1" class="node">
<title>Node0</title>
<polygon fill="#bfbfbf" stroke="#000000" points="0,-82.5 0,-101.5 82,-101.5 82,-82.5 0,-82.5"/>
<text text-anchor="middle" x="41" y="-89.5" font-family="Helvetica,sans-Serif" font-size="10.00" fill="#000000">Filter::compute</text>
</g>
<!-- Node1 -->
<g id="node2" class="node">
<title>Node1</title>
<g id="a_node2"><a xlink:href="classUpdater.html#a8e144f917459792836eefd723c2545e9" target="_top" xlink:title="Updater::check_update\l_requirest_for">
<polygon fill="#ffffff" stroke="#000000" points="118,-175 118,-205 235,-205 235,-175 118,-175"/>
<text text-anchor="start" x="126" y="-193" font-family="Helvetica,sans-Serif" font-size="10.00" fill="#000000">Updater::check_update</text>
<text text-anchor="middle" x="176.5" y="-182" font-family="Helvetica,sans-Serif" font-size="10.00" fill="#000000">_requirest_for</text>
</a>
</g>
</g>
<!-- Node0&#45;&gt;Node1 -->
<g id="edge1" class="edge">
<title>Node0&#45;&gt;Node1</title>
<path fill="none" stroke="#191970" d="M49.0633,-101.8488C62.1433,-117.2965 89.4162,-147.3778 118,-166 120.2923,-167.4934 122.6927,-168.9235 125.1584,-170.2885"/>
<polygon fill="#191970" stroke="#191970" points="123.7971,-173.5229 134.2963,-174.9427 126.9741,-167.2853 123.7971,-173.5229"/>
</g>
<!-- Node2 -->
<g id="node3" class="node">
<title>Node2</title>
<g id="a_node3"><a xlink:href="classUpdater.html#ab3aade931c7812d866e73ac1009e6cea" target="_top" xlink:title="Make check_required_keys. ">
<polygon fill="#ffffff" stroke="#000000" points="120.5,-126 120.5,-156 232.5,-156 232.5,-126 120.5,-126"/>
<text text-anchor="start" x="128.5" y="-144" font-family="Helvetica,sans-Serif" font-size="10.00" fill="#000000">Updater::make_check</text>
<text text-anchor="middle" x="176.5" y="-133" font-family="Helvetica,sans-Serif" font-size="10.00" fill="#000000">_required_keys</text>
</a>
</g>
</g>
<!-- Node0&#45;&gt;Node2 -->
<g id="edge2" class="edge">
<title>Node0&#45;&gt;Node2</title>
<path fill="none" stroke="#191970" d="M67.4474,-101.564C83.928,-107.5238 105.6813,-115.3903 125.4213,-122.5287"/>
<polygon fill="#191970" stroke="#191970" points="124.3239,-125.8537 134.9182,-125.963 126.7045,-119.2709 124.3239,-125.8537"/>
</g>
<!-- Node3 -->
<g id="node4" class="node">
<title>Node3</title>
<g id="a_node4"><a xlink:href="classUpdater.html#ad973d7a2bc52bc390ba299335f3ffdf2" target="_top" xlink:title="Make check_optional_keys. ">
<polygon fill="#ffffff" stroke="#000000" points="120.5,-77 120.5,-107 232.5,-107 232.5,-77 120.5,-77"/>
<text text-anchor="start" x="128.5" y="-95" font-family="Helvetica,sans-Serif" font-size="10.00" fill="#000000">Updater::make_check</text>
<text text-anchor="middle" x="176.5" y="-84" font-family="Helvetica,sans-Serif" font-size="10.00" fill="#000000">_optional_keys</text>
</a>
</g>
</g>
<!-- Node0&#45;&gt;Node3 -->
<g id="edge3" class="edge">
<title>Node0&#45;&gt;Node3</title>
<path fill="none" stroke="#191970" d="M82.0222,-92C90.8314,-92 100.3586,-92 109.8567,-92"/>
<polygon fill="#191970" stroke="#191970" points="110.1165,-95.5001 120.1165,-92 110.1165,-88.5001 110.1165,-95.5001"/>
</g>
<!-- Node4 -->
<g id="node5" class="node">
<title>Node4</title>
<g id="a_node5"><a xlink:href="classUpdater.html#a8f2256a52be76c16dc71987aca1164c9" target="_top" xlink:title="Implementation of computation for updating Element::data. ">
<polygon fill="#ffffff" stroke="#000000" points="118,-38.5 118,-57.5 235,-57.5 235,-38.5 118,-38.5"/>
<text text-anchor="middle" x="176.5" y="-45.5" font-family="Helvetica,sans-Serif" font-size="10.00" fill="#000000">Updater::compute_impl</text>
</a>
</g>
</g>
<!-- Node0&#45;&gt;Node4 -->
<g id="edge4" class="edge">
<title>Node0&#45;&gt;Node4</title>
<path fill="none" stroke="#191970" d="M70.4015,-82.4527C90.022,-76.0814 116.0408,-67.6325 137.4015,-60.6962"/>
<polygon fill="#191970" stroke="#191970" points="138.7258,-63.9462 147.1559,-57.5287 136.5638,-57.2884 138.7258,-63.9462"/>
</g>
<!-- Node5 -->
<g id="node6" class="node">
<title>Node5</title>
<g id="a_node6"><a xlink:href="namespaceutils.html#a362e3ea9867513a7bba06b6382d6527b" target="_top" xlink:title="Waning with a message. ">
<polygon fill="#ffffff" stroke="#000000" points="139.5,-.5 139.5,-19.5 213.5,-19.5 213.5,-.5 139.5,-.5"/>
<text text-anchor="middle" x="176.5" y="-7.5" font-family="Helvetica,sans-Serif" font-size="10.00" fill="#000000">utils::warning</text>
</a>
</g>
</g>
<!-- Node0&#45;&gt;Node5 -->
<g id="edge5" class="edge">
<title>Node0&#45;&gt;Node5</title>
<path fill="none" stroke="#191970" d="M50.574,-82.1225C64.331,-68.4381 91.0172,-43.7367 118,-29 121.9552,-26.8399 126.1962,-24.8756 130.5213,-23.1012"/>
<polygon fill="#191970" stroke="#191970" points="131.9185,-26.3152 140.0457,-19.5182 129.4537,-19.7635 131.9185,-26.3152"/>
</g>
<!-- Node6 -->
<g id="node7" class="node">
<title>Node6</title>
<g id="a_node7"><a xlink:href="namespaceutils.html#a3b5f21e223fdb0898119de641a1685f6" target="_top" xlink:title="Print to standard output. ">
<polygon fill="#ffffff" stroke="#000000" points="271,-.5 271,-19.5 357,-19.5 357,-.5 271,-.5"/>
<text text-anchor="middle" x="314" y="-7.5" font-family="Helvetica,sans-Serif" font-size="10.00" fill="#000000">utils::_message</text>
</a>
</g>
</g>
<!-- Node5&#45;&gt;Node6 -->
<g id="edge6" class="edge">
<title>Node5&#45;&gt;Node6</title>
<path fill="none" stroke="#191970" d="M213.7095,-10C228.1933,-10 245.0616,-10 260.7858,-10"/>
<polygon fill="#191970" stroke="#191970" points="260.9171,-13.5001 270.917,-10 260.917,-6.5001 260.9171,-13.5001"/>
</g>
</g>
</svg>
