<?xml version="1.0" encoding="UTF-8" standalone="no"?>
<!DOCTYPE svg PUBLIC "-//W3C//DTD SVG 1.1//EN"
 "http://www.w3.org/Graphics/SVG/1.1/DTD/svg11.dtd">
<!-- Generated by graphviz version 2.40.1 (20161225.0304)
 -->
<!-- Title: Filter::compute Pages: 1 -->
<svg width="372pt" height="154pt"
 viewBox="0.00 0.00 372.00 154.00" xmlns="http://www.w3.org/2000/svg" xmlns:xlink="http://www.w3.org/1999/xlink">
<g id="graph0" class="graph" transform="scale(1 1) rotate(0) translate(4 150)">
<title>Filter::compute</title>
<polygon fill="#ffffff" stroke="transparent" points="-4,4 -4,-150 368,-150 368,4 -4,4"/>
<!-- Node0 -->
<g id="node1" class="node">
<title>Node0</title>
<polygon fill="#bfbfbf" stroke="#000000" points="0,-60.5 0,-79.5 82,-79.5 82,-60.5 0,-60.5"/>
<text text-anchor="middle" x="41" y="-67.5" font-family="Helvetica,sans-Serif" font-size="10.00" fill="#000000">Filter::compute</text>
</g>
<!-- Node1 -->
<g id="node2" class="node">
<title>Node1</title>
<g id="a_node2"><a xlink:href="classUpdater.html#a2184a4efa52ad2f4a631c134379ef7b8" target="_top" xlink:title="Updater::check_blacklist">
<polygon fill="#ffffff" stroke="#000000" points="118,-126.5 118,-145.5 242,-145.5 242,-126.5 118,-126.5"/>
<text text-anchor="middle" x="180" y="-133.5" font-family="Helvetica,sans-Serif" font-size="10.00" fill="#000000">Updater::check_blacklist</text>
</a>
</g>
</g>
<!-- Node0&#45;&gt;Node1 -->
<g id="edge1" class="edge">
<title>Node0&#45;&gt;Node1</title>
<path fill="none" stroke="#191970" d="M54.3379,-79.5759C69.2578,-89.9388 94.4328,-106.3993 118,-117 123.0052,-119.2514 128.3525,-121.3343 133.73,-123.2313"/>
<polygon fill="#191970" stroke="#191970" points="132.7814,-126.6043 143.375,-126.4413 134.9919,-119.9625 132.7814,-126.6043"/>
</g>
<!-- Node2 -->
<g id="node3" class="node">
<title>Node2</title>
<g id="a_node3"><a xlink:href="classDataKeys.html#af27295623e19f9bda8186bfd3374a7d8" target="_top" xlink:title="Set a name of class of which instance calls required. ">
<polygon fill="#ffffff" stroke="#000000" points="118.5,-77 118.5,-107 241.5,-107 241.5,-77 118.5,-77"/>
<text text-anchor="start" x="126.5" y="-95" font-family="Helvetica,sans-Serif" font-size="10.00" fill="#000000">DataKeys::set_checking</text>
<text text-anchor="middle" x="180" y="-84" font-family="Helvetica,sans-Serif" font-size="10.00" fill="#000000">_classname</text>
</a>
</g>
</g>
<!-- Node0&#45;&gt;Node2 -->
<g id="edge2" class="edge">
<title>Node0&#45;&gt;Node2</title>
<path fill="none" stroke="#191970" d="M82.3282,-76.5412C90.5266,-77.8387 99.3544,-79.236 108.2317,-80.641"/>
<polygon fill="#191970" stroke="#191970" points="107.8202,-84.1194 118.2445,-82.2257 108.9146,-77.2054 107.8202,-84.1194"/>
</g>
<!-- Node3 -->
<g id="node4" class="node">
<title>Node3</title>
<g id="a_node4"><a xlink:href="classUpdater.html#a288fd0d27e760ec1d2e1f689641b01a7" target="_top" xlink:title="Implementation of computation for updating Element::data. ">
<polygon fill="#ffffff" stroke="#000000" points="121.5,-38.5 121.5,-57.5 238.5,-57.5 238.5,-38.5 121.5,-38.5"/>
<text text-anchor="middle" x="180" y="-45.5" font-family="Helvetica,sans-Serif" font-size="10.00" fill="#000000">Updater::compute_impl</text>
</a>
</g>
</g>
<!-- Node0&#45;&gt;Node3 -->
<g id="edge3" class="edge">
<title>Node0&#45;&gt;Node3</title>
<path fill="none" stroke="#191970" d="M82.3282,-63.4588C91.5112,-62.0054 101.4841,-60.427 111.4315,-58.8526"/>
<polygon fill="#191970" stroke="#191970" points="112.0104,-62.3046 121.3403,-57.2843 110.9161,-55.3907 112.0104,-62.3046"/>
</g>
<!-- Node4 -->
<g id="node5" class="node">
<title>Node4</title>
<g id="a_node5"><a xlink:href="namespaceutils.html#a362e3ea9867513a7bba06b6382d6527b" target="_top" xlink:title="Waning with a message. ">
<polygon fill="#ffffff" stroke="#000000" points="143,-.5 143,-19.5 217,-19.5 217,-.5 143,-.5"/>
<text text-anchor="middle" x="180" y="-7.5" font-family="Helvetica,sans-Serif" font-size="10.00" fill="#000000">utils::warning</text>
</a>
</g>
</g>
<!-- Node0&#45;&gt;Node4 -->
<g id="edge4" class="edge">
<title>Node0&#45;&gt;Node4</title>
<path fill="none" stroke="#191970" d="M56.7865,-60.4362C72.053,-51.469 96.038,-38.1131 118,-29 123.3958,-26.7611 129.1515,-24.6491 134.8995,-22.7047"/>
<polygon fill="#191970" stroke="#191970" points="136.0642,-26.0066 144.5008,-19.5977 133.909,-19.3466 136.0642,-26.0066"/>
</g>
<!-- Node5 -->
<g id="node6" class="node">
<title>Node5</title>
<g id="a_node6"><a xlink:href="namespaceutils.html#a3b5f21e223fdb0898119de641a1685f6" target="_top" xlink:title="Print to standard output. ">
<polygon fill="#ffffff" stroke="#000000" points="278,-.5 278,-19.5 364,-19.5 364,-.5 278,-.5"/>
<text text-anchor="middle" x="321" y="-7.5" font-family="Helvetica,sans-Serif" font-size="10.00" fill="#000000">utils::_message</text>
</a>
</g>
</g>
<!-- Node4&#45;&gt;Node5 -->
<g id="edge5" class="edge">
<title>Node4&#45;&gt;Node5</title>
<path fill="none" stroke="#191970" d="M217.0461,-10C232.5195,-10 250.7919,-10 267.6671,-10"/>
<polygon fill="#191970" stroke="#191970" points="267.9562,-13.5001 277.9562,-10 267.9562,-6.5001 267.9562,-13.5001"/>
</g>
</g>
</svg>
