<?xml version="1.0" encoding="UTF-8" standalone="no"?>
<!DOCTYPE svg PUBLIC "-//W3C//DTD SVG 1.1//EN"
 "http://www.w3.org/Graphics/SVG/1.1/DTD/svg11.dtd">
<!-- Generated by graphviz version 2.40.1 (20161225.0304)
 -->
<!-- Title: Adder::compute Pages: 1 -->
<svg width="254pt" height="192pt"
 viewBox="0.00 0.00 254.00 192.00" xmlns="http://www.w3.org/2000/svg" xmlns:xlink="http://www.w3.org/1999/xlink">
<g id="graph0" class="graph" transform="scale(1 1) rotate(0) translate(4 188)">
<title>Adder::compute</title>
<polygon fill="#ffffff" stroke="transparent" points="-4,4 -4,-188 250,-188 250,4 -4,4"/>
<!-- Node0 -->
<g id="node1" class="node">
<title>Node0</title>
<polygon fill="#bfbfbf" stroke="#000000" points="0,-88.5 0,-107.5 86,-107.5 86,-88.5 0,-88.5"/>
<text text-anchor="middle" x="43" y="-95.5" font-family="Helvetica,sans-Serif" font-size="10.00" fill="#000000">Adder::compute</text>
</g>
<!-- Node1 -->
<g id="node2" class="node">
<title>Node1</title>
<g id="a_node2"><a xlink:href="classUpdater.html#a2184a4efa52ad2f4a631c134379ef7b8" target="_top" xlink:title="Updater::check_blacklist">
<polygon fill="#ffffff" stroke="#000000" points="122,-164.5 122,-183.5 246,-183.5 246,-164.5 122,-164.5"/>
<text text-anchor="middle" x="184" y="-171.5" font-family="Helvetica,sans-Serif" font-size="10.00" fill="#000000">Updater::check_blacklist</text>
</a>
</g>
</g>
<!-- Node0&#45;&gt;Node1 -->
<g id="edge1" class="edge">
<title>Node0&#45;&gt;Node1</title>
<path fill="none" stroke="#191970" d="M53.7615,-107.5524C68.3107,-120.029 95.4952,-141.8288 122,-155 126.5462,-157.2592 131.4146,-159.312 136.3505,-161.1611"/>
<polygon fill="#191970" stroke="#191970" points="135.2642,-164.4888 145.859,-164.4665 137.5627,-157.8769 135.2642,-164.4888"/>
</g>
<!-- Node2 -->
<g id="node3" class="node">
<title>Node2</title>
<g id="a_node3"><a xlink:href="namespaceutils.html#acee57b54806ee63ddaa30518fed90adb" target="_top" xlink:title="Raise (for Python) and throw (for C++) a runtime error. ">
<polygon fill="#ffffff" stroke="#000000" points="135,-126.5 135,-145.5 233,-145.5 233,-126.5 135,-126.5"/>
<text text-anchor="middle" x="184" y="-133.5" font-family="Helvetica,sans-Serif" font-size="10.00" fill="#000000">utils::runtime_error</text>
</a>
</g>
</g>
<!-- Node0&#45;&gt;Node2 -->
<g id="edge2" class="edge">
<title>Node0&#45;&gt;Node2</title>
<path fill="none" stroke="#191970" d="M78.5803,-107.589C96.782,-112.4944 119.1384,-118.5196 138.5723,-123.7571"/>
<polygon fill="#191970" stroke="#191970" points="137.8648,-127.1912 148.4311,-126.4141 139.6864,-120.4324 137.8648,-127.1912"/>
</g>
<!-- Node3 -->
<g id="node4" class="node">
<title>Node3</title>
<g id="a_node4"><a xlink:href="classDataKeys.html#a83c539d93200a30f57d0d795c68ee5a2" target="_top" xlink:title="Check if this object has optional key(s). ">
<polygon fill="#ffffff" stroke="#000000" points="134.5,-88.5 134.5,-107.5 233.5,-107.5 233.5,-88.5 134.5,-88.5"/>
<text text-anchor="middle" x="184" y="-95.5" font-family="Helvetica,sans-Serif" font-size="10.00" fill="#000000">DataKeys::optional</text>
</a>
</g>
</g>
<!-- Node0&#45;&gt;Node3 -->
<g id="edge3" class="edge">
<title>Node0&#45;&gt;Node3</title>
<path fill="none" stroke="#191970" d="M86.0708,-98C98.0848,-98 111.3578,-98 124.1517,-98"/>
<polygon fill="#191970" stroke="#191970" points="124.2763,-101.5001 134.2763,-98 124.2762,-94.5001 124.2763,-101.5001"/>
</g>
<!-- Node4 -->
<g id="node5" class="node">
<title>Node4</title>
<g id="a_node5"><a xlink:href="classDataKeys.html#af27295623e19f9bda8186bfd3374a7d8" target="_top" xlink:title="Set a name of class of which instance calls required. ">
<polygon fill="#ffffff" stroke="#000000" points="122.5,-39 122.5,-69 245.5,-69 245.5,-39 122.5,-39"/>
<text text-anchor="start" x="130.5" y="-57" font-family="Helvetica,sans-Serif" font-size="10.00" fill="#000000">DataKeys::set_checking</text>
<text text-anchor="middle" x="184" y="-46" font-family="Helvetica,sans-Serif" font-size="10.00" fill="#000000">_classname</text>
</a>
</g>
</g>
<!-- Node0&#45;&gt;Node4 -->
<g id="edge4" class="edge">
<title>Node0&#45;&gt;Node4</title>
<path fill="none" stroke="#191970" d="M73.5949,-88.4527C88.9029,-83.6757 107.9536,-77.7308 125.8979,-72.1311"/>
<polygon fill="#191970" stroke="#191970" points="127.219,-75.3854 135.7224,-69.0654 125.1337,-68.7032 127.219,-75.3854"/>
</g>
<!-- Node5 -->
<g id="node6" class="node">
<title>Node5</title>
<g id="a_node6"><a xlink:href="classUpdater.html#a288fd0d27e760ec1d2e1f689641b01a7" target="_top" xlink:title="Implementation of computation for updating Element::data. ">
<polygon fill="#ffffff" stroke="#000000" points="125.5,-.5 125.5,-19.5 242.5,-19.5 242.5,-.5 125.5,-.5"/>
<text text-anchor="middle" x="184" y="-7.5" font-family="Helvetica,sans-Serif" font-size="10.00" fill="#000000">Updater::compute_impl</text>
</a>
</g>
</g>
<!-- Node0&#45;&gt;Node5 -->
<g id="edge5" class="edge">
<title>Node0&#45;&gt;Node5</title>
<path fill="none" stroke="#191970" d="M51.787,-88.2795C65.4659,-73.6875 93.2779,-46.1178 122,-30 126.5679,-27.4367 131.5122,-25.1462 136.5472,-23.1138"/>
<polygon fill="#191970" stroke="#191970" points="138.1012,-26.2709 146.2664,-19.5196 135.6732,-19.7054 138.1012,-26.2709"/>
</g>
</g>
</svg>
