<?xml version="1.0" encoding="UTF-8" standalone="no"?>
<!DOCTYPE svg PUBLIC "-//W3C//DTD SVG 1.1//EN"
 "http://www.w3.org/Graphics/SVG/1.1/DTD/svg11.dtd">
<!-- Generated by graphviz version 2.40.1 (20161225.0304)
 -->
<!-- Title: AddCoMPosition::compute_impl Pages: 1 -->
<svg width="300pt" height="104pt"
 viewBox="0.00 0.00 300.00 104.00" xmlns="http://www.w3.org/2000/svg" xmlns:xlink="http://www.w3.org/1999/xlink">
<g id="graph0" class="graph" transform="scale(1 1) rotate(0) translate(4 100)">
<title>AddCoMPosition::compute_impl</title>
<polygon fill="#ffffff" stroke="transparent" points="-4,4 -4,-100 296,-100 296,4 -4,4"/>
<!-- Node0 -->
<g id="node1" class="node">
<title>Node0</title>
<polygon fill="#bfbfbf" stroke="#000000" points="0,-38.5 0,-57.5 156,-57.5 156,-38.5 0,-38.5"/>
<text text-anchor="middle" x="78" y="-45.5" font-family="Helvetica,sans-Serif" font-size="10.00" fill="#000000">AddCoMPosition::compute_impl</text>
</g>
<!-- Node1 -->
<g id="node2" class="node">
<title>Node1</title>
<g id="a_node2"><a xlink:href="classDataKeys.html#a03517cffe825c983c3582ffb55318a7b" target="_top" xlink:title="Check if this instance has required key(s). ">
<polygon fill="#ffffff" stroke="#000000" points="192,-76.5 192,-95.5 292,-95.5 292,-76.5 192,-76.5"/>
<text text-anchor="middle" x="242" y="-83.5" font-family="Helvetica,sans-Serif" font-size="10.00" fill="#000000">DataKeys::required</text>
</a>
</g>
</g>
<!-- Node0&#45;&gt;Node1 -->
<g id="edge1" class="edge">
<title>Node0&#45;&gt;Node1</title>
<path fill="none" stroke="#191970" d="M119.3841,-57.589C141.1232,-62.6261 167.9575,-68.8438 190.9747,-74.1771"/>
<polygon fill="#191970" stroke="#191970" points="190.3815,-77.6323 200.9135,-76.4799 191.9616,-70.8129 190.3815,-77.6323"/>
</g>
<!-- Node2 -->
<g id="node3" class="node">
<title>Node2</title>
<g id="a_node3"><a xlink:href="classDataKeys.html#a83c539d93200a30f57d0d795c68ee5a2" target="_top" xlink:title="Check if this instance has optional key(s). ">
<polygon fill="#ffffff" stroke="#000000" points="192.5,-38.5 192.5,-57.5 291.5,-57.5 291.5,-38.5 192.5,-38.5"/>
<text text-anchor="middle" x="242" y="-45.5" font-family="Helvetica,sans-Serif" font-size="10.00" fill="#000000">DataKeys::optional</text>
</a>
</g>
</g>
<!-- Node0&#45;&gt;Node2 -->
<g id="edge2" class="edge">
<title>Node0&#45;&gt;Node2</title>
<path fill="none" stroke="#191970" d="M156.1575,-48C164.838,-48 173.5761,-48 181.9815,-48"/>
<polygon fill="#191970" stroke="#191970" points="182.043,-51.5001 192.043,-48 182.0429,-44.5001 182.043,-51.5001"/>
</g>
<!-- Node3 -->
<g id="node4" class="node">
<title>Node3</title>
<g id="a_node4"><a xlink:href="classDataKeys.html#a626d56b99861008c2a63580ed17b809d" target="_top" xlink:title="Add a key or keys in an array to the _keys. ">
<polygon fill="#ffffff" stroke="#000000" points="201.5,-.5 201.5,-19.5 282.5,-19.5 282.5,-.5 201.5,-.5"/>
<text text-anchor="middle" x="242" y="-7.5" font-family="Helvetica,sans-Serif" font-size="10.00" fill="#000000">DataKeys::add</text>
</a>
</g>
</g>
<!-- Node0&#45;&gt;Node3 -->
<g id="edge3" class="edge">
<title>Node0&#45;&gt;Node3</title>
<path fill="none" stroke="#191970" d="M119.3841,-38.411C141.2885,-33.3356 168.3659,-27.0616 191.4992,-21.7014"/>
<polygon fill="#191970" stroke="#191970" points="192.5286,-25.0557 201.4804,-19.3887 190.9484,-18.2364 192.5286,-25.0557"/>
</g>
</g>
</svg>
