<?xml version="1.0" encoding="UTF-8" standalone="no"?>
<!DOCTYPE svg PUBLIC "-//W3C//DTD SVG 1.1//EN"
 "http://www.w3.org/Graphics/SVG/1.1/DTD/svg11.dtd">
<!-- Generated by graphviz version 2.40.1 (20161225.0304)
 -->
<!-- Title: Element::init_for_python Pages: 1 -->
<svg width="294pt" height="218pt"
 viewBox="0.00 0.00 294.00 218.00" xmlns="http://www.w3.org/2000/svg" xmlns:xlink="http://www.w3.org/1999/xlink">
<g id="graph0" class="graph" transform="scale(1 1) rotate(0) translate(4 214)">
<title>Element::init_for_python</title>
<polygon fill="#ffffff" stroke="transparent" points="-4,4 -4,-214 290,-214 290,4 -4,4"/>
<!-- Node67 -->
<g id="node1" class="node">
<title>Node67</title>
<polygon fill="#bfbfbf" stroke="#000000" points="0,-95.5 0,-114.5 122,-114.5 122,-95.5 0,-95.5"/>
<text text-anchor="middle" x="61" y="-102.5" font-family="Helvetica,sans-Serif" font-size="10.00" fill="#000000">Element::init_for_python</text>
</g>
<!-- Node68 -->
<g id="node2" class="node">
<title>Node68</title>
<g id="a_node2"><a xlink:href="classElement.html#a62989090a40d237e617bc6e5f5087388" target="_top" xlink:title="Wrapper for the get_data method which returns a reference. Can be called from Python as get_data...">
<polygon fill="#ffffff" stroke="#000000" points="166,-190.5 166,-209.5 278,-209.5 278,-190.5 166,-190.5"/>
<text text-anchor="middle" x="222" y="-197.5" font-family="Helvetica,sans-Serif" font-size="10.00" fill="#000000">Element::get_data_py</text>
</a>
</g>
</g>
<!-- Node67&#45;&gt;Node68 -->
<g id="edge1" class="edge">
<title>Node67&#45;&gt;Node68</title>
<path fill="none" stroke="#191970" d="M78.1183,-121.7325C96.4786,-138.8364 127.1733,-165.0845 158,-181 165.3121,-184.7752 173.4912,-187.9178 181.4938,-190.4883"/>
<polygon fill="#191970" stroke="#191970" points="80.2558,-118.9356 70.5943,-114.5874 75.4355,-124.0115 80.2558,-118.9356"/>
</g>
<!-- Node69 -->
<g id="node3" class="node">
<title>Node69</title>
<g id="a_node3"><a xlink:href="classElement.html#ae253cbec6307a157902d7f25867ded2b" target="_top" xlink:title="Wrapper for the get_keys method. Can be called from Python as get_keys. ">
<polygon fill="#ffffff" stroke="#000000" points="165,-152.5 165,-171.5 279,-171.5 279,-152.5 165,-152.5"/>
<text text-anchor="middle" x="222" y="-159.5" font-family="Helvetica,sans-Serif" font-size="10.00" fill="#000000">Element::get_keys_py</text>
</a>
</g>
</g>
<!-- Node67&#45;&gt;Node69 -->
<g id="edge2" class="edge">
<title>Node67&#45;&gt;Node69</title>
<path fill="none" stroke="#191970" d="M93.1964,-118.405C111.9566,-126.0161 136.1514,-135.4923 158,-143 167.646,-146.3146 178.2228,-149.5955 187.9508,-152.4742"/>
<polygon fill="#191970" stroke="#191970" points="94.5036,-115.1582 83.9227,-114.6152 91.8555,-121.6381 94.5036,-115.1582"/>
</g>
<!-- Node70 -->
<g id="node4" class="node">
<title>Node70</title>
<g id="a_node4"><a xlink:href="classElement.html#a8257b02b1e3b208f193b35d5d47b9af8" target="_top" xlink:title="Wrapper for the array1d method for integer values. Can be called from Python as get_1d_int. ">
<polygon fill="#ffffff" stroke="#000000" points="162.5,-114.5 162.5,-133.5 281.5,-133.5 281.5,-114.5 162.5,-114.5"/>
<text text-anchor="middle" x="222" y="-121.5" font-family="Helvetica,sans-Serif" font-size="10.00" fill="#000000">Element::get_1d_int_py</text>
</a>
</g>
</g>
<!-- Node67&#45;&gt;Node70 -->
<g id="edge3" class="edge">
<title>Node67&#45;&gt;Node70</title>
<path fill="none" stroke="#191970" d="M132.3026,-113.4146C142.3673,-114.6023 152.6263,-115.813 162.4391,-116.9711"/>
<polygon fill="#191970" stroke="#191970" points="132.6678,-109.9335 122.3265,-112.2373 131.8473,-116.8852 132.6678,-109.9335"/>
</g>
<!-- Node71 -->
<g id="node5" class="node">
<title>Node71</title>
<g id="a_node5"><a xlink:href="classElement.html#a3f11848589faad4cbca8119385887713" target="_top" xlink:title="Wrapper for the array1d method for float (double in C++) values. Can be called from Python as get_1d_...">
<polygon fill="#ffffff" stroke="#000000" points="158,-76.5 158,-95.5 286,-95.5 286,-76.5 158,-76.5"/>
<text text-anchor="middle" x="222" y="-83.5" font-family="Helvetica,sans-Serif" font-size="10.00" fill="#000000">Element::get_1d_float_py</text>
</a>
</g>
</g>
<!-- Node67&#45;&gt;Node71 -->
<g id="edge4" class="edge">
<title>Node67&#45;&gt;Node71</title>
<path fill="none" stroke="#191970" d="M132.2601,-96.5904C140.797,-95.583 149.4744,-94.5589 157.9014,-93.5644"/>
<polygon fill="#191970" stroke="#191970" points="131.8473,-93.1148 122.3265,-97.7627 132.6678,-100.0665 131.8473,-93.1148"/>
</g>
<!-- Node72 -->
<g id="node6" class="node">
<title>Node72</title>
<g id="a_node6"><a xlink:href="classElement.html#a8e8245fb94b6417e3e804e6bfdf2f906" target="_top" xlink:title="Wrapper for the array2d method for integer values. Can be called from Python as get_2d_int. ">
<polygon fill="#ffffff" stroke="#000000" points="162.5,-38.5 162.5,-57.5 281.5,-57.5 281.5,-38.5 162.5,-38.5"/>
<text text-anchor="middle" x="222" y="-45.5" font-family="Helvetica,sans-Serif" font-size="10.00" fill="#000000">Element::get_2d_int_py</text>
</a>
</g>
</g>
<!-- Node67&#45;&gt;Node72 -->
<g id="edge5" class="edge">
<title>Node67&#45;&gt;Node72</title>
<path fill="none" stroke="#191970" d="M93.1964,-91.595C111.9566,-83.9839 136.1514,-74.5077 158,-67 167.646,-63.6854 178.2228,-60.4045 187.9508,-57.5258"/>
<polygon fill="#191970" stroke="#191970" points="91.8555,-88.3619 83.9227,-95.3848 94.5036,-94.8418 91.8555,-88.3619"/>
</g>
<!-- Node73 -->
<g id="node7" class="node">
<title>Node73</title>
<g id="a_node7"><a xlink:href="classElement.html#a6a62280eadd3d4e6bfe8c43082797733" target="_top" xlink:title="Wrapper for the array2d method for float (double in C++) values. Can be called from Python as get_2d_...">
<polygon fill="#ffffff" stroke="#000000" points="158,-.5 158,-19.5 286,-19.5 286,-.5 158,-.5"/>
<text text-anchor="middle" x="222" y="-7.5" font-family="Helvetica,sans-Serif" font-size="10.00" fill="#000000">Element::get_2d_float_py</text>
</a>
</g>
</g>
<!-- Node67&#45;&gt;Node73 -->
<g id="edge6" class="edge">
<title>Node67&#45;&gt;Node73</title>
<path fill="none" stroke="#191970" d="M78.1183,-88.2675C96.4786,-71.1636 127.1733,-44.9155 158,-29 165.3121,-25.2248 173.4912,-22.0822 181.4938,-19.5117"/>
<polygon fill="#191970" stroke="#191970" points="75.4355,-85.9885 70.5943,-95.4126 80.2558,-91.0644 75.4355,-85.9885"/>
</g>
</g>
</svg>
