<?xml version="1.0" encoding="UTF-8" standalone="no"?>
<!DOCTYPE svg PUBLIC "-//W3C//DTD SVG 1.1//EN"
 "http://www.w3.org/Graphics/SVG/1.1/DTD/svg11.dtd">
<!-- Generated by graphviz version 2.40.1 (20161225.0304)
 -->
<!-- Title: Processor::use_generator_at Pages: 1 -->
<svg width="333pt" height="127pt"
 viewBox="0.00 0.00 333.00 126.50" xmlns="http://www.w3.org/2000/svg" xmlns:xlink="http://www.w3.org/1999/xlink">
<g id="graph0" class="graph" transform="scale(1 1) rotate(0) translate(4 122.5)">
<title>Processor::use_generator_at</title>
<polygon fill="#ffffff" stroke="transparent" points="-4,4 -4,-122.5 329,-122.5 329,4 -4,4"/>
<!-- Node34 -->
<g id="node1" class="node">
<title>Node34</title>
<polygon fill="#bfbfbf" stroke="#000000" points="0,-44.5 0,-63.5 142,-63.5 142,-44.5 0,-44.5"/>
<text text-anchor="middle" x="71" y="-51.5" font-family="Helvetica,sans-Serif" font-size="10.00" fill="#000000">Processor::use_generator_at</text>
</g>
<!-- Node35 -->
<g id="node2" class="node">
<title>Node35</title>
<g id="a_node2"><a xlink:href="classProMeanSquareDisplacement.html#a712c0f5baedaaf562fdb16d5645837d5" target="_top" xlink:title="Set initial positions and resize displacement2_traj. ">
<polygon fill="#ffffff" stroke="#000000" points="178.5,-88 178.5,-118 324.5,-118 324.5,-88 178.5,-88"/>
<text text-anchor="start" x="186.5" y="-106" font-family="Helvetica,sans-Serif" font-size="10.00" fill="#000000">ProMeanSquareDisplacement</text>
<text text-anchor="middle" x="251.5" y="-95" font-family="Helvetica,sans-Serif" font-size="10.00" fill="#000000">::prepare</text>
</a>
</g>
</g>
<!-- Node34&#45;&gt;Node35 -->
<g id="edge1" class="edge">
<title>Node34&#45;&gt;Node35</title>
<path fill="none" stroke="#191970" d="M115.9024,-66.1896C140.1825,-72.7808 170.3788,-80.9782 196.1087,-87.963"/>
<polygon fill="#191970" stroke="#191970" points="116.7984,-62.8062 106.2307,-63.564 114.9645,-69.5617 116.7984,-62.8062"/>
</g>
<!-- Node36 -->
<g id="node3" class="node">
<title>Node36</title>
<g id="a_node3"><a xlink:href="classProTimeCorrelationInMolecule.html#a8368ef9e43e92c51b3b8ed31b1519e3d" target="_top" xlink:title="Set initial vectors and resize coefficients_traj. ">
<polygon fill="#ffffff" stroke="#000000" points="178,-39 178,-69 325,-69 325,-39 178,-39"/>
<text text-anchor="start" x="186" y="-57" font-family="Helvetica,sans-Serif" font-size="10.00" fill="#000000">ProTimeCorrelationInMolecule</text>
<text text-anchor="middle" x="251.5" y="-46" font-family="Helvetica,sans-Serif" font-size="10.00" fill="#000000">::prepare</text>
</a>
</g>
</g>
<!-- Node34&#45;&gt;Node36 -->
<g id="edge2" class="edge">
<title>Node34&#45;&gt;Node36</title>
<path fill="none" stroke="#191970" d="M152.3532,-54C160.8358,-54 169.4242,-54 177.8148,-54"/>
<polygon fill="#191970" stroke="#191970" points="152.0793,-50.5001 142.0793,-54 152.0792,-57.5001 152.0793,-50.5001"/>
</g>
<!-- Node37 -->
<g id="node4" class="node">
<title>Node37</title>
<g id="a_node4"><a xlink:href="classProcessor.html#a929cbeccc7a4120da4a58ef7f7a609b1" target="_top" xlink:title="Run analysis using i th Generator object in generators, where i = i_generator. ">
<polygon fill="#ffffff" stroke="#000000" points="211.5,-.5 211.5,-19.5 291.5,-19.5 291.5,-.5 211.5,-.5"/>
<text text-anchor="middle" x="251.5" y="-7.5" font-family="Helvetica,sans-Serif" font-size="10.00" fill="#000000">Processor::run</text>
</a>
</g>
</g>
<!-- Node34&#45;&gt;Node37 -->
<g id="edge3" class="edge">
<title>Node34&#45;&gt;Node37</title>
<path fill="none" stroke="#191970" d="M120.1001,-42.031C149.113,-34.9586 185.3451,-26.1264 212.4106,-19.5287"/>
<polygon fill="#191970" stroke="#191970" points="119.0524,-38.6838 110.1658,-44.4527 120.7103,-45.4847 119.0524,-38.6838"/>
</g>
</g>
</svg>
