<?xml version="1.0" encoding="UTF-8" standalone="no"?>
<!DOCTYPE svg PUBLIC "-//W3C//DTD SVG 1.1//EN"
 "http://www.w3.org/Graphics/SVG/1.1/DTD/svg11.dtd">
<!-- Generated by graphviz version 2.40.1 (20161225.0304)
 -->
<!-- Title: StaDumpBox Pages: 1 -->
<svg width="138pt" height="662pt"
 viewBox="0.00 0.00 138.00 662.00" xmlns="http://www.w3.org/2000/svg" xmlns:xlink="http://www.w3.org/1999/xlink">
<g id="graph0" class="graph" transform="scale(1 1) rotate(0) translate(4 658)">
<title>StaDumpBox</title>
<polygon fill="#ffffff" stroke="transparent" points="-4,4 -4,-658 134,-658 134,4 -4,4"/>
<!-- Node0 -->
<g id="node1" class="node">
<title>Node0</title>
<polygon fill="#bfbfbf" stroke="#000000" points="17.5,-.5 17.5,-79.5 112.5,-79.5 112.5,-.5 17.5,-.5"/>
<text text-anchor="middle" x="65" y="-67.5" font-family="Helvetica,sans-Serif" font-size="10.00" fill="#000000">StaDumpBox</text>
<polyline fill="none" stroke="#000000" points="17.5,-60.5 112.5,-60.5 "/>
<text text-anchor="middle" x="65" y="-48.5" font-family="Helvetica,sans-Serif" font-size="10.00" fill="#000000"> </text>
<polyline fill="none" stroke="#000000" points="17.5,-41.5 112.5,-41.5 "/>
<text text-anchor="start" x="25.5" y="-29.5" font-family="Helvetica,sans-Serif" font-size="10.00" fill="#000000">+ ~StaDumpBox()</text>
<text text-anchor="start" x="25.5" y="-18.5" font-family="Helvetica,sans-Serif" font-size="10.00" fill="#000000">+ StaDump()</text>
<text text-anchor="start" x="25.5" y="-7.5" font-family="Helvetica,sans-Serif" font-size="10.00" fill="#000000"># compute_impl()</text>
</g>
<!-- Node1 -->
<g id="node2" class="node">
<title>Node1</title>
<g id="a_node2"><a xlink:href="classStaDump.html" target="_top" xlink:title="StaDump is an abstract class whose subclasses read a Lammps&#39; dump file. ">
<polygon fill="#ffffff" stroke="#000000" points="26,-116.5 26,-195.5 104,-195.5 104,-116.5 26,-116.5"/>
<text text-anchor="middle" x="65" y="-183.5" font-family="Helvetica,sans-Serif" font-size="10.00" fill="#000000">StaDump</text>
<polyline fill="none" stroke="#000000" points="26,-176.5 104,-176.5 "/>
<text text-anchor="start" x="34" y="-164.5" font-family="Helvetica,sans-Serif" font-size="10.00" fill="#000000"># timestep</text>
<text text-anchor="start" x="34" y="-153.5" font-family="Helvetica,sans-Serif" font-size="10.00" fill="#000000"># filepath</text>
<polyline fill="none" stroke="#000000" points="26,-146.5 104,-146.5 "/>
<text text-anchor="start" x="34" y="-134.5" font-family="Helvetica,sans-Serif" font-size="10.00" fill="#000000">+ StaDump()</text>
<text text-anchor="start" x="34" y="-123.5" font-family="Helvetica,sans-Serif" font-size="10.00" fill="#000000">+ ~StaDump()</text>
</a>
</g>
</g>
<!-- Node1&#45;&gt;Node0 -->
<g id="edge1" class="edge">
<title>Node1&#45;&gt;Node0</title>
<path fill="none" stroke="#191970" d="M65,-106.2163C65,-97.394 65,-88.3127 65,-79.8116"/>
<polygon fill="none" stroke="#191970" points="61.5001,-106.4038 65,-116.4038 68.5001,-106.4039 61.5001,-106.4038"/>
</g>
<!-- Node2 -->
<g id="node3" class="node">
<title>Node2</title>
<g id="a_node3"><a xlink:href="classStarter.html" target="_top" xlink:title="Starter sets some properties to an empty Element object. ">
<polygon fill="#ffffff" stroke="#000000" points="16,-232.5 16,-322.5 114,-322.5 114,-232.5 16,-232.5"/>
<text text-anchor="middle" x="65" y="-310.5" font-family="Helvetica,sans-Serif" font-size="10.00" fill="#000000">Starter</text>
<polyline fill="none" stroke="#000000" points="16,-303.5 114,-303.5 "/>
<text text-anchor="start" x="24" y="-291.5" font-family="Helvetica,sans-Serif" font-size="10.00" fill="#000000"># do_sorting_by_id</text>
<polyline fill="none" stroke="#000000" points="16,-284.5 114,-284.5 "/>
<text text-anchor="start" x="24" y="-272.5" font-family="Helvetica,sans-Serif" font-size="10.00" fill="#000000">+ ~Starter()</text>
<text text-anchor="start" x="24" y="-261.5" font-family="Helvetica,sans-Serif" font-size="10.00" fill="#000000">+ compute()</text>
<text text-anchor="start" x="24" y="-250.5" font-family="Helvetica,sans-Serif" font-size="10.00" fill="#000000">+ Updater()</text>
<text text-anchor="start" x="24" y="-239.5" font-family="Helvetica,sans-Serif" font-size="10.00" fill="#000000">&#45; sort_by_id()</text>
</a>
</g>
</g>
<!-- Node2&#45;&gt;Node1 -->
<g id="edge2" class="edge">
<title>Node2&#45;&gt;Node1</title>
<path fill="none" stroke="#191970" d="M65,-222.254C65,-213.2956 65,-204.1763 65,-195.6838"/>
<polygon fill="none" stroke="#191970" points="61.5001,-222.2578 65,-232.2579 68.5001,-222.2579 61.5001,-222.2578"/>
</g>
<!-- Node3 -->
<g id="node4" class="node">
<title>Node3</title>
<g id="a_node4"><a xlink:href="classUpdater.html" target="_top" xlink:title="Updater is an abstract class to update data held by an Element object. ">
<polygon fill="#ffffff" stroke="#000000" points="0,-359.5 0,-548.5 130,-548.5 130,-359.5 0,-359.5"/>
<text text-anchor="middle" x="65" y="-536.5" font-family="Helvetica,sans-Serif" font-size="10.00" fill="#000000">Updater</text>
<polyline fill="none" stroke="#000000" points="0,-529.5 130,-529.5 "/>
<text text-anchor="start" x="8" y="-517.5" font-family="Helvetica,sans-Serif" font-size="10.00" fill="#000000"># ext_generator</text>
<text text-anchor="start" x="8" y="-506.5" font-family="Helvetica,sans-Serif" font-size="10.00" fill="#000000"># required_keys</text>
<text text-anchor="start" x="8" y="-495.5" font-family="Helvetica,sans-Serif" font-size="10.00" fill="#000000"># optional_keys</text>
<text text-anchor="start" x="8" y="-484.5" font-family="Helvetica,sans-Serif" font-size="10.00" fill="#000000">&#45; dataid_blacklist</text>
<text text-anchor="start" x="8" y="-473.5" font-family="Helvetica,sans-Serif" font-size="10.00" fill="#000000">&#45; omp_lock</text>
<polyline fill="none" stroke="#000000" points="0,-466.5 130,-466.5 "/>
<text text-anchor="start" x="8" y="-454.5" font-family="Helvetica,sans-Serif" font-size="10.00" fill="#000000">+ Updater()</text>
<text text-anchor="start" x="8" y="-443.5" font-family="Helvetica,sans-Serif" font-size="10.00" fill="#000000">+ ~Updater()</text>
<text text-anchor="start" x="8" y="-432.5" font-family="Helvetica,sans-Serif" font-size="10.00" fill="#000000">+ compute()</text>
<text text-anchor="start" x="8" y="-421.5" font-family="Helvetica,sans-Serif" font-size="10.00" fill="#000000">+ remove_from_blacklist()</text>
<text text-anchor="start" x="8" y="-410.5" font-family="Helvetica,sans-Serif" font-size="10.00" fill="#000000">+ get_ext_generator()</text>
<text text-anchor="start" x="8" y="-399.5" font-family="Helvetica,sans-Serif" font-size="10.00" fill="#000000"># compute_impl()</text>
<text text-anchor="start" x="8" y="-388.5" font-family="Helvetica,sans-Serif" font-size="10.00" fill="#000000"># make_required_keys()</text>
<text text-anchor="start" x="8" y="-377.5" font-family="Helvetica,sans-Serif" font-size="10.00" fill="#000000"># make_optional_keys()</text>
<text text-anchor="start" x="8" y="-366.5" font-family="Helvetica,sans-Serif" font-size="10.00" fill="#000000"># check_blacklist()</text>
</a>
</g>
</g>
<!-- Node3&#45;&gt;Node2 -->
<g id="edge3" class="edge">
<title>Node3&#45;&gt;Node2</title>
<path fill="none" stroke="#191970" d="M65,-349.1839C65,-339.9415 65,-330.9505 65,-322.6363"/>
<polygon fill="none" stroke="#191970" points="61.5001,-349.2915 65,-359.2915 68.5001,-349.2915 61.5001,-349.2915"/>
</g>
<!-- Node4 -->
<g id="node5" class="node">
<title>Node4</title>
<polygon fill="#ffffff" stroke="#bfbfbf" points="8,-585.5 8,-653.5 122,-653.5 122,-585.5 8,-585.5"/>
<text text-anchor="start" x="16" y="-641.5" font-family="Helvetica,sans-Serif" font-size="10.00" fill="#000000">std::enable_shared</text>
<text text-anchor="middle" x="65" y="-630.5" font-family="Helvetica,sans-Serif" font-size="10.00" fill="#000000">_from_this&lt; Updater &gt;</text>
<polyline fill="none" stroke="#bfbfbf" points="8,-623.5 122,-623.5 "/>
<text text-anchor="middle" x="65" y="-611.5" font-family="Helvetica,sans-Serif" font-size="10.00" fill="#000000"> </text>
<polyline fill="none" stroke="#bfbfbf" points="8,-604.5 122,-604.5 "/>
<text text-anchor="middle" x="65" y="-592.5" font-family="Helvetica,sans-Serif" font-size="10.00" fill="#000000"> </text>
</g>
<!-- Node4&#45;&gt;Node3 -->
<g id="edge4" class="edge">
<title>Node4&#45;&gt;Node3</title>
<path fill="none" stroke="#191970" d="M65,-575.0888C65,-566.7937 65,-557.8388 65,-548.6848"/>
<polygon fill="none" stroke="#191970" points="61.5001,-575.2083 65,-585.2083 68.5001,-575.2083 61.5001,-575.2083"/>
</g>
</g>
</svg>
