<?xml version="1.0" encoding="UTF-8" standalone="no"?>
<!DOCTYPE svg PUBLIC "-//W3C//DTD SVG 1.1//EN"
 "http://www.w3.org/Graphics/SVG/1.1/DTD/svg11.dtd">
<!-- Generated by graphviz version 2.40.1 (20161225.0304)
 -->
<!-- Title: AddInertiaMoment::compute_impl Pages: 1 -->
<!--zoomable 203 -->
<svg id="main" version="1.1" xmlns="http://www.w3.org/2000/svg" xmlns:xlink="http://www.w3.org/1999/xlink" xml:space="preserve" onload="init(evt)">
<style type="text/css"><![CDATA[
.edge:hover path { stroke: red; }
.edge:hover polygon { stroke: red; fill: red; }
]]></style>
<script type="text/javascript"><![CDATA[
var edges = document.getElementsByTagName('g');
if (edges && edges.length) {
  for (var i=0;i<edges.length;i++) {
    if (edges[i].id.substr(0,4)=='edge') {
      edges[i].setAttribute('class','edge');
    }
  }
}
]]></script>
        <defs>
                <circle id="rim" cx="0" cy="0" r="7"/>
                <circle id="rim2" cx="0" cy="0" r="3.5"/>
                <g id="zoomPlus">
                        <use xlink:href="#rim" fill="#404040">
                                <set attributeName="fill" to="#808080" begin="zoomplus.mouseover" end="zoomplus.mouseout"/>
                        </use>
                        <path d="M-4,0h8M0,-4v8" fill="none" stroke="white" stroke-width="1.5" pointer-events="none"/>
                </g>
                <g id="zoomMin">
                        <use xlink:href="#rim" fill="#404040">
                                <set attributeName="fill" to="#808080" begin="zoomminus.mouseover" end="zoomminus.mouseout"/>
                        </use>
                        <path d="M-4,0h8" fill="none" stroke="white" stroke-width="1.5" pointer-events="none"/>
                </g>
                <g id="dirArrow">
                        <path fill="none" stroke="white" stroke-width="1.5" d="M0,-3.0v7 M-2.5,-0.5L0,-3.0L2.5,-0.5"/>
                </g>
               <g id="resetDef">
                       <use xlink:href="#rim2" fill="#404040">
                               <set attributeName="fill" to="#808080" begin="reset.mouseover" end="reset.mouseout"/>
                       </use>
               </g>
        </defs>

<script type="text/javascript">
var viewWidth = 618;
var viewHeight = 203;
var sectionId = 'dynsection-2';
</script>
<script xlink:href="svgpan.js"/>
<svg id="graph" class="graph">
<g id="viewport">
<title>AddInertiaMoment::compute_impl</title>
<polygon fill="#ffffff" stroke="transparent" points="-4,4 -4,-199 614,-199 614,4 -4,4"/>
<!-- Node2 -->
<g id="node1" class="node">
<title>Node2</title>
<polygon fill="#bfbfbf" stroke="#000000" points="0,-93.5 0,-112.5 163,-112.5 163,-93.5 0,-93.5"/>
<text text-anchor="middle" x="81.5" y="-100.5" font-family="Helvetica,sans-Serif" font-size="10.00" fill="#000000">AddInertiaMoment::compute_impl</text>
</g>
<!-- Node3 -->
<g id="node2" class="node">
<title>Node3</title>
<g id="a_node2"><a xlink:href="classDataKeys.html#a03517cffe825c983c3582ffb55318a7b" target="_top" xlink:title="Check if this object has required key(s). ">
<polygon fill="#ffffff" stroke="#000000" points="219,-175.5 219,-194.5 319,-194.5 319,-175.5 219,-175.5"/>
<text text-anchor="middle" x="269" y="-182.5" font-family="Helvetica,sans-Serif" font-size="10.00" fill="#000000">DataKeys::required</text>
</a>
</g>
</g>
<!-- Node2&#45;&gt;Node3 -->
<g id="edge1" class="edge">
<title>Node2&#45;&gt;Node3</title>
<path fill="none" stroke="#191970" d="M96.5471,-112.5136C118.3944,-125.9864 160.5019,-150.6857 199,-166 204.9893,-168.3825 211.3821,-170.5719 217.7776,-172.5501"/>
<polygon fill="#191970" stroke="#191970" points="217.1913,-176.0255 227.7722,-175.4823 219.162,-169.3086 217.1913,-176.0255"/>
</g>
<!-- Node6 -->
<g id="node5" class="node">
<title>Node6</title>
<g id="a_node5"><a xlink:href="classDataKeys.html#a83c539d93200a30f57d0d795c68ee5a2" target="_top" xlink:title="Check if this object has optional key(s). ">
<polygon fill="#ffffff" stroke="#000000" points="219.5,-137.5 219.5,-156.5 318.5,-156.5 318.5,-137.5 219.5,-137.5"/>
<text text-anchor="middle" x="269" y="-144.5" font-family="Helvetica,sans-Serif" font-size="10.00" fill="#000000">DataKeys::optional</text>
</a>
</g>
</g>
<!-- Node2&#45;&gt;Node6 -->
<g id="edge4" class="edge">
<title>Node2&#45;&gt;Node6</title>
<path fill="none" stroke="#191970" d="M122.1847,-112.5473C150.4406,-119.1781 188.2858,-128.0591 218.475,-135.1435"/>
<polygon fill="#191970" stroke="#191970" points="217.8595,-138.594 228.3947,-137.4713 219.4588,-131.7792 217.8595,-138.594"/>
</g>
<!-- Node7 -->
<g id="node6" class="node">
<title>Node7</title>
<g id="a_node6"><a xlink:href="classAddInertiaMoment.html#a2565ab562dac3c15368e86b88b666bd6" target="_top" xlink:title="Compute the inertia moment with weighting factors. ">
<polygon fill="#ffffff" stroke="#000000" points="199,-88 199,-118 339,-118 339,-88 199,-88"/>
<text text-anchor="start" x="207" y="-106" font-family="Helvetica,sans-Serif" font-size="10.00" fill="#000000">AddInertiaMoment::compute</text>
<text text-anchor="middle" x="269" y="-95" font-family="Helvetica,sans-Serif" font-size="10.00" fill="#000000">_with_weights</text>
</a>
</g>
</g>
<!-- Node2&#45;&gt;Node7 -->
<g id="edge5" class="edge">
<title>Node2&#45;&gt;Node7</title>
<path fill="none" stroke="#191970" d="M163.1948,-103C171.614,-103 180.165,-103 188.5703,-103"/>
<polygon fill="#191970" stroke="#191970" points="188.7319,-106.5001 198.7319,-103 188.7318,-99.5001 188.7319,-106.5001"/>
</g>
<!-- Node9 -->
<g id="node8" class="node">
<title>Node9</title>
<g id="a_node8"><a xlink:href="classAddInertiaMoment.html#a6b71b7cb75a8b76585a38938bb8ae0a8" target="_top" xlink:title="Compute the inertia moment. ">
<polygon fill="#ffffff" stroke="#000000" points="199,-39 199,-69 339,-69 339,-39 199,-39"/>
<text text-anchor="start" x="207" y="-57" font-family="Helvetica,sans-Serif" font-size="10.00" fill="#000000">AddInertiaMoment::compute</text>
<text text-anchor="middle" x="269" y="-46" font-family="Helvetica,sans-Serif" font-size="10.00" fill="#000000">_without_weights</text>
</a>
</g>
</g>
<!-- Node2&#45;&gt;Node9 -->
<g id="edge8" class="edge">
<title>Node2&#45;&gt;Node9</title>
<path fill="none" stroke="#191970" d="M118.097,-93.436C141.8351,-87.2324 173.4787,-78.9629 201.6568,-71.599"/>
<polygon fill="#191970" stroke="#191970" points="202.6705,-74.9517 211.4606,-69.037 200.9005,-68.1792 202.6705,-74.9517"/>
</g>
<!-- Node10 -->
<g id="node9" class="node">
<title>Node10</title>
<g id="a_node9"><a xlink:href="classDataKeys.html#a626d56b99861008c2a63580ed17b809d" target="_top" xlink:title="Add key(s) in an array to _keys. ">
<polygon fill="#ffffff" stroke="#000000" points="228.5,-.5 228.5,-19.5 309.5,-19.5 309.5,-.5 228.5,-.5"/>
<text text-anchor="middle" x="269" y="-7.5" font-family="Helvetica,sans-Serif" font-size="10.00" fill="#000000">DataKeys::add</text>
</a>
</g>
</g>
<!-- Node2&#45;&gt;Node10 -->
<g id="edge10" class="edge">
<title>Node2&#45;&gt;Node10</title>
<path fill="none" stroke="#191970" d="M93.8413,-93.469C114.5176,-77.9183 157.9395,-47.0192 199,-29 205.1979,-26.2801 211.879,-23.8647 218.5672,-21.7459"/>
<polygon fill="#191970" stroke="#191970" points="219.7248,-25.0534 228.3158,-18.853 217.7333,-18.3426 219.7248,-25.0534"/>
</g>
<!-- Node4 -->
<g id="node3" class="node">
<title>Node4</title>
<g id="a_node3"><a xlink:href="namespaceutils.html#acee57b54806ee63ddaa30518fed90adb" target="_top" xlink:title="Raise (for Python) and throw (for C++) a runtime error. ">
<polygon fill="#ffffff" stroke="#000000" points="512,-134.5 512,-153.5 610,-153.5 610,-134.5 512,-134.5"/>
<text text-anchor="middle" x="561" y="-141.5" font-family="Helvetica,sans-Serif" font-size="10.00" fill="#000000">utils::runtime_error</text>
</a>
</g>
</g>
<!-- Node3&#45;&gt;Node4 -->
<g id="edge2" class="edge">
<title>Node3&#45;&gt;Node4</title>
<path fill="none" stroke="#191970" d="M319.0709,-182.6765C361.1805,-180.1804 422.8474,-175.2553 476,-166 490.1209,-163.5412 505.3362,-159.9205 518.9368,-156.3232"/>
<polygon fill="#191970" stroke="#191970" points="520.2444,-159.5949 528.9777,-153.5965 518.4099,-152.8396 520.2444,-159.5949"/>
</g>
<!-- Node5 -->
<g id="node4" class="node">
<title>Node5</title>
<g id="a_node4"><a xlink:href="namespaceutils.html#a5e5339e32b770a14691521435849c949" target="_top" xlink:title="Mimicking Python&#39;s join. ">
<polygon fill="#ffffff" stroke="#000000" points="397.5,-137.5 397.5,-156.5 453.5,-156.5 453.5,-137.5 397.5,-137.5"/>
<text text-anchor="middle" x="425.5" y="-144.5" font-family="Helvetica,sans-Serif" font-size="10.00" fill="#000000">utils::join</text>
</a>
</g>
</g>
<!-- Node3&#45;&gt;Node5 -->
<g id="edge3" class="edge">
<title>Node3&#45;&gt;Node5</title>
<path fill="none" stroke="#191970" d="M308.4916,-175.411C332.7364,-169.5241 363.6226,-162.0245 387.5736,-156.209"/>
<polygon fill="#191970" stroke="#191970" points="388.4823,-159.5901 397.3741,-153.8293 386.8306,-152.7877 388.4823,-159.5901"/>
</g>
<!-- Node8 -->
<g id="node7" class="node">
<title>Node8</title>
<g id="a_node7"><a xlink:href="namespaceutils.html#aeabf3fc19efc71936f355f069d336b5a" target="_top" xlink:title="Create a map from values of selected property in an array Json to corresponding index in the array Js...">
<polygon fill="#ffffff" stroke="#000000" points="375,-93.5 375,-112.5 476,-112.5 476,-93.5 375,-93.5"/>
<text text-anchor="middle" x="425.5" y="-100.5" font-family="Helvetica,sans-Serif" font-size="10.00" fill="#000000">utils::map_to_index</text>
</a>
</g>
</g>
<!-- Node7&#45;&gt;Node8 -->
<g id="edge6" class="edge">
<title>Node7&#45;&gt;Node8</title>
<path fill="none" stroke="#191970" d="M339.0107,-103C347.5739,-103 356.2701,-103 364.6832,-103"/>
<polygon fill="#191970" stroke="#191970" points="364.7768,-106.5001 374.7768,-103 364.7767,-99.5001 364.7768,-106.5001"/>
</g>
<!-- Node8&#45;&gt;Node4 -->
<g id="edge7" class="edge">
<title>Node8&#45;&gt;Node4</title>
<path fill="none" stroke="#191970" d="M456.927,-112.5093C475.6047,-118.1608 499.5115,-125.3946 519.7008,-131.5036"/>
<polygon fill="#191970" stroke="#191970" points="518.6889,-134.854 529.274,-134.4003 520.7163,-128.154 518.6889,-134.854"/>
</g>
<!-- Node9&#45;&gt;Node8 -->
<g id="edge9" class="edge">
<title>Node9&#45;&gt;Node8</title>
<path fill="none" stroke="#191970" d="M317.2322,-69.1014C338.9974,-75.9161 364.4147,-83.8742 385.1505,-90.3666"/>
<polygon fill="#191970" stroke="#191970" points="384.3284,-93.7767 394.9173,-93.4246 386.42,-87.0965 384.3284,-93.7767"/>
</g>
</g>
</svg>
        <g id="navigator" transform="translate(0 0)" fill="#404254">
                <rect fill="#f2f5e9" fill-opacity="0.5" stroke="#606060" stroke-width=".5" x="0" y="0" width="60" height="60"/>
                <use id="zoomplus" xlink:href="#zoomPlus" x="17" y="9" onmousedown="handleZoom(evt,'in')"/>
                <use id="zoomminus" xlink:href="#zoomMin" x="42" y="9" onmousedown="handleZoom(evt,'out')"/>
                <use id="reset" xlink:href="#resetDef" x="30" y="36" onmousedown="handleReset()"/>
                <g id="arrowUp" xlink:href="#dirArrow" transform="translate(30 24)" onmousedown="handlePan(0,-1)">
                  <use xlink:href="#rim" fill="#404040">
                        <set attributeName="fill" to="#808080" begin="arrowUp.mouseover" end="arrowUp.mouseout"/>
                  </use>
                  <path fill="none" stroke="white" stroke-width="1.5" d="M0,-3.0v7 M-2.5,-0.5L0,-3.0L2.5,-0.5"/>
                </g>
                <g id="arrowRight" xlink:href="#dirArrow" transform="rotate(90) translate(36 -43)" onmousedown="handlePan(1,0)">
                  <use xlink:href="#rim" fill="#404040">
                        <set attributeName="fill" to="#808080" begin="arrowRight.mouseover" end="arrowRight.mouseout"/>
                  </use>
                  <path fill="none" stroke="white" stroke-width="1.5" d="M0,-3.0v7 M-2.5,-0.5L0,-3.0L2.5,-0.5"/>
                </g>
                <g id="arrowDown" xlink:href="#dirArrow" transform="rotate(180) translate(-30 -48)" onmousedown="handlePan(0,1)">
                  <use xlink:href="#rim" fill="#404040">
                        <set attributeName="fill" to="#808080" begin="arrowDown.mouseover" end="arrowDown.mouseout"/>
                  </use>
                  <path fill="none" stroke="white" stroke-width="1.5" d="M0,-3.0v7 M-2.5,-0.5L0,-3.0L2.5,-0.5"/>
                </g>
                <g id="arrowLeft" xlink:href="#dirArrow" transform="rotate(270) translate(-36 17)" onmousedown="handlePan(-1,0)">
                  <use xlink:href="#rim" fill="#404040">
                        <set attributeName="fill" to="#808080" begin="arrowLeft.mouseover" end="arrowLeft.mouseout"/>
                  </use>
                  <path fill="none" stroke="white" stroke-width="1.5" d="M0,-3.0v7 M-2.5,-0.5L0,-3.0L2.5,-0.5"/>
                </g>
        </g>
        <svg viewBox="0 0 15 15" width="100%" height="30px" preserveAspectRatio="xMaxYMin meet">
         <g id="arrow_out" transform="scale(0.3 0.3)">
          <a xlink:href="classAddInertiaMoment_a50d3efa11e6c2a8d12c397224679d259_cgraph_org.svg" target="_base">
           <rect id="button" ry="5" rx="5" y="6" x="6" height="38" width="38"
                fill="#f2f5e9" fill-opacity="0.5" stroke="#606060" stroke-width="1.0"/>
           <path id="arrow"
             d="M 11.500037,31.436501 C 11.940474,20.09759 22.043105,11.32322 32.158766,21.979434 L 37.068811,17.246167 C 37.068811,17.246167 37.088388,32 37.088388,32 L 22.160133,31.978069 C 22.160133,31.978069 26.997745,27.140456 26.997745,27.140456 C 18.528582,18.264221 13.291696,25.230495 11.500037,31.436501 z"
             style="fill:#404040;"/>
          </a>
         </g>
        </svg>
</svg>
