<?xml version="1.0" encoding="UTF-8" standalone="no"?>
<!DOCTYPE svg PUBLIC "-//W3C//DTD SVG 1.1//EN"
 "http://www.w3.org/Graphics/SVG/1.1/DTD/svg11.dtd">
<!-- Generated by graphviz version 2.40.1 (20161225.0304)
 -->
<!-- Title: DataKeys::required Pages: 1 -->
<svg width="592pt" height="494pt"
 viewBox="0.00 0.00 592.00 494.00" xmlns="http://www.w3.org/2000/svg" xmlns:xlink="http://www.w3.org/1999/xlink">
<g id="graph0" class="graph" transform="scale(1 1) rotate(0) translate(4 490)">
<title>DataKeys::required</title>
<polygon fill="#ffffff" stroke="transparent" points="-4,4 -4,-490 588,-490 588,4 -4,4"/>
<!-- Node40 -->
<g id="node1" class="node">
<title>Node40</title>
<polygon fill="#bfbfbf" stroke="#000000" points="0,-230.5 0,-249.5 100,-249.5 100,-230.5 0,-230.5"/>
<text text-anchor="middle" x="50" y="-237.5" font-family="Helvetica,sans-Serif" font-size="10.00" fill="#000000">DataKeys::required</text>
</g>
<!-- Node41 -->
<g id="node2" class="node">
<title>Node41</title>
<g id="a_node2"><a xlink:href="classAddChildIDs.html#a44a0b778c9c4b17c9ce9051b990af73d" target="_top" xlink:title="Compute properties and add them to Element::data given as a mutable reference. ">
<polygon fill="#ffffff" stroke="#000000" points="149,-466.5 149,-485.5 286,-485.5 286,-466.5 149,-466.5"/>
<text text-anchor="middle" x="217.5" y="-473.5" font-family="Helvetica,sans-Serif" font-size="10.00" fill="#000000">AddChildIDs::compute_impl</text>
</a>
</g>
</g>
<!-- Node40&#45;&gt;Node41 -->
<g id="edge1" class="edge">
<title>Node40&#45;&gt;Node41</title>
<path fill="none" stroke="#191970" d="M51.791,-259.5255C56.7927,-302.2282 74.8479,-404.3045 136,-457 140.4025,-460.7937 145.4189,-463.8657 150.7499,-466.3489"/>
<polygon fill="#191970" stroke="#191970" points="55.2715,-259.155 50.7414,-249.5775 48.3101,-259.8896 55.2715,-259.155"/>
</g>
<!-- Node42 -->
<g id="node3" class="node">
<title>Node42</title>
<g id="a_node3"><a xlink:href="classAddChildPositions.html#ab200c619009c1db1deefb92c68010f9a" target="_top" xlink:title="Compute properties and add them to Element::data given as a mutable reference. ">
<polygon fill="#ffffff" stroke="#000000" points="166.5,-417 166.5,-447 268.5,-447 268.5,-417 166.5,-417"/>
<text text-anchor="start" x="174.5" y="-435" font-family="Helvetica,sans-Serif" font-size="10.00" fill="#000000">AddChildPositions::</text>
<text text-anchor="middle" x="217.5" y="-424" font-family="Helvetica,sans-Serif" font-size="10.00" fill="#000000">compute_impl</text>
</a>
</g>
</g>
<!-- Node40&#45;&gt;Node42 -->
<g id="edge2" class="edge">
<title>Node40&#45;&gt;Node42</title>
<path fill="none" stroke="#191970" d="M54.6646,-259.4341C64.0173,-294.212 88.3683,-367.1693 136,-407 144.6287,-414.2155 155.3171,-419.3502 166.0817,-423.0036"/>
<polygon fill="#191970" stroke="#191970" points="58.012,-258.3963 52.1446,-249.5745 51.23,-260.1298 58.012,-258.3963"/>
</g>
<!-- Node43 -->
<g id="node4" class="node">
<title>Node43</title>
<g id="a_node4"><a xlink:href="classAddCoMPosition.html#a8769c07c61840444ad80bf7e20acdbf2" target="_top" xlink:title="Compute properties and add them to Element::data given as a mutable reference. ">
<polygon fill="#ffffff" stroke="#000000" points="139.5,-378.5 139.5,-397.5 295.5,-397.5 295.5,-378.5 139.5,-378.5"/>
<text text-anchor="middle" x="217.5" y="-385.5" font-family="Helvetica,sans-Serif" font-size="10.00" fill="#000000">AddCoMPosition::compute_impl</text>
</a>
</g>
</g>
<!-- Node40&#45;&gt;Node43 -->
<g id="edge3" class="edge">
<title>Node40&#45;&gt;Node43</title>
<path fill="none" stroke="#191970" d="M57.3535,-259.2164C69.3182,-287.8006 95.7821,-341.1348 136,-369 141.6129,-372.8889 147.9119,-375.9903 154.4559,-378.4623"/>
<polygon fill="#191970" stroke="#191970" points="60.4563,-257.551 53.4793,-249.5778 53.9613,-260.1617 60.4563,-257.551"/>
</g>
<!-- Node44 -->
<g id="node5" class="node">
<title>Node44</title>
<g id="a_node5"><a xlink:href="classAddGyrationRadius.html#a53d9c62c9dbf976b815cb715a9f18a36" target="_top" xlink:title="Compute properties and add them to Element::data given as a mutable reference. ">
<polygon fill="#ffffff" stroke="#000000" points="164,-329 164,-359 271,-359 271,-329 164,-329"/>
<text text-anchor="start" x="172" y="-347" font-family="Helvetica,sans-Serif" font-size="10.00" fill="#000000">AddGyrationRadius::</text>
<text text-anchor="middle" x="217.5" y="-336" font-family="Helvetica,sans-Serif" font-size="10.00" fill="#000000">compute_impl</text>
</a>
</g>
</g>
<!-- Node40&#45;&gt;Node44 -->
<g id="edge4" class="edge">
<title>Node40&#45;&gt;Node44</title>
<path fill="none" stroke="#191970" d="M64.8726,-257.6721C80.7787,-275.5205 107.5798,-302.7157 136,-319 144.6037,-323.9298 154.2864,-327.9916 163.894,-331.302"/>
<polygon fill="#191970" stroke="#191970" points="67.1843,-254.9968 57.98,-249.7498 61.9032,-259.5915 67.1843,-254.9968"/>
</g>
<!-- Node45 -->
<g id="node6" class="node">
<title>Node45</title>
<g id="a_node6"><a xlink:href="classAddInertiaMoment.html#a50d3efa11e6c2a8d12c397224679d259" target="_top" xlink:title="Compute properties and add them to Element::data given as a mutable reference. ">
<polygon fill="#ffffff" stroke="#000000" points="136,-290.5 136,-309.5 299,-309.5 299,-290.5 136,-290.5"/>
<text text-anchor="middle" x="217.5" y="-297.5" font-family="Helvetica,sans-Serif" font-size="10.00" fill="#000000">AddInertiaMoment::compute_impl</text>
</a>
</g>
</g>
<!-- Node40&#45;&gt;Node45 -->
<g id="edge5" class="edge">
<title>Node40&#45;&gt;Node45</title>
<path fill="none" stroke="#191970" d="M76.4519,-254.4433C93.1472,-263.0939 115.3821,-273.7773 136,-281 146.4209,-284.6506 157.8374,-287.8082 168.7399,-290.4438"/>
<polygon fill="#191970" stroke="#191970" points="77.7944,-251.1944 67.3163,-249.6264 74.5296,-257.3864 77.7944,-251.1944"/>
</g>
<!-- Node46 -->
<g id="node7" class="node">
<title>Node46</title>
<g id="a_node7"><a xlink:href="classAddMap.html#a43e6a1d41af46c02ac2ad813075466cf" target="_top" xlink:title="Compute properties and add them to Element::data given as a mutable reference. ">
<polygon fill="#ffffff" stroke="#000000" points="158,-252.5 158,-271.5 277,-271.5 277,-252.5 158,-252.5"/>
<text text-anchor="middle" x="217.5" y="-259.5" font-family="Helvetica,sans-Serif" font-size="10.00" fill="#000000">AddMap::compute_impl</text>
</a>
</g>
</g>
<!-- Node40&#45;&gt;Node46 -->
<g id="edge6" class="edge">
<title>Node40&#45;&gt;Node46</title>
<path fill="none" stroke="#191970" d="M110.239,-247.912C125.7247,-249.9459 142.3774,-252.1332 157.834,-254.1633"/>
<polygon fill="#191970" stroke="#191970" points="110.6262,-244.4329 100.2555,-246.6007 109.7146,-251.3733 110.6262,-244.4329"/>
</g>
<!-- Node47 -->
<g id="node8" class="node">
<title>Node47</title>
<g id="a_node8"><a xlink:href="classAddMolecularOrientation.html#a886b802585d1dfa299dd9f42e3eef29e" target="_top" xlink:title="Compute properties and add them to Element::data given as a mutable reference. ">
<polygon fill="#ffffff" stroke="#000000" points="156,-203 156,-233 279,-233 279,-203 156,-203"/>
<text text-anchor="start" x="164" y="-221" font-family="Helvetica,sans-Serif" font-size="10.00" fill="#000000">AddMolecularOrientation</text>
<text text-anchor="middle" x="217.5" y="-210" font-family="Helvetica,sans-Serif" font-size="10.00" fill="#000000">::compute_impl</text>
</a>
</g>
</g>
<!-- Node40&#45;&gt;Node47 -->
<g id="edge7" class="edge">
<title>Node40&#45;&gt;Node47</title>
<path fill="none" stroke="#191970" d="M110.2861,-232.0818C125.0555,-230.142 140.8839,-228.063 155.7221,-226.1141"/>
<polygon fill="#191970" stroke="#191970" points="109.7146,-228.6267 100.2555,-233.3993 110.6262,-235.5671 109.7146,-228.6267"/>
</g>
<!-- Node48 -->
<g id="node9" class="node">
<title>Node48</title>
<g id="a_node9"><a xlink:href="classAddRename.html#a34e997ee2632a7ef703810ebfbf1aa8d" target="_top" xlink:title="Compute properties and add them to Element::data given as a mutable reference. ">
<polygon fill="#ffffff" stroke="#000000" points="149,-164.5 149,-183.5 286,-183.5 286,-164.5 149,-164.5"/>
<text text-anchor="middle" x="217.5" y="-171.5" font-family="Helvetica,sans-Serif" font-size="10.00" fill="#000000">AddRename::compute_impl</text>
</a>
</g>
</g>
<!-- Node40&#45;&gt;Node48 -->
<g id="edge8" class="edge">
<title>Node40&#45;&gt;Node48</title>
<path fill="none" stroke="#191970" d="M73.6192,-225.2815C90.483,-215.2992 113.9877,-202.4342 136,-194 146.7477,-189.8819 158.6233,-186.4009 169.9072,-183.5559"/>
<polygon fill="#191970" stroke="#191970" points="71.7439,-222.3251 64.9852,-230.4841 75.3568,-228.3207 71.7439,-222.3251"/>
</g>
<!-- Node49 -->
<g id="node10" class="node">
<title>Node49</title>
<g id="a_node10"><a xlink:href="classAddWrappedPosition.html#af5ea4e6203dc8db97b8a8f73b2d83822" target="_top" xlink:title="Compute properties and add them to Element::data given as a mutable reference. ">
<polygon fill="#ffffff" stroke="#000000" points="164,-115 164,-145 271,-145 271,-115 164,-115"/>
<text text-anchor="start" x="172" y="-133" font-family="Helvetica,sans-Serif" font-size="10.00" fill="#000000">AddWrappedPosition</text>
<text text-anchor="middle" x="217.5" y="-122" font-family="Helvetica,sans-Serif" font-size="10.00" fill="#000000">::compute_impl</text>
</a>
</g>
</g>
<!-- Node40&#45;&gt;Node49 -->
<g id="edge9" class="edge">
<title>Node40&#45;&gt;Node49</title>
<path fill="none" stroke="#191970" d="M63.4251,-222.3699C78.9266,-203.1734 106.1518,-172.8349 136,-155 144.5122,-149.9138 154.1513,-145.7775 163.7444,-142.4422"/>
<polygon fill="#191970" stroke="#191970" points="60.6002,-220.3 57.1605,-230.3209 66.0986,-224.6322 60.6002,-220.3"/>
</g>
<!-- Node50 -->
<g id="node11" class="node">
<title>Node50</title>
<g id="a_node11"><a xlink:href="classElement.html#a2dd2b3ed6f76878ae6cc1c1a36183517" target="_top" xlink:title="Wrapper for DataKeys::required. ">
<polygon fill="#ffffff" stroke="#000000" points="171,-76.5 171,-95.5 264,-95.5 264,-76.5 171,-76.5"/>
<text text-anchor="middle" x="217.5" y="-83.5" font-family="Helvetica,sans-Serif" font-size="10.00" fill="#000000">Element::required</text>
</a>
</g>
</g>
<!-- Node40&#45;&gt;Node50 -->
<g id="edge10" class="edge">
<title>Node40&#45;&gt;Node50</title>
<path fill="none" stroke="#191970" d="M56.8614,-220.9261C68.4461,-191.5334 94.7359,-135.4855 136,-106 146.1943,-98.7156 158.7369,-94.0683 170.8996,-91.1084"/>
<polygon fill="#191970" stroke="#191970" points="53.5231,-219.8589 53.2582,-230.4504 60.0703,-222.3358 53.5231,-219.8589"/>
</g>
<!-- Node56 -->
<g id="node17" class="node">
<title>Node56</title>
<g id="a_node17"><a xlink:href="classFilComparison.html#af7dc169cdedf15e6b8dc355cc973e90f" target="_top" xlink:title="Implementation of computation to update the data. ">
<polygon fill="#ffffff" stroke="#000000" points="144.5,-38.5 144.5,-57.5 290.5,-57.5 290.5,-38.5 144.5,-38.5"/>
<text text-anchor="middle" x="217.5" y="-45.5" font-family="Helvetica,sans-Serif" font-size="10.00" fill="#000000">FilComparison::compute_impl</text>
</a>
</g>
</g>
<!-- Node40&#45;&gt;Node56 -->
<g id="edge19" class="edge">
<title>Node40&#45;&gt;Node56</title>
<path fill="none" stroke="#191970" d="M53.951,-220.5305C62.3413,-184.3897 85.4599,-106.979 136,-67 140.8997,-63.1242 146.4528,-60.0143 152.3016,-57.5224"/>
<polygon fill="#191970" stroke="#191970" points="50.5243,-219.8175 51.8059,-230.3346 57.3625,-221.3138 50.5243,-219.8175"/>
</g>
<!-- Node57 -->
<g id="node18" class="node">
<title>Node57</title>
<g id="a_node18"><a xlink:href="classFilSet.html#a0335614b1856870777ab1af370406fd2" target="_top" xlink:title="Implementation of computation to update the data. ">
<polygon fill="#ffffff" stroke="#000000" points="163,-.5 163,-19.5 272,-19.5 272,-.5 163,-.5"/>
<text text-anchor="middle" x="217.5" y="-7.5" font-family="Helvetica,sans-Serif" font-size="10.00" fill="#000000">FilSet::compute_impl</text>
</a>
</g>
</g>
<!-- Node40&#45;&gt;Node57 -->
<g id="edge20" class="edge">
<title>Node40&#45;&gt;Node57</title>
<path fill="none" stroke="#191970" d="M52.0797,-220.1549C57.5833,-178.1188 76.4608,-79.8045 136,-29 143.6259,-22.4929 153.0617,-18.1132 162.7777,-15.1869"/>
<polygon fill="#191970" stroke="#191970" points="48.5884,-219.8743 50.8821,-230.2179 55.5394,-220.7016 48.5884,-219.8743"/>
</g>
<!-- Node51 -->
<g id="node12" class="node">
<title>Node51</title>
<g id="a_node12"><a xlink:href="classElement.html#a8257b02b1e3b208f193b35d5d47b9af8" target="_top" xlink:title="Wrapper for the array1d method for integer values. Can be called from Python as get_1d_int. ">
<polygon fill="#ffffff" stroke="#000000" points="339.5,-133.5 339.5,-152.5 458.5,-152.5 458.5,-133.5 339.5,-133.5"/>
<text text-anchor="middle" x="399" y="-140.5" font-family="Helvetica,sans-Serif" font-size="10.00" fill="#000000">Element::get_1d_int_py</text>
</a>
</g>
</g>
<!-- Node50&#45;&gt;Node51 -->
<g id="edge11" class="edge">
<title>Node50&#45;&gt;Node51</title>
<path fill="none" stroke="#191970" d="M274.0158,-98.1287C282.4832,-100.4452 291.0385,-103.0745 299,-106 315.7908,-112.17 318.3619,-117.4293 335,-124 343.8398,-127.491 353.583,-130.695 362.7439,-133.4376"/>
<polygon fill="#191970" stroke="#191970" points="274.7169,-94.6945 264.157,-95.5541 272.9481,-101.4674 274.7169,-94.6945"/>
</g>
<!-- Node53 -->
<g id="node14" class="node">
<title>Node53</title>
<g id="a_node14"><a xlink:href="classElement.html#a3f11848589faad4cbca8119385887713" target="_top" xlink:title="Wrapper for the array1d method for float (double in C++) values. Can be called from Python as get_1d_...">
<polygon fill="#ffffff" stroke="#000000" points="335,-95.5 335,-114.5 463,-114.5 463,-95.5 335,-95.5"/>
<text text-anchor="middle" x="399" y="-102.5" font-family="Helvetica,sans-Serif" font-size="10.00" fill="#000000">Element::get_1d_float_py</text>
</a>
</g>
</g>
<!-- Node50&#45;&gt;Node53 -->
<g id="edge13" class="edge">
<title>Node50&#45;&gt;Node53</title>
<path fill="none" stroke="#191970" d="M274.3606,-91.9523C293.602,-93.9666 315.217,-96.2293 334.976,-98.2978"/>
<polygon fill="#191970" stroke="#191970" points="274.5508,-88.4532 264.2408,-90.893 273.822,-95.4152 274.5508,-88.4532"/>
</g>
<!-- Node54 -->
<g id="node15" class="node">
<title>Node54</title>
<g id="a_node15"><a xlink:href="classElement.html#a8e8245fb94b6417e3e804e6bfdf2f906" target="_top" xlink:title="Wrapper for the array2d method for integer values. Can be called from Python as get_2d_int. ">
<polygon fill="#ffffff" stroke="#000000" points="339.5,-57.5 339.5,-76.5 458.5,-76.5 458.5,-57.5 339.5,-57.5"/>
<text text-anchor="middle" x="399" y="-64.5" font-family="Helvetica,sans-Serif" font-size="10.00" fill="#000000">Element::get_2d_int_py</text>
</a>
</g>
</g>
<!-- Node50&#45;&gt;Node54 -->
<g id="edge15" class="edge">
<title>Node50&#45;&gt;Node54</title>
<path fill="none" stroke="#191970" d="M274.4528,-80.038C295.111,-77.8754 318.4954,-75.4275 339.3777,-73.2415"/>
<polygon fill="#191970" stroke="#191970" points="273.822,-76.5848 264.2408,-81.107 274.5508,-83.5468 273.822,-76.5848"/>
</g>
<!-- Node55 -->
<g id="node16" class="node">
<title>Node55</title>
<g id="a_node16"><a xlink:href="classElement.html#a6a62280eadd3d4e6bfe8c43082797733" target="_top" xlink:title="Wrapper for the array2d method for float (double in C++) values. Can be called from Python as get_2d_...">
<polygon fill="#ffffff" stroke="#000000" points="335,-19.5 335,-38.5 463,-38.5 463,-19.5 335,-19.5"/>
<text text-anchor="middle" x="399" y="-26.5" font-family="Helvetica,sans-Serif" font-size="10.00" fill="#000000">Element::get_2d_float_py</text>
</a>
</g>
</g>
<!-- Node50&#45;&gt;Node55 -->
<g id="edge17" class="edge">
<title>Node50&#45;&gt;Node55</title>
<path fill="none" stroke="#191970" d="M274.0826,-74.7987C282.5408,-72.5541 291.0758,-69.9585 299,-67 315.9489,-60.672 318.247,-54.8298 335,-48 343.6936,-44.4559 353.293,-41.2523 362.3546,-38.5287"/>
<polygon fill="#191970" stroke="#191970" points="273.076,-71.4428 264.2298,-77.2733 274.7812,-78.2319 273.076,-71.4428"/>
</g>
<!-- Node52 -->
<g id="node13" class="node">
<title>Node52</title>
<g id="a_node13"><a xlink:href="pybind_2element_8h.html#a32471b3cace9ede01900bfbdaca5e16a" target="_top" xlink:title="Function to bind Element class to Python. ">
<polygon fill="#ffffff" stroke="#000000" points="499,-76.5 499,-95.5 584,-95.5 584,-76.5 499,-76.5"/>
<text text-anchor="middle" x="541.5" y="-83.5" font-family="Helvetica,sans-Serif" font-size="10.00" fill="#000000">pybind_element</text>
</a>
</g>
</g>
<!-- Node51&#45;&gt;Node52 -->
<g id="edge12" class="edge">
<title>Node51&#45;&gt;Node52</title>
<path fill="none" stroke="#191970" d="M444.5966,-130.4556C450.8345,-128.4518 457.1134,-126.2812 463,-124 484.4597,-115.6838 508.1103,-103.8466 523.7848,-95.6014"/>
<polygon fill="#191970" stroke="#191970" points="443.4089,-127.1593 434.8904,-133.4591 445.4782,-133.8465 443.4089,-127.1593"/>
</g>
<!-- Node53&#45;&gt;Node52 -->
<g id="edge14" class="edge">
<title>Node53&#45;&gt;Node52</title>
<path fill="none" stroke="#191970" d="M473.1344,-95.1154C481.9695,-93.9374 490.7453,-92.7673 498.9172,-91.6777"/>
<polygon fill="#191970" stroke="#191970" points="472.6129,-91.6539 463.1633,-96.4449 473.5381,-98.5925 472.6129,-91.6539"/>
</g>
<!-- Node54&#45;&gt;Node52 -->
<g id="edge16" class="edge">
<title>Node54&#45;&gt;Node52</title>
<path fill="none" stroke="#191970" d="M468.7498,-76.3C478.9369,-77.6583 489.1649,-79.022 498.6004,-80.2801"/>
<polygon fill="#191970" stroke="#191970" points="468.982,-72.8 458.6072,-74.9476 468.0568,-79.7386 468.982,-72.8"/>
</g>
<!-- Node55&#45;&gt;Node52 -->
<g id="edge18" class="edge">
<title>Node55&#45;&gt;Node52</title>
<path fill="none" stroke="#191970" d="M444.5966,-41.5444C450.8345,-43.5482 457.1134,-45.7188 463,-48 484.4597,-56.3162 508.1103,-68.1534 523.7848,-76.3986"/>
<polygon fill="#191970" stroke="#191970" points="445.4782,-38.1535 434.8904,-38.5409 443.4089,-44.8407 445.4782,-38.1535"/>
</g>
</g>
</svg>
