<?xml version="1.0" encoding="UTF-8" standalone="no"?>
<!DOCTYPE svg PUBLIC "-//W3C//DTD SVG 1.1//EN"
 "http://www.w3.org/Graphics/SVG/1.1/DTD/svg11.dtd">
<!-- Generated by graphviz version 2.40.1 (20161225.0304)
 -->
<!-- Title: Element::decrement_remain Pages: 1 -->
<svg width="368pt" height="104pt"
 viewBox="0.00 0.00 368.00 104.00" xmlns="http://www.w3.org/2000/svg" xmlns:xlink="http://www.w3.org/1999/xlink">
<g id="graph0" class="graph" transform="scale(1 1) rotate(0) translate(4 100)">
<title>Element::decrement_remain</title>
<polygon fill="#ffffff" stroke="transparent" points="-4,4 -4,-100 364,-100 364,4 -4,4"/>
<!-- Node21 -->
<g id="node1" class="node">
<title>Node21</title>
<polygon fill="#bfbfbf" stroke="#000000" points="0,-33 0,-63 104,-63 104,-33 0,-33"/>
<text text-anchor="start" x="8" y="-51" font-family="Helvetica,sans-Serif" font-size="10.00" fill="#000000">Element::decrement</text>
<text text-anchor="middle" x="52" y="-40" font-family="Helvetica,sans-Serif" font-size="10.00" fill="#000000">_remain</text>
</g>
<!-- Node22 -->
<g id="node2" class="node">
<title>Node22</title>
<g id="a_node2"><a xlink:href="classDataKeys.html#a4d5c1a42ff2828801167098e658fa578" target="_top" xlink:title="DataKeys::clear">
<polygon fill="#ffffff" stroke="#000000" points="146,-76.5 146,-95.5 232,-95.5 232,-76.5 146,-76.5"/>
<text text-anchor="middle" x="189" y="-83.5" font-family="Helvetica,sans-Serif" font-size="10.00" fill="#000000">DataKeys::clear</text>
</a>
</g>
</g>
<!-- Node21&#45;&gt;Node22 -->
<g id="edge1" class="edge">
<title>Node21&#45;&gt;Node22</title>
<path fill="none" stroke="#191970" d="M104.1846,-62.4746C117.4307,-66.1487 131.541,-70.0625 144.3736,-73.6219"/>
<polygon fill="#191970" stroke="#191970" points="143.7786,-77.0889 154.3503,-76.3891 145.6496,-70.3436 143.7786,-77.0889"/>
</g>
<!-- Node23 -->
<g id="node3" class="node">
<title>Node23</title>
<g id="a_node3"><a xlink:href="namespaceutils.html#a26267fe7371b6215c5d61374d716527b" target="_top" xlink:title="utils::log">
<polygon fill="#ffffff" stroke="#000000" points="162.5,-38.5 162.5,-57.5 215.5,-57.5 215.5,-38.5 162.5,-38.5"/>
<text text-anchor="middle" x="189" y="-45.5" font-family="Helvetica,sans-Serif" font-size="10.00" fill="#000000">utils::log</text>
</a>
</g>
</g>
<!-- Node21&#45;&gt;Node23 -->
<g id="edge2" class="edge">
<title>Node21&#45;&gt;Node23</title>
<path fill="none" stroke="#191970" d="M104.1846,-48C120.1269,-48 137.3211,-48 152.033,-48"/>
<polygon fill="#191970" stroke="#191970" points="152.2535,-51.5001 162.2534,-48 152.2534,-44.5001 152.2535,-51.5001"/>
</g>
<!-- Node25 -->
<g id="node5" class="node">
<title>Node25</title>
<g id="a_node5"><a xlink:href="namespaceutils.html#acee57b54806ee63ddaa30518fed90adb" target="_top" xlink:title="utils::runtime_error">
<polygon fill="#ffffff" stroke="#000000" points="140,-.5 140,-19.5 238,-19.5 238,-.5 140,-.5"/>
<text text-anchor="middle" x="189" y="-7.5" font-family="Helvetica,sans-Serif" font-size="10.00" fill="#000000">utils::runtime_error</text>
</a>
</g>
</g>
<!-- Node21&#45;&gt;Node25 -->
<g id="edge4" class="edge">
<title>Node21&#45;&gt;Node25</title>
<path fill="none" stroke="#191970" d="M104.1846,-33.5254C117.4307,-29.8513 131.541,-25.9375 144.3736,-22.3781"/>
<polygon fill="#191970" stroke="#191970" points="145.6496,-25.6564 154.3503,-19.6109 143.7786,-18.9111 145.6496,-25.6564"/>
</g>
<!-- Node24 -->
<g id="node4" class="node">
<title>Node24</title>
<g id="a_node4"><a xlink:href="namespaceutils.html#a3b5f21e223fdb0898119de641a1685f6" target="_top" xlink:title="utils::_message">
<polygon fill="#ffffff" stroke="#000000" points="274,-38.5 274,-57.5 360,-57.5 360,-38.5 274,-38.5"/>
<text text-anchor="middle" x="317" y="-45.5" font-family="Helvetica,sans-Serif" font-size="10.00" fill="#000000">utils::_message</text>
</a>
</g>
</g>
<!-- Node23&#45;&gt;Node24 -->
<g id="edge3" class="edge">
<title>Node23&#45;&gt;Node24</title>
<path fill="none" stroke="#191970" d="M215.5217,-48C229.4691,-48 247.083,-48 263.7053,-48"/>
<polygon fill="#191970" stroke="#191970" points="263.8853,-51.5001 273.8853,-48 263.8853,-44.5001 263.8853,-51.5001"/>
</g>
</g>
</svg>
