<?xml version="1.0" encoding="UTF-8" standalone="no"?>
<!DOCTYPE svg PUBLIC "-//W3C//DTD SVG 1.1//EN"
 "http://www.w3.org/Graphics/SVG/1.1/DTD/svg11.dtd">
<!-- Generated by graphviz version 2.40.1 (20161225.0304)
 -->
<!-- Title: AddRename Pages: 1 -->
<svg width="257pt" height="419pt"
 viewBox="0.00 0.00 256.50 419.00" xmlns="http://www.w3.org/2000/svg" xmlns:xlink="http://www.w3.org/1999/xlink">
<g id="graph0" class="graph" transform="scale(1 1) rotate(0) translate(4 415)">
<title>AddRename</title>
<polygon fill="#ffffff" stroke="transparent" points="-4,4 -4,-415 252.5,-415 252.5,4 -4,4"/>
<!-- Node0 -->
<g id="node1" class="node">
<title>Node0</title>
<polygon fill="#bfbfbf" stroke="#000000" points="78,-.5 78,-112.5 170,-112.5 170,-.5 78,-.5"/>
<text text-anchor="middle" x="124" y="-100.5" font-family="Helvetica,sans-Serif" font-size="10.00" fill="#000000">AddRename</text>
<polyline fill="none" stroke="#000000" points="78,-93.5 170,-93.5 "/>
<text text-anchor="start" x="86" y="-81.5" font-family="Helvetica,sans-Serif" font-size="10.00" fill="#000000">&#45; do_overwrite</text>
<text text-anchor="start" x="86" y="-70.5" font-family="Helvetica,sans-Serif" font-size="10.00" fill="#000000">&#45; key_old</text>
<text text-anchor="start" x="86" y="-59.5" font-family="Helvetica,sans-Serif" font-size="10.00" fill="#000000">&#45; key_new</text>
<polyline fill="none" stroke="#000000" points="78,-52.5 170,-52.5 "/>
<text text-anchor="start" x="86" y="-40.5" font-family="Helvetica,sans-Serif" font-size="10.00" fill="#000000">+ AddRename()</text>
<text text-anchor="start" x="86" y="-29.5" font-family="Helvetica,sans-Serif" font-size="10.00" fill="#000000">+ ~AddRename()</text>
<text text-anchor="start" x="86" y="-18.5" font-family="Helvetica,sans-Serif" font-size="10.00" fill="#000000">+ overwrite()</text>
<text text-anchor="start" x="86" y="-7.5" font-family="Helvetica,sans-Serif" font-size="10.00" fill="#000000"># compute_impl()</text>
</g>
<!-- Node1 -->
<g id="node2" class="node">
<title>Node1</title>
<g id="a_node2"><a xlink:href="classAdder.html" target="_top" xlink:title="{Adder\n||+ ~Adder()\l+ compute()\l+ Updater()\l}">
<polygon fill="#ffffff" stroke="#000000" points="30.5,-149.5 30.5,-228.5 99.5,-228.5 99.5,-149.5 30.5,-149.5"/>
<text text-anchor="middle" x="65" y="-216.5" font-family="Helvetica,sans-Serif" font-size="10.00" fill="#000000">Adder</text>
<polyline fill="none" stroke="#000000" points="30.5,-209.5 99.5,-209.5 "/>
<text text-anchor="middle" x="65" y="-197.5" font-family="Helvetica,sans-Serif" font-size="10.00" fill="#000000"> </text>
<polyline fill="none" stroke="#000000" points="30.5,-190.5 99.5,-190.5 "/>
<text text-anchor="start" x="38.5" y="-178.5" font-family="Helvetica,sans-Serif" font-size="10.00" fill="#000000">+ ~Adder()</text>
<text text-anchor="start" x="38.5" y="-167.5" font-family="Helvetica,sans-Serif" font-size="10.00" fill="#000000">+ compute()</text>
<text text-anchor="start" x="38.5" y="-156.5" font-family="Helvetica,sans-Serif" font-size="10.00" fill="#000000">+ Updater()</text>
</a>
</g>
</g>
<!-- Node1&#45;&gt;Node0 -->
<g id="edge1" class="edge">
<title>Node1&#45;&gt;Node0</title>
<path fill="none" stroke="#191970" d="M86.8637,-139.8994C90.782,-131.0997 94.8934,-121.8665 98.8945,-112.8811"/>
<polygon fill="none" stroke="#191970" points="83.5724,-138.6866 82.7019,-149.2456 89.9671,-141.5341 83.5724,-138.6866"/>
</g>
<!-- Node2 -->
<g id="node3" class="node">
<title>Node2</title>
<g id="a_node3"><a xlink:href="classUpdater.html" target="_top" xlink:title="Updater is an abstract class to update data held by Element class. ">
<polygon fill="#ffffff" stroke="#000000" points="0,-265.5 0,-410.5 130,-410.5 130,-265.5 0,-265.5"/>
<text text-anchor="middle" x="65" y="-398.5" font-family="Helvetica,sans-Serif" font-size="10.00" fill="#000000">Updater</text>
<polyline fill="none" stroke="#000000" points="0,-391.5 130,-391.5 "/>
<text text-anchor="start" x="8" y="-379.5" font-family="Helvetica,sans-Serif" font-size="10.00" fill="#000000"># ext_generator</text>
<text text-anchor="start" x="8" y="-368.5" font-family="Helvetica,sans-Serif" font-size="10.00" fill="#000000">&#45; dataid_blacklist</text>
<text text-anchor="start" x="8" y="-357.5" font-family="Helvetica,sans-Serif" font-size="10.00" fill="#000000">&#45; omp_lock</text>
<polyline fill="none" stroke="#000000" points="0,-350.5 130,-350.5 "/>
<text text-anchor="start" x="8" y="-338.5" font-family="Helvetica,sans-Serif" font-size="10.00" fill="#000000">+ Updater()</text>
<text text-anchor="start" x="8" y="-327.5" font-family="Helvetica,sans-Serif" font-size="10.00" fill="#000000">+ ~Updater()</text>
<text text-anchor="start" x="8" y="-316.5" font-family="Helvetica,sans-Serif" font-size="10.00" fill="#000000">+ compute()</text>
<text text-anchor="start" x="8" y="-305.5" font-family="Helvetica,sans-Serif" font-size="10.00" fill="#000000">+ remove_from_blacklist()</text>
<text text-anchor="start" x="8" y="-294.5" font-family="Helvetica,sans-Serif" font-size="10.00" fill="#000000">+ get_ext_generator()</text>
<text text-anchor="start" x="8" y="-283.5" font-family="Helvetica,sans-Serif" font-size="10.00" fill="#000000"># compute_impl()</text>
<text text-anchor="start" x="8" y="-272.5" font-family="Helvetica,sans-Serif" font-size="10.00" fill="#000000"># check_blacklist()</text>
</a>
</g>
</g>
<!-- Node2&#45;&gt;Node1 -->
<g id="edge2" class="edge">
<title>Node2&#45;&gt;Node1</title>
<path fill="none" stroke="#191970" d="M65,-254.9585C65,-245.8854 65,-236.9835 65,-228.8008"/>
<polygon fill="none" stroke="#191970" points="61.5001,-255.2459 65,-265.246 68.5001,-255.246 61.5001,-255.2459"/>
</g>
<!-- Node3 -->
<g id="node4" class="node">
<title>Node3</title>
<polygon fill="#ffffff" stroke="#bfbfbf" points="117.5,-160.5 117.5,-217.5 248.5,-217.5 248.5,-160.5 117.5,-160.5"/>
<text text-anchor="middle" x="183" y="-205.5" font-family="Helvetica,sans-Serif" font-size="10.00" fill="#000000">EnShThis&lt; AddRename &gt;</text>
<polyline fill="none" stroke="#bfbfbf" points="117.5,-198.5 248.5,-198.5 "/>
<text text-anchor="middle" x="183" y="-186.5" font-family="Helvetica,sans-Serif" font-size="10.00" fill="#000000"> </text>
<polyline fill="none" stroke="#bfbfbf" points="117.5,-179.5 248.5,-179.5 "/>
<text text-anchor="middle" x="183" y="-167.5" font-family="Helvetica,sans-Serif" font-size="10.00" fill="#000000"> </text>
</g>
<!-- Node3&#45;&gt;Node0 -->
<g id="edge3" class="edge">
<title>Node3&#45;&gt;Node0</title>
<path fill="none" stroke="#191970" d="M166.0944,-151.034C160.7764,-139.0912 154.7862,-125.6386 149.0287,-112.7084"/>
<polygon fill="none" stroke="#191970" points="162.9327,-152.5379 170.1979,-160.2495 169.3274,-149.6905 162.9327,-152.5379"/>
</g>
</g>
</svg>
