<?xml version="1.0" encoding="UTF-8" standalone="no"?>
<!DOCTYPE svg PUBLIC "-//W3C//DTD SVG 1.1//EN"
 "http://www.w3.org/Graphics/SVG/1.1/DTD/svg11.dtd">
<!-- Generated by graphviz version 2.40.1 (20161225.0304)
 -->
<!-- Title: Element::get_2d_int_py Pages: 1 -->
<svg width="407pt" height="104pt"
 viewBox="0.00 0.00 407.00 104.00" xmlns="http://www.w3.org/2000/svg" xmlns:xlink="http://www.w3.org/1999/xlink">
<g id="graph0" class="graph" transform="scale(1 1) rotate(0) translate(4 100)">
<title>Element::get_2d_int_py</title>
<polygon fill="#ffffff" stroke="transparent" points="-4,4 -4,-100 403,-100 403,4 -4,4"/>
<!-- Node33 -->
<g id="node1" class="node">
<title>Node33</title>
<polygon fill="#bfbfbf" stroke="#000000" points="0,-38.5 0,-57.5 119,-57.5 119,-38.5 0,-38.5"/>
<text text-anchor="middle" x="59.5" y="-45.5" font-family="Helvetica,sans-Serif" font-size="10.00" fill="#000000">Element::get_2d_int_py</text>
</g>
<!-- Node34 -->
<g id="node2" class="node">
<title>Node34</title>
<g id="a_node2"><a xlink:href="classElement.html#a1fdb9455f49d2c66a0276925f7246cad" target="_top" xlink:title="Routines to be conducted when a wrapper of getter is called from Python. ">
<polygon fill="#ffffff" stroke="#000000" points="155,-76.5 155,-95.5 277,-95.5 277,-76.5 155,-76.5"/>
<text text-anchor="middle" x="216" y="-83.5" font-family="Helvetica,sans-Serif" font-size="10.00" fill="#000000">Element::init_for_python</text>
</a>
</g>
</g>
<!-- Node33&#45;&gt;Node34 -->
<g id="edge1" class="edge">
<title>Node33&#45;&gt;Node34</title>
<path fill="none" stroke="#191970" d="M98.9916,-57.589C119.6434,-62.6035 145.114,-68.7881 167.0125,-74.1053"/>
<polygon fill="#191970" stroke="#191970" points="166.2489,-77.5215 176.7924,-76.4799 167.9007,-70.7191 166.2489,-77.5215"/>
</g>
<!-- Node36 -->
<g id="node4" class="node">
<title>Node36</title>
<g id="a_node4"><a xlink:href="classElement.html#a2dd2b3ed6f76878ae6cc1c1a36183517" target="_top" xlink:title="Wrapper for required method of the DataKeys class. ">
<polygon fill="#ffffff" stroke="#000000" points="169.5,-38.5 169.5,-57.5 262.5,-57.5 262.5,-38.5 169.5,-38.5"/>
<text text-anchor="middle" x="216" y="-45.5" font-family="Helvetica,sans-Serif" font-size="10.00" fill="#000000">Element::required</text>
</a>
</g>
</g>
<!-- Node33&#45;&gt;Node36 -->
<g id="edge3" class="edge">
<title>Node33&#45;&gt;Node36</title>
<path fill="none" stroke="#191970" d="M119.1124,-48C132.199,-48 146.0241,-48 159.0048,-48"/>
<polygon fill="#191970" stroke="#191970" points="159.2039,-51.5001 169.2039,-48 159.2038,-44.5001 159.2039,-51.5001"/>
</g>
<!-- Node37 -->
<g id="node5" class="node">
<title>Node37</title>
<g id="a_node5"><a xlink:href="classElement.html#a4c2fcdb60e23dedce2b54b9deeadc469" target="_top" xlink:title="Extract the data as a tow&#45;dimensional Eigen&#45;Array. ">
<polygon fill="#ffffff" stroke="#000000" points="170.5,-.5 170.5,-19.5 261.5,-19.5 261.5,-.5 170.5,-.5"/>
<text text-anchor="middle" x="216" y="-7.5" font-family="Helvetica,sans-Serif" font-size="10.00" fill="#000000">Element::array2d</text>
</a>
</g>
</g>
<!-- Node33&#45;&gt;Node37 -->
<g id="edge4" class="edge">
<title>Node33&#45;&gt;Node37</title>
<path fill="none" stroke="#191970" d="M98.9916,-38.411C119.6434,-33.3965 145.114,-27.2119 167.0125,-21.8947"/>
<polygon fill="#191970" stroke="#191970" points="167.9007,-25.2809 176.7924,-19.5201 166.2489,-18.4785 167.9007,-25.2809"/>
</g>
<!-- Node35 -->
<g id="node3" class="node">
<title>Node35</title>
<g id="a_node3"><a xlink:href="classGenerator.html#ac4648b055ee0e51c1e68ea084156c222" target="_top" xlink:title="Hello to this Generator instance. ">
<polygon fill="#ffffff" stroke="#000000" points="313,-76.5 313,-95.5 399,-95.5 399,-76.5 313,-76.5"/>
<text text-anchor="middle" x="356" y="-83.5" font-family="Helvetica,sans-Serif" font-size="10.00" fill="#000000">Generator::hello</text>
</a>
</g>
</g>
<!-- Node34&#45;&gt;Node35 -->
<g id="edge2" class="edge">
<title>Node34&#45;&gt;Node35</title>
<path fill="none" stroke="#191970" d="M277.406,-86C285.7746,-86 294.3096,-86 302.5228,-86"/>
<polygon fill="#191970" stroke="#191970" points="302.7172,-89.5001 312.7172,-86 302.7171,-82.5001 302.7172,-89.5001"/>
</g>
</g>
</svg>
