<?xml version="1.0" encoding="UTF-8" standalone="no"?>
<!DOCTYPE svg PUBLIC "-//W3C//DTD SVG 1.1//EN"
 "http://www.w3.org/Graphics/SVG/1.1/DTD/svg11.dtd">
<!-- Generated by graphviz version 2.40.1 (20161225.0304)
 -->
<!-- Title: FilComparison Pages: 1 -->
<svg width="138pt" height="463pt"
 viewBox="0.00 0.00 138.00 463.00" xmlns="http://www.w3.org/2000/svg" xmlns:xlink="http://www.w3.org/1999/xlink">
<g id="graph0" class="graph" transform="scale(1 1) rotate(0) translate(4 459)">
<title>FilComparison</title>
<polygon fill="#ffffff" stroke="transparent" points="-4,4 -4,-459 134,-459 134,4 -4,4"/>
<!-- Node0 -->
<g id="node1" class="node">
<title>Node0</title>
<polygon fill="#bfbfbf" stroke="#000000" points="13,-.5 13,-112.5 117,-112.5 117,-.5 13,-.5"/>
<text text-anchor="middle" x="65" y="-100.5" font-family="Helvetica,sans-Serif" font-size="10.00" fill="#000000">FilComparison</text>
<polyline fill="none" stroke="#000000" points="13,-93.5 117,-93.5 "/>
<text text-anchor="start" x="21" y="-81.5" font-family="Helvetica,sans-Serif" font-size="10.00" fill="#000000">&#45; comparisons</text>
<polyline fill="none" stroke="#000000" points="13,-74.5 117,-74.5 "/>
<text text-anchor="start" x="21" y="-62.5" font-family="Helvetica,sans-Serif" font-size="10.00" fill="#000000">+ FilComparison()</text>
<text text-anchor="start" x="21" y="-51.5" font-family="Helvetica,sans-Serif" font-size="10.00" fill="#000000">+ FilComparison()</text>
<text text-anchor="start" x="21" y="-40.5" font-family="Helvetica,sans-Serif" font-size="10.00" fill="#000000">+ ~FilComparison()</text>
<text text-anchor="start" x="21" y="-29.5" font-family="Helvetica,sans-Serif" font-size="10.00" fill="#000000"># compute_impl()</text>
<text text-anchor="start" x="21" y="-18.5" font-family="Helvetica,sans-Serif" font-size="10.00" fill="#000000">&#45; make_lambda()</text>
<text text-anchor="start" x="21" y="-7.5" font-family="Helvetica,sans-Serif" font-size="10.00" fill="#000000">&#45; convert_to_funcs()</text>
</g>
<!-- Node1 -->
<g id="node2" class="node">
<title>Node1</title>
<g id="a_node2"><a xlink:href="classFilter.html" target="_top" xlink:title="Filter removes elements from array Element::data if the elements fail user&#45;defined criteria...">
<polygon fill="#ffffff" stroke="#000000" points="30.5,-149.5 30.5,-228.5 99.5,-228.5 99.5,-149.5 30.5,-149.5"/>
<text text-anchor="middle" x="65" y="-216.5" font-family="Helvetica,sans-Serif" font-size="10.00" fill="#000000">Filter</text>
<polyline fill="none" stroke="#000000" points="30.5,-209.5 99.5,-209.5 "/>
<text text-anchor="middle" x="65" y="-197.5" font-family="Helvetica,sans-Serif" font-size="10.00" fill="#000000"> </text>
<polyline fill="none" stroke="#000000" points="30.5,-190.5 99.5,-190.5 "/>
<text text-anchor="start" x="38.5" y="-178.5" font-family="Helvetica,sans-Serif" font-size="10.00" fill="#000000">+ ~Filter()</text>
<text text-anchor="start" x="38.5" y="-167.5" font-family="Helvetica,sans-Serif" font-size="10.00" fill="#000000">+ compute()</text>
<text text-anchor="start" x="38.5" y="-156.5" font-family="Helvetica,sans-Serif" font-size="10.00" fill="#000000">+ Updater()</text>
</a>
</g>
</g>
<!-- Node1&#45;&gt;Node0 -->
<g id="edge1" class="edge">
<title>Node1&#45;&gt;Node0</title>
<path fill="none" stroke="#191970" d="M65,-139.0556C65,-130.5106 65,-121.5797 65,-112.8811"/>
<polygon fill="none" stroke="#191970" points="61.5001,-139.2456 65,-149.2456 68.5001,-139.2457 61.5001,-139.2456"/>
</g>
<!-- Node2 -->
<g id="node3" class="node">
<title>Node2</title>
<g id="a_node3"><a xlink:href="classUpdater.html" target="_top" xlink:title="Updater is an abstract class to update data held by an Element object. ">
<polygon fill="#ffffff" stroke="#000000" points="0,-265.5 0,-454.5 130,-454.5 130,-265.5 0,-265.5"/>
<text text-anchor="middle" x="65" y="-442.5" font-family="Helvetica,sans-Serif" font-size="10.00" fill="#000000">Updater</text>
<polyline fill="none" stroke="#000000" points="0,-435.5 130,-435.5 "/>
<text text-anchor="start" x="8" y="-423.5" font-family="Helvetica,sans-Serif" font-size="10.00" fill="#000000"># ext_generator</text>
<text text-anchor="start" x="8" y="-412.5" font-family="Helvetica,sans-Serif" font-size="10.00" fill="#000000"># required_keys</text>
<text text-anchor="start" x="8" y="-401.5" font-family="Helvetica,sans-Serif" font-size="10.00" fill="#000000"># optional_keys</text>
<text text-anchor="start" x="8" y="-390.5" font-family="Helvetica,sans-Serif" font-size="10.00" fill="#000000">&#45; dataid_blacklist</text>
<text text-anchor="start" x="8" y="-379.5" font-family="Helvetica,sans-Serif" font-size="10.00" fill="#000000">&#45; omp_lock</text>
<polyline fill="none" stroke="#000000" points="0,-372.5 130,-372.5 "/>
<text text-anchor="start" x="8" y="-360.5" font-family="Helvetica,sans-Serif" font-size="10.00" fill="#000000">+ Updater()</text>
<text text-anchor="start" x="8" y="-349.5" font-family="Helvetica,sans-Serif" font-size="10.00" fill="#000000">+ ~Updater()</text>
<text text-anchor="start" x="8" y="-338.5" font-family="Helvetica,sans-Serif" font-size="10.00" fill="#000000">+ compute()</text>
<text text-anchor="start" x="8" y="-327.5" font-family="Helvetica,sans-Serif" font-size="10.00" fill="#000000">+ remove_from_blacklist()</text>
<text text-anchor="start" x="8" y="-316.5" font-family="Helvetica,sans-Serif" font-size="10.00" fill="#000000">+ get_ext_generator()</text>
<text text-anchor="start" x="8" y="-305.5" font-family="Helvetica,sans-Serif" font-size="10.00" fill="#000000"># compute_impl()</text>
<text text-anchor="start" x="8" y="-294.5" font-family="Helvetica,sans-Serif" font-size="10.00" fill="#000000"># make_required_keys()</text>
<text text-anchor="start" x="8" y="-283.5" font-family="Helvetica,sans-Serif" font-size="10.00" fill="#000000"># make_optional_keys()</text>
<text text-anchor="start" x="8" y="-272.5" font-family="Helvetica,sans-Serif" font-size="10.00" fill="#000000"># check_blacklist()</text>
</a>
</g>
</g>
<!-- Node2&#45;&gt;Node1 -->
<g id="edge2" class="edge">
<title>Node2&#45;&gt;Node1</title>
<path fill="none" stroke="#191970" d="M65,-255.2385C65,-245.8809 65,-236.8479 65,-228.6203"/>
<polygon fill="none" stroke="#191970" points="61.5001,-255.4972 65,-265.4973 68.5001,-255.4973 61.5001,-255.4972"/>
</g>
</g>
</svg>
