<?xml version="1.0" encoding="UTF-8" standalone="no"?>
<!DOCTYPE svg PUBLIC "-//W3C//DTD SVG 1.1//EN"
 "http://www.w3.org/Graphics/SVG/1.1/DTD/svg11.dtd">
<!-- Generated by graphviz version 2.40.1 (20161225.0304)
 -->
<!-- Title: Filter Pages: 1 -->
<svg width="222pt" height="568pt"
 viewBox="0.00 0.00 222.00 568.00" xmlns="http://www.w3.org/2000/svg" xmlns:xlink="http://www.w3.org/1999/xlink">
<g id="graph0" class="graph" transform="scale(1 1) rotate(0) translate(4 564)">
<title>Filter</title>
<polygon fill="#ffffff" stroke="transparent" points="-4,4 -4,-564 218,-564 218,4 -4,4"/>
<!-- Node0 -->
<g id="node1" class="node">
<title>Node0</title>
<polygon fill="#bfbfbf" stroke="#000000" points="75.5,-149.5 75.5,-228.5 144.5,-228.5 144.5,-149.5 75.5,-149.5"/>
<text text-anchor="middle" x="110" y="-216.5" font-family="Helvetica,sans-Serif" font-size="10.00" fill="#000000">Filter</text>
<polyline fill="none" stroke="#000000" points="75.5,-209.5 144.5,-209.5 "/>
<text text-anchor="middle" x="110" y="-197.5" font-family="Helvetica,sans-Serif" font-size="10.00" fill="#000000"> </text>
<polyline fill="none" stroke="#000000" points="75.5,-190.5 144.5,-190.5 "/>
<text text-anchor="start" x="83.5" y="-178.5" font-family="Helvetica,sans-Serif" font-size="10.00" fill="#000000">+ ~Filter()</text>
<text text-anchor="start" x="83.5" y="-167.5" font-family="Helvetica,sans-Serif" font-size="10.00" fill="#000000">+ compute()</text>
<text text-anchor="start" x="83.5" y="-156.5" font-family="Helvetica,sans-Serif" font-size="10.00" fill="#000000">+ Updater()</text>
</g>
<!-- Node3 -->
<g id="node4" class="node">
<title>Node3</title>
<g id="a_node4"><a xlink:href="classFilComparison.html" target="_top" xlink:title="FilComparison applies a filter defined by comparison operators. ">
<polygon fill="#ffffff" stroke="#000000" points="0,-.5 0,-112.5 104,-112.5 104,-.5 0,-.5"/>
<text text-anchor="middle" x="52" y="-100.5" font-family="Helvetica,sans-Serif" font-size="10.00" fill="#000000">FilComparison</text>
<polyline fill="none" stroke="#000000" points="0,-93.5 104,-93.5 "/>
<text text-anchor="start" x="8" y="-81.5" font-family="Helvetica,sans-Serif" font-size="10.00" fill="#000000">&#45; comparisons</text>
<polyline fill="none" stroke="#000000" points="0,-74.5 104,-74.5 "/>
<text text-anchor="start" x="8" y="-62.5" font-family="Helvetica,sans-Serif" font-size="10.00" fill="#000000">+ FilComparison()</text>
<text text-anchor="start" x="8" y="-51.5" font-family="Helvetica,sans-Serif" font-size="10.00" fill="#000000">+ FilComparison()</text>
<text text-anchor="start" x="8" y="-40.5" font-family="Helvetica,sans-Serif" font-size="10.00" fill="#000000">+ ~FilComparison()</text>
<text text-anchor="start" x="8" y="-29.5" font-family="Helvetica,sans-Serif" font-size="10.00" fill="#000000"># compute_impl()</text>
<text text-anchor="start" x="8" y="-18.5" font-family="Helvetica,sans-Serif" font-size="10.00" fill="#000000">&#45; make_lambda()</text>
<text text-anchor="start" x="8" y="-7.5" font-family="Helvetica,sans-Serif" font-size="10.00" fill="#000000">&#45; convert_to_funcs()</text>
</a>
</g>
</g>
<!-- Node0&#45;&gt;Node3 -->
<g id="edge3" class="edge">
<title>Node0&#45;&gt;Node3</title>
<path fill="none" stroke="#191970" d="M88.5069,-139.8994C84.655,-131.0997 80.6133,-121.8665 76.68,-112.8811"/>
<polygon fill="none" stroke="#191970" points="85.3818,-141.4884 92.5981,-149.2456 91.7943,-138.6813 85.3818,-141.4884"/>
</g>
<!-- Node4 -->
<g id="node5" class="node">
<title>Node4</title>
<g id="a_node5"><a xlink:href="classFilSet.html" target="_top" xlink:title="FilSet applies a filter defined by sets of acceptable values. ">
<polygon fill="#ffffff" stroke="#000000" points="122,-17 122,-96 214,-96 214,-17 122,-17"/>
<text text-anchor="middle" x="168" y="-84" font-family="Helvetica,sans-Serif" font-size="10.00" fill="#000000">FilSet</text>
<polyline fill="none" stroke="#000000" points="122,-77 214,-77 "/>
<text text-anchor="start" x="130" y="-65" font-family="Helvetica,sans-Serif" font-size="10.00" fill="#000000">&#45; value_sets</text>
<polyline fill="none" stroke="#000000" points="122,-58 214,-58 "/>
<text text-anchor="start" x="130" y="-46" font-family="Helvetica,sans-Serif" font-size="10.00" fill="#000000">+ FilSet()</text>
<text text-anchor="start" x="130" y="-35" font-family="Helvetica,sans-Serif" font-size="10.00" fill="#000000">+ ~FilSet()</text>
<text text-anchor="start" x="130" y="-24" font-family="Helvetica,sans-Serif" font-size="10.00" fill="#000000"># compute_impl()</text>
</a>
</g>
</g>
<!-- Node0&#45;&gt;Node4 -->
<g id="edge4" class="edge">
<title>Node0&#45;&gt;Node4</title>
<path fill="none" stroke="#191970" d="M131.4603,-139.9743C137.7692,-125.5618 144.5896,-109.9806 150.6104,-96.2263"/>
<polygon fill="none" stroke="#191970" points="128.2057,-138.6813 127.4019,-149.2456 134.6182,-141.4884 128.2057,-138.6813"/>
</g>
<!-- Node1 -->
<g id="node2" class="node">
<title>Node1</title>
<g id="a_node2"><a xlink:href="classUpdater.html" target="_top" xlink:title="Updater is an abstract class to update data held by an Element object. ">
<polygon fill="#ffffff" stroke="#000000" points="45,-265.5 45,-454.5 175,-454.5 175,-265.5 45,-265.5"/>
<text text-anchor="middle" x="110" y="-442.5" font-family="Helvetica,sans-Serif" font-size="10.00" fill="#000000">Updater</text>
<polyline fill="none" stroke="#000000" points="45,-435.5 175,-435.5 "/>
<text text-anchor="start" x="53" y="-423.5" font-family="Helvetica,sans-Serif" font-size="10.00" fill="#000000"># ext_generator</text>
<text text-anchor="start" x="53" y="-412.5" font-family="Helvetica,sans-Serif" font-size="10.00" fill="#000000"># required_keys</text>
<text text-anchor="start" x="53" y="-401.5" font-family="Helvetica,sans-Serif" font-size="10.00" fill="#000000"># optional_keys</text>
<text text-anchor="start" x="53" y="-390.5" font-family="Helvetica,sans-Serif" font-size="10.00" fill="#000000">&#45; dataid_blacklist</text>
<text text-anchor="start" x="53" y="-379.5" font-family="Helvetica,sans-Serif" font-size="10.00" fill="#000000">&#45; omp_lock</text>
<polyline fill="none" stroke="#000000" points="45,-372.5 175,-372.5 "/>
<text text-anchor="start" x="53" y="-360.5" font-family="Helvetica,sans-Serif" font-size="10.00" fill="#000000">+ Updater()</text>
<text text-anchor="start" x="53" y="-349.5" font-family="Helvetica,sans-Serif" font-size="10.00" fill="#000000">+ ~Updater()</text>
<text text-anchor="start" x="53" y="-338.5" font-family="Helvetica,sans-Serif" font-size="10.00" fill="#000000">+ compute()</text>
<text text-anchor="start" x="53" y="-327.5" font-family="Helvetica,sans-Serif" font-size="10.00" fill="#000000">+ remove_from_blacklist()</text>
<text text-anchor="start" x="53" y="-316.5" font-family="Helvetica,sans-Serif" font-size="10.00" fill="#000000">+ get_ext_generator()</text>
<text text-anchor="start" x="53" y="-305.5" font-family="Helvetica,sans-Serif" font-size="10.00" fill="#000000"># compute_impl()</text>
<text text-anchor="start" x="53" y="-294.5" font-family="Helvetica,sans-Serif" font-size="10.00" fill="#000000"># make_required_keys()</text>
<text text-anchor="start" x="53" y="-283.5" font-family="Helvetica,sans-Serif" font-size="10.00" fill="#000000"># make_optional_keys()</text>
<text text-anchor="start" x="53" y="-272.5" font-family="Helvetica,sans-Serif" font-size="10.00" fill="#000000"># check_blacklist()</text>
</a>
</g>
</g>
<!-- Node1&#45;&gt;Node0 -->
<g id="edge1" class="edge">
<title>Node1&#45;&gt;Node0</title>
<path fill="none" stroke="#191970" d="M110,-255.2385C110,-245.8809 110,-236.8479 110,-228.6203"/>
<polygon fill="none" stroke="#191970" points="106.5001,-255.4972 110,-265.4973 113.5001,-255.4973 106.5001,-255.4972"/>
</g>
<!-- Node2 -->
<g id="node3" class="node">
<title>Node2</title>
<polygon fill="#ffffff" stroke="#bfbfbf" points="53,-491.5 53,-559.5 167,-559.5 167,-491.5 53,-491.5"/>
<text text-anchor="start" x="61" y="-547.5" font-family="Helvetica,sans-Serif" font-size="10.00" fill="#000000">std::enable_shared</text>
<text text-anchor="middle" x="110" y="-536.5" font-family="Helvetica,sans-Serif" font-size="10.00" fill="#000000">_from_this&lt; Updater &gt;</text>
<polyline fill="none" stroke="#bfbfbf" points="53,-529.5 167,-529.5 "/>
<text text-anchor="middle" x="110" y="-517.5" font-family="Helvetica,sans-Serif" font-size="10.00" fill="#000000"> </text>
<polyline fill="none" stroke="#bfbfbf" points="53,-510.5 167,-510.5 "/>
<text text-anchor="middle" x="110" y="-498.5" font-family="Helvetica,sans-Serif" font-size="10.00" fill="#000000"> </text>
</g>
<!-- Node2&#45;&gt;Node1 -->
<g id="edge2" class="edge">
<title>Node2&#45;&gt;Node1</title>
<path fill="none" stroke="#191970" d="M110,-481.0888C110,-472.7937 110,-463.8388 110,-454.6848"/>
<polygon fill="none" stroke="#191970" points="106.5001,-481.2083 110,-491.2083 113.5001,-481.2083 106.5001,-481.2083"/>
</g>
</g>
</svg>
