<?xml version="1.0" encoding="UTF-8" standalone="no"?>
<!DOCTYPE svg PUBLIC "-//W3C//DTD SVG 1.1//EN"
 "http://www.w3.org/Graphics/SVG/1.1/DTD/svg11.dtd">
<!-- Generated by graphviz version 2.40.1 (20161225.0304)
 -->
<!-- Title: AddCoMPosition::compute_impl Pages: 1 -->
<svg width="604pt" height="203pt"
 viewBox="0.00 0.00 604.00 203.00" xmlns="http://www.w3.org/2000/svg" xmlns:xlink="http://www.w3.org/1999/xlink">
<g id="graph0" class="graph" transform="scale(1 1) rotate(0) translate(4 199)">
<title>AddCoMPosition::compute_impl</title>
<polygon fill="#ffffff" stroke="transparent" points="-4,4 -4,-199 600,-199 600,4 -4,4"/>
<!-- Node2 -->
<g id="node1" class="node">
<title>Node2</title>
<polygon fill="#bfbfbf" stroke="#000000" points="0,-93.5 0,-112.5 156,-112.5 156,-93.5 0,-93.5"/>
<text text-anchor="middle" x="78" y="-100.5" font-family="Helvetica,sans-Serif" font-size="10.00" fill="#000000">AddCoMPosition::compute_impl</text>
</g>
<!-- Node3 -->
<g id="node2" class="node">
<title>Node3</title>
<g id="a_node2"><a xlink:href="classDataKeys.html#a03517cffe825c983c3582ffb55318a7b" target="_top" xlink:title="Check if this object has required key(s). ">
<polygon fill="#ffffff" stroke="#000000" points="208.5,-175.5 208.5,-194.5 308.5,-194.5 308.5,-175.5 208.5,-175.5"/>
<text text-anchor="middle" x="258.5" y="-182.5" font-family="Helvetica,sans-Serif" font-size="10.00" fill="#000000">DataKeys::required</text>
</a>
</g>
</g>
<!-- Node2&#45;&gt;Node3 -->
<g id="edge1" class="edge">
<title>Node2&#45;&gt;Node3</title>
<path fill="none" stroke="#191970" d="M92.9388,-112.7035C114.2144,-126.181 154.7959,-150.6383 192,-166 197.5457,-168.2898 203.46,-170.4096 209.3878,-172.3386"/>
<polygon fill="#191970" stroke="#191970" points="208.7265,-175.7973 219.3139,-175.4009 210.7902,-169.1083 208.7265,-175.7973"/>
</g>
<!-- Node6 -->
<g id="node5" class="node">
<title>Node6</title>
<g id="a_node5"><a xlink:href="classDataKeys.html#a83c539d93200a30f57d0d795c68ee5a2" target="_top" xlink:title="Check if this object has optional key(s). ">
<polygon fill="#ffffff" stroke="#000000" points="209,-137.5 209,-156.5 308,-156.5 308,-137.5 209,-137.5"/>
<text text-anchor="middle" x="258.5" y="-144.5" font-family="Helvetica,sans-Serif" font-size="10.00" fill="#000000">DataKeys::optional</text>
</a>
</g>
</g>
<!-- Node2&#45;&gt;Node6 -->
<g id="edge4" class="edge">
<title>Node2&#45;&gt;Node6</title>
<path fill="none" stroke="#191970" d="M117.1658,-112.5473C144.2485,-119.1492 180.4825,-127.9819 209.4818,-135.051"/>
<polygon fill="#191970" stroke="#191970" points="208.8662,-138.5033 219.4106,-137.4713 210.5241,-131.7025 208.8662,-138.5033"/>
</g>
<!-- Node7 -->
<g id="node6" class="node">
<title>Node7</title>
<g id="a_node6"><a xlink:href="classAddCoMPosition.html#a4f11bc044daa8afbe8223d9e4098a499" target="_top" xlink:title="Compute the center of mass with weighting factors. ">
<polygon fill="#ffffff" stroke="#000000" points="192,-88 192,-118 325,-118 325,-88 192,-88"/>
<text text-anchor="start" x="200" y="-106" font-family="Helvetica,sans-Serif" font-size="10.00" fill="#000000">AddCoMPosition::compute</text>
<text text-anchor="middle" x="258.5" y="-95" font-family="Helvetica,sans-Serif" font-size="10.00" fill="#000000">_with_weights</text>
</a>
</g>
</g>
<!-- Node2&#45;&gt;Node7 -->
<g id="edge5" class="edge">
<title>Node2&#45;&gt;Node7</title>
<path fill="none" stroke="#191970" d="M156.1201,-103C164.5872,-103 173.1993,-103 181.6511,-103"/>
<polygon fill="#191970" stroke="#191970" points="181.8604,-106.5001 191.8603,-103 181.8603,-99.5001 181.8604,-106.5001"/>
</g>
<!-- Node9 -->
<g id="node8" class="node">
<title>Node9</title>
<g id="a_node8"><a xlink:href="classAddCoMPosition.html#a2c583d3b5139a8e8437979a432631c2e" target="_top" xlink:title="Compute the center of mass. ">
<polygon fill="#ffffff" stroke="#000000" points="192,-39 192,-69 325,-69 325,-39 192,-39"/>
<text text-anchor="start" x="200" y="-57" font-family="Helvetica,sans-Serif" font-size="10.00" fill="#000000">AddCoMPosition::compute</text>
<text text-anchor="middle" x="258.5" y="-46" font-family="Helvetica,sans-Serif" font-size="10.00" fill="#000000">_without_weights</text>
</a>
</g>
</g>
<!-- Node2&#45;&gt;Node9 -->
<g id="edge8" class="edge">
<title>Node2&#45;&gt;Node9</title>
<path fill="none" stroke="#191970" d="M113.2307,-93.436C135.9828,-87.2595 166.2789,-79.0351 193.3154,-71.6955"/>
<polygon fill="#191970" stroke="#191970" points="194.375,-75.0347 203.1087,-69.037 192.541,-68.2791 194.375,-75.0347"/>
</g>
<!-- Node10 -->
<g id="node9" class="node">
<title>Node10</title>
<g id="a_node9"><a xlink:href="classDataKeys.html#a626d56b99861008c2a63580ed17b809d" target="_top" xlink:title="Add a key or keys in an array to the _keys. ">
<polygon fill="#ffffff" stroke="#000000" points="218,-.5 218,-19.5 299,-19.5 299,-.5 218,-.5"/>
<text text-anchor="middle" x="258.5" y="-7.5" font-family="Helvetica,sans-Serif" font-size="10.00" fill="#000000">DataKeys::add</text>
</a>
</g>
</g>
<!-- Node2&#45;&gt;Node10 -->
<g id="edge10" class="edge">
<title>Node2&#45;&gt;Node10</title>
<path fill="none" stroke="#191970" d="M90.274,-93.2531C110.4266,-77.6736 152.2677,-47.0794 192,-29 197.0546,-26.7 202.4534,-24.6109 207.907,-22.7316"/>
<polygon fill="#191970" stroke="#191970" points="209.2722,-25.9691 217.7201,-19.5751 207.1287,-19.3054 209.2722,-25.9691"/>
</g>
<!-- Node4 -->
<g id="node3" class="node">
<title>Node4</title>
<g id="a_node3"><a xlink:href="namespaceutils.html#acee57b54806ee63ddaa30518fed90adb" target="_top" xlink:title="Raise (for Python) and throw (for C++) a runtime error. ">
<polygon fill="#ffffff" stroke="#000000" points="498,-134.5 498,-153.5 596,-153.5 596,-134.5 498,-134.5"/>
<text text-anchor="middle" x="547" y="-141.5" font-family="Helvetica,sans-Serif" font-size="10.00" fill="#000000">utils::runtime_error</text>
</a>
</g>
</g>
<!-- Node3&#45;&gt;Node4 -->
<g id="edge2" class="edge">
<title>Node3&#45;&gt;Node4</title>
<path fill="none" stroke="#191970" d="M308.5573,-182.566C349.9322,-180.019 410.0952,-175.0799 462,-166 476.119,-163.5301 491.3338,-159.9065 504.9345,-156.3099"/>
<polygon fill="#191970" stroke="#191970" points="506.2416,-159.5819 514.9755,-153.5844 504.4079,-152.8263 506.2416,-159.5819"/>
</g>
<!-- Node5 -->
<g id="node4" class="node">
<title>Node5</title>
<g id="a_node4"><a xlink:href="namespaceutils.html#a5e5339e32b770a14691521435849c949" target="_top" xlink:title="Mimicking Python&#39;s join. ">
<polygon fill="#ffffff" stroke="#000000" points="383.5,-137.5 383.5,-156.5 439.5,-156.5 439.5,-137.5 383.5,-137.5"/>
<text text-anchor="middle" x="411.5" y="-144.5" font-family="Helvetica,sans-Serif" font-size="10.00" fill="#000000">utils::join</text>
</a>
</g>
</g>
<!-- Node3&#45;&gt;Node5 -->
<g id="edge3" class="edge">
<title>Node3&#45;&gt;Node5</title>
<path fill="none" stroke="#191970" d="M297.1084,-175.411C320.3968,-169.6269 349.9529,-162.2862 373.1879,-156.5154"/>
<polygon fill="#191970" stroke="#191970" points="374.1854,-159.8741 383.0469,-154.0668 372.4981,-153.0805 374.1854,-159.8741"/>
</g>
<!-- Node8 -->
<g id="node7" class="node">
<title>Node8</title>
<g id="a_node7"><a xlink:href="namespaceutils.html#aeabf3fc19efc71936f355f069d336b5a" target="_top" xlink:title="Mainly used for creating a map from values of selected property in array Element::data to correspondi...">
<polygon fill="#ffffff" stroke="#000000" points="361,-93.5 361,-112.5 462,-112.5 462,-93.5 361,-93.5"/>
<text text-anchor="middle" x="411.5" y="-100.5" font-family="Helvetica,sans-Serif" font-size="10.00" fill="#000000">utils::map_to_index</text>
</a>
</g>
</g>
<!-- Node7&#45;&gt;Node8 -->
<g id="edge6" class="edge">
<title>Node7&#45;&gt;Node8</title>
<path fill="none" stroke="#191970" d="M325.1629,-103C333.636,-103 342.2728,-103 350.6481,-103"/>
<polygon fill="#191970" stroke="#191970" points="350.706,-106.5001 360.706,-103 350.7059,-99.5001 350.706,-106.5001"/>
</g>
<!-- Node8&#45;&gt;Node4 -->
<g id="edge7" class="edge">
<title>Node8&#45;&gt;Node4</title>
<path fill="none" stroke="#191970" d="M442.927,-112.5093C461.6047,-118.1608 485.5115,-125.3946 505.7008,-131.5036"/>
<polygon fill="#191970" stroke="#191970" points="504.6889,-134.854 515.274,-134.4003 506.7163,-128.154 504.6889,-134.854"/>
</g>
<!-- Node9&#45;&gt;Node8 -->
<g id="edge9" class="edge">
<title>Node9&#45;&gt;Node8</title>
<path fill="none" stroke="#191970" d="M305.6535,-69.1014C326.9319,-75.9161 351.7808,-83.8742 372.0529,-90.3666"/>
<polygon fill="#191970" stroke="#191970" points="371.0102,-93.7077 381.6013,-93.4246 373.1453,-87.0413 371.0102,-93.7077"/>
</g>
</g>
</svg>
