<?xml version="1.0" encoding="UTF-8" standalone="no"?>
<!DOCTYPE svg PUBLIC "-//W3C//DTD SVG 1.1//EN"
 "http://www.w3.org/Graphics/SVG/1.1/DTD/svg11.dtd">
<!-- Generated by graphviz version 2.40.1 (20161225.0304)
 -->
<!-- Title: Element Pages: 1 -->
<svg width="282pt" height="595pt"
 viewBox="0.00 0.00 281.50 595.00" xmlns="http://www.w3.org/2000/svg" xmlns:xlink="http://www.w3.org/1999/xlink">
<g id="graph0" class="graph" transform="scale(1 1) rotate(0) translate(4 591)">
<title>Element</title>
<polygon fill="#ffffff" stroke="transparent" points="-4,4 -4,-591 277.5,-591 277.5,4 -4,4"/>
<!-- Node0 -->
<g id="node1" class="node">
<title>Node0</title>
<polygon fill="#bfbfbf" stroke="#000000" points="73,-127.5 73,-393.5 215,-393.5 215,-127.5 73,-127.5"/>
<text text-anchor="middle" x="144" y="-381.5" font-family="Helvetica,sans-Serif" font-size="10.00" fill="#000000">Element</text>
<polyline fill="none" stroke="#000000" points="73,-374.5 215,-374.5 "/>
<text text-anchor="start" x="81" y="-362.5" font-family="Helvetica,sans-Serif" font-size="10.00" fill="#000000">&#45; n_remain</text>
<text text-anchor="start" x="81" y="-351.5" font-family="Helvetica,sans-Serif" font-size="10.00" fill="#000000">&#45; dataid</text>
<text text-anchor="start" x="81" y="-340.5" font-family="Helvetica,sans-Serif" font-size="10.00" fill="#000000">&#45; data</text>
<text text-anchor="start" x="81" y="-329.5" font-family="Helvetica,sans-Serif" font-size="10.00" fill="#000000">&#45; datakeys</text>
<text text-anchor="start" x="81" y="-318.5" font-family="Helvetica,sans-Serif" font-size="10.00" fill="#000000">&#45; omp_lock</text>
<text text-anchor="start" x="81" y="-307.5" font-family="Helvetica,sans-Serif" font-size="10.00" fill="#000000">&#45; instance_count</text>
<polyline fill="none" stroke="#000000" points="73,-300.5 215,-300.5 "/>
<text text-anchor="start" x="81" y="-288.5" font-family="Helvetica,sans-Serif" font-size="10.00" fill="#000000">+ Element()</text>
<text text-anchor="start" x="81" y="-277.5" font-family="Helvetica,sans-Serif" font-size="10.00" fill="#000000">+ ~Element()</text>
<text text-anchor="start" x="81" y="-266.5" font-family="Helvetica,sans-Serif" font-size="10.00" fill="#000000">+ get_element()</text>
<text text-anchor="start" x="81" y="-255.5" font-family="Helvetica,sans-Serif" font-size="10.00" fill="#000000">+ get_generator()</text>
<text text-anchor="start" x="81" y="-244.5" font-family="Helvetica,sans-Serif" font-size="10.00" fill="#000000">+ set_checking_classname()</text>
<text text-anchor="start" x="81" y="-233.5" font-family="Helvetica,sans-Serif" font-size="10.00" fill="#000000">+ append_updater()</text>
<text text-anchor="start" x="81" y="-222.5" font-family="Helvetica,sans-Serif" font-size="10.00" fill="#000000">+ get_data()</text>
<text text-anchor="start" x="81" y="-211.5" font-family="Helvetica,sans-Serif" font-size="10.00" fill="#000000">+ get_data()</text>
<text text-anchor="start" x="81" y="-200.5" font-family="Helvetica,sans-Serif" font-size="10.00" fill="#000000">+ get_keys()</text>
<text text-anchor="start" x="81" y="-189.5" font-family="Helvetica,sans-Serif" font-size="10.00" fill="#000000">+ array1d()</text>
<text text-anchor="start" x="81" y="-178.5" font-family="Helvetica,sans-Serif" font-size="10.00" fill="#000000">and 9 more...</text>
<text text-anchor="start" x="81" y="-167.5" font-family="Helvetica,sans-Serif" font-size="10.00" fill="#000000">&#45; increment_remain()</text>
<text text-anchor="start" x="81" y="-156.5" font-family="Helvetica,sans-Serif" font-size="10.00" fill="#000000">&#45; decrement_remain()</text>
<text text-anchor="start" x="81" y="-145.5" font-family="Helvetica,sans-Serif" font-size="10.00" fill="#000000">&#45; update_data()</text>
<text text-anchor="start" x="81" y="-134.5" font-family="Helvetica,sans-Serif" font-size="10.00" fill="#000000">&#45; init_for_python()</text>
</g>
<!-- Node3 -->
<g id="node4" class="node">
<title>Node3</title>
<g id="a_node4"><a xlink:href="classPyElement.html" target="_top" xlink:title="Trampoline class to bind Element class to Python. ">
<polygon fill="#ffffff" stroke="#000000" points="73,-.5 73,-90.5 215,-90.5 215,-.5 73,-.5"/>
<text text-anchor="middle" x="144" y="-78.5" font-family="Helvetica,sans-Serif" font-size="10.00" fill="#000000">PyElement</text>
<polyline fill="none" stroke="#000000" points="73,-71.5 215,-71.5 "/>
<text text-anchor="middle" x="144" y="-59.5" font-family="Helvetica,sans-Serif" font-size="10.00" fill="#000000"> </text>
<polyline fill="none" stroke="#000000" points="73,-52.5 215,-52.5 "/>
<text text-anchor="start" x="81" y="-40.5" font-family="Helvetica,sans-Serif" font-size="10.00" fill="#000000">+ get_element()</text>
<text text-anchor="start" x="81" y="-29.5" font-family="Helvetica,sans-Serif" font-size="10.00" fill="#000000">+ get_generator()</text>
<text text-anchor="start" x="81" y="-18.5" font-family="Helvetica,sans-Serif" font-size="10.00" fill="#000000">+ set_checking_classname()</text>
<text text-anchor="start" x="81" y="-7.5" font-family="Helvetica,sans-Serif" font-size="10.00" fill="#000000">+ Element()</text>
</a>
</g>
</g>
<!-- Node0&#45;&gt;Node3 -->
<g id="edge3" class="edge">
<title>Node0&#45;&gt;Node3</title>
<path fill="none" stroke="#191970" d="M144,-117.1192C144,-107.7819 144,-98.8526 144,-90.6611"/>
<polygon fill="none" stroke="#191970" points="140.5001,-117.3956 144,-127.3956 147.5001,-117.3956 140.5001,-117.3956"/>
</g>
<!-- Node1 -->
<g id="node2" class="node">
<title>Node1</title>
<g id="a_node2"><a xlink:href="classGenerator.html" target="_top" xlink:title="Generator is an abstract class to generate data. ">
<polygon fill="#ffffff" stroke="#000000" points="0,-430.5 0,-586.5 142,-586.5 142,-430.5 0,-430.5"/>
<text text-anchor="middle" x="71" y="-574.5" font-family="Helvetica,sans-Serif" font-size="10.00" fill="#000000">Generator</text>
<polyline fill="none" stroke="#000000" points="0,-567.5 142,-567.5 "/>
<text text-anchor="start" x="8" y="-555.5" font-family="Helvetica,sans-Serif" font-size="10.00" fill="#000000"># update_chain</text>
<polyline fill="none" stroke="#000000" points="0,-548.5 142,-548.5 "/>
<text text-anchor="start" x="8" y="-536.5" font-family="Helvetica,sans-Serif" font-size="10.00" fill="#000000">+ Generator()</text>
<text text-anchor="start" x="8" y="-525.5" font-family="Helvetica,sans-Serif" font-size="10.00" fill="#000000">+ ~Generator()</text>
<text text-anchor="start" x="8" y="-514.5" font-family="Helvetica,sans-Serif" font-size="10.00" fill="#000000">+ get_element()</text>
<text text-anchor="start" x="8" y="-503.5" font-family="Helvetica,sans-Serif" font-size="10.00" fill="#000000">+ get_generator()</text>
<text text-anchor="start" x="8" y="-492.5" font-family="Helvetica,sans-Serif" font-size="10.00" fill="#000000">+ set_checking_classname()</text>
<text text-anchor="start" x="8" y="-481.5" font-family="Helvetica,sans-Serif" font-size="10.00" fill="#000000">+ appoint()</text>
<text text-anchor="start" x="8" y="-470.5" font-family="Helvetica,sans-Serif" font-size="10.00" fill="#000000">+ hello()</text>
<text text-anchor="start" x="8" y="-459.5" font-family="Helvetica,sans-Serif" font-size="10.00" fill="#000000">+ goodbye()</text>
<text text-anchor="start" x="8" y="-448.5" font-family="Helvetica,sans-Serif" font-size="10.00" fill="#000000">+ get_update_chain()</text>
<text text-anchor="start" x="8" y="-437.5" font-family="Helvetica,sans-Serif" font-size="10.00" fill="#000000"># merge_update_chain()</text>
</a>
</g>
</g>
<!-- Node1&#45;&gt;Node0 -->
<g id="edge1" class="edge">
<title>Node1&#45;&gt;Node0</title>
<path fill="none" stroke="#191970" d="M96.8823,-420.5711C99.4695,-411.7815 102.1348,-402.7271 104.8194,-393.6067"/>
<polygon fill="none" stroke="#191970" points="93.4637,-419.7903 93.9975,-430.3716 100.1789,-421.7669 93.4637,-419.7903"/>
</g>
<!-- Node2 -->
<g id="node3" class="node">
<title>Node2</title>
<polygon fill="#ffffff" stroke="#bfbfbf" points="160.5,-480 160.5,-537 273.5,-537 273.5,-480 160.5,-480"/>
<text text-anchor="middle" x="217" y="-525" font-family="Helvetica,sans-Serif" font-size="10.00" fill="#000000">EnShThis&lt; Element &gt;</text>
<polyline fill="none" stroke="#bfbfbf" points="160.5,-518 273.5,-518 "/>
<text text-anchor="middle" x="217" y="-506" font-family="Helvetica,sans-Serif" font-size="10.00" fill="#000000"> </text>
<polyline fill="none" stroke="#bfbfbf" points="160.5,-499 273.5,-499 "/>
<text text-anchor="middle" x="217" y="-487" font-family="Helvetica,sans-Serif" font-size="10.00" fill="#000000"> </text>
</g>
<!-- Node2&#45;&gt;Node0 -->
<g id="edge2" class="edge">
<title>Node2&#45;&gt;Node0</title>
<path fill="none" stroke="#191970" d="M205.6054,-469.7895C199.4233,-448.7874 191.3773,-421.4531 183.1508,-393.5054"/>
<polygon fill="none" stroke="#191970" points="202.3017,-470.9612 208.4831,-479.5659 209.0168,-468.9845 202.3017,-470.9612"/>
</g>
</g>
</svg>
