<?xml version="1.0" encoding="UTF-8" standalone="no"?>
<!DOCTYPE svg PUBLIC "-//W3C//DTD SVG 1.1//EN"
 "http://www.w3.org/Graphics/SVG/1.1/DTD/svg11.dtd">
<!-- Generated by graphviz version 2.40.1 (20161225.0304)
 -->
<!-- Title: AddBondLength::compute_impl Pages: 1 -->
<svg width="431pt" height="104pt"
 viewBox="0.00 0.00 431.00 104.00" xmlns="http://www.w3.org/2000/svg" xmlns:xlink="http://www.w3.org/1999/xlink">
<g id="graph0" class="graph" transform="scale(1 1) rotate(0) translate(4 100)">
<title>AddBondLength::compute_impl</title>
<polygon fill="#ffffff" stroke="transparent" points="-4,4 -4,-100 427,-100 427,4 -4,4"/>
<!-- Node2 -->
<g id="node1" class="node">
<title>Node2</title>
<polygon fill="#bfbfbf" stroke="#000000" points="0,-38.5 0,-57.5 152,-57.5 152,-38.5 0,-38.5"/>
<text text-anchor="middle" x="76" y="-45.5" font-family="Helvetica,sans-Serif" font-size="10.00" fill="#000000">AddBondLength::compute_impl</text>
</g>
<!-- Node3 -->
<g id="node2" class="node">
<title>Node3</title>
<g id="a_node2"><a xlink:href="classDataKeys.html#a03517cffe825c983c3582ffb55318a7b" target="_top" xlink:title="Check if this object has required key(s). ">
<polygon fill="#ffffff" stroke="#000000" points="188.5,-76.5 188.5,-95.5 288.5,-95.5 288.5,-76.5 188.5,-76.5"/>
<text text-anchor="middle" x="238.5" y="-83.5" font-family="Helvetica,sans-Serif" font-size="10.00" fill="#000000">DataKeys::required</text>
</a>
</g>
</g>
<!-- Node2&#45;&gt;Node3 -->
<g id="edge1" class="edge">
<title>Node2&#45;&gt;Node3</title>
<path fill="none" stroke="#191970" d="M117.0056,-57.589C138.5458,-62.6261 165.1347,-68.8438 187.9414,-74.1771"/>
<polygon fill="#191970" stroke="#191970" points="187.255,-77.6109 197.7893,-76.4799 188.8489,-70.7948 187.255,-77.6109"/>
</g>
<!-- Node6 -->
<g id="node5" class="node">
<title>Node6</title>
<g id="a_node5"><a xlink:href="namespaceutils.html#aeabf3fc19efc71936f355f069d336b5a" target="_top" xlink:title="Create a Map object from values of selected property in an array Json object to corresponding index i...">
<polygon fill="#ffffff" stroke="#000000" points="188,-38.5 188,-57.5 289,-57.5 289,-38.5 188,-38.5"/>
<text text-anchor="middle" x="238.5" y="-45.5" font-family="Helvetica,sans-Serif" font-size="10.00" fill="#000000">utils::map_to_index</text>
</a>
</g>
</g>
<!-- Node2&#45;&gt;Node6 -->
<g id="edge4" class="edge">
<title>Node2&#45;&gt;Node6</title>
<path fill="none" stroke="#191970" d="M152.0164,-48C160.5903,-48 169.2422,-48 177.5881,-48"/>
<polygon fill="#191970" stroke="#191970" points="177.5908,-51.5001 187.5907,-48 177.5907,-44.5001 177.5908,-51.5001"/>
</g>
<!-- Node7 -->
<g id="node6" class="node">
<title>Node7</title>
<g id="a_node6"><a xlink:href="classDataKeys.html#a626d56b99861008c2a63580ed17b809d" target="_top" xlink:title="Add key(s) in an array to _keys. ">
<polygon fill="#ffffff" stroke="#000000" points="198,-.5 198,-19.5 279,-19.5 279,-.5 198,-.5"/>
<text text-anchor="middle" x="238.5" y="-7.5" font-family="Helvetica,sans-Serif" font-size="10.00" fill="#000000">DataKeys::add</text>
</a>
</g>
</g>
<!-- Node2&#45;&gt;Node7 -->
<g id="edge6" class="edge">
<title>Node2&#45;&gt;Node7</title>
<path fill="none" stroke="#191970" d="M117.0056,-38.411C138.5458,-33.3739 165.1347,-27.1562 187.9414,-21.8229"/>
<polygon fill="#191970" stroke="#191970" points="188.8489,-25.2052 197.7893,-19.5201 187.255,-18.3891 188.8489,-25.2052"/>
</g>
<!-- Node4 -->
<g id="node3" class="node">
<title>Node4</title>
<g id="a_node3"><a xlink:href="namespaceutils.html#a5e5339e32b770a14691521435849c949" target="_top" xlink:title="Mimicking Python&#39;s join. ">
<polygon fill="#ffffff" stroke="#000000" points="346,-76.5 346,-95.5 402,-95.5 402,-76.5 346,-76.5"/>
<text text-anchor="middle" x="374" y="-83.5" font-family="Helvetica,sans-Serif" font-size="10.00" fill="#000000">utils::join</text>
</a>
</g>
</g>
<!-- Node3&#45;&gt;Node4 -->
<g id="edge2" class="edge">
<title>Node3&#45;&gt;Node4</title>
<path fill="none" stroke="#191970" d="M288.5702,-86C304.1002,-86 320.9629,-86 335.5718,-86"/>
<polygon fill="#191970" stroke="#191970" points="335.7597,-89.5001 345.7597,-86 335.7597,-82.5001 335.7597,-89.5001"/>
</g>
<!-- Node5 -->
<g id="node4" class="node">
<title>Node5</title>
<g id="a_node4"><a xlink:href="namespaceutils.html#acee57b54806ee63ddaa30518fed90adb" target="_top" xlink:title="Raise (for Python) and throw (for C++) a runtime error. ">
<polygon fill="#ffffff" stroke="#000000" points="325,-38.5 325,-57.5 423,-57.5 423,-38.5 325,-38.5"/>
<text text-anchor="middle" x="374" y="-45.5" font-family="Helvetica,sans-Serif" font-size="10.00" fill="#000000">utils::runtime_error</text>
</a>
</g>
</g>
<!-- Node3&#45;&gt;Node5 -->
<g id="edge3" class="edge">
<title>Node3&#45;&gt;Node5</title>
<path fill="none" stroke="#191970" d="M272.6924,-76.411C290.1039,-71.5281 311.4715,-65.5357 330.0871,-60.315"/>
<polygon fill="#191970" stroke="#191970" points="331.1351,-63.6562 339.8186,-57.5859 329.2449,-56.9163 331.1351,-63.6562"/>
</g>
<!-- Node6&#45;&gt;Node5 -->
<g id="edge5" class="edge">
<title>Node6&#45;&gt;Node5</title>
<path fill="none" stroke="#191970" d="M289.3407,-48C297.5624,-48 306.1391,-48 314.543,-48"/>
<polygon fill="#191970" stroke="#191970" points="314.6726,-51.5001 324.6726,-48 314.6726,-44.5001 314.6726,-51.5001"/>
</g>
</g>
</svg>
