<?xml version="1.0" encoding="UTF-8" standalone="no"?>
<!DOCTYPE svg PUBLIC "-//W3C//DTD SVG 1.1//EN"
 "http://www.w3.org/Graphics/SVG/1.1/DTD/svg11.dtd">
<!-- Generated by graphviz version 2.40.1 (20161225.0304)
 -->
<!-- Title: ProMeanSquareDisplacement::get_mean_square_displacement Pages: 1 -->
<svg width="321pt" height="39pt"
 viewBox="0.00 0.00 321.00 39.00" xmlns="http://www.w3.org/2000/svg" xmlns:xlink="http://www.w3.org/1999/xlink">
<g id="graph0" class="graph" transform="scale(1 1) rotate(0) translate(4 35)">
<title>ProMeanSquareDisplacement::get_mean_square_displacement</title>
<polygon fill="#ffffff" stroke="transparent" points="-4,4 -4,-35 317,-35 317,4 -4,4"/>
<!-- Node10 -->
<g id="node1" class="node">
<title>Node10</title>
<polygon fill="#bfbfbf" stroke="#000000" points="0,-.5 0,-30.5 163,-30.5 163,-.5 0,-.5"/>
<text text-anchor="start" x="8" y="-18.5" font-family="Helvetica,sans-Serif" font-size="10.00" fill="#000000">ProMeanSquareDisplacement</text>
<text text-anchor="middle" x="81.5" y="-7.5" font-family="Helvetica,sans-Serif" font-size="10.00" fill="#000000">::get_mean_square_displacement</text>
</g>
<!-- Node11 -->
<g id="node2" class="node">
<title>Node11</title>
<g id="a_node2"><a xlink:href="namespacepybind.html#a514e231f2e8c9c8a21c1688a13195264" target="_top" xlink:title="Bind ProMeanSquareDisplacement class to Python. ">
<polygon fill="#ffffff" stroke="#000000" points="199,-.5 199,-30.5 313,-30.5 313,-.5 199,-.5"/>
<text text-anchor="start" x="207" y="-18.5" font-family="Helvetica,sans-Serif" font-size="10.00" fill="#000000">pybind::py_pro_mean</text>
<text text-anchor="middle" x="256" y="-7.5" font-family="Helvetica,sans-Serif" font-size="10.00" fill="#000000">_square_displacement</text>
</a>
</g>
</g>
<!-- Node10&#45;&gt;Node11 -->
<g id="edge1" class="edge">
<title>Node10&#45;&gt;Node11</title>
<path fill="none" stroke="#191970" d="M173.322,-15.5C181.9981,-15.5 190.6137,-15.5 198.8244,-15.5"/>
<polygon fill="#191970" stroke="#191970" points="173.13,-12.0001 163.1299,-15.5 173.1299,-19.0001 173.13,-12.0001"/>
</g>
</g>
</svg>
