<?xml version="1.0" encoding="UTF-8" standalone="no"?>
<!DOCTYPE svg PUBLIC "-//W3C//DTD SVG 1.1//EN"
 "http://www.w3.org/Graphics/SVG/1.1/DTD/svg11.dtd">
<!-- Generated by graphviz version 2.40.1 (20161225.0304)
 -->
<!-- Title: Filter::compute Pages: 1 -->
<svg width="394pt" height="142pt"
 viewBox="0.00 0.00 394.00 142.00" xmlns="http://www.w3.org/2000/svg" xmlns:xlink="http://www.w3.org/1999/xlink">
<g id="graph0" class="graph" transform="scale(1 1) rotate(0) translate(4 138)">
<title>Filter::compute</title>
<polygon fill="#ffffff" stroke="transparent" points="-4,4 -4,-138 390,-138 390,4 -4,4"/>
<!-- Node0 -->
<g id="node1" class="node">
<title>Node0</title>
<polygon fill="#bfbfbf" stroke="#000000" points="0,-57.5 0,-76.5 82,-76.5 82,-57.5 0,-57.5"/>
<text text-anchor="middle" x="41" y="-64.5" font-family="Helvetica,sans-Serif" font-size="10.00" fill="#000000">Filter::compute</text>
</g>
<!-- Node1 -->
<g id="node2" class="node">
<title>Node1</title>
<g id="a_node2"><a xlink:href="classUpdater.html#a2184a4efa52ad2f4a631c134379ef7b8" target="_top" xlink:title="Updater::check_blacklist">
<polygon fill="#ffffff" stroke="#000000" points="129,-114.5 129,-133.5 253,-133.5 253,-114.5 129,-114.5"/>
<text text-anchor="middle" x="191" y="-121.5" font-family="Helvetica,sans-Serif" font-size="10.00" fill="#000000">Updater::check_blacklist</text>
</a>
</g>
</g>
<!-- Node0&#45;&gt;Node1 -->
<g id="edge1" class="edge">
<title>Node0&#45;&gt;Node1</title>
<path fill="none" stroke="#191970" d="M57.9841,-76.6383C73.2969,-85.0208 96.6261,-97.0393 118,-105 124.5139,-107.4261 131.4648,-109.6629 138.3915,-111.6847"/>
<polygon fill="#191970" stroke="#191970" points="137.8965,-115.1799 148.4689,-114.4899 139.7738,-108.4363 137.8965,-115.1799"/>
</g>
<!-- Node2 -->
<g id="node3" class="node">
<title>Node2</title>
<g id="a_node3"><a xlink:href="classUpdater.html#a7c72d0115a18442dd594a2868528e924" target="_top" xlink:title="Make required_keys. ">
<polygon fill="#ffffff" stroke="#000000" points="118,-76.5 118,-95.5 264,-95.5 264,-76.5 118,-76.5"/>
<text text-anchor="middle" x="191" y="-83.5" font-family="Helvetica,sans-Serif" font-size="10.00" fill="#000000">Updater::make_required_keys</text>
</a>
</g>
</g>
<!-- Node0&#45;&gt;Node2 -->
<g id="edge2" class="edge">
<title>Node0&#45;&gt;Node2</title>
<path fill="none" stroke="#191970" d="M82.3852,-72.2421C90.3869,-73.2557 99.0322,-74.3507 107.8293,-75.465"/>
<polygon fill="#191970" stroke="#191970" points="107.4391,-78.9435 117.7997,-76.728 108.3188,-71.999 107.4391,-78.9435"/>
</g>
<!-- Node3 -->
<g id="node4" class="node">
<title>Node3</title>
<g id="a_node4"><a xlink:href="classUpdater.html#a8f2256a52be76c16dc71987aca1164c9" target="_top" xlink:title="Implementation of computation for updating Element::data. ">
<polygon fill="#ffffff" stroke="#000000" points="132.5,-38.5 132.5,-57.5 249.5,-57.5 249.5,-38.5 132.5,-38.5"/>
<text text-anchor="middle" x="191" y="-45.5" font-family="Helvetica,sans-Serif" font-size="10.00" fill="#000000">Updater::compute_impl</text>
</a>
</g>
</g>
<!-- Node0&#45;&gt;Node3 -->
<g id="edge3" class="edge">
<title>Node0&#45;&gt;Node3</title>
<path fill="none" stroke="#191970" d="M82.3852,-61.7579C94.6855,-60.1998 108.5067,-58.4492 122.0621,-56.7321"/>
<polygon fill="#191970" stroke="#191970" points="122.8656,-60.1584 132.3465,-55.4294 121.9859,-53.2139 122.8656,-60.1584"/>
</g>
<!-- Node4 -->
<g id="node5" class="node">
<title>Node4</title>
<g id="a_node5"><a xlink:href="namespaceutils.html#a362e3ea9867513a7bba06b6382d6527b" target="_top" xlink:title="Waning with a message. ">
<polygon fill="#ffffff" stroke="#000000" points="154,-.5 154,-19.5 228,-19.5 228,-.5 154,-.5"/>
<text text-anchor="middle" x="191" y="-7.5" font-family="Helvetica,sans-Serif" font-size="10.00" fill="#000000">utils::warning</text>
</a>
</g>
</g>
<!-- Node0&#45;&gt;Node4 -->
<g id="edge4" class="edge">
<title>Node0&#45;&gt;Node4</title>
<path fill="none" stroke="#191970" d="M57.9841,-57.3617C73.2969,-48.9792 96.6261,-36.9607 118,-29 126.2924,-25.9115 135.2931,-23.1297 144.0504,-20.7079"/>
<polygon fill="#191970" stroke="#191970" points="145.0133,-24.0736 153.7835,-18.1294 143.2207,-17.307 145.0133,-24.0736"/>
</g>
<!-- Node5 -->
<g id="node6" class="node">
<title>Node5</title>
<g id="a_node6"><a xlink:href="namespaceutils.html#a3b5f21e223fdb0898119de641a1685f6" target="_top" xlink:title="Print to standard output. ">
<polygon fill="#ffffff" stroke="#000000" points="300,-.5 300,-19.5 386,-19.5 386,-.5 300,-.5"/>
<text text-anchor="middle" x="343" y="-7.5" font-family="Helvetica,sans-Serif" font-size="10.00" fill="#000000">utils::_message</text>
</a>
</g>
</g>
<!-- Node4&#45;&gt;Node5 -->
<g id="edge5" class="edge">
<title>Node4&#45;&gt;Node5</title>
<path fill="none" stroke="#191970" d="M228.1834,-10C246.6793,-10 269.368,-10 289.6781,-10"/>
<polygon fill="#191970" stroke="#191970" points="289.7369,-13.5001 299.7368,-10 289.7368,-6.5001 289.7369,-13.5001"/>
</g>
</g>
</svg>
