<?xml version="1.0" encoding="UTF-8" standalone="no"?>
<!DOCTYPE svg PUBLIC "-//W3C//DTD SVG 1.1//EN"
 "http://www.w3.org/Graphics/SVG/1.1/DTD/svg11.dtd">
<!-- Generated by graphviz version 2.40.1 (20161225.0304)
 -->
<!-- Title: Element::required Pages: 1 -->
<!--zoomable 142 -->
<svg id="main" version="1.1" xmlns="http://www.w3.org/2000/svg" xmlns:xlink="http://www.w3.org/1999/xlink" xml:space="preserve" onload="init(evt)">
<style type="text/css"><![CDATA[
.edge:hover path { stroke: red; }
.edge:hover polygon { stroke: red; fill: red; }
]]></style>
<script type="text/javascript"><![CDATA[
var edges = document.getElementsByTagName('g');
if (edges && edges.length) {
  for (var i=0;i<edges.length;i++) {
    if (edges[i].id.substr(0,4)=='edge') {
      edges[i].setAttribute('class','edge');
    }
  }
}
]]></script>
        <defs>
                <circle id="rim" cx="0" cy="0" r="7"/>
                <circle id="rim2" cx="0" cy="0" r="3.5"/>
                <g id="zoomPlus">
                        <use xlink:href="#rim" fill="#404040">
                                <set attributeName="fill" to="#808080" begin="zoomplus.mouseover" end="zoomplus.mouseout"/>
                        </use>
                        <path d="M-4,0h8M0,-4v8" fill="none" stroke="white" stroke-width="1.5" pointer-events="none"/>
                </g>
                <g id="zoomMin">
                        <use xlink:href="#rim" fill="#404040">
                                <set attributeName="fill" to="#808080" begin="zoomminus.mouseover" end="zoomminus.mouseout"/>
                        </use>
                        <path d="M-4,0h8" fill="none" stroke="white" stroke-width="1.5" pointer-events="none"/>
                </g>
                <g id="dirArrow">
                        <path fill="none" stroke="white" stroke-width="1.5" d="M0,-3.0v7 M-2.5,-0.5L0,-3.0L2.5,-0.5"/>
                </g>
               <g id="resetDef">
                       <use xlink:href="#rim2" fill="#404040">
                               <set attributeName="fill" to="#808080" begin="reset.mouseover" end="reset.mouseout"/>
                       </use>
               </g>
        </defs>

<script type="text/javascript">
var viewWidth = 548;
var viewHeight = 142;
var sectionId = 'dynsection-25';
</script>
<script xlink:href="svgpan.js"/>
<svg id="graph" class="graph">
<g id="viewport">
<title>Element::required</title>
<polygon fill="#ffffff" stroke="transparent" points="-4,4 -4,-138 544,-138 544,4 -4,4"/>
<!-- Node125 -->
<g id="node1" class="node">
<title>Node125</title>
<polygon fill="#bfbfbf" stroke="#000000" points="0,-57.5 0,-76.5 93,-76.5 93,-57.5 0,-57.5"/>
<text text-anchor="middle" x="46.5" y="-64.5" font-family="Helvetica,sans-Serif" font-size="10.00" fill="#000000">Element::required</text>
</g>
<!-- Node126 -->
<g id="node2" class="node">
<title>Node126</title>
<g id="a_node2"><a xlink:href="classElement.html#a8257b02b1e3b208f193b35d5d47b9af8" target="_top" xlink:title="Get integer values stored in Element::data of this object as a one&#45;dimensional Numpy&#45;Array. ">
<polygon fill="#ffffff" stroke="#000000" points="133.5,-114.5 133.5,-133.5 252.5,-133.5 252.5,-114.5 133.5,-114.5"/>
<text text-anchor="middle" x="193" y="-121.5" font-family="Helvetica,sans-Serif" font-size="10.00" fill="#000000">Element::get_1d_int_py</text>
</a>
</g>
</g>
<!-- Node125&#45;&gt;Node126 -->
<g id="edge1" class="edge">
<title>Node125&#45;&gt;Node126</title>
<path fill="none" stroke="#191970" d="M74.3784,-81.0515C90.1694,-88.7021 110.4237,-98.0054 129,-105 138.1115,-108.4308 148.1341,-111.6557 157.4891,-114.4406"/>
<polygon fill="#191970" stroke="#191970" points="75.6973,-77.8001 65.178,-76.537 72.6137,-84.0843 75.6973,-77.8001"/>
</g>
<!-- Node129 -->
<g id="node5" class="node">
<title>Node129</title>
<g id="a_node5"><a xlink:href="classElement.html#a3f11848589faad4cbca8119385887713" target="_top" xlink:title="Get float values stored in Element::data of this object as a one&#45;dimensional Numpy&#45;Array. ">
<polygon fill="#ffffff" stroke="#000000" points="129,-76.5 129,-95.5 257,-95.5 257,-76.5 129,-76.5"/>
<text text-anchor="middle" x="193" y="-83.5" font-family="Helvetica,sans-Serif" font-size="10.00" fill="#000000">Element::get_1d_float_py</text>
</a>
</g>
</g>
<!-- Node125&#45;&gt;Node129 -->
<g id="edge4" class="edge">
<title>Node125&#45;&gt;Node129</title>
<path fill="none" stroke="#191970" d="M103.2722,-74.3629C111.6318,-75.4471 120.2935,-76.5705 128.7904,-77.6725"/>
<polygon fill="#191970" stroke="#191970" points="103.6234,-70.8793 93.2563,-73.064 102.7231,-77.8211 103.6234,-70.8793"/>
</g>
<!-- Node130 -->
<g id="node6" class="node">
<title>Node130</title>
<g id="a_node6"><a xlink:href="classElement.html#a8e8245fb94b6417e3e804e6bfdf2f906" target="_top" xlink:title="Get integer values stored in Element::data of this object as a two&#45;dimensional Numpy&#45;Array. ">
<polygon fill="#ffffff" stroke="#000000" points="133.5,-38.5 133.5,-57.5 252.5,-57.5 252.5,-38.5 133.5,-38.5"/>
<text text-anchor="middle" x="193" y="-45.5" font-family="Helvetica,sans-Serif" font-size="10.00" fill="#000000">Element::get_2d_int_py</text>
</a>
</g>
</g>
<!-- Node125&#45;&gt;Node130 -->
<g id="edge6" class="edge">
<title>Node125&#45;&gt;Node130</title>
<path fill="none" stroke="#191970" d="M103.315,-59.6315C113.1424,-58.357 123.3858,-57.0285 133.2874,-55.7443"/>
<polygon fill="#191970" stroke="#191970" points="102.7231,-56.1789 93.2563,-60.936 103.6234,-63.1207 102.7231,-56.1789"/>
</g>
<!-- Node131 -->
<g id="node7" class="node">
<title>Node131</title>
<g id="a_node7"><a xlink:href="classElement.html#a6a62280eadd3d4e6bfe8c43082797733" target="_top" xlink:title="Get float values stored in Element::data of this object as a two&#45;dimensional Numpy&#45;Array. ">
<polygon fill="#ffffff" stroke="#000000" points="129,-.5 129,-19.5 257,-19.5 257,-.5 129,-.5"/>
<text text-anchor="middle" x="193" y="-7.5" font-family="Helvetica,sans-Serif" font-size="10.00" fill="#000000">Element::get_2d_float_py</text>
</a>
</g>
</g>
<!-- Node125&#45;&gt;Node131 -->
<g id="edge8" class="edge">
<title>Node125&#45;&gt;Node131</title>
<path fill="none" stroke="#191970" d="M74.3784,-52.9485C90.1694,-45.2979 110.4237,-35.9946 129,-29 138.1115,-25.5692 148.1341,-22.3443 157.4891,-19.5594"/>
<polygon fill="#191970" stroke="#191970" points="72.6137,-49.9157 65.178,-57.463 75.6973,-56.1999 72.6137,-49.9157"/>
</g>
<!-- Node127 -->
<g id="node3" class="node">
<title>Node127</title>
<g id="a_node3"><a xlink:href="namespacepybind.html#aa960fe0db10e19d7b7b60784a7e81be0" target="_top" xlink:title="Bind Element class to Python. ">
<polygon fill="#ffffff" stroke="#000000" points="293,-57.5 293,-76.5 394,-76.5 394,-57.5 293,-57.5"/>
<text text-anchor="middle" x="343.5" y="-64.5" font-family="Helvetica,sans-Serif" font-size="10.00" fill="#000000">pybind::py_element</text>
</a>
</g>
</g>
<!-- Node126&#45;&gt;Node127 -->
<g id="edge2" class="edge">
<title>Node126&#45;&gt;Node127</title>
<path fill="none" stroke="#191970" d="M238.0686,-111.3954C244.4658,-109.3818 250.9295,-107.2246 257,-105 280.2556,-96.4779 306.1716,-84.7884 323.5185,-76.6331"/>
<polygon fill="#191970" stroke="#191970" points="236.6771,-108.1607 228.1364,-114.4304 238.7228,-114.8552 236.6771,-108.1607"/>
</g>
<!-- Node128 -->
<g id="node4" class="node">
<title>Node128</title>
<g id="a_node4"><a xlink:href="pybind_8h.html#a4714c4a855ebb82892410d5254e9ccdc" target="_top" xlink:title="Macro for generating Python module named _ppap4lmp. ">
<polygon fill="#ffffff" stroke="#000000" points="430,-57.5 430,-76.5 540,-76.5 540,-57.5 430,-57.5"/>
<text text-anchor="middle" x="485" y="-64.5" font-family="Helvetica,sans-Serif" font-size="10.00" fill="#000000">PYBIND11_MODULE</text>
</a>
</g>
</g>
<!-- Node127&#45;&gt;Node128 -->
<g id="edge3" class="edge">
<title>Node127&#45;&gt;Node128</title>
<path fill="none" stroke="#191970" d="M404.3877,-67C412.8576,-67 421.5199,-67 429.8761,-67"/>
<polygon fill="#191970" stroke="#191970" points="404.1851,-63.5001 394.1851,-67 404.185,-70.5001 404.1851,-63.5001"/>
</g>
<!-- Node129&#45;&gt;Node127 -->
<g id="edge5" class="edge">
<title>Node129&#45;&gt;Node127</title>
<path fill="none" stroke="#191970" d="M267.2998,-76.62C275.8797,-75.5368 284.4761,-74.4515 292.6427,-73.4205"/>
<polygon fill="#191970" stroke="#191970" points="266.7449,-73.1621 257.2621,-77.8872 267.6218,-80.107 266.7449,-73.1621"/>
</g>
<!-- Node130&#45;&gt;Node127 -->
<g id="edge7" class="edge">
<title>Node130&#45;&gt;Node127</title>
<path fill="none" stroke="#191970" d="M262.971,-56.8336C273.0981,-58.1121 283.3533,-59.4067 292.9981,-60.6243"/>
<polygon fill="#191970" stroke="#191970" points="263.2737,-53.3441 252.914,-55.5639 262.3969,-60.2889 263.2737,-53.3441"/>
</g>
<!-- Node131&#45;&gt;Node127 -->
<g id="edge9" class="edge">
<title>Node131&#45;&gt;Node127</title>
<path fill="none" stroke="#191970" d="M238.0686,-22.6046C244.4658,-24.6182 250.9295,-26.7754 257,-29 280.2556,-37.5221 306.1716,-49.2116 323.5185,-57.3669"/>
<polygon fill="#191970" stroke="#191970" points="238.7228,-19.1448 228.1364,-19.5696 236.6771,-25.8393 238.7228,-19.1448"/>
</g>
</g>
</svg>
        <g id="navigator" transform="translate(0 0)" fill="#404254">
                <rect fill="#f2f5e9" fill-opacity="0.5" stroke="#606060" stroke-width=".5" x="0" y="0" width="60" height="60"/>
                <use id="zoomplus" xlink:href="#zoomPlus" x="17" y="9" onmousedown="handleZoom(evt,'in')"/>
                <use id="zoomminus" xlink:href="#zoomMin" x="42" y="9" onmousedown="handleZoom(evt,'out')"/>
                <use id="reset" xlink:href="#resetDef" x="30" y="36" onmousedown="handleReset()"/>
                <g id="arrowUp" xlink:href="#dirArrow" transform="translate(30 24)" onmousedown="handlePan(0,-1)">
                  <use xlink:href="#rim" fill="#404040">
                        <set attributeName="fill" to="#808080" begin="arrowUp.mouseover" end="arrowUp.mouseout"/>
                  </use>
                  <path fill="none" stroke="white" stroke-width="1.5" d="M0,-3.0v7 M-2.5,-0.5L0,-3.0L2.5,-0.5"/>
                </g>
                <g id="arrowRight" xlink:href="#dirArrow" transform="rotate(90) translate(36 -43)" onmousedown="handlePan(1,0)">
                  <use xlink:href="#rim" fill="#404040">
                        <set attributeName="fill" to="#808080" begin="arrowRight.mouseover" end="arrowRight.mouseout"/>
                  </use>
                  <path fill="none" stroke="white" stroke-width="1.5" d="M0,-3.0v7 M-2.5,-0.5L0,-3.0L2.5,-0.5"/>
                </g>
                <g id="arrowDown" xlink:href="#dirArrow" transform="rotate(180) translate(-30 -48)" onmousedown="handlePan(0,1)">
                  <use xlink:href="#rim" fill="#404040">
                        <set attributeName="fill" to="#808080" begin="arrowDown.mouseover" end="arrowDown.mouseout"/>
                  </use>
                  <path fill="none" stroke="white" stroke-width="1.5" d="M0,-3.0v7 M-2.5,-0.5L0,-3.0L2.5,-0.5"/>
                </g>
                <g id="arrowLeft" xlink:href="#dirArrow" transform="rotate(270) translate(-36 17)" onmousedown="handlePan(-1,0)">
                  <use xlink:href="#rim" fill="#404040">
                        <set attributeName="fill" to="#808080" begin="arrowLeft.mouseover" end="arrowLeft.mouseout"/>
                  </use>
                  <path fill="none" stroke="white" stroke-width="1.5" d="M0,-3.0v7 M-2.5,-0.5L0,-3.0L2.5,-0.5"/>
                </g>
        </g>
        <svg viewBox="0 0 15 15" width="100%" height="30px" preserveAspectRatio="xMaxYMin meet">
         <g id="arrow_out" transform="scale(0.3 0.3)">
          <a xlink:href="classElement_a2dd2b3ed6f76878ae6cc1c1a36183517_icgraph_org.svg" target="_base">
           <rect id="button" ry="5" rx="5" y="6" x="6" height="38" width="38"
                fill="#f2f5e9" fill-opacity="0.5" stroke="#606060" stroke-width="1.0"/>
           <path id="arrow"
             d="M 11.500037,31.436501 C 11.940474,20.09759 22.043105,11.32322 32.158766,21.979434 L 37.068811,17.246167 C 37.068811,17.246167 37.088388,32 37.088388,32 L 22.160133,31.978069 C 22.160133,31.978069 26.997745,27.140456 26.997745,27.140456 C 18.528582,18.264221 13.291696,25.230495 11.500037,31.436501 z"
             style="fill:#404040;"/>
          </a>
         </g>
        </svg>
</svg>
