<?xml version="1.0" encoding="UTF-8" standalone="no"?>
<!DOCTYPE svg PUBLIC "-//W3C//DTD SVG 1.1//EN"
 "http://www.w3.org/Graphics/SVG/1.1/DTD/svg11.dtd">
<!-- Generated by graphviz version 2.40.1 (20161225.0304)
 -->
<!-- Title: StaDumpAtoms::compute_impl Pages: 1 -->
<svg width="407pt" height="154pt"
 viewBox="0.00 0.00 407.00 154.00" xmlns="http://www.w3.org/2000/svg" xmlns:xlink="http://www.w3.org/1999/xlink">
<g id="graph0" class="graph" transform="scale(1 1) rotate(0) translate(4 150)">
<title>StaDumpAtoms::compute_impl</title>
<polygon fill="#ffffff" stroke="transparent" points="-4,4 -4,-150 403,-150 403,4 -4,4"/>
<!-- Node0 -->
<g id="node1" class="node">
<title>Node0</title>
<polygon fill="#bfbfbf" stroke="#000000" points="0,-66.5 0,-85.5 152,-85.5 152,-66.5 0,-66.5"/>
<text text-anchor="middle" x="76" y="-73.5" font-family="Helvetica,sans-Serif" font-size="10.00" fill="#000000">StaDumpAtoms::compute_impl</text>
</g>
<!-- Node1 -->
<g id="node2" class="node">
<title>Node1</title>
<g id="a_node2"><a xlink:href="namespaceutils.html#acee57b54806ee63ddaa30518fed90adb" target="_top" xlink:title="Raise (for Python) and throw (for C++) a runtime error. ">
<polygon fill="#ffffff" stroke="#000000" points="197,-126.5 197,-145.5 295,-145.5 295,-126.5 197,-126.5"/>
<text text-anchor="middle" x="246" y="-133.5" font-family="Helvetica,sans-Serif" font-size="10.00" fill="#000000">utils::runtime_error</text>
</a>
</g>
</g>
<!-- Node0&#45;&gt;Node1 -->
<g id="edge1" class="edge">
<title>Node0&#45;&gt;Node1</title>
<path fill="none" stroke="#191970" d="M102.937,-85.5072C131.7,-95.6588 177.4543,-111.8074 209.4531,-123.1011"/>
<polygon fill="#191970" stroke="#191970" points="208.3133,-126.4104 218.9081,-126.4382 210.6431,-119.8094 208.3133,-126.4104"/>
</g>
<!-- Node2 -->
<g id="node3" class="node">
<title>Node2</title>
<g id="a_node3"><a xlink:href="namespaceutils.html#a96d358b93c453a686f65db462e2be70f" target="_top" xlink:title="Mimicking Python&#39;s split. ">
<polygon fill="#ffffff" stroke="#000000" points="340,-66.5 340,-85.5 399,-85.5 399,-66.5 340,-66.5"/>
<text text-anchor="middle" x="369.5" y="-73.5" font-family="Helvetica,sans-Serif" font-size="10.00" fill="#000000">utils::split</text>
</a>
</g>
</g>
<!-- Node0&#45;&gt;Node2 -->
<g id="edge2" class="edge">
<title>Node0&#45;&gt;Node2</title>
<path fill="none" stroke="#191970" d="M152.0067,-78.3696C196.3422,-79.4095 253.3422,-80.1595 304,-79 312.3335,-78.8093 321.2588,-78.4822 329.7554,-78.1124"/>
<polygon fill="#191970" stroke="#191970" points="330.0105,-81.6044 339.8382,-77.6464 329.6872,-74.6119 330.0105,-81.6044"/>
</g>
<!-- Node3 -->
<g id="node4" class="node">
<title>Node3</title>
<g id="a_node4"><a xlink:href="classStaDumpAtoms.html#a8a507beb5e12cb6e306f05e87f42e7bf" target="_top" xlink:title="StaDumpAtoms::make\l_is_int_vector">
<polygon fill="#ffffff" stroke="#000000" points="188,-39 188,-69 304,-69 304,-39 188,-39"/>
<text text-anchor="start" x="196" y="-57" font-family="Helvetica,sans-Serif" font-size="10.00" fill="#000000">StaDumpAtoms::make</text>
<text text-anchor="middle" x="246" y="-46" font-family="Helvetica,sans-Serif" font-size="10.00" fill="#000000">_is_int_vector</text>
</a>
</g>
</g>
<!-- Node0&#45;&gt;Node3 -->
<g id="edge3" class="edge">
<title>Node0&#45;&gt;Node3</title>
<path fill="none" stroke="#191970" d="M149.5757,-66.4784C158.9994,-65.2589 168.6138,-64.0147 177.9443,-62.8072"/>
<polygon fill="#191970" stroke="#191970" points="178.4669,-66.2689 187.9349,-61.5143 177.5684,-59.3267 178.4669,-66.2689"/>
</g>
<!-- Node4 -->
<g id="node5" class="node">
<title>Node4</title>
<g id="a_node5"><a xlink:href="classDataKeys.html#a626d56b99861008c2a63580ed17b809d" target="_top" xlink:title="Add key(s) in an array to _keys. ">
<polygon fill="#ffffff" stroke="#000000" points="205.5,-.5 205.5,-19.5 286.5,-19.5 286.5,-.5 205.5,-.5"/>
<text text-anchor="middle" x="246" y="-7.5" font-family="Helvetica,sans-Serif" font-size="10.00" fill="#000000">DataKeys::add</text>
</a>
</g>
</g>
<!-- Node0&#45;&gt;Node4 -->
<g id="edge5" class="edge">
<title>Node0&#45;&gt;Node4</title>
<path fill="none" stroke="#191970" d="M98.1626,-66.4554C120.6502,-56.8756 156.5335,-41.8758 188,-30 194.3606,-27.5994 201.155,-25.1526 207.7715,-22.8319"/>
<polygon fill="#191970" stroke="#191970" points="208.9637,-26.123 217.2668,-19.542 206.672,-19.5087 208.9637,-26.123"/>
</g>
<!-- Node3&#45;&gt;Node2 -->
<g id="edge4" class="edge">
<title>Node3&#45;&gt;Node2</title>
<path fill="none" stroke="#191970" d="M304.1337,-64.3558C312.8436,-65.9074 321.6498,-67.4761 329.8559,-68.9379"/>
<polygon fill="#191970" stroke="#191970" points="329.4181,-72.4149 339.877,-70.723 330.6458,-65.5234 329.4181,-72.4149"/>
</g>
</g>
</svg>
