<?xml version="1.0" encoding="UTF-8" standalone="no"?>
<!DOCTYPE svg PUBLIC "-//W3C//DTD SVG 1.1//EN"
 "http://www.w3.org/Graphics/SVG/1.1/DTD/svg11.dtd">
<!-- Generated by graphviz version 2.40.1 (20161225.0304)
 -->
<!-- Title: StaDump Pages: 1 -->
<svg width="228pt" height="673pt"
 viewBox="0.00 0.00 228.00 673.00" xmlns="http://www.w3.org/2000/svg" xmlns:xlink="http://www.w3.org/1999/xlink">
<g id="graph0" class="graph" transform="scale(1 1) rotate(0) translate(4 669)">
<title>StaDump</title>
<polygon fill="#ffffff" stroke="transparent" points="-4,4 -4,-669 224,-669 224,4 -4,4"/>
<!-- Node0 -->
<g id="node1" class="node">
<title>Node0</title>
<polygon fill="#bfbfbf" stroke="#000000" points="73.5,-116.5 73.5,-195.5 151.5,-195.5 151.5,-116.5 73.5,-116.5"/>
<text text-anchor="middle" x="112.5" y="-183.5" font-family="Helvetica,sans-Serif" font-size="10.00" fill="#000000">StaDump</text>
<polyline fill="none" stroke="#000000" points="73.5,-176.5 151.5,-176.5 "/>
<text text-anchor="start" x="81.5" y="-164.5" font-family="Helvetica,sans-Serif" font-size="10.00" fill="#000000"># timestep</text>
<text text-anchor="start" x="81.5" y="-153.5" font-family="Helvetica,sans-Serif" font-size="10.00" fill="#000000"># filepath</text>
<polyline fill="none" stroke="#000000" points="73.5,-146.5 151.5,-146.5 "/>
<text text-anchor="start" x="81.5" y="-134.5" font-family="Helvetica,sans-Serif" font-size="10.00" fill="#000000">+ StaDump()</text>
<text text-anchor="start" x="81.5" y="-123.5" font-family="Helvetica,sans-Serif" font-size="10.00" fill="#000000">+ ~StaDump()</text>
</g>
<!-- Node4 -->
<g id="node5" class="node">
<title>Node4</title>
<g id="a_node5"><a xlink:href="classStaDumpAtoms.html" target="_top" xlink:title="StaDumpAtoms reads a Lammps&#39; dump file and sets properties for atoms. ">
<polygon fill="#ffffff" stroke="#000000" points="0,-.5 0,-79.5 107,-79.5 107,-.5 0,-.5"/>
<text text-anchor="middle" x="53.5" y="-67.5" font-family="Helvetica,sans-Serif" font-size="10.00" fill="#000000">StaDumpAtoms</text>
<polyline fill="none" stroke="#000000" points="0,-60.5 107,-60.5 "/>
<text text-anchor="middle" x="53.5" y="-48.5" font-family="Helvetica,sans-Serif" font-size="10.00" fill="#000000"> </text>
<polyline fill="none" stroke="#000000" points="0,-41.5 107,-41.5 "/>
<text text-anchor="start" x="8" y="-29.5" font-family="Helvetica,sans-Serif" font-size="10.00" fill="#000000">+ ~StaDumpAtoms()</text>
<text text-anchor="start" x="8" y="-18.5" font-family="Helvetica,sans-Serif" font-size="10.00" fill="#000000">+ StaDump()</text>
<text text-anchor="start" x="8" y="-7.5" font-family="Helvetica,sans-Serif" font-size="10.00" fill="#000000"># compute_impl()</text>
</a>
</g>
</g>
<!-- Node0&#45;&gt;Node4 -->
<g id="edge4" class="edge">
<title>Node0&#45;&gt;Node4</title>
<path fill="none" stroke="#191970" d="M87.7635,-107.3655C83.094,-98.1847 78.2609,-88.6824 73.749,-79.8116"/>
<polygon fill="none" stroke="#191970" points="84.7073,-109.0772 92.3606,-116.4038 90.9467,-105.9037 84.7073,-109.0772"/>
</g>
<!-- Node5 -->
<g id="node6" class="node">
<title>Node5</title>
<g id="a_node6"><a xlink:href="classStaDumpBox.html" target="_top" xlink:title="StaDumpBox reads a Lammps&#39; dump file and sets properties for simulation box. ">
<polygon fill="#ffffff" stroke="#000000" points="125,-.5 125,-79.5 220,-79.5 220,-.5 125,-.5"/>
<text text-anchor="middle" x="172.5" y="-67.5" font-family="Helvetica,sans-Serif" font-size="10.00" fill="#000000">StaDumpBox</text>
<polyline fill="none" stroke="#000000" points="125,-60.5 220,-60.5 "/>
<text text-anchor="middle" x="172.5" y="-48.5" font-family="Helvetica,sans-Serif" font-size="10.00" fill="#000000"> </text>
<polyline fill="none" stroke="#000000" points="125,-41.5 220,-41.5 "/>
<text text-anchor="start" x="133" y="-29.5" font-family="Helvetica,sans-Serif" font-size="10.00" fill="#000000">+ ~StaDumpBox()</text>
<text text-anchor="start" x="133" y="-18.5" font-family="Helvetica,sans-Serif" font-size="10.00" fill="#000000">+ StaDump()</text>
<text text-anchor="start" x="133" y="-7.5" font-family="Helvetica,sans-Serif" font-size="10.00" fill="#000000"># compute_impl()</text>
</a>
</g>
</g>
<!-- Node0&#45;&gt;Node5 -->
<g id="edge5" class="edge">
<title>Node0&#45;&gt;Node5</title>
<path fill="none" stroke="#191970" d="M137.6558,-107.3655C142.4045,-98.1847 147.3195,-88.6824 151.9078,-79.8116"/>
<polygon fill="none" stroke="#191970" points="134.4663,-105.9136 132.9808,-116.4038 140.6838,-109.1296 134.4663,-105.9136"/>
</g>
<!-- Node1 -->
<g id="node2" class="node">
<title>Node1</title>
<g id="a_node2"><a xlink:href="classStarter.html" target="_top" xlink:title="Starter sets some properties to an empty Element object. ">
<polygon fill="#ffffff" stroke="#000000" points="63.5,-232.5 63.5,-322.5 161.5,-322.5 161.5,-232.5 63.5,-232.5"/>
<text text-anchor="middle" x="112.5" y="-310.5" font-family="Helvetica,sans-Serif" font-size="10.00" fill="#000000">Starter</text>
<polyline fill="none" stroke="#000000" points="63.5,-303.5 161.5,-303.5 "/>
<text text-anchor="start" x="71.5" y="-291.5" font-family="Helvetica,sans-Serif" font-size="10.00" fill="#000000"># do_sorting_by_id</text>
<polyline fill="none" stroke="#000000" points="63.5,-284.5 161.5,-284.5 "/>
<text text-anchor="start" x="71.5" y="-272.5" font-family="Helvetica,sans-Serif" font-size="10.00" fill="#000000">+ ~Starter()</text>
<text text-anchor="start" x="71.5" y="-261.5" font-family="Helvetica,sans-Serif" font-size="10.00" fill="#000000">+ compute()</text>
<text text-anchor="start" x="71.5" y="-250.5" font-family="Helvetica,sans-Serif" font-size="10.00" fill="#000000">+ Updater()</text>
<text text-anchor="start" x="71.5" y="-239.5" font-family="Helvetica,sans-Serif" font-size="10.00" fill="#000000">&#45; sort_by_id()</text>
</a>
</g>
</g>
<!-- Node1&#45;&gt;Node0 -->
<g id="edge1" class="edge">
<title>Node1&#45;&gt;Node0</title>
<path fill="none" stroke="#191970" d="M112.5,-222.254C112.5,-213.2956 112.5,-204.1763 112.5,-195.6838"/>
<polygon fill="none" stroke="#191970" points="109.0001,-222.2578 112.5,-232.2579 116.0001,-222.2579 109.0001,-222.2578"/>
</g>
<!-- Node2 -->
<g id="node3" class="node">
<title>Node2</title>
<g id="a_node3"><a xlink:href="classUpdater.html" target="_top" xlink:title="Updater is an abstract class to update data held by an Element object. ">
<polygon fill="#ffffff" stroke="#000000" points="36.5,-359.5 36.5,-559.5 188.5,-559.5 188.5,-359.5 36.5,-359.5"/>
<text text-anchor="middle" x="112.5" y="-547.5" font-family="Helvetica,sans-Serif" font-size="10.00" fill="#000000">Updater</text>
<polyline fill="none" stroke="#000000" points="36.5,-540.5 188.5,-540.5 "/>
<text text-anchor="start" x="44.5" y="-528.5" font-family="Helvetica,sans-Serif" font-size="10.00" fill="#000000"># ext_generator</text>
<text text-anchor="start" x="44.5" y="-517.5" font-family="Helvetica,sans-Serif" font-size="10.00" fill="#000000"># check_required_keys</text>
<text text-anchor="start" x="44.5" y="-506.5" font-family="Helvetica,sans-Serif" font-size="10.00" fill="#000000"># check_optional_keys</text>
<text text-anchor="start" x="44.5" y="-495.5" font-family="Helvetica,sans-Serif" font-size="10.00" fill="#000000">&#45; skippable_elementids</text>
<text text-anchor="start" x="44.5" y="-484.5" font-family="Helvetica,sans-Serif" font-size="10.00" fill="#000000">&#45; omp_lock</text>
<polyline fill="none" stroke="#000000" points="36.5,-477.5 188.5,-477.5 "/>
<text text-anchor="start" x="44.5" y="-465.5" font-family="Helvetica,sans-Serif" font-size="10.00" fill="#000000">+ Updater()</text>
<text text-anchor="start" x="44.5" y="-454.5" font-family="Helvetica,sans-Serif" font-size="10.00" fill="#000000">+ ~Updater()</text>
<text text-anchor="start" x="44.5" y="-443.5" font-family="Helvetica,sans-Serif" font-size="10.00" fill="#000000">+ compute()</text>
<text text-anchor="start" x="44.5" y="-432.5" font-family="Helvetica,sans-Serif" font-size="10.00" fill="#000000">+ remove_from_skippable</text>
<text text-anchor="start" x="44.5" y="-421.5" font-family="Helvetica,sans-Serif" font-size="10.00" fill="#000000">_elementids()</text>
<text text-anchor="start" x="44.5" y="-410.5" font-family="Helvetica,sans-Serif" font-size="10.00" fill="#000000">+ get_ext_generator()</text>
<text text-anchor="start" x="44.5" y="-399.5" font-family="Helvetica,sans-Serif" font-size="10.00" fill="#000000"># compute_impl()</text>
<text text-anchor="start" x="44.5" y="-388.5" font-family="Helvetica,sans-Serif" font-size="10.00" fill="#000000"># make_check_required_keys()</text>
<text text-anchor="start" x="44.5" y="-377.5" font-family="Helvetica,sans-Serif" font-size="10.00" fill="#000000"># make_check_optional_keys()</text>
<text text-anchor="start" x="44.5" y="-366.5" font-family="Helvetica,sans-Serif" font-size="10.00" fill="#000000"># check_update_requirest_for()</text>
</a>
</g>
</g>
<!-- Node2&#45;&gt;Node1 -->
<g id="edge2" class="edge">
<title>Node2&#45;&gt;Node1</title>
<path fill="none" stroke="#191970" d="M112.5,-349.252C112.5,-339.9388 112.5,-330.9075 112.5,-322.5728"/>
<polygon fill="none" stroke="#191970" points="109.0001,-349.4488 112.5,-359.4489 116.0001,-349.4489 109.0001,-349.4488"/>
</g>
<!-- Node3 -->
<g id="node4" class="node">
<title>Node3</title>
<polygon fill="#ffffff" stroke="#bfbfbf" points="55.5,-596.5 55.5,-664.5 169.5,-664.5 169.5,-596.5 55.5,-596.5"/>
<text text-anchor="start" x="63.5" y="-652.5" font-family="Helvetica,sans-Serif" font-size="10.00" fill="#000000">std::enable_shared</text>
<text text-anchor="middle" x="112.5" y="-641.5" font-family="Helvetica,sans-Serif" font-size="10.00" fill="#000000">_from_this&lt; Updater &gt;</text>
<polyline fill="none" stroke="#bfbfbf" points="55.5,-634.5 169.5,-634.5 "/>
<text text-anchor="middle" x="112.5" y="-622.5" font-family="Helvetica,sans-Serif" font-size="10.00" fill="#000000"> </text>
<polyline fill="none" stroke="#bfbfbf" points="55.5,-615.5 169.5,-615.5 "/>
<text text-anchor="middle" x="112.5" y="-603.5" font-family="Helvetica,sans-Serif" font-size="10.00" fill="#000000"> </text>
</g>
<!-- Node3&#45;&gt;Node2 -->
<g id="edge3" class="edge">
<title>Node3&#45;&gt;Node2</title>
<path fill="none" stroke="#191970" d="M112.5,-586.1502C112.5,-577.816 112.5,-568.7968 112.5,-559.5434"/>
<polygon fill="none" stroke="#191970" points="109.0001,-586.3065 112.5,-596.3066 116.0001,-586.3066 109.0001,-586.3065"/>
</g>
</g>
</svg>
