<?xml version="1.0" encoding="UTF-8" standalone="no"?>
<!DOCTYPE svg PUBLIC "-//W3C//DTD SVG 1.1//EN"
 "http://www.w3.org/Graphics/SVG/1.1/DTD/svg11.dtd">
<!-- Generated by graphviz version 2.40.1 (20161225.0304)
 -->
<!-- Title: Adder Pages: 1 -->
<svg width="1496pt" height="430pt"
 viewBox="0.00 0.00 1495.50 430.00" xmlns="http://www.w3.org/2000/svg" xmlns:xlink="http://www.w3.org/1999/xlink">
<g id="graph0" class="graph" transform="scale(1 1) rotate(0) translate(4 426)">
<title>Adder</title>
<polygon fill="#ffffff" stroke="transparent" points="-4,4 -4,-426 1491.5,-426 1491.5,4 -4,4"/>
<!-- Node0 -->
<g id="node1" class="node">
<title>Node0</title>
<polygon fill="#bfbfbf" stroke="#000000" points="713,-160.5 713,-239.5 782,-239.5 782,-160.5 713,-160.5"/>
<text text-anchor="middle" x="747.5" y="-227.5" font-family="Helvetica,sans-Serif" font-size="10.00" fill="#000000">Adder</text>
<polyline fill="none" stroke="#000000" points="713,-220.5 782,-220.5 "/>
<text text-anchor="middle" x="747.5" y="-208.5" font-family="Helvetica,sans-Serif" font-size="10.00" fill="#000000"> </text>
<polyline fill="none" stroke="#000000" points="713,-201.5 782,-201.5 "/>
<text text-anchor="start" x="721" y="-189.5" font-family="Helvetica,sans-Serif" font-size="10.00" fill="#000000">+ ~Adder()</text>
<text text-anchor="start" x="721" y="-178.5" font-family="Helvetica,sans-Serif" font-size="10.00" fill="#000000">+ compute()</text>
<text text-anchor="start" x="721" y="-167.5" font-family="Helvetica,sans-Serif" font-size="10.00" fill="#000000">+ Updater()</text>
</g>
<!-- Node2 -->
<g id="node3" class="node">
<title>Node2</title>
<g id="a_node3"><a xlink:href="classAddBondLength.html" target="_top" xlink:title="AddBondLength adds center of mass to an Element object as its unwrapped position. ...">
<polygon fill="#ffffff" stroke="#000000" points="0,-22.5 0,-101.5 107,-101.5 107,-22.5 0,-22.5"/>
<text text-anchor="middle" x="53.5" y="-89.5" font-family="Helvetica,sans-Serif" font-size="10.00" fill="#000000">AddBondLength</text>
<polyline fill="none" stroke="#000000" points="0,-82.5 107,-82.5 "/>
<text text-anchor="middle" x="53.5" y="-70.5" font-family="Helvetica,sans-Serif" font-size="10.00" fill="#000000"> </text>
<polyline fill="none" stroke="#000000" points="0,-63.5 107,-63.5 "/>
<text text-anchor="start" x="8" y="-51.5" font-family="Helvetica,sans-Serif" font-size="10.00" fill="#000000">+ AddBondLength()</text>
<text text-anchor="start" x="8" y="-40.5" font-family="Helvetica,sans-Serif" font-size="10.00" fill="#000000">+ ~AddBondLength()</text>
<text text-anchor="start" x="8" y="-29.5" font-family="Helvetica,sans-Serif" font-size="10.00" fill="#000000"># compute_impl()</text>
</a>
</g>
</g>
<!-- Node0&#45;&gt;Node2 -->
<g id="edge2" class="edge">
<title>Node0&#45;&gt;Node2</title>
<path fill="none" stroke="#191970" d="M702.6697,-198.3403C576.4602,-193.0854 220.5762,-174.0991 116.5,-124 105.3001,-118.6087 94.8805,-110.4221 85.8687,-101.7488"/>
<polygon fill="none" stroke="#191970" points="702.6244,-201.8412 712.7586,-198.7513 702.9094,-194.847 702.6244,-201.8412"/>
</g>
<!-- Node3 -->
<g id="node4" class="node">
<title>Node3</title>
<g id="a_node4"><a xlink:href="classAddChildIDs.html" target="_top" xlink:title="AddChildIDs adds id property of a child Element object to a parent Element object. ">
<polygon fill="#ffffff" stroke="#000000" points="125.5,-17 125.5,-107 225.5,-107 225.5,-17 125.5,-17"/>
<text text-anchor="middle" x="175.5" y="-95" font-family="Helvetica,sans-Serif" font-size="10.00" fill="#000000">AddChildIDs</text>
<polyline fill="none" stroke="#000000" points="125.5,-88 225.5,-88 "/>
<text text-anchor="start" x="133.5" y="-76" font-family="Helvetica,sans-Serif" font-size="10.00" fill="#000000">&#45; child_name</text>
<text text-anchor="start" x="133.5" y="-65" font-family="Helvetica,sans-Serif" font-size="10.00" fill="#000000">&#45; key_for_parent_id</text>
<polyline fill="none" stroke="#000000" points="125.5,-58 225.5,-58 "/>
<text text-anchor="start" x="133.5" y="-46" font-family="Helvetica,sans-Serif" font-size="10.00" fill="#000000">+ AddChildIDs()</text>
<text text-anchor="start" x="133.5" y="-35" font-family="Helvetica,sans-Serif" font-size="10.00" fill="#000000">+ ~AddChildIDs()</text>
<text text-anchor="start" x="133.5" y="-24" font-family="Helvetica,sans-Serif" font-size="10.00" fill="#000000"># compute_impl()</text>
</a>
</g>
</g>
<!-- Node0&#45;&gt;Node3 -->
<g id="edge3" class="edge">
<title>Node0&#45;&gt;Node3</title>
<path fill="none" stroke="#191970" d="M702.9533,-197.1205C593.8219,-189.4808 316.0809,-166.3302 234.5,-124 226.1909,-119.6886 218.3983,-113.7444 211.3712,-107.2321"/>
<polygon fill="none" stroke="#191970" points="702.7588,-200.6153 712.9758,-197.8115 703.2403,-193.6319 702.7588,-200.6153"/>
</g>
<!-- Node4 -->
<g id="node5" class="node">
<title>Node4</title>
<g id="a_node5"><a xlink:href="classAddChildPositions.html" target="_top" xlink:title="AddChildPositions adds relative positions of a child Element object to a parent Element object...">
<polygon fill="#ffffff" stroke="#000000" points="244,-22.5 244,-101.5 361,-101.5 361,-22.5 244,-22.5"/>
<text text-anchor="middle" x="302.5" y="-89.5" font-family="Helvetica,sans-Serif" font-size="10.00" fill="#000000">AddChildPositions</text>
<polyline fill="none" stroke="#000000" points="244,-82.5 361,-82.5 "/>
<text text-anchor="start" x="252" y="-70.5" font-family="Helvetica,sans-Serif" font-size="10.00" fill="#000000">&#45; child_name</text>
<polyline fill="none" stroke="#000000" points="244,-63.5 361,-63.5 "/>
<text text-anchor="start" x="252" y="-51.5" font-family="Helvetica,sans-Serif" font-size="10.00" fill="#000000">+ AddChildPositions()</text>
<text text-anchor="start" x="252" y="-40.5" font-family="Helvetica,sans-Serif" font-size="10.00" fill="#000000">+ ~AddChildPositions()</text>
<text text-anchor="start" x="252" y="-29.5" font-family="Helvetica,sans-Serif" font-size="10.00" fill="#000000"># compute_impl()</text>
</a>
</g>
</g>
<!-- Node0&#45;&gt;Node4 -->
<g id="edge4" class="edge">
<title>Node0&#45;&gt;Node4</title>
<path fill="none" stroke="#191970" d="M702.8289,-194.0481C616.1218,-182.001 428.4444,-153.3683 370.5,-124 359.2424,-118.2942 348.4571,-110.2057 338.9248,-101.7484"/>
<polygon fill="none" stroke="#191970" points="702.5027,-197.5361 712.8868,-195.4339 703.4582,-190.6016 702.5027,-197.5361"/>
</g>
<!-- Node5 -->
<g id="node6" class="node">
<title>Node5</title>
<g id="a_node6"><a xlink:href="classAddCoMPosition.html" target="_top" xlink:title="AddCoMPosition adds center of mass to an Element object as its unwrapped position. ">
<polygon fill="#ffffff" stroke="#000000" points="379.5,-11.5 379.5,-112.5 519.5,-112.5 519.5,-11.5 379.5,-11.5"/>
<text text-anchor="middle" x="449.5" y="-100.5" font-family="Helvetica,sans-Serif" font-size="10.00" fill="#000000">AddCoMPosition</text>
<polyline fill="none" stroke="#000000" points="379.5,-93.5 519.5,-93.5 "/>
<text text-anchor="middle" x="449.5" y="-81.5" font-family="Helvetica,sans-Serif" font-size="10.00" fill="#000000"> </text>
<polyline fill="none" stroke="#000000" points="379.5,-74.5 519.5,-74.5 "/>
<text text-anchor="start" x="387.5" y="-62.5" font-family="Helvetica,sans-Serif" font-size="10.00" fill="#000000">+ AddCoMPosition()</text>
<text text-anchor="start" x="387.5" y="-51.5" font-family="Helvetica,sans-Serif" font-size="10.00" fill="#000000">+ ~AddCoMPosition()</text>
<text text-anchor="start" x="387.5" y="-40.5" font-family="Helvetica,sans-Serif" font-size="10.00" fill="#000000"># compute_impl()</text>
<text text-anchor="start" x="387.5" y="-29.5" font-family="Helvetica,sans-Serif" font-size="10.00" fill="#000000">&#45; compute_with_weights()</text>
<text text-anchor="start" x="387.5" y="-18.5" font-family="Helvetica,sans-Serif" font-size="10.00" fill="#000000">&#45; compute_without_weights()</text>
</a>
</g>
</g>
<!-- Node0&#45;&gt;Node5 -->
<g id="edge5" class="edge">
<title>Node0&#45;&gt;Node5</title>
<path fill="none" stroke="#191970" d="M702.7635,-189.1598C657.1822,-177.0585 585.3136,-155.0167 528.5,-124 522.3789,-120.6583 516.2419,-116.8471 510.2435,-112.7949"/>
<polygon fill="none" stroke="#191970" points="702.0769,-192.5977 712.6365,-191.7344 703.8433,-185.8242 702.0769,-192.5977"/>
</g>
<!-- Node6 -->
<g id="node7" class="node">
<title>Node6</title>
<g id="a_node7"><a xlink:href="classAddGyrationRadius.html" target="_top" xlink:title="AddGyrationRadius adds gyration radius to an Element object. ">
<polygon fill="#ffffff" stroke="#000000" points="537.5,-22.5 537.5,-101.5 659.5,-101.5 659.5,-22.5 537.5,-22.5"/>
<text text-anchor="middle" x="598.5" y="-89.5" font-family="Helvetica,sans-Serif" font-size="10.00" fill="#000000">AddGyrationRadius</text>
<polyline fill="none" stroke="#000000" points="537.5,-82.5 659.5,-82.5 "/>
<text text-anchor="start" x="545.5" y="-70.5" font-family="Helvetica,sans-Serif" font-size="10.00" fill="#000000">&#45; add_sqrted</text>
<polyline fill="none" stroke="#000000" points="537.5,-63.5 659.5,-63.5 "/>
<text text-anchor="start" x="545.5" y="-51.5" font-family="Helvetica,sans-Serif" font-size="10.00" fill="#000000">+ ~AddGyrationRadius()</text>
<text text-anchor="start" x="545.5" y="-40.5" font-family="Helvetica,sans-Serif" font-size="10.00" fill="#000000">+ with_sqrted()</text>
<text text-anchor="start" x="545.5" y="-29.5" font-family="Helvetica,sans-Serif" font-size="10.00" fill="#000000"># compute_impl()</text>
</a>
</g>
</g>
<!-- Node0&#45;&gt;Node6 -->
<g id="edge6" class="edge">
<title>Node0&#45;&gt;Node6</title>
<path fill="none" stroke="#191970" d="M705.4738,-161.0764C685.4491,-142.53 661.5327,-120.3793 641.3971,-101.7302"/>
<polygon fill="none" stroke="#191970" points="703.2269,-163.7659 712.9419,-167.9932 707.9835,-158.6302 703.2269,-163.7659"/>
</g>
<!-- Node7 -->
<g id="node8" class="node">
<title>Node7</title>
<g id="a_node8"><a xlink:href="classAddInertiaMoment.html" target="_top" xlink:title="AddInertiaMoment adds inertia moment to an Element object. ">
<polygon fill="#ffffff" stroke="#000000" points="677.5,-11.5 677.5,-112.5 817.5,-112.5 817.5,-11.5 677.5,-11.5"/>
<text text-anchor="middle" x="747.5" y="-100.5" font-family="Helvetica,sans-Serif" font-size="10.00" fill="#000000">AddInertiaMoment</text>
<polyline fill="none" stroke="#000000" points="677.5,-93.5 817.5,-93.5 "/>
<text text-anchor="middle" x="747.5" y="-81.5" font-family="Helvetica,sans-Serif" font-size="10.00" fill="#000000"> </text>
<polyline fill="none" stroke="#000000" points="677.5,-74.5 817.5,-74.5 "/>
<text text-anchor="start" x="685.5" y="-62.5" font-family="Helvetica,sans-Serif" font-size="10.00" fill="#000000">+ AddInertiaMoment()</text>
<text text-anchor="start" x="685.5" y="-51.5" font-family="Helvetica,sans-Serif" font-size="10.00" fill="#000000">+ ~AddInertiaMoment()</text>
<text text-anchor="start" x="685.5" y="-40.5" font-family="Helvetica,sans-Serif" font-size="10.00" fill="#000000"># compute_impl()</text>
<text text-anchor="start" x="685.5" y="-29.5" font-family="Helvetica,sans-Serif" font-size="10.00" fill="#000000">&#45; compute_with_weights()</text>
<text text-anchor="start" x="685.5" y="-18.5" font-family="Helvetica,sans-Serif" font-size="10.00" fill="#000000">&#45; compute_without_weights()</text>
</a>
</g>
</g>
<!-- Node0&#45;&gt;Node7 -->
<g id="edge7" class="edge">
<title>Node0&#45;&gt;Node7</title>
<path fill="none" stroke="#191970" d="M747.5,-150.3951C747.5,-138.1248 747.5,-124.9637 747.5,-112.6445"/>
<polygon fill="none" stroke="#191970" points="744.0001,-150.4547 747.5,-160.4547 751.0001,-150.4548 744.0001,-150.4547"/>
</g>
<!-- Node8 -->
<g id="node9" class="node">
<title>Node8</title>
<g id="a_node9"><a xlink:href="classAddMap.html" target="_top" xlink:title="AddMap adds a new property by mapping from an existing property. ">
<polygon fill="#ffffff" stroke="#000000" points="835.5,-.5 835.5,-123.5 927.5,-123.5 927.5,-.5 835.5,-.5"/>
<text text-anchor="middle" x="881.5" y="-111.5" font-family="Helvetica,sans-Serif" font-size="10.00" fill="#000000">AddMap</text>
<polyline fill="none" stroke="#000000" points="835.5,-104.5 927.5,-104.5 "/>
<text text-anchor="start" x="843.5" y="-92.5" font-family="Helvetica,sans-Serif" font-size="10.00" fill="#000000">&#45; do_overwrite</text>
<text text-anchor="start" x="843.5" y="-81.5" font-family="Helvetica,sans-Serif" font-size="10.00" fill="#000000">&#45; key_ref</text>
<text text-anchor="start" x="843.5" y="-70.5" font-family="Helvetica,sans-Serif" font-size="10.00" fill="#000000">&#45; key_new</text>
<text text-anchor="start" x="843.5" y="-59.5" font-family="Helvetica,sans-Serif" font-size="10.00" fill="#000000">&#45; mapping</text>
<polyline fill="none" stroke="#000000" points="835.5,-52.5 927.5,-52.5 "/>
<text text-anchor="start" x="843.5" y="-40.5" font-family="Helvetica,sans-Serif" font-size="10.00" fill="#000000">+ AddMap()</text>
<text text-anchor="start" x="843.5" y="-29.5" font-family="Helvetica,sans-Serif" font-size="10.00" fill="#000000">+ ~AddMap()</text>
<text text-anchor="start" x="843.5" y="-18.5" font-family="Helvetica,sans-Serif" font-size="10.00" fill="#000000">+ overwrite()</text>
<text text-anchor="start" x="843.5" y="-7.5" font-family="Helvetica,sans-Serif" font-size="10.00" fill="#000000"># compute_impl()</text>
</a>
</g>
</g>
<!-- Node0&#45;&gt;Node8 -->
<g id="edge8" class="edge">
<title>Node0&#45;&gt;Node8</title>
<path fill="none" stroke="#191970" d="M789.6753,-160.6133C801.7594,-149.0113 814.8188,-136.163 826.5,-124 829.3904,-120.9904 832.3317,-117.8671 835.2753,-114.6944"/>
<polygon fill="none" stroke="#191970" points="787.1126,-158.2209 782.2983,-167.6588 791.9473,-163.2831 787.1126,-158.2209"/>
</g>
<!-- Node9 -->
<g id="node10" class="node">
<title>Node9</title>
<g id="a_node10"><a xlink:href="classAddMolecularOrientation.html" target="_top" xlink:title="AddMolecularOrientation adds molecular orientation (order parameter) to an Element object...">
<polygon fill="#ffffff" stroke="#000000" points="945.5,-28 945.5,-96 1089.5,-96 1089.5,-28 945.5,-28"/>
<text text-anchor="middle" x="1017.5" y="-84" font-family="Helvetica,sans-Serif" font-size="10.00" fill="#000000">AddMolecularOrientation</text>
<polyline fill="none" stroke="#000000" points="945.5,-77 1089.5,-77 "/>
<text text-anchor="middle" x="1017.5" y="-65" font-family="Helvetica,sans-Serif" font-size="10.00" fill="#000000"> </text>
<polyline fill="none" stroke="#000000" points="945.5,-58 1089.5,-58 "/>
<text text-anchor="start" x="953.5" y="-46" font-family="Helvetica,sans-Serif" font-size="10.00" fill="#000000">+ ~AddMolecularOrientation()</text>
<text text-anchor="start" x="953.5" y="-35" font-family="Helvetica,sans-Serif" font-size="10.00" fill="#000000"># compute_impl()</text>
</a>
</g>
</g>
<!-- Node0&#45;&gt;Node9 -->
<g id="edge9" class="edge">
<title>Node0&#45;&gt;Node9</title>
<path fill="none" stroke="#191970" d="M791.8094,-186.0066C831.1333,-172.7081 889.4741,-150.7891 936.5,-124 950.5027,-116.0231 964.7853,-105.8831 977.3795,-96.1258"/>
<polygon fill="none" stroke="#191970" points="790.618,-182.7144 782.2399,-189.1996 792.8336,-189.3545 790.618,-182.7144"/>
</g>
<!-- Node10 -->
<g id="node11" class="node">
<title>Node10</title>
<g id="a_node11"><a xlink:href="classAddRename.html" target="_top" xlink:title="AddRename renames an existing property. ">
<polygon fill="#ffffff" stroke="#000000" points="1107.5,-6 1107.5,-118 1199.5,-118 1199.5,-6 1107.5,-6"/>
<text text-anchor="middle" x="1153.5" y="-106" font-family="Helvetica,sans-Serif" font-size="10.00" fill="#000000">AddRename</text>
<polyline fill="none" stroke="#000000" points="1107.5,-99 1199.5,-99 "/>
<text text-anchor="start" x="1115.5" y="-87" font-family="Helvetica,sans-Serif" font-size="10.00" fill="#000000">&#45; do_overwrite</text>
<text text-anchor="start" x="1115.5" y="-76" font-family="Helvetica,sans-Serif" font-size="10.00" fill="#000000">&#45; key_old</text>
<text text-anchor="start" x="1115.5" y="-65" font-family="Helvetica,sans-Serif" font-size="10.00" fill="#000000">&#45; key_new</text>
<polyline fill="none" stroke="#000000" points="1107.5,-58 1199.5,-58 "/>
<text text-anchor="start" x="1115.5" y="-46" font-family="Helvetica,sans-Serif" font-size="10.00" fill="#000000">+ AddRename()</text>
<text text-anchor="start" x="1115.5" y="-35" font-family="Helvetica,sans-Serif" font-size="10.00" fill="#000000">+ ~AddRename()</text>
<text text-anchor="start" x="1115.5" y="-24" font-family="Helvetica,sans-Serif" font-size="10.00" fill="#000000">+ overwrite()</text>
<text text-anchor="start" x="1115.5" y="-13" font-family="Helvetica,sans-Serif" font-size="10.00" fill="#000000"># compute_impl()</text>
</a>
</g>
</g>
<!-- Node0&#45;&gt;Node10 -->
<g id="edge10" class="edge">
<title>Node0&#45;&gt;Node10</title>
<path fill="none" stroke="#191970" d="M792.2999,-193.8422C874.7341,-181.9383 1046.7574,-154.2609 1098.5,-124 1101.4809,-122.2566 1104.3864,-120.2952 1107.2042,-118.172"/>
<polygon fill="none" stroke="#191970" points="791.6348,-190.4016 782.2309,-195.282 792.6257,-197.3311 791.6348,-190.4016"/>
</g>
<!-- Node11 -->
<g id="node12" class="node">
<title>Node11</title>
<g id="a_node12"><a xlink:href="classAddSpecialBonds.html" target="_top" xlink:title="AddSpecialBonds adds special bonds. ">
<polygon fill="#ffffff" stroke="#000000" points="1218,-11.5 1218,-112.5 1341,-112.5 1341,-11.5 1218,-11.5"/>
<text text-anchor="middle" x="1279.5" y="-100.5" font-family="Helvetica,sans-Serif" font-size="10.00" fill="#000000">AddSpecialBonds</text>
<polyline fill="none" stroke="#000000" points="1218,-93.5 1341,-93.5 "/>
<text text-anchor="start" x="1226" y="-81.5" font-family="Helvetica,sans-Serif" font-size="10.00" fill="#000000">&#45; mol_type_to_sbondses</text>
<text text-anchor="start" x="1226" y="-70.5" font-family="Helvetica,sans-Serif" font-size="10.00" fill="#000000">_in_mol</text>
<polyline fill="none" stroke="#000000" points="1218,-63.5 1341,-63.5 "/>
<text text-anchor="start" x="1226" y="-51.5" font-family="Helvetica,sans-Serif" font-size="10.00" fill="#000000">+ AddSpecialBonds()</text>
<text text-anchor="start" x="1226" y="-40.5" font-family="Helvetica,sans-Serif" font-size="10.00" fill="#000000">+ AddSpecialBonds()</text>
<text text-anchor="start" x="1226" y="-29.5" font-family="Helvetica,sans-Serif" font-size="10.00" fill="#000000">+ ~AddSpecialBonds()</text>
<text text-anchor="start" x="1226" y="-18.5" font-family="Helvetica,sans-Serif" font-size="10.00" fill="#000000"># compute_impl()</text>
</a>
</g>
</g>
<!-- Node0&#45;&gt;Node11 -->
<g id="edge11" class="edge">
<title>Node0&#45;&gt;Node11</title>
<path fill="none" stroke="#191970" d="M792.511,-195.7452C893.4691,-185.6967 1134.894,-158.7072 1208.5,-124 1215.1608,-120.8593 1221.6737,-116.907 1227.8849,-112.5255"/>
<polygon fill="none" stroke="#191970" points="791.9426,-192.2842 782.334,-196.748 792.629,-199.2505 791.9426,-192.2842"/>
</g>
<!-- Node12 -->
<g id="node13" class="node">
<title>Node12</title>
<g id="a_node13"><a xlink:href="classAddWrappedPosition.html" target="_top" xlink:title="AddWrappedPosition adds wrapped positions for an Element object. ">
<polygon fill="#ffffff" stroke="#000000" points="1359.5,-22.5 1359.5,-101.5 1487.5,-101.5 1487.5,-22.5 1359.5,-22.5"/>
<text text-anchor="middle" x="1423.5" y="-89.5" font-family="Helvetica,sans-Serif" font-size="10.00" fill="#000000">AddWrappedPosition</text>
<polyline fill="none" stroke="#000000" points="1359.5,-82.5 1487.5,-82.5 "/>
<text text-anchor="middle" x="1423.5" y="-70.5" font-family="Helvetica,sans-Serif" font-size="10.00" fill="#000000"> </text>
<polyline fill="none" stroke="#000000" points="1359.5,-63.5 1487.5,-63.5 "/>
<text text-anchor="start" x="1367.5" y="-51.5" font-family="Helvetica,sans-Serif" font-size="10.00" fill="#000000">+ AddWrappedPosition()</text>
<text text-anchor="start" x="1367.5" y="-40.5" font-family="Helvetica,sans-Serif" font-size="10.00" fill="#000000">+ ~AddWrappedPosition()</text>
<text text-anchor="start" x="1367.5" y="-29.5" font-family="Helvetica,sans-Serif" font-size="10.00" fill="#000000"># compute_impl()</text>
</a>
</g>
</g>
<!-- Node0&#45;&gt;Node12 -->
<g id="edge12" class="edge">
<title>Node0&#45;&gt;Node12</title>
<path fill="none" stroke="#191970" d="M792.2344,-197.6681C914.1752,-190.7931 1249.9787,-168.2568 1350.5,-124 1362.8266,-118.5729 1374.6611,-110.3731 1385.0807,-101.6986"/>
<polygon fill="none" stroke="#191970" points="791.9189,-194.1801 782.1284,-198.2294 792.3072,-201.1693 791.9189,-194.1801"/>
</g>
<!-- Node1 -->
<g id="node2" class="node">
<title>Node1</title>
<g id="a_node2"><a xlink:href="classUpdater.html" target="_top" xlink:title="Updater is an abstract class to update data held by an Element object. ">
<polygon fill="#ffffff" stroke="#000000" points="682.5,-276.5 682.5,-421.5 812.5,-421.5 812.5,-276.5 682.5,-276.5"/>
<text text-anchor="middle" x="747.5" y="-409.5" font-family="Helvetica,sans-Serif" font-size="10.00" fill="#000000">Updater</text>
<polyline fill="none" stroke="#000000" points="682.5,-402.5 812.5,-402.5 "/>
<text text-anchor="start" x="690.5" y="-390.5" font-family="Helvetica,sans-Serif" font-size="10.00" fill="#000000"># ext_generator</text>
<text text-anchor="start" x="690.5" y="-379.5" font-family="Helvetica,sans-Serif" font-size="10.00" fill="#000000">&#45; dataid_blacklist</text>
<text text-anchor="start" x="690.5" y="-368.5" font-family="Helvetica,sans-Serif" font-size="10.00" fill="#000000">&#45; omp_lock</text>
<polyline fill="none" stroke="#000000" points="682.5,-361.5 812.5,-361.5 "/>
<text text-anchor="start" x="690.5" y="-349.5" font-family="Helvetica,sans-Serif" font-size="10.00" fill="#000000">+ Updater()</text>
<text text-anchor="start" x="690.5" y="-338.5" font-family="Helvetica,sans-Serif" font-size="10.00" fill="#000000">+ ~Updater()</text>
<text text-anchor="start" x="690.5" y="-327.5" font-family="Helvetica,sans-Serif" font-size="10.00" fill="#000000">+ compute()</text>
<text text-anchor="start" x="690.5" y="-316.5" font-family="Helvetica,sans-Serif" font-size="10.00" fill="#000000">+ remove_from_blacklist()</text>
<text text-anchor="start" x="690.5" y="-305.5" font-family="Helvetica,sans-Serif" font-size="10.00" fill="#000000">+ get_ext_generator()</text>
<text text-anchor="start" x="690.5" y="-294.5" font-family="Helvetica,sans-Serif" font-size="10.00" fill="#000000"># compute_impl()</text>
<text text-anchor="start" x="690.5" y="-283.5" font-family="Helvetica,sans-Serif" font-size="10.00" fill="#000000"># check_blacklist()</text>
</a>
</g>
</g>
<!-- Node1&#45;&gt;Node0 -->
<g id="edge1" class="edge">
<title>Node1&#45;&gt;Node0</title>
<path fill="none" stroke="#191970" d="M747.5,-265.9585C747.5,-256.8854 747.5,-247.9835 747.5,-239.8008"/>
<polygon fill="none" stroke="#191970" points="744.0001,-266.2459 747.5,-276.246 751.0001,-266.246 744.0001,-266.2459"/>
</g>
</g>
</svg>
