<?xml version="1.0" encoding="UTF-8" standalone="no"?>
<!DOCTYPE svg PUBLIC "-//W3C//DTD SVG 1.1//EN"
 "http://www.w3.org/Graphics/SVG/1.1/DTD/svg11.dtd">
<!-- Generated by graphviz version 2.40.1 (20161225.0304)
 -->
<!-- Title: AddSpecialBonds::compute_impl Pages: 1 -->
<svg width="440pt" height="142pt"
 viewBox="0.00 0.00 440.00 142.00" xmlns="http://www.w3.org/2000/svg" xmlns:xlink="http://www.w3.org/1999/xlink">
<g id="graph0" class="graph" transform="scale(1 1) rotate(0) translate(4 138)">
<title>AddSpecialBonds::compute_impl</title>
<polygon fill="#ffffff" stroke="transparent" points="-4,4 -4,-138 436,-138 436,4 -4,4"/>
<!-- Node4 -->
<g id="node1" class="node">
<title>Node4</title>
<polygon fill="#bfbfbf" stroke="#000000" points="0,-57.5 0,-76.5 161,-76.5 161,-57.5 0,-57.5"/>
<text text-anchor="middle" x="80.5" y="-64.5" font-family="Helvetica,sans-Serif" font-size="10.00" fill="#000000">AddSpecialBonds::compute_impl</text>
</g>
<!-- Node5 -->
<g id="node2" class="node">
<title>Node5</title>
<g id="a_node2"><a xlink:href="classDataKeys.html#a83c539d93200a30f57d0d795c68ee5a2" target="_top" xlink:title="Check if this object has optional key(s). ">
<polygon fill="#ffffff" stroke="#000000" points="198,-114.5 198,-133.5 297,-133.5 297,-114.5 198,-114.5"/>
<text text-anchor="middle" x="247.5" y="-121.5" font-family="Helvetica,sans-Serif" font-size="10.00" fill="#000000">DataKeys::optional</text>
</a>
</g>
</g>
<!-- Node4&#45;&gt;Node5 -->
<g id="edge1" class="edge">
<title>Node4&#45;&gt;Node5</title>
<path fill="none" stroke="#191970" d="M108.452,-76.5405C136.2688,-86.0349 179.1378,-100.6668 209.9212,-111.1737"/>
<polygon fill="#191970" stroke="#191970" points="208.8622,-114.5105 219.4568,-114.4284 211.1234,-107.8857 208.8622,-114.5105"/>
</g>
<!-- Node6 -->
<g id="node3" class="node">
<title>Node6</title>
<g id="a_node3"><a xlink:href="namespaceutils.html#acee57b54806ee63ddaa30518fed90adb" target="_top" xlink:title="Raise (for Python) and throw (for C++) a runtime error. ">
<polygon fill="#ffffff" stroke="#000000" points="334,-57.5 334,-76.5 432,-76.5 432,-57.5 334,-57.5"/>
<text text-anchor="middle" x="383" y="-64.5" font-family="Helvetica,sans-Serif" font-size="10.00" fill="#000000">utils::runtime_error</text>
</a>
</g>
</g>
<!-- Node4&#45;&gt;Node6 -->
<g id="edge2" class="edge">
<title>Node4&#45;&gt;Node6</title>
<path fill="none" stroke="#191970" d="M161.1671,-67C212.2598,-67 277.2044,-67 323.596,-67"/>
<polygon fill="#191970" stroke="#191970" points="323.7895,-70.5001 333.7895,-67 323.7894,-63.5001 323.7895,-70.5001"/>
</g>
<!-- Node7 -->
<g id="node4" class="node">
<title>Node7</title>
<g id="a_node4"><a xlink:href="namespaceutils.html#aeabf3fc19efc71936f355f069d336b5a" target="_top" xlink:title="Create a Map object from values of selected property in an array Json object to corresponding index i...">
<polygon fill="#ffffff" stroke="#000000" points="197,-38.5 197,-57.5 298,-57.5 298,-38.5 197,-38.5"/>
<text text-anchor="middle" x="247.5" y="-45.5" font-family="Helvetica,sans-Serif" font-size="10.00" fill="#000000">utils::map_to_index</text>
</a>
</g>
</g>
<!-- Node4&#45;&gt;Node7 -->
<g id="edge3" class="edge">
<title>Node4&#45;&gt;Node7</title>
<path fill="none" stroke="#191970" d="M161.065,-57.8339C169.7225,-56.8489 178.4222,-55.8592 186.791,-54.907"/>
<polygon fill="#191970" stroke="#191970" points="187.2699,-58.3752 196.8101,-53.7671 186.4785,-51.4201 187.2699,-58.3752"/>
</g>
<!-- Node8 -->
<g id="node5" class="node">
<title>Node8</title>
<g id="a_node5"><a xlink:href="classDataKeys.html#a626d56b99861008c2a63580ed17b809d" target="_top" xlink:title="Add key(s) in an array to _keys. ">
<polygon fill="#ffffff" stroke="#000000" points="207,-.5 207,-19.5 288,-19.5 288,-.5 207,-.5"/>
<text text-anchor="middle" x="247.5" y="-7.5" font-family="Helvetica,sans-Serif" font-size="10.00" fill="#000000">DataKeys::add</text>
</a>
</g>
</g>
<!-- Node4&#45;&gt;Node8 -->
<g id="edge5" class="edge">
<title>Node4&#45;&gt;Node8</title>
<path fill="none" stroke="#191970" d="M108.452,-57.4595C136.2688,-47.9651 179.1378,-33.3332 209.9212,-22.8263"/>
<polygon fill="#191970" stroke="#191970" points="211.1234,-26.1143 219.4568,-19.5716 208.8622,-19.4895 211.1234,-26.1143"/>
</g>
<!-- Node7&#45;&gt;Node6 -->
<g id="edge4" class="edge">
<title>Node7&#45;&gt;Node6</title>
<path fill="none" stroke="#191970" d="M298.3407,-55.129C306.5624,-56.2818 315.1391,-57.4845 323.543,-58.6628"/>
<polygon fill="#191970" stroke="#191970" points="323.2834,-62.1606 333.6726,-60.0832 324.2555,-55.2284 323.2834,-62.1606"/>
</g>
</g>
</svg>
