<?xml version="1.0" encoding="UTF-8" standalone="no"?>
<!DOCTYPE svg PUBLIC "-//W3C//DTD SVG 1.1//EN"
 "http://www.w3.org/Graphics/SVG/1.1/DTD/svg11.dtd">
<!-- Generated by graphviz version 2.40.1 (20161225.0304)
 -->
<!-- Title: ProRadialDistributionFunctionWithDeformation::get_squared_gyration_radius_traj Pages: 1 -->
<svg width="483pt" height="50pt"
 viewBox="0.00 0.00 483.00 50.00" xmlns="http://www.w3.org/2000/svg" xmlns:xlink="http://www.w3.org/1999/xlink">
<g id="graph0" class="graph" transform="scale(1 1) rotate(0) translate(4 46)">
<title>ProRadialDistributionFunctionWithDeformation::get_squared_gyration_radius_traj</title>
<polygon fill="#ffffff" stroke="transparent" points="-4,4 -4,-46 479,-46 479,4 -4,4"/>
<!-- Node18 -->
<g id="node1" class="node">
<title>Node18</title>
<polygon fill="#bfbfbf" stroke="#000000" points="0,-.5 0,-41.5 148,-41.5 148,-.5 0,-.5"/>
<text text-anchor="start" x="8" y="-29.5" font-family="Helvetica,sans-Serif" font-size="10.00" fill="#000000">ProRadialDistributionFunction</text>
<text text-anchor="start" x="8" y="-18.5" font-family="Helvetica,sans-Serif" font-size="10.00" fill="#000000">WithDeformation::get_squared</text>
<text text-anchor="middle" x="74" y="-7.5" font-family="Helvetica,sans-Serif" font-size="10.00" fill="#000000">_gyration_radius_traj</text>
</g>
<!-- Node19 -->
<g id="node2" class="node">
<title>Node19</title>
<g id="a_node2"><a xlink:href="pybind_2processors_2pro__radial__distribution__function__with__deformation_8h.html#abc91b46a8a2cbba6a43f7fff9aaa3fab" target="_top" xlink:title="pybind_pro_radial_distribution\l_function_with_deformation">
<polygon fill="#ffffff" stroke="#000000" points="184,-6 184,-36 329,-36 329,-6 184,-6"/>
<text text-anchor="start" x="192" y="-24" font-family="Helvetica,sans-Serif" font-size="10.00" fill="#000000">pybind_pro_radial_distribution</text>
<text text-anchor="middle" x="256.5" y="-13" font-family="Helvetica,sans-Serif" font-size="10.00" fill="#000000">_function_with_deformation</text>
</a>
</g>
</g>
<!-- Node18&#45;&gt;Node19 -->
<g id="edge1" class="edge">
<title>Node18&#45;&gt;Node19</title>
<path fill="none" stroke="#191970" d="M158.4915,-21C166.9521,-21 175.4906,-21 183.814,-21"/>
<polygon fill="#191970" stroke="#191970" points="158.2298,-17.5001 148.2297,-21 158.2297,-24.5001 158.2298,-17.5001"/>
</g>
<!-- Node20 -->
<g id="node3" class="node">
<title>Node20</title>
<g id="a_node3"><a xlink:href="pybind_8h.html#a4714c4a855ebb82892410d5254e9ccdc" target="_top" xlink:title="PYBIND11_MODULE">
<polygon fill="#ffffff" stroke="#000000" points="365,-11.5 365,-30.5 475,-30.5 475,-11.5 365,-11.5"/>
<text text-anchor="middle" x="420" y="-18.5" font-family="Helvetica,sans-Serif" font-size="10.00" fill="#000000">PYBIND11_MODULE</text>
</a>
</g>
</g>
<!-- Node19&#45;&gt;Node20 -->
<g id="edge2" class="edge">
<title>Node19&#45;&gt;Node20</title>
<path fill="none" stroke="#191970" d="M339.2792,-21C347.9081,-21 356.5217,-21 364.7354,-21"/>
<polygon fill="#191970" stroke="#191970" points="339.1657,-17.5001 329.1656,-21 339.1656,-24.5001 339.1657,-17.5001"/>
</g>
</g>
</svg>
