<?xml version="1.0" encoding="UTF-8" standalone="no"?>
<!DOCTYPE svg PUBLIC "-//W3C//DTD SVG 1.1//EN"
 "http://www.w3.org/Graphics/SVG/1.1/DTD/svg11.dtd">
<!-- Generated by graphviz version 2.40.1 (20161225.0304)
 -->
<!-- Title: Element::get_key_advances Pages: 1 -->
<!--zoomable 142 -->
<svg id="main" version="1.1" xmlns="http://www.w3.org/2000/svg" xmlns:xlink="http://www.w3.org/1999/xlink" xml:space="preserve" onload="init(evt)">
<style type="text/css"><![CDATA[
.edge:hover path { stroke: red; }
.edge:hover polygon { stroke: red; fill: red; }
]]></style>
<script type="text/javascript"><![CDATA[
var edges = document.getElementsByTagName('g');
if (edges && edges.length) {
  for (var i=0;i<edges.length;i++) {
    if (edges[i].id.substr(0,4)=='edge') {
      edges[i].setAttribute('class','edge');
    }
  }
}
]]></script>
        <defs>
                <circle id="rim" cx="0" cy="0" r="7"/>
                <circle id="rim2" cx="0" cy="0" r="3.5"/>
                <g id="zoomPlus">
                        <use xlink:href="#rim" fill="#404040">
                                <set attributeName="fill" to="#808080" begin="zoomplus.mouseover" end="zoomplus.mouseout"/>
                        </use>
                        <path d="M-4,0h8M0,-4v8" fill="none" stroke="white" stroke-width="1.5" pointer-events="none"/>
                </g>
                <g id="zoomMin">
                        <use xlink:href="#rim" fill="#404040">
                                <set attributeName="fill" to="#808080" begin="zoomminus.mouseover" end="zoomminus.mouseout"/>
                        </use>
                        <path d="M-4,0h8" fill="none" stroke="white" stroke-width="1.5" pointer-events="none"/>
                </g>
                <g id="dirArrow">
                        <path fill="none" stroke="white" stroke-width="1.5" d="M0,-3.0v7 M-2.5,-0.5L0,-3.0L2.5,-0.5"/>
                </g>
               <g id="resetDef">
                       <use xlink:href="#rim2" fill="#404040">
                               <set attributeName="fill" to="#808080" begin="reset.mouseover" end="reset.mouseout"/>
                       </use>
               </g>
        </defs>

<script type="text/javascript">
var viewWidth = 726;
var viewHeight = 142;
var sectionId = 'dynsection-22';
</script>
<script xlink:href="svgpan.js"/>
<svg id="graph" class="graph">
<g id="viewport">
<title>Element::get_key_advances</title>
<polygon fill="#ffffff" stroke="transparent" points="-4,4 -4,-138 722,-138 722,4 -4,4"/>
<!-- Node96 -->
<g id="node1" class="node">
<title>Node96</title>
<polygon fill="#bfbfbf" stroke="#000000" points="0,-76.5 0,-95.5 140,-95.5 140,-76.5 0,-76.5"/>
<text text-anchor="middle" x="70" y="-83.5" font-family="Helvetica,sans-Serif" font-size="10.00" fill="#000000">Element::get_key_advances</text>
</g>
<!-- Node97 -->
<g id="node2" class="node">
<title>Node97</title>
<g id="a_node2"><a xlink:href="classElement.html#a8abd22fef0addd42f39585f66988be5d" target="_top" xlink:title="Get the partial data of this object. ">
<polygon fill="#ffffff" stroke="#000000" points="176,-114.5 176,-133.5 271,-133.5 271,-114.5 176,-114.5"/>
<text text-anchor="middle" x="223.5" y="-121.5" font-family="Helvetica,sans-Serif" font-size="10.00" fill="#000000">Element::get_json</text>
</a>
</g>
</g>
<!-- Node96&#45;&gt;Node97 -->
<g id="edge1" class="edge">
<title>Node96&#45;&gt;Node97</title>
<path fill="none" stroke="#191970" d="M118.6352,-98.04C140.0799,-103.3488 164.9226,-109.4988 185.044,-114.4799"/>
<polygon fill="#191970" stroke="#191970" points="119.2826,-94.5947 108.7345,-95.589 117.6004,-101.3896 119.2826,-94.5947"/>
</g>
<!-- Node98 -->
<g id="node3" class="node">
<title>Node98</title>
<g id="a_node3"><a xlink:href="classElement.html#a576395d61902a76979ffd336afa714b3" target="_top" xlink:title="Extract values of a property in data as a one&#45;dimensional Eigen&#45;Array. ">
<polygon fill="#ffffff" stroke="#000000" points="178,-76.5 178,-95.5 269,-95.5 269,-76.5 178,-76.5"/>
<text text-anchor="middle" x="223.5" y="-83.5" font-family="Helvetica,sans-Serif" font-size="10.00" fill="#000000">Element::array1d</text>
</a>
</g>
</g>
<!-- Node96&#45;&gt;Node98 -->
<g id="edge2" class="edge">
<title>Node96&#45;&gt;Node98</title>
<path fill="none" stroke="#191970" d="M150.246,-86C159.6766,-86 169.0367,-86 177.7551,-86"/>
<polygon fill="#191970" stroke="#191970" points="150.0121,-82.5001 140.0121,-86 150.0121,-89.5001 150.0121,-82.5001"/>
</g>
<!-- Node103 -->
<g id="node8" class="node">
<title>Node103</title>
<g id="a_node8"><a xlink:href="classElement.html#a4c2fcdb60e23dedce2b54b9deeadc469" target="_top" xlink:title="Extract values of properties in data as a two&#45;dimensional Eigen&#45;Array. ">
<polygon fill="#ffffff" stroke="#000000" points="178,-38.5 178,-57.5 269,-57.5 269,-38.5 178,-38.5"/>
<text text-anchor="middle" x="223.5" y="-45.5" font-family="Helvetica,sans-Serif" font-size="10.00" fill="#000000">Element::array2d</text>
</a>
</g>
</g>
<!-- Node96&#45;&gt;Node103 -->
<g id="edge8" class="edge">
<title>Node96&#45;&gt;Node103</title>
<path fill="none" stroke="#191970" d="M118.6352,-73.96C140.0799,-68.6512 164.9226,-62.5012 185.044,-57.5201"/>
<polygon fill="#191970" stroke="#191970" points="117.6004,-70.6104 108.7345,-76.411 119.2826,-77.4053 117.6004,-70.6104"/>
</g>
<!-- Node99 -->
<g id="node4" class="node">
<title>Node99</title>
<g id="a_node4"><a xlink:href="classElement.html#a8257b02b1e3b208f193b35d5d47b9af8" target="_top" xlink:title="Get integer values stored in Element::data of this object as a one&#45;dimensional Numpy&#45;Array. ">
<polygon fill="#ffffff" stroke="#000000" points="311.5,-114.5 311.5,-133.5 430.5,-133.5 430.5,-114.5 311.5,-114.5"/>
<text text-anchor="middle" x="371" y="-121.5" font-family="Helvetica,sans-Serif" font-size="10.00" fill="#000000">Element::get_1d_int_py</text>
</a>
</g>
</g>
<!-- Node98&#45;&gt;Node99 -->
<g id="edge3" class="edge">
<title>Node98&#45;&gt;Node99</title>
<path fill="none" stroke="#191970" d="M270.5141,-98.1121C291.0566,-103.4044 314.7998,-109.5213 334.0472,-114.4799"/>
<polygon fill="#191970" stroke="#191970" points="271.2775,-94.6946 260.7205,-95.589 269.5311,-101.4732 271.2775,-94.6946"/>
</g>
<!-- Node102 -->
<g id="node7" class="node">
<title>Node102</title>
<g id="a_node7"><a xlink:href="classElement.html#a3f11848589faad4cbca8119385887713" target="_top" xlink:title="Get float values stored in Element::data of this object as a one&#45;dimensional Numpy&#45;Array. ">
<polygon fill="#ffffff" stroke="#000000" points="307,-76.5 307,-95.5 435,-95.5 435,-76.5 307,-76.5"/>
<text text-anchor="middle" x="371" y="-83.5" font-family="Helvetica,sans-Serif" font-size="10.00" fill="#000000">Element::get_1d_float_py</text>
</a>
</g>
</g>
<!-- Node98&#45;&gt;Node102 -->
<g id="edge6" class="edge">
<title>Node98&#45;&gt;Node102</title>
<path fill="none" stroke="#191970" d="M279.5845,-86C288.4635,-86 297.7056,-86 306.7535,-86"/>
<polygon fill="#191970" stroke="#191970" points="279.3614,-82.5001 269.3614,-86 279.3614,-89.5001 279.3614,-82.5001"/>
</g>
<!-- Node100 -->
<g id="node5" class="node">
<title>Node100</title>
<g id="a_node5"><a xlink:href="namespacepybind.html#aa960fe0db10e19d7b7b60784a7e81be0" target="_top" xlink:title="Bind Element class to Python. ">
<polygon fill="#ffffff" stroke="#000000" points="471,-57.5 471,-76.5 572,-76.5 572,-57.5 471,-57.5"/>
<text text-anchor="middle" x="521.5" y="-64.5" font-family="Helvetica,sans-Serif" font-size="10.00" fill="#000000">pybind::py_element</text>
</a>
</g>
</g>
<!-- Node99&#45;&gt;Node100 -->
<g id="edge4" class="edge">
<title>Node99&#45;&gt;Node100</title>
<path fill="none" stroke="#191970" d="M416.0686,-111.3954C422.4658,-109.3818 428.9295,-107.2246 435,-105 458.2556,-96.4779 484.1716,-84.7884 501.5185,-76.6331"/>
<polygon fill="#191970" stroke="#191970" points="414.6771,-108.1607 406.1364,-114.4304 416.7228,-114.8552 414.6771,-108.1607"/>
</g>
<!-- Node101 -->
<g id="node6" class="node">
<title>Node101</title>
<g id="a_node6"><a xlink:href="pybind_8h.html#a4714c4a855ebb82892410d5254e9ccdc" target="_top" xlink:title="Macro for generating Python module named _ppap4lmp. ">
<polygon fill="#ffffff" stroke="#000000" points="608,-57.5 608,-76.5 718,-76.5 718,-57.5 608,-57.5"/>
<text text-anchor="middle" x="663" y="-64.5" font-family="Helvetica,sans-Serif" font-size="10.00" fill="#000000">PYBIND11_MODULE</text>
</a>
</g>
</g>
<!-- Node100&#45;&gt;Node101 -->
<g id="edge5" class="edge">
<title>Node100&#45;&gt;Node101</title>
<path fill="none" stroke="#191970" d="M582.3877,-67C590.8576,-67 599.5199,-67 607.8761,-67"/>
<polygon fill="#191970" stroke="#191970" points="582.1851,-63.5001 572.1851,-67 582.185,-70.5001 582.1851,-63.5001"/>
</g>
<!-- Node102&#45;&gt;Node100 -->
<g id="edge7" class="edge">
<title>Node102&#45;&gt;Node100</title>
<path fill="none" stroke="#191970" d="M445.2998,-76.62C453.8797,-75.5368 462.4761,-74.4515 470.6427,-73.4205"/>
<polygon fill="#191970" stroke="#191970" points="444.7449,-73.1621 435.2621,-77.8872 445.6218,-80.107 444.7449,-73.1621"/>
</g>
<!-- Node104 -->
<g id="node9" class="node">
<title>Node104</title>
<g id="a_node9"><a xlink:href="classElement.html#a8e8245fb94b6417e3e804e6bfdf2f906" target="_top" xlink:title="Get integer values stored in Element::data of this object as a two&#45;dimensional Numpy&#45;Array. ">
<polygon fill="#ffffff" stroke="#000000" points="311.5,-38.5 311.5,-57.5 430.5,-57.5 430.5,-38.5 311.5,-38.5"/>
<text text-anchor="middle" x="371" y="-45.5" font-family="Helvetica,sans-Serif" font-size="10.00" fill="#000000">Element::get_2d_int_py</text>
</a>
</g>
</g>
<!-- Node103&#45;&gt;Node104 -->
<g id="edge9" class="edge">
<title>Node103&#45;&gt;Node104</title>
<path fill="none" stroke="#191970" d="M279.5514,-48C289.9405,-48 300.8276,-48 311.32,-48"/>
<polygon fill="#191970" stroke="#191970" points="279.3614,-44.5001 269.3614,-48 279.3614,-51.5001 279.3614,-44.5001"/>
</g>
<!-- Node105 -->
<g id="node10" class="node">
<title>Node105</title>
<g id="a_node10"><a xlink:href="classElement.html#a6a62280eadd3d4e6bfe8c43082797733" target="_top" xlink:title="Get float values stored in Element::data of this object as a two&#45;dimensional Numpy&#45;Array. ">
<polygon fill="#ffffff" stroke="#000000" points="307,-.5 307,-19.5 435,-19.5 435,-.5 307,-.5"/>
<text text-anchor="middle" x="371" y="-7.5" font-family="Helvetica,sans-Serif" font-size="10.00" fill="#000000">Element::get_2d_float_py</text>
</a>
</g>
</g>
<!-- Node103&#45;&gt;Node105 -->
<g id="edge11" class="edge">
<title>Node103&#45;&gt;Node105</title>
<path fill="none" stroke="#191970" d="M270.5141,-35.8879C291.0566,-30.5956 314.7998,-24.4787 334.0472,-19.5201"/>
<polygon fill="#191970" stroke="#191970" points="269.5311,-32.5268 260.7205,-38.411 271.2775,-39.3054 269.5311,-32.5268"/>
</g>
<!-- Node104&#45;&gt;Node100 -->
<g id="edge10" class="edge">
<title>Node104&#45;&gt;Node100</title>
<path fill="none" stroke="#191970" d="M440.971,-56.8336C451.0981,-58.1121 461.3533,-59.4067 470.9981,-60.6243"/>
<polygon fill="#191970" stroke="#191970" points="441.2737,-53.3441 430.914,-55.5639 440.3969,-60.2889 441.2737,-53.3441"/>
</g>
<!-- Node105&#45;&gt;Node100 -->
<g id="edge12" class="edge">
<title>Node105&#45;&gt;Node100</title>
<path fill="none" stroke="#191970" d="M416.0686,-22.6046C422.4658,-24.6182 428.9295,-26.7754 435,-29 458.2556,-37.5221 484.1716,-49.2116 501.5185,-57.3669"/>
<polygon fill="#191970" stroke="#191970" points="416.7228,-19.1448 406.1364,-19.5696 414.6771,-25.8393 416.7228,-19.1448"/>
</g>
</g>
</svg>
        <g id="navigator" transform="translate(0 0)" fill="#404254">
                <rect fill="#f2f5e9" fill-opacity="0.5" stroke="#606060" stroke-width=".5" x="0" y="0" width="60" height="60"/>
                <use id="zoomplus" xlink:href="#zoomPlus" x="17" y="9" onmousedown="handleZoom(evt,'in')"/>
                <use id="zoomminus" xlink:href="#zoomMin" x="42" y="9" onmousedown="handleZoom(evt,'out')"/>
                <use id="reset" xlink:href="#resetDef" x="30" y="36" onmousedown="handleReset()"/>
                <g id="arrowUp" xlink:href="#dirArrow" transform="translate(30 24)" onmousedown="handlePan(0,-1)">
                  <use xlink:href="#rim" fill="#404040">
                        <set attributeName="fill" to="#808080" begin="arrowUp.mouseover" end="arrowUp.mouseout"/>
                  </use>
                  <path fill="none" stroke="white" stroke-width="1.5" d="M0,-3.0v7 M-2.5,-0.5L0,-3.0L2.5,-0.5"/>
                </g>
                <g id="arrowRight" xlink:href="#dirArrow" transform="rotate(90) translate(36 -43)" onmousedown="handlePan(1,0)">
                  <use xlink:href="#rim" fill="#404040">
                        <set attributeName="fill" to="#808080" begin="arrowRight.mouseover" end="arrowRight.mouseout"/>
                  </use>
                  <path fill="none" stroke="white" stroke-width="1.5" d="M0,-3.0v7 M-2.5,-0.5L0,-3.0L2.5,-0.5"/>
                </g>
                <g id="arrowDown" xlink:href="#dirArrow" transform="rotate(180) translate(-30 -48)" onmousedown="handlePan(0,1)">
                  <use xlink:href="#rim" fill="#404040">
                        <set attributeName="fill" to="#808080" begin="arrowDown.mouseover" end="arrowDown.mouseout"/>
                  </use>
                  <path fill="none" stroke="white" stroke-width="1.5" d="M0,-3.0v7 M-2.5,-0.5L0,-3.0L2.5,-0.5"/>
                </g>
                <g id="arrowLeft" xlink:href="#dirArrow" transform="rotate(270) translate(-36 17)" onmousedown="handlePan(-1,0)">
                  <use xlink:href="#rim" fill="#404040">
                        <set attributeName="fill" to="#808080" begin="arrowLeft.mouseover" end="arrowLeft.mouseout"/>
                  </use>
                  <path fill="none" stroke="white" stroke-width="1.5" d="M0,-3.0v7 M-2.5,-0.5L0,-3.0L2.5,-0.5"/>
                </g>
        </g>
        <svg viewBox="0 0 15 15" width="100%" height="30px" preserveAspectRatio="xMaxYMin meet">
         <g id="arrow_out" transform="scale(0.3 0.3)">
          <a xlink:href="classElement_ae8b7e5c98427ea9d4994b4f8dc923ac1_icgraph_org.svg" target="_base">
           <rect id="button" ry="5" rx="5" y="6" x="6" height="38" width="38"
                fill="#f2f5e9" fill-opacity="0.5" stroke="#606060" stroke-width="1.0"/>
           <path id="arrow"
             d="M 11.500037,31.436501 C 11.940474,20.09759 22.043105,11.32322 32.158766,21.979434 L 37.068811,17.246167 C 37.068811,17.246167 37.088388,32 37.088388,32 L 22.160133,31.978069 C 22.160133,31.978069 26.997745,27.140456 26.997745,27.140456 C 18.528582,18.264221 13.291696,25.230495 11.500037,31.436501 z"
             style="fill:#404040;"/>
          </a>
         </g>
        </svg>
</svg>
