<?xml version="1.0" encoding="UTF-8" standalone="no"?>
<!DOCTYPE svg PUBLIC "-//W3C//DTD SVG 1.1//EN"
 "http://www.w3.org/Graphics/SVG/1.1/DTD/svg11.dtd">
<!-- Generated by graphviz version 2.40.1 (20161225.0304)
 -->
<!-- Title: Starter Pages: 1 -->
<svg width="571pt" height="590pt"
 viewBox="0.00 0.00 571.00 590.00" xmlns="http://www.w3.org/2000/svg" xmlns:xlink="http://www.w3.org/1999/xlink">
<g id="graph0" class="graph" transform="scale(1 1) rotate(0) translate(4 586)">
<title>Starter</title>
<polygon fill="#ffffff" stroke="transparent" points="-4,4 -4,-586 567,-586 567,4 -4,4"/>
<!-- Node0 -->
<g id="node1" class="node">
<title>Node0</title>
<polygon fill="#bfbfbf" stroke="#000000" points="268.5,-265.5 268.5,-355.5 342.5,-355.5 342.5,-265.5 268.5,-265.5"/>
<text text-anchor="middle" x="305.5" y="-343.5" font-family="Helvetica,sans-Serif" font-size="10.00" fill="#000000">Starter</text>
<polyline fill="none" stroke="#000000" points="268.5,-336.5 342.5,-336.5 "/>
<text text-anchor="middle" x="305.5" y="-324.5" font-family="Helvetica,sans-Serif" font-size="10.00" fill="#000000"> </text>
<polyline fill="none" stroke="#000000" points="268.5,-317.5 342.5,-317.5 "/>
<text text-anchor="start" x="276.5" y="-305.5" font-family="Helvetica,sans-Serif" font-size="10.00" fill="#000000">+ ~Starter()</text>
<text text-anchor="start" x="276.5" y="-294.5" font-family="Helvetica,sans-Serif" font-size="10.00" fill="#000000">+ compute()</text>
<text text-anchor="start" x="276.5" y="-283.5" font-family="Helvetica,sans-Serif" font-size="10.00" fill="#000000">+ Updater()</text>
<text text-anchor="start" x="276.5" y="-272.5" font-family="Helvetica,sans-Serif" font-size="10.00" fill="#000000">&#45; sort_by_id()</text>
</g>
<!-- Node2 -->
<g id="node3" class="node">
<title>Node2</title>
<g id="a_node3"><a xlink:href="classStaBeads.html" target="_top" xlink:title="StaBeads sets properties for beads using mapping (coarse&#45;graining) scheme for each molecule...">
<polygon fill="#ffffff" stroke="#000000" points="0,-116.5 0,-228.5 131,-228.5 131,-116.5 0,-116.5"/>
<text text-anchor="middle" x="65.5" y="-216.5" font-family="Helvetica,sans-Serif" font-size="10.00" fill="#000000">StaBeads</text>
<polyline fill="none" stroke="#000000" points="0,-209.5 131,-209.5 "/>
<text text-anchor="start" x="8" y="-197.5" font-family="Helvetica,sans-Serif" font-size="10.00" fill="#000000">&#45; mol_type_to_abst_beads</text>
<polyline fill="none" stroke="#000000" points="0,-190.5 131,-190.5 "/>
<text text-anchor="start" x="8" y="-178.5" font-family="Helvetica,sans-Serif" font-size="10.00" fill="#000000">+ StaBeads()</text>
<text text-anchor="start" x="8" y="-167.5" font-family="Helvetica,sans-Serif" font-size="10.00" fill="#000000">+ StaBeads()</text>
<text text-anchor="start" x="8" y="-156.5" font-family="Helvetica,sans-Serif" font-size="10.00" fill="#000000">+ ~StaBeads()</text>
<text text-anchor="start" x="8" y="-145.5" font-family="Helvetica,sans-Serif" font-size="10.00" fill="#000000"># compute_impl()</text>
<text text-anchor="start" x="8" y="-134.5" font-family="Helvetica,sans-Serif" font-size="10.00" fill="#000000">&#45; check_mol_type_to_abst</text>
<text text-anchor="start" x="8" y="-123.5" font-family="Helvetica,sans-Serif" font-size="10.00" fill="#000000">_beads()</text>
</a>
</g>
</g>
<!-- Node0&#45;&gt;Node2 -->
<g id="edge2" class="edge">
<title>Node0&#45;&gt;Node2</title>
<path fill="none" stroke="#191970" d="M259.2309,-290.4635C225.4577,-275.1704 179.0383,-252.7453 140.5,-229 137.4466,-227.1186 134.3641,-225.1434 131.2801,-223.1043"/>
<polygon fill="none" stroke="#191970" points="257.8481,-293.6792 268.4043,-294.583 260.7158,-287.2935 257.8481,-293.6792"/>
</g>
<!-- Node3 -->
<g id="node4" class="node">
<title>Node3</title>
<g id="a_node4"><a xlink:href="classStaCopy.html" target="_top" xlink:title="StaCopy copies Element::data of an existing Element object and sets it to a new Element object...">
<polygon fill="#ffffff" stroke="#000000" points="149.5,-127.5 149.5,-217.5 241.5,-217.5 241.5,-127.5 149.5,-127.5"/>
<text text-anchor="middle" x="195.5" y="-205.5" font-family="Helvetica,sans-Serif" font-size="10.00" fill="#000000">StaCopy</text>
<polyline fill="none" stroke="#000000" points="149.5,-198.5 241.5,-198.5 "/>
<text text-anchor="middle" x="195.5" y="-186.5" font-family="Helvetica,sans-Serif" font-size="10.00" fill="#000000"> </text>
<polyline fill="none" stroke="#000000" points="149.5,-179.5 241.5,-179.5 "/>
<text text-anchor="start" x="157.5" y="-167.5" font-family="Helvetica,sans-Serif" font-size="10.00" fill="#000000">+ StaCopy()</text>
<text text-anchor="start" x="157.5" y="-156.5" font-family="Helvetica,sans-Serif" font-size="10.00" fill="#000000">+ ~StaCopy()</text>
<text text-anchor="start" x="157.5" y="-145.5" font-family="Helvetica,sans-Serif" font-size="10.00" fill="#000000">+ compute()</text>
<text text-anchor="start" x="157.5" y="-134.5" font-family="Helvetica,sans-Serif" font-size="10.00" fill="#000000"># compute_impl()</text>
</a>
</g>
</g>
<!-- Node0&#45;&gt;Node3 -->
<g id="edge3" class="edge">
<title>Node0&#45;&gt;Node3</title>
<path fill="none" stroke="#191970" d="M263.1035,-257.3117C252.7047,-244.2658 241.6705,-230.423 231.599,-217.7879"/>
<polygon fill="none" stroke="#191970" points="260.5118,-259.6755 269.4819,-265.3136 265.9856,-255.3123 260.5118,-259.6755"/>
</g>
<!-- Node4 -->
<g id="node5" class="node">
<title>Node4</title>
<g id="a_node5"><a xlink:href="classStaCustom.html" target="_top" xlink:title="StaCustom sets an user&#45;defined Json object to a new Element object as its Element::data. ">
<polygon fill="#ffffff" stroke="#000000" points="259.5,-133 259.5,-212 351.5,-212 351.5,-133 259.5,-133"/>
<text text-anchor="middle" x="305.5" y="-200" font-family="Helvetica,sans-Serif" font-size="10.00" fill="#000000">StaCustom</text>
<polyline fill="none" stroke="#000000" points="259.5,-193 351.5,-193 "/>
<text text-anchor="start" x="267.5" y="-181" font-family="Helvetica,sans-Serif" font-size="10.00" fill="#000000">&#45; json</text>
<polyline fill="none" stroke="#000000" points="259.5,-174 351.5,-174 "/>
<text text-anchor="start" x="267.5" y="-162" font-family="Helvetica,sans-Serif" font-size="10.00" fill="#000000">+ StaCustom()</text>
<text text-anchor="start" x="267.5" y="-151" font-family="Helvetica,sans-Serif" font-size="10.00" fill="#000000">+ ~StaCustom()</text>
<text text-anchor="start" x="267.5" y="-140" font-family="Helvetica,sans-Serif" font-size="10.00" fill="#000000"># compute_impl()</text>
</a>
</g>
</g>
<!-- Node0&#45;&gt;Node4 -->
<g id="edge4" class="edge">
<title>Node0&#45;&gt;Node4</title>
<path fill="none" stroke="#191970" d="M305.5,-255.0546C305.5,-240.7169 305.5,-225.5664 305.5,-212.2128"/>
<polygon fill="none" stroke="#191970" points="302.0001,-255.3136 305.5,-265.3136 309.0001,-255.3137 302.0001,-255.3136"/>
</g>
<!-- Node5 -->
<g id="node6" class="node">
<title>Node5</title>
<g id="a_node6"><a xlink:href="classStaDump.html" target="_top" xlink:title="StaDump is an abstract class whose subclasses read a Lammps&#39; dump file. ">
<polygon fill="#ffffff" stroke="#000000" points="369.5,-133 369.5,-212 447.5,-212 447.5,-133 369.5,-133"/>
<text text-anchor="middle" x="408.5" y="-200" font-family="Helvetica,sans-Serif" font-size="10.00" fill="#000000">StaDump</text>
<polyline fill="none" stroke="#000000" points="369.5,-193 447.5,-193 "/>
<text text-anchor="start" x="377.5" y="-181" font-family="Helvetica,sans-Serif" font-size="10.00" fill="#000000"># timestep</text>
<text text-anchor="start" x="377.5" y="-170" font-family="Helvetica,sans-Serif" font-size="10.00" fill="#000000"># filepath</text>
<polyline fill="none" stroke="#000000" points="369.5,-163 447.5,-163 "/>
<text text-anchor="start" x="377.5" y="-151" font-family="Helvetica,sans-Serif" font-size="10.00" fill="#000000">+ StaDump()</text>
<text text-anchor="start" x="377.5" y="-140" font-family="Helvetica,sans-Serif" font-size="10.00" fill="#000000">+ ~StaDump()</text>
</a>
</g>
</g>
<!-- Node0&#45;&gt;Node5 -->
<g id="edge5" class="edge">
<title>Node0&#45;&gt;Node5</title>
<path fill="none" stroke="#191970" d="M345.3293,-257.1365C356.4835,-242.1921 368.4086,-226.2146 378.8593,-212.2128"/>
<polygon fill="none" stroke="#191970" points="342.4026,-255.2062 339.2261,-265.3136 348.0124,-259.3932 342.4026,-255.2062"/>
</g>
<!-- Node8 -->
<g id="node9" class="node">
<title>Node8</title>
<g id="a_node9"><a xlink:href="classStaMolecules.html" target="_top" xlink:title="StaMolecules sets properties for molecules using atoms forming the molecules. ">
<polygon fill="#ffffff" stroke="#000000" points="466,-133 466,-212 563,-212 563,-133 466,-133"/>
<text text-anchor="middle" x="514.5" y="-200" font-family="Helvetica,sans-Serif" font-size="10.00" fill="#000000">StaMolecules</text>
<polyline fill="none" stroke="#000000" points="466,-193 563,-193 "/>
<text text-anchor="middle" x="514.5" y="-181" font-family="Helvetica,sans-Serif" font-size="10.00" fill="#000000"> </text>
<polyline fill="none" stroke="#000000" points="466,-174 563,-174 "/>
<text text-anchor="start" x="474" y="-162" font-family="Helvetica,sans-Serif" font-size="10.00" fill="#000000">+ StaMolecules()</text>
<text text-anchor="start" x="474" y="-151" font-family="Helvetica,sans-Serif" font-size="10.00" fill="#000000">+ ~StaMolecules()</text>
<text text-anchor="start" x="474" y="-140" font-family="Helvetica,sans-Serif" font-size="10.00" fill="#000000"># compute_impl()</text>
</a>
</g>
</g>
<!-- Node0&#45;&gt;Node8 -->
<g id="edge8" class="edge">
<title>Node0&#45;&gt;Node8</title>
<path fill="none" stroke="#191970" d="M351.8353,-289.6534C382.7704,-274.756 423.6472,-253.1358 456.5,-229 463.4106,-223.9231 470.3209,-218.0577 476.8388,-212.0678"/>
<polygon fill="none" stroke="#191970" points="350.1025,-286.6017 342.5739,-294.0562 353.108,-292.9237 350.1025,-286.6017"/>
</g>
<!-- Node1 -->
<g id="node2" class="node">
<title>Node1</title>
<g id="a_node2"><a xlink:href="classUpdater.html" target="_top" xlink:title="Updater is an abstract class to update data held by an Element object. ">
<polygon fill="#ffffff" stroke="#000000" points="240.5,-392.5 240.5,-581.5 370.5,-581.5 370.5,-392.5 240.5,-392.5"/>
<text text-anchor="middle" x="305.5" y="-569.5" font-family="Helvetica,sans-Serif" font-size="10.00" fill="#000000">Updater</text>
<polyline fill="none" stroke="#000000" points="240.5,-562.5 370.5,-562.5 "/>
<text text-anchor="start" x="248.5" y="-550.5" font-family="Helvetica,sans-Serif" font-size="10.00" fill="#000000"># ext_generator</text>
<text text-anchor="start" x="248.5" y="-539.5" font-family="Helvetica,sans-Serif" font-size="10.00" fill="#000000"># required_keys</text>
<text text-anchor="start" x="248.5" y="-528.5" font-family="Helvetica,sans-Serif" font-size="10.00" fill="#000000"># optional_keys</text>
<text text-anchor="start" x="248.5" y="-517.5" font-family="Helvetica,sans-Serif" font-size="10.00" fill="#000000">&#45; dataid_blacklist</text>
<text text-anchor="start" x="248.5" y="-506.5" font-family="Helvetica,sans-Serif" font-size="10.00" fill="#000000">&#45; omp_lock</text>
<polyline fill="none" stroke="#000000" points="240.5,-499.5 370.5,-499.5 "/>
<text text-anchor="start" x="248.5" y="-487.5" font-family="Helvetica,sans-Serif" font-size="10.00" fill="#000000">+ Updater()</text>
<text text-anchor="start" x="248.5" y="-476.5" font-family="Helvetica,sans-Serif" font-size="10.00" fill="#000000">+ ~Updater()</text>
<text text-anchor="start" x="248.5" y="-465.5" font-family="Helvetica,sans-Serif" font-size="10.00" fill="#000000">+ compute()</text>
<text text-anchor="start" x="248.5" y="-454.5" font-family="Helvetica,sans-Serif" font-size="10.00" fill="#000000">+ remove_from_blacklist()</text>
<text text-anchor="start" x="248.5" y="-443.5" font-family="Helvetica,sans-Serif" font-size="10.00" fill="#000000">+ get_ext_generator()</text>
<text text-anchor="start" x="248.5" y="-432.5" font-family="Helvetica,sans-Serif" font-size="10.00" fill="#000000"># compute_impl()</text>
<text text-anchor="start" x="248.5" y="-421.5" font-family="Helvetica,sans-Serif" font-size="10.00" fill="#000000"># make_required_keys()</text>
<text text-anchor="start" x="248.5" y="-410.5" font-family="Helvetica,sans-Serif" font-size="10.00" fill="#000000"># make_optional_keys()</text>
<text text-anchor="start" x="248.5" y="-399.5" font-family="Helvetica,sans-Serif" font-size="10.00" fill="#000000"># check_blacklist()</text>
</a>
</g>
</g>
<!-- Node1&#45;&gt;Node0 -->
<g id="edge1" class="edge">
<title>Node1&#45;&gt;Node0</title>
<path fill="none" stroke="#191970" d="M305.5,-382.1839C305.5,-372.9415 305.5,-363.9505 305.5,-355.6363"/>
<polygon fill="none" stroke="#191970" points="302.0001,-382.2915 305.5,-392.2915 309.0001,-382.2915 302.0001,-382.2915"/>
</g>
<!-- Node6 -->
<g id="node7" class="node">
<title>Node6</title>
<g id="a_node7"><a xlink:href="classStaDumpAtoms.html" target="_top" xlink:title="StaDumpAtoms reads a Lammps&#39; dump file and sets properties for atoms. ">
<polygon fill="#ffffff" stroke="#000000" points="296,-.5 296,-79.5 403,-79.5 403,-.5 296,-.5"/>
<text text-anchor="middle" x="349.5" y="-67.5" font-family="Helvetica,sans-Serif" font-size="10.00" fill="#000000">StaDumpAtoms</text>
<polyline fill="none" stroke="#000000" points="296,-60.5 403,-60.5 "/>
<text text-anchor="middle" x="349.5" y="-48.5" font-family="Helvetica,sans-Serif" font-size="10.00" fill="#000000"> </text>
<polyline fill="none" stroke="#000000" points="296,-41.5 403,-41.5 "/>
<text text-anchor="start" x="304" y="-29.5" font-family="Helvetica,sans-Serif" font-size="10.00" fill="#000000">+ ~StaDumpAtoms()</text>
<text text-anchor="start" x="304" y="-18.5" font-family="Helvetica,sans-Serif" font-size="10.00" fill="#000000">+ StaDump()</text>
<text text-anchor="start" x="304" y="-7.5" font-family="Helvetica,sans-Serif" font-size="10.00" fill="#000000"># compute_impl()</text>
</a>
</g>
</g>
<!-- Node5&#45;&gt;Node6 -->
<g id="edge6" class="edge">
<title>Node5&#45;&gt;Node6</title>
<path fill="none" stroke="#191970" d="M386.6697,-123.4743C380.252,-109.0618 373.314,-93.4806 367.1895,-79.7263"/>
<polygon fill="none" stroke="#191970" points="383.5329,-125.0341 390.7981,-132.7456 389.9276,-122.1866 383.5329,-125.0341"/>
</g>
<!-- Node7 -->
<g id="node8" class="node">
<title>Node7</title>
<g id="a_node8"><a xlink:href="classStaDumpBox.html" target="_top" xlink:title="StaDumpBox reads a Lammps&#39; dump file and sets properties for simulation box. ">
<polygon fill="#ffffff" stroke="#000000" points="421,-.5 421,-79.5 516,-79.5 516,-.5 421,-.5"/>
<text text-anchor="middle" x="468.5" y="-67.5" font-family="Helvetica,sans-Serif" font-size="10.00" fill="#000000">StaDumpBox</text>
<polyline fill="none" stroke="#000000" points="421,-60.5 516,-60.5 "/>
<text text-anchor="middle" x="468.5" y="-48.5" font-family="Helvetica,sans-Serif" font-size="10.00" fill="#000000"> </text>
<polyline fill="none" stroke="#000000" points="421,-41.5 516,-41.5 "/>
<text text-anchor="start" x="429" y="-29.5" font-family="Helvetica,sans-Serif" font-size="10.00" fill="#000000">+ ~StaDumpBox()</text>
<text text-anchor="start" x="429" y="-18.5" font-family="Helvetica,sans-Serif" font-size="10.00" fill="#000000">+ StaDump()</text>
<text text-anchor="start" x="429" y="-7.5" font-family="Helvetica,sans-Serif" font-size="10.00" fill="#000000"># compute_impl()</text>
</a>
</g>
</g>
<!-- Node5&#45;&gt;Node7 -->
<g id="edge7" class="edge">
<title>Node5&#45;&gt;Node7</title>
<path fill="none" stroke="#191970" d="M430.7003,-123.4743C437.2267,-109.0618 444.2824,-93.4806 450.5107,-79.7263"/>
<polygon fill="none" stroke="#191970" points="427.4388,-122.1923 426.502,-132.7456 433.8155,-125.0799 427.4388,-122.1923"/>
</g>
</g>
</svg>
