<?xml version="1.0" encoding="UTF-8" standalone="no"?>
<!DOCTYPE svg PUBLIC "-//W3C//DTD SVG 1.1//EN"
 "http://www.w3.org/Graphics/SVG/1.1/DTD/svg11.dtd">
<!-- Generated by graphviz version 2.40.1 (20161225.0304)
 -->
<!-- Title: Element::get_1d_float_py Pages: 1 -->
<svg width="470pt" height="180pt"
 viewBox="0.00 0.00 470.00 180.00" xmlns="http://www.w3.org/2000/svg" xmlns:xlink="http://www.w3.org/1999/xlink">
<g id="graph0" class="graph" transform="scale(1 1) rotate(0) translate(4 176)">
<title>Element::get_1d_float_py</title>
<polygon fill="#ffffff" stroke="transparent" points="-4,4 -4,-176 466,-176 466,4 -4,4"/>
<!-- Node26 -->
<g id="node1" class="node">
<title>Node26</title>
<polygon fill="#bfbfbf" stroke="#000000" points="0,-38.5 0,-57.5 128,-57.5 128,-38.5 0,-38.5"/>
<text text-anchor="middle" x="64" y="-45.5" font-family="Helvetica,sans-Serif" font-size="10.00" fill="#000000">Element::get_1d_float_py</text>
</g>
<!-- Node27 -->
<g id="node2" class="node">
<title>Node27</title>
<g id="a_node2"><a xlink:href="classElement.html#a1fdb9455f49d2c66a0276925f7246cad" target="_top" xlink:title="Element::init_for_python">
<polygon fill="#ffffff" stroke="#000000" points="164,-95.5 164,-114.5 286,-114.5 286,-95.5 164,-95.5"/>
<text text-anchor="middle" x="225" y="-102.5" font-family="Helvetica,sans-Serif" font-size="10.00" fill="#000000">Element::init_for_python</text>
</a>
</g>
</g>
<!-- Node26&#45;&gt;Node27 -->
<g id="edge1" class="edge">
<title>Node26&#45;&gt;Node27</title>
<path fill="none" stroke="#191970" d="M90.9478,-57.5405C117.6491,-66.9938 158.7364,-81.5402 188.3853,-92.037"/>
<polygon fill="#191970" stroke="#191970" points="187.3695,-95.3902 197.9643,-95.4284 189.7058,-88.7916 187.3695,-95.3902"/>
</g>
<!-- Node31 -->
<g id="node6" class="node">
<title>Node31</title>
<g id="a_node6"><a xlink:href="classElement.html#af851a0ffe85ec6c9b88dac84dbe5f4f2" target="_top" xlink:title="Check if this object has required key(s). ">
<polygon fill="#ffffff" stroke="#000000" points="165.5,-38.5 165.5,-57.5 284.5,-57.5 284.5,-38.5 165.5,-38.5"/>
<text text-anchor="middle" x="225" y="-45.5" font-family="Helvetica,sans-Serif" font-size="10.00" fill="#000000">Element::required_keys</text>
</a>
</g>
</g>
<!-- Node26&#45;&gt;Node31 -->
<g id="edge5" class="edge">
<title>Node26&#45;&gt;Node31</title>
<path fill="none" stroke="#191970" d="M128.0941,-48C137.0139,-48 146.2143,-48 155.2319,-48"/>
<polygon fill="#191970" stroke="#191970" points="155.3105,-51.5001 165.3105,-48 155.3105,-44.5001 155.3105,-51.5001"/>
</g>
<!-- Node33 -->
<g id="node8" class="node">
<title>Node33</title>
<g id="a_node8"><a xlink:href="classElement.html#a576395d61902a76979ffd336afa714b3" target="_top" xlink:title="Extract values of a property in data as a one&#45;dimensional Eigen&#45;Array. ">
<polygon fill="#ffffff" stroke="#000000" points="179.5,-.5 179.5,-19.5 270.5,-19.5 270.5,-.5 179.5,-.5"/>
<text text-anchor="middle" x="225" y="-7.5" font-family="Helvetica,sans-Serif" font-size="10.00" fill="#000000">Element::array1d</text>
</a>
</g>
</g>
<!-- Node26&#45;&gt;Node33 -->
<g id="edge8" class="edge">
<title>Node26&#45;&gt;Node33</title>
<path fill="none" stroke="#191970" d="M104.6271,-38.411C125.9685,-33.3739 152.3119,-27.1562 174.9081,-21.8229"/>
<polygon fill="#191970" stroke="#191970" points="175.7365,-25.2237 184.665,-19.5201 174.1284,-18.4109 175.7365,-25.2237"/>
</g>
<!-- Node28 -->
<g id="node3" class="node">
<title>Node28</title>
<g id="a_node3"><a xlink:href="classGenerator.html#ac4648b055ee0e51c1e68ea084156c222" target="_top" xlink:title="Hello to this Generator object. ">
<polygon fill="#ffffff" stroke="#000000" points="349,-152.5 349,-171.5 435,-171.5 435,-152.5 349,-152.5"/>
<text text-anchor="middle" x="392" y="-159.5" font-family="Helvetica,sans-Serif" font-size="10.00" fill="#000000">Generator::hello</text>
</a>
</g>
</g>
<!-- Node27&#45;&gt;Node28 -->
<g id="edge2" class="edge">
<title>Node27&#45;&gt;Node28</title>
<path fill="none" stroke="#191970" d="M247.4815,-114.6086C266.9808,-122.7487 296.0691,-134.4295 322,-143 329.1495,-145.363 336.7783,-147.6588 344.2723,-149.7897"/>
<polygon fill="#191970" stroke="#191970" points="343.4229,-153.1862 353.9947,-152.488 345.295,-146.4412 343.4229,-153.1862"/>
</g>
<!-- Node29 -->
<g id="node4" class="node">
<title>Node29</title>
<g id="a_node4"><a xlink:href="namespaceutils.html#acee57b54806ee63ddaa30518fed90adb" target="_top" xlink:title="Raise (for Python) and throw (for C++) a runtime error. ">
<polygon fill="#ffffff" stroke="#000000" points="343,-76.5 343,-95.5 441,-95.5 441,-76.5 343,-76.5"/>
<text text-anchor="middle" x="392" y="-83.5" font-family="Helvetica,sans-Serif" font-size="10.00" fill="#000000">utils::runtime_error</text>
</a>
</g>
</g>
<!-- Node27&#45;&gt;Node29 -->
<g id="edge3" class="edge">
<title>Node27&#45;&gt;Node29</title>
<path fill="none" stroke="#191970" d="M286.2364,-98.033C301.3634,-96.312 317.542,-94.4713 332.581,-92.7602"/>
<polygon fill="#191970" stroke="#191970" points="333.2434,-96.2075 342.7837,-91.5995 332.4521,-89.2524 333.2434,-96.2075"/>
</g>
<!-- Node30 -->
<g id="node5" class="node">
<title>Node30</title>
<g id="a_node5"><a xlink:href="namespaceutils.html#a26267fe7371b6215c5d61374d716527b" target="_top" xlink:title="Logging a message. ">
<polygon fill="#ffffff" stroke="#000000" points="365.5,-114.5 365.5,-133.5 418.5,-133.5 418.5,-114.5 365.5,-114.5"/>
<text text-anchor="middle" x="392" y="-121.5" font-family="Helvetica,sans-Serif" font-size="10.00" fill="#000000">utils::log</text>
</a>
</g>
</g>
<!-- Node27&#45;&gt;Node30 -->
<g id="edge4" class="edge">
<title>Node27&#45;&gt;Node30</title>
<path fill="none" stroke="#191970" d="M286.2364,-111.967C309.3836,-114.6005 334.9933,-117.5142 355.214,-119.8148"/>
<polygon fill="#191970" stroke="#191970" points="354.9238,-123.3042 365.2554,-120.9572 355.7152,-116.3491 354.9238,-123.3042"/>
</g>
<!-- Node31&#45;&gt;Node29 -->
<g id="edge7" class="edge">
<title>Node31&#45;&gt;Node29</title>
<path fill="none" stroke="#191970" d="M267.1412,-57.589C289.3771,-62.6487 316.8482,-68.8996 340.3564,-74.2488"/>
<polygon fill="#191970" stroke="#191970" points="339.6345,-77.6739 350.1619,-76.4799 341.1877,-70.8484 339.6345,-77.6739"/>
</g>
<!-- Node32 -->
<g id="node7" class="node">
<title>Node32</title>
<g id="a_node7"><a xlink:href="namespaceutils.html#a5e5339e32b770a14691521435849c949" target="_top" xlink:title="Mimicking Python&#39;s join. ">
<polygon fill="#ffffff" stroke="#000000" points="364,-38.5 364,-57.5 420,-57.5 420,-38.5 364,-38.5"/>
<text text-anchor="middle" x="392" y="-45.5" font-family="Helvetica,sans-Serif" font-size="10.00" fill="#000000">utils::join</text>
</a>
</g>
</g>
<!-- Node31&#45;&gt;Node32 -->
<g id="edge6" class="edge">
<title>Node31&#45;&gt;Node32</title>
<path fill="none" stroke="#191970" d="M284.8191,-48C307.7725,-48 333.3284,-48 353.7271,-48"/>
<polygon fill="#191970" stroke="#191970" points="353.8832,-51.5001 363.8831,-48 353.8831,-44.5001 353.8832,-51.5001"/>
</g>
<!-- Node34 -->
<g id="node9" class="node">
<title>Node34</title>
<g id="a_node9"><a xlink:href="classElement.html#ae8b7e5c98427ea9d4994b4f8dc923ac1" target="_top" xlink:title="For speeding up to access values in Json. ">
<polygon fill="#ffffff" stroke="#000000" points="322,-.5 322,-19.5 462,-19.5 462,-.5 322,-.5"/>
<text text-anchor="middle" x="392" y="-7.5" font-family="Helvetica,sans-Serif" font-size="10.00" fill="#000000">Element::get_key_advances</text>
</a>
</g>
</g>
<!-- Node33&#45;&gt;Node34 -->
<g id="edge9" class="edge">
<title>Node33&#45;&gt;Node34</title>
<path fill="none" stroke="#191970" d="M270.6335,-10C283.3782,-10 297.616,-10 311.7306,-10"/>
<polygon fill="#191970" stroke="#191970" points="311.9633,-13.5001 321.9633,-10 311.9633,-6.5001 311.9633,-13.5001"/>
</g>
</g>
</svg>
