<?xml version="1.0" encoding="UTF-8" standalone="no"?>
<!DOCTYPE svg PUBLIC "-//W3C//DTD SVG 1.1//EN"
 "http://www.w3.org/Graphics/SVG/1.1/DTD/svg11.dtd">
<!-- Generated by graphviz version 2.40.1 (20161225.0304)
 -->
<!-- Title: AddSpecialBonds Pages: 1 -->
<svg width="138pt" height="557pt"
 viewBox="0.00 0.00 138.00 557.00" xmlns="http://www.w3.org/2000/svg" xmlns:xlink="http://www.w3.org/1999/xlink">
<g id="graph0" class="graph" transform="scale(1 1) rotate(0) translate(4 553)">
<title>AddSpecialBonds</title>
<polygon fill="#ffffff" stroke="transparent" points="-4,4 -4,-553 134,-553 134,4 -4,4"/>
<!-- Node4 -->
<g id="node1" class="node">
<title>Node4</title>
<polygon fill="#bfbfbf" stroke="#000000" points="3.5,-.5 3.5,-101.5 126.5,-101.5 126.5,-.5 3.5,-.5"/>
<text text-anchor="middle" x="65" y="-89.5" font-family="Helvetica,sans-Serif" font-size="10.00" fill="#000000">AddSpecialBonds</text>
<polyline fill="none" stroke="#000000" points="3.5,-82.5 126.5,-82.5 "/>
<text text-anchor="start" x="11.5" y="-70.5" font-family="Helvetica,sans-Serif" font-size="10.00" fill="#000000">&#45; mol_type_to_sbondses</text>
<text text-anchor="start" x="11.5" y="-59.5" font-family="Helvetica,sans-Serif" font-size="10.00" fill="#000000">_in_mol</text>
<polyline fill="none" stroke="#000000" points="3.5,-52.5 126.5,-52.5 "/>
<text text-anchor="start" x="11.5" y="-40.5" font-family="Helvetica,sans-Serif" font-size="10.00" fill="#000000">+ AddSpecialBonds()</text>
<text text-anchor="start" x="11.5" y="-29.5" font-family="Helvetica,sans-Serif" font-size="10.00" fill="#000000">+ AddSpecialBonds()</text>
<text text-anchor="start" x="11.5" y="-18.5" font-family="Helvetica,sans-Serif" font-size="10.00" fill="#000000">+ ~AddSpecialBonds()</text>
<text text-anchor="start" x="11.5" y="-7.5" font-family="Helvetica,sans-Serif" font-size="10.00" fill="#000000"># compute_impl()</text>
</g>
<!-- Node5 -->
<g id="node2" class="node">
<title>Node5</title>
<g id="a_node2"><a xlink:href="classAdder.html" target="_top" xlink:title="Adder adds new properties to a non&#45;empty Element object. ">
<polygon fill="#ffffff" stroke="#000000" points="30.5,-138.5 30.5,-217.5 99.5,-217.5 99.5,-138.5 30.5,-138.5"/>
<text text-anchor="middle" x="65" y="-205.5" font-family="Helvetica,sans-Serif" font-size="10.00" fill="#000000">Adder</text>
<polyline fill="none" stroke="#000000" points="30.5,-198.5 99.5,-198.5 "/>
<text text-anchor="middle" x="65" y="-186.5" font-family="Helvetica,sans-Serif" font-size="10.00" fill="#000000"> </text>
<polyline fill="none" stroke="#000000" points="30.5,-179.5 99.5,-179.5 "/>
<text text-anchor="start" x="38.5" y="-167.5" font-family="Helvetica,sans-Serif" font-size="10.00" fill="#000000">+ ~Adder()</text>
<text text-anchor="start" x="38.5" y="-156.5" font-family="Helvetica,sans-Serif" font-size="10.00" fill="#000000">+ compute()</text>
<text text-anchor="start" x="38.5" y="-145.5" font-family="Helvetica,sans-Serif" font-size="10.00" fill="#000000">+ Updater()</text>
</a>
</g>
</g>
<!-- Node5&#45;&gt;Node4 -->
<g id="edge1" class="edge">
<title>Node5&#45;&gt;Node4</title>
<path fill="none" stroke="#191970" d="M65,-127.9396C65,-119.3816 65,-110.4823 65,-101.9026"/>
<polygon fill="none" stroke="#191970" points="61.5001,-128.1648 65,-138.1649 68.5001,-128.1649 61.5001,-128.1648"/>
</g>
<!-- Node6 -->
<g id="node3" class="node">
<title>Node6</title>
<g id="a_node3"><a xlink:href="classUpdater.html" target="_top" xlink:title="Updater is an abstract class to update data held by an Element object. ">
<polygon fill="#ffffff" stroke="#000000" points="0,-254.5 0,-443.5 130,-443.5 130,-254.5 0,-254.5"/>
<text text-anchor="middle" x="65" y="-431.5" font-family="Helvetica,sans-Serif" font-size="10.00" fill="#000000">Updater</text>
<polyline fill="none" stroke="#000000" points="0,-424.5 130,-424.5 "/>
<text text-anchor="start" x="8" y="-412.5" font-family="Helvetica,sans-Serif" font-size="10.00" fill="#000000"># ext_generator</text>
<text text-anchor="start" x="8" y="-401.5" font-family="Helvetica,sans-Serif" font-size="10.00" fill="#000000"># required_keys</text>
<text text-anchor="start" x="8" y="-390.5" font-family="Helvetica,sans-Serif" font-size="10.00" fill="#000000"># optional_keys</text>
<text text-anchor="start" x="8" y="-379.5" font-family="Helvetica,sans-Serif" font-size="10.00" fill="#000000">&#45; dataid_blacklist</text>
<text text-anchor="start" x="8" y="-368.5" font-family="Helvetica,sans-Serif" font-size="10.00" fill="#000000">&#45; omp_lock</text>
<polyline fill="none" stroke="#000000" points="0,-361.5 130,-361.5 "/>
<text text-anchor="start" x="8" y="-349.5" font-family="Helvetica,sans-Serif" font-size="10.00" fill="#000000">+ Updater()</text>
<text text-anchor="start" x="8" y="-338.5" font-family="Helvetica,sans-Serif" font-size="10.00" fill="#000000">+ ~Updater()</text>
<text text-anchor="start" x="8" y="-327.5" font-family="Helvetica,sans-Serif" font-size="10.00" fill="#000000">+ compute()</text>
<text text-anchor="start" x="8" y="-316.5" font-family="Helvetica,sans-Serif" font-size="10.00" fill="#000000">+ remove_from_blacklist()</text>
<text text-anchor="start" x="8" y="-305.5" font-family="Helvetica,sans-Serif" font-size="10.00" fill="#000000">+ get_ext_generator()</text>
<text text-anchor="start" x="8" y="-294.5" font-family="Helvetica,sans-Serif" font-size="10.00" fill="#000000"># compute_impl()</text>
<text text-anchor="start" x="8" y="-283.5" font-family="Helvetica,sans-Serif" font-size="10.00" fill="#000000"># make_required_keys()</text>
<text text-anchor="start" x="8" y="-272.5" font-family="Helvetica,sans-Serif" font-size="10.00" fill="#000000"># make_optional_keys()</text>
<text text-anchor="start" x="8" y="-261.5" font-family="Helvetica,sans-Serif" font-size="10.00" fill="#000000"># check_blacklist()</text>
</a>
</g>
</g>
<!-- Node6&#45;&gt;Node5 -->
<g id="edge2" class="edge">
<title>Node6&#45;&gt;Node5</title>
<path fill="none" stroke="#191970" d="M65,-244.2385C65,-234.8809 65,-225.8479 65,-217.6203"/>
<polygon fill="none" stroke="#191970" points="61.5001,-244.4972 65,-254.4973 68.5001,-244.4973 61.5001,-244.4972"/>
</g>
<!-- Node7 -->
<g id="node4" class="node">
<title>Node7</title>
<polygon fill="#ffffff" stroke="#bfbfbf" points="8,-480.5 8,-548.5 122,-548.5 122,-480.5 8,-480.5"/>
<text text-anchor="start" x="16" y="-536.5" font-family="Helvetica,sans-Serif" font-size="10.00" fill="#000000">std::enable_shared</text>
<text text-anchor="middle" x="65" y="-525.5" font-family="Helvetica,sans-Serif" font-size="10.00" fill="#000000">_from_this&lt; Updater &gt;</text>
<polyline fill="none" stroke="#bfbfbf" points="8,-518.5 122,-518.5 "/>
<text text-anchor="middle" x="65" y="-506.5" font-family="Helvetica,sans-Serif" font-size="10.00" fill="#000000"> </text>
<polyline fill="none" stroke="#bfbfbf" points="8,-499.5 122,-499.5 "/>
<text text-anchor="middle" x="65" y="-487.5" font-family="Helvetica,sans-Serif" font-size="10.00" fill="#000000"> </text>
</g>
<!-- Node7&#45;&gt;Node6 -->
<g id="edge3" class="edge">
<title>Node7&#45;&gt;Node6</title>
<path fill="none" stroke="#191970" d="M65,-470.0888C65,-461.7937 65,-452.8388 65,-443.6848"/>
<polygon fill="none" stroke="#191970" points="61.5001,-470.2083 65,-480.2083 68.5001,-470.2083 61.5001,-470.2083"/>
</g>
</g>
</svg>
