<?xml version="1.0" encoding="UTF-8" standalone="no"?>
<!DOCTYPE svg PUBLIC "-//W3C//DTD SVG 1.1//EN"
 "http://www.w3.org/Graphics/SVG/1.1/DTD/svg11.dtd">
<!-- Generated by graphviz version 2.40.1 (20161225.0304)
 -->
<!-- Title: Element::get_2d_float_py Pages: 1 -->
<svg width="428pt" height="180pt"
 viewBox="0.00 0.00 428.00 180.00" xmlns="http://www.w3.org/2000/svg" xmlns:xlink="http://www.w3.org/1999/xlink">
<g id="graph0" class="graph" transform="scale(1 1) rotate(0) translate(4 176)">
<title>Element::get_2d_float_py</title>
<polygon fill="#ffffff" stroke="transparent" points="-4,4 -4,-176 424,-176 424,4 -4,4"/>
<!-- Node46 -->
<g id="node1" class="node">
<title>Node46</title>
<polygon fill="#bfbfbf" stroke="#000000" points="0,-57.5 0,-76.5 128,-76.5 128,-57.5 0,-57.5"/>
<text text-anchor="middle" x="64" y="-64.5" font-family="Helvetica,sans-Serif" font-size="10.00" fill="#000000">Element::get_2d_float_py</text>
</g>
<!-- Node47 -->
<g id="node2" class="node">
<title>Node47</title>
<g id="a_node2"><a xlink:href="classElement.html#a1fdb9455f49d2c66a0276925f7246cad" target="_top" xlink:title="Element::init_for_python">
<polygon fill="#ffffff" stroke="#000000" points="164,-114.5 164,-133.5 286,-133.5 286,-114.5 164,-114.5"/>
<text text-anchor="middle" x="225" y="-121.5" font-family="Helvetica,sans-Serif" font-size="10.00" fill="#000000">Element::init_for_python</text>
</a>
</g>
</g>
<!-- Node46&#45;&gt;Node47 -->
<g id="edge1" class="edge">
<title>Node46&#45;&gt;Node47</title>
<path fill="none" stroke="#191970" d="M88.0972,-76.6316C108.2586,-84.5754 137.8433,-95.9661 164,-105 170.1235,-107.1149 176.6281,-109.2538 183.0211,-111.2956"/>
<polygon fill="#191970" stroke="#191970" points="182.315,-114.7426 192.9045,-114.4069 184.417,-108.0656 182.315,-114.7426"/>
</g>
<!-- Node51 -->
<g id="node6" class="node">
<title>Node51</title>
<g id="a_node6"><a xlink:href="namespaceutils.html#a9fdbb91c9e48ca033fca642b6e73d850" target="_top" xlink:title="Convert a py::args (a variable number arguments) object to a Vec object. ">
<polygon fill="#ffffff" stroke="#000000" points="173,-76.5 173,-95.5 277,-95.5 277,-76.5 173,-76.5"/>
<text text-anchor="middle" x="225" y="-83.5" font-family="Helvetica,sans-Serif" font-size="10.00" fill="#000000">utils::pyargs_to_vec</text>
</a>
</g>
</g>
<!-- Node46&#45;&gt;Node51 -->
<g id="edge5" class="edge">
<title>Node46&#45;&gt;Node51</title>
<path fill="none" stroke="#191970" d="M128.0941,-74.5639C139.4404,-75.9029 151.2409,-77.2955 162.5414,-78.6291"/>
<polygon fill="#191970" stroke="#191970" points="162.4101,-82.1378 172.7514,-79.834 163.2305,-75.1861 162.4101,-82.1378"/>
</g>
<!-- Node52 -->
<g id="node7" class="node">
<title>Node52</title>
<g id="a_node7"><a xlink:href="classElement.html#af851a0ffe85ec6c9b88dac84dbe5f4f2" target="_top" xlink:title="Check if this object has required key(s). ">
<polygon fill="#ffffff" stroke="#000000" points="165.5,-38.5 165.5,-57.5 284.5,-57.5 284.5,-38.5 165.5,-38.5"/>
<text text-anchor="middle" x="225" y="-45.5" font-family="Helvetica,sans-Serif" font-size="10.00" fill="#000000">Element::required_keys</text>
</a>
</g>
</g>
<!-- Node46&#45;&gt;Node52 -->
<g id="edge6" class="edge">
<title>Node46&#45;&gt;Node52</title>
<path fill="none" stroke="#191970" d="M128.0941,-59.4361C137.0139,-58.3835 146.2143,-57.2977 155.2319,-56.2335"/>
<polygon fill="#191970" stroke="#191970" points="155.7896,-59.6921 165.3105,-55.0441 154.9692,-52.7403 155.7896,-59.6921"/>
</g>
<!-- Node54 -->
<g id="node9" class="node">
<title>Node54</title>
<g id="a_node9"><a xlink:href="classElement.html#a4c2fcdb60e23dedce2b54b9deeadc469" target="_top" xlink:title="Extract values of properties in data as a two&#45;dimensional Eigen&#45;Array. ">
<polygon fill="#ffffff" stroke="#000000" points="179.5,-.5 179.5,-19.5 270.5,-19.5 270.5,-.5 179.5,-.5"/>
<text text-anchor="middle" x="225" y="-7.5" font-family="Helvetica,sans-Serif" font-size="10.00" fill="#000000">Element::array2d</text>
</a>
</g>
</g>
<!-- Node46&#45;&gt;Node54 -->
<g id="edge9" class="edge">
<title>Node46&#45;&gt;Node54</title>
<path fill="none" stroke="#191970" d="M88.0972,-57.3684C108.2586,-49.4246 137.8433,-38.0339 164,-29 170.1235,-26.8851 176.6281,-24.7462 183.0211,-22.7044"/>
<polygon fill="#191970" stroke="#191970" points="184.417,-25.9344 192.9045,-19.5931 182.315,-19.2574 184.417,-25.9344"/>
</g>
<!-- Node48 -->
<g id="node3" class="node">
<title>Node48</title>
<g id="a_node3"><a xlink:href="classGenerator.html#ac4648b055ee0e51c1e68ea084156c222" target="_top" xlink:title="Hello to this Generator object. ">
<polygon fill="#ffffff" stroke="#000000" points="328,-152.5 328,-171.5 414,-171.5 414,-152.5 328,-152.5"/>
<text text-anchor="middle" x="371" y="-159.5" font-family="Helvetica,sans-Serif" font-size="10.00" fill="#000000">Generator::hello</text>
</a>
</g>
</g>
<!-- Node47&#45;&gt;Node48 -->
<g id="edge2" class="edge">
<title>Node47&#45;&gt;Node48</title>
<path fill="none" stroke="#191970" d="M261.842,-133.589C280.8479,-138.5358 304.2286,-144.6211 324.4692,-149.8892"/>
<polygon fill="#191970" stroke="#191970" points="323.8638,-153.3482 334.423,-152.4799 325.627,-146.5739 323.8638,-153.3482"/>
</g>
<!-- Node49 -->
<g id="node4" class="node">
<title>Node49</title>
<g id="a_node4"><a xlink:href="namespaceutils.html#acee57b54806ee63ddaa30518fed90adb" target="_top" xlink:title="Raise (for Python) and throw (for C++) a runtime error. ">
<polygon fill="#ffffff" stroke="#000000" points="322,-76.5 322,-95.5 420,-95.5 420,-76.5 322,-76.5"/>
<text text-anchor="middle" x="371" y="-83.5" font-family="Helvetica,sans-Serif" font-size="10.00" fill="#000000">utils::runtime_error</text>
</a>
</g>
</g>
<!-- Node47&#45;&gt;Node49 -->
<g id="edge3" class="edge">
<title>Node47&#45;&gt;Node49</title>
<path fill="none" stroke="#191970" d="M261.842,-114.411C280.8479,-109.4642 304.2286,-103.3789 324.4692,-98.1108"/>
<polygon fill="#191970" stroke="#191970" points="325.627,-101.4261 334.423,-95.5201 323.8638,-94.6518 325.627,-101.4261"/>
</g>
<!-- Node50 -->
<g id="node5" class="node">
<title>Node50</title>
<g id="a_node5"><a xlink:href="namespaceutils.html#a26267fe7371b6215c5d61374d716527b" target="_top" xlink:title="Logging a message. ">
<polygon fill="#ffffff" stroke="#000000" points="344.5,-114.5 344.5,-133.5 397.5,-133.5 397.5,-114.5 344.5,-114.5"/>
<text text-anchor="middle" x="371" y="-121.5" font-family="Helvetica,sans-Serif" font-size="10.00" fill="#000000">utils::log</text>
</a>
</g>
</g>
<!-- Node47&#45;&gt;Node50 -->
<g id="edge4" class="edge">
<title>Node47&#45;&gt;Node50</title>
<path fill="none" stroke="#191970" d="M286.0712,-124C302.4196,-124 319.5884,-124 334.1773,-124"/>
<polygon fill="#191970" stroke="#191970" points="334.2957,-127.5001 344.2957,-124 334.2956,-120.5001 334.2957,-127.5001"/>
</g>
<!-- Node52&#45;&gt;Node49 -->
<g id="edge8" class="edge">
<title>Node52&#45;&gt;Node49</title>
<path fill="none" stroke="#191970" d="M261.842,-57.589C280.8479,-62.5358 304.2286,-68.6211 324.4692,-73.8892"/>
<polygon fill="#191970" stroke="#191970" points="323.8638,-77.3482 334.423,-76.4799 325.627,-70.5739 323.8638,-77.3482"/>
</g>
<!-- Node53 -->
<g id="node8" class="node">
<title>Node53</title>
<g id="a_node8"><a xlink:href="namespaceutils.html#a5e5339e32b770a14691521435849c949" target="_top" xlink:title="Mimicking Python&#39;s join. ">
<polygon fill="#ffffff" stroke="#000000" points="343,-38.5 343,-57.5 399,-57.5 399,-38.5 343,-38.5"/>
<text text-anchor="middle" x="371" y="-45.5" font-family="Helvetica,sans-Serif" font-size="10.00" fill="#000000">utils::join</text>
</a>
</g>
</g>
<!-- Node52&#45;&gt;Node53 -->
<g id="edge7" class="edge">
<title>Node52&#45;&gt;Node53</title>
<path fill="none" stroke="#191970" d="M284.805,-48C300.9008,-48 317.8818,-48 332.4762,-48"/>
<polygon fill="#191970" stroke="#191970" points="332.6347,-51.5001 342.6346,-48 332.6346,-44.5001 332.6347,-51.5001"/>
</g>
</g>
</svg>
