<?xml version="1.0" encoding="UTF-8" standalone="no"?>
<!DOCTYPE svg PUBLIC "-//W3C//DTD SVG 1.1//EN"
 "http://www.w3.org/Graphics/SVG/1.1/DTD/svg11.dtd">
<!-- Generated by graphviz version 2.40.1 (20161225.0304)
 -->
<!-- Title: DataKeys::required Pages: 1 -->
<svg width="754pt" height="608pt"
 viewBox="0.00 0.00 754.00 608.00" xmlns="http://www.w3.org/2000/svg" xmlns:xlink="http://www.w3.org/1999/xlink">
<g id="graph0" class="graph" transform="scale(1 1) rotate(0) translate(4 604)">
<title>DataKeys::required</title>
<polygon fill="#ffffff" stroke="transparent" points="-4,4 -4,-604 750,-604 750,4 -4,4"/>
<!-- Node44 -->
<g id="node1" class="node">
<title>Node44</title>
<polygon fill="#bfbfbf" stroke="#000000" points="0,-290.5 0,-309.5 100,-309.5 100,-290.5 0,-290.5"/>
<text text-anchor="middle" x="50" y="-297.5" font-family="Helvetica,sans-Serif" font-size="10.00" fill="#000000">DataKeys::required</text>
</g>
<!-- Node45 -->
<g id="node2" class="node">
<title>Node45</title>
<g id="a_node2"><a xlink:href="classAddBondAngle.html#a3c9ff4e8d0806fe652cbc89877cca142" target="_top" xlink:title="This method overrides Updater::compute_impl. ">
<polygon fill="#ffffff" stroke="#000000" points="143.5,-580.5 143.5,-599.5 291.5,-599.5 291.5,-580.5 143.5,-580.5"/>
<text text-anchor="middle" x="217.5" y="-587.5" font-family="Helvetica,sans-Serif" font-size="10.00" fill="#000000">AddBondAngle::compute_impl</text>
</a>
</g>
</g>
<!-- Node44&#45;&gt;Node45 -->
<g id="edge1" class="edge">
<title>Node44&#45;&gt;Node45</title>
<path fill="none" stroke="#191970" d="M53.6416,-319.6727C64.4442,-375.9493 97.9404,-535.808 136,-571 140.1603,-574.8468 144.9445,-577.9625 150.0659,-580.4806"/>
<polygon fill="#191970" stroke="#191970" points="57.0327,-318.7679 51.738,-309.5909 50.1542,-320.0667 57.0327,-318.7679"/>
</g>
<!-- Node46 -->
<g id="node3" class="node">
<title>Node46</title>
<g id="a_node3"><a xlink:href="classAddBondLength.html#a19665cbd2bd195ee9717d084bb669a8f" target="_top" xlink:title="This method overrides Updater::compute_impl. ">
<polygon fill="#ffffff" stroke="#000000" points="141.5,-542.5 141.5,-561.5 293.5,-561.5 293.5,-542.5 141.5,-542.5"/>
<text text-anchor="middle" x="217.5" y="-549.5" font-family="Helvetica,sans-Serif" font-size="10.00" fill="#000000">AddBondLength::compute_impl</text>
</a>
</g>
</g>
<!-- Node44&#45;&gt;Node46 -->
<g id="edge2" class="edge">
<title>Node44&#45;&gt;Node46</title>
<path fill="none" stroke="#191970" d="M51.2316,-320.0096C55.1356,-365.2234 71.1684,-475.779 136,-533 140.3571,-536.8456 145.3424,-539.9534 150.6531,-542.4599"/>
<polygon fill="#191970" stroke="#191970" points="54.7016,-319.4761 50.4637,-309.7658 47.7211,-319.9995 54.7016,-319.4761"/>
</g>
<!-- Node47 -->
<g id="node4" class="node">
<title>Node47</title>
<g id="a_node4"><a xlink:href="classAddChildIDs.html#a44a0b778c9c4b17c9ce9051b990af73d" target="_top" xlink:title="This method overrides Updater::compute_impl. ">
<polygon fill="#ffffff" stroke="#000000" points="149,-504.5 149,-523.5 286,-523.5 286,-504.5 149,-504.5"/>
<text text-anchor="middle" x="217.5" y="-511.5" font-family="Helvetica,sans-Serif" font-size="10.00" fill="#000000">AddChildIDs::compute_impl</text>
</a>
</g>
</g>
<!-- Node44&#45;&gt;Node47 -->
<g id="edge3" class="edge">
<title>Node44&#45;&gt;Node47</title>
<path fill="none" stroke="#191970" d="M52.8409,-319.9776C59.5908,-359.7371 80.4023,-448.904 136,-495 140.5857,-498.802 145.7929,-501.8735 151.3051,-504.3509"/>
<polygon fill="#191970" stroke="#191970" points="56.274,-319.2778 51.2628,-309.943 49.359,-320.3654 56.274,-319.2778"/>
</g>
<!-- Node48 -->
<g id="node5" class="node">
<title>Node48</title>
<g id="a_node5"><a xlink:href="classAddChildPositions.html#ab200c619009c1db1deefb92c68010f9a" target="_top" xlink:title="This method overrides Updater::compute_impl. ">
<polygon fill="#ffffff" stroke="#000000" points="166.5,-455 166.5,-485 268.5,-485 268.5,-455 166.5,-455"/>
<text text-anchor="start" x="174.5" y="-473" font-family="Helvetica,sans-Serif" font-size="10.00" fill="#000000">AddChildPositions::</text>
<text text-anchor="middle" x="217.5" y="-462" font-family="Helvetica,sans-Serif" font-size="10.00" fill="#000000">compute_impl</text>
</a>
</g>
</g>
<!-- Node44&#45;&gt;Node48 -->
<g id="edge4" class="edge">
<title>Node44&#45;&gt;Node48</title>
<path fill="none" stroke="#191970" d="M56.3253,-319.4634C67.4352,-350.5964 93.4045,-411.4921 136,-445 144.8405,-451.9544 155.6149,-456.983 166.3959,-460.6163"/>
<polygon fill="#191970" stroke="#191970" points="59.5627,-318.1135 53.0124,-309.7862 52.94,-320.3808 59.5627,-318.1135"/>
</g>
<!-- Node49 -->
<g id="node6" class="node">
<title>Node49</title>
<g id="a_node6"><a xlink:href="classAddCoMPosition.html#a8769c07c61840444ad80bf7e20acdbf2" target="_top" xlink:title="This method overrides Updater::compute_impl. ">
<polygon fill="#ffffff" stroke="#000000" points="139.5,-416.5 139.5,-435.5 295.5,-435.5 295.5,-416.5 139.5,-416.5"/>
<text text-anchor="middle" x="217.5" y="-423.5" font-family="Helvetica,sans-Serif" font-size="10.00" fill="#000000">AddCoMPosition::compute_impl</text>
</a>
</g>
</g>
<!-- Node44&#45;&gt;Node49 -->
<g id="edge5" class="edge">
<title>Node44&#45;&gt;Node49</title>
<path fill="none" stroke="#191970" d="M59.8001,-318.7294C73.5007,-342.9945 100.7141,-384.8082 136,-407 142.1493,-410.8674 149.0055,-413.9489 156.058,-416.4039"/>
<polygon fill="#191970" stroke="#191970" points="62.7862,-316.8948 54.9209,-309.7964 56.6428,-320.2503 62.7862,-316.8948"/>
</g>
<!-- Node50 -->
<g id="node7" class="node">
<title>Node50</title>
<g id="a_node7"><a xlink:href="classAddDihedralAngle.html#a7b40381c00d949b64fcbbd95e2a61e33" target="_top" xlink:title="This method overrides Updater::compute_impl. ">
<polygon fill="#ffffff" stroke="#000000" points="137,-378.5 137,-397.5 298,-397.5 298,-378.5 137,-378.5"/>
<text text-anchor="middle" x="217.5" y="-385.5" font-family="Helvetica,sans-Serif" font-size="10.00" fill="#000000">AddDihedralAngle::compute_impl</text>
</a>
</g>
</g>
<!-- Node44&#45;&gt;Node50 -->
<g id="edge6" class="edge">
<title>Node44&#45;&gt;Node50</title>
<path fill="none" stroke="#191970" d="M66.1633,-316.741C82.3746,-332.5536 108.7791,-355.7635 136,-369 143.9702,-372.8756 152.7695,-375.983 161.5502,-378.4683"/>
<polygon fill="#191970" stroke="#191970" points="68.6129,-314.2409 59.065,-309.6488 63.6653,-319.1928 68.6129,-314.2409"/>
</g>
<!-- Node51 -->
<g id="node8" class="node">
<title>Node51</title>
<g id="a_node8"><a xlink:href="classAddGyrationRadius.html#a53d9c62c9dbf976b815cb715a9f18a36" target="_top" xlink:title="This method overrides Updater::compute_impl. ">
<polygon fill="#ffffff" stroke="#000000" points="164,-329 164,-359 271,-359 271,-329 164,-329"/>
<text text-anchor="start" x="172" y="-347" font-family="Helvetica,sans-Serif" font-size="10.00" fill="#000000">AddGyrationRadius::</text>
<text text-anchor="middle" x="217.5" y="-336" font-family="Helvetica,sans-Serif" font-size="10.00" fill="#000000">compute_impl</text>
</a>
</g>
</g>
<!-- Node44&#45;&gt;Node51 -->
<g id="edge7" class="edge">
<title>Node44&#45;&gt;Node51</title>
<path fill="none" stroke="#191970" d="M96.261,-312.1521C117.1655,-317.6435 141.9965,-324.1663 163.7261,-329.8743"/>
<polygon fill="#191970" stroke="#191970" points="96.9061,-308.7029 86.345,-309.5473 95.1276,-315.4732 96.9061,-308.7029"/>
</g>
<!-- Node52 -->
<g id="node9" class="node">
<title>Node52</title>
<g id="a_node9"><a xlink:href="classAddInertiaMoment.html#a50d3efa11e6c2a8d12c397224679d259" target="_top" xlink:title="This method overrides Updater::compute_impl. ">
<polygon fill="#ffffff" stroke="#000000" points="136,-290.5 136,-309.5 299,-309.5 299,-290.5 136,-290.5"/>
<text text-anchor="middle" x="217.5" y="-297.5" font-family="Helvetica,sans-Serif" font-size="10.00" fill="#000000">AddInertiaMoment::compute_impl</text>
</a>
</g>
</g>
<!-- Node44&#45;&gt;Node52 -->
<g id="edge8" class="edge">
<title>Node44&#45;&gt;Node52</title>
<path fill="none" stroke="#191970" d="M110.5263,-300C118.7945,-300 127.3907,-300 135.9561,-300"/>
<polygon fill="#191970" stroke="#191970" points="110.2556,-296.5001 100.2555,-300 110.2555,-303.5001 110.2556,-296.5001"/>
</g>
<!-- Node53 -->
<g id="node10" class="node">
<title>Node53</title>
<g id="a_node10"><a xlink:href="classAddMap.html#a43e6a1d41af46c02ac2ad813075466cf" target="_top" xlink:title="This method overrides Updater::compute_impl. ">
<polygon fill="#ffffff" stroke="#000000" points="158,-252.5 158,-271.5 277,-271.5 277,-252.5 158,-252.5"/>
<text text-anchor="middle" x="217.5" y="-259.5" font-family="Helvetica,sans-Serif" font-size="10.00" fill="#000000">AddMap::compute_impl</text>
</a>
</g>
</g>
<!-- Node44&#45;&gt;Node53 -->
<g id="edge9" class="edge">
<title>Node44&#45;&gt;Node53</title>
<path fill="none" stroke="#191970" d="M102.1201,-288.1757C125.7347,-282.8184 153.282,-276.5689 175.5366,-271.5201"/>
<polygon fill="#191970" stroke="#191970" points="101.2451,-284.7852 92.2673,-290.411 102.7939,-291.6117 101.2451,-284.7852"/>
</g>
<!-- Node54 -->
<g id="node11" class="node">
<title>Node54</title>
<g id="a_node11"><a xlink:href="classAddMolecularOrientation.html#a886b802585d1dfa299dd9f42e3eef29e" target="_top" xlink:title="This method overrides Updater::compute_impl. ">
<polygon fill="#ffffff" stroke="#000000" points="156,-203 156,-233 279,-233 279,-203 156,-203"/>
<text text-anchor="start" x="164" y="-221" font-family="Helvetica,sans-Serif" font-size="10.00" fill="#000000">AddMolecularOrientation</text>
<text text-anchor="middle" x="217.5" y="-210" font-family="Helvetica,sans-Serif" font-size="10.00" fill="#000000">::compute_impl</text>
</a>
</g>
</g>
<!-- Node44&#45;&gt;Node54 -->
<g id="edge10" class="edge">
<title>Node44&#45;&gt;Node54</title>
<path fill="none" stroke="#191970" d="M70.1477,-284.217C86.9749,-271.6484 112.0038,-254.3402 136,-243 143.8948,-239.269 152.4795,-235.9299 161.0169,-233.0002"/>
<polygon fill="#191970" stroke="#191970" points="67.9874,-281.4627 62.1447,-290.3009 72.2237,-287.0353 67.9874,-281.4627"/>
</g>
<!-- Node55 -->
<g id="node12" class="node">
<title>Node55</title>
<g id="a_node12"><a xlink:href="classAddRename.html#a34e997ee2632a7ef703810ebfbf1aa8d" target="_top" xlink:title="This method overrides Updater::compute_impl. ">
<polygon fill="#ffffff" stroke="#000000" points="149,-164.5 149,-183.5 286,-183.5 286,-164.5 149,-164.5"/>
<text text-anchor="middle" x="217.5" y="-171.5" font-family="Helvetica,sans-Serif" font-size="10.00" fill="#000000">AddRename::compute_impl</text>
</a>
</g>
</g>
<!-- Node44&#45;&gt;Node55 -->
<g id="edge11" class="edge">
<title>Node44&#45;&gt;Node55</title>
<path fill="none" stroke="#191970" d="M59.8837,-281.5073C73.6766,-257.537 100.9917,-216.189 136,-194 142.8911,-189.6323 150.6673,-186.2184 158.6115,-183.5501"/>
<polygon fill="#191970" stroke="#191970" points="56.7778,-279.8907 54.9679,-290.3298 62.8927,-283.2978 56.7778,-279.8907"/>
</g>
<!-- Node56 -->
<g id="node13" class="node">
<title>Node56</title>
<g id="a_node13"><a xlink:href="classAddWrappedPosition.html#af5ea4e6203dc8db97b8a8f73b2d83822" target="_top" xlink:title="This method overrides Updater::compute_impl. ">
<polygon fill="#ffffff" stroke="#000000" points="164,-115 164,-145 271,-145 271,-115 164,-115"/>
<text text-anchor="start" x="172" y="-133" font-family="Helvetica,sans-Serif" font-size="10.00" fill="#000000">AddWrappedPosition</text>
<text text-anchor="middle" x="217.5" y="-122" font-family="Helvetica,sans-Serif" font-size="10.00" fill="#000000">::compute_impl</text>
</a>
</g>
</g>
<!-- Node44&#45;&gt;Node56 -->
<g id="edge12" class="edge">
<title>Node44&#45;&gt;Node56</title>
<path fill="none" stroke="#191970" d="M56.3253,-280.5366C67.4352,-249.4036 93.4045,-188.5079 136,-155 144.1426,-148.5946 153.9257,-143.823 163.8436,-140.2706"/>
<polygon fill="#191970" stroke="#191970" points="52.94,-279.6192 53.0124,-290.2138 59.5627,-281.8865 52.94,-279.6192"/>
</g>
<!-- Node57 -->
<g id="node14" class="node">
<title>Node57</title>
<g id="a_node14"><a xlink:href="classElement.html#a2dd2b3ed6f76878ae6cc1c1a36183517" target="_top" xlink:title="Wrapper for DataKeys::required. ">
<polygon fill="#ffffff" stroke="#000000" points="171,-76.5 171,-95.5 264,-95.5 264,-76.5 171,-76.5"/>
<text text-anchor="middle" x="217.5" y="-83.5" font-family="Helvetica,sans-Serif" font-size="10.00" fill="#000000">Element::required</text>
</a>
</g>
</g>
<!-- Node44&#45;&gt;Node57 -->
<g id="edge13" class="edge">
<title>Node44&#45;&gt;Node57</title>
<path fill="none" stroke="#191970" d="M52.9191,-280.1767C59.8103,-240.715 80.8642,-152.1663 136,-106 145.8299,-97.7692 158.5322,-92.8338 170.9704,-89.9008"/>
<polygon fill="#191970" stroke="#191970" points="49.4502,-279.7037 51.3037,-290.1351 56.3599,-280.8246 49.4502,-279.7037"/>
</g>
<!-- Node64 -->
<g id="node21" class="node">
<title>Node64</title>
<g id="a_node21"><a xlink:href="classFilComparison.html#af7dc169cdedf15e6b8dc355cc973e90f" target="_top" xlink:title="This method overrides Updater::compute_impl. ">
<polygon fill="#ffffff" stroke="#000000" points="144.5,-38.5 144.5,-57.5 290.5,-57.5 290.5,-38.5 144.5,-38.5"/>
<text text-anchor="middle" x="217.5" y="-45.5" font-family="Helvetica,sans-Serif" font-size="10.00" fill="#000000">FilComparison::compute_impl</text>
</a>
</g>
</g>
<!-- Node44&#45;&gt;Node64 -->
<g id="edge23" class="edge">
<title>Node44&#45;&gt;Node64</title>
<path fill="none" stroke="#191970" d="M51.2316,-279.9904C55.1356,-234.7766 71.1684,-124.221 136,-67 140.3571,-63.1544 145.3424,-60.0466 150.6531,-57.5401"/>
<polygon fill="#191970" stroke="#191970" points="47.7211,-280.0005 50.4637,-290.2342 54.7016,-280.5239 47.7211,-280.0005"/>
</g>
<!-- Node65 -->
<g id="node22" class="node">
<title>Node65</title>
<g id="a_node22"><a xlink:href="classFilSet.html#a0335614b1856870777ab1af370406fd2" target="_top" xlink:title="This method overrides Updater::compute_impl. ">
<polygon fill="#ffffff" stroke="#000000" points="163,-.5 163,-19.5 272,-19.5 272,-.5 163,-.5"/>
<text text-anchor="middle" x="217.5" y="-7.5" font-family="Helvetica,sans-Serif" font-size="10.00" fill="#000000">FilSet::compute_impl</text>
</a>
</g>
</g>
<!-- Node44&#45;&gt;Node65 -->
<g id="edge24" class="edge">
<title>Node44&#45;&gt;Node65</title>
<path fill="none" stroke="#191970" d="M53.6416,-280.3273C64.4442,-224.0507 97.9404,-64.192 136,-29 143.4671,-22.0955 152.9443,-17.5462 162.7739,-14.5805"/>
<polygon fill="#191970" stroke="#191970" points="50.1542,-279.9333 51.738,-290.4091 57.0327,-281.2321 50.1542,-279.9333"/>
</g>
<!-- Node58 -->
<g id="node15" class="node">
<title>Node58</title>
<g id="a_node15"><a xlink:href="classElement.html#a8257b02b1e3b208f193b35d5d47b9af8" target="_top" xlink:title="Get integer values stored in Element::data of this object as a one&#45;dimensional Numpy&#45;Array. ">
<polygon fill="#ffffff" stroke="#000000" points="339.5,-133.5 339.5,-152.5 458.5,-152.5 458.5,-133.5 339.5,-133.5"/>
<text text-anchor="middle" x="399" y="-140.5" font-family="Helvetica,sans-Serif" font-size="10.00" fill="#000000">Element::get_1d_int_py</text>
</a>
</g>
</g>
<!-- Node57&#45;&gt;Node58 -->
<g id="edge14" class="edge">
<title>Node57&#45;&gt;Node58</title>
<path fill="none" stroke="#191970" d="M274.0158,-98.1287C282.4832,-100.4452 291.0385,-103.0745 299,-106 315.7908,-112.17 318.3619,-117.4293 335,-124 343.8398,-127.491 353.583,-130.695 362.7439,-133.4376"/>
<polygon fill="#191970" stroke="#191970" points="274.7169,-94.6945 264.157,-95.5541 272.9481,-101.4674 274.7169,-94.6945"/>
</g>
<!-- Node61 -->
<g id="node18" class="node">
<title>Node61</title>
<g id="a_node18"><a xlink:href="classElement.html#a3f11848589faad4cbca8119385887713" target="_top" xlink:title="Get float values stored in Element::data of this object as a one&#45;dimensional Numpy&#45;Array. ">
<polygon fill="#ffffff" stroke="#000000" points="335,-95.5 335,-114.5 463,-114.5 463,-95.5 335,-95.5"/>
<text text-anchor="middle" x="399" y="-102.5" font-family="Helvetica,sans-Serif" font-size="10.00" fill="#000000">Element::get_1d_float_py</text>
</a>
</g>
</g>
<!-- Node57&#45;&gt;Node61 -->
<g id="edge17" class="edge">
<title>Node57&#45;&gt;Node61</title>
<path fill="none" stroke="#191970" d="M274.3606,-91.9523C293.602,-93.9666 315.217,-96.2293 334.976,-98.2978"/>
<polygon fill="#191970" stroke="#191970" points="274.5508,-88.4532 264.2408,-90.893 273.822,-95.4152 274.5508,-88.4532"/>
</g>
<!-- Node62 -->
<g id="node19" class="node">
<title>Node62</title>
<g id="a_node19"><a xlink:href="classElement.html#a8e8245fb94b6417e3e804e6bfdf2f906" target="_top" xlink:title="Get integer values stored in Element::data of this object as a two&#45;dimensional Numpy&#45;Array. ">
<polygon fill="#ffffff" stroke="#000000" points="339.5,-57.5 339.5,-76.5 458.5,-76.5 458.5,-57.5 339.5,-57.5"/>
<text text-anchor="middle" x="399" y="-64.5" font-family="Helvetica,sans-Serif" font-size="10.00" fill="#000000">Element::get_2d_int_py</text>
</a>
</g>
</g>
<!-- Node57&#45;&gt;Node62 -->
<g id="edge19" class="edge">
<title>Node57&#45;&gt;Node62</title>
<path fill="none" stroke="#191970" d="M274.4528,-80.038C295.111,-77.8754 318.4954,-75.4275 339.3777,-73.2415"/>
<polygon fill="#191970" stroke="#191970" points="273.822,-76.5848 264.2408,-81.107 274.5508,-83.5468 273.822,-76.5848"/>
</g>
<!-- Node63 -->
<g id="node20" class="node">
<title>Node63</title>
<g id="a_node20"><a xlink:href="classElement.html#a6a62280eadd3d4e6bfe8c43082797733" target="_top" xlink:title="Get float values stored in Element::data of this object as a two&#45;dimensional Numpy&#45;Array. ">
<polygon fill="#ffffff" stroke="#000000" points="335,-19.5 335,-38.5 463,-38.5 463,-19.5 335,-19.5"/>
<text text-anchor="middle" x="399" y="-26.5" font-family="Helvetica,sans-Serif" font-size="10.00" fill="#000000">Element::get_2d_float_py</text>
</a>
</g>
</g>
<!-- Node57&#45;&gt;Node63 -->
<g id="edge21" class="edge">
<title>Node57&#45;&gt;Node63</title>
<path fill="none" stroke="#191970" d="M274.0826,-74.7987C282.5408,-72.5541 291.0758,-69.9585 299,-67 315.9489,-60.672 318.247,-54.8298 335,-48 343.6936,-44.4559 353.293,-41.2523 362.3546,-38.5287"/>
<polygon fill="#191970" stroke="#191970" points="273.076,-71.4428 264.2298,-77.2733 274.7812,-78.2319 273.076,-71.4428"/>
</g>
<!-- Node59 -->
<g id="node16" class="node">
<title>Node59</title>
<g id="a_node16"><a xlink:href="namespacepybind.html#aa960fe0db10e19d7b7b60784a7e81be0" target="_top" xlink:title="Bind Element class to Python. ">
<polygon fill="#ffffff" stroke="#000000" points="499,-76.5 499,-95.5 600,-95.5 600,-76.5 499,-76.5"/>
<text text-anchor="middle" x="549.5" y="-83.5" font-family="Helvetica,sans-Serif" font-size="10.00" fill="#000000">pybind::py_element</text>
</a>
</g>
</g>
<!-- Node58&#45;&gt;Node59 -->
<g id="edge15" class="edge">
<title>Node58&#45;&gt;Node59</title>
<path fill="none" stroke="#191970" d="M444.0686,-130.3954C450.4658,-128.3818 456.9295,-126.2246 463,-124 486.2556,-115.4779 512.1716,-103.7884 529.5185,-95.6331"/>
<polygon fill="#191970" stroke="#191970" points="442.6771,-127.1607 434.1364,-133.4304 444.7228,-133.8552 442.6771,-127.1607"/>
</g>
<!-- Node60 -->
<g id="node17" class="node">
<title>Node60</title>
<g id="a_node17"><a xlink:href="pybind_8h.html#a4714c4a855ebb82892410d5254e9ccdc" target="_top" xlink:title="Macro for generating Python module named _ppap4lmp. ">
<polygon fill="#ffffff" stroke="#000000" points="636,-76.5 636,-95.5 746,-95.5 746,-76.5 636,-76.5"/>
<text text-anchor="middle" x="691" y="-83.5" font-family="Helvetica,sans-Serif" font-size="10.00" fill="#000000">PYBIND11_MODULE</text>
</a>
</g>
</g>
<!-- Node59&#45;&gt;Node60 -->
<g id="edge16" class="edge">
<title>Node59&#45;&gt;Node60</title>
<path fill="none" stroke="#191970" d="M610.3877,-86C618.8576,-86 627.5199,-86 635.8761,-86"/>
<polygon fill="#191970" stroke="#191970" points="610.1851,-82.5001 600.1851,-86 610.185,-89.5001 610.1851,-82.5001"/>
</g>
<!-- Node61&#45;&gt;Node59 -->
<g id="edge18" class="edge">
<title>Node61&#45;&gt;Node59</title>
<path fill="none" stroke="#191970" d="M473.2998,-95.62C481.8797,-94.5368 490.4761,-93.4515 498.6427,-92.4205"/>
<polygon fill="#191970" stroke="#191970" points="472.7449,-92.1621 463.2621,-96.8872 473.6218,-99.107 472.7449,-92.1621"/>
</g>
<!-- Node62&#45;&gt;Node59 -->
<g id="edge20" class="edge">
<title>Node62&#45;&gt;Node59</title>
<path fill="none" stroke="#191970" d="M468.971,-75.8336C479.0981,-77.1121 489.3533,-78.4067 498.9981,-79.6243"/>
<polygon fill="#191970" stroke="#191970" points="469.2737,-72.3441 458.914,-74.5639 468.3969,-79.2889 469.2737,-72.3441"/>
</g>
<!-- Node63&#45;&gt;Node59 -->
<g id="edge22" class="edge">
<title>Node63&#45;&gt;Node59</title>
<path fill="none" stroke="#191970" d="M444.0686,-41.6046C450.4658,-43.6182 456.9295,-45.7754 463,-48 486.2556,-56.5221 512.1716,-68.2116 529.5185,-76.3669"/>
<polygon fill="#191970" stroke="#191970" points="444.7228,-38.1448 434.1364,-38.5696 442.6771,-44.8393 444.7228,-38.1448"/>
</g>
</g>
</svg>
