<?xml version="1.0" encoding="UTF-8" standalone="no"?>
<!DOCTYPE svg PUBLIC "-//W3C//DTD SVG 1.1//EN"
 "http://www.w3.org/Graphics/SVG/1.1/DTD/svg11.dtd">
<!-- Generated by graphviz version 2.40.1 (20161225.0304)
 -->
<!-- Title: Generator::merge_update_chain Pages: 1 -->
<svg width="436pt" height="104pt"
 viewBox="0.00 0.00 436.00 104.00" xmlns="http://www.w3.org/2000/svg" xmlns:xlink="http://www.w3.org/1999/xlink">
<g id="graph0" class="graph" transform="scale(1 1) rotate(0) translate(4 100)">
<title>Generator::merge_update_chain</title>
<polygon fill="#ffffff" stroke="transparent" points="-4,4 -4,-100 432,-100 432,4 -4,4"/>
<!-- Node21 -->
<g id="node1" class="node">
<title>Node21</title>
<polygon fill="#bfbfbf" stroke="#000000" points="0,-33 0,-63 127,-63 127,-33 0,-33"/>
<text text-anchor="start" x="8" y="-51" font-family="Helvetica,sans-Serif" font-size="10.00" fill="#000000">Generator::merge_update</text>
<text text-anchor="middle" x="63.5" y="-40" font-family="Helvetica,sans-Serif" font-size="10.00" fill="#000000">_chain</text>
</g>
<!-- Node22 -->
<g id="node2" class="node">
<title>Node22</title>
<g id="a_node2"><a xlink:href="classElement.html#adc43106f0ea5e11d03105c40df1fe0a8" target="_top" xlink:title="Append an Updater object to this Element object. ">
<polygon fill="#ffffff" stroke="#000000" points="163,-76.5 163,-95.5 291,-95.5 291,-76.5 163,-76.5"/>
<text text-anchor="middle" x="227" y="-83.5" font-family="Helvetica,sans-Serif" font-size="10.00" fill="#000000">Element::append_updater</text>
</a>
</g>
</g>
<!-- Node21&#45;&gt;Node22 -->
<g id="edge1" class="edge">
<title>Node21&#45;&gt;Node22</title>
<path fill="none" stroke="#191970" d="M136.9881,-65.0798C153.7727,-68.9808 171.0265,-72.9909 185.8806,-76.4432"/>
<polygon fill="#191970" stroke="#191970" points="137.7143,-61.6554 127.1815,-62.8006 136.1296,-68.4736 137.7143,-61.6554"/>
</g>
<!-- Node24 -->
<g id="node4" class="node">
<title>Node24</title>
<g id="a_node4"><a xlink:href="classGenDict.html#a658c404044ae2dbf9bfe1564a6f2977c" target="_top" xlink:title="Constructor of GenDict class. ">
<polygon fill="#ffffff" stroke="#000000" points="180.5,-38.5 180.5,-57.5 273.5,-57.5 273.5,-38.5 180.5,-38.5"/>
<text text-anchor="middle" x="227" y="-45.5" font-family="Helvetica,sans-Serif" font-size="10.00" fill="#000000">GenDict::GenDict</text>
</a>
</g>
</g>
<!-- Node21&#45;&gt;Node24 -->
<g id="edge3" class="edge">
<title>Node21&#45;&gt;Node24</title>
<path fill="none" stroke="#191970" d="M137.2705,-48C151.9576,-48 166.9915,-48 180.4517,-48"/>
<polygon fill="#191970" stroke="#191970" points="137.1816,-44.5001 127.1815,-48 137.1815,-51.5001 137.1816,-44.5001"/>
</g>
<!-- Node25 -->
<g id="node5" class="node">
<title>Node25</title>
<g id="a_node5"><a xlink:href="classGenList.html#a52312e9310f32ffe141e661409ab3a59" target="_top" xlink:title="Constructor of GenList class. ">
<polygon fill="#ffffff" stroke="#000000" points="182,-.5 182,-19.5 272,-19.5 272,-.5 182,-.5"/>
<text text-anchor="middle" x="227" y="-7.5" font-family="Helvetica,sans-Serif" font-size="10.00" fill="#000000">GenList::GenList</text>
</a>
</g>
</g>
<!-- Node21&#45;&gt;Node25 -->
<g id="edge4" class="edge">
<title>Node21&#45;&gt;Node25</title>
<path fill="none" stroke="#191970" d="M136.9881,-30.9202C153.7727,-27.0192 171.0265,-23.0091 185.8806,-19.5568"/>
<polygon fill="#191970" stroke="#191970" points="136.1296,-27.5264 127.1815,-33.1994 137.7143,-34.3446 136.1296,-27.5264"/>
</g>
<!-- Node23 -->
<g id="node3" class="node">
<title>Node23</title>
<g id="a_node3"><a xlink:href="namespacepybind.html#aa960fe0db10e19d7b7b60784a7e81be0" target="_top" xlink:title="Bind Element class to Python. ">
<polygon fill="#ffffff" stroke="#000000" points="327,-76.5 327,-95.5 428,-95.5 428,-76.5 327,-76.5"/>
<text text-anchor="middle" x="377.5" y="-83.5" font-family="Helvetica,sans-Serif" font-size="10.00" fill="#000000">pybind::py_element</text>
</a>
</g>
</g>
<!-- Node22&#45;&gt;Node23 -->
<g id="edge2" class="edge">
<title>Node22&#45;&gt;Node23</title>
<path fill="none" stroke="#191970" d="M301.2998,-86C309.8797,-86 318.4761,-86 326.6427,-86"/>
<polygon fill="#191970" stroke="#191970" points="301.2621,-82.5001 291.2621,-86 301.2621,-89.5001 301.2621,-82.5001"/>
</g>
</g>
</svg>
