<?xml version="1.0" encoding="UTF-8" standalone="no"?>
<!DOCTYPE svg PUBLIC "-//W3C//DTD SVG 1.1//EN"
 "http://www.w3.org/Graphics/SVG/1.1/DTD/svg11.dtd">
<!-- Generated by graphviz version 2.40.1 (20161225.0304)
 -->
<!-- Title: Processor::register_generator Pages: 1 -->
<svg width="294pt" height="214pt"
 viewBox="0.00 0.00 294.00 214.00" xmlns="http://www.w3.org/2000/svg" xmlns:xlink="http://www.w3.org/1999/xlink">
<g id="graph0" class="graph" transform="scale(1 1) rotate(0) translate(4 210)">
<title>Processor::register_generator</title>
<polygon fill="#ffffff" stroke="transparent" points="-4,4 -4,-210 290,-210 290,4 -4,4"/>
<!-- Node8 -->
<g id="node1" class="node">
<title>Node8</title>
<polygon fill="#bfbfbf" stroke="#000000" points="0,-88 0,-118 99,-118 99,-88 0,-88"/>
<text text-anchor="start" x="8" y="-106" font-family="Helvetica,sans-Serif" font-size="10.00" fill="#000000">Processor::register</text>
<text text-anchor="middle" x="49.5" y="-95" font-family="Helvetica,sans-Serif" font-size="10.00" fill="#000000">_generator</text>
</g>
<!-- Node9 -->
<g id="node2" class="node">
<title>Node9</title>
<g id="a_node2"><a xlink:href="classProData.html#afcff6bc44862d6f5a42877d1623606b2" target="_top" xlink:title="Constructor of ProData class for one Element object. ">
<polygon fill="#ffffff" stroke="#000000" points="164,-186.5 164,-205.5 257,-205.5 257,-186.5 164,-186.5"/>
<text text-anchor="middle" x="210.5" y="-193.5" font-family="Helvetica,sans-Serif" font-size="10.00" fill="#000000">ProData::ProData</text>
</a>
</g>
</g>
<!-- Node8&#45;&gt;Node9 -->
<g id="edge1" class="edge">
<title>Node8&#45;&gt;Node9</title>
<path fill="none" stroke="#191970" d="M70.0407,-125.7703C86.1677,-142.3105 110.0095,-163.9904 135,-177 143.8719,-181.6186 153.9233,-185.1546 163.731,-187.8481"/>
<polygon fill="#191970" stroke="#191970" points="72.1988,-122.9605 62.7723,-118.124 67.1253,-127.7833 72.1988,-122.9605"/>
</g>
<!-- Node10 -->
<g id="node3" class="node">
<title>Node10</title>
<g id="a_node3"><a xlink:href="classProDistanceInMolecule.html#ac6ce74799e397e16310818529d2d1df3" target="_top" xlink:title="Constructor of ProDistanceInMolecule class for a snapshot of simulation. ">
<polygon fill="#ffffff" stroke="#000000" points="149,-137 149,-167 272,-167 272,-137 149,-137"/>
<text text-anchor="start" x="157" y="-155" font-family="Helvetica,sans-Serif" font-size="10.00" fill="#000000">ProDistanceInMolecule</text>
<text text-anchor="middle" x="210.5" y="-144" font-family="Helvetica,sans-Serif" font-size="10.00" fill="#000000">::ProDistanceInMolecule</text>
</a>
</g>
</g>
<!-- Node8&#45;&gt;Node10 -->
<g id="edge2" class="edge">
<title>Node8&#45;&gt;Node10</title>
<path fill="none" stroke="#191970" d="M109.0139,-121.1129C126.1301,-126.3222 144.6072,-131.9457 161.0448,-136.9484"/>
<polygon fill="#191970" stroke="#191970" points="109.7049,-117.6648 99.119,-118.1014 107.6667,-124.3615 109.7049,-117.6648"/>
</g>
<!-- Node11 -->
<g id="node4" class="node">
<title>Node11</title>
<g id="a_node4"><a xlink:href="classProRadialDistributionFunction.html#a7721bce6ef774785881d3cf2e6ac02ad" target="_top" xlink:title="Constructor of ProRadialDistributionFunction class for a snapshot of simulation. ">
<polygon fill="#ffffff" stroke="#000000" points="135,-88 135,-118 286,-118 286,-88 135,-88"/>
<text text-anchor="start" x="143" y="-106" font-family="Helvetica,sans-Serif" font-size="10.00" fill="#000000">ProRadialDistributionFunction</text>
<text text-anchor="middle" x="210.5" y="-95" font-family="Helvetica,sans-Serif" font-size="10.00" fill="#000000">::ProRadialDistributionFunction</text>
</a>
</g>
</g>
<!-- Node8&#45;&gt;Node11 -->
<g id="edge3" class="edge">
<title>Node8&#45;&gt;Node11</title>
<path fill="none" stroke="#191970" d="M109.1896,-103C117.6003,-103 126.3363,-103 134.9949,-103"/>
<polygon fill="#191970" stroke="#191970" points="109.1191,-99.5001 99.119,-103 109.119,-106.5001 109.1191,-99.5001"/>
</g>
<!-- Node12 -->
<g id="node5" class="node">
<title>Node12</title>
<g id="a_node5"><a xlink:href="classProThicknessProfile.html#a2c0c2465604bcef71909fc19d3d688ae" target="_top" xlink:title="Constructor of ProThicknessProfile class for a snapshot of simulation. ">
<polygon fill="#ffffff" stroke="#000000" points="155.5,-39 155.5,-69 265.5,-69 265.5,-39 155.5,-39"/>
<text text-anchor="start" x="163.5" y="-57" font-family="Helvetica,sans-Serif" font-size="10.00" fill="#000000">ProThicknessProfile</text>
<text text-anchor="middle" x="210.5" y="-46" font-family="Helvetica,sans-Serif" font-size="10.00" fill="#000000">::ProThicknessProfile</text>
</a>
</g>
</g>
<!-- Node8&#45;&gt;Node12 -->
<g id="edge4" class="edge">
<title>Node8&#45;&gt;Node12</title>
<path fill="none" stroke="#191970" d="M109.0139,-84.8871C126.1301,-79.6778 144.6072,-74.0543 161.0448,-69.0516"/>
<polygon fill="#191970" stroke="#191970" points="107.6667,-81.6385 99.119,-87.8986 109.7049,-88.3352 107.6667,-81.6385"/>
</g>
<!-- Node13 -->
<g id="node6" class="node">
<title>Node13</title>
<g id="a_node6"><a xlink:href="classProValueArray.html#a61336d1a34c34cdaef5845a244fbc5ed" target="_top" xlink:title="Constructor of ProValueArray class for one Element object. ">
<polygon fill="#ffffff" stroke="#000000" points="136,-.5 136,-19.5 285,-19.5 285,-.5 136,-.5"/>
<text text-anchor="middle" x="210.5" y="-7.5" font-family="Helvetica,sans-Serif" font-size="10.00" fill="#000000">ProValueArray::ProValueArray</text>
</a>
</g>
</g>
<!-- Node8&#45;&gt;Node13 -->
<g id="edge5" class="edge">
<title>Node8&#45;&gt;Node13</title>
<path fill="none" stroke="#191970" d="M70.4371,-80.3439C86.6126,-64.1158 110.3391,-42.9274 135,-30 143.1666,-25.719 152.3217,-22.3012 161.364,-19.59"/>
<polygon fill="#191970" stroke="#191970" points="67.5956,-78.2454 63.1319,-87.8541 72.6134,-83.1263 67.5956,-78.2454"/>
</g>
</g>
</svg>
