<?xml version="1.0" encoding="UTF-8" standalone="no"?>
<!DOCTYPE svg PUBLIC "-//W3C//DTD SVG 1.1//EN"
 "http://www.w3.org/Graphics/SVG/1.1/DTD/svg11.dtd">
<!-- Generated by graphviz version 2.40.1 (20161225.0304)
 -->
<!-- Title: StaBeads Pages: 1 -->
<svg width="160pt" height="590pt"
 viewBox="0.00 0.00 160.00 590.00" xmlns="http://www.w3.org/2000/svg" xmlns:xlink="http://www.w3.org/1999/xlink">
<g id="graph0" class="graph" transform="scale(1 1) rotate(0) translate(4 586)">
<title>StaBeads</title>
<polygon fill="#ffffff" stroke="transparent" points="-4,4 -4,-586 156,-586 156,4 -4,4"/>
<!-- Node0 -->
<g id="node1" class="node">
<title>Node0</title>
<polygon fill="#bfbfbf" stroke="#000000" points="10.5,-.5 10.5,-112.5 141.5,-112.5 141.5,-.5 10.5,-.5"/>
<text text-anchor="middle" x="76" y="-100.5" font-family="Helvetica,sans-Serif" font-size="10.00" fill="#000000">StaBeads</text>
<polyline fill="none" stroke="#000000" points="10.5,-93.5 141.5,-93.5 "/>
<text text-anchor="start" x="18.5" y="-81.5" font-family="Helvetica,sans-Serif" font-size="10.00" fill="#000000">&#45; mol_type_to_abst_beads</text>
<polyline fill="none" stroke="#000000" points="10.5,-74.5 141.5,-74.5 "/>
<text text-anchor="start" x="18.5" y="-62.5" font-family="Helvetica,sans-Serif" font-size="10.00" fill="#000000">+ StaBeads()</text>
<text text-anchor="start" x="18.5" y="-51.5" font-family="Helvetica,sans-Serif" font-size="10.00" fill="#000000">+ StaBeads()</text>
<text text-anchor="start" x="18.5" y="-40.5" font-family="Helvetica,sans-Serif" font-size="10.00" fill="#000000">+ ~StaBeads()</text>
<text text-anchor="start" x="18.5" y="-29.5" font-family="Helvetica,sans-Serif" font-size="10.00" fill="#000000"># compute_impl()</text>
<text text-anchor="start" x="18.5" y="-18.5" font-family="Helvetica,sans-Serif" font-size="10.00" fill="#000000">&#45; check_mol_type_to_abst</text>
<text text-anchor="start" x="18.5" y="-7.5" font-family="Helvetica,sans-Serif" font-size="10.00" fill="#000000">_beads()</text>
</g>
<!-- Node1 -->
<g id="node2" class="node">
<title>Node1</title>
<g id="a_node2"><a xlink:href="classStarter.html" target="_top" xlink:title="Starter sets some properties to an empty Element object. ">
<polygon fill="#ffffff" stroke="#000000" points="27,-149.5 27,-239.5 125,-239.5 125,-149.5 27,-149.5"/>
<text text-anchor="middle" x="76" y="-227.5" font-family="Helvetica,sans-Serif" font-size="10.00" fill="#000000">Starter</text>
<polyline fill="none" stroke="#000000" points="27,-220.5 125,-220.5 "/>
<text text-anchor="start" x="35" y="-208.5" font-family="Helvetica,sans-Serif" font-size="10.00" fill="#000000"># do_sorting_by_id</text>
<polyline fill="none" stroke="#000000" points="27,-201.5 125,-201.5 "/>
<text text-anchor="start" x="35" y="-189.5" font-family="Helvetica,sans-Serif" font-size="10.00" fill="#000000">+ ~Starter()</text>
<text text-anchor="start" x="35" y="-178.5" font-family="Helvetica,sans-Serif" font-size="10.00" fill="#000000">+ compute()</text>
<text text-anchor="start" x="35" y="-167.5" font-family="Helvetica,sans-Serif" font-size="10.00" fill="#000000">+ Updater()</text>
<text text-anchor="start" x="35" y="-156.5" font-family="Helvetica,sans-Serif" font-size="10.00" fill="#000000">&#45; sort_by_id()</text>
</a>
</g>
</g>
<!-- Node1&#45;&gt;Node0 -->
<g id="edge1" class="edge">
<title>Node1&#45;&gt;Node0</title>
<path fill="none" stroke="#191970" d="M76,-139.2882C76,-130.5993 76,-121.6063 76,-112.8911"/>
<polygon fill="none" stroke="#191970" points="72.5001,-139.3136 76,-149.3136 79.5001,-139.3137 72.5001,-139.3136"/>
</g>
<!-- Node2 -->
<g id="node3" class="node">
<title>Node2</title>
<g id="a_node3"><a xlink:href="classUpdater.html" target="_top" xlink:title="Updater is an abstract class to update data held by an Element object. ">
<polygon fill="#ffffff" stroke="#000000" points="0,-276.5 0,-476.5 152,-476.5 152,-276.5 0,-276.5"/>
<text text-anchor="middle" x="76" y="-464.5" font-family="Helvetica,sans-Serif" font-size="10.00" fill="#000000">Updater</text>
<polyline fill="none" stroke="#000000" points="0,-457.5 152,-457.5 "/>
<text text-anchor="start" x="8" y="-445.5" font-family="Helvetica,sans-Serif" font-size="10.00" fill="#000000"># ext_generator</text>
<text text-anchor="start" x="8" y="-434.5" font-family="Helvetica,sans-Serif" font-size="10.00" fill="#000000"># check_required_keys</text>
<text text-anchor="start" x="8" y="-423.5" font-family="Helvetica,sans-Serif" font-size="10.00" fill="#000000"># check_optional_keys</text>
<text text-anchor="start" x="8" y="-412.5" font-family="Helvetica,sans-Serif" font-size="10.00" fill="#000000">&#45; skippable_elementids</text>
<text text-anchor="start" x="8" y="-401.5" font-family="Helvetica,sans-Serif" font-size="10.00" fill="#000000">&#45; omp_lock</text>
<polyline fill="none" stroke="#000000" points="0,-394.5 152,-394.5 "/>
<text text-anchor="start" x="8" y="-382.5" font-family="Helvetica,sans-Serif" font-size="10.00" fill="#000000">+ Updater()</text>
<text text-anchor="start" x="8" y="-371.5" font-family="Helvetica,sans-Serif" font-size="10.00" fill="#000000">+ ~Updater()</text>
<text text-anchor="start" x="8" y="-360.5" font-family="Helvetica,sans-Serif" font-size="10.00" fill="#000000">+ compute()</text>
<text text-anchor="start" x="8" y="-349.5" font-family="Helvetica,sans-Serif" font-size="10.00" fill="#000000">+ remove_from_skippable</text>
<text text-anchor="start" x="8" y="-338.5" font-family="Helvetica,sans-Serif" font-size="10.00" fill="#000000">_elementids()</text>
<text text-anchor="start" x="8" y="-327.5" font-family="Helvetica,sans-Serif" font-size="10.00" fill="#000000">+ get_ext_generator()</text>
<text text-anchor="start" x="8" y="-316.5" font-family="Helvetica,sans-Serif" font-size="10.00" fill="#000000"># compute_impl()</text>
<text text-anchor="start" x="8" y="-305.5" font-family="Helvetica,sans-Serif" font-size="10.00" fill="#000000"># make_check_required_keys()</text>
<text text-anchor="start" x="8" y="-294.5" font-family="Helvetica,sans-Serif" font-size="10.00" fill="#000000"># make_check_optional_keys()</text>
<text text-anchor="start" x="8" y="-283.5" font-family="Helvetica,sans-Serif" font-size="10.00" fill="#000000"># check_update_requirest_for()</text>
</a>
</g>
</g>
<!-- Node2&#45;&gt;Node1 -->
<g id="edge2" class="edge">
<title>Node2&#45;&gt;Node1</title>
<path fill="none" stroke="#191970" d="M76,-266.252C76,-256.9388 76,-247.9075 76,-239.5728"/>
<polygon fill="none" stroke="#191970" points="72.5001,-266.4488 76,-276.4489 79.5001,-266.4489 72.5001,-266.4488"/>
</g>
<!-- Node3 -->
<g id="node4" class="node">
<title>Node3</title>
<polygon fill="#ffffff" stroke="#bfbfbf" points="19,-513.5 19,-581.5 133,-581.5 133,-513.5 19,-513.5"/>
<text text-anchor="start" x="27" y="-569.5" font-family="Helvetica,sans-Serif" font-size="10.00" fill="#000000">std::enable_shared</text>
<text text-anchor="middle" x="76" y="-558.5" font-family="Helvetica,sans-Serif" font-size="10.00" fill="#000000">_from_this&lt; Updater &gt;</text>
<polyline fill="none" stroke="#bfbfbf" points="19,-551.5 133,-551.5 "/>
<text text-anchor="middle" x="76" y="-539.5" font-family="Helvetica,sans-Serif" font-size="10.00" fill="#000000"> </text>
<polyline fill="none" stroke="#bfbfbf" points="19,-532.5 133,-532.5 "/>
<text text-anchor="middle" x="76" y="-520.5" font-family="Helvetica,sans-Serif" font-size="10.00" fill="#000000"> </text>
</g>
<!-- Node3&#45;&gt;Node2 -->
<g id="edge3" class="edge">
<title>Node3&#45;&gt;Node2</title>
<path fill="none" stroke="#191970" d="M76,-503.1502C76,-494.816 76,-485.7968 76,-476.5434"/>
<polygon fill="none" stroke="#191970" points="72.5001,-503.3065 76,-513.3066 79.5001,-503.3066 72.5001,-503.3065"/>
</g>
</g>
</svg>
