<?xml version="1.0" encoding="UTF-8" standalone="no"?>
<!DOCTYPE svg PUBLIC "-//W3C//DTD SVG 1.1//EN"
 "http://www.w3.org/Graphics/SVG/1.1/DTD/svg11.dtd">
<!-- Generated by graphviz version 2.40.1 (20161225.0304)
 -->
<!-- Title: src/core/element.h Pages: 1 -->
<svg width="535pt" height="196pt"
 viewBox="0.00 0.00 535.00 196.00" xmlns="http://www.w3.org/2000/svg" xmlns:xlink="http://www.w3.org/1999/xlink">
<g id="graph0" class="graph" transform="scale(1 1) rotate(0) translate(4 192)">
<title>src/core/element.h</title>
<polygon fill="#ffffff" stroke="transparent" points="-4,4 -4,-192 531,-192 531,4 -4,4"/>
<!-- Node0 -->
<g id="node1" class="node">
<title>Node0</title>
<polygon fill="#bfbfbf" stroke="#000000" points="141,-168.5 141,-187.5 239,-187.5 239,-168.5 141,-168.5"/>
<text text-anchor="middle" x="190" y="-175.5" font-family="Helvetica,sans-Serif" font-size="10.00" fill="#000000">src/core/element.h</text>
</g>
<!-- Node1 -->
<g id="node2" class="node">
<title>Node1</title>
<polygon fill="#ffffff" stroke="#bfbfbf" points="0,-112.5 0,-131.5 44,-131.5 44,-112.5 0,-112.5"/>
<text text-anchor="middle" x="22" y="-119.5" font-family="Helvetica,sans-Serif" font-size="10.00" fill="#000000">omp.h</text>
</g>
<!-- Node0&#45;&gt;Node1 -->
<g id="edge1" class="edge">
<title>Node0&#45;&gt;Node1</title>
<path fill="none" stroke="#191970" d="M161.1198,-168.3733C131.282,-158.4273 84.8315,-142.9438 53.9209,-132.6403"/>
<polygon fill="#191970" stroke="#191970" points="54.6741,-129.2021 44.0804,-129.3601 52.4604,-135.8429 54.6741,-129.2021"/>
</g>
<!-- Node2 -->
<g id="node3" class="node">
<title>Node2</title>
<g id="a_node3"><a xlink:href="eigen_8h.html" target="_top" xlink:title="This file includes Eigen and defines some aliases for the Eigen&#45; Vector, Matrix and Array...">
<polygon fill="#ffffff" stroke="#000000" points="62.5,-112.5 62.5,-131.5 133.5,-131.5 133.5,-112.5 62.5,-112.5"/>
<text text-anchor="middle" x="98" y="-119.5" font-family="Helvetica,sans-Serif" font-size="10.00" fill="#000000">alias/eigen.h</text>
</a>
</g>
</g>
<!-- Node0&#45;&gt;Node2 -->
<g id="edge2" class="edge">
<title>Node0&#45;&gt;Node2</title>
<path fill="none" stroke="#191970" d="M173.9748,-168.2455C159.8592,-159.6534 139.0737,-147.0014 122.8101,-137.1018"/>
<polygon fill="#191970" stroke="#191970" points="124.2034,-133.8525 113.8415,-131.6427 120.5637,-139.8319 124.2034,-133.8525"/>
</g>
<!-- Node4 -->
<g id="node5" class="node">
<title>Node4</title>
<g id="a_node5"><a xlink:href="alias_2pybind_8h.html" target="_top" xlink:title="This file includes pybind11 and defines an alias for the namespace pybind11. ">
<polygon fill="#ffffff" stroke="#000000" points="151.5,-112.5 151.5,-131.5 228.5,-131.5 228.5,-112.5 151.5,-112.5"/>
<text text-anchor="middle" x="190" y="-119.5" font-family="Helvetica,sans-Serif" font-size="10.00" fill="#000000">alias/pybind.h</text>
</a>
</g>
</g>
<!-- Node0&#45;&gt;Node4 -->
<g id="edge4" class="edge">
<title>Node0&#45;&gt;Node4</title>
<path fill="none" stroke="#191970" d="M190,-168.2455C190,-160.9382 190,-150.6944 190,-141.7046"/>
<polygon fill="#191970" stroke="#191970" points="193.5001,-141.6426 190,-131.6427 186.5001,-141.6427 193.5001,-141.6426"/>
</g>
<!-- Node6 -->
<g id="node7" class="node">
<title>Node6</title>
<g id="a_node7"><a xlink:href="generator_8h.html" target="_top" xlink:title="This file has a definition of the Generator class, which is one of the cores of this program...">
<polygon fill="#ffffff" stroke="#000000" points="361.5,-112.5 361.5,-131.5 448.5,-131.5 448.5,-112.5 361.5,-112.5"/>
<text text-anchor="middle" x="405" y="-119.5" font-family="Helvetica,sans-Serif" font-size="10.00" fill="#000000">core/generator.h</text>
</a>
</g>
</g>
<!-- Node0&#45;&gt;Node6 -->
<g id="edge6" class="edge">
<title>Node0&#45;&gt;Node6</title>
<path fill="none" stroke="#191970" d="M226.9598,-168.3733C263.4075,-158.8799 319.2246,-144.3415 358.6289,-134.0781"/>
<polygon fill="#191970" stroke="#191970" points="359.7276,-137.4087 368.5225,-131.5011 357.9631,-130.6348 359.7276,-137.4087"/>
</g>
<!-- Node15 -->
<g id="node16" class="node">
<title>Node15</title>
<g id="a_node16"><a xlink:href="data__keys_8h.html" target="_top" xlink:title="... ">
<polygon fill="#ffffff" stroke="#000000" points="247,-112.5 247,-131.5 343,-131.5 343,-112.5 247,-112.5"/>
<text text-anchor="middle" x="295" y="-119.5" font-family="Helvetica,sans-Serif" font-size="10.00" fill="#000000">class/data_keys.h</text>
</a>
</g>
</g>
<!-- Node0&#45;&gt;Node15 -->
<g id="edge15" class="edge">
<title>Node0&#45;&gt;Node15</title>
<path fill="none" stroke="#191970" d="M208.2896,-168.2455C224.7762,-159.4527 249.2352,-146.4079 267.9765,-136.4125"/>
<polygon fill="#191970" stroke="#191970" points="269.7435,-139.4368 276.92,-131.6427 266.4494,-133.2604 269.7435,-139.4368"/>
</g>
<!-- Node3 -->
<g id="node4" class="node">
<title>Node3</title>
<polygon fill="#ffffff" stroke="#bfbfbf" points="65,-56.5 65,-75.5 121,-75.5 121,-56.5 65,-56.5"/>
<text text-anchor="middle" x="93" y="-63.5" font-family="Helvetica,sans-Serif" font-size="10.00" fill="#000000">Eigen/LU</text>
</g>
<!-- Node2&#45;&gt;Node3 -->
<g id="edge3" class="edge">
<title>Node2&#45;&gt;Node3</title>
<path fill="none" stroke="#191970" d="M97.1291,-112.2455C96.4766,-104.9382 95.562,-94.6944 94.7593,-85.7046"/>
<polygon fill="#191970" stroke="#191970" points="98.2365,-85.2918 93.861,-75.6427 91.2642,-85.9143 98.2365,-85.2918"/>
</g>
<!-- Node5 -->
<g id="node6" class="node">
<title>Node5</title>
<polygon fill="#ffffff" stroke="#bfbfbf" points="139,-56.5 139,-75.5 245,-75.5 245,-56.5 139,-56.5"/>
<text text-anchor="middle" x="192" y="-63.5" font-family="Helvetica,sans-Serif" font-size="10.00" fill="#000000">pybind11/pybind11.h</text>
</g>
<!-- Node4&#45;&gt;Node5 -->
<g id="edge5" class="edge">
<title>Node4&#45;&gt;Node5</title>
<path fill="none" stroke="#191970" d="M190.3484,-112.2455C190.6093,-104.9382 190.9752,-94.6944 191.2963,-85.7046"/>
<polygon fill="#191970" stroke="#191970" points="194.7964,-85.7613 191.6556,-75.6427 187.8008,-85.5113 194.7964,-85.7613"/>
</g>
<!-- Node7 -->
<g id="node8" class="node">
<title>Node7</title>
<g id="a_node8"><a xlink:href="std_8h.html" target="_top" xlink:title="This file includes a part of C++ Standard Template Library and defines aliases for them...">
<polygon fill="#ffffff" stroke="#000000" points="264,-56.5 264,-75.5 326,-75.5 326,-56.5 264,-56.5"/>
<text text-anchor="middle" x="295" y="-63.5" font-family="Helvetica,sans-Serif" font-size="10.00" fill="#000000">alias/std.h</text>
</a>
</g>
</g>
<!-- Node6&#45;&gt;Node7 -->
<g id="edge7" class="edge">
<title>Node6&#45;&gt;Node7</title>
<path fill="none" stroke="#191970" d="M385.8395,-112.2455C368.4889,-103.4125 342.7099,-90.2887 323.0417,-80.2758"/>
<polygon fill="#191970" stroke="#191970" points="324.4405,-77.0605 313.941,-75.6427 321.2647,-83.2986 324.4405,-77.0605"/>
</g>
<!-- Node13 -->
<g id="node14" class="node">
<title>Node13</title>
<g id="a_node14"><a xlink:href="json_8h.html" target="_top" xlink:title="This file includes nlohmann/json and defines an alias for the JSON type. ">
<polygon fill="#ffffff" stroke="#000000" points="372,-56.5 372,-75.5 438,-75.5 438,-56.5 372,-56.5"/>
<text text-anchor="middle" x="405" y="-63.5" font-family="Helvetica,sans-Serif" font-size="10.00" fill="#000000">alias/json.h</text>
</a>
</g>
</g>
<!-- Node6&#45;&gt;Node13 -->
<g id="edge13" class="edge">
<title>Node6&#45;&gt;Node13</title>
<path fill="none" stroke="#191970" d="M405,-112.2455C405,-104.9382 405,-94.6944 405,-85.7046"/>
<polygon fill="#191970" stroke="#191970" points="408.5001,-85.6426 405,-75.6427 401.5001,-85.6427 408.5001,-85.6426"/>
</g>
<!-- Node8 -->
<g id="node9" class="node">
<title>Node8</title>
<polygon fill="#ffffff" stroke="#bfbfbf" points="237,-.5 237,-19.5 289,-19.5 289,-.5 237,-.5"/>
<text text-anchor="middle" x="263" y="-7.5" font-family="Helvetica,sans-Serif" font-size="10.00" fill="#000000">memory</text>
</g>
<!-- Node7&#45;&gt;Node8 -->
<g id="edge8" class="edge">
<title>Node7&#45;&gt;Node8</title>
<path fill="none" stroke="#191970" d="M289.426,-56.2455C285.0669,-48.617 278.8789,-37.7881 273.5867,-28.5267"/>
<polygon fill="#191970" stroke="#191970" points="276.5104,-26.5886 268.5101,-19.6427 270.4327,-30.0616 276.5104,-26.5886"/>
</g>
<!-- Node9 -->
<g id="node10" class="node">
<title>Node9</title>
<polygon fill="#ffffff" stroke="#bfbfbf" points="307.5,-.5 307.5,-19.5 348.5,-19.5 348.5,-.5 307.5,-.5"/>
<text text-anchor="middle" x="328" y="-7.5" font-family="Helvetica,sans-Serif" font-size="10.00" fill="#000000">string</text>
</g>
<!-- Node7&#45;&gt;Node9 -->
<g id="edge9" class="edge">
<title>Node7&#45;&gt;Node9</title>
<path fill="none" stroke="#191970" d="M300.7482,-56.2455C305.2435,-48.617 311.6248,-37.7881 317.0825,-28.5267"/>
<polygon fill="#191970" stroke="#191970" points="320.2561,-30.035 322.3177,-19.6427 314.2253,-26.4811 320.2561,-30.035"/>
</g>
<!-- Node10 -->
<g id="node11" class="node">
<title>Node10</title>
<polygon fill="#ffffff" stroke="#bfbfbf" points="367,-.5 367,-19.5 411,-19.5 411,-.5 367,-.5"/>
<text text-anchor="middle" x="389" y="-7.5" font-family="Helvetica,sans-Serif" font-size="10.00" fill="#000000">vector</text>
</g>
<!-- Node7&#45;&gt;Node10 -->
<g id="edge10" class="edge">
<title>Node7&#45;&gt;Node10</title>
<path fill="none" stroke="#191970" d="M311.3736,-56.2455C325.9308,-47.5731 347.431,-34.7645 364.1152,-24.825"/>
<polygon fill="#191970" stroke="#191970" points="366.0144,-27.7676 372.8141,-19.6427 362.4317,-21.7539 366.0144,-27.7676"/>
</g>
<!-- Node11 -->
<g id="node12" class="node">
<title>Node11</title>
<polygon fill="#ffffff" stroke="#bfbfbf" points="39.5,-.5 39.5,-19.5 122.5,-19.5 122.5,-.5 39.5,-.5"/>
<text text-anchor="middle" x="81" y="-7.5" font-family="Helvetica,sans-Serif" font-size="10.00" fill="#000000">unordered_map</text>
</g>
<!-- Node7&#45;&gt;Node11 -->
<g id="edge11" class="edge">
<title>Node7&#45;&gt;Node11</title>
<path fill="none" stroke="#191970" d="M263.8826,-57.8571C228.0065,-48.469 168.6819,-32.9448 127.3641,-22.1327"/>
<polygon fill="#191970" stroke="#191970" points="128.0947,-18.706 117.5343,-19.5604 126.3225,-25.478 128.0947,-18.706"/>
</g>
<!-- Node12 -->
<g id="node13" class="node">
<title>Node12</title>
<polygon fill="#ffffff" stroke="#bfbfbf" points="141,-.5 141,-19.5 219,-19.5 219,-.5 141,-.5"/>
<text text-anchor="middle" x="180" y="-7.5" font-family="Helvetica,sans-Serif" font-size="10.00" fill="#000000">unordered_set</text>
</g>
<!-- Node7&#45;&gt;Node12 -->
<g id="edge12" class="edge">
<title>Node7&#45;&gt;Node12</title>
<path fill="none" stroke="#191970" d="M275.2308,-56.3733C256.8531,-47.4241 229.2688,-33.9917 208.5107,-23.8835"/>
<polygon fill="#191970" stroke="#191970" points="210.0343,-20.7325 199.5112,-19.5011 206.9696,-27.026 210.0343,-20.7325"/>
</g>
<!-- Node14 -->
<g id="node15" class="node">
<title>Node14</title>
<polygon fill="#ffffff" stroke="#bfbfbf" points="429,-.5 429,-19.5 527,-19.5 527,-.5 429,-.5"/>
<text text-anchor="middle" x="478" y="-7.5" font-family="Helvetica,sans-Serif" font-size="10.00" fill="#000000">nlohmann/json.hpp</text>
</g>
<!-- Node13&#45;&gt;Node14 -->
<g id="edge14" class="edge">
<title>Node13&#45;&gt;Node14</title>
<path fill="none" stroke="#191970" d="M417.7156,-56.2455C428.602,-47.8943 444.4883,-35.7076 457.22,-25.9408"/>
<polygon fill="#191970" stroke="#191970" points="459.6261,-28.5063 465.4301,-19.6427 455.3654,-22.9523 459.6261,-28.5063"/>
</g>
<!-- Node15&#45;&gt;Node7 -->
<g id="edge16" class="edge">
<title>Node15&#45;&gt;Node7</title>
<path fill="none" stroke="#191970" d="M295,-112.2455C295,-104.9382 295,-94.6944 295,-85.7046"/>
<polygon fill="#191970" stroke="#191970" points="298.5001,-85.6426 295,-75.6427 291.5001,-85.6427 298.5001,-85.6426"/>
</g>
<!-- Node15&#45;&gt;Node13 -->
<g id="edge17" class="edge">
<title>Node15&#45;&gt;Node13</title>
<path fill="none" stroke="#191970" d="M314.1605,-112.2455C331.5111,-103.4125 357.2901,-90.2887 376.9583,-80.2758"/>
<polygon fill="#191970" stroke="#191970" points="378.7353,-83.2986 386.059,-75.6427 375.5595,-77.0605 378.7353,-83.2986"/>
</g>
</g>
</svg>
