<?xml version="1.0" encoding="UTF-8" standalone="no"?>
<!DOCTYPE svg PUBLIC "-//W3C//DTD SVG 1.1//EN"
 "http://www.w3.org/Graphics/SVG/1.1/DTD/svg11.dtd">
<!-- Generated by graphviz version 2.40.1 (20161225.0304)
 -->
<!-- Title: src/class/data_keys.cpp Pages: 1 -->
<svg width="496pt" height="196pt"
 viewBox="0.00 0.00 496.00 196.00" xmlns="http://www.w3.org/2000/svg" xmlns:xlink="http://www.w3.org/1999/xlink">
<g id="graph0" class="graph" transform="scale(1 1) rotate(0) translate(4 192)">
<title>src/class/data_keys.cpp</title>
<polygon fill="#ffffff" stroke="transparent" points="-4,4 -4,-192 492,-192 492,4 -4,4"/>
<!-- Node0 -->
<g id="node1" class="node">
<title>Node0</title>
<polygon fill="#bfbfbf" stroke="#000000" points="130.5,-168.5 130.5,-187.5 253.5,-187.5 253.5,-168.5 130.5,-168.5"/>
<text text-anchor="middle" x="192" y="-175.5" font-family="Helvetica,sans-Serif" font-size="10.00" fill="#000000">src/class/data_keys.cpp</text>
</g>
<!-- Node1 -->
<g id="node2" class="node">
<title>Node1</title>
<polygon fill="#ffffff" stroke="#bfbfbf" points="29,-112.5 29,-131.5 85,-131.5 85,-112.5 29,-112.5"/>
<text text-anchor="middle" x="57" y="-119.5" font-family="Helvetica,sans-Serif" font-size="10.00" fill="#000000">algorithm</text>
</g>
<!-- Node0&#45;&gt;Node1 -->
<g id="edge1" class="edge">
<title>Node0&#45;&gt;Node1</title>
<path fill="none" stroke="#191970" d="M168.7927,-168.3733C146.8301,-159.2629 113.6668,-145.5062 89.1599,-135.3404"/>
<polygon fill="#191970" stroke="#191970" points="90.4824,-132.0999 79.9045,-131.5011 87.8003,-138.5657 90.4824,-132.0999"/>
</g>
<!-- Node2 -->
<g id="node3" class="node">
<title>Node2</title>
<g id="a_node3"><a xlink:href="data__keys_8h.html" target="_top" xlink:title="This file has a definition of DataKeys class, which is owned by Element class. ">
<polygon fill="#ffffff" stroke="#000000" points="321,-112.5 321,-131.5 391,-131.5 391,-112.5 321,-112.5"/>
<text text-anchor="middle" x="356" y="-119.5" font-family="Helvetica,sans-Serif" font-size="10.00" fill="#000000">data_keys.h</text>
</a>
</g>
</g>
<!-- Node0&#45;&gt;Node2 -->
<g id="edge2" class="edge">
<title>Node0&#45;&gt;Node2</title>
<path fill="none" stroke="#191970" d="M220.1926,-168.3733C247.3453,-159.1016 288.5907,-145.0178 318.5025,-134.804"/>
<polygon fill="#191970" stroke="#191970" points="319.8428,-138.0449 328.1753,-131.5011 317.5808,-131.4204 319.8428,-138.0449"/>
</g>
<!-- Node11 -->
<g id="node12" class="node">
<title>Node11</title>
<g id="a_node12"><a xlink:href="join_8h.html" target="_top" xlink:title="This file has a definition of utils::join. ">
<polygon fill="#ffffff" stroke="#000000" points="103,-112.5 103,-131.5 173,-131.5 173,-112.5 103,-112.5"/>
<text text-anchor="middle" x="138" y="-119.5" font-family="Helvetica,sans-Serif" font-size="10.00" fill="#000000">../utils/join.h</text>
</a>
</g>
</g>
<!-- Node0&#45;&gt;Node11 -->
<g id="edge11" class="edge">
<title>Node0&#45;&gt;Node11</title>
<path fill="none" stroke="#191970" d="M182.5939,-168.2455C174.8507,-160.2155 163.688,-148.6394 154.4682,-139.0781"/>
<polygon fill="#191970" stroke="#191970" points="156.7591,-136.4117 147.2983,-131.6427 151.7202,-141.2706 156.7591,-136.4117"/>
</g>
<!-- Node12 -->
<g id="node13" class="node">
<title>Node12</title>
<g id="a_node13"><a xlink:href="runtime__error_8h.html" target="_top" xlink:title="This file has a definition of utils::runtime_error. ">
<polygon fill="#ffffff" stroke="#000000" points="191,-112.5 191,-131.5 303,-131.5 303,-112.5 191,-112.5"/>
<text text-anchor="middle" x="247" y="-119.5" font-family="Helvetica,sans-Serif" font-size="10.00" fill="#000000">../utils/runtime_error.h</text>
</a>
</g>
</g>
<!-- Node0&#45;&gt;Node12 -->
<g id="edge13" class="edge">
<title>Node0&#45;&gt;Node12</title>
<path fill="none" stroke="#191970" d="M201.5803,-168.2455C209.5458,-160.1352 221.0641,-148.4075 230.5079,-138.7919"/>
<polygon fill="#191970" stroke="#191970" points="233.0195,-141.2297 237.5295,-131.6427 228.0253,-136.3247 233.0195,-141.2297"/>
</g>
<!-- Node3 -->
<g id="node4" class="node">
<title>Node3</title>
<g id="a_node4"><a xlink:href="std_8h.html" target="_top" xlink:title="This file includes a part of C++ Standard Template Library and defines aliases for them...">
<polygon fill="#ffffff" stroke="#000000" points="162,-56.5 162,-75.5 224,-75.5 224,-56.5 162,-56.5"/>
<text text-anchor="middle" x="193" y="-63.5" font-family="Helvetica,sans-Serif" font-size="10.00" fill="#000000">alias/std.h</text>
</a>
</g>
</g>
<!-- Node2&#45;&gt;Node3 -->
<g id="edge3" class="edge">
<title>Node2&#45;&gt;Node3</title>
<path fill="none" stroke="#191970" d="M327.9793,-112.3733C300.9922,-103.1016 259.9983,-89.0178 230.2689,-78.804"/>
<polygon fill="#191970" stroke="#191970" points="231.2497,-75.4403 220.6551,-75.5011 228.9752,-82.0605 231.2497,-75.4403"/>
</g>
<!-- Node9 -->
<g id="node10" class="node">
<title>Node9</title>
<g id="a_node10"><a xlink:href="json_8h.html" target="_top" xlink:title="This file includes nlohmann/json and defines an alias for a JSON class. ">
<polygon fill="#ffffff" stroke="#000000" points="364,-56.5 364,-75.5 430,-75.5 430,-56.5 364,-56.5"/>
<text text-anchor="middle" x="397" y="-63.5" font-family="Helvetica,sans-Serif" font-size="10.00" fill="#000000">alias/json.h</text>
</a>
</g>
</g>
<!-- Node2&#45;&gt;Node9 -->
<g id="edge9" class="edge">
<title>Node2&#45;&gt;Node9</title>
<path fill="none" stroke="#191970" d="M363.1417,-112.2455C368.8444,-104.4564 376.99,-93.3308 383.8625,-83.9439"/>
<polygon fill="#191970" stroke="#191970" points="386.8568,-85.7789 389.9402,-75.6427 381.2087,-81.6437 386.8568,-85.7789"/>
</g>
<!-- Node4 -->
<g id="node5" class="node">
<title>Node4</title>
<polygon fill="#ffffff" stroke="#bfbfbf" points="0,-.5 0,-19.5 52,-19.5 52,-.5 0,-.5"/>
<text text-anchor="middle" x="26" y="-7.5" font-family="Helvetica,sans-Serif" font-size="10.00" fill="#000000">memory</text>
</g>
<!-- Node3&#45;&gt;Node4 -->
<g id="edge4" class="edge">
<title>Node3&#45;&gt;Node4</title>
<path fill="none" stroke="#191970" d="M164.2917,-56.3733C135.972,-46.8769 92.5976,-32.3321 61.989,-22.0682"/>
<polygon fill="#191970" stroke="#191970" points="62.7321,-18.6259 52.1382,-18.7649 60.5066,-25.2627 62.7321,-18.6259"/>
</g>
<!-- Node5 -->
<g id="node6" class="node">
<title>Node5</title>
<polygon fill="#ffffff" stroke="#bfbfbf" points="70.5,-.5 70.5,-19.5 111.5,-19.5 111.5,-.5 70.5,-.5"/>
<text text-anchor="middle" x="91" y="-7.5" font-family="Helvetica,sans-Serif" font-size="10.00" fill="#000000">string</text>
</g>
<!-- Node3&#45;&gt;Node5 -->
<g id="edge5" class="edge">
<title>Node3&#45;&gt;Node5</title>
<path fill="none" stroke="#191970" d="M175.233,-56.2455C159.2905,-47.4928 135.6741,-34.527 117.5011,-24.5496"/>
<polygon fill="#191970" stroke="#191970" points="119.0137,-21.3873 108.5634,-19.6427 115.6448,-27.5233 119.0137,-21.3873"/>
</g>
<!-- Node6 -->
<g id="node7" class="node">
<title>Node6</title>
<polygon fill="#ffffff" stroke="#bfbfbf" points="130,-.5 130,-19.5 174,-19.5 174,-.5 130,-.5"/>
<text text-anchor="middle" x="152" y="-7.5" font-family="Helvetica,sans-Serif" font-size="10.00" fill="#000000">vector</text>
</g>
<!-- Node3&#45;&gt;Node6 -->
<g id="edge6" class="edge">
<title>Node3&#45;&gt;Node6</title>
<path fill="none" stroke="#191970" d="M185.8583,-56.2455C180.1556,-48.4564 172.01,-37.3308 165.1375,-27.9439"/>
<polygon fill="#191970" stroke="#191970" points="167.7913,-25.6437 159.0598,-19.6427 162.1432,-29.7789 167.7913,-25.6437"/>
</g>
<!-- Node7 -->
<g id="node8" class="node">
<title>Node7</title>
<polygon fill="#ffffff" stroke="#bfbfbf" points="192.5,-.5 192.5,-19.5 275.5,-19.5 275.5,-.5 192.5,-.5"/>
<text text-anchor="middle" x="234" y="-7.5" font-family="Helvetica,sans-Serif" font-size="10.00" fill="#000000">unordered_map</text>
</g>
<!-- Node3&#45;&gt;Node7 -->
<g id="edge7" class="edge">
<title>Node3&#45;&gt;Node7</title>
<path fill="none" stroke="#191970" d="M200.1417,-56.2455C205.8444,-48.4564 213.99,-37.3308 220.8625,-27.9439"/>
<polygon fill="#191970" stroke="#191970" points="223.8568,-29.7789 226.9402,-19.6427 218.2087,-25.6437 223.8568,-29.7789"/>
</g>
<!-- Node8 -->
<g id="node9" class="node">
<title>Node8</title>
<polygon fill="#ffffff" stroke="#bfbfbf" points="294,-.5 294,-19.5 372,-19.5 372,-.5 294,-.5"/>
<text text-anchor="middle" x="333" y="-7.5" font-family="Helvetica,sans-Serif" font-size="10.00" fill="#000000">unordered_set</text>
</g>
<!-- Node3&#45;&gt;Node8 -->
<g id="edge8" class="edge">
<title>Node3&#45;&gt;Node8</title>
<path fill="none" stroke="#191970" d="M217.0669,-56.3733C239.8428,-47.2629 274.2344,-33.5062 299.649,-23.3404"/>
<polygon fill="#191970" stroke="#191970" points="301.2623,-26.4648 309.2472,-19.5011 298.6625,-19.9654 301.2623,-26.4648"/>
</g>
<!-- Node10 -->
<g id="node11" class="node">
<title>Node10</title>
<polygon fill="#ffffff" stroke="#bfbfbf" points="390,-.5 390,-19.5 488,-19.5 488,-.5 390,-.5"/>
<text text-anchor="middle" x="439" y="-7.5" font-family="Helvetica,sans-Serif" font-size="10.00" fill="#000000">nlohmann/json.hpp</text>
</g>
<!-- Node9&#45;&gt;Node10 -->
<g id="edge10" class="edge">
<title>Node9&#45;&gt;Node10</title>
<path fill="none" stroke="#191970" d="M404.3158,-56.2455C410.2179,-48.3761 418.6742,-37.101 425.7594,-27.6542"/>
<polygon fill="#191970" stroke="#191970" points="428.568,-29.7427 431.768,-19.6427 422.9679,-25.5427 428.568,-29.7427"/>
</g>
<!-- Node11&#45;&gt;Node3 -->
<g id="edge12" class="edge">
<title>Node11&#45;&gt;Node3</title>
<path fill="none" stroke="#191970" d="M147.5803,-112.2455C155.5458,-104.1352 167.0641,-92.4075 176.5079,-82.7919"/>
<polygon fill="#191970" stroke="#191970" points="179.0195,-85.2297 183.5295,-75.6427 174.0253,-80.3247 179.0195,-85.2297"/>
</g>
<!-- Node12&#45;&gt;Node3 -->
<g id="edge14" class="edge">
<title>Node12&#45;&gt;Node3</title>
<path fill="none" stroke="#191970" d="M237.5939,-112.2455C229.8507,-104.2155 218.688,-92.6394 209.4682,-83.0781"/>
<polygon fill="#191970" stroke="#191970" points="211.7591,-80.4117 202.2983,-75.6427 206.7202,-85.2706 211.7591,-80.4117"/>
</g>
</g>
</svg>
