<?xml version="1.0" encoding="UTF-8" standalone="no"?>
<!DOCTYPE svg PUBLIC "-//W3C//DTD SVG 1.1//EN"
 "http://www.w3.org/Graphics/SVG/1.1/DTD/svg11.dtd">
<!-- Generated by graphviz version 2.40.1 (20161225.0304)
 -->
<!-- Title: src/pybind Pages: 1 -->
<!--zoomable 447 -->
<svg id="main" version="1.1" xmlns="http://www.w3.org/2000/svg" xmlns:xlink="http://www.w3.org/1999/xlink" xml:space="preserve" onload="init(evt)">
<style type="text/css"><![CDATA[
.edge:hover path { stroke: red; }
.edge:hover polygon { stroke: red; fill: red; }
]]></style>
<script type="text/javascript"><![CDATA[
var edges = document.getElementsByTagName('g');
if (edges && edges.length) {
  for (var i=0;i<edges.length;i++) {
    if (edges[i].id.substr(0,4)=='edge') {
      edges[i].setAttribute('class','edge');
    }
  }
}
]]></script>
        <defs>
                <circle id="rim" cx="0" cy="0" r="7"/>
                <circle id="rim2" cx="0" cy="0" r="3.5"/>
                <g id="zoomPlus">
                        <use xlink:href="#rim" fill="#404040">
                                <set attributeName="fill" to="#808080" begin="zoomplus.mouseover" end="zoomplus.mouseout"/>
                        </use>
                        <path d="M-4,0h8M0,-4v8" fill="none" stroke="white" stroke-width="1.5" pointer-events="none"/>
                </g>
                <g id="zoomMin">
                        <use xlink:href="#rim" fill="#404040">
                                <set attributeName="fill" to="#808080" begin="zoomminus.mouseover" end="zoomminus.mouseout"/>
                        </use>
                        <path d="M-4,0h8" fill="none" stroke="white" stroke-width="1.5" pointer-events="none"/>
                </g>
                <g id="dirArrow">
                        <path fill="none" stroke="white" stroke-width="1.5" d="M0,-3.0v7 M-2.5,-0.5L0,-3.0L2.5,-0.5"/>
                </g>
               <g id="resetDef">
                       <use xlink:href="#rim2" fill="#404040">
                               <set attributeName="fill" to="#808080" begin="reset.mouseover" end="reset.mouseout"/>
                       </use>
               </g>
        </defs>

<script type="text/javascript">
var viewWidth = 501;
var viewHeight = 447;
var sectionId = 'dynsection-0';
</script>
<script xlink:href="svgpan.js"/>
<svg id="graph" class="graph">
<g id="viewport">
<title>src/pybind</title>
<polygon fill="#ffffff" stroke="transparent" points="-4,4 -4,-443 497,-443 497,4 -4,4"/>
<g id="clust1" class="cluster">
<title>clusterdir_68267d1309a1af8e8297ef4c3efbcdba</title>
<g id="a_clust1"><a xlink:href="dir_68267d1309a1af8e8297ef4c3efbcdba.html" target="_top" xlink:title="src">
<polygon fill="#ddddee" stroke="#000000" points="27,-344 27,-431 485,-431 485,-344 27,-344"/>
<text text-anchor="middle" x="256" y="-419" font-family="Helvetica,sans-Serif" font-size="10.00" fill="#000000">src</text>
</a>
</g>
</g>
<g id="clust2" class="cluster">
<title>clusterdir_f55f6dc9e21b09a12acc690b19f5e964</title>
<g id="a_clust2"><a xlink:href="dir_f55f6dc9e21b09a12acc690b19f5e964.html" target="_top">
<polygon fill="#eeeeff" stroke="#000000" points="35,-352 35,-404 477,-404 477,-352 35,-352"/>
</a>
</g>
</g>
<!-- dir_f55f6dc9e21b09a12acc690b19f5e964 -->
<g id="node1" class="node">
<title>dir_f55f6dc9e21b09a12acc690b19f5e964</title>
<text text-anchor="middle" x="442" y="-375.5" font-family="Helvetica,sans-Serif" font-size="10.00" fill="#000000">pybind</text>
</g>
<!-- dir_aebb8dcc11953d78e620bbef0b9e2183 -->
<g id="node12" class="node">
<title>dir_aebb8dcc11953d78e620bbef0b9e2183</title>
<g id="a_node12"><a xlink:href="dir_aebb8dcc11953d78e620bbef0b9e2183.html" target="_top" xlink:title="core">
<polygon fill="none" stroke="#000000" points="325,-180 271,-180 271,-144 325,-144 325,-180"/>
<text text-anchor="middle" x="298" y="-159.5" font-family="Helvetica,sans-Serif" font-size="10.00" fill="#000000">core</text>
</a>
</g>
</g>
<!-- dir_f55f6dc9e21b09a12acc690b19f5e964&#45;&gt;dir_aebb8dcc11953d78e620bbef0b9e2183 -->
<g id="edge22" class="edge">
<title>dir_f55f6dc9e21b09a12acc690b19f5e964&#45;&gt;dir_aebb8dcc11953d78e620bbef0b9e2183</title>
<path fill="none" stroke="#000000" d="M429.9703,-359.9555C404.6116,-321.9173 345.562,-233.3431 315.8085,-188.7127"/>
<polygon fill="#000000" stroke="#000000" points="318.5559,-186.5241 310.0967,-180.1451 312.7316,-190.4071 318.5559,-186.5241"/>
<g id="a_edge22&#45;headlabel"><a xlink:href="dir_000008_000004.html" target="_top" xlink:title="3">
<text text-anchor="middle" x="322.9122" y="-185.4401" font-family="Helvetica,sans-Serif" font-size="10.00" fill="#000000">3</text>
</a>
</g>
</g>
<!-- dir_313caf1132e152dd9b58bea13a4052ca -->
<g id="node14" class="node">
<title>dir_313caf1132e152dd9b58bea13a4052ca</title>
<g id="a_node14"><a xlink:href="dir_313caf1132e152dd9b58bea13a4052ca.html" target="_top" xlink:title="utils">
<polygon fill="none" stroke="#000000" points="241,-108 187,-108 187,-72 241,-72 241,-108"/>
<text text-anchor="middle" x="214" y="-87.5" font-family="Helvetica,sans-Serif" font-size="10.00" fill="#000000">utils</text>
</a>
</g>
</g>
<!-- dir_f55f6dc9e21b09a12acc690b19f5e964&#45;&gt;dir_313caf1132e152dd9b58bea13a4052ca -->
<g id="edge23" class="edge">
<title>dir_f55f6dc9e21b09a12acc690b19f5e964&#45;&gt;dir_313caf1132e152dd9b58bea13a4052ca</title>
<path fill="none" stroke="#000000" d="M446.8963,-359.7874C454.2467,-328.7574 465.152,-264.3108 444,-216 410.5638,-139.6323 307.2946,-108.0492 251.1935,-96.2547"/>
<polygon fill="#000000" stroke="#000000" points="251.7866,-92.8041 241.2946,-94.2764 250.4147,-99.6684 251.7866,-92.8041"/>
<g id="a_edge23&#45;headlabel"><a xlink:href="dir_000008_000015.html" target="_top" xlink:title="1">
<text text-anchor="middle" x="255.868" y="-88.2243" font-family="Helvetica,sans-Serif" font-size="10.00" fill="#000000">1</text>
</a>
</g>
</g>
<!-- dir_6304a303afdde898cf6f1514bb96ad28 -->
<g id="node2" class="node">
<title>dir_6304a303afdde898cf6f1514bb96ad28</title>
<g id="a_node2"><a xlink:href="dir_6304a303afdde898cf6f1514bb96ad28.html" target="_top" xlink:title="adders">
<polygon fill="#ffffff" stroke="#000000" points="325,-396 271,-396 271,-360 325,-360 325,-396"/>
<text text-anchor="middle" x="298" y="-375.5" font-family="Helvetica,sans-Serif" font-size="10.00" fill="#000000">adders</text>
</a>
</g>
</g>
<!-- dir_efedc0399e0892fcf242707c3ddb185f -->
<g id="node11" class="node">
<title>dir_efedc0399e0892fcf242707c3ddb185f</title>
<g id="a_node11"><a xlink:href="dir_efedc0399e0892fcf242707c3ddb185f.html" target="_top" xlink:title="adders">
<polygon fill="none" stroke="#000000" points="325,-252 271,-252 271,-216 325,-216 325,-252"/>
<text text-anchor="middle" x="298" y="-231.5" font-family="Helvetica,sans-Serif" font-size="10.00" fill="#000000">adders</text>
</a>
</g>
</g>
<!-- dir_6304a303afdde898cf6f1514bb96ad28&#45;&gt;dir_efedc0399e0892fcf242707c3ddb185f -->
<g id="edge3" class="edge">
<title>dir_6304a303afdde898cf6f1514bb96ad28&#45;&gt;dir_efedc0399e0892fcf242707c3ddb185f</title>
<path fill="none" stroke="#000000" d="M298,-359.7623C298,-335.201 298,-291.2474 298,-262.3541"/>
<polygon fill="#000000" stroke="#000000" points="301.5001,-262.0896 298,-252.0896 294.5001,-262.0897 301.5001,-262.0896"/>
<g id="a_edge3&#45;headlabel"><a xlink:href="dir_000009_000001.html" target="_top" xlink:title="14">
<text text-anchor="middle" x="304.3393" y="-263.1842" font-family="Helvetica,sans-Serif" font-size="10.00" fill="#000000">14</text>
</a>
</g>
</g>
<!-- dir_e6b67e231d56eea13eccf9a18f16d1f2 -->
<g id="node3" class="node">
<title>dir_e6b67e231d56eea13eccf9a18f16d1f2</title>
<g id="a_node3"><a xlink:href="dir_e6b67e231d56eea13eccf9a18f16d1f2.html" target="_top" xlink:title="filters">
<polygon fill="#ffffff" stroke="#000000" points="397,-396 343,-396 343,-360 397,-360 397,-396"/>
<text text-anchor="middle" x="370" y="-375.5" font-family="Helvetica,sans-Serif" font-size="10.00" fill="#000000">filters</text>
</a>
</g>
</g>
<!-- dir_1bc13244e26df1e1f069a1fd18e36da3 -->
<g id="node9" class="node">
<title>dir_1bc13244e26df1e1f069a1fd18e36da3</title>
<g id="a_node9"><a xlink:href="dir_1bc13244e26df1e1f069a1fd18e36da3.html" target="_top" xlink:title="filters">
<polygon fill="none" stroke="#000000" points="435,-252 381,-252 381,-216 435,-216 435,-252"/>
<text text-anchor="middle" x="408" y="-231.5" font-family="Helvetica,sans-Serif" font-size="10.00" fill="#000000">filters</text>
</a>
</g>
</g>
<!-- dir_e6b67e231d56eea13eccf9a18f16d1f2&#45;&gt;dir_1bc13244e26df1e1f069a1fd18e36da3 -->
<g id="edge1" class="edge">
<title>dir_e6b67e231d56eea13eccf9a18f16d1f2&#45;&gt;dir_1bc13244e26df1e1f069a1fd18e36da3</title>
<path fill="none" stroke="#000000" d="M374.8127,-359.7623C381.3227,-335.0928 392.9953,-290.8598 400.6182,-261.9731"/>
<polygon fill="#000000" stroke="#000000" points="404.0589,-262.6517 403.2264,-252.0896 397.2906,-260.8656 404.0589,-262.6517"/>
<g id="a_edge1&#45;headlabel"><a xlink:href="dir_000010_000005.html" target="_top" xlink:title="3">
<text text-anchor="middle" x="405.8871" y="-264.3517" font-family="Helvetica,sans-Serif" font-size="10.00" fill="#000000">3</text>
</a>
</g>
</g>
<!-- dir_c0db64017119b344aae71e6e7899bbb5 -->
<g id="node4" class="node">
<title>dir_c0db64017119b344aae71e6e7899bbb5</title>
<g id="a_node4"><a xlink:href="dir_c0db64017119b344aae71e6e7899bbb5.html" target="_top" xlink:title="invokers">
<polygon fill="#ffffff" stroke="#000000" points="97,-396 43,-396 43,-360 97,-360 97,-396"/>
<text text-anchor="middle" x="70" y="-375.5" font-family="Helvetica,sans-Serif" font-size="10.00" fill="#000000">invokers</text>
</a>
</g>
</g>
<!-- dir_6c04a91bc13b4612622c78d14e29af33 -->
<g id="node7" class="node">
<title>dir_6c04a91bc13b4612622c78d14e29af33</title>
<g id="a_node7"><a xlink:href="dir_6c04a91bc13b4612622c78d14e29af33.html" target="_top" xlink:title="alias">
<polygon fill="none" stroke="#000000" points="103,-36 49,-36 49,0 103,0 103,-36"/>
<text text-anchor="middle" x="76" y="-15.5" font-family="Helvetica,sans-Serif" font-size="10.00" fill="#000000">alias</text>
</a>
</g>
</g>
<!-- dir_c0db64017119b344aae71e6e7899bbb5&#45;&gt;dir_6c04a91bc13b4612622c78d14e29af33 -->
<g id="edge11" class="edge">
<title>dir_c0db64017119b344aae71e6e7899bbb5&#45;&gt;dir_6c04a91bc13b4612622c78d14e29af33</title>
<path fill="none" stroke="#000000" d="M50.6588,-359.5528C41.4013,-349.7705 30.8648,-337.0873 24,-324 4.7702,-287.3395 0,-275.3978 0,-234 0,-234 0,-234 0,-162 0,-120.6022 3.6618,-108.0574 24,-72 29.9346,-61.4787 38.4009,-51.4885 46.7833,-43.0273"/>
<polygon fill="#000000" stroke="#000000" points="49.2919,-45.4705 54.0622,-36.0103 44.4336,-40.4309 49.2919,-45.4705"/>
<g id="a_edge11&#45;headlabel"><a xlink:href="dir_000011_000002.html" target="_top" xlink:title="1">
<text text-anchor="middle" x="48.6745" y="-47.5094" font-family="Helvetica,sans-Serif" font-size="10.00" fill="#000000">1</text>
</a>
</g>
</g>
<!-- dir_f8cc41312865e1289a0b78825bfdc325 -->
<g id="node13" class="node">
<title>dir_f8cc41312865e1289a0b78825bfdc325</title>
<g id="a_node13"><a xlink:href="dir_f8cc41312865e1289a0b78825bfdc325.html" target="_top" xlink:title="invokers">
<polygon fill="none" stroke="#000000" points="120,-324 66,-324 66,-288 120,-288 120,-324"/>
<text text-anchor="middle" x="93" y="-303.5" font-family="Helvetica,sans-Serif" font-size="10.00" fill="#000000">invokers</text>
</a>
</g>
</g>
<!-- dir_c0db64017119b344aae71e6e7899bbb5&#45;&gt;dir_f8cc41312865e1289a0b78825bfdc325 -->
<g id="edge12" class="edge">
<title>dir_c0db64017119b344aae71e6e7899bbb5&#45;&gt;dir_f8cc41312865e1289a0b78825bfdc325</title>
<path fill="none" stroke="#000000" d="M75.8039,-359.8314C78.2908,-352.0463 81.2531,-342.7729 84.0125,-334.1347"/>
<polygon fill="#000000" stroke="#000000" points="87.409,-335.0041 87.118,-324.4133 80.7409,-332.874 87.409,-335.0041"/>
<g id="a_edge12&#45;headlabel"><a xlink:href="dir_000011_000006.html" target="_top" xlink:title="2">
<text text-anchor="middle" x="89.0199" y="-336.7922" font-family="Helvetica,sans-Serif" font-size="10.00" fill="#000000">2</text>
</a>
</g>
</g>
<!-- dir_aac6e0aba0e20504ae3255a4c4142454 -->
<g id="node5" class="node">
<title>dir_aac6e0aba0e20504ae3255a4c4142454</title>
<g id="a_node5"><a xlink:href="dir_aac6e0aba0e20504ae3255a4c4142454.html" target="_top" xlink:title="processors">
<polygon fill="#ffffff" stroke="#000000" points="180.5,-396 115.5,-396 115.5,-360 180.5,-360 180.5,-396"/>
<text text-anchor="middle" x="148" y="-375.5" font-family="Helvetica,sans-Serif" font-size="10.00" fill="#000000">processors</text>
</a>
</g>
</g>
<!-- dir_aac6e0aba0e20504ae3255a4c4142454&#45;&gt;dir_6c04a91bc13b4612622c78d14e29af33 -->
<g id="edge7" class="edge">
<title>dir_aac6e0aba0e20504ae3255a4c4142454&#45;&gt;dir_6c04a91bc13b4612622c78d14e29af33</title>
<path fill="none" stroke="#000000" d="M127.9487,-359.7783C121.2697,-354.265 113.5907,-348.4886 106,-344 85.7531,-332.0273 72.0751,-342.0561 57,-324 30.7991,-292.6181 38,-274.8816 38,-234 38,-234 38,-234 38,-162 38,-120.3681 53.0328,-74.14 64.1881,-45.567"/>
<polygon fill="#000000" stroke="#000000" points="67.4578,-46.817 67.9412,-36.2332 60.9632,-44.2055 67.4578,-46.817"/>
<g id="a_edge7&#45;headlabel"><a xlink:href="dir_000012_000002.html" target="_top" xlink:title="1">
<text text-anchor="middle" x="68.7511" y="-48.7113" font-family="Helvetica,sans-Serif" font-size="10.00" fill="#000000">1</text>
</a>
</g>
</g>
<!-- dir_8235a0e1c388cdad0e3f2a0adaa9e0ee -->
<g id="node8" class="node">
<title>dir_8235a0e1c388cdad0e3f2a0adaa9e0ee</title>
<g id="a_node8"><a xlink:href="dir_8235a0e1c388cdad0e3f2a0adaa9e0ee.html" target="_top" xlink:title="processors">
<polygon fill="none" stroke="#000000" points="180.5,-252 115.5,-252 115.5,-216 180.5,-216 180.5,-252"/>
<text text-anchor="middle" x="148" y="-231.5" font-family="Helvetica,sans-Serif" font-size="10.00" fill="#000000">processors</text>
</a>
</g>
</g>
<!-- dir_aac6e0aba0e20504ae3255a4c4142454&#45;&gt;dir_8235a0e1c388cdad0e3f2a0adaa9e0ee -->
<g id="edge8" class="edge">
<title>dir_aac6e0aba0e20504ae3255a4c4142454&#45;&gt;dir_8235a0e1c388cdad0e3f2a0adaa9e0ee</title>
<path fill="none" stroke="#000000" d="M148,-359.7623C148,-335.201 148,-291.2474 148,-262.3541"/>
<polygon fill="#000000" stroke="#000000" points="151.5001,-262.0896 148,-252.0896 144.5001,-262.0897 151.5001,-262.0896"/>
<g id="a_edge8&#45;headlabel"><a xlink:href="dir_000012_000007.html" target="_top" xlink:title="9">
<text text-anchor="middle" x="154.3393" y="-263.1842" font-family="Helvetica,sans-Serif" font-size="10.00" fill="#000000">9</text>
</a>
</g>
</g>
<!-- dir_ffbbd8010c2a1e8431d38e023d9287cc -->
<g id="node6" class="node">
<title>dir_ffbbd8010c2a1e8431d38e023d9287cc</title>
<g id="a_node6"><a xlink:href="dir_ffbbd8010c2a1e8431d38e023d9287cc.html" target="_top" xlink:title="starters">
<polygon fill="#ffffff" stroke="#000000" points="253,-396 199,-396 199,-360 253,-360 253,-396"/>
<text text-anchor="middle" x="226" y="-375.5" font-family="Helvetica,sans-Serif" font-size="10.00" fill="#000000">starters</text>
</a>
</g>
</g>
<!-- dir_ec33ddd8f5ffd74706403185ee22af87 -->
<g id="node10" class="node">
<title>dir_ec33ddd8f5ffd74706403185ee22af87</title>
<g id="a_node10"><a xlink:href="dir_ec33ddd8f5ffd74706403185ee22af87.html" target="_top" xlink:title="starters">
<polygon fill="none" stroke="#000000" points="253,-252 199,-252 199,-216 253,-216 253,-252"/>
<text text-anchor="middle" x="226" y="-231.5" font-family="Helvetica,sans-Serif" font-size="10.00" fill="#000000">starters</text>
</a>
</g>
</g>
<!-- dir_ffbbd8010c2a1e8431d38e023d9287cc&#45;&gt;dir_ec33ddd8f5ffd74706403185ee22af87 -->
<g id="edge2" class="edge">
<title>dir_ffbbd8010c2a1e8431d38e023d9287cc&#45;&gt;dir_ec33ddd8f5ffd74706403185ee22af87</title>
<path fill="none" stroke="#000000" d="M226,-359.7623C226,-335.201 226,-291.2474 226,-262.3541"/>
<polygon fill="#000000" stroke="#000000" points="229.5001,-262.0896 226,-252.0896 222.5001,-262.0897 229.5001,-262.0896"/>
<g id="a_edge2&#45;headlabel"><a xlink:href="dir_000013_000014.html" target="_top" xlink:title="8">
<text text-anchor="middle" x="232.3393" y="-263.1842" font-family="Helvetica,sans-Serif" font-size="10.00" fill="#000000">8</text>
</a>
</g>
</g>
<!-- dir_8235a0e1c388cdad0e3f2a0adaa9e0ee&#45;&gt;dir_6c04a91bc13b4612622c78d14e29af33 -->
<g id="edge4" class="edge">
<title>dir_8235a0e1c388cdad0e3f2a0adaa9e0ee&#45;&gt;dir_6c04a91bc13b4612622c78d14e29af33</title>
<path fill="none" stroke="#000000" d="M141.9852,-215.9555C129.4117,-178.235 100.2729,-90.8188 85.28,-45.8399"/>
<polygon fill="#000000" stroke="#000000" points="88.5311,-44.5251 82.0484,-36.1451 81.8903,-46.7387 88.5311,-44.5251"/>
<g id="a_edge4&#45;headlabel"><a xlink:href="dir_000007_000002.html" target="_top" xlink:title="2">
<text text-anchor="middle" x="92.3613" y="-44.5374" font-family="Helvetica,sans-Serif" font-size="10.00" fill="#000000">2</text>
</a>
</g>
</g>
<!-- dir_8235a0e1c388cdad0e3f2a0adaa9e0ee&#45;&gt;dir_aebb8dcc11953d78e620bbef0b9e2183 -->
<g id="edge5" class="edge">
<title>dir_8235a0e1c388cdad0e3f2a0adaa9e0ee&#45;&gt;dir_aebb8dcc11953d78e620bbef0b9e2183</title>
<path fill="none" stroke="#000000" d="M180.5478,-218.3771C204.3857,-206.9349 236.755,-191.3976 261.4759,-179.5316"/>
<polygon fill="#000000" stroke="#000000" points="263.0416,-182.6624 270.5422,-175.1797 260.0124,-176.3518 263.0416,-182.6624"/>
<g id="a_edge5&#45;headlabel"><a xlink:href="dir_000007_000004.html" target="_top" xlink:title="1">
<text text-anchor="middle" x="261.0296" y="-184.2775" font-family="Helvetica,sans-Serif" font-size="10.00" fill="#000000">1</text>
</a>
</g>
</g>
<!-- dir_8235a0e1c388cdad0e3f2a0adaa9e0ee&#45;&gt;dir_313caf1132e152dd9b58bea13a4052ca -->
<g id="edge6" class="edge">
<title>dir_8235a0e1c388cdad0e3f2a0adaa9e0ee&#45;&gt;dir_313caf1132e152dd9b58bea13a4052ca</title>
<path fill="none" stroke="#000000" d="M156.3589,-215.7623C167.765,-190.8764 188.2956,-146.0822 201.5258,-117.2165"/>
<polygon fill="#000000" stroke="#000000" points="204.7241,-118.6386 205.7089,-108.0896 198.3606,-115.722 204.7241,-118.6386"/>
<g id="a_edge6&#45;headlabel"><a xlink:href="dir_000007_000015.html" target="_top" xlink:title="11">
<text text-anchor="middle" x="205.8075" y="-120.5893" font-family="Helvetica,sans-Serif" font-size="10.00" fill="#000000">11</text>
</a>
</g>
</g>
<!-- dir_1bc13244e26df1e1f069a1fd18e36da3&#45;&gt;dir_aebb8dcc11953d78e620bbef0b9e2183 -->
<g id="edge9" class="edge">
<title>dir_1bc13244e26df1e1f069a1fd18e36da3&#45;&gt;dir_aebb8dcc11953d78e620bbef0b9e2183</title>
<path fill="none" stroke="#000000" d="M380.809,-216.2022C366.6622,-206.9425 349.1843,-195.5025 333.937,-185.5224"/>
<polygon fill="#000000" stroke="#000000" points="335.5433,-182.3907 325.2594,-179.8425 331.7097,-188.2476 335.5433,-182.3907"/>
<g id="a_edge9&#45;headlabel"><a xlink:href="dir_000005_000004.html" target="_top" xlink:title="1">
<text text-anchor="middle" x="340.1058" y="-179.4837" font-family="Helvetica,sans-Serif" font-size="10.00" fill="#000000">1</text>
</a>
</g>
</g>
<!-- dir_1bc13244e26df1e1f069a1fd18e36da3&#45;&gt;dir_313caf1132e152dd9b58bea13a4052ca -->
<g id="edge10" class="edge">
<title>dir_1bc13244e26df1e1f069a1fd18e36da3&#45;&gt;dir_313caf1132e152dd9b58bea13a4052ca</title>
<path fill="none" stroke="#000000" d="M396.6474,-215.653C383.5918,-195.8002 360.5152,-164.2724 334,-144 308.8454,-124.7679 275.7536,-110.5319 250.6926,-101.5196"/>
<polygon fill="#000000" stroke="#000000" points="251.7693,-98.1884 241.1745,-98.2073 249.4686,-104.7996 251.7693,-98.1884"/>
<g id="a_edge10&#45;headlabel"><a xlink:href="dir_000005_000015.html" target="_top" xlink:title="2">
<text text-anchor="middle" x="256.0973" y="-94.1883" font-family="Helvetica,sans-Serif" font-size="10.00" fill="#000000">2</text>
</a>
</g>
</g>
<!-- dir_ec33ddd8f5ffd74706403185ee22af87&#45;&gt;dir_aebb8dcc11953d78e620bbef0b9e2183 -->
<g id="edge13" class="edge">
<title>dir_ec33ddd8f5ffd74706403185ee22af87&#45;&gt;dir_aebb8dcc11953d78e620bbef0b9e2183</title>
<path fill="none" stroke="#000000" d="M244.1686,-215.8314C252.7152,-207.2848 263.0557,-196.9443 272.3802,-187.6198"/>
<polygon fill="#000000" stroke="#000000" points="274.9905,-189.9592 279.5867,-180.4133 270.0408,-185.0095 274.9905,-189.9592"/>
<g id="a_edge13&#45;headlabel"><a xlink:href="dir_000014_000004.html" target="_top" xlink:title="1">
<text text-anchor="middle" x="274.4564" y="-192.0087" font-family="Helvetica,sans-Serif" font-size="10.00" fill="#000000">1</text>
</a>
</g>
</g>
<!-- dir_ec33ddd8f5ffd74706403185ee22af87&#45;&gt;dir_313caf1132e152dd9b58bea13a4052ca -->
<g id="edge14" class="edge">
<title>dir_ec33ddd8f5ffd74706403185ee22af87&#45;&gt;dir_313caf1132e152dd9b58bea13a4052ca</title>
<path fill="none" stroke="#000000" d="M224.4802,-215.7623C222.4334,-191.201 218.7706,-147.2474 216.3628,-118.3541"/>
<polygon fill="#000000" stroke="#000000" points="219.8259,-117.7644 215.5075,-108.0896 212.8501,-118.3458 219.8259,-117.7644"/>
<g id="a_edge14&#45;headlabel"><a xlink:href="dir_000014_000015.html" target="_top" xlink:title="9">
<text text-anchor="middle" x="222.9538" y="-118.6108" font-family="Helvetica,sans-Serif" font-size="10.00" fill="#000000">9</text>
</a>
</g>
</g>
<!-- dir_efedc0399e0892fcf242707c3ddb185f&#45;&gt;dir_aebb8dcc11953d78e620bbef0b9e2183 -->
<g id="edge15" class="edge">
<title>dir_efedc0399e0892fcf242707c3ddb185f&#45;&gt;dir_aebb8dcc11953d78e620bbef0b9e2183</title>
<path fill="none" stroke="#000000" d="M298,-215.8314C298,-208.131 298,-198.9743 298,-190.4166"/>
<polygon fill="#000000" stroke="#000000" points="301.5001,-190.4132 298,-180.4133 294.5001,-190.4133 301.5001,-190.4132"/>
<g id="a_edge15&#45;headlabel"><a xlink:href="dir_000001_000004.html" target="_top" xlink:title="1">
<text text-anchor="middle" x="304.3393" y="-191.5079" font-family="Helvetica,sans-Serif" font-size="10.00" fill="#000000">1</text>
</a>
</g>
</g>
<!-- dir_efedc0399e0892fcf242707c3ddb185f&#45;&gt;dir_313caf1132e152dd9b58bea13a4052ca -->
<g id="edge16" class="edge">
<title>dir_efedc0399e0892fcf242707c3ddb185f&#45;&gt;dir_313caf1132e152dd9b58bea13a4052ca</title>
<path fill="none" stroke="#000000" d="M285.2153,-215.7932C278.1215,-205.456 269.2867,-192.1842 262,-180 249.7299,-159.4829 237.0525,-135.5767 227.8096,-117.5615"/>
<polygon fill="#000000" stroke="#000000" points="230.7087,-115.5414 223.0524,-108.218 224.4707,-118.7175 230.7087,-115.5414"/>
<g id="a_edge16&#45;headlabel"><a xlink:href="dir_000001_000015.html" target="_top" xlink:title="14">
<text text-anchor="middle" x="234.8698" y="-114.9565" font-family="Helvetica,sans-Serif" font-size="10.00" fill="#000000">14</text>
</a>
</g>
</g>
<!-- dir_aebb8dcc11953d78e620bbef0b9e2183&#45;&gt;dir_6c04a91bc13b4612622c78d14e29af33 -->
<g id="edge17" class="edge">
<title>dir_aebb8dcc11953d78e620bbef0b9e2183&#45;&gt;dir_6c04a91bc13b4612622c78d14e29af33</title>
<path fill="none" stroke="#000000" d="M292.8934,-143.7628C286.2737,-123.4024 272.7914,-90.8443 250,-72 210.5615,-39.3916 151.4751,-26.4314 113.3274,-21.3086"/>
<polygon fill="#000000" stroke="#000000" points="113.5084,-17.8046 103.1568,-20.0617 112.6565,-24.7526 113.5084,-17.8046"/>
<g id="a_edge17&#45;headlabel"><a xlink:href="dir_000004_000002.html" target="_top" xlink:title="4">
<text text-anchor="middle" x="117.4218" y="-12.9238" font-family="Helvetica,sans-Serif" font-size="10.00" fill="#000000">4</text>
</a>
</g>
</g>
<!-- dir_aebb8dcc11953d78e620bbef0b9e2183&#45;&gt;dir_313caf1132e152dd9b58bea13a4052ca -->
<g id="edge18" class="edge">
<title>dir_aebb8dcc11953d78e620bbef0b9e2183&#45;&gt;dir_313caf1132e152dd9b58bea13a4052ca</title>
<path fill="none" stroke="#000000" d="M276.8033,-143.8314C266.5566,-135.0485 254.0997,-124.3712 242.9903,-114.8489"/>
<polygon fill="#000000" stroke="#000000" points="245.0603,-112.0134 235.19,-108.1628 240.5048,-117.3282 245.0603,-112.0134"/>
<g id="a_edge18&#45;headlabel"><a xlink:href="dir_000004_000015.html" target="_top" xlink:title="5">
<text text-anchor="middle" x="249.6373" y="-109.697" font-family="Helvetica,sans-Serif" font-size="10.00" fill="#000000">5</text>
</a>
</g>
</g>
<!-- dir_f8cc41312865e1289a0b78825bfdc325&#45;&gt;dir_8235a0e1c388cdad0e3f2a0adaa9e0ee -->
<g id="edge19" class="edge">
<title>dir_f8cc41312865e1289a0b78825bfdc325&#45;&gt;dir_8235a0e1c388cdad0e3f2a0adaa9e0ee</title>
<path fill="none" stroke="#000000" d="M106.8788,-287.8314C113.2136,-279.5386 120.8384,-269.557 127.7926,-260.4533"/>
<polygon fill="#000000" stroke="#000000" points="130.6452,-262.4847 133.9343,-252.4133 125.0825,-258.2353 130.6452,-262.4847"/>
<g id="a_edge19&#45;headlabel"><a xlink:href="dir_000006_000007.html" target="_top" xlink:title="1">
<text text-anchor="middle" x="130.7195" y="-264.5647" font-family="Helvetica,sans-Serif" font-size="10.00" fill="#000000">1</text>
</a>
</g>
</g>
<!-- dir_f8cc41312865e1289a0b78825bfdc325&#45;&gt;dir_313caf1132e152dd9b58bea13a4052ca -->
<g id="edge20" class="edge">
<title>dir_f8cc41312865e1289a0b78825bfdc325&#45;&gt;dir_313caf1132e152dd9b58bea13a4052ca</title>
<path fill="none" stroke="#000000" d="M92.696,-287.9279C93.0322,-269.1435 95.4306,-239.289 106,-216 124.3437,-175.5807 159.7232,-138.177 184.9904,-114.7981"/>
<polygon fill="#000000" stroke="#000000" points="187.4232,-117.3167 192.4772,-108.0049 182.7195,-112.1325 187.4232,-117.3167"/>
<g id="a_edge20&#45;headlabel"><a xlink:href="dir_000006_000015.html" target="_top" xlink:title="2">
<text text-anchor="middle" x="186.669" y="-119.3348" font-family="Helvetica,sans-Serif" font-size="10.00" fill="#000000">2</text>
</a>
</g>
</g>
<!-- dir_313caf1132e152dd9b58bea13a4052ca&#45;&gt;dir_6c04a91bc13b4612622c78d14e29af33 -->
<g id="edge21" class="edge">
<title>dir_313caf1132e152dd9b58bea13a4052ca&#45;&gt;dir_6c04a91bc13b4612622c78d14e29af33</title>
<path fill="none" stroke="#000000" d="M186.7356,-75.7751C165.3775,-64.6317 135.4736,-49.0297 112.1243,-36.8475"/>
<polygon fill="#000000" stroke="#000000" points="113.6926,-33.718 103.2077,-32.1953 110.4546,-39.9241 113.6926,-33.718"/>
<g id="a_edge21&#45;headlabel"><a xlink:href="dir_000015_000002.html" target="_top" xlink:title="10">
<text text-anchor="middle" x="118.1928" y="-30.3634" font-family="Helvetica,sans-Serif" font-size="10.00" fill="#000000">10</text>
</a>
</g>
</g>
</g>
</svg>
        <g id="navigator" transform="translate(0 0)" fill="#404254">
                <rect fill="#f2f5e9" fill-opacity="0.5" stroke="#606060" stroke-width=".5" x="0" y="0" width="60" height="60"/>
                <use id="zoomplus" xlink:href="#zoomPlus" x="17" y="9" onmousedown="handleZoom(evt,'in')"/>
                <use id="zoomminus" xlink:href="#zoomMin" x="42" y="9" onmousedown="handleZoom(evt,'out')"/>
                <use id="reset" xlink:href="#resetDef" x="30" y="36" onmousedown="handleReset()"/>
                <g id="arrowUp" xlink:href="#dirArrow" transform="translate(30 24)" onmousedown="handlePan(0,-1)">
                  <use xlink:href="#rim" fill="#404040">
                        <set attributeName="fill" to="#808080" begin="arrowUp.mouseover" end="arrowUp.mouseout"/>
                  </use>
                  <path fill="none" stroke="white" stroke-width="1.5" d="M0,-3.0v7 M-2.5,-0.5L0,-3.0L2.5,-0.5"/>
                </g>
                <g id="arrowRight" xlink:href="#dirArrow" transform="rotate(90) translate(36 -43)" onmousedown="handlePan(1,0)">
                  <use xlink:href="#rim" fill="#404040">
                        <set attributeName="fill" to="#808080" begin="arrowRight.mouseover" end="arrowRight.mouseout"/>
                  </use>
                  <path fill="none" stroke="white" stroke-width="1.5" d="M0,-3.0v7 M-2.5,-0.5L0,-3.0L2.5,-0.5"/>
                </g>
                <g id="arrowDown" xlink:href="#dirArrow" transform="rotate(180) translate(-30 -48)" onmousedown="handlePan(0,1)">
                  <use xlink:href="#rim" fill="#404040">
                        <set attributeName="fill" to="#808080" begin="arrowDown.mouseover" end="arrowDown.mouseout"/>
                  </use>
                  <path fill="none" stroke="white" stroke-width="1.5" d="M0,-3.0v7 M-2.5,-0.5L0,-3.0L2.5,-0.5"/>
                </g>
                <g id="arrowLeft" xlink:href="#dirArrow" transform="rotate(270) translate(-36 17)" onmousedown="handlePan(-1,0)">
                  <use xlink:href="#rim" fill="#404040">
                        <set attributeName="fill" to="#808080" begin="arrowLeft.mouseover" end="arrowLeft.mouseout"/>
                  </use>
                  <path fill="none" stroke="white" stroke-width="1.5" d="M0,-3.0v7 M-2.5,-0.5L0,-3.0L2.5,-0.5"/>
                </g>
        </g>
        <svg viewBox="0 0 15 15" width="100%" height="30px" preserveAspectRatio="xMaxYMin meet">
         <g id="arrow_out" transform="scale(0.3 0.3)">
          <a xlink:href="dir_f55f6dc9e21b09a12acc690b19f5e964_dep_org.svg" target="_base">
           <rect id="button" ry="5" rx="5" y="6" x="6" height="38" width="38"
                fill="#f2f5e9" fill-opacity="0.5" stroke="#606060" stroke-width="1.0"/>
           <path id="arrow"
             d="M 11.500037,31.436501 C 11.940474,20.09759 22.043105,11.32322 32.158766,21.979434 L 37.068811,17.246167 C 37.068811,17.246167 37.088388,32 37.088388,32 L 22.160133,31.978069 C 22.160133,31.978069 26.997745,27.140456 26.997745,27.140456 C 18.528582,18.264221 13.291696,25.230495 11.500037,31.436501 z"
             style="fill:#404040;"/>
          </a>
         </g>
        </svg>
</svg>
