<?xml version="1.0" encoding="UTF-8" standalone="no"?>
<!DOCTYPE svg PUBLIC "-//W3C//DTD SVG 1.1//EN"
 "http://www.w3.org/Graphics/SVG/1.1/DTD/svg11.dtd">
<!-- Generated by graphviz version 2.40.1 (20161225.0304)
 -->
<!-- Title: src Pages: 1 -->
<svg width="538pt" height="292pt"
 viewBox="0.00 0.00 538.00 292.00" xmlns="http://www.w3.org/2000/svg" xmlns:xlink="http://www.w3.org/1999/xlink">
<g id="graph0" class="graph" transform="scale(1 1) rotate(0) translate(4 288)">
<title>src</title>
<polygon fill="#ffffff" stroke="transparent" points="-4,4 -4,-288 534,-288 534,4 -4,4"/>
<g id="clust1" class="cluster">
<title>clusterdir_68267d1309a1af8e8297ef4c3efbcdba</title>
<g id="a_clust1"><a xlink:href="dir_68267d1309a1af8e8297ef4c3efbcdba.html" target="_top">
<polygon fill="#eeeeff" stroke="#000000" points="8,-8 8,-276 522,-276 522,-8 8,-8"/>
</a>
</g>
</g>
<!-- dir_68267d1309a1af8e8297ef4c3efbcdba -->
<g id="node1" class="node">
<title>dir_68267d1309a1af8e8297ef4c3efbcdba</title>
<text text-anchor="middle" x="487" y="-247.5" font-family="Helvetica,sans-Serif" font-size="10.00" fill="#000000">src</text>
</g>
<!-- dir_efedc0399e0892fcf242707c3ddb185f -->
<g id="node2" class="node">
<title>dir_efedc0399e0892fcf242707c3ddb185f</title>
<g id="a_node2"><a xlink:href="dir_efedc0399e0892fcf242707c3ddb185f.html" target="_top" xlink:title="adders">
<polygon fill="#ffffff" stroke="#000000" points="226,-268 172,-268 172,-232 226,-232 226,-268"/>
<text text-anchor="middle" x="199" y="-247.5" font-family="Helvetica,sans-Serif" font-size="10.00" fill="#000000">adders</text>
</a>
</g>
</g>
<!-- dir_aebb8dcc11953d78e620bbef0b9e2183 -->
<g id="node5" class="node">
<title>dir_aebb8dcc11953d78e620bbef0b9e2183</title>
<g id="a_node5"><a xlink:href="dir_aebb8dcc11953d78e620bbef0b9e2183.html" target="_top" xlink:title="core">
<polygon fill="#ffffff" stroke="#000000" points="226,-196 172,-196 172,-160 226,-160 226,-196"/>
<text text-anchor="middle" x="199" y="-175.5" font-family="Helvetica,sans-Serif" font-size="10.00" fill="#000000">core</text>
</a>
</g>
</g>
<!-- dir_efedc0399e0892fcf242707c3ddb185f&#45;&gt;dir_aebb8dcc11953d78e620bbef0b9e2183 -->
<g id="edge5" class="edge">
<title>dir_efedc0399e0892fcf242707c3ddb185f&#45;&gt;dir_aebb8dcc11953d78e620bbef0b9e2183</title>
<path fill="none" stroke="#000000" d="M199,-231.8314C199,-224.131 199,-214.9743 199,-206.4166"/>
<polygon fill="#000000" stroke="#000000" points="202.5001,-206.4132 199,-196.4133 195.5001,-206.4133 202.5001,-206.4132"/>
<g id="a_edge5&#45;headlabel"><a xlink:href="dir_000001_000006.html" target="_top" xlink:title="1">
<text text-anchor="middle" x="205.3393" y="-207.5079" font-family="Helvetica,sans-Serif" font-size="10.00" fill="#000000">1</text>
</a>
</g>
</g>
<!-- dir_6c04a91bc13b4612622c78d14e29af33 -->
<g id="node3" class="node">
<title>dir_6c04a91bc13b4612622c78d14e29af33</title>
<g id="a_node3"><a xlink:href="dir_6c04a91bc13b4612622c78d14e29af33.html" target="_top" xlink:title="alias">
<polygon fill="#ffffff" stroke="#000000" points="142,-52 88,-52 88,-16 142,-16 142,-52"/>
<text text-anchor="middle" x="115" y="-31.5" font-family="Helvetica,sans-Serif" font-size="10.00" fill="#000000">alias</text>
</a>
</g>
</g>
<!-- dir_6ddc554cda5704a54b4cf197aaaaa198 -->
<g id="node4" class="node">
<title>dir_6ddc554cda5704a54b4cf197aaaaa198</title>
<g id="a_node4"><a xlink:href="dir_6ddc554cda5704a54b4cf197aaaaa198.html" target="_top" xlink:title="class">
<polygon fill="#ffffff" stroke="#000000" points="188,-124 134,-124 134,-88 188,-88 188,-124"/>
<text text-anchor="middle" x="161" y="-103.5" font-family="Helvetica,sans-Serif" font-size="10.00" fill="#000000">class</text>
</a>
</g>
</g>
<!-- dir_6ddc554cda5704a54b4cf197aaaaa198&#45;&gt;dir_6c04a91bc13b4612622c78d14e29af33 -->
<g id="edge6" class="edge">
<title>dir_6ddc554cda5704a54b4cf197aaaaa198&#45;&gt;dir_6c04a91bc13b4612622c78d14e29af33</title>
<path fill="none" stroke="#000000" d="M149.3923,-87.8314C144.2022,-79.7079 137.9768,-69.9637 132.2575,-61.0118"/>
<polygon fill="#000000" stroke="#000000" points="135.0974,-58.9559 126.764,-52.4133 129.1985,-62.7246 135.0974,-58.9559"/>
<g id="a_edge6&#45;headlabel"><a xlink:href="dir_000005_000004.html" target="_top" xlink:title="2">
<text text-anchor="middle" x="139.4253" y="-57.9564" font-family="Helvetica,sans-Serif" font-size="10.00" fill="#000000">2</text>
</a>
</g>
</g>
<!-- dir_aebb8dcc11953d78e620bbef0b9e2183&#45;&gt;dir_6c04a91bc13b4612622c78d14e29af33 -->
<g id="edge7" class="edge">
<title>dir_aebb8dcc11953d78e620bbef0b9e2183&#45;&gt;dir_6c04a91bc13b4612622c78d14e29af33</title>
<path fill="none" stroke="#000000" d="M203.2826,-159.8225C206.7711,-140.6828 209.3324,-110.291 197,-88 187.1133,-70.1296 168.5196,-57.1584 151.5345,-48.4148"/>
<polygon fill="#000000" stroke="#000000" points="152.8583,-45.1678 142.3294,-43.988 149.8245,-51.4762 152.8583,-45.1678"/>
<g id="a_edge7&#45;headlabel"><a xlink:href="dir_000006_000004.html" target="_top" xlink:title="4">
<text text-anchor="middle" x="157.3283" y="-41.6669" font-family="Helvetica,sans-Serif" font-size="10.00" fill="#000000">4</text>
</a>
</g>
</g>
<!-- dir_aebb8dcc11953d78e620bbef0b9e2183&#45;&gt;dir_6ddc554cda5704a54b4cf197aaaaa198 -->
<g id="edge8" class="edge">
<title>dir_aebb8dcc11953d78e620bbef0b9e2183&#45;&gt;dir_6ddc554cda5704a54b4cf197aaaaa198</title>
<path fill="none" stroke="#000000" d="M189.411,-159.8314C185.1683,-151.7925 180.0879,-142.1666 175.404,-133.2918"/>
<polygon fill="#000000" stroke="#000000" points="178.4811,-131.6235 170.7181,-124.4133 172.2904,-134.8908 178.4811,-131.6235"/>
<g id="a_edge8&#45;headlabel"><a xlink:href="dir_000006_000005.html" target="_top" xlink:title="1">
<text text-anchor="middle" x="182.6699" y="-130.9772" font-family="Helvetica,sans-Serif" font-size="10.00" fill="#000000">1</text>
</a>
</g>
</g>
<!-- dir_1bc13244e26df1e1f069a1fd18e36da3 -->
<g id="node6" class="node">
<title>dir_1bc13244e26df1e1f069a1fd18e36da3</title>
<g id="a_node6"><a xlink:href="dir_1bc13244e26df1e1f069a1fd18e36da3.html" target="_top" xlink:title="filters">
<polygon fill="#ffffff" stroke="#000000" points="442,-268 388,-268 388,-232 442,-232 442,-268"/>
<text text-anchor="middle" x="415" y="-247.5" font-family="Helvetica,sans-Serif" font-size="10.00" fill="#000000">filters</text>
</a>
</g>
</g>
<!-- dir_1bc13244e26df1e1f069a1fd18e36da3&#45;&gt;dir_aebb8dcc11953d78e620bbef0b9e2183 -->
<g id="edge3" class="edge">
<title>dir_1bc13244e26df1e1f069a1fd18e36da3&#45;&gt;dir_aebb8dcc11953d78e620bbef0b9e2183</title>
<path fill="none" stroke="#000000" d="M387.7049,-235.7443C384.7971,-234.409 381.858,-233.1334 379,-232 330.6255,-212.8158 272.6545,-196.5743 235.8247,-187.056"/>
<polygon fill="#000000" stroke="#000000" points="236.5781,-183.6362 226.023,-184.5528 234.8459,-190.4185 236.5781,-183.6362"/>
<g id="a_edge3&#45;headlabel"><a xlink:href="dir_000007_000006.html" target="_top" xlink:title="1">
<text text-anchor="middle" x="240.7634" y="-179.2746" font-family="Helvetica,sans-Serif" font-size="10.00" fill="#000000">1</text>
</a>
</g>
</g>
<!-- dir_f8cc41312865e1289a0b78825bfdc325 -->
<g id="node7" class="node">
<title>dir_f8cc41312865e1289a0b78825bfdc325</title>
<g id="a_node7"><a xlink:href="dir_f8cc41312865e1289a0b78825bfdc325.html" target="_top" xlink:title="invokers">
<polygon fill="#ffffff" stroke="#000000" points="298,-268 244,-268 244,-232 298,-232 298,-268"/>
<text text-anchor="middle" x="271" y="-247.5" font-family="Helvetica,sans-Serif" font-size="10.00" fill="#000000">invokers</text>
</a>
</g>
</g>
<!-- dir_8235a0e1c388cdad0e3f2a0adaa9e0ee -->
<g id="node8" class="node">
<title>dir_8235a0e1c388cdad0e3f2a0adaa9e0ee</title>
<g id="a_node8"><a xlink:href="dir_8235a0e1c388cdad0e3f2a0adaa9e0ee.html" target="_top" xlink:title="processors">
<polygon fill="#ffffff" stroke="#000000" points="153.5,-268 88.5,-268 88.5,-232 153.5,-232 153.5,-268"/>
<text text-anchor="middle" x="121" y="-247.5" font-family="Helvetica,sans-Serif" font-size="10.00" fill="#000000">processors</text>
</a>
</g>
</g>
<!-- dir_8235a0e1c388cdad0e3f2a0adaa9e0ee&#45;&gt;dir_6c04a91bc13b4612622c78d14e29af33 -->
<g id="edge1" class="edge">
<title>dir_8235a0e1c388cdad0e3f2a0adaa9e0ee&#45;&gt;dir_6c04a91bc13b4612622c78d14e29af33</title>
<path fill="none" stroke="#000000" d="M120.4988,-231.9555C119.4554,-194.3938 117.0432,-107.5541 115.7892,-62.4103"/>
<polygon fill="#000000" stroke="#000000" points="119.2804,-62.044 115.504,-52.1451 112.2831,-62.2384 119.2804,-62.044"/>
<g id="a_edge1&#45;headlabel"><a xlink:href="dir_000011_000004.html" target="_top" xlink:title="2">
<text text-anchor="middle" x="122.2183" y="-63.0584" font-family="Helvetica,sans-Serif" font-size="10.00" fill="#000000">2</text>
</a>
</g>
</g>
<!-- dir_8235a0e1c388cdad0e3f2a0adaa9e0ee&#45;&gt;dir_aebb8dcc11953d78e620bbef0b9e2183 -->
<g id="edge2" class="edge">
<title>dir_8235a0e1c388cdad0e3f2a0adaa9e0ee&#45;&gt;dir_aebb8dcc11953d78e620bbef0b9e2183</title>
<path fill="none" stroke="#000000" d="M140.6827,-231.8314C150.1051,-223.1337 161.5401,-212.5783 171.7796,-203.1265"/>
<polygon fill="#000000" stroke="#000000" points="174.3495,-205.5175 179.3236,-196.1628 169.6016,-200.3738 174.3495,-205.5175"/>
<g id="a_edge2&#45;headlabel"><a xlink:href="dir_000011_000006.html" target="_top" xlink:title="1">
<text text-anchor="middle" x="173.634" y="-207.5419" font-family="Helvetica,sans-Serif" font-size="10.00" fill="#000000">1</text>
</a>
</g>
</g>
<!-- dir_f55f6dc9e21b09a12acc690b19f5e964 -->
<g id="node9" class="node">
<title>dir_f55f6dc9e21b09a12acc690b19f5e964</title>
<g id="a_node9"><a xlink:href="dir_f55f6dc9e21b09a12acc690b19f5e964.html" target="_top" xlink:title="pybind">
<polygon fill="#ffffff" stroke="#ff0000" points="70,-268 16,-268 16,-232 70,-232 70,-268"/>
<text text-anchor="middle" x="43" y="-247.5" font-family="Helvetica,sans-Serif" font-size="10.00" fill="#000000">pybind</text>
</a>
</g>
</g>
<!-- dir_f55f6dc9e21b09a12acc690b19f5e964&#45;&gt;dir_6c04a91bc13b4612622c78d14e29af33 -->
<g id="edge10" class="edge">
<title>dir_f55f6dc9e21b09a12acc690b19f5e964&#45;&gt;dir_6c04a91bc13b4612622c78d14e29af33</title>
<path fill="none" stroke="#000000" d="M49.0148,-231.9555C61.5883,-194.235 90.7271,-106.8188 105.72,-61.8399"/>
<polygon fill="#000000" stroke="#000000" points="109.1097,-62.7387 108.9516,-52.1451 102.4689,-60.5251 109.1097,-62.7387"/>
<g id="a_edge10&#45;headlabel"><a xlink:href="dir_000002_000004.html" target="_top" xlink:title="5">
<text text-anchor="middle" x="110.6666" y="-64.5467" font-family="Helvetica,sans-Serif" font-size="10.00" fill="#000000">5</text>
</a>
</g>
</g>
<!-- dir_f55f6dc9e21b09a12acc690b19f5e964&#45;&gt;dir_aebb8dcc11953d78e620bbef0b9e2183 -->
<g id="edge11" class="edge">
<title>dir_f55f6dc9e21b09a12acc690b19f5e964&#45;&gt;dir_aebb8dcc11953d78e620bbef0b9e2183</title>
<path fill="none" stroke="#000000" d="M70.0688,-236.3176C73.0737,-234.8429 76.0963,-233.3786 79,-232 106.7522,-218.8244 138.4596,-204.5908 162.3095,-194.0462"/>
<polygon fill="#000000" stroke="#000000" points="163.9514,-197.1475 171.6891,-189.9102 161.127,-190.7425 163.9514,-197.1475"/>
<g id="a_edge11&#45;headlabel"><a xlink:href="dir_000002_000006.html" target="_top" xlink:title="2">
<text text-anchor="middle" x="161.8078" y="-198.6956" font-family="Helvetica,sans-Serif" font-size="10.00" fill="#000000">2</text>
</a>
</g>
</g>
<!-- dir_ec33ddd8f5ffd74706403185ee22af87 -->
<g id="node10" class="node">
<title>dir_ec33ddd8f5ffd74706403185ee22af87</title>
<g id="a_node10"><a xlink:href="dir_ec33ddd8f5ffd74706403185ee22af87.html" target="_top" xlink:title="starters">
<polygon fill="#ffffff" stroke="#000000" points="370,-268 316,-268 316,-232 370,-232 370,-268"/>
<text text-anchor="middle" x="343" y="-247.5" font-family="Helvetica,sans-Serif" font-size="10.00" fill="#000000">starters</text>
</a>
</g>
</g>
<!-- dir_ec33ddd8f5ffd74706403185ee22af87&#45;&gt;dir_aebb8dcc11953d78e620bbef0b9e2183 -->
<g id="edge4" class="edge">
<title>dir_ec33ddd8f5ffd74706403185ee22af87&#45;&gt;dir_aebb8dcc11953d78e620bbef0b9e2183</title>
<path fill="none" stroke="#000000" d="M315.9147,-236.4574C293.2307,-225.1153 260.6433,-208.8217 235.6319,-196.316"/>
<polygon fill="#000000" stroke="#000000" points="236.963,-193.0684 226.4534,-191.7267 233.8325,-199.3294 236.963,-193.0684"/>
<g id="a_edge4&#45;headlabel"><a xlink:href="dir_000014_000006.html" target="_top" xlink:title="1">
<text text-anchor="middle" x="241.4478" y="-189.6364" font-family="Helvetica,sans-Serif" font-size="10.00" fill="#000000">1</text>
</a>
</g>
</g>
<!-- dir_313caf1132e152dd9b58bea13a4052ca -->
<g id="node11" class="node">
<title>dir_313caf1132e152dd9b58bea13a4052ca</title>
<g id="a_node11"><a xlink:href="dir_313caf1132e152dd9b58bea13a4052ca.html" target="_top" xlink:title="utils">
<polygon fill="#ffffff" stroke="#000000" points="76,-124 22,-124 22,-88 76,-88 76,-124"/>
<text text-anchor="middle" x="49" y="-103.5" font-family="Helvetica,sans-Serif" font-size="10.00" fill="#000000">utils</text>
</a>
</g>
</g>
<!-- dir_313caf1132e152dd9b58bea13a4052ca&#45;&gt;dir_6c04a91bc13b4612622c78d14e29af33 -->
<g id="edge9" class="edge">
<title>dir_313caf1132e152dd9b58bea13a4052ca&#45;&gt;dir_6c04a91bc13b4612622c78d14e29af33</title>
<path fill="none" stroke="#000000" d="M65.6546,-87.8314C73.4114,-79.3694 82.7802,-69.1489 91.261,-59.8971"/>
<polygon fill="#000000" stroke="#000000" points="93.9439,-62.1499 98.1212,-52.4133 88.7838,-57.4198 93.9439,-62.1499"/>
<g id="a_edge9&#45;headlabel"><a xlink:href="dir_000015_000004.html" target="_top" xlink:title="10">
<text text-anchor="middle" x="93.608" y="-64.2182" font-family="Helvetica,sans-Serif" font-size="10.00" fill="#000000">10</text>
</a>
</g>
</g>
</g>
</svg>
