<?xml version="1.0" encoding="UTF-8" standalone="no"?>
<!DOCTYPE svg PUBLIC "-//W3C//DTD SVG 1.1//EN"
 "http://www.w3.org/Graphics/SVG/1.1/DTD/svg11.dtd">
<!-- Generated by graphviz version 2.40.1 (20161225.0304)
 -->
<!-- Title: src/pybind Pages: 1 -->
<svg width="490pt" height="447pt"
 viewBox="0.00 0.00 490.00 447.00" xmlns="http://www.w3.org/2000/svg" xmlns:xlink="http://www.w3.org/1999/xlink">
<g id="graph0" class="graph" transform="scale(1 1) rotate(0) translate(4 443)">
<title>src/pybind</title>
<polygon fill="#ffffff" stroke="transparent" points="-4,4 -4,-443 486,-443 486,4 -4,4"/>
<g id="clust1" class="cluster">
<title>clusterdir_68267d1309a1af8e8297ef4c3efbcdba</title>
<g id="a_clust1"><a xlink:href="dir_68267d1309a1af8e8297ef4c3efbcdba.html" target="_top" xlink:title="src">
<polygon fill="#ddddee" stroke="#000000" points="16,-344 16,-431 474,-431 474,-344 16,-344"/>
<text text-anchor="middle" x="245" y="-419" font-family="Helvetica,sans-Serif" font-size="10.00" fill="#000000">src</text>
</a>
</g>
</g>
<g id="clust2" class="cluster">
<title>clusterdir_f55f6dc9e21b09a12acc690b19f5e964</title>
<g id="a_clust2"><a xlink:href="dir_f55f6dc9e21b09a12acc690b19f5e964.html" target="_top">
<polygon fill="#eeeeff" stroke="#000000" points="24,-352 24,-404 466,-404 466,-352 24,-352"/>
</a>
</g>
</g>
<!-- dir_f55f6dc9e21b09a12acc690b19f5e964 -->
<g id="node1" class="node">
<title>dir_f55f6dc9e21b09a12acc690b19f5e964</title>
<text text-anchor="middle" x="359" y="-375.5" font-family="Helvetica,sans-Serif" font-size="10.00" fill="#000000">pybind</text>
</g>
<!-- dir_ec33ddd8f5ffd74706403185ee22af87 -->
<g id="node10" class="node">
<title>dir_ec33ddd8f5ffd74706403185ee22af87</title>
<g id="a_node10"><a xlink:href="dir_ec33ddd8f5ffd74706403185ee22af87.html" target="_top" xlink:title="starters">
<polygon fill="none" stroke="#000000" points="462,-324 408,-324 408,-288 462,-288 462,-324"/>
<text text-anchor="middle" x="435" y="-303.5" font-family="Helvetica,sans-Serif" font-size="10.00" fill="#000000">starters</text>
</a>
</g>
</g>
<!-- dir_f55f6dc9e21b09a12acc690b19f5e964&#45;&gt;dir_ec33ddd8f5ffd74706403185ee22af87 -->
<g id="edge22" class="edge">
<title>dir_f55f6dc9e21b09a12acc690b19f5e964&#45;&gt;dir_ec33ddd8f5ffd74706403185ee22af87</title>
<path fill="none" stroke="#000000" d="M378.178,-359.8314C387.3588,-351.1337 398.5006,-340.5783 408.4776,-331.1265"/>
<polygon fill="#000000" stroke="#000000" points="410.9757,-333.5811 415.8281,-324.1628 406.1615,-328.4995 410.9757,-333.5811"/>
<g id="a_edge22&#45;headlabel"><a xlink:href="dir_000007_000013.html" target="_top" xlink:title="10">
<text text-anchor="middle" x="410.3189" y="-335.6145" font-family="Helvetica,sans-Serif" font-size="10.00" fill="#000000">10</text>
</a>
</g>
</g>
<!-- dir_aebb8dcc11953d78e620bbef0b9e2183 -->
<g id="node12" class="node">
<title>dir_aebb8dcc11953d78e620bbef0b9e2183</title>
<g id="a_node12"><a xlink:href="dir_aebb8dcc11953d78e620bbef0b9e2183.html" target="_top" xlink:title="core">
<polygon fill="none" stroke="#000000" points="318,-180 264,-180 264,-144 318,-144 318,-180"/>
<text text-anchor="middle" x="291" y="-159.5" font-family="Helvetica,sans-Serif" font-size="10.00" fill="#000000">core</text>
</a>
</g>
</g>
<!-- dir_f55f6dc9e21b09a12acc690b19f5e964&#45;&gt;dir_aebb8dcc11953d78e620bbef0b9e2183 -->
<g id="edge23" class="edge">
<title>dir_f55f6dc9e21b09a12acc690b19f5e964&#45;&gt;dir_aebb8dcc11953d78e620bbef0b9e2183</title>
<path fill="none" stroke="#000000" d="M356.8845,-359.9558C352.8956,-329.446 342.8244,-266.0969 323,-216 319.3486,-206.7727 314.2458,-197.2772 309.1863,-188.8719"/>
<polygon fill="#000000" stroke="#000000" points="312.0572,-186.8618 303.7839,-180.2434 306.1242,-190.5766 312.0572,-186.8618"/>
<g id="a_edge23&#45;headlabel"><a xlink:href="dir_000007_000003.html" target="_top" xlink:title="3">
<text text-anchor="middle" x="316.3713" y="-185.9018" font-family="Helvetica,sans-Serif" font-size="10.00" fill="#000000">3</text>
</a>
</g>
</g>
<!-- dir_313caf1132e152dd9b58bea13a4052ca -->
<g id="node14" class="node">
<title>dir_313caf1132e152dd9b58bea13a4052ca</title>
<g id="a_node14"><a xlink:href="dir_313caf1132e152dd9b58bea13a4052ca.html" target="_top" xlink:title="utils">
<polygon fill="none" stroke="#000000" points="234,-108 180,-108 180,-72 234,-72 234,-108"/>
<text text-anchor="middle" x="207" y="-87.5" font-family="Helvetica,sans-Serif" font-size="10.00" fill="#000000">utils</text>
</a>
</g>
</g>
<!-- dir_f55f6dc9e21b09a12acc690b19f5e964&#45;&gt;dir_313caf1132e152dd9b58bea13a4052ca -->
<g id="edge24" class="edge">
<title>dir_f55f6dc9e21b09a12acc690b19f5e964&#45;&gt;dir_313caf1132e152dd9b58bea13a4052ca</title>
<path fill="none" stroke="#000000" d="M362.343,-359.9804C369.1985,-317.1103 380.0563,-207.8688 327,-144 306.03,-118.7565 270.8101,-104.84 243.9349,-97.487"/>
<polygon fill="#000000" stroke="#000000" points="244.6449,-94.0562 234.0905,-94.9803 242.9176,-100.8397 244.6449,-94.0562"/>
<g id="a_edge24&#45;headlabel"><a xlink:href="dir_000007_000014.html" target="_top" xlink:title="1">
<text text-anchor="middle" x="248.829" y="-89.6916" font-family="Helvetica,sans-Serif" font-size="10.00" fill="#000000">1</text>
</a>
</g>
</g>
<!-- dir_6304a303afdde898cf6f1514bb96ad28 -->
<g id="node2" class="node">
<title>dir_6304a303afdde898cf6f1514bb96ad28</title>
<g id="a_node2"><a xlink:href="dir_6304a303afdde898cf6f1514bb96ad28.html" target="_top" xlink:title="adders">
<polygon fill="#ffffff" stroke="#000000" points="242,-396 188,-396 188,-360 242,-360 242,-396"/>
<text text-anchor="middle" x="215" y="-375.5" font-family="Helvetica,sans-Serif" font-size="10.00" fill="#000000">adders</text>
</a>
</g>
</g>
<!-- dir_efedc0399e0892fcf242707c3ddb185f -->
<g id="node11" class="node">
<title>dir_efedc0399e0892fcf242707c3ddb185f</title>
<g id="a_node11"><a xlink:href="dir_efedc0399e0892fcf242707c3ddb185f.html" target="_top" xlink:title="adders">
<polygon fill="none" stroke="#000000" points="242,-252 188,-252 188,-216 242,-216 242,-252"/>
<text text-anchor="middle" x="215" y="-231.5" font-family="Helvetica,sans-Serif" font-size="10.00" fill="#000000">adders</text>
</a>
</g>
</g>
<!-- dir_6304a303afdde898cf6f1514bb96ad28&#45;&gt;dir_efedc0399e0892fcf242707c3ddb185f -->
<g id="edge3" class="edge">
<title>dir_6304a303afdde898cf6f1514bb96ad28&#45;&gt;dir_efedc0399e0892fcf242707c3ddb185f</title>
<path fill="none" stroke="#000000" d="M215,-359.7623C215,-335.201 215,-291.2474 215,-262.3541"/>
<polygon fill="#000000" stroke="#000000" points="218.5001,-262.0896 215,-252.0896 211.5001,-262.0897 218.5001,-262.0896"/>
<g id="a_edge3&#45;headlabel"><a xlink:href="dir_000008_000001.html" target="_top" xlink:title="14">
<text text-anchor="middle" x="221.3393" y="-263.1842" font-family="Helvetica,sans-Serif" font-size="10.00" fill="#000000">14</text>
</a>
</g>
</g>
<!-- dir_e6b67e231d56eea13eccf9a18f16d1f2 -->
<g id="node3" class="node">
<title>dir_e6b67e231d56eea13eccf9a18f16d1f2</title>
<g id="a_node3"><a xlink:href="dir_e6b67e231d56eea13eccf9a18f16d1f2.html" target="_top" xlink:title="filters">
<polygon fill="#ffffff" stroke="#000000" points="314,-396 260,-396 260,-360 314,-360 314,-396"/>
<text text-anchor="middle" x="287" y="-375.5" font-family="Helvetica,sans-Serif" font-size="10.00" fill="#000000">filters</text>
</a>
</g>
</g>
<!-- dir_1bc13244e26df1e1f069a1fd18e36da3 -->
<g id="node9" class="node">
<title>dir_1bc13244e26df1e1f069a1fd18e36da3</title>
<g id="a_node9"><a xlink:href="dir_1bc13244e26df1e1f069a1fd18e36da3.html" target="_top" xlink:title="filters">
<polygon fill="none" stroke="#000000" points="314,-252 260,-252 260,-216 314,-216 314,-252"/>
<text text-anchor="middle" x="287" y="-231.5" font-family="Helvetica,sans-Serif" font-size="10.00" fill="#000000">filters</text>
</a>
</g>
</g>
<!-- dir_e6b67e231d56eea13eccf9a18f16d1f2&#45;&gt;dir_1bc13244e26df1e1f069a1fd18e36da3 -->
<g id="edge1" class="edge">
<title>dir_e6b67e231d56eea13eccf9a18f16d1f2&#45;&gt;dir_1bc13244e26df1e1f069a1fd18e36da3</title>
<path fill="none" stroke="#000000" d="M287,-359.7623C287,-335.201 287,-291.2474 287,-262.3541"/>
<polygon fill="#000000" stroke="#000000" points="290.5001,-262.0896 287,-252.0896 283.5001,-262.0897 290.5001,-262.0896"/>
<g id="a_edge1&#45;headlabel"><a xlink:href="dir_000009_000004.html" target="_top" xlink:title="3">
<text text-anchor="middle" x="293.3393" y="-263.1842" font-family="Helvetica,sans-Serif" font-size="10.00" fill="#000000">3</text>
</a>
</g>
</g>
<!-- dir_c0db64017119b344aae71e6e7899bbb5 -->
<g id="node4" class="node">
<title>dir_c0db64017119b344aae71e6e7899bbb5</title>
<g id="a_node4"><a xlink:href="dir_c0db64017119b344aae71e6e7899bbb5.html" target="_top" xlink:title="invokers">
<polygon fill="#ffffff" stroke="#000000" points="170,-396 116,-396 116,-360 170,-360 170,-396"/>
<text text-anchor="middle" x="143" y="-375.5" font-family="Helvetica,sans-Serif" font-size="10.00" fill="#000000">invokers</text>
</a>
</g>
</g>
<!-- dir_6c04a91bc13b4612622c78d14e29af33 -->
<g id="node7" class="node">
<title>dir_6c04a91bc13b4612622c78d14e29af33</title>
<g id="a_node7"><a xlink:href="dir_6c04a91bc13b4612622c78d14e29af33.html" target="_top" xlink:title="alias">
<polygon fill="none" stroke="#000000" points="111,-36 57,-36 57,0 111,0 111,-36"/>
<text text-anchor="middle" x="84" y="-15.5" font-family="Helvetica,sans-Serif" font-size="10.00" fill="#000000">alias</text>
</a>
</g>
</g>
<!-- dir_c0db64017119b344aae71e6e7899bbb5&#45;&gt;dir_6c04a91bc13b4612622c78d14e29af33 -->
<g id="edge11" class="edge">
<title>dir_c0db64017119b344aae71e6e7899bbb5&#45;&gt;dir_6c04a91bc13b4612622c78d14e29af33</title>
<path fill="none" stroke="#000000" d="M125.4254,-359.8322C95.5344,-328.1349 38,-263.3159 38,-234 38,-234 38,-234 38,-162 38,-119.7421 56.1976,-73.6755 69.7014,-45.3085"/>
<polygon fill="#000000" stroke="#000000" points="72.9822,-46.5675 74.2446,-36.0482 66.6978,-43.4843 72.9822,-46.5675"/>
<g id="a_edge11&#45;headlabel"><a xlink:href="dir_000010_000002.html" target="_top" xlink:title="1">
<text text-anchor="middle" x="73.948" y="-48.5452" font-family="Helvetica,sans-Serif" font-size="10.00" fill="#000000">1</text>
</a>
</g>
</g>
<!-- dir_f8cc41312865e1289a0b78825bfdc325 -->
<g id="node13" class="node">
<title>dir_f8cc41312865e1289a0b78825bfdc325</title>
<g id="a_node13"><a xlink:href="dir_f8cc41312865e1289a0b78825bfdc325.html" target="_top" xlink:title="invokers">
<polygon fill="none" stroke="#000000" points="170,-324 116,-324 116,-288 170,-288 170,-324"/>
<text text-anchor="middle" x="143" y="-303.5" font-family="Helvetica,sans-Serif" font-size="10.00" fill="#000000">invokers</text>
</a>
</g>
</g>
<!-- dir_c0db64017119b344aae71e6e7899bbb5&#45;&gt;dir_f8cc41312865e1289a0b78825bfdc325 -->
<g id="edge12" class="edge">
<title>dir_c0db64017119b344aae71e6e7899bbb5&#45;&gt;dir_f8cc41312865e1289a0b78825bfdc325</title>
<path fill="none" stroke="#000000" d="M143,-359.8314C143,-352.131 143,-342.9743 143,-334.4166"/>
<polygon fill="#000000" stroke="#000000" points="146.5001,-334.4132 143,-324.4133 139.5001,-334.4133 146.5001,-334.4132"/>
<g id="a_edge12&#45;headlabel"><a xlink:href="dir_000010_000005.html" target="_top" xlink:title="2">
<text text-anchor="middle" x="149.3393" y="-335.5079" font-family="Helvetica,sans-Serif" font-size="10.00" fill="#000000">2</text>
</a>
</g>
</g>
<!-- dir_aac6e0aba0e20504ae3255a4c4142454 -->
<g id="node5" class="node">
<title>dir_aac6e0aba0e20504ae3255a4c4142454</title>
<g id="a_node5"><a xlink:href="dir_aac6e0aba0e20504ae3255a4c4142454.html" target="_top" xlink:title="processors">
<polygon fill="#ffffff" stroke="#000000" points="97.5,-396 32.5,-396 32.5,-360 97.5,-360 97.5,-396"/>
<text text-anchor="middle" x="65" y="-375.5" font-family="Helvetica,sans-Serif" font-size="10.00" fill="#000000">processors</text>
</a>
</g>
</g>
<!-- dir_aac6e0aba0e20504ae3255a4c4142454&#45;&gt;dir_6c04a91bc13b4612622c78d14e29af33 -->
<g id="edge7" class="edge">
<title>dir_aac6e0aba0e20504ae3255a4c4142454&#45;&gt;dir_6c04a91bc13b4612622c78d14e29af33</title>
<path fill="none" stroke="#000000" d="M48.247,-359.7059C39.9184,-349.7683 30.311,-336.8996 24,-324 5.8072,-286.814 0,-275.3978 0,-234 0,-234 0,-234 0,-162 0,-120.6022 2.3869,-107.308 24,-72 30.6878,-61.0746 40.2491,-51.0667 49.7793,-42.714"/>
<polygon fill="#000000" stroke="#000000" points="52.2712,-45.1935 57.7135,-36.1033 47.7903,-39.8156 52.2712,-45.1935"/>
<g id="a_edge7&#45;headlabel"><a xlink:href="dir_000011_000002.html" target="_top" xlink:title="1">
<text text-anchor="middle" x="51.327" y="-47.1758" font-family="Helvetica,sans-Serif" font-size="10.00" fill="#000000">1</text>
</a>
</g>
</g>
<!-- dir_8235a0e1c388cdad0e3f2a0adaa9e0ee -->
<g id="node8" class="node">
<title>dir_8235a0e1c388cdad0e3f2a0adaa9e0ee</title>
<g id="a_node8"><a xlink:href="dir_8235a0e1c388cdad0e3f2a0adaa9e0ee.html" target="_top" xlink:title="processors">
<polygon fill="none" stroke="#000000" points="131.5,-252 66.5,-252 66.5,-216 131.5,-216 131.5,-252"/>
<text text-anchor="middle" x="99" y="-231.5" font-family="Helvetica,sans-Serif" font-size="10.00" fill="#000000">processors</text>
</a>
</g>
</g>
<!-- dir_aac6e0aba0e20504ae3255a4c4142454&#45;&gt;dir_8235a0e1c388cdad0e3f2a0adaa9e0ee -->
<g id="edge8" class="edge">
<title>dir_aac6e0aba0e20504ae3255a4c4142454&#45;&gt;dir_8235a0e1c388cdad0e3f2a0adaa9e0ee</title>
<path fill="none" stroke="#000000" d="M69.3061,-359.7623C75.1309,-335.0928 85.5748,-290.8598 92.3952,-261.9731"/>
<polygon fill="#000000" stroke="#000000" points="95.8372,-262.6263 94.7288,-252.0896 89.0245,-261.0177 95.8372,-262.6263"/>
<g id="a_edge8&#45;headlabel"><a xlink:href="dir_000011_000006.html" target="_top" xlink:title="9">
<text text-anchor="middle" x="97.7745" y="-264.2772" font-family="Helvetica,sans-Serif" font-size="10.00" fill="#000000">9</text>
</a>
</g>
</g>
<!-- dir_ffbbd8010c2a1e8431d38e023d9287cc -->
<g id="node6" class="node">
<title>dir_ffbbd8010c2a1e8431d38e023d9287cc</title>
<g id="a_node6"><a xlink:href="dir_ffbbd8010c2a1e8431d38e023d9287cc.html" target="_top" xlink:title="starters">
<polygon fill="#ffffff" stroke="#000000" points="458,-396 404,-396 404,-360 458,-360 458,-396"/>
<text text-anchor="middle" x="431" y="-375.5" font-family="Helvetica,sans-Serif" font-size="10.00" fill="#000000">starters</text>
</a>
</g>
</g>
<!-- dir_ffbbd8010c2a1e8431d38e023d9287cc&#45;&gt;dir_ec33ddd8f5ffd74706403185ee22af87 -->
<g id="edge2" class="edge">
<title>dir_ffbbd8010c2a1e8431d38e023d9287cc&#45;&gt;dir_ec33ddd8f5ffd74706403185ee22af87</title>
<path fill="none" stroke="#000000" d="M432.0094,-359.8314C432.4372,-352.131 432.9459,-342.9743 433.4213,-334.4166"/>
<polygon fill="#000000" stroke="#000000" points="436.9169,-334.592 433.977,-324.4133 429.9276,-334.2037 436.9169,-334.592"/>
<g id="a_edge2&#45;headlabel"><a xlink:href="dir_000012_000013.html" target="_top" xlink:title="8">
<text text-anchor="middle" x="439.5525" y="-335.8386" font-family="Helvetica,sans-Serif" font-size="10.00" fill="#000000">8</text>
</a>
</g>
</g>
<!-- dir_8235a0e1c388cdad0e3f2a0adaa9e0ee&#45;&gt;dir_6c04a91bc13b4612622c78d14e29af33 -->
<g id="edge4" class="edge">
<title>dir_8235a0e1c388cdad0e3f2a0adaa9e0ee&#45;&gt;dir_6c04a91bc13b4612622c78d14e29af33</title>
<path fill="none" stroke="#000000" d="M97.7469,-215.9555C95.1329,-178.3144 89.0824,-91.1867 85.9531,-46.1246"/>
<polygon fill="#000000" stroke="#000000" points="89.4445,-45.8785 85.2601,-36.1451 82.4614,-46.3635 89.4445,-45.8785"/>
<g id="a_edge4&#45;headlabel"><a xlink:href="dir_000006_000002.html" target="_top" xlink:title="2">
<text text-anchor="middle" x="92.5259" y="-46.7679" font-family="Helvetica,sans-Serif" font-size="10.00" fill="#000000">2</text>
</a>
</g>
</g>
<!-- dir_8235a0e1c388cdad0e3f2a0adaa9e0ee&#45;&gt;dir_aebb8dcc11953d78e620bbef0b9e2183 -->
<g id="edge5" class="edge">
<title>dir_8235a0e1c388cdad0e3f2a0adaa9e0ee&#45;&gt;dir_aebb8dcc11953d78e620bbef0b9e2183</title>
<path fill="none" stroke="#000000" d="M131.5702,-221.7862C165.6028,-209.024 218.8855,-189.0429 254.3631,-175.7389"/>
<polygon fill="#000000" stroke="#000000" points="255.7322,-178.9635 263.8666,-172.175 253.2743,-172.4092 255.7322,-178.9635"/>
<g id="a_edge5&#45;headlabel"><a xlink:href="dir_000006_000003.html" target="_top" xlink:title="1">
<text text-anchor="middle" x="253.3634" y="-180.3841" font-family="Helvetica,sans-Serif" font-size="10.00" fill="#000000">1</text>
</a>
</g>
</g>
<!-- dir_8235a0e1c388cdad0e3f2a0adaa9e0ee&#45;&gt;dir_313caf1132e152dd9b58bea13a4052ca -->
<g id="edge6" class="edge">
<title>dir_8235a0e1c388cdad0e3f2a0adaa9e0ee&#45;&gt;dir_313caf1132e152dd9b58bea13a4052ca</title>
<path fill="none" stroke="#000000" d="M106.0934,-215.9577C114.0849,-196.931 128.2991,-166.6326 146,-144 154.2505,-133.4509 164.7429,-123.3179 174.69,-114.7364"/>
<polygon fill="#000000" stroke="#000000" points="177.0707,-117.3081 182.4973,-108.2085 172.5805,-111.938 177.0707,-117.3081"/>
<g id="a_edge6&#45;headlabel"><a xlink:href="dir_000006_000014.html" target="_top" xlink:title="11">
<text text-anchor="middle" x="176.1342" y="-119.292" font-family="Helvetica,sans-Serif" font-size="10.00" fill="#000000">11</text>
</a>
</g>
</g>
<!-- dir_1bc13244e26df1e1f069a1fd18e36da3&#45;&gt;dir_aebb8dcc11953d78e620bbef0b9e2183 -->
<g id="edge9" class="edge">
<title>dir_1bc13244e26df1e1f069a1fd18e36da3&#45;&gt;dir_aebb8dcc11953d78e620bbef0b9e2183</title>
<path fill="none" stroke="#000000" d="M288.0094,-215.8314C288.4372,-208.131 288.9459,-198.9743 289.4213,-190.4166"/>
<polygon fill="#000000" stroke="#000000" points="292.9169,-190.592 289.977,-180.4133 285.9276,-190.2037 292.9169,-190.592"/>
<g id="a_edge9&#45;headlabel"><a xlink:href="dir_000004_000003.html" target="_top" xlink:title="1">
<text text-anchor="middle" x="295.5525" y="-191.8386" font-family="Helvetica,sans-Serif" font-size="10.00" fill="#000000">1</text>
</a>
</g>
</g>
<!-- dir_1bc13244e26df1e1f069a1fd18e36da3&#45;&gt;dir_313caf1132e152dd9b58bea13a4052ca -->
<g id="edge10" class="edge">
<title>dir_1bc13244e26df1e1f069a1fd18e36da3&#45;&gt;dir_313caf1132e152dd9b58bea13a4052ca</title>
<path fill="none" stroke="#000000" d="M275.8334,-215.6251C269.5896,-205.2354 261.7325,-191.967 255,-180 243.2783,-159.1647 230.5709,-135.2759 221.1772,-117.3482"/>
<polygon fill="#000000" stroke="#000000" points="224.0578,-115.3032 216.3267,-108.0589 217.8528,-118.5433 224.0578,-115.3032"/>
<g id="a_edge10&#45;headlabel"><a xlink:href="dir_000004_000014.html" target="_top" xlink:title="2">
<text text-anchor="middle" x="228.2384" y="-114.6754" font-family="Helvetica,sans-Serif" font-size="10.00" fill="#000000">2</text>
</a>
</g>
</g>
<!-- dir_ec33ddd8f5ffd74706403185ee22af87&#45;&gt;dir_aebb8dcc11953d78e620bbef0b9e2183 -->
<g id="edge13" class="edge">
<title>dir_ec33ddd8f5ffd74706403185ee22af87&#45;&gt;dir_aebb8dcc11953d78e620bbef0b9e2183</title>
<path fill="none" stroke="#000000" d="M420.3473,-287.6614C405.0502,-268.9235 379.9883,-239.3451 356,-216 345.6109,-205.8895 333.5579,-195.5389 322.6732,-186.6397"/>
<polygon fill="#000000" stroke="#000000" points="324.6048,-183.701 314.6243,-180.1454 320.2092,-189.1488 324.6048,-183.701"/>
<g id="a_edge13&#45;headlabel"><a xlink:href="dir_000013_000003.html" target="_top" xlink:title="1">
<text text-anchor="middle" x="329.1852" y="-181.2484" font-family="Helvetica,sans-Serif" font-size="10.00" fill="#000000">1</text>
</a>
</g>
</g>
<!-- dir_ec33ddd8f5ffd74706403185ee22af87&#45;&gt;dir_313caf1132e152dd9b58bea13a4052ca -->
<g id="edge14" class="edge">
<title>dir_ec33ddd8f5ffd74706403185ee22af87&#45;&gt;dir_313caf1132e152dd9b58bea13a4052ca</title>
<path fill="none" stroke="#000000" d="M435.8596,-287.9354C436.4068,-254.7733 432.6268,-183.9326 394,-144 373.3159,-122.6166 292.6182,-105.1021 244.2485,-96.2505"/>
<polygon fill="#000000" stroke="#000000" points="244.6201,-92.7615 234.1597,-94.4439 243.3862,-99.6519 244.6201,-92.7615"/>
<g id="a_edge14&#45;headlabel"><a xlink:href="dir_000013_000014.html" target="_top" xlink:title="9">
<text text-anchor="middle" x="248.6589" y="-88.1002" font-family="Helvetica,sans-Serif" font-size="10.00" fill="#000000">9</text>
</a>
</g>
</g>
<!-- dir_efedc0399e0892fcf242707c3ddb185f&#45;&gt;dir_aebb8dcc11953d78e620bbef0b9e2183 -->
<g id="edge15" class="edge">
<title>dir_efedc0399e0892fcf242707c3ddb185f&#45;&gt;dir_aebb8dcc11953d78e620bbef0b9e2183</title>
<path fill="none" stroke="#000000" d="M234.178,-215.8314C243.3588,-207.1337 254.5006,-196.5783 264.4776,-187.1265"/>
<polygon fill="#000000" stroke="#000000" points="266.9757,-189.5811 271.8281,-180.1628 262.1615,-184.4995 266.9757,-189.5811"/>
<g id="a_edge15&#45;headlabel"><a xlink:href="dir_000001_000003.html" target="_top" xlink:title="1">
<text text-anchor="middle" x="266.3189" y="-191.6145" font-family="Helvetica,sans-Serif" font-size="10.00" fill="#000000">1</text>
</a>
</g>
</g>
<!-- dir_efedc0399e0892fcf242707c3ddb185f&#45;&gt;dir_313caf1132e152dd9b58bea13a4052ca -->
<g id="edge16" class="edge">
<title>dir_efedc0399e0892fcf242707c3ddb185f&#45;&gt;dir_313caf1132e152dd9b58bea13a4052ca</title>
<path fill="none" stroke="#000000" d="M213.9868,-215.7623C212.6223,-191.201 210.1804,-147.2474 208.5752,-118.3541"/>
<polygon fill="#000000" stroke="#000000" points="212.0544,-117.88 208.005,-108.0896 205.0652,-118.2684 212.0544,-117.88"/>
<g id="a_edge16&#45;headlabel"><a xlink:href="dir_000001_000014.html" target="_top" xlink:title="14">
<text text-anchor="middle" x="215.0886" y="-118.8117" font-family="Helvetica,sans-Serif" font-size="10.00" fill="#000000">14</text>
</a>
</g>
</g>
<!-- dir_aebb8dcc11953d78e620bbef0b9e2183&#45;&gt;dir_6c04a91bc13b4612622c78d14e29af33 -->
<g id="edge17" class="edge">
<title>dir_aebb8dcc11953d78e620bbef0b9e2183&#45;&gt;dir_6c04a91bc13b4612622c78d14e29af33</title>
<path fill="none" stroke="#000000" d="M285.8022,-143.8716C279.0988,-123.6111 265.5399,-91.1444 243,-72 208.1637,-42.4116 156.3612,-28.8111 121.4395,-22.7132"/>
<polygon fill="#000000" stroke="#000000" points="121.6121,-19.1957 111.1812,-21.0523 120.4932,-26.1057 121.6121,-19.1957"/>
<g id="a_edge17&#45;headlabel"><a xlink:href="dir_000003_000002.html" target="_top" xlink:title="4">
<text text-anchor="middle" x="125.6143" y="-14.4673" font-family="Helvetica,sans-Serif" font-size="10.00" fill="#000000">4</text>
</a>
</g>
</g>
<!-- dir_aebb8dcc11953d78e620bbef0b9e2183&#45;&gt;dir_313caf1132e152dd9b58bea13a4052ca -->
<g id="edge18" class="edge">
<title>dir_aebb8dcc11953d78e620bbef0b9e2183&#45;&gt;dir_313caf1132e152dd9b58bea13a4052ca</title>
<path fill="none" stroke="#000000" d="M269.8033,-143.8314C259.5566,-135.0485 247.0997,-124.3712 235.9903,-114.8489"/>
<polygon fill="#000000" stroke="#000000" points="238.0603,-112.0134 228.19,-108.1628 233.5048,-117.3282 238.0603,-112.0134"/>
<g id="a_edge18&#45;headlabel"><a xlink:href="dir_000003_000014.html" target="_top" xlink:title="6">
<text text-anchor="middle" x="242.6373" y="-109.697" font-family="Helvetica,sans-Serif" font-size="10.00" fill="#000000">6</text>
</a>
</g>
</g>
<!-- dir_f8cc41312865e1289a0b78825bfdc325&#45;&gt;dir_8235a0e1c388cdad0e3f2a0adaa9e0ee -->
<g id="edge19" class="edge">
<title>dir_f8cc41312865e1289a0b78825bfdc325&#45;&gt;dir_8235a0e1c388cdad0e3f2a0adaa9e0ee</title>
<path fill="none" stroke="#000000" d="M131.8969,-287.8314C126.9326,-279.7079 120.9778,-269.9637 115.5072,-261.0118"/>
<polygon fill="#000000" stroke="#000000" points="118.4536,-259.121 110.2526,-252.4133 112.4806,-262.7712 118.4536,-259.121"/>
<g id="a_edge19&#45;headlabel"><a xlink:href="dir_000005_000006.html" target="_top" xlink:title="1">
<text text-anchor="middle" x="122.7507" y="-258.2077" font-family="Helvetica,sans-Serif" font-size="10.00" fill="#000000">1</text>
</a>
</g>
</g>
<!-- dir_f8cc41312865e1289a0b78825bfdc325&#45;&gt;dir_313caf1132e152dd9b58bea13a4052ca -->
<g id="edge20" class="edge">
<title>dir_f8cc41312865e1289a0b78825bfdc325&#45;&gt;dir_313caf1132e152dd9b58bea13a4052ca</title>
<path fill="none" stroke="#000000" d="M148.3465,-287.9555C159.523,-250.235 185.424,-162.8188 198.7511,-117.8399"/>
<polygon fill="#000000" stroke="#000000" points="202.1385,-118.7274 201.6237,-108.1451 195.4269,-116.7387 202.1385,-118.7274"/>
<g id="a_edge20&#45;headlabel"><a xlink:href="dir_000005_000014.html" target="_top" xlink:title="2">
<text text-anchor="middle" x="203.8397" y="-120.4805" font-family="Helvetica,sans-Serif" font-size="10.00" fill="#000000">2</text>
</a>
</g>
</g>
<!-- dir_313caf1132e152dd9b58bea13a4052ca&#45;&gt;dir_6c04a91bc13b4612622c78d14e29af33 -->
<g id="edge21" class="edge">
<title>dir_313caf1132e152dd9b58bea13a4052ca&#45;&gt;dir_6c04a91bc13b4612622c78d14e29af33</title>
<path fill="none" stroke="#000000" d="M179.7023,-74.0209C162.1059,-63.7205 139.032,-50.2139 119.9497,-39.0437"/>
<polygon fill="#000000" stroke="#000000" points="121.6197,-35.9658 111.2214,-33.9345 118.0834,-42.0069 121.6197,-35.9658"/>
<g id="a_edge21&#45;headlabel"><a xlink:href="dir_000014_000002.html" target="_top" xlink:title="10">
<text text-anchor="middle" x="126.1562" y="-32.8313" font-family="Helvetica,sans-Serif" font-size="10.00" fill="#000000">10</text>
</a>
</g>
</g>
</g>
</svg>
