<?xml version="1.0" encoding="UTF-8" standalone="no"?>
<!DOCTYPE svg PUBLIC "-//W3C//DTD SVG 1.1//EN"
 "http://www.w3.org/Graphics/SVG/1.1/DTD/svg11.dtd">
<!-- Generated by graphviz version 2.40.1 (20161225.0304)
 -->
<!-- Title: src Pages: 1 -->
<svg width="382pt" height="508pt"
 viewBox="0.00 0.00 382.00 508.00" xmlns="http://www.w3.org/2000/svg" xmlns:xlink="http://www.w3.org/1999/xlink">
<g id="graph0" class="graph" transform="scale(1 1) rotate(0) translate(4 504)">
<title>src</title>
<polygon fill="#ffffff" stroke="transparent" points="-4,4 -4,-504 378,-504 378,4 -4,4"/>
<g id="clust1" class="cluster">
<title>clusterdir_68267d1309a1af8e8297ef4c3efbcdba</title>
<g id="a_clust1"><a xlink:href="dir_68267d1309a1af8e8297ef4c3efbcdba.html" target="_top">
<polygon fill="#eeeeff" stroke="#000000" points="8,-8 8,-492 366,-492 366,-8 8,-8"/>
</a>
</g>
</g>
<!-- dir_68267d1309a1af8e8297ef4c3efbcdba -->
<g id="node1" class="node">
<title>dir_68267d1309a1af8e8297ef4c3efbcdba</title>
<text text-anchor="middle" x="219" y="-463.5" font-family="Helvetica,sans-Serif" font-size="10.00" fill="#000000">src</text>
</g>
<!-- dir_f55f6dc9e21b09a12acc690b19f5e964 -->
<g id="node9" class="node">
<title>dir_f55f6dc9e21b09a12acc690b19f5e964</title>
<g id="a_node9"><a xlink:href="dir_f55f6dc9e21b09a12acc690b19f5e964.html" target="_top" xlink:title="pybind">
<polygon fill="#ffffff" stroke="#ff0000" points="246,-412 192,-412 192,-376 246,-376 246,-412"/>
<text text-anchor="middle" x="219" y="-391.5" font-family="Helvetica,sans-Serif" font-size="10.00" fill="#000000">pybind</text>
</a>
</g>
</g>
<!-- dir_68267d1309a1af8e8297ef4c3efbcdba&#45;&gt;dir_f55f6dc9e21b09a12acc690b19f5e964 -->
<g id="edge1" class="edge">
<title>dir_68267d1309a1af8e8297ef4c3efbcdba&#45;&gt;dir_f55f6dc9e21b09a12acc690b19f5e964</title>
<path fill="none" stroke="#000000" d="M219,-447.8314C219,-440.131 219,-430.9743 219,-422.4166"/>
<polygon fill="#000000" stroke="#000000" points="222.5001,-422.4132 219,-412.4133 215.5001,-422.4133 222.5001,-422.4132"/>
<g id="a_edge1&#45;headlabel"><a xlink:href="dir_000000_000008.html" target="_top" xlink:title="14">
<text text-anchor="middle" x="225.3393" y="-423.5079" font-family="Helvetica,sans-Serif" font-size="10.00" fill="#000000">14</text>
</a>
</g>
</g>
<!-- dir_efedc0399e0892fcf242707c3ddb185f -->
<g id="node2" class="node">
<title>dir_efedc0399e0892fcf242707c3ddb185f</title>
<g id="a_node2"><a xlink:href="dir_efedc0399e0892fcf242707c3ddb185f.html" target="_top" xlink:title="adders">
<polygon fill="#ffffff" stroke="#000000" points="246,-340 192,-340 192,-304 246,-304 246,-340"/>
<text text-anchor="middle" x="219" y="-319.5" font-family="Helvetica,sans-Serif" font-size="10.00" fill="#000000">adders</text>
</a>
</g>
</g>
<!-- dir_aebb8dcc11953d78e620bbef0b9e2183 -->
<g id="node5" class="node">
<title>dir_aebb8dcc11953d78e620bbef0b9e2183</title>
<g id="a_node5"><a xlink:href="dir_aebb8dcc11953d78e620bbef0b9e2183.html" target="_top" xlink:title="core">
<polygon fill="#ffffff" stroke="#000000" points="225,-268 171,-268 171,-232 225,-232 225,-268"/>
<text text-anchor="middle" x="198" y="-247.5" font-family="Helvetica,sans-Serif" font-size="10.00" fill="#000000">core</text>
</a>
</g>
</g>
<!-- dir_efedc0399e0892fcf242707c3ddb185f&#45;&gt;dir_aebb8dcc11953d78e620bbef0b9e2183 -->
<g id="edge9" class="edge">
<title>dir_efedc0399e0892fcf242707c3ddb185f&#45;&gt;dir_aebb8dcc11953d78e620bbef0b9e2183</title>
<path fill="none" stroke="#000000" d="M213.7008,-303.8314C211.4302,-296.0463 208.7254,-286.7729 206.206,-278.1347"/>
<polygon fill="#000000" stroke="#000000" points="209.5306,-277.0332 203.3705,-268.4133 202.8106,-278.9933 209.5306,-277.0332"/>
<g id="a_edge9&#45;headlabel"><a xlink:href="dir_000001_000004.html" target="_top" xlink:title="1">
<text text-anchor="middle" x="213.2627" y="-277.1891" font-family="Helvetica,sans-Serif" font-size="10.00" fill="#000000">1</text>
</a>
</g>
</g>
<!-- dir_313caf1132e152dd9b58bea13a4052ca -->
<g id="node11" class="node">
<title>dir_313caf1132e152dd9b58bea13a4052ca</title>
<g id="a_node11"><a xlink:href="dir_313caf1132e152dd9b58bea13a4052ca.html" target="_top" xlink:title="utils">
<polygon fill="#ffffff" stroke="#000000" points="251,-124 197,-124 197,-88 251,-88 251,-124"/>
<text text-anchor="middle" x="224" y="-103.5" font-family="Helvetica,sans-Serif" font-size="10.00" fill="#000000">utils</text>
</a>
</g>
</g>
<!-- dir_efedc0399e0892fcf242707c3ddb185f&#45;&gt;dir_313caf1132e152dd9b58bea13a4052ca -->
<g id="edge10" class="edge">
<title>dir_efedc0399e0892fcf242707c3ddb185f&#45;&gt;dir_313caf1132e152dd9b58bea13a4052ca</title>
<path fill="none" stroke="#000000" d="M232.3562,-303.5137C238.7508,-293.5235 245.718,-280.6657 249,-268 261.0404,-221.5346 259.3246,-206.8765 249,-160 247.0195,-151.0081 243.3879,-141.7321 239.4949,-133.4596"/>
<polygon fill="#000000" stroke="#000000" points="242.5038,-131.6522 234.888,-124.2867 236.2484,-134.7939 242.5038,-131.6522"/>
<g id="a_edge10&#45;headlabel"><a xlink:href="dir_000001_000015.html" target="_top" xlink:title="11">
<text text-anchor="middle" x="246.6543" y="-131.0902" font-family="Helvetica,sans-Serif" font-size="10.00" fill="#000000">11</text>
</a>
</g>
</g>
<!-- dir_6c04a91bc13b4612622c78d14e29af33 -->
<g id="node3" class="node">
<title>dir_6c04a91bc13b4612622c78d14e29af33</title>
<g id="a_node3"><a xlink:href="dir_6c04a91bc13b4612622c78d14e29af33.html" target="_top" xlink:title="alias">
<polygon fill="#ffffff" stroke="#000000" points="113,-52 59,-52 59,-16 113,-16 113,-52"/>
<text text-anchor="middle" x="86" y="-31.5" font-family="Helvetica,sans-Serif" font-size="10.00" fill="#000000">alias</text>
</a>
</g>
</g>
<!-- dir_6ddc554cda5704a54b4cf197aaaaa198 -->
<g id="node4" class="node">
<title>dir_6ddc554cda5704a54b4cf197aaaaa198</title>
<g id="a_node4"><a xlink:href="dir_6ddc554cda5704a54b4cf197aaaaa198.html" target="_top" xlink:title="class">
<polygon fill="#ffffff" stroke="#000000" points="113,-196 59,-196 59,-160 113,-160 113,-196"/>
<text text-anchor="middle" x="86" y="-175.5" font-family="Helvetica,sans-Serif" font-size="10.00" fill="#000000">class</text>
</a>
</g>
</g>
<!-- dir_6ddc554cda5704a54b4cf197aaaaa198&#45;&gt;dir_6c04a91bc13b4612622c78d14e29af33 -->
<g id="edge11" class="edge">
<title>dir_6ddc554cda5704a54b4cf197aaaaa198&#45;&gt;dir_6c04a91bc13b4612622c78d14e29af33</title>
<path fill="none" stroke="#000000" d="M86,-159.7623C86,-135.201 86,-91.2474 86,-62.3541"/>
<polygon fill="#000000" stroke="#000000" points="89.5001,-62.0896 86,-52.0896 82.5001,-62.0897 89.5001,-62.0896"/>
<g id="a_edge11&#45;headlabel"><a xlink:href="dir_000003_000002.html" target="_top" xlink:title="2">
<text text-anchor="middle" x="92.3393" y="-63.1842" font-family="Helvetica,sans-Serif" font-size="10.00" fill="#000000">2</text>
</a>
</g>
</g>
<!-- dir_6ddc554cda5704a54b4cf197aaaaa198&#45;&gt;dir_313caf1132e152dd9b58bea13a4052ca -->
<g id="edge12" class="edge">
<title>dir_6ddc554cda5704a54b4cf197aaaaa198&#45;&gt;dir_313caf1132e152dd9b58bea13a4052ca</title>
<path fill="none" stroke="#000000" d="M113.2644,-163.7751C134.6225,-152.6317 164.5264,-137.0297 187.8757,-124.8475"/>
<polygon fill="#000000" stroke="#000000" points="189.5454,-127.9241 196.7923,-120.1953 186.3074,-121.718 189.5454,-127.9241"/>
<g id="a_edge12&#45;headlabel"><a xlink:href="dir_000003_000015.html" target="_top" xlink:title="2">
<text text-anchor="middle" x="187.6718" y="-129.604" font-family="Helvetica,sans-Serif" font-size="10.00" fill="#000000">2</text>
</a>
</g>
</g>
<!-- dir_aebb8dcc11953d78e620bbef0b9e2183&#45;&gt;dir_6c04a91bc13b4612622c78d14e29af33 -->
<g id="edge13" class="edge">
<title>dir_aebb8dcc11953d78e620bbef0b9e2183&#45;&gt;dir_6c04a91bc13b4612622c78d14e29af33</title>
<path fill="none" stroke="#000000" d="M170.988,-244.0336C132.2985,-234.8782 64.1897,-216.282 50,-196 21.2695,-154.9341 48.207,-94.8764 68.4242,-60.5989"/>
<polygon fill="#000000" stroke="#000000" points="71.4144,-62.4179 73.6386,-52.0591 65.4401,-58.7699 71.4144,-62.4179"/>
<g id="a_edge13&#45;headlabel"><a xlink:href="dir_000004_000002.html" target="_top" xlink:title="4">
<text text-anchor="middle" x="71.9644" y="-64.4654" font-family="Helvetica,sans-Serif" font-size="10.00" fill="#000000">4</text>
</a>
</g>
</g>
<!-- dir_aebb8dcc11953d78e620bbef0b9e2183&#45;&gt;dir_6ddc554cda5704a54b4cf197aaaaa198 -->
<g id="edge14" class="edge">
<title>dir_aebb8dcc11953d78e620bbef0b9e2183&#45;&gt;dir_6ddc554cda5704a54b4cf197aaaaa198</title>
<path fill="none" stroke="#000000" d="M170.8879,-232.5708C156.1394,-223.0896 137.7096,-211.2419 121.7944,-201.0107"/>
<polygon fill="#000000" stroke="#000000" points="123.5551,-197.9817 113.2506,-195.5182 119.7697,-203.87 123.5551,-197.9817"/>
<g id="a_edge14&#45;headlabel"><a xlink:href="dir_000004_000003.html" target="_top" xlink:title="1">
<text text-anchor="middle" x="128.1141" y="-195.0372" font-family="Helvetica,sans-Serif" font-size="10.00" fill="#000000">1</text>
</a>
</g>
</g>
<!-- dir_aebb8dcc11953d78e620bbef0b9e2183&#45;&gt;dir_313caf1132e152dd9b58bea13a4052ca -->
<g id="edge15" class="edge">
<title>dir_aebb8dcc11953d78e620bbef0b9e2183&#45;&gt;dir_313caf1132e152dd9b58bea13a4052ca</title>
<path fill="none" stroke="#000000" d="M201.9313,-231.5375C204.1066,-221.1203 206.8056,-207.8537 209,-196 212.7967,-175.491 216.656,-152.2699 219.5091,-134.5522"/>
<polygon fill="#000000" stroke="#000000" points="223.0247,-134.7321 221.146,-124.3052 216.1123,-133.6278 223.0247,-134.7321"/>
<g id="a_edge15&#45;headlabel"><a xlink:href="dir_000004_000015.html" target="_top" xlink:title="5">
<text text-anchor="middle" x="225.2615" y="-136.2295" font-family="Helvetica,sans-Serif" font-size="10.00" fill="#000000">5</text>
</a>
</g>
</g>
<!-- dir_1bc13244e26df1e1f069a1fd18e36da3 -->
<g id="node6" class="node">
<title>dir_1bc13244e26df1e1f069a1fd18e36da3</title>
<g id="a_node6"><a xlink:href="dir_1bc13244e26df1e1f069a1fd18e36da3.html" target="_top" xlink:title="filters">
<polygon fill="#ffffff" stroke="#000000" points="174,-340 120,-340 120,-304 174,-304 174,-340"/>
<text text-anchor="middle" x="147" y="-319.5" font-family="Helvetica,sans-Serif" font-size="10.00" fill="#000000">filters</text>
</a>
</g>
</g>
<!-- dir_1bc13244e26df1e1f069a1fd18e36da3&#45;&gt;dir_aebb8dcc11953d78e620bbef0b9e2183 -->
<g id="edge5" class="edge">
<title>dir_1bc13244e26df1e1f069a1fd18e36da3&#45;&gt;dir_aebb8dcc11953d78e620bbef0b9e2183</title>
<path fill="none" stroke="#000000" d="M159.8695,-303.8314C165.6835,-295.6232 172.6696,-285.7606 179.0646,-276.7323"/>
<polygon fill="#000000" stroke="#000000" points="182.0331,-278.5966 184.9573,-268.4133 176.321,-274.5505 182.0331,-278.5966"/>
<g id="a_edge5&#45;headlabel"><a xlink:href="dir_000005_000004.html" target="_top" xlink:title="1">
<text text-anchor="middle" x="182.2723" y="-280.671" font-family="Helvetica,sans-Serif" font-size="10.00" fill="#000000">1</text>
</a>
</g>
</g>
<!-- dir_1bc13244e26df1e1f069a1fd18e36da3&#45;&gt;dir_313caf1132e152dd9b58bea13a4052ca -->
<g id="edge6" class="edge">
<title>dir_1bc13244e26df1e1f069a1fd18e36da3&#45;&gt;dir_313caf1132e152dd9b58bea13a4052ca</title>
<path fill="none" stroke="#000000" d="M174.4479,-306.7545C198.6546,-293.0262 230.608,-274.0976 234,-268 257.3385,-226.0453 245.1829,-168.1805 234.4406,-134.1656"/>
<polygon fill="#000000" stroke="#000000" points="237.6747,-132.7998 231.193,-124.419 231.0337,-135.0127 237.6747,-132.7998"/>
<g id="a_edge6&#45;headlabel"><a xlink:href="dir_000005_000015.html" target="_top" xlink:title="2">
<text text-anchor="middle" x="241.5046" y="-132.8126" font-family="Helvetica,sans-Serif" font-size="10.00" fill="#000000">2</text>
</a>
</g>
</g>
<!-- dir_f8cc41312865e1289a0b78825bfdc325 -->
<g id="node7" class="node">
<title>dir_f8cc41312865e1289a0b78825bfdc325</title>
<g id="a_node7"><a xlink:href="dir_f8cc41312865e1289a0b78825bfdc325.html" target="_top" xlink:title="invokers">
<polygon fill="#ffffff" stroke="#000000" points="185,-196 131,-196 131,-160 185,-160 185,-196"/>
<text text-anchor="middle" x="158" y="-175.5" font-family="Helvetica,sans-Serif" font-size="10.00" fill="#000000">invokers</text>
</a>
</g>
</g>
<!-- dir_f8cc41312865e1289a0b78825bfdc325&#45;&gt;dir_313caf1132e152dd9b58bea13a4052ca -->
<g id="edge16" class="edge">
<title>dir_f8cc41312865e1289a0b78825bfdc325&#45;&gt;dir_313caf1132e152dd9b58bea13a4052ca</title>
<path fill="none" stroke="#000000" d="M174.6546,-159.8314C182.4114,-151.3694 191.7802,-141.1489 200.261,-131.8971"/>
<polygon fill="#000000" stroke="#000000" points="202.9439,-134.1499 207.1212,-124.4133 197.7838,-129.4198 202.9439,-134.1499"/>
<g id="a_edge16&#45;headlabel"><a xlink:href="dir_000006_000015.html" target="_top" xlink:title="2">
<text text-anchor="middle" x="202.608" y="-136.2182" font-family="Helvetica,sans-Serif" font-size="10.00" fill="#000000">2</text>
</a>
</g>
</g>
<!-- dir_8235a0e1c388cdad0e3f2a0adaa9e0ee -->
<g id="node8" class="node">
<title>dir_8235a0e1c388cdad0e3f2a0adaa9e0ee</title>
<g id="a_node8"><a xlink:href="dir_8235a0e1c388cdad0e3f2a0adaa9e0ee.html" target="_top" xlink:title="processors">
<polygon fill="#ffffff" stroke="#000000" points="81.5,-340 16.5,-340 16.5,-304 81.5,-304 81.5,-340"/>
<text text-anchor="middle" x="49" y="-319.5" font-family="Helvetica,sans-Serif" font-size="10.00" fill="#000000">processors</text>
</a>
</g>
</g>
<!-- dir_8235a0e1c388cdad0e3f2a0adaa9e0ee&#45;&gt;dir_6c04a91bc13b4612622c78d14e29af33 -->
<g id="edge2" class="edge">
<title>dir_8235a0e1c388cdad0e3f2a0adaa9e0ee&#45;&gt;dir_6c04a91bc13b4612622c78d14e29af33</title>
<path fill="none" stroke="#000000" d="M43.1097,-303.7982C31.0288,-263.2192 7.0726,-163.0107 38,-88 42.3196,-77.5234 49.5683,-67.7161 57.1409,-59.4104"/>
<polygon fill="#000000" stroke="#000000" points="59.6582,-61.8421 64.1116,-52.2287 54.6352,-56.9667 59.6582,-61.8421"/>
<g id="a_edge2&#45;headlabel"><a xlink:href="dir_000007_000002.html" target="_top" xlink:title="2">
<text text-anchor="middle" x="59.192" y="-63.899" font-family="Helvetica,sans-Serif" font-size="10.00" fill="#000000">2</text>
</a>
</g>
</g>
<!-- dir_8235a0e1c388cdad0e3f2a0adaa9e0ee&#45;&gt;dir_aebb8dcc11953d78e620bbef0b9e2183 -->
<g id="edge3" class="edge">
<title>dir_8235a0e1c388cdad0e3f2a0adaa9e0ee&#45;&gt;dir_aebb8dcc11953d78e620bbef0b9e2183</title>
<path fill="none" stroke="#000000" d="M81.6987,-306.1993C105.2941,-294.7975 137.1607,-279.3988 161.5707,-267.6034"/>
<polygon fill="#000000" stroke="#000000" points="163.3795,-270.6166 170.8606,-263.1144 160.3339,-264.3139 163.3795,-270.6166"/>
<g id="a_edge3&#45;headlabel"><a xlink:href="dir_000007_000004.html" target="_top" xlink:title="1">
<text text-anchor="middle" x="161.3783" y="-272.237" font-family="Helvetica,sans-Serif" font-size="10.00" fill="#000000">1</text>
</a>
</g>
</g>
<!-- dir_8235a0e1c388cdad0e3f2a0adaa9e0ee&#45;&gt;dir_313caf1132e152dd9b58bea13a4052ca -->
<g id="edge4" class="edge">
<title>dir_8235a0e1c388cdad0e3f2a0adaa9e0ee&#45;&gt;dir_313caf1132e152dd9b58bea13a4052ca</title>
<path fill="none" stroke="#000000" d="M72.6176,-303.992C109.1442,-275.7397 176.9198,-221.5887 194,-196 200.8986,-185.6649 210.0872,-156.2461 216.4697,-133.8306"/>
<polygon fill="#000000" stroke="#000000" points="219.8632,-134.6913 219.1864,-124.1181 213.122,-132.8057 219.8632,-134.6913"/>
<g id="a_edge4&#45;headlabel"><a xlink:href="dir_000007_000015.html" target="_top" xlink:title="9">
<text text-anchor="middle" x="221.6293" y="-136.4179" font-family="Helvetica,sans-Serif" font-size="10.00" fill="#000000">9</text>
</a>
</g>
</g>
<!-- dir_f55f6dc9e21b09a12acc690b19f5e964&#45;&gt;dir_efedc0399e0892fcf242707c3ddb185f -->
<g id="edge20" class="edge">
<title>dir_f55f6dc9e21b09a12acc690b19f5e964&#45;&gt;dir_efedc0399e0892fcf242707c3ddb185f</title>
<path fill="none" stroke="#000000" d="M219,-375.8314C219,-368.131 219,-358.9743 219,-350.4166"/>
<polygon fill="#000000" stroke="#000000" points="222.5001,-350.4132 219,-340.4133 215.5001,-350.4133 222.5001,-350.4132"/>
<g id="a_edge20&#45;headlabel"><a xlink:href="dir_000008_000001.html" target="_top" xlink:title="11">
<text text-anchor="middle" x="225.3393" y="-351.5079" font-family="Helvetica,sans-Serif" font-size="10.00" fill="#000000">11</text>
</a>
</g>
</g>
<!-- dir_f55f6dc9e21b09a12acc690b19f5e964&#45;&gt;dir_6c04a91bc13b4612622c78d14e29af33 -->
<g id="edge18" class="edge">
<title>dir_f55f6dc9e21b09a12acc690b19f5e964&#45;&gt;dir_6c04a91bc13b4612622c78d14e29af33</title>
<path fill="none" stroke="#000000" d="M246.0442,-389.0975C273.4497,-382.6722 314.9919,-368.6608 338,-340 363.5924,-308.12 357,-290.8816 357,-250 357,-250 357,-250 357,-178 357,-73.5184 197.9738,-44.6093 123.5613,-36.8012"/>
<polygon fill="#000000" stroke="#000000" points="123.5172,-33.2805 113.2253,-35.7958 122.8395,-40.2476 123.5172,-33.2805"/>
<g id="a_edge18&#45;headlabel"><a xlink:href="dir_000008_000002.html" target="_top" xlink:title="5">
<text text-anchor="middle" x="127.3698" y="-28.3025" font-family="Helvetica,sans-Serif" font-size="10.00" fill="#000000">5</text>
</a>
</g>
</g>
<!-- dir_f55f6dc9e21b09a12acc690b19f5e964&#45;&gt;dir_aebb8dcc11953d78e620bbef0b9e2183 -->
<g id="edge21" class="edge">
<title>dir_f55f6dc9e21b09a12acc690b19f5e964&#45;&gt;dir_aebb8dcc11953d78e620bbef0b9e2183</title>
<path fill="none" stroke="#000000" d="M191.7811,-388.8289C165.9412,-382.3174 128.5233,-368.3534 111,-340 102.5883,-326.3896 103.222,-317.9822 111,-304 116.8225,-293.5331 140.6199,-279.1237 161.8562,-267.8222"/>
<polygon fill="#000000" stroke="#000000" points="163.492,-270.9165 170.7408,-263.1895 160.2555,-264.7096 163.492,-270.9165"/>
<g id="a_edge21&#45;headlabel"><a xlink:href="dir_000008_000004.html" target="_top" xlink:title="2">
<text text-anchor="middle" x="161.6174" y="-272.596" font-family="Helvetica,sans-Serif" font-size="10.00" fill="#000000">2</text>
</a>
</g>
</g>
<!-- dir_f55f6dc9e21b09a12acc690b19f5e964&#45;&gt;dir_1bc13244e26df1e1f069a1fd18e36da3 -->
<g id="edge19" class="edge">
<title>dir_f55f6dc9e21b09a12acc690b19f5e964&#45;&gt;dir_1bc13244e26df1e1f069a1fd18e36da3</title>
<path fill="none" stroke="#000000" d="M200.8314,-375.8314C192.2848,-367.2848 181.9443,-356.9443 172.6198,-347.6198"/>
<polygon fill="#000000" stroke="#000000" points="174.9592,-345.0095 165.4133,-340.4133 170.0095,-349.9592 174.9592,-345.0095"/>
<g id="a_edge19&#45;headlabel"><a xlink:href="dir_000008_000005.html" target="_top" xlink:title="2">
<text text-anchor="middle" x="179.5087" y="-343.0436" font-family="Helvetica,sans-Serif" font-size="10.00" fill="#000000">2</text>
</a>
</g>
</g>
<!-- dir_f55f6dc9e21b09a12acc690b19f5e964&#45;&gt;dir_313caf1132e152dd9b58bea13a4052ca -->
<g id="edge22" class="edge">
<title>dir_f55f6dc9e21b09a12acc690b19f5e964&#45;&gt;dir_313caf1132e152dd9b58bea13a4052ca</title>
<path fill="none" stroke="#000000" d="M246.2189,-388.8289C272.0588,-382.3174 309.4767,-368.3534 327,-340 371.0081,-268.7935 294.2788,-175.5088 250.8185,-131.3185"/>
<polygon fill="#000000" stroke="#000000" points="253.1908,-128.7412 243.6397,-124.1558 248.2466,-133.6966 253.1908,-128.7412"/>
<g id="a_edge22&#45;headlabel"><a xlink:href="dir_000008_000015.html" target="_top" xlink:title="1">
<text text-anchor="middle" x="257.7408" y="-126.7702" font-family="Helvetica,sans-Serif" font-size="10.00" fill="#000000">1</text>
</a>
</g>
</g>
<!-- dir_ec33ddd8f5ffd74706403185ee22af87 -->
<g id="node10" class="node">
<title>dir_ec33ddd8f5ffd74706403185ee22af87</title>
<g id="a_node10"><a xlink:href="dir_ec33ddd8f5ffd74706403185ee22af87.html" target="_top" xlink:title="starters">
<polygon fill="#ffffff" stroke="#000000" points="318,-340 264,-340 264,-304 318,-304 318,-340"/>
<text text-anchor="middle" x="291" y="-319.5" font-family="Helvetica,sans-Serif" font-size="10.00" fill="#000000">starters</text>
</a>
</g>
</g>
<!-- dir_ec33ddd8f5ffd74706403185ee22af87&#45;&gt;dir_aebb8dcc11953d78e620bbef0b9e2183 -->
<g id="edge7" class="edge">
<title>dir_ec33ddd8f5ffd74706403185ee22af87&#45;&gt;dir_aebb8dcc11953d78e620bbef0b9e2183</title>
<path fill="none" stroke="#000000" d="M267.5322,-303.8314C255.9673,-294.8779 241.8596,-283.9558 229.3817,-274.2955"/>
<polygon fill="#000000" stroke="#000000" points="231.5102,-271.5171 221.4603,-268.1628 227.225,-277.0521 231.5102,-271.5171"/>
<g id="a_edge7&#45;headlabel"><a xlink:href="dir_000014_000004.html" target="_top" xlink:title="1">
<text text-anchor="middle" x="236.0906" y="-268.9725" font-family="Helvetica,sans-Serif" font-size="10.00" fill="#000000">1</text>
</a>
</g>
</g>
<!-- dir_ec33ddd8f5ffd74706403185ee22af87&#45;&gt;dir_313caf1132e152dd9b58bea13a4052ca -->
<g id="edge8" class="edge">
<title>dir_ec33ddd8f5ffd74706403185ee22af87&#45;&gt;dir_313caf1132e152dd9b58bea13a4052ca</title>
<path fill="none" stroke="#000000" d="M289.2408,-303.9242C285.8255,-273.3677 276.8189,-209.9515 257,-160 253.3102,-150.7002 248.0699,-141.1838 242.849,-132.7817"/>
<polygon fill="#000000" stroke="#000000" points="245.6408,-130.6538 237.2657,-124.1647 239.7662,-134.4602 245.6408,-130.6538"/>
<g id="a_edge8&#45;headlabel"><a xlink:href="dir_000014_000015.html" target="_top" xlink:title="8">
<text text-anchor="middle" x="249.9782" y="-129.6266" font-family="Helvetica,sans-Serif" font-size="10.00" fill="#000000">8</text>
</a>
</g>
</g>
<!-- dir_313caf1132e152dd9b58bea13a4052ca&#45;&gt;dir_6c04a91bc13b4612622c78d14e29af33 -->
<g id="edge17" class="edge">
<title>dir_313caf1132e152dd9b58bea13a4052ca&#45;&gt;dir_6c04a91bc13b4612622c78d14e29af33</title>
<path fill="none" stroke="#000000" d="M196.7356,-91.7751C175.3775,-80.6317 145.4736,-65.0297 122.1243,-52.8475"/>
<polygon fill="#000000" stroke="#000000" points="123.6926,-49.718 113.2077,-48.1953 120.4546,-55.9241 123.6926,-49.718"/>
<g id="a_edge17&#45;headlabel"><a xlink:href="dir_000015_000002.html" target="_top" xlink:title="10">
<text text-anchor="middle" x="128.1928" y="-46.3634" font-family="Helvetica,sans-Serif" font-size="10.00" fill="#000000">10</text>
</a>
</g>
</g>
</g>
</svg>
