<?xml version="1.0" encoding="UTF-8" standalone="no"?>
<!DOCTYPE svg PUBLIC "-//W3C//DTD SVG 1.1//EN"
 "http://www.w3.org/Graphics/SVG/1.1/DTD/svg11.dtd">
<!-- Generated by graphviz version 2.40.1 (20161225.0304)
 -->
<!-- Title: src/pybind Pages: 1 -->
<svg width="482pt" height="231pt"
 viewBox="0.00 0.00 482.00 231.00" xmlns="http://www.w3.org/2000/svg" xmlns:xlink="http://www.w3.org/1999/xlink">
<g id="graph0" class="graph" transform="scale(1 1) rotate(0) translate(4 227)">
<title>src/pybind</title>
<polygon fill="#ffffff" stroke="transparent" points="-4,4 -4,-227 478,-227 478,4 -4,4"/>
<g id="clust1" class="cluster">
<title>clusterdir_68267d1309a1af8e8297ef4c3efbcdba</title>
<g id="a_clust1"><a xlink:href="dir_68267d1309a1af8e8297ef4c3efbcdba.html" target="_top" xlink:title="src">
<polygon fill="#ddddee" stroke="#000000" points="8,-128 8,-215 466,-215 466,-128 8,-128"/>
<text text-anchor="middle" x="237" y="-203" font-family="Helvetica,sans-Serif" font-size="10.00" fill="#000000">src</text>
</a>
</g>
</g>
<g id="clust2" class="cluster">
<title>clusterdir_f55f6dc9e21b09a12acc690b19f5e964</title>
<g id="a_clust2"><a xlink:href="dir_f55f6dc9e21b09a12acc690b19f5e964.html" target="_top">
<polygon fill="#eeeeff" stroke="#000000" points="16,-136 16,-188 458,-188 458,-136 16,-136"/>
</a>
</g>
</g>
<!-- dir_f55f6dc9e21b09a12acc690b19f5e964 -->
<g id="node1" class="node">
<title>dir_f55f6dc9e21b09a12acc690b19f5e964</title>
<text text-anchor="middle" x="123" y="-159.5" font-family="Helvetica,sans-Serif" font-size="10.00" fill="#000000">pybind</text>
</g>
<!-- dir_aebb8dcc11953d78e620bbef0b9e2183 -->
<g id="node8" class="node">
<title>dir_aebb8dcc11953d78e620bbef0b9e2183</title>
<g id="a_node8"><a xlink:href="dir_aebb8dcc11953d78e620bbef0b9e2183.html" target="_top" xlink:title="core">
<polygon fill="none" stroke="#000000" points="159,-108 105,-108 105,-72 159,-72 159,-108"/>
<text text-anchor="middle" x="132" y="-87.5" font-family="Helvetica,sans-Serif" font-size="10.00" fill="#000000">core</text>
</a>
</g>
</g>
<!-- dir_f55f6dc9e21b09a12acc690b19f5e964&#45;&gt;dir_aebb8dcc11953d78e620bbef0b9e2183 -->
<g id="edge4" class="edge">
<title>dir_f55f6dc9e21b09a12acc690b19f5e964&#45;&gt;dir_aebb8dcc11953d78e620bbef0b9e2183</title>
<path fill="none" stroke="#000000" d="M125.2711,-143.8314C126.2336,-136.131 127.3782,-126.9743 128.4479,-118.4166"/>
<polygon fill="#000000" stroke="#000000" points="131.9309,-118.7702 129.6983,-108.4133 124.9849,-117.9019 131.9309,-118.7702"/>
<g id="a_edge4&#45;headlabel"><a xlink:href="dir_000002_000006.html" target="_top" xlink:title="2">
<text text-anchor="middle" x="134.3025" y="-120.1892" font-family="Helvetica,sans-Serif" font-size="10.00" fill="#000000">2</text>
</a>
</g>
</g>
<!-- dir_6304a303afdde898cf6f1514bb96ad28 -->
<g id="node2" class="node">
<title>dir_6304a303afdde898cf6f1514bb96ad28</title>
<g id="a_node2"><a xlink:href="dir_6304a303afdde898cf6f1514bb96ad28.html" target="_top" xlink:title="adders">
<polygon fill="#ffffff" stroke="#000000" points="366,-180 312,-180 312,-144 366,-144 366,-180"/>
<text text-anchor="middle" x="339" y="-159.5" font-family="Helvetica,sans-Serif" font-size="10.00" fill="#000000">adders</text>
</a>
</g>
</g>
<!-- dir_e6b67e231d56eea13eccf9a18f16d1f2 -->
<g id="node3" class="node">
<title>dir_e6b67e231d56eea13eccf9a18f16d1f2</title>
<g id="a_node3"><a xlink:href="dir_e6b67e231d56eea13eccf9a18f16d1f2.html" target="_top" xlink:title="filters">
<polygon fill="#ffffff" stroke="#000000" points="294,-180 240,-180 240,-144 294,-144 294,-180"/>
<text text-anchor="middle" x="267" y="-159.5" font-family="Helvetica,sans-Serif" font-size="10.00" fill="#000000">filters</text>
</a>
</g>
</g>
<!-- dir_c0db64017119b344aae71e6e7899bbb5 -->
<g id="node4" class="node">
<title>dir_c0db64017119b344aae71e6e7899bbb5</title>
<g id="a_node4"><a xlink:href="dir_c0db64017119b344aae71e6e7899bbb5.html" target="_top" xlink:title="invokers">
<polygon fill="#ffffff" stroke="#000000" points="222,-180 168,-180 168,-144 222,-144 222,-180"/>
<text text-anchor="middle" x="195" y="-159.5" font-family="Helvetica,sans-Serif" font-size="10.00" fill="#000000">invokers</text>
</a>
</g>
</g>
<!-- dir_6c04a91bc13b4612622c78d14e29af33 -->
<g id="node7" class="node">
<title>dir_6c04a91bc13b4612622c78d14e29af33</title>
<g id="a_node7"><a xlink:href="dir_6c04a91bc13b4612622c78d14e29af33.html" target="_top" xlink:title="alias">
<polygon fill="none" stroke="#000000" points="222,-36 168,-36 168,0 222,0 222,-36"/>
<text text-anchor="middle" x="195" y="-15.5" font-family="Helvetica,sans-Serif" font-size="10.00" fill="#000000">alias</text>
</a>
</g>
</g>
<!-- dir_c0db64017119b344aae71e6e7899bbb5&#45;&gt;dir_6c04a91bc13b4612622c78d14e29af33 -->
<g id="edge2" class="edge">
<title>dir_c0db64017119b344aae71e6e7899bbb5&#45;&gt;dir_6c04a91bc13b4612622c78d14e29af33</title>
<path fill="none" stroke="#000000" d="M195,-143.7623C195,-119.201 195,-75.2474 195,-46.3541"/>
<polygon fill="#000000" stroke="#000000" points="198.5001,-46.0896 195,-36.0896 191.5001,-46.0897 198.5001,-46.0896"/>
<g id="a_edge2&#45;headlabel"><a xlink:href="dir_000010_000004.html" target="_top" xlink:title="1">
<text text-anchor="middle" x="201.3393" y="-47.1842" font-family="Helvetica,sans-Serif" font-size="10.00" fill="#000000">1</text>
</a>
</g>
</g>
<!-- dir_aac6e0aba0e20504ae3255a4c4142454 -->
<g id="node5" class="node">
<title>dir_aac6e0aba0e20504ae3255a4c4142454</title>
<g id="a_node5"><a xlink:href="dir_aac6e0aba0e20504ae3255a4c4142454.html" target="_top" xlink:title="processors">
<polygon fill="#ffffff" stroke="#000000" points="449.5,-180 384.5,-180 384.5,-144 449.5,-144 449.5,-180"/>
<text text-anchor="middle" x="417" y="-159.5" font-family="Helvetica,sans-Serif" font-size="10.00" fill="#000000">processors</text>
</a>
</g>
</g>
<!-- dir_aac6e0aba0e20504ae3255a4c4142454&#45;&gt;dir_6c04a91bc13b4612622c78d14e29af33 -->
<g id="edge1" class="edge">
<title>dir_aac6e0aba0e20504ae3255a4c4142454&#45;&gt;dir_6c04a91bc13b4612622c78d14e29af33</title>
<path fill="none" stroke="#000000" d="M395.625,-143.7929C389.1376,-138.5157 381.8985,-132.8682 375,-128 326.8641,-94.0309 268.1474,-59.3175 231.1551,-38.2087"/>
<polygon fill="#000000" stroke="#000000" points="232.6619,-35.0394 222.238,-33.1439 229.2047,-41.1261 232.6619,-35.0394"/>
<g id="a_edge1&#45;headlabel"><a xlink:href="dir_000012_000004.html" target="_top" xlink:title="1">
<text text-anchor="middle" x="237.1898" y="-31.8458" font-family="Helvetica,sans-Serif" font-size="10.00" fill="#000000">1</text>
</a>
</g>
</g>
<!-- dir_ffbbd8010c2a1e8431d38e023d9287cc -->
<g id="node6" class="node">
<title>dir_ffbbd8010c2a1e8431d38e023d9287cc</title>
<g id="a_node6"><a xlink:href="dir_ffbbd8010c2a1e8431d38e023d9287cc.html" target="_top" xlink:title="starters">
<polygon fill="#ffffff" stroke="#000000" points="78,-180 24,-180 24,-144 78,-144 78,-180"/>
<text text-anchor="middle" x="51" y="-159.5" font-family="Helvetica,sans-Serif" font-size="10.00" fill="#000000">starters</text>
</a>
</g>
</g>
<!-- dir_aebb8dcc11953d78e620bbef0b9e2183&#45;&gt;dir_6c04a91bc13b4612622c78d14e29af33 -->
<g id="edge3" class="edge">
<title>dir_aebb8dcc11953d78e620bbef0b9e2183&#45;&gt;dir_6c04a91bc13b4612622c78d14e29af33</title>
<path fill="none" stroke="#000000" d="M147.8976,-71.8314C155.2278,-63.454 164.066,-53.3531 172.0969,-44.1749"/>
<polygon fill="#000000" stroke="#000000" points="174.9373,-46.2438 178.8884,-36.4133 169.6693,-41.6343 174.9373,-46.2438"/>
<g id="a_edge3&#45;headlabel"><a xlink:href="dir_000006_000004.html" target="_top" xlink:title="4">
<text text-anchor="middle" x="174.7071" y="-48.3187" font-family="Helvetica,sans-Serif" font-size="10.00" fill="#000000">4</text>
</a>
</g>
</g>
</g>
</svg>
