<?xml version="1.0" encoding="UTF-8" standalone="no"?>
<!DOCTYPE svg PUBLIC "-//W3C//DTD SVG 1.1//EN"
 "http://www.w3.org/Graphics/SVG/1.1/DTD/svg11.dtd">
<!-- Generated by graphviz version 2.40.1 (20161225.0304)
 -->
<!-- Title: src Pages: 1 -->
<svg width="382pt" height="508pt"
 viewBox="0.00 0.00 382.00 508.00" xmlns="http://www.w3.org/2000/svg" xmlns:xlink="http://www.w3.org/1999/xlink">
<g id="graph0" class="graph" transform="scale(1 1) rotate(0) translate(4 504)">
<title>src</title>
<polygon fill="#ffffff" stroke="transparent" points="-4,4 -4,-504 378,-504 378,4 -4,4"/>
<g id="clust1" class="cluster">
<title>clusterdir_68267d1309a1af8e8297ef4c3efbcdba</title>
<g id="a_clust1"><a xlink:href="dir_68267d1309a1af8e8297ef4c3efbcdba.html" target="_top">
<polygon fill="#eeeeff" stroke="#000000" points="8,-8 8,-492 366,-492 366,-8 8,-8"/>
</a>
</g>
</g>
<!-- dir_68267d1309a1af8e8297ef4c3efbcdba -->
<g id="node1" class="node">
<title>dir_68267d1309a1af8e8297ef4c3efbcdba</title>
<text text-anchor="middle" x="144" y="-463.5" font-family="Helvetica,sans-Serif" font-size="10.00" fill="#000000">src</text>
</g>
<!-- dir_f55f6dc9e21b09a12acc690b19f5e964 -->
<g id="node9" class="node">
<title>dir_f55f6dc9e21b09a12acc690b19f5e964</title>
<g id="a_node9"><a xlink:href="dir_f55f6dc9e21b09a12acc690b19f5e964.html" target="_top" xlink:title="pybind">
<polygon fill="#ffffff" stroke="#ff0000" points="171,-412 117,-412 117,-376 171,-376 171,-412"/>
<text text-anchor="middle" x="144" y="-391.5" font-family="Helvetica,sans-Serif" font-size="10.00" fill="#000000">pybind</text>
</a>
</g>
</g>
<!-- dir_68267d1309a1af8e8297ef4c3efbcdba&#45;&gt;dir_f55f6dc9e21b09a12acc690b19f5e964 -->
<g id="edge1" class="edge">
<title>dir_68267d1309a1af8e8297ef4c3efbcdba&#45;&gt;dir_f55f6dc9e21b09a12acc690b19f5e964</title>
<path fill="none" stroke="#000000" d="M144,-447.8314C144,-440.131 144,-430.9743 144,-422.4166"/>
<polygon fill="#000000" stroke="#000000" points="147.5001,-422.4132 144,-412.4133 140.5001,-422.4133 147.5001,-422.4132"/>
<g id="a_edge1&#45;headlabel"><a xlink:href="dir_000000_000002.html" target="_top" xlink:title="14">
<text text-anchor="middle" x="150.3393" y="-423.5079" font-family="Helvetica,sans-Serif" font-size="10.00" fill="#000000">14</text>
</a>
</g>
</g>
<!-- dir_efedc0399e0892fcf242707c3ddb185f -->
<g id="node2" class="node">
<title>dir_efedc0399e0892fcf242707c3ddb185f</title>
<g id="a_node2"><a xlink:href="dir_efedc0399e0892fcf242707c3ddb185f.html" target="_top" xlink:title="adders">
<polygon fill="#ffffff" stroke="#000000" points="194,-340 140,-340 140,-304 194,-304 194,-340"/>
<text text-anchor="middle" x="167" y="-319.5" font-family="Helvetica,sans-Serif" font-size="10.00" fill="#000000">adders</text>
</a>
</g>
</g>
<!-- dir_aebb8dcc11953d78e620bbef0b9e2183 -->
<g id="node5" class="node">
<title>dir_aebb8dcc11953d78e620bbef0b9e2183</title>
<g id="a_node5"><a xlink:href="dir_aebb8dcc11953d78e620bbef0b9e2183.html" target="_top" xlink:title="core">
<polygon fill="#ffffff" stroke="#000000" points="242,-268 188,-268 188,-232 242,-232 242,-268"/>
<text text-anchor="middle" x="215" y="-247.5" font-family="Helvetica,sans-Serif" font-size="10.00" fill="#000000">core</text>
</a>
</g>
</g>
<!-- dir_efedc0399e0892fcf242707c3ddb185f&#45;&gt;dir_aebb8dcc11953d78e620bbef0b9e2183 -->
<g id="edge9" class="edge">
<title>dir_efedc0399e0892fcf242707c3ddb185f&#45;&gt;dir_aebb8dcc11953d78e620bbef0b9e2183</title>
<path fill="none" stroke="#000000" d="M179.1124,-303.8314C184.5281,-295.7079 191.0242,-285.9637 196.9921,-277.0118"/>
<polygon fill="#000000" stroke="#000000" points="200.0896,-278.6753 202.7245,-268.4133 194.2653,-274.7923 200.0896,-278.6753"/>
<g id="a_edge9&#45;headlabel"><a xlink:href="dir_000001_000006.html" target="_top" xlink:title="1">
<text text-anchor="middle" x="200.4581" y="-280.7411" font-family="Helvetica,sans-Serif" font-size="10.00" fill="#000000">1</text>
</a>
</g>
</g>
<!-- dir_313caf1132e152dd9b58bea13a4052ca -->
<g id="node11" class="node">
<title>dir_313caf1132e152dd9b58bea13a4052ca</title>
<g id="a_node11"><a xlink:href="dir_313caf1132e152dd9b58bea13a4052ca.html" target="_top" xlink:title="utils">
<polygon fill="#ffffff" stroke="#000000" points="268,-124 214,-124 214,-88 268,-88 268,-124"/>
<text text-anchor="middle" x="241" y="-103.5" font-family="Helvetica,sans-Serif" font-size="10.00" fill="#000000">utils</text>
</a>
</g>
</g>
<!-- dir_efedc0399e0892fcf242707c3ddb185f&#45;&gt;dir_313caf1132e152dd9b58bea13a4052ca -->
<g id="edge10" class="edge">
<title>dir_efedc0399e0892fcf242707c3ddb185f&#45;&gt;dir_313caf1132e152dd9b58bea13a4052ca</title>
<path fill="none" stroke="#000000" d="M194.1999,-308.2306C216.2568,-296.4334 244.6862,-279.5647 251,-268 274.0054,-225.8618 261.9601,-168.0577 251.3288,-134.104"/>
<polygon fill="#000000" stroke="#000000" points="254.5754,-132.7736 248.1152,-124.3762 247.9287,-134.9693 254.5754,-132.7736"/>
<g id="a_edge10&#45;headlabel"><a xlink:href="dir_000001_000015.html" target="_top" xlink:title="11">
<text text-anchor="middle" x="258.3988" y="-132.7962" font-family="Helvetica,sans-Serif" font-size="10.00" fill="#000000">11</text>
</a>
</g>
</g>
<!-- dir_6c04a91bc13b4612622c78d14e29af33 -->
<g id="node3" class="node">
<title>dir_6c04a91bc13b4612622c78d14e29af33</title>
<g id="a_node3"><a xlink:href="dir_6c04a91bc13b4612622c78d14e29af33.html" target="_top" xlink:title="alias">
<polygon fill="#ffffff" stroke="#000000" points="84,-52 30,-52 30,-16 84,-16 84,-52"/>
<text text-anchor="middle" x="57" y="-31.5" font-family="Helvetica,sans-Serif" font-size="10.00" fill="#000000">alias</text>
</a>
</g>
</g>
<!-- dir_6ddc554cda5704a54b4cf197aaaaa198 -->
<g id="node4" class="node">
<title>dir_6ddc554cda5704a54b4cf197aaaaa198</title>
<g id="a_node4"><a xlink:href="dir_6ddc554cda5704a54b4cf197aaaaa198.html" target="_top" xlink:title="class">
<polygon fill="#ffffff" stroke="#000000" points="130,-196 76,-196 76,-160 130,-160 130,-196"/>
<text text-anchor="middle" x="103" y="-175.5" font-family="Helvetica,sans-Serif" font-size="10.00" fill="#000000">class</text>
</a>
</g>
</g>
<!-- dir_6ddc554cda5704a54b4cf197aaaaa198&#45;&gt;dir_6c04a91bc13b4612622c78d14e29af33 -->
<g id="edge11" class="edge">
<title>dir_6ddc554cda5704a54b4cf197aaaaa198&#45;&gt;dir_6c04a91bc13b4612622c78d14e29af33</title>
<path fill="none" stroke="#000000" d="M97.1741,-159.7623C89.2935,-135.0928 75.1635,-90.8598 65.9358,-61.9731"/>
<polygon fill="#000000" stroke="#000000" points="69.1557,-60.5503 62.7786,-52.0896 62.4876,-62.6805 69.1557,-60.5503"/>
<g id="a_edge11&#45;headlabel"><a xlink:href="dir_000005_000004.html" target="_top" xlink:title="2">
<text text-anchor="middle" x="72.9541" y="-60.6105" font-family="Helvetica,sans-Serif" font-size="10.00" fill="#000000">2</text>
</a>
</g>
</g>
<!-- dir_6ddc554cda5704a54b4cf197aaaaa198&#45;&gt;dir_313caf1132e152dd9b58bea13a4052ca -->
<g id="edge12" class="edge">
<title>dir_6ddc554cda5704a54b4cf197aaaaa198&#45;&gt;dir_313caf1132e152dd9b58bea13a4052ca</title>
<path fill="none" stroke="#000000" d="M130.2644,-163.7751C151.6225,-152.6317 181.5264,-137.0297 204.8757,-124.8475"/>
<polygon fill="#000000" stroke="#000000" points="206.5454,-127.9241 213.7923,-120.1953 203.3074,-121.718 206.5454,-127.9241"/>
<g id="a_edge12&#45;headlabel"><a xlink:href="dir_000005_000015.html" target="_top" xlink:title="2">
<text text-anchor="middle" x="204.6718" y="-129.604" font-family="Helvetica,sans-Serif" font-size="10.00" fill="#000000">2</text>
</a>
</g>
</g>
<!-- dir_aebb8dcc11953d78e620bbef0b9e2183&#45;&gt;dir_6c04a91bc13b4612622c78d14e29af33 -->
<g id="edge13" class="edge">
<title>dir_aebb8dcc11953d78e620bbef0b9e2183&#45;&gt;dir_6c04a91bc13b4612622c78d14e29af33</title>
<path fill="none" stroke="#000000" d="M187.8276,-243.8412C149.2863,-234.5126 81.7672,-215.7803 67,-196 37.9737,-157.12 43.47,-97.253 50.1801,-62.2204"/>
<polygon fill="#000000" stroke="#000000" points="53.6553,-62.6994 52.2647,-52.1962 46.8019,-61.2742 53.6553,-62.6994"/>
<g id="a_edge13&#45;headlabel"><a xlink:href="dir_000006_000004.html" target="_top" xlink:title="4">
<text text-anchor="middle" x="55.7034" y="-64.2968" font-family="Helvetica,sans-Serif" font-size="10.00" fill="#000000">4</text>
</a>
</g>
</g>
<!-- dir_aebb8dcc11953d78e620bbef0b9e2183&#45;&gt;dir_6ddc554cda5704a54b4cf197aaaaa198 -->
<g id="edge14" class="edge">
<title>dir_aebb8dcc11953d78e620bbef0b9e2183&#45;&gt;dir_6ddc554cda5704a54b4cf197aaaaa198</title>
<path fill="none" stroke="#000000" d="M187.8879,-232.5708C173.1394,-223.0896 154.7096,-211.2419 138.7944,-201.0107"/>
<polygon fill="#000000" stroke="#000000" points="140.5551,-197.9817 130.2506,-195.5182 136.7697,-203.87 140.5551,-197.9817"/>
<g id="a_edge14&#45;headlabel"><a xlink:href="dir_000006_000005.html" target="_top" xlink:title="1">
<text text-anchor="middle" x="145.1141" y="-195.0372" font-family="Helvetica,sans-Serif" font-size="10.00" fill="#000000">1</text>
</a>
</g>
</g>
<!-- dir_aebb8dcc11953d78e620bbef0b9e2183&#45;&gt;dir_313caf1132e152dd9b58bea13a4052ca -->
<g id="edge15" class="edge">
<title>dir_aebb8dcc11953d78e620bbef0b9e2183&#45;&gt;dir_313caf1132e152dd9b58bea13a4052ca</title>
<path fill="none" stroke="#000000" d="M218.9313,-231.5375C221.1066,-221.1203 223.8056,-207.8537 226,-196 229.7967,-175.491 233.656,-152.2699 236.5091,-134.5522"/>
<polygon fill="#000000" stroke="#000000" points="240.0247,-134.7321 238.146,-124.3052 233.1123,-133.6278 240.0247,-134.7321"/>
<g id="a_edge15&#45;headlabel"><a xlink:href="dir_000006_000015.html" target="_top" xlink:title="5">
<text text-anchor="middle" x="242.2615" y="-136.2295" font-family="Helvetica,sans-Serif" font-size="10.00" fill="#000000">5</text>
</a>
</g>
</g>
<!-- dir_1bc13244e26df1e1f069a1fd18e36da3 -->
<g id="node6" class="node">
<title>dir_1bc13244e26df1e1f069a1fd18e36da3</title>
<g id="a_node6"><a xlink:href="dir_1bc13244e26df1e1f069a1fd18e36da3.html" target="_top" xlink:title="filters">
<polygon fill="#ffffff" stroke="#000000" points="266,-340 212,-340 212,-304 266,-304 266,-340"/>
<text text-anchor="middle" x="239" y="-319.5" font-family="Helvetica,sans-Serif" font-size="10.00" fill="#000000">filters</text>
</a>
</g>
</g>
<!-- dir_1bc13244e26df1e1f069a1fd18e36da3&#45;&gt;dir_aebb8dcc11953d78e620bbef0b9e2183 -->
<g id="edge5" class="edge">
<title>dir_1bc13244e26df1e1f069a1fd18e36da3&#45;&gt;dir_aebb8dcc11953d78e620bbef0b9e2183</title>
<path fill="none" stroke="#000000" d="M232.9438,-303.8314C230.3488,-296.0463 227.2576,-286.7729 224.3782,-278.1347"/>
<polygon fill="#000000" stroke="#000000" points="227.6205,-276.7933 221.1378,-268.4133 220.9797,-279.0069 227.6205,-276.7933"/>
<g id="a_edge5&#45;headlabel"><a xlink:href="dir_000007_000006.html" target="_top" xlink:title="1">
<text text-anchor="middle" x="231.4507" y="-276.8056" font-family="Helvetica,sans-Serif" font-size="10.00" fill="#000000">1</text>
</a>
</g>
</g>
<!-- dir_1bc13244e26df1e1f069a1fd18e36da3&#45;&gt;dir_313caf1132e152dd9b58bea13a4052ca -->
<g id="edge6" class="edge">
<title>dir_1bc13244e26df1e1f069a1fd18e36da3&#45;&gt;dir_313caf1132e152dd9b58bea13a4052ca</title>
<path fill="none" stroke="#000000" d="M250.7508,-303.8241C256.5858,-293.7142 263.0139,-280.6495 266,-268 277.0281,-221.284 276.3246,-206.8765 266,-160 264.0195,-151.0081 260.3879,-141.7321 256.4949,-133.4596"/>
<polygon fill="#000000" stroke="#000000" points="259.5038,-131.6522 251.888,-124.2867 253.2484,-134.7939 259.5038,-131.6522"/>
<g id="a_edge6&#45;headlabel"><a xlink:href="dir_000007_000015.html" target="_top" xlink:title="2">
<text text-anchor="middle" x="263.6543" y="-131.0902" font-family="Helvetica,sans-Serif" font-size="10.00" fill="#000000">2</text>
</a>
</g>
</g>
<!-- dir_f8cc41312865e1289a0b78825bfdc325 -->
<g id="node7" class="node">
<title>dir_f8cc41312865e1289a0b78825bfdc325</title>
<g id="a_node7"><a xlink:href="dir_f8cc41312865e1289a0b78825bfdc325.html" target="_top" xlink:title="invokers">
<polygon fill="#ffffff" stroke="#000000" points="202,-196 148,-196 148,-160 202,-160 202,-196"/>
<text text-anchor="middle" x="175" y="-175.5" font-family="Helvetica,sans-Serif" font-size="10.00" fill="#000000">invokers</text>
</a>
</g>
</g>
<!-- dir_f8cc41312865e1289a0b78825bfdc325&#45;&gt;dir_313caf1132e152dd9b58bea13a4052ca -->
<g id="edge16" class="edge">
<title>dir_f8cc41312865e1289a0b78825bfdc325&#45;&gt;dir_313caf1132e152dd9b58bea13a4052ca</title>
<path fill="none" stroke="#000000" d="M191.6546,-159.8314C199.4114,-151.3694 208.7802,-141.1489 217.261,-131.8971"/>
<polygon fill="#000000" stroke="#000000" points="219.9439,-134.1499 224.1212,-124.4133 214.7838,-129.4198 219.9439,-134.1499"/>
<g id="a_edge16&#45;headlabel"><a xlink:href="dir_000009_000015.html" target="_top" xlink:title="2">
<text text-anchor="middle" x="219.608" y="-136.2182" font-family="Helvetica,sans-Serif" font-size="10.00" fill="#000000">2</text>
</a>
</g>
</g>
<!-- dir_8235a0e1c388cdad0e3f2a0adaa9e0ee -->
<g id="node8" class="node">
<title>dir_8235a0e1c388cdad0e3f2a0adaa9e0ee</title>
<g id="a_node8"><a xlink:href="dir_8235a0e1c388cdad0e3f2a0adaa9e0ee.html" target="_top" xlink:title="processors">
<polygon fill="#ffffff" stroke="#000000" points="101.5,-340 36.5,-340 36.5,-304 101.5,-304 101.5,-340"/>
<text text-anchor="middle" x="69" y="-319.5" font-family="Helvetica,sans-Serif" font-size="10.00" fill="#000000">processors</text>
</a>
</g>
</g>
<!-- dir_8235a0e1c388cdad0e3f2a0adaa9e0ee&#45;&gt;dir_6c04a91bc13b4612622c78d14e29af33 -->
<g id="edge2" class="edge">
<title>dir_8235a0e1c388cdad0e3f2a0adaa9e0ee&#45;&gt;dir_6c04a91bc13b4612622c78d14e29af33</title>
<path fill="none" stroke="#000000" d="M63.7862,-303.7632C53.1962,-264.334 31.0641,-168.2293 42,-88 43.1772,-79.3639 45.3671,-70.1599 47.717,-61.8427"/>
<polygon fill="#000000" stroke="#000000" points="51.078,-62.8195 50.6052,-52.2353 44.3743,-60.8042 51.078,-62.8195"/>
<g id="a_edge2&#45;headlabel"><a xlink:href="dir_000011_000004.html" target="_top" xlink:title="2">
<text text-anchor="middle" x="52.7622" y="-64.5794" font-family="Helvetica,sans-Serif" font-size="10.00" fill="#000000">2</text>
</a>
</g>
</g>
<!-- dir_8235a0e1c388cdad0e3f2a0adaa9e0ee&#45;&gt;dir_aebb8dcc11953d78e620bbef0b9e2183 -->
<g id="edge3" class="edge">
<title>dir_8235a0e1c388cdad0e3f2a0adaa9e0ee&#45;&gt;dir_aebb8dcc11953d78e620bbef0b9e2183</title>
<path fill="none" stroke="#000000" d="M101.7652,-305.8418C124.6254,-294.5683 155.1408,-279.5196 178.7333,-267.8849"/>
<polygon fill="#000000" stroke="#000000" points="180.3078,-271.011 187.7285,-263.449 177.2117,-264.7329 180.3078,-271.011"/>
<g id="a_edge3&#45;headlabel"><a xlink:href="dir_000011_000006.html" target="_top" xlink:title="1">
<text text-anchor="middle" x="178.3397" y="-272.6473" font-family="Helvetica,sans-Serif" font-size="10.00" fill="#000000">1</text>
</a>
</g>
</g>
<!-- dir_8235a0e1c388cdad0e3f2a0adaa9e0ee&#45;&gt;dir_313caf1132e152dd9b58bea13a4052ca -->
<g id="edge4" class="edge">
<title>dir_8235a0e1c388cdad0e3f2a0adaa9e0ee&#45;&gt;dir_313caf1132e152dd9b58bea13a4052ca</title>
<path fill="none" stroke="#000000" d="M92.1239,-303.9422C127.8878,-275.6206 194.2516,-221.3755 211,-196 217.8449,-185.6293 227.0432,-156.2168 233.4426,-133.8126"/>
<polygon fill="#000000" stroke="#000000" points="236.8345,-134.6793 236.1674,-124.1055 230.095,-132.7875 236.8345,-134.6793"/>
<g id="a_edge4&#45;headlabel"><a xlink:href="dir_000011_000015.html" target="_top" xlink:title="9">
<text text-anchor="middle" x="238.5967" y="-136.4075" font-family="Helvetica,sans-Serif" font-size="10.00" fill="#000000">9</text>
</a>
</g>
</g>
<!-- dir_f55f6dc9e21b09a12acc690b19f5e964&#45;&gt;dir_efedc0399e0892fcf242707c3ddb185f -->
<g id="edge19" class="edge">
<title>dir_f55f6dc9e21b09a12acc690b19f5e964&#45;&gt;dir_efedc0399e0892fcf242707c3ddb185f</title>
<path fill="none" stroke="#000000" d="M149.8039,-375.8314C152.2908,-368.0463 155.2531,-358.7729 158.0125,-350.1347"/>
<polygon fill="#000000" stroke="#000000" points="161.409,-351.0041 161.118,-340.4133 154.7409,-348.874 161.409,-351.0041"/>
<g id="a_edge19&#45;headlabel"><a xlink:href="dir_000002_000001.html" target="_top" xlink:title="11">
<text text-anchor="middle" x="163.0199" y="-352.7922" font-family="Helvetica,sans-Serif" font-size="10.00" fill="#000000">11</text>
</a>
</g>
</g>
<!-- dir_f55f6dc9e21b09a12acc690b19f5e964&#45;&gt;dir_6c04a91bc13b4612622c78d14e29af33 -->
<g id="edge18" class="edge">
<title>dir_f55f6dc9e21b09a12acc690b19f5e964&#45;&gt;dir_6c04a91bc13b4612622c78d14e29af33</title>
<path fill="none" stroke="#000000" d="M116.8318,-389.3969C89.415,-383.2158 48.1911,-369.401 27,-340 3.4677,-307.3506 17,-290.2462 17,-250 17,-250 17,-250 17,-178 17,-136.2219 32.824,-90.0316 44.5664,-61.5067"/>
<polygon fill="#000000" stroke="#000000" points="47.8354,-62.7629 48.517,-52.19 41.3908,-60.0301 47.8354,-62.7629"/>
<g id="a_edge18&#45;headlabel"><a xlink:href="dir_000002_000004.html" target="_top" xlink:title="5">
<text text-anchor="middle" x="49.0461" y="-64.6807" font-family="Helvetica,sans-Serif" font-size="10.00" fill="#000000">5</text>
</a>
</g>
</g>
<!-- dir_f55f6dc9e21b09a12acc690b19f5e964&#45;&gt;dir_aebb8dcc11953d78e620bbef0b9e2183 -->
<g id="edge20" class="edge">
<title>dir_f55f6dc9e21b09a12acc690b19f5e964&#45;&gt;dir_aebb8dcc11953d78e620bbef0b9e2183</title>
<path fill="none" stroke="#000000" d="M135.2175,-375.9394C127.3111,-356.8973 118.669,-326.5862 131,-304 136.4999,-293.9261 158.7812,-279.8274 179.0137,-268.5622"/>
<polygon fill="#000000" stroke="#000000" points="180.6973,-271.6307 187.8001,-263.7694 177.3452,-265.4855 180.6973,-271.6307"/>
<g id="a_edge20&#45;headlabel"><a xlink:href="dir_000002_000006.html" target="_top" xlink:title="2">
<text text-anchor="middle" x="178.9012" y="-273.3445" font-family="Helvetica,sans-Serif" font-size="10.00" fill="#000000">2</text>
</a>
</g>
</g>
<!-- dir_f55f6dc9e21b09a12acc690b19f5e964&#45;&gt;dir_313caf1132e152dd9b58bea13a4052ca -->
<g id="edge21" class="edge">
<title>dir_f55f6dc9e21b09a12acc690b19f5e964&#45;&gt;dir_313caf1132e152dd9b58bea13a4052ca</title>
<path fill="none" stroke="#000000" d="M171.325,-390.8174C221.6039,-384.3388 325.6066,-367.8282 347,-340 398.626,-272.8457 315.3049,-176.5374 268.8557,-131.2968"/>
<polygon fill="#000000" stroke="#000000" points="271.1155,-128.6149 261.4707,-124.2298 266.2758,-133.6723 271.1155,-128.6149"/>
<g id="a_edge21&#45;headlabel"><a xlink:href="dir_000002_000015.html" target="_top" xlink:title="1">
<text text-anchor="middle" x="275.6756" y="-126.5487" font-family="Helvetica,sans-Serif" font-size="10.00" fill="#000000">1</text>
</a>
</g>
</g>
<!-- dir_ec33ddd8f5ffd74706403185ee22af87 -->
<g id="node10" class="node">
<title>dir_ec33ddd8f5ffd74706403185ee22af87</title>
<g id="a_node10"><a xlink:href="dir_ec33ddd8f5ffd74706403185ee22af87.html" target="_top" xlink:title="starters">
<polygon fill="#ffffff" stroke="#000000" points="338,-340 284,-340 284,-304 338,-304 338,-340"/>
<text text-anchor="middle" x="311" y="-319.5" font-family="Helvetica,sans-Serif" font-size="10.00" fill="#000000">starters</text>
</a>
</g>
</g>
<!-- dir_ec33ddd8f5ffd74706403185ee22af87&#45;&gt;dir_aebb8dcc11953d78e620bbef0b9e2183 -->
<g id="edge7" class="edge">
<title>dir_ec33ddd8f5ffd74706403185ee22af87&#45;&gt;dir_aebb8dcc11953d78e620bbef0b9e2183</title>
<path fill="none" stroke="#000000" d="M286.7751,-303.8314C274.8372,-294.8779 260.2744,-283.9558 247.394,-274.2955"/>
<polygon fill="#000000" stroke="#000000" points="249.3171,-271.3629 239.2171,-268.1628 245.1171,-276.9629 249.3171,-271.3629"/>
<g id="a_edge7&#45;headlabel"><a xlink:href="dir_000014_000006.html" target="_top" xlink:title="1">
<text text-anchor="middle" x="253.8964" y="-268.7482" font-family="Helvetica,sans-Serif" font-size="10.00" fill="#000000">1</text>
</a>
</g>
</g>
<!-- dir_ec33ddd8f5ffd74706403185ee22af87&#45;&gt;dir_313caf1132e152dd9b58bea13a4052ca -->
<g id="edge8" class="edge">
<title>dir_ec33ddd8f5ffd74706403185ee22af87&#45;&gt;dir_313caf1132e152dd9b58bea13a4052ca</title>
<path fill="none" stroke="#000000" d="M308.8176,-303.9276C304.7061,-273.3764 294.338,-209.9676 274,-160 270.2282,-150.7332 264.9642,-141.2263 259.7468,-132.8227"/>
<polygon fill="#000000" stroke="#000000" points="262.543,-130.7009 254.1766,-124.2005 256.6632,-134.4994 262.543,-130.7009"/>
<g id="a_edge8&#45;headlabel"><a xlink:href="dir_000014_000015.html" target="_top" xlink:title="8">
<text text-anchor="middle" x="266.8784" y="-129.6795" font-family="Helvetica,sans-Serif" font-size="10.00" fill="#000000">8</text>
</a>
</g>
</g>
<!-- dir_313caf1132e152dd9b58bea13a4052ca&#45;&gt;dir_6c04a91bc13b4612622c78d14e29af33 -->
<g id="edge17" class="edge">
<title>dir_313caf1132e152dd9b58bea13a4052ca&#45;&gt;dir_6c04a91bc13b4612622c78d14e29af33</title>
<path fill="none" stroke="#000000" d="M213.8502,-95.3762C182.0515,-82.9332 129.2226,-62.261 93.7685,-48.3877"/>
<polygon fill="#000000" stroke="#000000" points="94.8491,-45.0521 84.2612,-44.6674 92.2982,-51.5708 94.8491,-45.0521"/>
<g id="a_edge17&#45;headlabel"><a xlink:href="dir_000015_000004.html" target="_top" xlink:title="10">
<text text-anchor="middle" x="99.2311" y="-41.2179" font-family="Helvetica,sans-Serif" font-size="10.00" fill="#000000">10</text>
</a>
</g>
</g>
</g>
</svg>
