<?xml version="1.0" encoding="UTF-8" standalone="no"?>
<!DOCTYPE svg PUBLIC "-//W3C//DTD SVG 1.1//EN"
 "http://www.w3.org/Graphics/SVG/1.1/DTD/svg11.dtd">
<!-- Generated by graphviz version 2.40.1 (20161225.0304)
 -->
<!-- Title: src/pybind Pages: 1 -->
<svg width="482pt" height="159pt"
 viewBox="0.00 0.00 482.00 159.00" xmlns="http://www.w3.org/2000/svg" xmlns:xlink="http://www.w3.org/1999/xlink">
<g id="graph0" class="graph" transform="scale(1 1) rotate(0) translate(4 155)">
<title>src/pybind</title>
<polygon fill="#ffffff" stroke="transparent" points="-4,4 -4,-155 478,-155 478,4 -4,4"/>
<g id="clust1" class="cluster">
<title>clusterdir_68267d1309a1af8e8297ef4c3efbcdba</title>
<g id="a_clust1"><a xlink:href="dir_68267d1309a1af8e8297ef4c3efbcdba.html" target="_top" xlink:title="src">
<polygon fill="#ddddee" stroke="#000000" points="8,-56 8,-143 466,-143 466,-56 8,-56"/>
<text text-anchor="middle" x="237" y="-131" font-family="Helvetica,sans-Serif" font-size="10.00" fill="#000000">src</text>
</a>
</g>
</g>
<g id="clust2" class="cluster">
<title>clusterdir_f55f6dc9e21b09a12acc690b19f5e964</title>
<g id="a_clust2"><a xlink:href="dir_f55f6dc9e21b09a12acc690b19f5e964.html" target="_top">
<polygon fill="#eeeeff" stroke="#000000" points="16,-64 16,-116 458,-116 458,-64 16,-64"/>
</a>
</g>
</g>
<!-- dir_f55f6dc9e21b09a12acc690b19f5e964 -->
<g id="node1" class="node">
<title>dir_f55f6dc9e21b09a12acc690b19f5e964</title>
<text text-anchor="middle" x="423" y="-87.5" font-family="Helvetica,sans-Serif" font-size="10.00" fill="#000000">pybind</text>
</g>
<!-- dir_aebb8dcc11953d78e620bbef0b9e2183 -->
<g id="node7" class="node">
<title>dir_aebb8dcc11953d78e620bbef0b9e2183</title>
<g id="a_node7"><a xlink:href="dir_aebb8dcc11953d78e620bbef0b9e2183.html" target="_top" xlink:title="core">
<polygon fill="none" stroke="#000000" points="450,-36 396,-36 396,0 450,0 450,-36"/>
<text text-anchor="middle" x="423" y="-15.5" font-family="Helvetica,sans-Serif" font-size="10.00" fill="#000000">core</text>
</a>
</g>
</g>
<!-- dir_f55f6dc9e21b09a12acc690b19f5e964&#45;&gt;dir_aebb8dcc11953d78e620bbef0b9e2183 -->
<g id="edge1" class="edge">
<title>dir_f55f6dc9e21b09a12acc690b19f5e964&#45;&gt;dir_aebb8dcc11953d78e620bbef0b9e2183</title>
<path fill="none" stroke="#000000" d="M423,-71.8314C423,-64.131 423,-54.9743 423,-46.4166"/>
<polygon fill="#000000" stroke="#000000" points="426.5001,-46.4132 423,-36.4133 419.5001,-46.4133 426.5001,-46.4132"/>
<g id="a_edge1&#45;headlabel"><a xlink:href="dir_000002_000006.html" target="_top" xlink:title="1">
<text text-anchor="middle" x="429.3393" y="-47.5079" font-family="Helvetica,sans-Serif" font-size="10.00" fill="#000000">1</text>
</a>
</g>
</g>
<!-- dir_6304a303afdde898cf6f1514bb96ad28 -->
<g id="node2" class="node">
<title>dir_6304a303afdde898cf6f1514bb96ad28</title>
<g id="a_node2"><a xlink:href="dir_6304a303afdde898cf6f1514bb96ad28.html" target="_top" xlink:title="adders">
<polygon fill="#ffffff" stroke="#000000" points="378,-108 324,-108 324,-72 378,-72 378,-108"/>
<text text-anchor="middle" x="351" y="-87.5" font-family="Helvetica,sans-Serif" font-size="10.00" fill="#000000">adders</text>
</a>
</g>
</g>
<!-- dir_e6b67e231d56eea13eccf9a18f16d1f2 -->
<g id="node3" class="node">
<title>dir_e6b67e231d56eea13eccf9a18f16d1f2</title>
<g id="a_node3"><a xlink:href="dir_e6b67e231d56eea13eccf9a18f16d1f2.html" target="_top" xlink:title="filters">
<polygon fill="#ffffff" stroke="#000000" points="306,-108 252,-108 252,-72 306,-72 306,-108"/>
<text text-anchor="middle" x="279" y="-87.5" font-family="Helvetica,sans-Serif" font-size="10.00" fill="#000000">filters</text>
</a>
</g>
</g>
<!-- dir_c0db64017119b344aae71e6e7899bbb5 -->
<g id="node4" class="node">
<title>dir_c0db64017119b344aae71e6e7899bbb5</title>
<g id="a_node4"><a xlink:href="dir_c0db64017119b344aae71e6e7899bbb5.html" target="_top" xlink:title="invokers">
<polygon fill="#ffffff" stroke="#000000" points="234,-108 180,-108 180,-72 234,-72 234,-108"/>
<text text-anchor="middle" x="207" y="-87.5" font-family="Helvetica,sans-Serif" font-size="10.00" fill="#000000">invokers</text>
</a>
</g>
</g>
<!-- dir_aac6e0aba0e20504ae3255a4c4142454 -->
<g id="node5" class="node">
<title>dir_aac6e0aba0e20504ae3255a4c4142454</title>
<g id="a_node5"><a xlink:href="dir_aac6e0aba0e20504ae3255a4c4142454.html" target="_top" xlink:title="processors">
<polygon fill="#ffffff" stroke="#000000" points="161.5,-108 96.5,-108 96.5,-72 161.5,-72 161.5,-108"/>
<text text-anchor="middle" x="129" y="-87.5" font-family="Helvetica,sans-Serif" font-size="10.00" fill="#000000">processors</text>
</a>
</g>
</g>
<!-- dir_ffbbd8010c2a1e8431d38e023d9287cc -->
<g id="node6" class="node">
<title>dir_ffbbd8010c2a1e8431d38e023d9287cc</title>
<g id="a_node6"><a xlink:href="dir_ffbbd8010c2a1e8431d38e023d9287cc.html" target="_top" xlink:title="starters">
<polygon fill="#ffffff" stroke="#000000" points="78,-108 24,-108 24,-72 78,-72 78,-108"/>
<text text-anchor="middle" x="51" y="-87.5" font-family="Helvetica,sans-Serif" font-size="10.00" fill="#000000">starters</text>
</a>
</g>
</g>
</g>
</svg>
