<?xml version="1.0" encoding="UTF-8" standalone="no"?>
<!DOCTYPE svg PUBLIC "-//W3C//DTD SVG 1.1//EN"
 "http://www.w3.org/Graphics/SVG/1.1/DTD/svg11.dtd">
<!-- Generated by graphviz version 2.40.1 (20161225.0304)
 -->
<!-- Title: src/pybind/processors Pages: 1 -->
<svg width="120pt" height="223pt"
 viewBox="0.00 0.00 119.50 223.00" xmlns="http://www.w3.org/2000/svg" xmlns:xlink="http://www.w3.org/1999/xlink">
<g id="graph0" class="graph" transform="scale(1 1) rotate(0) translate(4 219)">
<title>src/pybind/processors</title>
<polygon fill="#ffffff" stroke="transparent" points="-4,4 -4,-219 115.5,-219 115.5,4 -4,4"/>
<g id="clust1" class="cluster">
<title>clusterdir_f55f6dc9e21b09a12acc690b19f5e964</title>
<g id="a_clust1"><a xlink:href="dir_f55f6dc9e21b09a12acc690b19f5e964.html" target="_top" xlink:title="pybind">
<polygon fill="#ddddee" stroke="#000000" points="8,-136 8,-207 90,-207 90,-136 8,-136"/>
<text text-anchor="middle" x="49" y="-195" font-family="Helvetica,sans-Serif" font-size="10.00" fill="#000000">pybind</text>
</a>
</g>
</g>
<!-- dir_aac6e0aba0e20504ae3255a4c4142454 -->
<g id="node1" class="node">
<title>dir_aac6e0aba0e20504ae3255a4c4142454</title>
<g id="a_node1"><a xlink:href="dir_aac6e0aba0e20504ae3255a4c4142454.html" target="_top" xlink:title="processors">
<polygon fill="#eeeeff" stroke="#000000" points="81.5,-180 16.5,-180 16.5,-144 81.5,-144 81.5,-180"/>
<text text-anchor="middle" x="49" y="-159.5" font-family="Helvetica,sans-Serif" font-size="10.00" fill="#000000">processors</text>
</a>
</g>
</g>
<!-- dir_6c04a91bc13b4612622c78d14e29af33 -->
<g id="node2" class="node">
<title>dir_6c04a91bc13b4612622c78d14e29af33</title>
<g id="a_node2"><a xlink:href="dir_6c04a91bc13b4612622c78d14e29af33.html" target="_top" xlink:title="alias">
<polygon fill="none" stroke="#000000" points="75,-36 21,-36 21,0 75,0 75,-36"/>
<text text-anchor="middle" x="48" y="-15.5" font-family="Helvetica,sans-Serif" font-size="10.00" fill="#000000">alias</text>
</a>
</g>
</g>
<!-- dir_aac6e0aba0e20504ae3255a4c4142454&#45;&gt;dir_6c04a91bc13b4612622c78d14e29af33 -->
<g id="edge2" class="edge">
<title>dir_aac6e0aba0e20504ae3255a4c4142454&#45;&gt;dir_6c04a91bc13b4612622c78d14e29af33</title>
<path fill="none" stroke="#000000" d="M44.3066,-143.6463C41.8929,-133.2631 39.2092,-119.9943 38,-108 36.3951,-92.0807 36.5372,-87.933 38,-72 38.7723,-63.5885 40.2077,-54.5317 41.7547,-46.2836"/>
<polygon fill="#000000" stroke="#000000" points="45.2067,-46.8697 43.7325,-36.3779 38.3422,-45.499 45.2067,-46.8697"/>
<g id="a_edge2&#45;headlabel"><a xlink:href="dir_000012_000002.html" target="_top" xlink:title="1">
<text text-anchor="middle" x="47.2873" y="-48.4506" font-family="Helvetica,sans-Serif" font-size="10.00" fill="#000000">1</text>
</a>
</g>
</g>
<!-- dir_8235a0e1c388cdad0e3f2a0adaa9e0ee -->
<g id="node3" class="node">
<title>dir_8235a0e1c388cdad0e3f2a0adaa9e0ee</title>
<g id="a_node3"><a xlink:href="dir_8235a0e1c388cdad0e3f2a0adaa9e0ee.html" target="_top" xlink:title="processors">
<polygon fill="none" stroke="#000000" points="111.5,-108 46.5,-108 46.5,-72 111.5,-72 111.5,-108"/>
<text text-anchor="middle" x="79" y="-87.5" font-family="Helvetica,sans-Serif" font-size="10.00" fill="#000000">processors</text>
</a>
</g>
</g>
<!-- dir_aac6e0aba0e20504ae3255a4c4142454&#45;&gt;dir_8235a0e1c388cdad0e3f2a0adaa9e0ee -->
<g id="edge3" class="edge">
<title>dir_aac6e0aba0e20504ae3255a4c4142454&#45;&gt;dir_8235a0e1c388cdad0e3f2a0adaa9e0ee</title>
<path fill="none" stroke="#000000" d="M56.5703,-143.8314C59.8493,-135.9617 63.762,-126.5712 67.3945,-117.8533"/>
<polygon fill="#000000" stroke="#000000" points="70.7124,-118.9902 71.3278,-108.4133 64.2508,-116.2979 70.7124,-118.9902"/>
<g id="a_edge3&#45;headlabel"><a xlink:href="dir_000012_000007.html" target="_top" xlink:title="9">
<text text-anchor="middle" x="71.9507" y="-120.9003" font-family="Helvetica,sans-Serif" font-size="10.00" fill="#000000">9</text>
</a>
</g>
</g>
<!-- dir_8235a0e1c388cdad0e3f2a0adaa9e0ee&#45;&gt;dir_6c04a91bc13b4612622c78d14e29af33 -->
<g id="edge1" class="edge">
<title>dir_8235a0e1c388cdad0e3f2a0adaa9e0ee&#45;&gt;dir_6c04a91bc13b4612622c78d14e29af33</title>
<path fill="none" stroke="#000000" d="M71.1774,-71.8314C67.7891,-63.9617 63.7459,-54.5712 59.9924,-45.8533"/>
<polygon fill="#000000" stroke="#000000" points="63.0973,-44.214 55.9279,-36.4133 56.6679,-46.9822 63.0973,-44.214"/>
<g id="a_edge1&#45;headlabel"><a xlink:href="dir_000007_000002.html" target="_top" xlink:title="2">
<text text-anchor="middle" x="67.1266" y="-43.8928" font-family="Helvetica,sans-Serif" font-size="10.00" fill="#000000">2</text>
</a>
</g>
</g>
</g>
</svg>
