<?xml version="1.0" encoding="UTF-8" standalone="no"?>
<!DOCTYPE svg PUBLIC "-//W3C//DTD SVG 1.1//EN"
 "http://www.w3.org/Graphics/SVG/1.1/DTD/svg11.dtd">
<!-- Generated by graphviz version 2.40.1 (20161225.0304)
 -->
<!-- Title: src Pages: 1 -->
<svg width="394pt" height="364pt"
 viewBox="0.00 0.00 394.00 364.00" xmlns="http://www.w3.org/2000/svg" xmlns:xlink="http://www.w3.org/1999/xlink">
<g id="graph0" class="graph" transform="scale(1 1) rotate(0) translate(4 360)">
<title>src</title>
<polygon fill="#ffffff" stroke="transparent" points="-4,4 -4,-360 390,-360 390,4 -4,4"/>
<g id="clust1" class="cluster">
<title>clusterdir_68267d1309a1af8e8297ef4c3efbcdba</title>
<g id="a_clust1"><a xlink:href="dir_68267d1309a1af8e8297ef4c3efbcdba.html" target="_top">
<polygon fill="#eeeeff" stroke="#000000" points="8,-8 8,-348 378,-348 378,-8 8,-8"/>
</a>
</g>
</g>
<!-- dir_68267d1309a1af8e8297ef4c3efbcdba -->
<g id="node1" class="node">
<title>dir_68267d1309a1af8e8297ef4c3efbcdba</title>
<text text-anchor="middle" x="343" y="-319.5" font-family="Helvetica,sans-Serif" font-size="10.00" fill="#000000">src</text>
</g>
<!-- dir_f55f6dc9e21b09a12acc690b19f5e964 -->
<g id="node9" class="node">
<title>dir_f55f6dc9e21b09a12acc690b19f5e964</title>
<g id="a_node9"><a xlink:href="dir_f55f6dc9e21b09a12acc690b19f5e964.html" target="_top" xlink:title="pybind">
<polygon fill="#ffffff" stroke="#ff0000" points="370,-268 316,-268 316,-232 370,-232 370,-268"/>
<text text-anchor="middle" x="343" y="-247.5" font-family="Helvetica,sans-Serif" font-size="10.00" fill="#000000">pybind</text>
</a>
</g>
</g>
<!-- dir_68267d1309a1af8e8297ef4c3efbcdba&#45;&gt;dir_f55f6dc9e21b09a12acc690b19f5e964 -->
<g id="edge1" class="edge">
<title>dir_68267d1309a1af8e8297ef4c3efbcdba&#45;&gt;dir_f55f6dc9e21b09a12acc690b19f5e964</title>
<path fill="none" stroke="#000000" d="M343,-303.8314C343,-296.131 343,-286.9743 343,-278.4166"/>
<polygon fill="#000000" stroke="#000000" points="346.5001,-278.4132 343,-268.4133 339.5001,-278.4133 346.5001,-278.4132"/>
<g id="a_edge1&#45;headlabel"><a xlink:href="dir_000000_000002.html" target="_top" xlink:title="13">
<text text-anchor="middle" x="349.3393" y="-279.5079" font-family="Helvetica,sans-Serif" font-size="10.00" fill="#000000">13</text>
</a>
</g>
</g>
<!-- dir_efedc0399e0892fcf242707c3ddb185f -->
<g id="node2" class="node">
<title>dir_efedc0399e0892fcf242707c3ddb185f</title>
<g id="a_node2"><a xlink:href="dir_efedc0399e0892fcf242707c3ddb185f.html" target="_top" xlink:title="adders">
<polygon fill="#ffffff" stroke="#000000" points="298,-268 244,-268 244,-232 298,-232 298,-268"/>
<text text-anchor="middle" x="271" y="-247.5" font-family="Helvetica,sans-Serif" font-size="10.00" fill="#000000">adders</text>
</a>
</g>
</g>
<!-- dir_aebb8dcc11953d78e620bbef0b9e2183 -->
<g id="node5" class="node">
<title>dir_aebb8dcc11953d78e620bbef0b9e2183</title>
<g id="a_node5"><a xlink:href="dir_aebb8dcc11953d78e620bbef0b9e2183.html" target="_top" xlink:title="core">
<polygon fill="#ffffff" stroke="#000000" points="226,-196 172,-196 172,-160 226,-160 226,-196"/>
<text text-anchor="middle" x="199" y="-175.5" font-family="Helvetica,sans-Serif" font-size="10.00" fill="#000000">core</text>
</a>
</g>
</g>
<!-- dir_efedc0399e0892fcf242707c3ddb185f&#45;&gt;dir_aebb8dcc11953d78e620bbef0b9e2183 -->
<g id="edge6" class="edge">
<title>dir_efedc0399e0892fcf242707c3ddb185f&#45;&gt;dir_aebb8dcc11953d78e620bbef0b9e2183</title>
<path fill="none" stroke="#000000" d="M252.8314,-231.8314C244.2848,-223.2848 233.9443,-212.9443 224.6198,-203.6198"/>
<polygon fill="#000000" stroke="#000000" points="226.9592,-201.0095 217.4133,-196.4133 222.0095,-205.9592 226.9592,-201.0095"/>
<g id="a_edge6&#45;headlabel"><a xlink:href="dir_000001_000006.html" target="_top" xlink:title="1">
<text text-anchor="middle" x="231.5087" y="-199.0436" font-family="Helvetica,sans-Serif" font-size="10.00" fill="#000000">1</text>
</a>
</g>
</g>
<!-- dir_6c04a91bc13b4612622c78d14e29af33 -->
<g id="node3" class="node">
<title>dir_6c04a91bc13b4612622c78d14e29af33</title>
<g id="a_node3"><a xlink:href="dir_6c04a91bc13b4612622c78d14e29af33.html" target="_top" xlink:title="alias">
<polygon fill="#ffffff" stroke="#000000" points="198,-52 144,-52 144,-16 198,-16 198,-52"/>
<text text-anchor="middle" x="171" y="-31.5" font-family="Helvetica,sans-Serif" font-size="10.00" fill="#000000">alias</text>
</a>
</g>
</g>
<!-- dir_6ddc554cda5704a54b4cf197aaaaa198 -->
<g id="node4" class="node">
<title>dir_6ddc554cda5704a54b4cf197aaaaa198</title>
<g id="a_node4"><a xlink:href="dir_6ddc554cda5704a54b4cf197aaaaa198.html" target="_top" xlink:title="class">
<polygon fill="#ffffff" stroke="#000000" points="198,-124 144,-124 144,-88 198,-88 198,-124"/>
<text text-anchor="middle" x="171" y="-103.5" font-family="Helvetica,sans-Serif" font-size="10.00" fill="#000000">class</text>
</a>
</g>
</g>
<!-- dir_6ddc554cda5704a54b4cf197aaaaa198&#45;&gt;dir_6c04a91bc13b4612622c78d14e29af33 -->
<g id="edge7" class="edge">
<title>dir_6ddc554cda5704a54b4cf197aaaaa198&#45;&gt;dir_6c04a91bc13b4612622c78d14e29af33</title>
<path fill="none" stroke="#000000" d="M171,-87.8314C171,-80.131 171,-70.9743 171,-62.4166"/>
<polygon fill="#000000" stroke="#000000" points="174.5001,-62.4132 171,-52.4133 167.5001,-62.4133 174.5001,-62.4132"/>
<g id="a_edge7&#45;headlabel"><a xlink:href="dir_000005_000004.html" target="_top" xlink:title="2">
<text text-anchor="middle" x="177.3393" y="-63.5079" font-family="Helvetica,sans-Serif" font-size="10.00" fill="#000000">2</text>
</a>
</g>
</g>
<!-- dir_aebb8dcc11953d78e620bbef0b9e2183&#45;&gt;dir_6c04a91bc13b4612622c78d14e29af33 -->
<g id="edge8" class="edge">
<title>dir_aebb8dcc11953d78e620bbef0b9e2183&#45;&gt;dir_6c04a91bc13b4612622c78d14e29af33</title>
<path fill="none" stroke="#000000" d="M204.5996,-159.6576C209.3299,-141.1725 214.2732,-112.0216 207,-88 204.0436,-78.2355 198.6748,-68.6229 192.97,-60.2762"/>
<polygon fill="#000000" stroke="#000000" points="195.7129,-58.0973 186.9905,-52.0831 190.0586,-62.2239 195.7129,-58.0973"/>
<g id="a_edge8&#45;headlabel"><a xlink:href="dir_000006_000004.html" target="_top" xlink:title="4">
<text text-anchor="middle" x="200.1253" y="-56.827" font-family="Helvetica,sans-Serif" font-size="10.00" fill="#000000">4</text>
</a>
</g>
</g>
<!-- dir_aebb8dcc11953d78e620bbef0b9e2183&#45;&gt;dir_6ddc554cda5704a54b4cf197aaaaa198 -->
<g id="edge9" class="edge">
<title>dir_aebb8dcc11953d78e620bbef0b9e2183&#45;&gt;dir_6ddc554cda5704a54b4cf197aaaaa198</title>
<path fill="none" stroke="#000000" d="M191.9344,-159.8314C188.874,-151.9617 185.2221,-142.5712 181.8318,-133.8533"/>
<polygon fill="#000000" stroke="#000000" points="185.0473,-132.4647 178.1607,-124.4133 178.5232,-135.0019 185.0473,-132.4647"/>
<g id="a_edge9&#45;headlabel"><a xlink:href="dir_000006_000005.html" target="_top" xlink:title="1">
<text text-anchor="middle" x="188.9963" y="-132.2859" font-family="Helvetica,sans-Serif" font-size="10.00" fill="#000000">1</text>
</a>
</g>
</g>
<!-- dir_1bc13244e26df1e1f069a1fd18e36da3 -->
<g id="node6" class="node">
<title>dir_1bc13244e26df1e1f069a1fd18e36da3</title>
<g id="a_node6"><a xlink:href="dir_1bc13244e26df1e1f069a1fd18e36da3.html" target="_top" xlink:title="filters">
<polygon fill="#ffffff" stroke="#000000" points="226,-268 172,-268 172,-232 226,-232 226,-268"/>
<text text-anchor="middle" x="199" y="-247.5" font-family="Helvetica,sans-Serif" font-size="10.00" fill="#000000">filters</text>
</a>
</g>
</g>
<!-- dir_1bc13244e26df1e1f069a1fd18e36da3&#45;&gt;dir_aebb8dcc11953d78e620bbef0b9e2183 -->
<g id="edge4" class="edge">
<title>dir_1bc13244e26df1e1f069a1fd18e36da3&#45;&gt;dir_aebb8dcc11953d78e620bbef0b9e2183</title>
<path fill="none" stroke="#000000" d="M199,-231.8314C199,-224.131 199,-214.9743 199,-206.4166"/>
<polygon fill="#000000" stroke="#000000" points="202.5001,-206.4132 199,-196.4133 195.5001,-206.4133 202.5001,-206.4132"/>
<g id="a_edge4&#45;headlabel"><a xlink:href="dir_000007_000006.html" target="_top" xlink:title="1">
<text text-anchor="middle" x="205.3393" y="-207.5079" font-family="Helvetica,sans-Serif" font-size="10.00" fill="#000000">1</text>
</a>
</g>
</g>
<!-- dir_f8cc41312865e1289a0b78825bfdc325 -->
<g id="node7" class="node">
<title>dir_f8cc41312865e1289a0b78825bfdc325</title>
<g id="a_node7"><a xlink:href="dir_f8cc41312865e1289a0b78825bfdc325.html" target="_top" xlink:title="invokers">
<polygon fill="#ffffff" stroke="#000000" points="184,-340 130,-340 130,-304 184,-304 184,-340"/>
<text text-anchor="middle" x="157" y="-319.5" font-family="Helvetica,sans-Serif" font-size="10.00" fill="#000000">invokers</text>
</a>
</g>
</g>
<!-- dir_8235a0e1c388cdad0e3f2a0adaa9e0ee -->
<g id="node8" class="node">
<title>dir_8235a0e1c388cdad0e3f2a0adaa9e0ee</title>
<g id="a_node8"><a xlink:href="dir_8235a0e1c388cdad0e3f2a0adaa9e0ee.html" target="_top" xlink:title="processors">
<polygon fill="#ffffff" stroke="#000000" points="81.5,-268 16.5,-268 16.5,-232 81.5,-232 81.5,-268"/>
<text text-anchor="middle" x="49" y="-247.5" font-family="Helvetica,sans-Serif" font-size="10.00" fill="#000000">processors</text>
</a>
</g>
</g>
<!-- dir_8235a0e1c388cdad0e3f2a0adaa9e0ee&#45;&gt;dir_6c04a91bc13b4612622c78d14e29af33 -->
<g id="edge2" class="edge">
<title>dir_8235a0e1c388cdad0e3f2a0adaa9e0ee&#45;&gt;dir_6c04a91bc13b4612622c78d14e29af33</title>
<path fill="none" stroke="#000000" d="M58.5288,-231.803C79.1796,-192.403 126.8618,-101.6378 135,-88 140.3994,-78.9518 146.6579,-69.3084 152.4274,-60.7119"/>
<polygon fill="#000000" stroke="#000000" points="155.4842,-62.4406 158.2062,-52.2014 149.693,-58.5083 155.4842,-62.4406"/>
<g id="a_edge2&#45;headlabel"><a xlink:href="dir_000011_000004.html" target="_top" xlink:title="2">
<text text-anchor="middle" x="155.8138" y="-64.5094" font-family="Helvetica,sans-Serif" font-size="10.00" fill="#000000">2</text>
</a>
</g>
</g>
<!-- dir_8235a0e1c388cdad0e3f2a0adaa9e0ee&#45;&gt;dir_aebb8dcc11953d78e620bbef0b9e2183 -->
<g id="edge3" class="edge">
<title>dir_8235a0e1c388cdad0e3f2a0adaa9e0ee&#45;&gt;dir_aebb8dcc11953d78e620bbef0b9e2183</title>
<path fill="none" stroke="#000000" d="M81.5478,-234.3771C105.3857,-222.9349 137.755,-207.3976 162.4759,-195.5316"/>
<polygon fill="#000000" stroke="#000000" points="164.0416,-198.6624 171.5422,-191.1797 161.0124,-192.3518 164.0416,-198.6624"/>
<g id="a_edge3&#45;headlabel"><a xlink:href="dir_000011_000006.html" target="_top" xlink:title="1">
<text text-anchor="middle" x="162.0296" y="-200.2775" font-family="Helvetica,sans-Serif" font-size="10.00" fill="#000000">1</text>
</a>
</g>
</g>
<!-- dir_f55f6dc9e21b09a12acc690b19f5e964&#45;&gt;dir_6c04a91bc13b4612622c78d14e29af33 -->
<g id="edge11" class="edge">
<title>dir_f55f6dc9e21b09a12acc690b19f5e964&#45;&gt;dir_6c04a91bc13b4612622c78d14e29af33</title>
<path fill="none" stroke="#000000" d="M328.6312,-231.9555C298.2151,-193.7585 227.2205,-104.6025 191.8279,-60.1559"/>
<polygon fill="#000000" stroke="#000000" points="194.4161,-57.7876 185.4488,-52.1451 188.9402,-62.1481 194.4161,-57.7876"/>
<g id="a_edge11&#45;headlabel"><a xlink:href="dir_000002_000004.html" target="_top" xlink:title="5">
<text text-anchor="middle" x="198.8764" y="-56.331" font-family="Helvetica,sans-Serif" font-size="10.00" fill="#000000">5</text>
</a>
</g>
</g>
<!-- dir_f55f6dc9e21b09a12acc690b19f5e964&#45;&gt;dir_aebb8dcc11953d78e620bbef0b9e2183 -->
<g id="edge12" class="edge">
<title>dir_f55f6dc9e21b09a12acc690b19f5e964&#45;&gt;dir_aebb8dcc11953d78e620bbef0b9e2183</title>
<path fill="none" stroke="#000000" d="M315.9147,-236.4574C293.2307,-225.1153 260.6433,-208.8217 235.6319,-196.316"/>
<polygon fill="#000000" stroke="#000000" points="236.963,-193.0684 226.4534,-191.7267 233.8325,-199.3294 236.963,-193.0684"/>
<g id="a_edge12&#45;headlabel"><a xlink:href="dir_000002_000006.html" target="_top" xlink:title="2">
<text text-anchor="middle" x="241.4478" y="-189.6364" font-family="Helvetica,sans-Serif" font-size="10.00" fill="#000000">2</text>
</a>
</g>
</g>
<!-- dir_ec33ddd8f5ffd74706403185ee22af87 -->
<g id="node10" class="node">
<title>dir_ec33ddd8f5ffd74706403185ee22af87</title>
<g id="a_node10"><a xlink:href="dir_ec33ddd8f5ffd74706403185ee22af87.html" target="_top" xlink:title="starters">
<polygon fill="#ffffff" stroke="#000000" points="154,-268 100,-268 100,-232 154,-232 154,-268"/>
<text text-anchor="middle" x="127" y="-247.5" font-family="Helvetica,sans-Serif" font-size="10.00" fill="#000000">starters</text>
</a>
</g>
</g>
<!-- dir_ec33ddd8f5ffd74706403185ee22af87&#45;&gt;dir_aebb8dcc11953d78e620bbef0b9e2183 -->
<g id="edge5" class="edge">
<title>dir_ec33ddd8f5ffd74706403185ee22af87&#45;&gt;dir_aebb8dcc11953d78e620bbef0b9e2183</title>
<path fill="none" stroke="#000000" d="M145.1686,-231.8314C153.7152,-223.2848 164.0557,-212.9443 173.3802,-203.6198"/>
<polygon fill="#000000" stroke="#000000" points="175.9905,-205.9592 180.5867,-196.4133 171.0408,-201.0095 175.9905,-205.9592"/>
<g id="a_edge5&#45;headlabel"><a xlink:href="dir_000014_000006.html" target="_top" xlink:title="1">
<text text-anchor="middle" x="175.4564" y="-208.0087" font-family="Helvetica,sans-Serif" font-size="10.00" fill="#000000">1</text>
</a>
</g>
</g>
<!-- dir_313caf1132e152dd9b58bea13a4052ca -->
<g id="node11" class="node">
<title>dir_313caf1132e152dd9b58bea13a4052ca</title>
<g id="a_node11"><a xlink:href="dir_313caf1132e152dd9b58bea13a4052ca.html" target="_top" xlink:title="utils">
<polygon fill="#ffffff" stroke="#000000" points="106,-124 52,-124 52,-88 106,-88 106,-124"/>
<text text-anchor="middle" x="79" y="-103.5" font-family="Helvetica,sans-Serif" font-size="10.00" fill="#000000">utils</text>
</a>
</g>
</g>
<!-- dir_313caf1132e152dd9b58bea13a4052ca&#45;&gt;dir_6c04a91bc13b4612622c78d14e29af33 -->
<g id="edge10" class="edge">
<title>dir_313caf1132e152dd9b58bea13a4052ca&#45;&gt;dir_6c04a91bc13b4612622c78d14e29af33</title>
<path fill="none" stroke="#000000" d="M102.2155,-87.8314C113.547,-78.9632 127.3464,-68.1637 139.6027,-58.5718"/>
<polygon fill="#000000" stroke="#000000" points="142.074,-61.0822 147.7919,-52.1628 137.7598,-55.5697 142.074,-61.0822"/>
<g id="a_edge10&#45;headlabel"><a xlink:href="dir_000015_000004.html" target="_top" xlink:title="10">
<text text-anchor="middle" x="140.9931" y="-63.0335" font-family="Helvetica,sans-Serif" font-size="10.00" fill="#000000">10</text>
</a>
</g>
</g>
</g>
</svg>
