<?xml version="1.0" encoding="UTF-8" standalone="no"?>
<!DOCTYPE svg PUBLIC "-//W3C//DTD SVG 1.1//EN"
 "http://www.w3.org/Graphics/SVG/1.1/DTD/svg11.dtd">
<!-- Generated by graphviz version 2.40.1 (20161225.0304)
 -->
<!-- Title: src/pybind Pages: 1 -->
<svg width="534pt" height="375pt"
 viewBox="0.00 0.00 534.00 375.00" xmlns="http://www.w3.org/2000/svg" xmlns:xlink="http://www.w3.org/1999/xlink">
<g id="graph0" class="graph" transform="scale(1 1) rotate(0) translate(4 371)">
<title>src/pybind</title>
<polygon fill="#ffffff" stroke="transparent" points="-4,4 -4,-371 530,-371 530,4 -4,4"/>
<g id="clust1" class="cluster">
<title>clusterdir_68267d1309a1af8e8297ef4c3efbcdba</title>
<g id="a_clust1"><a xlink:href="dir_68267d1309a1af8e8297ef4c3efbcdba.html" target="_top" xlink:title="src">
<polygon fill="#ddddee" stroke="#000000" points="8,-272 8,-359 518,-359 518,-272 8,-272"/>
<text text-anchor="middle" x="263" y="-347" font-family="Helvetica,sans-Serif" font-size="10.00" fill="#000000">src</text>
</a>
</g>
</g>
<g id="clust2" class="cluster">
<title>clusterdir_f55f6dc9e21b09a12acc690b19f5e964</title>
<g id="a_clust2"><a xlink:href="dir_f55f6dc9e21b09a12acc690b19f5e964.html" target="_top">
<polygon fill="#eeeeff" stroke="#000000" points="16,-280 16,-332 510,-332 510,-280 16,-280"/>
</a>
</g>
</g>
<!-- dir_f55f6dc9e21b09a12acc690b19f5e964 -->
<g id="node1" class="node">
<title>dir_f55f6dc9e21b09a12acc690b19f5e964</title>
<text text-anchor="middle" x="215" y="-303.5" font-family="Helvetica,sans-Serif" font-size="10.00" fill="#000000">pybind</text>
</g>
<!-- dir_aebb8dcc11953d78e620bbef0b9e2183 -->
<g id="node9" class="node">
<title>dir_aebb8dcc11953d78e620bbef0b9e2183</title>
<g id="a_node9"><a xlink:href="dir_aebb8dcc11953d78e620bbef0b9e2183.html" target="_top" xlink:title="core">
<polygon fill="none" stroke="#000000" points="297,-180 243,-180 243,-144 297,-144 297,-180"/>
<text text-anchor="middle" x="270" y="-159.5" font-family="Helvetica,sans-Serif" font-size="10.00" fill="#000000">core</text>
</a>
</g>
</g>
<!-- dir_f55f6dc9e21b09a12acc690b19f5e964&#45;&gt;dir_aebb8dcc11953d78e620bbef0b9e2183 -->
<g id="edge8" class="edge">
<title>dir_f55f6dc9e21b09a12acc690b19f5e964&#45;&gt;dir_aebb8dcc11953d78e620bbef0b9e2183</title>
<path fill="none" stroke="#000000" d="M221.9658,-287.7623C231.4295,-262.9846 248.4311,-218.4714 259.4607,-189.5939"/>
<polygon fill="#000000" stroke="#000000" points="262.7923,-190.6803 263.0908,-180.0896 256.253,-188.1826 262.7923,-190.6803"/>
<g id="a_edge8&#45;headlabel"><a xlink:href="dir_000002_000006.html" target="_top" xlink:title="2">
<text text-anchor="middle" x="264.1622" y="-192.5513" font-family="Helvetica,sans-Serif" font-size="10.00" fill="#000000">2</text>
</a>
</g>
</g>
<!-- dir_313caf1132e152dd9b58bea13a4052ca -->
<g id="node10" class="node">
<title>dir_313caf1132e152dd9b58bea13a4052ca</title>
<g id="a_node10"><a xlink:href="dir_313caf1132e152dd9b58bea13a4052ca.html" target="_top" xlink:title="utils">
<polygon fill="none" stroke="#000000" points="269,-108 215,-108 215,-72 269,-72 269,-108"/>
<text text-anchor="middle" x="242" y="-87.5" font-family="Helvetica,sans-Serif" font-size="10.00" fill="#000000">utils</text>
</a>
</g>
</g>
<!-- dir_f55f6dc9e21b09a12acc690b19f5e964&#45;&gt;dir_313caf1132e152dd9b58bea13a4052ca -->
<g id="edge9" class="edge">
<title>dir_f55f6dc9e21b09a12acc690b19f5e964&#45;&gt;dir_313caf1132e152dd9b58bea13a4052ca</title>
<path fill="none" stroke="#000000" d="M216.9309,-287.9984C220.1813,-258.0729 227.0721,-196.2135 234,-144 235.1044,-135.6766 236.4025,-126.6469 237.628,-118.3966"/>
<polygon fill="#000000" stroke="#000000" points="241.0939,-118.8845 239.1214,-108.4749 234.1719,-117.8425 241.0939,-118.8845"/>
<g id="a_edge9&#45;headlabel"><a xlink:href="dir_000002_000015.html" target="_top" xlink:title="1">
<text text-anchor="middle" x="243.3666" y="-120.3616" font-family="Helvetica,sans-Serif" font-size="10.00" fill="#000000">1</text>
</a>
</g>
</g>
<!-- dir_28870b3bfdc57b558f230e2602aa983b -->
<g id="node2" class="node">
<title>dir_28870b3bfdc57b558f230e2602aa983b</title>
<g id="a_node2"><a xlink:href="dir_28870b3bfdc57b558f230e2602aa983b.html" target="_top" xlink:title="adders_py">
<polygon fill="#ffffff" stroke="#000000" points="170,-324 108,-324 108,-288 170,-288 170,-324"/>
<text text-anchor="middle" x="139" y="-303.5" font-family="Helvetica,sans-Serif" font-size="10.00" fill="#000000">adders_py</text>
</a>
</g>
</g>
<!-- dir_efedc0399e0892fcf242707c3ddb185f -->
<g id="node8" class="node">
<title>dir_efedc0399e0892fcf242707c3ddb185f</title>
<g id="a_node8"><a xlink:href="dir_efedc0399e0892fcf242707c3ddb185f.html" target="_top" xlink:title="adders">
<polygon fill="none" stroke="#000000" points="187,-252 133,-252 133,-216 187,-216 187,-252"/>
<text text-anchor="middle" x="160" y="-231.5" font-family="Helvetica,sans-Serif" font-size="10.00" fill="#000000">adders</text>
</a>
</g>
</g>
<!-- dir_28870b3bfdc57b558f230e2602aa983b&#45;&gt;dir_efedc0399e0892fcf242707c3ddb185f -->
<g id="edge1" class="edge">
<title>dir_28870b3bfdc57b558f230e2602aa983b&#45;&gt;dir_efedc0399e0892fcf242707c3ddb185f</title>
<path fill="none" stroke="#000000" d="M144.2992,-287.8314C146.5698,-280.0463 149.2746,-270.7729 151.794,-262.1347"/>
<polygon fill="#000000" stroke="#000000" points="155.1894,-262.9933 154.6295,-252.4133 148.4694,-261.0332 155.1894,-262.9933"/>
<g id="a_edge1&#45;headlabel"><a xlink:href="dir_000003_000001.html" target="_top" xlink:title="11">
<text text-anchor="middle" x="156.9087" y="-264.7391" font-family="Helvetica,sans-Serif" font-size="10.00" fill="#000000">11</text>
</a>
</g>
</g>
<!-- dir_13ea111934fd9fb839fbd1f21aa212c5 -->
<g id="node3" class="node">
<title>dir_13ea111934fd9fb839fbd1f21aa212c5</title>
<g id="a_node3"><a xlink:href="dir_13ea111934fd9fb839fbd1f21aa212c5.html" target="_top" xlink:title="filters_py">
<polygon fill="#ffffff" stroke="#000000" points="316,-324 260,-324 260,-288 316,-288 316,-324"/>
<text text-anchor="middle" x="288" y="-303.5" font-family="Helvetica,sans-Serif" font-size="10.00" fill="#000000">filters_py</text>
</a>
</g>
</g>
<!-- dir_f354b02955b9e87baafc539230212323 -->
<g id="node4" class="node">
<title>dir_f354b02955b9e87baafc539230212323</title>
<g id="a_node4"><a xlink:href="dir_f354b02955b9e87baafc539230212323.html" target="_top" xlink:title="invokers_py">
<polygon fill="#ffffff" stroke="#000000" points="403.5,-324 334.5,-324 334.5,-288 403.5,-288 403.5,-324"/>
<text text-anchor="middle" x="369" y="-303.5" font-family="Helvetica,sans-Serif" font-size="10.00" fill="#000000">invokers_py</text>
</a>
</g>
</g>
<!-- dir_6c04a91bc13b4612622c78d14e29af33 -->
<g id="node7" class="node">
<title>dir_6c04a91bc13b4612622c78d14e29af33</title>
<g id="a_node7"><a xlink:href="dir_6c04a91bc13b4612622c78d14e29af33.html" target="_top" xlink:title="alias">
<polygon fill="none" stroke="#000000" points="351,-36 297,-36 297,0 351,0 351,-36"/>
<text text-anchor="middle" x="324" y="-15.5" font-family="Helvetica,sans-Serif" font-size="10.00" fill="#000000">alias</text>
</a>
</g>
</g>
<!-- dir_f354b02955b9e87baafc539230212323&#45;&gt;dir_6c04a91bc13b4612622c78d14e29af33 -->
<g id="edge10" class="edge">
<title>dir_f354b02955b9e87baafc539230212323&#45;&gt;dir_6c04a91bc13b4612622c78d14e29af33</title>
<path fill="none" stroke="#000000" d="M366.185,-287.9843C358.5772,-239.2939 337.5619,-104.7961 328.384,-46.0573"/>
<polygon fill="#000000" stroke="#000000" points="331.8158,-45.3487 326.8139,-36.0089 324.8997,-46.4294 331.8158,-45.3487"/>
<g id="a_edge10&#45;headlabel"><a xlink:href="dir_000010_000004.html" target="_top" xlink:title="1">
<text text-anchor="middle" x="335.1759" y="-45.9619" font-family="Helvetica,sans-Serif" font-size="10.00" fill="#000000">1</text>
</a>
</g>
</g>
<!-- dir_e7b0f7ac46d4c7e06ad9f0d9610a35a1 -->
<g id="node5" class="node">
<title>dir_e7b0f7ac46d4c7e06ad9f0d9610a35a1</title>
<g id="a_node5"><a xlink:href="dir_e7b0f7ac46d4c7e06ad9f0d9610a35a1.html" target="_top" xlink:title="processors_py">
<polygon fill="#ffffff" stroke="#000000" points="502,-324 422,-324 422,-288 502,-288 502,-324"/>
<text text-anchor="middle" x="462" y="-303.5" font-family="Helvetica,sans-Serif" font-size="10.00" fill="#000000">processors_py</text>
</a>
</g>
</g>
<!-- dir_e7b0f7ac46d4c7e06ad9f0d9610a35a1&#45;&gt;dir_6c04a91bc13b4612622c78d14e29af33 -->
<g id="edge2" class="edge">
<title>dir_e7b0f7ac46d4c7e06ad9f0d9610a35a1&#45;&gt;dir_6c04a91bc13b4612622c78d14e29af33</title>
<path fill="none" stroke="#000000" d="M453.3675,-287.9843C429.9399,-239.0919 365.0543,-103.6785 337.0956,-45.33"/>
<polygon fill="#000000" stroke="#000000" points="340.1069,-43.5146 332.6293,-36.0089 333.7942,-46.5395 340.1069,-43.5146"/>
<g id="a_edge2&#45;headlabel"><a xlink:href="dir_000012_000004.html" target="_top" xlink:title="1">
<text text-anchor="middle" x="344.2206" y="-43.0294" font-family="Helvetica,sans-Serif" font-size="10.00" fill="#000000">1</text>
</a>
</g>
</g>
<!-- dir_d2e58572f3e47e44941f4ee4959a23b7 -->
<g id="node6" class="node">
<title>dir_d2e58572f3e47e44941f4ee4959a23b7</title>
<g id="a_node6"><a xlink:href="dir_d2e58572f3e47e44941f4ee4959a23b7.html" target="_top" xlink:title="starters_py">
<polygon fill="#ffffff" stroke="#000000" points="89.5,-324 24.5,-324 24.5,-288 89.5,-288 89.5,-324"/>
<text text-anchor="middle" x="57" y="-303.5" font-family="Helvetica,sans-Serif" font-size="10.00" fill="#000000">starters_py</text>
</a>
</g>
</g>
<!-- dir_efedc0399e0892fcf242707c3ddb185f&#45;&gt;dir_aebb8dcc11953d78e620bbef0b9e2183 -->
<g id="edge3" class="edge">
<title>dir_efedc0399e0892fcf242707c3ddb185f&#45;&gt;dir_aebb8dcc11953d78e620bbef0b9e2183</title>
<path fill="none" stroke="#000000" d="M187.191,-216.2022C201.3378,-206.9425 218.8157,-195.5025 234.063,-185.5224"/>
<polygon fill="#000000" stroke="#000000" points="236.2903,-188.2476 242.7406,-179.8425 232.4567,-182.3907 236.2903,-188.2476"/>
<g id="a_edge3&#45;headlabel"><a xlink:href="dir_000001_000006.html" target="_top" xlink:title="1">
<text text-anchor="middle" x="234.8377" y="-190.0918" font-family="Helvetica,sans-Serif" font-size="10.00" fill="#000000">1</text>
</a>
</g>
</g>
<!-- dir_efedc0399e0892fcf242707c3ddb185f&#45;&gt;dir_313caf1132e152dd9b58bea13a4052ca -->
<g id="edge4" class="edge">
<title>dir_efedc0399e0892fcf242707c3ddb185f&#45;&gt;dir_313caf1132e152dd9b58bea13a4052ca</title>
<path fill="none" stroke="#000000" d="M166.8916,-215.8214C174.2627,-197.211 186.8246,-167.7324 201,-144 206.6136,-134.6018 213.5594,-124.9054 220.1287,-116.3678"/>
<polygon fill="#000000" stroke="#000000" points="223.0691,-118.2912 226.5093,-108.2704 217.5709,-113.9588 223.0691,-118.2912"/>
<g id="a_edge4&#45;headlabel"><a xlink:href="dir_000001_000015.html" target="_top" xlink:title="11">
<text text-anchor="middle" x="223.0745" y="-120.3719" font-family="Helvetica,sans-Serif" font-size="10.00" fill="#000000">11</text>
</a>
</g>
</g>
<!-- dir_aebb8dcc11953d78e620bbef0b9e2183&#45;&gt;dir_6c04a91bc13b4612622c78d14e29af33 -->
<g id="edge5" class="edge">
<title>dir_aebb8dcc11953d78e620bbef0b9e2183&#45;&gt;dir_6c04a91bc13b4612622c78d14e29af33</title>
<path fill="none" stroke="#000000" d="M276.8391,-143.7623C286.1308,-118.9846 302.8232,-74.4714 313.6523,-45.5939"/>
<polygon fill="#000000" stroke="#000000" points="316.9822,-46.6819 317.2164,-36.0896 310.4279,-44.224 316.9822,-46.6819"/>
<g id="a_edge5&#45;headlabel"><a xlink:href="dir_000006_000004.html" target="_top" xlink:title="4">
<text text-anchor="middle" x="318.3787" y="-48.5445" font-family="Helvetica,sans-Serif" font-size="10.00" fill="#000000">4</text>
</a>
</g>
</g>
<!-- dir_aebb8dcc11953d78e620bbef0b9e2183&#45;&gt;dir_313caf1132e152dd9b58bea13a4052ca -->
<g id="edge6" class="edge">
<title>dir_aebb8dcc11953d78e620bbef0b9e2183&#45;&gt;dir_313caf1132e152dd9b58bea13a4052ca</title>
<path fill="none" stroke="#000000" d="M262.9344,-143.8314C259.874,-135.9617 256.2221,-126.5712 252.8318,-117.8533"/>
<polygon fill="#000000" stroke="#000000" points="256.0473,-116.4647 249.1607,-108.4133 249.5232,-119.0019 256.0473,-116.4647"/>
<g id="a_edge6&#45;headlabel"><a xlink:href="dir_000006_000015.html" target="_top" xlink:title="5">
<text text-anchor="middle" x="259.9963" y="-116.2859" font-family="Helvetica,sans-Serif" font-size="10.00" fill="#000000">5</text>
</a>
</g>
</g>
<!-- dir_313caf1132e152dd9b58bea13a4052ca&#45;&gt;dir_6c04a91bc13b4612622c78d14e29af33 -->
<g id="edge7" class="edge">
<title>dir_313caf1132e152dd9b58bea13a4052ca&#45;&gt;dir_6c04a91bc13b4612622c78d14e29af33</title>
<path fill="none" stroke="#000000" d="M262.6921,-71.8314C272.6948,-63.0485 284.855,-52.3712 295.6999,-42.8489"/>
<polygon fill="#000000" stroke="#000000" points="298.1094,-45.3909 303.3146,-36.1628 293.4908,-40.1308 298.1094,-45.3909"/>
<g id="a_edge7&#45;headlabel"><a xlink:href="dir_000015_000004.html" target="_top" xlink:title="10">
<text text-anchor="middle" x="297.2817" y="-47.3962" font-family="Helvetica,sans-Serif" font-size="10.00" fill="#000000">10</text>
</a>
</g>
</g>
</g>
</svg>
