<?xml version="1.0" encoding="UTF-8" standalone="no"?>
<!DOCTYPE svg PUBLIC "-//W3C//DTD SVG 1.1//EN"
 "http://www.w3.org/Graphics/SVG/1.1/DTD/svg11.dtd">
<!-- Generated by graphviz version 2.40.1 (20161225.0304)
 -->
<!-- Title: src/pybind/invokers_py Pages: 1 -->
<svg width="110pt" height="151pt"
 viewBox="0.00 0.00 110.00 151.00" xmlns="http://www.w3.org/2000/svg" xmlns:xlink="http://www.w3.org/1999/xlink">
<g id="graph0" class="graph" transform="scale(1 1) rotate(0) translate(4 147)">
<title>src/pybind/invokers_py</title>
<polygon fill="#ffffff" stroke="transparent" points="-4,4 -4,-147 106,-147 106,4 -4,4"/>
<g id="clust1" class="cluster">
<title>clusterdir_f55f6dc9e21b09a12acc690b19f5e964</title>
<g id="a_clust1"><a xlink:href="dir_f55f6dc9e21b09a12acc690b19f5e964.html" target="_top" xlink:title="pybind">
<polygon fill="#ddddee" stroke="#000000" points="8,-64 8,-135 94,-135 94,-64 8,-64"/>
<text text-anchor="middle" x="51" y="-123" font-family="Helvetica,sans-Serif" font-size="10.00" fill="#000000">pybind</text>
</a>
</g>
</g>
<!-- dir_f354b02955b9e87baafc539230212323 -->
<g id="node1" class="node">
<title>dir_f354b02955b9e87baafc539230212323</title>
<g id="a_node1"><a xlink:href="dir_f354b02955b9e87baafc539230212323.html" target="_top" xlink:title="invokers_py">
<polygon fill="#eeeeff" stroke="#000000" points="85.5,-108 16.5,-108 16.5,-72 85.5,-72 85.5,-108"/>
<text text-anchor="middle" x="51" y="-87.5" font-family="Helvetica,sans-Serif" font-size="10.00" fill="#000000">invokers_py</text>
</a>
</g>
</g>
<!-- dir_6c04a91bc13b4612622c78d14e29af33 -->
<g id="node2" class="node">
<title>dir_6c04a91bc13b4612622c78d14e29af33</title>
<g id="a_node2"><a xlink:href="dir_6c04a91bc13b4612622c78d14e29af33.html" target="_top" xlink:title="alias">
<polygon fill="none" stroke="#000000" points="78,-36 24,-36 24,0 78,0 78,-36"/>
<text text-anchor="middle" x="51" y="-15.5" font-family="Helvetica,sans-Serif" font-size="10.00" fill="#000000">alias</text>
</a>
</g>
</g>
<!-- dir_f354b02955b9e87baafc539230212323&#45;&gt;dir_6c04a91bc13b4612622c78d14e29af33 -->
<g id="edge1" class="edge">
<title>dir_f354b02955b9e87baafc539230212323&#45;&gt;dir_6c04a91bc13b4612622c78d14e29af33</title>
<path fill="none" stroke="#000000" d="M51,-71.8314C51,-64.131 51,-54.9743 51,-46.4166"/>
<polygon fill="#000000" stroke="#000000" points="54.5001,-46.4132 51,-36.4133 47.5001,-46.4133 54.5001,-46.4132"/>
<g id="a_edge1&#45;headlabel"><a xlink:href="dir_000010_000004.html" target="_top" xlink:title="1">
<text text-anchor="middle" x="57.3393" y="-47.5079" font-family="Helvetica,sans-Serif" font-size="10.00" fill="#000000">1</text>
</a>
</g>
</g>
</g>
</svg>
