<?xml version="1.0" encoding="UTF-8" standalone="no"?>
<!DOCTYPE svg PUBLIC "-//W3C//DTD SVG 1.1//EN"
 "http://www.w3.org/Graphics/SVG/1.1/DTD/svg11.dtd">
<!-- Generated by graphviz version 2.40.1 (20161225.0304)
 -->
<!-- Title: src/pybind Pages: 1 -->
<svg width="534pt" height="303pt"
 viewBox="0.00 0.00 534.00 303.00" xmlns="http://www.w3.org/2000/svg" xmlns:xlink="http://www.w3.org/1999/xlink">
<g id="graph0" class="graph" transform="scale(1 1) rotate(0) translate(4 299)">
<title>src/pybind</title>
<polygon fill="#ffffff" stroke="transparent" points="-4,4 -4,-299 530,-299 530,4 -4,4"/>
<g id="clust1" class="cluster">
<title>clusterdir_68267d1309a1af8e8297ef4c3efbcdba</title>
<g id="a_clust1"><a xlink:href="dir_68267d1309a1af8e8297ef4c3efbcdba.html" target="_top" xlink:title="src">
<polygon fill="#ddddee" stroke="#000000" points="8,-200 8,-287 518,-287 518,-200 8,-200"/>
<text text-anchor="middle" x="263" y="-275" font-family="Helvetica,sans-Serif" font-size="10.00" fill="#000000">src</text>
</a>
</g>
</g>
<g id="clust2" class="cluster">
<title>clusterdir_f55f6dc9e21b09a12acc690b19f5e964</title>
<g id="a_clust2"><a xlink:href="dir_f55f6dc9e21b09a12acc690b19f5e964.html" target="_top">
<polygon fill="#eeeeff" stroke="#000000" points="16,-208 16,-260 510,-260 510,-208 16,-208"/>
</a>
</g>
</g>
<!-- dir_f55f6dc9e21b09a12acc690b19f5e964 -->
<g id="node1" class="node">
<title>dir_f55f6dc9e21b09a12acc690b19f5e964</title>
<text text-anchor="middle" x="135" y="-231.5" font-family="Helvetica,sans-Serif" font-size="10.00" fill="#000000">pybind</text>
</g>
<!-- dir_aebb8dcc11953d78e620bbef0b9e2183 -->
<g id="node9" class="node">
<title>dir_aebb8dcc11953d78e620bbef0b9e2183</title>
<g id="a_node9"><a xlink:href="dir_aebb8dcc11953d78e620bbef0b9e2183.html" target="_top" xlink:title="core">
<polygon fill="none" stroke="#000000" points="238,-108 184,-108 184,-72 238,-72 238,-108"/>
<text text-anchor="middle" x="211" y="-87.5" font-family="Helvetica,sans-Serif" font-size="10.00" fill="#000000">core</text>
</a>
</g>
</g>
<!-- dir_f55f6dc9e21b09a12acc690b19f5e964&#45;&gt;dir_aebb8dcc11953d78e620bbef0b9e2183 -->
<g id="edge5" class="edge">
<title>dir_f55f6dc9e21b09a12acc690b19f5e964&#45;&gt;dir_aebb8dcc11953d78e620bbef0b9e2183</title>
<path fill="none" stroke="#000000" d="M141.9534,-215.9806C149.3279,-197.4969 161.7268,-168.1177 175,-144 180.0803,-134.7689 186.2529,-125.0762 192.0418,-116.4909"/>
<polygon fill="#000000" stroke="#000000" points="195.091,-118.2336 197.8737,-108.0107 189.3233,-114.2671 195.091,-118.2336"/>
<g id="a_edge5&#45;headlabel"><a xlink:href="dir_000002_000006.html" target="_top" xlink:title="2">
<text text-anchor="middle" x="195.3936" y="-120.3043" font-family="Helvetica,sans-Serif" font-size="10.00" fill="#000000">2</text>
</a>
</g>
</g>
<!-- dir_28870b3bfdc57b558f230e2602aa983b -->
<g id="node2" class="node">
<title>dir_28870b3bfdc57b558f230e2602aa983b</title>
<g id="a_node2"><a xlink:href="dir_28870b3bfdc57b558f230e2602aa983b.html" target="_top" xlink:title="adders_py">
<polygon fill="#ffffff" stroke="#000000" points="242,-252 180,-252 180,-216 242,-216 242,-252"/>
<text text-anchor="middle" x="211" y="-231.5" font-family="Helvetica,sans-Serif" font-size="10.00" fill="#000000">adders_py</text>
</a>
</g>
</g>
<!-- dir_efedc0399e0892fcf242707c3ddb185f -->
<g id="node8" class="node">
<title>dir_efedc0399e0892fcf242707c3ddb185f</title>
<g id="a_node8"><a xlink:href="dir_efedc0399e0892fcf242707c3ddb185f.html" target="_top" xlink:title="adders">
<polygon fill="none" stroke="#000000" points="238,-180 184,-180 184,-144 238,-144 238,-180"/>
<text text-anchor="middle" x="211" y="-159.5" font-family="Helvetica,sans-Serif" font-size="10.00" fill="#000000">adders</text>
</a>
</g>
</g>
<!-- dir_28870b3bfdc57b558f230e2602aa983b&#45;&gt;dir_efedc0399e0892fcf242707c3ddb185f -->
<g id="edge1" class="edge">
<title>dir_28870b3bfdc57b558f230e2602aa983b&#45;&gt;dir_efedc0399e0892fcf242707c3ddb185f</title>
<path fill="none" stroke="#000000" d="M211,-215.8314C211,-208.131 211,-198.9743 211,-190.4166"/>
<polygon fill="#000000" stroke="#000000" points="214.5001,-190.4132 211,-180.4133 207.5001,-190.4133 214.5001,-190.4132"/>
<g id="a_edge1&#45;headlabel"><a xlink:href="dir_000003_000001.html" target="_top" xlink:title="11">
<text text-anchor="middle" x="217.3393" y="-191.5079" font-family="Helvetica,sans-Serif" font-size="10.00" fill="#000000">11</text>
</a>
</g>
</g>
<!-- dir_13ea111934fd9fb839fbd1f21aa212c5 -->
<g id="node3" class="node">
<title>dir_13ea111934fd9fb839fbd1f21aa212c5</title>
<g id="a_node3"><a xlink:href="dir_13ea111934fd9fb839fbd1f21aa212c5.html" target="_top" xlink:title="filters_py">
<polygon fill="#ffffff" stroke="#000000" points="316,-252 260,-252 260,-216 316,-216 316,-252"/>
<text text-anchor="middle" x="288" y="-231.5" font-family="Helvetica,sans-Serif" font-size="10.00" fill="#000000">filters_py</text>
</a>
</g>
</g>
<!-- dir_f354b02955b9e87baafc539230212323 -->
<g id="node4" class="node">
<title>dir_f354b02955b9e87baafc539230212323</title>
<g id="a_node4"><a xlink:href="dir_f354b02955b9e87baafc539230212323.html" target="_top" xlink:title="invokers_py">
<polygon fill="#ffffff" stroke="#000000" points="403.5,-252 334.5,-252 334.5,-216 403.5,-216 403.5,-252"/>
<text text-anchor="middle" x="369" y="-231.5" font-family="Helvetica,sans-Serif" font-size="10.00" fill="#000000">invokers_py</text>
</a>
</g>
</g>
<!-- dir_6c04a91bc13b4612622c78d14e29af33 -->
<g id="node7" class="node">
<title>dir_6c04a91bc13b4612622c78d14e29af33</title>
<g id="a_node7"><a xlink:href="dir_6c04a91bc13b4612622c78d14e29af33.html" target="_top" xlink:title="alias">
<polygon fill="none" stroke="#000000" points="396,-36 342,-36 342,0 396,0 396,-36"/>
<text text-anchor="middle" x="369" y="-15.5" font-family="Helvetica,sans-Serif" font-size="10.00" fill="#000000">alias</text>
</a>
</g>
</g>
<!-- dir_f354b02955b9e87baafc539230212323&#45;&gt;dir_6c04a91bc13b4612622c78d14e29af33 -->
<g id="edge6" class="edge">
<title>dir_f354b02955b9e87baafc539230212323&#45;&gt;dir_6c04a91bc13b4612622c78d14e29af33</title>
<path fill="none" stroke="#000000" d="M369,-215.9555C369,-178.3938 369,-91.5541 369,-46.4103"/>
<polygon fill="#000000" stroke="#000000" points="372.5001,-46.145 369,-36.1451 365.5001,-46.1451 372.5001,-46.145"/>
<g id="a_edge6&#45;headlabel"><a xlink:href="dir_000010_000004.html" target="_top" xlink:title="1">
<text text-anchor="middle" x="375.3393" y="-47.2397" font-family="Helvetica,sans-Serif" font-size="10.00" fill="#000000">1</text>
</a>
</g>
</g>
<!-- dir_e7b0f7ac46d4c7e06ad9f0d9610a35a1 -->
<g id="node5" class="node">
<title>dir_e7b0f7ac46d4c7e06ad9f0d9610a35a1</title>
<g id="a_node5"><a xlink:href="dir_e7b0f7ac46d4c7e06ad9f0d9610a35a1.html" target="_top" xlink:title="processors_py">
<polygon fill="#ffffff" stroke="#000000" points="502,-252 422,-252 422,-216 502,-216 502,-252"/>
<text text-anchor="middle" x="462" y="-231.5" font-family="Helvetica,sans-Serif" font-size="10.00" fill="#000000">processors_py</text>
</a>
</g>
</g>
<!-- dir_e7b0f7ac46d4c7e06ad9f0d9610a35a1&#45;&gt;dir_6c04a91bc13b4612622c78d14e29af33 -->
<g id="edge2" class="edge">
<title>dir_e7b0f7ac46d4c7e06ad9f0d9610a35a1&#45;&gt;dir_6c04a91bc13b4612622c78d14e29af33</title>
<path fill="none" stroke="#000000" d="M454.2308,-215.9555C437.9559,-178.1556 400.194,-90.4506 380.8646,-45.5564"/>
<polygon fill="#000000" stroke="#000000" points="383.9818,-43.9458 376.8125,-36.1451 377.5524,-46.714 383.9818,-43.9458"/>
<g id="a_edge2&#45;headlabel"><a xlink:href="dir_000012_000004.html" target="_top" xlink:title="1">
<text text-anchor="middle" x="388.0111" y="-43.6246" font-family="Helvetica,sans-Serif" font-size="10.00" fill="#000000">1</text>
</a>
</g>
</g>
<!-- dir_d2e58572f3e47e44941f4ee4959a23b7 -->
<g id="node6" class="node">
<title>dir_d2e58572f3e47e44941f4ee4959a23b7</title>
<g id="a_node6"><a xlink:href="dir_d2e58572f3e47e44941f4ee4959a23b7.html" target="_top" xlink:title="starters_py">
<polygon fill="#ffffff" stroke="#000000" points="89.5,-252 24.5,-252 24.5,-216 89.5,-216 89.5,-252"/>
<text text-anchor="middle" x="57" y="-231.5" font-family="Helvetica,sans-Serif" font-size="10.00" fill="#000000">starters_py</text>
</a>
</g>
</g>
<!-- dir_efedc0399e0892fcf242707c3ddb185f&#45;&gt;dir_aebb8dcc11953d78e620bbef0b9e2183 -->
<g id="edge3" class="edge">
<title>dir_efedc0399e0892fcf242707c3ddb185f&#45;&gt;dir_aebb8dcc11953d78e620bbef0b9e2183</title>
<path fill="none" stroke="#000000" d="M211,-143.8314C211,-136.131 211,-126.9743 211,-118.4166"/>
<polygon fill="#000000" stroke="#000000" points="214.5001,-118.4132 211,-108.4133 207.5001,-118.4133 214.5001,-118.4132"/>
<g id="a_edge3&#45;headlabel"><a xlink:href="dir_000001_000006.html" target="_top" xlink:title="1">
<text text-anchor="middle" x="217.3393" y="-119.5079" font-family="Helvetica,sans-Serif" font-size="10.00" fill="#000000">1</text>
</a>
</g>
</g>
<!-- dir_aebb8dcc11953d78e620bbef0b9e2183&#45;&gt;dir_6c04a91bc13b4612622c78d14e29af33 -->
<g id="edge4" class="edge">
<title>dir_aebb8dcc11953d78e620bbef0b9e2183&#45;&gt;dir_6c04a91bc13b4612622c78d14e29af33</title>
<path fill="none" stroke="#000000" d="M238.1612,-77.6228C264.2412,-65.7382 303.8162,-47.704 332.6121,-34.5818"/>
<polygon fill="#000000" stroke="#000000" points="334.281,-37.6677 341.9293,-30.336 331.3783,-31.2979 334.281,-37.6677"/>
<g id="a_edge4&#45;headlabel"><a xlink:href="dir_000006_000004.html" target="_top" xlink:title="4">
<text text-anchor="middle" x="332.1873" y="-39.2418" font-family="Helvetica,sans-Serif" font-size="10.00" fill="#000000">4</text>
</a>
</g>
</g>
</g>
</svg>
