<?xml version="1.0" encoding="UTF-8" standalone="no"?>
<!DOCTYPE svg PUBLIC "-//W3C//DTD SVG 1.1//EN"
 "http://www.w3.org/Graphics/SVG/1.1/DTD/svg11.dtd">
<!-- Generated by graphviz version 2.40.1 (20161225.0304)
 -->
<!-- Title: src/processors Pages: 1 -->
<svg width="130pt" height="295pt"
 viewBox="0.00 0.00 130.00 295.00" xmlns="http://www.w3.org/2000/svg" xmlns:xlink="http://www.w3.org/1999/xlink">
<g id="graph0" class="graph" transform="scale(1 1) rotate(0) translate(4 291)">
<title>src/processors</title>
<polygon fill="#ffffff" stroke="transparent" points="-4,4 -4,-291 126,-291 126,4 -4,4"/>
<g id="clust1" class="cluster">
<title>clusterdir_68267d1309a1af8e8297ef4c3efbcdba</title>
<g id="a_clust1"><a xlink:href="dir_68267d1309a1af8e8297ef4c3efbcdba.html" target="_top" xlink:title="src">
<polygon fill="#ddddee" stroke="#000000" points="8,-208 8,-279 90,-279 90,-208 8,-208"/>
<text text-anchor="middle" x="49" y="-267" font-family="Helvetica,sans-Serif" font-size="10.00" fill="#000000">src</text>
</a>
</g>
</g>
<!-- dir_8235a0e1c388cdad0e3f2a0adaa9e0ee -->
<g id="node1" class="node">
<title>dir_8235a0e1c388cdad0e3f2a0adaa9e0ee</title>
<g id="a_node1"><a xlink:href="dir_8235a0e1c388cdad0e3f2a0adaa9e0ee.html" target="_top" xlink:title="processors">
<polygon fill="#eeeeff" stroke="#000000" points="81.5,-252 16.5,-252 16.5,-216 81.5,-216 81.5,-252"/>
<text text-anchor="middle" x="49" y="-231.5" font-family="Helvetica,sans-Serif" font-size="10.00" fill="#000000">processors</text>
</a>
</g>
</g>
<!-- dir_6c04a91bc13b4612622c78d14e29af33 -->
<g id="node2" class="node">
<title>dir_6c04a91bc13b4612622c78d14e29af33</title>
<g id="a_node2"><a xlink:href="dir_6c04a91bc13b4612622c78d14e29af33.html" target="_top" xlink:title="alias">
<polygon fill="none" stroke="#000000" points="67,-36 13,-36 13,0 67,0 67,-36"/>
<text text-anchor="middle" x="40" y="-15.5" font-family="Helvetica,sans-Serif" font-size="10.00" fill="#000000">alias</text>
</a>
</g>
</g>
<!-- dir_8235a0e1c388cdad0e3f2a0adaa9e0ee&#45;&gt;dir_6c04a91bc13b4612622c78d14e29af33 -->
<g id="edge1" class="edge">
<title>dir_8235a0e1c388cdad0e3f2a0adaa9e0ee&#45;&gt;dir_6c04a91bc13b4612622c78d14e29af33</title>
<path fill="none" stroke="#000000" d="M33.0095,-215.9169C25.3462,-206.0371 16.9834,-193.1563 13,-180 -.9276,-134.0001 15.1919,-78.3417 27.828,-45.6874"/>
<polygon fill="#000000" stroke="#000000" points="31.1082,-46.9113 31.6006,-36.328 24.6158,-44.2943 31.1082,-46.9113"/>
<g id="a_edge1&#45;headlabel"><a xlink:href="dir_000007_000002.html" target="_top" xlink:title="2">
<text text-anchor="middle" x="32.3978" y="-48.8068" font-family="Helvetica,sans-Serif" font-size="10.00" fill="#000000">2</text>
</a>
</g>
</g>
<!-- dir_aebb8dcc11953d78e620bbef0b9e2183 -->
<g id="node3" class="node">
<title>dir_aebb8dcc11953d78e620bbef0b9e2183</title>
<g id="a_node3"><a xlink:href="dir_aebb8dcc11953d78e620bbef0b9e2183.html" target="_top" xlink:title="core">
<polygon fill="none" stroke="#000000" points="76,-180 22,-180 22,-144 76,-144 76,-180"/>
<text text-anchor="middle" x="49" y="-159.5" font-family="Helvetica,sans-Serif" font-size="10.00" fill="#000000">core</text>
</a>
</g>
</g>
<!-- dir_8235a0e1c388cdad0e3f2a0adaa9e0ee&#45;&gt;dir_aebb8dcc11953d78e620bbef0b9e2183 -->
<g id="edge2" class="edge">
<title>dir_8235a0e1c388cdad0e3f2a0adaa9e0ee&#45;&gt;dir_aebb8dcc11953d78e620bbef0b9e2183</title>
<path fill="none" stroke="#000000" d="M49,-215.8314C49,-208.131 49,-198.9743 49,-190.4166"/>
<polygon fill="#000000" stroke="#000000" points="52.5001,-190.4132 49,-180.4133 45.5001,-190.4133 52.5001,-190.4132"/>
<g id="a_edge2&#45;headlabel"><a xlink:href="dir_000007_000004.html" target="_top" xlink:title="1">
<text text-anchor="middle" x="55.3393" y="-191.5079" font-family="Helvetica,sans-Serif" font-size="10.00" fill="#000000">1</text>
</a>
</g>
</g>
<!-- dir_313caf1132e152dd9b58bea13a4052ca -->
<g id="node4" class="node">
<title>dir_313caf1132e152dd9b58bea13a4052ca</title>
<g id="a_node4"><a xlink:href="dir_313caf1132e152dd9b58bea13a4052ca.html" target="_top" xlink:title="utils">
<polygon fill="none" stroke="#000000" points="122,-108 68,-108 68,-72 122,-72 122,-108"/>
<text text-anchor="middle" x="95" y="-87.5" font-family="Helvetica,sans-Serif" font-size="10.00" fill="#000000">utils</text>
</a>
</g>
</g>
<!-- dir_8235a0e1c388cdad0e3f2a0adaa9e0ee&#45;&gt;dir_313caf1132e152dd9b58bea13a4052ca -->
<g id="edge3" class="edge">
<title>dir_8235a0e1c388cdad0e3f2a0adaa9e0ee&#45;&gt;dir_313caf1132e152dd9b58bea13a4052ca</title>
<path fill="none" stroke="#000000" d="M64.3975,-215.7193C71.8986,-205.7854 80.2951,-192.9159 85,-180 92.208,-160.2124 94.6107,-136.4903 95.2633,-118.3693"/>
<polygon fill="#000000" stroke="#000000" points="98.7668,-118.2267 95.4698,-108.158 91.7683,-118.0852 98.7668,-118.2267"/>
<g id="a_edge3&#45;headlabel"><a xlink:href="dir_000007_000015.html" target="_top" xlink:title="11">
<text text-anchor="middle" x="101.533" y="-119.378" font-family="Helvetica,sans-Serif" font-size="10.00" fill="#000000">11</text>
</a>
</g>
</g>
<!-- dir_aebb8dcc11953d78e620bbef0b9e2183&#45;&gt;dir_6c04a91bc13b4612622c78d14e29af33 -->
<g id="edge4" class="edge">
<title>dir_aebb8dcc11953d78e620bbef0b9e2183&#45;&gt;dir_6c04a91bc13b4612622c78d14e29af33</title>
<path fill="none" stroke="#000000" d="M47.8601,-143.7623C46.3251,-119.201 43.578,-75.2474 41.7721,-46.3541"/>
<polygon fill="#000000" stroke="#000000" points="45.2477,-45.8518 41.1306,-36.0896 38.2613,-46.2885 45.2477,-45.8518"/>
<g id="a_edge4&#45;headlabel"><a xlink:href="dir_000004_000002.html" target="_top" xlink:title="4">
<text text-anchor="middle" x="48.3055" y="-46.7623" font-family="Helvetica,sans-Serif" font-size="10.00" fill="#000000">4</text>
</a>
</g>
</g>
<!-- dir_aebb8dcc11953d78e620bbef0b9e2183&#45;&gt;dir_313caf1132e152dd9b58bea13a4052ca -->
<g id="edge5" class="edge">
<title>dir_aebb8dcc11953d78e620bbef0b9e2183&#45;&gt;dir_313caf1132e152dd9b58bea13a4052ca</title>
<path fill="none" stroke="#000000" d="M60.6077,-143.8314C65.7978,-135.7079 72.0232,-125.9637 77.7425,-117.0118"/>
<polygon fill="#000000" stroke="#000000" points="80.8015,-118.7246 83.236,-108.4133 74.9026,-114.9559 80.8015,-118.7246"/>
<g id="a_edge5&#45;headlabel"><a xlink:href="dir_000004_000015.html" target="_top" xlink:title="5">
<text text-anchor="middle" x="81.2589" y="-120.7824" font-family="Helvetica,sans-Serif" font-size="10.00" fill="#000000">5</text>
</a>
</g>
</g>
<!-- dir_313caf1132e152dd9b58bea13a4052ca&#45;&gt;dir_6c04a91bc13b4612622c78d14e29af33 -->
<g id="edge6" class="edge">
<title>dir_313caf1132e152dd9b58bea13a4052ca&#45;&gt;dir_6c04a91bc13b4612622c78d14e29af33</title>
<path fill="none" stroke="#000000" d="M81.1212,-71.8314C74.7864,-63.5386 67.1616,-53.557 60.2074,-44.4533"/>
<polygon fill="#000000" stroke="#000000" points="62.9175,-42.2353 54.0657,-36.4133 57.3548,-46.4847 62.9175,-42.2353"/>
<g id="a_edge6&#45;headlabel"><a xlink:href="dir_000015_000002.html" target="_top" xlink:title="10">
<text text-anchor="middle" x="67.3558" y="-40.8683" font-family="Helvetica,sans-Serif" font-size="10.00" fill="#000000">10</text>
</a>
</g>
</g>
</g>
</svg>
