<?xml version="1.0" encoding="UTF-8" standalone="no"?>
<!DOCTYPE svg PUBLIC "-//W3C//DTD SVG 1.1//EN"
 "http://www.w3.org/Graphics/SVG/1.1/DTD/svg11.dtd">
<!-- Generated by graphviz version 2.40.1 (20161225.0304)
 -->
<!-- Title: src/pybind Pages: 1 -->
<svg width="482pt" height="375pt"
 viewBox="0.00 0.00 482.00 375.00" xmlns="http://www.w3.org/2000/svg" xmlns:xlink="http://www.w3.org/1999/xlink">
<g id="graph0" class="graph" transform="scale(1 1) rotate(0) translate(4 371)">
<title>src/pybind</title>
<polygon fill="#ffffff" stroke="transparent" points="-4,4 -4,-371 478,-371 478,4 -4,4"/>
<g id="clust1" class="cluster">
<title>clusterdir_68267d1309a1af8e8297ef4c3efbcdba</title>
<g id="a_clust1"><a xlink:href="dir_68267d1309a1af8e8297ef4c3efbcdba.html" target="_top" xlink:title="src">
<polygon fill="#ddddee" stroke="#000000" points="8,-272 8,-359 466,-359 466,-272 8,-272"/>
<text text-anchor="middle" x="237" y="-347" font-family="Helvetica,sans-Serif" font-size="10.00" fill="#000000">src</text>
</a>
</g>
</g>
<g id="clust2" class="cluster">
<title>clusterdir_f55f6dc9e21b09a12acc690b19f5e964</title>
<g id="a_clust2"><a xlink:href="dir_f55f6dc9e21b09a12acc690b19f5e964.html" target="_top">
<polygon fill="#eeeeff" stroke="#000000" points="16,-280 16,-332 458,-332 458,-280 16,-280"/>
</a>
</g>
</g>
<!-- dir_f55f6dc9e21b09a12acc690b19f5e964 -->
<g id="node1" class="node">
<title>dir_f55f6dc9e21b09a12acc690b19f5e964</title>
<text text-anchor="middle" x="351" y="-303.5" font-family="Helvetica,sans-Serif" font-size="10.00" fill="#000000">pybind</text>
</g>
<!-- dir_aebb8dcc11953d78e620bbef0b9e2183 -->
<g id="node10" class="node">
<title>dir_aebb8dcc11953d78e620bbef0b9e2183</title>
<g id="a_node10"><a xlink:href="dir_aebb8dcc11953d78e620bbef0b9e2183.html" target="_top" xlink:title="core">
<polygon fill="none" stroke="#000000" points="390,-180 336,-180 336,-144 390,-144 390,-180"/>
<text text-anchor="middle" x="363" y="-159.5" font-family="Helvetica,sans-Serif" font-size="10.00" fill="#000000">core</text>
</a>
</g>
</g>
<!-- dir_f55f6dc9e21b09a12acc690b19f5e964&#45;&gt;dir_aebb8dcc11953d78e620bbef0b9e2183 -->
<g id="edge12" class="edge">
<title>dir_f55f6dc9e21b09a12acc690b19f5e964&#45;&gt;dir_aebb8dcc11953d78e620bbef0b9e2183</title>
<path fill="none" stroke="#000000" d="M352.5198,-287.7623C354.5666,-263.201 358.2294,-219.2474 360.6372,-190.3541"/>
<polygon fill="#000000" stroke="#000000" points="364.1499,-190.3458 361.4925,-180.0896 357.1741,-189.7644 364.1499,-190.3458"/>
<g id="a_edge12&#45;headlabel"><a xlink:href="dir_000008_000004.html" target="_top" xlink:title="2">
<text text-anchor="middle" x="366.6809" y="-191.6637" font-family="Helvetica,sans-Serif" font-size="10.00" fill="#000000">2</text>
</a>
</g>
</g>
<!-- dir_313caf1132e152dd9b58bea13a4052ca -->
<g id="node11" class="node">
<title>dir_313caf1132e152dd9b58bea13a4052ca</title>
<g id="a_node11"><a xlink:href="dir_313caf1132e152dd9b58bea13a4052ca.html" target="_top" xlink:title="utils">
<polygon fill="none" stroke="#000000" points="335,-108 281,-108 281,-72 335,-72 335,-108"/>
<text text-anchor="middle" x="308" y="-87.5" font-family="Helvetica,sans-Serif" font-size="10.00" fill="#000000">utils</text>
</a>
</g>
</g>
<!-- dir_f55f6dc9e21b09a12acc690b19f5e964&#45;&gt;dir_313caf1132e152dd9b58bea13a4052ca -->
<g id="edge13" class="edge">
<title>dir_f55f6dc9e21b09a12acc690b19f5e964&#45;&gt;dir_313caf1132e152dd9b58bea13a4052ca</title>
<path fill="none" stroke="#000000" d="M347.4078,-287.9555C339.9144,-250.3144 322.5696,-163.1867 313.5989,-118.1246"/>
<polygon fill="#000000" stroke="#000000" points="316.9974,-117.2692 311.6122,-108.1451 310.1321,-118.636 316.9974,-117.2692"/>
<g id="a_edge13&#45;headlabel"><a xlink:href="dir_000008_000015.html" target="_top" xlink:title="1">
<text text-anchor="middle" x="320.4837" y="-117.7404" font-family="Helvetica,sans-Serif" font-size="10.00" fill="#000000">1</text>
</a>
</g>
</g>
<!-- dir_6304a303afdde898cf6f1514bb96ad28 -->
<g id="node2" class="node">
<title>dir_6304a303afdde898cf6f1514bb96ad28</title>
<g id="a_node2"><a xlink:href="dir_6304a303afdde898cf6f1514bb96ad28.html" target="_top" xlink:title="adders">
<polygon fill="#ffffff" stroke="#000000" points="450,-324 396,-324 396,-288 450,-288 450,-324"/>
<text text-anchor="middle" x="423" y="-303.5" font-family="Helvetica,sans-Serif" font-size="10.00" fill="#000000">adders</text>
</a>
</g>
</g>
<!-- dir_efedc0399e0892fcf242707c3ddb185f -->
<g id="node9" class="node">
<title>dir_efedc0399e0892fcf242707c3ddb185f</title>
<g id="a_node9"><a xlink:href="dir_efedc0399e0892fcf242707c3ddb185f.html" target="_top" xlink:title="adders">
<polygon fill="none" stroke="#000000" points="445,-252 391,-252 391,-216 445,-216 445,-252"/>
<text text-anchor="middle" x="418" y="-231.5" font-family="Helvetica,sans-Serif" font-size="10.00" fill="#000000">adders</text>
</a>
</g>
</g>
<!-- dir_6304a303afdde898cf6f1514bb96ad28&#45;&gt;dir_efedc0399e0892fcf242707c3ddb185f -->
<g id="edge2" class="edge">
<title>dir_6304a303afdde898cf6f1514bb96ad28&#45;&gt;dir_efedc0399e0892fcf242707c3ddb185f</title>
<path fill="none" stroke="#000000" d="M421.7383,-287.8314C421.2035,-280.131 420.5677,-270.9743 419.9734,-262.4166"/>
<polygon fill="#000000" stroke="#000000" points="423.4632,-262.1467 419.2787,-252.4133 416.48,-262.6317 423.4632,-262.1467"/>
<g id="a_edge2&#45;headlabel"><a xlink:href="dir_000009_000001.html" target="_top" xlink:title="11">
<text text-anchor="middle" x="426.5445" y="-263.0361" font-family="Helvetica,sans-Serif" font-size="10.00" fill="#000000">11</text>
</a>
</g>
</g>
<!-- dir_e6b67e231d56eea13eccf9a18f16d1f2 -->
<g id="node3" class="node">
<title>dir_e6b67e231d56eea13eccf9a18f16d1f2</title>
<g id="a_node3"><a xlink:href="dir_e6b67e231d56eea13eccf9a18f16d1f2.html" target="_top" xlink:title="filters">
<polygon fill="#ffffff" stroke="#000000" points="306,-324 252,-324 252,-288 306,-288 306,-324"/>
<text text-anchor="middle" x="279" y="-303.5" font-family="Helvetica,sans-Serif" font-size="10.00" fill="#000000">filters</text>
</a>
</g>
</g>
<!-- dir_1bc13244e26df1e1f069a1fd18e36da3 -->
<g id="node8" class="node">
<title>dir_1bc13244e26df1e1f069a1fd18e36da3</title>
<g id="a_node8"><a xlink:href="dir_1bc13244e26df1e1f069a1fd18e36da3.html" target="_top" xlink:title="filters">
<polygon fill="none" stroke="#000000" points="293,-252 239,-252 239,-216 293,-216 293,-252"/>
<text text-anchor="middle" x="266" y="-231.5" font-family="Helvetica,sans-Serif" font-size="10.00" fill="#000000">filters</text>
</a>
</g>
</g>
<!-- dir_e6b67e231d56eea13eccf9a18f16d1f2&#45;&gt;dir_1bc13244e26df1e1f069a1fd18e36da3 -->
<g id="edge1" class="edge">
<title>dir_e6b67e231d56eea13eccf9a18f16d1f2&#45;&gt;dir_1bc13244e26df1e1f069a1fd18e36da3</title>
<path fill="none" stroke="#000000" d="M275.7196,-287.8314C274.3292,-280.131 272.6759,-270.9743 271.1308,-262.4166"/>
<polygon fill="#000000" stroke="#000000" points="274.5458,-261.6322 269.3246,-252.4133 267.6572,-262.8761 274.5458,-261.6322"/>
<g id="a_edge1&#45;headlabel"><a xlink:href="dir_000010_000005.html" target="_top" xlink:title="2">
<text text-anchor="middle" x="277.9785" y="-262.1652" font-family="Helvetica,sans-Serif" font-size="10.00" fill="#000000">2</text>
</a>
</g>
</g>
<!-- dir_c0db64017119b344aae71e6e7899bbb5 -->
<g id="node4" class="node">
<title>dir_c0db64017119b344aae71e6e7899bbb5</title>
<g id="a_node4"><a xlink:href="dir_c0db64017119b344aae71e6e7899bbb5.html" target="_top" xlink:title="invokers">
<polygon fill="#ffffff" stroke="#000000" points="150,-324 96,-324 96,-288 150,-288 150,-324"/>
<text text-anchor="middle" x="123" y="-303.5" font-family="Helvetica,sans-Serif" font-size="10.00" fill="#000000">invokers</text>
</a>
</g>
</g>
<!-- dir_6c04a91bc13b4612622c78d14e29af33 -->
<g id="node7" class="node">
<title>dir_6c04a91bc13b4612622c78d14e29af33</title>
<g id="a_node7"><a xlink:href="dir_6c04a91bc13b4612622c78d14e29af33.html" target="_top" xlink:title="alias">
<polygon fill="none" stroke="#000000" points="284,-36 230,-36 230,0 284,0 284,-36"/>
<text text-anchor="middle" x="257" y="-15.5" font-family="Helvetica,sans-Serif" font-size="10.00" fill="#000000">alias</text>
</a>
</g>
</g>
<!-- dir_c0db64017119b344aae71e6e7899bbb5&#45;&gt;dir_6c04a91bc13b4612622c78d14e29af33 -->
<g id="edge6" class="edge">
<title>dir_c0db64017119b344aae71e6e7899bbb5&#45;&gt;dir_6c04a91bc13b4612622c78d14e29af33</title>
<path fill="none" stroke="#000000" d="M131.3823,-287.9843C154.1308,-239.0919 217.1357,-103.6785 244.2839,-45.33"/>
<polygon fill="#000000" stroke="#000000" points="247.5756,-46.552 248.6209,-36.0089 241.229,-43.599 247.5756,-46.552"/>
<g id="a_edge6&#45;headlabel"><a xlink:href="dir_000011_000002.html" target="_top" xlink:title="1">
<text text-anchor="middle" x="248.6336" y="-48.5089" font-family="Helvetica,sans-Serif" font-size="10.00" fill="#000000">1</text>
</a>
</g>
</g>
<!-- dir_aac6e0aba0e20504ae3255a4c4142454 -->
<g id="node5" class="node">
<title>dir_aac6e0aba0e20504ae3255a4c4142454</title>
<g id="a_node5"><a xlink:href="dir_aac6e0aba0e20504ae3255a4c4142454.html" target="_top" xlink:title="processors">
<polygon fill="#ffffff" stroke="#000000" points="233.5,-324 168.5,-324 168.5,-288 233.5,-288 233.5,-324"/>
<text text-anchor="middle" x="201" y="-303.5" font-family="Helvetica,sans-Serif" font-size="10.00" fill="#000000">processors</text>
</a>
</g>
</g>
<!-- dir_aac6e0aba0e20504ae3255a4c4142454&#45;&gt;dir_6c04a91bc13b4612622c78d14e29af33 -->
<g id="edge3" class="edge">
<title>dir_aac6e0aba0e20504ae3255a4c4142454&#45;&gt;dir_6c04a91bc13b4612622c78d14e29af33</title>
<path fill="none" stroke="#000000" d="M204.5031,-287.9843C213.9706,-239.2939 240.123,-104.7961 251.5444,-46.0573"/>
<polygon fill="#000000" stroke="#000000" points="255.0252,-46.4931 253.4983,-36.0089 248.1538,-45.157 255.0252,-46.4931"/>
<g id="a_edge3&#45;headlabel"><a xlink:href="dir_000012_000002.html" target="_top" xlink:title="1">
<text text-anchor="middle" x="257.1262" y="-48.0635" font-family="Helvetica,sans-Serif" font-size="10.00" fill="#000000">1</text>
</a>
</g>
</g>
<!-- dir_ffbbd8010c2a1e8431d38e023d9287cc -->
<g id="node6" class="node">
<title>dir_ffbbd8010c2a1e8431d38e023d9287cc</title>
<g id="a_node6"><a xlink:href="dir_ffbbd8010c2a1e8431d38e023d9287cc.html" target="_top" xlink:title="starters">
<polygon fill="#ffffff" stroke="#000000" points="78,-324 24,-324 24,-288 78,-288 78,-324"/>
<text text-anchor="middle" x="51" y="-303.5" font-family="Helvetica,sans-Serif" font-size="10.00" fill="#000000">starters</text>
</a>
</g>
</g>
<!-- dir_1bc13244e26df1e1f069a1fd18e36da3&#45;&gt;dir_aebb8dcc11953d78e620bbef0b9e2183 -->
<g id="edge4" class="edge">
<title>dir_1bc13244e26df1e1f069a1fd18e36da3&#45;&gt;dir_aebb8dcc11953d78e620bbef0b9e2183</title>
<path fill="none" stroke="#000000" d="M290.4772,-215.8314C302.5395,-206.8779 317.254,-195.9558 330.2686,-186.2955"/>
<polygon fill="#000000" stroke="#000000" points="332.587,-188.9335 338.5306,-180.1628 328.4148,-183.3127 332.587,-188.9335"/>
<g id="a_edge4&#45;headlabel"><a xlink:href="dir_000005_000004.html" target="_top" xlink:title="1">
<text text-anchor="middle" x="331.3929" y="-190.8557" font-family="Helvetica,sans-Serif" font-size="10.00" fill="#000000">1</text>
</a>
</g>
</g>
<!-- dir_1bc13244e26df1e1f069a1fd18e36da3&#45;&gt;dir_313caf1132e152dd9b58bea13a4052ca -->
<g id="edge5" class="edge">
<title>dir_1bc13244e26df1e1f069a1fd18e36da3&#45;&gt;dir_313caf1132e152dd9b58bea13a4052ca</title>
<path fill="none" stroke="#000000" d="M271.3193,-215.7623C278.5146,-191.0928 291.4159,-146.8598 299.8412,-117.9731"/>
<polygon fill="#000000" stroke="#000000" points="303.2838,-118.6696 302.7239,-108.0896 296.5638,-116.7096 303.2838,-118.6696"/>
<g id="a_edge5&#45;headlabel"><a xlink:href="dir_000005_000015.html" target="_top" xlink:title="2">
<text text-anchor="middle" x="305.0031" y="-120.4154" font-family="Helvetica,sans-Serif" font-size="10.00" fill="#000000">2</text>
</a>
</g>
</g>
<!-- dir_efedc0399e0892fcf242707c3ddb185f&#45;&gt;dir_aebb8dcc11953d78e620bbef0b9e2183 -->
<g id="edge7" class="edge">
<title>dir_efedc0399e0892fcf242707c3ddb185f&#45;&gt;dir_aebb8dcc11953d78e620bbef0b9e2183</title>
<path fill="none" stroke="#000000" d="M404.1212,-215.8314C397.7864,-207.5386 390.1616,-197.557 383.2074,-188.4533"/>
<polygon fill="#000000" stroke="#000000" points="385.9175,-186.2353 377.0657,-180.4133 380.3548,-190.4847 385.9175,-186.2353"/>
<g id="a_edge7&#45;headlabel"><a xlink:href="dir_000001_000004.html" target="_top" xlink:title="1">
<text text-anchor="middle" x="390.3558" y="-184.8683" font-family="Helvetica,sans-Serif" font-size="10.00" fill="#000000">1</text>
</a>
</g>
</g>
<!-- dir_efedc0399e0892fcf242707c3ddb185f&#45;&gt;dir_313caf1132e152dd9b58bea13a4052ca -->
<g id="edge8" class="edge">
<title>dir_efedc0399e0892fcf242707c3ddb185f&#45;&gt;dir_313caf1132e152dd9b58bea13a4052ca</title>
<path fill="none" stroke="#000000" d="M418.3117,-215.7327C417.7602,-196.2384 414.2523,-165.2902 399,-144 385.6375,-125.3477 363.6528,-112.042 344.64,-103.3058"/>
<polygon fill="#000000" stroke="#000000" points="345.881,-100.0291 335.3137,-99.2653 343.0983,-106.4522 345.881,-100.0291"/>
<g id="a_edge8&#45;headlabel"><a xlink:href="dir_000001_000015.html" target="_top" xlink:title="11">
<text text-anchor="middle" x="350.308" y="-96.3527" font-family="Helvetica,sans-Serif" font-size="10.00" fill="#000000">11</text>
</a>
</g>
</g>
<!-- dir_aebb8dcc11953d78e620bbef0b9e2183&#45;&gt;dir_6c04a91bc13b4612622c78d14e29af33 -->
<g id="edge9" class="edge">
<title>dir_aebb8dcc11953d78e620bbef0b9e2183&#45;&gt;dir_6c04a91bc13b4612622c78d14e29af33</title>
<path fill="none" stroke="#000000" d="M363.2291,-143.7912C362.6071,-124.3469 359.0393,-93.4412 344,-72 331.5689,-54.2773 311.2788,-41.1966 293.4191,-32.3519"/>
<polygon fill="#000000" stroke="#000000" points="294.8966,-29.179 284.3557,-28.1106 291.9296,-35.5192 294.8966,-29.179"/>
<g id="a_edge9&#45;headlabel"><a xlink:href="dir_000004_000002.html" target="_top" xlink:title="4">
<text text-anchor="middle" x="299.3557" y="-25.6309" font-family="Helvetica,sans-Serif" font-size="10.00" fill="#000000">4</text>
</a>
</g>
</g>
<!-- dir_aebb8dcc11953d78e620bbef0b9e2183&#45;&gt;dir_313caf1132e152dd9b58bea13a4052ca -->
<g id="edge10" class="edge">
<title>dir_aebb8dcc11953d78e620bbef0b9e2183&#45;&gt;dir_313caf1132e152dd9b58bea13a4052ca</title>
<path fill="none" stroke="#000000" d="M349.1212,-143.8314C342.7864,-135.5386 335.1616,-125.557 328.2074,-116.4533"/>
<polygon fill="#000000" stroke="#000000" points="330.9175,-114.2353 322.0657,-108.4133 325.3548,-118.4847 330.9175,-114.2353"/>
<g id="a_edge10&#45;headlabel"><a xlink:href="dir_000004_000015.html" target="_top" xlink:title="5">
<text text-anchor="middle" x="335.3558" y="-112.8683" font-family="Helvetica,sans-Serif" font-size="10.00" fill="#000000">5</text>
</a>
</g>
</g>
<!-- dir_313caf1132e152dd9b58bea13a4052ca&#45;&gt;dir_6c04a91bc13b4612622c78d14e29af33 -->
<g id="edge11" class="edge">
<title>dir_313caf1132e152dd9b58bea13a4052ca&#45;&gt;dir_6c04a91bc13b4612622c78d14e29af33</title>
<path fill="none" stroke="#000000" d="M295.1305,-71.8314C289.3165,-63.6232 282.3304,-53.7606 275.9354,-44.7323"/>
<polygon fill="#000000" stroke="#000000" points="278.679,-42.5505 270.0427,-36.4133 272.9669,-46.5966 278.679,-42.5505"/>
<g id="a_edge11&#45;headlabel"><a xlink:href="dir_000015_000002.html" target="_top" xlink:title="10">
<text text-anchor="middle" x="283.0737" y="-41.3426" font-family="Helvetica,sans-Serif" font-size="10.00" fill="#000000">10</text>
</a>
</g>
</g>
</g>
</svg>
