<?xml version="1.0" encoding="UTF-8" standalone="no"?>
<!DOCTYPE svg PUBLIC "-//W3C//DTD SVG 1.1//EN"
 "http://www.w3.org/Graphics/SVG/1.1/DTD/svg11.dtd">
<!-- Generated by graphviz version 2.40.1 (20161225.0304)
 -->
<!-- Title: src/filters/fil_comparison.h Pages: 1 -->
<svg width="276pt" height="207pt"
 viewBox="0.00 0.00 275.50 207.00" xmlns="http://www.w3.org/2000/svg" xmlns:xlink="http://www.w3.org/1999/xlink">
<g id="graph0" class="graph" transform="scale(1 1) rotate(0) translate(4 203)">
<title>src/filters/fil_comparison.h</title>
<polygon fill="#ffffff" stroke="transparent" points="-4,4 -4,-203 271.5,-203 271.5,4 -4,4"/>
<!-- Node22 -->
<g id="node1" class="node">
<title>Node22</title>
<polygon fill="#bfbfbf" stroke="#000000" points="76.5,-179.5 76.5,-198.5 207.5,-198.5 207.5,-179.5 76.5,-179.5"/>
<text text-anchor="middle" x="142" y="-186.5" font-family="Helvetica,sans-Serif" font-size="10.00" fill="#000000">src/filters/fil_comparison.h</text>
</g>
<!-- Node23 -->
<g id="node2" class="node">
<title>Node23</title>
<g id="a_node2"><a xlink:href="fil__comparison_8cpp.html" target="_top" xlink:title="This file has an implementation of FilComparison class, which is a subclass of Filter class...">
<polygon fill="#ffffff" stroke="#000000" points="0,-118 0,-137 142,-137 142,-118 0,-118"/>
<text text-anchor="middle" x="71" y="-125" font-family="Helvetica,sans-Serif" font-size="10.00" fill="#000000">src/filters/fil_comparison.cpp</text>
</a>
</g>
</g>
<!-- Node22&#45;&gt;Node23 -->
<g id="edge1" class="edge">
<title>Node22&#45;&gt;Node23</title>
<path fill="none" stroke="#191970" d="M123.0068,-172.5482C109.9978,-161.2798 93.1843,-146.716 82.2502,-137.2449"/>
<polygon fill="#191970" stroke="#191970" points="121.056,-175.4888 130.9063,-179.3906 125.6391,-170.1978 121.056,-175.4888"/>
</g>
<!-- Node24 -->
<g id="node3" class="node">
<title>Node24</title>
<g id="a_node3"><a xlink:href="py__fil__comparison_8h.html" target="_top" xlink:title="This file is for binding FilComparison class to Python. ">
<polygon fill="#ffffff" stroke="#000000" points="160.5,-112.5 160.5,-142.5 267.5,-142.5 267.5,-112.5 160.5,-112.5"/>
<text text-anchor="start" x="168.5" y="-130.5" font-family="Helvetica,sans-Serif" font-size="10.00" fill="#000000">src/pybind/filters</text>
<text text-anchor="middle" x="214" y="-119.5" font-family="Helvetica,sans-Serif" font-size="10.00" fill="#000000">/py_fil_comparison.h</text>
</a>
</g>
</g>
<!-- Node22&#45;&gt;Node24 -->
<g id="edge2" class="edge">
<title>Node22&#45;&gt;Node24</title>
<path fill="none" stroke="#191970" d="M161.0084,-172.7637C171.9731,-163.398 185.6667,-151.7014 196.3868,-142.5446"/>
<polygon fill="#191970" stroke="#191970" points="158.5805,-170.2344 153.25,-179.3906 163.127,-175.557 158.5805,-170.2344"/>
</g>
<!-- Node25 -->
<g id="node4" class="node">
<title>Node25</title>
<g id="a_node4"><a xlink:href="pybind_8h.html" target="_top" xlink:title="This file includes all the header files containing definitions of functions to bind C++ and Python...">
<polygon fill="#ffffff" stroke="#000000" points="179,-56.5 179,-75.5 249,-75.5 249,-56.5 179,-56.5"/>
<text text-anchor="middle" x="214" y="-63.5" font-family="Helvetica,sans-Serif" font-size="10.00" fill="#000000">src/pybind.h</text>
</a>
</g>
</g>
<!-- Node24&#45;&gt;Node25 -->
<g id="edge3" class="edge">
<title>Node24&#45;&gt;Node25</title>
<path fill="none" stroke="#191970" d="M214,-102.2849C214,-92.9858 214,-82.9883 214,-75.8469"/>
<polygon fill="#191970" stroke="#191970" points="210.5001,-102.2977 214,-112.2977 217.5001,-102.2978 210.5001,-102.2977"/>
</g>
<!-- Node26 -->
<g id="node5" class="node">
<title>Node26</title>
<g id="a_node5"><a xlink:href="ppap4lmp_8cpp.html" target="_top" xlink:title="This file has no implementation, only includes a header file to bind C++ and Python. ">
<polygon fill="#ffffff" stroke="#000000" points="167,-.5 167,-19.5 261,-19.5 261,-.5 167,-.5"/>
<text text-anchor="middle" x="214" y="-7.5" font-family="Helvetica,sans-Serif" font-size="10.00" fill="#000000">src/ppap4lmp.cpp</text>
</a>
</g>
</g>
<!-- Node25&#45;&gt;Node26 -->
<g id="edge4" class="edge">
<title>Node25&#45;&gt;Node26</title>
<path fill="none" stroke="#191970" d="M214,-46.1575C214,-37.155 214,-26.9199 214,-19.6427"/>
<polygon fill="#191970" stroke="#191970" points="210.5001,-46.2455 214,-56.2455 217.5001,-46.2456 210.5001,-46.2455"/>
</g>
</g>
</svg>
