<?xml version="1.0" encoding="UTF-8" standalone="no"?>
<!DOCTYPE svg PUBLIC "-//W3C//DTD SVG 1.1//EN"
 "http://www.w3.org/Graphics/SVG/1.1/DTD/svg11.dtd">
<!-- Generated by graphviz version 2.40.1 (20161225.0304)
 -->
<!-- Title: src/filters/fil_comparison.cpp Pages: 1 -->
<svg width="390pt" height="196pt"
 viewBox="0.00 0.00 390.00 196.00" xmlns="http://www.w3.org/2000/svg" xmlns:xlink="http://www.w3.org/1999/xlink">
<g id="graph0" class="graph" transform="scale(1 1) rotate(0) translate(4 192)">
<title>src/filters/fil_comparison.cpp</title>
<polygon fill="#ffffff" stroke="transparent" points="-4,4 -4,-192 386,-192 386,4 -4,4"/>
<!-- Node0 -->
<g id="node1" class="node">
<title>Node0</title>
<polygon fill="#bfbfbf" stroke="#000000" points="32,-168.5 32,-187.5 174,-187.5 174,-168.5 32,-168.5"/>
<text text-anchor="middle" x="103" y="-175.5" font-family="Helvetica,sans-Serif" font-size="10.00" fill="#000000">src/filters/fil_comparison.cpp</text>
</g>
<!-- Node1 -->
<g id="node2" class="node">
<title>Node1</title>
<g id="a_node2"><a xlink:href="filters_2fil__comparison_8h.html" target="_top" xlink:title="fil_comparison.h">
<polygon fill="#ffffff" stroke="#000000" points="0,-112.5 0,-131.5 88,-131.5 88,-112.5 0,-112.5"/>
<text text-anchor="middle" x="44" y="-119.5" font-family="Helvetica,sans-Serif" font-size="10.00" fill="#000000">fil_comparison.h</text>
</a>
</g>
</g>
<!-- Node0&#45;&gt;Node1 -->
<g id="edge1" class="edge">
<title>Node0&#45;&gt;Node1</title>
<path fill="none" stroke="#191970" d="M92.723,-168.2455C84.1782,-160.1352 71.8222,-148.4075 61.6915,-138.7919"/>
<polygon fill="#191970" stroke="#191970" points="63.8218,-135.9884 54.1592,-131.6427 59.0028,-141.0655 63.8218,-135.9884"/>
</g>
<!-- Node3 -->
<g id="node4" class="node">
<title>Node3</title>
<g id="a_node4"><a xlink:href="runtime__error_8h.html" target="_top" xlink:title="../utils/runtime_error.h">
<polygon fill="#ffffff" stroke="#000000" points="106,-112.5 106,-131.5 218,-131.5 218,-112.5 106,-112.5"/>
<text text-anchor="middle" x="162" y="-119.5" font-family="Helvetica,sans-Serif" font-size="10.00" fill="#000000">../utils/runtime_error.h</text>
</a>
</g>
</g>
<!-- Node0&#45;&gt;Node3 -->
<g id="edge3" class="edge">
<title>Node0&#45;&gt;Node3</title>
<path fill="none" stroke="#191970" d="M113.277,-168.2455C121.8218,-160.1352 134.1778,-148.4075 144.3085,-138.7919"/>
<polygon fill="#191970" stroke="#191970" points="146.9972,-141.0655 151.8408,-131.6427 142.1782,-135.9884 146.9972,-141.0655"/>
</g>
<!-- Node2 -->
<g id="node3" class="node">
<title>Node2</title>
<polygon fill="#ffffff" stroke="#bfbfbf" points="8.5,-56.5 8.5,-75.5 79.5,-75.5 79.5,-56.5 8.5,-56.5"/>
<text text-anchor="middle" x="44" y="-63.5" font-family="Helvetica,sans-Serif" font-size="10.00" fill="#000000">filters/filter.h</text>
</g>
<!-- Node1&#45;&gt;Node2 -->
<g id="edge2" class="edge">
<title>Node1&#45;&gt;Node2</title>
<path fill="none" stroke="#191970" d="M44,-112.2455C44,-104.9382 44,-94.6944 44,-85.7046"/>
<polygon fill="#191970" stroke="#191970" points="47.5001,-85.6426 44,-75.6427 40.5001,-85.6427 47.5001,-85.6426"/>
</g>
<!-- Node4 -->
<g id="node5" class="node">
<title>Node4</title>
<g id="a_node5"><a xlink:href="std_8h.html" target="_top" xlink:title="This file includes a part of C++ Standard Template Library and defines aliases for them...">
<polygon fill="#ffffff" stroke="#000000" points="131,-56.5 131,-75.5 193,-75.5 193,-56.5 131,-56.5"/>
<text text-anchor="middle" x="162" y="-63.5" font-family="Helvetica,sans-Serif" font-size="10.00" fill="#000000">alias/std.h</text>
</a>
</g>
</g>
<!-- Node3&#45;&gt;Node4 -->
<g id="edge4" class="edge">
<title>Node3&#45;&gt;Node4</title>
<path fill="none" stroke="#191970" d="M162,-112.2455C162,-104.9382 162,-94.6944 162,-85.7046"/>
<polygon fill="#191970" stroke="#191970" points="165.5001,-85.6426 162,-75.6427 158.5001,-85.6427 165.5001,-85.6426"/>
</g>
<!-- Node5 -->
<g id="node6" class="node">
<title>Node5</title>
<polygon fill="#ffffff" stroke="#bfbfbf" points="10,-.5 10,-19.5 62,-19.5 62,-.5 10,-.5"/>
<text text-anchor="middle" x="36" y="-7.5" font-family="Helvetica,sans-Serif" font-size="10.00" fill="#000000">memory</text>
</g>
<!-- Node4&#45;&gt;Node5 -->
<g id="edge5" class="edge">
<title>Node4&#45;&gt;Node5</title>
<path fill="none" stroke="#191970" d="M140.3398,-56.3733C120.0228,-47.3435 89.436,-33.7494 66.625,-23.6111"/>
<polygon fill="#191970" stroke="#191970" points="67.9372,-20.3642 57.3775,-19.5011 65.0941,-26.7609 67.9372,-20.3642"/>
</g>
<!-- Node6 -->
<g id="node7" class="node">
<title>Node6</title>
<polygon fill="#ffffff" stroke="#bfbfbf" points="80.5,-.5 80.5,-19.5 121.5,-19.5 121.5,-.5 80.5,-.5"/>
<text text-anchor="middle" x="101" y="-7.5" font-family="Helvetica,sans-Serif" font-size="10.00" fill="#000000">string</text>
</g>
<!-- Node4&#45;&gt;Node6 -->
<g id="edge6" class="edge">
<title>Node4&#45;&gt;Node6</title>
<path fill="none" stroke="#191970" d="M151.3746,-56.2455C142.4527,-48.0549 129.512,-36.1749 118.9808,-26.5069"/>
<polygon fill="#191970" stroke="#191970" points="121.2371,-23.8271 111.5036,-19.6427 116.5032,-28.9837 121.2371,-23.8271"/>
</g>
<!-- Node7 -->
<g id="node8" class="node">
<title>Node7</title>
<polygon fill="#ffffff" stroke="#bfbfbf" points="140,-.5 140,-19.5 184,-19.5 184,-.5 140,-.5"/>
<text text-anchor="middle" x="162" y="-7.5" font-family="Helvetica,sans-Serif" font-size="10.00" fill="#000000">vector</text>
</g>
<!-- Node4&#45;&gt;Node7 -->
<g id="edge7" class="edge">
<title>Node4&#45;&gt;Node7</title>
<path fill="none" stroke="#191970" d="M162,-56.2455C162,-48.9382 162,-38.6944 162,-29.7046"/>
<polygon fill="#191970" stroke="#191970" points="165.5001,-29.6426 162,-19.6427 158.5001,-29.6427 165.5001,-29.6426"/>
</g>
<!-- Node8 -->
<g id="node9" class="node">
<title>Node8</title>
<polygon fill="#ffffff" stroke="#bfbfbf" points="202.5,-.5 202.5,-19.5 285.5,-19.5 285.5,-.5 202.5,-.5"/>
<text text-anchor="middle" x="244" y="-7.5" font-family="Helvetica,sans-Serif" font-size="10.00" fill="#000000">unordered_map</text>
</g>
<!-- Node4&#45;&gt;Node8 -->
<g id="edge8" class="edge">
<title>Node4&#45;&gt;Node8</title>
<path fill="none" stroke="#191970" d="M176.2833,-56.2455C188.747,-47.7337 207.0451,-35.2375 221.4792,-25.3801"/>
<polygon fill="#191970" stroke="#191970" points="223.5962,-28.1726 229.8804,-19.6427 219.6485,-22.392 223.5962,-28.1726"/>
</g>
<!-- Node9 -->
<g id="node10" class="node">
<title>Node9</title>
<polygon fill="#ffffff" stroke="#bfbfbf" points="304,-.5 304,-19.5 382,-19.5 382,-.5 304,-.5"/>
<text text-anchor="middle" x="343" y="-7.5" font-family="Helvetica,sans-Serif" font-size="10.00" fill="#000000">unordered_set</text>
</g>
<!-- Node4&#45;&gt;Node9 -->
<g id="edge9" class="edge">
<title>Node4&#45;&gt;Node9</title>
<path fill="none" stroke="#191970" d="M193.115,-56.3733C223.3429,-47.021 269.396,-32.7725 302.4739,-22.5385"/>
<polygon fill="#191970" stroke="#191970" points="303.7723,-25.8005 312.291,-19.5011 301.7033,-19.1133 303.7723,-25.8005"/>
</g>
</g>
</svg>
