<?xml version="1.0" encoding="UTF-8" standalone="no"?>
<!DOCTYPE svg PUBLIC "-//W3C//DTD SVG 1.1//EN"
 "http://www.w3.org/Graphics/SVG/1.1/DTD/svg11.dtd">
<!-- Generated by graphviz version 2.40.1 (20161225.0304)
 -->
<!-- Title: src/filters/fil_set.h Pages: 1 -->
<svg width="223pt" height="207pt"
 viewBox="0.00 0.00 222.50 207.00" xmlns="http://www.w3.org/2000/svg" xmlns:xlink="http://www.w3.org/1999/xlink">
<g id="graph0" class="graph" transform="scale(1 1) rotate(0) translate(4 203)">
<title>src/filters/fil_set.h</title>
<polygon fill="#ffffff" stroke="transparent" points="-4,4 -4,-203 218.5,-203 218.5,4 -4,4"/>
<!-- Node22 -->
<g id="node1" class="node">
<title>Node22</title>
<polygon fill="#bfbfbf" stroke="#000000" points="62,-179.5 62,-198.5 157,-198.5 157,-179.5 62,-179.5"/>
<text text-anchor="middle" x="109.5" y="-186.5" font-family="Helvetica,sans-Serif" font-size="10.00" fill="#000000">src/filters/fil_set.h</text>
</g>
<!-- Node23 -->
<g id="node2" class="node">
<title>Node23</title>
<g id="a_node2"><a xlink:href="fil__set_8cpp.html" target="_top" xlink:title="This file has an implementation of FilSet class, which is a subclass of Filter class. ">
<polygon fill="#ffffff" stroke="#000000" points="0,-118 0,-137 105,-137 105,-118 0,-118"/>
<text text-anchor="middle" x="52.5" y="-125" font-family="Helvetica,sans-Serif" font-size="10.00" fill="#000000">src/filters/fil_set.cpp</text>
</a>
</g>
</g>
<!-- Node22&#45;&gt;Node23 -->
<g id="edge1" class="edge">
<title>Node22&#45;&gt;Node23</title>
<path fill="none" stroke="#191970" d="M93.6519,-171.9007C83.2956,-160.7268 70.1428,-146.5356 61.5318,-137.2449"/>
<polygon fill="#191970" stroke="#191970" points="91.2291,-174.4355 100.5938,-179.3906 96.3631,-169.6771 91.2291,-174.4355"/>
</g>
<!-- Node24 -->
<g id="node3" class="node">
<title>Node24</title>
<g id="a_node3"><a xlink:href="py__fil__set_8h.html" target="_top" xlink:title="This file is for binding FilSet class to Python. ">
<polygon fill="#ffffff" stroke="#000000" points="123,-112.5 123,-142.5 212,-142.5 212,-112.5 123,-112.5"/>
<text text-anchor="start" x="131" y="-130.5" font-family="Helvetica,sans-Serif" font-size="10.00" fill="#000000">src/pybind/filters</text>
<text text-anchor="middle" x="167.5" y="-119.5" font-family="Helvetica,sans-Serif" font-size="10.00" fill="#000000">/py_fil_set.h</text>
</a>
</g>
</g>
<!-- Node22&#45;&gt;Node24 -->
<g id="edge2" class="edge">
<title>Node22&#45;&gt;Node24</title>
<path fill="none" stroke="#191970" d="M125.5973,-171.9314C134.2918,-162.7122 144.9299,-151.4321 153.3116,-142.5446"/>
<polygon fill="#191970" stroke="#191970" points="122.8773,-169.7142 118.5625,-179.3906 127.9698,-174.5169 122.8773,-169.7142"/>
</g>
<!-- Node25 -->
<g id="node4" class="node">
<title>Node25</title>
<g id="a_node4"><a xlink:href="pybind_8h.html" target="_top" xlink:title="This file includes all the header files containing definitions of functions to bind C++ and Python...">
<polygon fill="#ffffff" stroke="#000000" points="132.5,-56.5 132.5,-75.5 202.5,-75.5 202.5,-56.5 132.5,-56.5"/>
<text text-anchor="middle" x="167.5" y="-63.5" font-family="Helvetica,sans-Serif" font-size="10.00" fill="#000000">src/pybind.h</text>
</a>
</g>
</g>
<!-- Node24&#45;&gt;Node25 -->
<g id="edge3" class="edge">
<title>Node24&#45;&gt;Node25</title>
<path fill="none" stroke="#191970" d="M167.5,-102.2849C167.5,-92.9858 167.5,-82.9883 167.5,-75.8469"/>
<polygon fill="#191970" stroke="#191970" points="164.0001,-102.2977 167.5,-112.2977 171.0001,-102.2978 164.0001,-102.2977"/>
</g>
<!-- Node26 -->
<g id="node5" class="node">
<title>Node26</title>
<g id="a_node5"><a xlink:href="ppap4lmp_8cpp.html" target="_top" xlink:title="This file has no implementation, only includes a header file to bind C++ and Python. ">
<polygon fill="#ffffff" stroke="#000000" points="120.5,-.5 120.5,-19.5 214.5,-19.5 214.5,-.5 120.5,-.5"/>
<text text-anchor="middle" x="167.5" y="-7.5" font-family="Helvetica,sans-Serif" font-size="10.00" fill="#000000">src/ppap4lmp.cpp</text>
</a>
</g>
</g>
<!-- Node25&#45;&gt;Node26 -->
<g id="edge4" class="edge">
<title>Node25&#45;&gt;Node26</title>
<path fill="none" stroke="#191970" d="M167.5,-46.1575C167.5,-37.155 167.5,-26.9199 167.5,-19.6427"/>
<polygon fill="#191970" stroke="#191970" points="164.0001,-46.2455 167.5,-56.2455 171.0001,-46.2456 164.0001,-46.2455"/>
</g>
</g>
</svg>
