<?xml version="1.0" encoding="UTF-8" standalone="no"?>
<!DOCTYPE svg PUBLIC "-//W3C//DTD SVG 1.1//EN"
 "http://www.w3.org/Graphics/SVG/1.1/DTD/svg11.dtd">
<!-- Generated by graphviz version 2.40.1 (20161225.0304)
 -->
<!-- Title: src/filters/filter.h Pages: 1 -->
<svg width="652pt" height="285pt"
 viewBox="0.00 0.00 651.50 285.00" xmlns="http://www.w3.org/2000/svg" xmlns:xlink="http://www.w3.org/1999/xlink">
<g id="graph0" class="graph" transform="scale(1 1) rotate(0) translate(4 281)">
<title>src/filters/filter.h</title>
<polygon fill="#ffffff" stroke="transparent" points="-4,4 -4,-281 647.5,-281 647.5,4 -4,4"/>
<!-- Node21 -->
<g id="node1" class="node">
<title>Node21</title>
<polygon fill="#bfbfbf" stroke="#000000" points="377.5,-257.5 377.5,-276.5 464.5,-276.5 464.5,-257.5 377.5,-257.5"/>
<text text-anchor="middle" x="421" y="-264.5" font-family="Helvetica,sans-Serif" font-size="10.00" fill="#000000">src/filters/filter.h</text>
</g>
<!-- Node22 -->
<g id="node2" class="node">
<title>Node22</title>
<g id="a_node2"><a xlink:href="fil__comparison_8h.html" target="_top" xlink:title="This file has a definition of FilComparison class, which is a subclass of Filter class. ">
<polygon fill="#ffffff" stroke="#000000" points="148.5,-196 148.5,-215 279.5,-215 279.5,-196 148.5,-196"/>
<text text-anchor="middle" x="214" y="-203" font-family="Helvetica,sans-Serif" font-size="10.00" fill="#000000">src/filters/fil_comparison.h</text>
</a>
</g>
</g>
<!-- Node21&#45;&gt;Node22 -->
<g id="edge1" class="edge">
<title>Node21&#45;&gt;Node22</title>
<path fill="none" stroke="#191970" d="M378.841,-254.4745C339.5467,-242.8001 281.7975,-225.6427 246.1166,-215.0419"/>
<polygon fill="#191970" stroke="#191970" points="378.0736,-257.8976 388.6563,-257.3906 380.0672,-251.1875 378.0736,-257.8976"/>
</g>
<!-- Node28 -->
<g id="node8" class="node">
<title>Node28</title>
<g id="a_node8"><a xlink:href="fil__set_8h.html" target="_top" xlink:title="This file has a definition of FilSet class, which is a subclass of Filter class. ">
<polygon fill="#ffffff" stroke="#000000" points="428.5,-196 428.5,-215 523.5,-215 523.5,-196 428.5,-196"/>
<text text-anchor="middle" x="476" y="-203" font-family="Helvetica,sans-Serif" font-size="10.00" fill="#000000">src/filters/fil_set.h</text>
</a>
</g>
</g>
<!-- Node21&#45;&gt;Node28 -->
<g id="edge7" class="edge">
<title>Node21&#45;&gt;Node28</title>
<path fill="none" stroke="#191970" d="M436.292,-249.9007C446.285,-238.7268 458.9763,-224.5356 467.2851,-215.2449"/>
<polygon fill="#191970" stroke="#191970" points="433.6511,-247.6034 429.5938,-257.3906 438.8689,-252.2698 433.6511,-247.6034"/>
</g>
<!-- Node32 -->
<g id="node12" class="node">
<title>Node32</title>
<g id="a_node12"><a xlink:href="filter_8cpp.html" target="_top" xlink:title="This file has an implementation of Filter class, which is a subclass of Updater class. ">
<polygon fill="#ffffff" stroke="#000000" points="542,-196 542,-215 640,-215 640,-196 542,-196"/>
<text text-anchor="middle" x="591" y="-203" font-family="Helvetica,sans-Serif" font-size="10.00" fill="#000000">src/filters/filter.cpp</text>
</a>
</g>
</g>
<!-- Node21&#45;&gt;Node32 -->
<g id="edge12" class="edge">
<title>Node21&#45;&gt;Node32</title>
<path fill="none" stroke="#191970" d="M457.0721,-253.9504C489.2997,-242.2916 535.7564,-225.4852 564.624,-215.0419"/>
<polygon fill="#191970" stroke="#191970" points="455.7754,-250.6974 447.5625,-257.3906 458.1568,-257.2799 455.7754,-250.6974"/>
</g>
<!-- Node33 -->
<g id="node13" class="node">
<title>Node33</title>
<g id="a_node13"><a xlink:href="py__filter_8h.html" target="_top" xlink:title="This file is for binding Filter class to Python. ">
<polygon fill="#ffffff" stroke="#000000" points="321.5,-190.5 321.5,-220.5 410.5,-220.5 410.5,-190.5 321.5,-190.5"/>
<text text-anchor="start" x="329.5" y="-208.5" font-family="Helvetica,sans-Serif" font-size="10.00" fill="#000000">src/pybind/filters</text>
<text text-anchor="middle" x="366" y="-197.5" font-family="Helvetica,sans-Serif" font-size="10.00" fill="#000000">/py_filter.h</text>
</a>
</g>
</g>
<!-- Node21&#45;&gt;Node33 -->
<g id="edge13" class="edge">
<title>Node21&#45;&gt;Node33</title>
<path fill="none" stroke="#191970" d="M405.7354,-249.9314C397.4905,-240.7122 387.4027,-229.4321 379.4545,-220.5446"/>
<polygon fill="#191970" stroke="#191970" points="403.1311,-252.2698 412.4063,-257.3906 408.3489,-247.6034 403.1311,-252.2698"/>
</g>
<!-- Node23 -->
<g id="node3" class="node">
<title>Node23</title>
<g id="a_node3"><a xlink:href="fil__comparison_8cpp.html" target="_top" xlink:title="This file has an implementation of FilComparison class, which is a subclass of Filter class...">
<polygon fill="#ffffff" stroke="#000000" points="0,-129 0,-148 142,-148 142,-129 0,-129"/>
<text text-anchor="middle" x="71" y="-136" font-family="Helvetica,sans-Serif" font-size="10.00" fill="#000000">src/filters/fil_comparison.cpp</text>
</a>
</g>
</g>
<!-- Node22&#45;&gt;Node23 -->
<g id="edge2" class="edge">
<title>Node22&#45;&gt;Node23</title>
<path fill="none" stroke="#191970" d="M184.2735,-191.5722C156.4917,-178.5555 115.7505,-159.467 91.4504,-148.0817"/>
<polygon fill="#191970" stroke="#191970" points="182.9713,-194.8271 193.5116,-195.9005 185.9412,-188.4884 182.9713,-194.8271"/>
</g>
<!-- Node24 -->
<g id="node4" class="node">
<title>Node24</title>
<g id="a_node4"><a xlink:href="py__fil__comparison_8h.html" target="_top" xlink:title="This file is for binding FilComparison class to Python. ">
<polygon fill="#ffffff" stroke="#000000" points="160.5,-123.5 160.5,-153.5 267.5,-153.5 267.5,-123.5 160.5,-123.5"/>
<text text-anchor="start" x="168.5" y="-141.5" font-family="Helvetica,sans-Serif" font-size="10.00" fill="#000000">src/pybind/filters</text>
<text text-anchor="middle" x="214" y="-130.5" font-family="Helvetica,sans-Serif" font-size="10.00" fill="#000000">/py_fil_comparison.h</text>
</a>
</g>
</g>
<!-- Node22&#45;&gt;Node24 -->
<g id="edge3" class="edge">
<title>Node22&#45;&gt;Node24</title>
<path fill="none" stroke="#191970" d="M214,-185.7758C214,-175.4641 214,-163.0437 214,-153.5218"/>
<polygon fill="#191970" stroke="#191970" points="210.5001,-185.9005 214,-195.9005 217.5001,-185.9006 210.5001,-185.9005"/>
</g>
<!-- Node25 -->
<g id="node5" class="node">
<title>Node25</title>
<g id="a_node5"><a xlink:href="pybind_8h.html" target="_top" xlink:title="This file includes all the header files containing definitions of functions to bind C++ and Python...">
<polygon fill="#ffffff" stroke="#000000" points="276,-62 276,-81 346,-81 346,-62 276,-62"/>
<text text-anchor="middle" x="311" y="-69" font-family="Helvetica,sans-Serif" font-size="10.00" fill="#000000">src/pybind.h</text>
</a>
</g>
</g>
<!-- Node24&#45;&gt;Node25 -->
<g id="edge4" class="edge">
<title>Node24&#45;&gt;Node25</title>
<path fill="none" stroke="#191970" d="M244.3373,-117.5454C262.0172,-105.3335 283.4608,-90.5219 297.1667,-81.055"/>
<polygon fill="#191970" stroke="#191970" points="242.2497,-114.7335 236.0108,-123.2967 246.228,-120.4932 242.2497,-114.7335"/>
</g>
<!-- Node27 -->
<g id="node7" class="node">
<title>Node27</title>
<g id="a_node7"><a xlink:href="py__fil__comparison_8cpp.html" target="_top" xlink:title="This file is for binding FilComparison class to Python. ">
<polygon fill="#ffffff" stroke="#000000" points="140.5,-56.5 140.5,-86.5 257.5,-86.5 257.5,-56.5 140.5,-56.5"/>
<text text-anchor="start" x="148.5" y="-74.5" font-family="Helvetica,sans-Serif" font-size="10.00" fill="#000000">src/pybind/filters</text>
<text text-anchor="middle" x="199" y="-63.5" font-family="Helvetica,sans-Serif" font-size="10.00" fill="#000000">/py_fil_comparison.cpp</text>
</a>
</g>
</g>
<!-- Node24&#45;&gt;Node27 -->
<g id="edge6" class="edge">
<title>Node24&#45;&gt;Node27</title>
<path fill="none" stroke="#191970" d="M208.3622,-113.3179C206.3526,-104.3414 204.1525,-94.5143 202.3903,-86.6432"/>
<polygon fill="#191970" stroke="#191970" points="204.996,-114.3029 210.5963,-123.2967 211.8269,-112.7735 204.996,-114.3029"/>
</g>
<!-- Node26 -->
<g id="node6" class="node">
<title>Node26</title>
<g id="a_node6"><a xlink:href="ppap4lmp_8cpp.html" target="_top" xlink:title="This file has no implementation, only includes a header file to bind C++ and Python. ">
<polygon fill="#ffffff" stroke="#000000" points="264,-.5 264,-19.5 358,-19.5 358,-.5 264,-.5"/>
<text text-anchor="middle" x="311" y="-7.5" font-family="Helvetica,sans-Serif" font-size="10.00" fill="#000000">src/ppap4lmp.cpp</text>
</a>
</g>
</g>
<!-- Node25&#45;&gt;Node26 -->
<g id="edge5" class="edge">
<title>Node25&#45;&gt;Node26</title>
<path fill="none" stroke="#191970" d="M311,-51.7462C311,-41.0519 311,-28.314 311,-19.7449"/>
<polygon fill="#191970" stroke="#191970" points="307.5001,-51.8906 311,-61.8906 314.5001,-51.8907 307.5001,-51.8906"/>
</g>
<!-- Node29 -->
<g id="node9" class="node">
<title>Node29</title>
<g id="a_node9"><a xlink:href="fil__set_8cpp.html" target="_top" xlink:title="This file has an implementation of FilSet class, which is a subclass of Filter class. ">
<polygon fill="#ffffff" stroke="#000000" points="538.5,-129 538.5,-148 643.5,-148 643.5,-129 538.5,-129"/>
<text text-anchor="middle" x="591" y="-136" font-family="Helvetica,sans-Serif" font-size="10.00" fill="#000000">src/filters/fil_set.cpp</text>
</a>
</g>
</g>
<!-- Node28&#45;&gt;Node29 -->
<g id="edge8" class="edge">
<title>Node28&#45;&gt;Node29</title>
<path fill="none" stroke="#191970" d="M501.3841,-190.711C523.6724,-177.7256 555.4385,-159.2184 574.5539,-148.0817"/>
<polygon fill="#191970" stroke="#191970" points="499.3553,-187.8423 492.4767,-195.9005 502.8792,-193.8906 499.3553,-187.8423"/>
</g>
<!-- Node30 -->
<g id="node10" class="node">
<title>Node30</title>
<g id="a_node10"><a xlink:href="py__fil__set_8h.html" target="_top" xlink:title="This file is for binding FilSet class to Python. ">
<polygon fill="#ffffff" stroke="#000000" points="431.5,-123.5 431.5,-153.5 520.5,-153.5 520.5,-123.5 431.5,-123.5"/>
<text text-anchor="start" x="439.5" y="-141.5" font-family="Helvetica,sans-Serif" font-size="10.00" fill="#000000">src/pybind/filters</text>
<text text-anchor="middle" x="476" y="-130.5" font-family="Helvetica,sans-Serif" font-size="10.00" fill="#000000">/py_fil_set.h</text>
</a>
</g>
</g>
<!-- Node28&#45;&gt;Node30 -->
<g id="edge9" class="edge">
<title>Node28&#45;&gt;Node30</title>
<path fill="none" stroke="#191970" d="M476,-185.7758C476,-175.4641 476,-163.0437 476,-153.5218"/>
<polygon fill="#191970" stroke="#191970" points="472.5001,-185.9005 476,-195.9005 479.5001,-185.9006 472.5001,-185.9005"/>
</g>
<!-- Node30&#45;&gt;Node25 -->
<g id="edge10" class="edge">
<title>Node30&#45;&gt;Node25</title>
<path fill="none" stroke="#191970" d="M429.6692,-119.6869C398.74,-107.1278 359.3545,-91.1349 334.6514,-81.1039"/>
<polygon fill="#191970" stroke="#191970" points="428.3887,-122.9444 438.9708,-123.4639 431.0223,-116.4587 428.3887,-122.9444"/>
</g>
<!-- Node31 -->
<g id="node11" class="node">
<title>Node31</title>
<g id="a_node11"><a xlink:href="py__fil__set_8cpp.html" target="_top" xlink:title="This file is for binding FilSet class to Python. ">
<polygon fill="#ffffff" stroke="#000000" points="431.5,-56.5 431.5,-86.5 520.5,-86.5 520.5,-56.5 431.5,-56.5"/>
<text text-anchor="start" x="439.5" y="-74.5" font-family="Helvetica,sans-Serif" font-size="10.00" fill="#000000">src/pybind/filters</text>
<text text-anchor="middle" x="476" y="-63.5" font-family="Helvetica,sans-Serif" font-size="10.00" fill="#000000">/py_fil_set.cpp</text>
</a>
</g>
</g>
<!-- Node30&#45;&gt;Node31 -->
<g id="edge11" class="edge">
<title>Node30&#45;&gt;Node31</title>
<path fill="none" stroke="#191970" d="M476,-113.0249C476,-104.128 476,-94.4287 476,-86.6432"/>
<polygon fill="#191970" stroke="#191970" points="472.5001,-113.2966 476,-123.2967 479.5001,-113.2967 472.5001,-113.2966"/>
</g>
<!-- Node33&#45;&gt;Node24 -->
<g id="edge15" class="edge">
<title>Node33&#45;&gt;Node24</title>
<path fill="none" stroke="#191970" d="M322.4718,-186.3132C298.9083,-175.9267 270.216,-163.2794 248.2605,-153.6017"/>
<polygon fill="#191970" stroke="#191970" points="321.326,-189.6331 331.8882,-190.4639 324.1495,-183.2277 321.326,-189.6331"/>
</g>
<!-- Node33&#45;&gt;Node25 -->
<g id="edge14" class="edge">
<title>Node33&#45;&gt;Node25</title>
<path fill="none" stroke="#191970" d="M338.0657,-183.6885C329.4524,-175.3857 320.9418,-165.1988 316,-154 305.225,-129.5822 307.4679,-97.0953 309.5002,-81.1548"/>
<polygon fill="#191970" stroke="#191970" points="335.8094,-186.367 345.5742,-190.478 340.5044,-181.1749 335.8094,-186.367"/>
</g>
<!-- Node33&#45;&gt;Node30 -->
<g id="edge16" class="edge">
<title>Node33&#45;&gt;Node30</title>
<path fill="none" stroke="#191970" d="M399.5318,-185.0761C416.1117,-174.9774 435.7788,-162.9983 451.0157,-153.7177"/>
<polygon fill="#191970" stroke="#191970" points="397.406,-182.2727 390.6861,-190.4639 401.0473,-188.2511 397.406,-182.2727"/>
</g>
<!-- Node34 -->
<g id="node14" class="node">
<title>Node34</title>
<g id="a_node14"><a xlink:href="py__filter_8cpp.html" target="_top" xlink:title="This file is for binding Filter class to Python. ">
<polygon fill="#ffffff" stroke="#000000" points="324.5,-123.5 324.5,-153.5 413.5,-153.5 413.5,-123.5 324.5,-123.5"/>
<text text-anchor="start" x="332.5" y="-141.5" font-family="Helvetica,sans-Serif" font-size="10.00" fill="#000000">src/pybind/filters</text>
<text text-anchor="middle" x="369" y="-130.5" font-family="Helvetica,sans-Serif" font-size="10.00" fill="#000000">/py_filter.cpp</text>
</a>
</g>
</g>
<!-- Node33&#45;&gt;Node34 -->
<g id="edge17" class="edge">
<title>Node33&#45;&gt;Node34</title>
<path fill="none" stroke="#191970" d="M367.1407,-180.0249C367.539,-171.128 367.9733,-161.4287 368.3219,-153.6432"/>
<polygon fill="#191970" stroke="#191970" points="363.6317,-180.1501 366.6807,-190.2967 370.6246,-180.4633 363.6317,-180.1501"/>
</g>
</g>
</svg>
