<?xml version="1.0" encoding="UTF-8" standalone="no"?>
<!DOCTYPE svg PUBLIC "-//W3C//DTD SVG 1.1//EN"
 "http://www.w3.org/Graphics/SVG/1.1/DTD/svg11.dtd">
<!-- Generated by graphviz version 2.40.1 (20161225.0304)
 -->
<!-- Title: src/filters/filter.h Pages: 1 -->
<!--zoomable 274 -->
<svg id="main" version="1.1" xmlns="http://www.w3.org/2000/svg" xmlns:xlink="http://www.w3.org/1999/xlink" xml:space="preserve" onload="init(evt)">
<style type="text/css"><![CDATA[
.edge:hover path { stroke: red; }
.edge:hover polygon { stroke: red; fill: red; }
]]></style>
<script type="text/javascript"><![CDATA[
var edges = document.getElementsByTagName('g');
if (edges && edges.length) {
  for (var i=0;i<edges.length;i++) {
    if (edges[i].id.substr(0,4)=='edge') {
      edges[i].setAttribute('class','edge');
    }
  }
}
]]></script>
        <defs>
                <circle id="rim" cx="0" cy="0" r="7"/>
                <circle id="rim2" cx="0" cy="0" r="3.5"/>
                <g id="zoomPlus">
                        <use xlink:href="#rim" fill="#404040">
                                <set attributeName="fill" to="#808080" begin="zoomplus.mouseover" end="zoomplus.mouseout"/>
                        </use>
                        <path d="M-4,0h8M0,-4v8" fill="none" stroke="white" stroke-width="1.5" pointer-events="none"/>
                </g>
                <g id="zoomMin">
                        <use xlink:href="#rim" fill="#404040">
                                <set attributeName="fill" to="#808080" begin="zoomminus.mouseover" end="zoomminus.mouseout"/>
                        </use>
                        <path d="M-4,0h8" fill="none" stroke="white" stroke-width="1.5" pointer-events="none"/>
                </g>
                <g id="dirArrow">
                        <path fill="none" stroke="white" stroke-width="1.5" d="M0,-3.0v7 M-2.5,-0.5L0,-3.0L2.5,-0.5"/>
                </g>
               <g id="resetDef">
                       <use xlink:href="#rim2" fill="#404040">
                               <set attributeName="fill" to="#808080" begin="reset.mouseover" end="reset.mouseout"/>
                       </use>
               </g>
        </defs>

<script type="text/javascript">
var viewWidth = 521;
var viewHeight = 274;
var sectionId = 'dynsection-1';
</script>
<script xlink:href="svgpan.js"/>
<svg id="graph" class="graph">
<g id="viewport">
<title>src/filters/filter.h</title>
<polygon fill="#ffffff" stroke="transparent" points="-4,4 -4,-270 517,-270 517,4 -4,4"/>
<!-- Node21 -->
<g id="node1" class="node">
<title>Node21</title>
<polygon fill="#bfbfbf" stroke="#000000" points="215,-246.5 215,-265.5 302,-265.5 302,-246.5 215,-246.5"/>
<text text-anchor="middle" x="258.5" y="-253.5" font-family="Helvetica,sans-Serif" font-size="10.00" fill="#000000">src/filters/filter.h</text>
</g>
<!-- Node22 -->
<g id="node2" class="node">
<title>Node22</title>
<g id="a_node2"><a xlink:href="fil__comparison_8h_source.html" target="_top" xlink:title="src/filters/fil_comparison.h">
<polygon fill="#ffffff" stroke="#000000" points="382,-185 382,-204 513,-204 513,-185 382,-185"/>
<text text-anchor="middle" x="447.5" y="-192" font-family="Helvetica,sans-Serif" font-size="10.00" fill="#000000">src/filters/fil_comparison.h</text>
</a>
</g>
</g>
<!-- Node21&#45;&gt;Node22 -->
<g id="edge1" class="edge">
<title>Node21&#45;&gt;Node22</title>
<path fill="none" stroke="#191970" d="M297.6806,-243.2507C333.5413,-231.5818 385.8054,-214.5752 418.1761,-204.0419"/>
<polygon fill="#191970" stroke="#191970" points="296.4575,-239.9681 288.0313,-246.3906 298.6235,-246.6245 296.4575,-239.9681"/>
</g>
<!-- Node26 -->
<g id="node6" class="node">
<title>Node26</title>
<g id="a_node6"><a xlink:href="fil__set_8h.html" target="_top" xlink:title="This file has a definition of the FilSet class, which is a subclass of the Filter class...">
<polygon fill="#ffffff" stroke="#000000" points="46,-185 46,-204 141,-204 141,-185 46,-185"/>
<text text-anchor="middle" x="93.5" y="-192" font-family="Helvetica,sans-Serif" font-size="10.00" fill="#000000">src/filters/fil_set.h</text>
</a>
</g>
</g>
<!-- Node21&#45;&gt;Node26 -->
<g id="edge5" class="edge">
<title>Node21&#45;&gt;Node26</title>
<path fill="none" stroke="#191970" d="M223.0836,-242.7993C191.8207,-231.1468 146.998,-214.4402 119.1002,-204.0419"/>
<polygon fill="#191970" stroke="#191970" points="222.1261,-246.1776 232.7188,-246.3906 224.5709,-239.6184 222.1261,-246.1776"/>
</g>
<!-- Node29 -->
<g id="node9" class="node">
<title>Node29</title>
<g id="a_node9"><a xlink:href="filter_8cpp.html" target="_top" xlink:title="This file has an implementation of the Filter class, which is a subclass of the Updater class...">
<polygon fill="#ffffff" stroke="#000000" points="265.5,-185 265.5,-204 363.5,-204 363.5,-185 265.5,-185"/>
<text text-anchor="middle" x="314.5" y="-192" font-family="Helvetica,sans-Serif" font-size="10.00" fill="#000000">src/filters/filter.cpp</text>
</a>
</g>
</g>
<!-- Node21&#45;&gt;Node29 -->
<g id="edge9" class="edge">
<title>Node21&#45;&gt;Node29</title>
<path fill="none" stroke="#191970" d="M274.0701,-238.9007C284.2447,-227.7268 297.1668,-213.5356 305.6266,-204.2449"/>
<polygon fill="#191970" stroke="#191970" points="271.3948,-236.6402 267.25,-246.3906 276.5706,-241.3531 271.3948,-236.6402"/>
</g>
<!-- Node30 -->
<g id="node10" class="node">
<title>Node30</title>
<g id="a_node10"><a xlink:href="py__filter_8h_source.html" target="_top" xlink:title="src/pybind/filters\l/py_filter.h">
<polygon fill="#ffffff" stroke="#000000" points="159,-179.5 159,-209.5 248,-209.5 248,-179.5 159,-179.5"/>
<text text-anchor="start" x="167" y="-197.5" font-family="Helvetica,sans-Serif" font-size="10.00" fill="#000000">src/pybind/filters</text>
<text text-anchor="middle" x="203.5" y="-186.5" font-family="Helvetica,sans-Serif" font-size="10.00" fill="#000000">/py_filter.h</text>
</a>
</g>
</g>
<!-- Node21&#45;&gt;Node30 -->
<g id="edge10" class="edge">
<title>Node21&#45;&gt;Node30</title>
<path fill="none" stroke="#191970" d="M243.2354,-238.9314C234.9905,-229.7122 224.9027,-218.4321 216.9545,-209.5446"/>
<polygon fill="#191970" stroke="#191970" points="240.6311,-241.2698 249.9063,-246.3906 245.8489,-236.6034 240.6311,-241.2698"/>
</g>
<!-- Node23 -->
<g id="node3" class="node">
<title>Node23</title>
<g id="a_node3"><a xlink:href="py__fil__comparison_8h_source.html" target="_top" xlink:title="src/pybind/filters\l/py_fil_comparison.h">
<polygon fill="#ffffff" stroke="#000000" points="269,-112.5 269,-142.5 376,-142.5 376,-112.5 269,-112.5"/>
<text text-anchor="start" x="277" y="-130.5" font-family="Helvetica,sans-Serif" font-size="10.00" fill="#000000">src/pybind/filters</text>
<text text-anchor="middle" x="322.5" y="-119.5" font-family="Helvetica,sans-Serif" font-size="10.00" fill="#000000">/py_fil_comparison.h</text>
</a>
</g>
</g>
<!-- Node22&#45;&gt;Node23 -->
<g id="edge2" class="edge">
<title>Node22&#45;&gt;Node23</title>
<path fill="none" stroke="#191970" d="M420.6976,-180.1339C400.0213,-169.0514 371.5032,-153.7657 350.5257,-142.5218"/>
<polygon fill="#191970" stroke="#191970" points="419.1233,-183.2611 429.5905,-184.9005 422.4303,-177.0915 419.1233,-183.2611"/>
</g>
<!-- Node24 -->
<g id="node4" class="node">
<title>Node24</title>
<g id="a_node4"><a xlink:href="pybind_8h.html" target="_top" xlink:title="This file includes all the header files containing definitions of functions to bind C++ and Python...">
<polygon fill="#ffffff" stroke="#000000" points="205.5,-56.5 205.5,-75.5 275.5,-75.5 275.5,-56.5 205.5,-56.5"/>
<text text-anchor="middle" x="240.5" y="-63.5" font-family="Helvetica,sans-Serif" font-size="10.00" fill="#000000">src/pybind.h</text>
</a>
</g>
</g>
<!-- Node23&#45;&gt;Node24 -->
<g id="edge3" class="edge">
<title>Node23&#45;&gt;Node24</title>
<path fill="none" stroke="#191970" d="M294.0119,-106.1339C280.2821,-95.8366 264.482,-83.9865 253.6292,-75.8469"/>
<polygon fill="#191970" stroke="#191970" points="292.1303,-109.0977 302.2303,-112.2977 296.3303,-103.4977 292.1303,-109.0977"/>
</g>
<!-- Node25 -->
<g id="node5" class="node">
<title>Node25</title>
<g id="a_node5"><a xlink:href="ppap4lmp_8cpp.html" target="_top" xlink:title="This file has no implementation, only includes a header file to bind C++ and Python. ">
<polygon fill="#ffffff" stroke="#000000" points="193.5,-.5 193.5,-19.5 287.5,-19.5 287.5,-.5 193.5,-.5"/>
<text text-anchor="middle" x="240.5" y="-7.5" font-family="Helvetica,sans-Serif" font-size="10.00" fill="#000000">src/ppap4lmp.cpp</text>
</a>
</g>
</g>
<!-- Node24&#45;&gt;Node25 -->
<g id="edge4" class="edge">
<title>Node24&#45;&gt;Node25</title>
<path fill="none" stroke="#191970" d="M240.5,-46.1575C240.5,-37.155 240.5,-26.9199 240.5,-19.6427"/>
<polygon fill="#191970" stroke="#191970" points="237.0001,-46.2455 240.5,-56.2455 244.0001,-46.2456 237.0001,-46.2455"/>
</g>
<!-- Node27 -->
<g id="node7" class="node">
<title>Node27</title>
<g id="a_node7"><a xlink:href="fil__set_8cpp.html" target="_top" xlink:title="This file has an implementation of the FilSet class, which is a subclass of the Filter class...">
<polygon fill="#ffffff" stroke="#000000" points="0,-118 0,-137 105,-137 105,-118 0,-118"/>
<text text-anchor="middle" x="52.5" y="-125" font-family="Helvetica,sans-Serif" font-size="10.00" fill="#000000">src/filters/fil_set.cpp</text>
</a>
</g>
</g>
<!-- Node26&#45;&gt;Node27 -->
<g id="edge6" class="edge">
<title>Node26&#45;&gt;Node27</title>
<path fill="none" stroke="#191970" d="M82.2464,-176.1099C74.5173,-163.4795 64.5699,-147.2241 58.3634,-137.0817"/>
<polygon fill="#191970" stroke="#191970" points="79.4206,-178.1977 87.6257,-184.9005 85.3914,-174.544 79.4206,-178.1977"/>
</g>
<!-- Node28 -->
<g id="node8" class="node">
<title>Node28</title>
<g id="a_node8"><a xlink:href="py__fil__set_8h_source.html" target="_top" xlink:title="src/pybind/filters\l/py_fil_set.h">
<polygon fill="#ffffff" stroke="#000000" points="123,-112.5 123,-142.5 212,-142.5 212,-112.5 123,-112.5"/>
<text text-anchor="start" x="131" y="-130.5" font-family="Helvetica,sans-Serif" font-size="10.00" fill="#000000">src/pybind/filters</text>
<text text-anchor="middle" x="167.5" y="-119.5" font-family="Helvetica,sans-Serif" font-size="10.00" fill="#000000">/py_fil_set.h</text>
</a>
</g>
</g>
<!-- Node26&#45;&gt;Node28 -->
<g id="edge7" class="edge">
<title>Node26&#45;&gt;Node28</title>
<path fill="none" stroke="#191970" d="M111.7359,-177.9892C123.719,-167.1395 139.2733,-153.0566 150.9088,-142.5218"/>
<polygon fill="#191970" stroke="#191970" points="109.1663,-175.5942 104.1024,-184.9005 113.8645,-180.7833 109.1663,-175.5942"/>
</g>
<!-- Node28&#45;&gt;Node24 -->
<g id="edge8" class="edge">
<title>Node28&#45;&gt;Node24</title>
<path fill="none" stroke="#191970" d="M193.2078,-105.8421C205.3492,-95.6133 219.2413,-83.9097 228.8118,-75.8469"/>
<polygon fill="#191970" stroke="#191970" points="190.9377,-103.178 185.5449,-112.2977 195.4478,-108.5315 190.9377,-103.178"/>
</g>
<!-- Node30&#45;&gt;Node23 -->
<g id="edge12" class="edge">
<title>Node30&#45;&gt;Node23</title>
<path fill="none" stroke="#191970" d="M239.278,-174.3561C257.3173,-164.1995 278.8354,-152.0843 295.4715,-142.7177"/>
<polygon fill="#191970" stroke="#191970" points="237.2026,-171.5079 230.2059,-179.4639 240.6369,-177.6076 237.2026,-171.5079"/>
</g>
<!-- Node30&#45;&gt;Node24 -->
<g id="edge11" class="edge">
<title>Node30&#45;&gt;Node24</title>
<path fill="none" stroke="#191970" d="M212.068,-169.6354C214.8732,-161.2151 217.9275,-151.7326 220.5,-143 227.6032,-118.8873 234.7152,-90.1416 238.2333,-75.5377"/>
<polygon fill="#191970" stroke="#191970" points="208.7021,-168.6636 208.819,-179.2578 215.3342,-170.903 208.7021,-168.6636"/>
</g>
<!-- Node30&#45;&gt;Node28 -->
<g id="edge13" class="edge">
<title>Node30&#45;&gt;Node28</title>
<path fill="none" stroke="#191970" d="M190.5957,-170.4837C185.6073,-161.1996 180.0498,-150.8565 175.6366,-142.6432"/>
<polygon fill="#191970" stroke="#191970" points="187.5147,-172.1443 195.331,-179.2967 193.681,-168.8311 187.5147,-172.1443"/>
</g>
</g>
</svg>
        <g id="navigator" transform="translate(0 0)" fill="#404254">
                <rect fill="#f2f5e9" fill-opacity="0.5" stroke="#606060" stroke-width=".5" x="0" y="0" width="60" height="60"/>
                <use id="zoomplus" xlink:href="#zoomPlus" x="17" y="9" onmousedown="handleZoom(evt,'in')"/>
                <use id="zoomminus" xlink:href="#zoomMin" x="42" y="9" onmousedown="handleZoom(evt,'out')"/>
                <use id="reset" xlink:href="#resetDef" x="30" y="36" onmousedown="handleReset()"/>
                <g id="arrowUp" xlink:href="#dirArrow" transform="translate(30 24)" onmousedown="handlePan(0,-1)">
                  <use xlink:href="#rim" fill="#404040">
                        <set attributeName="fill" to="#808080" begin="arrowUp.mouseover" end="arrowUp.mouseout"/>
                  </use>
                  <path fill="none" stroke="white" stroke-width="1.5" d="M0,-3.0v7 M-2.5,-0.5L0,-3.0L2.5,-0.5"/>
                </g>
                <g id="arrowRight" xlink:href="#dirArrow" transform="rotate(90) translate(36 -43)" onmousedown="handlePan(1,0)">
                  <use xlink:href="#rim" fill="#404040">
                        <set attributeName="fill" to="#808080" begin="arrowRight.mouseover" end="arrowRight.mouseout"/>
                  </use>
                  <path fill="none" stroke="white" stroke-width="1.5" d="M0,-3.0v7 M-2.5,-0.5L0,-3.0L2.5,-0.5"/>
                </g>
                <g id="arrowDown" xlink:href="#dirArrow" transform="rotate(180) translate(-30 -48)" onmousedown="handlePan(0,1)">
                  <use xlink:href="#rim" fill="#404040">
                        <set attributeName="fill" to="#808080" begin="arrowDown.mouseover" end="arrowDown.mouseout"/>
                  </use>
                  <path fill="none" stroke="white" stroke-width="1.5" d="M0,-3.0v7 M-2.5,-0.5L0,-3.0L2.5,-0.5"/>
                </g>
                <g id="arrowLeft" xlink:href="#dirArrow" transform="rotate(270) translate(-36 17)" onmousedown="handlePan(-1,0)">
                  <use xlink:href="#rim" fill="#404040">
                        <set attributeName="fill" to="#808080" begin="arrowLeft.mouseover" end="arrowLeft.mouseout"/>
                  </use>
                  <path fill="none" stroke="white" stroke-width="1.5" d="M0,-3.0v7 M-2.5,-0.5L0,-3.0L2.5,-0.5"/>
                </g>
        </g>
        <svg viewBox="0 0 15 15" width="100%" height="30px" preserveAspectRatio="xMaxYMin meet">
         <g id="arrow_out" transform="scale(0.3 0.3)">
          <a xlink:href="filter_8h__dep__incl_org.svg" target="_base">
           <rect id="button" ry="5" rx="5" y="6" x="6" height="38" width="38"
                fill="#f2f5e9" fill-opacity="0.5" stroke="#606060" stroke-width="1.0"/>
           <path id="arrow"
             d="M 11.500037,31.436501 C 11.940474,20.09759 22.043105,11.32322 32.158766,21.979434 L 37.068811,17.246167 C 37.068811,17.246167 37.088388,32 37.088388,32 L 22.160133,31.978069 C 22.160133,31.978069 26.997745,27.140456 26.997745,27.140456 C 18.528582,18.264221 13.291696,25.230495 11.500037,31.436501 z"
             style="fill:#404040;"/>
          </a>
         </g>
        </svg>
</svg>
