<?xml version="1.0" encoding="UTF-8" standalone="no"?>
<!DOCTYPE svg PUBLIC "-//W3C//DTD SVG 1.1//EN"
 "http://www.w3.org/Graphics/SVG/1.1/DTD/svg11.dtd">
<!-- Generated by graphviz version 2.40.1 (20161225.0304)
 -->
<!-- Title: src/core/gen_list.cpp Pages: 1 -->
<svg width="637pt" height="308pt"
 viewBox="0.00 0.00 637.00 308.00" xmlns="http://www.w3.org/2000/svg" xmlns:xlink="http://www.w3.org/1999/xlink">
<g id="graph0" class="graph" transform="scale(1 1) rotate(0) translate(4 304)">
<title>src/core/gen_list.cpp</title>
<polygon fill="#ffffff" stroke="transparent" points="-4,4 -4,-304 633,-304 633,4 -4,4"/>
<!-- Node0 -->
<g id="node1" class="node">
<title>Node0</title>
<polygon fill="#bfbfbf" stroke="#000000" points="249.5,-280.5 249.5,-299.5 356.5,-299.5 356.5,-280.5 249.5,-280.5"/>
<text text-anchor="middle" x="303" y="-287.5" font-family="Helvetica,sans-Serif" font-size="10.00" fill="#000000">src/core/gen_list.cpp</text>
</g>
<!-- Node1 -->
<g id="node2" class="node">
<title>Node1</title>
<g id="a_node2"><a xlink:href="gen__list_8h.html" target="_top" xlink:title="This file has a definition of GenList class. ">
<polygon fill="#ffffff" stroke="#000000" points="244.5,-224.5 244.5,-243.5 303.5,-243.5 303.5,-224.5 244.5,-224.5"/>
<text text-anchor="middle" x="274" y="-231.5" font-family="Helvetica,sans-Serif" font-size="10.00" fill="#000000">gen_list.h</text>
</a>
</g>
</g>
<!-- Node0&#45;&gt;Node1 -->
<g id="edge1" class="edge">
<title>Node0&#45;&gt;Node1</title>
<path fill="none" stroke="#191970" d="M297.9486,-280.2455C293.9981,-272.617 288.3903,-261.7881 283.5942,-252.5267"/>
<polygon fill="#191970" stroke="#191970" points="286.7001,-250.9131 278.9935,-243.6427 280.4841,-254.1321 286.7001,-250.9131"/>
</g>
<!-- Node17 -->
<g id="node18" class="node">
<title>Node17</title>
<g id="a_node18"><a xlink:href="runtime__error_8h.html" target="_top" xlink:title="This file has a definition of utils::runtime_error. ">
<polygon fill="#ffffff" stroke="#000000" points="314,-168.5 314,-187.5 426,-187.5 426,-168.5 314,-168.5"/>
<text text-anchor="middle" x="370" y="-175.5" font-family="Helvetica,sans-Serif" font-size="10.00" fill="#000000">../utils/runtime_error.h</text>
</a>
</g>
</g>
<!-- Node0&#45;&gt;Node17 -->
<g id="edge17" class="edge">
<title>Node0&#45;&gt;Node17</title>
<path fill="none" stroke="#191970" d="M308.7124,-280.4509C319.8377,-261.8533 344.5808,-220.4919 358.995,-196.3964"/>
<polygon fill="#191970" stroke="#191970" points="362.1719,-197.9034 364.3021,-187.5249 356.1648,-194.3098 362.1719,-197.9034"/>
</g>
<!-- Node2 -->
<g id="node3" class="node">
<title>Node2</title>
<g id="a_node3"><a xlink:href="element_8h.html" target="_top" xlink:title="This file has a definition of Element class, which is one of the cores of this program. ">
<polygon fill="#ffffff" stroke="#000000" points="205.5,-168.5 205.5,-187.5 286.5,-187.5 286.5,-168.5 205.5,-168.5"/>
<text text-anchor="middle" x="246" y="-175.5" font-family="Helvetica,sans-Serif" font-size="10.00" fill="#000000">core/element.h</text>
</a>
</g>
</g>
<!-- Node1&#45;&gt;Node2 -->
<g id="edge2" class="edge">
<title>Node1&#45;&gt;Node2</title>
<path fill="none" stroke="#191970" d="M269.1228,-224.2455C265.3487,-216.6973 260.0079,-206.0158 255.4099,-196.8197"/>
<polygon fill="#191970" stroke="#191970" points="258.424,-195.0217 250.8213,-187.6427 252.163,-198.1522 258.424,-195.0217"/>
</g>
<!-- Node3 -->
<g id="node4" class="node">
<title>Node3</title>
<polygon fill="#ffffff" stroke="#bfbfbf" points="308,-112.5 308,-131.5 352,-131.5 352,-112.5 308,-112.5"/>
<text text-anchor="middle" x="330" y="-119.5" font-family="Helvetica,sans-Serif" font-size="10.00" fill="#000000">omp.h</text>
</g>
<!-- Node2&#45;&gt;Node3 -->
<g id="edge3" class="edge">
<title>Node2&#45;&gt;Node3</title>
<path fill="none" stroke="#191970" d="M260.6317,-168.2455C273.3994,-159.7337 292.1438,-147.2375 306.9299,-137.3801"/>
<polygon fill="#191970" stroke="#191970" points="309.1569,-140.1019 315.536,-131.6427 305.274,-134.2775 309.1569,-140.1019"/>
</g>
<!-- Node4 -->
<g id="node5" class="node">
<title>Node4</title>
<g id="a_node5"><a xlink:href="eigen_8h.html" target="_top" xlink:title="This file includes Eigen and defines some aliases for the Eigen&#45;Vector, Matrix and Array...">
<polygon fill="#ffffff" stroke="#000000" points="9.5,-112.5 9.5,-131.5 80.5,-131.5 80.5,-112.5 9.5,-112.5"/>
<text text-anchor="middle" x="45" y="-119.5" font-family="Helvetica,sans-Serif" font-size="10.00" fill="#000000">alias/eigen.h</text>
</a>
</g>
</g>
<!-- Node2&#45;&gt;Node4 -->
<g id="edge4" class="edge">
<title>Node2&#45;&gt;Node4</title>
<path fill="none" stroke="#191970" d="M211.4469,-168.3733C177.5896,-158.9404 125.854,-144.5265 89.0574,-134.2747"/>
<polygon fill="#191970" stroke="#191970" points="89.6747,-130.8135 79.1022,-131.5011 87.796,-137.5566 89.6747,-130.8135"/>
</g>
<!-- Node6 -->
<g id="node7" class="node">
<title>Node6</title>
<g id="a_node7"><a xlink:href="alias_2pybind_8h.html" target="_top" xlink:title="This file includes pybind11 and defines an alias for the namespace pybind11. ">
<polygon fill="#ffffff" stroke="#000000" points="105.5,-112.5 105.5,-131.5 182.5,-131.5 182.5,-112.5 105.5,-112.5"/>
<text text-anchor="middle" x="144" y="-119.5" font-family="Helvetica,sans-Serif" font-size="10.00" fill="#000000">alias/pybind.h</text>
</a>
</g>
</g>
<!-- Node2&#45;&gt;Node6 -->
<g id="edge6" class="edge">
<title>Node2&#45;&gt;Node6</title>
<path fill="none" stroke="#191970" d="M228.233,-168.2455C212.2905,-159.4928 188.6741,-146.527 170.5011,-136.5496"/>
<polygon fill="#191970" stroke="#191970" points="172.0137,-133.3873 161.5634,-131.6427 168.6448,-139.5233 172.0137,-133.3873"/>
</g>
<!-- Node8 -->
<g id="node9" class="node">
<title>Node8</title>
<g id="a_node9"><a xlink:href="generator_8h.html" target="_top" xlink:title="This file has a definition of Generator class, which is one of the cores of this program. ">
<polygon fill="#ffffff" stroke="#000000" points="202.5,-112.5 202.5,-131.5 289.5,-131.5 289.5,-112.5 202.5,-112.5"/>
<text text-anchor="middle" x="246" y="-119.5" font-family="Helvetica,sans-Serif" font-size="10.00" fill="#000000">core/generator.h</text>
</a>
</g>
</g>
<!-- Node2&#45;&gt;Node8 -->
<g id="edge8" class="edge">
<title>Node2&#45;&gt;Node8</title>
<path fill="none" stroke="#191970" d="M246,-168.2455C246,-160.9382 246,-150.6944 246,-141.7046"/>
<polygon fill="#191970" stroke="#191970" points="249.5001,-141.6426 246,-131.6427 242.5001,-141.6427 249.5001,-141.6426"/>
</g>
<!-- Node5 -->
<g id="node6" class="node">
<title>Node5</title>
<polygon fill="#ffffff" stroke="#bfbfbf" points="0,-56.5 0,-75.5 72,-75.5 72,-56.5 0,-56.5"/>
<text text-anchor="middle" x="36" y="-63.5" font-family="Helvetica,sans-Serif" font-size="10.00" fill="#000000">Eigen/Dense</text>
</g>
<!-- Node4&#45;&gt;Node5 -->
<g id="edge5" class="edge">
<title>Node4&#45;&gt;Node5</title>
<path fill="none" stroke="#191970" d="M43.4323,-112.2455C42.2579,-104.9382 40.6116,-94.6944 39.1668,-85.7046"/>
<polygon fill="#191970" stroke="#191970" points="42.5922,-84.9606 37.5497,-75.6427 35.6809,-86.0714 42.5922,-84.9606"/>
</g>
<!-- Node7 -->
<g id="node8" class="node">
<title>Node7</title>
<polygon fill="#ffffff" stroke="#bfbfbf" points="90,-56.5 90,-75.5 196,-75.5 196,-56.5 90,-56.5"/>
<text text-anchor="middle" x="143" y="-63.5" font-family="Helvetica,sans-Serif" font-size="10.00" fill="#000000">pybind11/pybind11.h</text>
</g>
<!-- Node6&#45;&gt;Node7 -->
<g id="edge7" class="edge">
<title>Node6&#45;&gt;Node7</title>
<path fill="none" stroke="#191970" d="M143.8258,-112.2455C143.6953,-104.9382 143.5124,-94.6944 143.3519,-85.7046"/>
<polygon fill="#191970" stroke="#191970" points="146.8503,-85.5786 143.1722,-75.6427 139.8514,-85.7036 146.8503,-85.5786"/>
</g>
<!-- Node9 -->
<g id="node10" class="node">
<title>Node9</title>
<g id="a_node10"><a xlink:href="std_8h.html" target="_top" xlink:title="This file includes a part of C++ Standard Template Library and defines aliases for them...">
<polygon fill="#ffffff" stroke="#000000" points="349,-56.5 349,-75.5 411,-75.5 411,-56.5 349,-56.5"/>
<text text-anchor="middle" x="380" y="-63.5" font-family="Helvetica,sans-Serif" font-size="10.00" fill="#000000">alias/std.h</text>
</a>
</g>
</g>
<!-- Node8&#45;&gt;Node9 -->
<g id="edge9" class="edge">
<title>Node8&#45;&gt;Node9</title>
<path fill="none" stroke="#191970" d="M269.0354,-112.3733C290.7388,-103.3032 323.4618,-89.6279 347.755,-79.4755"/>
<polygon fill="#191970" stroke="#191970" points="349.3881,-82.5865 357.2652,-75.5011 346.6889,-76.1278 349.3881,-82.5865"/>
</g>
<!-- Node15 -->
<g id="node16" class="node">
<title>Node15</title>
<g id="a_node16"><a xlink:href="json_8h.html" target="_top" xlink:title="This file includes nlohmann/json and defines an alias for a JSON class. ">
<polygon fill="#ffffff" stroke="#000000" points="214,-56.5 214,-75.5 280,-75.5 280,-56.5 214,-56.5"/>
<text text-anchor="middle" x="247" y="-63.5" font-family="Helvetica,sans-Serif" font-size="10.00" fill="#000000">alias/json.h</text>
</a>
</g>
</g>
<!-- Node8&#45;&gt;Node15 -->
<g id="edge15" class="edge">
<title>Node8&#45;&gt;Node15</title>
<path fill="none" stroke="#191970" d="M246.1742,-112.2455C246.3047,-104.9382 246.4876,-94.6944 246.6481,-85.7046"/>
<polygon fill="#191970" stroke="#191970" points="250.1486,-85.7036 246.8278,-75.6427 243.1497,-85.5786 250.1486,-85.7036"/>
</g>
<!-- Node10 -->
<g id="node11" class="node">
<title>Node10</title>
<polygon fill="#ffffff" stroke="#bfbfbf" points="577,-.5 577,-19.5 629,-19.5 629,-.5 577,-.5"/>
<text text-anchor="middle" x="603" y="-7.5" font-family="Helvetica,sans-Serif" font-size="10.00" fill="#000000">memory</text>
</g>
<!-- Node9&#45;&gt;Node10 -->
<g id="edge10" class="edge">
<title>Node9&#45;&gt;Node10</title>
<path fill="none" stroke="#191970" d="M411.0306,-58.7923C446.4823,-50.4735 506.4592,-36.1446 566.9478,-20.2136"/>
<polygon fill="#191970" stroke="#191970" points="567.8852,-23.5861 576.6566,-17.6437 566.0939,-16.8191 567.8852,-23.5861"/>
</g>
<!-- Node11 -->
<g id="node12" class="node">
<title>Node11</title>
<polygon fill="#ffffff" stroke="#bfbfbf" points="257.5,-.5 257.5,-19.5 298.5,-19.5 298.5,-.5 257.5,-.5"/>
<text text-anchor="middle" x="278" y="-7.5" font-family="Helvetica,sans-Serif" font-size="10.00" fill="#000000">string</text>
</g>
<!-- Node9&#45;&gt;Node11 -->
<g id="edge11" class="edge">
<title>Node9&#45;&gt;Node11</title>
<path fill="none" stroke="#191970" d="M362.233,-56.2455C346.2905,-47.4928 322.6741,-34.527 304.5011,-24.5496"/>
<polygon fill="#191970" stroke="#191970" points="306.0137,-21.3873 295.5634,-19.6427 302.6448,-27.5233 306.0137,-21.3873"/>
</g>
<!-- Node12 -->
<g id="node13" class="node">
<title>Node12</title>
<polygon fill="#ffffff" stroke="#bfbfbf" points="317,-.5 317,-19.5 361,-19.5 361,-.5 317,-.5"/>
<text text-anchor="middle" x="339" y="-7.5" font-family="Helvetica,sans-Serif" font-size="10.00" fill="#000000">vector</text>
</g>
<!-- Node9&#45;&gt;Node12 -->
<g id="edge12" class="edge">
<title>Node9&#45;&gt;Node12</title>
<path fill="none" stroke="#191970" d="M372.8583,-56.2455C367.1556,-48.4564 359.01,-37.3308 352.1375,-27.9439"/>
<polygon fill="#191970" stroke="#191970" points="354.7913,-25.6437 346.0598,-19.6427 349.1432,-29.7789 354.7913,-25.6437"/>
</g>
<!-- Node13 -->
<g id="node14" class="node">
<title>Node13</title>
<polygon fill="#ffffff" stroke="#bfbfbf" points="379.5,-.5 379.5,-19.5 462.5,-19.5 462.5,-.5 379.5,-.5"/>
<text text-anchor="middle" x="421" y="-7.5" font-family="Helvetica,sans-Serif" font-size="10.00" fill="#000000">unordered_map</text>
</g>
<!-- Node9&#45;&gt;Node13 -->
<g id="edge13" class="edge">
<title>Node9&#45;&gt;Node13</title>
<path fill="none" stroke="#191970" d="M387.1417,-56.2455C392.8444,-48.4564 400.99,-37.3308 407.8625,-27.9439"/>
<polygon fill="#191970" stroke="#191970" points="410.8568,-29.7789 413.9402,-19.6427 405.2087,-25.6437 410.8568,-29.7789"/>
</g>
<!-- Node14 -->
<g id="node15" class="node">
<title>Node14</title>
<polygon fill="#ffffff" stroke="#bfbfbf" points="481,-.5 481,-19.5 559,-19.5 559,-.5 481,-.5"/>
<text text-anchor="middle" x="520" y="-7.5" font-family="Helvetica,sans-Serif" font-size="10.00" fill="#000000">unordered_set</text>
</g>
<!-- Node9&#45;&gt;Node14 -->
<g id="edge14" class="edge">
<title>Node9&#45;&gt;Node14</title>
<path fill="none" stroke="#191970" d="M404.0669,-56.3733C426.8428,-47.2629 461.2344,-33.5062 486.649,-23.3404"/>
<polygon fill="#191970" stroke="#191970" points="488.2623,-26.4648 496.2472,-19.5011 485.6625,-19.9654 488.2623,-26.4648"/>
</g>
<!-- Node16 -->
<g id="node17" class="node">
<title>Node16</title>
<polygon fill="#ffffff" stroke="#bfbfbf" points="141,-.5 141,-19.5 239,-19.5 239,-.5 141,-.5"/>
<text text-anchor="middle" x="190" y="-7.5" font-family="Helvetica,sans-Serif" font-size="10.00" fill="#000000">nlohmann/json.hpp</text>
</g>
<!-- Node15&#45;&gt;Node16 -->
<g id="edge16" class="edge">
<title>Node15&#45;&gt;Node16</title>
<path fill="none" stroke="#191970" d="M237.0714,-56.2455C228.8162,-48.1352 216.8791,-36.4075 207.0918,-26.7919"/>
<polygon fill="#191970" stroke="#191970" points="209.4011,-24.1542 199.8149,-19.6427 204.4954,-29.1476 209.4011,-24.1542"/>
</g>
<!-- Node17&#45;&gt;Node9 -->
<g id="edge18" class="edge">
<title>Node17&#45;&gt;Node9</title>
<path fill="none" stroke="#191970" d="M370.8526,-168.4509C372.4836,-150.184 376.0754,-109.9553 378.2413,-85.6976"/>
<polygon fill="#191970" stroke="#191970" points="381.7463,-85.7966 379.1496,-75.5249 374.774,-85.174 381.7463,-85.7966"/>
</g>
</g>
</svg>
