<?xml version="1.0" encoding="UTF-8" standalone="no"?>
<!DOCTYPE svg PUBLIC "-//W3C//DTD SVG 1.1//EN"
 "http://www.w3.org/Graphics/SVG/1.1/DTD/svg11.dtd">
<!-- Generated by graphviz version 2.40.1 (20161225.0304)
 -->
<!-- Title: src/core/gen_list.cpp Pages: 1 -->
<svg width="631pt" height="308pt"
 viewBox="0.00 0.00 631.00 308.00" xmlns="http://www.w3.org/2000/svg" xmlns:xlink="http://www.w3.org/1999/xlink">
<g id="graph0" class="graph" transform="scale(1 1) rotate(0) translate(4 304)">
<title>src/core/gen_list.cpp</title>
<polygon fill="#ffffff" stroke="transparent" points="-4,4 -4,-304 627,-304 627,4 -4,4"/>
<!-- Node0 -->
<g id="node1" class="node">
<title>Node0</title>
<polygon fill="#bfbfbf" stroke="#000000" points="301.5,-280.5 301.5,-299.5 408.5,-299.5 408.5,-280.5 301.5,-280.5"/>
<text text-anchor="middle" x="355" y="-287.5" font-family="Helvetica,sans-Serif" font-size="10.00" fill="#000000">src/core/gen_list.cpp</text>
</g>
<!-- Node1 -->
<g id="node2" class="node">
<title>Node1</title>
<g id="a_node2"><a xlink:href="gen__list_8h.html" target="_top" xlink:title="This file has a definition of GenList class. ">
<polygon fill="#ffffff" stroke="#000000" points="296.5,-224.5 296.5,-243.5 355.5,-243.5 355.5,-224.5 296.5,-224.5"/>
<text text-anchor="middle" x="326" y="-231.5" font-family="Helvetica,sans-Serif" font-size="10.00" fill="#000000">gen_list.h</text>
</a>
</g>
</g>
<!-- Node0&#45;&gt;Node1 -->
<g id="edge1" class="edge">
<title>Node0&#45;&gt;Node1</title>
<path fill="none" stroke="#191970" d="M349.9486,-280.2455C345.9981,-272.617 340.3903,-261.7881 335.5942,-252.5267"/>
<polygon fill="#191970" stroke="#191970" points="338.7001,-250.9131 330.9935,-243.6427 332.4841,-254.1321 338.7001,-250.9131"/>
</g>
<!-- Node18 -->
<g id="node19" class="node">
<title>Node18</title>
<g id="a_node19"><a xlink:href="runtime__error_8h.html" target="_top" xlink:title="This file has a definition of utils::runtime_error. ">
<polygon fill="#ffffff" stroke="#000000" points="396,-168.5 396,-187.5 508,-187.5 508,-168.5 396,-168.5"/>
<text text-anchor="middle" x="452" y="-175.5" font-family="Helvetica,sans-Serif" font-size="10.00" fill="#000000">../utils/runtime_error.h</text>
</a>
</g>
</g>
<!-- Node0&#45;&gt;Node18 -->
<g id="edge20" class="edge">
<title>Node0&#45;&gt;Node18</title>
<path fill="none" stroke="#191970" d="M363.2702,-280.4509C379.6634,-261.5227 416.4789,-219.014 437.166,-195.1279"/>
<polygon fill="#191970" stroke="#191970" points="439.8497,-197.3754 443.7508,-187.5249 434.5583,-192.7927 439.8497,-197.3754"/>
</g>
<!-- Node2 -->
<g id="node3" class="node">
<title>Node2</title>
<g id="a_node3"><a xlink:href="element_8h.html" target="_top" xlink:title="This file has a definition of Element class, which is one of the cores of this program. ">
<polygon fill="#ffffff" stroke="#000000" points="257.5,-168.5 257.5,-187.5 338.5,-187.5 338.5,-168.5 257.5,-168.5"/>
<text text-anchor="middle" x="298" y="-175.5" font-family="Helvetica,sans-Serif" font-size="10.00" fill="#000000">core/element.h</text>
</a>
</g>
</g>
<!-- Node1&#45;&gt;Node2 -->
<g id="edge2" class="edge">
<title>Node1&#45;&gt;Node2</title>
<path fill="none" stroke="#191970" d="M321.1228,-224.2455C317.3487,-216.6973 312.0079,-206.0158 307.4099,-196.8197"/>
<polygon fill="#191970" stroke="#191970" points="310.424,-195.0217 302.8213,-187.6427 304.163,-198.1522 310.424,-195.0217"/>
</g>
<!-- Node3 -->
<g id="node4" class="node">
<title>Node3</title>
<polygon fill="#ffffff" stroke="#bfbfbf" points="419,-112.5 419,-131.5 463,-131.5 463,-112.5 419,-112.5"/>
<text text-anchor="middle" x="441" y="-119.5" font-family="Helvetica,sans-Serif" font-size="10.00" fill="#000000">omp.h</text>
</g>
<!-- Node2&#45;&gt;Node3 -->
<g id="edge3" class="edge">
<title>Node2&#45;&gt;Node3</title>
<path fill="none" stroke="#191970" d="M322.5826,-168.3733C346.516,-159.0007 383.0066,-144.7107 409.152,-134.472"/>
<polygon fill="#191970" stroke="#191970" points="410.583,-137.6704 418.6182,-130.7649 408.0304,-131.1524 410.583,-137.6704"/>
</g>
<!-- Node4 -->
<g id="node5" class="node">
<title>Node4</title>
<g id="a_node5"><a xlink:href="eigen_8h.html" target="_top" xlink:title="This file includes Eigen and defines some aliases for the Eigen&#45;Vector, Matrix and Array...">
<polygon fill="#ffffff" stroke="#000000" points="8.5,-112.5 8.5,-131.5 79.5,-131.5 79.5,-112.5 8.5,-112.5"/>
<text text-anchor="middle" x="44" y="-119.5" font-family="Helvetica,sans-Serif" font-size="10.00" fill="#000000">alias/eigen.h</text>
</a>
</g>
</g>
<!-- Node2&#45;&gt;Node4 -->
<g id="edge4" class="edge">
<title>Node2&#45;&gt;Node4</title>
<path fill="none" stroke="#191970" d="M257.4721,-169.0647C211.7061,-158.9746 137.409,-142.5941 89.6382,-132.062"/>
<polygon fill="#191970" stroke="#191970" points="90.386,-128.6428 79.8669,-129.9077 88.8788,-135.4787 90.386,-128.6428"/>
</g>
<!-- Node6 -->
<g id="node7" class="node">
<title>Node6</title>
<g id="a_node7"><a xlink:href="alias_2pybind_8h.html" target="_top" xlink:title="This file includes pybind11 and defines an alias for the namespace pybind11. ">
<polygon fill="#ffffff" stroke="#000000" points="104.5,-112.5 104.5,-131.5 181.5,-131.5 181.5,-112.5 104.5,-112.5"/>
<text text-anchor="middle" x="143" y="-119.5" font-family="Helvetica,sans-Serif" font-size="10.00" fill="#000000">alias/pybind.h</text>
</a>
</g>
</g>
<!-- Node2&#45;&gt;Node6 -->
<g id="edge6" class="edge">
<title>Node2&#45;&gt;Node6</title>
<path fill="none" stroke="#191970" d="M271.3546,-168.3733C245.8036,-159.1419 207.0488,-145.1402 178.8091,-134.9375"/>
<polygon fill="#191970" stroke="#191970" points="179.8921,-131.6074 169.2978,-131.5011 177.5135,-138.1909 179.8921,-131.6074"/>
</g>
<!-- Node8 -->
<g id="node9" class="node">
<title>Node8</title>
<g id="a_node9"><a xlink:href="generator_8h.html" target="_top" xlink:title="This file has a definition of Generator class, which is one of the cores of this program. ">
<polygon fill="#ffffff" stroke="#000000" points="199.5,-112.5 199.5,-131.5 286.5,-131.5 286.5,-112.5 199.5,-112.5"/>
<text text-anchor="middle" x="243" y="-119.5" font-family="Helvetica,sans-Serif" font-size="10.00" fill="#000000">core/generator.h</text>
</a>
</g>
</g>
<!-- Node2&#45;&gt;Node8 -->
<g id="edge8" class="edge">
<title>Node2&#45;&gt;Node8</title>
<path fill="none" stroke="#191970" d="M288.4197,-168.2455C280.4542,-160.1352 268.9359,-148.4075 259.4921,-138.7919"/>
<polygon fill="#191970" stroke="#191970" points="261.9747,-136.3247 252.4705,-131.6427 256.9805,-141.2297 261.9747,-136.3247"/>
</g>
<!-- Node17 -->
<g id="node18" class="node">
<title>Node17</title>
<g id="a_node18"><a xlink:href="data__keys_8h.html" target="_top" xlink:title="This file has a definition of DataKeys class, which is owned by Element class. ">
<polygon fill="#ffffff" stroke="#000000" points="305,-112.5 305,-131.5 401,-131.5 401,-112.5 305,-112.5"/>
<text text-anchor="middle" x="353" y="-119.5" font-family="Helvetica,sans-Serif" font-size="10.00" fill="#000000">class/data_keys.h</text>
</a>
</g>
</g>
<!-- Node2&#45;&gt;Node17 -->
<g id="edge17" class="edge">
<title>Node2&#45;&gt;Node17</title>
<path fill="none" stroke="#191970" d="M307.5803,-168.2455C315.5458,-160.1352 327.0641,-148.4075 336.5079,-138.7919"/>
<polygon fill="#191970" stroke="#191970" points="339.0195,-141.2297 343.5295,-131.6427 334.0253,-136.3247 339.0195,-141.2297"/>
</g>
<!-- Node5 -->
<g id="node6" class="node">
<title>Node5</title>
<polygon fill="#ffffff" stroke="#bfbfbf" points="0,-56.5 0,-75.5 72,-75.5 72,-56.5 0,-56.5"/>
<text text-anchor="middle" x="36" y="-63.5" font-family="Helvetica,sans-Serif" font-size="10.00" fill="#000000">Eigen/Dense</text>
</g>
<!-- Node4&#45;&gt;Node5 -->
<g id="edge5" class="edge">
<title>Node4&#45;&gt;Node5</title>
<path fill="none" stroke="#191970" d="M42.6065,-112.2455C41.5626,-104.9382 40.0992,-94.6944 38.8149,-85.7046"/>
<polygon fill="#191970" stroke="#191970" points="42.2566,-85.0472 37.3775,-75.6427 35.327,-86.0372 42.2566,-85.0472"/>
</g>
<!-- Node7 -->
<g id="node8" class="node">
<title>Node7</title>
<polygon fill="#ffffff" stroke="#bfbfbf" points="90,-56.5 90,-75.5 196,-75.5 196,-56.5 90,-56.5"/>
<text text-anchor="middle" x="143" y="-63.5" font-family="Helvetica,sans-Serif" font-size="10.00" fill="#000000">pybind11/pybind11.h</text>
</g>
<!-- Node6&#45;&gt;Node7 -->
<g id="edge7" class="edge">
<title>Node6&#45;&gt;Node7</title>
<path fill="none" stroke="#191970" d="M143,-112.2455C143,-104.9382 143,-94.6944 143,-85.7046"/>
<polygon fill="#191970" stroke="#191970" points="146.5001,-85.6426 143,-75.6427 139.5001,-85.6427 146.5001,-85.6426"/>
</g>
<!-- Node9 -->
<g id="node10" class="node">
<title>Node9</title>
<g id="a_node10"><a xlink:href="std_8h.html" target="_top" xlink:title="This file includes a part of C++ Standard Template Library and defines aliases for them...">
<polygon fill="#ffffff" stroke="#000000" points="343,-56.5 343,-75.5 405,-75.5 405,-56.5 343,-56.5"/>
<text text-anchor="middle" x="374" y="-63.5" font-family="Helvetica,sans-Serif" font-size="10.00" fill="#000000">alias/std.h</text>
</a>
</g>
</g>
<!-- Node8&#45;&gt;Node9 -->
<g id="edge9" class="edge">
<title>Node8&#45;&gt;Node9</title>
<path fill="none" stroke="#191970" d="M265.5197,-112.3733C286.7372,-103.3032 318.7276,-89.6279 342.4769,-79.4755"/>
<polygon fill="#191970" stroke="#191970" points="343.9548,-82.6502 351.7742,-75.5011 341.2033,-76.2136 343.9548,-82.6502"/>
</g>
<!-- Node15 -->
<g id="node16" class="node">
<title>Node15</title>
<g id="a_node16"><a xlink:href="json_8h.html" target="_top" xlink:title="This file includes nlohmann/json and defines an alias for a JSON class. ">
<polygon fill="#ffffff" stroke="#000000" points="214,-56.5 214,-75.5 280,-75.5 280,-56.5 214,-56.5"/>
<text text-anchor="middle" x="247" y="-63.5" font-family="Helvetica,sans-Serif" font-size="10.00" fill="#000000">alias/json.h</text>
</a>
</g>
</g>
<!-- Node8&#45;&gt;Node15 -->
<g id="edge15" class="edge">
<title>Node8&#45;&gt;Node15</title>
<path fill="none" stroke="#191970" d="M243.6967,-112.2455C244.2187,-104.9382 244.9504,-94.6944 245.5925,-85.7046"/>
<polygon fill="#191970" stroke="#191970" points="249.0898,-85.8667 246.3112,-75.6427 242.1076,-85.3679 249.0898,-85.8667"/>
</g>
<!-- Node10 -->
<g id="node11" class="node">
<title>Node10</title>
<polygon fill="#ffffff" stroke="#bfbfbf" points="571,-.5 571,-19.5 623,-19.5 623,-.5 571,-.5"/>
<text text-anchor="middle" x="597" y="-7.5" font-family="Helvetica,sans-Serif" font-size="10.00" fill="#000000">memory</text>
</g>
<!-- Node9&#45;&gt;Node10 -->
<g id="edge10" class="edge">
<title>Node9&#45;&gt;Node10</title>
<path fill="none" stroke="#191970" d="M405.0306,-58.7923C440.4823,-50.4735 500.4592,-36.1446 560.9478,-20.2136"/>
<polygon fill="#191970" stroke="#191970" points="561.8852,-23.5861 570.6566,-17.6437 560.0939,-16.8191 561.8852,-23.5861"/>
</g>
<!-- Node11 -->
<g id="node12" class="node">
<title>Node11</title>
<polygon fill="#ffffff" stroke="#bfbfbf" points="251.5,-.5 251.5,-19.5 292.5,-19.5 292.5,-.5 251.5,-.5"/>
<text text-anchor="middle" x="272" y="-7.5" font-family="Helvetica,sans-Serif" font-size="10.00" fill="#000000">string</text>
</g>
<!-- Node9&#45;&gt;Node11 -->
<g id="edge11" class="edge">
<title>Node9&#45;&gt;Node11</title>
<path fill="none" stroke="#191970" d="M356.233,-56.2455C340.2905,-47.4928 316.6741,-34.527 298.5011,-24.5496"/>
<polygon fill="#191970" stroke="#191970" points="300.0137,-21.3873 289.5634,-19.6427 296.6448,-27.5233 300.0137,-21.3873"/>
</g>
<!-- Node12 -->
<g id="node13" class="node">
<title>Node12</title>
<polygon fill="#ffffff" stroke="#bfbfbf" points="311,-.5 311,-19.5 355,-19.5 355,-.5 311,-.5"/>
<text text-anchor="middle" x="333" y="-7.5" font-family="Helvetica,sans-Serif" font-size="10.00" fill="#000000">vector</text>
</g>
<!-- Node9&#45;&gt;Node12 -->
<g id="edge12" class="edge">
<title>Node9&#45;&gt;Node12</title>
<path fill="none" stroke="#191970" d="M366.8583,-56.2455C361.1556,-48.4564 353.01,-37.3308 346.1375,-27.9439"/>
<polygon fill="#191970" stroke="#191970" points="348.7913,-25.6437 340.0598,-19.6427 343.1432,-29.7789 348.7913,-25.6437"/>
</g>
<!-- Node13 -->
<g id="node14" class="node">
<title>Node13</title>
<polygon fill="#ffffff" stroke="#bfbfbf" points="373.5,-.5 373.5,-19.5 456.5,-19.5 456.5,-.5 373.5,-.5"/>
<text text-anchor="middle" x="415" y="-7.5" font-family="Helvetica,sans-Serif" font-size="10.00" fill="#000000">unordered_map</text>
</g>
<!-- Node9&#45;&gt;Node13 -->
<g id="edge13" class="edge">
<title>Node9&#45;&gt;Node13</title>
<path fill="none" stroke="#191970" d="M381.1417,-56.2455C386.8444,-48.4564 394.99,-37.3308 401.8625,-27.9439"/>
<polygon fill="#191970" stroke="#191970" points="404.8568,-29.7789 407.9402,-19.6427 399.2087,-25.6437 404.8568,-29.7789"/>
</g>
<!-- Node14 -->
<g id="node15" class="node">
<title>Node14</title>
<polygon fill="#ffffff" stroke="#bfbfbf" points="475,-.5 475,-19.5 553,-19.5 553,-.5 475,-.5"/>
<text text-anchor="middle" x="514" y="-7.5" font-family="Helvetica,sans-Serif" font-size="10.00" fill="#000000">unordered_set</text>
</g>
<!-- Node9&#45;&gt;Node14 -->
<g id="edge14" class="edge">
<title>Node9&#45;&gt;Node14</title>
<path fill="none" stroke="#191970" d="M398.0669,-56.3733C420.8428,-47.2629 455.2344,-33.5062 480.649,-23.3404"/>
<polygon fill="#191970" stroke="#191970" points="482.2623,-26.4648 490.2472,-19.5011 479.6625,-19.9654 482.2623,-26.4648"/>
</g>
<!-- Node16 -->
<g id="node17" class="node">
<title>Node16</title>
<polygon fill="#ffffff" stroke="#bfbfbf" points="135,-.5 135,-19.5 233,-19.5 233,-.5 135,-.5"/>
<text text-anchor="middle" x="184" y="-7.5" font-family="Helvetica,sans-Serif" font-size="10.00" fill="#000000">nlohmann/json.hpp</text>
</g>
<!-- Node15&#45;&gt;Node16 -->
<g id="edge16" class="edge">
<title>Node15&#45;&gt;Node16</title>
<path fill="none" stroke="#191970" d="M236.0262,-56.2455C226.8118,-48.0549 213.4468,-36.1749 202.5703,-26.5069"/>
<polygon fill="#191970" stroke="#191970" points="204.6474,-23.6704 194.848,-19.6427 199.9968,-28.9023 204.6474,-23.6704"/>
</g>
<!-- Node17&#45;&gt;Node9 -->
<g id="edge18" class="edge">
<title>Node17&#45;&gt;Node9</title>
<path fill="none" stroke="#191970" d="M356.6579,-112.2455C359.4584,-104.7776 363.409,-94.2427 366.8324,-85.1137"/>
<polygon fill="#191970" stroke="#191970" points="370.1499,-86.2349 370.384,-75.6427 363.5955,-83.777 370.1499,-86.2349"/>
</g>
<!-- Node17&#45;&gt;Node15 -->
<g id="edge19" class="edge">
<title>Node17&#45;&gt;Node15</title>
<path fill="none" stroke="#191970" d="M334.5362,-112.2455C317.8926,-103.4527 293.2007,-90.4079 274.2808,-80.4125"/>
<polygon fill="#191970" stroke="#191970" points="275.7291,-77.2193 265.2522,-75.6427 272.4592,-83.4086 275.7291,-77.2193"/>
</g>
<!-- Node18&#45;&gt;Node9 -->
<g id="edge21" class="edge">
<title>Node18&#45;&gt;Node9</title>
<path fill="none" stroke="#191970" d="M459.6214,-168.3623C469.2948,-154.8701 483.4281,-129.9886 472,-112 459.3842,-92.1418 435.675,-80.7055 414.7374,-74.203"/>
<polygon fill="#191970" stroke="#191970" points="415.628,-70.8176 405.0533,-71.4709 413.7273,-77.5547 415.628,-70.8176"/>
</g>
</g>
</svg>
