<?xml version="1.0" encoding="UTF-8" standalone="no"?>
<!DOCTYPE svg PUBLIC "-//W3C//DTD SVG 1.1//EN"
 "http://www.w3.org/Graphics/SVG/1.1/DTD/svg11.dtd">
<!-- Generated by graphviz version 2.40.1 (20161225.0304)
 -->
<!-- Title: Graphical Class Hierarchy Pages: 1 -->
<svg width="434pt" height="712pt"
 viewBox="0.00 0.00 434.00 712.00" xmlns="http://www.w3.org/2000/svg" xmlns:xlink="http://www.w3.org/1999/xlink">
<g id="graph0" class="graph" transform="scale(1 1) rotate(0) translate(4 708)">
<title>Graphical Class Hierarchy</title>
<polygon fill="#ffffff" stroke="transparent" points="-4,4 -4,-708 430,-708 430,4 -4,4"/>
<!-- Node45 -->
<g id="node1" class="node">
<title>Node45</title>
<polygon fill="#ffffff" stroke="#bfbfbf" points="86,-209.5 86,-228.5 145,-228.5 145,-209.5 86,-209.5"/>
<text text-anchor="middle" x="115.5" y="-216.5" font-family="Helvetica,sans-Serif" font-size="10.00" fill="#000000">EnShThis</text>
</g>
<!-- Node5 -->
<g id="node2" class="node">
<title>Node5</title>
<g id="a_node2"><a xlink:href="classAddGyrationRadius.html" target="_top" xlink:title="AddGyrationRadius adds gyration radius to an Element object. ">
<polygon fill="#ffffff" stroke="#000000" points="192,-266.5 192,-285.5 293,-285.5 293,-266.5 192,-266.5"/>
<text text-anchor="middle" x="242.5" y="-273.5" font-family="Helvetica,sans-Serif" font-size="10.00" fill="#000000">AddGyrationRadius</text>
</a>
</g>
</g>
<!-- Node45&#45;&gt;Node5 -->
<g id="edge1" class="edge">
<title>Node45&#45;&gt;Node5</title>
<path fill="none" stroke="#191970" d="M138.4979,-234.0623C150.7629,-241.6471 166.3169,-250.5716 181,-257 189.1895,-260.5854 198.2665,-263.7855 206.8764,-266.4908"/>
<polygon fill="#191970" stroke="#191970" points="140.1527,-230.9678 129.8289,-228.5867 136.4146,-236.8861 140.1527,-230.9678"/>
</g>
<!-- Node7 -->
<g id="node3" class="node">
<title>Node7</title>
<g id="a_node3"><a xlink:href="classAddMap.html" target="_top" xlink:title="AddMap adds a new property by mapping from an existing property. ">
<polygon fill="#ffffff" stroke="#000000" points="216,-228.5 216,-247.5 269,-247.5 269,-228.5 216,-228.5"/>
<text text-anchor="middle" x="242.5" y="-235.5" font-family="Helvetica,sans-Serif" font-size="10.00" fill="#000000">AddMap</text>
</a>
</g>
</g>
<!-- Node45&#45;&gt;Node7 -->
<g id="edge2" class="edge">
<title>Node45&#45;&gt;Node7</title>
<path fill="none" stroke="#191970" d="M155.2357,-224.9447C175.0024,-227.9019 198.3593,-231.3963 215.9322,-234.0253"/>
<polygon fill="#191970" stroke="#191970" points="155.6837,-221.4729 145.2759,-223.4547 154.6479,-228.3958 155.6837,-221.4729"/>
</g>
<!-- Node9 -->
<g id="node4" class="node">
<title>Node9</title>
<g id="a_node4"><a xlink:href="classAddRename.html" target="_top" xlink:title="AddRename renames an existing property. ">
<polygon fill="#ffffff" stroke="#000000" points="207.5,-190.5 207.5,-209.5 277.5,-209.5 277.5,-190.5 207.5,-190.5"/>
<text text-anchor="middle" x="242.5" y="-197.5" font-family="Helvetica,sans-Serif" font-size="10.00" fill="#000000">AddRename</text>
</a>
</g>
</g>
<!-- Node45&#45;&gt;Node9 -->
<g id="edge3" class="edge">
<title>Node45&#45;&gt;Node9</title>
<path fill="none" stroke="#191970" d="M155.2282,-213.0564C171.8169,-210.5746 190.9352,-207.7144 207.0416,-205.3048"/>
<polygon fill="#191970" stroke="#191970" points="154.6479,-209.6042 145.2759,-214.5453 155.6837,-216.5271 154.6479,-209.6042"/>
</g>
<!-- Node41 -->
<g id="node5" class="node">
<title>Node41</title>
<g id="a_node5"><a xlink:href="classElement.html" target="_top" xlink:title="Element is a Generator containing data element (or entity) as a Json object. ">
<polygon fill="#ffffff" stroke="#000000" points="216,-152.5 216,-171.5 269,-171.5 269,-152.5 216,-152.5"/>
<text text-anchor="middle" x="242.5" y="-159.5" font-family="Helvetica,sans-Serif" font-size="10.00" fill="#000000">Element</text>
</a>
</g>
</g>
<!-- Node45&#45;&gt;Node41 -->
<g id="edge4" class="edge">
<title>Node45&#45;&gt;Node41</title>
<path fill="none" stroke="#191970" d="M138.4979,-203.9377C150.7629,-196.3529 166.3169,-187.4284 181,-181 192.1582,-176.1148 204.9638,-171.9452 215.9911,-168.7674"/>
<polygon fill="#191970" stroke="#191970" points="136.4146,-201.1139 129.8289,-209.4133 140.1527,-207.0322 136.4146,-201.1139"/>
</g>
<!-- Node42 -->
<g id="node6" class="node">
<title>Node42</title>
<g id="a_node6"><a xlink:href="classPyElement.html" target="_top" xlink:title="Trampoline class to bind Element class to Python. ">
<polygon fill="#ffffff" stroke="#000000" points="350.5,-152.5 350.5,-171.5 415.5,-171.5 415.5,-152.5 350.5,-152.5"/>
<text text-anchor="middle" x="383" y="-159.5" font-family="Helvetica,sans-Serif" font-size="10.00" fill="#000000">PyElement</text>
</a>
</g>
</g>
<!-- Node41&#45;&gt;Node42 -->
<g id="edge5" class="edge">
<title>Node41&#45;&gt;Node42</title>
<path fill="none" stroke="#191970" d="M279.2586,-162C301.3223,-162 329.1402,-162 350.4147,-162"/>
<polygon fill="#191970" stroke="#191970" points="279.2577,-158.5001 269.2577,-162 279.2576,-165.5001 279.2577,-158.5001"/>
</g>
<!-- Node40 -->
<g id="node7" class="node">
<title>Node40</title>
<g id="a_node7"><a xlink:href="classGenerator.html" target="_top" xlink:title="Generator is an abstract class to generate data. ">
<polygon fill="#ffffff" stroke="#000000" points="86,-38.5 86,-57.5 145,-57.5 145,-38.5 86,-38.5"/>
<text text-anchor="middle" x="115.5" y="-45.5" font-family="Helvetica,sans-Serif" font-size="10.00" fill="#000000">Generator</text>
</a>
</g>
</g>
<!-- Node40&#45;&gt;Node41 -->
<g id="edge6" class="edge">
<title>Node40&#45;&gt;Node41</title>
<path fill="none" stroke="#191970" d="M123.719,-66.7672C134.0617,-88.251 153.8179,-123.039 181,-143 191.1782,-150.4743 204.3536,-155.0521 215.8971,-157.8343"/>
<polygon fill="#191970" stroke="#191970" points="126.89,-65.2854 119.5213,-57.6727 120.5343,-68.219 126.89,-65.2854"/>
</g>
<!-- Node43 -->
<g id="node8" class="node">
<title>Node43</title>
<g id="a_node8"><a xlink:href="classGenDict.html" target="_top" xlink:title="GenDict is a dictionary (or map) of Generator objects. ">
<polygon fill="#ffffff" stroke="#000000" points="216.5,-.5 216.5,-19.5 268.5,-19.5 268.5,-.5 216.5,-.5"/>
<text text-anchor="middle" x="242.5" y="-7.5" font-family="Helvetica,sans-Serif" font-size="10.00" fill="#000000">GenDict</text>
</a>
</g>
</g>
<!-- Node40&#45;&gt;Node43 -->
<g id="edge7" class="edge">
<title>Node40&#45;&gt;Node43</title>
<path fill="none" stroke="#191970" d="M155.0327,-36.1713C175.0012,-30.1965 198.6754,-23.1129 216.3551,-17.8229"/>
<polygon fill="#191970" stroke="#191970" points="153.8529,-32.8709 145.2759,-39.0907 155.8595,-39.5772 153.8529,-32.8709"/>
</g>
<!-- Node44 -->
<g id="node9" class="node">
<title>Node44</title>
<g id="a_node9"><a xlink:href="classGenList.html" target="_top" xlink:title="GenList is a list (or vector) of Generator objects. ">
<polygon fill="#ffffff" stroke="#000000" points="217.5,-38.5 217.5,-57.5 267.5,-57.5 267.5,-38.5 217.5,-38.5"/>
<text text-anchor="middle" x="242.5" y="-45.5" font-family="Helvetica,sans-Serif" font-size="10.00" fill="#000000">GenList</text>
</a>
</g>
</g>
<!-- Node40&#45;&gt;Node44 -->
<g id="edge8" class="edge">
<title>Node40&#45;&gt;Node44</title>
<path fill="none" stroke="#191970" d="M155.4482,-48C175.6472,-48 199.5505,-48 217.1941,-48"/>
<polygon fill="#191970" stroke="#191970" points="155.2759,-44.5001 145.2759,-48 155.2758,-51.5001 155.2759,-44.5001"/>
</g>
<!-- Node0 -->
<g id="node10" class="node">
<title>Node0</title>
<g id="a_node10"><a xlink:href="classUpdater.html" target="_top" xlink:title="Updater is an abstract class to update data held by an Element object. ">
<polygon fill="#ffffff" stroke="#000000" points="0,-361.5 0,-380.5 50,-380.5 50,-361.5 0,-361.5"/>
<text text-anchor="middle" x="25" y="-368.5" font-family="Helvetica,sans-Serif" font-size="10.00" fill="#000000">Updater</text>
</a>
</g>
</g>
<!-- Node1 -->
<g id="node11" class="node">
<title>Node1</title>
<g id="a_node11"><a xlink:href="classAdder.html" target="_top" xlink:title="Adder adds new properties (keys and values) to non&#45;empty Element::data. ">
<polygon fill="#ffffff" stroke="#000000" points="94.5,-361.5 94.5,-380.5 136.5,-380.5 136.5,-361.5 94.5,-361.5"/>
<text text-anchor="middle" x="115.5" y="-368.5" font-family="Helvetica,sans-Serif" font-size="10.00" fill="#000000">Adder</text>
</a>
</g>
</g>
<!-- Node0&#45;&gt;Node1 -->
<g id="edge9" class="edge">
<title>Node0&#45;&gt;Node1</title>
<path fill="none" stroke="#191970" d="M60.4225,-371C71.9143,-371 84.2946,-371 94.4013,-371"/>
<polygon fill="#191970" stroke="#191970" points="60.2093,-367.5001 50.2093,-371 60.2093,-374.5001 60.2093,-367.5001"/>
</g>
<!-- Node12 -->
<g id="node19" class="node">
<title>Node12</title>
<g id="a_node19"><a xlink:href="classFilter.html" target="_top" xlink:title="Filter removes items in array Element::data if the items fail user&#45;defined criteria. ">
<polygon fill="#ffffff" stroke="#000000" points="96.5,-114.5 96.5,-133.5 134.5,-133.5 134.5,-114.5 96.5,-114.5"/>
<text text-anchor="middle" x="115.5" y="-121.5" font-family="Helvetica,sans-Serif" font-size="10.00" fill="#000000">Filter</text>
</a>
</g>
</g>
<!-- Node0&#45;&gt;Node12 -->
<g id="edge20" class="edge">
<title>Node0&#45;&gt;Node12</title>
<path fill="none" stroke="#191970" d="M31.748,-351.5329C42.8156,-319.7313 65.6334,-254.6959 86,-200 94.8901,-176.125 105.8628,-148.251 111.5944,-133.805"/>
<polygon fill="#191970" stroke="#191970" points="28.322,-350.7294 28.3465,-361.3242 34.9344,-353.0265 28.322,-350.7294"/>
</g>
<!-- Node15 -->
<g id="node22" class="node">
<title>Node15</title>
<g id="a_node22"><a xlink:href="classStarter.html" target="_top" xlink:title="Starter">
<polygon fill="#ffffff" stroke="#000000" points="92.5,-608.5 92.5,-627.5 138.5,-627.5 138.5,-608.5 92.5,-608.5"/>
<text text-anchor="middle" x="115.5" y="-615.5" font-family="Helvetica,sans-Serif" font-size="10.00" fill="#000000">Starter</text>
</a>
</g>
</g>
<!-- Node0&#45;&gt;Node15 -->
<g id="edge23" class="edge">
<title>Node0&#45;&gt;Node15</title>
<path fill="none" stroke="#191970" d="M32.0524,-390.2481C50.2915,-440.0276 98.5315,-571.6881 111.9768,-608.3842"/>
<polygon fill="#191970" stroke="#191970" points="35.2744,-388.8681 28.5477,-380.6827 28.7017,-391.2764 35.2744,-388.8681"/>
</g>
<!-- Node1&#45;&gt;Node5 -->
<g id="edge13" class="edge">
<title>Node1&#45;&gt;Node5</title>
<path fill="none" stroke="#191970" d="M126.8718,-352.6693C138.4736,-335.4191 158.0046,-310.0512 181,-295 186.8906,-291.1444 193.6065,-288.0358 200.3848,-285.54"/>
<polygon fill="#191970" stroke="#191970" points="123.7783,-351.0067 121.2704,-361.3005 129.6502,-354.8174 123.7783,-351.0067"/>
</g>
<!-- Node1&#45;&gt;Node7 -->
<g id="edge15" class="edge">
<title>Node1&#45;&gt;Node7</title>
<path fill="none" stroke="#191970" d="M121.5182,-351.8554C130.4575,-326.4994 149.6451,-282.0698 181,-257 190.9501,-249.0444 204.234,-244.4065 215.9095,-241.7091"/>
<polygon fill="#191970" stroke="#191970" points="118.1644,-350.8486 118.3088,-361.4425 124.8023,-353.0708 118.1644,-350.8486"/>
</g>
<!-- Node1&#45;&gt;Node9 -->
<g id="edge17" class="edge">
<title>Node1&#45;&gt;Node9</title>
<path fill="none" stroke="#191970" d="M118.5885,-351.164C124.6662,-318.8132 141.2231,-254.7248 181,-219 188.3164,-212.429 197.8698,-208.1304 207.2578,-205.3184"/>
<polygon fill="#191970" stroke="#191970" points="115.1109,-350.7344 116.8548,-361.1848 122.0084,-351.9278 115.1109,-350.7344"/>
</g>
<!-- Node2 -->
<g id="node12" class="node">
<title>Node2</title>
<g id="a_node12"><a xlink:href="classAddChildIDs.html" target="_top" xlink:title="AddChildIDs adds id property of a child Element object to a parent Element object. ">
<polygon fill="#ffffff" stroke="#000000" points="207,-494.5 207,-513.5 278,-513.5 278,-494.5 207,-494.5"/>
<text text-anchor="middle" x="242.5" y="-501.5" font-family="Helvetica,sans-Serif" font-size="10.00" fill="#000000">AddChildIDs</text>
</a>
</g>
</g>
<!-- Node1&#45;&gt;Node2 -->
<g id="edge10" class="edge">
<title>Node1&#45;&gt;Node2</title>
<path fill="none" stroke="#191970" d="M121.5182,-390.1446C130.4575,-415.5006 149.6451,-459.9302 181,-485 188.4189,-490.9318 197.6913,-495.0192 206.7683,-497.833"/>
<polygon fill="#191970" stroke="#191970" points="124.8023,-388.9292 118.3088,-380.5575 118.1644,-391.1514 124.8023,-388.9292"/>
</g>
<!-- Node3 -->
<g id="node13" class="node">
<title>Node3</title>
<g id="a_node13"><a xlink:href="classAddChildPositions.html" target="_top" xlink:title="AddChildPositions adds relative positions of a child Element object to a parent Element object...">
<polygon fill="#ffffff" stroke="#000000" points="194.5,-456.5 194.5,-475.5 290.5,-475.5 290.5,-456.5 194.5,-456.5"/>
<text text-anchor="middle" x="242.5" y="-463.5" font-family="Helvetica,sans-Serif" font-size="10.00" fill="#000000">AddChildPositions</text>
</a>
</g>
</g>
<!-- Node1&#45;&gt;Node3 -->
<g id="edge11" class="edge">
<title>Node1&#45;&gt;Node3</title>
<path fill="none" stroke="#191970" d="M126.8718,-389.3307C138.4736,-406.5809 158.0046,-431.9488 181,-447 186.8906,-450.8556 193.6065,-453.9642 200.3848,-456.46"/>
<polygon fill="#191970" stroke="#191970" points="129.6502,-387.1826 121.2704,-380.6995 123.7783,-390.9933 129.6502,-387.1826"/>
</g>
<!-- Node4 -->
<g id="node14" class="node">
<title>Node4</title>
<g id="a_node14"><a xlink:href="classAddCoMPosition.html" target="_top" xlink:title="AddCoMPosition adds center of mass to an Element object as its unwrapped position. ">
<polygon fill="#ffffff" stroke="#000000" points="198,-418.5 198,-437.5 287,-437.5 287,-418.5 198,-418.5"/>
<text text-anchor="middle" x="242.5" y="-425.5" font-family="Helvetica,sans-Serif" font-size="10.00" fill="#000000">AddCoMPosition</text>
</a>
</g>
</g>
<!-- Node1&#45;&gt;Node4 -->
<g id="edge12" class="edge">
<title>Node1&#45;&gt;Node4</title>
<path fill="none" stroke="#191970" d="M138.4979,-386.0623C150.7629,-393.6471 166.3169,-402.5716 181,-409 189.1895,-412.5854 198.2665,-415.7855 206.8764,-418.4908"/>
<polygon fill="#191970" stroke="#191970" points="140.1527,-382.9678 129.8289,-380.5867 136.4146,-388.8861 140.1527,-382.9678"/>
</g>
<!-- Node6 -->
<g id="node15" class="node">
<title>Node6</title>
<g id="a_node15"><a xlink:href="classAddInertiaMoment.html" target="_top" xlink:title="AddInertiaMoment adds inertia moment to an Element object. ">
<polygon fill="#ffffff" stroke="#000000" points="194.5,-380.5 194.5,-399.5 290.5,-399.5 290.5,-380.5 194.5,-380.5"/>
<text text-anchor="middle" x="242.5" y="-387.5" font-family="Helvetica,sans-Serif" font-size="10.00" fill="#000000">AddInertiaMoment</text>
</a>
</g>
</g>
<!-- Node1&#45;&gt;Node6 -->
<g id="edge14" class="edge">
<title>Node1&#45;&gt;Node6</title>
<path fill="none" stroke="#191970" d="M147.0172,-375.7152C161.2679,-377.8472 178.427,-380.4143 194.2448,-382.7807"/>
<polygon fill="#191970" stroke="#191970" points="147.1648,-372.1984 136.7569,-374.1802 146.129,-379.1213 147.1648,-372.1984"/>
</g>
<!-- Node8 -->
<g id="node16" class="node">
<title>Node8</title>
<g id="a_node16"><a xlink:href="classAddMolecularOrientation.html" target="_top" xlink:title="AddMolecularOrientation adds molecular orientation (order parameter) to an Element object...">
<polygon fill="#ffffff" stroke="#000000" points="181,-342.5 181,-361.5 304,-361.5 304,-342.5 181,-342.5"/>
<text text-anchor="middle" x="242.5" y="-349.5" font-family="Helvetica,sans-Serif" font-size="10.00" fill="#000000">AddMolecularOrientation</text>
</a>
</g>
</g>
<!-- Node1&#45;&gt;Node8 -->
<g id="edge16" class="edge">
<title>Node1&#45;&gt;Node8</title>
<path fill="none" stroke="#191970" d="M146.8984,-366.3026C157.2297,-364.757 169.0994,-362.9812 180.8826,-361.2183"/>
<polygon fill="#191970" stroke="#191970" points="146.129,-362.8787 136.7569,-367.8198 147.1648,-369.8016 146.129,-362.8787"/>
</g>
<!-- Node10 -->
<g id="node17" class="node">
<title>Node10</title>
<g id="a_node17"><a xlink:href="classAddSpecialBonds.html" target="_top" xlink:title="AddSpecialBonds adds special bonds. ">
<polygon fill="#ffffff" stroke="#000000" points="195.5,-304.5 195.5,-323.5 289.5,-323.5 289.5,-304.5 195.5,-304.5"/>
<text text-anchor="middle" x="242.5" y="-311.5" font-family="Helvetica,sans-Serif" font-size="10.00" fill="#000000">AddSpecialBonds</text>
</a>
</g>
</g>
<!-- Node1&#45;&gt;Node10 -->
<g id="edge18" class="edge">
<title>Node1&#45;&gt;Node10</title>
<path fill="none" stroke="#191970" d="M138.4979,-355.9377C150.7629,-348.3529 166.3169,-339.4284 181,-333 189.1895,-329.4146 198.2665,-326.2145 206.8764,-323.5092"/>
<polygon fill="#191970" stroke="#191970" points="136.4146,-353.1139 129.8289,-361.4133 140.1527,-359.0322 136.4146,-353.1139"/>
</g>
<!-- Node11 -->
<g id="node18" class="node">
<title>Node11</title>
<g id="a_node18"><a xlink:href="classAddWrappedPosition.html" target="_top" xlink:title="AddWrappedPosition adds wrapped positions of an Element object. ">
<polygon fill="#ffffff" stroke="#000000" points="189,-532.5 189,-551.5 296,-551.5 296,-532.5 189,-532.5"/>
<text text-anchor="middle" x="242.5" y="-539.5" font-family="Helvetica,sans-Serif" font-size="10.00" fill="#000000">AddWrappedPosition</text>
</a>
</g>
</g>
<!-- Node1&#45;&gt;Node11 -->
<g id="edge19" class="edge">
<title>Node1&#45;&gt;Node11</title>
<path fill="none" stroke="#191970" d="M118.5885,-390.836C124.6662,-423.1868 141.2231,-487.2752 181,-523 185.3233,-526.8829 190.4277,-529.9723 195.8176,-532.4304"/>
<polygon fill="#191970" stroke="#191970" points="122.0084,-390.0722 116.8548,-380.8152 115.1109,-391.2656 122.0084,-390.0722"/>
</g>
<!-- Node13 -->
<g id="node20" class="node">
<title>Node13</title>
<g id="a_node20"><a xlink:href="classFilComparison.html" target="_top" xlink:title="FilComparison">
<polygon fill="#ffffff" stroke="#000000" points="203,-114.5 203,-133.5 282,-133.5 282,-114.5 203,-114.5"/>
<text text-anchor="middle" x="242.5" y="-121.5" font-family="Helvetica,sans-Serif" font-size="10.00" fill="#000000">FilComparison</text>
</a>
</g>
</g>
<!-- Node12&#45;&gt;Node13 -->
<g id="edge21" class="edge">
<title>Node12&#45;&gt;Node13</title>
<path fill="none" stroke="#191970" d="M144.5655,-124C161.8386,-124 183.9849,-124 202.847,-124"/>
<polygon fill="#191970" stroke="#191970" points="144.5132,-120.5001 134.5132,-124 144.5131,-127.5001 144.5132,-120.5001"/>
</g>
<!-- Node14 -->
<g id="node21" class="node">
<title>Node14</title>
<g id="a_node21"><a xlink:href="classFilSet.html" target="_top" xlink:title="FilSet applies filtering using sets of acceptable values. ">
<polygon fill="#ffffff" stroke="#000000" points="221.5,-76.5 221.5,-95.5 263.5,-95.5 263.5,-76.5 221.5,-76.5"/>
<text text-anchor="middle" x="242.5" y="-83.5" font-family="Helvetica,sans-Serif" font-size="10.00" fill="#000000">FilSet</text>
</a>
</g>
</g>
<!-- Node12&#45;&gt;Node14 -->
<g id="edge22" class="edge">
<title>Node12&#45;&gt;Node14</title>
<path fill="none" stroke="#191970" d="M144.2352,-115.4021C167.6305,-108.4019 200.1271,-98.6785 221.2341,-92.363"/>
<polygon fill="#191970" stroke="#191970" points="143.0902,-112.0913 134.5132,-118.311 145.0968,-118.7975 143.0902,-112.0913"/>
</g>
<!-- Node16 -->
<g id="node23" class="node">
<title>Node16</title>
<g id="a_node23"><a xlink:href="classStaBeads.html" target="_top" xlink:title="StaBeads">
<polygon fill="#ffffff" stroke="#000000" points="213,-684.5 213,-703.5 272,-703.5 272,-684.5 213,-684.5"/>
<text text-anchor="middle" x="242.5" y="-691.5" font-family="Helvetica,sans-Serif" font-size="10.00" fill="#000000">StaBeads</text>
</a>
</g>
</g>
<!-- Node15&#45;&gt;Node16 -->
<g id="edge24" class="edge">
<title>Node15&#45;&gt;Node16</title>
<path fill="none" stroke="#191970" d="M131.2257,-635.0976C143.6551,-647.7059 162.0204,-664.4363 181,-675 190.7645,-680.4347 202.2846,-684.5227 212.6988,-687.4869"/>
<polygon fill="#191970" stroke="#191970" points="133.7473,-632.6702 124.3013,-627.8718 128.6932,-637.5134 133.7473,-632.6702"/>
</g>
<!-- Node17 -->
<g id="node24" class="node">
<title>Node17</title>
<g id="a_node24"><a xlink:href="classStaCustom.html" target="_top" xlink:title="StaCustom">
<polygon fill="#ffffff" stroke="#000000" points="210,-646.5 210,-665.5 275,-665.5 275,-646.5 210,-646.5"/>
<text text-anchor="middle" x="242.5" y="-653.5" font-family="Helvetica,sans-Serif" font-size="10.00" fill="#000000">StaCustom</text>
</a>
</g>
</g>
<!-- Node15&#45;&gt;Node17 -->
<g id="edge25" class="edge">
<title>Node15&#45;&gt;Node17</title>
<path fill="none" stroke="#191970" d="M148.607,-627.906C167.7843,-633.6441 191.8014,-640.8303 210.7444,-646.4983"/>
<polygon fill="#191970" stroke="#191970" points="149.3774,-624.4833 138.7938,-624.9698 147.3708,-631.1895 149.3774,-624.4833"/>
</g>
<!-- Node18 -->
<g id="node25" class="node">
<title>Node18</title>
<g id="a_node25"><a xlink:href="classStaDump.html" target="_top" xlink:title="StaDump">
<polygon fill="#ffffff" stroke="#000000" points="214,-608.5 214,-627.5 271,-627.5 271,-608.5 214,-608.5"/>
<text text-anchor="middle" x="242.5" y="-615.5" font-family="Helvetica,sans-Serif" font-size="10.00" fill="#000000">StaDump</text>
</a>
</g>
</g>
<!-- Node15&#45;&gt;Node18 -->
<g id="edge26" class="edge">
<title>Node15&#45;&gt;Node18</title>
<path fill="none" stroke="#191970" d="M149.0479,-618C169.1177,-618 194.3657,-618 213.5576,-618"/>
<polygon fill="#191970" stroke="#191970" points="148.7938,-614.5001 138.7938,-618 148.7937,-621.5001 148.7938,-614.5001"/>
</g>
<!-- Node21 -->
<g id="node28" class="node">
<title>Node21</title>
<g id="a_node28"><a xlink:href="classStaMolecules.html" target="_top" xlink:title="StaMolecules">
<polygon fill="#ffffff" stroke="#000000" points="204.5,-570.5 204.5,-589.5 280.5,-589.5 280.5,-570.5 204.5,-570.5"/>
<text text-anchor="middle" x="242.5" y="-577.5" font-family="Helvetica,sans-Serif" font-size="10.00" fill="#000000">StaMolecules</text>
</a>
</g>
</g>
<!-- Node15&#45;&gt;Node21 -->
<g id="edge29" class="edge">
<title>Node15&#45;&gt;Node21</title>
<path fill="none" stroke="#191970" d="M148.607,-608.094C167.7843,-602.3559 191.8014,-595.1697 210.7444,-589.5017"/>
<polygon fill="#191970" stroke="#191970" points="147.3708,-604.8105 138.7938,-611.0302 149.3774,-611.5167 147.3708,-604.8105"/>
</g>
<!-- Node19 -->
<g id="node26" class="node">
<title>Node19</title>
<g id="a_node26"><a xlink:href="classStaDumpAtoms.html" target="_top" xlink:title="StaDumpAtoms">
<polygon fill="#ffffff" stroke="#000000" points="340,-627.5 340,-646.5 426,-646.5 426,-627.5 340,-627.5"/>
<text text-anchor="middle" x="383" y="-634.5" font-family="Helvetica,sans-Serif" font-size="10.00" fill="#000000">StaDumpAtoms</text>
</a>
</g>
</g>
<!-- Node18&#45;&gt;Node19 -->
<g id="edge27" class="edge">
<title>Node18&#45;&gt;Node19</title>
<path fill="none" stroke="#191970" d="M281.2392,-623.2387C299.4197,-625.6973 321.1519,-628.6362 339.8561,-631.1656"/>
<polygon fill="#191970" stroke="#191970" points="281.6502,-619.7626 271.2713,-621.8908 280.712,-626.6994 281.6502,-619.7626"/>
</g>
<!-- Node20 -->
<g id="node27" class="node">
<title>Node20</title>
<g id="a_node27"><a xlink:href="classStaDumpBox.html" target="_top" xlink:title="StaDumpBox">
<polygon fill="#ffffff" stroke="#000000" points="346,-589.5 346,-608.5 420,-608.5 420,-589.5 346,-589.5"/>
<text text-anchor="middle" x="383" y="-596.5" font-family="Helvetica,sans-Serif" font-size="10.00" fill="#000000">StaDumpBox</text>
</a>
</g>
</g>
<!-- Node18&#45;&gt;Node20 -->
<g id="edge28" class="edge">
<title>Node18&#45;&gt;Node20</title>
<path fill="none" stroke="#191970" d="M281.3795,-612.7423C301.5575,-610.0136 326.0808,-606.6973 345.9812,-604.0061"/>
<polygon fill="#191970" stroke="#191970" points="280.712,-609.3006 271.2713,-614.1092 281.6502,-616.2374 280.712,-609.3006"/>
</g>
</g>
</svg>
