<?xml version="1.0" encoding="UTF-8" standalone="no"?>
<!DOCTYPE svg PUBLIC "-//W3C//DTD SVG 1.1//EN"
 "http://www.w3.org/Graphics/SVG/1.1/DTD/svg11.dtd">
<!-- Generated by graphviz version 2.40.1 (20161225.0304)
 -->
<!-- Title: Graphical Class Hierarchy Pages: 1 -->
<svg width="433pt" height="256pt"
 viewBox="0.00 0.00 433.00 256.00" xmlns="http://www.w3.org/2000/svg" xmlns:xlink="http://www.w3.org/1999/xlink">
<g id="graph0" class="graph" transform="scale(1 1) rotate(0) translate(4 252)">
<title>Graphical Class Hierarchy</title>
<polygon fill="#ffffff" stroke="transparent" points="-4,4 -4,-252 429,-252 429,4 -4,4"/>
<!-- Node0 -->
<g id="node1" class="node">
<title>Node0</title>
<g id="a_node1"><a xlink:href="classProcessor.html" target="_top" xlink:title="Processor analyzes data contained in one or more Generator objects. ">
<polygon fill="#ffffff" stroke="#000000" points="0,-114.5 0,-133.5 61,-133.5 61,-114.5 0,-114.5"/>
<text text-anchor="middle" x="30.5" y="-121.5" font-family="Helvetica,sans-Serif" font-size="10.00" fill="#000000">Processor</text>
</a>
</g>
</g>
<!-- Node1 -->
<g id="node2" class="node">
<title>Node1</title>
<g id="a_node2"><a xlink:href="classProData.html" target="_top" xlink:title="ProData copies Element::data from Element objects. ">
<polygon fill="#ffffff" stroke="#000000" points="144.5,-228.5 144.5,-247.5 196.5,-247.5 196.5,-228.5 144.5,-228.5"/>
<text text-anchor="middle" x="170.5" y="-235.5" font-family="Helvetica,sans-Serif" font-size="10.00" fill="#000000">ProData</text>
</a>
</g>
</g>
<!-- Node0&#45;&gt;Node1 -->
<g id="edge1" class="edge">
<title>Node0&#45;&gt;Node1</title>
<path fill="none" stroke="#191970" d="M38.5975,-142.6606C48.97,-164.3321 69.0113,-199.5829 97,-219 110.9695,-228.6913 129.5236,-233.4401 144.4947,-235.7667"/>
<polygon fill="#191970" stroke="#191970" points="41.7496,-141.1374 34.4037,-133.5027 35.3852,-144.052 41.7496,-141.1374"/>
</g>
<!-- Node2 -->
<g id="node3" class="node">
<title>Node2</title>
<g id="a_node3"><a xlink:href="classProDistanceInMolecule.html" target="_top" xlink:title="ProDistanceInMolecule computes atom&#45;to&#45;atom distance in each molecule (also computes square of the di...">
<polygon fill="#ffffff" stroke="#000000" points="112,-190.5 112,-209.5 229,-209.5 229,-190.5 112,-190.5"/>
<text text-anchor="middle" x="170.5" y="-197.5" font-family="Helvetica,sans-Serif" font-size="10.00" fill="#000000">ProDistanceInMolecule</text>
</a>
</g>
</g>
<!-- Node0&#45;&gt;Node2 -->
<g id="edge2" class="edge">
<title>Node0&#45;&gt;Node2</title>
<path fill="none" stroke="#191970" d="M45.9446,-140.9066C58.5195,-153.6954 77.3501,-170.7502 97,-181 104.3619,-184.8402 112.5518,-187.9409 120.7161,-190.4336"/>
<polygon fill="#191970" stroke="#191970" points="48.4059,-138.4161 38.972,-133.5941 43.3398,-143.2467 48.4059,-138.4161"/>
</g>
<!-- Node3 -->
<g id="node4" class="node">
<title>Node3</title>
<g id="a_node4"><a xlink:href="classProMeanSquareDisplacement.html" target="_top" xlink:title="ProMeanSquareDisplacement computes mean square displacement (MSD). ">
<polygon fill="#ffffff" stroke="#000000" points="97.5,-152.5 97.5,-171.5 243.5,-171.5 243.5,-152.5 97.5,-152.5"/>
<text text-anchor="middle" x="170.5" y="-159.5" font-family="Helvetica,sans-Serif" font-size="10.00" fill="#000000">ProMeanSquareDisplacement</text>
</a>
</g>
</g>
<!-- Node0&#45;&gt;Node3 -->
<g id="edge3" class="edge">
<title>Node0&#45;&gt;Node3</title>
<path fill="none" stroke="#191970" d="M71.0396,-135.7596C79.6013,-138.1935 88.5893,-140.7118 97,-143 108.573,-146.1486 121.2057,-149.4595 132.6823,-152.4195"/>
<polygon fill="#191970" stroke="#191970" points="71.8219,-132.3431 61.245,-132.96 69.8981,-139.0735 71.8219,-132.3431"/>
</g>
<!-- Node4 -->
<g id="node5" class="node">
<title>Node4</title>
<g id="a_node5"><a xlink:href="classProRadialDistributionFunction.html" target="_top" xlink:title="ProRadialDistributionFunction computes radial distribution function (RDF). ">
<polygon fill="#ffffff" stroke="#000000" points="98,-114.5 98,-133.5 243,-133.5 243,-114.5 98,-114.5"/>
<text text-anchor="middle" x="170.5" y="-121.5" font-family="Helvetica,sans-Serif" font-size="10.00" fill="#000000">ProRadialDistributionFunction</text>
</a>
</g>
</g>
<!-- Node0&#45;&gt;Node4 -->
<g id="edge4" class="edge">
<title>Node0&#45;&gt;Node4</title>
<path fill="none" stroke="#191970" d="M71.4275,-124C79.8052,-124 88.8585,-124 97.9691,-124"/>
<polygon fill="#191970" stroke="#191970" points="71.2236,-120.5001 61.2236,-124 71.2236,-127.5001 71.2236,-120.5001"/>
</g>
<!-- Node6 -->
<g id="node7" class="node">
<title>Node6</title>
<g id="a_node7"><a xlink:href="classProThicknessProfile.html" target="_top" xlink:title="ProThicknessProfile computes thickness profile of a film consisting of particles (can be atoms...">
<polygon fill="#ffffff" stroke="#000000" points="118.5,-76.5 118.5,-95.5 222.5,-95.5 222.5,-76.5 118.5,-76.5"/>
<text text-anchor="middle" x="170.5" y="-83.5" font-family="Helvetica,sans-Serif" font-size="10.00" fill="#000000">ProThicknessProfile</text>
</a>
</g>
</g>
<!-- Node0&#45;&gt;Node6 -->
<g id="edge6" class="edge">
<title>Node0&#45;&gt;Node6</title>
<path fill="none" stroke="#191970" d="M71.0396,-112.2404C79.6013,-109.8065 88.5893,-107.2882 97,-105 108.573,-101.8514 121.2057,-98.5405 132.6823,-95.5805"/>
<polygon fill="#191970" stroke="#191970" points="69.8981,-108.9265 61.245,-115.04 71.8219,-115.6569 69.8981,-108.9265"/>
</g>
<!-- Node7 -->
<g id="node8" class="node">
<title>Node7</title>
<g id="a_node8"><a xlink:href="classProTimeCorrelationInMolecule.html" target="_top" xlink:title="ProTimeCorrelationInMolecule computes time correlation function of atom&#45;to&#45;atom vector in each molecu...">
<polygon fill="#ffffff" stroke="#000000" points="97,-38.5 97,-57.5 244,-57.5 244,-38.5 97,-38.5"/>
<text text-anchor="middle" x="170.5" y="-45.5" font-family="Helvetica,sans-Serif" font-size="10.00" fill="#000000">ProTimeCorrelationInMolecule</text>
</a>
</g>
</g>
<!-- Node0&#45;&gt;Node7 -->
<g id="edge7" class="edge">
<title>Node0&#45;&gt;Node7</title>
<path fill="none" stroke="#191970" d="M45.9446,-107.0934C58.5195,-94.3046 77.3501,-77.2498 97,-67 104.3619,-63.1598 112.5518,-60.0591 120.7161,-57.5664"/>
<polygon fill="#191970" stroke="#191970" points="43.3398,-104.7533 38.972,-114.4059 48.4059,-109.5839 43.3398,-104.7533"/>
</g>
<!-- Node8 -->
<g id="node9" class="node">
<title>Node8</title>
<g id="a_node9"><a xlink:href="classProValueArray.html" target="_top" xlink:title="ProValueArray makes one or more arrays consisting of values for property in a sequence of Element obj...">
<polygon fill="#ffffff" stroke="#000000" points="130.5,-.5 130.5,-19.5 210.5,-19.5 210.5,-.5 130.5,-.5"/>
<text text-anchor="middle" x="170.5" y="-7.5" font-family="Helvetica,sans-Serif" font-size="10.00" fill="#000000">ProValueArray</text>
</a>
</g>
</g>
<!-- Node0&#45;&gt;Node8 -->
<g id="edge8" class="edge">
<title>Node0&#45;&gt;Node8</title>
<path fill="none" stroke="#191970" d="M38.5975,-105.3394C48.97,-83.6679 69.0113,-48.4171 97,-29 106.7462,-22.2386 118.7239,-17.883 130.1595,-15.0773"/>
<polygon fill="#191970" stroke="#191970" points="35.3852,-103.948 34.4037,-114.4973 41.7496,-106.8626 35.3852,-103.948"/>
</g>
<!-- Node5 -->
<g id="node6" class="node">
<title>Node5</title>
<g id="a_node6"><a xlink:href="classProRadialDistributionFunctionWithDeformation.html" target="_top" xlink:title="ProRadialDistributionFunctionWithDeformation computes radial distribution function (RDF) taking defor...">
<polygon fill="#ffffff" stroke="#000000" points="280,-109 280,-139 425,-139 425,-109 280,-109"/>
<text text-anchor="start" x="288" y="-127" font-family="Helvetica,sans-Serif" font-size="10.00" fill="#000000">ProRadialDistributionFunction</text>
<text text-anchor="middle" x="352.5" y="-116" font-family="Helvetica,sans-Serif" font-size="10.00" fill="#000000">WithDeformation</text>
</a>
</g>
</g>
<!-- Node4&#45;&gt;Node5 -->
<g id="edge5" class="edge">
<title>Node4&#45;&gt;Node5</title>
<path fill="none" stroke="#191970" d="M253.4943,-124C262.3065,-124 271.2196,-124 279.8997,-124"/>
<polygon fill="#191970" stroke="#191970" points="253.2159,-120.5001 243.2159,-124 253.2158,-127.5001 253.2159,-120.5001"/>
</g>
</g>
</svg>
