<?xml version="1.0" encoding="UTF-8" standalone="no"?>
<!DOCTYPE svg PUBLIC "-//W3C//DTD SVG 1.1//EN"
 "http://www.w3.org/Graphics/SVG/1.1/DTD/svg11.dtd">
<!-- Generated by graphviz version 2.40.1 (20161225.0304)
 -->
<!-- Title: src/invokers/inv_omp.cpp Pages: 1 -->
<svg width="380pt" height="196pt"
 viewBox="0.00 0.00 380.00 196.00" xmlns="http://www.w3.org/2000/svg" xmlns:xlink="http://www.w3.org/1999/xlink">
<g id="graph0" class="graph" transform="scale(1 1) rotate(0) translate(4 192)">
<title>src/invokers/inv_omp.cpp</title>
<polygon fill="#ffffff" stroke="transparent" points="-4,4 -4,-192 376,-192 376,4 -4,4"/>
<!-- Node0 -->
<g id="node1" class="node">
<title>Node0</title>
<polygon fill="#bfbfbf" stroke="#000000" points="39,-168.5 39,-187.5 167,-187.5 167,-168.5 39,-168.5"/>
<text text-anchor="middle" x="103" y="-175.5" font-family="Helvetica,sans-Serif" font-size="10.00" fill="#000000">src/invokers/inv_omp.cpp</text>
</g>
<!-- Node1 -->
<g id="node2" class="node">
<title>Node1</title>
<g id="a_node2"><a xlink:href="invokers_2inv__omp_8h.html" target="_top" xlink:title="inv_omp.h">
<polygon fill="#ffffff" stroke="#000000" points="24,-112.5 24,-131.5 86,-131.5 86,-112.5 24,-112.5"/>
<text text-anchor="middle" x="55" y="-119.5" font-family="Helvetica,sans-Serif" font-size="10.00" fill="#000000">inv_omp.h</text>
</a>
</g>
</g>
<!-- Node0&#45;&gt;Node1 -->
<g id="edge1" class="edge">
<title>Node0&#45;&gt;Node1</title>
<path fill="none" stroke="#191970" d="M94.639,-168.2455C87.825,-160.2958 78.0319,-148.8706 69.8848,-139.3656"/>
<polygon fill="#191970" stroke="#191970" points="72.4305,-136.9575 63.2651,-131.6427 67.1157,-141.513 72.4305,-136.9575"/>
</g>
<!-- Node3 -->
<g id="node4" class="node">
<title>Node3</title>
<g id="a_node4"><a xlink:href="message_8h.html" target="_top" xlink:title="../utils/message.h">
<polygon fill="#ffffff" stroke="#000000" points="104.5,-112.5 104.5,-131.5 199.5,-131.5 199.5,-112.5 104.5,-112.5"/>
<text text-anchor="middle" x="152" y="-119.5" font-family="Helvetica,sans-Serif" font-size="10.00" fill="#000000">../utils/message.h</text>
</a>
</g>
</g>
<!-- Node0&#45;&gt;Node3 -->
<g id="edge3" class="edge">
<title>Node0&#45;&gt;Node3</title>
<path fill="none" stroke="#191970" d="M111.5351,-168.2455C118.4912,-160.2958 128.4883,-148.8706 136.8051,-139.3656"/>
<polygon fill="#191970" stroke="#191970" points="139.6116,-141.4732 143.5627,-131.6427 134.3436,-136.8637 139.6116,-141.4732"/>
</g>
<!-- Node2 -->
<g id="node3" class="node">
<title>Node2</title>
<polygon fill="#ffffff" stroke="#bfbfbf" points="7,-56.5 7,-75.5 103,-75.5 103,-56.5 7,-56.5"/>
<text text-anchor="middle" x="55" y="-63.5" font-family="Helvetica,sans-Serif" font-size="10.00" fill="#000000">invokers/invoker.h</text>
</g>
<!-- Node1&#45;&gt;Node2 -->
<g id="edge2" class="edge">
<title>Node1&#45;&gt;Node2</title>
<path fill="none" stroke="#191970" d="M55,-112.2455C55,-104.9382 55,-94.6944 55,-85.7046"/>
<polygon fill="#191970" stroke="#191970" points="58.5001,-85.6426 55,-75.6427 51.5001,-85.6427 58.5001,-85.6426"/>
</g>
<!-- Node4 -->
<g id="node5" class="node">
<title>Node4</title>
<g id="a_node5"><a xlink:href="std_8h.html" target="_top" xlink:title="This file includes a part of C++ Standard Template Library and defines aliases for them...">
<polygon fill="#ffffff" stroke="#000000" points="121,-56.5 121,-75.5 183,-75.5 183,-56.5 121,-56.5"/>
<text text-anchor="middle" x="152" y="-63.5" font-family="Helvetica,sans-Serif" font-size="10.00" fill="#000000">alias/std.h</text>
</a>
</g>
</g>
<!-- Node3&#45;&gt;Node4 -->
<g id="edge4" class="edge">
<title>Node3&#45;&gt;Node4</title>
<path fill="none" stroke="#191970" d="M152,-112.2455C152,-104.9382 152,-94.6944 152,-85.7046"/>
<polygon fill="#191970" stroke="#191970" points="155.5001,-85.6426 152,-75.6427 148.5001,-85.6427 155.5001,-85.6426"/>
</g>
<!-- Node5 -->
<g id="node6" class="node">
<title>Node5</title>
<polygon fill="#ffffff" stroke="#bfbfbf" points="0,-.5 0,-19.5 52,-19.5 52,-.5 0,-.5"/>
<text text-anchor="middle" x="26" y="-7.5" font-family="Helvetica,sans-Serif" font-size="10.00" fill="#000000">memory</text>
</g>
<!-- Node4&#45;&gt;Node5 -->
<g id="edge5" class="edge">
<title>Node4&#45;&gt;Node5</title>
<path fill="none" stroke="#191970" d="M130.3398,-56.3733C110.0228,-47.3435 79.436,-33.7494 56.625,-23.6111"/>
<polygon fill="#191970" stroke="#191970" points="57.9372,-20.3642 47.3775,-19.5011 55.0941,-26.7609 57.9372,-20.3642"/>
</g>
<!-- Node6 -->
<g id="node7" class="node">
<title>Node6</title>
<polygon fill="#ffffff" stroke="#bfbfbf" points="70.5,-.5 70.5,-19.5 111.5,-19.5 111.5,-.5 70.5,-.5"/>
<text text-anchor="middle" x="91" y="-7.5" font-family="Helvetica,sans-Serif" font-size="10.00" fill="#000000">string</text>
</g>
<!-- Node4&#45;&gt;Node6 -->
<g id="edge6" class="edge">
<title>Node4&#45;&gt;Node6</title>
<path fill="none" stroke="#191970" d="M141.3746,-56.2455C132.4527,-48.0549 119.512,-36.1749 108.9808,-26.5069"/>
<polygon fill="#191970" stroke="#191970" points="111.2371,-23.8271 101.5036,-19.6427 106.5032,-28.9837 111.2371,-23.8271"/>
</g>
<!-- Node7 -->
<g id="node8" class="node">
<title>Node7</title>
<polygon fill="#ffffff" stroke="#bfbfbf" points="130,-.5 130,-19.5 174,-19.5 174,-.5 130,-.5"/>
<text text-anchor="middle" x="152" y="-7.5" font-family="Helvetica,sans-Serif" font-size="10.00" fill="#000000">vector</text>
</g>
<!-- Node4&#45;&gt;Node7 -->
<g id="edge7" class="edge">
<title>Node4&#45;&gt;Node7</title>
<path fill="none" stroke="#191970" d="M152,-56.2455C152,-48.9382 152,-38.6944 152,-29.7046"/>
<polygon fill="#191970" stroke="#191970" points="155.5001,-29.6426 152,-19.6427 148.5001,-29.6427 155.5001,-29.6426"/>
</g>
<!-- Node8 -->
<g id="node9" class="node">
<title>Node8</title>
<polygon fill="#ffffff" stroke="#bfbfbf" points="192.5,-.5 192.5,-19.5 275.5,-19.5 275.5,-.5 192.5,-.5"/>
<text text-anchor="middle" x="234" y="-7.5" font-family="Helvetica,sans-Serif" font-size="10.00" fill="#000000">unordered_map</text>
</g>
<!-- Node4&#45;&gt;Node8 -->
<g id="edge8" class="edge">
<title>Node4&#45;&gt;Node8</title>
<path fill="none" stroke="#191970" d="M166.2833,-56.2455C178.747,-47.7337 197.0451,-35.2375 211.4792,-25.3801"/>
<polygon fill="#191970" stroke="#191970" points="213.5962,-28.1726 219.8804,-19.6427 209.6485,-22.392 213.5962,-28.1726"/>
</g>
<!-- Node9 -->
<g id="node10" class="node">
<title>Node9</title>
<polygon fill="#ffffff" stroke="#bfbfbf" points="294,-.5 294,-19.5 372,-19.5 372,-.5 294,-.5"/>
<text text-anchor="middle" x="333" y="-7.5" font-family="Helvetica,sans-Serif" font-size="10.00" fill="#000000">unordered_set</text>
</g>
<!-- Node4&#45;&gt;Node9 -->
<g id="edge9" class="edge">
<title>Node4&#45;&gt;Node9</title>
<path fill="none" stroke="#191970" d="M183.115,-56.3733C213.3429,-47.021 259.396,-32.7725 292.4739,-22.5385"/>
<polygon fill="#191970" stroke="#191970" points="293.7723,-25.8005 302.291,-19.5011 291.7033,-19.1133 293.7723,-25.8005"/>
</g>
</g>
</svg>
