<?xml version="1.0" encoding="UTF-8" standalone="no"?>
<!DOCTYPE svg PUBLIC "-//W3C//DTD SVG 1.1//EN"
 "http://www.w3.org/Graphics/SVG/1.1/DTD/svg11.dtd">
<!-- Generated by graphviz version 2.40.1 (20161225.0304)
 -->
<!-- Title: src/invokers/inv_omp.h Pages: 1 -->
<svg width="256pt" height="207pt"
 viewBox="0.00 0.00 255.50 207.00" xmlns="http://www.w3.org/2000/svg" xmlns:xlink="http://www.w3.org/1999/xlink">
<g id="graph0" class="graph" transform="scale(1 1) rotate(0) translate(4 203)">
<title>src/invokers/inv_omp.h</title>
<polygon fill="#ffffff" stroke="transparent" points="-4,4 -4,-203 251.5,-203 251.5,4 -4,4"/>
<!-- Node22 -->
<g id="node1" class="node">
<title>Node22</title>
<polygon fill="#bfbfbf" stroke="#000000" points="71,-179.5 71,-198.5 189,-198.5 189,-179.5 71,-179.5"/>
<text text-anchor="middle" x="130" y="-186.5" font-family="Helvetica,sans-Serif" font-size="10.00" fill="#000000">src/invokers/inv_omp.h</text>
</g>
<!-- Node23 -->
<g id="node2" class="node">
<title>Node23</title>
<g id="a_node2"><a xlink:href="inv__omp_8cpp.html" target="_top" xlink:title="This file has an implementation of InvOMP class, which is a subclass of Invoker class. ">
<polygon fill="#ffffff" stroke="#000000" points="0,-118 0,-137 128,-137 128,-118 0,-118"/>
<text text-anchor="middle" x="64" y="-125" font-family="Helvetica,sans-Serif" font-size="10.00" fill="#000000">src/invokers/inv_omp.cpp</text>
</a>
</g>
</g>
<!-- Node22&#45;&gt;Node23 -->
<g id="edge1" class="edge">
<title>Node22&#45;&gt;Node23</title>
<path fill="none" stroke="#191970" d="M112.3444,-172.5482C100.2515,-161.2798 84.6221,-146.716 74.4579,-137.2449"/>
<polygon fill="#191970" stroke="#191970" points="109.9853,-175.134 119.6875,-179.3906 114.7574,-170.0127 109.9853,-175.134"/>
</g>
<!-- Node24 -->
<g id="node3" class="node">
<title>Node24</title>
<g id="a_node3"><a xlink:href="py__inv__omp_8h.html" target="_top" xlink:title="This file is for binding InvOMP class to Python. ">
<polygon fill="#ffffff" stroke="#000000" points="146.5,-112.5 146.5,-142.5 247.5,-142.5 247.5,-112.5 146.5,-112.5"/>
<text text-anchor="start" x="154.5" y="-130.5" font-family="Helvetica,sans-Serif" font-size="10.00" fill="#000000">src/pybind/invokers</text>
<text text-anchor="middle" x="197" y="-119.5" font-family="Helvetica,sans-Serif" font-size="10.00" fill="#000000">/py_inv_omp.h</text>
</a>
</g>
</g>
<!-- Node22&#45;&gt;Node24 -->
<g id="edge2" class="edge">
<title>Node22&#45;&gt;Node24</title>
<path fill="none" stroke="#191970" d="M147.9892,-172.4875C158.1412,-163.1689 170.7321,-151.6116 180.61,-142.5446"/>
<polygon fill="#191970" stroke="#191970" points="145.469,-170.0499 140.4688,-179.3906 150.2025,-175.2068 145.469,-170.0499"/>
</g>
<!-- Node25 -->
<g id="node4" class="node">
<title>Node25</title>
<g id="a_node4"><a xlink:href="pybind_8h.html" target="_top" xlink:title="This file includes all the header files containing definitions of functions to bind C++ and Python...">
<polygon fill="#ffffff" stroke="#000000" points="162,-56.5 162,-75.5 232,-75.5 232,-56.5 162,-56.5"/>
<text text-anchor="middle" x="197" y="-63.5" font-family="Helvetica,sans-Serif" font-size="10.00" fill="#000000">src/pybind.h</text>
</a>
</g>
</g>
<!-- Node24&#45;&gt;Node25 -->
<g id="edge3" class="edge">
<title>Node24&#45;&gt;Node25</title>
<path fill="none" stroke="#191970" d="M197,-102.2849C197,-92.9858 197,-82.9883 197,-75.8469"/>
<polygon fill="#191970" stroke="#191970" points="193.5001,-102.2977 197,-112.2977 200.5001,-102.2978 193.5001,-102.2977"/>
</g>
<!-- Node26 -->
<g id="node5" class="node">
<title>Node26</title>
<g id="a_node5"><a xlink:href="ppap4lmp_8cpp.html" target="_top" xlink:title="This file has no implementation, only includes a header file to bind C++ and Python. ">
<polygon fill="#ffffff" stroke="#000000" points="150,-.5 150,-19.5 244,-19.5 244,-.5 150,-.5"/>
<text text-anchor="middle" x="197" y="-7.5" font-family="Helvetica,sans-Serif" font-size="10.00" fill="#000000">src/ppap4lmp.cpp</text>
</a>
</g>
</g>
<!-- Node25&#45;&gt;Node26 -->
<g id="edge4" class="edge">
<title>Node25&#45;&gt;Node26</title>
<path fill="none" stroke="#191970" d="M197,-46.1575C197,-37.155 197,-26.9199 197,-19.6427"/>
<polygon fill="#191970" stroke="#191970" points="193.5001,-46.2455 197,-56.2455 200.5001,-46.2456 193.5001,-46.2455"/>
</g>
</g>
</svg>
