<?xml version="1.0" encoding="UTF-8" standalone="no"?>
<!DOCTYPE svg PUBLIC "-//W3C//DTD SVG 1.1//EN"
 "http://www.w3.org/Graphics/SVG/1.1/DTD/svg11.dtd">
<!-- Generated by graphviz version 2.40.1 (20161225.0304)
 -->
<!-- Title: src/invokers/invoker.cpp Pages: 1 -->
<svg width="650pt" height="476pt"
 viewBox="0.00 0.00 649.50 476.00" xmlns="http://www.w3.org/2000/svg" xmlns:xlink="http://www.w3.org/1999/xlink">
<g id="graph0" class="graph" transform="scale(1 1) rotate(0) translate(4 472)">
<title>src/invokers/invoker.cpp</title>
<polygon fill="#ffffff" stroke="transparent" points="-4,4 -4,-472 645.5,-472 645.5,4 -4,4"/>
<!-- Node0 -->
<g id="node1" class="node">
<title>Node0</title>
<polygon fill="#bfbfbf" stroke="#000000" points="315,-448.5 315,-467.5 438,-467.5 438,-448.5 315,-448.5"/>
<text text-anchor="middle" x="376.5" y="-455.5" font-family="Helvetica,sans-Serif" font-size="10.00" fill="#000000">src/invokers/invoker.cpp</text>
</g>
<!-- Node1 -->
<g id="node2" class="node">
<title>Node1</title>
<g id="a_node2"><a xlink:href="invoker_8h.html" target="_top" xlink:title="This file has a definition of Invoker class, which executes one or more analysis. ...">
<polygon fill="#ffffff" stroke="#000000" points="320.5,-392.5 320.5,-411.5 376.5,-411.5 376.5,-392.5 320.5,-392.5"/>
<text text-anchor="middle" x="348.5" y="-399.5" font-family="Helvetica,sans-Serif" font-size="10.00" fill="#000000">invoker.h</text>
</a>
</g>
</g>
<!-- Node0&#45;&gt;Node1 -->
<g id="edge1" class="edge">
<title>Node0&#45;&gt;Node1</title>
<path fill="none" stroke="#191970" d="M371.6228,-448.2455C367.8487,-440.6973 362.5079,-430.0158 357.9099,-420.8197"/>
<polygon fill="#191970" stroke="#191970" points="360.924,-419.0217 353.3213,-411.6427 354.663,-422.1522 360.924,-419.0217"/>
</g>
<!-- Node22 -->
<g id="node23" class="node">
<title>Node22</title>
<g id="a_node23"><a xlink:href="message_8h.html" target="_top" xlink:title="This file has definitions of messaging functions. ">
<polygon fill="#ffffff" stroke="#000000" points="419,-336.5 419,-355.5 514,-355.5 514,-336.5 419,-336.5"/>
<text text-anchor="middle" x="466.5" y="-343.5" font-family="Helvetica,sans-Serif" font-size="10.00" fill="#000000">../utils/message.h</text>
</a>
</g>
</g>
<!-- Node0&#45;&gt;Node22 -->
<g id="edge26" class="edge">
<title>Node0&#45;&gt;Node22</title>
<path fill="none" stroke="#191970" d="M384.1733,-448.4509C399.3171,-429.6054 433.2443,-387.3849 452.4842,-363.4419"/>
<polygon fill="#191970" stroke="#191970" points="455.3104,-365.5124 458.8461,-355.5249 449.8538,-361.1276 455.3104,-365.5124"/>
</g>
<!-- Node2 -->
<g id="node3" class="node">
<title>Node2</title>
<g id="a_node3"><a xlink:href="processor_8h.html" target="_top" xlink:title="This file has a definition of Processor class, where an analysis process is programmed. ">
<polygon fill="#ffffff" stroke="#000000" points="255,-336.5 255,-355.5 374,-355.5 374,-336.5 255,-336.5"/>
<text text-anchor="middle" x="314.5" y="-343.5" font-family="Helvetica,sans-Serif" font-size="10.00" fill="#000000">processors/processor.h</text>
</a>
</g>
</g>
<!-- Node1&#45;&gt;Node2 -->
<g id="edge2" class="edge">
<title>Node1&#45;&gt;Node2</title>
<path fill="none" stroke="#191970" d="M342.5777,-392.2455C337.8973,-384.5367 331.2327,-373.5598 325.5711,-364.2348"/>
<polygon fill="#191970" stroke="#191970" points="328.5361,-362.3741 320.3545,-355.6427 322.5525,-366.007 328.5361,-362.3741"/>
</g>
<!-- Node3 -->
<g id="node4" class="node">
<title>Node3</title>
<g id="a_node4"><a xlink:href="generators_8h.html" target="_top" xlink:title="This file includes all the header files of subclasses of Generator class. ">
<polygon fill="#ffffff" stroke="#000000" points="256.5,-280.5 256.5,-299.5 348.5,-299.5 348.5,-280.5 256.5,-280.5"/>
<text text-anchor="middle" x="302.5" y="-287.5" font-family="Helvetica,sans-Serif" font-size="10.00" fill="#000000">core/generators.h</text>
</a>
</g>
</g>
<!-- Node2&#45;&gt;Node3 -->
<g id="edge3" class="edge">
<title>Node2&#45;&gt;Node3</title>
<path fill="none" stroke="#191970" d="M312.4098,-336.2455C310.8439,-328.9382 308.6488,-318.6944 306.7224,-309.7046"/>
<polygon fill="#191970" stroke="#191970" points="310.084,-308.6873 304.5663,-299.6427 303.2393,-310.1541 310.084,-308.6873"/>
</g>
<!-- Node4 -->
<g id="node5" class="node">
<title>Node4</title>
<g id="a_node5"><a xlink:href="element_8h.html" target="_top" xlink:title="This file has a definition of Element class, which is one of the cores of this program. ">
<polygon fill="#ffffff" stroke="#000000" points="214,-168.5 214,-187.5 295,-187.5 295,-168.5 214,-168.5"/>
<text text-anchor="middle" x="254.5" y="-175.5" font-family="Helvetica,sans-Serif" font-size="10.00" fill="#000000">core/element.h</text>
</a>
</g>
</g>
<!-- Node3&#45;&gt;Node4 -->
<g id="edge4" class="edge">
<title>Node3&#45;&gt;Node4</title>
<path fill="none" stroke="#191970" d="M298.4075,-280.4509C290.4726,-261.936 272.8682,-220.8591 262.5223,-196.7187"/>
<polygon fill="#191970" stroke="#191970" points="265.7384,-195.3376 258.5821,-187.5249 259.3043,-198.0951 265.7384,-195.3376"/>
</g>
<!-- Node20 -->
<g id="node21" class="node">
<title>Node20</title>
<g id="a_node21"><a xlink:href="gen__dict_8h.html" target="_top" xlink:title="This file has a definition of GenDict class. ">
<polygon fill="#ffffff" stroke="#000000" points="317,-224.5 317,-243.5 400,-243.5 400,-224.5 317,-224.5"/>
<text text-anchor="middle" x="358.5" y="-231.5" font-family="Helvetica,sans-Serif" font-size="10.00" fill="#000000">core/gen_dict.h</text>
</a>
</g>
</g>
<!-- Node3&#45;&gt;Node20 -->
<g id="edge22" class="edge">
<title>Node3&#45;&gt;Node20</title>
<path fill="none" stroke="#191970" d="M312.2545,-280.2455C320.3648,-272.1352 332.0925,-260.4075 341.7081,-250.7919"/>
<polygon fill="#191970" stroke="#191970" points="344.2611,-253.1887 348.8573,-243.6427 339.3113,-248.2389 344.2611,-253.1887"/>
</g>
<!-- Node21 -->
<g id="node22" class="node">
<title>Node21</title>
<g id="a_node22"><a xlink:href="gen__list_8h.html" target="_top" xlink:title="This file has a definition of GenList class. ">
<polygon fill="#ffffff" stroke="#000000" points="180.5,-224.5 180.5,-243.5 260.5,-243.5 260.5,-224.5 180.5,-224.5"/>
<text text-anchor="middle" x="220.5" y="-231.5" font-family="Helvetica,sans-Serif" font-size="10.00" fill="#000000">core/gen_list.h</text>
</a>
</g>
</g>
<!-- Node3&#45;&gt;Node21 -->
<g id="edge24" class="edge">
<title>Node3&#45;&gt;Node21</title>
<path fill="none" stroke="#191970" d="M288.2167,-280.2455C275.753,-271.7337 257.4549,-259.2375 243.0208,-249.3801"/>
<polygon fill="#191970" stroke="#191970" points="244.8515,-246.392 234.6196,-243.6427 240.9038,-252.1726 244.8515,-246.392"/>
</g>
<!-- Node5 -->
<g id="node6" class="node">
<title>Node5</title>
<polygon fill="#ffffff" stroke="#bfbfbf" points="406.5,-112.5 406.5,-131.5 450.5,-131.5 450.5,-112.5 406.5,-112.5"/>
<text text-anchor="middle" x="428.5" y="-119.5" font-family="Helvetica,sans-Serif" font-size="10.00" fill="#000000">omp.h</text>
</g>
<!-- Node4&#45;&gt;Node5 -->
<g id="edge5" class="edge">
<title>Node4&#45;&gt;Node5</title>
<path fill="none" stroke="#191970" d="M284.0808,-168.4923C311.0797,-159.8127 352.338,-146.5448 396.9244,-132.1838"/>
<polygon fill="#191970" stroke="#191970" points="398.0401,-135.5016 406.4853,-129.104 395.8938,-128.8387 398.0401,-135.5016"/>
</g>
<!-- Node6 -->
<g id="node7" class="node">
<title>Node6</title>
<g id="a_node7"><a xlink:href="eigen_8h.html" target="_top" xlink:title="This file includes Eigen and defines some aliases for the Eigen&#45;Vector, Matrix and Array...">
<polygon fill="#ffffff" stroke="#000000" points="0,-112.5 0,-131.5 71,-131.5 71,-112.5 0,-112.5"/>
<text text-anchor="middle" x="35.5" y="-119.5" font-family="Helvetica,sans-Serif" font-size="10.00" fill="#000000">alias/eigen.h</text>
</a>
</g>
</g>
<!-- Node4&#45;&gt;Node6 -->
<g id="edge6" class="edge">
<title>Node4&#45;&gt;Node6</title>
<path fill="none" stroke="#191970" d="M216.8526,-168.3733C179.197,-158.7444 121.2445,-143.9255 81.0259,-133.6413"/>
<polygon fill="#191970" stroke="#191970" points="81.7614,-130.2168 71.206,-131.1303 80.0272,-136.9986 81.7614,-130.2168"/>
</g>
<!-- Node8 -->
<g id="node9" class="node">
<title>Node8</title>
<g id="a_node9"><a xlink:href="alias_2pybind_8h.html" target="_top" xlink:title="This file includes pybind11 and defines an alias for the namespace pybind11. ">
<polygon fill="#ffffff" stroke="#000000" points="92,-112.5 92,-131.5 169,-131.5 169,-112.5 92,-112.5"/>
<text text-anchor="middle" x="130.5" y="-119.5" font-family="Helvetica,sans-Serif" font-size="10.00" fill="#000000">alias/pybind.h</text>
</a>
</g>
</g>
<!-- Node4&#45;&gt;Node8 -->
<g id="edge8" class="edge">
<title>Node4&#45;&gt;Node8</title>
<path fill="none" stroke="#191970" d="M233.1836,-168.3733C213.2784,-159.3838 183.3564,-145.8706 160.94,-135.7471"/>
<polygon fill="#191970" stroke="#191970" points="162.0925,-132.4272 151.5382,-131.5011 159.2113,-138.8068 162.0925,-132.4272"/>
</g>
<!-- Node10 -->
<g id="node11" class="node">
<title>Node10</title>
<g id="a_node11"><a xlink:href="generator_8h.html" target="_top" xlink:title="This file has a definition of Generator class, which is one of the cores of this program. ">
<polygon fill="#ffffff" stroke="#000000" points="187,-112.5 187,-131.5 274,-131.5 274,-112.5 187,-112.5"/>
<text text-anchor="middle" x="230.5" y="-119.5" font-family="Helvetica,sans-Serif" font-size="10.00" fill="#000000">core/generator.h</text>
</a>
</g>
</g>
<!-- Node4&#45;&gt;Node10 -->
<g id="edge10" class="edge">
<title>Node4&#45;&gt;Node10</title>
<path fill="none" stroke="#191970" d="M250.3195,-168.2455C247.119,-160.7776 242.604,-150.2427 238.6916,-141.1137"/>
<polygon fill="#191970" stroke="#191970" points="241.7888,-139.4554 234.6326,-131.6427 235.3548,-142.2129 241.7888,-139.4554"/>
</g>
<!-- Node19 -->
<g id="node20" class="node">
<title>Node19</title>
<g id="a_node20"><a xlink:href="data__keys_8h.html" target="_top" xlink:title="This file has a definition of DataKeys class, which is owned by Element class. ">
<polygon fill="#ffffff" stroke="#000000" points="292.5,-112.5 292.5,-131.5 388.5,-131.5 388.5,-112.5 292.5,-112.5"/>
<text text-anchor="middle" x="340.5" y="-119.5" font-family="Helvetica,sans-Serif" font-size="10.00" fill="#000000">class/data_keys.h</text>
</a>
</g>
</g>
<!-- Node4&#45;&gt;Node19 -->
<g id="edge19" class="edge">
<title>Node4&#45;&gt;Node19</title>
<path fill="none" stroke="#191970" d="M269.4801,-168.2455C282.6751,-159.6534 302.1051,-147.0014 317.3079,-137.1018"/>
<polygon fill="#191970" stroke="#191970" points="319.2215,-140.0325 325.6916,-131.6427 315.4017,-134.1665 319.2215,-140.0325"/>
</g>
<!-- Node7 -->
<g id="node8" class="node">
<title>Node7</title>
<polygon fill="#ffffff" stroke="#bfbfbf" points="3.5,-56.5 3.5,-75.5 59.5,-75.5 59.5,-56.5 3.5,-56.5"/>
<text text-anchor="middle" x="31.5" y="-63.5" font-family="Helvetica,sans-Serif" font-size="10.00" fill="#000000">Eigen/LU</text>
</g>
<!-- Node6&#45;&gt;Node7 -->
<g id="edge7" class="edge">
<title>Node6&#45;&gt;Node7</title>
<path fill="none" stroke="#191970" d="M34.8033,-112.2455C34.2813,-104.9382 33.5496,-94.6944 32.9075,-85.7046"/>
<polygon fill="#191970" stroke="#191970" points="36.3924,-85.3679 32.1888,-75.6427 29.4102,-85.8667 36.3924,-85.3679"/>
</g>
<!-- Node9 -->
<g id="node10" class="node">
<title>Node9</title>
<polygon fill="#ffffff" stroke="#bfbfbf" points="77.5,-56.5 77.5,-75.5 183.5,-75.5 183.5,-56.5 77.5,-56.5"/>
<text text-anchor="middle" x="130.5" y="-63.5" font-family="Helvetica,sans-Serif" font-size="10.00" fill="#000000">pybind11/pybind11.h</text>
</g>
<!-- Node8&#45;&gt;Node9 -->
<g id="edge9" class="edge">
<title>Node8&#45;&gt;Node9</title>
<path fill="none" stroke="#191970" d="M130.5,-112.2455C130.5,-104.9382 130.5,-94.6944 130.5,-85.7046"/>
<polygon fill="#191970" stroke="#191970" points="134.0001,-85.6426 130.5,-75.6427 127.0001,-85.6427 134.0001,-85.6426"/>
</g>
<!-- Node11 -->
<g id="node12" class="node">
<title>Node11</title>
<g id="a_node12"><a xlink:href="std_8h.html" target="_top" xlink:title="This file includes a part of C++ Standard Template Library and defines aliases for them...">
<polygon fill="#ffffff" stroke="#000000" points="371.5,-56.5 371.5,-75.5 433.5,-75.5 433.5,-56.5 371.5,-56.5"/>
<text text-anchor="middle" x="402.5" y="-63.5" font-family="Helvetica,sans-Serif" font-size="10.00" fill="#000000">alias/std.h</text>
</a>
</g>
</g>
<!-- Node10&#45;&gt;Node11 -->
<g id="edge11" class="edge">
<title>Node10&#45;&gt;Node11</title>
<path fill="none" stroke="#191970" d="M260.0679,-112.3733C288.6688,-103.0613 332.1788,-88.8953 363.5819,-78.671"/>
<polygon fill="#191970" stroke="#191970" points="364.8928,-81.9251 373.318,-75.5011 362.7257,-75.269 364.8928,-81.9251"/>
</g>
<!-- Node17 -->
<g id="node18" class="node">
<title>Node17</title>
<g id="a_node18"><a xlink:href="json_8h.html" target="_top" xlink:title="This file includes nlohmann/json and defines an alias for a JSON class. ">
<polygon fill="#ffffff" stroke="#000000" points="201.5,-56.5 201.5,-75.5 267.5,-75.5 267.5,-56.5 201.5,-56.5"/>
<text text-anchor="middle" x="234.5" y="-63.5" font-family="Helvetica,sans-Serif" font-size="10.00" fill="#000000">alias/json.h</text>
</a>
</g>
</g>
<!-- Node10&#45;&gt;Node17 -->
<g id="edge17" class="edge">
<title>Node10&#45;&gt;Node17</title>
<path fill="none" stroke="#191970" d="M231.1967,-112.2455C231.7187,-104.9382 232.4504,-94.6944 233.0925,-85.7046"/>
<polygon fill="#191970" stroke="#191970" points="236.5898,-85.8667 233.8112,-75.6427 229.6076,-85.3679 236.5898,-85.8667"/>
</g>
<!-- Node12 -->
<g id="node13" class="node">
<title>Node12</title>
<polygon fill="#ffffff" stroke="#bfbfbf" points="589.5,-.5 589.5,-19.5 641.5,-19.5 641.5,-.5 589.5,-.5"/>
<text text-anchor="middle" x="615.5" y="-7.5" font-family="Helvetica,sans-Serif" font-size="10.00" fill="#000000">memory</text>
</g>
<!-- Node11&#45;&gt;Node12 -->
<g id="edge12" class="edge">
<title>Node11&#45;&gt;Node12</title>
<path fill="none" stroke="#191970" d="M433.7532,-58.179C467.402,-49.7024 522.7441,-35.5999 579.3195,-20.2777"/>
<polygon fill="#191970" stroke="#191970" points="580.4146,-23.6071 589.1468,-17.607 578.5789,-16.852 580.4146,-23.6071"/>
</g>
<!-- Node13 -->
<g id="node14" class="node">
<title>Node13</title>
<polygon fill="#ffffff" stroke="#bfbfbf" points="270,-.5 270,-19.5 311,-19.5 311,-.5 270,-.5"/>
<text text-anchor="middle" x="290.5" y="-7.5" font-family="Helvetica,sans-Serif" font-size="10.00" fill="#000000">string</text>
</g>
<!-- Node11&#45;&gt;Node13 -->
<g id="edge13" class="edge">
<title>Node11&#45;&gt;Node13</title>
<path fill="none" stroke="#191970" d="M383.2465,-56.3733C365.4288,-47.4644 338.7253,-34.1127 318.5406,-24.0203"/>
<polygon fill="#191970" stroke="#191970" points="320.0118,-20.8428 309.5022,-19.5011 316.8813,-27.1038 320.0118,-20.8428"/>
</g>
<!-- Node14 -->
<g id="node15" class="node">
<title>Node14</title>
<polygon fill="#ffffff" stroke="#bfbfbf" points="329.5,-.5 329.5,-19.5 373.5,-19.5 373.5,-.5 329.5,-.5"/>
<text text-anchor="middle" x="351.5" y="-7.5" font-family="Helvetica,sans-Serif" font-size="10.00" fill="#000000">vector</text>
</g>
<!-- Node11&#45;&gt;Node14 -->
<g id="edge14" class="edge">
<title>Node11&#45;&gt;Node14</title>
<path fill="none" stroke="#191970" d="M393.6165,-56.2455C386.3034,-48.2155 375.7609,-36.6394 367.0533,-27.0781"/>
<polygon fill="#191970" stroke="#191970" points="369.6028,-24.6795 360.2817,-19.6427 364.4273,-29.3928 369.6028,-24.6795"/>
</g>
<!-- Node15 -->
<g id="node16" class="node">
<title>Node15</title>
<polygon fill="#ffffff" stroke="#bfbfbf" points="392,-.5 392,-19.5 475,-19.5 475,-.5 392,-.5"/>
<text text-anchor="middle" x="433.5" y="-7.5" font-family="Helvetica,sans-Serif" font-size="10.00" fill="#000000">unordered_map</text>
</g>
<!-- Node11&#45;&gt;Node15 -->
<g id="edge15" class="edge">
<title>Node11&#45;&gt;Node15</title>
<path fill="none" stroke="#191970" d="M407.8998,-56.2455C412.1227,-48.617 418.1173,-37.7881 423.2441,-28.5267"/>
<polygon fill="#191970" stroke="#191970" points="426.381,-30.0867 428.1621,-19.6427 420.2568,-26.6965 426.381,-30.0867"/>
</g>
<!-- Node16 -->
<g id="node17" class="node">
<title>Node16</title>
<polygon fill="#ffffff" stroke="#bfbfbf" points="493.5,-.5 493.5,-19.5 571.5,-19.5 571.5,-.5 493.5,-.5"/>
<text text-anchor="middle" x="532.5" y="-7.5" font-family="Helvetica,sans-Serif" font-size="10.00" fill="#000000">unordered_set</text>
</g>
<!-- Node11&#45;&gt;Node16 -->
<g id="edge16" class="edge">
<title>Node11&#45;&gt;Node16</title>
<path fill="none" stroke="#191970" d="M424.8478,-56.3733C445.9033,-47.3032 477.6495,-33.6279 501.2175,-23.4755"/>
<polygon fill="#191970" stroke="#191970" points="502.6444,-26.6719 510.4438,-19.5011 499.875,-20.243 502.6444,-26.6719"/>
</g>
<!-- Node18 -->
<g id="node19" class="node">
<title>Node18</title>
<polygon fill="#ffffff" stroke="#bfbfbf" points="153.5,-.5 153.5,-19.5 251.5,-19.5 251.5,-.5 153.5,-.5"/>
<text text-anchor="middle" x="202.5" y="-7.5" font-family="Helvetica,sans-Serif" font-size="10.00" fill="#000000">nlohmann/json.hpp</text>
</g>
<!-- Node17&#45;&gt;Node18 -->
<g id="edge18" class="edge">
<title>Node17&#45;&gt;Node18</title>
<path fill="none" stroke="#191970" d="M228.926,-56.2455C224.5669,-48.617 218.3789,-37.7881 213.0867,-28.5267"/>
<polygon fill="#191970" stroke="#191970" points="216.0104,-26.5886 208.0101,-19.6427 209.9327,-30.0616 216.0104,-26.5886"/>
</g>
<!-- Node19&#45;&gt;Node11 -->
<g id="edge20" class="edge">
<title>Node19&#45;&gt;Node11</title>
<path fill="none" stroke="#191970" d="M351.2996,-112.2455C360.3678,-104.0549 373.5206,-92.1749 384.2245,-82.5069"/>
<polygon fill="#191970" stroke="#191970" points="386.7491,-84.9429 391.8242,-75.6427 382.0571,-79.7482 386.7491,-84.9429"/>
</g>
<!-- Node19&#45;&gt;Node17 -->
<g id="edge21" class="edge">
<title>Node19&#45;&gt;Node17</title>
<path fill="none" stroke="#191970" d="M322.0362,-112.2455C305.3926,-103.4527 280.7007,-90.4079 261.7808,-80.4125"/>
<polygon fill="#191970" stroke="#191970" points="263.2291,-77.2193 252.7522,-75.6427 259.9592,-83.4086 263.2291,-77.2193"/>
</g>
<!-- Node20&#45;&gt;Node4 -->
<g id="edge23" class="edge">
<title>Node20&#45;&gt;Node4</title>
<path fill="none" stroke="#191970" d="M340.3846,-224.2455C324.055,-215.4527 299.829,-202.4079 281.2661,-192.4125"/>
<polygon fill="#191970" stroke="#191970" points="282.8719,-189.3021 272.4078,-187.6427 279.5532,-195.4654 282.8719,-189.3021"/>
</g>
<!-- Node21&#45;&gt;Node4 -->
<g id="edge25" class="edge">
<title>Node21&#45;&gt;Node4</title>
<path fill="none" stroke="#191970" d="M226.4223,-224.2455C231.1027,-216.5367 237.7673,-205.5598 243.4289,-196.2348"/>
<polygon fill="#191970" stroke="#191970" points="246.4475,-198.007 248.6455,-187.6427 240.4639,-194.3741 246.4475,-198.007"/>
</g>
<!-- Node22&#45;&gt;Node11 -->
<g id="edge27" class="edge">
<title>Node22&#45;&gt;Node11</title>
<path fill="none" stroke="#191970" d="M468.2193,-336.4486C471.5374,-317.1572 478.5,-272.1337 478.5,-234 478.5,-234 478.5,-234 478.5,-178 478.5,-147.4754 476.3823,-137.4311 459.5,-112 451.3977,-99.7949 439.0446,-89.2592 427.9072,-81.362"/>
<polygon fill="#191970" stroke="#191970" points="429.5943,-78.2791 419.3404,-75.6129 425.6935,-84.0916 429.5943,-78.2791"/>
</g>
</g>
</svg>
