<?xml version="1.0" encoding="UTF-8" standalone="no"?>
<!DOCTYPE svg PUBLIC "-//W3C//DTD SVG 1.1//EN"
 "http://www.w3.org/Graphics/SVG/1.1/DTD/svg11.dtd">
<!-- Generated by graphviz version 2.40.1 (20161225.0304)
 -->
<!-- Title: src/invokers/invoker.h Pages: 1 -->
<svg width="392pt" height="274pt"
 viewBox="0.00 0.00 391.50 274.00" xmlns="http://www.w3.org/2000/svg" xmlns:xlink="http://www.w3.org/1999/xlink">
<g id="graph0" class="graph" transform="scale(1 1) rotate(0) translate(4 270)">
<title>src/invokers/invoker.h</title>
<polygon fill="#ffffff" stroke="transparent" points="-4,4 -4,-270 387.5,-270 387.5,4 -4,4"/>
<!-- Node21 -->
<g id="node1" class="node">
<title>Node21</title>
<polygon fill="#bfbfbf" stroke="#000000" points="146.5,-246.5 146.5,-265.5 259.5,-265.5 259.5,-246.5 146.5,-246.5"/>
<text text-anchor="middle" x="203" y="-253.5" font-family="Helvetica,sans-Serif" font-size="10.00" fill="#000000">src/invokers/invoker.h</text>
</g>
<!-- Node22 -->
<g id="node2" class="node">
<title>Node22</title>
<g id="a_node2"><a xlink:href="inv__omp_8h.html" target="_top" xlink:title="This file has a definition of InvOMP class, which is a subclass of Invoker class. ...">
<polygon fill="#ffffff" stroke="#000000" points="5,-185 5,-204 123,-204 123,-185 5,-185"/>
<text text-anchor="middle" x="64" y="-192" font-family="Helvetica,sans-Serif" font-size="10.00" fill="#000000">src/invokers/inv_omp.h</text>
</a>
</g>
</g>
<!-- Node21&#45;&gt;Node22 -->
<g id="edge1" class="edge">
<title>Node21&#45;&gt;Node22</title>
<path fill="none" stroke="#191970" d="M172.1325,-242.3428C145.8494,-230.7139 108.7628,-214.3051 85.5662,-204.0419"/>
<polygon fill="#191970" stroke="#191970" points="170.7202,-245.5452 181.2813,-246.3906 173.5525,-239.1437 170.7202,-245.5452"/>
</g>
<!-- Node27 -->
<g id="node7" class="node">
<title>Node27</title>
<g id="a_node7"><a xlink:href="invoker_8cpp.html" target="_top" xlink:title="This file has an implementation of Invoker class, which executes one or more analysis. ">
<polygon fill="#ffffff" stroke="#000000" points="141.5,-185 141.5,-204 264.5,-204 264.5,-185 141.5,-185"/>
<text text-anchor="middle" x="203" y="-192" font-family="Helvetica,sans-Serif" font-size="10.00" fill="#000000">src/invokers/invoker.cpp</text>
</a>
</g>
</g>
<!-- Node21&#45;&gt;Node27 -->
<g id="edge6" class="edge">
<title>Node21&#45;&gt;Node27</title>
<path fill="none" stroke="#191970" d="M203,-236.2462C203,-225.5519 203,-212.814 203,-204.2449"/>
<polygon fill="#191970" stroke="#191970" points="199.5001,-236.3906 203,-246.3906 206.5001,-236.3907 199.5001,-236.3906"/>
</g>
<!-- Node28 -->
<g id="node8" class="node">
<title>Node28</title>
<g id="a_node8"><a xlink:href="py__invoker_8h.html" target="_top" xlink:title="This file is for binding Invoker class to Python. ">
<polygon fill="#ffffff" stroke="#000000" points="282.5,-179.5 282.5,-209.5 383.5,-209.5 383.5,-179.5 282.5,-179.5"/>
<text text-anchor="start" x="290.5" y="-197.5" font-family="Helvetica,sans-Serif" font-size="10.00" fill="#000000">src/pybind/invokers</text>
<text text-anchor="middle" x="333" y="-186.5" font-family="Helvetica,sans-Serif" font-size="10.00" fill="#000000">/py_invoker.h</text>
</a>
</g>
</g>
<!-- Node21&#45;&gt;Node28 -->
<g id="edge7" class="edge">
<title>Node21&#45;&gt;Node28</title>
<path fill="none" stroke="#191970" d="M232.48,-242.0537C252.96,-232.3651 280.2296,-219.4644 301.1984,-209.5446"/>
<polygon fill="#191970" stroke="#191970" points="230.8553,-238.9504 223.3125,-246.3906 233.8488,-245.278 230.8553,-238.9504"/>
</g>
<!-- Node23 -->
<g id="node3" class="node">
<title>Node23</title>
<g id="a_node3"><a xlink:href="inv__omp_8cpp.html" target="_top" xlink:title="This file has an implementation of InvOMP class, which is a subclass of Invoker class. ">
<polygon fill="#ffffff" stroke="#000000" points="0,-118 0,-137 128,-137 128,-118 0,-118"/>
<text text-anchor="middle" x="64" y="-125" font-family="Helvetica,sans-Serif" font-size="10.00" fill="#000000">src/invokers/inv_omp.cpp</text>
</a>
</g>
</g>
<!-- Node22&#45;&gt;Node23 -->
<g id="edge2" class="edge">
<title>Node22&#45;&gt;Node23</title>
<path fill="none" stroke="#191970" d="M64,-174.6079C64,-162.214 64,-146.8263 64,-137.0817"/>
<polygon fill="#191970" stroke="#191970" points="60.5001,-174.9005 64,-184.9005 67.5001,-174.9006 60.5001,-174.9005"/>
</g>
<!-- Node24 -->
<g id="node4" class="node">
<title>Node24</title>
<g id="a_node4"><a xlink:href="py__inv__omp_8h.html" target="_top" xlink:title="This file is for binding InvOMP class to Python. ">
<polygon fill="#ffffff" stroke="#000000" points="203.5,-112.5 203.5,-142.5 304.5,-142.5 304.5,-112.5 203.5,-112.5"/>
<text text-anchor="start" x="211.5" y="-130.5" font-family="Helvetica,sans-Serif" font-size="10.00" fill="#000000">src/pybind/invokers</text>
<text text-anchor="middle" x="254" y="-119.5" font-family="Helvetica,sans-Serif" font-size="10.00" fill="#000000">/py_inv_omp.h</text>
</a>
</g>
</g>
<!-- Node22&#45;&gt;Node24 -->
<g id="edge3" class="edge">
<title>Node22&#45;&gt;Node24</title>
<path fill="none" stroke="#191970" d="M100.9776,-181.4605C132.6342,-170.2974 178.2224,-154.2216 211.401,-142.5218"/>
<polygon fill="#191970" stroke="#191970" points="99.4892,-178.2741 91.2224,-184.9005 101.8172,-184.8757 99.4892,-178.2741"/>
</g>
<!-- Node25 -->
<g id="node5" class="node">
<title>Node25</title>
<g id="a_node5"><a xlink:href="pybind_8h.html" target="_top" xlink:title="This file includes all the header files containing definitions of functions to bind C++ and Python...">
<polygon fill="#ffffff" stroke="#000000" points="258,-56.5 258,-75.5 328,-75.5 328,-56.5 258,-56.5"/>
<text text-anchor="middle" x="293" y="-63.5" font-family="Helvetica,sans-Serif" font-size="10.00" fill="#000000">src/pybind.h</text>
</a>
</g>
</g>
<!-- Node24&#45;&gt;Node25 -->
<g id="edge4" class="edge">
<title>Node24&#45;&gt;Node25</title>
<path fill="none" stroke="#191970" d="M269.0431,-103.7782C275.2001,-94.069 281.9835,-83.3722 286.7556,-75.8469"/>
<polygon fill="#191970" stroke="#191970" points="266.0401,-101.9782 263.6405,-112.2977 271.9517,-105.7271 266.0401,-101.9782"/>
</g>
<!-- Node26 -->
<g id="node6" class="node">
<title>Node26</title>
<g id="a_node6"><a xlink:href="ppap4lmp_8cpp.html" target="_top" xlink:title="This file has no implementation, only includes a header file to bind C++ and Python. ">
<polygon fill="#ffffff" stroke="#000000" points="246,-.5 246,-19.5 340,-19.5 340,-.5 246,-.5"/>
<text text-anchor="middle" x="293" y="-7.5" font-family="Helvetica,sans-Serif" font-size="10.00" fill="#000000">src/ppap4lmp.cpp</text>
</a>
</g>
</g>
<!-- Node25&#45;&gt;Node26 -->
<g id="edge5" class="edge">
<title>Node25&#45;&gt;Node26</title>
<path fill="none" stroke="#191970" d="M293,-46.1575C293,-37.155 293,-26.9199 293,-19.6427"/>
<polygon fill="#191970" stroke="#191970" points="289.5001,-46.2455 293,-56.2455 296.5001,-46.2456 289.5001,-46.2455"/>
</g>
<!-- Node28&#45;&gt;Node24 -->
<g id="edge9" class="edge">
<title>Node28&#45;&gt;Node24</title>
<path fill="none" stroke="#191970" d="M307.3908,-172.7808C295.7854,-162.9383 282.3468,-151.541 271.8554,-142.6432"/>
<polygon fill="#191970" stroke="#191970" points="305.1833,-175.4978 315.0737,-179.2967 309.711,-170.1593 305.1833,-175.4978"/>
</g>
<!-- Node28&#45;&gt;Node25 -->
<g id="edge8" class="edge">
<title>Node28&#45;&gt;Node25</title>
<path fill="none" stroke="#191970" d="M328.5792,-169.3518C325.3397,-152.8179 320.3958,-130.8376 314,-112 309.597,-99.0319 302.7621,-84.7871 298.0941,-75.6372"/>
<polygon fill="#191970" stroke="#191970" points="325.1703,-170.1628 330.46,-179.3426 332.0495,-168.8677 325.1703,-170.1628"/>
</g>
</g>
</svg>
