<?xml version="1.0" encoding="UTF-8" standalone="no"?>
<!DOCTYPE svg PUBLIC "-//W3C//DTD SVG 1.1//EN"
 "http://www.w3.org/Graphics/SVG/1.1/DTD/svg11.dtd">
<!-- Generated by graphviz version 2.40.1 (20161225.0304)
 -->
<!-- Title: src/utils/map_to_index.h Pages: 1 -->
<svg width="1579pt" height="106pt"
 viewBox="0.00 0.00 1578.50 106.00" xmlns="http://www.w3.org/2000/svg" xmlns:xlink="http://www.w3.org/1999/xlink">
<g id="graph0" class="graph" transform="scale(1 1) rotate(0) translate(4 102)">
<title>src/utils/map_to_index.h</title>
<polygon fill="#ffffff" stroke="transparent" points="-4,4 -4,-102 1574.5,-102 1574.5,4 -4,4"/>
<!-- Node9 -->
<g id="node1" class="node">
<title>Node9</title>
<polygon fill="#bfbfbf" stroke="#000000" points="689,-78.5 689,-97.5 812,-97.5 812,-78.5 689,-78.5"/>
<text text-anchor="middle" x="750.5" y="-85.5" font-family="Helvetica,sans-Serif" font-size="10.00" fill="#000000">src/utils/map_to_index.h</text>
</g>
<!-- Node10 -->
<g id="node2" class="node">
<title>Node10</title>
<g id="a_node2"><a xlink:href="add__bond__angle_8cpp.html" target="_top" xlink:title="This file has an implementation of AddBondAngle class, which is a subclass of Adder class...">
<polygon fill="#ffffff" stroke="#000000" points="0,-6 0,-36 107,-36 107,-6 0,-6"/>
<text text-anchor="start" x="8" y="-24" font-family="Helvetica,sans-Serif" font-size="10.00" fill="#000000">src/adders/add_bond</text>
<text text-anchor="middle" x="53.5" y="-13" font-family="Helvetica,sans-Serif" font-size="10.00" fill="#000000">_angle.cpp</text>
</a>
</g>
</g>
<!-- Node9&#45;&gt;Node10 -->
<g id="edge1" class="edge">
<title>Node9&#45;&gt;Node10</title>
<path fill="none" stroke="#191970" d="M678.574,-85.0921C535.8298,-78.9423 221.3939,-63.4049 115.5,-42 108.1481,-40.5139 100.466,-38.3983 93.1127,-36.0765"/>
<polygon fill="#191970" stroke="#191970" points="678.8217,-88.6057 688.962,-85.5361 679.1206,-81.6121 678.8217,-88.6057"/>
</g>
<!-- Node11 -->
<g id="node3" class="node">
<title>Node11</title>
<g id="a_node3"><a xlink:href="add__bond__length_8cpp.html" target="_top" xlink:title="This file has an implementation of AddBondLength class, which is a subclass of Adder class...">
<polygon fill="#ffffff" stroke="#000000" points="125,-6 125,-36 232,-36 232,-6 125,-6"/>
<text text-anchor="start" x="133" y="-24" font-family="Helvetica,sans-Serif" font-size="10.00" fill="#000000">src/adders/add_bond</text>
<text text-anchor="middle" x="178.5" y="-13" font-family="Helvetica,sans-Serif" font-size="10.00" fill="#000000">_length.cpp</text>
</a>
</g>
</g>
<!-- Node9&#45;&gt;Node11 -->
<g id="edge2" class="edge">
<title>Node9&#45;&gt;Node11</title>
<path fill="none" stroke="#191970" d="M678.5439,-83.6175C558.4209,-75.9478 322.1643,-59.2582 240.5,-42 233.2727,-40.4726 225.7184,-38.367 218.4692,-36.0753"/>
<polygon fill="#191970" stroke="#191970" points="678.5428,-87.1244 688.7444,-84.2649 678.9862,-80.1385 678.5428,-87.1244"/>
</g>
<!-- Node12 -->
<g id="node4" class="node">
<title>Node12</title>
<g id="a_node4"><a xlink:href="add__child__ids_8cpp.html" target="_top" xlink:title="This file has an implementation of AddChildIDs class, which is a subclass of Adder class...">
<polygon fill="#ffffff" stroke="#000000" points="250,-6 250,-36 357,-36 357,-6 250,-6"/>
<text text-anchor="start" x="258" y="-24" font-family="Helvetica,sans-Serif" font-size="10.00" fill="#000000">src/adders/add_child</text>
<text text-anchor="middle" x="303.5" y="-13" font-family="Helvetica,sans-Serif" font-size="10.00" fill="#000000">_ids.cpp</text>
</a>
</g>
</g>
<!-- Node9&#45;&gt;Node12 -->
<g id="edge3" class="edge">
<title>Node9&#45;&gt;Node12</title>
<path fill="none" stroke="#191970" d="M678.6321,-83.8856C600.7233,-78.3915 473.099,-66.372 365.5,-42 358.4064,-40.3932 350.9846,-38.2774 343.842,-36.0073"/>
<polygon fill="#191970" stroke="#191970" points="678.6022,-87.3917 688.8189,-84.5867 679.0829,-80.4083 678.6022,-87.3917"/>
</g>
<!-- Node13 -->
<g id="node5" class="node">
<title>Node13</title>
<g id="a_node5"><a xlink:href="add__child__positions_8cpp.html" target="_top" xlink:title="This file has an implementation of AddChildPositions class, which is a subclass of Adder class...">
<polygon fill="#ffffff" stroke="#000000" points="375,-6 375,-36 482,-36 482,-6 375,-6"/>
<text text-anchor="start" x="383" y="-24" font-family="Helvetica,sans-Serif" font-size="10.00" fill="#000000">src/adders/add_child</text>
<text text-anchor="middle" x="428.5" y="-13" font-family="Helvetica,sans-Serif" font-size="10.00" fill="#000000">_positions.cpp</text>
</a>
</g>
</g>
<!-- Node9&#45;&gt;Node13 -->
<g id="edge4" class="edge">
<title>Node9&#45;&gt;Node13</title>
<path fill="none" stroke="#191970" d="M678.8355,-78.3082C626.2666,-70.4776 553.3878,-58.1146 490.5,-42 483.8947,-40.3074 476.9798,-38.2547 470.2634,-36.1036"/>
<polygon fill="#191970" stroke="#191970" points="678.3353,-81.7722 688.7384,-79.7655 679.3545,-74.8468 678.3353,-81.7722"/>
</g>
<!-- Node14 -->
<g id="node6" class="node">
<title>Node14</title>
<g id="a_node6"><a xlink:href="add__com__position_8cpp.html" target="_top" xlink:title="This file has an implementation of AddCoMPosition class, which is a subclass of Adder class...">
<polygon fill="#ffffff" stroke="#000000" points="500,-6 500,-36 605,-36 605,-6 500,-6"/>
<text text-anchor="start" x="508" y="-24" font-family="Helvetica,sans-Serif" font-size="10.00" fill="#000000">src/adders/add_com</text>
<text text-anchor="middle" x="552.5" y="-13" font-family="Helvetica,sans-Serif" font-size="10.00" fill="#000000">_position.cpp</text>
</a>
</g>
</g>
<!-- Node9&#45;&gt;Node14 -->
<g id="edge5" class="edge">
<title>Node9&#45;&gt;Node14</title>
<path fill="none" stroke="#191970" d="M712.8133,-75.2578C685.5142,-66.0266 647.7229,-53.245 614.5,-42 608.7947,-40.0689 602.7944,-38.0373 596.8656,-36.0296"/>
<polygon fill="#191970" stroke="#191970" points="711.774,-78.601 722.3682,-78.4887 714.0163,-71.9698 711.774,-78.601"/>
</g>
<!-- Node15 -->
<g id="node7" class="node">
<title>Node15</title>
<g id="a_node7"><a xlink:href="add__dihedral__angle_8cpp.html" target="_top" xlink:title="This file has an implementation of AddDihedralAngle class, which is a subclass of Adder class...">
<polygon fill="#ffffff" stroke="#000000" points="623.5,-6 623.5,-36 743.5,-36 743.5,-6 623.5,-6"/>
<text text-anchor="start" x="631.5" y="-24" font-family="Helvetica,sans-Serif" font-size="10.00" fill="#000000">src/adders/add_dihedral</text>
<text text-anchor="middle" x="683.5" y="-13" font-family="Helvetica,sans-Serif" font-size="10.00" fill="#000000">_angle.cpp</text>
</a>
</g>
</g>
<!-- Node9&#45;&gt;Node15 -->
<g id="edge6" class="edge">
<title>Node9&#45;&gt;Node15</title>
<path fill="none" stroke="#191970" d="M733.6753,-71.1753C722.8691,-60.3691 708.9553,-46.4553 698.5218,-36.0218"/>
<polygon fill="#191970" stroke="#191970" points="731.3546,-73.8043 740.9005,-78.4005 736.3043,-68.8546 731.3546,-73.8043"/>
</g>
<!-- Node16 -->
<g id="node8" class="node">
<title>Node16</title>
<g id="a_node8"><a xlink:href="add__inertia__moment_8cpp.html" target="_top" xlink:title="This file has an implementation of the AddInertiaMoment class, which is a subclass of Adder class...">
<polygon fill="#ffffff" stroke="#000000" points="762,-6 762,-36 875,-36 875,-6 762,-6"/>
<text text-anchor="start" x="770" y="-24" font-family="Helvetica,sans-Serif" font-size="10.00" fill="#000000">src/adders/add_inertia</text>
<text text-anchor="middle" x="818.5" y="-13" font-family="Helvetica,sans-Serif" font-size="10.00" fill="#000000">_moment.cpp</text>
</a>
</g>
</g>
<!-- Node9&#45;&gt;Node16 -->
<g id="edge7" class="edge">
<title>Node9&#45;&gt;Node16</title>
<path fill="none" stroke="#191970" d="M767.5758,-71.1753C778.5434,-60.3691 792.6647,-46.4553 803.254,-36.0218"/>
<polygon fill="#191970" stroke="#191970" points="764.9095,-68.8889 760.2427,-78.4005 769.8225,-73.8752 764.9095,-68.8889"/>
</g>
<!-- Node17 -->
<g id="node9" class="node">
<title>Node17</title>
<g id="a_node9"><a xlink:href="add__special__bonds_8cpp.html" target="_top" xlink:title="This file has an implementation of AddSpecialBonds class, which is a subclass of Adder class...">
<polygon fill="#ffffff" stroke="#000000" points="893,-6 893,-36 1010,-36 1010,-6 893,-6"/>
<text text-anchor="start" x="901" y="-24" font-family="Helvetica,sans-Serif" font-size="10.00" fill="#000000">src/adders/add_special</text>
<text text-anchor="middle" x="951.5" y="-13" font-family="Helvetica,sans-Serif" font-size="10.00" fill="#000000">_bonds.cpp</text>
</a>
</g>
</g>
<!-- Node9&#45;&gt;Node17 -->
<g id="edge8" class="edge">
<title>Node9&#45;&gt;Node17</title>
<path fill="none" stroke="#191970" d="M789.1843,-75.1052C822.6899,-63.9367 871.1834,-47.7722 906.4347,-36.0218"/>
<polygon fill="#191970" stroke="#191970" points="787.6784,-71.9178 779.2984,-78.4005 789.8921,-78.5586 787.6784,-71.9178"/>
</g>
<!-- Node18 -->
<g id="node10" class="node">
<title>Node18</title>
<g id="a_node10"><a xlink:href="pro__distance__in__molecule_8cpp.html" target="_top" xlink:title="This file has an implementation of ProDistanceInMolecule class, which is a subclass of Processor clas...">
<polygon fill="#ffffff" stroke="#000000" points="1028.5,-6 1028.5,-36 1162.5,-36 1162.5,-6 1028.5,-6"/>
<text text-anchor="start" x="1036.5" y="-24" font-family="Helvetica,sans-Serif" font-size="10.00" fill="#000000">src/processors/pro</text>
<text text-anchor="middle" x="1095.5" y="-13" font-family="Helvetica,sans-Serif" font-size="10.00" fill="#000000">_distance_in_molecule.cpp</text>
</a>
</g>
</g>
<!-- Node9&#45;&gt;Node18 -->
<g id="edge9" class="edge">
<title>Node9&#45;&gt;Node18</title>
<path fill="none" stroke="#191970" d="M821.9028,-77.7851C876.3344,-69.5168 953.003,-56.8335 1019.5,-42 1027.3827,-40.2416 1035.6688,-38.1783 1043.7536,-36.044"/>
<polygon fill="#191970" stroke="#191970" points="821.372,-74.3255 812.0055,-79.2771 822.4156,-81.2472 821.372,-74.3255"/>
</g>
<!-- Node19 -->
<g id="node11" class="node">
<title>Node19</title>
<g id="a_node11"><a xlink:href="pro__time__correlation__in__molecule_8cpp.html" target="_top" xlink:title="This file has an implementation of ProTimeCorrelationInMolecule class, which is a subclass of Process...">
<polygon fill="#ffffff" stroke="#000000" points="1180.5,-.5 1180.5,-41.5 1284.5,-41.5 1284.5,-.5 1180.5,-.5"/>
<text text-anchor="start" x="1188.5" y="-29.5" font-family="Helvetica,sans-Serif" font-size="10.00" fill="#000000">src/processors/pro</text>
<text text-anchor="start" x="1188.5" y="-18.5" font-family="Helvetica,sans-Serif" font-size="10.00" fill="#000000">_time_correlation_in</text>
<text text-anchor="middle" x="1232.5" y="-7.5" font-family="Helvetica,sans-Serif" font-size="10.00" fill="#000000">_molecule.cpp</text>
</a>
</g>
</g>
<!-- Node9&#45;&gt;Node19 -->
<g id="edge10" class="edge">
<title>Node9&#45;&gt;Node19</title>
<path fill="none" stroke="#191970" d="M822.2005,-85.0277C906.6277,-80.4137 1050.6699,-69.0445 1171.5,-42 1174.4511,-41.3395 1177.4582,-40.5847 1180.4767,-39.7629"/>
<polygon fill="#191970" stroke="#191970" points="822.0063,-81.533 812.2056,-85.5575 822.3769,-88.5232 822.0063,-81.533"/>
</g>
<!-- Node20 -->
<g id="node12" class="node">
<title>Node20</title>
<g id="a_node12"><a xlink:href="starter_8cpp.html" target="_top" xlink:title="This file has an implementation of Starter class, which is a subclass of Updater class. ">
<polygon fill="#ffffff" stroke="#000000" points="1302.5,-11.5 1302.5,-30.5 1418.5,-30.5 1418.5,-11.5 1302.5,-11.5"/>
<text text-anchor="middle" x="1360.5" y="-18.5" font-family="Helvetica,sans-Serif" font-size="10.00" fill="#000000">src/starters/starter.cpp</text>
</a>
</g>
</g>
<!-- Node9&#45;&gt;Node20 -->
<g id="edge11" class="edge">
<title>Node9&#45;&gt;Node20</title>
<path fill="none" stroke="#191970" d="M822.7575,-83.8506C949.1595,-76.2628 1205.3513,-59.33 1293.5,-42 1307.3747,-39.2722 1322.4321,-34.7047 1334.7515,-30.5248"/>
<polygon fill="#191970" stroke="#191970" points="822.1851,-80.3785 812.4115,-84.4682 822.6023,-87.366 822.1851,-80.3785"/>
</g>
<!-- Node21 -->
<g id="node13" class="node">
<title>Node21</title>
<g id="a_node13"><a xlink:href="map__to__index_8cpp.html" target="_top" xlink:title="This file has an implementation of utils::map_to_index. ">
<polygon fill="#ffffff" stroke="#000000" points="1436.5,-11.5 1436.5,-30.5 1570.5,-30.5 1570.5,-11.5 1436.5,-11.5"/>
<text text-anchor="middle" x="1503.5" y="-18.5" font-family="Helvetica,sans-Serif" font-size="10.00" fill="#000000">src/utils/map_to_index.cpp</text>
</a>
</g>
</g>
<!-- Node9&#45;&gt;Node21 -->
<g id="edge12" class="edge">
<title>Node9&#45;&gt;Node21</title>
<path fill="none" stroke="#191970" d="M822.2412,-84.9603C971.8511,-78.3209 1312.7692,-61.5427 1427.5,-42 1443.1536,-39.3336 1460.2257,-34.7719 1474.2166,-30.5799"/>
<polygon fill="#191970" stroke="#191970" points="822.0725,-81.4643 812.2365,-85.4019 822.3811,-88.4575 822.0725,-81.4643"/>
</g>
</g>
</svg>
