<?xml version="1.0" encoding="UTF-8" standalone="no"?>
<!DOCTYPE svg PUBLIC "-//W3C//DTD SVG 1.1//EN"
 "http://www.w3.org/Graphics/SVG/1.1/DTD/svg11.dtd">
<!-- Generated by graphviz version 2.40.1 (20161225.0304)
 -->
<!-- Title: src/utils/map_to_index.h Pages: 1 -->
<svg width="782pt" height="95pt"
 viewBox="0.00 0.00 781.50 95.00" xmlns="http://www.w3.org/2000/svg" xmlns:xlink="http://www.w3.org/1999/xlink">
<g id="graph0" class="graph" transform="scale(1 1) rotate(0) translate(4 91)">
<title>src/utils/map_to_index.h</title>
<polygon fill="#ffffff" stroke="transparent" points="-4,4 -4,-91 777.5,-91 777.5,4 -4,4"/>
<!-- Node9 -->
<g id="node1" class="node">
<title>Node9</title>
<polygon fill="#bfbfbf" stroke="#000000" points="304,-67.5 304,-86.5 427,-86.5 427,-67.5 304,-67.5"/>
<text text-anchor="middle" x="365.5" y="-74.5" font-family="Helvetica,sans-Serif" font-size="10.00" fill="#000000">src/utils/map_to_index.h</text>
</g>
<!-- Node10 -->
<g id="node2" class="node">
<title>Node10</title>
<g id="a_node2"><a xlink:href="add__child__ids_8cpp.html" target="_top" xlink:title="This file has implementations of the AddChildIDs class, which is a subclass of the Adder class...">
<polygon fill="#ffffff" stroke="#000000" points="0,-.5 0,-30.5 107,-30.5 107,-.5 0,-.5"/>
<text text-anchor="start" x="8" y="-18.5" font-family="Helvetica,sans-Serif" font-size="10.00" fill="#000000">src/adders/add_child</text>
<text text-anchor="middle" x="53.5" y="-7.5" font-family="Helvetica,sans-Serif" font-size="10.00" fill="#000000">_ids.cpp</text>
</a>
</g>
</g>
<!-- Node9&#45;&gt;Node10 -->
<g id="edge1" class="edge">
<title>Node9&#45;&gt;Node10</title>
<path fill="none" stroke="#191970" d="M297.5769,-65.6937C247.166,-57.0136 176.8317,-44.2952 115.5,-31 112.7892,-30.4124 110.0165,-29.7917 107.22,-29.15"/>
<polygon fill="#191970" stroke="#191970" points="297.2552,-69.1895 307.7027,-67.4291 298.4376,-62.2901 297.2552,-69.1895"/>
</g>
<!-- Node11 -->
<g id="node3" class="node">
<title>Node11</title>
<g id="a_node3"><a xlink:href="add__child__positions_8cpp.html" target="_top" xlink:title="This file has implementations of the AddChildPositions class, which is a subclass of the Adder class...">
<polygon fill="#ffffff" stroke="#000000" points="125,-.5 125,-30.5 232,-30.5 232,-.5 125,-.5"/>
<text text-anchor="start" x="133" y="-18.5" font-family="Helvetica,sans-Serif" font-size="10.00" fill="#000000">src/adders/add_child</text>
<text text-anchor="middle" x="178.5" y="-7.5" font-family="Helvetica,sans-Serif" font-size="10.00" fill="#000000">_positions.cpp</text>
</a>
</g>
</g>
<!-- Node9&#45;&gt;Node11 -->
<g id="edge2" class="edge">
<title>Node9&#45;&gt;Node11</title>
<path fill="none" stroke="#191970" d="M326.6435,-64.221C296.8444,-54.4207 255.6365,-40.8684 224.2453,-30.5446"/>
<polygon fill="#191970" stroke="#191970" points="325.6883,-67.5912 336.2813,-67.3906 327.8753,-60.9416 325.6883,-67.5912"/>
</g>
<!-- Node12 -->
<g id="node4" class="node">
<title>Node12</title>
<g id="a_node4"><a xlink:href="add__com__position_8cpp.html" target="_top" xlink:title="This file has implementations of the AddCoMPosition class, which is a subclass of the Adder class...">
<polygon fill="#ffffff" stroke="#000000" points="250,-.5 250,-30.5 355,-30.5 355,-.5 250,-.5"/>
<text text-anchor="start" x="258" y="-18.5" font-family="Helvetica,sans-Serif" font-size="10.00" fill="#000000">src/adders/add_com</text>
<text text-anchor="middle" x="302.5" y="-7.5" font-family="Helvetica,sans-Serif" font-size="10.00" fill="#000000">_position.cpp</text>
</a>
</g>
</g>
<!-- Node9&#45;&gt;Node12 -->
<g id="edge3" class="edge">
<title>Node9&#45;&gt;Node12</title>
<path fill="none" stroke="#191970" d="M348.3006,-60.2101C338.8047,-50.9403 327.1077,-39.5218 317.9115,-30.5446"/>
<polygon fill="#191970" stroke="#191970" points="346.0556,-62.9097 355.6563,-67.3906 350.9454,-57.9007 346.0556,-62.9097"/>
</g>
<!-- Node13 -->
<g id="node5" class="node">
<title>Node13</title>
<g id="a_node5"><a xlink:href="add__inertia__moment_8cpp.html" target="_top" xlink:title="This file has implementations of the AddInertiaMoment class, which is a subclass of the Adder class...">
<polygon fill="#ffffff" stroke="#000000" points="373,-.5 373,-30.5 486,-30.5 486,-.5 373,-.5"/>
<text text-anchor="start" x="381" y="-18.5" font-family="Helvetica,sans-Serif" font-size="10.00" fill="#000000">src/adders/add_inertia</text>
<text text-anchor="middle" x="429.5" y="-7.5" font-family="Helvetica,sans-Serif" font-size="10.00" fill="#000000">_moment.cpp</text>
</a>
</g>
</g>
<!-- Node9&#45;&gt;Node13 -->
<g id="edge4" class="edge">
<title>Node9&#45;&gt;Node13</title>
<path fill="none" stroke="#191970" d="M382.9724,-60.2101C392.6191,-50.9403 404.5017,-39.5218 413.8438,-30.5446"/>
<polygon fill="#191970" stroke="#191970" points="380.2854,-57.9381 375.5,-67.3906 385.1356,-62.9854 380.2854,-57.9381"/>
</g>
<!-- Node14 -->
<g id="node6" class="node">
<title>Node14</title>
<g id="a_node6"><a xlink:href="add__special__bonds_8cpp.html" target="_top" xlink:title="This file has implementations of the AddSpecialBonds class, which is a subclass of the Adder class...">
<polygon fill="#ffffff" stroke="#000000" points="504,-.5 504,-30.5 621,-30.5 621,-.5 504,-.5"/>
<text text-anchor="start" x="512" y="-18.5" font-family="Helvetica,sans-Serif" font-size="10.00" fill="#000000">src/adders/add_special</text>
<text text-anchor="middle" x="562.5" y="-7.5" font-family="Helvetica,sans-Serif" font-size="10.00" fill="#000000">_bonds.cpp</text>
</a>
</g>
</g>
<!-- Node9&#45;&gt;Node14 -->
<g id="edge5" class="edge">
<title>Node9&#45;&gt;Node14</title>
<path fill="none" stroke="#191970" d="M406.0256,-64.3486C437.4494,-54.5386 481.0948,-40.9133 514.3084,-30.5446"/>
<polygon fill="#191970" stroke="#191970" points="404.7839,-61.0696 396.2813,-67.3906 406.8699,-67.7515 404.7839,-61.0696"/>
</g>
<!-- Node15 -->
<g id="node7" class="node">
<title>Node15</title>
<g id="a_node7"><a xlink:href="map__to__index_8cpp.html" target="_top" xlink:title="This file has an implementation of utils::map_to_index. ">
<polygon fill="#ffffff" stroke="#000000" points="639.5,-6 639.5,-25 773.5,-25 773.5,-6 639.5,-6"/>
<text text-anchor="middle" x="706.5" y="-13" font-family="Helvetica,sans-Serif" font-size="10.00" fill="#000000">src/utils/map_to_index.cpp</text>
</a>
</g>
</g>
<!-- Node9&#45;&gt;Node15 -->
<g id="edge6" class="edge">
<title>Node9&#45;&gt;Node15</title>
<path fill="none" stroke="#191970" d="M433.2937,-65.7947C486.8934,-56.7998 563.5768,-43.63 630.5,-31 640.292,-29.152 650.7734,-27.0773 660.7274,-25.0612"/>
<polygon fill="#191970" stroke="#191970" points="432.5114,-62.3769 423.2268,-67.4806 433.6676,-69.2808 432.5114,-62.3769"/>
</g>
</g>
</svg>
