<?xml version="1.0" encoding="UTF-8" standalone="no"?>
<!DOCTYPE svg PUBLIC "-//W3C//DTD SVG 1.1//EN"
 "http://www.w3.org/Graphics/SVG/1.1/DTD/svg11.dtd">
<!-- Generated by graphviz version 2.40.1 (20161225.0304)
 -->
<!-- Title: src/utils/map_to_index.h Pages: 1 -->
<svg width="916pt" height="95pt"
 viewBox="0.00 0.00 915.50 95.00" xmlns="http://www.w3.org/2000/svg" xmlns:xlink="http://www.w3.org/1999/xlink">
<g id="graph0" class="graph" transform="scale(1 1) rotate(0) translate(4 91)">
<title>src/utils/map_to_index.h</title>
<polygon fill="#ffffff" stroke="transparent" points="-4,4 -4,-91 911.5,-91 911.5,4 -4,4"/>
<!-- Node9 -->
<g id="node1" class="node">
<title>Node9</title>
<polygon fill="#bfbfbf" stroke="#000000" points="368,-67.5 368,-86.5 491,-86.5 491,-67.5 368,-67.5"/>
<text text-anchor="middle" x="429.5" y="-74.5" font-family="Helvetica,sans-Serif" font-size="10.00" fill="#000000">src/utils/map_to_index.h</text>
</g>
<!-- Node10 -->
<g id="node2" class="node">
<title>Node10</title>
<g id="a_node2"><a xlink:href="add__child__ids_8cpp.html" target="_top" xlink:title="This file has an implementation of AddChildIDs class, which is a subclass of Adder class...">
<polygon fill="#ffffff" stroke="#000000" points="0,-.5 0,-30.5 107,-30.5 107,-.5 0,-.5"/>
<text text-anchor="start" x="8" y="-18.5" font-family="Helvetica,sans-Serif" font-size="10.00" fill="#000000">src/adders/add_child</text>
<text text-anchor="middle" x="53.5" y="-7.5" font-family="Helvetica,sans-Serif" font-size="10.00" fill="#000000">_ids.cpp</text>
</a>
</g>
</g>
<!-- Node9&#45;&gt;Node10 -->
<g id="edge1" class="edge">
<title>Node9&#45;&gt;Node10</title>
<path fill="none" stroke="#191970" d="M357.8512,-68.5662C293.9819,-60.5588 198.1003,-47.3333 115.5,-31 112.7789,-30.4619 109.998,-29.8811 107.1949,-29.2711"/>
<polygon fill="#191970" stroke="#191970" points="357.4645,-72.045 367.8201,-69.8063 358.3286,-65.0985 357.4645,-72.045"/>
</g>
<!-- Node11 -->
<g id="node3" class="node">
<title>Node11</title>
<g id="a_node3"><a xlink:href="add__child__positions_8cpp.html" target="_top" xlink:title="This file has an implementation of AddChildPositions class, which is a subclass of Adder class...">
<polygon fill="#ffffff" stroke="#000000" points="125,-.5 125,-30.5 232,-30.5 232,-.5 125,-.5"/>
<text text-anchor="start" x="133" y="-18.5" font-family="Helvetica,sans-Serif" font-size="10.00" fill="#000000">src/adders/add_child</text>
<text text-anchor="middle" x="178.5" y="-7.5" font-family="Helvetica,sans-Serif" font-size="10.00" fill="#000000">_positions.cpp</text>
</a>
</g>
</g>
<!-- Node9&#45;&gt;Node11 -->
<g id="edge2" class="edge">
<title>Node9&#45;&gt;Node11</title>
<path fill="none" stroke="#191970" d="M380.1975,-65.0895C342.0473,-55.8516 287.9041,-42.6941 240.5,-31 237.8069,-30.3356 235.0486,-29.6532 232.2634,-28.9626"/>
<polygon fill="#191970" stroke="#191970" points="379.483,-68.5175 390.0257,-67.4683 381.1297,-61.714 379.483,-68.5175"/>
</g>
<!-- Node12 -->
<g id="node4" class="node">
<title>Node12</title>
<g id="a_node4"><a xlink:href="add__com__position_8cpp.html" target="_top" xlink:title="This file has an implementation of AddCoMPosition class, which is a subclass of Adder class...">
<polygon fill="#ffffff" stroke="#000000" points="250,-.5 250,-30.5 355,-30.5 355,-.5 250,-.5"/>
<text text-anchor="start" x="258" y="-18.5" font-family="Helvetica,sans-Serif" font-size="10.00" fill="#000000">src/adders/add_com</text>
<text text-anchor="middle" x="302.5" y="-7.5" font-family="Helvetica,sans-Serif" font-size="10.00" fill="#000000">_position.cpp</text>
</a>
</g>
</g>
<!-- Node9&#45;&gt;Node12 -->
<g id="edge3" class="edge">
<title>Node9&#45;&gt;Node12</title>
<path fill="none" stroke="#191970" d="M400.4283,-62.922C380.4519,-53.2484 353.9599,-40.4196 333.5677,-30.5446"/>
<polygon fill="#191970" stroke="#191970" points="399.1305,-66.1823 409.6563,-67.3906 402.1814,-59.8821 399.1305,-66.1823"/>
</g>
<!-- Node13 -->
<g id="node5" class="node">
<title>Node13</title>
<g id="a_node5"><a xlink:href="add__inertia__moment_8cpp.html" target="_top" xlink:title="This file has an implementation of the AddInertiaMoment class, which is a subclass of Adder class...">
<polygon fill="#ffffff" stroke="#000000" points="373,-.5 373,-30.5 486,-30.5 486,-.5 373,-.5"/>
<text text-anchor="start" x="381" y="-18.5" font-family="Helvetica,sans-Serif" font-size="10.00" fill="#000000">src/adders/add_inertia</text>
<text text-anchor="middle" x="429.5" y="-7.5" font-family="Helvetica,sans-Serif" font-size="10.00" fill="#000000">_moment.cpp</text>
</a>
</g>
</g>
<!-- Node9&#45;&gt;Node13 -->
<g id="edge4" class="edge">
<title>Node9&#45;&gt;Node13</title>
<path fill="none" stroke="#191970" d="M429.5,-57.3693C429.5,-48.681 429.5,-38.6241 429.5,-30.5446"/>
<polygon fill="#191970" stroke="#191970" points="426.0001,-57.3906 429.5,-67.3906 433.0001,-57.3907 426.0001,-57.3906"/>
</g>
<!-- Node14 -->
<g id="node6" class="node">
<title>Node14</title>
<g id="a_node6"><a xlink:href="add__special__bonds_8cpp.html" target="_top" xlink:title="This file has an implementation of AddSpecialBonds class, which is a subclass of Adder class...">
<polygon fill="#ffffff" stroke="#000000" points="504,-.5 504,-30.5 621,-30.5 621,-.5 504,-.5"/>
<text text-anchor="start" x="512" y="-18.5" font-family="Helvetica,sans-Serif" font-size="10.00" fill="#000000">src/adders/add_special</text>
<text text-anchor="middle" x="562.5" y="-7.5" font-family="Helvetica,sans-Serif" font-size="10.00" fill="#000000">_bonds.cpp</text>
</a>
</g>
</g>
<!-- Node9&#45;&gt;Node14 -->
<g id="edge5" class="edge">
<title>Node9&#45;&gt;Node14</title>
<path fill="none" stroke="#191970" d="M459.3763,-63.185C480.3603,-53.4819 508.4148,-40.5093 529.9645,-30.5446"/>
<polygon fill="#191970" stroke="#191970" points="457.8889,-60.0167 450.2813,-67.3906 460.8269,-66.3703 457.8889,-60.0167"/>
</g>
<!-- Node15 -->
<g id="node7" class="node">
<title>Node15</title>
<g id="a_node7"><a xlink:href="starter_8cpp.html" target="_top" xlink:title="This file has an implementation of Starter class, which is a subclass of Updater class. ">
<polygon fill="#ffffff" stroke="#000000" points="639.5,-6 639.5,-25 755.5,-25 755.5,-6 639.5,-6"/>
<text text-anchor="middle" x="697.5" y="-13" font-family="Helvetica,sans-Serif" font-size="10.00" fill="#000000">src/starters/starter.cpp</text>
</a>
</g>
</g>
<!-- Node9&#45;&gt;Node15 -->
<g id="edge6" class="edge">
<title>Node9&#45;&gt;Node15</title>
<path fill="none" stroke="#191970" d="M481.4017,-65.1574C521.9935,-55.8869 579.8466,-42.6553 630.5,-31 638.8773,-29.0724 647.8421,-27.003 656.4014,-25.024"/>
<polygon fill="#191970" stroke="#191970" points="480.4385,-61.7872 471.4686,-67.4256 481.9968,-68.6115 480.4385,-61.7872"/>
</g>
<!-- Node16 -->
<g id="node8" class="node">
<title>Node16</title>
<g id="a_node8"><a xlink:href="map__to__index_8cpp.html" target="_top" xlink:title="This file has an implementation of utils::map_to_index. ">
<polygon fill="#ffffff" stroke="#000000" points="773.5,-6 773.5,-25 907.5,-25 907.5,-6 773.5,-6"/>
<text text-anchor="middle" x="840.5" y="-13" font-family="Helvetica,sans-Serif" font-size="10.00" fill="#000000">src/utils/map_to_index.cpp</text>
</a>
</g>
</g>
<!-- Node9&#45;&gt;Node16 -->
<g id="edge7" class="edge">
<title>Node9&#45;&gt;Node16</title>
<path fill="none" stroke="#191970" d="M501.2891,-68.5074C569.2631,-60.1436 674.0884,-46.4103 764.5,-31 774.8542,-29.2352 785.9542,-27.1068 796.3844,-25.0004"/>
<polygon fill="#191970" stroke="#191970" points="500.6196,-65.0631 491.1191,-69.7525 501.4703,-72.0112 500.6196,-65.0631"/>
</g>
</g>
</svg>
