<?xml version="1.0" encoding="UTF-8" standalone="no"?>
<!DOCTYPE svg PUBLIC "-//W3C//DTD SVG 1.1//EN"
 "http://www.w3.org/Graphics/SVG/1.1/DTD/svg11.dtd">
<!-- Generated by graphviz version 2.40.1 (20161225.0304)
 -->
<!-- Title: src/utils/map_to_index.h Pages: 1 -->
<svg width="1068pt" height="95pt"
 viewBox="0.00 0.00 1067.50 95.00" xmlns="http://www.w3.org/2000/svg" xmlns:xlink="http://www.w3.org/1999/xlink">
<g id="graph0" class="graph" transform="scale(1 1) rotate(0) translate(4 91)">
<title>src/utils/map_to_index.h</title>
<polygon fill="#ffffff" stroke="transparent" points="-4,4 -4,-91 1063.5,-91 1063.5,4 -4,4"/>
<!-- Node9 -->
<g id="node1" class="node">
<title>Node9</title>
<polygon fill="#bfbfbf" stroke="#000000" points="434,-67.5 434,-86.5 557,-86.5 557,-67.5 434,-67.5"/>
<text text-anchor="middle" x="495.5" y="-74.5" font-family="Helvetica,sans-Serif" font-size="10.00" fill="#000000">src/utils/map_to_index.h</text>
</g>
<!-- Node10 -->
<g id="node2" class="node">
<title>Node10</title>
<g id="a_node2"><a xlink:href="add__child__ids_8cpp.html" target="_top" xlink:title="src/adders/add_child\l_ids.cpp">
<polygon fill="#ffffff" stroke="#000000" points="0,-.5 0,-30.5 107,-30.5 107,-.5 0,-.5"/>
<text text-anchor="start" x="8" y="-18.5" font-family="Helvetica,sans-Serif" font-size="10.00" fill="#000000">src/adders/add_child</text>
<text text-anchor="middle" x="53.5" y="-7.5" font-family="Helvetica,sans-Serif" font-size="10.00" fill="#000000">_ids.cpp</text>
</a>
</g>
</g>
<!-- Node9&#45;&gt;Node10 -->
<g id="edge1" class="edge">
<title>Node9&#45;&gt;Node10</title>
<path fill="none" stroke="#191970" d="M423.9047,-71.0137C347.2135,-63.9778 222.1301,-50.7035 115.5,-31 112.7724,-30.496 109.9862,-29.9426 107.179,-29.3543"/>
<polygon fill="#191970" stroke="#191970" points="423.6605,-74.5058 433.9359,-71.9237 424.293,-67.5344 423.6605,-74.5058"/>
</g>
<!-- Node11 -->
<g id="node3" class="node">
<title>Node11</title>
<g id="a_node3"><a xlink:href="add__child__positions_8cpp.html" target="_top" xlink:title="src/adders/add_child\l_positions.cpp">
<polygon fill="#ffffff" stroke="#000000" points="125,-.5 125,-30.5 232,-30.5 232,-.5 125,-.5"/>
<text text-anchor="start" x="133" y="-18.5" font-family="Helvetica,sans-Serif" font-size="10.00" fill="#000000">src/adders/add_child</text>
<text text-anchor="middle" x="178.5" y="-7.5" font-family="Helvetica,sans-Serif" font-size="10.00" fill="#000000">_positions.cpp</text>
</a>
</g>
</g>
<!-- Node9&#45;&gt;Node11 -->
<g id="edge2" class="edge">
<title>Node9&#45;&gt;Node11</title>
<path fill="none" stroke="#191970" d="M426.2766,-65.7929C374.848,-57.1565 303.0696,-44.4492 240.5,-31 237.7881,-30.4171 235.0147,-29.8002 232.2175,-29.1616"/>
<polygon fill="#191970" stroke="#191970" points="425.8421,-69.2688 436.2823,-67.4649 426.9959,-62.3645 425.8421,-69.2688"/>
</g>
<!-- Node12 -->
<g id="node4" class="node">
<title>Node12</title>
<g id="a_node4"><a xlink:href="add__com__position_8cpp.html" target="_top" xlink:title="src/adders/add_com\l_position.cpp">
<polygon fill="#ffffff" stroke="#000000" points="250,-.5 250,-30.5 355,-30.5 355,-.5 250,-.5"/>
<text text-anchor="start" x="258" y="-18.5" font-family="Helvetica,sans-Serif" font-size="10.00" fill="#000000">src/adders/add_com</text>
<text text-anchor="middle" x="302.5" y="-7.5" font-family="Helvetica,sans-Serif" font-size="10.00" fill="#000000">_position.cpp</text>
</a>
</g>
</g>
<!-- Node9&#45;&gt;Node12 -->
<g id="edge3" class="edge">
<title>Node9&#45;&gt;Node12</title>
<path fill="none" stroke="#191970" d="M455.7972,-64.3486C425.0115,-54.5386 382.2523,-40.9133 349.7131,-30.5446"/>
<polygon fill="#191970" stroke="#191970" points="454.7531,-67.6892 465.3438,-67.3906 456.8784,-61.0197 454.7531,-67.6892"/>
</g>
<!-- Node13 -->
<g id="node5" class="node">
<title>Node13</title>
<g id="a_node5"><a xlink:href="add__inertia__moment_8cpp.html" target="_top" xlink:title="src/adders/add_inertia\l_moment.cpp">
<polygon fill="#ffffff" stroke="#000000" points="373,-.5 373,-30.5 486,-30.5 486,-.5 373,-.5"/>
<text text-anchor="start" x="381" y="-18.5" font-family="Helvetica,sans-Serif" font-size="10.00" fill="#000000">src/adders/add_inertia</text>
<text text-anchor="middle" x="429.5" y="-7.5" font-family="Helvetica,sans-Serif" font-size="10.00" fill="#000000">_moment.cpp</text>
</a>
</g>
</g>
<!-- Node9&#45;&gt;Node13 -->
<g id="edge4" class="edge">
<title>Node9&#45;&gt;Node13</title>
<path fill="none" stroke="#191970" d="M477.7793,-60.4875C467.7788,-51.1689 455.3759,-39.6116 445.6454,-30.5446"/>
<polygon fill="#191970" stroke="#191970" points="475.4853,-63.134 485.1875,-67.3906 480.2574,-58.0127 475.4853,-63.134"/>
</g>
<!-- Node14 -->
<g id="node6" class="node">
<title>Node14</title>
<g id="a_node6"><a xlink:href="add__special__bonds_8cpp.html" target="_top" xlink:title="src/adders/add_special\l_bonds.cpp">
<polygon fill="#ffffff" stroke="#000000" points="504,-.5 504,-30.5 621,-30.5 621,-.5 504,-.5"/>
<text text-anchor="start" x="512" y="-18.5" font-family="Helvetica,sans-Serif" font-size="10.00" fill="#000000">src/adders/add_special</text>
<text text-anchor="middle" x="562.5" y="-7.5" font-family="Helvetica,sans-Serif" font-size="10.00" fill="#000000">_bonds.cpp</text>
</a>
</g>
</g>
<!-- Node9&#45;&gt;Node14 -->
<g id="edge5" class="edge">
<title>Node9&#45;&gt;Node14</title>
<path fill="none" stroke="#191970" d="M513.4892,-60.4875C523.6412,-51.1689 536.2321,-39.6116 546.11,-30.5446"/>
<polygon fill="#191970" stroke="#191970" points="510.969,-58.0499 505.9688,-67.3906 515.7025,-63.2068 510.969,-58.0499"/>
</g>
<!-- Node15 -->
<g id="node7" class="node">
<title>Node15</title>
<g id="a_node7"><a xlink:href="pro__distance__in__molecule_8cpp.html" target="_top" xlink:title="src/processors/pro\l_distance_in_molecule.cpp">
<polygon fill="#ffffff" stroke="#000000" points="639.5,-.5 639.5,-30.5 773.5,-30.5 773.5,-.5 639.5,-.5"/>
<text text-anchor="start" x="647.5" y="-18.5" font-family="Helvetica,sans-Serif" font-size="10.00" fill="#000000">src/processors/pro</text>
<text text-anchor="middle" x="706.5" y="-7.5" font-family="Helvetica,sans-Serif" font-size="10.00" fill="#000000">_distance_in_molecule.cpp</text>
</a>
</g>
</g>
<!-- Node9&#45;&gt;Node15 -->
<g id="edge6" class="edge">
<title>Node9&#45;&gt;Node15</title>
<path fill="none" stroke="#191970" d="M538.4692,-64.4758C572.1576,-54.6567 619.1556,-40.9582 654.8836,-30.5446"/>
<polygon fill="#191970" stroke="#191970" points="537.0899,-61.2321 528.4688,-67.3906 539.0487,-67.9525 537.0899,-61.2321"/>
</g>
<!-- Node16 -->
<g id="node8" class="node">
<title>Node16</title>
<g id="a_node8"><a xlink:href="starter_8cpp.html" target="_top" xlink:title="src/starters/starter.cpp">
<polygon fill="#ffffff" stroke="#000000" points="791.5,-6 791.5,-25 907.5,-25 907.5,-6 791.5,-6"/>
<text text-anchor="middle" x="849.5" y="-13" font-family="Helvetica,sans-Serif" font-size="10.00" fill="#000000">src/starters/starter.cpp</text>
</a>
</g>
</g>
<!-- Node9&#45;&gt;Node16 -->
<g id="edge7" class="edge">
<title>Node9&#45;&gt;Node16</title>
<path fill="none" stroke="#191970" d="M567.2153,-66.8965C625.418,-58.3629 709.5015,-45.2765 782.5,-31 791.5222,-29.2355 801.1785,-27.1302 810.2711,-25.0487"/>
<polygon fill="#191970" stroke="#191970" points="566.4096,-63.4769 557.0195,-68.3837 567.42,-70.4036 566.4096,-63.4769"/>
</g>
<!-- Node17 -->
<g id="node9" class="node">
<title>Node17</title>
<g id="a_node9"><a xlink:href="map__to__index_8cpp.html" target="_top" xlink:title="src/utils/map_to_index.cpp">
<polygon fill="#ffffff" stroke="#000000" points="925.5,-6 925.5,-25 1059.5,-25 1059.5,-6 925.5,-6"/>
<text text-anchor="middle" x="992.5" y="-13" font-family="Helvetica,sans-Serif" font-size="10.00" fill="#000000">src/utils/map_to_index.cpp</text>
</a>
</g>
</g>
<!-- Node9&#45;&gt;Node17 -->
<g id="edge8" class="edge">
<title>Node9&#45;&gt;Node17</title>
<path fill="none" stroke="#191970" d="M567.2876,-71.1898C651.2986,-63.9205 794.4635,-50.0699 916.5,-31 927.1437,-29.3368 938.5569,-27.1994 949.2194,-25.0466"/>
<polygon fill="#191970" stroke="#191970" points="566.7542,-67.7226 557.0901,-72.0649 567.3528,-74.697 566.7542,-67.7226"/>
</g>
</g>
</svg>
