<?xml version="1.0" encoding="UTF-8" standalone="no"?>
<!DOCTYPE svg PUBLIC "-//W3C//DTD SVG 1.1//EN"
 "http://www.w3.org/Graphics/SVG/1.1/DTD/svg11.dtd">
<!-- Generated by graphviz version 2.40.1 (20161225.0304)
 -->
<!-- Title: src/utils/map_to_index.h Pages: 1 -->
<svg width="1190pt" height="106pt"
 viewBox="0.00 0.00 1189.50 106.00" xmlns="http://www.w3.org/2000/svg" xmlns:xlink="http://www.w3.org/1999/xlink">
<g id="graph0" class="graph" transform="scale(1 1) rotate(0) translate(4 102)">
<title>src/utils/map_to_index.h</title>
<polygon fill="#ffffff" stroke="transparent" points="-4,4 -4,-102 1185.5,-102 1185.5,4 -4,4"/>
<!-- Node9 -->
<g id="node1" class="node">
<title>Node9</title>
<polygon fill="#bfbfbf" stroke="#000000" points="501,-78.5 501,-97.5 624,-97.5 624,-78.5 501,-78.5"/>
<text text-anchor="middle" x="562.5" y="-85.5" font-family="Helvetica,sans-Serif" font-size="10.00" fill="#000000">src/utils/map_to_index.h</text>
</g>
<!-- Node10 -->
<g id="node2" class="node">
<title>Node10</title>
<g id="a_node2"><a xlink:href="add__child__ids_8cpp.html" target="_top" xlink:title="This file has an implementation of AddChildIDs class, which is a subclass of Adder class...">
<polygon fill="#ffffff" stroke="#000000" points="0,-6 0,-36 107,-36 107,-6 0,-6"/>
<text text-anchor="start" x="8" y="-24" font-family="Helvetica,sans-Serif" font-size="10.00" fill="#000000">src/adders/add_child</text>
<text text-anchor="middle" x="53.5" y="-13" font-family="Helvetica,sans-Serif" font-size="10.00" fill="#000000">_ids.cpp</text>
</a>
</g>
</g>
<!-- Node9&#45;&gt;Node10 -->
<g id="edge1" class="edge">
<title>Node9&#45;&gt;Node10</title>
<path fill="none" stroke="#191970" d="M490.465,-85.5468C401.4646,-81.3843 245.8298,-70.4013 115.5,-42 108.3935,-40.4514 100.9652,-38.3645 93.8202,-36.1054"/>
<polygon fill="#191970" stroke="#191970" points="490.5698,-89.055 500.7176,-86.0098 490.8857,-82.0621 490.5698,-89.055"/>
</g>
<!-- Node11 -->
<g id="node3" class="node">
<title>Node11</title>
<g id="a_node3"><a xlink:href="add__child__positions_8cpp.html" target="_top" xlink:title="This file has an implementation of AddChildPositions class, which is a subclass of Adder class...">
<polygon fill="#ffffff" stroke="#000000" points="125,-6 125,-36 232,-36 232,-6 125,-6"/>
<text text-anchor="start" x="133" y="-24" font-family="Helvetica,sans-Serif" font-size="10.00" fill="#000000">src/adders/add_child</text>
<text text-anchor="middle" x="178.5" y="-13" font-family="Helvetica,sans-Serif" font-size="10.00" fill="#000000">_positions.cpp</text>
</a>
</g>
</g>
<!-- Node9&#45;&gt;Node11 -->
<g id="edge2" class="edge">
<title>Node9&#45;&gt;Node11</title>
<path fill="none" stroke="#191970" d="M490.4837,-81.5573C424.7518,-74.7714 325.2257,-62.2172 240.5,-42 233.6464,-40.3646 226.4759,-38.2896 219.544,-36.0838"/>
<polygon fill="#191970" stroke="#191970" points="490.4335,-85.0701 500.7357,-82.5972 491.14,-78.1058 490.4335,-85.0701"/>
</g>
<!-- Node12 -->
<g id="node4" class="node">
<title>Node12</title>
<g id="a_node4"><a xlink:href="add__com__position_8cpp.html" target="_top" xlink:title="This file has an implementation of AddCoMPosition class, which is a subclass of Adder class...">
<polygon fill="#ffffff" stroke="#000000" points="250,-6 250,-36 355,-36 355,-6 250,-6"/>
<text text-anchor="start" x="258" y="-24" font-family="Helvetica,sans-Serif" font-size="10.00" fill="#000000">src/adders/add_com</text>
<text text-anchor="middle" x="302.5" y="-13" font-family="Helvetica,sans-Serif" font-size="10.00" fill="#000000">_position.cpp</text>
</a>
</g>
</g>
<!-- Node9&#45;&gt;Node12 -->
<g id="edge3" class="edge">
<title>Node9&#45;&gt;Node12</title>
<path fill="none" stroke="#191970" d="M505.2605,-76.4268C465.2722,-67.9385 410.7902,-55.5657 363.5,-42 357.2557,-40.2087 350.7097,-38.1512 344.3192,-36.04"/>
<polygon fill="#191970" stroke="#191970" points="504.5948,-79.8633 515.1015,-78.4995 506.0375,-73.0136 504.5948,-79.8633"/>
</g>
<!-- Node13 -->
<g id="node5" class="node">
<title>Node13</title>
<g id="a_node5"><a xlink:href="add__inertia__moment_8cpp.html" target="_top" xlink:title="This file has an implementation of the AddInertiaMoment class, which is a subclass of Adder class...">
<polygon fill="#ffffff" stroke="#000000" points="373,-6 373,-36 486,-36 486,-6 373,-6"/>
<text text-anchor="start" x="381" y="-24" font-family="Helvetica,sans-Serif" font-size="10.00" fill="#000000">src/adders/add_inertia</text>
<text text-anchor="middle" x="429.5" y="-13" font-family="Helvetica,sans-Serif" font-size="10.00" fill="#000000">_moment.cpp</text>
</a>
</g>
</g>
<!-- Node9&#45;&gt;Node13 -->
<g id="edge4" class="edge">
<title>Node9&#45;&gt;Node13</title>
<path fill="none" stroke="#191970" d="M534.2791,-73.7834C512.2561,-62.6892 481.74,-47.3164 459.3193,-36.0218"/>
<polygon fill="#191970" stroke="#191970" points="532.9389,-77.0273 543.4443,-78.4005 536.0882,-70.7757 532.9389,-77.0273"/>
</g>
<!-- Node14 -->
<g id="node6" class="node">
<title>Node14</title>
<g id="a_node6"><a xlink:href="add__special__bonds_8cpp.html" target="_top" xlink:title="This file has an implementation of AddSpecialBonds class, which is a subclass of Adder class...">
<polygon fill="#ffffff" stroke="#000000" points="504,-6 504,-36 621,-36 621,-6 504,-6"/>
<text text-anchor="start" x="512" y="-24" font-family="Helvetica,sans-Serif" font-size="10.00" fill="#000000">src/adders/add_special</text>
<text text-anchor="middle" x="562.5" y="-13" font-family="Helvetica,sans-Serif" font-size="10.00" fill="#000000">_bonds.cpp</text>
</a>
</g>
</g>
<!-- Node9&#45;&gt;Node14 -->
<g id="edge5" class="edge">
<title>Node9&#45;&gt;Node14</title>
<path fill="none" stroke="#191970" d="M562.5,-68.2758C562.5,-57.9641 562.5,-45.5437 562.5,-36.0218"/>
<polygon fill="#191970" stroke="#191970" points="559.0001,-68.4005 562.5,-78.4005 566.0001,-68.4006 559.0001,-68.4005"/>
</g>
<!-- Node15 -->
<g id="node7" class="node">
<title>Node15</title>
<g id="a_node7"><a xlink:href="pro__distance__in__molecule_8cpp.html" target="_top" xlink:title="This file has an implementation of ProDistanceInMolecule class, which is a subclass of Processor clas...">
<polygon fill="#ffffff" stroke="#000000" points="639.5,-6 639.5,-36 773.5,-36 773.5,-6 639.5,-6"/>
<text text-anchor="start" x="647.5" y="-24" font-family="Helvetica,sans-Serif" font-size="10.00" fill="#000000">src/processors/pro</text>
<text text-anchor="middle" x="706.5" y="-13" font-family="Helvetica,sans-Serif" font-size="10.00" fill="#000000">_distance_in_molecule.cpp</text>
</a>
</g>
</g>
<!-- Node9&#45;&gt;Node15 -->
<g id="edge6" class="edge">
<title>Node9&#45;&gt;Node15</title>
<path fill="none" stroke="#191970" d="M592.4157,-74.0809C616.306,-62.9653 649.7217,-47.4177 674.2144,-36.0218"/>
<polygon fill="#191970" stroke="#191970" points="590.7219,-71.0086 583.1317,-78.4005 593.6748,-77.3553 590.7219,-71.0086"/>
</g>
<!-- Node16 -->
<g id="node8" class="node">
<title>Node16</title>
<g id="a_node8"><a xlink:href="pro__time__correlation__in__molecule_8cpp.html" target="_top" xlink:title="This file has an implementation of ProTimeCorrelationInMolecule class, which is a subclass of Process...">
<polygon fill="#ffffff" stroke="#000000" points="791.5,-.5 791.5,-41.5 895.5,-41.5 895.5,-.5 791.5,-.5"/>
<text text-anchor="start" x="799.5" y="-29.5" font-family="Helvetica,sans-Serif" font-size="10.00" fill="#000000">src/processors/pro</text>
<text text-anchor="start" x="799.5" y="-18.5" font-family="Helvetica,sans-Serif" font-size="10.00" fill="#000000">_time_correlation_in</text>
<text text-anchor="middle" x="843.5" y="-7.5" font-family="Helvetica,sans-Serif" font-size="10.00" fill="#000000">_molecule.cpp</text>
</a>
</g>
</g>
<!-- Node9&#45;&gt;Node16 -->
<g id="edge7" class="edge">
<title>Node9&#45;&gt;Node16</title>
<path fill="none" stroke="#191970" d="M627.6624,-76.5974C671.7177,-68.3464 731.0221,-56.1825 782.5,-42 785.4154,-41.1968 788.3945,-40.3294 791.3912,-39.4203"/>
<polygon fill="#191970" stroke="#191970" points="626.8499,-73.1883 617.6559,-78.4534 628.1265,-80.0709 626.8499,-73.1883"/>
</g>
<!-- Node17 -->
<g id="node9" class="node">
<title>Node17</title>
<g id="a_node9"><a xlink:href="starter_8cpp.html" target="_top" xlink:title="This file has an implementation of Starter class, which is a subclass of Updater class. ">
<polygon fill="#ffffff" stroke="#000000" points="913.5,-11.5 913.5,-30.5 1029.5,-30.5 1029.5,-11.5 913.5,-11.5"/>
<text text-anchor="middle" x="971.5" y="-18.5" font-family="Helvetica,sans-Serif" font-size="10.00" fill="#000000">src/starters/starter.cpp</text>
</a>
</g>
</g>
<!-- Node9&#45;&gt;Node17 -->
<g id="edge8" class="edge">
<title>Node9&#45;&gt;Node17</title>
<path fill="none" stroke="#191970" d="M634.2013,-81.9344C703.8342,-75.2057 812.2486,-62.505 904.5,-42 917.9465,-39.0112 932.5765,-34.5693 944.7253,-30.5395"/>
<polygon fill="#191970" stroke="#191970" points="633.8393,-78.453 624.2156,-82.8841 634.5021,-85.4215 633.8393,-78.453"/>
</g>
<!-- Node18 -->
<g id="node10" class="node">
<title>Node18</title>
<g id="a_node10"><a xlink:href="map__to__index_8cpp.html" target="_top" xlink:title="This file has an implementation of utils::map_to_index. ">
<polygon fill="#ffffff" stroke="#000000" points="1047.5,-11.5 1047.5,-30.5 1181.5,-30.5 1181.5,-11.5 1047.5,-11.5"/>
<text text-anchor="middle" x="1114.5" y="-18.5" font-family="Helvetica,sans-Serif" font-size="10.00" fill="#000000">src/utils/map_to_index.cpp</text>
</a>
</g>
</g>
<!-- Node9&#45;&gt;Node18 -->
<g id="edge9" class="edge">
<title>Node9&#45;&gt;Node18</title>
<path fill="none" stroke="#191970" d="M634.428,-84.9328C728.1091,-80.0534 896.6644,-68.2444 1038.5,-42 1053.8449,-39.1607 1070.5942,-34.6858 1084.4543,-30.595"/>
<polygon fill="#191970" stroke="#191970" points="634.0226,-81.4488 624.2135,-85.4528 634.3785,-88.4398 634.0226,-81.4488"/>
</g>
</g>
</svg>
