<?xml version="1.0" encoding="UTF-8" standalone="no"?>
<!DOCTYPE svg PUBLIC "-//W3C//DTD SVG 1.1//EN"
 "http://www.w3.org/Graphics/SVG/1.1/DTD/svg11.dtd">
<!-- Generated by graphviz version 2.40.1 (20161225.0304)
 -->
<!-- Title: src/utils/message.h Pages: 1 -->
<svg width="776pt" height="196pt"
 viewBox="0.00 0.00 775.50 196.00" xmlns="http://www.w3.org/2000/svg" xmlns:xlink="http://www.w3.org/1999/xlink">
<g id="graph0" class="graph" transform="scale(1 1) rotate(0) translate(4 192)">
<title>src/utils/message.h</title>
<polygon fill="#ffffff" stroke="transparent" points="-4,4 -4,-192 771.5,-192 771.5,4 -4,4"/>
<!-- Node7 -->
<g id="node1" class="node">
<title>Node7</title>
<polygon fill="#bfbfbf" stroke="#000000" points="327,-168.5 327,-187.5 429,-187.5 429,-168.5 327,-168.5"/>
<text text-anchor="middle" x="378" y="-175.5" font-family="Helvetica,sans-Serif" font-size="10.00" fill="#000000">src/utils/message.h</text>
</g>
<!-- Node8 -->
<g id="node2" class="node">
<title>Node8</title>
<g id="a_node2"><a xlink:href="element_8cpp.html" target="_top" xlink:title="This file has an implementation of Element class, which is one of the cores of this program...">
<polygon fill="#ffffff" stroke="#000000" points="0,-112.5 0,-131.5 108,-131.5 108,-112.5 0,-112.5"/>
<text text-anchor="middle" x="54" y="-119.5" font-family="Helvetica,sans-Serif" font-size="10.00" fill="#000000">src/core/element.cpp</text>
</a>
</g>
</g>
<!-- Node7&#45;&gt;Node8 -->
<g id="edge1" class="edge">
<title>Node7&#45;&gt;Node8</title>
<path fill="none" stroke="#191970" d="M316.5368,-167.3767C256.3586,-156.9756 165.5709,-141.2839 108.0686,-131.3452"/>
<polygon fill="#191970" stroke="#191970" points="316.2112,-170.8723 326.6612,-169.1266 317.4035,-163.9745 316.2112,-170.8723"/>
</g>
<!-- Node9 -->
<g id="node3" class="node">
<title>Node9</title>
<g id="a_node3"><a xlink:href="filter_8cpp.html" target="_top" xlink:title="This file has an implementation of Filter class, which is a subclass of Updater class. ">
<polygon fill="#ffffff" stroke="#000000" points="126,-112.5 126,-131.5 224,-131.5 224,-112.5 126,-112.5"/>
<text text-anchor="middle" x="175" y="-119.5" font-family="Helvetica,sans-Serif" font-size="10.00" fill="#000000">src/filters/filter.cpp</text>
</a>
</g>
</g>
<!-- Node7&#45;&gt;Node9 -->
<g id="edge2" class="edge">
<title>Node7&#45;&gt;Node9</title>
<path fill="none" stroke="#191970" d="M333.0073,-165.5882C295.7109,-155.2996 243.4744,-140.8895 209.4416,-131.5011"/>
<polygon fill="#191970" stroke="#191970" points="332.5324,-169.0879 343.1031,-168.3733 334.3939,-162.3399 332.5324,-169.0879"/>
</g>
<!-- Node10 -->
<g id="node4" class="node">
<title>Node10</title>
<g id="a_node4"><a xlink:href="inv__omp_8cpp.html" target="_top" xlink:title="This file has an implementation of InvOMP class, which is a subclass of Invoker class. ">
<polygon fill="#ffffff" stroke="#000000" points="242,-112.5 242,-131.5 370,-131.5 370,-112.5 242,-112.5"/>
<text text-anchor="middle" x="306" y="-119.5" font-family="Helvetica,sans-Serif" font-size="10.00" fill="#000000">src/invokers/inv_omp.cpp</text>
</a>
</g>
</g>
<!-- Node7&#45;&gt;Node10 -->
<g id="edge3" class="edge">
<title>Node7&#45;&gt;Node10</title>
<path fill="none" stroke="#191970" d="M357.336,-161.928C344.7511,-152.1397 329.0908,-139.9595 318.3977,-131.6427"/>
<polygon fill="#191970" stroke="#191970" points="355.4162,-164.8688 365.4586,-168.2455 359.7138,-159.3434 355.4162,-164.8688"/>
</g>
<!-- Node11 -->
<g id="node5" class="node">
<title>Node11</title>
<g id="a_node5"><a xlink:href="invoker_8cpp.html" target="_top" xlink:title="This file has an implementation of Invoker class, which executes one or more analysis. ">
<polygon fill="#ffffff" stroke="#000000" points="388.5,-112.5 388.5,-131.5 511.5,-131.5 511.5,-112.5 388.5,-112.5"/>
<text text-anchor="middle" x="450" y="-119.5" font-family="Helvetica,sans-Serif" font-size="10.00" fill="#000000">src/invokers/invoker.cpp</text>
</a>
</g>
</g>
<!-- Node7&#45;&gt;Node11 -->
<g id="edge4" class="edge">
<title>Node7&#45;&gt;Node11</title>
<path fill="none" stroke="#191970" d="M398.664,-161.928C411.2489,-152.1397 426.9092,-139.9595 437.6023,-131.6427"/>
<polygon fill="#191970" stroke="#191970" points="396.2862,-159.3434 390.5414,-168.2455 400.5838,-164.8688 396.2862,-159.3434"/>
</g>
<!-- Node12 -->
<g id="node6" class="node">
<title>Node12</title>
<g id="a_node6"><a xlink:href="py__utils_8h.html" target="_top" xlink:title="This file is for binding utility functions to Python. ">
<polygon fill="#ffffff" stroke="#000000" points="529.5,-112.5 529.5,-131.5 636.5,-131.5 636.5,-112.5 529.5,-112.5"/>
<text text-anchor="middle" x="583" y="-119.5" font-family="Helvetica,sans-Serif" font-size="10.00" fill="#000000">src/pybind/py_utils.h</text>
</a>
</g>
</g>
<!-- Node7&#45;&gt;Node12 -->
<g id="edge5" class="edge">
<title>Node7&#45;&gt;Node12</title>
<path fill="none" stroke="#191970" d="M422.954,-165.7199C460.6487,-155.4228 513.7041,-140.9296 548.2191,-131.5011"/>
<polygon fill="#191970" stroke="#191970" points="421.965,-162.3617 413.2408,-168.3733 423.8096,-169.1143 421.965,-162.3617"/>
</g>
<!-- Node15 -->
<g id="node9" class="node">
<title>Node15</title>
<g id="a_node9"><a xlink:href="message_8cpp.html" target="_top" xlink:title="This file has implementations of messaging functions. ">
<polygon fill="#ffffff" stroke="#000000" points="654.5,-112.5 654.5,-131.5 767.5,-131.5 767.5,-112.5 654.5,-112.5"/>
<text text-anchor="middle" x="711" y="-119.5" font-family="Helvetica,sans-Serif" font-size="10.00" fill="#000000">src/utils/message.cpp</text>
</a>
</g>
</g>
<!-- Node7&#45;&gt;Node15 -->
<g id="edge8" class="edge">
<title>Node7&#45;&gt;Node15</title>
<path fill="none" stroke="#191970" d="M439.2515,-167.6994C500.7023,-157.3654 594.5719,-141.5795 654.3424,-131.528"/>
<polygon fill="#191970" stroke="#191970" points="438.5825,-164.2627 429.3015,-169.3727 439.7435,-171.1658 438.5825,-164.2627"/>
</g>
<!-- Node13 -->
<g id="node7" class="node">
<title>Node13</title>
<g id="a_node7"><a xlink:href="pybind_8h.html" target="_top" xlink:title="This file includes all the header files containing definitions of functions to bind C++ and Python...">
<polygon fill="#ffffff" stroke="#000000" points="548,-56.5 548,-75.5 618,-75.5 618,-56.5 548,-56.5"/>
<text text-anchor="middle" x="583" y="-63.5" font-family="Helvetica,sans-Serif" font-size="10.00" fill="#000000">src/pybind.h</text>
</a>
</g>
</g>
<!-- Node12&#45;&gt;Node13 -->
<g id="edge6" class="edge">
<title>Node12&#45;&gt;Node13</title>
<path fill="none" stroke="#191970" d="M583,-102.1575C583,-93.155 583,-82.9199 583,-75.6427"/>
<polygon fill="#191970" stroke="#191970" points="579.5001,-102.2455 583,-112.2455 586.5001,-102.2456 579.5001,-102.2455"/>
</g>
<!-- Node14 -->
<g id="node8" class="node">
<title>Node14</title>
<g id="a_node8"><a xlink:href="ppap4lmp_8cpp.html" target="_top" xlink:title="This file has no implementation, only includes a header file to bind C++ and Python. ">
<polygon fill="#ffffff" stroke="#000000" points="536,-.5 536,-19.5 630,-19.5 630,-.5 536,-.5"/>
<text text-anchor="middle" x="583" y="-7.5" font-family="Helvetica,sans-Serif" font-size="10.00" fill="#000000">src/ppap4lmp.cpp</text>
</a>
</g>
</g>
<!-- Node13&#45;&gt;Node14 -->
<g id="edge7" class="edge">
<title>Node13&#45;&gt;Node14</title>
<path fill="none" stroke="#191970" d="M583,-46.1575C583,-37.155 583,-26.9199 583,-19.6427"/>
<polygon fill="#191970" stroke="#191970" points="579.5001,-46.2455 583,-56.2455 586.5001,-46.2456 579.5001,-46.2455"/>
</g>
</g>
</svg>
