<?xml version="1.0" encoding="UTF-8" standalone="no"?>
<!DOCTYPE svg PUBLIC "-//W3C//DTD SVG 1.1//EN"
 "http://www.w3.org/Graphics/SVG/1.1/DTD/svg11.dtd">
<!-- Generated by graphviz version 2.40.1 (20161225.0304)
 -->
<!-- Title: src/utils/message.h Pages: 1 -->
<!--zoomable 218 -->
<svg id="main" version="1.1" xmlns="http://www.w3.org/2000/svg" xmlns:xlink="http://www.w3.org/1999/xlink" xml:space="preserve" onload="init(evt)">
<style type="text/css"><![CDATA[
.edge:hover path { stroke: red; }
.edge:hover polygon { stroke: red; fill: red; }
]]></style>
<script type="text/javascript"><![CDATA[
var edges = document.getElementsByTagName('g');
if (edges && edges.length) {
  for (var i=0;i<edges.length;i++) {
    if (edges[i].id.substr(0,4)=='edge') {
      edges[i].setAttribute('class','edge');
    }
  }
}
]]></script>
        <defs>
                <circle id="rim" cx="0" cy="0" r="7"/>
                <circle id="rim2" cx="0" cy="0" r="3.5"/>
                <g id="zoomPlus">
                        <use xlink:href="#rim" fill="#404040">
                                <set attributeName="fill" to="#808080" begin="zoomplus.mouseover" end="zoomplus.mouseout"/>
                        </use>
                        <path d="M-4,0h8M0,-4v8" fill="none" stroke="white" stroke-width="1.5" pointer-events="none"/>
                </g>
                <g id="zoomMin">
                        <use xlink:href="#rim" fill="#404040">
                                <set attributeName="fill" to="#808080" begin="zoomminus.mouseover" end="zoomminus.mouseout"/>
                        </use>
                        <path d="M-4,0h8" fill="none" stroke="white" stroke-width="1.5" pointer-events="none"/>
                </g>
                <g id="dirArrow">
                        <path fill="none" stroke="white" stroke-width="1.5" d="M0,-3.0v7 M-2.5,-0.5L0,-3.0L2.5,-0.5"/>
                </g>
               <g id="resetDef">
                       <use xlink:href="#rim2" fill="#404040">
                               <set attributeName="fill" to="#808080" begin="reset.mouseover" end="reset.mouseout"/>
                       </use>
               </g>
        </defs>

<script type="text/javascript">
var viewWidth = 1065;
var viewHeight = 218;
var sectionId = 'dynsection-1';
</script>
<script xlink:href="svgpan.js"/>
<svg id="graph" class="graph">
<g id="viewport">
<title>src/utils/message.h</title>
<polygon fill="#ffffff" stroke="transparent" points="-4,4 -4,-214 1060.5,-214 1060.5,4 -4,4"/>
<!-- Node7 -->
<g id="node1" class="node">
<title>Node7</title>
<polygon fill="#bfbfbf" stroke="#000000" points="465,-190.5 465,-209.5 567,-209.5 567,-190.5 465,-190.5"/>
<text text-anchor="middle" x="516" y="-197.5" font-family="Helvetica,sans-Serif" font-size="10.00" fill="#000000">src/utils/message.h</text>
</g>
<!-- Node8 -->
<g id="node2" class="node">
<title>Node8</title>
<g id="a_node2"><a xlink:href="element_8cpp.html" target="_top" xlink:title="This file has an implementation of Element class, which is one of the cores of this program...">
<polygon fill="#ffffff" stroke="#000000" points="0,-123.5 0,-142.5 108,-142.5 108,-123.5 0,-123.5"/>
<text text-anchor="middle" x="54" y="-130.5" font-family="Helvetica,sans-Serif" font-size="10.00" fill="#000000">src/core/element.cpp</text>
</a>
</g>
</g>
<!-- Node7&#45;&gt;Node8 -->
<g id="edge1" class="edge">
<title>Node7&#45;&gt;Node8</title>
<path fill="none" stroke="#191970" d="M454.4873,-196.8653C375.5551,-191.9431 234.7589,-180.1189 117,-154 104.1686,-151.154 90.2721,-146.6784 78.8035,-142.5888"/>
<polygon fill="#191970" stroke="#191970" points="454.5435,-200.375 464.7372,-197.4872 454.9675,-193.3879 454.5435,-200.375"/>
</g>
<!-- Node9 -->
<g id="node3" class="node">
<title>Node9</title>
<g id="a_node3"><a xlink:href="filter_8cpp.html" target="_top" xlink:title="This file has an implementation of Filter class, which is a subclass of Updater class. ">
<polygon fill="#ffffff" stroke="#000000" points="126,-123.5 126,-142.5 224,-142.5 224,-123.5 126,-123.5"/>
<text text-anchor="middle" x="175" y="-130.5" font-family="Helvetica,sans-Serif" font-size="10.00" fill="#000000">src/filters/filter.cpp</text>
</a>
</g>
</g>
<!-- Node7&#45;&gt;Node9 -->
<g id="edge2" class="edge">
<title>Node7&#45;&gt;Node9</title>
<path fill="none" stroke="#191970" d="M454.7324,-193.3844C396.9468,-186.3614 308.2159,-173.5475 233,-154 221.3914,-150.9831 208.8387,-146.5864 198.3901,-142.5948"/>
<polygon fill="#191970" stroke="#191970" points="454.452,-196.8757 464.7967,-194.587 455.2826,-189.9252 454.452,-196.8757"/>
</g>
<!-- Node10 -->
<g id="node4" class="node">
<title>Node10</title>
<g id="a_node4"><a xlink:href="inv__omp_8cpp.html" target="_top" xlink:title="This file has an implementation of InvOMP class, which is a subclass of Invoker class. ">
<polygon fill="#ffffff" stroke="#000000" points="242,-123.5 242,-142.5 370,-142.5 370,-123.5 242,-123.5"/>
<text text-anchor="middle" x="306" y="-130.5" font-family="Helvetica,sans-Serif" font-size="10.00" fill="#000000">src/invokers/inv_omp.cpp</text>
</a>
</g>
</g>
<!-- Node7&#45;&gt;Node10 -->
<g id="edge3" class="edge">
<title>Node7&#45;&gt;Node10</title>
<path fill="none" stroke="#191970" d="M476.2915,-187.3311C435.4921,-174.3141 372.8862,-154.3399 336.0321,-142.5817"/>
<polygon fill="#191970" stroke="#191970" points="475.3214,-190.6953 485.9121,-190.4005 477.4491,-184.0265 475.3214,-190.6953"/>
</g>
<!-- Node11 -->
<g id="node5" class="node">
<title>Node11</title>
<g id="a_node5"><a xlink:href="invoker_8cpp.html" target="_top" xlink:title="This file has an implementation of Invoker class, which executes one or more analysis. ">
<polygon fill="#ffffff" stroke="#000000" points="388.5,-123.5 388.5,-142.5 511.5,-142.5 511.5,-123.5 388.5,-123.5"/>
<text text-anchor="middle" x="450" y="-130.5" font-family="Helvetica,sans-Serif" font-size="10.00" fill="#000000">src/invokers/invoker.cpp</text>
</a>
</g>
</g>
<!-- Node7&#45;&gt;Node11 -->
<g id="edge4" class="edge">
<title>Node7&#45;&gt;Node11</title>
<path fill="none" stroke="#191970" d="M499.3311,-183.0785C486.7077,-170.2639 469.8215,-153.1218 459.4386,-142.5817"/>
<polygon fill="#191970" stroke="#191970" points="497.0327,-185.7327 506.5438,-190.4005 502.0195,-180.8203 497.0327,-185.7327"/>
</g>
<!-- Node12 -->
<g id="node6" class="node">
<title>Node12</title>
<g id="a_node6"><a xlink:href="py__utils_8h.html" target="_top" xlink:title="This file is for binding utility functions to Python. ">
<polygon fill="#ffffff" stroke="#000000" points="529.5,-123.5 529.5,-142.5 636.5,-142.5 636.5,-123.5 529.5,-123.5"/>
<text text-anchor="middle" x="583" y="-130.5" font-family="Helvetica,sans-Serif" font-size="10.00" fill="#000000">src/pybind/py_utils.h</text>
</a>
</g>
</g>
<!-- Node7&#45;&gt;Node12 -->
<g id="edge5" class="edge">
<title>Node7&#45;&gt;Node12</title>
<path fill="none" stroke="#191970" d="M532.9215,-183.0785C545.7361,-170.2639 562.8782,-153.1218 573.4183,-142.5817"/>
<polygon fill="#191970" stroke="#191970" points="530.1957,-180.8546 525.5995,-190.4005 535.1454,-185.8043 530.1957,-180.8546"/>
</g>
<!-- Node16 -->
<g id="node10" class="node">
<title>Node16</title>
<g id="a_node10"><a xlink:href="pro__radial__distribution__function_8cpp.html" target="_top" xlink:title="This file has an implementation of ProRadialDistributionFunction class, which is a subclass of Proces...">
<polygon fill="#ffffff" stroke="#000000" points="655,-112.5 655,-153.5 753,-153.5 753,-112.5 655,-112.5"/>
<text text-anchor="start" x="663" y="-141.5" font-family="Helvetica,sans-Serif" font-size="10.00" fill="#000000">src/processors/pro</text>
<text text-anchor="start" x="663" y="-130.5" font-family="Helvetica,sans-Serif" font-size="10.00" fill="#000000">_radial_distribution</text>
<text text-anchor="middle" x="704" y="-119.5" font-family="Helvetica,sans-Serif" font-size="10.00" fill="#000000">_function.cpp</text>
</a>
</g>
</g>
<!-- Node7&#45;&gt;Node16 -->
<g id="edge9" class="edge">
<title>Node7&#45;&gt;Node16</title>
<path fill="none" stroke="#191970" d="M552.72,-186.9136C581.88,-176.5215 622.9256,-161.8935 654.9064,-150.4961"/>
<polygon fill="#191970" stroke="#191970" points="551.1805,-183.7466 542.9358,-190.4005 553.5305,-190.3403 551.1805,-183.7466"/>
</g>
<!-- Node17 -->
<g id="node11" class="node">
<title>Node17</title>
<g id="a_node11"><a xlink:href="pro__radial__distribution__function__with__deformation_8cpp.html" target="_top" xlink:title="This file has an implementation of ProRadialDistributionFunctionWithDeformation class, which is a subclass of Processor class. ">
<polygon fill="#ffffff" stroke="#000000" points="771,-112.5 771,-153.5 925,-153.5 925,-112.5 771,-112.5"/>
<text text-anchor="start" x="779" y="-141.5" font-family="Helvetica,sans-Serif" font-size="10.00" fill="#000000">src/processors/pro</text>
<text text-anchor="start" x="779" y="-130.5" font-family="Helvetica,sans-Serif" font-size="10.00" fill="#000000">_radial_distribution</text>
<text text-anchor="middle" x="848" y="-119.5" font-family="Helvetica,sans-Serif" font-size="10.00" fill="#000000">_function_with_deformation.cpp</text>
</a>
</g>
</g>
<!-- Node7&#45;&gt;Node17 -->
<g id="edge10" class="edge">
<title>Node7&#45;&gt;Node17</title>
<path fill="none" stroke="#191970" d="M577.0281,-189.5445C626.9197,-180.7675 699.2161,-167.5249 762,-154 764.8547,-153.385 767.7593,-152.7457 770.6908,-152.089"/>
<polygon fill="#191970" stroke="#191970" points="576.2918,-186.1201 567.0459,-191.2936 577.5,-193.0151 576.2918,-186.1201"/>
</g>
<!-- Node18 -->
<g id="node12" class="node">
<title>Node18</title>
<g id="a_node12"><a xlink:href="message_8cpp.html" target="_top" xlink:title="This file has implementations of messaging functions. ">
<polygon fill="#ffffff" stroke="#000000" points="943.5,-123.5 943.5,-142.5 1056.5,-142.5 1056.5,-123.5 943.5,-123.5"/>
<text text-anchor="middle" x="1000" y="-130.5" font-family="Helvetica,sans-Serif" font-size="10.00" fill="#000000">src/utils/message.cpp</text>
</a>
</g>
</g>
<!-- Node7&#45;&gt;Node18 -->
<g id="edge11" class="edge">
<title>Node7&#45;&gt;Node18</title>
<path fill="none" stroke="#191970" d="M577.1642,-197.0747C659.1403,-192.2915 808.8309,-180.5258 934,-154 947.41,-151.1582 961.9647,-146.683 973.9854,-142.5927"/>
<polygon fill="#191970" stroke="#191970" points="576.81,-193.589 567.0247,-197.6507 577.2071,-200.5778 576.81,-193.589"/>
</g>
<!-- Node13 -->
<g id="node7" class="node">
<title>Node13</title>
<g id="a_node7"><a xlink:href="pybind_8h.html" target="_top" xlink:title="This file includes all the header files containing definitions of functions to bind C++ and Python...">
<polygon fill="#ffffff" stroke="#000000" points="492,-56.5 492,-75.5 562,-75.5 562,-56.5 492,-56.5"/>
<text text-anchor="middle" x="527" y="-63.5" font-family="Helvetica,sans-Serif" font-size="10.00" fill="#000000">src/pybind.h</text>
</a>
</g>
</g>
<!-- Node12&#45;&gt;Node13 -->
<g id="edge6" class="edge">
<title>Node12&#45;&gt;Node13</title>
<path fill="none" stroke="#191970" d="M568.5526,-115.7147C557.8761,-102.941 543.7351,-86.0224 535.0086,-75.5817"/>
<polygon fill="#191970" stroke="#191970" points="565.8779,-117.9723 574.9766,-123.4005 571.2489,-113.4831 565.8779,-117.9723"/>
</g>
<!-- Node15 -->
<g id="node9" class="node">
<title>Node15</title>
<g id="a_node9"><a xlink:href="py__utils_8cpp.html" target="_top" xlink:title="This file is for binding utility functions to Python. ">
<polygon fill="#ffffff" stroke="#000000" points="580.5,-56.5 580.5,-75.5 697.5,-75.5 697.5,-56.5 580.5,-56.5"/>
<text text-anchor="middle" x="639" y="-63.5" font-family="Helvetica,sans-Serif" font-size="10.00" fill="#000000">src/pybind/py_utils.cpp</text>
</a>
</g>
</g>
<!-- Node12&#45;&gt;Node15 -->
<g id="edge8" class="edge">
<title>Node12&#45;&gt;Node15</title>
<path fill="none" stroke="#191970" d="M597.4474,-115.7147C608.1239,-102.941 622.2649,-86.0224 630.9914,-75.5817"/>
<polygon fill="#191970" stroke="#191970" points="594.7511,-113.4831 591.0234,-123.4005 600.1221,-117.9723 594.7511,-113.4831"/>
</g>
<!-- Node14 -->
<g id="node8" class="node">
<title>Node14</title>
<g id="a_node8"><a xlink:href="ppap4lmp_8cpp.html" target="_top" xlink:title="This file has no implementation, only includes a header file to bind C++ and Python. ">
<polygon fill="#ffffff" stroke="#000000" points="480,-.5 480,-19.5 574,-19.5 574,-.5 480,-.5"/>
<text text-anchor="middle" x="527" y="-7.5" font-family="Helvetica,sans-Serif" font-size="10.00" fill="#000000">src/ppap4lmp.cpp</text>
</a>
</g>
</g>
<!-- Node13&#45;&gt;Node14 -->
<g id="edge7" class="edge">
<title>Node13&#45;&gt;Node14</title>
<path fill="none" stroke="#191970" d="M527,-46.1575C527,-37.155 527,-26.9199 527,-19.6427"/>
<polygon fill="#191970" stroke="#191970" points="523.5001,-46.2455 527,-56.2455 530.5001,-46.2456 523.5001,-46.2455"/>
</g>
</g>
</svg>
        <g id="navigator" transform="translate(0 0)" fill="#404254">
                <rect fill="#f2f5e9" fill-opacity="0.5" stroke="#606060" stroke-width=".5" x="0" y="0" width="60" height="60"/>
                <use id="zoomplus" xlink:href="#zoomPlus" x="17" y="9" onmousedown="handleZoom(evt,'in')"/>
                <use id="zoomminus" xlink:href="#zoomMin" x="42" y="9" onmousedown="handleZoom(evt,'out')"/>
                <use id="reset" xlink:href="#resetDef" x="30" y="36" onmousedown="handleReset()"/>
                <g id="arrowUp" xlink:href="#dirArrow" transform="translate(30 24)" onmousedown="handlePan(0,-1)">
                  <use xlink:href="#rim" fill="#404040">
                        <set attributeName="fill" to="#808080" begin="arrowUp.mouseover" end="arrowUp.mouseout"/>
                  </use>
                  <path fill="none" stroke="white" stroke-width="1.5" d="M0,-3.0v7 M-2.5,-0.5L0,-3.0L2.5,-0.5"/>
                </g>
                <g id="arrowRight" xlink:href="#dirArrow" transform="rotate(90) translate(36 -43)" onmousedown="handlePan(1,0)">
                  <use xlink:href="#rim" fill="#404040">
                        <set attributeName="fill" to="#808080" begin="arrowRight.mouseover" end="arrowRight.mouseout"/>
                  </use>
                  <path fill="none" stroke="white" stroke-width="1.5" d="M0,-3.0v7 M-2.5,-0.5L0,-3.0L2.5,-0.5"/>
                </g>
                <g id="arrowDown" xlink:href="#dirArrow" transform="rotate(180) translate(-30 -48)" onmousedown="handlePan(0,1)">
                  <use xlink:href="#rim" fill="#404040">
                        <set attributeName="fill" to="#808080" begin="arrowDown.mouseover" end="arrowDown.mouseout"/>
                  </use>
                  <path fill="none" stroke="white" stroke-width="1.5" d="M0,-3.0v7 M-2.5,-0.5L0,-3.0L2.5,-0.5"/>
                </g>
                <g id="arrowLeft" xlink:href="#dirArrow" transform="rotate(270) translate(-36 17)" onmousedown="handlePan(-1,0)">
                  <use xlink:href="#rim" fill="#404040">
                        <set attributeName="fill" to="#808080" begin="arrowLeft.mouseover" end="arrowLeft.mouseout"/>
                  </use>
                  <path fill="none" stroke="white" stroke-width="1.5" d="M0,-3.0v7 M-2.5,-0.5L0,-3.0L2.5,-0.5"/>
                </g>
        </g>
        <svg viewBox="0 0 15 15" width="100%" height="30px" preserveAspectRatio="xMaxYMin meet">
         <g id="arrow_out" transform="scale(0.3 0.3)">
          <a xlink:href="message_8h__dep__incl_org.svg" target="_base">
           <rect id="button" ry="5" rx="5" y="6" x="6" height="38" width="38"
                fill="#f2f5e9" fill-opacity="0.5" stroke="#606060" stroke-width="1.0"/>
           <path id="arrow"
             d="M 11.500037,31.436501 C 11.940474,20.09759 22.043105,11.32322 32.158766,21.979434 L 37.068811,17.246167 C 37.068811,17.246167 37.088388,32 37.088388,32 L 22.160133,31.978069 C 22.160133,31.978069 26.997745,27.140456 26.997745,27.140456 C 18.528582,18.264221 13.291696,25.230495 11.500037,31.436501 z"
             style="fill:#404040;"/>
          </a>
         </g>
        </svg>
</svg>
