<?xml version="1.0" encoding="UTF-8" standalone="no"?>
<!DOCTYPE svg PUBLIC "-//W3C//DTD SVG 1.1//EN"
 "http://www.w3.org/Graphics/SVG/1.1/DTD/svg11.dtd">
<!-- Generated by graphviz version 2.40.1 (20161225.0304)
 -->
<!-- Title: utils::warning Pages: 1 -->
<svg width="263pt" height="127pt"
 viewBox="0.00 0.00 263.00 126.50" xmlns="http://www.w3.org/2000/svg" xmlns:xlink="http://www.w3.org/1999/xlink">
<g id="graph0" class="graph" transform="scale(1 1) rotate(0) translate(4 122.5)">
<title>utils::warning</title>
<polygon fill="#ffffff" stroke="transparent" points="-4,4 -4,-122.5 259,-122.5 259,4 -4,4"/>
<!-- Node140 -->
<g id="node1" class="node">
<title>Node140</title>
<polygon fill="#bfbfbf" stroke="#000000" points="0,-55 0,-74 74,-74 74,-55 0,-55"/>
<text text-anchor="middle" x="37" y="-62" font-family="Helvetica,sans-Serif" font-size="10.00" fill="#000000">utils::warning</text>
</g>
<!-- Node141 -->
<g id="node2" class="node">
<title>Node141</title>
<g id="a_node2"><a xlink:href="classFilter.html#acd658aa335c8b5215242737aabcf5155" target="_top" xlink:title="Filter elements from array Element::data given as a mutable reference. ">
<polygon fill="#ffffff" stroke="#000000" points="141.5,-99 141.5,-118 223.5,-118 223.5,-99 141.5,-99"/>
<text text-anchor="middle" x="182.5" y="-106" font-family="Helvetica,sans-Serif" font-size="10.00" fill="#000000">Filter::compute</text>
</a>
</g>
</g>
<!-- Node140&#45;&gt;Node141 -->
<g id="edge1" class="edge">
<title>Node140&#45;&gt;Node141</title>
<path fill="none" stroke="#191970" d="M73.0203,-77.4238C84.7527,-81.4753 97.8766,-85.8409 110,-89.5 120.962,-92.8086 132.9545,-96.0876 143.9738,-98.9665"/>
<polygon fill="#191970" stroke="#191970" points="74.1397,-74.1075 63.5449,-74.1169 71.8331,-80.7166 74.1397,-74.1075"/>
</g>
<!-- Node142 -->
<g id="node3" class="node">
<title>Node142</title>
<g id="a_node3"><a xlink:href="classProRadialDistributionFunction.html#ab57365923a1645429f9c471df2f84c84" target="_top" xlink:title="Implementation of analysis using an element of generators. ">
<polygon fill="#ffffff" stroke="#000000" points="110,-49.5 110,-79.5 255,-79.5 255,-49.5 110,-49.5"/>
<text text-anchor="start" x="118" y="-67.5" font-family="Helvetica,sans-Serif" font-size="10.00" fill="#000000">ProRadialDistributionFunction</text>
<text text-anchor="middle" x="182.5" y="-56.5" font-family="Helvetica,sans-Serif" font-size="10.00" fill="#000000">::run_impl</text>
</a>
</g>
</g>
<!-- Node140&#45;&gt;Node142 -->
<g id="edge2" class="edge">
<title>Node140&#45;&gt;Node142</title>
<path fill="none" stroke="#191970" d="M84.1813,-64.5C92.3858,-64.5 101.0874,-64.5 109.7883,-64.5"/>
<polygon fill="#191970" stroke="#191970" points="84.0923,-61.0001 74.0923,-64.5 84.0922,-68.0001 84.0923,-61.0001"/>
</g>
<!-- Node143 -->
<g id="node4" class="node">
<title>Node143</title>
<g id="a_node4"><a xlink:href="classProRadialDistributionFunctionWithDeformation.html#a30f40581903736b31e5d242ae499c32f" target="_top" xlink:title="Implementation of analysis using an element of generators. ">
<polygon fill="#ffffff" stroke="#000000" points="110,-.5 110,-30.5 255,-30.5 255,-.5 110,-.5"/>
<text text-anchor="start" x="118" y="-18.5" font-family="Helvetica,sans-Serif" font-size="10.00" fill="#000000">ProRadialDistributionFunction</text>
<text text-anchor="middle" x="182.5" y="-7.5" font-family="Helvetica,sans-Serif" font-size="10.00" fill="#000000">WithDeformation::run_impl</text>
</a>
</g>
</g>
<!-- Node140&#45;&gt;Node143 -->
<g id="edge3" class="edge">
<title>Node140&#45;&gt;Node143</title>
<path fill="none" stroke="#191970" d="M75.0359,-51.6907C94.2787,-45.2103 117.754,-37.3045 137.8494,-30.537"/>
<polygon fill="#191970" stroke="#191970" points="73.7592,-48.4274 65.3993,-54.936 75.9934,-55.0613 73.7592,-48.4274"/>
</g>
</g>
</svg>
