<?xml version="1.0" encoding="UTF-8" standalone="no"?>
<!DOCTYPE svg PUBLIC "-//W3C//DTD SVG 1.1//EN"
 "http://www.w3.org/Graphics/SVG/1.1/DTD/svg11.dtd">
<!-- Generated by graphviz version 2.40.1 (20161225.0304)
 -->
<!-- Title: utils::log Pages: 1 -->
<svg width="650pt" height="237pt"
 viewBox="0.00 0.00 650.00 237.00" xmlns="http://www.w3.org/2000/svg" xmlns:xlink="http://www.w3.org/1999/xlink">
<g id="graph0" class="graph" transform="scale(1 1) rotate(0) translate(4 233)">
<title>utils::log</title>
<polygon fill="#ffffff" stroke="transparent" points="-4,4 -4,-233 646,-233 646,4 -4,4"/>
<!-- Node43 -->
<g id="node1" class="node">
<title>Node43</title>
<polygon fill="#bfbfbf" stroke="#000000" points="0,-76.5 0,-95.5 53,-95.5 53,-76.5 0,-76.5"/>
<text text-anchor="middle" x="26.5" y="-83.5" font-family="Helvetica,sans-Serif" font-size="10.00" fill="#000000">utils::log</text>
</g>
<!-- Node44 -->
<g id="node2" class="node">
<title>Node44</title>
<g id="a_node2"><a xlink:href="classElement.html#a9ff7a4e19165faa6da26635d9145b46b" target="_top" xlink:title="This method decrements n_remain. ">
<polygon fill="#ffffff" stroke="#000000" points="98,-134 98,-164 202,-164 202,-134 98,-134"/>
<text text-anchor="start" x="106" y="-152" font-family="Helvetica,sans-Serif" font-size="10.00" fill="#000000">Element::decrement</text>
<text text-anchor="middle" x="150" y="-141" font-family="Helvetica,sans-Serif" font-size="10.00" fill="#000000">_remain</text>
</a>
</g>
</g>
<!-- Node43&#45;&gt;Node44 -->
<g id="edge1" class="edge">
<title>Node43&#45;&gt;Node44</title>
<path fill="none" stroke="#191970" d="M49.4073,-101.1206C61.0212,-108.4766 75.4939,-117.1797 89,-124 95.845,-127.4566 103.2854,-130.8163 110.5407,-133.893"/>
<polygon fill="#191970" stroke="#191970" points="51.0833,-98.0371 40.7793,-95.5718 47.2969,-103.9247 51.0833,-98.0371"/>
</g>
<!-- Node45 -->
<g id="node3" class="node">
<title>Node45</title>
<g id="a_node3"><a xlink:href="classElement.html#a1fdb9455f49d2c66a0276925f7246cad" target="_top" xlink:title="Routines to be conducted when a wrapper of getter is called from Python. ">
<polygon fill="#ffffff" stroke="#000000" points="89,-95.5 89,-114.5 211,-114.5 211,-95.5 89,-95.5"/>
<text text-anchor="middle" x="150" y="-102.5" font-family="Helvetica,sans-Serif" font-size="10.00" fill="#000000">Element::init_for_python</text>
</a>
</g>
</g>
<!-- Node43&#45;&gt;Node45 -->
<g id="edge2" class="edge">
<title>Node43&#45;&gt;Node45</title>
<path fill="none" stroke="#191970" d="M63.397,-91.6765C71.4174,-92.9104 80.1093,-94.2476 88.7871,-95.5826"/>
<polygon fill="#191970" stroke="#191970" points="63.7136,-88.1841 53.2977,-90.1227 62.6491,-95.1027 63.7136,-88.1841"/>
</g>
<!-- Node54 -->
<g id="node12" class="node">
<title>Node54</title>
<g id="a_node12"><a xlink:href="classInvOMP.html#a6d30ee44e69355e633855773a4d8cfef" target="_top" xlink:title="InvOMP::execute_impl">
<polygon fill="#ffffff" stroke="#000000" points="92,-57.5 92,-76.5 208,-76.5 208,-57.5 92,-57.5"/>
<text text-anchor="middle" x="150" y="-64.5" font-family="Helvetica,sans-Serif" font-size="10.00" fill="#000000">InvOMP::execute_impl</text>
</a>
</g>
</g>
<!-- Node43&#45;&gt;Node54 -->
<g id="edge16" class="edge">
<title>Node43&#45;&gt;Node54</title>
<path fill="none" stroke="#191970" d="M63.375,-80.3269C72.3367,-78.9482 82.1377,-77.4404 91.8212,-75.9506"/>
<polygon fill="#191970" stroke="#191970" points="62.6491,-76.8973 53.2977,-81.8773 63.7136,-83.8159 62.6491,-76.8973"/>
</g>
<!-- Node55 -->
<g id="node13" class="node">
<title>Node55</title>
<g id="a_node13"><a xlink:href="classInvoker.html#a72e473312201d41ea0711cea5346476c" target="_top" xlink:title="Invoker::execute">
<polygon fill="#ffffff" stroke="#000000" points="105.5,-.5 105.5,-19.5 194.5,-19.5 194.5,-.5 105.5,-.5"/>
<text text-anchor="middle" x="150" y="-7.5" font-family="Helvetica,sans-Serif" font-size="10.00" fill="#000000">Invoker::execute</text>
</a>
</g>
</g>
<!-- Node43&#45;&gt;Node55 -->
<g id="edge17" class="edge">
<title>Node43&#45;&gt;Node55</title>
<path fill="none" stroke="#191970" d="M50.9673,-70.9432C75.7993,-55.662 113.488,-32.4689 134.4856,-19.5473"/>
<polygon fill="#191970" stroke="#191970" points="48.8236,-68.1527 42.1414,-76.3745 52.4923,-74.1143 48.8236,-68.1527"/>
</g>
<!-- Node46 -->
<g id="node4" class="node">
<title>Node46</title>
<g id="a_node4"><a xlink:href="classElement.html#a62989090a40d237e617bc6e5f5087388" target="_top" xlink:title="Wrapper for the get_data method which returns a reference. Can be called from Python as get_data...">
<polygon fill="#ffffff" stroke="#000000" points="255,-209.5 255,-228.5 367,-228.5 367,-209.5 255,-209.5"/>
<text text-anchor="middle" x="311" y="-216.5" font-family="Helvetica,sans-Serif" font-size="10.00" fill="#000000">Element::get_data_py</text>
</a>
</g>
</g>
<!-- Node45&#45;&gt;Node46 -->
<g id="edge3" class="edge">
<title>Node45&#45;&gt;Node46</title>
<path fill="none" stroke="#191970" d="M202.9521,-119.173C205.8163,-120.898 208.5283,-122.832 211,-125 238.7964,-149.3818 218.8622,-176.0131 247,-200 251.5866,-203.91 256.9505,-207.0155 262.5867,-209.482"/>
<polygon fill="#191970" stroke="#191970" points="204.4894,-116.0281 193.9913,-114.5996 201.3072,-122.263 204.4894,-116.0281"/>
</g>
<!-- Node49 -->
<g id="node7" class="node">
<title>Node49</title>
<g id="a_node7"><a xlink:href="classElement.html#ae253cbec6307a157902d7f25867ded2b" target="_top" xlink:title="Wrapper for the get_keys method. Can be called from Python as get_keys. ">
<polygon fill="#ffffff" stroke="#000000" points="254,-171.5 254,-190.5 368,-190.5 368,-171.5 254,-171.5"/>
<text text-anchor="middle" x="311" y="-178.5" font-family="Helvetica,sans-Serif" font-size="10.00" fill="#000000">Element::get_keys_py</text>
</a>
</g>
</g>
<!-- Node45&#45;&gt;Node49 -->
<g id="edge6" class="edge">
<title>Node45&#45;&gt;Node49</title>
<path fill="none" stroke="#191970" d="M198.0509,-118.2618C202.5651,-120.2396 206.9581,-122.4774 211,-125 230.4641,-137.1478 227.3663,-150.1282 247,-162 253.3477,-165.8382 260.5215,-168.9448 267.7117,-171.4457"/>
<polygon fill="#191970" stroke="#191970" points="199.2749,-114.9821 188.6885,-114.5594 196.7006,-121.4916 199.2749,-114.9821"/>
</g>
<!-- Node50 -->
<g id="node8" class="node">
<title>Node50</title>
<g id="a_node8"><a xlink:href="classElement.html#a8257b02b1e3b208f193b35d5d47b9af8" target="_top" xlink:title="Wrapper for the array1d method for integer values. Can be called from Python as get_1d_int. ">
<polygon fill="#ffffff" stroke="#000000" points="251.5,-133.5 251.5,-152.5 370.5,-152.5 370.5,-133.5 251.5,-133.5"/>
<text text-anchor="middle" x="311" y="-140.5" font-family="Helvetica,sans-Serif" font-size="10.00" fill="#000000">Element::get_1d_int_py</text>
</a>
</g>
</g>
<!-- Node45&#45;&gt;Node50 -->
<g id="edge8" class="edge">
<title>Node45&#45;&gt;Node50</title>
<path fill="none" stroke="#191970" d="M200.4018,-116.8961C223.032,-122.2374 249.3695,-128.4537 270.665,-133.4799"/>
<polygon fill="#191970" stroke="#191970" points="201.1637,-113.4798 190.6271,-114.589 199.5557,-120.2926 201.1637,-113.4798"/>
</g>
<!-- Node51 -->
<g id="node9" class="node">
<title>Node51</title>
<g id="a_node9"><a xlink:href="classElement.html#a3f11848589faad4cbca8119385887713" target="_top" xlink:title="Wrapper for the array1d method for float (double in C++) values. Can be called from Python as get_1d_...">
<polygon fill="#ffffff" stroke="#000000" points="247,-95.5 247,-114.5 375,-114.5 375,-95.5 247,-95.5"/>
<text text-anchor="middle" x="311" y="-102.5" font-family="Helvetica,sans-Serif" font-size="10.00" fill="#000000">Element::get_1d_float_py</text>
</a>
</g>
</g>
<!-- Node45&#45;&gt;Node51 -->
<g id="edge10" class="edge">
<title>Node45&#45;&gt;Node51</title>
<path fill="none" stroke="#191970" d="M221.5386,-105C229.9857,-105 238.566,-105 246.9014,-105"/>
<polygon fill="#191970" stroke="#191970" points="221.3265,-101.5001 211.3265,-105 221.3264,-108.5001 221.3265,-101.5001"/>
</g>
<!-- Node52 -->
<g id="node10" class="node">
<title>Node52</title>
<g id="a_node10"><a xlink:href="classElement.html#a8e8245fb94b6417e3e804e6bfdf2f906" target="_top" xlink:title="Wrapper for the array2d method for integer values. Can be called from Python as get_2d_int. ">
<polygon fill="#ffffff" stroke="#000000" points="251.5,-57.5 251.5,-76.5 370.5,-76.5 370.5,-57.5 251.5,-57.5"/>
<text text-anchor="middle" x="311" y="-64.5" font-family="Helvetica,sans-Serif" font-size="10.00" fill="#000000">Element::get_2d_int_py</text>
</a>
</g>
</g>
<!-- Node45&#45;&gt;Node52 -->
<g id="edge12" class="edge">
<title>Node45&#45;&gt;Node52</title>
<path fill="none" stroke="#191970" d="M200.4018,-93.1039C223.032,-87.7626 249.3695,-81.5463 270.665,-76.5201"/>
<polygon fill="#191970" stroke="#191970" points="199.5557,-89.7074 190.6271,-95.411 201.1637,-96.5202 199.5557,-89.7074"/>
</g>
<!-- Node53 -->
<g id="node11" class="node">
<title>Node53</title>
<g id="a_node11"><a xlink:href="classElement.html#a6a62280eadd3d4e6bfe8c43082797733" target="_top" xlink:title="Wrapper for the array2d method for float (double in C++) values. Can be called from Python as get_2d_...">
<polygon fill="#ffffff" stroke="#000000" points="247,-19.5 247,-38.5 375,-38.5 375,-19.5 247,-19.5"/>
<text text-anchor="middle" x="311" y="-26.5" font-family="Helvetica,sans-Serif" font-size="10.00" fill="#000000">Element::get_2d_float_py</text>
</a>
</g>
</g>
<!-- Node45&#45;&gt;Node53 -->
<g id="edge14" class="edge">
<title>Node45&#45;&gt;Node53</title>
<path fill="none" stroke="#191970" d="M200.3532,-91.6358C204.0602,-89.9573 207.6535,-88.085 211,-86 230.7456,-73.6978 227.1726,-60.17 247,-48 253.2232,-44.1802 260.2594,-41.0898 267.3315,-38.6011"/>
<polygon fill="#191970" stroke="#191970" points="198.9429,-88.4306 190.9802,-95.4195 201.5633,-94.9217 198.9429,-88.4306"/>
</g>
<!-- Node47 -->
<g id="node5" class="node">
<title>Node47</title>
<g id="a_node5"><a xlink:href="pybind_2element_8h.html#a32471b3cace9ede01900bfbdaca5e16a" target="_top" xlink:title="pybind_element">
<polygon fill="#ffffff" stroke="#000000" points="411,-95.5 411,-114.5 496,-114.5 496,-95.5 411,-95.5"/>
<text text-anchor="middle" x="453.5" y="-102.5" font-family="Helvetica,sans-Serif" font-size="10.00" fill="#000000">pybind_element</text>
</a>
</g>
</g>
<!-- Node46&#45;&gt;Node47 -->
<g id="edge4" class="edge">
<title>Node46&#45;&gt;Node47</title>
<path fill="none" stroke="#191970" d="M365.1852,-205.4971C368.6125,-203.8634 371.9187,-202.0382 375,-200 409.7969,-176.9827 437.1298,-133.9104 448.1799,-114.6906"/>
<polygon fill="#191970" stroke="#191970" points="363.7707,-202.2949 355.9013,-209.3888 366.4769,-208.7506 363.7707,-202.2949"/>
</g>
<!-- Node48 -->
<g id="node6" class="node">
<title>Node48</title>
<g id="a_node6"><a xlink:href="pybind_8h.html#a4714c4a855ebb82892410d5254e9ccdc" target="_top" xlink:title="PYBIND11_MODULE">
<polygon fill="#ffffff" stroke="#000000" points="532,-38.5 532,-57.5 642,-57.5 642,-38.5 532,-38.5"/>
<text text-anchor="middle" x="587" y="-45.5" font-family="Helvetica,sans-Serif" font-size="10.00" fill="#000000">PYBIND11_MODULE</text>
</a>
</g>
</g>
<!-- Node47&#45;&gt;Node48 -->
<g id="edge5" class="edge">
<title>Node47&#45;&gt;Node48</title>
<path fill="none" stroke="#191970" d="M485.0699,-91.5207C509.5251,-81.0792 542.8011,-66.8715 564.5822,-57.5716"/>
<polygon fill="#191970" stroke="#191970" points="483.6673,-88.3138 475.8449,-95.4595 486.4161,-94.7516 483.6673,-88.3138"/>
</g>
<!-- Node49&#45;&gt;Node47 -->
<g id="edge7" class="edge">
<title>Node49&#45;&gt;Node47</title>
<path fill="none" stroke="#191970" d="M360.4046,-168.1935C365.4268,-166.3433 370.3762,-164.2812 375,-162 401.4323,-148.9596 428.4098,-127.1118 442.8352,-114.5917"/>
<polygon fill="#191970" stroke="#191970" points="359.0601,-164.954 350.7235,-171.4925 361.318,-171.5799 359.0601,-164.954"/>
</g>
<!-- Node50&#45;&gt;Node47 -->
<g id="edge9" class="edge">
<title>Node50&#45;&gt;Node47</title>
<path fill="none" stroke="#191970" d="M356.6531,-130.8258C376.3577,-125.5713 399.0747,-119.5134 417.5527,-114.5859"/>
<polygon fill="#191970" stroke="#191970" points="355.7193,-127.4525 346.9588,-133.411 357.523,-134.2161 355.7193,-127.4525"/>
</g>
<!-- Node51&#45;&gt;Node47 -->
<g id="edge11" class="edge">
<title>Node51&#45;&gt;Node47</title>
<path fill="none" stroke="#191970" d="M385.4194,-105C394.1581,-105 402.8331,-105 410.9172,-105"/>
<polygon fill="#191970" stroke="#191970" points="385.1633,-101.5001 375.1633,-105 385.1632,-108.5001 385.1633,-101.5001"/>
</g>
<!-- Node52&#45;&gt;Node47 -->
<g id="edge13" class="edge">
<title>Node52&#45;&gt;Node47</title>
<path fill="none" stroke="#191970" d="M356.6531,-79.1742C376.3577,-84.4287 399.0747,-90.4866 417.5527,-95.4141"/>
<polygon fill="#191970" stroke="#191970" points="357.523,-75.7839 346.9588,-76.589 355.7193,-82.5475 357.523,-75.7839"/>
</g>
<!-- Node53&#45;&gt;Node47 -->
<g id="edge15" class="edge">
<title>Node53&#45;&gt;Node47</title>
<path fill="none" stroke="#191970" d="M360.4046,-41.8065C365.4268,-43.6567 370.3762,-45.7188 375,-48 401.4323,-61.0404 428.4098,-82.8882 442.8352,-95.4083"/>
<polygon fill="#191970" stroke="#191970" points="361.318,-38.4201 350.7235,-38.5075 359.0601,-45.046 361.318,-38.4201"/>
</g>
<!-- Node56 -->
<g id="node14" class="node">
<title>Node56</title>
<g id="a_node14"><a xlink:href="pybind_2invokers_2invoker_8h.html#a862abb0356ee584e3363ac24ec776fbb" target="_top" xlink:title="pybind_invoker">
<polygon fill="#ffffff" stroke="#000000" points="412.5,-19.5 412.5,-38.5 494.5,-38.5 494.5,-19.5 412.5,-19.5"/>
<text text-anchor="middle" x="453.5" y="-26.5" font-family="Helvetica,sans-Serif" font-size="10.00" fill="#000000">pybind_invoker</text>
</a>
</g>
</g>
<!-- Node55&#45;&gt;Node56 -->
<g id="edge18" class="edge">
<title>Node55&#45;&gt;Node56</title>
<path fill="none" stroke="#191970" d="M204.5762,-6.3959C250.2748,-4.2399 317.1233,-3.0955 375,-10 390.5941,-11.8603 407.5687,-15.7296 421.7311,-19.4939"/>
<polygon fill="#191970" stroke="#191970" points="204.3947,-2.9005 194.5836,-6.8994 204.7471,-9.8917 204.3947,-2.9005"/>
</g>
<!-- Node56&#45;&gt;Node48 -->
<g id="edge19" class="edge">
<title>Node56&#45;&gt;Node48</title>
<path fill="none" stroke="#191970" d="M504.5669,-36.2679C513.5398,-37.545 522.9136,-38.8791 531.9884,-40.1706"/>
<polygon fill="#191970" stroke="#191970" points="505.0371,-32.7997 494.6437,-34.8557 504.0508,-39.7299 505.0371,-32.7997"/>
</g>
</g>
</svg>
