<?xml version="1.0" encoding="UTF-8" standalone="no"?>
<!DOCTYPE svg PUBLIC "-//W3C//DTD SVG 1.1//EN"
 "http://www.w3.org/Graphics/SVG/1.1/DTD/svg11.dtd">
<!-- Generated by graphviz version 2.40.1 (20161225.0304)
 -->
<!-- Title: utils::pyargs_to_vec Pages: 1 -->
<svg width="416pt" height="104pt"
 viewBox="0.00 0.00 416.00 104.00" xmlns="http://www.w3.org/2000/svg" xmlns:xlink="http://www.w3.org/1999/xlink">
<g id="graph0" class="graph" transform="scale(1 1) rotate(0) translate(4 100)">
<title>utils::pyargs_to_vec</title>
<polygon fill="#ffffff" stroke="transparent" points="-4,4 -4,-100 412,-100 412,4 -4,4"/>
<!-- Node59 -->
<g id="node1" class="node">
<title>Node59</title>
<polygon fill="#bfbfbf" stroke="#000000" points="0,-38.5 0,-57.5 104,-57.5 104,-38.5 0,-38.5"/>
<text text-anchor="middle" x="52" y="-45.5" font-family="Helvetica,sans-Serif" font-size="10.00" fill="#000000">utils::pyargs_to_vec</text>
</g>
<!-- Node60 -->
<g id="node2" class="node">
<title>Node60</title>
<g id="a_node2"><a xlink:href="classElement.html#a8e8245fb94b6417e3e804e6bfdf2f906" target="_top" xlink:title="Get integer values stored in Element::data of this object as a two&#45;dimensional Numpy&#45;Array. ">
<polygon fill="#ffffff" stroke="#000000" points="144.5,-76.5 144.5,-95.5 263.5,-95.5 263.5,-76.5 144.5,-76.5"/>
<text text-anchor="middle" x="204" y="-83.5" font-family="Helvetica,sans-Serif" font-size="10.00" fill="#000000">Element::get_2d_int_py</text>
</a>
</g>
</g>
<!-- Node59&#45;&gt;Node60 -->
<g id="edge1" class="edge">
<title>Node59&#45;&gt;Node60</title>
<path fill="none" stroke="#191970" d="M100.16,-60.04C121.3951,-65.3488 145.995,-71.4988 165.9198,-76.4799"/>
<polygon fill="#191970" stroke="#191970" points="100.9063,-56.6189 90.356,-57.589 99.2085,-63.4099 100.9063,-56.6189"/>
</g>
<!-- Node62 -->
<g id="node4" class="node">
<title>Node62</title>
<g id="a_node4"><a xlink:href="classElement.html#a6a62280eadd3d4e6bfe8c43082797733" target="_top" xlink:title="Get float values stored in Element::data of this object as a two&#45;dimensional Numpy&#45;Array. ">
<polygon fill="#ffffff" stroke="#000000" points="140,-38.5 140,-57.5 268,-57.5 268,-38.5 140,-38.5"/>
<text text-anchor="middle" x="204" y="-45.5" font-family="Helvetica,sans-Serif" font-size="10.00" fill="#000000">Element::get_2d_float_py</text>
</a>
</g>
</g>
<!-- Node59&#45;&gt;Node62 -->
<g id="edge3" class="edge">
<title>Node59&#45;&gt;Node62</title>
<path fill="none" stroke="#191970" d="M114.3845,-48C122.7602,-48 131.3639,-48 139.7707,-48"/>
<polygon fill="#191970" stroke="#191970" points="114.3098,-44.5001 104.3098,-48 114.3097,-51.5001 114.3098,-44.5001"/>
</g>
<!-- Node63 -->
<g id="node5" class="node">
<title>Node63</title>
<g id="a_node5"><a xlink:href="classProData.html#a15154c6692dda916207fa21316794474" target="_top" xlink:title="Specify string keys for properties to be copied. ">
<polygon fill="#ffffff" stroke="#000000" points="162,-.5 162,-19.5 246,-19.5 246,-.5 162,-.5"/>
<text text-anchor="middle" x="204" y="-7.5" font-family="Helvetica,sans-Serif" font-size="10.00" fill="#000000">ProData::select</text>
</a>
</g>
</g>
<!-- Node59&#45;&gt;Node63 -->
<g id="edge5" class="edge">
<title>Node59&#45;&gt;Node63</title>
<path fill="none" stroke="#191970" d="M100.16,-35.96C121.3951,-30.6512 145.995,-24.5012 165.9198,-19.5201"/>
<polygon fill="#191970" stroke="#191970" points="99.2085,-32.5901 90.356,-38.411 100.9063,-39.3811 99.2085,-32.5901"/>
</g>
<!-- Node61 -->
<g id="node3" class="node">
<title>Node61</title>
<g id="a_node3"><a xlink:href="namespacepybind.html#aa960fe0db10e19d7b7b60784a7e81be0" target="_top" xlink:title="Bind Element class to Python. ">
<polygon fill="#ffffff" stroke="#000000" points="305.5,-57.5 305.5,-76.5 406.5,-76.5 406.5,-57.5 305.5,-57.5"/>
<text text-anchor="middle" x="356" y="-64.5" font-family="Helvetica,sans-Serif" font-size="10.00" fill="#000000">pybind::py_element</text>
</a>
</g>
</g>
<!-- Node60&#45;&gt;Node61 -->
<g id="edge2" class="edge">
<title>Node60&#45;&gt;Node61</title>
<path fill="none" stroke="#191970" d="M273.7749,-77.2781C284.4289,-75.9464 295.2471,-74.5941 305.3846,-73.3269"/>
<polygon fill="#191970" stroke="#191970" points="273.1268,-73.8318 263.6382,-78.5452 273.9951,-80.7778 273.1268,-73.8318"/>
</g>
<!-- Node62&#45;&gt;Node61 -->
<g id="edge4" class="edge">
<title>Node62&#45;&gt;Node61</title>
<path fill="none" stroke="#191970" d="M278.0454,-57.2557C287.3216,-58.4152 296.6367,-59.5796 305.4374,-60.6797"/>
<polygon fill="#191970" stroke="#191970" points="278.3781,-53.7701 268.0211,-56.0026 277.5098,-60.716 278.3781,-53.7701"/>
</g>
<!-- Node64 -->
<g id="node6" class="node">
<title>Node64</title>
<g id="a_node6"><a xlink:href="namespacepybind.html#a6cb2529ac748a66776d5a1215ccec87d" target="_top" xlink:title="Bind ProData class to Python. ">
<polygon fill="#ffffff" stroke="#000000" points="304,-.5 304,-19.5 408,-19.5 408,-.5 304,-.5"/>
<text text-anchor="middle" x="356" y="-7.5" font-family="Helvetica,sans-Serif" font-size="10.00" fill="#000000">pybind::py_pro_data</text>
</a>
</g>
</g>
<!-- Node63&#45;&gt;Node64 -->
<g id="edge6" class="edge">
<title>Node63&#45;&gt;Node64</title>
<path fill="none" stroke="#191970" d="M256.6631,-10C271.9454,-10 288.6219,-10 303.8713,-10"/>
<polygon fill="#191970" stroke="#191970" points="256.3405,-6.5001 246.3405,-10 256.3404,-13.5001 256.3405,-6.5001"/>
</g>
</g>
</svg>
