<?xml version="1.0" encoding="UTF-8" standalone="no"?>
<!DOCTYPE svg PUBLIC "-//W3C//DTD SVG 1.1//EN"
 "http://www.w3.org/Graphics/SVG/1.1/DTD/svg11.dtd">
<!-- Generated by graphviz version 2.40.1 (20161225.0304)
 -->
<!-- Title: utils::map_to_index Pages: 1 -->
<!--zoomable 613 -->
<svg id="main" version="1.1" xmlns="http://www.w3.org/2000/svg" xmlns:xlink="http://www.w3.org/1999/xlink" xml:space="preserve" onload="init(evt)">
<style type="text/css"><![CDATA[
.edge:hover path { stroke: red; }
.edge:hover polygon { stroke: red; fill: red; }
]]></style>
<script type="text/javascript"><![CDATA[
var edges = document.getElementsByTagName('g');
if (edges && edges.length) {
  for (var i=0;i<edges.length;i++) {
    if (edges[i].id.substr(0,4)=='edge') {
      edges[i].setAttribute('class','edge');
    }
  }
}
]]></script>
        <defs>
                <circle id="rim" cx="0" cy="0" r="7"/>
                <circle id="rim2" cx="0" cy="0" r="3.5"/>
                <g id="zoomPlus">
                        <use xlink:href="#rim" fill="#404040">
                                <set attributeName="fill" to="#808080" begin="zoomplus.mouseover" end="zoomplus.mouseout"/>
                        </use>
                        <path d="M-4,0h8M0,-4v8" fill="none" stroke="white" stroke-width="1.5" pointer-events="none"/>
                </g>
                <g id="zoomMin">
                        <use xlink:href="#rim" fill="#404040">
                                <set attributeName="fill" to="#808080" begin="zoomminus.mouseover" end="zoomminus.mouseout"/>
                        </use>
                        <path d="M-4,0h8" fill="none" stroke="white" stroke-width="1.5" pointer-events="none"/>
                </g>
                <g id="dirArrow">
                        <path fill="none" stroke="white" stroke-width="1.5" d="M0,-3.0v7 M-2.5,-0.5L0,-3.0L2.5,-0.5"/>
                </g>
               <g id="resetDef">
                       <use xlink:href="#rim2" fill="#404040">
                               <set attributeName="fill" to="#808080" begin="reset.mouseover" end="reset.mouseout"/>
                       </use>
               </g>
        </defs>

<script type="text/javascript">
var viewWidth = 505;
var viewHeight = 613;
var sectionId = 'dynsection-5';
</script>
<script xlink:href="svgpan.js"/>
<svg id="graph" class="graph">
<g id="viewport">
<title>utils::map_to_index</title>
<polygon fill="#ffffff" stroke="transparent" points="-4,4 -4,-609 501,-609 501,4 -4,4"/>
<!-- Node35 -->
<g id="node1" class="node">
<title>Node35</title>
<polygon fill="#bfbfbf" stroke="#000000" points="0,-301.5 0,-320.5 101,-320.5 101,-301.5 0,-301.5"/>
<text text-anchor="middle" x="50.5" y="-308.5" font-family="Helvetica,sans-Serif" font-size="10.00" fill="#000000">utils::map_to_index</text>
</g>
<!-- Node36 -->
<g id="node2" class="node">
<title>Node36</title>
<g id="a_node2"><a xlink:href="classAddBondAngle.html#a24f4bb313b518d6f9211ecc32c94daa5" target="_top" xlink:title="This method overrides Updater::compute_impl. ">
<polygon fill="#ffffff" stroke="#000000" points="143.5,-585.5 143.5,-604.5 291.5,-604.5 291.5,-585.5 143.5,-585.5"/>
<text text-anchor="middle" x="217.5" y="-592.5" font-family="Helvetica,sans-Serif" font-size="10.00" fill="#000000">AddBondAngle::compute_impl</text>
</a>
</g>
</g>
<!-- Node35&#45;&gt;Node36 -->
<g id="edge1" class="edge">
<title>Node35&#45;&gt;Node36</title>
<path fill="none" stroke="#191970" d="M54.3215,-330.6074C65.4935,-385.9675 99.6735,-541.6749 137,-576 141.1223,-579.7908 145.8568,-582.8675 150.9214,-585.3598"/>
<polygon fill="#191970" stroke="#191970" points="57.7282,-329.7931 52.3466,-320.6669 50.8624,-331.1572 57.7282,-329.7931"/>
</g>
<!-- Node37 -->
<g id="node3" class="node">
<title>Node37</title>
<g id="a_node3"><a xlink:href="classAddBondLength.html#aa6e01ac14e34780bb22a951d8be2aac5" target="_top" xlink:title="This method overrides Updater::compute_impl. ">
<polygon fill="#ffffff" stroke="#000000" points="141.5,-547.5 141.5,-566.5 293.5,-566.5 293.5,-547.5 141.5,-547.5"/>
<text text-anchor="middle" x="217.5" y="-554.5" font-family="Helvetica,sans-Serif" font-size="10.00" fill="#000000">AddBondLength::compute_impl</text>
</a>
</g>
</g>
<!-- Node35&#45;&gt;Node37 -->
<g id="edge2" class="edge">
<title>Node35&#45;&gt;Node37</title>
<path fill="none" stroke="#191970" d="M51.9614,-330.498C56.3506,-374.5552 73.3729,-482.2786 137,-538 141.3211,-541.7842 146.2572,-544.8497 151.5106,-547.3287"/>
<polygon fill="#191970" stroke="#191970" points="55.4461,-330.1696 51.08,-320.5162 48.4733,-330.7854 55.4461,-330.1696"/>
</g>
<!-- Node38 -->
<g id="node4" class="node">
<title>Node38</title>
<g id="a_node4"><a xlink:href="classAddChildIDs.html#a281e778fd38a1c903a43bc425f89f67c" target="_top" xlink:title="This method overrides Updater::compute_impl. ">
<polygon fill="#ffffff" stroke="#000000" points="149,-509.5 149,-528.5 286,-528.5 286,-509.5 149,-509.5"/>
<text text-anchor="middle" x="217.5" y="-516.5" font-family="Helvetica,sans-Serif" font-size="10.00" fill="#000000">AddChildIDs::compute_impl</text>
</a>
</g>
</g>
<!-- Node35&#45;&gt;Node38 -->
<g id="edge3" class="edge">
<title>Node35&#45;&gt;Node38</title>
<path fill="none" stroke="#191970" d="M53.6493,-330.6151C60.9279,-369.2798 82.6445,-455.4408 137,-500 141.6642,-503.8235 146.9647,-506.9039 152.5672,-509.382"/>
<polygon fill="#191970" stroke="#191970" points="57.0745,-329.8835 51.8984,-320.6391 50.1799,-331.0936 57.0745,-329.8835"/>
</g>
<!-- Node39 -->
<g id="node5" class="node">
<title>Node39</title>
<g id="a_node5"><a xlink:href="classAddChildPositions.html#aad530cce490d646510b3d64279c08b08" target="_top" xlink:title="This method overrides Updater::compute_impl. ">
<polygon fill="#ffffff" stroke="#000000" points="166.5,-460 166.5,-490 268.5,-490 268.5,-460 166.5,-460"/>
<text text-anchor="start" x="174.5" y="-478" font-family="Helvetica,sans-Serif" font-size="10.00" fill="#000000">AddChildPositions::</text>
<text text-anchor="middle" x="217.5" y="-467" font-family="Helvetica,sans-Serif" font-size="10.00" fill="#000000">compute_impl</text>
</a>
</g>
</g>
<!-- Node35&#45;&gt;Node39 -->
<g id="edge4" class="edge">
<title>Node35&#45;&gt;Node39</title>
<path fill="none" stroke="#191970" d="M57.2222,-330.2736C68.7584,-360.5232 95.201,-418.9896 137,-451 145.568,-457.5615 155.909,-462.335 166.282,-465.806"/>
<polygon fill="#191970" stroke="#191970" points="60.4919,-329.0238 53.7627,-320.8403 53.9199,-331.434 60.4919,-329.0238"/>
</g>
<!-- Node40 -->
<g id="node6" class="node">
<title>Node40</title>
<g id="a_node6"><a xlink:href="classAddCoMPosition.html#a4f11bc044daa8afbe8223d9e4098a499" target="_top" xlink:title="AddCoMPosition::compute\l_with_weights">
<polygon fill="#ffffff" stroke="#000000" points="151,-411 151,-441 284,-441 284,-411 151,-411"/>
<text text-anchor="start" x="159" y="-429" font-family="Helvetica,sans-Serif" font-size="10.00" fill="#000000">AddCoMPosition::compute</text>
<text text-anchor="middle" x="217.5" y="-418" font-family="Helvetica,sans-Serif" font-size="10.00" fill="#000000">_with_weights</text>
</a>
</g>
</g>
<!-- Node35&#45;&gt;Node40 -->
<g id="edge5" class="edge">
<title>Node35&#45;&gt;Node40</title>
<path fill="none" stroke="#191970" d="M62.803,-328.7152C77.9632,-349.2525 105.6015,-382.7388 137,-402 142.5939,-405.4316 148.7086,-408.3983 154.9882,-410.9576"/>
<polygon fill="#191970" stroke="#191970" points="65.6011,-326.6113 56.9208,-320.5365 59.9182,-330.6985 65.6011,-326.6113"/>
</g>
<!-- Node42 -->
<g id="node8" class="node">
<title>Node42</title>
<g id="a_node8"><a xlink:href="classAddCoMPosition.html#a2c583d3b5139a8e8437979a432631c2e" target="_top" xlink:title="AddCoMPosition::compute\l_without_weights">
<polygon fill="#ffffff" stroke="#000000" points="151,-362 151,-392 284,-392 284,-362 151,-362"/>
<text text-anchor="start" x="159" y="-380" font-family="Helvetica,sans-Serif" font-size="10.00" fill="#000000">AddCoMPosition::compute</text>
<text text-anchor="middle" x="217.5" y="-369" font-family="Helvetica,sans-Serif" font-size="10.00" fill="#000000">_without_weights</text>
</a>
</g>
</g>
<!-- Node35&#45;&gt;Node42 -->
<g id="edge7" class="edge">
<title>Node35&#45;&gt;Node42</title>
<path fill="none" stroke="#191970" d="M77.9515,-325.2359C94.7431,-333.6343 116.8092,-344.1253 137,-352 145.9984,-355.5095 155.7076,-358.8711 165.163,-361.9278"/>
<polygon fill="#191970" stroke="#191970" points="79.2313,-321.961 68.7284,-320.5685 76.0705,-328.2068 79.2313,-321.961"/>
</g>
<!-- Node43 -->
<g id="node9" class="node">
<title>Node43</title>
<g id="a_node9"><a xlink:href="classAddDihedralAngle.html#ab094acbaeefbf82b441eb6513927cada" target="_top" xlink:title="This method overrides Updater::compute_impl. ">
<polygon fill="#ffffff" stroke="#000000" points="137,-323.5 137,-342.5 298,-342.5 298,-323.5 137,-323.5"/>
<text text-anchor="middle" x="217.5" y="-330.5" font-family="Helvetica,sans-Serif" font-size="10.00" fill="#000000">AddDihedralAngle::compute_impl</text>
</a>
</g>
</g>
<!-- Node35&#45;&gt;Node43 -->
<g id="edge9" class="edge">
<title>Node35&#45;&gt;Node43</title>
<path fill="none" stroke="#191970" d="M111.061,-318.9781C122.159,-320.4401 133.8432,-321.9793 145.2426,-323.4811"/>
<polygon fill="#191970" stroke="#191970" points="111.4302,-315.4966 101.0587,-317.6604 110.5159,-322.4366 111.4302,-315.4966"/>
</g>
<!-- Node44 -->
<g id="node10" class="node">
<title>Node44</title>
<g id="a_node10"><a xlink:href="classAddInertiaMoment.html#a2565ab562dac3c15368e86b88b666bd6" target="_top" xlink:title="AddInertiaMoment::compute\l_with_weights">
<polygon fill="#ffffff" stroke="#000000" points="147.5,-274 147.5,-304 287.5,-304 287.5,-274 147.5,-274"/>
<text text-anchor="start" x="155.5" y="-292" font-family="Helvetica,sans-Serif" font-size="10.00" fill="#000000">AddInertiaMoment::compute</text>
<text text-anchor="middle" x="217.5" y="-281" font-family="Helvetica,sans-Serif" font-size="10.00" fill="#000000">_with_weights</text>
</a>
</g>
</g>
<!-- Node35&#45;&gt;Node44 -->
<g id="edge10" class="edge">
<title>Node35&#45;&gt;Node44</title>
<path fill="none" stroke="#191970" d="M111.1969,-303.004C122.9545,-301.4551 135.3653,-299.8201 147.3953,-298.2354"/>
<polygon fill="#191970" stroke="#191970" points="110.5159,-299.5634 101.0587,-304.3396 111.4302,-306.5034 110.5159,-299.5634"/>
</g>
<!-- Node46 -->
<g id="node12" class="node">
<title>Node46</title>
<g id="a_node12"><a xlink:href="classAddInertiaMoment.html#a6b71b7cb75a8b76585a38938bb8ae0a8" target="_top" xlink:title="AddInertiaMoment::compute\l_without_weights">
<polygon fill="#ffffff" stroke="#000000" points="147.5,-225 147.5,-255 287.5,-255 287.5,-225 147.5,-225"/>
<text text-anchor="start" x="155.5" y="-243" font-family="Helvetica,sans-Serif" font-size="10.00" fill="#000000">AddInertiaMoment::compute</text>
<text text-anchor="middle" x="217.5" y="-232" font-family="Helvetica,sans-Serif" font-size="10.00" fill="#000000">_without_weights</text>
</a>
</g>
</g>
<!-- Node35&#45;&gt;Node46 -->
<g id="edge12" class="edge">
<title>Node35&#45;&gt;Node46</title>
<path fill="none" stroke="#191970" d="M75.0563,-296.3465C92.0507,-286.6064 115.4083,-274.0002 137,-265 145.6449,-261.3965 154.9986,-258.0322 164.1664,-255.0128"/>
<polygon fill="#191970" stroke="#191970" points="73.2094,-293.3717 66.3212,-301.4217 76.726,-299.4242 73.2094,-293.3717"/>
</g>
<!-- Node47 -->
<g id="node13" class="node">
<title>Node47</title>
<g id="a_node13"><a xlink:href="classAddSpecialBonds.html#affda746cd8b9a033940a82d1bcc5131f" target="_top" xlink:title="This method overrides Updater::compute_impl. ">
<polygon fill="#ffffff" stroke="#000000" points="137,-186.5 137,-205.5 298,-205.5 298,-186.5 137,-186.5"/>
<text text-anchor="middle" x="217.5" y="-193.5" font-family="Helvetica,sans-Serif" font-size="10.00" fill="#000000">AddSpecialBonds::compute_impl</text>
</a>
</g>
</g>
<!-- Node35&#45;&gt;Node47 -->
<g id="edge14" class="edge">
<title>Node35&#45;&gt;Node47</title>
<path fill="none" stroke="#191970" d="M62.0106,-292.8969C76.7381,-271.2521 104.2936,-235.51 137,-216 144.2967,-211.6474 152.5059,-208.2387 160.8195,-205.5701"/>
<polygon fill="#191970" stroke="#191970" points="58.9312,-291.2085 56.34,-301.4816 64.7721,-295.0666 58.9312,-291.2085"/>
</g>
<!-- Node48 -->
<g id="node14" class="node">
<title>Node48</title>
<g id="a_node14"><a xlink:href="classProDistanceInMolecule.html#a57443f2cc857b09d3bca11d4e9122de1" target="_top" xlink:title="Implementation of analysis using an element of generators. ">
<polygon fill="#ffffff" stroke="#000000" points="159,-137 159,-167 276,-167 276,-137 159,-137"/>
<text text-anchor="start" x="167" y="-155" font-family="Helvetica,sans-Serif" font-size="10.00" fill="#000000">ProDistanceInMolecule</text>
<text text-anchor="middle" x="217.5" y="-144" font-family="Helvetica,sans-Serif" font-size="10.00" fill="#000000">::run_impl</text>
</a>
</g>
</g>
<!-- Node35&#45;&gt;Node48 -->
<g id="edge15" class="edge">
<title>Node35&#45;&gt;Node48</title>
<path fill="none" stroke="#191970" d="M57.8277,-291.7989C69.9047,-262.6936 96.7334,-207.5693 137,-177 143.5272,-172.0447 151.0509,-168.0611 158.8226,-164.8611"/>
<polygon fill="#191970" stroke="#191970" points="54.5112,-290.6663 54.0481,-301.251 61.0108,-293.2653 54.5112,-290.6663"/>
</g>
<!-- Node49 -->
<g id="node15" class="node">
<title>Node49</title>
<g id="a_node15"><a xlink:href="classProTimeCorrelationInMolecule.html#a9836b28ea76244b81bf91504aeb0e2b9" target="_top" xlink:title="Implementation of analysis using an element of generators. ">
<polygon fill="#ffffff" stroke="#000000" points="144,-88 144,-118 291,-118 291,-88 144,-88"/>
<text text-anchor="start" x="152" y="-106" font-family="Helvetica,sans-Serif" font-size="10.00" fill="#000000">ProTimeCorrelationInMolecule</text>
<text text-anchor="middle" x="217.5" y="-95" font-family="Helvetica,sans-Serif" font-size="10.00" fill="#000000">::run_impl</text>
</a>
</g>
</g>
<!-- Node35&#45;&gt;Node49 -->
<g id="edge16" class="edge">
<title>Node35&#45;&gt;Node49</title>
<path fill="none" stroke="#191970" d="M54.3303,-291.3049C62.6259,-253.9289 85.7873,-172.4821 137,-128 141.4194,-124.1614 146.423,-120.9121 151.7205,-118.1615"/>
<polygon fill="#191970" stroke="#191970" points="50.8404,-290.8949 52.2185,-301.3997 57.6921,-292.3283 50.8404,-290.8949"/>
</g>
<!-- Node50 -->
<g id="node16" class="node">
<title>Node50</title>
<g id="a_node16"><a xlink:href="classProTimeCorrelationInMolecule.html#a8368ef9e43e92c51b3b8ed31b1519e3d" target="_top" xlink:title="Set initial vectors and resize coefficients_traj. ">
<polygon fill="#ffffff" stroke="#000000" points="144,-39 144,-69 291,-69 291,-39 144,-39"/>
<text text-anchor="start" x="152" y="-57" font-family="Helvetica,sans-Serif" font-size="10.00" fill="#000000">ProTimeCorrelationInMolecule</text>
<text text-anchor="middle" x="217.5" y="-46" font-family="Helvetica,sans-Serif" font-size="10.00" fill="#000000">::prepare</text>
</a>
</g>
</g>
<!-- Node35&#45;&gt;Node50 -->
<g id="edge17" class="edge">
<title>Node35&#45;&gt;Node50</title>
<path fill="none" stroke="#191970" d="M52.1015,-291.3942C56.7815,-247.035 74.3675,-138.2337 137,-79 141.0403,-75.179 145.6548,-71.9414 150.5841,-69.1984"/>
<polygon fill="#191970" stroke="#191970" points="48.6087,-291.1532 51.1515,-301.4384 55.5776,-291.8124 48.6087,-291.1532"/>
</g>
<!-- Node51 -->
<g id="node17" class="node">
<title>Node51</title>
<g id="a_node17"><a xlink:href="classStarter.html#a112a95fc261365ba92609db3fa907939" target="_top" xlink:title="Starter::sort_by_id">
<polygon fill="#ffffff" stroke="#000000" points="169,-.5 169,-19.5 266,-19.5 266,-.5 169,-.5"/>
<text text-anchor="middle" x="217.5" y="-7.5" font-family="Helvetica,sans-Serif" font-size="10.00" fill="#000000">Starter::sort_by_id</text>
</a>
</g>
</g>
<!-- Node35&#45;&gt;Node51 -->
<g id="edge18" class="edge">
<title>Node35&#45;&gt;Node51</title>
<path fill="none" stroke="#191970" d="M53.9321,-291.2941C64.3917,-233.4548 97.5726,-65.9133 137,-29 145.7005,-20.8543 157.2213,-15.9933 168.819,-13.1434"/>
<polygon fill="#191970" stroke="#191970" points="50.4527,-290.8698 52.1479,-301.3281 57.3446,-292.0953 50.4527,-290.8698"/>
</g>
<!-- Node41 -->
<g id="node7" class="node">
<title>Node41</title>
<g id="a_node7"><a xlink:href="classAddCoMPosition.html#a616981db390214b3a00a80d96571c646" target="_top" xlink:title="This method overrides Updater::compute_impl. ">
<polygon fill="#ffffff" stroke="#000000" points="337.5,-391.5 337.5,-410.5 493.5,-410.5 493.5,-391.5 337.5,-391.5"/>
<text text-anchor="middle" x="415.5" y="-398.5" font-family="Helvetica,sans-Serif" font-size="10.00" fill="#000000">AddCoMPosition::compute_impl</text>
</a>
</g>
</g>
<!-- Node40&#45;&gt;Node41 -->
<g id="edge6" class="edge">
<title>Node40&#45;&gt;Node41</title>
<path fill="none" stroke="#191970" d="M294.5115,-416.2763C309.5123,-414.3823 325.2225,-412.3987 340.1682,-410.5116"/>
<polygon fill="#191970" stroke="#191970" points="293.7405,-412.8458 284.2577,-417.571 294.6174,-419.7907 293.7405,-412.8458"/>
</g>
<!-- Node42&#45;&gt;Node41 -->
<g id="edge8" class="edge">
<title>Node42&#45;&gt;Node41</title>
<path fill="none" stroke="#191970" d="M294.4033,-386.3216C308.5138,-388.032 323.2554,-389.8188 337.4006,-391.5334"/>
<polygon fill="#191970" stroke="#191970" points="294.6063,-382.8207 284.2577,-385.0918 293.7639,-389.7698 294.6063,-382.8207"/>
</g>
<!-- Node45 -->
<g id="node11" class="node">
<title>Node45</title>
<g id="a_node11"><a xlink:href="classAddInertiaMoment.html#a00ec4176ec775d4f9f9dbfa798197617" target="_top" xlink:title="This method overrides Updater::compute_impl. ">
<polygon fill="#ffffff" stroke="#000000" points="334,-254.5 334,-273.5 497,-273.5 497,-254.5 334,-254.5"/>
<text text-anchor="middle" x="415.5" y="-261.5" font-family="Helvetica,sans-Serif" font-size="10.00" fill="#000000">AddInertiaMoment::compute_impl</text>
</a>
</g>
</g>
<!-- Node44&#45;&gt;Node45 -->
<g id="edge11" class="edge">
<title>Node44&#45;&gt;Node45</title>
<path fill="none" stroke="#191970" d="M297.6853,-278.8756C311.705,-277.1054 326.2474,-275.2693 340.1312,-273.5163"/>
<polygon fill="#191970" stroke="#191970" points="297.0688,-275.4256 287.586,-280.1508 297.9457,-282.3704 297.0688,-275.4256"/>
</g>
<!-- Node46&#45;&gt;Node45 -->
<g id="edge13" class="edge">
<title>Node46&#45;&gt;Node45</title>
<path fill="none" stroke="#191970" d="M297.8535,-249.7398C310.7961,-251.3086 324.1799,-252.9309 337.0763,-254.4941"/>
<polygon fill="#191970" stroke="#191970" points="297.9346,-246.2241 287.586,-248.4953 297.0922,-253.1732 297.9346,-246.2241"/>
</g>
<!-- Node52 -->
<g id="node18" class="node">
<title>Node52</title>
<g id="a_node18"><a xlink:href="classStarter.html#a06098875ca2584225ac5aec4e0c82d09" target="_top" xlink:title="Compute or parse properties and set them to Element::data given as a mutable reference. ">
<polygon fill="#ffffff" stroke="#000000" points="371,-.5 371,-19.5 460,-19.5 460,-.5 371,-.5"/>
<text text-anchor="middle" x="415.5" y="-7.5" font-family="Helvetica,sans-Serif" font-size="10.00" fill="#000000">Starter::compute</text>
</a>
</g>
</g>
<!-- Node51&#45;&gt;Node52 -->
<g id="edge19" class="edge">
<title>Node51&#45;&gt;Node52</title>
<path fill="none" stroke="#191970" d="M276.1973,-10C306.4525,-10 342.7634,-10 370.7268,-10"/>
<polygon fill="#191970" stroke="#191970" points="276.1899,-6.5001 266.1898,-10 276.1898,-13.5001 276.1899,-6.5001"/>
</g>
</g>
</svg>
        <g id="navigator" transform="translate(0 0)" fill="#404254">
                <rect fill="#f2f5e9" fill-opacity="0.5" stroke="#606060" stroke-width=".5" x="0" y="0" width="60" height="60"/>
                <use id="zoomplus" xlink:href="#zoomPlus" x="17" y="9" onmousedown="handleZoom(evt,'in')"/>
                <use id="zoomminus" xlink:href="#zoomMin" x="42" y="9" onmousedown="handleZoom(evt,'out')"/>
                <use id="reset" xlink:href="#resetDef" x="30" y="36" onmousedown="handleReset()"/>
                <g id="arrowUp" xlink:href="#dirArrow" transform="translate(30 24)" onmousedown="handlePan(0,-1)">
                  <use xlink:href="#rim" fill="#404040">
                        <set attributeName="fill" to="#808080" begin="arrowUp.mouseover" end="arrowUp.mouseout"/>
                  </use>
                  <path fill="none" stroke="white" stroke-width="1.5" d="M0,-3.0v7 M-2.5,-0.5L0,-3.0L2.5,-0.5"/>
                </g>
                <g id="arrowRight" xlink:href="#dirArrow" transform="rotate(90) translate(36 -43)" onmousedown="handlePan(1,0)">
                  <use xlink:href="#rim" fill="#404040">
                        <set attributeName="fill" to="#808080" begin="arrowRight.mouseover" end="arrowRight.mouseout"/>
                  </use>
                  <path fill="none" stroke="white" stroke-width="1.5" d="M0,-3.0v7 M-2.5,-0.5L0,-3.0L2.5,-0.5"/>
                </g>
                <g id="arrowDown" xlink:href="#dirArrow" transform="rotate(180) translate(-30 -48)" onmousedown="handlePan(0,1)">
                  <use xlink:href="#rim" fill="#404040">
                        <set attributeName="fill" to="#808080" begin="arrowDown.mouseover" end="arrowDown.mouseout"/>
                  </use>
                  <path fill="none" stroke="white" stroke-width="1.5" d="M0,-3.0v7 M-2.5,-0.5L0,-3.0L2.5,-0.5"/>
                </g>
                <g id="arrowLeft" xlink:href="#dirArrow" transform="rotate(270) translate(-36 17)" onmousedown="handlePan(-1,0)">
                  <use xlink:href="#rim" fill="#404040">
                        <set attributeName="fill" to="#808080" begin="arrowLeft.mouseover" end="arrowLeft.mouseout"/>
                  </use>
                  <path fill="none" stroke="white" stroke-width="1.5" d="M0,-3.0v7 M-2.5,-0.5L0,-3.0L2.5,-0.5"/>
                </g>
        </g>
        <svg viewBox="0 0 15 15" width="100%" height="30px" preserveAspectRatio="xMaxYMin meet">
         <g id="arrow_out" transform="scale(0.3 0.3)">
          <a xlink:href="namespaceutils_aeabf3fc19efc71936f355f069d336b5a_icgraph_org.svg" target="_base">
           <rect id="button" ry="5" rx="5" y="6" x="6" height="38" width="38"
                fill="#f2f5e9" fill-opacity="0.5" stroke="#606060" stroke-width="1.0"/>
           <path id="arrow"
             d="M 11.500037,31.436501 C 11.940474,20.09759 22.043105,11.32322 32.158766,21.979434 L 37.068811,17.246167 C 37.068811,17.246167 37.088388,32 37.088388,32 L 22.160133,31.978069 C 22.160133,31.978069 26.997745,27.140456 26.997745,27.140456 C 18.528582,18.264221 13.291696,25.230495 11.500037,31.436501 z"
             style="fill:#404040;"/>
          </a>
         </g>
        </svg>
</svg>
