<?xml version="1.0" encoding="UTF-8" standalone="no"?>
<!DOCTYPE svg PUBLIC "-//W3C//DTD SVG 1.1//EN"
 "http://www.w3.org/Graphics/SVG/1.1/DTD/svg11.dtd">
<!-- Generated by graphviz version 2.40.1 (20161225.0304)
 -->
<!-- Title: utils::map_to_index Pages: 1 -->
<!--zoomable 350 -->
<svg id="main" version="1.1" xmlns="http://www.w3.org/2000/svg" xmlns:xlink="http://www.w3.org/1999/xlink" xml:space="preserve" onload="init(evt)">
<style type="text/css"><![CDATA[
.edge:hover path { stroke: red; }
.edge:hover polygon { stroke: red; fill: red; }
]]></style>
<script type="text/javascript"><![CDATA[
var edges = document.getElementsByTagName('g');
if (edges && edges.length) {
  for (var i=0;i<edges.length;i++) {
    if (edges[i].id.substr(0,4)=='edge') {
      edges[i].setAttribute('class','edge');
    }
  }
}
]]></script>
        <defs>
                <circle id="rim" cx="0" cy="0" r="7"/>
                <circle id="rim2" cx="0" cy="0" r="3.5"/>
                <g id="zoomPlus">
                        <use xlink:href="#rim" fill="#404040">
                                <set attributeName="fill" to="#808080" begin="zoomplus.mouseover" end="zoomplus.mouseout"/>
                        </use>
                        <path d="M-4,0h8M0,-4v8" fill="none" stroke="white" stroke-width="1.5" pointer-events="none"/>
                </g>
                <g id="zoomMin">
                        <use xlink:href="#rim" fill="#404040">
                                <set attributeName="fill" to="#808080" begin="zoomminus.mouseover" end="zoomminus.mouseout"/>
                        </use>
                        <path d="M-4,0h8" fill="none" stroke="white" stroke-width="1.5" pointer-events="none"/>
                </g>
                <g id="dirArrow">
                        <path fill="none" stroke="white" stroke-width="1.5" d="M0,-3.0v7 M-2.5,-0.5L0,-3.0L2.5,-0.5"/>
                </g>
               <g id="resetDef">
                       <use xlink:href="#rim2" fill="#404040">
                               <set attributeName="fill" to="#808080" begin="reset.mouseover" end="reset.mouseout"/>
                       </use>
               </g>
        </defs>

<script type="text/javascript">
var viewWidth = 505;
var viewHeight = 350;
var sectionId = 'dynsection-5';
</script>
<script xlink:href="svgpan.js"/>
<svg id="graph" class="graph">
<g id="viewport">
<title>utils::map_to_index</title>
<polygon fill="#ffffff" stroke="transparent" points="-4,4 -4,-346 501,-346 501,4 -4,4"/>
<!-- Node40 -->
<g id="node1" class="node">
<title>Node40</title>
<polygon fill="#bfbfbf" stroke="#000000" points="0,-155.5 0,-174.5 101,-174.5 101,-155.5 0,-155.5"/>
<text text-anchor="middle" x="50.5" y="-162.5" font-family="Helvetica,sans-Serif" font-size="10.00" fill="#000000">utils::map_to_index</text>
</g>
<!-- Node41 -->
<g id="node2" class="node">
<title>Node41</title>
<g id="a_node2"><a xlink:href="classAddChildIDs.html#a44a0b778c9c4b17c9ce9051b990af73d" target="_top" xlink:title="Compute properties and add them to Element::data given as a mutable reference. ">
<polygon fill="#ffffff" stroke="#000000" points="149,-322.5 149,-341.5 286,-341.5 286,-322.5 149,-322.5"/>
<text text-anchor="middle" x="217.5" y="-329.5" font-family="Helvetica,sans-Serif" font-size="10.00" fill="#000000">AddChildIDs::compute_impl</text>
</a>
</g>
</g>
<!-- Node40&#45;&gt;Node41 -->
<g id="edge1" class="edge">
<title>Node40&#45;&gt;Node41</title>
<path fill="none" stroke="#191970" d="M56.3721,-184.7296C66.9814,-216.8276 92.48,-280.0716 137,-313 142.1952,-316.8426 148.0514,-319.9213 154.1756,-322.386"/>
<polygon fill="#191970" stroke="#191970" points="59.5788,-183.2605 53.2336,-174.7758 52.9027,-185.3655 59.5788,-183.2605"/>
</g>
<!-- Node42 -->
<g id="node3" class="node">
<title>Node42</title>
<g id="a_node3"><a xlink:href="classAddChildPositions.html#ab200c619009c1db1deefb92c68010f9a" target="_top" xlink:title="Compute properties and add them to Element::data given as a mutable reference. ">
<polygon fill="#ffffff" stroke="#000000" points="166.5,-273 166.5,-303 268.5,-303 268.5,-273 166.5,-273"/>
<text text-anchor="start" x="174.5" y="-291" font-family="Helvetica,sans-Serif" font-size="10.00" fill="#000000">AddChildPositions::</text>
<text text-anchor="middle" x="217.5" y="-280" font-family="Helvetica,sans-Serif" font-size="10.00" fill="#000000">compute_impl</text>
</a>
</g>
</g>
<!-- Node40&#45;&gt;Node42 -->
<g id="edge2" class="edge">
<title>Node40&#45;&gt;Node42</title>
<path fill="none" stroke="#191970" d="M61.7885,-183.3209C76.441,-205.5985 104.0711,-242.8372 137,-264 145.8332,-269.677 156.0654,-274.0591 166.211,-277.4256"/>
<polygon fill="#191970" stroke="#191970" points="64.6623,-181.3183 56.3257,-174.7798 58.7653,-185.0899 64.6623,-181.3183"/>
</g>
<!-- Node43 -->
<g id="node4" class="node">
<title>Node43</title>
<g id="a_node4"><a xlink:href="classAddCoMPosition.html#a4f11bc044daa8afbe8223d9e4098a499" target="_top" xlink:title="Compute the center of mass with weighting factors. ">
<polygon fill="#ffffff" stroke="#000000" points="151,-224 151,-254 284,-254 284,-224 151,-224"/>
<text text-anchor="start" x="159" y="-242" font-family="Helvetica,sans-Serif" font-size="10.00" fill="#000000">AddCoMPosition::compute</text>
<text text-anchor="middle" x="217.5" y="-231" font-family="Helvetica,sans-Serif" font-size="10.00" fill="#000000">_with_weights</text>
</a>
</g>
</g>
<!-- Node40&#45;&gt;Node43 -->
<g id="edge3" class="edge">
<title>Node40&#45;&gt;Node43</title>
<path fill="none" stroke="#191970" d="M73.3159,-180.1724C90.3253,-190.9841 114.4203,-205.2685 137,-215 144.4999,-218.2324 152.5707,-221.199 160.6036,-223.8615"/>
<polygon fill="#191970" stroke="#191970" points="74.9489,-177.0605 64.6499,-174.5741 71.1505,-182.9403 74.9489,-177.0605"/>
</g>
<!-- Node45 -->
<g id="node6" class="node">
<title>Node45</title>
<g id="a_node6"><a xlink:href="classAddCoMPosition.html#a2c583d3b5139a8e8437979a432631c2e" target="_top" xlink:title="Compute the center of mass. ">
<polygon fill="#ffffff" stroke="#000000" points="151,-175 151,-205 284,-205 284,-175 151,-175"/>
<text text-anchor="start" x="159" y="-193" font-family="Helvetica,sans-Serif" font-size="10.00" fill="#000000">AddCoMPosition::compute</text>
<text text-anchor="middle" x="217.5" y="-182" font-family="Helvetica,sans-Serif" font-size="10.00" fill="#000000">_without_weights</text>
</a>
</g>
</g>
<!-- Node40&#45;&gt;Node45 -->
<g id="edge5" class="edge">
<title>Node40&#45;&gt;Node45</title>
<path fill="none" stroke="#191970" d="M111.1805,-174.0839C124.043,-176.0094 137.688,-178.0521 150.7613,-180.0092"/>
<polygon fill="#191970" stroke="#191970" points="111.4667,-170.5878 101.0587,-172.5687 110.4303,-177.5107 111.4667,-170.5878"/>
</g>
<!-- Node46 -->
<g id="node7" class="node">
<title>Node46</title>
<g id="a_node7"><a xlink:href="classAddInertiaMoment.html#a2565ab562dac3c15368e86b88b666bd6" target="_top" xlink:title="Compute the inertia moment with weighting factors. ">
<polygon fill="#ffffff" stroke="#000000" points="147.5,-126 147.5,-156 287.5,-156 287.5,-126 147.5,-126"/>
<text text-anchor="start" x="155.5" y="-144" font-family="Helvetica,sans-Serif" font-size="10.00" fill="#000000">AddInertiaMoment::compute</text>
<text text-anchor="middle" x="217.5" y="-133" font-family="Helvetica,sans-Serif" font-size="10.00" fill="#000000">_with_weights</text>
</a>
</g>
</g>
<!-- Node40&#45;&gt;Node46 -->
<g id="edge7" class="edge">
<title>Node40&#45;&gt;Node46</title>
<path fill="none" stroke="#191970" d="M111.1969,-156.2771C122.9545,-154.5874 135.3653,-152.8038 147.3953,-151.0749"/>
<polygon fill="#191970" stroke="#191970" points="110.4591,-152.8471 101.0587,-157.7341 111.4549,-159.7759 110.4591,-152.8471"/>
</g>
<!-- Node48 -->
<g id="node9" class="node">
<title>Node48</title>
<g id="a_node9"><a xlink:href="classAddInertiaMoment.html#a6b71b7cb75a8b76585a38938bb8ae0a8" target="_top" xlink:title="Compute the inertia moment. ">
<polygon fill="#ffffff" stroke="#000000" points="147.5,-77 147.5,-107 287.5,-107 287.5,-77 147.5,-77"/>
<text text-anchor="start" x="155.5" y="-95" font-family="Helvetica,sans-Serif" font-size="10.00" fill="#000000">AddInertiaMoment::compute</text>
<text text-anchor="middle" x="217.5" y="-84" font-family="Helvetica,sans-Serif" font-size="10.00" fill="#000000">_without_weights</text>
</a>
</g>
</g>
<!-- Node40&#45;&gt;Node48 -->
<g id="edge9" class="edge">
<title>Node40&#45;&gt;Node48</title>
<path fill="none" stroke="#191970" d="M74.3524,-150.0131C91.3586,-139.7682 115.0134,-126.396 137,-117 145.4778,-113.377 154.6582,-110.0231 163.6819,-107.0254"/>
<polygon fill="#191970" stroke="#191970" points="72.3482,-147.136 65.6414,-155.3378 75.9991,-153.1086 72.3482,-147.136"/>
</g>
<!-- Node49 -->
<g id="node10" class="node">
<title>Node49</title>
<g id="a_node10"><a xlink:href="classAddSpecialBonds.html#ac8f026ec0d609bf9bbc98d5c7899a13b" target="_top" xlink:title="Compute properties and add them to Element::data given as a mutable reference. ">
<polygon fill="#ffffff" stroke="#000000" points="137,-38.5 137,-57.5 298,-57.5 298,-38.5 137,-38.5"/>
<text text-anchor="middle" x="217.5" y="-45.5" font-family="Helvetica,sans-Serif" font-size="10.00" fill="#000000">AddSpecialBonds::compute_impl</text>
</a>
</g>
</g>
<!-- Node40&#45;&gt;Node49 -->
<g id="edge11" class="edge">
<title>Node40&#45;&gt;Node49</title>
<path fill="none" stroke="#191970" d="M61.7228,-146.8076C76.3083,-124.7336 103.8702,-87.996 137,-68 144.2741,-63.6096 152.4711,-60.1806 160.7792,-57.503"/>
<polygon fill="#191970" stroke="#191970" points="58.7421,-144.9719 56.2879,-155.2786 64.6338,-148.7519 58.7421,-144.9719"/>
</g>
<!-- Node50 -->
<g id="node11" class="node">
<title>Node50</title>
<g id="a_node11"><a xlink:href="classStarter.html#a112a95fc261365ba92609db3fa907939" target="_top" xlink:title="Sort elements of a array Json object by its id property. ">
<polygon fill="#ffffff" stroke="#000000" points="169,-.5 169,-19.5 266,-19.5 266,-.5 169,-.5"/>
<text text-anchor="middle" x="217.5" y="-7.5" font-family="Helvetica,sans-Serif" font-size="10.00" fill="#000000">Starter::sort_by_id</text>
</a>
</g>
</g>
<!-- Node40&#45;&gt;Node50 -->
<g id="edge12" class="edge">
<title>Node40&#45;&gt;Node50</title>
<path fill="none" stroke="#191970" d="M57.32,-145.5986C68.862,-115.7093 95.1583,-58.7478 137,-29 146.3627,-22.3435 157.735,-17.9919 168.9466,-15.1546"/>
<polygon fill="#191970" stroke="#191970" points="53.9235,-144.6919 53.7337,-155.285 60.4881,-147.1224 53.9235,-144.6919"/>
</g>
<!-- Node44 -->
<g id="node5" class="node">
<title>Node44</title>
<g id="a_node5"><a xlink:href="classAddCoMPosition.html#a8769c07c61840444ad80bf7e20acdbf2" target="_top" xlink:title="Compute properties and add them to Element::data given as a mutable reference. ">
<polygon fill="#ffffff" stroke="#000000" points="337.5,-204.5 337.5,-223.5 493.5,-223.5 493.5,-204.5 337.5,-204.5"/>
<text text-anchor="middle" x="415.5" y="-211.5" font-family="Helvetica,sans-Serif" font-size="10.00" fill="#000000">AddCoMPosition::compute_impl</text>
</a>
</g>
</g>
<!-- Node43&#45;&gt;Node44 -->
<g id="edge4" class="edge">
<title>Node43&#45;&gt;Node44</title>
<path fill="none" stroke="#191970" d="M294.5115,-229.2763C309.5123,-227.3823 325.2225,-225.3987 340.1682,-223.5116"/>
<polygon fill="#191970" stroke="#191970" points="293.7405,-225.8458 284.2577,-230.571 294.6174,-232.7907 293.7405,-225.8458"/>
</g>
<!-- Node45&#45;&gt;Node44 -->
<g id="edge6" class="edge">
<title>Node45&#45;&gt;Node44</title>
<path fill="none" stroke="#191970" d="M294.4033,-199.3216C308.5138,-201.032 323.2554,-202.8188 337.4006,-204.5334"/>
<polygon fill="#191970" stroke="#191970" points="294.6063,-195.8207 284.2577,-198.0918 293.7639,-202.7698 294.6063,-195.8207"/>
</g>
<!-- Node47 -->
<g id="node8" class="node">
<title>Node47</title>
<g id="a_node8"><a xlink:href="classAddInertiaMoment.html#a50d3efa11e6c2a8d12c397224679d259" target="_top" xlink:title="Compute properties and add them to Element::data given as a mutable reference. ">
<polygon fill="#ffffff" stroke="#000000" points="334,-106.5 334,-125.5 497,-125.5 497,-106.5 334,-106.5"/>
<text text-anchor="middle" x="415.5" y="-113.5" font-family="Helvetica,sans-Serif" font-size="10.00" fill="#000000">AddInertiaMoment::compute_impl</text>
</a>
</g>
</g>
<!-- Node46&#45;&gt;Node47 -->
<g id="edge8" class="edge">
<title>Node46&#45;&gt;Node47</title>
<path fill="none" stroke="#191970" d="M297.6853,-130.8756C311.705,-129.1054 326.2474,-127.2693 340.1312,-125.5163"/>
<polygon fill="#191970" stroke="#191970" points="297.0688,-127.4256 287.586,-132.1508 297.9457,-134.3704 297.0688,-127.4256"/>
</g>
<!-- Node48&#45;&gt;Node47 -->
<g id="edge10" class="edge">
<title>Node48&#45;&gt;Node47</title>
<path fill="none" stroke="#191970" d="M297.8535,-101.7398C310.7961,-103.3086 324.1799,-104.9309 337.0763,-106.4941"/>
<polygon fill="#191970" stroke="#191970" points="297.9346,-98.2241 287.586,-100.4953 297.0922,-105.1732 297.9346,-98.2241"/>
</g>
<!-- Node51 -->
<g id="node12" class="node">
<title>Node51</title>
<g id="a_node12"><a xlink:href="classStarter.html#a5e1cc4f19ad4d82b765b48c5aa8eb22a" target="_top" xlink:title="Compute or parse properties and set them to Element::data given as a mutable reference. ">
<polygon fill="#ffffff" stroke="#000000" points="371,-.5 371,-19.5 460,-19.5 460,-.5 371,-.5"/>
<text text-anchor="middle" x="415.5" y="-7.5" font-family="Helvetica,sans-Serif" font-size="10.00" fill="#000000">Starter::compute</text>
</a>
</g>
</g>
<!-- Node50&#45;&gt;Node51 -->
<g id="edge13" class="edge">
<title>Node50&#45;&gt;Node51</title>
<path fill="none" stroke="#191970" d="M276.1973,-10C306.4525,-10 342.7634,-10 370.7268,-10"/>
<polygon fill="#191970" stroke="#191970" points="276.1899,-6.5001 266.1898,-10 276.1898,-13.5001 276.1899,-6.5001"/>
</g>
</g>
</svg>
        <g id="navigator" transform="translate(0 0)" fill="#404254">
                <rect fill="#f2f5e9" fill-opacity="0.5" stroke="#606060" stroke-width=".5" x="0" y="0" width="60" height="60"/>
                <use id="zoomplus" xlink:href="#zoomPlus" x="17" y="9" onmousedown="handleZoom(evt,'in')"/>
                <use id="zoomminus" xlink:href="#zoomMin" x="42" y="9" onmousedown="handleZoom(evt,'out')"/>
                <use id="reset" xlink:href="#resetDef" x="30" y="36" onmousedown="handleReset()"/>
                <g id="arrowUp" xlink:href="#dirArrow" transform="translate(30 24)" onmousedown="handlePan(0,-1)">
                  <use xlink:href="#rim" fill="#404040">
                        <set attributeName="fill" to="#808080" begin="arrowUp.mouseover" end="arrowUp.mouseout"/>
                  </use>
                  <path fill="none" stroke="white" stroke-width="1.5" d="M0,-3.0v7 M-2.5,-0.5L0,-3.0L2.5,-0.5"/>
                </g>
                <g id="arrowRight" xlink:href="#dirArrow" transform="rotate(90) translate(36 -43)" onmousedown="handlePan(1,0)">
                  <use xlink:href="#rim" fill="#404040">
                        <set attributeName="fill" to="#808080" begin="arrowRight.mouseover" end="arrowRight.mouseout"/>
                  </use>
                  <path fill="none" stroke="white" stroke-width="1.5" d="M0,-3.0v7 M-2.5,-0.5L0,-3.0L2.5,-0.5"/>
                </g>
                <g id="arrowDown" xlink:href="#dirArrow" transform="rotate(180) translate(-30 -48)" onmousedown="handlePan(0,1)">
                  <use xlink:href="#rim" fill="#404040">
                        <set attributeName="fill" to="#808080" begin="arrowDown.mouseover" end="arrowDown.mouseout"/>
                  </use>
                  <path fill="none" stroke="white" stroke-width="1.5" d="M0,-3.0v7 M-2.5,-0.5L0,-3.0L2.5,-0.5"/>
                </g>
                <g id="arrowLeft" xlink:href="#dirArrow" transform="rotate(270) translate(-36 17)" onmousedown="handlePan(-1,0)">
                  <use xlink:href="#rim" fill="#404040">
                        <set attributeName="fill" to="#808080" begin="arrowLeft.mouseover" end="arrowLeft.mouseout"/>
                  </use>
                  <path fill="none" stroke="white" stroke-width="1.5" d="M0,-3.0v7 M-2.5,-0.5L0,-3.0L2.5,-0.5"/>
                </g>
        </g>
        <svg viewBox="0 0 15 15" width="100%" height="30px" preserveAspectRatio="xMaxYMin meet">
         <g id="arrow_out" transform="scale(0.3 0.3)">
          <a xlink:href="namespaceutils_aeabf3fc19efc71936f355f069d336b5a_icgraph_org.svg" target="_base">
           <rect id="button" ry="5" rx="5" y="6" x="6" height="38" width="38"
                fill="#f2f5e9" fill-opacity="0.5" stroke="#606060" stroke-width="1.0"/>
           <path id="arrow"
             d="M 11.500037,31.436501 C 11.940474,20.09759 22.043105,11.32322 32.158766,21.979434 L 37.068811,17.246167 C 37.068811,17.246167 37.088388,32 37.088388,32 L 22.160133,31.978069 C 22.160133,31.978069 26.997745,27.140456 26.997745,27.140456 C 18.528582,18.264221 13.291696,25.230495 11.500037,31.436501 z"
             style="fill:#404040;"/>
          </a>
         </g>
        </svg>
</svg>
