<?xml version="1.0" encoding="UTF-8" standalone="no"?>
<!DOCTYPE svg PUBLIC "-//W3C//DTD SVG 1.1//EN"
 "http://www.w3.org/Graphics/SVG/1.1/DTD/svg11.dtd">
<!-- Generated by graphviz version 2.40.1 (20161225.0304)
 -->
<!-- Title: utils::split Pages: 1 -->
<svg width="255pt" height="66pt"
 viewBox="0.00 0.00 255.00 66.00" xmlns="http://www.w3.org/2000/svg" xmlns:xlink="http://www.w3.org/1999/xlink">
<g id="graph0" class="graph" transform="scale(1 1) rotate(0) translate(4 62)">
<title>utils::split</title>
<polygon fill="#ffffff" stroke="transparent" points="-4,4 -4,-62 251,-62 251,4 -4,4"/>
<!-- Node120 -->
<g id="node1" class="node">
<title>Node120</title>
<polygon fill="#bfbfbf" stroke="#000000" points="0,-19.5 0,-38.5 59,-38.5 59,-19.5 0,-19.5"/>
<text text-anchor="middle" x="29.5" y="-26.5" font-family="Helvetica,sans-Serif" font-size="10.00" fill="#000000">utils::split</text>
</g>
<!-- Node121 -->
<g id="node2" class="node">
<title>Node121</title>
<g id="a_node2"><a xlink:href="classStaDumpAtoms.html#a60229097acd4f512e50c5db4a0047301" target="_top" xlink:title="This method overrides Updater::compute_impl. ">
<polygon fill="#ffffff" stroke="#000000" points="95,-38.5 95,-57.5 247,-57.5 247,-38.5 95,-38.5"/>
<text text-anchor="middle" x="171" y="-45.5" font-family="Helvetica,sans-Serif" font-size="10.00" fill="#000000">StaDumpAtoms::compute_impl</text>
</a>
</g>
</g>
<!-- Node120&#45;&gt;Node121 -->
<g id="edge1" class="edge">
<title>Node120&#45;&gt;Node121</title>
<path fill="none" stroke="#191970" d="M69.1861,-34.3289C78.8105,-35.6212 89.3918,-37.042 99.9812,-38.4639"/>
<polygon fill="#191970" stroke="#191970" points="69.5399,-30.8451 59.163,-32.983 68.6083,-37.7828 69.5399,-30.8451"/>
</g>
<!-- Node122 -->
<g id="node3" class="node">
<title>Node122</title>
<g id="a_node3"><a xlink:href="classStaDumpBox.html#a2cafacc416a7707a16a7f41d6ed74be3" target="_top" xlink:title="This method overrides Updater::compute_impl. ">
<polygon fill="#ffffff" stroke="#000000" points="100.5,-.5 100.5,-19.5 241.5,-19.5 241.5,-.5 100.5,-.5"/>
<text text-anchor="middle" x="171" y="-7.5" font-family="Helvetica,sans-Serif" font-size="10.00" fill="#000000">StaDumpBox::compute_impl</text>
</a>
</g>
</g>
<!-- Node120&#45;&gt;Node122 -->
<g id="edge2" class="edge">
<title>Node120&#45;&gt;Node122</title>
<path fill="none" stroke="#191970" d="M69.2566,-23.6617C78.9508,-22.36 89.6125,-20.9284 100.2735,-19.4968"/>
<polygon fill="#191970" stroke="#191970" points="68.6083,-20.2172 59.163,-25.017 69.5399,-27.1549 68.6083,-20.2172"/>
</g>
</g>
</svg>
