<?xml version="1.0" encoding="UTF-8" standalone="no"?>
<!DOCTYPE svg PUBLIC "-//W3C//DTD SVG 1.1//EN"
 "http://www.w3.org/Graphics/SVG/1.1/DTD/svg11.dtd">
<!-- Generated by graphviz version 2.40.1 (20161225.0304)
 -->
<!-- Title: utils::map_to_index Pages: 1 -->
<svg width="505pt" height="400pt"
 viewBox="0.00 0.00 505.00 400.00" xmlns="http://www.w3.org/2000/svg" xmlns:xlink="http://www.w3.org/1999/xlink">
<g id="graph0" class="graph" transform="scale(1 1) rotate(0) translate(4 396)">
<title>utils::map_to_index</title>
<polygon fill="#ffffff" stroke="transparent" points="-4,4 -4,-396 501,-396 501,4 -4,4"/>
<!-- Node45 -->
<g id="node1" class="node">
<title>Node45</title>
<polygon fill="#bfbfbf" stroke="#000000" points="0,-181.5 0,-200.5 101,-200.5 101,-181.5 0,-181.5"/>
<text text-anchor="middle" x="50.5" y="-188.5" font-family="Helvetica,sans-Serif" font-size="10.00" fill="#000000">utils::map_to_index</text>
</g>
<!-- Node46 -->
<g id="node2" class="node">
<title>Node46</title>
<g id="a_node2"><a xlink:href="classAddChildIDs.html#a44a0b778c9c4b17c9ce9051b990af73d" target="_top" xlink:title="Implementation of computation to update Element::data. ">
<polygon fill="#ffffff" stroke="#000000" points="149,-372.5 149,-391.5 286,-391.5 286,-372.5 149,-372.5"/>
<text text-anchor="middle" x="217.5" y="-379.5" font-family="Helvetica,sans-Serif" font-size="10.00" fill="#000000">AddChildIDs::compute_impl</text>
</a>
</g>
</g>
<!-- Node45&#45;&gt;Node46 -->
<g id="edge1" class="edge">
<title>Node45&#45;&gt;Node46</title>
<path fill="none" stroke="#191970" d="M54.6663,-210.8153C63.3313,-246.9292 86.8149,-323.379 137,-363 141.8463,-366.8262 147.3358,-369.903 153.1156,-372.3744"/>
<polygon fill="#191970" stroke="#191970" points="57.9772,-209.5875 52.3586,-200.6052 51.1494,-211.1308 57.9772,-209.5875"/>
</g>
<!-- Node47 -->
<g id="node3" class="node">
<title>Node47</title>
<g id="a_node3"><a xlink:href="classAddChildPositions.html#ab200c619009c1db1deefb92c68010f9a" target="_top" xlink:title="Implementation of computation to update Element::data. ">
<polygon fill="#ffffff" stroke="#000000" points="166.5,-323 166.5,-353 268.5,-353 268.5,-323 166.5,-323"/>
<text text-anchor="start" x="174.5" y="-341" font-family="Helvetica,sans-Serif" font-size="10.00" fill="#000000">AddChildPositions::</text>
<text text-anchor="middle" x="217.5" y="-330" font-family="Helvetica,sans-Serif" font-size="10.00" fill="#000000">compute_impl</text>
</a>
</g>
</g>
<!-- Node45&#45;&gt;Node47 -->
<g id="edge2" class="edge">
<title>Node45&#45;&gt;Node47</title>
<path fill="none" stroke="#191970" d="M58.7592,-209.8257C71.5888,-236.8906 98.859,-286.5503 137,-314 145.6409,-320.2188 155.8995,-324.8424 166.1507,-328.275"/>
<polygon fill="#191970" stroke="#191970" points="61.9037,-208.2861 54.5566,-200.6525 55.5397,-211.2017 61.9037,-208.2861"/>
</g>
<!-- Node48 -->
<g id="node4" class="node">
<title>Node48</title>
<g id="a_node4"><a xlink:href="classAddCoMPosition.html#a4f11bc044daa8afbe8223d9e4098a499" target="_top" xlink:title="Compute the center of mass with weighting factors. ">
<polygon fill="#ffffff" stroke="#000000" points="151,-274 151,-304 284,-304 284,-274 151,-274"/>
<text text-anchor="start" x="159" y="-292" font-family="Helvetica,sans-Serif" font-size="10.00" fill="#000000">AddCoMPosition::compute</text>
<text text-anchor="middle" x="217.5" y="-281" font-family="Helvetica,sans-Serif" font-size="10.00" fill="#000000">_with_weights</text>
</a>
</g>
</g>
<!-- Node45&#45;&gt;Node48 -->
<g id="edge3" class="edge">
<title>Node45&#45;&gt;Node48</title>
<path fill="none" stroke="#191970" d="M66.2016,-208.0827C82.4364,-224.7999 109.2579,-249.8908 137,-265 143.1475,-268.3481 149.8198,-271.2844 156.6039,-273.8457"/>
<polygon fill="#191970" stroke="#191970" points="68.5482,-205.471 59.1245,-200.6291 63.4719,-210.2909 68.5482,-205.471"/>
</g>
<!-- Node50 -->
<g id="node6" class="node">
<title>Node50</title>
<g id="a_node6"><a xlink:href="classAddCoMPosition.html#a2c583d3b5139a8e8437979a432631c2e" target="_top" xlink:title="Compute the center of mass. ">
<polygon fill="#ffffff" stroke="#000000" points="151,-225 151,-255 284,-255 284,-225 151,-225"/>
<text text-anchor="start" x="159" y="-243" font-family="Helvetica,sans-Serif" font-size="10.00" fill="#000000">AddCoMPosition::compute</text>
<text text-anchor="middle" x="217.5" y="-232" font-family="Helvetica,sans-Serif" font-size="10.00" fill="#000000">_without_weights</text>
</a>
</g>
</g>
<!-- Node45&#45;&gt;Node50 -->
<g id="edge5" class="edge">
<title>Node45&#45;&gt;Node50</title>
<path fill="none" stroke="#191970" d="M92.9455,-203.4541C115.2525,-209.9992 142.7635,-218.0713 166.2516,-224.963"/>
<polygon fill="#191970" stroke="#191970" points="93.6766,-200.0211 83.0957,-200.564 91.7058,-206.7379 93.6766,-200.0211"/>
</g>
<!-- Node51 -->
<g id="node7" class="node">
<title>Node51</title>
<g id="a_node7"><a xlink:href="classAddInertiaMoment.html#a2565ab562dac3c15368e86b88b666bd6" target="_top" xlink:title="Compute the inertia moment with weighting factors. ">
<polygon fill="#ffffff" stroke="#000000" points="147.5,-176 147.5,-206 287.5,-206 287.5,-176 147.5,-176"/>
<text text-anchor="start" x="155.5" y="-194" font-family="Helvetica,sans-Serif" font-size="10.00" fill="#000000">AddInertiaMoment::compute</text>
<text text-anchor="middle" x="217.5" y="-183" font-family="Helvetica,sans-Serif" font-size="10.00" fill="#000000">_with_weights</text>
</a>
</g>
</g>
<!-- Node45&#45;&gt;Node51 -->
<g id="edge7" class="edge">
<title>Node45&#45;&gt;Node51</title>
<path fill="none" stroke="#191970" d="M111.1969,-191C122.9545,-191 135.3653,-191 147.3953,-191"/>
<polygon fill="#191970" stroke="#191970" points="111.0587,-187.5001 101.0587,-191 111.0587,-194.5001 111.0587,-187.5001"/>
</g>
<!-- Node53 -->
<g id="node9" class="node">
<title>Node53</title>
<g id="a_node9"><a xlink:href="classAddInertiaMoment.html#a6b71b7cb75a8b76585a38938bb8ae0a8" target="_top" xlink:title="Compute the inertia moment. ">
<polygon fill="#ffffff" stroke="#000000" points="147.5,-127 147.5,-157 287.5,-157 287.5,-127 147.5,-127"/>
<text text-anchor="start" x="155.5" y="-145" font-family="Helvetica,sans-Serif" font-size="10.00" fill="#000000">AddInertiaMoment::compute</text>
<text text-anchor="middle" x="217.5" y="-134" font-family="Helvetica,sans-Serif" font-size="10.00" fill="#000000">_without_weights</text>
</a>
</g>
</g>
<!-- Node45&#45;&gt;Node53 -->
<g id="edge9" class="edge">
<title>Node45&#45;&gt;Node53</title>
<path fill="none" stroke="#191970" d="M92.9455,-178.5459C115.2525,-172.0008 142.7635,-163.9287 166.2516,-157.037"/>
<polygon fill="#191970" stroke="#191970" points="91.7058,-175.2621 83.0957,-181.436 93.6766,-181.9789 91.7058,-175.2621"/>
</g>
<!-- Node54 -->
<g id="node10" class="node">
<title>Node54</title>
<g id="a_node10"><a xlink:href="classAddSpecialBonds.html#ac8f026ec0d609bf9bbc98d5c7899a13b" target="_top" xlink:title="Implementation of computation to update Element::data. ">
<polygon fill="#ffffff" stroke="#000000" points="137,-88.5 137,-107.5 298,-107.5 298,-88.5 137,-88.5"/>
<text text-anchor="middle" x="217.5" y="-95.5" font-family="Helvetica,sans-Serif" font-size="10.00" fill="#000000">AddSpecialBonds::compute_impl</text>
</a>
</g>
</g>
<!-- Node45&#45;&gt;Node54 -->
<g id="edge11" class="edge">
<title>Node45&#45;&gt;Node54</title>
<path fill="none" stroke="#191970" d="M66.1041,-173.887C82.2635,-157.1933 109.0277,-132.2878 137,-118 145.4641,-113.6766 154.9146,-110.2532 164.2802,-107.5529"/>
<polygon fill="#191970" stroke="#191970" points="63.3867,-171.6668 59.0644,-181.3399 68.4755,-176.4735 63.3867,-171.6668"/>
</g>
<!-- Node55 -->
<g id="node11" class="node">
<title>Node55</title>
<g id="a_node11"><a xlink:href="classProDistanceInMolecule.html#a57443f2cc857b09d3bca11d4e9122de1" target="_top" xlink:title="Implementation of analysis using an element of generators. ">
<polygon fill="#ffffff" stroke="#000000" points="159,-39 159,-69 276,-69 276,-39 159,-39"/>
<text text-anchor="start" x="167" y="-57" font-family="Helvetica,sans-Serif" font-size="10.00" fill="#000000">ProDistanceInMolecule</text>
<text text-anchor="middle" x="217.5" y="-46" font-family="Helvetica,sans-Serif" font-size="10.00" fill="#000000">::run_impl</text>
</a>
</g>
</g>
<!-- Node45&#45;&gt;Node55 -->
<g id="edge12" class="edge">
<title>Node45&#45;&gt;Node55</title>
<path fill="none" stroke="#191970" d="M60.2095,-172.1579C73.9884,-147.2474 101.5315,-103.6389 137,-79 143.6103,-74.408 151.096,-70.6352 158.7757,-67.5415"/>
<polygon fill="#191970" stroke="#191970" points="56.9535,-170.8238 55.3134,-181.2909 63.1229,-174.1312 56.9535,-170.8238"/>
</g>
<!-- Node56 -->
<g id="node12" class="node">
<title>Node56</title>
<g id="a_node12"><a xlink:href="classStarter.html#a112a95fc261365ba92609db3fa907939" target="_top" xlink:title="Sort elements of a array Json object by its id property. ">
<polygon fill="#ffffff" stroke="#000000" points="169,-.5 169,-19.5 266,-19.5 266,-.5 169,-.5"/>
<text text-anchor="middle" x="217.5" y="-7.5" font-family="Helvetica,sans-Serif" font-size="10.00" fill="#000000">Starter::sort_by_id</text>
</a>
</g>
</g>
<!-- Node45&#45;&gt;Node56 -->
<g id="edge13" class="edge">
<title>Node45&#45;&gt;Node56</title>
<path fill="none" stroke="#191970" d="M55.2877,-171.3415C64.7318,-136.9093 89.1266,-65.8543 137,-29 146.2166,-21.9048 157.6599,-17.3974 168.9982,-14.5505"/>
<polygon fill="#191970" stroke="#191970" points="51.8681,-170.5849 52.7359,-181.1441 58.6423,-172.3484 51.8681,-170.5849"/>
</g>
<!-- Node49 -->
<g id="node5" class="node">
<title>Node49</title>
<g id="a_node5"><a xlink:href="classAddCoMPosition.html#a8769c07c61840444ad80bf7e20acdbf2" target="_top" xlink:title="Implementation of computation to update Element::data. ">
<polygon fill="#ffffff" stroke="#000000" points="337.5,-254.5 337.5,-273.5 493.5,-273.5 493.5,-254.5 337.5,-254.5"/>
<text text-anchor="middle" x="415.5" y="-261.5" font-family="Helvetica,sans-Serif" font-size="10.00" fill="#000000">AddCoMPosition::compute_impl</text>
</a>
</g>
</g>
<!-- Node48&#45;&gt;Node49 -->
<g id="edge4" class="edge">
<title>Node48&#45;&gt;Node49</title>
<path fill="none" stroke="#191970" d="M294.5115,-279.2763C309.5123,-277.3823 325.2225,-275.3987 340.1682,-273.5116"/>
<polygon fill="#191970" stroke="#191970" points="293.7405,-275.8458 284.2577,-280.571 294.6174,-282.7907 293.7405,-275.8458"/>
</g>
<!-- Node50&#45;&gt;Node49 -->
<g id="edge6" class="edge">
<title>Node50&#45;&gt;Node49</title>
<path fill="none" stroke="#191970" d="M294.4033,-249.3216C308.5138,-251.032 323.2554,-252.8188 337.4006,-254.5334"/>
<polygon fill="#191970" stroke="#191970" points="294.6063,-245.8207 284.2577,-248.0918 293.7639,-252.7698 294.6063,-245.8207"/>
</g>
<!-- Node52 -->
<g id="node8" class="node">
<title>Node52</title>
<g id="a_node8"><a xlink:href="classAddInertiaMoment.html#a50d3efa11e6c2a8d12c397224679d259" target="_top" xlink:title="Implementation of computation to update Element::data. ">
<polygon fill="#ffffff" stroke="#000000" points="334,-156.5 334,-175.5 497,-175.5 497,-156.5 334,-156.5"/>
<text text-anchor="middle" x="415.5" y="-163.5" font-family="Helvetica,sans-Serif" font-size="10.00" fill="#000000">AddInertiaMoment::compute_impl</text>
</a>
</g>
</g>
<!-- Node51&#45;&gt;Node52 -->
<g id="edge8" class="edge">
<title>Node51&#45;&gt;Node52</title>
<path fill="none" stroke="#191970" d="M297.6853,-180.8756C311.705,-179.1054 326.2474,-177.2693 340.1312,-175.5163"/>
<polygon fill="#191970" stroke="#191970" points="297.0688,-177.4256 287.586,-182.1508 297.9457,-184.3704 297.0688,-177.4256"/>
</g>
<!-- Node53&#45;&gt;Node52 -->
<g id="edge10" class="edge">
<title>Node53&#45;&gt;Node52</title>
<path fill="none" stroke="#191970" d="M297.8535,-151.7398C310.7961,-153.3086 324.1799,-154.9309 337.0763,-156.4941"/>
<polygon fill="#191970" stroke="#191970" points="297.9346,-148.2241 287.586,-150.4953 297.0922,-155.1732 297.9346,-148.2241"/>
</g>
<!-- Node57 -->
<g id="node13" class="node">
<title>Node57</title>
<g id="a_node13"><a xlink:href="classStarter.html#a5e1cc4f19ad4d82b765b48c5aa8eb22a" target="_top" xlink:title="Compute or parse properties and set them to Element::data given as a mutable reference. ">
<polygon fill="#ffffff" stroke="#000000" points="371,-.5 371,-19.5 460,-19.5 460,-.5 371,-.5"/>
<text text-anchor="middle" x="415.5" y="-7.5" font-family="Helvetica,sans-Serif" font-size="10.00" fill="#000000">Starter::compute</text>
</a>
</g>
</g>
<!-- Node56&#45;&gt;Node57 -->
<g id="edge14" class="edge">
<title>Node56&#45;&gt;Node57</title>
<path fill="none" stroke="#191970" d="M276.1973,-10C306.4525,-10 342.7634,-10 370.7268,-10"/>
<polygon fill="#191970" stroke="#191970" points="276.1899,-6.5001 266.1898,-10 276.1898,-13.5001 276.1899,-6.5001"/>
</g>
</g>
</svg>
