<?xml version="1.0" encoding="UTF-8" standalone="no"?>
<!DOCTYPE svg PUBLIC "-//W3C//DTD SVG 1.1//EN"
 "http://www.w3.org/Graphics/SVG/1.1/DTD/svg11.dtd">
<!-- Generated by graphviz version 2.40.1 (20161225.0304)
 -->
<!-- Title: utils::log Pages: 1 -->
<!--zoomable 218 -->
<svg id="main" version="1.1" xmlns="http://www.w3.org/2000/svg" xmlns:xlink="http://www.w3.org/1999/xlink" xml:space="preserve" onload="init(evt)">
<style type="text/css"><![CDATA[
.edge:hover path { stroke: red; }
.edge:hover polygon { stroke: red; fill: red; }
]]></style>
<script type="text/javascript"><![CDATA[
var edges = document.getElementsByTagName('g');
if (edges && edges.length) {
  for (var i=0;i<edges.length;i++) {
    if (edges[i].id.substr(0,4)=='edge') {
      edges[i].setAttribute('class','edge');
    }
  }
}
]]></script>
        <defs>
                <circle id="rim" cx="0" cy="0" r="7"/>
                <circle id="rim2" cx="0" cy="0" r="3.5"/>
                <g id="zoomPlus">
                        <use xlink:href="#rim" fill="#404040">
                                <set attributeName="fill" to="#808080" begin="zoomplus.mouseover" end="zoomplus.mouseout"/>
                        </use>
                        <path d="M-4,0h8M0,-4v8" fill="none" stroke="white" stroke-width="1.5" pointer-events="none"/>
                </g>
                <g id="zoomMin">
                        <use xlink:href="#rim" fill="#404040">
                                <set attributeName="fill" to="#808080" begin="zoomminus.mouseover" end="zoomminus.mouseout"/>
                        </use>
                        <path d="M-4,0h8" fill="none" stroke="white" stroke-width="1.5" pointer-events="none"/>
                </g>
                <g id="dirArrow">
                        <path fill="none" stroke="white" stroke-width="1.5" d="M0,-3.0v7 M-2.5,-0.5L0,-3.0L2.5,-0.5"/>
                </g>
               <g id="resetDef">
                       <use xlink:href="#rim2" fill="#404040">
                               <set attributeName="fill" to="#808080" begin="reset.mouseover" end="reset.mouseout"/>
                       </use>
               </g>
        </defs>

<script type="text/javascript">
var viewWidth = 504;
var viewHeight = 218;
var sectionId = 'dynsection-2';
</script>
<script xlink:href="svgpan.js"/>
<svg id="graph" class="graph">
<g id="viewport">
<title>utils::log</title>
<polygon fill="#ffffff" stroke="transparent" points="-4,4 -4,-214 500,-214 500,4 -4,4"/>
<!-- Node25 -->
<g id="node1" class="node">
<title>Node25</title>
<polygon fill="#bfbfbf" stroke="#000000" points="0,-117.5 0,-136.5 53,-136.5 53,-117.5 0,-117.5"/>
<text text-anchor="middle" x="26.5" y="-124.5" font-family="Helvetica,sans-Serif" font-size="10.00" fill="#000000">utils::log</text>
</g>
<!-- Node26 -->
<g id="node2" class="node">
<title>Node26</title>
<g id="a_node2"><a xlink:href="classElement.html#a9ff7a4e19165faa6da26635d9145b46b" target="_top" xlink:title="This method decrements n_remain. ">
<polygon fill="#ffffff" stroke="#000000" points="98,-134 98,-164 202,-164 202,-134 98,-134"/>
<text text-anchor="start" x="106" y="-152" font-family="Helvetica,sans-Serif" font-size="10.00" fill="#000000">Element::decrement</text>
<text text-anchor="middle" x="150" y="-141" font-family="Helvetica,sans-Serif" font-size="10.00" fill="#000000">_remain</text>
</a>
</g>
</g>
<!-- Node25&#45;&gt;Node26 -->
<g id="edge1" class="edge">
<title>Node25&#45;&gt;Node26</title>
<path fill="none" stroke="#191970" d="M63.2728,-133.5506C74.1311,-135.4849 86.2286,-137.6399 97.8598,-139.7119"/>
<polygon fill="#191970" stroke="#191970" points="63.7565,-130.0818 53.2977,-131.7737 62.5288,-136.9733 63.7565,-130.0818"/>
</g>
<!-- Node27 -->
<g id="node3" class="node">
<title>Node27</title>
<g id="a_node3"><a xlink:href="classElement.html#a1fdb9455f49d2c66a0276925f7246cad" target="_top" xlink:title="Routines to be conducted when a wrapper of getter is called from Python. ">
<polygon fill="#ffffff" stroke="#000000" points="89,-95.5 89,-114.5 211,-114.5 211,-95.5 89,-95.5"/>
<text text-anchor="middle" x="150" y="-102.5" font-family="Helvetica,sans-Serif" font-size="10.00" fill="#000000">Element::init_for_python</text>
</a>
</g>
</g>
<!-- Node25&#45;&gt;Node27 -->
<g id="edge2" class="edge">
<title>Node25&#45;&gt;Node27</title>
<path fill="none" stroke="#191970" d="M63.3166,-120.4416C73.7741,-118.5787 85.3783,-116.5116 96.6069,-114.5113"/>
<polygon fill="#191970" stroke="#191970" points="62.5288,-117.0267 53.2977,-122.2263 63.7565,-123.9182 62.5288,-117.0267"/>
</g>
<!-- Node28 -->
<g id="node4" class="node">
<title>Node28</title>
<g id="a_node4"><a xlink:href="classElement.html#a62989090a40d237e617bc6e5f5087388" target="_top" xlink:title="Wrapper for the get_data method, which returns a reference. ">
<polygon fill="#ffffff" stroke="#000000" points="255,-190.5 255,-209.5 367,-209.5 367,-190.5 255,-190.5"/>
<text text-anchor="middle" x="311" y="-197.5" font-family="Helvetica,sans-Serif" font-size="10.00" fill="#000000">Element::get_data_py</text>
</a>
</g>
</g>
<!-- Node27&#45;&gt;Node28 -->
<g id="edge3" class="edge">
<title>Node27&#45;&gt;Node28</title>
<path fill="none" stroke="#191970" d="M201.2946,-118.8065C204.7247,-120.6274 208.0022,-122.6823 211,-125 234.4081,-143.0975 223.3388,-163.2348 247,-181 252.1905,-184.8971 258.1726,-187.9984 264.3517,-190.4656"/>
<polygon fill="#191970" stroke="#191970" points="202.4944,-115.5061 191.9463,-114.5129 199.5728,-121.8672 202.4944,-115.5061"/>
</g>
<!-- Node30 -->
<g id="node6" class="node">
<title>Node30</title>
<g id="a_node6"><a xlink:href="classElement.html#ae253cbec6307a157902d7f25867ded2b" target="_top" xlink:title="Wrapper for the get_keys method. ">
<polygon fill="#ffffff" stroke="#000000" points="254,-152.5 254,-171.5 368,-171.5 368,-152.5 254,-152.5"/>
<text text-anchor="middle" x="311" y="-159.5" font-family="Helvetica,sans-Serif" font-size="10.00" fill="#000000">Element::get_keys_py</text>
</a>
</g>
</g>
<!-- Node27&#45;&gt;Node30 -->
<g id="edge5" class="edge">
<title>Node27&#45;&gt;Node30</title>
<path fill="none" stroke="#191970" d="M191.4897,-117.6928C198.0758,-119.9679 204.7674,-122.4364 211,-125 227.5437,-131.8049 230.3619,-136.4293 247,-143 255.8398,-146.491 265.583,-149.695 274.7439,-152.4376"/>
<polygon fill="#191970" stroke="#191970" points="192.5755,-114.3654 181.9817,-114.5092 190.3529,-121.0032 192.5755,-114.3654"/>
</g>
<!-- Node31 -->
<g id="node7" class="node">
<title>Node31</title>
<g id="a_node7"><a xlink:href="classElement.html#a8257b02b1e3b208f193b35d5d47b9af8" target="_top" xlink:title="Wrapper for the array1d method for integer values. ">
<polygon fill="#ffffff" stroke="#000000" points="251.5,-114.5 251.5,-133.5 370.5,-133.5 370.5,-114.5 251.5,-114.5"/>
<text text-anchor="middle" x="311" y="-121.5" font-family="Helvetica,sans-Serif" font-size="10.00" fill="#000000">Element::get_1d_int_py</text>
</a>
</g>
</g>
<!-- Node27&#45;&gt;Node31 -->
<g id="edge7" class="edge">
<title>Node27&#45;&gt;Node31</title>
<path fill="none" stroke="#191970" d="M221.3026,-113.4146C231.3673,-114.6023 241.6263,-115.813 251.4391,-116.9711"/>
<polygon fill="#191970" stroke="#191970" points="221.6678,-109.9335 211.3265,-112.2373 220.8473,-116.8852 221.6678,-109.9335"/>
</g>
<!-- Node32 -->
<g id="node8" class="node">
<title>Node32</title>
<g id="a_node8"><a xlink:href="classElement.html#a3f11848589faad4cbca8119385887713" target="_top" xlink:title="Wrapper for the array1d method for float (double in C++) values. ">
<polygon fill="#ffffff" stroke="#000000" points="247,-76.5 247,-95.5 375,-95.5 375,-76.5 247,-76.5"/>
<text text-anchor="middle" x="311" y="-83.5" font-family="Helvetica,sans-Serif" font-size="10.00" fill="#000000">Element::get_1d_float_py</text>
</a>
</g>
</g>
<!-- Node27&#45;&gt;Node32 -->
<g id="edge9" class="edge">
<title>Node27&#45;&gt;Node32</title>
<path fill="none" stroke="#191970" d="M221.2601,-96.5904C229.797,-95.583 238.4744,-94.5589 246.9014,-93.5644"/>
<polygon fill="#191970" stroke="#191970" points="220.8473,-93.1148 211.3265,-97.7627 221.6678,-100.0665 220.8473,-93.1148"/>
</g>
<!-- Node33 -->
<g id="node9" class="node">
<title>Node33</title>
<g id="a_node9"><a xlink:href="classElement.html#a8e8245fb94b6417e3e804e6bfdf2f906" target="_top" xlink:title="Wrapper for the array2d method for integer values. ">
<polygon fill="#ffffff" stroke="#000000" points="251.5,-38.5 251.5,-57.5 370.5,-57.5 370.5,-38.5 251.5,-38.5"/>
<text text-anchor="middle" x="311" y="-45.5" font-family="Helvetica,sans-Serif" font-size="10.00" fill="#000000">Element::get_2d_int_py</text>
</a>
</g>
</g>
<!-- Node27&#45;&gt;Node33 -->
<g id="edge11" class="edge">
<title>Node27&#45;&gt;Node33</title>
<path fill="none" stroke="#191970" d="M182.1964,-91.595C200.9566,-83.9839 225.1514,-74.5077 247,-67 256.646,-63.6854 267.2228,-60.4045 276.9508,-57.5258"/>
<polygon fill="#191970" stroke="#191970" points="180.8555,-88.3619 172.9227,-95.3848 183.5036,-94.8418 180.8555,-88.3619"/>
</g>
<!-- Node34 -->
<g id="node10" class="node">
<title>Node34</title>
<g id="a_node10"><a xlink:href="classElement.html#a6a62280eadd3d4e6bfe8c43082797733" target="_top" xlink:title="Wrapper for the array2d method for float (double in C++) values. ">
<polygon fill="#ffffff" stroke="#000000" points="247,-.5 247,-19.5 375,-19.5 375,-.5 247,-.5"/>
<text text-anchor="middle" x="311" y="-7.5" font-family="Helvetica,sans-Serif" font-size="10.00" fill="#000000">Element::get_2d_float_py</text>
</a>
</g>
</g>
<!-- Node27&#45;&gt;Node34 -->
<g id="edge13" class="edge">
<title>Node27&#45;&gt;Node34</title>
<path fill="none" stroke="#191970" d="M167.1183,-88.2675C185.4786,-71.1636 216.1733,-44.9155 247,-29 254.3121,-25.2248 262.4912,-22.0822 270.4938,-19.5117"/>
<polygon fill="#191970" stroke="#191970" points="164.4355,-85.9885 159.5943,-95.4126 169.2558,-91.0644 164.4355,-85.9885"/>
</g>
<!-- Node29 -->
<g id="node5" class="node">
<title>Node29</title>
<g id="a_node5"><a xlink:href="py__element_8h.html#a32471b3cace9ede01900bfbdaca5e16a" target="_top" xlink:title="Function to bind Element class to Python. ">
<polygon fill="#ffffff" stroke="#000000" points="411,-95.5 411,-114.5 496,-114.5 496,-95.5 411,-95.5"/>
<text text-anchor="middle" x="453.5" y="-102.5" font-family="Helvetica,sans-Serif" font-size="10.00" fill="#000000">pybind_element</text>
</a>
</g>
</g>
<!-- Node28&#45;&gt;Node29 -->
<g id="edge4" class="edge">
<title>Node28&#45;&gt;Node29</title>
<path fill="none" stroke="#191970" d="M363.3917,-186.7654C367.4222,-185.0534 371.3413,-183.1383 375,-181 405.6254,-163.1012 433.3954,-130.799 446.1403,-114.6864"/>
<polygon fill="#191970" stroke="#191970" points="361.9525,-183.5683 353.8552,-190.401 364.446,-190.1091 361.9525,-183.5683"/>
</g>
<!-- Node30&#45;&gt;Node29 -->
<g id="edge6" class="edge">
<title>Node30&#45;&gt;Node29</title>
<path fill="none" stroke="#191970" d="M356.5966,-149.4556C362.8345,-147.4518 369.1134,-145.2812 375,-143 396.4597,-134.6838 420.1103,-122.8466 435.7848,-114.6014"/>
<polygon fill="#191970" stroke="#191970" points="355.4089,-146.1593 346.8904,-152.4591 357.4782,-152.8465 355.4089,-146.1593"/>
</g>
<!-- Node31&#45;&gt;Node29 -->
<g id="edge8" class="edge">
<title>Node31&#45;&gt;Node29</title>
<path fill="none" stroke="#191970" d="M380.7498,-114.7C390.9369,-113.3417 401.1649,-111.978 410.6004,-110.7199"/>
<polygon fill="#191970" stroke="#191970" points="380.0568,-111.2614 370.6072,-116.0524 380.982,-118.2 380.0568,-111.2614"/>
</g>
<!-- Node32&#45;&gt;Node29 -->
<g id="edge10" class="edge">
<title>Node32&#45;&gt;Node29</title>
<path fill="none" stroke="#191970" d="M385.1344,-95.8846C393.9695,-97.0626 402.7453,-98.2327 410.9172,-99.3223"/>
<polygon fill="#191970" stroke="#191970" points="385.5381,-92.4075 375.1633,-94.5551 384.6129,-99.3461 385.5381,-92.4075"/>
</g>
<!-- Node33&#45;&gt;Node29 -->
<g id="edge12" class="edge">
<title>Node33&#45;&gt;Node29</title>
<path fill="none" stroke="#191970" d="M356.5966,-60.5444C362.8345,-62.5482 369.1134,-64.7188 375,-67 396.4597,-75.3162 420.1103,-87.1534 435.7848,-95.3986"/>
<polygon fill="#191970" stroke="#191970" points="357.4782,-57.1535 346.8904,-57.5409 355.4089,-63.8407 357.4782,-57.1535"/>
</g>
<!-- Node34&#45;&gt;Node29 -->
<g id="edge14" class="edge">
<title>Node34&#45;&gt;Node29</title>
<path fill="none" stroke="#191970" d="M363.3917,-23.2346C367.4222,-24.9466 371.3413,-26.8617 375,-29 405.6254,-46.8988 433.3954,-79.201 446.1403,-95.3136"/>
<polygon fill="#191970" stroke="#191970" points="364.446,-19.8909 353.8552,-19.599 361.9525,-26.4317 364.446,-19.8909"/>
</g>
</g>
</svg>
        <g id="navigator" transform="translate(0 0)" fill="#404254">
                <rect fill="#f2f5e9" fill-opacity="0.5" stroke="#606060" stroke-width=".5" x="0" y="0" width="60" height="60"/>
                <use id="zoomplus" xlink:href="#zoomPlus" x="17" y="9" onmousedown="handleZoom(evt,'in')"/>
                <use id="zoomminus" xlink:href="#zoomMin" x="42" y="9" onmousedown="handleZoom(evt,'out')"/>
                <use id="reset" xlink:href="#resetDef" x="30" y="36" onmousedown="handleReset()"/>
                <g id="arrowUp" xlink:href="#dirArrow" transform="translate(30 24)" onmousedown="handlePan(0,-1)">
                  <use xlink:href="#rim" fill="#404040">
                        <set attributeName="fill" to="#808080" begin="arrowUp.mouseover" end="arrowUp.mouseout"/>
                  </use>
                  <path fill="none" stroke="white" stroke-width="1.5" d="M0,-3.0v7 M-2.5,-0.5L0,-3.0L2.5,-0.5"/>
                </g>
                <g id="arrowRight" xlink:href="#dirArrow" transform="rotate(90) translate(36 -43)" onmousedown="handlePan(1,0)">
                  <use xlink:href="#rim" fill="#404040">
                        <set attributeName="fill" to="#808080" begin="arrowRight.mouseover" end="arrowRight.mouseout"/>
                  </use>
                  <path fill="none" stroke="white" stroke-width="1.5" d="M0,-3.0v7 M-2.5,-0.5L0,-3.0L2.5,-0.5"/>
                </g>
                <g id="arrowDown" xlink:href="#dirArrow" transform="rotate(180) translate(-30 -48)" onmousedown="handlePan(0,1)">
                  <use xlink:href="#rim" fill="#404040">
                        <set attributeName="fill" to="#808080" begin="arrowDown.mouseover" end="arrowDown.mouseout"/>
                  </use>
                  <path fill="none" stroke="white" stroke-width="1.5" d="M0,-3.0v7 M-2.5,-0.5L0,-3.0L2.5,-0.5"/>
                </g>
                <g id="arrowLeft" xlink:href="#dirArrow" transform="rotate(270) translate(-36 17)" onmousedown="handlePan(-1,0)">
                  <use xlink:href="#rim" fill="#404040">
                        <set attributeName="fill" to="#808080" begin="arrowLeft.mouseover" end="arrowLeft.mouseout"/>
                  </use>
                  <path fill="none" stroke="white" stroke-width="1.5" d="M0,-3.0v7 M-2.5,-0.5L0,-3.0L2.5,-0.5"/>
                </g>
        </g>
        <svg viewBox="0 0 15 15" width="100%" height="30px" preserveAspectRatio="xMaxYMin meet">
         <g id="arrow_out" transform="scale(0.3 0.3)">
          <a xlink:href="namespaceutils_a26267fe7371b6215c5d61374d716527b_icgraph_org.svg" target="_base">
           <rect id="button" ry="5" rx="5" y="6" x="6" height="38" width="38"
                fill="#f2f5e9" fill-opacity="0.5" stroke="#606060" stroke-width="1.0"/>
           <path id="arrow"
             d="M 11.500037,31.436501 C 11.940474,20.09759 22.043105,11.32322 32.158766,21.979434 L 37.068811,17.246167 C 37.068811,17.246167 37.088388,32 37.088388,32 L 22.160133,31.978069 C 22.160133,31.978069 26.997745,27.140456 26.997745,27.140456 C 18.528582,18.264221 13.291696,25.230495 11.500037,31.436501 z"
             style="fill:#404040;"/>
          </a>
         </g>
        </svg>
</svg>
