<?xml version="1.0" encoding="UTF-8" standalone="no"?>
<!DOCTYPE svg PUBLIC "-//W3C//DTD SVG 1.1//EN"
 "http://www.w3.org/Graphics/SVG/1.1/DTD/svg11.dtd">
<!-- Generated by graphviz version 2.40.1 (20161225.0304)
 -->
<!-- Title: utils::_message Pages: 1 -->
<!--zoomable 355 -->
<svg id="main" version="1.1" xmlns="http://www.w3.org/2000/svg" xmlns:xlink="http://www.w3.org/1999/xlink" xml:space="preserve" onload="init(evt)">
<style type="text/css"><![CDATA[
.edge:hover path { stroke: red; }
.edge:hover polygon { stroke: red; fill: red; }
]]></style>
<script type="text/javascript"><![CDATA[
var edges = document.getElementsByTagName('g');
if (edges && edges.length) {
  for (var i=0;i<edges.length;i++) {
    if (edges[i].id.substr(0,4)=='edge') {
      edges[i].setAttribute('class','edge');
    }
  }
}
]]></script>
        <defs>
                <circle id="rim" cx="0" cy="0" r="7"/>
                <circle id="rim2" cx="0" cy="0" r="3.5"/>
                <g id="zoomPlus">
                        <use xlink:href="#rim" fill="#404040">
                                <set attributeName="fill" to="#808080" begin="zoomplus.mouseover" end="zoomplus.mouseout"/>
                        </use>
                        <path d="M-4,0h8M0,-4v8" fill="none" stroke="white" stroke-width="1.5" pointer-events="none"/>
                </g>
                <g id="zoomMin">
                        <use xlink:href="#rim" fill="#404040">
                                <set attributeName="fill" to="#808080" begin="zoomminus.mouseover" end="zoomminus.mouseout"/>
                        </use>
                        <path d="M-4,0h8" fill="none" stroke="white" stroke-width="1.5" pointer-events="none"/>
                </g>
                <g id="dirArrow">
                        <path fill="none" stroke="white" stroke-width="1.5" d="M0,-3.0v7 M-2.5,-0.5L0,-3.0L2.5,-0.5"/>
                </g>
               <g id="resetDef">
                       <use xlink:href="#rim2" fill="#404040">
                               <set attributeName="fill" to="#808080" begin="reset.mouseover" end="reset.mouseout"/>
                       </use>
               </g>
        </defs>

<script type="text/javascript">
var viewWidth = 816;
var viewHeight = 355;
var sectionId = 'dynsection-0';
</script>
<script xlink:href="svgpan.js"/>
<svg id="graph" class="graph">
<g id="viewport">
<title>utils::_message</title>
<polygon fill="#ffffff" stroke="transparent" points="-4,4 -4,-350.5 812,-350.5 812,4 -4,4"/>
<!-- Node1 -->
<g id="node1" class="node">
<title>Node1</title>
<polygon fill="#bfbfbf" stroke="#000000" points="0,-115 0,-134 86,-134 86,-115 0,-115"/>
<text text-anchor="middle" x="43" y="-122" font-family="Helvetica,sans-Serif" font-size="10.00" fill="#000000">utils::_message</text>
</g>
<!-- Node2 -->
<g id="node2" class="node">
<title>Node2</title>
<g id="a_node2"><a xlink:href="namespaceutils.html#a26267fe7371b6215c5d61374d716527b" target="_top" xlink:title="utils::log">
<polygon fill="#ffffff" stroke="#000000" points="132.5,-175 132.5,-194 185.5,-194 185.5,-175 132.5,-175"/>
<text text-anchor="middle" x="159" y="-182" font-family="Helvetica,sans-Serif" font-size="10.00" fill="#000000">utils::log</text>
</a>
</g>
</g>
<!-- Node1&#45;&gt;Node2 -->
<g id="edge1" class="edge">
<title>Node1&#45;&gt;Node2</title>
<path fill="none" stroke="#191970" d="M70.3707,-138.6573C91.9274,-149.8073 121.4002,-165.0518 140.3213,-174.8386"/>
<polygon fill="#191970" stroke="#191970" points="71.8707,-135.4927 61.3805,-134.0072 68.6547,-141.7102 71.8707,-135.4927"/>
</g>
<!-- Node16 -->
<g id="node16" class="node">
<title>Node16</title>
<g id="a_node16"><a xlink:href="namespaceutils.html#a362e3ea9867513a7bba06b6382d6527b" target="_top" xlink:title="utils::warning">
<polygon fill="#ffffff" stroke="#000000" points="122,-77 122,-96 196,-96 196,-77 122,-77"/>
<text text-anchor="middle" x="159" y="-84" font-family="Helvetica,sans-Serif" font-size="10.00" fill="#000000">utils::warning</text>
</a>
</g>
</g>
<!-- Node1&#45;&gt;Node16 -->
<g id="edge21" class="edge">
<title>Node1&#45;&gt;Node16</title>
<path fill="none" stroke="#191970" d="M82.1528,-111.6741C97.7176,-106.5753 115.3141,-100.8109 129.7377,-96.0859"/>
<polygon fill="#191970" stroke="#191970" points="80.6852,-108.4718 72.2717,-114.911 82.8644,-115.1239 80.6852,-108.4718"/>
</g>
<!-- Node3 -->
<g id="node3" class="node">
<title>Node3</title>
<g id="a_node3"><a xlink:href="classElement.html#a9ff7a4e19165faa6da26635d9145b46b" target="_top" xlink:title="This method decrements n_remain. ">
<polygon fill="#ffffff" stroke="#000000" points="252.5,-251.5 252.5,-281.5 356.5,-281.5 356.5,-251.5 252.5,-251.5"/>
<text text-anchor="start" x="260.5" y="-269.5" font-family="Helvetica,sans-Serif" font-size="10.00" fill="#000000">Element::decrement</text>
<text text-anchor="middle" x="304.5" y="-258.5" font-family="Helvetica,sans-Serif" font-size="10.00" fill="#000000">_remain</text>
</a>
</g>
</g>
<!-- Node2&#45;&gt;Node3 -->
<g id="edge2" class="edge">
<title>Node2&#45;&gt;Node3</title>
<path fill="none" stroke="#191970" d="M176.5834,-200.9632C190.6834,-213.4595 211.4471,-230.3386 232,-241.5 238.7861,-245.1852 246.2187,-248.4839 253.6566,-251.3819"/>
<polygon fill="#191970" stroke="#191970" points="178.8649,-198.3074 169.1035,-194.1884 174.1657,-203.4956 178.8649,-198.3074"/>
</g>
<!-- Node4 -->
<g id="node4" class="node">
<title>Node4</title>
<g id="a_node4"><a xlink:href="classElement.html#a1fdb9455f49d2c66a0276925f7246cad" target="_top" xlink:title="Routines to be conducted when a wrapper of getter is called from Python. ">
<polygon fill="#ffffff" stroke="#000000" points="243.5,-213 243.5,-232 365.5,-232 365.5,-213 243.5,-213"/>
<text text-anchor="middle" x="304.5" y="-220" font-family="Helvetica,sans-Serif" font-size="10.00" fill="#000000">Element::init_for_python</text>
</a>
</g>
</g>
<!-- Node2&#45;&gt;Node4 -->
<g id="edge3" class="edge">
<title>Node2&#45;&gt;Node4</title>
<path fill="none" stroke="#191970" d="M195.42,-194.0117C217.6294,-199.8121 245.9161,-207.1997 268.1185,-212.9983"/>
<polygon fill="#191970" stroke="#191970" points="196.2469,-190.6104 185.6869,-191.4698 194.478,-197.3832 196.2469,-190.6104"/>
</g>
<!-- Node13 -->
<g id="node13" class="node">
<title>Node13</title>
<g id="a_node13"><a xlink:href="classInvOMP.html#a6d30ee44e69355e633855773a4d8cfef" target="_top" xlink:title="InvOMP::execute_impl">
<polygon fill="#ffffff" stroke="#000000" points="246.5,-175 246.5,-194 362.5,-194 362.5,-175 246.5,-175"/>
<text text-anchor="middle" x="304.5" y="-182" font-family="Helvetica,sans-Serif" font-size="10.00" fill="#000000">InvOMP::execute_impl</text>
</a>
</g>
</g>
<!-- Node2&#45;&gt;Node13 -->
<g id="edge17" class="edge">
<title>Node2&#45;&gt;Node13</title>
<path fill="none" stroke="#191970" d="M195.7909,-184.5C211.1117,-184.5 229.2751,-184.5 246.3248,-184.5"/>
<polygon fill="#191970" stroke="#191970" points="195.687,-181.0001 185.6869,-184.5 195.6869,-188.0001 195.687,-181.0001"/>
</g>
<!-- Node14 -->
<g id="node14" class="node">
<title>Node14</title>
<g id="a_node14"><a xlink:href="classInvoker.html#a72e473312201d41ea0711cea5346476c" target="_top" xlink:title="Invoker::execute">
<polygon fill="#ffffff" stroke="#000000" points="432.5,-99 432.5,-118 521.5,-118 521.5,-99 432.5,-99"/>
<text text-anchor="middle" x="477" y="-106" font-family="Helvetica,sans-Serif" font-size="10.00" fill="#000000">Invoker::execute</text>
</a>
</g>
</g>
<!-- Node2&#45;&gt;Node14 -->
<g id="edge18" class="edge">
<title>Node2&#45;&gt;Node14</title>
<path fill="none" stroke="#191970" d="M195.4962,-174.8019C207.1449,-171.7599 220.1001,-168.4324 232,-165.5 302.8118,-148.0506 385.4967,-129.1107 434.4298,-118.0506"/>
<polygon fill="#191970" stroke="#191970" points="194.4393,-171.4607 185.6552,-177.3845 196.2162,-178.2314 194.4393,-171.4607"/>
</g>
<!-- Node5 -->
<g id="node5" class="node">
<title>Node5</title>
<g id="a_node5"><a xlink:href="classElement.html#a62989090a40d237e617bc6e5f5087388" target="_top" xlink:title="Wrapper for the get_data method which returns a reference. Can be called from Python as get_data...">
<polygon fill="#ffffff" stroke="#000000" points="421,-327 421,-346 533,-346 533,-327 421,-327"/>
<text text-anchor="middle" x="477" y="-334" font-family="Helvetica,sans-Serif" font-size="10.00" fill="#000000">Element::get_data_py</text>
</a>
</g>
</g>
<!-- Node4&#45;&gt;Node5 -->
<g id="edge4" class="edge">
<title>Node4&#45;&gt;Node5</title>
<path fill="none" stroke="#191970" d="M368.3219,-236.4892C371.3951,-238.2605 374.3139,-240.2548 377,-242.5 405.3694,-266.2126 384.8622,-293.5131 413,-317.5 417.5866,-321.41 422.9505,-324.5155 428.5867,-326.982"/>
<polygon fill="#191970" stroke="#191970" points="369.8356,-233.3333 359.317,-232.0645 366.7486,-239.6159 369.8356,-233.3333"/>
</g>
<!-- Node8 -->
<g id="node8" class="node">
<title>Node8</title>
<g id="a_node8"><a xlink:href="classElement.html#ae253cbec6307a157902d7f25867ded2b" target="_top" xlink:title="Wrapper for the get_keys method. Can be called from Python as get_keys. ">
<polygon fill="#ffffff" stroke="#000000" points="420,-289 420,-308 534,-308 534,-289 420,-289"/>
<text text-anchor="middle" x="477" y="-296" font-family="Helvetica,sans-Serif" font-size="10.00" fill="#000000">Element::get_keys_py</text>
</a>
</g>
</g>
<!-- Node4&#45;&gt;Node8 -->
<g id="edge7" class="edge">
<title>Node4&#45;&gt;Node8</title>
<path fill="none" stroke="#191970" d="M362.7888,-235.5682C367.7391,-237.5701 372.5486,-239.8671 377,-242.5 396.748,-254.1806 393.3663,-267.6282 413,-279.5 419.3477,-283.3382 426.5215,-286.4448 433.7117,-288.9457"/>
<polygon fill="#191970" stroke="#191970" points="363.7469,-232.1926 353.1527,-232.0712 361.3589,-238.7727 363.7469,-232.1926"/>
</g>
<!-- Node9 -->
<g id="node9" class="node">
<title>Node9</title>
<g id="a_node9"><a xlink:href="classElement.html#a8257b02b1e3b208f193b35d5d47b9af8" target="_top" xlink:title="Wrapper for the array1d method for integer values. Can be called from Python as get_1d_int. ">
<polygon fill="#ffffff" stroke="#000000" points="417.5,-251 417.5,-270 536.5,-270 536.5,-251 417.5,-251"/>
<text text-anchor="middle" x="477" y="-258" font-family="Helvetica,sans-Serif" font-size="10.00" fill="#000000">Element::get_1d_int_py</text>
</a>
</g>
</g>
<!-- Node4&#45;&gt;Node9 -->
<g id="edge9" class="edge">
<title>Node4&#45;&gt;Node9</title>
<path fill="none" stroke="#191970" d="M357.8505,-234.2526C382.242,-239.6258 410.7627,-245.9086 433.784,-250.9799"/>
<polygon fill="#191970" stroke="#191970" points="358.5479,-230.8224 348.029,-232.089 357.0419,-237.6584 358.5479,-230.8224"/>
</g>
<!-- Node10 -->
<g id="node10" class="node">
<title>Node10</title>
<g id="a_node10"><a xlink:href="classElement.html#a3f11848589faad4cbca8119385887713" target="_top" xlink:title="Wrapper for the array1d method for float (double in C++) values. Can be called from Python as get_1d_...">
<polygon fill="#ffffff" stroke="#000000" points="413,-213 413,-232 541,-232 541,-213 413,-213"/>
<text text-anchor="middle" x="477" y="-220" font-family="Helvetica,sans-Serif" font-size="10.00" fill="#000000">Element::get_1d_float_py</text>
</a>
</g>
</g>
<!-- Node4&#45;&gt;Node10 -->
<g id="edge11" class="edge">
<title>Node4&#45;&gt;Node10</title>
<path fill="none" stroke="#191970" d="M375.9856,-222.5C388.2499,-222.5 400.9248,-222.5 412.978,-222.5"/>
<polygon fill="#191970" stroke="#191970" points="375.8028,-219.0001 365.8028,-222.5 375.8027,-226.0001 375.8028,-219.0001"/>
</g>
<!-- Node11 -->
<g id="node11" class="node">
<title>Node11</title>
<g id="a_node11"><a xlink:href="classElement.html#a8e8245fb94b6417e3e804e6bfdf2f906" target="_top" xlink:title="Wrapper for the array2d method for integer values. Can be called from Python as get_2d_int. ">
<polygon fill="#ffffff" stroke="#000000" points="417.5,-175 417.5,-194 536.5,-194 536.5,-175 417.5,-175"/>
<text text-anchor="middle" x="477" y="-182" font-family="Helvetica,sans-Serif" font-size="10.00" fill="#000000">Element::get_2d_int_py</text>
</a>
</g>
</g>
<!-- Node4&#45;&gt;Node11 -->
<g id="edge13" class="edge">
<title>Node4&#45;&gt;Node11</title>
<path fill="none" stroke="#191970" d="M357.8505,-210.7474C382.242,-205.3742 410.7627,-199.0914 433.784,-194.0201"/>
<polygon fill="#191970" stroke="#191970" points="357.0419,-207.3416 348.029,-212.911 358.5479,-214.1776 357.0419,-207.3416"/>
</g>
<!-- Node12 -->
<g id="node12" class="node">
<title>Node12</title>
<g id="a_node12"><a xlink:href="classElement.html#a6a62280eadd3d4e6bfe8c43082797733" target="_top" xlink:title="Wrapper for the array2d method for float (double in C++) values. Can be called from Python as get_2d_...">
<polygon fill="#ffffff" stroke="#000000" points="413,-137 413,-156 541,-156 541,-137 413,-137"/>
<text text-anchor="middle" x="477" y="-144" font-family="Helvetica,sans-Serif" font-size="10.00" fill="#000000">Element::get_2d_float_py</text>
</a>
</g>
</g>
<!-- Node4&#45;&gt;Node12 -->
<g id="edge15" class="edge">
<title>Node4&#45;&gt;Node12</title>
<path fill="none" stroke="#191970" d="M365.4232,-209.2853C369.447,-207.5815 373.3467,-205.662 377,-203.5 397.0212,-191.6516 393.1726,-177.67 413,-165.5 419.2232,-161.6802 426.2594,-158.5898 433.3315,-156.1011"/>
<polygon fill="#191970" stroke="#191970" points="363.9928,-206.0839 355.8662,-212.8816 366.4582,-212.6354 363.9928,-206.0839"/>
</g>
<!-- Node6 -->
<g id="node6" class="node">
<title>Node6</title>
<g id="a_node6"><a xlink:href="pybind_2element_8h.html#a32471b3cace9ede01900bfbdaca5e16a" target="_top" xlink:title="pybind_element">
<polygon fill="#ffffff" stroke="#000000" points="577,-213 577,-232 662,-232 662,-213 577,-213"/>
<text text-anchor="middle" x="619.5" y="-220" font-family="Helvetica,sans-Serif" font-size="10.00" fill="#000000">pybind_element</text>
</a>
</g>
</g>
<!-- Node5&#45;&gt;Node6 -->
<g id="edge5" class="edge">
<title>Node5&#45;&gt;Node6</title>
<path fill="none" stroke="#191970" d="M531.1852,-322.9971C534.6125,-321.3634 537.9187,-319.5382 541,-317.5 575.7969,-294.4827 603.1298,-251.4104 614.1799,-232.1906"/>
<polygon fill="#191970" stroke="#191970" points="529.7707,-319.7949 521.9013,-326.8888 532.4769,-326.2506 529.7707,-319.7949"/>
</g>
<!-- Node7 -->
<g id="node7" class="node">
<title>Node7</title>
<g id="a_node7"><a xlink:href="pybind_8h.html#a4714c4a855ebb82892410d5254e9ccdc" target="_top" xlink:title="PYBIND11_MODULE">
<polygon fill="#ffffff" stroke="#000000" points="698,-156 698,-175 808,-175 808,-156 698,-156"/>
<text text-anchor="middle" x="753" y="-163" font-family="Helvetica,sans-Serif" font-size="10.00" fill="#000000">PYBIND11_MODULE</text>
</a>
</g>
</g>
<!-- Node6&#45;&gt;Node7 -->
<g id="edge6" class="edge">
<title>Node6&#45;&gt;Node7</title>
<path fill="none" stroke="#191970" d="M651.0699,-209.0207C675.5251,-198.5792 708.8011,-184.3715 730.5822,-175.0716"/>
<polygon fill="#191970" stroke="#191970" points="649.6673,-205.8138 641.8449,-212.9595 652.4161,-212.2516 649.6673,-205.8138"/>
</g>
<!-- Node8&#45;&gt;Node6 -->
<g id="edge8" class="edge">
<title>Node8&#45;&gt;Node6</title>
<path fill="none" stroke="#191970" d="M526.4046,-285.6935C531.4268,-283.8433 536.3762,-281.7812 541,-279.5 567.4323,-266.4596 594.4098,-244.6118 608.8352,-232.0917"/>
<polygon fill="#191970" stroke="#191970" points="525.0601,-282.454 516.7235,-288.9925 527.318,-289.0799 525.0601,-282.454"/>
</g>
<!-- Node9&#45;&gt;Node6 -->
<g id="edge10" class="edge">
<title>Node9&#45;&gt;Node6</title>
<path fill="none" stroke="#191970" d="M522.6531,-248.3258C542.3577,-243.0713 565.0747,-237.0134 583.5527,-232.0859"/>
<polygon fill="#191970" stroke="#191970" points="521.7193,-244.9525 512.9588,-250.911 523.523,-251.7161 521.7193,-244.9525"/>
</g>
<!-- Node10&#45;&gt;Node6 -->
<g id="edge12" class="edge">
<title>Node10&#45;&gt;Node6</title>
<path fill="none" stroke="#191970" d="M551.4194,-222.5C560.1581,-222.5 568.8331,-222.5 576.9172,-222.5"/>
<polygon fill="#191970" stroke="#191970" points="551.1633,-219.0001 541.1633,-222.5 551.1632,-226.0001 551.1633,-219.0001"/>
</g>
<!-- Node11&#45;&gt;Node6 -->
<g id="edge14" class="edge">
<title>Node11&#45;&gt;Node6</title>
<path fill="none" stroke="#191970" d="M522.6531,-196.6742C542.3577,-201.9287 565.0747,-207.9866 583.5527,-212.9141"/>
<polygon fill="#191970" stroke="#191970" points="523.523,-193.2839 512.9588,-194.089 521.7193,-200.0475 523.523,-193.2839"/>
</g>
<!-- Node12&#45;&gt;Node6 -->
<g id="edge16" class="edge">
<title>Node12&#45;&gt;Node6</title>
<path fill="none" stroke="#191970" d="M526.4046,-159.3065C531.4268,-161.1567 536.3762,-163.2188 541,-165.5 567.4323,-178.5404 594.4098,-200.3882 608.8352,-212.9083"/>
<polygon fill="#191970" stroke="#191970" points="527.318,-155.9201 516.7235,-156.0075 525.0601,-162.546 527.318,-155.9201"/>
</g>
<!-- Node15 -->
<g id="node15" class="node">
<title>Node15</title>
<g id="a_node15"><a xlink:href="pybind_2invokers_2invoker_8h.html#a862abb0356ee584e3363ac24ec776fbb" target="_top" xlink:title="pybind_invoker">
<polygon fill="#ffffff" stroke="#000000" points="578.5,-137 578.5,-156 660.5,-156 660.5,-137 578.5,-137"/>
<text text-anchor="middle" x="619.5" y="-144" font-family="Helvetica,sans-Serif" font-size="10.00" fill="#000000">pybind_invoker</text>
</a>
</g>
</g>
<!-- Node14&#45;&gt;Node15 -->
<g id="edge19" class="edge">
<title>Node14&#45;&gt;Node15</title>
<path fill="none" stroke="#191970" d="M522.6531,-120.6742C542.3577,-125.9287 565.0747,-131.9866 583.5527,-136.9141"/>
<polygon fill="#191970" stroke="#191970" points="523.523,-117.2839 512.9588,-118.089 521.7193,-124.0475 523.523,-117.2839"/>
</g>
<!-- Node15&#45;&gt;Node7 -->
<g id="edge20" class="edge">
<title>Node15&#45;&gt;Node7</title>
<path fill="none" stroke="#191970" d="M670.5669,-153.7679C679.5398,-155.045 688.9136,-156.3791 697.9884,-157.6706"/>
<polygon fill="#191970" stroke="#191970" points="671.0371,-150.2997 660.6437,-152.3557 670.0508,-157.2299 671.0371,-150.2997"/>
</g>
<!-- Node17 -->
<g id="node17" class="node">
<title>Node17</title>
<g id="a_node17"><a xlink:href="classFilter.html#acd658aa335c8b5215242737aabcf5155" target="_top" xlink:title="Managing computation to update the data. ">
<polygon fill="#ffffff" stroke="#000000" points="263.5,-99 263.5,-118 345.5,-118 345.5,-99 263.5,-99"/>
<text text-anchor="middle" x="304.5" y="-106" font-family="Helvetica,sans-Serif" font-size="10.00" fill="#000000">Filter::compute</text>
</a>
</g>
</g>
<!-- Node16&#45;&gt;Node17 -->
<g id="edge22" class="edge">
<title>Node16&#45;&gt;Node17</title>
<path fill="none" stroke="#191970" d="M206.0551,-93.6149C224.5227,-96.4072 245.5249,-99.5828 263.3738,-102.2816"/>
<polygon fill="#191970" stroke="#191970" points="206.5032,-90.1429 196.0923,-92.1085 205.4566,-97.0642 206.5032,-90.1429"/>
</g>
<!-- Node18 -->
<g id="node18" class="node">
<title>Node18</title>
<g id="a_node18"><a xlink:href="classProRadialDistributionFunction.html#ab57365923a1645429f9c471df2f84c84" target="_top" xlink:title="ProRadialDistributionFunction\l::run_impl">
<polygon fill="#ffffff" stroke="#000000" points="232,-49.5 232,-79.5 377,-79.5 377,-49.5 232,-49.5"/>
<text text-anchor="start" x="240" y="-67.5" font-family="Helvetica,sans-Serif" font-size="10.00" fill="#000000">ProRadialDistributionFunction</text>
<text text-anchor="middle" x="304.5" y="-56.5" font-family="Helvetica,sans-Serif" font-size="10.00" fill="#000000">::run_impl</text>
</a>
</g>
</g>
<!-- Node16&#45;&gt;Node18 -->
<g id="edge23" class="edge">
<title>Node16&#45;&gt;Node18</title>
<path fill="none" stroke="#191970" d="M206.1813,-79.3661C214.3858,-78.1255 223.0874,-76.8098 231.7883,-75.4942"/>
<polygon fill="#191970" stroke="#191970" points="205.4566,-75.9358 196.0923,-80.8915 206.5032,-82.8571 205.4566,-75.9358"/>
</g>
<!-- Node19 -->
<g id="node19" class="node">
<title>Node19</title>
<g id="a_node19"><a xlink:href="classProRadialDistributionFunctionWithDeformation.html#a30f40581903736b31e5d242ae499c32f" target="_top" xlink:title="ProRadialDistributionFunction\lWithDeformation::run_impl">
<polygon fill="#ffffff" stroke="#000000" points="232,-.5 232,-30.5 377,-30.5 377,-.5 232,-.5"/>
<text text-anchor="start" x="240" y="-18.5" font-family="Helvetica,sans-Serif" font-size="10.00" fill="#000000">ProRadialDistributionFunction</text>
<text text-anchor="middle" x="304.5" y="-7.5" font-family="Helvetica,sans-Serif" font-size="10.00" fill="#000000">WithDeformation::run_impl</text>
</a>
</g>
</g>
<!-- Node16&#45;&gt;Node19 -->
<g id="edge24" class="edge">
<title>Node16&#45;&gt;Node19</title>
<path fill="none" stroke="#191970" d="M180.0937,-70.8845C194.2433,-60.931 213.5926,-48.2979 232,-39.5 238.8186,-36.241 246.195,-33.2435 253.5428,-30.5526"/>
<polygon fill="#191970" stroke="#191970" points="177.694,-68.2985 171.6084,-76.9712 181.7741,-73.9865 177.694,-68.2985"/>
</g>
</g>
</svg>
        <g id="navigator" transform="translate(0 0)" fill="#404254">
                <rect fill="#f2f5e9" fill-opacity="0.5" stroke="#606060" stroke-width=".5" x="0" y="0" width="60" height="60"/>
                <use id="zoomplus" xlink:href="#zoomPlus" x="17" y="9" onmousedown="handleZoom(evt,'in')"/>
                <use id="zoomminus" xlink:href="#zoomMin" x="42" y="9" onmousedown="handleZoom(evt,'out')"/>
                <use id="reset" xlink:href="#resetDef" x="30" y="36" onmousedown="handleReset()"/>
                <g id="arrowUp" xlink:href="#dirArrow" transform="translate(30 24)" onmousedown="handlePan(0,-1)">
                  <use xlink:href="#rim" fill="#404040">
                        <set attributeName="fill" to="#808080" begin="arrowUp.mouseover" end="arrowUp.mouseout"/>
                  </use>
                  <path fill="none" stroke="white" stroke-width="1.5" d="M0,-3.0v7 M-2.5,-0.5L0,-3.0L2.5,-0.5"/>
                </g>
                <g id="arrowRight" xlink:href="#dirArrow" transform="rotate(90) translate(36 -43)" onmousedown="handlePan(1,0)">
                  <use xlink:href="#rim" fill="#404040">
                        <set attributeName="fill" to="#808080" begin="arrowRight.mouseover" end="arrowRight.mouseout"/>
                  </use>
                  <path fill="none" stroke="white" stroke-width="1.5" d="M0,-3.0v7 M-2.5,-0.5L0,-3.0L2.5,-0.5"/>
                </g>
                <g id="arrowDown" xlink:href="#dirArrow" transform="rotate(180) translate(-30 -48)" onmousedown="handlePan(0,1)">
                  <use xlink:href="#rim" fill="#404040">
                        <set attributeName="fill" to="#808080" begin="arrowDown.mouseover" end="arrowDown.mouseout"/>
                  </use>
                  <path fill="none" stroke="white" stroke-width="1.5" d="M0,-3.0v7 M-2.5,-0.5L0,-3.0L2.5,-0.5"/>
                </g>
                <g id="arrowLeft" xlink:href="#dirArrow" transform="rotate(270) translate(-36 17)" onmousedown="handlePan(-1,0)">
                  <use xlink:href="#rim" fill="#404040">
                        <set attributeName="fill" to="#808080" begin="arrowLeft.mouseover" end="arrowLeft.mouseout"/>
                  </use>
                  <path fill="none" stroke="white" stroke-width="1.5" d="M0,-3.0v7 M-2.5,-0.5L0,-3.0L2.5,-0.5"/>
                </g>
        </g>
        <svg viewBox="0 0 15 15" width="100%" height="30px" preserveAspectRatio="xMaxYMin meet">
         <g id="arrow_out" transform="scale(0.3 0.3)">
          <a xlink:href="namespaceutils_a3b5f21e223fdb0898119de641a1685f6_icgraph_org.svg" target="_base">
           <rect id="button" ry="5" rx="5" y="6" x="6" height="38" width="38"
                fill="#f2f5e9" fill-opacity="0.5" stroke="#606060" stroke-width="1.0"/>
           <path id="arrow"
             d="M 11.500037,31.436501 C 11.940474,20.09759 22.043105,11.32322 32.158766,21.979434 L 37.068811,17.246167 C 37.068811,17.246167 37.088388,32 37.088388,32 L 22.160133,31.978069 C 22.160133,31.978069 26.997745,27.140456 26.997745,27.140456 C 18.528582,18.264221 13.291696,25.230495 11.500037,31.436501 z"
             style="fill:#404040;"/>
          </a>
         </g>
        </svg>
</svg>
