<?xml version="1.0" encoding="UTF-8" standalone="no"?>
<!DOCTYPE svg PUBLIC "-//W3C//DTD SVG 1.1//EN"
 "http://www.w3.org/Graphics/SVG/1.1/DTD/svg11.dtd">
<!-- Generated by graphviz version 2.40.1 (20161225.0304)
 -->
<!-- Title: utils::join Pages: 1 -->
<svg width="684pt" height="494pt"
 viewBox="0.00 0.00 684.00 494.00" xmlns="http://www.w3.org/2000/svg" xmlns:xlink="http://www.w3.org/1999/xlink">
<g id="graph0" class="graph" transform="scale(1 1) rotate(0) translate(4 490)">
<title>utils::join</title>
<polygon fill="#ffffff" stroke="transparent" points="-4,4 -4,-490 680,-490 680,4 -4,4"/>
<!-- Node5 -->
<g id="node1" class="node">
<title>Node5</title>
<polygon fill="#bfbfbf" stroke="#000000" points="0,-230.5 0,-249.5 56,-249.5 56,-230.5 0,-230.5"/>
<text text-anchor="middle" x="28" y="-237.5" font-family="Helvetica,sans-Serif" font-size="10.00" fill="#000000">utils::join</text>
</g>
<!-- Node6 -->
<g id="node2" class="node">
<title>Node6</title>
<g id="a_node2"><a xlink:href="classDataKeys.html#a03517cffe825c983c3582ffb55318a7b" target="_top" xlink:title="Check if this object has required key(s). ">
<polygon fill="#ffffff" stroke="#000000" points="92,-230.5 92,-249.5 192,-249.5 192,-230.5 92,-230.5"/>
<text text-anchor="middle" x="142" y="-237.5" font-family="Helvetica,sans-Serif" font-size="10.00" fill="#000000">DataKeys::required</text>
</a>
</g>
</g>
<!-- Node5&#45;&gt;Node6 -->
<g id="edge1" class="edge">
<title>Node5&#45;&gt;Node6</title>
<path fill="none" stroke="#191970" d="M66.2464,-240C74.4902,-240 83.323,-240 91.9409,-240"/>
<polygon fill="#191970" stroke="#191970" points="66.1798,-236.5001 56.1798,-240 66.1797,-243.5001 66.1798,-236.5001"/>
</g>
<!-- Node7 -->
<g id="node3" class="node">
<title>Node7</title>
<g id="a_node3"><a xlink:href="classAddChildIDs.html#a44a0b778c9c4b17c9ce9051b990af73d" target="_top" xlink:title="Compute properties and add them to Element::data given as a mutable reference. ">
<polygon fill="#ffffff" stroke="#000000" points="241,-466.5 241,-485.5 378,-485.5 378,-466.5 241,-466.5"/>
<text text-anchor="middle" x="309.5" y="-473.5" font-family="Helvetica,sans-Serif" font-size="10.00" fill="#000000">AddChildIDs::compute_impl</text>
</a>
</g>
</g>
<!-- Node6&#45;&gt;Node7 -->
<g id="edge2" class="edge">
<title>Node6&#45;&gt;Node7</title>
<path fill="none" stroke="#191970" d="M143.791,-259.5255C148.7927,-302.2282 166.8479,-404.3045 228,-457 232.4025,-460.7937 237.4189,-463.8657 242.7499,-466.3489"/>
<polygon fill="#191970" stroke="#191970" points="147.2715,-259.155 142.7414,-249.5775 140.3101,-259.8896 147.2715,-259.155"/>
</g>
<!-- Node8 -->
<g id="node4" class="node">
<title>Node8</title>
<g id="a_node4"><a xlink:href="classAddChildPositions.html#ab200c619009c1db1deefb92c68010f9a" target="_top" xlink:title="Compute properties and add them to Element::data given as a mutable reference. ">
<polygon fill="#ffffff" stroke="#000000" points="258.5,-417 258.5,-447 360.5,-447 360.5,-417 258.5,-417"/>
<text text-anchor="start" x="266.5" y="-435" font-family="Helvetica,sans-Serif" font-size="10.00" fill="#000000">AddChildPositions::</text>
<text text-anchor="middle" x="309.5" y="-424" font-family="Helvetica,sans-Serif" font-size="10.00" fill="#000000">compute_impl</text>
</a>
</g>
</g>
<!-- Node6&#45;&gt;Node8 -->
<g id="edge3" class="edge">
<title>Node6&#45;&gt;Node8</title>
<path fill="none" stroke="#191970" d="M146.6646,-259.4341C156.0173,-294.212 180.3683,-367.1693 228,-407 236.6287,-414.2155 247.3171,-419.3502 258.0817,-423.0036"/>
<polygon fill="#191970" stroke="#191970" points="150.012,-258.3963 144.1446,-249.5745 143.23,-260.1298 150.012,-258.3963"/>
</g>
<!-- Node9 -->
<g id="node5" class="node">
<title>Node9</title>
<g id="a_node5"><a xlink:href="classAddCoMPosition.html#a8769c07c61840444ad80bf7e20acdbf2" target="_top" xlink:title="Compute properties and add them to Element::data given as a mutable reference. ">
<polygon fill="#ffffff" stroke="#000000" points="231.5,-378.5 231.5,-397.5 387.5,-397.5 387.5,-378.5 231.5,-378.5"/>
<text text-anchor="middle" x="309.5" y="-385.5" font-family="Helvetica,sans-Serif" font-size="10.00" fill="#000000">AddCoMPosition::compute_impl</text>
</a>
</g>
</g>
<!-- Node6&#45;&gt;Node9 -->
<g id="edge4" class="edge">
<title>Node6&#45;&gt;Node9</title>
<path fill="none" stroke="#191970" d="M149.3535,-259.2164C161.3182,-287.8006 187.7821,-341.1348 228,-369 233.6129,-372.8889 239.9119,-375.9903 246.4559,-378.4623"/>
<polygon fill="#191970" stroke="#191970" points="152.4563,-257.551 145.4793,-249.5778 145.9613,-260.1617 152.4563,-257.551"/>
</g>
<!-- Node10 -->
<g id="node6" class="node">
<title>Node10</title>
<g id="a_node6"><a xlink:href="classAddGyrationRadius.html#a53d9c62c9dbf976b815cb715a9f18a36" target="_top" xlink:title="Compute properties and add them to Element::data given as a mutable reference. ">
<polygon fill="#ffffff" stroke="#000000" points="256,-329 256,-359 363,-359 363,-329 256,-329"/>
<text text-anchor="start" x="264" y="-347" font-family="Helvetica,sans-Serif" font-size="10.00" fill="#000000">AddGyrationRadius::</text>
<text text-anchor="middle" x="309.5" y="-336" font-family="Helvetica,sans-Serif" font-size="10.00" fill="#000000">compute_impl</text>
</a>
</g>
</g>
<!-- Node6&#45;&gt;Node10 -->
<g id="edge5" class="edge">
<title>Node6&#45;&gt;Node10</title>
<path fill="none" stroke="#191970" d="M156.8726,-257.6721C172.7787,-275.5205 199.5798,-302.7157 228,-319 236.6037,-323.9298 246.2864,-327.9916 255.894,-331.302"/>
<polygon fill="#191970" stroke="#191970" points="159.1843,-254.9968 149.98,-249.7498 153.9032,-259.5915 159.1843,-254.9968"/>
</g>
<!-- Node11 -->
<g id="node7" class="node">
<title>Node11</title>
<g id="a_node7"><a xlink:href="classAddInertiaMoment.html#a50d3efa11e6c2a8d12c397224679d259" target="_top" xlink:title="Compute properties and add them to Element::data given as a mutable reference. ">
<polygon fill="#ffffff" stroke="#000000" points="228,-290.5 228,-309.5 391,-309.5 391,-290.5 228,-290.5"/>
<text text-anchor="middle" x="309.5" y="-297.5" font-family="Helvetica,sans-Serif" font-size="10.00" fill="#000000">AddInertiaMoment::compute_impl</text>
</a>
</g>
</g>
<!-- Node6&#45;&gt;Node11 -->
<g id="edge6" class="edge">
<title>Node6&#45;&gt;Node11</title>
<path fill="none" stroke="#191970" d="M168.4519,-254.4433C185.1472,-263.0939 207.3821,-273.7773 228,-281 238.4209,-284.6506 249.8374,-287.8082 260.7399,-290.4438"/>
<polygon fill="#191970" stroke="#191970" points="169.7944,-251.1944 159.3163,-249.6264 166.5296,-257.3864 169.7944,-251.1944"/>
</g>
<!-- Node12 -->
<g id="node8" class="node">
<title>Node12</title>
<g id="a_node8"><a xlink:href="classAddMap.html#a43e6a1d41af46c02ac2ad813075466cf" target="_top" xlink:title="Compute properties and add them to Element::data given as a mutable reference. ">
<polygon fill="#ffffff" stroke="#000000" points="250,-252.5 250,-271.5 369,-271.5 369,-252.5 250,-252.5"/>
<text text-anchor="middle" x="309.5" y="-259.5" font-family="Helvetica,sans-Serif" font-size="10.00" fill="#000000">AddMap::compute_impl</text>
</a>
</g>
</g>
<!-- Node6&#45;&gt;Node12 -->
<g id="edge7" class="edge">
<title>Node6&#45;&gt;Node12</title>
<path fill="none" stroke="#191970" d="M202.239,-247.912C217.7247,-249.9459 234.3774,-252.1332 249.834,-254.1633"/>
<polygon fill="#191970" stroke="#191970" points="202.6262,-244.4329 192.2555,-246.6007 201.7146,-251.3733 202.6262,-244.4329"/>
</g>
<!-- Node13 -->
<g id="node9" class="node">
<title>Node13</title>
<g id="a_node9"><a xlink:href="classAddMolecularOrientation.html#a886b802585d1dfa299dd9f42e3eef29e" target="_top" xlink:title="Compute properties and add them to Element::data given as a mutable reference. ">
<polygon fill="#ffffff" stroke="#000000" points="248,-203 248,-233 371,-233 371,-203 248,-203"/>
<text text-anchor="start" x="256" y="-221" font-family="Helvetica,sans-Serif" font-size="10.00" fill="#000000">AddMolecularOrientation</text>
<text text-anchor="middle" x="309.5" y="-210" font-family="Helvetica,sans-Serif" font-size="10.00" fill="#000000">::compute_impl</text>
</a>
</g>
</g>
<!-- Node6&#45;&gt;Node13 -->
<g id="edge8" class="edge">
<title>Node6&#45;&gt;Node13</title>
<path fill="none" stroke="#191970" d="M202.2861,-232.0818C217.0555,-230.142 232.8839,-228.063 247.7221,-226.1141"/>
<polygon fill="#191970" stroke="#191970" points="201.7146,-228.6267 192.2555,-233.3993 202.6262,-235.5671 201.7146,-228.6267"/>
</g>
<!-- Node14 -->
<g id="node10" class="node">
<title>Node14</title>
<g id="a_node10"><a xlink:href="classAddRename.html#a34e997ee2632a7ef703810ebfbf1aa8d" target="_top" xlink:title="Compute properties and add them to Element::data given as a mutable reference. ">
<polygon fill="#ffffff" stroke="#000000" points="241,-164.5 241,-183.5 378,-183.5 378,-164.5 241,-164.5"/>
<text text-anchor="middle" x="309.5" y="-171.5" font-family="Helvetica,sans-Serif" font-size="10.00" fill="#000000">AddRename::compute_impl</text>
</a>
</g>
</g>
<!-- Node6&#45;&gt;Node14 -->
<g id="edge9" class="edge">
<title>Node6&#45;&gt;Node14</title>
<path fill="none" stroke="#191970" d="M165.6192,-225.2815C182.483,-215.2992 205.9877,-202.4342 228,-194 238.7477,-189.8819 250.6233,-186.4009 261.9072,-183.5559"/>
<polygon fill="#191970" stroke="#191970" points="163.7439,-222.3251 156.9852,-230.4841 167.3568,-228.3207 163.7439,-222.3251"/>
</g>
<!-- Node15 -->
<g id="node11" class="node">
<title>Node15</title>
<g id="a_node11"><a xlink:href="classAddWrappedPosition.html#af5ea4e6203dc8db97b8a8f73b2d83822" target="_top" xlink:title="Compute properties and add them to Element::data given as a mutable reference. ">
<polygon fill="#ffffff" stroke="#000000" points="256,-115 256,-145 363,-145 363,-115 256,-115"/>
<text text-anchor="start" x="264" y="-133" font-family="Helvetica,sans-Serif" font-size="10.00" fill="#000000">AddWrappedPosition</text>
<text text-anchor="middle" x="309.5" y="-122" font-family="Helvetica,sans-Serif" font-size="10.00" fill="#000000">::compute_impl</text>
</a>
</g>
</g>
<!-- Node6&#45;&gt;Node15 -->
<g id="edge10" class="edge">
<title>Node6&#45;&gt;Node15</title>
<path fill="none" stroke="#191970" d="M155.4251,-222.3699C170.9266,-203.1734 198.1518,-172.8349 228,-155 236.5122,-149.9138 246.1513,-145.7775 255.7444,-142.4422"/>
<polygon fill="#191970" stroke="#191970" points="152.6002,-220.3 149.1605,-230.3209 158.0986,-224.6322 152.6002,-220.3"/>
</g>
<!-- Node16 -->
<g id="node12" class="node">
<title>Node16</title>
<g id="a_node12"><a xlink:href="classElement.html#a2dd2b3ed6f76878ae6cc1c1a36183517" target="_top" xlink:title="Wrapper for DataKeys::required. ">
<polygon fill="#ffffff" stroke="#000000" points="263,-76.5 263,-95.5 356,-95.5 356,-76.5 263,-76.5"/>
<text text-anchor="middle" x="309.5" y="-83.5" font-family="Helvetica,sans-Serif" font-size="10.00" fill="#000000">Element::required</text>
</a>
</g>
</g>
<!-- Node6&#45;&gt;Node16 -->
<g id="edge11" class="edge">
<title>Node6&#45;&gt;Node16</title>
<path fill="none" stroke="#191970" d="M148.8614,-220.9261C160.4461,-191.5334 186.7359,-135.4855 228,-106 238.1943,-98.7156 250.7369,-94.0683 262.8996,-91.1084"/>
<polygon fill="#191970" stroke="#191970" points="145.5231,-219.8589 145.2582,-230.4504 152.0703,-222.3358 145.5231,-219.8589"/>
</g>
<!-- Node22 -->
<g id="node18" class="node">
<title>Node22</title>
<g id="a_node18"><a xlink:href="classFilComparison.html#af7dc169cdedf15e6b8dc355cc973e90f" target="_top" xlink:title="Implementation of computation to update the data. ">
<polygon fill="#ffffff" stroke="#000000" points="236.5,-38.5 236.5,-57.5 382.5,-57.5 382.5,-38.5 236.5,-38.5"/>
<text text-anchor="middle" x="309.5" y="-45.5" font-family="Helvetica,sans-Serif" font-size="10.00" fill="#000000">FilComparison::compute_impl</text>
</a>
</g>
</g>
<!-- Node6&#45;&gt;Node22 -->
<g id="edge20" class="edge">
<title>Node6&#45;&gt;Node22</title>
<path fill="none" stroke="#191970" d="M145.951,-220.5305C154.3413,-184.3897 177.4599,-106.979 228,-67 232.8997,-63.1242 238.4528,-60.0143 244.3016,-57.5224"/>
<polygon fill="#191970" stroke="#191970" points="142.5243,-219.8175 143.8059,-230.3346 149.3625,-221.3138 142.5243,-219.8175"/>
</g>
<!-- Node23 -->
<g id="node19" class="node">
<title>Node23</title>
<g id="a_node19"><a xlink:href="classFilSet.html#a0335614b1856870777ab1af370406fd2" target="_top" xlink:title="Implementation of computation to update the data. ">
<polygon fill="#ffffff" stroke="#000000" points="255,-.5 255,-19.5 364,-19.5 364,-.5 255,-.5"/>
<text text-anchor="middle" x="309.5" y="-7.5" font-family="Helvetica,sans-Serif" font-size="10.00" fill="#000000">FilSet::compute_impl</text>
</a>
</g>
</g>
<!-- Node6&#45;&gt;Node23 -->
<g id="edge21" class="edge">
<title>Node6&#45;&gt;Node23</title>
<path fill="none" stroke="#191970" d="M144.0797,-220.1549C149.5833,-178.1188 168.4608,-79.8045 228,-29 235.6259,-22.4929 245.0617,-18.1132 254.7777,-15.1869"/>
<polygon fill="#191970" stroke="#191970" points="140.5884,-219.8743 142.8821,-230.2179 147.5394,-220.7016 140.5884,-219.8743"/>
</g>
<!-- Node17 -->
<g id="node13" class="node">
<title>Node17</title>
<g id="a_node13"><a xlink:href="classElement.html#a8257b02b1e3b208f193b35d5d47b9af8" target="_top" xlink:title="Wrapper for the array1d method for integer values. Can be called from Python as get_1d_int. ">
<polygon fill="#ffffff" stroke="#000000" points="431.5,-133.5 431.5,-152.5 550.5,-152.5 550.5,-133.5 431.5,-133.5"/>
<text text-anchor="middle" x="491" y="-140.5" font-family="Helvetica,sans-Serif" font-size="10.00" fill="#000000">Element::get_1d_int_py</text>
</a>
</g>
</g>
<!-- Node16&#45;&gt;Node17 -->
<g id="edge12" class="edge">
<title>Node16&#45;&gt;Node17</title>
<path fill="none" stroke="#191970" d="M366.0158,-98.1287C374.4832,-100.4452 383.0385,-103.0745 391,-106 407.7908,-112.17 410.3619,-117.4293 427,-124 435.8398,-127.491 445.583,-130.695 454.7439,-133.4376"/>
<polygon fill="#191970" stroke="#191970" points="366.7169,-94.6945 356.157,-95.5541 364.9481,-101.4674 366.7169,-94.6945"/>
</g>
<!-- Node19 -->
<g id="node15" class="node">
<title>Node19</title>
<g id="a_node15"><a xlink:href="classElement.html#a3f11848589faad4cbca8119385887713" target="_top" xlink:title="Wrapper for the array1d method for float (double in C++) values. Can be called from Python as get_1d_...">
<polygon fill="#ffffff" stroke="#000000" points="427,-95.5 427,-114.5 555,-114.5 555,-95.5 427,-95.5"/>
<text text-anchor="middle" x="491" y="-102.5" font-family="Helvetica,sans-Serif" font-size="10.00" fill="#000000">Element::get_1d_float_py</text>
</a>
</g>
</g>
<!-- Node16&#45;&gt;Node19 -->
<g id="edge14" class="edge">
<title>Node16&#45;&gt;Node19</title>
<path fill="none" stroke="#191970" d="M366.3606,-91.9523C385.602,-93.9666 407.217,-96.2293 426.976,-98.2978"/>
<polygon fill="#191970" stroke="#191970" points="366.5508,-88.4532 356.2408,-90.893 365.822,-95.4152 366.5508,-88.4532"/>
</g>
<!-- Node20 -->
<g id="node16" class="node">
<title>Node20</title>
<g id="a_node16"><a xlink:href="classElement.html#a8e8245fb94b6417e3e804e6bfdf2f906" target="_top" xlink:title="Wrapper for the array2d method for integer values. Can be called from Python as get_2d_int. ">
<polygon fill="#ffffff" stroke="#000000" points="431.5,-57.5 431.5,-76.5 550.5,-76.5 550.5,-57.5 431.5,-57.5"/>
<text text-anchor="middle" x="491" y="-64.5" font-family="Helvetica,sans-Serif" font-size="10.00" fill="#000000">Element::get_2d_int_py</text>
</a>
</g>
</g>
<!-- Node16&#45;&gt;Node20 -->
<g id="edge16" class="edge">
<title>Node16&#45;&gt;Node20</title>
<path fill="none" stroke="#191970" d="M366.4528,-80.038C387.111,-77.8754 410.4954,-75.4275 431.3777,-73.2415"/>
<polygon fill="#191970" stroke="#191970" points="365.822,-76.5848 356.2408,-81.107 366.5508,-83.5468 365.822,-76.5848"/>
</g>
<!-- Node21 -->
<g id="node17" class="node">
<title>Node21</title>
<g id="a_node17"><a xlink:href="classElement.html#a6a62280eadd3d4e6bfe8c43082797733" target="_top" xlink:title="Wrapper for the array2d method for float (double in C++) values. Can be called from Python as get_2d_...">
<polygon fill="#ffffff" stroke="#000000" points="427,-19.5 427,-38.5 555,-38.5 555,-19.5 427,-19.5"/>
<text text-anchor="middle" x="491" y="-26.5" font-family="Helvetica,sans-Serif" font-size="10.00" fill="#000000">Element::get_2d_float_py</text>
</a>
</g>
</g>
<!-- Node16&#45;&gt;Node21 -->
<g id="edge18" class="edge">
<title>Node16&#45;&gt;Node21</title>
<path fill="none" stroke="#191970" d="M366.0826,-74.7987C374.5408,-72.5541 383.0758,-69.9585 391,-67 407.9489,-60.672 410.247,-54.8298 427,-48 435.6936,-44.4559 445.293,-41.2523 454.3546,-38.5287"/>
<polygon fill="#191970" stroke="#191970" points="365.076,-71.4428 356.2298,-77.2733 366.7812,-78.2319 365.076,-71.4428"/>
</g>
<!-- Node18 -->
<g id="node14" class="node">
<title>Node18</title>
<g id="a_node14"><a xlink:href="pybind_2element_8h.html#a32471b3cace9ede01900bfbdaca5e16a" target="_top" xlink:title="Function to bind Element class to Python. ">
<polygon fill="#ffffff" stroke="#000000" points="591,-76.5 591,-95.5 676,-95.5 676,-76.5 591,-76.5"/>
<text text-anchor="middle" x="633.5" y="-83.5" font-family="Helvetica,sans-Serif" font-size="10.00" fill="#000000">pybind_element</text>
</a>
</g>
</g>
<!-- Node17&#45;&gt;Node18 -->
<g id="edge13" class="edge">
<title>Node17&#45;&gt;Node18</title>
<path fill="none" stroke="#191970" d="M536.5966,-130.4556C542.8345,-128.4518 549.1134,-126.2812 555,-124 576.4597,-115.6838 600.1103,-103.8466 615.7848,-95.6014"/>
<polygon fill="#191970" stroke="#191970" points="535.4089,-127.1593 526.8904,-133.4591 537.4782,-133.8465 535.4089,-127.1593"/>
</g>
<!-- Node19&#45;&gt;Node18 -->
<g id="edge15" class="edge">
<title>Node19&#45;&gt;Node18</title>
<path fill="none" stroke="#191970" d="M565.1344,-95.1154C573.9695,-93.9374 582.7453,-92.7673 590.9172,-91.6777"/>
<polygon fill="#191970" stroke="#191970" points="564.6129,-91.6539 555.1633,-96.4449 565.5381,-98.5925 564.6129,-91.6539"/>
</g>
<!-- Node20&#45;&gt;Node18 -->
<g id="edge17" class="edge">
<title>Node20&#45;&gt;Node18</title>
<path fill="none" stroke="#191970" d="M560.7498,-76.3C570.9369,-77.6583 581.1649,-79.022 590.6004,-80.2801"/>
<polygon fill="#191970" stroke="#191970" points="560.982,-72.8 550.6072,-74.9476 560.0568,-79.7386 560.982,-72.8"/>
</g>
<!-- Node21&#45;&gt;Node18 -->
<g id="edge19" class="edge">
<title>Node21&#45;&gt;Node18</title>
<path fill="none" stroke="#191970" d="M536.5966,-41.5444C542.8345,-43.5482 549.1134,-45.7188 555,-48 576.4597,-56.3162 600.1103,-68.1534 615.7848,-76.3986"/>
<polygon fill="#191970" stroke="#191970" points="537.4782,-38.1535 526.8904,-38.5409 535.4089,-44.8407 537.4782,-38.1535"/>
</g>
</g>
</svg>
