<?xml version="1.0" encoding="UTF-8" standalone="no"?>
<!DOCTYPE svg PUBLIC "-//W3C//DTD SVG 1.1//EN"
 "http://www.w3.org/Graphics/SVG/1.1/DTD/svg11.dtd">
<!-- Generated by graphviz version 2.40.1 (20161225.0304)
 -->
<!-- Title: pybind::py_pro_distance_in_molecule Pages: 1 -->
<svg width="283pt" height="186pt"
 viewBox="0.00 0.00 283.00 186.00" xmlns="http://www.w3.org/2000/svg" xmlns:xlink="http://www.w3.org/1999/xlink">
<g id="graph0" class="graph" transform="scale(1 1) rotate(0) translate(4 182)">
<title>pybind::py_pro_distance_in_molecule</title>
<polygon fill="#ffffff" stroke="transparent" points="-4,4 -4,-182 279,-182 279,4 -4,4"/>
<!-- Node89 -->
<g id="node1" class="node">
<title>Node89</title>
<polygon fill="#bfbfbf" stroke="#000000" points="0,-73.5 0,-103.5 122,-103.5 122,-73.5 0,-73.5"/>
<text text-anchor="start" x="8" y="-91.5" font-family="Helvetica,sans-Serif" font-size="10.00" fill="#000000">pybind::py_pro_distance</text>
<text text-anchor="middle" x="61" y="-80.5" font-family="Helvetica,sans-Serif" font-size="10.00" fill="#000000">_in_molecule</text>
</g>
<!-- Node90 -->
<g id="node2" class="node">
<title>Node90</title>
<g id="a_node2"><a xlink:href="classProDistanceInMolecule.html#a06d5c42a8721a818fd6200b5bd6c58d6" target="_top" xlink:title="Specify two atoms in a molecule by zero&#45;based index. Distance between the two atoms is computed for e...">
<polygon fill="#ffffff" stroke="#000000" points="158,-147.5 158,-177.5 275,-177.5 275,-147.5 158,-147.5"/>
<text text-anchor="start" x="166" y="-165.5" font-family="Helvetica,sans-Serif" font-size="10.00" fill="#000000">ProDistanceInMolecule</text>
<text text-anchor="middle" x="216.5" y="-154.5" font-family="Helvetica,sans-Serif" font-size="10.00" fill="#000000">::set_indices</text>
</a>
</g>
</g>
<!-- Node89&#45;&gt;Node90 -->
<g id="edge1" class="edge">
<title>Node89&#45;&gt;Node90</title>
<path fill="none" stroke="#191970" d="M88.6986,-103.5894C107.9309,-113.8653 134.2635,-127.5383 158,-138.5 161.5972,-140.1612 165.343,-141.8311 169.1239,-143.4741"/>
<polygon fill="#191970" stroke="#191970" points="167.9584,-146.782 178.53,-147.4829 170.7029,-140.3424 167.9584,-146.782"/>
</g>
<!-- Node91 -->
<g id="node3" class="node">
<title>Node91</title>
<g id="a_node3"><a xlink:href="classProDistanceInMolecule.html#a923e3aea3e771534f4066ee16a3805ee" target="_top" xlink:title="Specify a molecular type. Only molecules whose type property is the specified type are analyzed...">
<polygon fill="#ffffff" stroke="#000000" points="158,-98.5 158,-128.5 275,-128.5 275,-98.5 158,-98.5"/>
<text text-anchor="start" x="166" y="-116.5" font-family="Helvetica,sans-Serif" font-size="10.00" fill="#000000">ProDistanceInMolecule</text>
<text text-anchor="middle" x="216.5" y="-105.5" font-family="Helvetica,sans-Serif" font-size="10.00" fill="#000000">::set_moltype</text>
</a>
</g>
</g>
<!-- Node89&#45;&gt;Node91 -->
<g id="edge2" class="edge">
<title>Node89&#45;&gt;Node91</title>
<path fill="none" stroke="#191970" d="M122.0114,-98.3089C130.5121,-99.6756 139.293,-101.0873 147.9211,-102.4745"/>
<polygon fill="#191970" stroke="#191970" points="147.5248,-105.9556 157.9536,-104.0874 148.636,-99.0444 147.5248,-105.9556"/>
</g>
<!-- Node92 -->
<g id="node4" class="node">
<title>Node92</title>
<g id="a_node4"><a xlink:href="classProDistanceInMolecule.html#a58a8da153bf301183340caca73ca7cec" target="_top" xlink:title="Get computed distances between two atoms in each molecule as a two&#45;dimensional array: each row corres...">
<polygon fill="#ffffff" stroke="#000000" points="158,-49.5 158,-79.5 275,-79.5 275,-49.5 158,-49.5"/>
<text text-anchor="start" x="166" y="-67.5" font-family="Helvetica,sans-Serif" font-size="10.00" fill="#000000">ProDistanceInMolecule</text>
<text text-anchor="middle" x="216.5" y="-56.5" font-family="Helvetica,sans-Serif" font-size="10.00" fill="#000000">::get_distance_array</text>
</a>
</g>
</g>
<!-- Node89&#45;&gt;Node92 -->
<g id="edge3" class="edge">
<title>Node89&#45;&gt;Node92</title>
<path fill="none" stroke="#191970" d="M122.0114,-79.0834C130.5121,-77.7714 139.293,-76.4162 147.9211,-75.0845"/>
<polygon fill="#191970" stroke="#191970" points="148.6045,-78.5206 157.9536,-73.5361 147.5367,-71.6025 148.6045,-78.5206"/>
</g>
<!-- Node93 -->
<g id="node5" class="node">
<title>Node93</title>
<g id="a_node5"><a xlink:href="classProDistanceInMolecule.html#a3a4be653186e429e08b9154fe41297ff" target="_top" xlink:title="Get computed squared distances between two atoms in each molecule as a two&#45;dimensional array: each ro...">
<polygon fill="#ffffff" stroke="#000000" points="158,-.5 158,-30.5 275,-30.5 275,-.5 158,-.5"/>
<text text-anchor="start" x="166" y="-18.5" font-family="Helvetica,sans-Serif" font-size="10.00" fill="#000000">ProDistanceInMolecule</text>
<text text-anchor="middle" x="216.5" y="-7.5" font-family="Helvetica,sans-Serif" font-size="10.00" fill="#000000">::get_distance2_array</text>
</a>
</g>
</g>
<!-- Node89&#45;&gt;Node93 -->
<g id="edge4" class="edge">
<title>Node89&#45;&gt;Node93</title>
<path fill="none" stroke="#191970" d="M90.5116,-73.3638C109.6273,-63.692 135.1321,-51.0345 158,-40.5 162.2885,-38.5244 166.776,-36.5115 171.2766,-34.5288"/>
<polygon fill="#191970" stroke="#191970" points="172.7028,-37.7253 180.4732,-30.5232 169.9074,-31.3076 172.7028,-37.7253"/>
</g>
</g>
</svg>
