<?xml version="1.0" encoding="UTF-8" standalone="no"?>
<!DOCTYPE svg PUBLIC "-//W3C//DTD SVG 1.1//EN"
 "http://www.w3.org/Graphics/SVG/1.1/DTD/svg11.dtd">
<!-- Generated by graphviz version 2.40.1 (20161225.0304)
 -->
<!-- Title: utils::_message Pages: 1 -->
<svg width="385pt" height="127pt"
 viewBox="0.00 0.00 385.00 126.50" xmlns="http://www.w3.org/2000/svg" xmlns:xlink="http://www.w3.org/1999/xlink">
<g id="graph0" class="graph" transform="scale(1 1) rotate(0) translate(4 122.5)">
<title>utils::_message</title>
<polygon fill="#ffffff" stroke="transparent" points="-4,4 -4,-122.5 381,-122.5 381,4 -4,4"/>
<!-- Node1 -->
<g id="node1" class="node">
<title>Node1</title>
<polygon fill="#bfbfbf" stroke="#000000" points="0,-55 0,-74 86,-74 86,-55 0,-55"/>
<text text-anchor="middle" x="43" y="-62" font-family="Helvetica,sans-Serif" font-size="10.00" fill="#000000">utils::_message</text>
</g>
<!-- Node2 -->
<g id="node2" class="node">
<title>Node2</title>
<g id="a_node2"><a xlink:href="namespaceutils.html#a362e3ea9867513a7bba06b6382d6527b" target="_top" xlink:title="Waning with a message. ">
<polygon fill="#ffffff" stroke="#000000" points="122,-55 122,-74 196,-74 196,-55 122,-55"/>
<text text-anchor="middle" x="159" y="-62" font-family="Helvetica,sans-Serif" font-size="10.00" fill="#000000">utils::warning</text>
</a>
</g>
</g>
<!-- Node1&#45;&gt;Node2 -->
<g id="edge1" class="edge">
<title>Node1&#45;&gt;Node2</title>
<path fill="none" stroke="#191970" d="M96.2444,-64.5C104.9012,-64.5 113.7003,-64.5 121.8632,-64.5"/>
<polygon fill="#191970" stroke="#191970" points="96.1942,-61.0001 86.1941,-64.5 96.1941,-68.0001 96.1942,-61.0001"/>
</g>
<!-- Node3 -->
<g id="node3" class="node">
<title>Node3</title>
<g id="a_node3"><a xlink:href="classFilter.html#acd658aa335c8b5215242737aabcf5155" target="_top" xlink:title="Filter elements from array Element::data given as a mutable reference. ">
<polygon fill="#ffffff" stroke="#000000" points="263.5,-99 263.5,-118 345.5,-118 345.5,-99 263.5,-99"/>
<text text-anchor="middle" x="304.5" y="-106" font-family="Helvetica,sans-Serif" font-size="10.00" fill="#000000">Filter::compute</text>
</a>
</g>
</g>
<!-- Node2&#45;&gt;Node3 -->
<g id="edge2" class="edge">
<title>Node2&#45;&gt;Node3</title>
<path fill="none" stroke="#191970" d="M195.0203,-77.4238C206.7527,-81.4753 219.8766,-85.8409 232,-89.5 242.962,-92.8086 254.9545,-96.0876 265.9738,-98.9665"/>
<polygon fill="#191970" stroke="#191970" points="196.1397,-74.1075 185.5449,-74.1169 193.8331,-80.7166 196.1397,-74.1075"/>
</g>
<!-- Node4 -->
<g id="node4" class="node">
<title>Node4</title>
<g id="a_node4"><a xlink:href="classProRadialDistributionFunction.html#ab57365923a1645429f9c471df2f84c84" target="_top" xlink:title="Implementation of analysis using an element of generators. ">
<polygon fill="#ffffff" stroke="#000000" points="232,-49.5 232,-79.5 377,-79.5 377,-49.5 232,-49.5"/>
<text text-anchor="start" x="240" y="-67.5" font-family="Helvetica,sans-Serif" font-size="10.00" fill="#000000">ProRadialDistributionFunction</text>
<text text-anchor="middle" x="304.5" y="-56.5" font-family="Helvetica,sans-Serif" font-size="10.00" fill="#000000">::run_impl</text>
</a>
</g>
</g>
<!-- Node2&#45;&gt;Node4 -->
<g id="edge3" class="edge">
<title>Node2&#45;&gt;Node4</title>
<path fill="none" stroke="#191970" d="M206.1813,-64.5C214.3858,-64.5 223.0874,-64.5 231.7883,-64.5"/>
<polygon fill="#191970" stroke="#191970" points="206.0923,-61.0001 196.0923,-64.5 206.0922,-68.0001 206.0923,-61.0001"/>
</g>
<!-- Node5 -->
<g id="node5" class="node">
<title>Node5</title>
<g id="a_node5"><a xlink:href="classProRadialDistributionFunctionWithDeformation.html#a30f40581903736b31e5d242ae499c32f" target="_top" xlink:title="Implementation of analysis using an element of generators. ">
<polygon fill="#ffffff" stroke="#000000" points="232,-.5 232,-30.5 377,-30.5 377,-.5 232,-.5"/>
<text text-anchor="start" x="240" y="-18.5" font-family="Helvetica,sans-Serif" font-size="10.00" fill="#000000">ProRadialDistributionFunction</text>
<text text-anchor="middle" x="304.5" y="-7.5" font-family="Helvetica,sans-Serif" font-size="10.00" fill="#000000">WithDeformation::run_impl</text>
</a>
</g>
</g>
<!-- Node2&#45;&gt;Node5 -->
<g id="edge4" class="edge">
<title>Node2&#45;&gt;Node5</title>
<path fill="none" stroke="#191970" d="M197.0359,-51.6907C216.2787,-45.2103 239.754,-37.3045 259.8494,-30.537"/>
<polygon fill="#191970" stroke="#191970" points="195.7592,-48.4274 187.3993,-54.936 197.9934,-55.0613 195.7592,-48.4274"/>
</g>
</g>
</svg>
