<?xml version="1.0" encoding="UTF-8" standalone="no"?>
<!DOCTYPE svg PUBLIC "-//W3C//DTD SVG 1.1//EN"
 "http://www.w3.org/Graphics/SVG/1.1/DTD/svg11.dtd">
<!-- Generated by graphviz version 2.40.1 (20161225.0304)
 -->
<!-- Title: utils::join Pages: 1 -->
<svg width="666pt" height="142pt"
 viewBox="0.00 0.00 666.00 142.00" xmlns="http://www.w3.org/2000/svg" xmlns:xlink="http://www.w3.org/1999/xlink">
<g id="graph0" class="graph" transform="scale(1 1) rotate(0) translate(4 138)">
<title>utils::join</title>
<polygon fill="#ffffff" stroke="transparent" points="-4,4 -4,-138 662,-138 662,4 -4,4"/>
<!-- Node7 -->
<g id="node1" class="node">
<title>Node7</title>
<polygon fill="#bfbfbf" stroke="#000000" points="0,-57.5 0,-76.5 56,-76.5 56,-57.5 0,-57.5"/>
<text text-anchor="middle" x="28" y="-64.5" font-family="Helvetica,sans-Serif" font-size="10.00" fill="#000000">utils::join</text>
</g>
<!-- Node8 -->
<g id="node2" class="node">
<title>Node8</title>
<g id="a_node2"><a xlink:href="classElement.html#af851a0ffe85ec6c9b88dac84dbe5f4f2" target="_top" xlink:title="Check if this object has required key(s). ">
<polygon fill="#ffffff" stroke="#000000" points="92,-57.5 92,-76.5 211,-76.5 211,-57.5 92,-57.5"/>
<text text-anchor="middle" x="151.5" y="-64.5" font-family="Helvetica,sans-Serif" font-size="10.00" fill="#000000">Element::required_keys</text>
</a>
</g>
</g>
<!-- Node7&#45;&gt;Node8 -->
<g id="edge1" class="edge">
<title>Node7&#45;&gt;Node8</title>
<path fill="none" stroke="#191970" d="M66.264,-67C74.3759,-67 83.1233,-67 91.816,-67"/>
<polygon fill="#191970" stroke="#191970" points="66.0241,-63.5001 56.0241,-67 66.024,-70.5001 66.0241,-63.5001"/>
</g>
<!-- Node9 -->
<g id="node3" class="node">
<title>Node9</title>
<g id="a_node3"><a xlink:href="classElement.html#a8257b02b1e3b208f193b35d5d47b9af8" target="_top" xlink:title="Get integer values stored in Element::data of this object as a one&#45;dimensional Numpy&#45;Array. ">
<polygon fill="#ffffff" stroke="#000000" points="251.5,-114.5 251.5,-133.5 370.5,-133.5 370.5,-114.5 251.5,-114.5"/>
<text text-anchor="middle" x="311" y="-121.5" font-family="Helvetica,sans-Serif" font-size="10.00" fill="#000000">Element::get_1d_int_py</text>
</a>
</g>
</g>
<!-- Node8&#45;&gt;Node9 -->
<g id="edge2" class="edge">
<title>Node8&#45;&gt;Node9</title>
<path fill="none" stroke="#191970" d="M183.4338,-80.5425C201.8615,-88.1463 225.5625,-97.5698 247,-105 256.5276,-108.3023 266.971,-111.5544 276.6074,-114.4091"/>
<polygon fill="#191970" stroke="#191970" points="184.6302,-77.2495 174.0528,-76.6413 181.9422,-83.7129 184.6302,-77.2495"/>
</g>
<!-- Node12 -->
<g id="node6" class="node">
<title>Node12</title>
<g id="a_node6"><a xlink:href="classElement.html#a3f11848589faad4cbca8119385887713" target="_top" xlink:title="Get float values stored in Element::data of this object as a one&#45;dimensional Numpy&#45;Array. ">
<polygon fill="#ffffff" stroke="#000000" points="247,-76.5 247,-95.5 375,-95.5 375,-76.5 247,-76.5"/>
<text text-anchor="middle" x="311" y="-83.5" font-family="Helvetica,sans-Serif" font-size="10.00" fill="#000000">Element::get_1d_float_py</text>
</a>
</g>
</g>
<!-- Node8&#45;&gt;Node12 -->
<g id="edge5" class="edge">
<title>Node8&#45;&gt;Node12</title>
<path fill="none" stroke="#191970" d="M221.5119,-75.34C229.9271,-76.3424 238.4891,-77.3623 246.8156,-78.3542"/>
<polygon fill="#191970" stroke="#191970" points="221.6895,-71.8365 211.3457,-74.129 220.8615,-78.7873 221.6895,-71.8365"/>
</g>
<!-- Node13 -->
<g id="node7" class="node">
<title>Node13</title>
<g id="a_node7"><a xlink:href="classElement.html#a8e8245fb94b6417e3e804e6bfdf2f906" target="_top" xlink:title="Get integer values stored in Element::data of this object as a two&#45;dimensional Numpy&#45;Array. ">
<polygon fill="#ffffff" stroke="#000000" points="251.5,-38.5 251.5,-57.5 370.5,-57.5 370.5,-38.5 251.5,-38.5"/>
<text text-anchor="middle" x="311" y="-45.5" font-family="Helvetica,sans-Serif" font-size="10.00" fill="#000000">Element::get_2d_int_py</text>
</a>
</g>
</g>
<!-- Node8&#45;&gt;Node13 -->
<g id="edge7" class="edge">
<title>Node8&#45;&gt;Node13</title>
<path fill="none" stroke="#191970" d="M221.2768,-58.688C231.3032,-57.4937 241.5431,-56.2739 251.3494,-55.1057"/>
<polygon fill="#191970" stroke="#191970" points="220.8615,-55.2127 211.3457,-59.871 221.6895,-62.1635 220.8615,-55.2127"/>
</g>
<!-- Node14 -->
<g id="node8" class="node">
<title>Node14</title>
<g id="a_node8"><a xlink:href="classElement.html#a6a62280eadd3d4e6bfe8c43082797733" target="_top" xlink:title="Get float values stored in Element::data of this object as a two&#45;dimensional Numpy&#45;Array. ">
<polygon fill="#ffffff" stroke="#000000" points="247,-.5 247,-19.5 375,-19.5 375,-.5 247,-.5"/>
<text text-anchor="middle" x="311" y="-7.5" font-family="Helvetica,sans-Serif" font-size="10.00" fill="#000000">Element::get_2d_float_py</text>
</a>
</g>
</g>
<!-- Node8&#45;&gt;Node14 -->
<g id="edge9" class="edge">
<title>Node8&#45;&gt;Node14</title>
<path fill="none" stroke="#191970" d="M183.4338,-53.4575C201.8615,-45.8537 225.5625,-36.4302 247,-29 256.5276,-25.6977 266.971,-22.4456 276.6074,-19.5909"/>
<polygon fill="#191970" stroke="#191970" points="181.9422,-50.2871 174.0528,-57.3587 184.6302,-56.7505 181.9422,-50.2871"/>
</g>
<!-- Node10 -->
<g id="node4" class="node">
<title>Node10</title>
<g id="a_node4"><a xlink:href="namespacepybind.html#aa960fe0db10e19d7b7b60784a7e81be0" target="_top" xlink:title="Bind Element class to Python. ">
<polygon fill="#ffffff" stroke="#000000" points="411,-57.5 411,-76.5 512,-76.5 512,-57.5 411,-57.5"/>
<text text-anchor="middle" x="461.5" y="-64.5" font-family="Helvetica,sans-Serif" font-size="10.00" fill="#000000">pybind::py_element</text>
</a>
</g>
</g>
<!-- Node9&#45;&gt;Node10 -->
<g id="edge3" class="edge">
<title>Node9&#45;&gt;Node10</title>
<path fill="none" stroke="#191970" d="M356.0686,-111.3954C362.4658,-109.3818 368.9295,-107.2246 375,-105 398.2556,-96.4779 424.1716,-84.7884 441.5185,-76.6331"/>
<polygon fill="#191970" stroke="#191970" points="354.6771,-108.1607 346.1364,-114.4304 356.7228,-114.8552 354.6771,-108.1607"/>
</g>
<!-- Node11 -->
<g id="node5" class="node">
<title>Node11</title>
<g id="a_node5"><a xlink:href="pybind_8h.html#a4714c4a855ebb82892410d5254e9ccdc" target="_top" xlink:title="Macro for generating Python module named _ppap4lmp. ">
<polygon fill="#ffffff" stroke="#000000" points="548,-57.5 548,-76.5 658,-76.5 658,-57.5 548,-57.5"/>
<text text-anchor="middle" x="603" y="-64.5" font-family="Helvetica,sans-Serif" font-size="10.00" fill="#000000">PYBIND11_MODULE</text>
</a>
</g>
</g>
<!-- Node10&#45;&gt;Node11 -->
<g id="edge4" class="edge">
<title>Node10&#45;&gt;Node11</title>
<path fill="none" stroke="#191970" d="M522.3877,-67C530.8576,-67 539.5199,-67 547.8761,-67"/>
<polygon fill="#191970" stroke="#191970" points="522.1851,-63.5001 512.1851,-67 522.185,-70.5001 522.1851,-63.5001"/>
</g>
<!-- Node12&#45;&gt;Node10 -->
<g id="edge6" class="edge">
<title>Node12&#45;&gt;Node10</title>
<path fill="none" stroke="#191970" d="M385.2998,-76.62C393.8797,-75.5368 402.4761,-74.4515 410.6427,-73.4205"/>
<polygon fill="#191970" stroke="#191970" points="384.7449,-73.1621 375.2621,-77.8872 385.6218,-80.107 384.7449,-73.1621"/>
</g>
<!-- Node13&#45;&gt;Node10 -->
<g id="edge8" class="edge">
<title>Node13&#45;&gt;Node10</title>
<path fill="none" stroke="#191970" d="M380.971,-56.8336C391.0981,-58.1121 401.3533,-59.4067 410.9981,-60.6243"/>
<polygon fill="#191970" stroke="#191970" points="381.2737,-53.3441 370.914,-55.5639 380.3969,-60.2889 381.2737,-53.3441"/>
</g>
<!-- Node14&#45;&gt;Node10 -->
<g id="edge10" class="edge">
<title>Node14&#45;&gt;Node10</title>
<path fill="none" stroke="#191970" d="M356.0686,-22.6046C362.4658,-24.6182 368.9295,-26.7754 375,-29 398.2556,-37.5221 424.1716,-49.2116 441.5185,-57.3669"/>
<polygon fill="#191970" stroke="#191970" points="356.7228,-19.1448 346.1364,-19.5696 354.6771,-25.8393 356.7228,-19.1448"/>
</g>
</g>
</svg>
