<?xml version="1.0" encoding="UTF-8" standalone="no"?>
<!DOCTYPE svg PUBLIC "-//W3C//DTD SVG 1.1//EN"
 "http://www.w3.org/Graphics/SVG/1.1/DTD/svg11.dtd">
<!-- Generated by graphviz version 2.40.1 (20161225.0304)
 -->
<!-- Title: pybind::py_pro_radial_distribution_function_with_deformation Pages: 1 -->
<svg width="332pt" height="269pt"
 viewBox="0.00 0.00 332.00 268.50" xmlns="http://www.w3.org/2000/svg" xmlns:xlink="http://www.w3.org/1999/xlink">
<g id="graph0" class="graph" transform="scale(1 1) rotate(0) translate(4 264.5)">
<title>pybind::py_pro_radial_distribution_function_with_deformation</title>
<polygon fill="#ffffff" stroke="transparent" points="-4,4 -4,-264.5 328,-264.5 328,4 -4,4"/>
<!-- Node106 -->
<g id="node1" class="node">
<title>Node106</title>
<polygon fill="#bfbfbf" stroke="#000000" points="0,-120.5 0,-161.5 109,-161.5 109,-120.5 0,-120.5"/>
<text text-anchor="start" x="8" y="-149.5" font-family="Helvetica,sans-Serif" font-size="10.00" fill="#000000">pybind::py_pro_radial</text>
<text text-anchor="start" x="8" y="-138.5" font-family="Helvetica,sans-Serif" font-size="10.00" fill="#000000">_distribution_function</text>
<text text-anchor="middle" x="54.5" y="-127.5" font-family="Helvetica,sans-Serif" font-size="10.00" fill="#000000">_with_deformation</text>
</g>
<!-- Node107 -->
<g id="node2" class="node">
<title>Node107</title>
<g id="a_node2"><a xlink:href="classProRadialDistributionFunctionWithDeformation.html#a047e4e349a5da8c6fb5b3ed16ed0356f" target="_top" xlink:title="Set margin for distance from a reference particle: this program uses a sample including particles of ...">
<polygon fill="#ffffff" stroke="#000000" points="162,-230 162,-260 307,-260 307,-230 162,-230"/>
<text text-anchor="start" x="170" y="-248" font-family="Helvetica,sans-Serif" font-size="10.00" fill="#000000">ProRadialDistributionFunction</text>
<text text-anchor="middle" x="234.5" y="-237" font-family="Helvetica,sans-Serif" font-size="10.00" fill="#000000">WithDeformation::set_margin</text>
</a>
</g>
</g>
<!-- Node106&#45;&gt;Node107 -->
<g id="edge1" class="edge">
<title>Node106&#45;&gt;Node107</title>
<path fill="none" stroke="#191970" d="M72.6031,-161.7017C89.5792,-179.8716 116.5503,-205.7176 145,-221 148.4876,-222.8735 152.1318,-224.6085 155.8701,-226.2144"/>
<polygon fill="#191970" stroke="#191970" points="154.7346,-229.529 165.3213,-229.9457 157.3052,-223.018 154.7346,-229.529"/>
</g>
<!-- Node108 -->
<g id="node3" class="node">
<title>Node108</title>
<g id="a_node3"><a xlink:href="classProRadialDistributionFunctionWithDeformation.html#a00104f1df10a112305964375dcde3fcf" target="_top" xlink:title="Get averaged gyration radius as function of distance from a reference particle. The returned value is...">
<polygon fill="#ffffff" stroke="#000000" points="145,-181 145,-211 324,-211 324,-181 145,-181"/>
<text text-anchor="start" x="153" y="-199" font-family="Helvetica,sans-Serif" font-size="10.00" fill="#000000">ProRadialDistributionFunction</text>
<text text-anchor="middle" x="234.5" y="-188" font-family="Helvetica,sans-Serif" font-size="10.00" fill="#000000">WithDeformation::get_gyration_radius</text>
</a>
</g>
</g>
<!-- Node106&#45;&gt;Node108 -->
<g id="edge2" class="edge">
<title>Node106&#45;&gt;Node108</title>
<path fill="none" stroke="#191970" d="M109.4031,-159.6654C121.1181,-163.5174 133.443,-167.4726 145,-171 152.7887,-173.3773 160.9854,-175.789 169.1266,-178.1292"/>
<polygon fill="#191970" stroke="#191970" points="168.4219,-181.5676 178.9982,-180.9411 170.3396,-174.8354 168.4219,-181.5676"/>
</g>
<!-- Node109 -->
<g id="node4" class="node">
<title>Node109</title>
<g id="a_node4"><a xlink:href="classProRadialDistributionFunctionWithDeformation.html#af0e532305e6862744185faa64fbcbb6b" target="_top" xlink:title="Get list of temporary gyration radius as function of distance from a reference particle. The returned value is dictionary of which keys are isotropic, parallel and perpendicular, and corresponding values are lists of functions for general gyration radius, gyration radius in the particle&#45;to&#45;particle axis and gyration radius around the particle&#45;to&#45;particle axis, respectively. Each element of the lists corresponds to each snapshot of the simulation. ">
<polygon fill="#ffffff" stroke="#000000" points="160.5,-120.5 160.5,-161.5 308.5,-161.5 308.5,-120.5 160.5,-120.5"/>
<text text-anchor="start" x="168.5" y="-149.5" font-family="Helvetica,sans-Serif" font-size="10.00" fill="#000000">ProRadialDistributionFunction</text>
<text text-anchor="start" x="168.5" y="-138.5" font-family="Helvetica,sans-Serif" font-size="10.00" fill="#000000">WithDeformation::get_gyration</text>
<text text-anchor="middle" x="234.5" y="-127.5" font-family="Helvetica,sans-Serif" font-size="10.00" fill="#000000">_radius_traj</text>
</a>
</g>
</g>
<!-- Node106&#45;&gt;Node109 -->
<g id="edge3" class="edge">
<title>Node106&#45;&gt;Node109</title>
<path fill="none" stroke="#191970" d="M109.484,-141C122.3792,-141 136.4107,-141 150.2596,-141"/>
<polygon fill="#191970" stroke="#191970" points="150.2926,-144.5001 160.2926,-141 150.2926,-137.5001 150.2926,-144.5001"/>
</g>
<!-- Node110 -->
<g id="node5" class="node">
<title>Node110</title>
<g id="a_node5"><a xlink:href="classProRadialDistributionFunctionWithDeformation.html#a119eb9ea698ce90829fd2e0ab199d4fd" target="_top" xlink:title="Get averaged square of gyration radius as function of distance from a reference particle. The returned value is dictionary of which keys are isotropic, parallel and perpendicular, and corresponding values are function for general gyration radius, gyration radius in the particle&#45;to&#45;particle axis and gyration radius around the particle&#45;to&#45;particle axis, respectively. ">
<polygon fill="#ffffff" stroke="#000000" points="160.5,-60.5 160.5,-101.5 308.5,-101.5 308.5,-60.5 160.5,-60.5"/>
<text text-anchor="start" x="168.5" y="-89.5" font-family="Helvetica,sans-Serif" font-size="10.00" fill="#000000">ProRadialDistributionFunction</text>
<text text-anchor="start" x="168.5" y="-78.5" font-family="Helvetica,sans-Serif" font-size="10.00" fill="#000000">WithDeformation::get_squared</text>
<text text-anchor="middle" x="234.5" y="-67.5" font-family="Helvetica,sans-Serif" font-size="10.00" fill="#000000">_gyration_radius</text>
</a>
</g>
</g>
<!-- Node106&#45;&gt;Node110 -->
<g id="edge4" class="edge">
<title>Node106&#45;&gt;Node110</title>
<path fill="none" stroke="#191970" d="M109.484,-122.672C126.4073,-117.0309 145.2876,-110.7375 163.1439,-104.7854"/>
<polygon fill="#191970" stroke="#191970" points="164.5597,-108.0028 172.9397,-101.5201 162.3461,-101.362 164.5597,-108.0028"/>
</g>
<!-- Node111 -->
<g id="node6" class="node">
<title>Node111</title>
<g id="a_node6"><a xlink:href="classProRadialDistributionFunctionWithDeformation.html#ad2105ca9bfcc3626bf8ecaa3b499cc6e" target="_top" xlink:title="Get list of temporary square of gyration radius as function of distance from a reference particle...">
<polygon fill="#ffffff" stroke="#000000" points="160.5,-.5 160.5,-41.5 308.5,-41.5 308.5,-.5 160.5,-.5"/>
<text text-anchor="start" x="168.5" y="-29.5" font-family="Helvetica,sans-Serif" font-size="10.00" fill="#000000">ProRadialDistributionFunction</text>
<text text-anchor="start" x="168.5" y="-18.5" font-family="Helvetica,sans-Serif" font-size="10.00" fill="#000000">WithDeformation::get_squared</text>
<text text-anchor="middle" x="234.5" y="-7.5" font-family="Helvetica,sans-Serif" font-size="10.00" fill="#000000">_gyration_radius_traj</text>
</a>
</g>
</g>
<!-- Node106&#45;&gt;Node111 -->
<g id="edge5" class="edge">
<title>Node106&#45;&gt;Node111</title>
<path fill="none" stroke="#191970" d="M70.4073,-120.3798C87.0218,-100.1232 114.8311,-69.6226 145,-51 147.789,-49.2784 150.6885,-47.6427 153.6642,-46.09"/>
<polygon fill="#191970" stroke="#191970" points="155.3075,-49.1831 162.7856,-41.6778 152.2593,-42.8816 155.3075,-49.1831"/>
</g>
</g>
</svg>
