<?xml version="1.0" encoding="UTF-8" standalone="no"?>
<!DOCTYPE svg PUBLIC "-//W3C//DTD SVG 1.1//EN"
 "http://www.w3.org/Graphics/SVG/1.1/DTD/svg11.dtd">
<!-- Generated by graphviz version 2.40.1 (20161225.0304)
 -->
<!-- Title: utils::map_to_index Pages: 1 -->
<!--zoomable 536 -->
<svg id="main" version="1.1" xmlns="http://www.w3.org/2000/svg" xmlns:xlink="http://www.w3.org/1999/xlink" xml:space="preserve" onload="init(evt)">
<style type="text/css"><![CDATA[
.edge:hover path { stroke: red; }
.edge:hover polygon { stroke: red; fill: red; }
]]></style>
<script type="text/javascript"><![CDATA[
var edges = document.getElementsByTagName('g');
if (edges && edges.length) {
  for (var i=0;i<edges.length;i++) {
    if (edges[i].id.substr(0,4)=='edge') {
      edges[i].setAttribute('class','edge');
    }
  }
}
]]></script>
        <defs>
                <circle id="rim" cx="0" cy="0" r="7"/>
                <circle id="rim2" cx="0" cy="0" r="3.5"/>
                <g id="zoomPlus">
                        <use xlink:href="#rim" fill="#404040">
                                <set attributeName="fill" to="#808080" begin="zoomplus.mouseover" end="zoomplus.mouseout"/>
                        </use>
                        <path d="M-4,0h8M0,-4v8" fill="none" stroke="white" stroke-width="1.5" pointer-events="none"/>
                </g>
                <g id="zoomMin">
                        <use xlink:href="#rim" fill="#404040">
                                <set attributeName="fill" to="#808080" begin="zoomminus.mouseover" end="zoomminus.mouseout"/>
                        </use>
                        <path d="M-4,0h8" fill="none" stroke="white" stroke-width="1.5" pointer-events="none"/>
                </g>
                <g id="dirArrow">
                        <path fill="none" stroke="white" stroke-width="1.5" d="M0,-3.0v7 M-2.5,-0.5L0,-3.0L2.5,-0.5"/>
                </g>
               <g id="resetDef">
                       <use xlink:href="#rim2" fill="#404040">
                               <set attributeName="fill" to="#808080" begin="reset.mouseover" end="reset.mouseout"/>
                       </use>
               </g>
        </defs>

<script type="text/javascript">
var viewWidth = 505;
var viewHeight = 536;
var sectionId = 'dynsection-5';
</script>
<script xlink:href="svgpan.js"/>
<svg id="graph" class="graph">
<g id="viewport">
<title>utils::map_to_index</title>
<polygon fill="#ffffff" stroke="transparent" points="-4,4 -4,-532 501,-532 501,4 -4,4"/>
<!-- Node48 -->
<g id="node1" class="node">
<title>Node48</title>
<polygon fill="#bfbfbf" stroke="#000000" points="0,-254.5 0,-273.5 101,-273.5 101,-254.5 0,-254.5"/>
<text text-anchor="middle" x="50.5" y="-261.5" font-family="Helvetica,sans-Serif" font-size="10.00" fill="#000000">utils::map_to_index</text>
</g>
<!-- Node49 -->
<g id="node2" class="node">
<title>Node49</title>
<g id="a_node2"><a xlink:href="classAddBondLength.html#a19665cbd2bd195ee9717d084bb669a8f" target="_top" xlink:title="This method overrides Updater::compute_impl. ">
<polygon fill="#ffffff" stroke="#000000" points="141.5,-508.5 141.5,-527.5 293.5,-527.5 293.5,-508.5 141.5,-508.5"/>
<text text-anchor="middle" x="217.5" y="-515.5" font-family="Helvetica,sans-Serif" font-size="10.00" fill="#000000">AddBondLength::compute_impl</text>
</a>
</g>
</g>
<!-- Node48&#45;&gt;Node49 -->
<g id="edge1" class="edge">
<title>Node48&#45;&gt;Node49</title>
<path fill="none" stroke="#191970" d="M51.7066,-283.8779C55.5743,-329.2665 71.5999,-441.0653 137,-499 141.2995,-502.8087 146.2208,-505.8911 151.4645,-508.3811"/>
<polygon fill="#191970" stroke="#191970" points="55.1924,-283.5563 50.9625,-273.8425 48.2116,-284.0739 55.1924,-283.5563"/>
</g>
<!-- Node50 -->
<g id="node3" class="node">
<title>Node50</title>
<g id="a_node3"><a xlink:href="classAddChildIDs.html#a44a0b778c9c4b17c9ce9051b990af73d" target="_top" xlink:title="This method overrides Updater::compute_impl. ">
<polygon fill="#ffffff" stroke="#000000" points="149,-470.5 149,-489.5 286,-489.5 286,-470.5 149,-470.5"/>
<text text-anchor="middle" x="217.5" y="-477.5" font-family="Helvetica,sans-Serif" font-size="10.00" fill="#000000">AddChildIDs::compute_impl</text>
</a>
</g>
</g>
<!-- Node48&#45;&gt;Node50 -->
<g id="edge2" class="edge">
<title>Node48&#45;&gt;Node50</title>
<path fill="none" stroke="#191970" d="M53.2459,-283.608C59.9023,-323.465 80.7122,-414.1239 137,-461 141.6344,-464.8595 146.915,-467.964 152.5049,-470.4574"/>
<polygon fill="#191970" stroke="#191970" points="56.6833,-282.9339 51.6968,-273.5859 49.7655,-284.0032 56.6833,-282.9339"/>
</g>
<!-- Node51 -->
<g id="node4" class="node">
<title>Node51</title>
<g id="a_node4"><a xlink:href="classAddChildPositions.html#ab200c619009c1db1deefb92c68010f9a" target="_top" xlink:title="This method overrides Updater::compute_impl. ">
<polygon fill="#ffffff" stroke="#000000" points="166.5,-421 166.5,-451 268.5,-451 268.5,-421 166.5,-421"/>
<text text-anchor="start" x="174.5" y="-439" font-family="Helvetica,sans-Serif" font-size="10.00" fill="#000000">AddChildPositions::</text>
<text text-anchor="middle" x="217.5" y="-428" font-family="Helvetica,sans-Serif" font-size="10.00" fill="#000000">compute_impl</text>
</a>
</g>
</g>
<!-- Node48&#45;&gt;Node51 -->
<g id="edge3" class="edge">
<title>Node48&#45;&gt;Node51</title>
<path fill="none" stroke="#191970" d="M56.5899,-283.4439C67.513,-315.1303 93.4529,-377.7953 137,-412 145.4869,-418.6661 155.7936,-423.4838 166.159,-426.9646"/>
<polygon fill="#191970" stroke="#191970" points="59.807,-282.0239 53.3483,-273.6253 53.1599,-284.2185 59.807,-282.0239"/>
</g>
<!-- Node52 -->
<g id="node5" class="node">
<title>Node52</title>
<g id="a_node5"><a xlink:href="classAddCoMPosition.html#a4f11bc044daa8afbe8223d9e4098a499" target="_top" xlink:title="AddCoMPosition::compute\l_with_weights">
<polygon fill="#ffffff" stroke="#000000" points="151,-372 151,-402 284,-402 284,-372 151,-372"/>
<text text-anchor="start" x="159" y="-390" font-family="Helvetica,sans-Serif" font-size="10.00" fill="#000000">AddCoMPosition::compute</text>
<text text-anchor="middle" x="217.5" y="-379" font-family="Helvetica,sans-Serif" font-size="10.00" fill="#000000">_with_weights</text>
</a>
</g>
</g>
<!-- Node48&#45;&gt;Node52 -->
<g id="edge4" class="edge">
<title>Node48&#45;&gt;Node52</title>
<path fill="none" stroke="#191970" d="M61.7885,-282.3209C76.441,-304.5985 104.0711,-341.8372 137,-363 142.2754,-366.3904 148.0498,-369.319 154.0067,-371.8452"/>
<polygon fill="#191970" stroke="#191970" points="64.6623,-280.3183 56.3257,-273.7798 58.7653,-284.0899 64.6623,-280.3183"/>
</g>
<!-- Node54 -->
<g id="node7" class="node">
<title>Node54</title>
<g id="a_node7"><a xlink:href="classAddCoMPosition.html#a2c583d3b5139a8e8437979a432631c2e" target="_top" xlink:title="AddCoMPosition::compute\l_without_weights">
<polygon fill="#ffffff" stroke="#000000" points="151,-323 151,-353 284,-353 284,-323 151,-323"/>
<text text-anchor="start" x="159" y="-341" font-family="Helvetica,sans-Serif" font-size="10.00" fill="#000000">AddCoMPosition::compute</text>
<text text-anchor="middle" x="217.5" y="-330" font-family="Helvetica,sans-Serif" font-size="10.00" fill="#000000">_without_weights</text>
</a>
</g>
</g>
<!-- Node48&#45;&gt;Node54 -->
<g id="edge6" class="edge">
<title>Node48&#45;&gt;Node54</title>
<path fill="none" stroke="#191970" d="M73.3159,-279.1724C90.3253,-289.9841 114.4203,-304.2685 137,-314 144.4999,-317.2324 152.5707,-320.199 160.6036,-322.8615"/>
<polygon fill="#191970" stroke="#191970" points="74.9489,-276.0605 64.6499,-273.5741 71.1505,-281.9403 74.9489,-276.0605"/>
</g>
<!-- Node55 -->
<g id="node8" class="node">
<title>Node55</title>
<g id="a_node8"><a xlink:href="classAddInertiaMoment.html#a2565ab562dac3c15368e86b88b666bd6" target="_top" xlink:title="AddInertiaMoment::compute\l_with_weights">
<polygon fill="#ffffff" stroke="#000000" points="147.5,-274 147.5,-304 287.5,-304 287.5,-274 147.5,-274"/>
<text text-anchor="start" x="155.5" y="-292" font-family="Helvetica,sans-Serif" font-size="10.00" fill="#000000">AddInertiaMoment::compute</text>
<text text-anchor="middle" x="217.5" y="-281" font-family="Helvetica,sans-Serif" font-size="10.00" fill="#000000">_with_weights</text>
</a>
</g>
</g>
<!-- Node48&#45;&gt;Node55 -->
<g id="edge8" class="edge">
<title>Node48&#45;&gt;Node55</title>
<path fill="none" stroke="#191970" d="M111.1969,-273.0864C122.9545,-274.8465 135.3653,-276.7044 147.3953,-278.5053"/>
<polygon fill="#191970" stroke="#191970" points="111.4667,-269.5878 101.0587,-271.5687 110.4303,-276.5107 111.4667,-269.5878"/>
</g>
<!-- Node57 -->
<g id="node10" class="node">
<title>Node57</title>
<g id="a_node10"><a xlink:href="classAddInertiaMoment.html#a6b71b7cb75a8b76585a38938bb8ae0a8" target="_top" xlink:title="AddInertiaMoment::compute\l_without_weights">
<polygon fill="#ffffff" stroke="#000000" points="147.5,-225 147.5,-255 287.5,-255 287.5,-225 147.5,-225"/>
<text text-anchor="start" x="155.5" y="-243" font-family="Helvetica,sans-Serif" font-size="10.00" fill="#000000">AddInertiaMoment::compute</text>
<text text-anchor="middle" x="217.5" y="-232" font-family="Helvetica,sans-Serif" font-size="10.00" fill="#000000">_without_weights</text>
</a>
</g>
</g>
<!-- Node48&#45;&gt;Node57 -->
<g id="edge10" class="edge">
<title>Node48&#45;&gt;Node57</title>
<path fill="none" stroke="#191970" d="M111.1969,-255.2771C122.9545,-253.5874 135.3653,-251.8038 147.3953,-250.0749"/>
<polygon fill="#191970" stroke="#191970" points="110.4591,-251.8471 101.0587,-256.7341 111.4549,-258.7759 110.4591,-251.8471"/>
</g>
<!-- Node58 -->
<g id="node11" class="node">
<title>Node58</title>
<g id="a_node11"><a xlink:href="classAddSpecialBonds.html#ac8f026ec0d609bf9bbc98d5c7899a13b" target="_top" xlink:title="This method overrides Updater::compute_impl. ">
<polygon fill="#ffffff" stroke="#000000" points="137,-186.5 137,-205.5 298,-205.5 298,-186.5 137,-186.5"/>
<text text-anchor="middle" x="217.5" y="-193.5" font-family="Helvetica,sans-Serif" font-size="10.00" fill="#000000">AddSpecialBonds::compute_impl</text>
</a>
</g>
</g>
<!-- Node48&#45;&gt;Node58 -->
<g id="edge12" class="edge">
<title>Node48&#45;&gt;Node58</title>
<path fill="none" stroke="#191970" d="M73.5765,-248.9933C90.5469,-238.5132 114.4822,-224.8652 137,-216 147.4516,-211.8852 159.0075,-208.4212 170.0244,-205.5934"/>
<polygon fill="#191970" stroke="#191970" points="71.5196,-246.1522 64.9182,-254.4391 75.2466,-252.0776 71.5196,-246.1522"/>
</g>
<!-- Node59 -->
<g id="node12" class="node">
<title>Node59</title>
<g id="a_node12"><a xlink:href="classProDistanceInMolecule.html#a57443f2cc857b09d3bca11d4e9122de1" target="_top" xlink:title="Implementation of analysis using an element of generators. ">
<polygon fill="#ffffff" stroke="#000000" points="159,-137 159,-167 276,-167 276,-137 159,-137"/>
<text text-anchor="start" x="167" y="-155" font-family="Helvetica,sans-Serif" font-size="10.00" fill="#000000">ProDistanceInMolecule</text>
<text text-anchor="middle" x="217.5" y="-144" font-family="Helvetica,sans-Serif" font-size="10.00" fill="#000000">::run_impl</text>
</a>
</g>
</g>
<!-- Node48&#45;&gt;Node59 -->
<g id="edge13" class="edge">
<title>Node48&#45;&gt;Node59</title>
<path fill="none" stroke="#191970" d="M63.7034,-246.2721C79.2017,-226.6503 106.6689,-195.3756 137,-177 143.7588,-172.9053 151.2481,-169.4256 158.8589,-166.4838"/>
<polygon fill="#191970" stroke="#191970" points="60.7879,-244.3216 57.4575,-254.3794 66.3332,-248.5937 60.7879,-244.3216"/>
</g>
<!-- Node60 -->
<g id="node13" class="node">
<title>Node60</title>
<g id="a_node13"><a xlink:href="classProTimeCorrelationInMolecule.html#a9836b28ea76244b81bf91504aeb0e2b9" target="_top" xlink:title="Implementation of analysis using an element of generators. ">
<polygon fill="#ffffff" stroke="#000000" points="144,-88 144,-118 291,-118 291,-88 144,-88"/>
<text text-anchor="start" x="152" y="-106" font-family="Helvetica,sans-Serif" font-size="10.00" fill="#000000">ProTimeCorrelationInMolecule</text>
<text text-anchor="middle" x="217.5" y="-95" font-family="Helvetica,sans-Serif" font-size="10.00" fill="#000000">::run_impl</text>
</a>
</g>
</g>
<!-- Node48&#45;&gt;Node60 -->
<g id="edge14" class="edge">
<title>Node48&#45;&gt;Node60</title>
<path fill="none" stroke="#191970" d="M57.5743,-244.9435C69.4605,-215.5209 96.2145,-159.1801 137,-128 141.9992,-124.1782 147.5901,-120.9349 153.433,-118.1837"/>
<polygon fill="#191970" stroke="#191970" points="54.2324,-243.8805 53.8695,-254.4691 60.7564,-246.4179 54.2324,-243.8805"/>
</g>
<!-- Node61 -->
<g id="node14" class="node">
<title>Node61</title>
<g id="a_node14"><a xlink:href="classProTimeCorrelationInMolecule.html#a8368ef9e43e92c51b3b8ed31b1519e3d" target="_top" xlink:title="Set initial vectors and resize coefficients_traj. ">
<polygon fill="#ffffff" stroke="#000000" points="144,-39 144,-69 291,-69 291,-39 144,-39"/>
<text text-anchor="start" x="152" y="-57" font-family="Helvetica,sans-Serif" font-size="10.00" fill="#000000">ProTimeCorrelationInMolecule</text>
<text text-anchor="middle" x="217.5" y="-46" font-family="Helvetica,sans-Serif" font-size="10.00" fill="#000000">::prepare</text>
</a>
</g>
</g>
<!-- Node48&#45;&gt;Node61 -->
<g id="edge15" class="edge">
<title>Node48&#45;&gt;Node61</title>
<path fill="none" stroke="#191970" d="M54.2643,-244.0932C62.4469,-206.3148 85.4234,-123.9879 137,-79 141.4113,-75.1522 146.4094,-71.8965 151.7033,-69.1418"/>
<polygon fill="#191970" stroke="#191970" points="50.7523,-243.7991 52.1845,-254.2966 57.6113,-245.1972 50.7523,-243.7991"/>
</g>
<!-- Node62 -->
<g id="node15" class="node">
<title>Node62</title>
<g id="a_node15"><a xlink:href="classStarter.html#a112a95fc261365ba92609db3fa907939" target="_top" xlink:title="Starter::sort_by_id">
<polygon fill="#ffffff" stroke="#000000" points="169,-.5 169,-19.5 266,-19.5 266,-.5 169,-.5"/>
<text text-anchor="middle" x="217.5" y="-7.5" font-family="Helvetica,sans-Serif" font-size="10.00" fill="#000000">Starter::sort_by_id</text>
</a>
</g>
</g>
<!-- Node48&#45;&gt;Node62 -->
<g id="edge16" class="edge">
<title>Node48&#45;&gt;Node62</title>
<path fill="none" stroke="#191970" d="M51.7066,-244.1221C55.5743,-198.7335 71.5999,-86.9347 137,-29 145.814,-21.1921 157.2408,-16.4368 168.7023,-13.5795"/>
<polygon fill="#191970" stroke="#191970" points="48.2116,-243.9261 50.9625,-254.1575 55.1924,-244.4437 48.2116,-243.9261"/>
</g>
<!-- Node53 -->
<g id="node6" class="node">
<title>Node53</title>
<g id="a_node6"><a xlink:href="classAddCoMPosition.html#a8769c07c61840444ad80bf7e20acdbf2" target="_top" xlink:title="This method overrides Updater::compute_impl. ">
<polygon fill="#ffffff" stroke="#000000" points="337.5,-352.5 337.5,-371.5 493.5,-371.5 493.5,-352.5 337.5,-352.5"/>
<text text-anchor="middle" x="415.5" y="-359.5" font-family="Helvetica,sans-Serif" font-size="10.00" fill="#000000">AddCoMPosition::compute_impl</text>
</a>
</g>
</g>
<!-- Node52&#45;&gt;Node53 -->
<g id="edge5" class="edge">
<title>Node52&#45;&gt;Node53</title>
<path fill="none" stroke="#191970" d="M294.5115,-377.2763C309.5123,-375.3823 325.2225,-373.3987 340.1682,-371.5116"/>
<polygon fill="#191970" stroke="#191970" points="293.7405,-373.8458 284.2577,-378.571 294.6174,-380.7907 293.7405,-373.8458"/>
</g>
<!-- Node54&#45;&gt;Node53 -->
<g id="edge7" class="edge">
<title>Node54&#45;&gt;Node53</title>
<path fill="none" stroke="#191970" d="M294.4033,-347.3216C308.5138,-349.032 323.2554,-350.8188 337.4006,-352.5334"/>
<polygon fill="#191970" stroke="#191970" points="294.6063,-343.8207 284.2577,-346.0918 293.7639,-350.7698 294.6063,-343.8207"/>
</g>
<!-- Node56 -->
<g id="node9" class="node">
<title>Node56</title>
<g id="a_node9"><a xlink:href="classAddInertiaMoment.html#a50d3efa11e6c2a8d12c397224679d259" target="_top" xlink:title="This method overrides Updater::compute_impl. ">
<polygon fill="#ffffff" stroke="#000000" points="334,-254.5 334,-273.5 497,-273.5 497,-254.5 334,-254.5"/>
<text text-anchor="middle" x="415.5" y="-261.5" font-family="Helvetica,sans-Serif" font-size="10.00" fill="#000000">AddInertiaMoment::compute_impl</text>
</a>
</g>
</g>
<!-- Node55&#45;&gt;Node56 -->
<g id="edge9" class="edge">
<title>Node55&#45;&gt;Node56</title>
<path fill="none" stroke="#191970" d="M297.6853,-278.8756C311.705,-277.1054 326.2474,-275.2693 340.1312,-273.5163"/>
<polygon fill="#191970" stroke="#191970" points="297.0688,-275.4256 287.586,-280.1508 297.9457,-282.3704 297.0688,-275.4256"/>
</g>
<!-- Node57&#45;&gt;Node56 -->
<g id="edge11" class="edge">
<title>Node57&#45;&gt;Node56</title>
<path fill="none" stroke="#191970" d="M297.8535,-249.7398C310.7961,-251.3086 324.1799,-252.9309 337.0763,-254.4941"/>
<polygon fill="#191970" stroke="#191970" points="297.9346,-246.2241 287.586,-248.4953 297.0922,-253.1732 297.9346,-246.2241"/>
</g>
<!-- Node63 -->
<g id="node16" class="node">
<title>Node63</title>
<g id="a_node16"><a xlink:href="classStarter.html#a5e1cc4f19ad4d82b765b48c5aa8eb22a" target="_top" xlink:title="Compute or parse properties and set them to Element::data given as a mutable reference. ">
<polygon fill="#ffffff" stroke="#000000" points="371,-.5 371,-19.5 460,-19.5 460,-.5 371,-.5"/>
<text text-anchor="middle" x="415.5" y="-7.5" font-family="Helvetica,sans-Serif" font-size="10.00" fill="#000000">Starter::compute</text>
</a>
</g>
</g>
<!-- Node62&#45;&gt;Node63 -->
<g id="edge17" class="edge">
<title>Node62&#45;&gt;Node63</title>
<path fill="none" stroke="#191970" d="M276.1973,-10C306.4525,-10 342.7634,-10 370.7268,-10"/>
<polygon fill="#191970" stroke="#191970" points="276.1899,-6.5001 266.1898,-10 276.1898,-13.5001 276.1899,-6.5001"/>
</g>
</g>
</svg>
        <g id="navigator" transform="translate(0 0)" fill="#404254">
                <rect fill="#f2f5e9" fill-opacity="0.5" stroke="#606060" stroke-width=".5" x="0" y="0" width="60" height="60"/>
                <use id="zoomplus" xlink:href="#zoomPlus" x="17" y="9" onmousedown="handleZoom(evt,'in')"/>
                <use id="zoomminus" xlink:href="#zoomMin" x="42" y="9" onmousedown="handleZoom(evt,'out')"/>
                <use id="reset" xlink:href="#resetDef" x="30" y="36" onmousedown="handleReset()"/>
                <g id="arrowUp" xlink:href="#dirArrow" transform="translate(30 24)" onmousedown="handlePan(0,-1)">
                  <use xlink:href="#rim" fill="#404040">
                        <set attributeName="fill" to="#808080" begin="arrowUp.mouseover" end="arrowUp.mouseout"/>
                  </use>
                  <path fill="none" stroke="white" stroke-width="1.5" d="M0,-3.0v7 M-2.5,-0.5L0,-3.0L2.5,-0.5"/>
                </g>
                <g id="arrowRight" xlink:href="#dirArrow" transform="rotate(90) translate(36 -43)" onmousedown="handlePan(1,0)">
                  <use xlink:href="#rim" fill="#404040">
                        <set attributeName="fill" to="#808080" begin="arrowRight.mouseover" end="arrowRight.mouseout"/>
                  </use>
                  <path fill="none" stroke="white" stroke-width="1.5" d="M0,-3.0v7 M-2.5,-0.5L0,-3.0L2.5,-0.5"/>
                </g>
                <g id="arrowDown" xlink:href="#dirArrow" transform="rotate(180) translate(-30 -48)" onmousedown="handlePan(0,1)">
                  <use xlink:href="#rim" fill="#404040">
                        <set attributeName="fill" to="#808080" begin="arrowDown.mouseover" end="arrowDown.mouseout"/>
                  </use>
                  <path fill="none" stroke="white" stroke-width="1.5" d="M0,-3.0v7 M-2.5,-0.5L0,-3.0L2.5,-0.5"/>
                </g>
                <g id="arrowLeft" xlink:href="#dirArrow" transform="rotate(270) translate(-36 17)" onmousedown="handlePan(-1,0)">
                  <use xlink:href="#rim" fill="#404040">
                        <set attributeName="fill" to="#808080" begin="arrowLeft.mouseover" end="arrowLeft.mouseout"/>
                  </use>
                  <path fill="none" stroke="white" stroke-width="1.5" d="M0,-3.0v7 M-2.5,-0.5L0,-3.0L2.5,-0.5"/>
                </g>
        </g>
        <svg viewBox="0 0 15 15" width="100%" height="30px" preserveAspectRatio="xMaxYMin meet">
         <g id="arrow_out" transform="scale(0.3 0.3)">
          <a xlink:href="namespaceutils_aeabf3fc19efc71936f355f069d336b5a_icgraph_org.svg" target="_base">
           <rect id="button" ry="5" rx="5" y="6" x="6" height="38" width="38"
                fill="#f2f5e9" fill-opacity="0.5" stroke="#606060" stroke-width="1.0"/>
           <path id="arrow"
             d="M 11.500037,31.436501 C 11.940474,20.09759 22.043105,11.32322 32.158766,21.979434 L 37.068811,17.246167 C 37.068811,17.246167 37.088388,32 37.088388,32 L 22.160133,31.978069 C 22.160133,31.978069 26.997745,27.140456 26.997745,27.140456 C 18.528582,18.264221 13.291696,25.230495 11.500037,31.436501 z"
             style="fill:#404040;"/>
          </a>
         </g>
        </svg>
</svg>
