<?xml version="1.0" encoding="UTF-8" standalone="no"?>
<!DOCTYPE svg PUBLIC "-//W3C//DTD SVG 1.1//EN"
 "http://www.w3.org/Graphics/SVG/1.1/DTD/svg11.dtd">
<!-- Generated by graphviz version 2.40.1 (20161225.0304)
 -->
<!-- Title: pybind::py_element Pages: 1 -->
<svg width="706pt" height="287pt"
 viewBox="0.00 0.00 706.00 286.50" xmlns="http://www.w3.org/2000/svg" xmlns:xlink="http://www.w3.org/1999/xlink">
<g id="graph0" class="graph" transform="scale(1 1) rotate(0) translate(4 282.5)">
<title>pybind::py_element</title>
<polygon fill="#ffffff" stroke="transparent" points="-4,4 -4,-282.5 702,-282.5 702,4 -4,4"/>
<!-- Node36 -->
<g id="node1" class="node">
<title>Node36</title>
<polygon fill="#bfbfbf" stroke="#000000" points="0,-134.5 0,-153.5 101,-153.5 101,-134.5 0,-134.5"/>
<text text-anchor="middle" x="50.5" y="-141.5" font-family="Helvetica,sans-Serif" font-size="10.00" fill="#000000">pybind::py_element</text>
</g>
<!-- Node37 -->
<g id="node2" class="node">
<title>Node37</title>
<g id="a_node2"><a xlink:href="classElement.html#adc43106f0ea5e11d03105c40df1fe0a8" target="_top" xlink:title="Append an Updater object to this Element object: the only way to extend an updating process associate...">
<polygon fill="#ffffff" stroke="#000000" points="137,-251.5 137,-270.5 265,-270.5 265,-251.5 137,-251.5"/>
<text text-anchor="middle" x="201" y="-258.5" font-family="Helvetica,sans-Serif" font-size="10.00" fill="#000000">Element::append_updater</text>
</a>
</g>
</g>
<!-- Node36&#45;&gt;Node37 -->
<g id="edge1" class="edge">
<title>Node36&#45;&gt;Node37</title>
<path fill="none" stroke="#191970" d="M56.7028,-153.5408C69.4914,-172.4913 100.6565,-215.1033 137,-239 142.0313,-242.3082 147.6131,-245.1736 153.3234,-247.6408"/>
<polygon fill="#191970" stroke="#191970" points="152.3925,-251.0351 162.9801,-251.425 154.9465,-244.5176 152.3925,-251.0351"/>
</g>
<!-- Node39 -->
<g id="node4" class="node">
<title>Node39</title>
<g id="a_node4"><a xlink:href="classElement.html#a62989090a40d237e617bc6e5f5087388" target="_top" xlink:title="Get Element::data of this object. ">
<polygon fill="#ffffff" stroke="#000000" points="145,-172.5 145,-191.5 257,-191.5 257,-172.5 145,-172.5"/>
<text text-anchor="middle" x="201" y="-179.5" font-family="Helvetica,sans-Serif" font-size="10.00" fill="#000000">Element::get_data_py</text>
</a>
</g>
</g>
<!-- Node36&#45;&gt;Node39 -->
<g id="edge3" class="edge">
<title>Node36&#45;&gt;Node39</title>
<path fill="none" stroke="#191970" d="M88.4775,-153.589C108.1587,-158.5583 132.3907,-164.6767 153.3206,-169.9613"/>
<polygon fill="#191970" stroke="#191970" points="152.743,-173.4253 163.2956,-172.4799 154.4567,-166.6383 152.743,-173.4253"/>
</g>
<!-- Node44 -->
<g id="node9" class="node">
<title>Node44</title>
<g id="a_node9"><a xlink:href="classElement.html#ae253cbec6307a157902d7f25867ded2b" target="_top" xlink:title="Get contents of Element::datakeys of this object. ">
<polygon fill="#ffffff" stroke="#000000" points="144,-210.5 144,-229.5 258,-229.5 258,-210.5 144,-210.5"/>
<text text-anchor="middle" x="201" y="-217.5" font-family="Helvetica,sans-Serif" font-size="10.00" fill="#000000">Element::get_keys_py</text>
</a>
</g>
</g>
<!-- Node36&#45;&gt;Node44 -->
<g id="edge8" class="edge">
<title>Node36&#45;&gt;Node44</title>
<path fill="none" stroke="#191970" d="M62.4295,-153.5195C78.5219,-165.9596 108.4661,-187.7192 137,-201 141.9256,-203.2926 147.1932,-205.3826 152.5123,-207.2674"/>
<polygon fill="#191970" stroke="#191970" points="151.4864,-210.6145 162.0798,-210.4378 153.6883,-203.9699 151.4864,-210.6145"/>
</g>
<!-- Node46 -->
<g id="node11" class="node">
<title>Node46</title>
<g id="a_node11"><a xlink:href="classElement.html#a8257b02b1e3b208f193b35d5d47b9af8" target="_top" xlink:title="Get integer values stored in Element::data of this object as a one&#45;dimensional Numpy&#45;Array. ">
<polygon fill="#ffffff" stroke="#000000" points="141.5,-134.5 141.5,-153.5 260.5,-153.5 260.5,-134.5 141.5,-134.5"/>
<text text-anchor="middle" x="201" y="-141.5" font-family="Helvetica,sans-Serif" font-size="10.00" fill="#000000">Element::get_1d_int_py</text>
</a>
</g>
</g>
<!-- Node36&#45;&gt;Node46 -->
<g id="edge11" class="edge">
<title>Node36&#45;&gt;Node46</title>
<path fill="none" stroke="#191970" d="M101.033,-144C110.7679,-144 121.1237,-144 131.3413,-144"/>
<polygon fill="#191970" stroke="#191970" points="131.4847,-147.5001 141.4846,-144 131.4846,-140.5001 131.4847,-147.5001"/>
</g>
<!-- Node51 -->
<g id="node16" class="node">
<title>Node51</title>
<g id="a_node16"><a xlink:href="classElement.html#a3f11848589faad4cbca8119385887713" target="_top" xlink:title="Get float values stored in Element::data of this object as a one&#45;dimensional Numpy&#45;Array. ">
<polygon fill="#ffffff" stroke="#000000" points="137,-96.5 137,-115.5 265,-115.5 265,-96.5 137,-96.5"/>
<text text-anchor="middle" x="201" y="-103.5" font-family="Helvetica,sans-Serif" font-size="10.00" fill="#000000">Element::get_1d_float_py</text>
</a>
</g>
</g>
<!-- Node36&#45;&gt;Node51 -->
<g id="edge18" class="edge">
<title>Node36&#45;&gt;Node51</title>
<path fill="none" stroke="#191970" d="M88.4775,-134.411C108.1587,-129.4417 132.3907,-123.3233 153.3206,-118.0387"/>
<polygon fill="#191970" stroke="#191970" points="154.4567,-121.3617 163.2956,-115.5201 152.743,-114.5747 154.4567,-121.3617"/>
</g>
<!-- Node52 -->
<g id="node17" class="node">
<title>Node52</title>
<g id="a_node17"><a xlink:href="classElement.html#a8e8245fb94b6417e3e804e6bfdf2f906" target="_top" xlink:title="Get integer values stored in Element::data of this object as a two&#45;dimensional Numpy&#45;Array. ">
<polygon fill="#ffffff" stroke="#000000" points="141.5,-20.5 141.5,-39.5 260.5,-39.5 260.5,-20.5 141.5,-20.5"/>
<text text-anchor="middle" x="201" y="-27.5" font-family="Helvetica,sans-Serif" font-size="10.00" fill="#000000">Element::get_2d_int_py</text>
</a>
</g>
</g>
<!-- Node36&#45;&gt;Node52 -->
<g id="edge22" class="edge">
<title>Node36&#45;&gt;Node52</title>
<path fill="none" stroke="#191970" d="M56.6177,-134.3268C69.2533,-115.1381 100.1568,-72.1189 137,-49 140.3288,-46.9112 143.8985,-45.0424 147.5869,-43.372"/>
<polygon fill="#191970" stroke="#191970" points="148.9573,-46.5934 156.9302,-39.6161 146.3464,-40.0985 148.9573,-46.5934"/>
</g>
<!-- Node55 -->
<g id="node20" class="node">
<title>Node55</title>
<g id="a_node20"><a xlink:href="classElement.html#a6a62280eadd3d4e6bfe8c43082797733" target="_top" xlink:title="Get float values stored in Element::data of this object as a two&#45;dimensional Numpy&#45;Array. ">
<polygon fill="#ffffff" stroke="#000000" points="137,-58.5 137,-77.5 265,-77.5 265,-58.5 137,-58.5"/>
<text text-anchor="middle" x="201" y="-65.5" font-family="Helvetica,sans-Serif" font-size="10.00" fill="#000000">Element::get_2d_float_py</text>
</a>
</g>
</g>
<!-- Node36&#45;&gt;Node55 -->
<g id="edge27" class="edge">
<title>Node36&#45;&gt;Node55</title>
<path fill="none" stroke="#191970" d="M62.4295,-134.4805C78.5219,-122.0404 108.4661,-100.2808 137,-87 141.9256,-84.7074 147.1932,-82.6174 152.5123,-80.7326"/>
<polygon fill="#191970" stroke="#191970" points="153.6883,-84.0301 162.0798,-77.5622 151.4864,-77.3855 153.6883,-84.0301"/>
</g>
<!-- Node38 -->
<g id="node3" class="node">
<title>Node38</title>
<g id="a_node3"><a xlink:href="classGenerator.html#a540c397ab90d552e413ddfa4bf5e51cc" target="_top" xlink:title="Generator::merge_update\l_chain">
<polygon fill="#ffffff" stroke="#000000" points="301,-248 301,-278 428,-278 428,-248 301,-248"/>
<text text-anchor="start" x="309" y="-266" font-family="Helvetica,sans-Serif" font-size="10.00" fill="#000000">Generator::merge_update</text>
<text text-anchor="middle" x="364.5" y="-255" font-family="Helvetica,sans-Serif" font-size="10.00" fill="#000000">_chain</text>
</a>
</g>
</g>
<!-- Node37&#45;&gt;Node38 -->
<g id="edge2" class="edge">
<title>Node37&#45;&gt;Node38</title>
<path fill="none" stroke="#191970" d="M265.1503,-261.7847C273.4823,-261.8866 282.0704,-261.9917 290.5456,-262.0954"/>
<polygon fill="#191970" stroke="#191970" points="290.7608,-265.5982 300.8029,-262.2208 290.8465,-258.5987 290.7608,-265.5982"/>
</g>
<!-- Node40 -->
<g id="node5" class="node">
<title>Node40</title>
<g id="a_node5"><a xlink:href="classElement.html#a1fdb9455f49d2c66a0276925f7246cad" target="_top" xlink:title="Element::init_for_python">
<polygon fill="#ffffff" stroke="#000000" points="303.5,-152.5 303.5,-171.5 425.5,-171.5 425.5,-152.5 303.5,-152.5"/>
<text text-anchor="middle" x="364.5" y="-159.5" font-family="Helvetica,sans-Serif" font-size="10.00" fill="#000000">Element::init_for_python</text>
</a>
</g>
</g>
<!-- Node39&#45;&gt;Node40 -->
<g id="edge4" class="edge">
<title>Node39&#45;&gt;Node40</title>
<path fill="none" stroke="#191970" d="M257.2674,-175.1171C268.8862,-173.6959 281.2679,-172.1813 293.3366,-170.705"/>
<polygon fill="#191970" stroke="#191970" points="293.876,-174.1652 303.377,-169.4768 293.026,-167.217 293.876,-174.1652"/>
</g>
<!-- Node41 -->
<g id="node6" class="node">
<title>Node41</title>
<g id="a_node6"><a xlink:href="classGenerator.html#ac4648b055ee0e51c1e68ea084156c222" target="_top" xlink:title="Hello to this Generator object. ">
<polygon fill="#ffffff" stroke="#000000" points="471,-190.5 471,-209.5 557,-209.5 557,-190.5 471,-190.5"/>
<text text-anchor="middle" x="514" y="-197.5" font-family="Helvetica,sans-Serif" font-size="10.00" fill="#000000">Generator::hello</text>
</a>
</g>
</g>
<!-- Node40&#45;&gt;Node41 -->
<g id="edge5" class="edge">
<title>Node40&#45;&gt;Node41</title>
<path fill="none" stroke="#191970" d="M402.2252,-171.589C421.7756,-176.5583 445.8466,-182.6767 466.6374,-187.9613"/>
<polygon fill="#191970" stroke="#191970" points="465.9921,-191.4085 476.5461,-190.4799 467.7165,-184.6243 465.9921,-191.4085"/>
</g>
<!-- Node42 -->
<g id="node7" class="node">
<title>Node42</title>
<g id="a_node7"><a xlink:href="namespaceutils.html#acee57b54806ee63ddaa30518fed90adb" target="_top" xlink:title="Raise (for Python) and throw (for C++) a runtime error. ">
<polygon fill="#ffffff" stroke="#000000" points="600,-133.5 600,-152.5 698,-152.5 698,-133.5 600,-133.5"/>
<text text-anchor="middle" x="649" y="-140.5" font-family="Helvetica,sans-Serif" font-size="10.00" fill="#000000">utils::runtime_error</text>
</a>
</g>
</g>
<!-- Node40&#45;&gt;Node42 -->
<g id="edge6" class="edge">
<title>Node40&#45;&gt;Node42</title>
<path fill="none" stroke="#191970" d="M425.5324,-157.924C474.0559,-154.6834 541.5406,-150.1766 589.6252,-146.9653"/>
<polygon fill="#191970" stroke="#191970" points="590.1369,-150.439 599.8814,-146.2803 589.6704,-143.4546 590.1369,-150.439"/>
</g>
<!-- Node43 -->
<g id="node8" class="node">
<title>Node43</title>
<g id="a_node8"><a xlink:href="namespaceutils.html#a26267fe7371b6215c5d61374d716527b" target="_top" xlink:title="Logging a message. ">
<polygon fill="#ffffff" stroke="#000000" points="487.5,-114.5 487.5,-133.5 540.5,-133.5 540.5,-114.5 487.5,-114.5"/>
<text text-anchor="middle" x="514" y="-121.5" font-family="Helvetica,sans-Serif" font-size="10.00" fill="#000000">utils::log</text>
</a>
</g>
</g>
<!-- Node40&#45;&gt;Node43 -->
<g id="edge7" class="edge">
<title>Node40&#45;&gt;Node43</title>
<path fill="none" stroke="#191970" d="M402.2252,-152.411C425.1788,-146.5766 454.3639,-139.1583 477.1556,-133.3651"/>
<polygon fill="#191970" stroke="#191970" points="478.3026,-136.685 487.1321,-130.8293 476.5781,-129.9007 478.3026,-136.685"/>
</g>
<!-- Node44&#45;&gt;Node40 -->
<g id="edge9" class="edge">
<title>Node44&#45;&gt;Node40</title>
<path fill="none" stroke="#191970" d="M235.0496,-210.4754C244.7776,-207.5966 255.3543,-204.3154 265,-201 287.8157,-193.1577 313.1243,-183.2203 332.5071,-175.3394"/>
<polygon fill="#191970" stroke="#191970" points="333.8552,-178.5695 341.7832,-171.5411 331.2026,-172.0915 333.8552,-178.5695"/>
</g>
<!-- Node45 -->
<g id="node10" class="node">
<title>Node45</title>
<g id="a_node10"><a xlink:href="classDataKeys.html#ab29d313282fe7c52adfa35b8335f3ca6" target="_top" xlink:title="Get a constant reference to _keys. ">
<polygon fill="#ffffff" stroke="#000000" points="325,-209.5 325,-228.5 404,-228.5 404,-209.5 325,-209.5"/>
<text text-anchor="middle" x="364.5" y="-216.5" font-family="Helvetica,sans-Serif" font-size="10.00" fill="#000000">DataKeys::get</text>
</a>
</g>
</g>
<!-- Node44&#45;&gt;Node45 -->
<g id="edge10" class="edge">
<title>Node44&#45;&gt;Node45</title>
<path fill="none" stroke="#191970" d="M258.1844,-219.6502C276.5824,-219.5377 296.8104,-219.414 314.6388,-219.305"/>
<polygon fill="#191970" stroke="#191970" points="314.8483,-222.8038 324.8267,-219.2427 314.8054,-215.804 314.8483,-222.8038"/>
</g>
<!-- Node46&#45;&gt;Node40 -->
<g id="edge12" class="edge">
<title>Node46&#45;&gt;Node40</title>
<path fill="none" stroke="#191970" d="M260.953,-150.6003C271.451,-151.7561 282.4663,-152.9688 293.2349,-154.1543"/>
<polygon fill="#191970" stroke="#191970" points="293.1358,-157.6645 303.4588,-155.2799 293.9019,-150.7065 293.1358,-157.6645"/>
</g>
<!-- Node47 -->
<g id="node12" class="node">
<title>Node47</title>
<g id="a_node12"><a xlink:href="classElement.html#a2dd2b3ed6f76878ae6cc1c1a36183517" target="_top" xlink:title="Wrapper for DataKeys::required. ">
<polygon fill="#ffffff" stroke="#000000" points="318,-76.5 318,-95.5 411,-95.5 411,-76.5 318,-76.5"/>
<text text-anchor="middle" x="364.5" y="-83.5" font-family="Helvetica,sans-Serif" font-size="10.00" fill="#000000">Element::required</text>
</a>
</g>
</g>
<!-- Node46&#45;&gt;Node47 -->
<g id="edge13" class="edge">
<title>Node46&#45;&gt;Node47</title>
<path fill="none" stroke="#191970" d="M238.3715,-134.3989C247.2325,-131.7149 256.5587,-128.5475 265,-125 281.8738,-117.9087 284.1338,-112.1094 301,-105 306.4344,-102.7093 312.2379,-100.5743 318.0449,-98.6245"/>
<polygon fill="#191970" stroke="#191970" points="319.2951,-101.8994 327.7564,-95.523 317.1655,-95.2312 319.2951,-101.8994"/>
</g>
<!-- Node50 -->
<g id="node15" class="node">
<title>Node50</title>
<g id="a_node15"><a xlink:href="classElement.html#a576395d61902a76979ffd336afa714b3" target="_top" xlink:title="Extract values of a property in data as a one&#45;dimensional Eigen&#45;Array. ">
<polygon fill="#ffffff" stroke="#000000" points="319,-114.5 319,-133.5 410,-133.5 410,-114.5 319,-114.5"/>
<text text-anchor="middle" x="364.5" y="-121.5" font-family="Helvetica,sans-Serif" font-size="10.00" fill="#000000">Element::array1d</text>
</a>
</g>
</g>
<!-- Node46&#45;&gt;Node50 -->
<g id="edge17" class="edge">
<title>Node46&#45;&gt;Node50</title>
<path fill="none" stroke="#191970" d="M260.953,-136.6663C276.653,-134.7458 293.5101,-132.6838 308.9683,-130.7929"/>
<polygon fill="#191970" stroke="#191970" points="309.3974,-134.2666 318.8984,-129.5782 308.5474,-127.3183 309.3974,-134.2666"/>
</g>
<!-- Node48 -->
<g id="node13" class="node">
<title>Node48</title>
<g id="a_node13"><a xlink:href="classDataKeys.html#a03517cffe825c983c3582ffb55318a7b" target="_top" xlink:title="Check if this object has required key(s). ">
<polygon fill="#ffffff" stroke="#000000" points="464,-76.5 464,-95.5 564,-95.5 564,-76.5 464,-76.5"/>
<text text-anchor="middle" x="514" y="-83.5" font-family="Helvetica,sans-Serif" font-size="10.00" fill="#000000">DataKeys::required</text>
</a>
</g>
</g>
<!-- Node47&#45;&gt;Node48 -->
<g id="edge14" class="edge">
<title>Node47&#45;&gt;Node48</title>
<path fill="none" stroke="#191970" d="M411.3926,-86C424.8294,-86 439.6676,-86 453.7862,-86"/>
<polygon fill="#191970" stroke="#191970" points="453.9093,-89.5001 463.9093,-86 453.9092,-82.5001 453.9093,-89.5001"/>
</g>
<!-- Node48&#45;&gt;Node42 -->
<g id="edge15" class="edge">
<title>Node48&#45;&gt;Node42</title>
<path fill="none" stroke="#191970" d="M540.0622,-95.5808C547.8027,-98.5131 556.2757,-101.8088 564,-105 582.4342,-112.6158 602.8452,-121.7182 619.0447,-129.1048"/>
<polygon fill="#191970" stroke="#191970" points="617.9827,-132.4681 628.5316,-133.4536 620.8997,-126.1048 617.9827,-132.4681"/>
</g>
<!-- Node49 -->
<g id="node14" class="node">
<title>Node49</title>
<g id="a_node14"><a xlink:href="namespaceutils.html#a5e5339e32b770a14691521435849c949" target="_top" xlink:title="Mimicking Python&#39;s join. ">
<polygon fill="#ffffff" stroke="#000000" points="621,-76.5 621,-95.5 677,-95.5 677,-76.5 621,-76.5"/>
<text text-anchor="middle" x="649" y="-83.5" font-family="Helvetica,sans-Serif" font-size="10.00" fill="#000000">utils::join</text>
</a>
</g>
</g>
<!-- Node48&#45;&gt;Node49 -->
<g id="edge16" class="edge">
<title>Node48&#45;&gt;Node49</title>
<path fill="none" stroke="#191970" d="M564.269,-86C579.5913,-86 596.1831,-86 610.589,-86"/>
<polygon fill="#191970" stroke="#191970" points="610.6431,-89.5001 620.643,-86 610.643,-82.5001 610.6431,-89.5001"/>
</g>
<!-- Node51&#45;&gt;Node40 -->
<g id="edge19" class="edge">
<title>Node51&#45;&gt;Node40</title>
<path fill="none" stroke="#191970" d="M237.2561,-115.5624C246.417,-118.305 256.1602,-121.509 265,-125 281.6381,-131.5707 284.369,-136.4115 301,-143 306.6199,-145.2264 312.6073,-147.3391 318.5746,-149.2911"/>
<polygon fill="#191970" stroke="#191970" points="317.9405,-152.7604 328.5298,-152.4159 320.037,-146.0816 317.9405,-152.7604"/>
</g>
<!-- Node51&#45;&gt;Node47 -->
<g id="edge20" class="edge">
<title>Node51&#45;&gt;Node47</title>
<path fill="none" stroke="#191970" d="M265.1503,-98.1529C279.1947,-96.4349 293.9666,-94.6279 307.6996,-92.9481"/>
<polygon fill="#191970" stroke="#191970" points="308.4686,-96.3802 317.9696,-91.6918 307.6186,-89.432 308.4686,-96.3802"/>
</g>
<!-- Node51&#45;&gt;Node50 -->
<g id="edge21" class="edge">
<title>Node51&#45;&gt;Node50</title>
<path fill="none" stroke="#191970" d="M265.1503,-113.0624C279.5483,-114.6475 294.711,-116.3168 308.7351,-117.8607"/>
<polygon fill="#191970" stroke="#191970" points="308.3953,-121.3444 318.7183,-118.9598 309.1614,-114.3864 308.3953,-121.3444"/>
</g>
<!-- Node52&#45;&gt;Node40 -->
<g id="edge23" class="edge">
<title>Node52&#45;&gt;Node40</title>
<path fill="none" stroke="#191970" d="M250.6884,-39.6109C255.9152,-42.0648 260.8322,-45.142 265,-49 297.8303,-79.39 268.2023,-112.5747 301,-143 302.7136,-144.5897 304.5551,-146.0467 306.4933,-147.3821"/>
<polygon fill="#191970" stroke="#191970" points="305.0887,-150.6089 315.5147,-152.4925 308.5389,-144.5183 305.0887,-150.6089"/>
</g>
<!-- Node52&#45;&gt;Node47 -->
<g id="edge25" class="edge">
<title>Node52&#45;&gt;Node47</title>
<path fill="none" stroke="#191970" d="M237.2561,-39.5624C246.417,-42.305 256.1602,-45.509 265,-49 281.6381,-55.5707 284.369,-60.4115 301,-67 306.6199,-69.2264 312.6073,-71.3391 318.5746,-73.2911"/>
<polygon fill="#191970" stroke="#191970" points="317.9405,-76.7604 328.5298,-76.4159 320.037,-70.0816 317.9405,-76.7604"/>
</g>
<!-- Node53 -->
<g id="node18" class="node">
<title>Node53</title>
<g id="a_node18"><a xlink:href="namespaceutils.html#a9fdbb91c9e48ca033fca642b6e73d850" target="_top" xlink:title="Convert a py::args (a variable number arguments) object to a Vec object. ">
<polygon fill="#ffffff" stroke="#000000" points="312.5,-.5 312.5,-19.5 416.5,-19.5 416.5,-.5 312.5,-.5"/>
<text text-anchor="middle" x="364.5" y="-7.5" font-family="Helvetica,sans-Serif" font-size="10.00" fill="#000000">utils::pyargs_to_vec</text>
</a>
</g>
</g>
<!-- Node52&#45;&gt;Node53 -->
<g id="edge24" class="edge">
<title>Node52&#45;&gt;Node53</title>
<path fill="none" stroke="#191970" d="M260.953,-22.6663C274.3887,-21.0228 288.6719,-19.2756 302.2006,-17.6207"/>
<polygon fill="#191970" stroke="#191970" points="302.8715,-21.0648 312.3725,-16.3764 302.0215,-14.1166 302.8715,-21.0648"/>
</g>
<!-- Node54 -->
<g id="node19" class="node">
<title>Node54</title>
<g id="a_node19"><a xlink:href="classElement.html#a4c2fcdb60e23dedce2b54b9deeadc469" target="_top" xlink:title="Extract values of properties in data as a two&#45;dimensional Eigen&#45;Array. ">
<polygon fill="#ffffff" stroke="#000000" points="319,-38.5 319,-57.5 410,-57.5 410,-38.5 319,-38.5"/>
<text text-anchor="middle" x="364.5" y="-45.5" font-family="Helvetica,sans-Serif" font-size="10.00" fill="#000000">Element::array2d</text>
</a>
</g>
</g>
<!-- Node52&#45;&gt;Node54 -->
<g id="edge26" class="edge">
<title>Node52&#45;&gt;Node54</title>
<path fill="none" stroke="#191970" d="M260.953,-36.6003C276.5034,-38.3123 293.1891,-40.1493 308.5263,-41.8378"/>
<polygon fill="#191970" stroke="#191970" points="308.5754,-45.3642 318.8984,-42.9796 309.3415,-38.4063 308.5754,-45.3642"/>
</g>
<!-- Node55&#45;&gt;Node40 -->
<g id="edge28" class="edge">
<title>Node55&#45;&gt;Node40</title>
<path fill="none" stroke="#191970" d="M247.6483,-77.5344C253.8274,-80.0016 259.8095,-83.1029 265,-87 288.6612,-104.7652 277.3579,-125.2094 301,-143 303.4941,-144.8768 306.1725,-146.5692 308.9683,-148.0951"/>
<polygon fill="#191970" stroke="#191970" points="307.674,-151.3537 318.2146,-152.4245 310.6423,-145.0142 307.674,-151.3537"/>
</g>
<!-- Node55&#45;&gt;Node47 -->
<g id="edge30" class="edge">
<title>Node55&#45;&gt;Node47</title>
<path fill="none" stroke="#191970" d="M265.1503,-75.0624C279.1947,-76.6086 293.9666,-78.2349 307.6996,-79.7467"/>
<polygon fill="#191970" stroke="#191970" points="307.6466,-83.262 317.9696,-80.8774 308.4127,-76.304 307.6466,-83.262"/>
</g>
<!-- Node55&#45;&gt;Node53 -->
<g id="edge29" class="edge">
<title>Node55&#45;&gt;Node53</title>
<path fill="none" stroke="#191970" d="M238.3715,-58.3989C247.2325,-55.7149 256.5587,-52.5475 265,-49 281.8738,-41.9087 284.1338,-36.1094 301,-29 306.4344,-26.7093 312.2379,-24.5743 318.0449,-22.6245"/>
<polygon fill="#191970" stroke="#191970" points="319.2951,-25.8994 327.7564,-19.523 317.1655,-19.2312 319.2951,-25.8994"/>
</g>
<!-- Node55&#45;&gt;Node54 -->
<g id="edge31" class="edge">
<title>Node55&#45;&gt;Node54</title>
<path fill="none" stroke="#191970" d="M265.1503,-60.1529C279.5483,-58.3916 294.711,-56.5369 308.7351,-54.8214"/>
<polygon fill="#191970" stroke="#191970" points="309.2173,-58.2886 318.7183,-53.6002 308.3673,-51.3404 309.2173,-58.2886"/>
</g>
</g>
</svg>
