<?xml version="1.0" encoding="UTF-8" standalone="no"?>
<!DOCTYPE svg PUBLIC "-//W3C//DTD SVG 1.1//EN"
 "http://www.w3.org/Graphics/SVG/1.1/DTD/svg11.dtd">
<!-- Generated by graphviz version 2.40.1 (20161225.0304)
 -->
<!-- Title: utils::log Pages: 1 -->
<!--zoomable 256 -->
<svg id="main" version="1.1" xmlns="http://www.w3.org/2000/svg" xmlns:xlink="http://www.w3.org/1999/xlink" xml:space="preserve" onload="init(evt)">
<style type="text/css"><![CDATA[
.edge:hover path { stroke: red; }
.edge:hover polygon { stroke: red; fill: red; }
]]></style>
<script type="text/javascript"><![CDATA[
var edges = document.getElementsByTagName('g');
if (edges && edges.length) {
  for (var i=0;i<edges.length;i++) {
    if (edges[i].id.substr(0,4)=='edge') {
      edges[i].setAttribute('class','edge');
    }
  }
}
]]></script>
        <defs>
                <circle id="rim" cx="0" cy="0" r="7"/>
                <circle id="rim2" cx="0" cy="0" r="3.5"/>
                <g id="zoomPlus">
                        <use xlink:href="#rim" fill="#404040">
                                <set attributeName="fill" to="#808080" begin="zoomplus.mouseover" end="zoomplus.mouseout"/>
                        </use>
                        <path d="M-4,0h8M0,-4v8" fill="none" stroke="white" stroke-width="1.5" pointer-events="none"/>
                </g>
                <g id="zoomMin">
                        <use xlink:href="#rim" fill="#404040">
                                <set attributeName="fill" to="#808080" begin="zoomminus.mouseover" end="zoomminus.mouseout"/>
                        </use>
                        <path d="M-4,0h8" fill="none" stroke="white" stroke-width="1.5" pointer-events="none"/>
                </g>
                <g id="dirArrow">
                        <path fill="none" stroke="white" stroke-width="1.5" d="M0,-3.0v7 M-2.5,-0.5L0,-3.0L2.5,-0.5"/>
                </g>
               <g id="resetDef">
                       <use xlink:href="#rim2" fill="#404040">
                               <set attributeName="fill" to="#808080" begin="reset.mouseover" end="reset.mouseout"/>
                       </use>
               </g>
        </defs>

<script type="text/javascript">
var viewWidth = 504;
var viewHeight = 256;
var sectionId = 'dynsection-2';
</script>
<script xlink:href="svgpan.js"/>
<svg id="graph" class="graph">
<g id="viewport">
<title>utils::log</title>
<polygon fill="#ffffff" stroke="transparent" points="-4,4 -4,-252 500,-252 500,4 -4,4"/>
<!-- Node27 -->
<g id="node1" class="node">
<title>Node27</title>
<polygon fill="#bfbfbf" stroke="#000000" points="0,-95.5 0,-114.5 53,-114.5 53,-95.5 0,-95.5"/>
<text text-anchor="middle" x="26.5" y="-102.5" font-family="Helvetica,sans-Serif" font-size="10.00" fill="#000000">utils::log</text>
</g>
<!-- Node28 -->
<g id="node2" class="node">
<title>Node28</title>
<g id="a_node2"><a xlink:href="classElement.html#a9ff7a4e19165faa6da26635d9145b46b" target="_top" xlink:title="This method decrements n_remain. ">
<polygon fill="#ffffff" stroke="#000000" points="98,-153 98,-183 202,-183 202,-153 98,-153"/>
<text text-anchor="start" x="106" y="-171" font-family="Helvetica,sans-Serif" font-size="10.00" fill="#000000">Element::decrement</text>
<text text-anchor="middle" x="150" y="-160" font-family="Helvetica,sans-Serif" font-size="10.00" fill="#000000">_remain</text>
</a>
</g>
</g>
<!-- Node27&#45;&gt;Node28 -->
<g id="edge1" class="edge">
<title>Node27&#45;&gt;Node28</title>
<path fill="none" stroke="#191970" d="M49.4073,-120.1206C61.0212,-127.4766 75.4939,-136.1797 89,-143 95.845,-146.4566 103.2854,-149.8163 110.5407,-152.893"/>
<polygon fill="#191970" stroke="#191970" points="51.0833,-117.0371 40.7793,-114.5718 47.2969,-122.9247 51.0833,-117.0371"/>
</g>
<!-- Node29 -->
<g id="node3" class="node">
<title>Node29</title>
<g id="a_node3"><a xlink:href="classElement.html#a1fdb9455f49d2c66a0276925f7246cad" target="_top" xlink:title="Routines to be conducted when a wrapper of getter is called from Python. ">
<polygon fill="#ffffff" stroke="#000000" points="89,-114.5 89,-133.5 211,-133.5 211,-114.5 89,-114.5"/>
<text text-anchor="middle" x="150" y="-121.5" font-family="Helvetica,sans-Serif" font-size="10.00" fill="#000000">Element::init_for_python</text>
</a>
</g>
</g>
<!-- Node27&#45;&gt;Node29 -->
<g id="edge2" class="edge">
<title>Node27&#45;&gt;Node29</title>
<path fill="none" stroke="#191970" d="M63.397,-110.6765C71.4174,-111.9104 80.1093,-113.2476 88.7871,-114.5826"/>
<polygon fill="#191970" stroke="#191970" points="63.7136,-107.1841 53.2977,-109.1227 62.6491,-114.1027 63.7136,-107.1841"/>
</g>
<!-- Node37 -->
<g id="node11" class="node">
<title>Node37</title>
<g id="a_node11"><a xlink:href="classInvOMP.html#a6d30ee44e69355e633855773a4d8cfef" target="_top" xlink:title="Implementation how to execute a computationally expensive part of analysis. ">
<polygon fill="#ffffff" stroke="#000000" points="92,-76.5 92,-95.5 208,-95.5 208,-76.5 92,-76.5"/>
<text text-anchor="middle" x="150" y="-83.5" font-family="Helvetica,sans-Serif" font-size="10.00" fill="#000000">InvOMP::execute_impl</text>
</a>
</g>
</g>
<!-- Node27&#45;&gt;Node37 -->
<g id="edge15" class="edge">
<title>Node27&#45;&gt;Node37</title>
<path fill="none" stroke="#191970" d="M63.375,-99.3269C72.3367,-97.9482 82.1377,-96.4404 91.8212,-94.9506"/>
<polygon fill="#191970" stroke="#191970" points="62.6491,-95.8973 53.2977,-100.8773 63.7136,-102.8159 62.6491,-95.8973"/>
</g>
<!-- Node38 -->
<g id="node12" class="node">
<title>Node38</title>
<g id="a_node12"><a xlink:href="classInvoker.html#a72e473312201d41ea0711cea5346476c" target="_top" xlink:title="Execute analysis defined by elements of processors. ">
<polygon fill="#ffffff" stroke="#000000" points="105.5,-19.5 105.5,-38.5 194.5,-38.5 194.5,-19.5 105.5,-19.5"/>
<text text-anchor="middle" x="150" y="-26.5" font-family="Helvetica,sans-Serif" font-size="10.00" fill="#000000">Invoker::execute</text>
</a>
</g>
</g>
<!-- Node27&#45;&gt;Node38 -->
<g id="edge16" class="edge">
<title>Node27&#45;&gt;Node38</title>
<path fill="none" stroke="#191970" d="M50.9673,-89.9432C75.7993,-74.662 113.488,-51.4689 134.4856,-38.5473"/>
<polygon fill="#191970" stroke="#191970" points="48.8236,-87.1527 42.1414,-95.3745 52.4923,-93.1143 48.8236,-87.1527"/>
</g>
<!-- Node30 -->
<g id="node4" class="node">
<title>Node30</title>
<g id="a_node4"><a xlink:href="classElement.html#a62989090a40d237e617bc6e5f5087388" target="_top" xlink:title="Wrapper for get_data method, which returns a reference. ">
<polygon fill="#ffffff" stroke="#000000" points="255,-228.5 255,-247.5 367,-247.5 367,-228.5 255,-228.5"/>
<text text-anchor="middle" x="311" y="-235.5" font-family="Helvetica,sans-Serif" font-size="10.00" fill="#000000">Element::get_data_py</text>
</a>
</g>
</g>
<!-- Node29&#45;&gt;Node30 -->
<g id="edge3" class="edge">
<title>Node29&#45;&gt;Node30</title>
<path fill="none" stroke="#191970" d="M202.9521,-138.173C205.8163,-139.898 208.5283,-141.832 211,-144 238.7964,-168.3818 218.8622,-195.0131 247,-219 251.5866,-222.91 256.9505,-226.0155 262.5867,-228.482"/>
<polygon fill="#191970" stroke="#191970" points="204.4894,-135.0281 193.9913,-133.5996 201.3072,-141.263 204.4894,-135.0281"/>
</g>
<!-- Node32 -->
<g id="node6" class="node">
<title>Node32</title>
<g id="a_node6"><a xlink:href="classElement.html#ae253cbec6307a157902d7f25867ded2b" target="_top" xlink:title="Wrapper for get_keys method. ">
<polygon fill="#ffffff" stroke="#000000" points="254,-190.5 254,-209.5 368,-209.5 368,-190.5 254,-190.5"/>
<text text-anchor="middle" x="311" y="-197.5" font-family="Helvetica,sans-Serif" font-size="10.00" fill="#000000">Element::get_keys_py</text>
</a>
</g>
</g>
<!-- Node29&#45;&gt;Node32 -->
<g id="edge5" class="edge">
<title>Node29&#45;&gt;Node32</title>
<path fill="none" stroke="#191970" d="M198.0509,-137.2618C202.5651,-139.2396 206.9581,-141.4774 211,-144 230.4641,-156.1478 227.3663,-169.1282 247,-181 253.3477,-184.8382 260.5215,-187.9448 267.7117,-190.4457"/>
<polygon fill="#191970" stroke="#191970" points="199.2749,-133.9821 188.6885,-133.5594 196.7006,-140.4916 199.2749,-133.9821"/>
</g>
<!-- Node33 -->
<g id="node7" class="node">
<title>Node33</title>
<g id="a_node7"><a xlink:href="classElement.html#a8257b02b1e3b208f193b35d5d47b9af8" target="_top" xlink:title="Wrapper for array1d method for integer values. ">
<polygon fill="#ffffff" stroke="#000000" points="251.5,-152.5 251.5,-171.5 370.5,-171.5 370.5,-152.5 251.5,-152.5"/>
<text text-anchor="middle" x="311" y="-159.5" font-family="Helvetica,sans-Serif" font-size="10.00" fill="#000000">Element::get_1d_int_py</text>
</a>
</g>
</g>
<!-- Node29&#45;&gt;Node33 -->
<g id="edge7" class="edge">
<title>Node29&#45;&gt;Node33</title>
<path fill="none" stroke="#191970" d="M200.4018,-135.8961C223.032,-141.2374 249.3695,-147.4537 270.665,-152.4799"/>
<polygon fill="#191970" stroke="#191970" points="201.1637,-132.4798 190.6271,-133.589 199.5557,-139.2926 201.1637,-132.4798"/>
</g>
<!-- Node34 -->
<g id="node8" class="node">
<title>Node34</title>
<g id="a_node8"><a xlink:href="classElement.html#a3f11848589faad4cbca8119385887713" target="_top" xlink:title="Wrapper for array1d method for float (double in C++) values. ">
<polygon fill="#ffffff" stroke="#000000" points="247,-114.5 247,-133.5 375,-133.5 375,-114.5 247,-114.5"/>
<text text-anchor="middle" x="311" y="-121.5" font-family="Helvetica,sans-Serif" font-size="10.00" fill="#000000">Element::get_1d_float_py</text>
</a>
</g>
</g>
<!-- Node29&#45;&gt;Node34 -->
<g id="edge9" class="edge">
<title>Node29&#45;&gt;Node34</title>
<path fill="none" stroke="#191970" d="M221.5386,-124C229.9857,-124 238.566,-124 246.9014,-124"/>
<polygon fill="#191970" stroke="#191970" points="221.3265,-120.5001 211.3265,-124 221.3264,-127.5001 221.3265,-120.5001"/>
</g>
<!-- Node35 -->
<g id="node9" class="node">
<title>Node35</title>
<g id="a_node9"><a xlink:href="classElement.html#a8e8245fb94b6417e3e804e6bfdf2f906" target="_top" xlink:title="Wrapper for array2d method for integer values. ">
<polygon fill="#ffffff" stroke="#000000" points="251.5,-76.5 251.5,-95.5 370.5,-95.5 370.5,-76.5 251.5,-76.5"/>
<text text-anchor="middle" x="311" y="-83.5" font-family="Helvetica,sans-Serif" font-size="10.00" fill="#000000">Element::get_2d_int_py</text>
</a>
</g>
</g>
<!-- Node29&#45;&gt;Node35 -->
<g id="edge11" class="edge">
<title>Node29&#45;&gt;Node35</title>
<path fill="none" stroke="#191970" d="M200.4018,-112.1039C223.032,-106.7626 249.3695,-100.5463 270.665,-95.5201"/>
<polygon fill="#191970" stroke="#191970" points="199.5557,-108.7074 190.6271,-114.411 201.1637,-115.5202 199.5557,-108.7074"/>
</g>
<!-- Node36 -->
<g id="node10" class="node">
<title>Node36</title>
<g id="a_node10"><a xlink:href="classElement.html#a6a62280eadd3d4e6bfe8c43082797733" target="_top" xlink:title="Wrapper for array2d method for float (double in C++) values. ">
<polygon fill="#ffffff" stroke="#000000" points="247,-38.5 247,-57.5 375,-57.5 375,-38.5 247,-38.5"/>
<text text-anchor="middle" x="311" y="-45.5" font-family="Helvetica,sans-Serif" font-size="10.00" fill="#000000">Element::get_2d_float_py</text>
</a>
</g>
</g>
<!-- Node29&#45;&gt;Node36 -->
<g id="edge13" class="edge">
<title>Node29&#45;&gt;Node36</title>
<path fill="none" stroke="#191970" d="M200.3532,-110.6358C204.0602,-108.9573 207.6535,-107.085 211,-105 230.7456,-92.6978 227.1726,-79.17 247,-67 253.2232,-63.1802 260.2594,-60.0898 267.3315,-57.6011"/>
<polygon fill="#191970" stroke="#191970" points="198.9429,-107.4306 190.9802,-114.4195 201.5633,-113.9217 198.9429,-107.4306"/>
</g>
<!-- Node31 -->
<g id="node5" class="node">
<title>Node31</title>
<g id="a_node5"><a xlink:href="py__element_8h.html#a32471b3cace9ede01900bfbdaca5e16a" target="_top" xlink:title="Function to bind Element class to Python. ">
<polygon fill="#ffffff" stroke="#000000" points="411,-133.5 411,-152.5 496,-152.5 496,-133.5 411,-133.5"/>
<text text-anchor="middle" x="453.5" y="-140.5" font-family="Helvetica,sans-Serif" font-size="10.00" fill="#000000">pybind_element</text>
</a>
</g>
</g>
<!-- Node30&#45;&gt;Node31 -->
<g id="edge4" class="edge">
<title>Node30&#45;&gt;Node31</title>
<path fill="none" stroke="#191970" d="M363.3917,-224.7654C367.4222,-223.0534 371.3413,-221.1383 375,-219 405.6254,-201.1012 433.3954,-168.799 446.1403,-152.6864"/>
<polygon fill="#191970" stroke="#191970" points="361.9525,-221.5683 353.8552,-228.401 364.446,-228.1091 361.9525,-221.5683"/>
</g>
<!-- Node32&#45;&gt;Node31 -->
<g id="edge6" class="edge">
<title>Node32&#45;&gt;Node31</title>
<path fill="none" stroke="#191970" d="M356.5966,-187.4556C362.8345,-185.4518 369.1134,-183.2812 375,-181 396.4597,-172.6838 420.1103,-160.8466 435.7848,-152.6014"/>
<polygon fill="#191970" stroke="#191970" points="355.4089,-184.1593 346.8904,-190.4591 357.4782,-190.8465 355.4089,-184.1593"/>
</g>
<!-- Node33&#45;&gt;Node31 -->
<g id="edge8" class="edge">
<title>Node33&#45;&gt;Node31</title>
<path fill="none" stroke="#191970" d="M380.7498,-152.7C390.9369,-151.3417 401.1649,-149.978 410.6004,-148.7199"/>
<polygon fill="#191970" stroke="#191970" points="380.0568,-149.2614 370.6072,-154.0524 380.982,-156.2 380.0568,-149.2614"/>
</g>
<!-- Node34&#45;&gt;Node31 -->
<g id="edge10" class="edge">
<title>Node34&#45;&gt;Node31</title>
<path fill="none" stroke="#191970" d="M385.1344,-133.8846C393.9695,-135.0626 402.7453,-136.2327 410.9172,-137.3223"/>
<polygon fill="#191970" stroke="#191970" points="385.5381,-130.4075 375.1633,-132.5551 384.6129,-137.3461 385.5381,-130.4075"/>
</g>
<!-- Node35&#45;&gt;Node31 -->
<g id="edge12" class="edge">
<title>Node35&#45;&gt;Node31</title>
<path fill="none" stroke="#191970" d="M356.5966,-98.5444C362.8345,-100.5482 369.1134,-102.7188 375,-105 396.4597,-113.3162 420.1103,-125.1534 435.7848,-133.3986"/>
<polygon fill="#191970" stroke="#191970" points="357.4782,-95.1535 346.8904,-95.5409 355.4089,-101.8407 357.4782,-95.1535"/>
</g>
<!-- Node36&#45;&gt;Node31 -->
<g id="edge14" class="edge">
<title>Node36&#45;&gt;Node31</title>
<path fill="none" stroke="#191970" d="M363.3917,-61.2346C367.4222,-62.9466 371.3413,-64.8617 375,-67 405.6254,-84.8988 433.3954,-117.201 446.1403,-133.3136"/>
<polygon fill="#191970" stroke="#191970" points="364.446,-57.8909 353.8552,-57.599 361.9525,-64.4317 364.446,-57.8909"/>
</g>
<!-- Node39 -->
<g id="node13" class="node">
<title>Node39</title>
<g id="a_node13"><a xlink:href="py__invoker_8h.html#a862abb0356ee584e3363ac24ec776fbb" target="_top" xlink:title="Function to bind Invoker class to Python. ">
<polygon fill="#ffffff" stroke="#000000" points="270,-.5 270,-19.5 352,-19.5 352,-.5 270,-.5"/>
<text text-anchor="middle" x="311" y="-7.5" font-family="Helvetica,sans-Serif" font-size="10.00" fill="#000000">pybind_invoker</text>
</a>
</g>
</g>
<!-- Node38&#45;&gt;Node39 -->
<g id="edge17" class="edge">
<title>Node38&#45;&gt;Node39</title>
<path fill="none" stroke="#191970" d="M205.0509,-22.5033C226.3294,-19.9922 250.2523,-17.169 269.9743,-14.8415"/>
<polygon fill="#191970" stroke="#191970" points="204.3683,-19.0595 194.8475,-23.7074 205.1888,-26.0112 204.3683,-19.0595"/>
</g>
</g>
</svg>
        <g id="navigator" transform="translate(0 0)" fill="#404254">
                <rect fill="#f2f5e9" fill-opacity="0.5" stroke="#606060" stroke-width=".5" x="0" y="0" width="60" height="60"/>
                <use id="zoomplus" xlink:href="#zoomPlus" x="17" y="9" onmousedown="handleZoom(evt,'in')"/>
                <use id="zoomminus" xlink:href="#zoomMin" x="42" y="9" onmousedown="handleZoom(evt,'out')"/>
                <use id="reset" xlink:href="#resetDef" x="30" y="36" onmousedown="handleReset()"/>
                <g id="arrowUp" xlink:href="#dirArrow" transform="translate(30 24)" onmousedown="handlePan(0,-1)">
                  <use xlink:href="#rim" fill="#404040">
                        <set attributeName="fill" to="#808080" begin="arrowUp.mouseover" end="arrowUp.mouseout"/>
                  </use>
                  <path fill="none" stroke="white" stroke-width="1.5" d="M0,-3.0v7 M-2.5,-0.5L0,-3.0L2.5,-0.5"/>
                </g>
                <g id="arrowRight" xlink:href="#dirArrow" transform="rotate(90) translate(36 -43)" onmousedown="handlePan(1,0)">
                  <use xlink:href="#rim" fill="#404040">
                        <set attributeName="fill" to="#808080" begin="arrowRight.mouseover" end="arrowRight.mouseout"/>
                  </use>
                  <path fill="none" stroke="white" stroke-width="1.5" d="M0,-3.0v7 M-2.5,-0.5L0,-3.0L2.5,-0.5"/>
                </g>
                <g id="arrowDown" xlink:href="#dirArrow" transform="rotate(180) translate(-30 -48)" onmousedown="handlePan(0,1)">
                  <use xlink:href="#rim" fill="#404040">
                        <set attributeName="fill" to="#808080" begin="arrowDown.mouseover" end="arrowDown.mouseout"/>
                  </use>
                  <path fill="none" stroke="white" stroke-width="1.5" d="M0,-3.0v7 M-2.5,-0.5L0,-3.0L2.5,-0.5"/>
                </g>
                <g id="arrowLeft" xlink:href="#dirArrow" transform="rotate(270) translate(-36 17)" onmousedown="handlePan(-1,0)">
                  <use xlink:href="#rim" fill="#404040">
                        <set attributeName="fill" to="#808080" begin="arrowLeft.mouseover" end="arrowLeft.mouseout"/>
                  </use>
                  <path fill="none" stroke="white" stroke-width="1.5" d="M0,-3.0v7 M-2.5,-0.5L0,-3.0L2.5,-0.5"/>
                </g>
        </g>
        <svg viewBox="0 0 15 15" width="100%" height="30px" preserveAspectRatio="xMaxYMin meet">
         <g id="arrow_out" transform="scale(0.3 0.3)">
          <a xlink:href="namespaceutils_a26267fe7371b6215c5d61374d716527b_icgraph_org.svg" target="_base">
           <rect id="button" ry="5" rx="5" y="6" x="6" height="38" width="38"
                fill="#f2f5e9" fill-opacity="0.5" stroke="#606060" stroke-width="1.0"/>
           <path id="arrow"
             d="M 11.500037,31.436501 C 11.940474,20.09759 22.043105,11.32322 32.158766,21.979434 L 37.068811,17.246167 C 37.068811,17.246167 37.088388,32 37.088388,32 L 22.160133,31.978069 C 22.160133,31.978069 26.997745,27.140456 26.997745,27.140456 C 18.528582,18.264221 13.291696,25.230495 11.500037,31.436501 z"
             style="fill:#404040;"/>
          </a>
         </g>
        </svg>
</svg>
