<?xml version="1.0" encoding="UTF-8" standalone="no"?>
<!DOCTYPE svg PUBLIC "-//W3C//DTD SVG 1.1//EN"
 "http://www.w3.org/Graphics/SVG/1.1/DTD/svg11.dtd">
<!-- Generated by graphviz version 2.40.1 (20161225.0304)
 -->
<!-- Title: src/processors/pro_radial_distribution_function_with_deformation.cpp Pages: 1 -->
<!--zoomable 576 -->
<svg id="main" version="1.1" xmlns="http://www.w3.org/2000/svg" xmlns:xlink="http://www.w3.org/1999/xlink" xml:space="preserve" onload="init(evt)">
<style type="text/css"><![CDATA[
.edge:hover path { stroke: red; }
.edge:hover polygon { stroke: red; fill: red; }
]]></style>
<script type="text/javascript"><![CDATA[
var edges = document.getElementsByTagName('g');
if (edges && edges.length) {
  for (var i=0;i<edges.length;i++) {
    if (edges[i].id.substr(0,4)=='edge') {
      edges[i].setAttribute('class','edge');
    }
  }
}
]]></script>
        <defs>
                <circle id="rim" cx="0" cy="0" r="7"/>
                <circle id="rim2" cx="0" cy="0" r="3.5"/>
                <g id="zoomPlus">
                        <use xlink:href="#rim" fill="#404040">
                                <set attributeName="fill" to="#808080" begin="zoomplus.mouseover" end="zoomplus.mouseout"/>
                        </use>
                        <path d="M-4,0h8M0,-4v8" fill="none" stroke="white" stroke-width="1.5" pointer-events="none"/>
                </g>
                <g id="zoomMin">
                        <use xlink:href="#rim" fill="#404040">
                                <set attributeName="fill" to="#808080" begin="zoomminus.mouseover" end="zoomminus.mouseout"/>
                        </use>
                        <path d="M-4,0h8" fill="none" stroke="white" stroke-width="1.5" pointer-events="none"/>
                </g>
                <g id="dirArrow">
                        <path fill="none" stroke="white" stroke-width="1.5" d="M0,-3.0v7 M-2.5,-0.5L0,-3.0L2.5,-0.5"/>
                </g>
               <g id="resetDef">
                       <use xlink:href="#rim2" fill="#404040">
                               <set attributeName="fill" to="#808080" begin="reset.mouseover" end="reset.mouseout"/>
                       </use>
               </g>
        </defs>

<script type="text/javascript">
var viewWidth = 671;
var viewHeight = 576;
var sectionId = 'dynsection-0';
</script>
<script xlink:href="svgpan.js"/>
<svg id="graph" class="graph">
<g id="viewport">
<title>src/processors/pro_radial_distribution_function_with_deformation.cpp</title>
<polygon fill="#ffffff" stroke="transparent" points="-4,4 -4,-572 667,-572 667,4 -4,4"/>
<!-- Node0 -->
<g id="node1" class="node">
<title>Node0</title>
<polygon fill="#bfbfbf" stroke="#000000" points="414,-526.5 414,-567.5 568,-567.5 568,-526.5 414,-526.5"/>
<text text-anchor="start" x="422" y="-555.5" font-family="Helvetica,sans-Serif" font-size="10.00" fill="#000000">src/processors/pro</text>
<text text-anchor="start" x="422" y="-544.5" font-family="Helvetica,sans-Serif" font-size="10.00" fill="#000000">_radial_distribution</text>
<text text-anchor="middle" x="491" y="-533.5" font-family="Helvetica,sans-Serif" font-size="10.00" fill="#000000">_function_with_deformation.cpp</text>
</g>
<!-- Node1 -->
<g id="node2" class="node">
<title>Node1</title>
<g id="a_node2"><a xlink:href="pro__radial__distribution__function__with__deformation_8h.html" target="_top" xlink:title="This file has a definition of ProRadialDistributionFunctionWithDeformation class, which is a subclass...">
<polygon fill="#ffffff" stroke="#000000" points="307.5,-459.5 307.5,-489.5 450.5,-489.5 450.5,-459.5 307.5,-459.5"/>
<text text-anchor="start" x="315.5" y="-477.5" font-family="Helvetica,sans-Serif" font-size="10.00" fill="#000000">pro_radial_distribution</text>
<text text-anchor="middle" x="379" y="-466.5" font-family="Helvetica,sans-Serif" font-size="10.00" fill="#000000">_function_with_deformation.h</text>
</a>
</g>
</g>
<!-- Node0&#45;&gt;Node1 -->
<g id="edge1" class="edge">
<title>Node0&#45;&gt;Node1</title>
<path fill="none" stroke="#191970" d="M459.2049,-526.4183C444.0676,-516.6196 426.0085,-504.9296 410.8625,-495.1253"/>
<polygon fill="#191970" stroke="#191970" points="412.6222,-492.0951 402.3255,-489.5991 408.8183,-497.9714 412.6222,-492.0951"/>
</g>
<!-- Node23 -->
<g id="node24" class="node">
<title>Node23</title>
<g id="a_node24"><a xlink:href="message_8h.html" target="_top" xlink:title="This file has definitions of messaging functions. ">
<polygon fill="#ffffff" stroke="#000000" points="443.5,-398 443.5,-417 538.5,-417 538.5,-398 443.5,-398"/>
<text text-anchor="middle" x="491" y="-405" font-family="Helvetica,sans-Serif" font-size="10.00" fill="#000000">../utils/message.h</text>
</a>
</g>
</g>
<!-- Node0&#45;&gt;Node23 -->
<g id="edge27" class="edge">
<title>Node0&#45;&gt;Node23</title>
<path fill="none" stroke="#191970" d="M491,-526.4163C491,-499.7443 491,-453.5566 491,-427.2824"/>
<polygon fill="#191970" stroke="#191970" points="494.5001,-427.054 491,-417.0541 487.5001,-427.0541 494.5001,-427.054"/>
</g>
<!-- Node24 -->
<g id="node25" class="node">
<title>Node24</title>
<g id="a_node25"><a xlink:href="runtime__error_8h.html" target="_top" xlink:title="This file has a definition of utils::runtime_error. ">
<polygon fill="#ffffff" stroke="#000000" points="519,-336.5 519,-355.5 631,-355.5 631,-336.5 519,-336.5"/>
<text text-anchor="middle" x="575" y="-343.5" font-family="Helvetica,sans-Serif" font-size="10.00" fill="#000000">../utils/runtime_error.h</text>
</a>
</g>
</g>
<!-- Node0&#45;&gt;Node24 -->
<g id="edge29" class="edge">
<title>Node0&#45;&gt;Node24</title>
<path fill="none" stroke="#191970" d="M501.2884,-526.199C513.1985,-501.7745 533.0855,-459.905 548,-423 555.849,-403.578 563.6392,-380.9016 568.8196,-365.2109"/>
<polygon fill="#191970" stroke="#191970" points="572.1841,-366.1825 571.9577,-355.59 565.5292,-364.0117 572.1841,-366.1825"/>
</g>
<!-- Node2 -->
<g id="node3" class="node">
<title>Node2</title>
<g id="a_node3"><a xlink:href="pro__radial__distribution__function_8h.html" target="_top" xlink:title="This file has a definition of ProRadialDistributionFunction class, which is a subclass of Processor c...">
<polygon fill="#ffffff" stroke="#000000" points="287.5,-392.5 287.5,-422.5 404.5,-422.5 404.5,-392.5 287.5,-392.5"/>
<text text-anchor="start" x="295.5" y="-410.5" font-family="Helvetica,sans-Serif" font-size="10.00" fill="#000000">processors/pro_radial</text>
<text text-anchor="middle" x="346" y="-399.5" font-family="Helvetica,sans-Serif" font-size="10.00" fill="#000000">_distribution_function.h</text>
</a>
</g>
</g>
<!-- Node1&#45;&gt;Node2 -->
<g id="edge2" class="edge">
<title>Node1&#45;&gt;Node2</title>
<path fill="none" stroke="#191970" d="M371.5118,-459.2967C367.5035,-451.1586 362.4717,-440.9425 357.9384,-431.7386"/>
<polygon fill="#191970" stroke="#191970" points="361.0169,-430.0676 353.4586,-422.6432 354.7373,-433.1606 361.0169,-430.0676"/>
</g>
<!-- Node3 -->
<g id="node4" class="node">
<title>Node3</title>
<g id="a_node4"><a xlink:href="processor_8h.html" target="_top" xlink:title="This file has a definition of Processor class, where an analysis process is programmed. ">
<polygon fill="#ffffff" stroke="#000000" points="244.5,-336.5 244.5,-355.5 363.5,-355.5 363.5,-336.5 244.5,-336.5"/>
<text text-anchor="middle" x="304" y="-343.5" font-family="Helvetica,sans-Serif" font-size="10.00" fill="#000000">processors/processor.h</text>
</a>
</g>
</g>
<!-- Node2&#45;&gt;Node3 -->
<g id="edge3" class="edge">
<title>Node2&#45;&gt;Node3</title>
<path fill="none" stroke="#191970" d="M335.618,-392.2977C329.8487,-383.8498 322.6284,-373.2773 316.5447,-364.369"/>
<polygon fill="#191970" stroke="#191970" points="319.2547,-362.1311 310.7247,-355.8469 313.4741,-366.0788 319.2547,-362.1311"/>
</g>
<!-- Node4 -->
<g id="node5" class="node">
<title>Node4</title>
<g id="a_node5"><a xlink:href="generators_8h.html" target="_top" xlink:title="This file includes all the header files of subclasses of Generator class. ">
<polygon fill="#ffffff" stroke="#000000" points="252,-280.5 252,-299.5 344,-299.5 344,-280.5 252,-280.5"/>
<text text-anchor="middle" x="298" y="-287.5" font-family="Helvetica,sans-Serif" font-size="10.00" fill="#000000">core/generators.h</text>
</a>
</g>
</g>
<!-- Node3&#45;&gt;Node4 -->
<g id="edge4" class="edge">
<title>Node3&#45;&gt;Node4</title>
<path fill="none" stroke="#191970" d="M302.9549,-336.2455C302.172,-328.9382 301.0744,-318.6944 300.1112,-309.7046"/>
<polygon fill="#191970" stroke="#191970" points="303.5786,-309.2129 299.0331,-299.6427 296.6185,-309.9587 303.5786,-309.2129"/>
</g>
<!-- Node5 -->
<g id="node6" class="node">
<title>Node5</title>
<g id="a_node6"><a xlink:href="element_8h.html" target="_top" xlink:title="This file has a definition of Element class, which is one of the cores of this program. ">
<polygon fill="#ffffff" stroke="#000000" points="211.5,-168.5 211.5,-187.5 292.5,-187.5 292.5,-168.5 211.5,-168.5"/>
<text text-anchor="middle" x="252" y="-175.5" font-family="Helvetica,sans-Serif" font-size="10.00" fill="#000000">core/element.h</text>
</a>
</g>
</g>
<!-- Node4&#45;&gt;Node5 -->
<g id="edge5" class="edge">
<title>Node4&#45;&gt;Node5</title>
<path fill="none" stroke="#191970" d="M276.2342,-280.3857C261.9336,-272.773 244.3748,-260.6416 236,-244 228.4938,-229.0843 234.1897,-210.4724 240.7776,-196.8189"/>
<polygon fill="#191970" stroke="#191970" points="243.9297,-198.3464 245.5562,-187.8772 237.756,-195.047 243.9297,-198.3464"/>
</g>
<!-- Node21 -->
<g id="node22" class="node">
<title>Node21</title>
<g id="a_node22"><a xlink:href="gen__dict_8h.html" target="_top" xlink:title="This file has a definition of GenDict class. ">
<polygon fill="#ffffff" stroke="#000000" points="245.5,-224.5 245.5,-243.5 328.5,-243.5 328.5,-224.5 245.5,-224.5"/>
<text text-anchor="middle" x="287" y="-231.5" font-family="Helvetica,sans-Serif" font-size="10.00" fill="#000000">core/gen_dict.h</text>
</a>
</g>
</g>
<!-- Node4&#45;&gt;Node21 -->
<g id="edge23" class="edge">
<title>Node4&#45;&gt;Node21</title>
<path fill="none" stroke="#191970" d="M296.0839,-280.2455C294.6486,-272.9382 292.6364,-262.6944 290.8705,-253.7046"/>
<polygon fill="#191970" stroke="#191970" points="294.256,-252.7805 288.8941,-243.6427 287.3873,-254.1298 294.256,-252.7805"/>
</g>
<!-- Node22 -->
<g id="node23" class="node">
<title>Node22</title>
<g id="a_node23"><a xlink:href="gen__list_8h.html" target="_top" xlink:title="This file has a definition of GenList class. ">
<polygon fill="#ffffff" stroke="#000000" points="347,-224.5 347,-243.5 427,-243.5 427,-224.5 347,-224.5"/>
<text text-anchor="middle" x="387" y="-231.5" font-family="Helvetica,sans-Serif" font-size="10.00" fill="#000000">core/gen_list.h</text>
</a>
</g>
</g>
<!-- Node4&#45;&gt;Node22 -->
<g id="edge25" class="edge">
<title>Node4&#45;&gt;Node22</title>
<path fill="none" stroke="#191970" d="M313.5026,-280.2455C327.158,-271.6534 347.2657,-259.0014 362.9989,-249.1018"/>
<polygon fill="#191970" stroke="#191970" points="365.0751,-251.9307 371.675,-243.6427 361.3471,-246.006 365.0751,-251.9307"/>
</g>
<!-- Node6 -->
<g id="node7" class="node">
<title>Node6</title>
<polygon fill="#ffffff" stroke="#bfbfbf" points="419,-112.5 419,-131.5 463,-131.5 463,-112.5 419,-112.5"/>
<text text-anchor="middle" x="441" y="-119.5" font-family="Helvetica,sans-Serif" font-size="10.00" fill="#000000">omp.h</text>
</g>
<!-- Node5&#45;&gt;Node6 -->
<g id="edge6" class="edge">
<title>Node5&#45;&gt;Node6</title>
<path fill="none" stroke="#191970" d="M285.6794,-168.4978C315.7217,-159.9546 361.1321,-146.8775 409.0582,-132.2352"/>
<polygon fill="#191970" stroke="#191970" points="410.1387,-135.5648 418.6731,-129.2868 408.0864,-128.8724 410.1387,-135.5648"/>
</g>
<!-- Node7 -->
<g id="node8" class="node">
<title>Node7</title>
<g id="a_node8"><a xlink:href="eigen_8h.html" target="_top" xlink:title="This file includes Eigen and defines some aliases for the Eigen&#45;Vector, Matrix and Array...">
<polygon fill="#ffffff" stroke="#000000" points="7.5,-112.5 7.5,-131.5 78.5,-131.5 78.5,-112.5 7.5,-112.5"/>
<text text-anchor="middle" x="43" y="-119.5" font-family="Helvetica,sans-Serif" font-size="10.00" fill="#000000">alias/eigen.h</text>
</a>
</g>
</g>
<!-- Node5&#45;&gt;Node7 -->
<g id="edge7" class="edge">
<title>Node5&#45;&gt;Node7</title>
<path fill="none" stroke="#191970" d="M216.0716,-168.3733C180.7163,-158.9001 126.612,-144.4032 88.3212,-134.1435"/>
<polygon fill="#191970" stroke="#191970" points="89.0247,-130.7086 78.4595,-131.5011 87.213,-137.4701 89.0247,-130.7086"/>
</g>
<!-- Node9 -->
<g id="node10" class="node">
<title>Node9</title>
<g id="a_node10"><a xlink:href="alias_2pybind_8h.html" target="_top" xlink:title="This file includes pybind11 and defines an alias for the namespace pybind11. ">
<polygon fill="#ffffff" stroke="#000000" points="103.5,-112.5 103.5,-131.5 180.5,-131.5 180.5,-112.5 103.5,-112.5"/>
<text text-anchor="middle" x="142" y="-119.5" font-family="Helvetica,sans-Serif" font-size="10.00" fill="#000000">alias/pybind.h</text>
</a>
</g>
</g>
<!-- Node5&#45;&gt;Node9 -->
<g id="edge9" class="edge">
<title>Node5&#45;&gt;Node9</title>
<path fill="none" stroke="#191970" d="M232.8395,-168.2455C215.4889,-159.4125 189.7099,-146.2887 170.0417,-136.2758"/>
<polygon fill="#191970" stroke="#191970" points="171.4405,-133.0605 160.941,-131.6427 168.2647,-139.2986 171.4405,-133.0605"/>
</g>
<!-- Node11 -->
<g id="node12" class="node">
<title>Node11</title>
<g id="a_node12"><a xlink:href="generator_8h.html" target="_top" xlink:title="This file has a definition of Generator class, which is one of the cores of this program. ">
<polygon fill="#ffffff" stroke="#000000" points="313.5,-112.5 313.5,-131.5 400.5,-131.5 400.5,-112.5 313.5,-112.5"/>
<text text-anchor="middle" x="357" y="-119.5" font-family="Helvetica,sans-Serif" font-size="10.00" fill="#000000">core/generator.h</text>
</a>
</g>
</g>
<!-- Node5&#45;&gt;Node11 -->
<g id="edge11" class="edge">
<title>Node5&#45;&gt;Node11</title>
<path fill="none" stroke="#191970" d="M270.2896,-168.2455C286.7762,-159.4527 311.2352,-146.4079 329.9765,-136.4125"/>
<polygon fill="#191970" stroke="#191970" points="331.7435,-139.4368 338.92,-131.6427 328.4494,-133.2604 331.7435,-139.4368"/>
</g>
<!-- Node20 -->
<g id="node21" class="node">
<title>Node20</title>
<g id="a_node21"><a xlink:href="data__keys_8h.html" target="_top" xlink:title="This file has a definition of DataKeys class, which is owned by Element class. ">
<polygon fill="#ffffff" stroke="#000000" points="199,-112.5 199,-131.5 295,-131.5 295,-112.5 199,-112.5"/>
<text text-anchor="middle" x="247" y="-119.5" font-family="Helvetica,sans-Serif" font-size="10.00" fill="#000000">class/data_keys.h</text>
</a>
</g>
</g>
<!-- Node5&#45;&gt;Node20 -->
<g id="edge20" class="edge">
<title>Node5&#45;&gt;Node20</title>
<path fill="none" stroke="#191970" d="M251.1291,-168.2455C250.4766,-160.9382 249.562,-150.6944 248.7593,-141.7046"/>
<polygon fill="#191970" stroke="#191970" points="252.2365,-141.2918 247.861,-131.6427 245.2642,-141.9143 252.2365,-141.2918"/>
</g>
<!-- Node8 -->
<g id="node9" class="node">
<title>Node8</title>
<polygon fill="#ffffff" stroke="#bfbfbf" points="0,-56.5 0,-75.5 72,-75.5 72,-56.5 0,-56.5"/>
<text text-anchor="middle" x="36" y="-63.5" font-family="Helvetica,sans-Serif" font-size="10.00" fill="#000000">Eigen/Dense</text>
</g>
<!-- Node7&#45;&gt;Node8 -->
<g id="edge8" class="edge">
<title>Node7&#45;&gt;Node8</title>
<path fill="none" stroke="#191970" d="M41.7807,-112.2455C40.8673,-104.9382 39.5868,-94.6944 38.4631,-85.7046"/>
<polygon fill="#191970" stroke="#191970" points="41.9187,-85.1313 37.2053,-75.6427 34.9728,-85.9996 41.9187,-85.1313"/>
</g>
<!-- Node10 -->
<g id="node11" class="node">
<title>Node10</title>
<polygon fill="#ffffff" stroke="#bfbfbf" points="90,-56.5 90,-75.5 196,-75.5 196,-56.5 90,-56.5"/>
<text text-anchor="middle" x="143" y="-63.5" font-family="Helvetica,sans-Serif" font-size="10.00" fill="#000000">pybind11/pybind11.h</text>
</g>
<!-- Node9&#45;&gt;Node10 -->
<g id="edge10" class="edge">
<title>Node9&#45;&gt;Node10</title>
<path fill="none" stroke="#191970" d="M142.1742,-112.2455C142.3047,-104.9382 142.4876,-94.6944 142.6481,-85.7046"/>
<polygon fill="#191970" stroke="#191970" points="146.1486,-85.7036 142.8278,-75.6427 139.1497,-85.5786 146.1486,-85.7036"/>
</g>
<!-- Node12 -->
<g id="node13" class="node">
<title>Node12</title>
<g id="a_node13"><a xlink:href="std_8h.html" target="_top" xlink:title="This file includes a part of C++ Standard Template Library and defines aliases for them...">
<polygon fill="#ffffff" stroke="#000000" points="460,-56.5 460,-75.5 522,-75.5 522,-56.5 460,-56.5"/>
<text text-anchor="middle" x="491" y="-63.5" font-family="Helvetica,sans-Serif" font-size="10.00" fill="#000000">alias/std.h</text>
</a>
</g>
</g>
<!-- Node11&#45;&gt;Node12 -->
<g id="edge12" class="edge">
<title>Node11&#45;&gt;Node12</title>
<path fill="none" stroke="#191970" d="M380.0354,-112.3733C401.7388,-103.3032 434.4618,-89.6279 458.755,-79.4755"/>
<polygon fill="#191970" stroke="#191970" points="460.3881,-82.5865 468.2652,-75.5011 457.6889,-76.1278 460.3881,-82.5865"/>
</g>
<!-- Node18 -->
<g id="node19" class="node">
<title>Node18</title>
<g id="a_node19"><a xlink:href="json_8h.html" target="_top" xlink:title="This file includes nlohmann/json and defines an alias for a JSON class. ">
<polygon fill="#ffffff" stroke="#000000" points="214,-56.5 214,-75.5 280,-75.5 280,-56.5 214,-56.5"/>
<text text-anchor="middle" x="247" y="-63.5" font-family="Helvetica,sans-Serif" font-size="10.00" fill="#000000">alias/json.h</text>
</a>
</g>
</g>
<!-- Node11&#45;&gt;Node18 -->
<g id="edge18" class="edge">
<title>Node11&#45;&gt;Node18</title>
<path fill="none" stroke="#191970" d="M337.8395,-112.2455C320.4889,-103.4125 294.7099,-90.2887 275.0417,-80.2758"/>
<polygon fill="#191970" stroke="#191970" points="276.4405,-77.0605 265.941,-75.6427 273.2647,-83.2986 276.4405,-77.0605"/>
</g>
<!-- Node13 -->
<g id="node14" class="node">
<title>Node13</title>
<polygon fill="#ffffff" stroke="#bfbfbf" points="489,-.5 489,-19.5 541,-19.5 541,-.5 489,-.5"/>
<text text-anchor="middle" x="515" y="-7.5" font-family="Helvetica,sans-Serif" font-size="10.00" fill="#000000">memory</text>
</g>
<!-- Node12&#45;&gt;Node13 -->
<g id="edge13" class="edge">
<title>Node12&#45;&gt;Node13</title>
<path fill="none" stroke="#191970" d="M495.1805,-56.2455C498.381,-48.7776 502.896,-38.2427 506.8084,-29.1137"/>
<polygon fill="#191970" stroke="#191970" points="510.1452,-30.2129 510.8674,-19.6427 503.7112,-27.4554 510.1452,-30.2129"/>
</g>
<!-- Node14 -->
<g id="node15" class="node">
<title>Node14</title>
<polygon fill="#ffffff" stroke="#bfbfbf" points="559.5,-.5 559.5,-19.5 600.5,-19.5 600.5,-.5 559.5,-.5"/>
<text text-anchor="middle" x="580" y="-7.5" font-family="Helvetica,sans-Serif" font-size="10.00" fill="#000000">string</text>
</g>
<!-- Node12&#45;&gt;Node14 -->
<g id="edge14" class="edge">
<title>Node12&#45;&gt;Node14</title>
<path fill="none" stroke="#191970" d="M506.5026,-56.2455C520.158,-47.6534 540.2657,-35.0014 555.9989,-25.1018"/>
<polygon fill="#191970" stroke="#191970" points="558.0751,-27.9307 564.675,-19.6427 554.3471,-22.006 558.0751,-27.9307"/>
</g>
<!-- Node15 -->
<g id="node16" class="node">
<title>Node15</title>
<polygon fill="#ffffff" stroke="#bfbfbf" points="619,-.5 619,-19.5 663,-19.5 663,-.5 619,-.5"/>
<text text-anchor="middle" x="641" y="-7.5" font-family="Helvetica,sans-Serif" font-size="10.00" fill="#000000">vector</text>
</g>
<!-- Node12&#45;&gt;Node15 -->
<g id="edge15" class="edge">
<title>Node12&#45;&gt;Node15</title>
<path fill="none" stroke="#191970" d="M516.7859,-56.3733C542.4491,-46.7923 581.8764,-32.0728 609.406,-21.7951"/>
<polygon fill="#191970" stroke="#191970" points="610.8184,-25.0038 618.9627,-18.2273 608.3701,-18.4459 610.8184,-25.0038"/>
</g>
<!-- Node16 -->
<g id="node17" class="node">
<title>Node16</title>
<polygon fill="#ffffff" stroke="#bfbfbf" points="291.5,-.5 291.5,-19.5 374.5,-19.5 374.5,-.5 291.5,-.5"/>
<text text-anchor="middle" x="333" y="-7.5" font-family="Helvetica,sans-Serif" font-size="10.00" fill="#000000">unordered_map</text>
</g>
<!-- Node12&#45;&gt;Node16 -->
<g id="edge16" class="edge">
<title>Node12&#45;&gt;Node16</title>
<path fill="none" stroke="#191970" d="M463.8388,-56.3733C437.7933,-47.1419 398.2884,-33.1402 369.5021,-22.9375"/>
<polygon fill="#191970" stroke="#191970" points="370.4015,-19.5429 359.8067,-19.5011 368.063,-26.1408 370.4015,-19.5429"/>
</g>
<!-- Node17 -->
<g id="node18" class="node">
<title>Node17</title>
<polygon fill="#ffffff" stroke="#bfbfbf" points="393,-.5 393,-19.5 471,-19.5 471,-.5 393,-.5"/>
<text text-anchor="middle" x="432" y="-7.5" font-family="Helvetica,sans-Serif" font-size="10.00" fill="#000000">unordered_set</text>
</g>
<!-- Node12&#45;&gt;Node17 -->
<g id="edge17" class="edge">
<title>Node12&#45;&gt;Node17</title>
<path fill="none" stroke="#191970" d="M480.723,-56.2455C472.1782,-48.1352 459.8222,-36.4075 449.6915,-26.7919"/>
<polygon fill="#191970" stroke="#191970" points="451.8218,-23.9884 442.1592,-19.6427 447.0028,-29.0655 451.8218,-23.9884"/>
</g>
<!-- Node19 -->
<g id="node20" class="node">
<title>Node19</title>
<polygon fill="#ffffff" stroke="#bfbfbf" points="175,-.5 175,-19.5 273,-19.5 273,-.5 175,-.5"/>
<text text-anchor="middle" x="224" y="-7.5" font-family="Helvetica,sans-Serif" font-size="10.00" fill="#000000">nlohmann/json.hpp</text>
</g>
<!-- Node18&#45;&gt;Node19 -->
<g id="edge19" class="edge">
<title>Node18&#45;&gt;Node19</title>
<path fill="none" stroke="#191970" d="M242.9937,-56.2455C239.9265,-48.7776 235.5997,-38.2427 231.8503,-29.1137"/>
<polygon fill="#191970" stroke="#191970" points="234.9972,-27.5631 227.9604,-19.6427 228.5221,-30.2226 234.9972,-27.5631"/>
</g>
<!-- Node20&#45;&gt;Node12 -->
<g id="edge21" class="edge">
<title>Node20&#45;&gt;Node12</title>
<path fill="none" stroke="#191970" d="M288.6679,-112.4369C333.7483,-102.0906 405.1716,-85.6983 449.9927,-75.4115"/>
<polygon fill="#191970" stroke="#191970" points="450.9938,-78.7728 459.9574,-73.1245 449.4279,-71.9502 450.9938,-78.7728"/>
</g>
<!-- Node20&#45;&gt;Node18 -->
<g id="edge22" class="edge">
<title>Node20&#45;&gt;Node18</title>
<path fill="none" stroke="#191970" d="M247,-112.2455C247,-104.9382 247,-94.6944 247,-85.7046"/>
<polygon fill="#191970" stroke="#191970" points="250.5001,-85.6426 247,-75.6427 243.5001,-85.6427 250.5001,-85.6426"/>
</g>
<!-- Node21&#45;&gt;Node5 -->
<g id="edge24" class="edge">
<title>Node21&#45;&gt;Node5</title>
<path fill="none" stroke="#191970" d="M280.9035,-224.2455C276.0855,-216.5367 269.2249,-205.5598 263.3968,-196.2348"/>
<polygon fill="#191970" stroke="#191970" points="266.2947,-194.2677 258.0267,-187.6427 260.3587,-197.9777 266.2947,-194.2677"/>
</g>
<!-- Node22&#45;&gt;Node5 -->
<g id="edge26" class="edge">
<title>Node22&#45;&gt;Node5</title>
<path fill="none" stroke="#191970" d="M363.7927,-224.3733C341.8301,-215.2629 308.6668,-201.5062 284.1599,-191.3404"/>
<polygon fill="#191970" stroke="#191970" points="285.4824,-188.0999 274.9045,-187.5011 282.8003,-194.5657 285.4824,-188.0999"/>
</g>
<!-- Node23&#45;&gt;Node12 -->
<g id="edge28" class="edge">
<title>Node23&#45;&gt;Node12</title>
<path fill="none" stroke="#191970" d="M491,-397.7511C491,-377.6182 491,-329.9826 491,-290 491,-290 491,-290 491,-178 491,-145.7116 491,-108.1872 491,-85.8048"/>
<polygon fill="#191970" stroke="#191970" points="494.5001,-85.5883 491,-75.5884 487.5001,-85.5884 494.5001,-85.5883"/>
</g>
<!-- Node24&#45;&gt;Node12 -->
<g id="edge30" class="edge">
<title>Node24&#45;&gt;Node12</title>
<path fill="none" stroke="#191970" d="M571.6063,-336.2503C565.2084,-316.9723 552,-272.5094 552,-234 552,-234 552,-234 552,-178 552,-140.6364 525.4944,-103.8655 507.4271,-83.141"/>
<polygon fill="#191970" stroke="#191970" points="509.8391,-80.5903 500.5313,-75.5291 504.6513,-85.29 509.8391,-80.5903"/>
</g>
</g>
</svg>
        <g id="navigator" transform="translate(0 0)" fill="#404254">
                <rect fill="#f2f5e9" fill-opacity="0.5" stroke="#606060" stroke-width=".5" x="0" y="0" width="60" height="60"/>
                <use id="zoomplus" xlink:href="#zoomPlus" x="17" y="9" onmousedown="handleZoom(evt,'in')"/>
                <use id="zoomminus" xlink:href="#zoomMin" x="42" y="9" onmousedown="handleZoom(evt,'out')"/>
                <use id="reset" xlink:href="#resetDef" x="30" y="36" onmousedown="handleReset()"/>
                <g id="arrowUp" xlink:href="#dirArrow" transform="translate(30 24)" onmousedown="handlePan(0,-1)">
                  <use xlink:href="#rim" fill="#404040">
                        <set attributeName="fill" to="#808080" begin="arrowUp.mouseover" end="arrowUp.mouseout"/>
                  </use>
                  <path fill="none" stroke="white" stroke-width="1.5" d="M0,-3.0v7 M-2.5,-0.5L0,-3.0L2.5,-0.5"/>
                </g>
                <g id="arrowRight" xlink:href="#dirArrow" transform="rotate(90) translate(36 -43)" onmousedown="handlePan(1,0)">
                  <use xlink:href="#rim" fill="#404040">
                        <set attributeName="fill" to="#808080" begin="arrowRight.mouseover" end="arrowRight.mouseout"/>
                  </use>
                  <path fill="none" stroke="white" stroke-width="1.5" d="M0,-3.0v7 M-2.5,-0.5L0,-3.0L2.5,-0.5"/>
                </g>
                <g id="arrowDown" xlink:href="#dirArrow" transform="rotate(180) translate(-30 -48)" onmousedown="handlePan(0,1)">
                  <use xlink:href="#rim" fill="#404040">
                        <set attributeName="fill" to="#808080" begin="arrowDown.mouseover" end="arrowDown.mouseout"/>
                  </use>
                  <path fill="none" stroke="white" stroke-width="1.5" d="M0,-3.0v7 M-2.5,-0.5L0,-3.0L2.5,-0.5"/>
                </g>
                <g id="arrowLeft" xlink:href="#dirArrow" transform="rotate(270) translate(-36 17)" onmousedown="handlePan(-1,0)">
                  <use xlink:href="#rim" fill="#404040">
                        <set attributeName="fill" to="#808080" begin="arrowLeft.mouseover" end="arrowLeft.mouseout"/>
                  </use>
                  <path fill="none" stroke="white" stroke-width="1.5" d="M0,-3.0v7 M-2.5,-0.5L0,-3.0L2.5,-0.5"/>
                </g>
        </g>
        <svg viewBox="0 0 15 15" width="100%" height="30px" preserveAspectRatio="xMaxYMin meet">
         <g id="arrow_out" transform="scale(0.3 0.3)">
          <a xlink:href="pro__radial__distribution__function__with__deformation_8cpp__incl_org.svg" target="_base">
           <rect id="button" ry="5" rx="5" y="6" x="6" height="38" width="38"
                fill="#f2f5e9" fill-opacity="0.5" stroke="#606060" stroke-width="1.0"/>
           <path id="arrow"
             d="M 11.500037,31.436501 C 11.940474,20.09759 22.043105,11.32322 32.158766,21.979434 L 37.068811,17.246167 C 37.068811,17.246167 37.088388,32 37.088388,32 L 22.160133,31.978069 C 22.160133,31.978069 26.997745,27.140456 26.997745,27.140456 C 18.528582,18.264221 13.291696,25.230495 11.500037,31.436501 z"
             style="fill:#404040;"/>
          </a>
         </g>
        </svg>
</svg>
