<?xml version="1.0" encoding="UTF-8" standalone="no"?>
<!DOCTYPE svg PUBLIC "-//W3C//DTD SVG 1.1//EN"
 "http://www.w3.org/Graphics/SVG/1.1/DTD/svg11.dtd">
<!-- Generated by graphviz version 2.40.1 (20161225.0304)
 -->
<!-- Title: src/processors/pro_mean_square_displacement.cpp Pages: 1 -->
<!--zoomable 487 -->
<svg id="main" version="1.1" xmlns="http://www.w3.org/2000/svg" xmlns:xlink="http://www.w3.org/1999/xlink" xml:space="preserve" onload="init(evt)">
<style type="text/css"><![CDATA[
.edge:hover path { stroke: red; }
.edge:hover polygon { stroke: red; fill: red; }
]]></style>
<script type="text/javascript"><![CDATA[
var edges = document.getElementsByTagName('g');
if (edges && edges.length) {
  for (var i=0;i<edges.length;i++) {
    if (edges[i].id.substr(0,4)=='edge') {
      edges[i].setAttribute('class','edge');
    }
  }
}
]]></script>
        <defs>
                <circle id="rim" cx="0" cy="0" r="7"/>
                <circle id="rim2" cx="0" cy="0" r="3.5"/>
                <g id="zoomPlus">
                        <use xlink:href="#rim" fill="#404040">
                                <set attributeName="fill" to="#808080" begin="zoomplus.mouseover" end="zoomplus.mouseout"/>
                        </use>
                        <path d="M-4,0h8M0,-4v8" fill="none" stroke="white" stroke-width="1.5" pointer-events="none"/>
                </g>
                <g id="zoomMin">
                        <use xlink:href="#rim" fill="#404040">
                                <set attributeName="fill" to="#808080" begin="zoomminus.mouseover" end="zoomminus.mouseout"/>
                        </use>
                        <path d="M-4,0h8" fill="none" stroke="white" stroke-width="1.5" pointer-events="none"/>
                </g>
                <g id="dirArrow">
                        <path fill="none" stroke="white" stroke-width="1.5" d="M0,-3.0v7 M-2.5,-0.5L0,-3.0L2.5,-0.5"/>
                </g>
               <g id="resetDef">
                       <use xlink:href="#rim2" fill="#404040">
                               <set attributeName="fill" to="#808080" begin="reset.mouseover" end="reset.mouseout"/>
                       </use>
               </g>
        </defs>

<script type="text/javascript">
var viewWidth = 662;
var viewHeight = 487;
var sectionId = 'dynsection-0';
</script>
<script xlink:href="svgpan.js"/>
<svg id="graph" class="graph">
<g id="viewport">
<title>src/processors/pro_mean_square_displacement.cpp</title>
<polygon fill="#ffffff" stroke="transparent" points="-4,4 -4,-483 658,-483 658,4 -4,4"/>
<!-- Node0 -->
<g id="node1" class="node">
<title>Node0</title>
<polygon fill="#bfbfbf" stroke="#000000" points="308,-448.5 308,-478.5 470,-478.5 470,-448.5 308,-448.5"/>
<text text-anchor="start" x="316" y="-466.5" font-family="Helvetica,sans-Serif" font-size="10.00" fill="#000000">src/processors/pro</text>
<text text-anchor="middle" x="389" y="-455.5" font-family="Helvetica,sans-Serif" font-size="10.00" fill="#000000">_mean_square_displacement.cpp</text>
</g>
<!-- Node1 -->
<g id="node2" class="node">
<title>Node1</title>
<g id="a_node2"><a xlink:href="pro__mean__square__displacement_8h.html" target="_top" xlink:title="This file has a definition of ProMeanSquareDisplacement class, which is a subclass of Processor class...">
<polygon fill="#ffffff" stroke="#000000" points="251.5,-392.5 251.5,-411.5 416.5,-411.5 416.5,-392.5 251.5,-392.5"/>
<text text-anchor="middle" x="334" y="-399.5" font-family="Helvetica,sans-Serif" font-size="10.00" fill="#000000">pro_mean_square_displacement.h</text>
</a>
</g>
</g>
<!-- Node0&#45;&gt;Node1 -->
<g id="edge1" class="edge">
<title>Node0&#45;&gt;Node1</title>
<path fill="none" stroke="#191970" d="M375.4045,-448.2977C367.6109,-439.5831 357.7953,-428.6075 349.6774,-419.5302"/>
<polygon fill="#191970" stroke="#191970" points="352.0813,-416.9678 342.8062,-411.8469 346.8635,-421.6341 352.0813,-416.9678"/>
</g>
<!-- Node22 -->
<g id="node23" class="node">
<title>Node22</title>
<g id="a_node23"><a xlink:href="runtime__error_8h.html" target="_top" xlink:title="This file has a definition of utils::runtime_error. ">
<polygon fill="#ffffff" stroke="#000000" points="424,-336.5 424,-355.5 536,-355.5 536,-336.5 424,-336.5"/>
<text text-anchor="middle" x="480" y="-343.5" font-family="Helvetica,sans-Serif" font-size="10.00" fill="#000000">../utils/runtime_error.h</text>
</a>
</g>
</g>
<!-- Node0&#45;&gt;Node22 -->
<g id="edge26" class="edge">
<title>Node0&#45;&gt;Node22</title>
<path fill="none" stroke="#191970" d="M400.8967,-448.1389C417.739,-426.3919 448.4607,-386.7238 466.2559,-363.7465"/>
<polygon fill="#191970" stroke="#191970" points="469.2405,-365.6088 472.5965,-355.5595 463.7062,-361.3226 469.2405,-365.6088"/>
</g>
<!-- Node2 -->
<g id="node3" class="node">
<title>Node2</title>
<g id="a_node3"><a xlink:href="processor_8h.html" target="_top" xlink:title="This file has a definition of Processor class, where an analysis process is programmed. ">
<polygon fill="#ffffff" stroke="#000000" points="263.5,-336.5 263.5,-355.5 382.5,-355.5 382.5,-336.5 263.5,-336.5"/>
<text text-anchor="middle" x="323" y="-343.5" font-family="Helvetica,sans-Serif" font-size="10.00" fill="#000000">processors/processor.h</text>
</a>
</g>
</g>
<!-- Node1&#45;&gt;Node2 -->
<g id="edge2" class="edge">
<title>Node1&#45;&gt;Node2</title>
<path fill="none" stroke="#191970" d="M332.0839,-392.2455C330.6486,-384.9382 328.6364,-374.6944 326.8705,-365.7046"/>
<polygon fill="#191970" stroke="#191970" points="330.256,-364.7805 324.8941,-355.6427 323.3873,-366.1298 330.256,-364.7805"/>
</g>
<!-- Node3 -->
<g id="node4" class="node">
<title>Node3</title>
<g id="a_node4"><a xlink:href="generators_8h.html" target="_top" xlink:title="This file includes all the header files of subclasses of Generator class. ">
<polygon fill="#ffffff" stroke="#000000" points="265,-280.5 265,-299.5 357,-299.5 357,-280.5 265,-280.5"/>
<text text-anchor="middle" x="311" y="-287.5" font-family="Helvetica,sans-Serif" font-size="10.00" fill="#000000">core/generators.h</text>
</a>
</g>
</g>
<!-- Node2&#45;&gt;Node3 -->
<g id="edge3" class="edge">
<title>Node2&#45;&gt;Node3</title>
<path fill="none" stroke="#191970" d="M320.9098,-336.2455C319.3439,-328.9382 317.1488,-318.6944 315.2224,-309.7046"/>
<polygon fill="#191970" stroke="#191970" points="318.584,-308.6873 313.0663,-299.6427 311.7393,-310.1541 318.584,-308.6873"/>
</g>
<!-- Node4 -->
<g id="node5" class="node">
<title>Node4</title>
<g id="a_node5"><a xlink:href="element_8h.html" target="_top" xlink:title="This file has a definition of Element class, which is one of the cores of this program. ">
<polygon fill="#ffffff" stroke="#000000" points="225.5,-168.5 225.5,-187.5 306.5,-187.5 306.5,-168.5 225.5,-168.5"/>
<text text-anchor="middle" x="266" y="-175.5" font-family="Helvetica,sans-Serif" font-size="10.00" fill="#000000">core/element.h</text>
</a>
</g>
</g>
<!-- Node3&#45;&gt;Node4 -->
<g id="edge4" class="edge">
<title>Node3&#45;&gt;Node4</title>
<path fill="none" stroke="#191970" d="M307.1633,-280.4509C299.7575,-262.0186 283.3673,-221.2254 273.6512,-197.043"/>
<polygon fill="#191970" stroke="#191970" points="276.8029,-195.499 269.827,-187.5249 270.3075,-198.1088 276.8029,-195.499"/>
</g>
<!-- Node20 -->
<g id="node21" class="node">
<title>Node20</title>
<g id="a_node21"><a xlink:href="gen__dict_8h.html" target="_top" xlink:title="This file has a definition of GenDict class. ">
<polygon fill="#ffffff" stroke="#000000" points="328.5,-224.5 328.5,-243.5 411.5,-243.5 411.5,-224.5 328.5,-224.5"/>
<text text-anchor="middle" x="370" y="-231.5" font-family="Helvetica,sans-Serif" font-size="10.00" fill="#000000">core/gen_dict.h</text>
</a>
</g>
</g>
<!-- Node3&#45;&gt;Node20 -->
<g id="edge22" class="edge">
<title>Node3&#45;&gt;Node20</title>
<path fill="none" stroke="#191970" d="M321.277,-280.2455C329.8218,-272.1352 342.1778,-260.4075 352.3085,-250.7919"/>
<polygon fill="#191970" stroke="#191970" points="354.9972,-253.0655 359.8408,-243.6427 350.1782,-247.9884 354.9972,-253.0655"/>
</g>
<!-- Node21 -->
<g id="node22" class="node">
<title>Node21</title>
<g id="a_node22"><a xlink:href="gen__list_8h.html" target="_top" xlink:title="This file has a definition of GenList class. ">
<polygon fill="#ffffff" stroke="#000000" points="192,-224.5 192,-243.5 272,-243.5 272,-224.5 192,-224.5"/>
<text text-anchor="middle" x="232" y="-231.5" font-family="Helvetica,sans-Serif" font-size="10.00" fill="#000000">core/gen_list.h</text>
</a>
</g>
</g>
<!-- Node3&#45;&gt;Node21 -->
<g id="edge24" class="edge">
<title>Node3&#45;&gt;Node21</title>
<path fill="none" stroke="#191970" d="M297.2393,-280.2455C285.3448,-271.814 267.935,-259.4729 254.0915,-249.6598"/>
<polygon fill="#191970" stroke="#191970" points="255.7854,-246.5704 245.6031,-243.6427 251.7372,-252.2811 255.7854,-246.5704"/>
</g>
<!-- Node5 -->
<g id="node6" class="node">
<title>Node5</title>
<polygon fill="#ffffff" stroke="#bfbfbf" points="419,-112.5 419,-131.5 463,-131.5 463,-112.5 419,-112.5"/>
<text text-anchor="middle" x="441" y="-119.5" font-family="Helvetica,sans-Serif" font-size="10.00" fill="#000000">omp.h</text>
</g>
<!-- Node4&#45;&gt;Node5 -->
<g id="edge5" class="edge">
<title>Node4&#45;&gt;Node5</title>
<path fill="none" stroke="#191970" d="M296.0703,-168.4216C323.2727,-159.7507 364.6804,-146.5369 409.3984,-132.1875"/>
<polygon fill="#191970" stroke="#191970" points="410.5354,-135.4985 418.987,-129.1095 408.3958,-128.8335 410.5354,-135.4985"/>
</g>
<!-- Node6 -->
<g id="node7" class="node">
<title>Node6</title>
<g id="a_node7"><a xlink:href="eigen_8h.html" target="_top" xlink:title="This file includes Eigen and defines some aliases for the Eigen&#45;Vector, Matrix and Array...">
<polygon fill="#ffffff" stroke="#000000" points="8.5,-112.5 8.5,-131.5 79.5,-131.5 79.5,-112.5 8.5,-112.5"/>
<text text-anchor="middle" x="44" y="-119.5" font-family="Helvetica,sans-Serif" font-size="10.00" fill="#000000">alias/eigen.h</text>
</a>
</g>
</g>
<!-- Node4&#45;&gt;Node6 -->
<g id="edge6" class="edge">
<title>Node4&#45;&gt;Node6</title>
<path fill="none" stroke="#191970" d="M228.0891,-168.4369C189.6485,-158.7402 130.1554,-143.7329 89.2655,-133.4183"/>
<polygon fill="#191970" stroke="#191970" points="90.1051,-130.0205 79.5527,-130.9682 88.3929,-136.8079 90.1051,-130.0205"/>
</g>
<!-- Node8 -->
<g id="node9" class="node">
<title>Node8</title>
<g id="a_node9"><a xlink:href="alias_2pybind_8h.html" target="_top" xlink:title="This file includes pybind11 and defines an alias for the namespace pybind11. ">
<polygon fill="#ffffff" stroke="#000000" points="104.5,-112.5 104.5,-131.5 181.5,-131.5 181.5,-112.5 104.5,-112.5"/>
<text text-anchor="middle" x="143" y="-119.5" font-family="Helvetica,sans-Serif" font-size="10.00" fill="#000000">alias/pybind.h</text>
</a>
</g>
</g>
<!-- Node4&#45;&gt;Node8 -->
<g id="edge8" class="edge">
<title>Node4&#45;&gt;Node8</title>
<path fill="none" stroke="#191970" d="M244.8555,-168.3733C225.1108,-159.3838 195.4302,-145.8706 173.1945,-135.7471"/>
<polygon fill="#191970" stroke="#191970" points="174.42,-132.4594 163.8685,-131.5011 171.5194,-138.8302 174.42,-132.4594"/>
</g>
<!-- Node10 -->
<g id="node11" class="node">
<title>Node10</title>
<g id="a_node11"><a xlink:href="generator_8h.html" target="_top" xlink:title="This file has a definition of Generator class, which is one of the cores of this program. ">
<polygon fill="#ffffff" stroke="#000000" points="199.5,-112.5 199.5,-131.5 286.5,-131.5 286.5,-112.5 199.5,-112.5"/>
<text text-anchor="middle" x="243" y="-119.5" font-family="Helvetica,sans-Serif" font-size="10.00" fill="#000000">core/generator.h</text>
</a>
</g>
</g>
<!-- Node4&#45;&gt;Node10 -->
<g id="edge10" class="edge">
<title>Node4&#45;&gt;Node10</title>
<path fill="none" stroke="#191970" d="M261.9937,-168.2455C258.9265,-160.7776 254.5997,-150.2427 250.8503,-141.1137"/>
<polygon fill="#191970" stroke="#191970" points="253.9972,-139.5631 246.9604,-131.6427 247.5221,-142.2226 253.9972,-139.5631"/>
</g>
<!-- Node19 -->
<g id="node20" class="node">
<title>Node19</title>
<g id="a_node20"><a xlink:href="data__keys_8h.html" target="_top" xlink:title="This file has a definition of DataKeys class, which is owned by Element class. ">
<polygon fill="#ffffff" stroke="#000000" points="305,-112.5 305,-131.5 401,-131.5 401,-112.5 305,-112.5"/>
<text text-anchor="middle" x="353" y="-119.5" font-family="Helvetica,sans-Serif" font-size="10.00" fill="#000000">class/data_keys.h</text>
</a>
</g>
</g>
<!-- Node4&#45;&gt;Node19 -->
<g id="edge19" class="edge">
<title>Node4&#45;&gt;Node19</title>
<path fill="none" stroke="#191970" d="M281.1542,-168.2455C294.5027,-159.6534 314.1586,-147.0014 329.5383,-137.1018"/>
<polygon fill="#191970" stroke="#191970" points="331.5051,-139.9982 338.0194,-131.6427 327.7164,-134.1121 331.5051,-139.9982"/>
</g>
<!-- Node7 -->
<g id="node8" class="node">
<title>Node7</title>
<polygon fill="#ffffff" stroke="#bfbfbf" points="0,-56.5 0,-75.5 72,-75.5 72,-56.5 0,-56.5"/>
<text text-anchor="middle" x="36" y="-63.5" font-family="Helvetica,sans-Serif" font-size="10.00" fill="#000000">Eigen/Dense</text>
</g>
<!-- Node6&#45;&gt;Node7 -->
<g id="edge7" class="edge">
<title>Node6&#45;&gt;Node7</title>
<path fill="none" stroke="#191970" d="M42.6065,-112.2455C41.5626,-104.9382 40.0992,-94.6944 38.8149,-85.7046"/>
<polygon fill="#191970" stroke="#191970" points="42.2566,-85.0472 37.3775,-75.6427 35.327,-86.0372 42.2566,-85.0472"/>
</g>
<!-- Node9 -->
<g id="node10" class="node">
<title>Node9</title>
<polygon fill="#ffffff" stroke="#bfbfbf" points="90,-56.5 90,-75.5 196,-75.5 196,-56.5 90,-56.5"/>
<text text-anchor="middle" x="143" y="-63.5" font-family="Helvetica,sans-Serif" font-size="10.00" fill="#000000">pybind11/pybind11.h</text>
</g>
<!-- Node8&#45;&gt;Node9 -->
<g id="edge9" class="edge">
<title>Node8&#45;&gt;Node9</title>
<path fill="none" stroke="#191970" d="M143,-112.2455C143,-104.9382 143,-94.6944 143,-85.7046"/>
<polygon fill="#191970" stroke="#191970" points="146.5001,-85.6426 143,-75.6427 139.5001,-85.6427 146.5001,-85.6426"/>
</g>
<!-- Node11 -->
<g id="node12" class="node">
<title>Node11</title>
<g id="a_node12"><a xlink:href="std_8h.html" target="_top" xlink:title="This file includes a part of C++ Standard Template Library and defines aliases for them...">
<polygon fill="#ffffff" stroke="#000000" points="384,-56.5 384,-75.5 446,-75.5 446,-56.5 384,-56.5"/>
<text text-anchor="middle" x="415" y="-63.5" font-family="Helvetica,sans-Serif" font-size="10.00" fill="#000000">alias/std.h</text>
</a>
</g>
</g>
<!-- Node10&#45;&gt;Node11 -->
<g id="edge11" class="edge">
<title>Node10&#45;&gt;Node11</title>
<path fill="none" stroke="#191970" d="M272.5679,-112.3733C301.1688,-103.0613 344.6788,-88.8953 376.0819,-78.671"/>
<polygon fill="#191970" stroke="#191970" points="377.3928,-81.9251 385.818,-75.5011 375.2257,-75.269 377.3928,-81.9251"/>
</g>
<!-- Node17 -->
<g id="node18" class="node">
<title>Node17</title>
<g id="a_node18"><a xlink:href="json_8h.html" target="_top" xlink:title="This file includes nlohmann/json and defines an alias for a JSON class. ">
<polygon fill="#ffffff" stroke="#000000" points="214,-56.5 214,-75.5 280,-75.5 280,-56.5 214,-56.5"/>
<text text-anchor="middle" x="247" y="-63.5" font-family="Helvetica,sans-Serif" font-size="10.00" fill="#000000">alias/json.h</text>
</a>
</g>
</g>
<!-- Node10&#45;&gt;Node17 -->
<g id="edge17" class="edge">
<title>Node10&#45;&gt;Node17</title>
<path fill="none" stroke="#191970" d="M243.6967,-112.2455C244.2187,-104.9382 244.9504,-94.6944 245.5925,-85.7046"/>
<polygon fill="#191970" stroke="#191970" points="249.0898,-85.8667 246.3112,-75.6427 242.1076,-85.3679 249.0898,-85.8667"/>
</g>
<!-- Node12 -->
<g id="node13" class="node">
<title>Node12</title>
<polygon fill="#ffffff" stroke="#bfbfbf" points="602,-.5 602,-19.5 654,-19.5 654,-.5 602,-.5"/>
<text text-anchor="middle" x="628" y="-7.5" font-family="Helvetica,sans-Serif" font-size="10.00" fill="#000000">memory</text>
</g>
<!-- Node11&#45;&gt;Node12 -->
<g id="edge12" class="edge">
<title>Node11&#45;&gt;Node12</title>
<path fill="none" stroke="#191970" d="M446.2532,-58.179C479.902,-49.7024 535.2441,-35.5999 591.8195,-20.2777"/>
<polygon fill="#191970" stroke="#191970" points="592.9146,-23.6071 601.6468,-17.607 591.0789,-16.852 592.9146,-23.6071"/>
</g>
<!-- Node13 -->
<g id="node14" class="node">
<title>Node13</title>
<polygon fill="#ffffff" stroke="#bfbfbf" points="282.5,-.5 282.5,-19.5 323.5,-19.5 323.5,-.5 282.5,-.5"/>
<text text-anchor="middle" x="303" y="-7.5" font-family="Helvetica,sans-Serif" font-size="10.00" fill="#000000">string</text>
</g>
<!-- Node11&#45;&gt;Node13 -->
<g id="edge13" class="edge">
<title>Node11&#45;&gt;Node13</title>
<path fill="none" stroke="#191970" d="M395.7465,-56.3733C377.9288,-47.4644 351.2253,-34.1127 331.0406,-24.0203"/>
<polygon fill="#191970" stroke="#191970" points="332.5118,-20.8428 322.0022,-19.5011 329.3813,-27.1038 332.5118,-20.8428"/>
</g>
<!-- Node14 -->
<g id="node15" class="node">
<title>Node14</title>
<polygon fill="#ffffff" stroke="#bfbfbf" points="342,-.5 342,-19.5 386,-19.5 386,-.5 342,-.5"/>
<text text-anchor="middle" x="364" y="-7.5" font-family="Helvetica,sans-Serif" font-size="10.00" fill="#000000">vector</text>
</g>
<!-- Node11&#45;&gt;Node14 -->
<g id="edge14" class="edge">
<title>Node11&#45;&gt;Node14</title>
<path fill="none" stroke="#191970" d="M406.1165,-56.2455C398.8034,-48.2155 388.2609,-36.6394 379.5533,-27.0781"/>
<polygon fill="#191970" stroke="#191970" points="382.1028,-24.6795 372.7817,-19.6427 376.9273,-29.3928 382.1028,-24.6795"/>
</g>
<!-- Node15 -->
<g id="node16" class="node">
<title>Node15</title>
<polygon fill="#ffffff" stroke="#bfbfbf" points="404.5,-.5 404.5,-19.5 487.5,-19.5 487.5,-.5 404.5,-.5"/>
<text text-anchor="middle" x="446" y="-7.5" font-family="Helvetica,sans-Serif" font-size="10.00" fill="#000000">unordered_map</text>
</g>
<!-- Node11&#45;&gt;Node15 -->
<g id="edge15" class="edge">
<title>Node11&#45;&gt;Node15</title>
<path fill="none" stroke="#191970" d="M420.3998,-56.2455C424.6227,-48.617 430.6173,-37.7881 435.7441,-28.5267"/>
<polygon fill="#191970" stroke="#191970" points="438.881,-30.0867 440.6621,-19.6427 432.7568,-26.6965 438.881,-30.0867"/>
</g>
<!-- Node16 -->
<g id="node17" class="node">
<title>Node16</title>
<polygon fill="#ffffff" stroke="#bfbfbf" points="506,-.5 506,-19.5 584,-19.5 584,-.5 506,-.5"/>
<text text-anchor="middle" x="545" y="-7.5" font-family="Helvetica,sans-Serif" font-size="10.00" fill="#000000">unordered_set</text>
</g>
<!-- Node11&#45;&gt;Node16 -->
<g id="edge16" class="edge">
<title>Node11&#45;&gt;Node16</title>
<path fill="none" stroke="#191970" d="M437.3478,-56.3733C458.4033,-47.3032 490.1495,-33.6279 513.7175,-23.4755"/>
<polygon fill="#191970" stroke="#191970" points="515.1444,-26.6719 522.9438,-19.5011 512.375,-20.243 515.1444,-26.6719"/>
</g>
<!-- Node18 -->
<g id="node19" class="node">
<title>Node18</title>
<polygon fill="#ffffff" stroke="#bfbfbf" points="166,-.5 166,-19.5 264,-19.5 264,-.5 166,-.5"/>
<text text-anchor="middle" x="215" y="-7.5" font-family="Helvetica,sans-Serif" font-size="10.00" fill="#000000">nlohmann/json.hpp</text>
</g>
<!-- Node17&#45;&gt;Node18 -->
<g id="edge18" class="edge">
<title>Node17&#45;&gt;Node18</title>
<path fill="none" stroke="#191970" d="M241.426,-56.2455C237.0669,-48.617 230.8789,-37.7881 225.5867,-28.5267"/>
<polygon fill="#191970" stroke="#191970" points="228.5104,-26.5886 220.5101,-19.6427 222.4327,-30.0616 228.5104,-26.5886"/>
</g>
<!-- Node19&#45;&gt;Node11 -->
<g id="edge20" class="edge">
<title>Node19&#45;&gt;Node11</title>
<path fill="none" stroke="#191970" d="M363.7996,-112.2455C372.8678,-104.0549 386.0206,-92.1749 396.7245,-82.5069"/>
<polygon fill="#191970" stroke="#191970" points="399.2491,-84.9429 404.3242,-75.6427 394.5571,-79.7482 399.2491,-84.9429"/>
</g>
<!-- Node19&#45;&gt;Node17 -->
<g id="edge21" class="edge">
<title>Node19&#45;&gt;Node17</title>
<path fill="none" stroke="#191970" d="M334.5362,-112.2455C317.8926,-103.4527 293.2007,-90.4079 274.2808,-80.4125"/>
<polygon fill="#191970" stroke="#191970" points="275.7291,-77.2193 265.2522,-75.6427 272.4592,-83.4086 275.7291,-77.2193"/>
</g>
<!-- Node20&#45;&gt;Node4 -->
<g id="edge23" class="edge">
<title>Node20&#45;&gt;Node4</title>
<path fill="none" stroke="#191970" d="M351.8846,-224.2455C335.555,-215.4527 311.329,-202.4079 292.7661,-192.4125"/>
<polygon fill="#191970" stroke="#191970" points="294.3719,-189.3021 283.9078,-187.6427 291.0532,-195.4654 294.3719,-189.3021"/>
</g>
<!-- Node21&#45;&gt;Node4 -->
<g id="edge25" class="edge">
<title>Node21&#45;&gt;Node4</title>
<path fill="none" stroke="#191970" d="M237.9223,-224.2455C242.6027,-216.5367 249.2673,-205.5598 254.9289,-196.2348"/>
<polygon fill="#191970" stroke="#191970" points="257.9475,-198.007 260.1455,-187.6427 251.9639,-194.3741 257.9475,-198.007"/>
</g>
<!-- Node22&#45;&gt;Node11 -->
<g id="edge27" class="edge">
<title>Node22&#45;&gt;Node11</title>
<path fill="none" stroke="#191970" d="M481.576,-336.4427C484.6176,-317.1407 491,-272.0991 491,-234 491,-234 491,-234 491,-178 491,-147.4754 488.8823,-137.4311 472,-112 463.8977,-99.7949 451.5446,-89.2592 440.4072,-81.362"/>
<polygon fill="#191970" stroke="#191970" points="442.0943,-78.2791 431.8404,-75.6129 438.1935,-84.0916 442.0943,-78.2791"/>
</g>
</g>
</svg>
        <g id="navigator" transform="translate(0 0)" fill="#404254">
                <rect fill="#f2f5e9" fill-opacity="0.5" stroke="#606060" stroke-width=".5" x="0" y="0" width="60" height="60"/>
                <use id="zoomplus" xlink:href="#zoomPlus" x="17" y="9" onmousedown="handleZoom(evt,'in')"/>
                <use id="zoomminus" xlink:href="#zoomMin" x="42" y="9" onmousedown="handleZoom(evt,'out')"/>
                <use id="reset" xlink:href="#resetDef" x="30" y="36" onmousedown="handleReset()"/>
                <g id="arrowUp" xlink:href="#dirArrow" transform="translate(30 24)" onmousedown="handlePan(0,-1)">
                  <use xlink:href="#rim" fill="#404040">
                        <set attributeName="fill" to="#808080" begin="arrowUp.mouseover" end="arrowUp.mouseout"/>
                  </use>
                  <path fill="none" stroke="white" stroke-width="1.5" d="M0,-3.0v7 M-2.5,-0.5L0,-3.0L2.5,-0.5"/>
                </g>
                <g id="arrowRight" xlink:href="#dirArrow" transform="rotate(90) translate(36 -43)" onmousedown="handlePan(1,0)">
                  <use xlink:href="#rim" fill="#404040">
                        <set attributeName="fill" to="#808080" begin="arrowRight.mouseover" end="arrowRight.mouseout"/>
                  </use>
                  <path fill="none" stroke="white" stroke-width="1.5" d="M0,-3.0v7 M-2.5,-0.5L0,-3.0L2.5,-0.5"/>
                </g>
                <g id="arrowDown" xlink:href="#dirArrow" transform="rotate(180) translate(-30 -48)" onmousedown="handlePan(0,1)">
                  <use xlink:href="#rim" fill="#404040">
                        <set attributeName="fill" to="#808080" begin="arrowDown.mouseover" end="arrowDown.mouseout"/>
                  </use>
                  <path fill="none" stroke="white" stroke-width="1.5" d="M0,-3.0v7 M-2.5,-0.5L0,-3.0L2.5,-0.5"/>
                </g>
                <g id="arrowLeft" xlink:href="#dirArrow" transform="rotate(270) translate(-36 17)" onmousedown="handlePan(-1,0)">
                  <use xlink:href="#rim" fill="#404040">
                        <set attributeName="fill" to="#808080" begin="arrowLeft.mouseover" end="arrowLeft.mouseout"/>
                  </use>
                  <path fill="none" stroke="white" stroke-width="1.5" d="M0,-3.0v7 M-2.5,-0.5L0,-3.0L2.5,-0.5"/>
                </g>
        </g>
        <svg viewBox="0 0 15 15" width="100%" height="30px" preserveAspectRatio="xMaxYMin meet">
         <g id="arrow_out" transform="scale(0.3 0.3)">
          <a xlink:href="pro__mean__square__displacement_8cpp__incl_org.svg" target="_base">
           <rect id="button" ry="5" rx="5" y="6" x="6" height="38" width="38"
                fill="#f2f5e9" fill-opacity="0.5" stroke="#606060" stroke-width="1.0"/>
           <path id="arrow"
             d="M 11.500037,31.436501 C 11.940474,20.09759 22.043105,11.32322 32.158766,21.979434 L 37.068811,17.246167 C 37.068811,17.246167 37.088388,32 37.088388,32 L 22.160133,31.978069 C 22.160133,31.978069 26.997745,27.140456 26.997745,27.140456 C 18.528582,18.264221 13.291696,25.230495 11.500037,31.436501 z"
             style="fill:#404040;"/>
          </a>
         </g>
        </svg>
</svg>
