<?xml version="1.0" encoding="UTF-8" standalone="no"?>
<!DOCTYPE svg PUBLIC "-//W3C//DTD SVG 1.1//EN"
 "http://www.w3.org/Graphics/SVG/1.1/DTD/svg11.dtd">
<!-- Generated by graphviz version 2.40.1 (20161225.0304)
 -->
<!-- Title: src/processors/pro_mean_square_displacement.cpp Pages: 1 -->
<!--zoomable 487 -->
<svg id="main" version="1.1" xmlns="http://www.w3.org/2000/svg" xmlns:xlink="http://www.w3.org/1999/xlink" xml:space="preserve" onload="init(evt)">
<style type="text/css"><![CDATA[
.edge:hover path { stroke: red; }
.edge:hover polygon { stroke: red; fill: red; }
]]></style>
<script type="text/javascript"><![CDATA[
var edges = document.getElementsByTagName('g');
if (edges && edges.length) {
  for (var i=0;i<edges.length;i++) {
    if (edges[i].id.substr(0,4)=='edge') {
      edges[i].setAttribute('class','edge');
    }
  }
}
]]></script>
        <defs>
                <circle id="rim" cx="0" cy="0" r="7"/>
                <circle id="rim2" cx="0" cy="0" r="3.5"/>
                <g id="zoomPlus">
                        <use xlink:href="#rim" fill="#404040">
                                <set attributeName="fill" to="#808080" begin="zoomplus.mouseover" end="zoomplus.mouseout"/>
                        </use>
                        <path d="M-4,0h8M0,-4v8" fill="none" stroke="white" stroke-width="1.5" pointer-events="none"/>
                </g>
                <g id="zoomMin">
                        <use xlink:href="#rim" fill="#404040">
                                <set attributeName="fill" to="#808080" begin="zoomminus.mouseover" end="zoomminus.mouseout"/>
                        </use>
                        <path d="M-4,0h8" fill="none" stroke="white" stroke-width="1.5" pointer-events="none"/>
                </g>
                <g id="dirArrow">
                        <path fill="none" stroke="white" stroke-width="1.5" d="M0,-3.0v7 M-2.5,-0.5L0,-3.0L2.5,-0.5"/>
                </g>
               <g id="resetDef">
                       <use xlink:href="#rim2" fill="#404040">
                               <set attributeName="fill" to="#808080" begin="reset.mouseover" end="reset.mouseout"/>
                       </use>
               </g>
        </defs>

<script type="text/javascript">
var viewWidth = 650;
var viewHeight = 487;
var sectionId = 'dynsection-0';
</script>
<script xlink:href="svgpan.js"/>
<svg id="graph" class="graph">
<g id="viewport">
<title>src/processors/pro_mean_square_displacement.cpp</title>
<polygon fill="#ffffff" stroke="transparent" points="-4,4 -4,-483 645.5,-483 645.5,4 -4,4"/>
<!-- Node0 -->
<g id="node1" class="node">
<title>Node0</title>
<polygon fill="#bfbfbf" stroke="#000000" points="295.5,-448.5 295.5,-478.5 457.5,-478.5 457.5,-448.5 295.5,-448.5"/>
<text text-anchor="start" x="303.5" y="-466.5" font-family="Helvetica,sans-Serif" font-size="10.00" fill="#000000">src/processors/pro</text>
<text text-anchor="middle" x="376.5" y="-455.5" font-family="Helvetica,sans-Serif" font-size="10.00" fill="#000000">_mean_square_displacement.cpp</text>
</g>
<!-- Node1 -->
<g id="node2" class="node">
<title>Node1</title>
<g id="a_node2"><a xlink:href="pro__mean__square__displacement_8h.html" target="_top" xlink:title="This file has a definition of ProMeanSquareDisplacement class, which is a subclass of Processor class...">
<polygon fill="#ffffff" stroke="#000000" points="239,-392.5 239,-411.5 404,-411.5 404,-392.5 239,-392.5"/>
<text text-anchor="middle" x="321.5" y="-399.5" font-family="Helvetica,sans-Serif" font-size="10.00" fill="#000000">pro_mean_square_displacement.h</text>
</a>
</g>
</g>
<!-- Node0&#45;&gt;Node1 -->
<g id="edge1" class="edge">
<title>Node0&#45;&gt;Node1</title>
<path fill="none" stroke="#191970" d="M362.9045,-448.2977C355.1109,-439.5831 345.2953,-428.6075 337.1774,-419.5302"/>
<polygon fill="#191970" stroke="#191970" points="339.5813,-416.9678 330.3062,-411.8469 334.3635,-421.6341 339.5813,-416.9678"/>
</g>
<!-- Node22 -->
<g id="node23" class="node">
<title>Node22</title>
<g id="a_node23"><a xlink:href="runtime__error_8h.html" target="_top" xlink:title="This file has a definition of utils::runtime_error. ">
<polygon fill="#ffffff" stroke="#000000" points="411.5,-336.5 411.5,-355.5 523.5,-355.5 523.5,-336.5 411.5,-336.5"/>
<text text-anchor="middle" x="467.5" y="-343.5" font-family="Helvetica,sans-Serif" font-size="10.00" fill="#000000">../utils/runtime_error.h</text>
</a>
</g>
</g>
<!-- Node0&#45;&gt;Node22 -->
<g id="edge26" class="edge">
<title>Node0&#45;&gt;Node22</title>
<path fill="none" stroke="#191970" d="M388.3967,-448.1389C405.239,-426.3919 435.9607,-386.7238 453.7559,-363.7465"/>
<polygon fill="#191970" stroke="#191970" points="456.7405,-365.6088 460.0965,-355.5595 451.2062,-361.3226 456.7405,-365.6088"/>
</g>
<!-- Node2 -->
<g id="node3" class="node">
<title>Node2</title>
<g id="a_node3"><a xlink:href="processor_8h.html" target="_top" xlink:title="This file has a definition of Processor class, where an analysis process is programmed. ">
<polygon fill="#ffffff" stroke="#000000" points="251,-336.5 251,-355.5 370,-355.5 370,-336.5 251,-336.5"/>
<text text-anchor="middle" x="310.5" y="-343.5" font-family="Helvetica,sans-Serif" font-size="10.00" fill="#000000">processors/processor.h</text>
</a>
</g>
</g>
<!-- Node1&#45;&gt;Node2 -->
<g id="edge2" class="edge">
<title>Node1&#45;&gt;Node2</title>
<path fill="none" stroke="#191970" d="M319.5839,-392.2455C318.1486,-384.9382 316.1364,-374.6944 314.3705,-365.7046"/>
<polygon fill="#191970" stroke="#191970" points="317.756,-364.7805 312.3941,-355.6427 310.8873,-366.1298 317.756,-364.7805"/>
</g>
<!-- Node3 -->
<g id="node4" class="node">
<title>Node3</title>
<g id="a_node4"><a xlink:href="generators_8h.html" target="_top" xlink:title="This file includes all the header files of subclasses of Generator class. ">
<polygon fill="#ffffff" stroke="#000000" points="252.5,-280.5 252.5,-299.5 344.5,-299.5 344.5,-280.5 252.5,-280.5"/>
<text text-anchor="middle" x="298.5" y="-287.5" font-family="Helvetica,sans-Serif" font-size="10.00" fill="#000000">core/generators.h</text>
</a>
</g>
</g>
<!-- Node2&#45;&gt;Node3 -->
<g id="edge3" class="edge">
<title>Node2&#45;&gt;Node3</title>
<path fill="none" stroke="#191970" d="M308.4098,-336.2455C306.8439,-328.9382 304.6488,-318.6944 302.7224,-309.7046"/>
<polygon fill="#191970" stroke="#191970" points="306.084,-308.6873 300.5663,-299.6427 299.2393,-310.1541 306.084,-308.6873"/>
</g>
<!-- Node4 -->
<g id="node5" class="node">
<title>Node4</title>
<g id="a_node5"><a xlink:href="element_8h.html" target="_top" xlink:title="This file has a definition of Element class, which is one of the cores of this program. ">
<polygon fill="#ffffff" stroke="#000000" points="213,-168.5 213,-187.5 294,-187.5 294,-168.5 213,-168.5"/>
<text text-anchor="middle" x="253.5" y="-175.5" font-family="Helvetica,sans-Serif" font-size="10.00" fill="#000000">core/element.h</text>
</a>
</g>
</g>
<!-- Node3&#45;&gt;Node4 -->
<g id="edge4" class="edge">
<title>Node3&#45;&gt;Node4</title>
<path fill="none" stroke="#191970" d="M294.6633,-280.4509C287.2575,-262.0186 270.8673,-221.2254 261.1512,-197.043"/>
<polygon fill="#191970" stroke="#191970" points="264.3029,-195.499 257.327,-187.5249 257.8075,-198.1088 264.3029,-195.499"/>
</g>
<!-- Node20 -->
<g id="node21" class="node">
<title>Node20</title>
<g id="a_node21"><a xlink:href="gen__dict_8h.html" target="_top" xlink:title="This file has a definition of GenDict class. ">
<polygon fill="#ffffff" stroke="#000000" points="316,-224.5 316,-243.5 399,-243.5 399,-224.5 316,-224.5"/>
<text text-anchor="middle" x="357.5" y="-231.5" font-family="Helvetica,sans-Serif" font-size="10.00" fill="#000000">core/gen_dict.h</text>
</a>
</g>
</g>
<!-- Node3&#45;&gt;Node20 -->
<g id="edge22" class="edge">
<title>Node3&#45;&gt;Node20</title>
<path fill="none" stroke="#191970" d="M308.777,-280.2455C317.3218,-272.1352 329.6778,-260.4075 339.8085,-250.7919"/>
<polygon fill="#191970" stroke="#191970" points="342.4972,-253.0655 347.3408,-243.6427 337.6782,-247.9884 342.4972,-253.0655"/>
</g>
<!-- Node21 -->
<g id="node22" class="node">
<title>Node21</title>
<g id="a_node22"><a xlink:href="gen__list_8h.html" target="_top" xlink:title="This file has a definition of GenList class. ">
<polygon fill="#ffffff" stroke="#000000" points="179.5,-224.5 179.5,-243.5 259.5,-243.5 259.5,-224.5 179.5,-224.5"/>
<text text-anchor="middle" x="219.5" y="-231.5" font-family="Helvetica,sans-Serif" font-size="10.00" fill="#000000">core/gen_list.h</text>
</a>
</g>
</g>
<!-- Node3&#45;&gt;Node21 -->
<g id="edge24" class="edge">
<title>Node3&#45;&gt;Node21</title>
<path fill="none" stroke="#191970" d="M284.7393,-280.2455C272.8448,-271.814 255.435,-259.4729 241.5915,-249.6598"/>
<polygon fill="#191970" stroke="#191970" points="243.2854,-246.5704 233.1031,-243.6427 239.2372,-252.2811 243.2854,-246.5704"/>
</g>
<!-- Node5 -->
<g id="node6" class="node">
<title>Node5</title>
<polygon fill="#ffffff" stroke="#bfbfbf" points="406.5,-112.5 406.5,-131.5 450.5,-131.5 450.5,-112.5 406.5,-112.5"/>
<text text-anchor="middle" x="428.5" y="-119.5" font-family="Helvetica,sans-Serif" font-size="10.00" fill="#000000">omp.h</text>
</g>
<!-- Node4&#45;&gt;Node5 -->
<g id="edge5" class="edge">
<title>Node4&#45;&gt;Node5</title>
<path fill="none" stroke="#191970" d="M283.5703,-168.4216C310.7727,-159.7507 352.1804,-146.5369 396.8984,-132.1875"/>
<polygon fill="#191970" stroke="#191970" points="398.0354,-135.4985 406.487,-129.1095 395.8958,-128.8335 398.0354,-135.4985"/>
</g>
<!-- Node6 -->
<g id="node7" class="node">
<title>Node6</title>
<g id="a_node7"><a xlink:href="eigen_8h.html" target="_top" xlink:title="This file includes Eigen and defines some aliases for the Eigen&#45;Vector, Matrix and Array...">
<polygon fill="#ffffff" stroke="#000000" points="0,-112.5 0,-131.5 71,-131.5 71,-112.5 0,-112.5"/>
<text text-anchor="middle" x="35.5" y="-119.5" font-family="Helvetica,sans-Serif" font-size="10.00" fill="#000000">alias/eigen.h</text>
</a>
</g>
</g>
<!-- Node4&#45;&gt;Node6 -->
<g id="edge6" class="edge">
<title>Node4&#45;&gt;Node6</title>
<path fill="none" stroke="#191970" d="M216.0245,-168.3733C178.5408,-158.7444 120.853,-143.9255 80.818,-133.6413"/>
<polygon fill="#191970" stroke="#191970" points="81.5993,-130.2285 71.043,-131.1303 79.8577,-137.0083 81.5993,-130.2285"/>
</g>
<!-- Node8 -->
<g id="node9" class="node">
<title>Node8</title>
<g id="a_node9"><a xlink:href="alias_2pybind_8h.html" target="_top" xlink:title="This file includes pybind11 and defines an alias for the namespace pybind11. ">
<polygon fill="#ffffff" stroke="#000000" points="92,-112.5 92,-131.5 169,-131.5 169,-112.5 92,-112.5"/>
<text text-anchor="middle" x="130.5" y="-119.5" font-family="Helvetica,sans-Serif" font-size="10.00" fill="#000000">alias/pybind.h</text>
</a>
</g>
</g>
<!-- Node4&#45;&gt;Node8 -->
<g id="edge8" class="edge">
<title>Node4&#45;&gt;Node8</title>
<path fill="none" stroke="#191970" d="M232.3555,-168.3733C212.6108,-159.3838 182.9302,-145.8706 160.6945,-135.7471"/>
<polygon fill="#191970" stroke="#191970" points="161.92,-132.4594 151.3685,-131.5011 159.0194,-138.8302 161.92,-132.4594"/>
</g>
<!-- Node10 -->
<g id="node11" class="node">
<title>Node10</title>
<g id="a_node11"><a xlink:href="generator_8h.html" target="_top" xlink:title="This file has a definition of Generator class, which is one of the cores of this program. ">
<polygon fill="#ffffff" stroke="#000000" points="187,-112.5 187,-131.5 274,-131.5 274,-112.5 187,-112.5"/>
<text text-anchor="middle" x="230.5" y="-119.5" font-family="Helvetica,sans-Serif" font-size="10.00" fill="#000000">core/generator.h</text>
</a>
</g>
</g>
<!-- Node4&#45;&gt;Node10 -->
<g id="edge10" class="edge">
<title>Node4&#45;&gt;Node10</title>
<path fill="none" stroke="#191970" d="M249.4937,-168.2455C246.4265,-160.7776 242.0997,-150.2427 238.3503,-141.1137"/>
<polygon fill="#191970" stroke="#191970" points="241.4972,-139.5631 234.4604,-131.6427 235.0221,-142.2226 241.4972,-139.5631"/>
</g>
<!-- Node19 -->
<g id="node20" class="node">
<title>Node19</title>
<g id="a_node20"><a xlink:href="data__keys_8h.html" target="_top" xlink:title="This file has a definition of DataKeys class, which is owned by Element class. ">
<polygon fill="#ffffff" stroke="#000000" points="292.5,-112.5 292.5,-131.5 388.5,-131.5 388.5,-112.5 292.5,-112.5"/>
<text text-anchor="middle" x="340.5" y="-119.5" font-family="Helvetica,sans-Serif" font-size="10.00" fill="#000000">class/data_keys.h</text>
</a>
</g>
</g>
<!-- Node4&#45;&gt;Node19 -->
<g id="edge19" class="edge">
<title>Node4&#45;&gt;Node19</title>
<path fill="none" stroke="#191970" d="M268.6542,-168.2455C282.0027,-159.6534 301.6586,-147.0014 317.0383,-137.1018"/>
<polygon fill="#191970" stroke="#191970" points="319.0051,-139.9982 325.5194,-131.6427 315.2164,-134.1121 319.0051,-139.9982"/>
</g>
<!-- Node7 -->
<g id="node8" class="node">
<title>Node7</title>
<polygon fill="#ffffff" stroke="#bfbfbf" points="3.5,-56.5 3.5,-75.5 59.5,-75.5 59.5,-56.5 3.5,-56.5"/>
<text text-anchor="middle" x="31.5" y="-63.5" font-family="Helvetica,sans-Serif" font-size="10.00" fill="#000000">Eigen/LU</text>
</g>
<!-- Node6&#45;&gt;Node7 -->
<g id="edge7" class="edge">
<title>Node6&#45;&gt;Node7</title>
<path fill="none" stroke="#191970" d="M34.8033,-112.2455C34.2813,-104.9382 33.5496,-94.6944 32.9075,-85.7046"/>
<polygon fill="#191970" stroke="#191970" points="36.3924,-85.3679 32.1888,-75.6427 29.4102,-85.8667 36.3924,-85.3679"/>
</g>
<!-- Node9 -->
<g id="node10" class="node">
<title>Node9</title>
<polygon fill="#ffffff" stroke="#bfbfbf" points="77.5,-56.5 77.5,-75.5 183.5,-75.5 183.5,-56.5 77.5,-56.5"/>
<text text-anchor="middle" x="130.5" y="-63.5" font-family="Helvetica,sans-Serif" font-size="10.00" fill="#000000">pybind11/pybind11.h</text>
</g>
<!-- Node8&#45;&gt;Node9 -->
<g id="edge9" class="edge">
<title>Node8&#45;&gt;Node9</title>
<path fill="none" stroke="#191970" d="M130.5,-112.2455C130.5,-104.9382 130.5,-94.6944 130.5,-85.7046"/>
<polygon fill="#191970" stroke="#191970" points="134.0001,-85.6426 130.5,-75.6427 127.0001,-85.6427 134.0001,-85.6426"/>
</g>
<!-- Node11 -->
<g id="node12" class="node">
<title>Node11</title>
<g id="a_node12"><a xlink:href="std_8h.html" target="_top" xlink:title="This file includes a part of C++ Standard Template Library and defines aliases for them...">
<polygon fill="#ffffff" stroke="#000000" points="371.5,-56.5 371.5,-75.5 433.5,-75.5 433.5,-56.5 371.5,-56.5"/>
<text text-anchor="middle" x="402.5" y="-63.5" font-family="Helvetica,sans-Serif" font-size="10.00" fill="#000000">alias/std.h</text>
</a>
</g>
</g>
<!-- Node10&#45;&gt;Node11 -->
<g id="edge11" class="edge">
<title>Node10&#45;&gt;Node11</title>
<path fill="none" stroke="#191970" d="M260.0679,-112.3733C288.6688,-103.0613 332.1788,-88.8953 363.5819,-78.671"/>
<polygon fill="#191970" stroke="#191970" points="364.8928,-81.9251 373.318,-75.5011 362.7257,-75.269 364.8928,-81.9251"/>
</g>
<!-- Node17 -->
<g id="node18" class="node">
<title>Node17</title>
<g id="a_node18"><a xlink:href="json_8h.html" target="_top" xlink:title="This file includes nlohmann/json and defines an alias for a JSON class. ">
<polygon fill="#ffffff" stroke="#000000" points="201.5,-56.5 201.5,-75.5 267.5,-75.5 267.5,-56.5 201.5,-56.5"/>
<text text-anchor="middle" x="234.5" y="-63.5" font-family="Helvetica,sans-Serif" font-size="10.00" fill="#000000">alias/json.h</text>
</a>
</g>
</g>
<!-- Node10&#45;&gt;Node17 -->
<g id="edge17" class="edge">
<title>Node10&#45;&gt;Node17</title>
<path fill="none" stroke="#191970" d="M231.1967,-112.2455C231.7187,-104.9382 232.4504,-94.6944 233.0925,-85.7046"/>
<polygon fill="#191970" stroke="#191970" points="236.5898,-85.8667 233.8112,-75.6427 229.6076,-85.3679 236.5898,-85.8667"/>
</g>
<!-- Node12 -->
<g id="node13" class="node">
<title>Node12</title>
<polygon fill="#ffffff" stroke="#bfbfbf" points="589.5,-.5 589.5,-19.5 641.5,-19.5 641.5,-.5 589.5,-.5"/>
<text text-anchor="middle" x="615.5" y="-7.5" font-family="Helvetica,sans-Serif" font-size="10.00" fill="#000000">memory</text>
</g>
<!-- Node11&#45;&gt;Node12 -->
<g id="edge12" class="edge">
<title>Node11&#45;&gt;Node12</title>
<path fill="none" stroke="#191970" d="M433.7532,-58.179C467.402,-49.7024 522.7441,-35.5999 579.3195,-20.2777"/>
<polygon fill="#191970" stroke="#191970" points="580.4146,-23.6071 589.1468,-17.607 578.5789,-16.852 580.4146,-23.6071"/>
</g>
<!-- Node13 -->
<g id="node14" class="node">
<title>Node13</title>
<polygon fill="#ffffff" stroke="#bfbfbf" points="270,-.5 270,-19.5 311,-19.5 311,-.5 270,-.5"/>
<text text-anchor="middle" x="290.5" y="-7.5" font-family="Helvetica,sans-Serif" font-size="10.00" fill="#000000">string</text>
</g>
<!-- Node11&#45;&gt;Node13 -->
<g id="edge13" class="edge">
<title>Node11&#45;&gt;Node13</title>
<path fill="none" stroke="#191970" d="M383.2465,-56.3733C365.4288,-47.4644 338.7253,-34.1127 318.5406,-24.0203"/>
<polygon fill="#191970" stroke="#191970" points="320.0118,-20.8428 309.5022,-19.5011 316.8813,-27.1038 320.0118,-20.8428"/>
</g>
<!-- Node14 -->
<g id="node15" class="node">
<title>Node14</title>
<polygon fill="#ffffff" stroke="#bfbfbf" points="329.5,-.5 329.5,-19.5 373.5,-19.5 373.5,-.5 329.5,-.5"/>
<text text-anchor="middle" x="351.5" y="-7.5" font-family="Helvetica,sans-Serif" font-size="10.00" fill="#000000">vector</text>
</g>
<!-- Node11&#45;&gt;Node14 -->
<g id="edge14" class="edge">
<title>Node11&#45;&gt;Node14</title>
<path fill="none" stroke="#191970" d="M393.6165,-56.2455C386.3034,-48.2155 375.7609,-36.6394 367.0533,-27.0781"/>
<polygon fill="#191970" stroke="#191970" points="369.6028,-24.6795 360.2817,-19.6427 364.4273,-29.3928 369.6028,-24.6795"/>
</g>
<!-- Node15 -->
<g id="node16" class="node">
<title>Node15</title>
<polygon fill="#ffffff" stroke="#bfbfbf" points="392,-.5 392,-19.5 475,-19.5 475,-.5 392,-.5"/>
<text text-anchor="middle" x="433.5" y="-7.5" font-family="Helvetica,sans-Serif" font-size="10.00" fill="#000000">unordered_map</text>
</g>
<!-- Node11&#45;&gt;Node15 -->
<g id="edge15" class="edge">
<title>Node11&#45;&gt;Node15</title>
<path fill="none" stroke="#191970" d="M407.8998,-56.2455C412.1227,-48.617 418.1173,-37.7881 423.2441,-28.5267"/>
<polygon fill="#191970" stroke="#191970" points="426.381,-30.0867 428.1621,-19.6427 420.2568,-26.6965 426.381,-30.0867"/>
</g>
<!-- Node16 -->
<g id="node17" class="node">
<title>Node16</title>
<polygon fill="#ffffff" stroke="#bfbfbf" points="493.5,-.5 493.5,-19.5 571.5,-19.5 571.5,-.5 493.5,-.5"/>
<text text-anchor="middle" x="532.5" y="-7.5" font-family="Helvetica,sans-Serif" font-size="10.00" fill="#000000">unordered_set</text>
</g>
<!-- Node11&#45;&gt;Node16 -->
<g id="edge16" class="edge">
<title>Node11&#45;&gt;Node16</title>
<path fill="none" stroke="#191970" d="M424.8478,-56.3733C445.9033,-47.3032 477.6495,-33.6279 501.2175,-23.4755"/>
<polygon fill="#191970" stroke="#191970" points="502.6444,-26.6719 510.4438,-19.5011 499.875,-20.243 502.6444,-26.6719"/>
</g>
<!-- Node18 -->
<g id="node19" class="node">
<title>Node18</title>
<polygon fill="#ffffff" stroke="#bfbfbf" points="153.5,-.5 153.5,-19.5 251.5,-19.5 251.5,-.5 153.5,-.5"/>
<text text-anchor="middle" x="202.5" y="-7.5" font-family="Helvetica,sans-Serif" font-size="10.00" fill="#000000">nlohmann/json.hpp</text>
</g>
<!-- Node17&#45;&gt;Node18 -->
<g id="edge18" class="edge">
<title>Node17&#45;&gt;Node18</title>
<path fill="none" stroke="#191970" d="M228.926,-56.2455C224.5669,-48.617 218.3789,-37.7881 213.0867,-28.5267"/>
<polygon fill="#191970" stroke="#191970" points="216.0104,-26.5886 208.0101,-19.6427 209.9327,-30.0616 216.0104,-26.5886"/>
</g>
<!-- Node19&#45;&gt;Node11 -->
<g id="edge20" class="edge">
<title>Node19&#45;&gt;Node11</title>
<path fill="none" stroke="#191970" d="M351.2996,-112.2455C360.3678,-104.0549 373.5206,-92.1749 384.2245,-82.5069"/>
<polygon fill="#191970" stroke="#191970" points="386.7491,-84.9429 391.8242,-75.6427 382.0571,-79.7482 386.7491,-84.9429"/>
</g>
<!-- Node19&#45;&gt;Node17 -->
<g id="edge21" class="edge">
<title>Node19&#45;&gt;Node17</title>
<path fill="none" stroke="#191970" d="M322.0362,-112.2455C305.3926,-103.4527 280.7007,-90.4079 261.7808,-80.4125"/>
<polygon fill="#191970" stroke="#191970" points="263.2291,-77.2193 252.7522,-75.6427 259.9592,-83.4086 263.2291,-77.2193"/>
</g>
<!-- Node20&#45;&gt;Node4 -->
<g id="edge23" class="edge">
<title>Node20&#45;&gt;Node4</title>
<path fill="none" stroke="#191970" d="M339.3846,-224.2455C323.055,-215.4527 298.829,-202.4079 280.2661,-192.4125"/>
<polygon fill="#191970" stroke="#191970" points="281.8719,-189.3021 271.4078,-187.6427 278.5532,-195.4654 281.8719,-189.3021"/>
</g>
<!-- Node21&#45;&gt;Node4 -->
<g id="edge25" class="edge">
<title>Node21&#45;&gt;Node4</title>
<path fill="none" stroke="#191970" d="M225.4223,-224.2455C230.1027,-216.5367 236.7673,-205.5598 242.4289,-196.2348"/>
<polygon fill="#191970" stroke="#191970" points="245.4475,-198.007 247.6455,-187.6427 239.4639,-194.3741 245.4475,-198.007"/>
</g>
<!-- Node22&#45;&gt;Node11 -->
<g id="edge27" class="edge">
<title>Node22&#45;&gt;Node11</title>
<path fill="none" stroke="#191970" d="M469.076,-336.4427C472.1176,-317.1407 478.5,-272.0991 478.5,-234 478.5,-234 478.5,-234 478.5,-178 478.5,-147.4754 476.3823,-137.4311 459.5,-112 451.3977,-99.7949 439.0446,-89.2592 427.9072,-81.362"/>
<polygon fill="#191970" stroke="#191970" points="429.5943,-78.2791 419.3404,-75.6129 425.6935,-84.0916 429.5943,-78.2791"/>
</g>
</g>
</svg>
        <g id="navigator" transform="translate(0 0)" fill="#404254">
                <rect fill="#f2f5e9" fill-opacity="0.5" stroke="#606060" stroke-width=".5" x="0" y="0" width="60" height="60"/>
                <use id="zoomplus" xlink:href="#zoomPlus" x="17" y="9" onmousedown="handleZoom(evt,'in')"/>
                <use id="zoomminus" xlink:href="#zoomMin" x="42" y="9" onmousedown="handleZoom(evt,'out')"/>
                <use id="reset" xlink:href="#resetDef" x="30" y="36" onmousedown="handleReset()"/>
                <g id="arrowUp" xlink:href="#dirArrow" transform="translate(30 24)" onmousedown="handlePan(0,-1)">
                  <use xlink:href="#rim" fill="#404040">
                        <set attributeName="fill" to="#808080" begin="arrowUp.mouseover" end="arrowUp.mouseout"/>
                  </use>
                  <path fill="none" stroke="white" stroke-width="1.5" d="M0,-3.0v7 M-2.5,-0.5L0,-3.0L2.5,-0.5"/>
                </g>
                <g id="arrowRight" xlink:href="#dirArrow" transform="rotate(90) translate(36 -43)" onmousedown="handlePan(1,0)">
                  <use xlink:href="#rim" fill="#404040">
                        <set attributeName="fill" to="#808080" begin="arrowRight.mouseover" end="arrowRight.mouseout"/>
                  </use>
                  <path fill="none" stroke="white" stroke-width="1.5" d="M0,-3.0v7 M-2.5,-0.5L0,-3.0L2.5,-0.5"/>
                </g>
                <g id="arrowDown" xlink:href="#dirArrow" transform="rotate(180) translate(-30 -48)" onmousedown="handlePan(0,1)">
                  <use xlink:href="#rim" fill="#404040">
                        <set attributeName="fill" to="#808080" begin="arrowDown.mouseover" end="arrowDown.mouseout"/>
                  </use>
                  <path fill="none" stroke="white" stroke-width="1.5" d="M0,-3.0v7 M-2.5,-0.5L0,-3.0L2.5,-0.5"/>
                </g>
                <g id="arrowLeft" xlink:href="#dirArrow" transform="rotate(270) translate(-36 17)" onmousedown="handlePan(-1,0)">
                  <use xlink:href="#rim" fill="#404040">
                        <set attributeName="fill" to="#808080" begin="arrowLeft.mouseover" end="arrowLeft.mouseout"/>
                  </use>
                  <path fill="none" stroke="white" stroke-width="1.5" d="M0,-3.0v7 M-2.5,-0.5L0,-3.0L2.5,-0.5"/>
                </g>
        </g>
        <svg viewBox="0 0 15 15" width="100%" height="30px" preserveAspectRatio="xMaxYMin meet">
         <g id="arrow_out" transform="scale(0.3 0.3)">
          <a xlink:href="pro__mean__square__displacement_8cpp__incl_org.svg" target="_base">
           <rect id="button" ry="5" rx="5" y="6" x="6" height="38" width="38"
                fill="#f2f5e9" fill-opacity="0.5" stroke="#606060" stroke-width="1.0"/>
           <path id="arrow"
             d="M 11.500037,31.436501 C 11.940474,20.09759 22.043105,11.32322 32.158766,21.979434 L 37.068811,17.246167 C 37.068811,17.246167 37.088388,32 37.088388,32 L 22.160133,31.978069 C 22.160133,31.978069 26.997745,27.140456 26.997745,27.140456 C 18.528582,18.264221 13.291696,25.230495 11.500037,31.436501 z"
             style="fill:#404040;"/>
          </a>
         </g>
        </svg>
</svg>
