<?xml version="1.0" encoding="UTF-8" standalone="no"?>
<!DOCTYPE svg PUBLIC "-//W3C//DTD SVG 1.1//EN"
 "http://www.w3.org/Graphics/SVG/1.1/DTD/svg11.dtd">
<!-- Generated by graphviz version 2.40.1 (20161225.0304)
 -->
<!-- Title: src/processors/pro_data.cpp Pages: 1 -->
<!--zoomable 498 -->
<svg id="main" version="1.1" xmlns="http://www.w3.org/2000/svg" xmlns:xlink="http://www.w3.org/1999/xlink" xml:space="preserve" onload="init(evt)">
<style type="text/css"><![CDATA[
.edge:hover path { stroke: red; }
.edge:hover polygon { stroke: red; fill: red; }
]]></style>
<script type="text/javascript"><![CDATA[
var edges = document.getElementsByTagName('g');
if (edges && edges.length) {
  for (var i=0;i<edges.length;i++) {
    if (edges[i].id.substr(0,4)=='edge') {
      edges[i].setAttribute('class','edge');
    }
  }
}
]]></script>
        <defs>
                <circle id="rim" cx="0" cy="0" r="7"/>
                <circle id="rim2" cx="0" cy="0" r="3.5"/>
                <g id="zoomPlus">
                        <use xlink:href="#rim" fill="#404040">
                                <set attributeName="fill" to="#808080" begin="zoomplus.mouseover" end="zoomplus.mouseout"/>
                        </use>
                        <path d="M-4,0h8M0,-4v8" fill="none" stroke="white" stroke-width="1.5" pointer-events="none"/>
                </g>
                <g id="zoomMin">
                        <use xlink:href="#rim" fill="#404040">
                                <set attributeName="fill" to="#808080" begin="zoomminus.mouseover" end="zoomminus.mouseout"/>
                        </use>
                        <path d="M-4,0h8" fill="none" stroke="white" stroke-width="1.5" pointer-events="none"/>
                </g>
                <g id="dirArrow">
                        <path fill="none" stroke="white" stroke-width="1.5" d="M0,-3.0v7 M-2.5,-0.5L0,-3.0L2.5,-0.5"/>
                </g>
               <g id="resetDef">
                       <use xlink:href="#rim2" fill="#404040">
                               <set attributeName="fill" to="#808080" begin="reset.mouseover" end="reset.mouseout"/>
                       </use>
               </g>
        </defs>

<script type="text/javascript">
var viewWidth = 496;
var viewHeight = 498;
var sectionId = 'dynsection-0';
</script>
<script xlink:href="svgpan.js"/>
<svg id="graph" class="graph">
<g id="viewport">
<title>src/processors/pro_data.cpp</title>
<polygon fill="#ffffff" stroke="transparent" points="-4,4 -4,-494 492,-494 492,4 -4,4"/>
<!-- Node0 -->
<g id="node1" class="node">
<title>Node0</title>
<polygon fill="#bfbfbf" stroke="#000000" points="286,-459.5 286,-489.5 384,-489.5 384,-459.5 286,-459.5"/>
<text text-anchor="start" x="294" y="-477.5" font-family="Helvetica,sans-Serif" font-size="10.00" fill="#000000">src/processors/pro</text>
<text text-anchor="middle" x="335" y="-466.5" font-family="Helvetica,sans-Serif" font-size="10.00" fill="#000000">_data.cpp</text>
</g>
<!-- Node1 -->
<g id="node2" class="node">
<title>Node1</title>
<g id="a_node2"><a xlink:href="alias_2pybind_8h.html" target="_top" xlink:title="This file includes pybind11 and defines an alias for the namespace pybind11. ">
<polygon fill="#ffffff" stroke="#000000" points="345.5,-112.5 345.5,-131.5 422.5,-131.5 422.5,-112.5 345.5,-112.5"/>
<text text-anchor="middle" x="384" y="-119.5" font-family="Helvetica,sans-Serif" font-size="10.00" fill="#000000">alias/pybind.h</text>
</a>
</g>
</g>
<!-- Node0&#45;&gt;Node1 -->
<g id="edge1" class="edge">
<title>Node0&#45;&gt;Node1</title>
<path fill="none" stroke="#191970" d="M346.5405,-459.4817C361.8601,-438.0033 387,-396.7077 387,-357 387,-357 387,-357 387,-245 387,-208.4885 385.6626,-165.8988 384.7737,-141.6249"/>
<polygon fill="#191970" stroke="#191970" points="388.2688,-141.4273 384.3922,-131.5672 381.2738,-141.6927 388.2688,-141.4273"/>
</g>
<!-- Node3 -->
<g id="node4" class="node">
<title>Node3</title>
<g id="a_node4"><a xlink:href="pro__data_8h.html" target="_top" xlink:title="This file has a definition of ProData class, which is a subclass of Processor class. ">
<polygon fill="#ffffff" stroke="#000000" points="231,-403.5 231,-422.5 293,-422.5 293,-403.5 231,-403.5"/>
<text text-anchor="middle" x="262" y="-410.5" font-family="Helvetica,sans-Serif" font-size="10.00" fill="#000000">pro_data.h</text>
</a>
</g>
</g>
<!-- Node0&#45;&gt;Node3 -->
<g id="edge3" class="edge">
<title>Node0&#45;&gt;Node3</title>
<path fill="none" stroke="#191970" d="M316.9551,-459.2977C306.1886,-450.2274 292.5149,-438.7077 281.5005,-429.4285"/>
<polygon fill="#191970" stroke="#191970" points="283.5911,-426.6132 273.6882,-422.8469 279.0809,-431.9667 283.5911,-426.6132"/>
</g>
<!-- Node21 -->
<g id="node22" class="node">
<title>Node21</title>
<g id="a_node22"><a xlink:href="pyargs__to__vec_8h.html" target="_top" xlink:title="This file has a definition of utils::pyargs_to_vec. ">
<polygon fill="#ffffff" stroke="#000000" points="269.5,-168.5 269.5,-198.5 358.5,-198.5 358.5,-168.5 269.5,-168.5"/>
<text text-anchor="start" x="277.5" y="-186.5" font-family="Helvetica,sans-Serif" font-size="10.00" fill="#000000">../utils/pyargs_to</text>
<text text-anchor="middle" x="314" y="-175.5" font-family="Helvetica,sans-Serif" font-size="10.00" fill="#000000">_vec.h</text>
</a>
</g>
</g>
<!-- Node0&#45;&gt;Node21 -->
<g id="edge24" class="edge">
<title>Node0&#45;&gt;Node21</title>
<path fill="none" stroke="#191970" d="M335,-459.2899C335,-436.892 335,-393.7188 335,-357 335,-357 335,-357 335,-301 335,-268.6534 327.1925,-232.0683 321.0987,-208.4393"/>
<polygon fill="#191970" stroke="#191970" points="324.42,-207.3114 318.4536,-198.5563 317.658,-209.1212 324.42,-207.3114"/>
</g>
<!-- Node2 -->
<g id="node3" class="node">
<title>Node2</title>
<polygon fill="#ffffff" stroke="#bfbfbf" points="347,-56.5 347,-75.5 453,-75.5 453,-56.5 347,-56.5"/>
<text text-anchor="middle" x="400" y="-63.5" font-family="Helvetica,sans-Serif" font-size="10.00" fill="#000000">pybind11/pybind11.h</text>
</g>
<!-- Node1&#45;&gt;Node2 -->
<g id="edge2" class="edge">
<title>Node1&#45;&gt;Node2</title>
<path fill="none" stroke="#191970" d="M386.787,-112.2455C388.8977,-104.8579 391.866,-94.4689 394.4547,-85.4087"/>
<polygon fill="#191970" stroke="#191970" points="397.863,-86.2195 397.245,-75.6427 391.1323,-84.2964 397.863,-86.2195"/>
</g>
<!-- Node4 -->
<g id="node5" class="node">
<title>Node4</title>
<g id="a_node5"><a xlink:href="processor_8h.html" target="_top" xlink:title="This file has a definition of Processor class, where an analysis process is programmed. ">
<polygon fill="#ffffff" stroke="#000000" points="174.5,-347.5 174.5,-366.5 293.5,-366.5 293.5,-347.5 174.5,-347.5"/>
<text text-anchor="middle" x="234" y="-354.5" font-family="Helvetica,sans-Serif" font-size="10.00" fill="#000000">processors/processor.h</text>
</a>
</g>
</g>
<!-- Node3&#45;&gt;Node4 -->
<g id="edge4" class="edge">
<title>Node3&#45;&gt;Node4</title>
<path fill="none" stroke="#191970" d="M257.1228,-403.2455C253.3487,-395.6973 248.0079,-385.0158 243.4099,-375.8197"/>
<polygon fill="#191970" stroke="#191970" points="246.424,-374.0217 238.8213,-366.6427 240.163,-377.1522 246.424,-374.0217"/>
</g>
<!-- Node5 -->
<g id="node6" class="node">
<title>Node5</title>
<g id="a_node6"><a xlink:href="generators_8h.html" target="_top" xlink:title="This file includes all the header files of subclasses of Generator class. ">
<polygon fill="#ffffff" stroke="#000000" points="175,-291.5 175,-310.5 267,-310.5 267,-291.5 175,-291.5"/>
<text text-anchor="middle" x="221" y="-298.5" font-family="Helvetica,sans-Serif" font-size="10.00" fill="#000000">core/generators.h</text>
</a>
</g>
</g>
<!-- Node4&#45;&gt;Node5 -->
<g id="edge5" class="edge">
<title>Node4&#45;&gt;Node5</title>
<path fill="none" stroke="#191970" d="M231.7356,-347.2455C230.0206,-339.8579 227.6088,-329.4689 225.5056,-320.4087"/>
<polygon fill="#191970" stroke="#191970" points="228.9092,-319.5922 223.2385,-310.6427 222.0905,-321.1751 228.9092,-319.5922"/>
</g>
<!-- Node6 -->
<g id="node7" class="node">
<title>Node6</title>
<g id="a_node7"><a xlink:href="element_8h.html" target="_top" xlink:title="This file has a definition of Element class, which is one of the cores of this program. ">
<polygon fill="#ffffff" stroke="#000000" points="154.5,-174 154.5,-193 235.5,-193 235.5,-174 154.5,-174"/>
<text text-anchor="middle" x="195" y="-181" font-family="Helvetica,sans-Serif" font-size="10.00" fill="#000000">core/element.h</text>
</a>
</g>
</g>
<!-- Node5&#45;&gt;Node6 -->
<g id="edge6" class="edge">
<title>Node5&#45;&gt;Node6</title>
<path fill="none" stroke="#191970" d="M218.8723,-291.3845C214.6253,-272.1913 205.0207,-228.786 199.3738,-203.2663"/>
<polygon fill="#191970" stroke="#191970" points="202.735,-202.256 197.1571,-193.2484 195.9003,-203.7684 202.735,-202.256"/>
</g>
<!-- Node19 -->
<g id="node20" class="node">
<title>Node19</title>
<g id="a_node20"><a xlink:href="gen__dict_8h.html" target="_top" xlink:title="This file has a definition of GenDict class. ">
<polygon fill="#ffffff" stroke="#000000" points="223.5,-235.5 223.5,-254.5 306.5,-254.5 306.5,-235.5 223.5,-235.5"/>
<text text-anchor="middle" x="265" y="-242.5" font-family="Helvetica,sans-Serif" font-size="10.00" fill="#000000">core/gen_dict.h</text>
</a>
</g>
</g>
<!-- Node5&#45;&gt;Node19 -->
<g id="edge20" class="edge">
<title>Node5&#45;&gt;Node19</title>
<path fill="none" stroke="#191970" d="M228.6642,-291.2455C234.8473,-283.3761 243.7063,-272.101 251.1289,-262.6542"/>
<polygon fill="#191970" stroke="#191970" points="253.9975,-264.6683 257.4236,-254.6427 248.4932,-260.3435 253.9975,-264.6683"/>
</g>
<!-- Node20 -->
<g id="node21" class="node">
<title>Node20</title>
<g id="a_node21"><a xlink:href="gen__list_8h.html" target="_top" xlink:title="This file has a definition of GenList class. ">
<polygon fill="#ffffff" stroke="#000000" points="87,-235.5 87,-254.5 167,-254.5 167,-235.5 87,-235.5"/>
<text text-anchor="middle" x="127" y="-242.5" font-family="Helvetica,sans-Serif" font-size="10.00" fill="#000000">core/gen_list.h</text>
</a>
</g>
</g>
<!-- Node5&#45;&gt;Node20 -->
<g id="edge22" class="edge">
<title>Node5&#45;&gt;Node20</title>
<path fill="none" stroke="#191970" d="M204.6264,-291.2455C190.0692,-282.5731 168.569,-269.7645 151.8848,-259.825"/>
<polygon fill="#191970" stroke="#191970" points="153.5683,-256.7539 143.1859,-254.6427 149.9856,-262.7676 153.5683,-256.7539"/>
</g>
<!-- Node6&#45;&gt;Node1 -->
<g id="edge10" class="edge">
<title>Node6&#45;&gt;Node1</title>
<path fill="none" stroke="#191970" d="M224.5313,-173.8906C256.9866,-163.3298 309.2581,-146.3208 345.0486,-134.6747"/>
<polygon fill="#191970" stroke="#191970" points="346.2499,-137.9645 354.6761,-131.5419 344.0839,-131.308 346.2499,-137.9645"/>
</g>
<!-- Node7 -->
<g id="node8" class="node">
<title>Node7</title>
<polygon fill="#ffffff" stroke="#bfbfbf" points="242,-112.5 242,-131.5 286,-131.5 286,-112.5 242,-112.5"/>
<text text-anchor="middle" x="264" y="-119.5" font-family="Helvetica,sans-Serif" font-size="10.00" fill="#000000">omp.h</text>
</g>
<!-- Node6&#45;&gt;Node7 -->
<g id="edge7" class="edge">
<title>Node6&#45;&gt;Node7</title>
<path fill="none" stroke="#191970" d="M205.7813,-173.8906C216.3526,-164.4683 232.6825,-149.9134 245.3603,-138.6137"/>
<polygon fill="#191970" stroke="#191970" points="247.9304,-141.0114 253.0667,-131.7449 243.2728,-135.7858 247.9304,-141.0114"/>
</g>
<!-- Node8 -->
<g id="node9" class="node">
<title>Node8</title>
<g id="a_node9"><a xlink:href="eigen_8h.html" target="_top" xlink:title="This file includes Eigen and defines some aliases for the Eigen&#45;Vector, Matrix and Array...">
<polygon fill="#ffffff" stroke="#000000" points="47.5,-112.5 47.5,-131.5 118.5,-131.5 118.5,-112.5 47.5,-112.5"/>
<text text-anchor="middle" x="83" y="-119.5" font-family="Helvetica,sans-Serif" font-size="10.00" fill="#000000">alias/eigen.h</text>
</a>
</g>
</g>
<!-- Node6&#45;&gt;Node8 -->
<g id="edge8" class="edge">
<title>Node6&#45;&gt;Node8</title>
<path fill="none" stroke="#191970" d="M177.5,-173.8906C159.2535,-163.8713 130.4376,-148.0483 109.4194,-136.5071"/>
<polygon fill="#191970" stroke="#191970" points="110.8272,-133.2872 100.3771,-131.5419 107.458,-139.423 110.8272,-133.2872"/>
</g>
<!-- Node10 -->
<g id="node11" class="node">
<title>Node10</title>
<g id="a_node11"><a xlink:href="generator_8h.html" target="_top" xlink:title="This file has a definition of Generator class, which is one of the cores of this program. ">
<polygon fill="#ffffff" stroke="#000000" points="136.5,-112.5 136.5,-131.5 223.5,-131.5 223.5,-112.5 136.5,-112.5"/>
<text text-anchor="middle" x="180" y="-119.5" font-family="Helvetica,sans-Serif" font-size="10.00" fill="#000000">core/generator.h</text>
</a>
</g>
</g>
<!-- Node6&#45;&gt;Node10 -->
<g id="edge11" class="edge">
<title>Node6&#45;&gt;Node10</title>
<path fill="none" stroke="#191970" d="M192.6563,-173.8906C190.5551,-165.276 187.4075,-152.3708 184.777,-141.5858"/>
<polygon fill="#191970" stroke="#191970" points="188.1468,-140.6307 182.3768,-131.7449 181.3461,-142.2894 188.1468,-140.6307"/>
</g>
<!-- Node9 -->
<g id="node10" class="node">
<title>Node9</title>
<polygon fill="#ffffff" stroke="#bfbfbf" points="47,-56.5 47,-75.5 119,-75.5 119,-56.5 47,-56.5"/>
<text text-anchor="middle" x="83" y="-63.5" font-family="Helvetica,sans-Serif" font-size="10.00" fill="#000000">Eigen/Dense</text>
</g>
<!-- Node8&#45;&gt;Node9 -->
<g id="edge9" class="edge">
<title>Node8&#45;&gt;Node9</title>
<path fill="none" stroke="#191970" d="M83,-112.2455C83,-104.9382 83,-94.6944 83,-85.7046"/>
<polygon fill="#191970" stroke="#191970" points="86.5001,-85.6426 83,-75.6427 79.5001,-85.6427 86.5001,-85.6426"/>
</g>
<!-- Node11 -->
<g id="node12" class="node">
<title>Node11</title>
<g id="a_node12"><a xlink:href="std_8h.html" target="_top" xlink:title="This file includes a part of C++ Standard Template Library and defines aliases for them...">
<polygon fill="#ffffff" stroke="#000000" points="267,-56.5 267,-75.5 329,-75.5 329,-56.5 267,-56.5"/>
<text text-anchor="middle" x="298" y="-63.5" font-family="Helvetica,sans-Serif" font-size="10.00" fill="#000000">alias/std.h</text>
</a>
</g>
</g>
<!-- Node10&#45;&gt;Node11 -->
<g id="edge12" class="edge">
<title>Node10&#45;&gt;Node11</title>
<path fill="none" stroke="#191970" d="M200.2849,-112.3733C219.1421,-103.4241 247.446,-89.9917 268.7455,-79.8835"/>
<polygon fill="#191970" stroke="#191970" points="270.4461,-82.9506 277.9798,-75.5011 267.4449,-76.6266 270.4461,-82.9506"/>
</g>
<!-- Node17 -->
<g id="node18" class="node">
<title>Node17</title>
<g id="a_node18"><a xlink:href="json_8h.html" target="_top" xlink:title="This file includes nlohmann/json and defines an alias for a JSON class. ">
<polygon fill="#ffffff" stroke="#000000" points="142,-56.5 142,-75.5 208,-75.5 208,-56.5 142,-56.5"/>
<text text-anchor="middle" x="175" y="-63.5" font-family="Helvetica,sans-Serif" font-size="10.00" fill="#000000">alias/json.h</text>
</a>
</g>
</g>
<!-- Node10&#45;&gt;Node17 -->
<g id="edge18" class="edge">
<title>Node10&#45;&gt;Node17</title>
<path fill="none" stroke="#191970" d="M179.1291,-112.2455C178.4766,-104.9382 177.562,-94.6944 176.7593,-85.7046"/>
<polygon fill="#191970" stroke="#191970" points="180.2365,-85.2918 175.861,-75.6427 173.2642,-85.9143 180.2365,-85.2918"/>
</g>
<!-- Node12 -->
<g id="node13" class="node">
<title>Node12</title>
<polygon fill="#ffffff" stroke="#bfbfbf" points="314,-.5 314,-19.5 366,-19.5 366,-.5 314,-.5"/>
<text text-anchor="middle" x="340" y="-7.5" font-family="Helvetica,sans-Serif" font-size="10.00" fill="#000000">memory</text>
</g>
<!-- Node11&#45;&gt;Node12 -->
<g id="edge13" class="edge">
<title>Node11&#45;&gt;Node12</title>
<path fill="none" stroke="#191970" d="M305.3158,-56.2455C311.2179,-48.3761 319.6742,-37.101 326.7594,-27.6542"/>
<polygon fill="#191970" stroke="#191970" points="329.568,-29.7427 332.768,-19.6427 323.9679,-25.5427 329.568,-29.7427"/>
</g>
<!-- Node13 -->
<g id="node14" class="node">
<title>Node13</title>
<polygon fill="#ffffff" stroke="#bfbfbf" points="384.5,-.5 384.5,-19.5 425.5,-19.5 425.5,-.5 384.5,-.5"/>
<text text-anchor="middle" x="405" y="-7.5" font-family="Helvetica,sans-Serif" font-size="10.00" fill="#000000">string</text>
</g>
<!-- Node11&#45;&gt;Node13 -->
<g id="edge14" class="edge">
<title>Node11&#45;&gt;Node13</title>
<path fill="none" stroke="#191970" d="M316.638,-56.2455C333.4386,-47.4527 358.3634,-34.4079 377.4618,-24.4125"/>
<polygon fill="#191970" stroke="#191970" points="379.3386,-27.3807 386.5756,-19.6427 376.0927,-21.1787 379.3386,-27.3807"/>
</g>
<!-- Node14 -->
<g id="node15" class="node">
<title>Node14</title>
<polygon fill="#ffffff" stroke="#bfbfbf" points="444,-.5 444,-19.5 488,-19.5 488,-.5 444,-.5"/>
<text text-anchor="middle" x="466" y="-7.5" font-family="Helvetica,sans-Serif" font-size="10.00" fill="#000000">vector</text>
</g>
<!-- Node11&#45;&gt;Node14 -->
<g id="edge15" class="edge">
<title>Node11&#45;&gt;Node14</title>
<path fill="none" stroke="#191970" d="M326.8802,-56.3733C356.718,-46.4273 403.1685,-30.9438 434.0791,-20.6403"/>
<polygon fill="#191970" stroke="#191970" points="435.5396,-23.8429 443.9196,-17.3601 433.3259,-17.2021 435.5396,-23.8429"/>
</g>
<!-- Node15 -->
<g id="node16" class="node">
<title>Node15</title>
<polygon fill="#ffffff" stroke="#bfbfbf" points="116.5,-.5 116.5,-19.5 199.5,-19.5 199.5,-.5 116.5,-.5"/>
<text text-anchor="middle" x="158" y="-7.5" font-family="Helvetica,sans-Serif" font-size="10.00" fill="#000000">unordered_map</text>
</g>
<!-- Node11&#45;&gt;Node15 -->
<g id="edge16" class="edge">
<title>Node11&#45;&gt;Node15</title>
<path fill="none" stroke="#191970" d="M273.9331,-56.3733C251.1572,-47.2629 216.7656,-33.5062 191.351,-23.3404"/>
<polygon fill="#191970" stroke="#191970" points="192.3375,-19.9654 181.7528,-19.5011 189.7377,-26.4648 192.3375,-19.9654"/>
</g>
<!-- Node16 -->
<g id="node17" class="node">
<title>Node16</title>
<polygon fill="#ffffff" stroke="#bfbfbf" points="218,-.5 218,-19.5 296,-19.5 296,-.5 218,-.5"/>
<text text-anchor="middle" x="257" y="-7.5" font-family="Helvetica,sans-Serif" font-size="10.00" fill="#000000">unordered_set</text>
</g>
<!-- Node11&#45;&gt;Node16 -->
<g id="edge17" class="edge">
<title>Node11&#45;&gt;Node16</title>
<path fill="none" stroke="#191970" d="M290.8583,-56.2455C285.1556,-48.4564 277.01,-37.3308 270.1375,-27.9439"/>
<polygon fill="#191970" stroke="#191970" points="272.7913,-25.6437 264.0598,-19.6427 267.1432,-29.7789 272.7913,-25.6437"/>
</g>
<!-- Node18 -->
<g id="node19" class="node">
<title>Node18</title>
<polygon fill="#ffffff" stroke="#bfbfbf" points="0,-.5 0,-19.5 98,-19.5 98,-.5 0,-.5"/>
<text text-anchor="middle" x="49" y="-7.5" font-family="Helvetica,sans-Serif" font-size="10.00" fill="#000000">nlohmann/json.hpp</text>
</g>
<!-- Node17&#45;&gt;Node18 -->
<g id="edge19" class="edge">
<title>Node17&#45;&gt;Node18</title>
<path fill="none" stroke="#191970" d="M153.3398,-56.3733C133.0228,-47.3435 102.436,-33.7494 79.625,-23.6111"/>
<polygon fill="#191970" stroke="#191970" points="80.9372,-20.3642 70.3775,-19.5011 78.0941,-26.7609 80.9372,-20.3642"/>
</g>
<!-- Node19&#45;&gt;Node6 -->
<g id="edge21" class="edge">
<title>Node19&#45;&gt;Node6</title>
<path fill="none" stroke="#191970" d="M254.0625,-235.3906C243.338,-225.9683 226.7713,-211.4134 213.9099,-200.1137"/>
<polygon fill="#191970" stroke="#191970" points="215.9143,-197.2158 206.0917,-193.2449 211.2941,-202.4745 215.9143,-197.2158"/>
</g>
<!-- Node20&#45;&gt;Node6 -->
<g id="edge23" class="edge">
<title>Node20&#45;&gt;Node6</title>
<path fill="none" stroke="#191970" d="M137.625,-235.3906C148.0431,-225.9683 164.1364,-211.4134 176.6304,-200.1137"/>
<polygon fill="#191970" stroke="#191970" points="179.1562,-202.5484 184.2252,-193.2449 174.4608,-197.3568 179.1562,-202.5484"/>
</g>
<!-- Node21&#45;&gt;Node1 -->
<g id="edge26" class="edge">
<title>Node21&#45;&gt;Node1</title>
<path fill="none" stroke="#191970" d="M331.3034,-168.2977C341.5262,-159.3163 354.4823,-147.9334 364.9896,-138.702"/>
<polygon fill="#191970" stroke="#191970" points="367.5897,-141.0766 372.7921,-131.8469 362.9695,-135.8178 367.5897,-141.0766"/>
</g>
<!-- Node21&#45;&gt;Node11 -->
<g id="edge25" class="edge">
<title>Node21&#45;&gt;Node11</title>
<path fill="none" stroke="#191970" d="M311.9083,-168.1389C309.0256,-146.9692 303.8305,-108.8174 300.6705,-85.6112"/>
<polygon fill="#191970" stroke="#191970" points="304.119,-84.9958 299.3017,-75.5595 297.1831,-85.9403 304.119,-84.9958"/>
</g>
</g>
</svg>
        <g id="navigator" transform="translate(0 0)" fill="#404254">
                <rect fill="#f2f5e9" fill-opacity="0.5" stroke="#606060" stroke-width=".5" x="0" y="0" width="60" height="60"/>
                <use id="zoomplus" xlink:href="#zoomPlus" x="17" y="9" onmousedown="handleZoom(evt,'in')"/>
                <use id="zoomminus" xlink:href="#zoomMin" x="42" y="9" onmousedown="handleZoom(evt,'out')"/>
                <use id="reset" xlink:href="#resetDef" x="30" y="36" onmousedown="handleReset()"/>
                <g id="arrowUp" xlink:href="#dirArrow" transform="translate(30 24)" onmousedown="handlePan(0,-1)">
                  <use xlink:href="#rim" fill="#404040">
                        <set attributeName="fill" to="#808080" begin="arrowUp.mouseover" end="arrowUp.mouseout"/>
                  </use>
                  <path fill="none" stroke="white" stroke-width="1.5" d="M0,-3.0v7 M-2.5,-0.5L0,-3.0L2.5,-0.5"/>
                </g>
                <g id="arrowRight" xlink:href="#dirArrow" transform="rotate(90) translate(36 -43)" onmousedown="handlePan(1,0)">
                  <use xlink:href="#rim" fill="#404040">
                        <set attributeName="fill" to="#808080" begin="arrowRight.mouseover" end="arrowRight.mouseout"/>
                  </use>
                  <path fill="none" stroke="white" stroke-width="1.5" d="M0,-3.0v7 M-2.5,-0.5L0,-3.0L2.5,-0.5"/>
                </g>
                <g id="arrowDown" xlink:href="#dirArrow" transform="rotate(180) translate(-30 -48)" onmousedown="handlePan(0,1)">
                  <use xlink:href="#rim" fill="#404040">
                        <set attributeName="fill" to="#808080" begin="arrowDown.mouseover" end="arrowDown.mouseout"/>
                  </use>
                  <path fill="none" stroke="white" stroke-width="1.5" d="M0,-3.0v7 M-2.5,-0.5L0,-3.0L2.5,-0.5"/>
                </g>
                <g id="arrowLeft" xlink:href="#dirArrow" transform="rotate(270) translate(-36 17)" onmousedown="handlePan(-1,0)">
                  <use xlink:href="#rim" fill="#404040">
                        <set attributeName="fill" to="#808080" begin="arrowLeft.mouseover" end="arrowLeft.mouseout"/>
                  </use>
                  <path fill="none" stroke="white" stroke-width="1.5" d="M0,-3.0v7 M-2.5,-0.5L0,-3.0L2.5,-0.5"/>
                </g>
        </g>
        <svg viewBox="0 0 15 15" width="100%" height="30px" preserveAspectRatio="xMaxYMin meet">
         <g id="arrow_out" transform="scale(0.3 0.3)">
          <a xlink:href="pro__data_8cpp__incl_org.svg" target="_base">
           <rect id="button" ry="5" rx="5" y="6" x="6" height="38" width="38"
                fill="#f2f5e9" fill-opacity="0.5" stroke="#606060" stroke-width="1.0"/>
           <path id="arrow"
             d="M 11.500037,31.436501 C 11.940474,20.09759 22.043105,11.32322 32.158766,21.979434 L 37.068811,17.246167 C 37.068811,17.246167 37.088388,32 37.088388,32 L 22.160133,31.978069 C 22.160133,31.978069 26.997745,27.140456 26.997745,27.140456 C 18.528582,18.264221 13.291696,25.230495 11.500037,31.436501 z"
             style="fill:#404040;"/>
          </a>
         </g>
        </svg>
</svg>
