<?xml version="1.0" encoding="UTF-8" standalone="no"?>
<!DOCTYPE svg PUBLIC "-//W3C//DTD SVG 1.1//EN"
 "http://www.w3.org/Graphics/SVG/1.1/DTD/svg11.dtd">
<!-- Generated by graphviz version 2.40.1 (20161225.0304)
 -->
<!-- Title: src/processors/pro_value_array.cpp Pages: 1 -->
<svg width="670pt" height="218pt"
 viewBox="0.00 0.00 669.50 218.00" xmlns="http://www.w3.org/2000/svg" xmlns:xlink="http://www.w3.org/1999/xlink">
<g id="graph0" class="graph" transform="scale(1 1) rotate(0) translate(4 214)">
<title>src/processors/pro_value_array.cpp</title>
<polygon fill="#ffffff" stroke="transparent" points="-4,4 -4,-214 665.5,-214 665.5,4 -4,4"/>
<!-- Node0 -->
<g id="node1" class="node">
<title>Node0</title>
<polygon fill="#bfbfbf" stroke="#000000" points="150.5,-179.5 150.5,-209.5 248.5,-209.5 248.5,-179.5 150.5,-179.5"/>
<text text-anchor="start" x="158.5" y="-197.5" font-family="Helvetica,sans-Serif" font-size="10.00" fill="#000000">src/processors/pro</text>
<text text-anchor="middle" x="199.5" y="-186.5" font-family="Helvetica,sans-Serif" font-size="10.00" fill="#000000">_value_array.cpp</text>
</g>
<!-- Node1 -->
<g id="node2" class="node">
<title>Node1</title>
<polygon fill="#ffffff" stroke="#bfbfbf" points="0,-118 0,-137 59,-137 59,-118 0,-118"/>
<text text-anchor="middle" x="29.5" y="-125" font-family="Helvetica,sans-Serif" font-size="10.00" fill="#000000">functional</text>
</g>
<!-- Node0&#45;&gt;Node1 -->
<g id="edge1" class="edge">
<title>Node0&#45;&gt;Node1</title>
<path fill="none" stroke="#191970" d="M161.0798,-179.4393C134.9633,-169.191 99.6351,-155.3071 68.5,-143 66.6705,-142.2768 64.7931,-141.5338 62.8983,-140.7831"/>
<polygon fill="#191970" stroke="#191970" points="64.0055,-137.4571 53.4195,-137.0228 61.4241,-143.9637 64.0055,-137.4571"/>
</g>
<!-- Node2 -->
<g id="node3" class="node">
<title>Node2</title>
<g id="a_node3"><a xlink:href="alias_2pybind_8h.html" target="_top" xlink:title="... ">
<polygon fill="#ffffff" stroke="#000000" points="181,-56.5 181,-75.5 258,-75.5 258,-56.5 181,-56.5"/>
<text text-anchor="middle" x="219.5" y="-63.5" font-family="Helvetica,sans-Serif" font-size="10.00" fill="#000000">alias/pybind.h</text>
</a>
</g>
</g>
<!-- Node0&#45;&gt;Node2 -->
<g id="edge2" class="edge">
<title>Node0&#45;&gt;Node2</title>
<path fill="none" stroke="#191970" d="M201.8728,-179.2548C205.4962,-155.9744 212.4088,-111.5607 216.4165,-85.8117"/>
<polygon fill="#191970" stroke="#191970" points="219.9051,-86.1551 217.9847,-75.7358 212.9884,-85.0785 219.9051,-86.1551"/>
</g>
<!-- Node4 -->
<g id="node5" class="node">
<title>Node4</title>
<g id="a_node5"><a xlink:href="processors_2pro__value__array_8h.html" target="_top" xlink:title="pro_value_array.h">
<polygon fill="#ffffff" stroke="#000000" points="77.5,-118 77.5,-137 171.5,-137 171.5,-118 77.5,-118"/>
<text text-anchor="middle" x="124.5" y="-125" font-family="Helvetica,sans-Serif" font-size="10.00" fill="#000000">pro_value_array.h</text>
</a>
</g>
</g>
<!-- Node0&#45;&gt;Node4 -->
<g id="edge4" class="edge">
<title>Node0&#45;&gt;Node4</title>
<path fill="none" stroke="#191970" d="M182.4813,-179.2967C170.6825,-168.7564 154.9816,-154.7303 142.8943,-143.9323"/>
<polygon fill="#191970" stroke="#191970" points="144.9853,-141.107 135.1959,-137.055 140.3217,-146.3273 144.9853,-141.107"/>
</g>
<!-- Node6 -->
<g id="node7" class="node">
<title>Node6</title>
<g id="a_node7"><a xlink:href="runtime__error_8h.html" target="_top" xlink:title="../utils/runtime_error.h">
<polygon fill="#ffffff" stroke="#000000" points="334.5,-118 334.5,-137 446.5,-137 446.5,-118 334.5,-118"/>
<text text-anchor="middle" x="390.5" y="-125" font-family="Helvetica,sans-Serif" font-size="10.00" fill="#000000">../utils/runtime_error.h</text>
</a>
</g>
</g>
<!-- Node0&#45;&gt;Node6 -->
<g id="edge6" class="edge">
<title>Node0&#45;&gt;Node6</title>
<path fill="none" stroke="#191970" d="M242.3641,-179.4639C275.8099,-167.7316 321.7817,-151.6054 353.6025,-140.4431"/>
<polygon fill="#191970" stroke="#191970" points="355.1251,-143.6182 363.4028,-137.0053 352.808,-137.0128 355.1251,-143.6182"/>
</g>
<!-- Node13 -->
<g id="node14" class="node">
<title>Node13</title>
<g id="a_node14"><a xlink:href="pyargs__to__vec_8h.html" target="_top" xlink:title="../utils/pyargs_to\l_vec.h">
<polygon fill="#ffffff" stroke="#000000" points="228,-112.5 228,-142.5 317,-142.5 317,-112.5 228,-112.5"/>
<text text-anchor="start" x="236" y="-130.5" font-family="Helvetica,sans-Serif" font-size="10.00" fill="#000000">../utils/pyargs_to</text>
<text text-anchor="middle" x="272.5" y="-119.5" font-family="Helvetica,sans-Serif" font-size="10.00" fill="#000000">_vec.h</text>
</a>
</g>
</g>
<!-- Node0&#45;&gt;Node13 -->
<g id="edge13" class="edge">
<title>Node0&#45;&gt;Node13</title>
<path fill="none" stroke="#191970" d="M216.0648,-179.2967C225.6783,-170.4733 237.9534,-159.2072 248.5987,-149.4368"/>
<polygon fill="#191970" stroke="#191970" points="251,-151.9836 256.0007,-142.6432 246.2667,-146.8264 251,-151.9836"/>
</g>
<!-- Node3 -->
<g id="node4" class="node">
<title>Node3</title>
<polygon fill="#ffffff" stroke="#bfbfbf" points="165.5,-.5 165.5,-19.5 271.5,-19.5 271.5,-.5 165.5,-.5"/>
<text text-anchor="middle" x="218.5" y="-7.5" font-family="Helvetica,sans-Serif" font-size="10.00" fill="#000000">pybind11/pybind11.h</text>
</g>
<!-- Node2&#45;&gt;Node3 -->
<g id="edge3" class="edge">
<title>Node2&#45;&gt;Node3</title>
<path fill="none" stroke="#191970" d="M219.3258,-56.2455C219.1953,-48.9382 219.0124,-38.6944 218.8519,-29.7046"/>
<polygon fill="#191970" stroke="#191970" points="222.3503,-29.5786 218.6722,-19.6427 215.3514,-29.7036 222.3503,-29.5786"/>
</g>
<!-- Node5 -->
<g id="node6" class="node">
<title>Node5</title>
<polygon fill="#ffffff" stroke="#bfbfbf" points="44,-56.5 44,-75.5 163,-75.5 163,-56.5 44,-56.5"/>
<text text-anchor="middle" x="103.5" y="-63.5" font-family="Helvetica,sans-Serif" font-size="10.00" fill="#000000">processors/processor.h</text>
</g>
<!-- Node4&#45;&gt;Node5 -->
<g id="edge5" class="edge">
<title>Node4&#45;&gt;Node5</title>
<path fill="none" stroke="#191970" d="M121.2188,-117.8906C118.2465,-109.1862 113.7786,-96.1015 110.073,-85.2494"/>
<polygon fill="#191970" stroke="#191970" points="113.3712,-84.0773 106.8275,-75.7449 106.7468,-86.3394 113.3712,-84.0773"/>
</g>
<!-- Node7 -->
<g id="node8" class="node">
<title>Node7</title>
<g id="a_node8"><a xlink:href="std_8h.html" target="_top" xlink:title="This file includes a part of C++ Standard Template Library and defines aliases for them...">
<polygon fill="#ffffff" stroke="#000000" points="359.5,-56.5 359.5,-75.5 421.5,-75.5 421.5,-56.5 359.5,-56.5"/>
<text text-anchor="middle" x="390.5" y="-63.5" font-family="Helvetica,sans-Serif" font-size="10.00" fill="#000000">alias/std.h</text>
</a>
</g>
</g>
<!-- Node6&#45;&gt;Node7 -->
<g id="edge7" class="edge">
<title>Node6&#45;&gt;Node7</title>
<path fill="none" stroke="#191970" d="M390.5,-117.8906C390.5,-109.3657 390.5,-96.6392 390.5,-85.9235"/>
<polygon fill="#191970" stroke="#191970" points="394.0001,-85.7448 390.5,-75.7449 387.0001,-85.7449 394.0001,-85.7448"/>
</g>
<!-- Node8 -->
<g id="node9" class="node">
<title>Node8</title>
<polygon fill="#ffffff" stroke="#bfbfbf" points="609.5,-.5 609.5,-19.5 661.5,-19.5 661.5,-.5 609.5,-.5"/>
<text text-anchor="middle" x="635.5" y="-7.5" font-family="Helvetica,sans-Serif" font-size="10.00" fill="#000000">memory</text>
</g>
<!-- Node7&#45;&gt;Node8 -->
<g id="edge8" class="edge">
<title>Node7&#45;&gt;Node8</title>
<path fill="none" stroke="#191970" d="M421.5983,-59.823C460.7894,-51.9005 530.4249,-37.3672 599.0591,-20.2556"/>
<polygon fill="#191970" stroke="#191970" points="600.3296,-23.5453 609.1745,-17.7128 598.6229,-16.7565 600.3296,-23.5453"/>
</g>
<!-- Node9 -->
<g id="node10" class="node">
<title>Node9</title>
<polygon fill="#ffffff" stroke="#bfbfbf" points="290,-.5 290,-19.5 331,-19.5 331,-.5 290,-.5"/>
<text text-anchor="middle" x="310.5" y="-7.5" font-family="Helvetica,sans-Serif" font-size="10.00" fill="#000000">string</text>
</g>
<!-- Node7&#45;&gt;Node9 -->
<g id="edge9" class="edge">
<title>Node7&#45;&gt;Node9</title>
<path fill="none" stroke="#191970" d="M376.5651,-56.2455C364.4053,-47.7337 346.5536,-35.2375 332.4715,-25.3801"/>
<polygon fill="#191970" stroke="#191970" points="334.4747,-22.51 324.2752,-19.6427 330.4605,-28.2447 334.4747,-22.51"/>
</g>
<!-- Node10 -->
<g id="node11" class="node">
<title>Node10</title>
<polygon fill="#ffffff" stroke="#bfbfbf" points="349.5,-.5 349.5,-19.5 393.5,-19.5 393.5,-.5 349.5,-.5"/>
<text text-anchor="middle" x="371.5" y="-7.5" font-family="Helvetica,sans-Serif" font-size="10.00" fill="#000000">vector</text>
</g>
<!-- Node7&#45;&gt;Node10 -->
<g id="edge10" class="edge">
<title>Node7&#45;&gt;Node10</title>
<path fill="none" stroke="#191970" d="M387.1905,-56.2455C384.6567,-48.7776 381.0823,-38.2427 377.985,-29.1137"/>
<polygon fill="#191970" stroke="#191970" points="381.2991,-27.9879 374.7716,-19.6427 374.6702,-30.237 381.2991,-27.9879"/>
</g>
<!-- Node11 -->
<g id="node12" class="node">
<title>Node11</title>
<polygon fill="#ffffff" stroke="#bfbfbf" points="412,-.5 412,-19.5 495,-19.5 495,-.5 412,-.5"/>
<text text-anchor="middle" x="453.5" y="-7.5" font-family="Helvetica,sans-Serif" font-size="10.00" fill="#000000">unordered_map</text>
</g>
<!-- Node7&#45;&gt;Node11 -->
<g id="edge11" class="edge">
<title>Node7&#45;&gt;Node11</title>
<path fill="none" stroke="#191970" d="M401.4738,-56.2455C410.6882,-48.0549 424.0532,-36.1749 434.9297,-26.5069"/>
<polygon fill="#191970" stroke="#191970" points="437.5032,-28.9023 442.652,-19.6427 432.8526,-23.6704 437.5032,-28.9023"/>
</g>
<!-- Node12 -->
<g id="node13" class="node">
<title>Node12</title>
<polygon fill="#ffffff" stroke="#bfbfbf" points="513.5,-.5 513.5,-19.5 591.5,-19.5 591.5,-.5 513.5,-.5"/>
<text text-anchor="middle" x="552.5" y="-7.5" font-family="Helvetica,sans-Serif" font-size="10.00" fill="#000000">unordered_set</text>
</g>
<!-- Node7&#45;&gt;Node12 -->
<g id="edge12" class="edge">
<title>Node7&#45;&gt;Node12</title>
<path fill="none" stroke="#191970" d="M418.3488,-56.3733C445.1703,-47.1016 485.9127,-33.0178 515.4598,-22.804"/>
<polygon fill="#191970" stroke="#191970" points="516.7069,-26.0762 525.0146,-19.5011 514.4198,-19.4603 516.7069,-26.0762"/>
</g>
<!-- Node13&#45;&gt;Node2 -->
<g id="edge15" class="edge">
<title>Node13&#45;&gt;Node2</title>
<path fill="none" stroke="#191970" d="M259.3989,-112.2977C251.8887,-103.5831 242.43,-92.6075 234.6073,-83.5302"/>
<polygon fill="#191970" stroke="#191970" points="237.1655,-81.1372 227.986,-75.8469 231.8629,-85.707 237.1655,-81.1372"/>
</g>
<!-- Node13&#45;&gt;Node7 -->
<g id="edge14" class="edge">
<title>Node13&#45;&gt;Node7</title>
<path fill="none" stroke="#191970" d="M301.366,-112.4554C320.1911,-102.644 344.611,-89.9167 363.1292,-80.2653"/>
<polygon fill="#191970" stroke="#191970" points="364.964,-83.2559 372.2142,-75.5303 361.7287,-77.0484 364.964,-83.2559"/>
</g>
</g>
</svg>
