<?xml version="1.0" encoding="UTF-8" standalone="no"?>
<!DOCTYPE svg PUBLIC "-//W3C//DTD SVG 1.1//EN"
 "http://www.w3.org/Graphics/SVG/1.1/DTD/svg11.dtd">
<!-- Generated by graphviz version 2.40.1 (20161225.0304)
 -->
<!-- Title: src/processors/pro_radial_distribution_function.h Pages: 1 -->
<!--zoomable 340 -->
<svg id="main" version="1.1" xmlns="http://www.w3.org/2000/svg" xmlns:xlink="http://www.w3.org/1999/xlink" xml:space="preserve" onload="init(evt)">
<style type="text/css"><![CDATA[
.edge:hover path { stroke: red; }
.edge:hover polygon { stroke: red; fill: red; }
]]></style>
<script type="text/javascript"><![CDATA[
var edges = document.getElementsByTagName('g');
if (edges && edges.length) {
  for (var i=0;i<edges.length;i++) {
    if (edges[i].id.substr(0,4)=='edge') {
      edges[i].setAttribute('class','edge');
    }
  }
}
]]></script>
        <defs>
                <circle id="rim" cx="0" cy="0" r="7"/>
                <circle id="rim2" cx="0" cy="0" r="3.5"/>
                <g id="zoomPlus">
                        <use xlink:href="#rim" fill="#404040">
                                <set attributeName="fill" to="#808080" begin="zoomplus.mouseover" end="zoomplus.mouseout"/>
                        </use>
                        <path d="M-4,0h8M0,-4v8" fill="none" stroke="white" stroke-width="1.5" pointer-events="none"/>
                </g>
                <g id="zoomMin">
                        <use xlink:href="#rim" fill="#404040">
                                <set attributeName="fill" to="#808080" begin="zoomminus.mouseover" end="zoomminus.mouseout"/>
                        </use>
                        <path d="M-4,0h8" fill="none" stroke="white" stroke-width="1.5" pointer-events="none"/>
                </g>
                <g id="dirArrow">
                        <path fill="none" stroke="white" stroke-width="1.5" d="M0,-3.0v7 M-2.5,-0.5L0,-3.0L2.5,-0.5"/>
                </g>
               <g id="resetDef">
                       <use xlink:href="#rim2" fill="#404040">
                               <set attributeName="fill" to="#808080" begin="reset.mouseover" end="reset.mouseout"/>
                       </use>
               </g>
        </defs>

<script type="text/javascript">
var viewWidth = 519;
var viewHeight = 340;
var sectionId = 'dynsection-1';
</script>
<script xlink:href="svgpan.js"/>
<svg id="graph" class="graph">
<g id="viewport">
<title>src/processors/pro_radial_distribution_function.h</title>
<polygon fill="#ffffff" stroke="transparent" points="-4,4 -4,-336 515,-336 515,4 -4,4"/>
<!-- Node21 -->
<g id="node1" class="node">
<title>Node21</title>
<polygon fill="#bfbfbf" stroke="#000000" points="148,-290.5 148,-331.5 246,-331.5 246,-290.5 148,-290.5"/>
<text text-anchor="start" x="156" y="-319.5" font-family="Helvetica,sans-Serif" font-size="10.00" fill="#000000">src/processors/pro</text>
<text text-anchor="start" x="156" y="-308.5" font-family="Helvetica,sans-Serif" font-size="10.00" fill="#000000">_radial_distribution</text>
<text text-anchor="middle" x="197" y="-297.5" font-family="Helvetica,sans-Serif" font-size="10.00" fill="#000000">_function.h</text>
</g>
<!-- Node22 -->
<g id="node2" class="node">
<title>Node22</title>
<g id="a_node2"><a xlink:href="py__pro__radial__distribution__function_8h.html" target="_top" xlink:title="This file is for binding ProRadialDistributionFunction class to Python. ">
<polygon fill="#ffffff" stroke="#000000" points="0,-212.5 0,-253.5 130,-253.5 130,-212.5 0,-212.5"/>
<text text-anchor="start" x="8" y="-241.5" font-family="Helvetica,sans-Serif" font-size="10.00" fill="#000000">src/pybind/processors</text>
<text text-anchor="start" x="8" y="-230.5" font-family="Helvetica,sans-Serif" font-size="10.00" fill="#000000">/py_pro_radial_distribution</text>
<text text-anchor="middle" x="65" y="-219.5" font-family="Helvetica,sans-Serif" font-size="10.00" fill="#000000">_function.h</text>
</a>
</g>
</g>
<!-- Node21&#45;&gt;Node22 -->
<g id="edge1" class="edge">
<title>Node21&#45;&gt;Node22</title>
<path fill="none" stroke="#191970" d="M153.1314,-285.0776C135.7635,-274.8148 116.0833,-263.1856 99.7327,-253.5239"/>
<polygon fill="#191970" stroke="#191970" points="151.5831,-288.2281 161.973,-290.3022 155.1443,-282.2016 151.5831,-288.2281"/>
</g>
<!-- Node26 -->
<g id="node6" class="node">
<title>Node26</title>
<g id="a_node6"><a xlink:href="pro__radial__distribution__function_8cpp.html" target="_top" xlink:title="This file has an implementation of ProRadialDistributionFunction class, which is a subclass of Proces...">
<polygon fill="#ffffff" stroke="#000000" points="148,-212.5 148,-253.5 246,-253.5 246,-212.5 148,-212.5"/>
<text text-anchor="start" x="156" y="-241.5" font-family="Helvetica,sans-Serif" font-size="10.00" fill="#000000">src/processors/pro</text>
<text text-anchor="start" x="156" y="-230.5" font-family="Helvetica,sans-Serif" font-size="10.00" fill="#000000">_radial_distribution</text>
<text text-anchor="middle" x="197" y="-219.5" font-family="Helvetica,sans-Serif" font-size="10.00" fill="#000000">_function.cpp</text>
</a>
</g>
</g>
<!-- Node21&#45;&gt;Node26 -->
<g id="edge5" class="edge">
<title>Node21&#45;&gt;Node26</title>
<path fill="none" stroke="#191970" d="M197,-280.0789C197,-271.2178 197,-261.7747 197,-253.6898"/>
<polygon fill="#191970" stroke="#191970" points="193.5001,-280.0974 197,-290.0974 200.5001,-280.0975 193.5001,-280.0974"/>
</g>
<!-- Node27 -->
<g id="node7" class="node">
<title>Node27</title>
<g id="a_node7"><a xlink:href="pro__radial__distribution__function__with__deformation_8h.html" target="_top" xlink:title="This file has a definition of ProRadialDistributionFunctionWithDeformation class, which is a subclass...">
<polygon fill="#ffffff" stroke="#000000" points="264.5,-212.5 264.5,-253.5 407.5,-253.5 407.5,-212.5 264.5,-212.5"/>
<text text-anchor="start" x="272.5" y="-241.5" font-family="Helvetica,sans-Serif" font-size="10.00" fill="#000000">src/processors/pro</text>
<text text-anchor="start" x="272.5" y="-230.5" font-family="Helvetica,sans-Serif" font-size="10.00" fill="#000000">_radial_distribution</text>
<text text-anchor="middle" x="336" y="-219.5" font-family="Helvetica,sans-Serif" font-size="10.00" fill="#000000">_function_with_deformation.h</text>
</a>
</g>
</g>
<!-- Node21&#45;&gt;Node27 -->
<g id="edge6" class="edge">
<title>Node21&#45;&gt;Node27</title>
<path fill="none" stroke="#191970" d="M242.6923,-285.3597C261.1033,-275.0283 282.0498,-263.2742 299.4254,-253.5239"/>
<polygon fill="#191970" stroke="#191970" points="240.8925,-282.3562 233.8845,-290.3022 244.3181,-288.4608 240.8925,-282.3562"/>
</g>
<!-- Node23 -->
<g id="node3" class="node">
<title>Node23</title>
<g id="a_node3"><a xlink:href="pybind_8h.html" target="_top" xlink:title="This file includes all the header files containing definitions of functions to bind C++ and Python...">
<polygon fill="#ffffff" stroke="#000000" points="43,-67.5 43,-86.5 113,-86.5 113,-67.5 43,-67.5"/>
<text text-anchor="middle" x="78" y="-74.5" font-family="Helvetica,sans-Serif" font-size="10.00" fill="#000000">src/pybind.h</text>
</a>
</g>
</g>
<!-- Node22&#45;&gt;Node23 -->
<g id="edge2" class="edge">
<title>Node22&#45;&gt;Node23</title>
<path fill="none" stroke="#191970" d="M47.892,-203.2671C43.8309,-194.7361 40.077,-185.2367 38,-176 33.9048,-157.7881 32.3776,-151.7998 38,-134 43.8989,-115.3247 58.3501,-97.4596 68.1673,-86.8578"/>
<polygon fill="#191970" stroke="#191970" points="44.8901,-205.0861 52.5347,-212.4217 51.1332,-201.92 44.8901,-205.0861"/>
</g>
<!-- Node25 -->
<g id="node5" class="node">
<title>Node25</title>
<g id="a_node5"><a xlink:href="py__pro__radial__distribution__function_8cpp.html" target="_top" xlink:title="This file is for binding ProRadialDistributionFunction class to Python. ">
<polygon fill="#ffffff" stroke="#000000" points="47,-134.5 47,-175.5 177,-175.5 177,-134.5 47,-134.5"/>
<text text-anchor="start" x="55" y="-163.5" font-family="Helvetica,sans-Serif" font-size="10.00" fill="#000000">src/pybind/processors</text>
<text text-anchor="start" x="55" y="-152.5" font-family="Helvetica,sans-Serif" font-size="10.00" fill="#000000">/py_pro_radial_distribution</text>
<text text-anchor="middle" x="112" y="-141.5" font-family="Helvetica,sans-Serif" font-size="10.00" fill="#000000">_function.cpp</text>
</a>
</g>
</g>
<!-- Node22&#45;&gt;Node25 -->
<g id="edge4" class="edge">
<title>Node22&#45;&gt;Node25</title>
<path fill="none" stroke="#191970" d="M82.7647,-203.5181C88.3504,-194.2482 94.3966,-184.2141 99.5331,-175.6898"/>
<polygon fill="#191970" stroke="#191970" points="79.7584,-201.7258 77.5951,-212.0974 85.7541,-205.3386 79.7584,-201.7258"/>
</g>
<!-- Node24 -->
<g id="node4" class="node">
<title>Node24</title>
<g id="a_node4"><a xlink:href="ppap4lmp_8cpp.html" target="_top" xlink:title="This file has no implementation, only includes a header file to bind C++ and Python. ">
<polygon fill="#ffffff" stroke="#000000" points="31,-.5 31,-19.5 125,-19.5 125,-.5 31,-.5"/>
<text text-anchor="middle" x="78" y="-7.5" font-family="Helvetica,sans-Serif" font-size="10.00" fill="#000000">src/ppap4lmp.cpp</text>
</a>
</g>
</g>
<!-- Node23&#45;&gt;Node24 -->
<g id="edge3" class="edge">
<title>Node23&#45;&gt;Node24</title>
<path fill="none" stroke="#191970" d="M78,-57.1079C78,-44.714 78,-29.3263 78,-19.5817"/>
<polygon fill="#191970" stroke="#191970" points="74.5001,-57.4005 78,-67.4005 81.5001,-57.4006 74.5001,-57.4005"/>
</g>
<!-- Node28 -->
<g id="node8" class="node">
<title>Node28</title>
<g id="a_node8"><a xlink:href="py__pro__radial__distribution__function__with__deformation_8h.html" target="_top" xlink:title="This file is for binding ProRadialDistributionFunctionWithDeformation class to Python. ">
<polygon fill="#ffffff" stroke="#000000" points="195.5,-134.5 195.5,-175.5 338.5,-175.5 338.5,-134.5 195.5,-134.5"/>
<text text-anchor="start" x="203.5" y="-163.5" font-family="Helvetica,sans-Serif" font-size="10.00" fill="#000000">src/pybind/processors</text>
<text text-anchor="start" x="203.5" y="-152.5" font-family="Helvetica,sans-Serif" font-size="10.00" fill="#000000">/py_pro_radial_distribution</text>
<text text-anchor="middle" x="267" y="-141.5" font-family="Helvetica,sans-Serif" font-size="10.00" fill="#000000">_function_with_deformation.h</text>
</a>
</g>
</g>
<!-- Node27&#45;&gt;Node28 -->
<g id="edge7" class="edge">
<title>Node27&#45;&gt;Node28</title>
<path fill="none" stroke="#191970" d="M310.6787,-204.376C302.2699,-194.8703 293.0765,-184.4778 285.3025,-175.6898"/>
<polygon fill="#191970" stroke="#191970" points="308.262,-206.9265 317.5093,-212.0974 313.505,-202.2884 308.262,-206.9265"/>
</g>
<!-- Node30 -->
<g id="node10" class="node">
<title>Node30</title>
<g id="a_node10"><a xlink:href="pro__radial__distribution__function__with__deformation_8cpp.html" target="_top" xlink:title="This file has an implementation of ProRadialDistributionFunctionWithDeformation class, which is a subclass of Processor class. ">
<polygon fill="#ffffff" stroke="#000000" points="357,-134.5 357,-175.5 511,-175.5 511,-134.5 357,-134.5"/>
<text text-anchor="start" x="365" y="-163.5" font-family="Helvetica,sans-Serif" font-size="10.00" fill="#000000">src/processors/pro</text>
<text text-anchor="start" x="365" y="-152.5" font-family="Helvetica,sans-Serif" font-size="10.00" fill="#000000">_radial_distribution</text>
<text text-anchor="middle" x="434" y="-141.5" font-family="Helvetica,sans-Serif" font-size="10.00" fill="#000000">_function_with_deformation.cpp</text>
</a>
</g>
</g>
<!-- Node27&#45;&gt;Node30 -->
<g id="edge10" class="edge">
<title>Node27&#45;&gt;Node30</title>
<path fill="none" stroke="#191970" d="M369.9954,-205.9424C382.5325,-195.9639 396.52,-184.831 408.2136,-175.5239"/>
<polygon fill="#191970" stroke="#191970" points="367.6496,-203.3362 362.0049,-212.3022 372.0088,-208.8132 367.6496,-203.3362"/>
</g>
<!-- Node28&#45;&gt;Node23 -->
<g id="edge8" class="edge">
<title>Node28&#45;&gt;Node23</title>
<path fill="none" stroke="#191970" d="M207.3914,-130.3996C171.3461,-115.5238 127.4218,-97.3963 101.1359,-86.5482"/>
<polygon fill="#191970" stroke="#191970" points="206.2687,-133.7226 216.8477,-134.3022 208.9392,-127.252 206.2687,-133.7226"/>
</g>
<!-- Node29 -->
<g id="node9" class="node">
<title>Node29</title>
<g id="a_node9"><a xlink:href="py__pro__radial__distribution__function__with__deformation_8cpp.html" target="_top" xlink:title="This file is for binding ProRadialDistributionFunctionWithDeformation class to Python. ">
<polygon fill="#ffffff" stroke="#000000" points="190,-56.5 190,-97.5 344,-97.5 344,-56.5 190,-56.5"/>
<text text-anchor="start" x="198" y="-85.5" font-family="Helvetica,sans-Serif" font-size="10.00" fill="#000000">src/pybind/processors</text>
<text text-anchor="start" x="198" y="-74.5" font-family="Helvetica,sans-Serif" font-size="10.00" fill="#000000">/py_pro_radial_distribution</text>
<text text-anchor="middle" x="267" y="-63.5" font-family="Helvetica,sans-Serif" font-size="10.00" fill="#000000">_function_with_deformation.cpp</text>
</a>
</g>
</g>
<!-- Node28&#45;&gt;Node29 -->
<g id="edge9" class="edge">
<title>Node28&#45;&gt;Node29</title>
<path fill="none" stroke="#191970" d="M267,-124.0789C267,-115.2178 267,-105.7747 267,-97.6898"/>
<polygon fill="#191970" stroke="#191970" points="263.5001,-124.0974 267,-134.0974 270.5001,-124.0975 263.5001,-124.0974"/>
</g>
</g>
</svg>
        <g id="navigator" transform="translate(0 0)" fill="#404254">
                <rect fill="#f2f5e9" fill-opacity="0.5" stroke="#606060" stroke-width=".5" x="0" y="0" width="60" height="60"/>
                <use id="zoomplus" xlink:href="#zoomPlus" x="17" y="9" onmousedown="handleZoom(evt,'in')"/>
                <use id="zoomminus" xlink:href="#zoomMin" x="42" y="9" onmousedown="handleZoom(evt,'out')"/>
                <use id="reset" xlink:href="#resetDef" x="30" y="36" onmousedown="handleReset()"/>
                <g id="arrowUp" xlink:href="#dirArrow" transform="translate(30 24)" onmousedown="handlePan(0,-1)">
                  <use xlink:href="#rim" fill="#404040">
                        <set attributeName="fill" to="#808080" begin="arrowUp.mouseover" end="arrowUp.mouseout"/>
                  </use>
                  <path fill="none" stroke="white" stroke-width="1.5" d="M0,-3.0v7 M-2.5,-0.5L0,-3.0L2.5,-0.5"/>
                </g>
                <g id="arrowRight" xlink:href="#dirArrow" transform="rotate(90) translate(36 -43)" onmousedown="handlePan(1,0)">
                  <use xlink:href="#rim" fill="#404040">
                        <set attributeName="fill" to="#808080" begin="arrowRight.mouseover" end="arrowRight.mouseout"/>
                  </use>
                  <path fill="none" stroke="white" stroke-width="1.5" d="M0,-3.0v7 M-2.5,-0.5L0,-3.0L2.5,-0.5"/>
                </g>
                <g id="arrowDown" xlink:href="#dirArrow" transform="rotate(180) translate(-30 -48)" onmousedown="handlePan(0,1)">
                  <use xlink:href="#rim" fill="#404040">
                        <set attributeName="fill" to="#808080" begin="arrowDown.mouseover" end="arrowDown.mouseout"/>
                  </use>
                  <path fill="none" stroke="white" stroke-width="1.5" d="M0,-3.0v7 M-2.5,-0.5L0,-3.0L2.5,-0.5"/>
                </g>
                <g id="arrowLeft" xlink:href="#dirArrow" transform="rotate(270) translate(-36 17)" onmousedown="handlePan(-1,0)">
                  <use xlink:href="#rim" fill="#404040">
                        <set attributeName="fill" to="#808080" begin="arrowLeft.mouseover" end="arrowLeft.mouseout"/>
                  </use>
                  <path fill="none" stroke="white" stroke-width="1.5" d="M0,-3.0v7 M-2.5,-0.5L0,-3.0L2.5,-0.5"/>
                </g>
        </g>
        <svg viewBox="0 0 15 15" width="100%" height="30px" preserveAspectRatio="xMaxYMin meet">
         <g id="arrow_out" transform="scale(0.3 0.3)">
          <a xlink:href="pro__radial__distribution__function_8h__dep__incl_org.svg" target="_base">
           <rect id="button" ry="5" rx="5" y="6" x="6" height="38" width="38"
                fill="#f2f5e9" fill-opacity="0.5" stroke="#606060" stroke-width="1.0"/>
           <path id="arrow"
             d="M 11.500037,31.436501 C 11.940474,20.09759 22.043105,11.32322 32.158766,21.979434 L 37.068811,17.246167 C 37.068811,17.246167 37.088388,32 37.088388,32 L 22.160133,31.978069 C 22.160133,31.978069 26.997745,27.140456 26.997745,27.140456 C 18.528582,18.264221 13.291696,25.230495 11.500037,31.436501 z"
             style="fill:#404040;"/>
          </a>
         </g>
        </svg>
</svg>
