<?xml version="1.0" encoding="UTF-8" standalone="no"?>
<!DOCTYPE svg PUBLIC "-//W3C//DTD SVG 1.1//EN"
 "http://www.w3.org/Graphics/SVG/1.1/DTD/svg11.dtd">
<!-- Generated by graphviz version 2.40.1 (20161225.0304)
 -->
<!-- Title: src/processors/pro_radial_distribution_function.cpp Pages: 1 -->
<svg width="467pt" height="229pt"
 viewBox="0.00 0.00 467.00 229.00" xmlns="http://www.w3.org/2000/svg" xmlns:xlink="http://www.w3.org/1999/xlink">
<g id="graph0" class="graph" transform="scale(1 1) rotate(0) translate(4 225)">
<title>src/processors/pro_radial_distribution_function.cpp</title>
<polygon fill="#ffffff" stroke="transparent" points="-4,4 -4,-225 463,-225 463,4 -4,4"/>
<!-- Node0 -->
<g id="node1" class="node">
<title>Node0</title>
<polygon fill="#bfbfbf" stroke="#000000" points="69,-179.5 69,-220.5 167,-220.5 167,-179.5 69,-179.5"/>
<text text-anchor="start" x="77" y="-208.5" font-family="Helvetica,sans-Serif" font-size="10.00" fill="#000000">src/processors/pro</text>
<text text-anchor="start" x="77" y="-197.5" font-family="Helvetica,sans-Serif" font-size="10.00" fill="#000000">_radial_distribution</text>
<text text-anchor="middle" x="118" y="-186.5" font-family="Helvetica,sans-Serif" font-size="10.00" fill="#000000">_function.cpp</text>
</g>
<!-- Node1 -->
<g id="node2" class="node">
<title>Node1</title>
<polygon fill="#ffffff" stroke="#bfbfbf" points="0,-118 0,-137 44,-137 44,-118 0,-118"/>
<text text-anchor="middle" x="22" y="-125" font-family="Helvetica,sans-Serif" font-size="10.00" fill="#000000">cmath</text>
</g>
<!-- Node0&#45;&gt;Node1 -->
<g id="edge1" class="edge">
<title>Node0&#45;&gt;Node1</title>
<path fill="none" stroke="#191970" d="M90.747,-179.4183C75.5064,-167.9085 56.8102,-153.789 42.7644,-143.1815"/>
<polygon fill="#191970" stroke="#191970" points="44.7817,-140.3189 34.6923,-137.0853 40.563,-145.905 44.7817,-140.3189"/>
</g>
<!-- Node2 -->
<g id="node3" class="node">
<title>Node2</title>
<g id="a_node3"><a xlink:href="processors_2pro__radial__distribution__function_8h.html" target="_top" xlink:title="pro_radial_distribution\l_function.h">
<polygon fill="#ffffff" stroke="#000000" points="62.5,-112.5 62.5,-142.5 173.5,-142.5 173.5,-112.5 62.5,-112.5"/>
<text text-anchor="start" x="70.5" y="-130.5" font-family="Helvetica,sans-Serif" font-size="10.00" fill="#000000">pro_radial_distribution</text>
<text text-anchor="middle" x="118" y="-119.5" font-family="Helvetica,sans-Serif" font-size="10.00" fill="#000000">_function.h</text>
</a>
</g>
</g>
<!-- Node0&#45;&gt;Node2 -->
<g id="edge2" class="edge">
<title>Node0&#45;&gt;Node2</title>
<path fill="none" stroke="#191970" d="M118,-179.4183C118,-171.0849 118,-161.3834 118,-152.6373"/>
<polygon fill="#191970" stroke="#191970" points="121.5001,-152.5991 118,-142.5991 114.5001,-152.5991 121.5001,-152.5991"/>
</g>
<!-- Node4 -->
<g id="node5" class="node">
<title>Node4</title>
<g id="a_node5"><a xlink:href="message_8h.html" target="_top" xlink:title="../utils/message.h">
<polygon fill="#ffffff" stroke="#000000" points="191.5,-118 191.5,-137 286.5,-137 286.5,-118 191.5,-118"/>
<text text-anchor="middle" x="239" y="-125" font-family="Helvetica,sans-Serif" font-size="10.00" fill="#000000">../utils/message.h</text>
</a>
</g>
</g>
<!-- Node0&#45;&gt;Node4 -->
<g id="edge4" class="edge">
<title>Node0&#45;&gt;Node4</title>
<path fill="none" stroke="#191970" d="M152.3501,-179.4183C172.1033,-167.5827 196.462,-152.9877 214.317,-142.2894"/>
<polygon fill="#191970" stroke="#191970" points="216.2232,-145.2275 223.0024,-137.0853 212.6254,-139.2228 216.2232,-145.2275"/>
</g>
<!-- Node3 -->
<g id="node4" class="node">
<title>Node3</title>
<polygon fill="#ffffff" stroke="#bfbfbf" points="58.5,-56.5 58.5,-75.5 177.5,-75.5 177.5,-56.5 58.5,-56.5"/>
<text text-anchor="middle" x="118" y="-63.5" font-family="Helvetica,sans-Serif" font-size="10.00" fill="#000000">processors/processor.h</text>
</g>
<!-- Node2&#45;&gt;Node3 -->
<g id="edge3" class="edge">
<title>Node2&#45;&gt;Node3</title>
<path fill="none" stroke="#191970" d="M118,-112.2977C118,-104.3834 118,-94.6043 118,-86.0759"/>
<polygon fill="#191970" stroke="#191970" points="121.5001,-85.8469 118,-75.8469 114.5001,-85.847 121.5001,-85.8469"/>
</g>
<!-- Node5 -->
<g id="node6" class="node">
<title>Node5</title>
<g id="a_node6"><a xlink:href="std_8h.html" target="_top" xlink:title="This file includes a part of C++ Standard Template Library and defines aliases for them...">
<polygon fill="#ffffff" stroke="#000000" points="208,-56.5 208,-75.5 270,-75.5 270,-56.5 208,-56.5"/>
<text text-anchor="middle" x="239" y="-63.5" font-family="Helvetica,sans-Serif" font-size="10.00" fill="#000000">alias/std.h</text>
</a>
</g>
</g>
<!-- Node4&#45;&gt;Node5 -->
<g id="edge5" class="edge">
<title>Node4&#45;&gt;Node5</title>
<path fill="none" stroke="#191970" d="M239,-117.8906C239,-109.3657 239,-96.6392 239,-85.9235"/>
<polygon fill="#191970" stroke="#191970" points="242.5001,-85.7448 239,-75.7449 235.5001,-85.7449 242.5001,-85.7448"/>
</g>
<!-- Node6 -->
<g id="node7" class="node">
<title>Node6</title>
<polygon fill="#ffffff" stroke="#bfbfbf" points="87,-.5 87,-19.5 139,-19.5 139,-.5 87,-.5"/>
<text text-anchor="middle" x="113" y="-7.5" font-family="Helvetica,sans-Serif" font-size="10.00" fill="#000000">memory</text>
</g>
<!-- Node5&#45;&gt;Node6 -->
<g id="edge6" class="edge">
<title>Node5&#45;&gt;Node6</title>
<path fill="none" stroke="#191970" d="M217.3398,-56.3733C197.0228,-47.3435 166.436,-33.7494 143.625,-23.6111"/>
<polygon fill="#191970" stroke="#191970" points="144.9372,-20.3642 134.3775,-19.5011 142.0941,-26.7609 144.9372,-20.3642"/>
</g>
<!-- Node7 -->
<g id="node8" class="node">
<title>Node7</title>
<polygon fill="#ffffff" stroke="#bfbfbf" points="157.5,-.5 157.5,-19.5 198.5,-19.5 198.5,-.5 157.5,-.5"/>
<text text-anchor="middle" x="178" y="-7.5" font-family="Helvetica,sans-Serif" font-size="10.00" fill="#000000">string</text>
</g>
<!-- Node5&#45;&gt;Node7 -->
<g id="edge7" class="edge">
<title>Node5&#45;&gt;Node7</title>
<path fill="none" stroke="#191970" d="M228.3746,-56.2455C219.4527,-48.0549 206.512,-36.1749 195.9808,-26.5069"/>
<polygon fill="#191970" stroke="#191970" points="198.2371,-23.8271 188.5036,-19.6427 193.5032,-28.9837 198.2371,-23.8271"/>
</g>
<!-- Node8 -->
<g id="node9" class="node">
<title>Node8</title>
<polygon fill="#ffffff" stroke="#bfbfbf" points="217,-.5 217,-19.5 261,-19.5 261,-.5 217,-.5"/>
<text text-anchor="middle" x="239" y="-7.5" font-family="Helvetica,sans-Serif" font-size="10.00" fill="#000000">vector</text>
</g>
<!-- Node5&#45;&gt;Node8 -->
<g id="edge8" class="edge">
<title>Node5&#45;&gt;Node8</title>
<path fill="none" stroke="#191970" d="M239,-56.2455C239,-48.9382 239,-38.6944 239,-29.7046"/>
<polygon fill="#191970" stroke="#191970" points="242.5001,-29.6426 239,-19.6427 235.5001,-29.6427 242.5001,-29.6426"/>
</g>
<!-- Node9 -->
<g id="node10" class="node">
<title>Node9</title>
<polygon fill="#ffffff" stroke="#bfbfbf" points="279.5,-.5 279.5,-19.5 362.5,-19.5 362.5,-.5 279.5,-.5"/>
<text text-anchor="middle" x="321" y="-7.5" font-family="Helvetica,sans-Serif" font-size="10.00" fill="#000000">unordered_map</text>
</g>
<!-- Node5&#45;&gt;Node9 -->
<g id="edge9" class="edge">
<title>Node5&#45;&gt;Node9</title>
<path fill="none" stroke="#191970" d="M253.2833,-56.2455C265.747,-47.7337 284.0451,-35.2375 298.4792,-25.3801"/>
<polygon fill="#191970" stroke="#191970" points="300.5962,-28.1726 306.8804,-19.6427 296.6485,-22.392 300.5962,-28.1726"/>
</g>
<!-- Node10 -->
<g id="node11" class="node">
<title>Node10</title>
<polygon fill="#ffffff" stroke="#bfbfbf" points="381,-.5 381,-19.5 459,-19.5 459,-.5 381,-.5"/>
<text text-anchor="middle" x="420" y="-7.5" font-family="Helvetica,sans-Serif" font-size="10.00" fill="#000000">unordered_set</text>
</g>
<!-- Node5&#45;&gt;Node10 -->
<g id="edge10" class="edge">
<title>Node5&#45;&gt;Node10</title>
<path fill="none" stroke="#191970" d="M270.115,-56.3733C300.3429,-47.021 346.396,-32.7725 379.4739,-22.5385"/>
<polygon fill="#191970" stroke="#191970" points="380.7723,-25.8005 389.291,-19.5011 378.7033,-19.1133 380.7723,-25.8005"/>
</g>
</g>
</svg>
