<?xml version="1.0" encoding="UTF-8" standalone="no"?>
<!DOCTYPE svg PUBLIC "-//W3C//DTD SVG 1.1//EN"
 "http://www.w3.org/Graphics/SVG/1.1/DTD/svg11.dtd">
<!-- Generated by graphviz version 2.40.1 (20161225.0304)
 -->
<!-- Title: src/processors/pro_radial_distribution_function_with_deformation.cpp Pages: 1 -->
<svg width="437pt" height="240pt"
 viewBox="0.00 0.00 436.50 240.00" xmlns="http://www.w3.org/2000/svg" xmlns:xlink="http://www.w3.org/1999/xlink">
<g id="graph0" class="graph" transform="scale(1 1) rotate(0) translate(4 236)">
<title>src/processors/pro_radial_distribution_function_with_deformation.cpp</title>
<polygon fill="#ffffff" stroke="transparent" points="-4,4 -4,-236 432.5,-236 432.5,4 -4,4"/>
<!-- Node0 -->
<g id="node1" class="node">
<title>Node0</title>
<polygon fill="#bfbfbf" stroke="#000000" points="62.5,-190.5 62.5,-231.5 216.5,-231.5 216.5,-190.5 62.5,-190.5"/>
<text text-anchor="start" x="70.5" y="-219.5" font-family="Helvetica,sans-Serif" font-size="10.00" fill="#000000">src/processors/pro</text>
<text text-anchor="start" x="70.5" y="-208.5" font-family="Helvetica,sans-Serif" font-size="10.00" fill="#000000">_radial_distribution</text>
<text text-anchor="middle" x="139.5" y="-197.5" font-family="Helvetica,sans-Serif" font-size="10.00" fill="#000000">_function_with_deformation.cpp</text>
</g>
<!-- Node1 -->
<g id="node2" class="node">
<title>Node1</title>
<g id="a_node2"><a xlink:href="processors_2pro__radial__distribution__function__with__deformation_8h.html" target="_top" xlink:title="pro_radial_distribution\l_function_with_deformation.h">
<polygon fill="#ffffff" stroke="#000000" points="0,-123.5 0,-153.5 143,-153.5 143,-123.5 0,-123.5"/>
<text text-anchor="start" x="8" y="-141.5" font-family="Helvetica,sans-Serif" font-size="10.00" fill="#000000">pro_radial_distribution</text>
<text text-anchor="middle" x="71.5" y="-130.5" font-family="Helvetica,sans-Serif" font-size="10.00" fill="#000000">_function_with_deformation.h</text>
</a>
</g>
</g>
<!-- Node0&#45;&gt;Node1 -->
<g id="edge1" class="edge">
<title>Node0&#45;&gt;Node1</title>
<path fill="none" stroke="#191970" d="M120.1958,-190.4183C111.6066,-181.2607 101.4679,-170.451 92.6716,-161.0726"/>
<polygon fill="#191970" stroke="#191970" points="95.0559,-158.4985 85.6619,-153.5991 89.9502,-163.2873 95.0559,-158.4985"/>
</g>
<!-- Node3 -->
<g id="node4" class="node">
<title>Node3</title>
<g id="a_node4"><a xlink:href="message_8h.html" target="_top" xlink:title="../utils/message.h">
<polygon fill="#ffffff" stroke="#000000" points="161,-129 161,-148 256,-148 256,-129 161,-129"/>
<text text-anchor="middle" x="208.5" y="-136" font-family="Helvetica,sans-Serif" font-size="10.00" fill="#000000">../utils/message.h</text>
</a>
</g>
</g>
<!-- Node0&#45;&gt;Node3 -->
<g id="edge3" class="edge">
<title>Node0&#45;&gt;Node3</title>
<path fill="none" stroke="#191970" d="M159.0881,-190.4183C169.6289,-179.3428 182.4695,-165.8509 192.4187,-155.397"/>
<polygon fill="#191970" stroke="#191970" points="195.0186,-157.7421 199.3774,-148.0853 189.948,-152.9162 195.0186,-157.7421"/>
</g>
<!-- Node2 -->
<g id="node3" class="node">
<title>Node2</title>
<polygon fill="#ffffff" stroke="#bfbfbf" points="13,-56.5 13,-86.5 130,-86.5 130,-56.5 13,-56.5"/>
<text text-anchor="start" x="21" y="-74.5" font-family="Helvetica,sans-Serif" font-size="10.00" fill="#000000">processors/pro_radial</text>
<text text-anchor="middle" x="71.5" y="-63.5" font-family="Helvetica,sans-Serif" font-size="10.00" fill="#000000">_distribution_function.h</text>
</g>
<!-- Node1&#45;&gt;Node2 -->
<g id="edge2" class="edge">
<title>Node1&#45;&gt;Node2</title>
<path fill="none" stroke="#191970" d="M71.5,-123.2967C71.5,-115.5013 71.5,-105.7991 71.5,-96.9064"/>
<polygon fill="#191970" stroke="#191970" points="75.0001,-96.6431 71.5,-86.6432 68.0001,-96.6432 75.0001,-96.6431"/>
</g>
<!-- Node4 -->
<g id="node5" class="node">
<title>Node4</title>
<g id="a_node5"><a xlink:href="std_8h.html" target="_top" xlink:title="This file includes a part of C++ Standard Template Library and defines aliases for them...">
<polygon fill="#ffffff" stroke="#000000" points="177.5,-62 177.5,-81 239.5,-81 239.5,-62 177.5,-62"/>
<text text-anchor="middle" x="208.5" y="-69" font-family="Helvetica,sans-Serif" font-size="10.00" fill="#000000">alias/std.h</text>
</a>
</g>
</g>
<!-- Node3&#45;&gt;Node4 -->
<g id="edge4" class="edge">
<title>Node3&#45;&gt;Node4</title>
<path fill="none" stroke="#191970" d="M208.5,-128.9005C208.5,-119.149 208.5,-103.7597 208.5,-91.3695"/>
<polygon fill="#191970" stroke="#191970" points="212.0001,-91.0816 208.5,-81.0817 205.0001,-91.0817 212.0001,-91.0816"/>
</g>
<!-- Node5 -->
<g id="node6" class="node">
<title>Node5</title>
<polygon fill="#ffffff" stroke="#bfbfbf" points="56.5,-.5 56.5,-19.5 108.5,-19.5 108.5,-.5 56.5,-.5"/>
<text text-anchor="middle" x="82.5" y="-7.5" font-family="Helvetica,sans-Serif" font-size="10.00" fill="#000000">memory</text>
</g>
<!-- Node4&#45;&gt;Node5 -->
<g id="edge5" class="edge">
<title>Node4&#45;&gt;Node5</title>
<path fill="none" stroke="#191970" d="M188.8125,-61.8906C168.0078,-51.7359 134.989,-35.6196 111.2681,-24.0416"/>
<polygon fill="#191970" stroke="#191970" points="112.5712,-20.783 102.0493,-19.5419 109.5007,-27.0736 112.5712,-20.783"/>
</g>
<!-- Node6 -->
<g id="node7" class="node">
<title>Node6</title>
<polygon fill="#ffffff" stroke="#bfbfbf" points="127,-.5 127,-19.5 168,-19.5 168,-.5 127,-.5"/>
<text text-anchor="middle" x="147.5" y="-7.5" font-family="Helvetica,sans-Serif" font-size="10.00" fill="#000000">string</text>
</g>
<!-- Node4&#45;&gt;Node6 -->
<g id="edge6" class="edge">
<title>Node4&#45;&gt;Node6</title>
<path fill="none" stroke="#191970" d="M198.9688,-61.8906C189.7121,-52.5581 175.461,-38.1902 164.2997,-26.9374"/>
<polygon fill="#191970" stroke="#191970" points="166.6928,-24.38 157.1656,-19.7449 161.7228,-29.3095 166.6928,-24.38"/>
</g>
<!-- Node7 -->
<g id="node8" class="node">
<title>Node7</title>
<polygon fill="#ffffff" stroke="#bfbfbf" points="186.5,-.5 186.5,-19.5 230.5,-19.5 230.5,-.5 186.5,-.5"/>
<text text-anchor="middle" x="208.5" y="-7.5" font-family="Helvetica,sans-Serif" font-size="10.00" fill="#000000">vector</text>
</g>
<!-- Node4&#45;&gt;Node7 -->
<g id="edge7" class="edge">
<title>Node4&#45;&gt;Node7</title>
<path fill="none" stroke="#191970" d="M208.5,-61.8906C208.5,-53.3657 208.5,-40.6392 208.5,-29.9235"/>
<polygon fill="#191970" stroke="#191970" points="212.0001,-29.7448 208.5,-19.7449 205.0001,-29.7449 212.0001,-29.7448"/>
</g>
<!-- Node8 -->
<g id="node9" class="node">
<title>Node8</title>
<polygon fill="#ffffff" stroke="#bfbfbf" points="249,-.5 249,-19.5 332,-19.5 332,-.5 249,-.5"/>
<text text-anchor="middle" x="290.5" y="-7.5" font-family="Helvetica,sans-Serif" font-size="10.00" fill="#000000">unordered_map</text>
</g>
<!-- Node4&#45;&gt;Node8 -->
<g id="edge8" class="edge">
<title>Node4&#45;&gt;Node8</title>
<path fill="none" stroke="#191970" d="M221.3125,-61.8906C234.1901,-52.2324 254.2584,-37.1812 269.472,-25.771"/>
<polygon fill="#191970" stroke="#191970" points="271.8775,-28.3419 277.7775,-19.5419 267.6774,-22.7419 271.8775,-28.3419"/>
</g>
<!-- Node9 -->
<g id="node10" class="node">
<title>Node9</title>
<polygon fill="#ffffff" stroke="#bfbfbf" points="350.5,-.5 350.5,-19.5 428.5,-19.5 428.5,-.5 350.5,-.5"/>
<text text-anchor="middle" x="389.5" y="-7.5" font-family="Helvetica,sans-Serif" font-size="10.00" fill="#000000">unordered_set</text>
</g>
<!-- Node4&#45;&gt;Node9 -->
<g id="edge9" class="edge">
<title>Node4&#45;&gt;Node9</title>
<path fill="none" stroke="#191970" d="M236.7813,-61.8906C267.73,-51.3749 317.4942,-34.466 351.757,-22.8243"/>
<polygon fill="#191970" stroke="#191970" points="353.075,-26.073 361.4173,-19.5419 350.8229,-19.4452 353.075,-26.073"/>
</g>
</g>
</svg>
