<?xml version="1.0" encoding="UTF-8" standalone="no"?>
<!DOCTYPE svg PUBLIC "-//W3C//DTD SVG 1.1//EN"
 "http://www.w3.org/Graphics/SVG/1.1/DTD/svg11.dtd">
<!-- Generated by graphviz version 2.40.1 (20161225.0304)
 -->
<!-- Title: src/processors/pro_radial_distribution_function_with_deformation.h Pages: 1 -->
<svg width="364pt" height="262pt"
 viewBox="0.00 0.00 364.00 262.00" xmlns="http://www.w3.org/2000/svg" xmlns:xlink="http://www.w3.org/1999/xlink">
<g id="graph0" class="graph" transform="scale(1 1) rotate(0) translate(4 258)">
<title>src/processors/pro_radial_distribution_function_with_deformation.h</title>
<polygon fill="#ffffff" stroke="transparent" points="-4,4 -4,-258 360,-258 360,4 -4,4"/>
<!-- Node22 -->
<g id="node1" class="node">
<title>Node22</title>
<polygon fill="#bfbfbf" stroke="#000000" points="123.5,-212.5 123.5,-253.5 266.5,-253.5 266.5,-212.5 123.5,-212.5"/>
<text text-anchor="start" x="131.5" y="-241.5" font-family="Helvetica,sans-Serif" font-size="10.00" fill="#000000">src/processors/pro</text>
<text text-anchor="start" x="131.5" y="-230.5" font-family="Helvetica,sans-Serif" font-size="10.00" fill="#000000">_radial_distribution</text>
<text text-anchor="middle" x="195" y="-219.5" font-family="Helvetica,sans-Serif" font-size="10.00" fill="#000000">_function_with_deformation.h</text>
</g>
<!-- Node23 -->
<g id="node2" class="node">
<title>Node23</title>
<g id="a_node2"><a xlink:href="py__pro__radial__distribution__function__with__deformation_8h.html" target="_top" xlink:title="This file is for binding ProRadialDistributionFunctionWithDeformation class to Python. ">
<polygon fill="#ffffff" stroke="#000000" points="40.5,-134.5 40.5,-175.5 183.5,-175.5 183.5,-134.5 40.5,-134.5"/>
<text text-anchor="start" x="48.5" y="-163.5" font-family="Helvetica,sans-Serif" font-size="10.00" fill="#000000">src/pybind/processors</text>
<text text-anchor="start" x="48.5" y="-152.5" font-family="Helvetica,sans-Serif" font-size="10.00" fill="#000000">/py_pro_radial_distribution</text>
<text text-anchor="middle" x="112" y="-141.5" font-family="Helvetica,sans-Serif" font-size="10.00" fill="#000000">_function_with_deformation.h</text>
</a>
</g>
</g>
<!-- Node22&#45;&gt;Node23 -->
<g id="edge1" class="edge">
<title>Node22&#45;&gt;Node23</title>
<path fill="none" stroke="#191970" d="M165.4488,-205.229C155.0912,-195.4953 143.6479,-184.7414 134.0161,-175.6898"/>
<polygon fill="#191970" stroke="#191970" points="163.0735,-207.7997 172.7575,-212.0974 167.8672,-202.6987 163.0735,-207.7997"/>
</g>
<!-- Node27 -->
<g id="node6" class="node">
<title>Node27</title>
<g id="a_node6"><a xlink:href="pro__radial__distribution__function__with__deformation_8cpp.html" target="_top" xlink:title="This file has an implementation of ProRadialDistributionFunctionWithDeformation class, which is a subclass of Processor class. ">
<polygon fill="#ffffff" stroke="#000000" points="202,-134.5 202,-175.5 356,-175.5 356,-134.5 202,-134.5"/>
<text text-anchor="start" x="210" y="-163.5" font-family="Helvetica,sans-Serif" font-size="10.00" fill="#000000">src/processors/pro</text>
<text text-anchor="start" x="210" y="-152.5" font-family="Helvetica,sans-Serif" font-size="10.00" fill="#000000">_radial_distribution</text>
<text text-anchor="middle" x="279" y="-141.5" font-family="Helvetica,sans-Serif" font-size="10.00" fill="#000000">_function_with_deformation.cpp</text>
</a>
</g>
</g>
<!-- Node22&#45;&gt;Node27 -->
<g id="edge5" class="edge">
<title>Node22&#45;&gt;Node27</title>
<path fill="none" stroke="#191970" d="M224.9072,-205.229C235.3897,-195.4953 246.9708,-184.7414 256.7187,-175.6898"/>
<polygon fill="#191970" stroke="#191970" points="222.4568,-202.7281 217.5105,-212.0974 227.22,-207.8577 222.4568,-202.7281"/>
</g>
<!-- Node24 -->
<g id="node3" class="node">
<title>Node24</title>
<g id="a_node3"><a xlink:href="pybind_8h.html" target="_top" xlink:title="This file includes all the header files containing definitions of functions to bind C++ and Python...">
<polygon fill="#ffffff" stroke="#000000" points="12,-67.5 12,-86.5 82,-86.5 82,-67.5 12,-67.5"/>
<text text-anchor="middle" x="47" y="-74.5" font-family="Helvetica,sans-Serif" font-size="10.00" fill="#000000">src/pybind.h</text>
</a>
</g>
</g>
<!-- Node23&#45;&gt;Node24 -->
<g id="edge2" class="edge">
<title>Node23&#45;&gt;Node24</title>
<path fill="none" stroke="#191970" d="M88.0135,-126.2162C76.4743,-112.3692 63.3948,-96.6737 55.1726,-86.8072"/>
<polygon fill="#191970" stroke="#191970" points="85.4905,-128.6559 94.5812,-134.0974 90.8681,-124.1745 85.4905,-128.6559"/>
</g>
<!-- Node26 -->
<g id="node5" class="node">
<title>Node26</title>
<g id="a_node5"><a xlink:href="py__pro__radial__distribution__function__with__deformation_8cpp.html" target="_top" xlink:title="This file is for binding ProRadialDistributionFunctionWithDeformation class to Python. ">
<polygon fill="#ffffff" stroke="#000000" points="100,-56.5 100,-97.5 254,-97.5 254,-56.5 100,-56.5"/>
<text text-anchor="start" x="108" y="-85.5" font-family="Helvetica,sans-Serif" font-size="10.00" fill="#000000">src/pybind/processors</text>
<text text-anchor="start" x="108" y="-74.5" font-family="Helvetica,sans-Serif" font-size="10.00" fill="#000000">/py_pro_radial_distribution</text>
<text text-anchor="middle" x="177" y="-63.5" font-family="Helvetica,sans-Serif" font-size="10.00" fill="#000000">_function_with_deformation.cpp</text>
</a>
</g>
</g>
<!-- Node23&#45;&gt;Node26 -->
<g id="edge4" class="edge">
<title>Node23&#45;&gt;Node26</title>
<path fill="none" stroke="#191970" d="M135.8534,-126.376C143.7747,-116.8703 152.4352,-106.4778 159.7585,-97.6898"/>
<polygon fill="#191970" stroke="#191970" points="133.1319,-124.1745 129.4188,-134.0974 138.5095,-128.6559 133.1319,-124.1745"/>
</g>
<!-- Node25 -->
<g id="node4" class="node">
<title>Node25</title>
<g id="a_node4"><a xlink:href="ppap4lmp_8cpp.html" target="_top" xlink:title="This file has no implementation, only includes a header file to bind C++ and Python. ">
<polygon fill="#ffffff" stroke="#000000" points="0,-.5 0,-19.5 94,-19.5 94,-.5 0,-.5"/>
<text text-anchor="middle" x="47" y="-7.5" font-family="Helvetica,sans-Serif" font-size="10.00" fill="#000000">src/ppap4lmp.cpp</text>
</a>
</g>
</g>
<!-- Node24&#45;&gt;Node25 -->
<g id="edge3" class="edge">
<title>Node24&#45;&gt;Node25</title>
<path fill="none" stroke="#191970" d="M47,-57.1079C47,-44.714 47,-29.3263 47,-19.5817"/>
<polygon fill="#191970" stroke="#191970" points="43.5001,-57.4005 47,-67.4005 50.5001,-57.4006 43.5001,-57.4005"/>
</g>
</g>
</svg>
