<?xml version="1.0" encoding="UTF-8" standalone="no"?>
<!DOCTYPE svg PUBLIC "-//W3C//DTD SVG 1.1//EN"
 "http://www.w3.org/Graphics/SVG/1.1/DTD/svg11.dtd">
<!-- Generated by graphviz version 2.40.1 (20161225.0304)
 -->
<!-- Title: src/processors/pro_mean_square_displacement.cpp Pages: 1 -->
<svg width="468pt" height="207pt"
 viewBox="0.00 0.00 467.50 207.00" xmlns="http://www.w3.org/2000/svg" xmlns:xlink="http://www.w3.org/1999/xlink">
<g id="graph0" class="graph" transform="scale(1 1) rotate(0) translate(4 203)">
<title>src/processors/pro_mean_square_displacement.cpp</title>
<polygon fill="#ffffff" stroke="transparent" points="-4,4 -4,-203 463.5,-203 463.5,4 -4,4"/>
<!-- Node0 -->
<g id="node1" class="node">
<title>Node0</title>
<polygon fill="#bfbfbf" stroke="#000000" points="79.5,-168.5 79.5,-198.5 241.5,-198.5 241.5,-168.5 79.5,-168.5"/>
<text text-anchor="start" x="87.5" y="-186.5" font-family="Helvetica,sans-Serif" font-size="10.00" fill="#000000">src/processors/pro</text>
<text text-anchor="middle" x="160.5" y="-175.5" font-family="Helvetica,sans-Serif" font-size="10.00" fill="#000000">_mean_square_displacement.cpp</text>
</g>
<!-- Node1 -->
<g id="node2" class="node">
<title>Node1</title>
<g id="a_node2"><a xlink:href="processors_2pro__mean__square__displacement_8h.html" target="_top" xlink:title="pro_mean_square_displacement.h">
<polygon fill="#ffffff" stroke="#000000" points="0,-112.5 0,-131.5 165,-131.5 165,-112.5 0,-112.5"/>
<text text-anchor="middle" x="82.5" y="-119.5" font-family="Helvetica,sans-Serif" font-size="10.00" fill="#000000">pro_mean_square_displacement.h</text>
</a>
</g>
</g>
<!-- Node0&#45;&gt;Node1 -->
<g id="edge1" class="edge">
<title>Node0&#45;&gt;Node1</title>
<path fill="none" stroke="#191970" d="M141.2191,-168.2977C129.6024,-159.1384 114.8182,-147.4816 102.9908,-138.1562"/>
<polygon fill="#191970" stroke="#191970" points="105.0086,-135.2901 94.9888,-131.8469 100.6744,-140.787 105.0086,-135.2901"/>
</g>
<!-- Node3 -->
<g id="node4" class="node">
<title>Node3</title>
<g id="a_node4"><a xlink:href="runtime__error_8h.html" target="_top" xlink:title="../utils/runtime_error.h">
<polygon fill="#ffffff" stroke="#000000" points="183.5,-112.5 183.5,-131.5 295.5,-131.5 295.5,-112.5 183.5,-112.5"/>
<text text-anchor="middle" x="239.5" y="-119.5" font-family="Helvetica,sans-Serif" font-size="10.00" fill="#000000">../utils/runtime_error.h</text>
</a>
</g>
</g>
<!-- Node0&#45;&gt;Node3 -->
<g id="edge3" class="edge">
<title>Node0&#45;&gt;Node3</title>
<path fill="none" stroke="#191970" d="M180.0281,-168.2977C191.7937,-159.1384 206.7675,-147.4816 218.7465,-138.1562"/>
<polygon fill="#191970" stroke="#191970" points="221.1103,-140.7516 226.8511,-131.8469 216.8102,-135.228 221.1103,-140.7516"/>
</g>
<!-- Node2 -->
<g id="node3" class="node">
<title>Node2</title>
<polygon fill="#ffffff" stroke="#bfbfbf" points="23,-56.5 23,-75.5 142,-75.5 142,-56.5 23,-56.5"/>
<text text-anchor="middle" x="82.5" y="-63.5" font-family="Helvetica,sans-Serif" font-size="10.00" fill="#000000">processors/processor.h</text>
</g>
<!-- Node1&#45;&gt;Node2 -->
<g id="edge2" class="edge">
<title>Node1&#45;&gt;Node2</title>
<path fill="none" stroke="#191970" d="M82.5,-112.2455C82.5,-104.9382 82.5,-94.6944 82.5,-85.7046"/>
<polygon fill="#191970" stroke="#191970" points="86.0001,-85.6426 82.5,-75.6427 79.0001,-85.6427 86.0001,-85.6426"/>
</g>
<!-- Node4 -->
<g id="node5" class="node">
<title>Node4</title>
<g id="a_node5"><a xlink:href="std_8h.html" target="_top" xlink:title="This file includes a part of C++ Standard Template Library and defines aliases for them...">
<polygon fill="#ffffff" stroke="#000000" points="208.5,-56.5 208.5,-75.5 270.5,-75.5 270.5,-56.5 208.5,-56.5"/>
<text text-anchor="middle" x="239.5" y="-63.5" font-family="Helvetica,sans-Serif" font-size="10.00" fill="#000000">alias/std.h</text>
</a>
</g>
</g>
<!-- Node3&#45;&gt;Node4 -->
<g id="edge4" class="edge">
<title>Node3&#45;&gt;Node4</title>
<path fill="none" stroke="#191970" d="M239.5,-112.2455C239.5,-104.9382 239.5,-94.6944 239.5,-85.7046"/>
<polygon fill="#191970" stroke="#191970" points="243.0001,-85.6426 239.5,-75.6427 236.0001,-85.6427 243.0001,-85.6426"/>
</g>
<!-- Node5 -->
<g id="node6" class="node">
<title>Node5</title>
<polygon fill="#ffffff" stroke="#bfbfbf" points="87.5,-.5 87.5,-19.5 139.5,-19.5 139.5,-.5 87.5,-.5"/>
<text text-anchor="middle" x="113.5" y="-7.5" font-family="Helvetica,sans-Serif" font-size="10.00" fill="#000000">memory</text>
</g>
<!-- Node4&#45;&gt;Node5 -->
<g id="edge5" class="edge">
<title>Node4&#45;&gt;Node5</title>
<path fill="none" stroke="#191970" d="M217.8398,-56.3733C197.5228,-47.3435 166.936,-33.7494 144.125,-23.6111"/>
<polygon fill="#191970" stroke="#191970" points="145.4372,-20.3642 134.8775,-19.5011 142.5941,-26.7609 145.4372,-20.3642"/>
</g>
<!-- Node6 -->
<g id="node7" class="node">
<title>Node6</title>
<polygon fill="#ffffff" stroke="#bfbfbf" points="158,-.5 158,-19.5 199,-19.5 199,-.5 158,-.5"/>
<text text-anchor="middle" x="178.5" y="-7.5" font-family="Helvetica,sans-Serif" font-size="10.00" fill="#000000">string</text>
</g>
<!-- Node4&#45;&gt;Node6 -->
<g id="edge6" class="edge">
<title>Node4&#45;&gt;Node6</title>
<path fill="none" stroke="#191970" d="M228.8746,-56.2455C219.9527,-48.0549 207.012,-36.1749 196.4808,-26.5069"/>
<polygon fill="#191970" stroke="#191970" points="198.7371,-23.8271 189.0036,-19.6427 194.0032,-28.9837 198.7371,-23.8271"/>
</g>
<!-- Node7 -->
<g id="node8" class="node">
<title>Node7</title>
<polygon fill="#ffffff" stroke="#bfbfbf" points="217.5,-.5 217.5,-19.5 261.5,-19.5 261.5,-.5 217.5,-.5"/>
<text text-anchor="middle" x="239.5" y="-7.5" font-family="Helvetica,sans-Serif" font-size="10.00" fill="#000000">vector</text>
</g>
<!-- Node4&#45;&gt;Node7 -->
<g id="edge7" class="edge">
<title>Node4&#45;&gt;Node7</title>
<path fill="none" stroke="#191970" d="M239.5,-56.2455C239.5,-48.9382 239.5,-38.6944 239.5,-29.7046"/>
<polygon fill="#191970" stroke="#191970" points="243.0001,-29.6426 239.5,-19.6427 236.0001,-29.6427 243.0001,-29.6426"/>
</g>
<!-- Node8 -->
<g id="node9" class="node">
<title>Node8</title>
<polygon fill="#ffffff" stroke="#bfbfbf" points="280,-.5 280,-19.5 363,-19.5 363,-.5 280,-.5"/>
<text text-anchor="middle" x="321.5" y="-7.5" font-family="Helvetica,sans-Serif" font-size="10.00" fill="#000000">unordered_map</text>
</g>
<!-- Node4&#45;&gt;Node8 -->
<g id="edge8" class="edge">
<title>Node4&#45;&gt;Node8</title>
<path fill="none" stroke="#191970" d="M253.7833,-56.2455C266.247,-47.7337 284.5451,-35.2375 298.9792,-25.3801"/>
<polygon fill="#191970" stroke="#191970" points="301.0962,-28.1726 307.3804,-19.6427 297.1485,-22.392 301.0962,-28.1726"/>
</g>
<!-- Node9 -->
<g id="node10" class="node">
<title>Node9</title>
<polygon fill="#ffffff" stroke="#bfbfbf" points="381.5,-.5 381.5,-19.5 459.5,-19.5 459.5,-.5 381.5,-.5"/>
<text text-anchor="middle" x="420.5" y="-7.5" font-family="Helvetica,sans-Serif" font-size="10.00" fill="#000000">unordered_set</text>
</g>
<!-- Node4&#45;&gt;Node9 -->
<g id="edge9" class="edge">
<title>Node4&#45;&gt;Node9</title>
<path fill="none" stroke="#191970" d="M270.615,-56.3733C300.8429,-47.021 346.896,-32.7725 379.9739,-22.5385"/>
<polygon fill="#191970" stroke="#191970" points="381.2723,-25.8005 389.791,-19.5011 379.2033,-19.1133 381.2723,-25.8005"/>
</g>
</g>
</svg>
