<?xml version="1.0" encoding="UTF-8" standalone="no"?>
<!DOCTYPE svg PUBLIC "-//W3C//DTD SVG 1.1//EN"
 "http://www.w3.org/Graphics/SVG/1.1/DTD/svg11.dtd">
<!-- Generated by graphviz version 2.40.1 (20161225.0304)
 -->
<!-- Title: src/processors/pro_data.h Pages: 1 -->
<svg width="283pt" height="229pt"
 viewBox="0.00 0.00 283.00 229.00" xmlns="http://www.w3.org/2000/svg" xmlns:xlink="http://www.w3.org/1999/xlink">
<g id="graph0" class="graph" transform="scale(1 1) rotate(0) translate(4 225)">
<title>src/processors/pro_data.h</title>
<polygon fill="#ffffff" stroke="transparent" points="-4,4 -4,-225 279,-225 279,4 -4,4"/>
<!-- Node21 -->
<g id="node1" class="node">
<title>Node21</title>
<polygon fill="#bfbfbf" stroke="#000000" points="115,-190.5 115,-220.5 213,-220.5 213,-190.5 115,-190.5"/>
<text text-anchor="start" x="123" y="-208.5" font-family="Helvetica,sans-Serif" font-size="10.00" fill="#000000">src/processors/pro</text>
<text text-anchor="middle" x="164" y="-197.5" font-family="Helvetica,sans-Serif" font-size="10.00" fill="#000000">_data.h</text>
</g>
<!-- Node22 -->
<g id="node2" class="node">
<title>Node22</title>
<g id="a_node2"><a xlink:href="py__pro__data_8h.html" target="_top" xlink:title="This file is for binding ProData class to Python. ">
<polygon fill="#ffffff" stroke="#000000" points="45.5,-123.5 45.5,-153.5 158.5,-153.5 158.5,-123.5 45.5,-123.5"/>
<text text-anchor="start" x="53.5" y="-141.5" font-family="Helvetica,sans-Serif" font-size="10.00" fill="#000000">src/pybind/processors</text>
<text text-anchor="middle" x="102" y="-130.5" font-family="Helvetica,sans-Serif" font-size="10.00" fill="#000000">/py_pro_data.h</text>
</a>
</g>
</g>
<!-- Node21&#45;&gt;Node22 -->
<g id="edge1" class="edge">
<title>Node21&#45;&gt;Node22</title>
<path fill="none" stroke="#191970" d="M143.11,-182.9253C134.1871,-173.2828 124.0093,-162.2843 116.0131,-153.6432"/>
<polygon fill="#191970" stroke="#191970" points="140.5704,-185.3342 149.9312,-190.2967 145.7082,-180.5798 140.5704,-185.3342"/>
</g>
<!-- Node26 -->
<g id="node6" class="node">
<title>Node26</title>
<g id="a_node6"><a xlink:href="pro__data_8cpp.html" target="_top" xlink:title="This file has an implementation of ProData class, which is a subclass of Processor class...">
<polygon fill="#ffffff" stroke="#000000" points="177,-123.5 177,-153.5 275,-153.5 275,-123.5 177,-123.5"/>
<text text-anchor="start" x="185" y="-141.5" font-family="Helvetica,sans-Serif" font-size="10.00" fill="#000000">src/processors/pro</text>
<text text-anchor="middle" x="226" y="-130.5" font-family="Helvetica,sans-Serif" font-size="10.00" fill="#000000">_data.cpp</text>
</a>
</g>
</g>
<!-- Node21&#45;&gt;Node26 -->
<g id="edge5" class="edge">
<title>Node21&#45;&gt;Node26</title>
<path fill="none" stroke="#191970" d="M184.89,-182.9253C193.8129,-173.2828 203.9907,-162.2843 211.9869,-153.6432"/>
<polygon fill="#191970" stroke="#191970" points="182.2918,-180.5798 178.0688,-190.2967 187.4296,-185.3342 182.2918,-180.5798"/>
</g>
<!-- Node23 -->
<g id="node3" class="node">
<title>Node23</title>
<g id="a_node3"><a xlink:href="pybind_8h.html" target="_top" xlink:title="This file includes all the header files containing definitions of functions to bind C++ and Python...">
<polygon fill="#ffffff" stroke="#000000" points="12,-62 12,-81 82,-81 82,-62 12,-62"/>
<text text-anchor="middle" x="47" y="-69" font-family="Helvetica,sans-Serif" font-size="10.00" fill="#000000">src/pybind.h</text>
</a>
</g>
</g>
<!-- Node22&#45;&gt;Node23 -->
<g id="edge2" class="edge">
<title>Node22&#45;&gt;Node23</title>
<path fill="none" stroke="#191970" d="M83.1401,-115.5252C73.4604,-103.7336 62.1911,-90.0055 54.8436,-81.055"/>
<polygon fill="#191970" stroke="#191970" points="80.4694,-117.7881 89.5196,-123.2967 85.8799,-113.3466 80.4694,-117.7881"/>
</g>
<!-- Node25 -->
<g id="node5" class="node">
<title>Node25</title>
<g id="a_node5"><a xlink:href="py__pro__data_8cpp.html" target="_top" xlink:title="This file is for binding ProData class to Python. ">
<polygon fill="#ffffff" stroke="#000000" points="100.5,-56.5 100.5,-86.5 213.5,-86.5 213.5,-56.5 100.5,-56.5"/>
<text text-anchor="start" x="108.5" y="-74.5" font-family="Helvetica,sans-Serif" font-size="10.00" fill="#000000">src/pybind/processors</text>
<text text-anchor="middle" x="157" y="-63.5" font-family="Helvetica,sans-Serif" font-size="10.00" fill="#000000">/py_pro_data.cpp</text>
</a>
</g>
</g>
<!-- Node22&#45;&gt;Node25 -->
<g id="edge4" class="edge">
<title>Node22&#45;&gt;Node25</title>
<path fill="none" stroke="#191970" d="M121.003,-115.3509C128.8037,-105.8482 137.616,-95.1132 144.569,-86.6432"/>
<polygon fill="#191970" stroke="#191970" points="118.1201,-113.3466 114.4804,-123.2967 123.5306,-117.7881 118.1201,-113.3466"/>
</g>
<!-- Node24 -->
<g id="node4" class="node">
<title>Node24</title>
<g id="a_node4"><a xlink:href="ppap4lmp_8cpp.html" target="_top" xlink:title="This file has no implementation, only includes a header file to bind C++ and Python. ">
<polygon fill="#ffffff" stroke="#000000" points="0,-.5 0,-19.5 94,-19.5 94,-.5 0,-.5"/>
<text text-anchor="middle" x="47" y="-7.5" font-family="Helvetica,sans-Serif" font-size="10.00" fill="#000000">src/ppap4lmp.cpp</text>
</a>
</g>
</g>
<!-- Node23&#45;&gt;Node24 -->
<g id="edge3" class="edge">
<title>Node23&#45;&gt;Node24</title>
<path fill="none" stroke="#191970" d="M47,-51.7462C47,-41.0519 47,-28.314 47,-19.7449"/>
<polygon fill="#191970" stroke="#191970" points="43.5001,-51.8906 47,-61.8906 50.5001,-51.8907 43.5001,-51.8906"/>
</g>
</g>
</svg>
