<?xml version="1.0" encoding="UTF-8" standalone="no"?>
<!DOCTYPE svg PUBLIC "-//W3C//DTD SVG 1.1//EN"
 "http://www.w3.org/Graphics/SVG/1.1/DTD/svg11.dtd">
<!-- Generated by graphviz version 2.40.1 (20161225.0304)
 -->
<!-- Title: src/processors/pro_radial_distribution_function_with_deformation.h Pages: 1 -->
<svg width="151pt" height="117pt"
 viewBox="0.00 0.00 151.00 117.00" xmlns="http://www.w3.org/2000/svg" xmlns:xlink="http://www.w3.org/1999/xlink">
<g id="graph0" class="graph" transform="scale(1 1) rotate(0) translate(4 113)">
<title>src/processors/pro_radial_distribution_function_with_deformation.h</title>
<polygon fill="#ffffff" stroke="transparent" points="-4,4 -4,-113 147,-113 147,4 -4,4"/>
<!-- Node0 -->
<g id="node1" class="node">
<title>Node0</title>
<polygon fill="#bfbfbf" stroke="#000000" points="0,-67.5 0,-108.5 143,-108.5 143,-67.5 0,-67.5"/>
<text text-anchor="start" x="8" y="-96.5" font-family="Helvetica,sans-Serif" font-size="10.00" fill="#000000">src/processors/pro</text>
<text text-anchor="start" x="8" y="-85.5" font-family="Helvetica,sans-Serif" font-size="10.00" fill="#000000">_radial_distribution</text>
<text text-anchor="middle" x="71.5" y="-74.5" font-family="Helvetica,sans-Serif" font-size="10.00" fill="#000000">_function_with_deformation.h</text>
</g>
<!-- Node1 -->
<g id="node2" class="node">
<title>Node1</title>
<polygon fill="#ffffff" stroke="#bfbfbf" points="13,-.5 13,-30.5 130,-30.5 130,-.5 13,-.5"/>
<text text-anchor="start" x="21" y="-18.5" font-family="Helvetica,sans-Serif" font-size="10.00" fill="#000000">processors/pro_radial</text>
<text text-anchor="middle" x="71.5" y="-7.5" font-family="Helvetica,sans-Serif" font-size="10.00" fill="#000000">_distribution_function.h</text>
</g>
<!-- Node0&#45;&gt;Node1 -->
<g id="edge1" class="edge">
<title>Node0&#45;&gt;Node1</title>
<path fill="none" stroke="#191970" d="M71.5,-67.4183C71.5,-59.0849 71.5,-49.3834 71.5,-40.6373"/>
<polygon fill="#191970" stroke="#191970" points="75.0001,-40.5991 71.5,-30.5991 68.0001,-40.5991 75.0001,-40.5991"/>
</g>
</g>
</svg>
