<?xml version="1.0" encoding="UTF-8" standalone="no"?>
<!DOCTYPE svg PUBLIC "-//W3C//DTD SVG 1.1//EN"
 "http://www.w3.org/Graphics/SVG/1.1/DTD/svg11.dtd">
<!-- Generated by graphviz version 2.40.1 (20161225.0304)
 -->
<!-- Title: src/processors/processor.h Pages: 1 -->
<svg width="1551pt" height="374pt"
 viewBox="0.00 0.00 1551.00 374.00" xmlns="http://www.w3.org/2000/svg" xmlns:xlink="http://www.w3.org/1999/xlink">
<g id="graph0" class="graph" transform="scale(1 1) rotate(0) translate(4 370)">
<title>src/processors/processor.h</title>
<polygon fill="#ffffff" stroke="transparent" points="-4,4 -4,-370 1547,-370 1547,4 -4,4"/>
<!-- Node20 -->
<g id="node1" class="node">
<title>Node20</title>
<polygon fill="#bfbfbf" stroke="#000000" points="566.5,-346.5 566.5,-365.5 701.5,-365.5 701.5,-346.5 566.5,-346.5"/>
<text text-anchor="middle" x="634" y="-353.5" font-family="Helvetica,sans-Serif" font-size="10.00" fill="#000000">src/processors/processor.h</text>
</g>
<!-- Node21 -->
<g id="node2" class="node">
<title>Node21</title>
<g id="a_node2"><a xlink:href="invoker_8h.html" target="_top" xlink:title="This file has a definition of Invoker class, which executes one or more analysis. ...">
<polygon fill="#ffffff" stroke="#000000" points="1050.5,-279.5 1050.5,-298.5 1163.5,-298.5 1163.5,-279.5 1050.5,-279.5"/>
<text text-anchor="middle" x="1107" y="-286.5" font-family="Helvetica,sans-Serif" font-size="10.00" fill="#000000">src/invokers/invoker.h</text>
</a>
</g>
</g>
<!-- Node20&#45;&gt;Node21 -->
<g id="edge1" class="edge">
<title>Node20&#45;&gt;Node21</title>
<path fill="none" stroke="#191970" d="M711.6421,-348.5145C787.6822,-340.7039 906.7022,-327.1996 1009,-310 1027.8752,-306.8265 1048.6234,-302.5029 1066.15,-298.6036"/>
<polygon fill="#191970" stroke="#191970" points="711.2585,-345.0353 701.6653,-349.5319 711.9688,-351.9992 711.2585,-345.0353"/>
</g>
<!-- Node29 -->
<g id="node10" class="node">
<title>Node29</title>
<g id="a_node10"><a xlink:href="py__processor_8h.html" target="_top" xlink:title="This file is for binding Processor class to Python. ">
<polygon fill="#ffffff" stroke="#000000" points="476.5,-196 476.5,-226 589.5,-226 589.5,-196 476.5,-196"/>
<text text-anchor="start" x="484.5" y="-214" font-family="Helvetica,sans-Serif" font-size="10.00" fill="#000000">src/pybind/processors</text>
<text text-anchor="middle" x="533" y="-203" font-family="Helvetica,sans-Serif" font-size="10.00" fill="#000000">/py_processor.h</text>
</a>
</g>
</g>
<!-- Node20&#45;&gt;Node29 -->
<g id="edge11" class="edge">
<title>Node20&#45;&gt;Node29</title>
<path fill="none" stroke="#191970" d="M609.644,-340.7818C598.2691,-332.7282 585.2334,-322.0203 576,-310 555.9094,-283.8455 543.1191,-246.8604 537.0872,-226.299"/>
<polygon fill="#191970" stroke="#191970" points="607.6877,-343.684 617.9283,-346.4008 611.617,-337.8908 607.6877,-343.684"/>
</g>
<!-- Node37 -->
<g id="node18" class="node">
<title>Node37</title>
<g id="a_node18"><a xlink:href="pro__data_8h.html" target="_top" xlink:title="This file has a definition of ProData class, which is a subclass of Processor class. ">
<polygon fill="#ffffff" stroke="#000000" points="815,-196 815,-226 913,-226 913,-196 815,-196"/>
<text text-anchor="start" x="823" y="-214" font-family="Helvetica,sans-Serif" font-size="10.00" fill="#000000">src/processors/pro</text>
<text text-anchor="middle" x="864" y="-203" font-family="Helvetica,sans-Serif" font-size="10.00" fill="#000000">_data.h</text>
</a>
</g>
</g>
<!-- Node20&#45;&gt;Node37 -->
<g id="edge27" class="edge">
<title>Node20&#45;&gt;Node37</title>
<path fill="none" stroke="#191970" d="M657.6841,-341.0687C701.668,-313.3398 795.5127,-254.1768 839.8477,-226.2264"/>
<polygon fill="#191970" stroke="#191970" points="655.6836,-338.1923 649.0909,-346.4861 659.4168,-344.1138 655.6836,-338.1923"/>
</g>
<!-- Node39 -->
<g id="node20" class="node">
<title>Node39</title>
<g id="a_node20"><a xlink:href="pro__distance__in__molecule_8h_source.html" target="_top" xlink:title="src/processors/pro\l_distance_in_molecule.h">
<polygon fill="#ffffff" stroke="#000000" points="393,-274 393,-304 517,-304 517,-274 393,-274"/>
<text text-anchor="start" x="401" y="-292" font-family="Helvetica,sans-Serif" font-size="10.00" fill="#000000">src/processors/pro</text>
<text text-anchor="middle" x="455" y="-281" font-family="Helvetica,sans-Serif" font-size="10.00" fill="#000000">_distance_in_molecule.h</text>
</a>
</g>
</g>
<!-- Node20&#45;&gt;Node39 -->
<g id="edge30" class="edge">
<title>Node20&#45;&gt;Node39</title>
<path fill="none" stroke="#191970" d="M598.7752,-342.8153C568.9677,-331.6583 526.2551,-315.6709 495.1328,-304.0218"/>
<polygon fill="#191970" stroke="#191970" points="597.7613,-346.1729 608.3537,-346.4005 600.2152,-339.6171 597.7613,-346.1729"/>
</g>
<!-- Node40 -->
<g id="node21" class="node">
<title>Node40</title>
<g id="a_node21"><a xlink:href="pro__mean__square__displacement_8h_source.html" target="_top" xlink:title="src/processors/pro\l_mean_square_displacement.h">
<polygon fill="#ffffff" stroke="#000000" points="848,-274 848,-304 1000,-304 1000,-274 848,-274"/>
<text text-anchor="start" x="856" y="-292" font-family="Helvetica,sans-Serif" font-size="10.00" fill="#000000">src/processors/pro</text>
<text text-anchor="middle" x="924" y="-281" font-family="Helvetica,sans-Serif" font-size="10.00" fill="#000000">_mean_square_displacement.h</text>
</a>
</g>
</g>
<!-- Node20&#45;&gt;Node40 -->
<g id="edge32" class="edge">
<title>Node20&#45;&gt;Node40</title>
<path fill="none" stroke="#191970" d="M685.1774,-344.1762C733.5497,-333.0006 806.3357,-316.1845 858.8351,-304.0553"/>
<polygon fill="#191970" stroke="#191970" points="684.1974,-340.8104 675.242,-346.4717 685.7732,-347.6307 684.1974,-340.8104"/>
</g>
<!-- Node41 -->
<g id="node22" class="node">
<title>Node41</title>
<g id="a_node22"><a xlink:href="pro__radial__distribution__function_8h_source.html" target="_top" xlink:title="src/processors/pro\l_radial_distribution\l_function.h">
<polygon fill="#ffffff" stroke="#000000" points="585,-268.5 585,-309.5 683,-309.5 683,-268.5 585,-268.5"/>
<text text-anchor="start" x="593" y="-297.5" font-family="Helvetica,sans-Serif" font-size="10.00" fill="#000000">src/processors/pro</text>
<text text-anchor="start" x="593" y="-286.5" font-family="Helvetica,sans-Serif" font-size="10.00" fill="#000000">_radial_distribution</text>
<text text-anchor="middle" x="634" y="-275.5" font-family="Helvetica,sans-Serif" font-size="10.00" fill="#000000">_function.h</text>
</a>
</g>
</g>
<!-- Node20&#45;&gt;Node41 -->
<g id="edge34" class="edge">
<title>Node20&#45;&gt;Node41</title>
<path fill="none" stroke="#191970" d="M634,-336.3919C634,-327.9817 634,-318.1519 634,-309.6318"/>
<polygon fill="#191970" stroke="#191970" points="630.5001,-336.4005 634,-346.4005 637.5001,-336.4006 630.5001,-336.4005"/>
</g>
<!-- Node43 -->
<g id="node24" class="node">
<title>Node43</title>
<g id="a_node24"><a xlink:href="pro__thickness__profile_8h_source.html" target="_top" xlink:title="src/processors/pro\l_thickness_profile.h">
<polygon fill="#ffffff" stroke="#000000" points="104,-274 104,-304 208,-304 208,-274 104,-274"/>
<text text-anchor="start" x="112" y="-292" font-family="Helvetica,sans-Serif" font-size="10.00" fill="#000000">src/processors/pro</text>
<text text-anchor="middle" x="156" y="-281" font-family="Helvetica,sans-Serif" font-size="10.00" fill="#000000">_thickness_profile.h</text>
</a>
</g>
</g>
<!-- Node20&#45;&gt;Node43 -->
<g id="edge38" class="edge">
<title>Node20&#45;&gt;Node43</title>
<path fill="none" stroke="#191970" d="M556.0778,-348.9008C478.4602,-341.299 356.0452,-327.8742 251,-310 237.0124,-307.6199 221.9759,-304.5408 208.0849,-301.4776"/>
<polygon fill="#191970" stroke="#191970" points="555.9643,-352.4062 566.2558,-349.8894 556.6411,-345.439 555.9643,-352.4062"/>
</g>
<!-- Node44 -->
<g id="node25" class="node">
<title>Node44</title>
<g id="a_node25"><a xlink:href="pro__value__array_8h_source.html" target="_top" xlink:title="src/processors/pro\l_value_array.h">
<polygon fill="#ffffff" stroke="#000000" points="260,-274 260,-304 358,-304 358,-274 260,-274"/>
<text text-anchor="start" x="268" y="-292" font-family="Helvetica,sans-Serif" font-size="10.00" fill="#000000">src/processors/pro</text>
<text text-anchor="middle" x="309" y="-281" font-family="Helvetica,sans-Serif" font-size="10.00" fill="#000000">_value_array.h</text>
</a>
</g>
</g>
<!-- Node20&#45;&gt;Node44 -->
<g id="edge40" class="edge">
<title>Node20&#45;&gt;Node44</title>
<path fill="none" stroke="#191970" d="M563.4567,-344.7833C513.1832,-336.361 444.1338,-323.9206 384,-310 375.5691,-308.0483 366.6662,-305.76 358.0541,-303.4253"/>
<polygon fill="#191970" stroke="#191970" points="563.132,-348.2774 573.5708,-346.466 564.2808,-341.3723 563.132,-348.2774"/>
</g>
<!-- Node45 -->
<g id="node26" class="node">
<title>Node45</title>
<g id="a_node26"><a xlink:href="processor_8cpp.html" target="_top" xlink:title="This file has an implementation of Processor class, where an analysis process is programmed. ">
<polygon fill="#ffffff" stroke="#000000" points="1182,-279.5 1182,-298.5 1328,-298.5 1328,-279.5 1182,-279.5"/>
<text text-anchor="middle" x="1255" y="-286.5" font-family="Helvetica,sans-Serif" font-size="10.00" fill="#000000">src/processors/processor.cpp</text>
</a>
</g>
</g>
<!-- Node20&#45;&gt;Node45 -->
<g id="edge42" class="edge">
<title>Node20&#45;&gt;Node45</title>
<path fill="none" stroke="#191970" d="M711.8942,-353.3983C817.1513,-348.9634 1010.3552,-337.5715 1173,-310 1189.6622,-307.1754 1207.9018,-302.6508 1222.9393,-298.5235"/>
<polygon fill="#191970" stroke="#191970" points="711.5238,-349.9105 701.6761,-353.8186 711.8115,-356.9046 711.5238,-349.9105"/>
</g>
<!-- Node22 -->
<g id="node3" class="node">
<title>Node22</title>
<g id="a_node3"><a xlink:href="inv__omp_8h.html" target="_top" xlink:title="This file has a definition of InvOMP class, which is a subclass of Invoker class. ...">
<polygon fill="#ffffff" stroke="#000000" points="1317,-201.5 1317,-220.5 1435,-220.5 1435,-201.5 1317,-201.5"/>
<text text-anchor="middle" x="1376" y="-208.5" font-family="Helvetica,sans-Serif" font-size="10.00" fill="#000000">src/invokers/inv_omp.h</text>
</a>
</g>
</g>
<!-- Node21&#45;&gt;Node22 -->
<g id="edge2" class="edge">
<title>Node21&#45;&gt;Node22</title>
<path fill="none" stroke="#191970" d="M1145.8924,-276.2875C1154.7767,-273.4777 1164.195,-270.5732 1173,-268 1232.6035,-250.5811 1248.3228,-249.1648 1308,-232 1320.468,-228.4139 1334.1479,-224.2367 1345.948,-220.5566"/>
<polygon fill="#191970" stroke="#191970" points="1144.6123,-273.0221 1136.15,-279.3969 1146.7407,-279.6907 1144.6123,-273.0221"/>
</g>
<!-- Node27 -->
<g id="node8" class="node">
<title>Node27</title>
<g id="a_node8"><a xlink:href="invoker_8cpp.html" target="_top" xlink:title="This file has an implementation of Invoker class, which executes one or more analysis. ">
<polygon fill="#ffffff" stroke="#000000" points="1175.5,-201.5 1175.5,-220.5 1298.5,-220.5 1298.5,-201.5 1175.5,-201.5"/>
<text text-anchor="middle" x="1237" y="-208.5" font-family="Helvetica,sans-Serif" font-size="10.00" fill="#000000">src/invokers/invoker.cpp</text>
</a>
</g>
</g>
<!-- Node21&#45;&gt;Node27 -->
<g id="edge7" class="edge">
<title>Node21&#45;&gt;Node27</title>
<path fill="none" stroke="#191970" d="M1131.5505,-274.2697C1157.762,-258.5428 1198.5384,-234.0769 1220.9291,-220.6426"/>
<polygon fill="#191970" stroke="#191970" points="1129.7147,-271.2894 1122.9406,-279.4357 1133.3162,-277.2919 1129.7147,-271.2894"/>
</g>
<!-- Node28 -->
<g id="node9" class="node">
<title>Node28</title>
<g id="a_node9"><a xlink:href="py__invoker_8h.html" target="_top" xlink:title="This file is for binding Invoker class to Python. ">
<polygon fill="#ffffff" stroke="#000000" points="1056.5,-196 1056.5,-226 1157.5,-226 1157.5,-196 1056.5,-196"/>
<text text-anchor="start" x="1064.5" y="-214" font-family="Helvetica,sans-Serif" font-size="10.00" fill="#000000">src/pybind/invokers</text>
<text text-anchor="middle" x="1107" y="-203" font-family="Helvetica,sans-Serif" font-size="10.00" fill="#000000">/py_invoker.h</text>
</a>
</g>
</g>
<!-- Node21&#45;&gt;Node28 -->
<g id="edge8" class="edge">
<title>Node21&#45;&gt;Node28</title>
<path fill="none" stroke="#191970" d="M1107,-269.3751C1107,-256.0215 1107,-238.6052 1107,-226.2824"/>
<polygon fill="#191970" stroke="#191970" points="1103.5001,-269.4356 1107,-279.4357 1110.5001,-269.4357 1103.5001,-269.4356"/>
</g>
<!-- Node23 -->
<g id="node4" class="node">
<title>Node23</title>
<g id="a_node4"><a xlink:href="inv__omp_8cpp.html" target="_top" xlink:title="This file has an implementation of InvOMP class, which is a subclass of Invoker class. ">
<polygon fill="#ffffff" stroke="#000000" points="1415,-123.5 1415,-142.5 1543,-142.5 1543,-123.5 1415,-123.5"/>
<text text-anchor="middle" x="1479" y="-130.5" font-family="Helvetica,sans-Serif" font-size="10.00" fill="#000000">src/invokers/inv_omp.cpp</text>
</a>
</g>
</g>
<!-- Node22&#45;&gt;Node23 -->
<g id="edge3" class="edge">
<title>Node22&#45;&gt;Node23</title>
<path fill="none" stroke="#191970" d="M1396.8281,-195.2273C1417.623,-179.4797 1448.914,-155.7836 1466.2669,-142.6426"/>
<polygon fill="#191970" stroke="#191970" points="1394.4889,-192.6083 1388.6298,-201.4357 1398.7149,-198.1888 1394.4889,-192.6083"/>
</g>
<!-- Node24 -->
<g id="node5" class="node">
<title>Node24</title>
<g id="a_node5"><a xlink:href="py__inv__omp_8h.html" target="_top" xlink:title="This file is for binding InvOMP class to Python. ">
<polygon fill="#ffffff" stroke="#000000" points="1295.5,-118 1295.5,-148 1396.5,-148 1396.5,-118 1295.5,-118"/>
<text text-anchor="start" x="1303.5" y="-136" font-family="Helvetica,sans-Serif" font-size="10.00" fill="#000000">src/pybind/invokers</text>
<text text-anchor="middle" x="1346" y="-125" font-family="Helvetica,sans-Serif" font-size="10.00" fill="#000000">/py_inv_omp.h</text>
</a>
</g>
</g>
<!-- Node22&#45;&gt;Node24 -->
<g id="edge4" class="edge">
<title>Node22&#45;&gt;Node24</title>
<path fill="none" stroke="#191970" d="M1368.6056,-191.7745C1363.4501,-178.3703 1356.6648,-160.7285 1351.8778,-148.2824"/>
<polygon fill="#191970" stroke="#191970" points="1365.4648,-193.3587 1372.3214,-201.4357 1371.9983,-190.8458 1365.4648,-193.3587"/>
</g>
<!-- Node25 -->
<g id="node6" class="node">
<title>Node25</title>
<g id="a_node6"><a xlink:href="pybind_8h.html" target="_top" xlink:title="This file includes all the header files containing definitions of functions to bind C++ and Python...">
<polygon fill="#ffffff" stroke="#000000" points="605,-56.5 605,-75.5 675,-75.5 675,-56.5 605,-56.5"/>
<text text-anchor="middle" x="640" y="-63.5" font-family="Helvetica,sans-Serif" font-size="10.00" fill="#000000">src/pybind.h</text>
</a>
</g>
</g>
<!-- Node24&#45;&gt;Node25 -->
<g id="edge5" class="edge">
<title>Node24&#45;&gt;Node25</title>
<path fill="none" stroke="#191970" d="M1294.5506,-115.1369C1290.0034,-113.9366 1285.4418,-112.8638 1281,-112 1163.4036,-89.1319 792.0322,-72.2603 675.4052,-67.4169"/>
<polygon fill="#191970" stroke="#191970" points="1293.8544,-118.5774 1304.4299,-117.9367 1295.7631,-111.8426 1293.8544,-118.5774"/>
</g>
<!-- Node26 -->
<g id="node7" class="node">
<title>Node26</title>
<g id="a_node7"><a xlink:href="ppap4lmp_8cpp.html" target="_top" xlink:title="This file has no implementation, only includes a header file to bind C++ and Python. ">
<polygon fill="#ffffff" stroke="#000000" points="593,-.5 593,-19.5 687,-19.5 687,-.5 593,-.5"/>
<text text-anchor="middle" x="640" y="-7.5" font-family="Helvetica,sans-Serif" font-size="10.00" fill="#000000">src/ppap4lmp.cpp</text>
</a>
</g>
</g>
<!-- Node25&#45;&gt;Node26 -->
<g id="edge6" class="edge">
<title>Node25&#45;&gt;Node26</title>
<path fill="none" stroke="#191970" d="M640,-46.1575C640,-37.155 640,-26.9199 640,-19.6427"/>
<polygon fill="#191970" stroke="#191970" points="636.5001,-46.2455 640,-56.2455 643.5001,-46.2456 636.5001,-46.2455"/>
</g>
<!-- Node28&#45;&gt;Node24 -->
<g id="edge10" class="edge">
<title>Node28&#45;&gt;Node24</title>
<path fill="none" stroke="#191970" d="M1159.1728,-192.6314C1161.8171,-191.7343 1164.4377,-190.8527 1167,-190 1217.4143,-173.2218 1230.3865,-170.1674 1281,-154 1286.9873,-152.0875 1293.2814,-150.0668 1299.4988,-148.0646"/>
<polygon fill="#191970" stroke="#191970" points="1157.8824,-189.3737 1149.5552,-195.9241 1160.1497,-195.9963 1157.8824,-189.3737"/>
</g>
<!-- Node28&#45;&gt;Node25 -->
<g id="edge9" class="edge">
<title>Node28&#45;&gt;Node25</title>
<path fill="none" stroke="#191970" d="M1157.1497,-192.24C1196.5375,-177.2681 1245.2101,-158.1371 1248,-154 1258.4367,-138.5236 1260.6917,-125.6882 1248,-112 1228.4097,-90.8716 802.26,-72.4054 675.3519,-67.3589"/>
<polygon fill="#191970" stroke="#191970" points="1155.4809,-189.1294 1147.3695,-195.9452 1157.9609,-195.6754 1155.4809,-189.1294"/>
</g>
<!-- Node29&#45;&gt;Node25 -->
<g id="edge12" class="edge">
<title>Node29&#45;&gt;Node25</title>
<path fill="none" stroke="#191970" d="M510.131,-188.3014C491.7107,-167.2077 471.5283,-135.587 489,-112 502.8244,-93.3369 564.539,-79.222 604.6662,-71.8141"/>
<polygon fill="#191970" stroke="#191970" points="507.6891,-190.8174 517.0223,-195.8316 512.8531,-186.0916 507.6891,-190.8174"/>
</g>
<!-- Node30 -->
<g id="node11" class="node">
<title>Node30</title>
<g id="a_node11"><a xlink:href="py__pro__data_8h.html" target="_top" xlink:title="This file is for binding AddRename class to Python. ">
<polygon fill="#ffffff" stroke="#000000" points="807.5,-118 807.5,-148 920.5,-148 920.5,-118 807.5,-118"/>
<text text-anchor="start" x="815.5" y="-136" font-family="Helvetica,sans-Serif" font-size="10.00" fill="#000000">src/pybind/processors</text>
<text text-anchor="middle" x="864" y="-125" font-family="Helvetica,sans-Serif" font-size="10.00" fill="#000000">/py_pro_data.h</text>
</a>
</g>
</g>
<!-- Node29&#45;&gt;Node30 -->
<g id="edge13" class="edge">
<title>Node29&#45;&gt;Node30</title>
<path fill="none" stroke="#191970" d="M599.6759,-197.5179C665.7021,-184.0218 762.1166,-163.8826 799,-154 805.6439,-152.2198 812.6138,-150.1683 819.4209,-148.0599"/>
<polygon fill="#191970" stroke="#191970" points="598.8582,-194.1126 589.76,-199.5416 600.258,-200.9712 598.8582,-194.1126"/>
</g>
<!-- Node31 -->
<g id="node12" class="node">
<title>Node31</title>
<g id="a_node12"><a xlink:href="py__pro__thickness__profile_8h_source.html" target="_top" xlink:title="src/pybind/processors\l/py_pro_thickness_profile.h">
<polygon fill="#ffffff" stroke="#000000" points="0,-118 0,-148 136,-148 136,-118 0,-118"/>
<text text-anchor="start" x="8" y="-136" font-family="Helvetica,sans-Serif" font-size="10.00" fill="#000000">src/pybind/processors</text>
<text text-anchor="middle" x="68" y="-125" font-family="Helvetica,sans-Serif" font-size="10.00" fill="#000000">/py_pro_thickness_profile.h</text>
</a>
</g>
</g>
<!-- Node29&#45;&gt;Node31 -->
<g id="edge15" class="edge">
<title>Node29&#45;&gt;Node31</title>
<path fill="none" stroke="#191970" d="M466.278,-203.6751C388.6305,-194.5797 256.7748,-177.3637 145,-154 136.8621,-152.299 128.3091,-150.2417 119.9826,-148.0887"/>
<polygon fill="#191970" stroke="#191970" points="466.065,-207.1738 476.4021,-204.8509 466.8727,-200.2205 466.065,-207.1738"/>
</g>
<!-- Node32 -->
<g id="node13" class="node">
<title>Node32</title>
<g id="a_node13"><a xlink:href="py__pro__value__array_8h_source.html" target="_top" xlink:title="src/pybind/processors\l/py_pro_value_array.h">
<polygon fill="#ffffff" stroke="#000000" points="154.5,-118 154.5,-148 267.5,-148 267.5,-118 154.5,-118"/>
<text text-anchor="start" x="162.5" y="-136" font-family="Helvetica,sans-Serif" font-size="10.00" fill="#000000">src/pybind/processors</text>
<text text-anchor="middle" x="211" y="-125" font-family="Helvetica,sans-Serif" font-size="10.00" fill="#000000">/py_pro_value_array.h</text>
</a>
</g>
</g>
<!-- Node29&#45;&gt;Node32 -->
<g id="edge17" class="edge">
<title>Node29&#45;&gt;Node32</title>
<path fill="none" stroke="#191970" d="M466.3854,-197.8629C414.4851,-187.2199 340.7769,-171.2099 277,-154 270.3828,-152.2144 263.4403,-150.1828 256.6455,-148.1034"/>
<polygon fill="#191970" stroke="#191970" points="465.9676,-201.3497 476.4653,-199.9187 467.3665,-194.4908 465.9676,-201.3497"/>
</g>
<!-- Node33 -->
<g id="node14" class="node">
<title>Node33</title>
<g id="a_node14"><a xlink:href="py__pro__distance__in__molecule_8h_source.html" target="_top" xlink:title="src/pybind/processors\l/py_pro_distance_in_molecule.h">
<polygon fill="#ffffff" stroke="#000000" points="286,-118 286,-148 442,-148 442,-118 286,-118"/>
<text text-anchor="start" x="294" y="-136" font-family="Helvetica,sans-Serif" font-size="10.00" fill="#000000">src/pybind/processors</text>
<text text-anchor="middle" x="364" y="-125" font-family="Helvetica,sans-Serif" font-size="10.00" fill="#000000">/py_pro_distance_in_molecule.h</text>
</a>
</g>
</g>
<!-- Node29&#45;&gt;Node33 -->
<g id="edge19" class="edge">
<title>Node29&#45;&gt;Node33</title>
<path fill="none" stroke="#191970" d="M491.2988,-191.7533C462.1401,-178.2954 423.743,-160.5737 396.7727,-148.1259"/>
<polygon fill="#191970" stroke="#191970" points="489.8688,-194.948 500.4151,-195.9608 492.8022,-188.5923 489.8688,-194.948"/>
</g>
<!-- Node34 -->
<g id="node15" class="node">
<title>Node34</title>
<g id="a_node15"><a xlink:href="py__pro__mean__square__displacement_8h_source.html" target="_top" xlink:title="src/pybind/processors\l/py_pro_mean_square_displacement.h">
<polygon fill="#ffffff" stroke="#000000" points="939,-118 939,-148 1123,-148 1123,-118 939,-118"/>
<text text-anchor="start" x="947" y="-136" font-family="Helvetica,sans-Serif" font-size="10.00" fill="#000000">src/pybind/processors</text>
<text text-anchor="middle" x="1031" y="-125" font-family="Helvetica,sans-Serif" font-size="10.00" fill="#000000">/py_pro_mean_square_displacement.h</text>
</a>
</g>
</g>
<!-- Node29&#45;&gt;Node34 -->
<g id="edge21" class="edge">
<title>Node29&#45;&gt;Node34</title>
<path fill="none" stroke="#191970" d="M599.5982,-196.9017C612.3167,-194.4303 625.546,-192.0102 638,-190 767.0895,-169.1633 800.9906,-175.3273 930,-154 940.5136,-152.2619 951.596,-150.1974 962.4149,-148.052"/>
<polygon fill="#191970" stroke="#191970" points="598.6655,-193.5181 589.5322,-198.8878 600.0206,-200.3857 598.6655,-193.5181"/>
</g>
<!-- Node35 -->
<g id="node16" class="node">
<title>Node35</title>
<g id="a_node16"><a xlink:href="py__pro__radial__distribution__function_8h_source.html" target="_top" xlink:title="src/pybind/processors\l/py_pro_radial_distribution\l_function.h">
<polygon fill="#ffffff" stroke="#000000" points="498,-112.5 498,-153.5 628,-153.5 628,-112.5 498,-112.5"/>
<text text-anchor="start" x="506" y="-141.5" font-family="Helvetica,sans-Serif" font-size="10.00" fill="#000000">src/pybind/processors</text>
<text text-anchor="start" x="506" y="-130.5" font-family="Helvetica,sans-Serif" font-size="10.00" fill="#000000">/py_pro_radial_distribution</text>
<text text-anchor="middle" x="563" y="-119.5" font-family="Helvetica,sans-Serif" font-size="10.00" fill="#000000">_function.h</text>
</a>
</g>
</g>
<!-- Node29&#45;&gt;Node35 -->
<g id="edge23" class="edge">
<title>Node29&#45;&gt;Node35</title>
<path fill="none" stroke="#191970" d="M542.4385,-186.46C546.502,-175.8947 551.2,-163.6801 555.0786,-153.5956"/>
<polygon fill="#191970" stroke="#191970" points="539.1074,-185.3709 538.7843,-195.9608 545.6409,-187.8838 539.1074,-185.3709"/>
</g>
<!-- Node36 -->
<g id="node17" class="node">
<title>Node36</title>
<g id="a_node17"><a xlink:href="py__pro__radial__distribution__function__with__deformation_8h_source.html" target="_top" xlink:title="src/pybind/processors\l/py_pro_radial_distribution\l_function_with_deformation.h">
<polygon fill="#ffffff" stroke="#000000" points="646.5,-112.5 646.5,-153.5 789.5,-153.5 789.5,-112.5 646.5,-112.5"/>
<text text-anchor="start" x="654.5" y="-141.5" font-family="Helvetica,sans-Serif" font-size="10.00" fill="#000000">src/pybind/processors</text>
<text text-anchor="start" x="654.5" y="-130.5" font-family="Helvetica,sans-Serif" font-size="10.00" fill="#000000">/py_pro_radial_distribution</text>
<text text-anchor="middle" x="718" y="-119.5" font-family="Helvetica,sans-Serif" font-size="10.00" fill="#000000">_function_with_deformation.h</text>
</a>
</g>
</g>
<!-- Node29&#45;&gt;Node36 -->
<g id="edge25" class="edge">
<title>Node29&#45;&gt;Node36</title>
<path fill="none" stroke="#191970" d="M578.0759,-191.995C605.6448,-180.3714 640.918,-165.4994 669.1514,-153.5956"/>
<polygon fill="#191970" stroke="#191970" points="576.5246,-188.8507 568.6699,-195.9608 579.2441,-195.3008 576.5246,-188.8507"/>
</g>
<!-- Node30&#45;&gt;Node25 -->
<g id="edge14" class="edge">
<title>Node30&#45;&gt;Node25</title>
<path fill="none" stroke="#191970" d="M808.0697,-114.8085C805.0045,-113.8496 801.966,-112.9079 799,-112 756.1349,-98.8785 706.4689,-84.6673 674.2081,-75.5669"/>
<polygon fill="#191970" stroke="#191970" points="807.3042,-118.2371 817.894,-117.9102 809.4117,-111.5619 807.3042,-118.2371"/>
</g>
<!-- Node31&#45;&gt;Node25 -->
<g id="edge16" class="edge">
<title>Node31&#45;&gt;Node25</title>
<path fill="none" stroke="#191970" d="M128.3005,-115.4908C133.9173,-114.1822 139.5465,-112.9893 145,-112 315.6927,-81.0348 523.4973,-70.337 604.9096,-67.1696"/>
<polygon fill="#191970" stroke="#191970" points="127.1253,-112.1751 118.2443,-117.9524 128.7897,-118.9743 127.1253,-112.1751"/>
</g>
<!-- Node32&#45;&gt;Node25 -->
<g id="edge18" class="edge">
<title>Node32&#45;&gt;Node25</title>
<path fill="none" stroke="#191970" d="M264.2895,-115.1393C268.565,-113.9836 272.8388,-112.9176 277,-112 395.6406,-85.8367 539.6109,-73.0918 604.8497,-68.3184"/>
<polygon fill="#191970" stroke="#191970" points="263.0185,-111.8622 254.3622,-117.9711 264.9387,-118.5937 263.0185,-111.8622"/>
</g>
<!-- Node33&#45;&gt;Node25 -->
<g id="edge20" class="edge">
<title>Node33&#45;&gt;Node25</title>
<path fill="none" stroke="#191970" d="M435.8653,-115.5544C490.1989,-102.3648 562.4459,-84.8265 604.8178,-74.5406"/>
<polygon fill="#191970" stroke="#191970" points="434.8319,-112.2036 425.9398,-117.9639 436.4832,-119.006 434.8319,-112.2036"/>
</g>
<!-- Node34&#45;&gt;Node25 -->
<g id="edge22" class="edge">
<title>Node34&#45;&gt;Node25</title>
<path fill="none" stroke="#191970" d="M950.7418,-115.9503C943.735,-114.5717 936.7466,-113.2357 930,-112 838.4899,-95.2387 730.0714,-78.9976 675.3588,-71.0532"/>
<polygon fill="#191970" stroke="#191970" points="950.5036,-119.4716 960.9948,-117.9938 951.8719,-112.6066 950.5036,-119.4716"/>
</g>
<!-- Node35&#45;&gt;Node25 -->
<g id="edge24" class="edge">
<title>Node35&#45;&gt;Node25</title>
<path fill="none" stroke="#191970" d="M594.6989,-105.4178C606.786,-94.9005 619.7967,-83.5795 628.7598,-75.7805"/>
<polygon fill="#191970" stroke="#191970" points="592.1877,-102.9634 586.9412,-112.168 596.7827,-108.2442 592.1877,-102.9634"/>
</g>
<!-- Node36&#45;&gt;Node25 -->
<g id="edge26" class="edge">
<title>Node36&#45;&gt;Node25</title>
<path fill="none" stroke="#191970" d="M685.8894,-105.4178C673.6454,-94.9005 660.4657,-83.5795 651.3862,-75.7805"/>
<polygon fill="#191970" stroke="#191970" points="683.8816,-108.3071 693.7479,-112.168 688.4427,-102.9971 683.8816,-108.3071"/>
</g>
<!-- Node37&#45;&gt;Node30 -->
<g id="edge28" class="edge">
<title>Node37&#45;&gt;Node30</title>
<path fill="none" stroke="#191970" d="M864,-185.7875C864,-173.4187 864,-158.9264 864,-148.2592"/>
<polygon fill="#191970" stroke="#191970" points="860.5001,-185.9608 864,-195.9608 867.5001,-185.9608 860.5001,-185.9608"/>
</g>
<!-- Node38 -->
<g id="node19" class="node">
<title>Node38</title>
<g id="a_node19"><a xlink:href="pro__data_8cpp.html" target="_top" xlink:title="This file has an implementation of ProData class, which is a subclass of Processor class...">
<polygon fill="#ffffff" stroke="#000000" points="1141,-118 1141,-148 1239,-148 1239,-118 1141,-118"/>
<text text-anchor="start" x="1149" y="-136" font-family="Helvetica,sans-Serif" font-size="10.00" fill="#000000">src/processors/pro</text>
<text text-anchor="middle" x="1190" y="-125" font-family="Helvetica,sans-Serif" font-size="10.00" fill="#000000">_data.cpp</text>
</a>
</g>
</g>
<!-- Node37&#45;&gt;Node38 -->
<g id="edge29" class="edge">
<title>Node37&#45;&gt;Node38</title>
<path fill="none" stroke="#191970" d="M923.2738,-200.8215C977.965,-190.8587 1061.1727,-174.2498 1132,-154 1138.075,-152.2631 1144.4305,-150.2114 1150.6146,-148.0823"/>
<polygon fill="#191970" stroke="#191970" points="922.6219,-197.3825 913.403,-202.6038 923.8658,-204.2711 922.6219,-197.3825"/>
</g>
<!-- Node39&#45;&gt;Node33 -->
<g id="edge31" class="edge">
<title>Node39&#45;&gt;Node33</title>
<path fill="none" stroke="#191970" d="M440.9281,-264.8768C421.9178,-232.2876 388.596,-175.1646 372.7933,-148.0742"/>
<polygon fill="#191970" stroke="#191970" points="438.0469,-266.8838 446.1088,-273.758 444.0933,-263.3567 438.0469,-266.8838"/>
</g>
<!-- Node40&#45;&gt;Node34 -->
<g id="edge33" class="edge">
<title>Node40&#45;&gt;Node34</title>
<path fill="none" stroke="#191970" d="M940.2592,-265.2951C962.5622,-232.7785 1001.9997,-175.2808 1020.6607,-148.0742"/>
<polygon fill="#191970" stroke="#191970" points="937.2245,-263.5317 934.4544,-273.758 942.9971,-267.4911 937.2245,-263.5317"/>
</g>
<!-- Node41&#45;&gt;Node35 -->
<g id="edge35" class="edge">
<title>Node41&#45;&gt;Node35</title>
<path fill="none" stroke="#191970" d="M625.1871,-258.5737C618.9393,-238.6191 609.7712,-212.209 599,-190 592.9221,-177.468 584.7159,-164.2703 577.6733,-153.7337"/>
<polygon fill="#191970" stroke="#191970" points="621.9095,-259.8246 628.181,-268.3639 628.6035,-257.7775 621.9095,-259.8246"/>
</g>
<!-- Node42 -->
<g id="node23" class="node">
<title>Node42</title>
<g id="a_node23"><a xlink:href="pro__radial__distribution__function__with__deformation_8h_source.html" target="_top" xlink:title="src/processors/pro\l_radial_distribution\l_function_with_deformation.h">
<polygon fill="#ffffff" stroke="#000000" points="646.5,-190.5 646.5,-231.5 789.5,-231.5 789.5,-190.5 646.5,-190.5"/>
<text text-anchor="start" x="654.5" y="-219.5" font-family="Helvetica,sans-Serif" font-size="10.00" fill="#000000">src/processors/pro</text>
<text text-anchor="start" x="654.5" y="-208.5" font-family="Helvetica,sans-Serif" font-size="10.00" fill="#000000">_radial_distribution</text>
<text text-anchor="middle" x="718" y="-197.5" font-family="Helvetica,sans-Serif" font-size="10.00" fill="#000000">_function_with_deformation.h</text>
</a>
</g>
</g>
<!-- Node41&#45;&gt;Node42 -->
<g id="edge36" class="edge">
<title>Node41&#45;&gt;Node42</title>
<path fill="none" stroke="#191970" d="M663.9072,-261.229C674.3897,-251.4953 685.9708,-240.7414 695.7187,-231.6898"/>
<polygon fill="#191970" stroke="#191970" points="661.4568,-258.7281 656.5105,-268.0974 666.22,-263.8577 661.4568,-258.7281"/>
</g>
<!-- Node42&#45;&gt;Node36 -->
<g id="edge37" class="edge">
<title>Node42&#45;&gt;Node36</title>
<path fill="none" stroke="#191970" d="M718,-180.0789C718,-171.2178 718,-161.7747 718,-153.6898"/>
<polygon fill="#191970" stroke="#191970" points="714.5001,-180.0974 718,-190.0974 721.5001,-180.0975 714.5001,-180.0974"/>
</g>
<!-- Node43&#45;&gt;Node31 -->
<g id="edge39" class="edge">
<title>Node43&#45;&gt;Node31</title>
<path fill="none" stroke="#191970" d="M142.3921,-264.8768C124.0084,-232.2876 91.7851,-175.1646 76.5034,-148.0742"/>
<polygon fill="#191970" stroke="#191970" points="139.4403,-266.7679 147.402,-273.758 145.5371,-263.3286 139.4403,-266.7679"/>
</g>
<!-- Node44&#45;&gt;Node32 -->
<g id="edge41" class="edge">
<title>Node44&#45;&gt;Node32</title>
<path fill="none" stroke="#191970" d="M293.8457,-264.8768C273.373,-232.2876 237.488,-175.1646 220.4697,-148.0742"/>
<polygon fill="#191970" stroke="#191970" points="291.1417,-267.1521 299.4249,-273.758 297.0691,-263.4284 291.1417,-267.1521"/>
</g>
</g>
</svg>
