<?xml version="1.0" encoding="UTF-8" standalone="no"?>
<!DOCTYPE svg PUBLIC "-//W3C//DTD SVG 1.1//EN"
 "http://www.w3.org/Graphics/SVG/1.1/DTD/svg11.dtd">
<!-- Generated by graphviz version 2.40.1 (20161225.0304)
 -->
<!-- Title: src/processors/pro_radial_distribution_function.h Pages: 1 -->
<svg width="106pt" height="128pt"
 viewBox="0.00 0.00 106.00 128.00" xmlns="http://www.w3.org/2000/svg" xmlns:xlink="http://www.w3.org/1999/xlink">
<g id="graph0" class="graph" transform="scale(1 1) rotate(0) translate(4 124)">
<title>src/processors/pro_radial_distribution_function.h</title>
<polygon fill="#ffffff" stroke="transparent" points="-4,4 -4,-124 102,-124 102,4 -4,4"/>
<!-- Node2 -->
<g id="node1" class="node">
<title>Node2</title>
<polygon fill="#bfbfbf" stroke="#000000" points="0,-78.5 0,-119.5 98,-119.5 98,-78.5 0,-78.5"/>
<text text-anchor="start" x="8" y="-107.5" font-family="Helvetica,sans-Serif" font-size="10.00" fill="#000000">src/processors/pro</text>
<text text-anchor="start" x="8" y="-96.5" font-family="Helvetica,sans-Serif" font-size="10.00" fill="#000000">_radial_distribution</text>
<text text-anchor="middle" x="49" y="-85.5" font-family="Helvetica,sans-Serif" font-size="10.00" fill="#000000">_function.h</text>
</g>
<!-- Node3 -->
<g id="node2" class="node">
<title>Node3</title>
<g id="a_node2"><a xlink:href="pro__radial__distribution__function_8cpp.html" target="_top" xlink:title="src/processors/pro\l_radial_distribution\l_function.cpp">
<polygon fill="#ffffff" stroke="#000000" points="0,-.5 0,-41.5 98,-41.5 98,-.5 0,-.5"/>
<text text-anchor="start" x="8" y="-29.5" font-family="Helvetica,sans-Serif" font-size="10.00" fill="#000000">src/processors/pro</text>
<text text-anchor="start" x="8" y="-18.5" font-family="Helvetica,sans-Serif" font-size="10.00" fill="#000000">_radial_distribution</text>
<text text-anchor="middle" x="49" y="-7.5" font-family="Helvetica,sans-Serif" font-size="10.00" fill="#000000">_function.cpp</text>
</a>
</g>
</g>
<!-- Node2&#45;&gt;Node3 -->
<g id="edge1" class="edge">
<title>Node2&#45;&gt;Node3</title>
<path fill="none" stroke="#191970" d="M49,-68.0789C49,-59.2178 49,-49.7747 49,-41.6898"/>
<polygon fill="#191970" stroke="#191970" points="45.5001,-68.0974 49,-78.0974 52.5001,-68.0975 45.5001,-68.0974"/>
</g>
</g>
</svg>
