<?xml version="1.0" encoding="UTF-8" standalone="no"?>
<!DOCTYPE svg PUBLIC "-//W3C//DTD SVG 1.1//EN"
 "http://www.w3.org/Graphics/SVG/1.1/DTD/svg11.dtd">
<!-- Generated by graphviz version 2.40.1 (20161225.0304)
 -->
<!-- Title: src/pybind/py_element.cpp Pages: 1 -->
<svg width="496pt" height="420pt"
 viewBox="0.00 0.00 496.00 420.00" xmlns="http://www.w3.org/2000/svg" xmlns:xlink="http://www.w3.org/1999/xlink">
<g id="graph0" class="graph" transform="scale(1 1) rotate(0) translate(4 416)">
<title>src/pybind/py_element.cpp</title>
<polygon fill="#ffffff" stroke="transparent" points="-4,4 -4,-416 492,-416 492,4 -4,4"/>
<!-- Node0 -->
<g id="node1" class="node">
<title>Node0</title>
<polygon fill="#bfbfbf" stroke="#000000" points="107,-392.5 107,-411.5 241,-411.5 241,-392.5 107,-392.5"/>
<text text-anchor="middle" x="174" y="-399.5" font-family="Helvetica,sans-Serif" font-size="10.00" fill="#000000">src/pybind/py_element.cpp</text>
</g>
<!-- Node1 -->
<g id="node2" class="node">
<title>Node1</title>
<g id="a_node2"><a xlink:href="py__element_8h.html" target="_top" xlink:title="This file is for binding Element class to Python. ">
<polygon fill="#ffffff" stroke="#000000" points="37.5,-224.5 37.5,-243.5 112.5,-243.5 112.5,-224.5 37.5,-224.5"/>
<text text-anchor="middle" x="75" y="-231.5" font-family="Helvetica,sans-Serif" font-size="10.00" fill="#000000">py_element.h</text>
</a>
</g>
</g>
<!-- Node0&#45;&gt;Node1 -->
<g id="edge1" class="edge">
<title>Node0&#45;&gt;Node1</title>
<path fill="none" stroke="#191970" d="M168.3937,-392.4862C152.5408,-365.5845 107.1746,-288.5994 86.0593,-252.7673"/>
<polygon fill="#191970" stroke="#191970" points="88.8838,-250.6663 80.7914,-243.8279 82.853,-254.2202 88.8838,-250.6663"/>
</g>
<!-- Node17 -->
<g id="node18" class="node">
<title>Node17</title>
<g id="a_node18"><a xlink:href="updater_8h.html" target="_top" xlink:title="This file has a definition of Updater class, which is one of the cores of this program. ">
<polygon fill="#ffffff" stroke="#000000" points="228,-336.5 228,-355.5 316,-355.5 316,-336.5 228,-336.5"/>
<text text-anchor="middle" x="272" y="-343.5" font-family="Helvetica,sans-Serif" font-size="10.00" fill="#000000">../core/updater.h</text>
</a>
</g>
</g>
<!-- Node0&#45;&gt;Node17 -->
<g id="edge18" class="edge">
<title>Node0&#45;&gt;Node17</title>
<path fill="none" stroke="#191970" d="M191.0703,-392.2455C206.247,-383.5731 228.6621,-370.7645 246.0563,-360.825"/>
<polygon fill="#191970" stroke="#191970" points="248.1794,-363.643 255.1253,-355.6427 244.7064,-357.5653 248.1794,-363.643"/>
</g>
<!-- Node2 -->
<g id="node3" class="node">
<title>Node2</title>
<g id="a_node3"><a xlink:href="alias_2pybind_8h.html" target="_top" xlink:title="This file includes pybind11 and defines an alias for the namespace pybind11. ">
<polygon fill="#ffffff" stroke="#000000" points="36.5,-112.5 36.5,-131.5 113.5,-131.5 113.5,-112.5 36.5,-112.5"/>
<text text-anchor="middle" x="75" y="-119.5" font-family="Helvetica,sans-Serif" font-size="10.00" fill="#000000">alias/pybind.h</text>
</a>
</g>
</g>
<!-- Node1&#45;&gt;Node2 -->
<g id="edge2" class="edge">
<title>Node1&#45;&gt;Node2</title>
<path fill="none" stroke="#191970" d="M75,-224.4509C75,-206.184 75,-165.9553 75,-141.6976"/>
<polygon fill="#191970" stroke="#191970" points="78.5001,-141.5249 75,-131.5249 71.5001,-141.5249 78.5001,-141.5249"/>
</g>
<!-- Node4 -->
<g id="node5" class="node">
<title>Node4</title>
<g id="a_node5"><a xlink:href="element_8h.html" target="_top" xlink:title="This file has a definition of Element class, which is one of the cores of this program. ">
<polygon fill="#ffffff" stroke="#000000" points="197.5,-168.5 197.5,-187.5 278.5,-187.5 278.5,-168.5 197.5,-168.5"/>
<text text-anchor="middle" x="238" y="-175.5" font-family="Helvetica,sans-Serif" font-size="10.00" fill="#000000">core/element.h</text>
</a>
</g>
</g>
<!-- Node1&#45;&gt;Node4 -->
<g id="edge4" class="edge">
<title>Node1&#45;&gt;Node4</title>
<path fill="none" stroke="#191970" d="M103.0207,-224.3733C130.0078,-215.1016 171.0017,-201.0178 200.7311,-190.804"/>
<polygon fill="#191970" stroke="#191970" points="202.0248,-194.0605 210.3449,-187.5011 199.7503,-187.4403 202.0248,-194.0605"/>
</g>
<!-- Node3 -->
<g id="node4" class="node">
<title>Node3</title>
<polygon fill="#ffffff" stroke="#bfbfbf" points="0,-56.5 0,-75.5 106,-75.5 106,-56.5 0,-56.5"/>
<text text-anchor="middle" x="53" y="-63.5" font-family="Helvetica,sans-Serif" font-size="10.00" fill="#000000">pybind11/pybind11.h</text>
</g>
<!-- Node2&#45;&gt;Node3 -->
<g id="edge3" class="edge">
<title>Node2&#45;&gt;Node3</title>
<path fill="none" stroke="#191970" d="M71.1679,-112.2455C68.2341,-104.7776 64.0953,-94.2427 60.509,-85.1137"/>
<polygon fill="#191970" stroke="#191970" points="63.7024,-83.6704 56.7882,-75.6427 57.1871,-86.23 63.7024,-83.6704"/>
</g>
<!-- Node4&#45;&gt;Node2 -->
<g id="edge8" class="edge">
<title>Node4&#45;&gt;Node2</title>
<path fill="none" stroke="#191970" d="M209.9793,-168.3733C182.9922,-159.1016 141.9983,-145.0178 112.2689,-134.804"/>
<polygon fill="#191970" stroke="#191970" points="113.2497,-131.4403 102.6551,-131.5011 110.9752,-138.0605 113.2497,-131.4403"/>
</g>
<!-- Node5 -->
<g id="node6" class="node">
<title>Node5</title>
<polygon fill="#ffffff" stroke="#bfbfbf" points="356,-112.5 356,-131.5 400,-131.5 400,-112.5 356,-112.5"/>
<text text-anchor="middle" x="378" y="-119.5" font-family="Helvetica,sans-Serif" font-size="10.00" fill="#000000">omp.h</text>
</g>
<!-- Node4&#45;&gt;Node5 -->
<g id="edge5" class="edge">
<title>Node4&#45;&gt;Node5</title>
<path fill="none" stroke="#191970" d="M262.0669,-168.3733C285.2569,-159.0972 320.4888,-145.0045 346.0263,-134.7895"/>
<polygon fill="#191970" stroke="#191970" points="347.6478,-137.9106 355.6327,-130.9469 345.048,-131.4112 347.6478,-137.9106"/>
</g>
<!-- Node6 -->
<g id="node7" class="node">
<title>Node6</title>
<g id="a_node7"><a xlink:href="eigen_8h.html" target="_top" xlink:title="This file includes Eigen and defines some aliases for the Eigen&#45;Vector, Matrix and Array...">
<polygon fill="#ffffff" stroke="#000000" points="266.5,-112.5 266.5,-131.5 337.5,-131.5 337.5,-112.5 266.5,-112.5"/>
<text text-anchor="middle" x="302" y="-119.5" font-family="Helvetica,sans-Serif" font-size="10.00" fill="#000000">alias/eigen.h</text>
</a>
</g>
</g>
<!-- Node4&#45;&gt;Node6 -->
<g id="edge6" class="edge">
<title>Node4&#45;&gt;Node6</title>
<path fill="none" stroke="#191970" d="M249.1479,-168.2455C258.5087,-160.0549 272.0858,-148.1749 283.1349,-138.5069"/>
<polygon fill="#191970" stroke="#191970" points="285.7588,-140.8618 290.9798,-131.6427 281.1492,-135.5937 285.7588,-140.8618"/>
</g>
<!-- Node8 -->
<g id="node9" class="node">
<title>Node8</title>
<g id="a_node9"><a xlink:href="generator_8h.html" target="_top" xlink:title="This file has a definition of Generator class, which is one of the cores of this program. ">
<polygon fill="#ffffff" stroke="#000000" points="161.5,-112.5 161.5,-131.5 248.5,-131.5 248.5,-112.5 161.5,-112.5"/>
<text text-anchor="middle" x="205" y="-119.5" font-family="Helvetica,sans-Serif" font-size="10.00" fill="#000000">core/generator.h</text>
</a>
</g>
</g>
<!-- Node4&#45;&gt;Node8 -->
<g id="edge9" class="edge">
<title>Node4&#45;&gt;Node8</title>
<path fill="none" stroke="#191970" d="M232.2518,-168.2455C227.7565,-160.617 221.3752,-149.7881 215.9175,-140.5267"/>
<polygon fill="#191970" stroke="#191970" points="218.7747,-138.4811 210.6823,-131.6427 212.7439,-142.035 218.7747,-138.4811"/>
</g>
<!-- Node7 -->
<g id="node8" class="node">
<title>Node7</title>
<polygon fill="#ffffff" stroke="#bfbfbf" points="288,-56.5 288,-75.5 360,-75.5 360,-56.5 288,-56.5"/>
<text text-anchor="middle" x="324" y="-63.5" font-family="Helvetica,sans-Serif" font-size="10.00" fill="#000000">Eigen/Dense</text>
</g>
<!-- Node6&#45;&gt;Node7 -->
<g id="edge7" class="edge">
<title>Node6&#45;&gt;Node7</title>
<path fill="none" stroke="#191970" d="M305.8321,-112.2455C308.7659,-104.7776 312.9047,-94.2427 316.491,-85.1137"/>
<polygon fill="#191970" stroke="#191970" points="319.8129,-86.23 320.2118,-75.6427 313.2976,-83.6704 319.8129,-86.23"/>
</g>
<!-- Node9 -->
<g id="node10" class="node">
<title>Node9</title>
<g id="a_node10"><a xlink:href="std_8h.html" target="_top" xlink:title="This file includes a part of C++ Standard Template Library and defines aliases for them...">
<polygon fill="#ffffff" stroke="#000000" points="208,-56.5 208,-75.5 270,-75.5 270,-56.5 208,-56.5"/>
<text text-anchor="middle" x="239" y="-63.5" font-family="Helvetica,sans-Serif" font-size="10.00" fill="#000000">alias/std.h</text>
</a>
</g>
</g>
<!-- Node8&#45;&gt;Node9 -->
<g id="edge10" class="edge">
<title>Node8&#45;&gt;Node9</title>
<path fill="none" stroke="#191970" d="M210.9223,-112.2455C215.6027,-104.5367 222.2673,-93.5598 227.9289,-84.2348"/>
<polygon fill="#191970" stroke="#191970" points="230.9475,-86.007 233.1455,-75.6427 224.9639,-82.3741 230.9475,-86.007"/>
</g>
<!-- Node15 -->
<g id="node16" class="node">
<title>Node15</title>
<g id="a_node16"><a xlink:href="json_8h.html" target="_top" xlink:title="This file includes nlohmann/json and defines an alias for a JSON class. ">
<polygon fill="#ffffff" stroke="#000000" points="124,-56.5 124,-75.5 190,-75.5 190,-56.5 124,-56.5"/>
<text text-anchor="middle" x="157" y="-63.5" font-family="Helvetica,sans-Serif" font-size="10.00" fill="#000000">alias/json.h</text>
</a>
</g>
</g>
<!-- Node8&#45;&gt;Node15 -->
<g id="edge16" class="edge">
<title>Node8&#45;&gt;Node15</title>
<path fill="none" stroke="#191970" d="M196.639,-112.2455C189.825,-104.2958 180.0319,-92.8706 171.8848,-83.3656"/>
<polygon fill="#191970" stroke="#191970" points="174.4305,-80.9575 165.2651,-75.6427 169.1157,-85.513 174.4305,-80.9575"/>
</g>
<!-- Node10 -->
<g id="node11" class="node">
<title>Node10</title>
<polygon fill="#ffffff" stroke="#bfbfbf" points="436,-.5 436,-19.5 488,-19.5 488,-.5 436,-.5"/>
<text text-anchor="middle" x="462" y="-7.5" font-family="Helvetica,sans-Serif" font-size="10.00" fill="#000000">memory</text>
</g>
<!-- Node9&#45;&gt;Node10 -->
<g id="edge11" class="edge">
<title>Node9&#45;&gt;Node10</title>
<path fill="none" stroke="#191970" d="M270.004,-58.2283C273.0432,-57.4727 276.081,-56.7199 279,-56 341.6456,-40.5504 359.8678,-37.5656 425.6032,-20.3015"/>
<polygon fill="#191970" stroke="#191970" points="426.8821,-23.5839 435.6576,-17.6475 425.0955,-16.8157 426.8821,-23.5839"/>
</g>
<!-- Node11 -->
<g id="node12" class="node">
<title>Node11</title>
<polygon fill="#ffffff" stroke="#bfbfbf" points="116.5,-.5 116.5,-19.5 157.5,-19.5 157.5,-.5 116.5,-.5"/>
<text text-anchor="middle" x="137" y="-7.5" font-family="Helvetica,sans-Serif" font-size="10.00" fill="#000000">string</text>
</g>
<!-- Node9&#45;&gt;Node11 -->
<g id="edge12" class="edge">
<title>Node9&#45;&gt;Node11</title>
<path fill="none" stroke="#191970" d="M221.233,-56.2455C205.2905,-47.4928 181.6741,-34.527 163.5011,-24.5496"/>
<polygon fill="#191970" stroke="#191970" points="165.0137,-21.3873 154.5634,-19.6427 161.6448,-27.5233 165.0137,-21.3873"/>
</g>
<!-- Node12 -->
<g id="node13" class="node">
<title>Node12</title>
<polygon fill="#ffffff" stroke="#bfbfbf" points="176,-.5 176,-19.5 220,-19.5 220,-.5 176,-.5"/>
<text text-anchor="middle" x="198" y="-7.5" font-family="Helvetica,sans-Serif" font-size="10.00" fill="#000000">vector</text>
</g>
<!-- Node9&#45;&gt;Node12 -->
<g id="edge13" class="edge">
<title>Node9&#45;&gt;Node12</title>
<path fill="none" stroke="#191970" d="M231.8583,-56.2455C226.1556,-48.4564 218.01,-37.3308 211.1375,-27.9439"/>
<polygon fill="#191970" stroke="#191970" points="213.7913,-25.6437 205.0598,-19.6427 208.1432,-29.7789 213.7913,-25.6437"/>
</g>
<!-- Node13 -->
<g id="node14" class="node">
<title>Node13</title>
<polygon fill="#ffffff" stroke="#bfbfbf" points="238.5,-.5 238.5,-19.5 321.5,-19.5 321.5,-.5 238.5,-.5"/>
<text text-anchor="middle" x="280" y="-7.5" font-family="Helvetica,sans-Serif" font-size="10.00" fill="#000000">unordered_map</text>
</g>
<!-- Node9&#45;&gt;Node13 -->
<g id="edge14" class="edge">
<title>Node9&#45;&gt;Node13</title>
<path fill="none" stroke="#191970" d="M246.1417,-56.2455C251.8444,-48.4564 259.99,-37.3308 266.8625,-27.9439"/>
<polygon fill="#191970" stroke="#191970" points="269.8568,-29.7789 272.9402,-19.6427 264.2087,-25.6437 269.8568,-29.7789"/>
</g>
<!-- Node14 -->
<g id="node15" class="node">
<title>Node14</title>
<polygon fill="#ffffff" stroke="#bfbfbf" points="340,-.5 340,-19.5 418,-19.5 418,-.5 340,-.5"/>
<text text-anchor="middle" x="379" y="-7.5" font-family="Helvetica,sans-Serif" font-size="10.00" fill="#000000">unordered_set</text>
</g>
<!-- Node9&#45;&gt;Node14 -->
<g id="edge15" class="edge">
<title>Node9&#45;&gt;Node14</title>
<path fill="none" stroke="#191970" d="M263.0669,-56.3733C285.8428,-47.2629 320.2344,-33.5062 345.649,-23.3404"/>
<polygon fill="#191970" stroke="#191970" points="347.2623,-26.4648 355.2472,-19.5011 344.6625,-19.9654 347.2623,-26.4648"/>
</g>
<!-- Node16 -->
<g id="node17" class="node">
<title>Node16</title>
<polygon fill="#ffffff" stroke="#bfbfbf" points="0,-.5 0,-19.5 98,-19.5 98,-.5 0,-.5"/>
<text text-anchor="middle" x="49" y="-7.5" font-family="Helvetica,sans-Serif" font-size="10.00" fill="#000000">nlohmann/json.hpp</text>
</g>
<!-- Node15&#45;&gt;Node16 -->
<g id="edge17" class="edge">
<title>Node15&#45;&gt;Node16</title>
<path fill="none" stroke="#191970" d="M138.1878,-56.2455C121.1527,-47.4125 95.8425,-34.2887 76.5319,-24.2758"/>
<polygon fill="#191970" stroke="#191970" points="78.0853,-21.1388 67.5966,-19.6427 74.863,-27.353 78.0853,-21.1388"/>
</g>
<!-- Node17&#45;&gt;Node5 -->
<g id="edge19" class="edge">
<title>Node17&#45;&gt;Node5</title>
<path fill="none" stroke="#191970" d="M287.9958,-336.4262C300.3691,-328.23 317.0231,-315.3396 327,-300 360.0683,-249.157 372.0956,-176.5726 376.1346,-141.9099"/>
<polygon fill="#191970" stroke="#191970" points="379.6437,-142.0078 377.2169,-131.6947 372.6827,-141.2702 379.6437,-142.0078"/>
</g>
<!-- Node18 -->
<g id="node19" class="node">
<title>Node18</title>
<g id="a_node19"><a xlink:href="generators_8h.html" target="_top" xlink:title="This file includes all the header files of subclasses of Generator class. ">
<polygon fill="#ffffff" stroke="#000000" points="226,-280.5 226,-299.5 318,-299.5 318,-280.5 226,-280.5"/>
<text text-anchor="middle" x="272" y="-287.5" font-family="Helvetica,sans-Serif" font-size="10.00" fill="#000000">core/generators.h</text>
</a>
</g>
</g>
<!-- Node17&#45;&gt;Node18 -->
<g id="edge20" class="edge">
<title>Node17&#45;&gt;Node18</title>
<path fill="none" stroke="#191970" d="M272,-336.2455C272,-328.9382 272,-318.6944 272,-309.7046"/>
<polygon fill="#191970" stroke="#191970" points="275.5001,-309.6426 272,-299.6427 268.5001,-309.6427 275.5001,-309.6426"/>
</g>
<!-- Node18&#45;&gt;Node4 -->
<g id="edge21" class="edge">
<title>Node18&#45;&gt;Node4</title>
<path fill="none" stroke="#191970" d="M288.0641,-280.3936C306.7484,-267.9346 333.5313,-245.2722 321,-224 312.2054,-209.071 296.6283,-198.6447 281.3258,-191.541"/>
<polygon fill="#191970" stroke="#191970" points="282.469,-188.224 271.8965,-187.5368 279.7329,-194.6672 282.469,-188.224"/>
</g>
<!-- Node19 -->
<g id="node20" class="node">
<title>Node19</title>
<g id="a_node20"><a xlink:href="gen__dict_8h.html" target="_top" xlink:title="This file has a definition of GenDict class. ">
<polygon fill="#ffffff" stroke="#000000" points="130.5,-224.5 130.5,-243.5 213.5,-243.5 213.5,-224.5 130.5,-224.5"/>
<text text-anchor="middle" x="172" y="-231.5" font-family="Helvetica,sans-Serif" font-size="10.00" fill="#000000">core/gen_dict.h</text>
</a>
</g>
</g>
<!-- Node18&#45;&gt;Node19 -->
<g id="edge22" class="edge">
<title>Node18&#45;&gt;Node19</title>
<path fill="none" stroke="#191970" d="M254.5813,-280.2455C238.9515,-271.4928 215.7981,-258.527 197.9815,-248.5496"/>
<polygon fill="#191970" stroke="#191970" points="199.6543,-245.475 189.2191,-243.6427 196.234,-251.5825 199.6543,-245.475"/>
</g>
<!-- Node20 -->
<g id="node21" class="node">
<title>Node20</title>
<g id="a_node21"><a xlink:href="gen__list_8h.html" target="_top" xlink:title="This file has a definition of GenList class. ">
<polygon fill="#ffffff" stroke="#000000" points="232,-224.5 232,-243.5 312,-243.5 312,-224.5 232,-224.5"/>
<text text-anchor="middle" x="272" y="-231.5" font-family="Helvetica,sans-Serif" font-size="10.00" fill="#000000">core/gen_list.h</text>
</a>
</g>
</g>
<!-- Node18&#45;&gt;Node20 -->
<g id="edge24" class="edge">
<title>Node18&#45;&gt;Node20</title>
<path fill="none" stroke="#191970" d="M272,-280.2455C272,-272.9382 272,-262.6944 272,-253.7046"/>
<polygon fill="#191970" stroke="#191970" points="275.5001,-253.6426 272,-243.6427 268.5001,-253.6427 275.5001,-253.6426"/>
</g>
<!-- Node19&#45;&gt;Node4 -->
<g id="edge23" class="edge">
<title>Node19&#45;&gt;Node4</title>
<path fill="none" stroke="#191970" d="M183.4963,-224.2455C193.2442,-215.9746 207.4259,-203.9416 218.8798,-194.2232"/>
<polygon fill="#191970" stroke="#191970" points="221.2747,-196.7813 226.6354,-187.6427 216.7459,-191.4437 221.2747,-196.7813"/>
</g>
<!-- Node20&#45;&gt;Node4 -->
<g id="edge25" class="edge">
<title>Node20&#45;&gt;Node4</title>
<path fill="none" stroke="#191970" d="M266.0777,-224.2455C261.3973,-216.5367 254.7327,-205.5598 249.0711,-196.2348"/>
<polygon fill="#191970" stroke="#191970" points="252.0361,-194.3741 243.8545,-187.6427 246.0525,-198.007 252.0361,-194.3741"/>
</g>
</g>
</svg>
