<?xml version="1.0" encoding="UTF-8" standalone="no"?>
<!DOCTYPE svg PUBLIC "-//W3C//DTD SVG 1.1//EN"
 "http://www.w3.org/Graphics/SVG/1.1/DTD/svg11.dtd">
<!-- Generated by graphviz version 2.40.1 (20161225.0304)
 -->
<!-- Title: src/pybind/processors/py_processor.h Pages: 1 -->
<svg width="602pt" height="431pt"
 viewBox="0.00 0.00 602.00 431.00" xmlns="http://www.w3.org/2000/svg" xmlns:xlink="http://www.w3.org/1999/xlink">
<g id="graph0" class="graph" transform="scale(1 1) rotate(0) translate(4 427)">
<title>src/pybind/processors/py_processor.h</title>
<polygon fill="#ffffff" stroke="transparent" points="-4,4 -4,-427 598,-427 598,4 -4,4"/>
<!-- Node0 -->
<g id="node1" class="node">
<title>Node0</title>
<polygon fill="#bfbfbf" stroke="#000000" points="40.5,-392.5 40.5,-422.5 153.5,-422.5 153.5,-392.5 40.5,-392.5"/>
<text text-anchor="start" x="48.5" y="-410.5" font-family="Helvetica,sans-Serif" font-size="10.00" fill="#000000">src/pybind/processors</text>
<text text-anchor="middle" x="97" y="-399.5" font-family="Helvetica,sans-Serif" font-size="10.00" fill="#000000">/py_processor.h</text>
</g>
<!-- Node1 -->
<g id="node2" class="node">
<title>Node1</title>
<g id="a_node2"><a xlink:href="alias_2pybind_8h.html" target="_top" xlink:title="This file includes pybind11 and defines an alias for the namespace pybind11. ">
<polygon fill="#ffffff" stroke="#000000" points="14.5,-112.5 14.5,-131.5 91.5,-131.5 91.5,-112.5 14.5,-112.5"/>
<text text-anchor="middle" x="53" y="-119.5" font-family="Helvetica,sans-Serif" font-size="10.00" fill="#000000">alias/pybind.h</text>
</a>
</g>
</g>
<!-- Node0&#45;&gt;Node1 -->
<g id="edge1" class="edge">
<title>Node0&#45;&gt;Node1</title>
<path fill="none" stroke="#191970" d="M87.235,-392.2214C74.2722,-370.4339 53,-328.7731 53,-290 53,-290 53,-290 53,-234 53,-201.7116 53,-164.1872 53,-141.8048"/>
<polygon fill="#191970" stroke="#191970" points="56.5001,-141.5883 53,-131.5884 49.5001,-141.5884 56.5001,-141.5883"/>
</g>
<!-- Node3 -->
<g id="node4" class="node">
<title>Node3</title>
<g id="a_node4"><a xlink:href="processor_8h.html" target="_top" xlink:title="This file has a definition of Processor class, where an analysis process is programmed. ">
<polygon fill="#ffffff" stroke="#000000" points="91.5,-336.5 91.5,-355.5 210.5,-355.5 210.5,-336.5 91.5,-336.5"/>
<text text-anchor="middle" x="151" y="-343.5" font-family="Helvetica,sans-Serif" font-size="10.00" fill="#000000">processors/processor.h</text>
</a>
</g>
</g>
<!-- Node0&#45;&gt;Node3 -->
<g id="edge3" class="edge">
<title>Node0&#45;&gt;Node3</title>
<path fill="none" stroke="#191970" d="M110.3483,-392.2977C118.0002,-383.5831 127.6373,-372.6075 135.6076,-363.5302"/>
<polygon fill="#191970" stroke="#191970" points="138.3859,-365.6707 142.3539,-355.8469 133.1258,-361.052 138.3859,-365.6707"/>
</g>
<!-- Node2 -->
<g id="node3" class="node">
<title>Node2</title>
<polygon fill="#ffffff" stroke="#bfbfbf" points="0,-56.5 0,-75.5 106,-75.5 106,-56.5 0,-56.5"/>
<text text-anchor="middle" x="53" y="-63.5" font-family="Helvetica,sans-Serif" font-size="10.00" fill="#000000">pybind11/pybind11.h</text>
</g>
<!-- Node1&#45;&gt;Node2 -->
<g id="edge2" class="edge">
<title>Node1&#45;&gt;Node2</title>
<path fill="none" stroke="#191970" d="M53,-112.2455C53,-104.9382 53,-94.6944 53,-85.7046"/>
<polygon fill="#191970" stroke="#191970" points="56.5001,-85.6426 53,-75.6427 49.5001,-85.6427 56.5001,-85.6426"/>
</g>
<!-- Node4 -->
<g id="node5" class="node">
<title>Node4</title>
<g id="a_node5"><a xlink:href="generators_8h.html" target="_top" xlink:title="This file includes all the header files of subclasses of Generator class. ">
<polygon fill="#ffffff" stroke="#000000" points="110,-280.5 110,-299.5 202,-299.5 202,-280.5 110,-280.5"/>
<text text-anchor="middle" x="156" y="-287.5" font-family="Helvetica,sans-Serif" font-size="10.00" fill="#000000">core/generators.h</text>
</a>
</g>
</g>
<!-- Node3&#45;&gt;Node4 -->
<g id="edge4" class="edge">
<title>Node3&#45;&gt;Node4</title>
<path fill="none" stroke="#191970" d="M151.8709,-336.2455C152.5234,-328.9382 153.438,-318.6944 154.2407,-309.7046"/>
<polygon fill="#191970" stroke="#191970" points="157.7358,-309.9143 155.139,-299.6427 150.7635,-309.2918 157.7358,-309.9143"/>
</g>
<!-- Node5 -->
<g id="node6" class="node">
<title>Node5</title>
<g id="a_node6"><a xlink:href="element_8h.html" target="_top" xlink:title="This file has a definition of Element class, which is one of the cores of this program. ">
<polygon fill="#ffffff" stroke="#000000" points="120.5,-168.5 120.5,-187.5 201.5,-187.5 201.5,-168.5 120.5,-168.5"/>
<text text-anchor="middle" x="161" y="-175.5" font-family="Helvetica,sans-Serif" font-size="10.00" fill="#000000">core/element.h</text>
</a>
</g>
</g>
<!-- Node4&#45;&gt;Node5 -->
<g id="edge5" class="edge">
<title>Node4&#45;&gt;Node5</title>
<path fill="none" stroke="#191970" d="M141.2393,-280.4353C124.3591,-268.1983 100.2384,-245.9502 110,-224 115.4508,-211.7432 125.9599,-201.3755 136.0289,-193.6036"/>
<polygon fill="#191970" stroke="#191970" points="138.1744,-196.3721 144.2627,-187.7012 134.096,-190.6828 138.1744,-196.3721"/>
</g>
<!-- Node18 -->
<g id="node19" class="node">
<title>Node18</title>
<g id="a_node19"><a xlink:href="gen__dict_8h.html" target="_top" xlink:title="This file has a definition of GenDict class. ">
<polygon fill="#ffffff" stroke="#000000" points="119.5,-224.5 119.5,-243.5 202.5,-243.5 202.5,-224.5 119.5,-224.5"/>
<text text-anchor="middle" x="161" y="-231.5" font-family="Helvetica,sans-Serif" font-size="10.00" fill="#000000">core/gen_dict.h</text>
</a>
</g>
</g>
<!-- Node4&#45;&gt;Node18 -->
<g id="edge19" class="edge">
<title>Node4&#45;&gt;Node18</title>
<path fill="none" stroke="#191970" d="M156.8709,-280.2455C157.5234,-272.9382 158.438,-262.6944 159.2407,-253.7046"/>
<polygon fill="#191970" stroke="#191970" points="162.7358,-253.9143 160.139,-243.6427 155.7635,-253.2918 162.7358,-253.9143"/>
</g>
<!-- Node19 -->
<g id="node20" class="node">
<title>Node19</title>
<g id="a_node20"><a xlink:href="gen__list_8h.html" target="_top" xlink:title="This file has a definition of GenList class. ">
<polygon fill="#ffffff" stroke="#000000" points="221,-224.5 221,-243.5 301,-243.5 301,-224.5 221,-224.5"/>
<text text-anchor="middle" x="261" y="-231.5" font-family="Helvetica,sans-Serif" font-size="10.00" fill="#000000">core/gen_list.h</text>
</a>
</g>
</g>
<!-- Node4&#45;&gt;Node19 -->
<g id="edge21" class="edge">
<title>Node4&#45;&gt;Node19</title>
<path fill="none" stroke="#191970" d="M174.2896,-280.2455C190.7762,-271.4527 215.2352,-258.4079 233.9765,-248.4125"/>
<polygon fill="#191970" stroke="#191970" points="235.7435,-251.4368 242.92,-243.6427 232.4494,-245.2604 235.7435,-251.4368"/>
</g>
<!-- Node5&#45;&gt;Node1 -->
<g id="edge9" class="edge">
<title>Node5&#45;&gt;Node1</title>
<path fill="none" stroke="#191970" d="M142.1878,-168.2455C125.1527,-159.4125 99.8425,-146.2887 80.5319,-136.2758"/>
<polygon fill="#191970" stroke="#191970" points="82.0853,-133.1388 71.5966,-131.6427 78.863,-139.353 82.0853,-133.1388"/>
</g>
<!-- Node6 -->
<g id="node7" class="node">
<title>Node6</title>
<polygon fill="#ffffff" stroke="#bfbfbf" points="110,-112.5 110,-131.5 154,-131.5 154,-112.5 110,-112.5"/>
<text text-anchor="middle" x="132" y="-119.5" font-family="Helvetica,sans-Serif" font-size="10.00" fill="#000000">omp.h</text>
</g>
<!-- Node5&#45;&gt;Node6 -->
<g id="edge6" class="edge">
<title>Node5&#45;&gt;Node6</title>
<path fill="none" stroke="#191970" d="M155.9486,-168.2455C151.9981,-160.617 146.3903,-149.7881 141.5942,-140.5267"/>
<polygon fill="#191970" stroke="#191970" points="144.7001,-138.9131 136.9935,-131.6427 138.4841,-142.1321 144.7001,-138.9131"/>
</g>
<!-- Node7 -->
<g id="node8" class="node">
<title>Node7</title>
<g id="a_node8"><a xlink:href="eigen_8h.html" target="_top" xlink:title="This file includes Eigen and defines some aliases for the Eigen&#45;Vector, Matrix and Array...">
<polygon fill="#ffffff" stroke="#000000" points="172.5,-112.5 172.5,-131.5 243.5,-131.5 243.5,-112.5 172.5,-112.5"/>
<text text-anchor="middle" x="208" y="-119.5" font-family="Helvetica,sans-Serif" font-size="10.00" fill="#000000">alias/eigen.h</text>
</a>
</g>
</g>
<!-- Node5&#45;&gt;Node7 -->
<g id="edge7" class="edge">
<title>Node5&#45;&gt;Node7</title>
<path fill="none" stroke="#191970" d="M169.1868,-168.2455C175.8589,-160.2958 185.4479,-148.8706 193.4253,-139.3656"/>
<polygon fill="#191970" stroke="#191970" points="196.1592,-141.5525 199.907,-131.6427 190.7974,-137.0524 196.1592,-141.5525"/>
</g>
<!-- Node9 -->
<g id="node10" class="node">
<title>Node9</title>
<g id="a_node10"><a xlink:href="generator_8h.html" target="_top" xlink:title="This file has a definition of Generator class, which is one of the cores of this program. ">
<polygon fill="#ffffff" stroke="#000000" points="261.5,-112.5 261.5,-131.5 348.5,-131.5 348.5,-112.5 261.5,-112.5"/>
<text text-anchor="middle" x="305" y="-119.5" font-family="Helvetica,sans-Serif" font-size="10.00" fill="#000000">core/generator.h</text>
</a>
</g>
</g>
<!-- Node5&#45;&gt;Node9 -->
<g id="edge10" class="edge">
<title>Node5&#45;&gt;Node9</title>
<path fill="none" stroke="#191970" d="M185.7545,-168.3733C209.2849,-159.2226 244.8687,-145.3844 271.0426,-135.2057"/>
<polygon fill="#191970" stroke="#191970" points="272.5171,-138.3877 280.5685,-131.5011 269.9799,-131.8636 272.5171,-138.3877"/>
</g>
<!-- Node8 -->
<g id="node9" class="node">
<title>Node8</title>
<polygon fill="#ffffff" stroke="#bfbfbf" points="172,-56.5 172,-75.5 244,-75.5 244,-56.5 172,-56.5"/>
<text text-anchor="middle" x="208" y="-63.5" font-family="Helvetica,sans-Serif" font-size="10.00" fill="#000000">Eigen/Dense</text>
</g>
<!-- Node7&#45;&gt;Node8 -->
<g id="edge8" class="edge">
<title>Node7&#45;&gt;Node8</title>
<path fill="none" stroke="#191970" d="M208,-112.2455C208,-104.9382 208,-94.6944 208,-85.7046"/>
<polygon fill="#191970" stroke="#191970" points="211.5001,-85.6426 208,-75.6427 204.5001,-85.6427 211.5001,-85.6426"/>
</g>
<!-- Node10 -->
<g id="node11" class="node">
<title>Node10</title>
<g id="a_node11"><a xlink:href="std_8h.html" target="_top" xlink:title="This file includes a part of C++ Standard Template Library and defines aliases for them...">
<polygon fill="#ffffff" stroke="#000000" points="268,-56.5 268,-75.5 330,-75.5 330,-56.5 268,-56.5"/>
<text text-anchor="middle" x="299" y="-63.5" font-family="Helvetica,sans-Serif" font-size="10.00" fill="#000000">alias/std.h</text>
</a>
</g>
</g>
<!-- Node9&#45;&gt;Node10 -->
<g id="edge11" class="edge">
<title>Node9&#45;&gt;Node10</title>
<path fill="none" stroke="#191970" d="M303.9549,-112.2455C303.172,-104.9382 302.0744,-94.6944 301.1112,-85.7046"/>
<polygon fill="#191970" stroke="#191970" points="304.5786,-85.2129 300.0331,-75.6427 297.6185,-85.9587 304.5786,-85.2129"/>
</g>
<!-- Node16 -->
<g id="node17" class="node">
<title>Node16</title>
<g id="a_node17"><a xlink:href="json_8h.html" target="_top" xlink:title="This file includes nlohmann/json and defines an alias for a JSON class. ">
<polygon fill="#ffffff" stroke="#000000" points="430,-56.5 430,-75.5 496,-75.5 496,-56.5 430,-56.5"/>
<text text-anchor="middle" x="463" y="-63.5" font-family="Helvetica,sans-Serif" font-size="10.00" fill="#000000">alias/json.h</text>
</a>
</g>
</g>
<!-- Node9&#45;&gt;Node16 -->
<g id="edge17" class="edge">
<title>Node9&#45;&gt;Node16</title>
<path fill="none" stroke="#191970" d="M332.1612,-112.3733C358.2067,-103.1419 397.7116,-89.1402 426.4979,-78.9375"/>
<polygon fill="#191970" stroke="#191970" points="427.937,-82.1408 436.1933,-75.5011 425.5985,-75.5429 427.937,-82.1408"/>
</g>
<!-- Node11 -->
<g id="node12" class="node">
<title>Node11</title>
<polygon fill="#ffffff" stroke="#bfbfbf" points="106,-.5 106,-19.5 158,-19.5 158,-.5 106,-.5"/>
<text text-anchor="middle" x="132" y="-7.5" font-family="Helvetica,sans-Serif" font-size="10.00" fill="#000000">memory</text>
</g>
<!-- Node10&#45;&gt;Node11 -->
<g id="edge12" class="edge">
<title>Node10&#45;&gt;Node11</title>
<path fill="none" stroke="#191970" d="M270.2917,-56.3733C241.972,-46.8769 198.5976,-32.3321 167.989,-22.0682"/>
<polygon fill="#191970" stroke="#191970" points="168.7321,-18.6259 158.1382,-18.7649 166.5066,-25.2627 168.7321,-18.6259"/>
</g>
<!-- Node12 -->
<g id="node13" class="node">
<title>Node12</title>
<polygon fill="#ffffff" stroke="#bfbfbf" points="176.5,-.5 176.5,-19.5 217.5,-19.5 217.5,-.5 176.5,-.5"/>
<text text-anchor="middle" x="197" y="-7.5" font-family="Helvetica,sans-Serif" font-size="10.00" fill="#000000">string</text>
</g>
<!-- Node10&#45;&gt;Node12 -->
<g id="edge13" class="edge">
<title>Node10&#45;&gt;Node12</title>
<path fill="none" stroke="#191970" d="M281.233,-56.2455C265.2905,-47.4928 241.6741,-34.527 223.5011,-24.5496"/>
<polygon fill="#191970" stroke="#191970" points="225.0137,-21.3873 214.5634,-19.6427 221.6448,-27.5233 225.0137,-21.3873"/>
</g>
<!-- Node13 -->
<g id="node14" class="node">
<title>Node13</title>
<polygon fill="#ffffff" stroke="#bfbfbf" points="236,-.5 236,-19.5 280,-19.5 280,-.5 236,-.5"/>
<text text-anchor="middle" x="258" y="-7.5" font-family="Helvetica,sans-Serif" font-size="10.00" fill="#000000">vector</text>
</g>
<!-- Node10&#45;&gt;Node13 -->
<g id="edge14" class="edge">
<title>Node10&#45;&gt;Node13</title>
<path fill="none" stroke="#191970" d="M291.8583,-56.2455C286.1556,-48.4564 278.01,-37.3308 271.1375,-27.9439"/>
<polygon fill="#191970" stroke="#191970" points="273.7913,-25.6437 265.0598,-19.6427 268.1432,-29.7789 273.7913,-25.6437"/>
</g>
<!-- Node14 -->
<g id="node15" class="node">
<title>Node14</title>
<polygon fill="#ffffff" stroke="#bfbfbf" points="298.5,-.5 298.5,-19.5 381.5,-19.5 381.5,-.5 298.5,-.5"/>
<text text-anchor="middle" x="340" y="-7.5" font-family="Helvetica,sans-Serif" font-size="10.00" fill="#000000">unordered_map</text>
</g>
<!-- Node10&#45;&gt;Node14 -->
<g id="edge15" class="edge">
<title>Node10&#45;&gt;Node14</title>
<path fill="none" stroke="#191970" d="M306.1417,-56.2455C311.8444,-48.4564 319.99,-37.3308 326.8625,-27.9439"/>
<polygon fill="#191970" stroke="#191970" points="329.8568,-29.7789 332.9402,-19.6427 324.2087,-25.6437 329.8568,-29.7789"/>
</g>
<!-- Node15 -->
<g id="node16" class="node">
<title>Node15</title>
<polygon fill="#ffffff" stroke="#bfbfbf" points="400,-.5 400,-19.5 478,-19.5 478,-.5 400,-.5"/>
<text text-anchor="middle" x="439" y="-7.5" font-family="Helvetica,sans-Serif" font-size="10.00" fill="#000000">unordered_set</text>
</g>
<!-- Node10&#45;&gt;Node15 -->
<g id="edge16" class="edge">
<title>Node10&#45;&gt;Node15</title>
<path fill="none" stroke="#191970" d="M323.0669,-56.3733C345.8428,-47.2629 380.2344,-33.5062 405.649,-23.3404"/>
<polygon fill="#191970" stroke="#191970" points="407.2623,-26.4648 415.2472,-19.5011 404.6625,-19.9654 407.2623,-26.4648"/>
</g>
<!-- Node17 -->
<g id="node18" class="node">
<title>Node17</title>
<polygon fill="#ffffff" stroke="#bfbfbf" points="496,-.5 496,-19.5 594,-19.5 594,-.5 496,-.5"/>
<text text-anchor="middle" x="545" y="-7.5" font-family="Helvetica,sans-Serif" font-size="10.00" fill="#000000">nlohmann/json.hpp</text>
</g>
<!-- Node16&#45;&gt;Node17 -->
<g id="edge18" class="edge">
<title>Node16&#45;&gt;Node17</title>
<path fill="none" stroke="#191970" d="M477.2833,-56.2455C489.747,-47.7337 508.0451,-35.2375 522.4792,-25.3801"/>
<polygon fill="#191970" stroke="#191970" points="524.5962,-28.1726 530.8804,-19.6427 520.6485,-22.392 524.5962,-28.1726"/>
</g>
<!-- Node18&#45;&gt;Node5 -->
<g id="edge20" class="edge">
<title>Node18&#45;&gt;Node5</title>
<path fill="none" stroke="#191970" d="M161,-224.2455C161,-216.9382 161,-206.6944 161,-197.7046"/>
<polygon fill="#191970" stroke="#191970" points="164.5001,-197.6426 161,-187.6427 157.5001,-197.6427 164.5001,-197.6426"/>
</g>
<!-- Node19&#45;&gt;Node5 -->
<g id="edge22" class="edge">
<title>Node19&#45;&gt;Node5</title>
<path fill="none" stroke="#191970" d="M243.5813,-224.2455C227.9515,-215.4928 204.7981,-202.527 186.9815,-192.5496"/>
<polygon fill="#191970" stroke="#191970" points="188.6543,-189.475 178.2191,-187.6427 185.234,-195.5825 188.6543,-189.475"/>
</g>
</g>
</svg>
