<?xml version="1.0" encoding="UTF-8" standalone="no"?>
<!DOCTYPE svg PUBLIC "-//W3C//DTD SVG 1.1//EN"
 "http://www.w3.org/Graphics/SVG/1.1/DTD/svg11.dtd">
<!-- Generated by graphviz version 2.40.1 (20161225.0304)
 -->
<!-- Title: src/pybind/py_element.h Pages: 1 -->
<svg width="525pt" height="252pt"
 viewBox="0.00 0.00 525.00 252.00" xmlns="http://www.w3.org/2000/svg" xmlns:xlink="http://www.w3.org/1999/xlink">
<g id="graph0" class="graph" transform="scale(1 1) rotate(0) translate(4 248)">
<title>src/pybind/py_element.h</title>
<polygon fill="#ffffff" stroke="transparent" points="-4,4 -4,-248 521,-248 521,4 -4,4"/>
<!-- Node0 -->
<g id="node1" class="node">
<title>Node0</title>
<polygon fill="#bfbfbf" stroke="#000000" points="85.5,-224.5 85.5,-243.5 208.5,-243.5 208.5,-224.5 85.5,-224.5"/>
<text text-anchor="middle" x="147" y="-231.5" font-family="Helvetica,sans-Serif" font-size="10.00" fill="#000000">src/pybind/py_element.h</text>
</g>
<!-- Node1 -->
<g id="node2" class="node">
<title>Node1</title>
<g id="a_node2"><a xlink:href="alias_2pybind_8h.html" target="_top" xlink:title="This file includes pybind11 and defines an alias for the namespace pybind11. ">
<polygon fill="#ffffff" stroke="#000000" points="16.5,-112.5 16.5,-131.5 93.5,-131.5 93.5,-112.5 16.5,-112.5"/>
<text text-anchor="middle" x="55" y="-119.5" font-family="Helvetica,sans-Serif" font-size="10.00" fill="#000000">alias/pybind.h</text>
</a>
</g>
</g>
<!-- Node0&#45;&gt;Node1 -->
<g id="edge1" class="edge">
<title>Node0&#45;&gt;Node1</title>
<path fill="none" stroke="#191970" d="M139.1561,-224.4509C123.6758,-205.6054 88.9947,-163.3849 69.3273,-139.4419"/>
<polygon fill="#191970" stroke="#191970" points="71.876,-137.0306 62.824,-131.5249 66.4669,-141.4738 71.876,-137.0306"/>
</g>
<!-- Node3 -->
<g id="node4" class="node">
<title>Node3</title>
<g id="a_node4"><a xlink:href="element_8h.html" target="_top" xlink:title="This file has a definition of Element class, which is one of the cores of this program. ">
<polygon fill="#ffffff" stroke="#000000" points="156.5,-168.5 156.5,-187.5 237.5,-187.5 237.5,-168.5 156.5,-168.5"/>
<text text-anchor="middle" x="197" y="-175.5" font-family="Helvetica,sans-Serif" font-size="10.00" fill="#000000">core/element.h</text>
</a>
</g>
</g>
<!-- Node0&#45;&gt;Node3 -->
<g id="edge3" class="edge">
<title>Node0&#45;&gt;Node3</title>
<path fill="none" stroke="#191970" d="M155.7093,-224.2455C162.8073,-216.2958 173.0084,-204.8706 181.495,-195.3656"/>
<polygon fill="#191970" stroke="#191970" points="184.3411,-197.4331 188.3905,-187.6427 179.1195,-192.771 184.3411,-197.4331"/>
</g>
<!-- Node2 -->
<g id="node3" class="node">
<title>Node2</title>
<polygon fill="#ffffff" stroke="#bfbfbf" points="0,-56.5 0,-75.5 106,-75.5 106,-56.5 0,-56.5"/>
<text text-anchor="middle" x="53" y="-63.5" font-family="Helvetica,sans-Serif" font-size="10.00" fill="#000000">pybind11/pybind11.h</text>
</g>
<!-- Node1&#45;&gt;Node2 -->
<g id="edge2" class="edge">
<title>Node1&#45;&gt;Node2</title>
<path fill="none" stroke="#191970" d="M54.6516,-112.2455C54.3907,-104.9382 54.0248,-94.6944 53.7037,-85.7046"/>
<polygon fill="#191970" stroke="#191970" points="57.1992,-85.5113 53.3444,-75.6427 50.2036,-85.7613 57.1992,-85.5113"/>
</g>
<!-- Node3&#45;&gt;Node1 -->
<g id="edge7" class="edge">
<title>Node3&#45;&gt;Node1</title>
<path fill="none" stroke="#191970" d="M172.5893,-168.3733C149.3858,-159.2226 114.2962,-145.3844 88.4858,-135.2057"/>
<polygon fill="#191970" stroke="#191970" points="89.6789,-131.9139 79.0921,-131.5011 87.1108,-138.4258 89.6789,-131.9139"/>
</g>
<!-- Node4 -->
<g id="node5" class="node">
<title>Node4</title>
<polygon fill="#ffffff" stroke="#bfbfbf" points="217,-112.5 217,-131.5 261,-131.5 261,-112.5 217,-112.5"/>
<text text-anchor="middle" x="239" y="-119.5" font-family="Helvetica,sans-Serif" font-size="10.00" fill="#000000">omp.h</text>
</g>
<!-- Node3&#45;&gt;Node4 -->
<g id="edge4" class="edge">
<title>Node3&#45;&gt;Node4</title>
<path fill="none" stroke="#191970" d="M204.3158,-168.2455C210.2179,-160.3761 218.6742,-149.101 225.7594,-139.6542"/>
<polygon fill="#191970" stroke="#191970" points="228.568,-141.7427 231.768,-131.6427 222.9679,-137.5427 228.568,-141.7427"/>
</g>
<!-- Node5 -->
<g id="node6" class="node">
<title>Node5</title>
<g id="a_node6"><a xlink:href="eigen_8h.html" target="_top" xlink:title="This file includes Eigen and defines some aliases for the Eigen&#45;Vector, Matrix and Array...">
<polygon fill="#ffffff" stroke="#000000" points="393.5,-112.5 393.5,-131.5 464.5,-131.5 464.5,-112.5 393.5,-112.5"/>
<text text-anchor="middle" x="429" y="-119.5" font-family="Helvetica,sans-Serif" font-size="10.00" fill="#000000">alias/eigen.h</text>
</a>
</g>
</g>
<!-- Node3&#45;&gt;Node5 -->
<g id="edge5" class="edge">
<title>Node3&#45;&gt;Node5</title>
<path fill="none" stroke="#191970" d="M236.6186,-168.4369C277.3549,-158.604 340.7144,-143.3103 383.4843,-132.9865"/>
<polygon fill="#191970" stroke="#191970" points="384.4519,-136.3536 393.3515,-130.6048 382.8094,-129.549 384.4519,-136.3536"/>
</g>
<!-- Node7 -->
<g id="node8" class="node">
<title>Node7</title>
<g id="a_node8"><a xlink:href="generator_8h.html" target="_top" xlink:title="This file has a definition of Generator class, which is one of the cores of this program. ">
<polygon fill="#ffffff" stroke="#000000" points="111.5,-112.5 111.5,-131.5 198.5,-131.5 198.5,-112.5 111.5,-112.5"/>
<text text-anchor="middle" x="155" y="-119.5" font-family="Helvetica,sans-Serif" font-size="10.00" fill="#000000">core/generator.h</text>
</a>
</g>
</g>
<!-- Node3&#45;&gt;Node7 -->
<g id="edge8" class="edge">
<title>Node3&#45;&gt;Node7</title>
<path fill="none" stroke="#191970" d="M189.6842,-168.2455C183.7821,-160.3761 175.3258,-149.101 168.2406,-139.6542"/>
<polygon fill="#191970" stroke="#191970" points="171.0321,-137.5427 162.232,-131.6427 165.432,-141.7427 171.0321,-137.5427"/>
</g>
<!-- Node16 -->
<g id="node17" class="node">
<title>Node16</title>
<g id="a_node17"><a xlink:href="data__keys_8h.html" target="_top" xlink:title="This file has a definition of DataKeys class, which is owned by Element class. ">
<polygon fill="#ffffff" stroke="#000000" points="279,-112.5 279,-131.5 375,-131.5 375,-112.5 279,-112.5"/>
<text text-anchor="middle" x="327" y="-119.5" font-family="Helvetica,sans-Serif" font-size="10.00" fill="#000000">class/data_keys.h</text>
</a>
</g>
</g>
<!-- Node3&#45;&gt;Node16 -->
<g id="edge17" class="edge">
<title>Node3&#45;&gt;Node16</title>
<path fill="none" stroke="#191970" d="M219.3478,-168.3733C240.4033,-159.3032 272.1495,-145.6279 295.7175,-135.4755"/>
<polygon fill="#191970" stroke="#191970" points="297.1444,-138.6719 304.9438,-131.5011 294.375,-132.243 297.1444,-138.6719"/>
</g>
<!-- Node6 -->
<g id="node7" class="node">
<title>Node6</title>
<polygon fill="#ffffff" stroke="#bfbfbf" points="393,-56.5 393,-75.5 465,-75.5 465,-56.5 393,-56.5"/>
<text text-anchor="middle" x="429" y="-63.5" font-family="Helvetica,sans-Serif" font-size="10.00" fill="#000000">Eigen/Dense</text>
</g>
<!-- Node5&#45;&gt;Node6 -->
<g id="edge6" class="edge">
<title>Node5&#45;&gt;Node6</title>
<path fill="none" stroke="#191970" d="M429,-112.2455C429,-104.9382 429,-94.6944 429,-85.7046"/>
<polygon fill="#191970" stroke="#191970" points="432.5001,-85.6426 429,-75.6427 425.5001,-85.6427 432.5001,-85.6426"/>
</g>
<!-- Node8 -->
<g id="node9" class="node">
<title>Node8</title>
<g id="a_node9"><a xlink:href="std_8h.html" target="_top" xlink:title="This file includes a part of C++ Standard Template Library and defines aliases for them...">
<polygon fill="#ffffff" stroke="#000000" points="296,-56.5 296,-75.5 358,-75.5 358,-56.5 296,-56.5"/>
<text text-anchor="middle" x="327" y="-63.5" font-family="Helvetica,sans-Serif" font-size="10.00" fill="#000000">alias/std.h</text>
</a>
</g>
</g>
<!-- Node7&#45;&gt;Node8 -->
<g id="edge9" class="edge">
<title>Node7&#45;&gt;Node8</title>
<path fill="none" stroke="#191970" d="M184.5679,-112.3733C213.1688,-103.0613 256.6788,-88.8953 288.0819,-78.671"/>
<polygon fill="#191970" stroke="#191970" points="289.3928,-81.9251 297.818,-75.5011 287.2257,-75.269 289.3928,-81.9251"/>
</g>
<!-- Node14 -->
<g id="node15" class="node">
<title>Node14</title>
<g id="a_node15"><a xlink:href="json_8h.html" target="_top" xlink:title="This file includes nlohmann/json and defines an alias for a JSON class. ">
<polygon fill="#ffffff" stroke="#000000" points="124,-56.5 124,-75.5 190,-75.5 190,-56.5 124,-56.5"/>
<text text-anchor="middle" x="157" y="-63.5" font-family="Helvetica,sans-Serif" font-size="10.00" fill="#000000">alias/json.h</text>
</a>
</g>
</g>
<!-- Node7&#45;&gt;Node14 -->
<g id="edge15" class="edge">
<title>Node7&#45;&gt;Node14</title>
<path fill="none" stroke="#191970" d="M155.3484,-112.2455C155.6093,-104.9382 155.9752,-94.6944 156.2963,-85.7046"/>
<polygon fill="#191970" stroke="#191970" points="159.7964,-85.7613 156.6556,-75.6427 152.8008,-85.5113 159.7964,-85.7613"/>
</g>
<!-- Node9 -->
<g id="node10" class="node">
<title>Node9</title>
<polygon fill="#ffffff" stroke="#bfbfbf" points="343,-.5 343,-19.5 395,-19.5 395,-.5 343,-.5"/>
<text text-anchor="middle" x="369" y="-7.5" font-family="Helvetica,sans-Serif" font-size="10.00" fill="#000000">memory</text>
</g>
<!-- Node8&#45;&gt;Node9 -->
<g id="edge10" class="edge">
<title>Node8&#45;&gt;Node9</title>
<path fill="none" stroke="#191970" d="M334.3158,-56.2455C340.2179,-48.3761 348.6742,-37.101 355.7594,-27.6542"/>
<polygon fill="#191970" stroke="#191970" points="358.568,-29.7427 361.768,-19.6427 352.9679,-25.5427 358.568,-29.7427"/>
</g>
<!-- Node10 -->
<g id="node11" class="node">
<title>Node10</title>
<polygon fill="#ffffff" stroke="#bfbfbf" points="413.5,-.5 413.5,-19.5 454.5,-19.5 454.5,-.5 413.5,-.5"/>
<text text-anchor="middle" x="434" y="-7.5" font-family="Helvetica,sans-Serif" font-size="10.00" fill="#000000">string</text>
</g>
<!-- Node8&#45;&gt;Node10 -->
<g id="edge11" class="edge">
<title>Node8&#45;&gt;Node10</title>
<path fill="none" stroke="#191970" d="M345.638,-56.2455C362.4386,-47.4527 387.3634,-34.4079 406.4618,-24.4125"/>
<polygon fill="#191970" stroke="#191970" points="408.3386,-27.3807 415.5756,-19.6427 405.0927,-21.1787 408.3386,-27.3807"/>
</g>
<!-- Node11 -->
<g id="node12" class="node">
<title>Node11</title>
<polygon fill="#ffffff" stroke="#bfbfbf" points="473,-.5 473,-19.5 517,-19.5 517,-.5 473,-.5"/>
<text text-anchor="middle" x="495" y="-7.5" font-family="Helvetica,sans-Serif" font-size="10.00" fill="#000000">vector</text>
</g>
<!-- Node8&#45;&gt;Node11 -->
<g id="edge12" class="edge">
<title>Node8&#45;&gt;Node11</title>
<path fill="none" stroke="#191970" d="M355.8802,-56.3733C385.718,-46.4273 432.1685,-30.9438 463.0791,-20.6403"/>
<polygon fill="#191970" stroke="#191970" points="464.5396,-23.8429 472.9196,-17.3601 462.3259,-17.2021 464.5396,-23.8429"/>
</g>
<!-- Node12 -->
<g id="node13" class="node">
<title>Node12</title>
<polygon fill="#ffffff" stroke="#bfbfbf" points="145.5,-.5 145.5,-19.5 228.5,-19.5 228.5,-.5 145.5,-.5"/>
<text text-anchor="middle" x="187" y="-7.5" font-family="Helvetica,sans-Serif" font-size="10.00" fill="#000000">unordered_map</text>
</g>
<!-- Node8&#45;&gt;Node12 -->
<g id="edge13" class="edge">
<title>Node8&#45;&gt;Node12</title>
<path fill="none" stroke="#191970" d="M302.9331,-56.3733C280.1572,-47.2629 245.7656,-33.5062 220.351,-23.3404"/>
<polygon fill="#191970" stroke="#191970" points="221.3375,-19.9654 210.7528,-19.5011 218.7377,-26.4648 221.3375,-19.9654"/>
</g>
<!-- Node13 -->
<g id="node14" class="node">
<title>Node13</title>
<polygon fill="#ffffff" stroke="#bfbfbf" points="247,-.5 247,-19.5 325,-19.5 325,-.5 247,-.5"/>
<text text-anchor="middle" x="286" y="-7.5" font-family="Helvetica,sans-Serif" font-size="10.00" fill="#000000">unordered_set</text>
</g>
<!-- Node8&#45;&gt;Node13 -->
<g id="edge14" class="edge">
<title>Node8&#45;&gt;Node13</title>
<path fill="none" stroke="#191970" d="M319.8583,-56.2455C314.1556,-48.4564 306.01,-37.3308 299.1375,-27.9439"/>
<polygon fill="#191970" stroke="#191970" points="301.7913,-25.6437 293.0598,-19.6427 296.1432,-29.7789 301.7913,-25.6437"/>
</g>
<!-- Node15 -->
<g id="node16" class="node">
<title>Node15</title>
<polygon fill="#ffffff" stroke="#bfbfbf" points="29,-.5 29,-19.5 127,-19.5 127,-.5 29,-.5"/>
<text text-anchor="middle" x="78" y="-7.5" font-family="Helvetica,sans-Serif" font-size="10.00" fill="#000000">nlohmann/json.hpp</text>
</g>
<!-- Node14&#45;&gt;Node15 -->
<g id="edge16" class="edge">
<title>Node14&#45;&gt;Node15</title>
<path fill="none" stroke="#191970" d="M143.2393,-56.2455C131.3448,-47.814 113.935,-35.4729 100.0915,-25.6598"/>
<polygon fill="#191970" stroke="#191970" points="101.7854,-22.5704 91.6031,-19.6427 97.7372,-28.2811 101.7854,-22.5704"/>
</g>
<!-- Node16&#45;&gt;Node8 -->
<g id="edge18" class="edge">
<title>Node16&#45;&gt;Node8</title>
<path fill="none" stroke="#191970" d="M327,-112.2455C327,-104.9382 327,-94.6944 327,-85.7046"/>
<polygon fill="#191970" stroke="#191970" points="330.5001,-85.6426 327,-75.6427 323.5001,-85.6427 330.5001,-85.6426"/>
</g>
<!-- Node16&#45;&gt;Node14 -->
<g id="edge19" class="edge">
<title>Node16&#45;&gt;Node14</title>
<path fill="none" stroke="#191970" d="M297.776,-112.3733C269.5075,-103.0613 226.5035,-88.8953 195.4656,-78.671"/>
<polygon fill="#191970" stroke="#191970" points="196.4357,-75.3056 185.8427,-75.5011 194.2456,-81.9542 196.4357,-75.3056"/>
</g>
</g>
</svg>
