<?xml version="1.0" encoding="UTF-8" standalone="no"?>
<!DOCTYPE svg PUBLIC "-//W3C//DTD SVG 1.1//EN"
 "http://www.w3.org/Graphics/SVG/1.1/DTD/svg11.dtd">
<!-- Generated by graphviz version 2.40.1 (20161225.0304)
 -->
<!-- Title: src/pybind/adders/py_add_inertia_moment.h Pages: 1 -->
<svg width="236pt" height="162pt"
 viewBox="0.00 0.00 236.00 162.00" xmlns="http://www.w3.org/2000/svg" xmlns:xlink="http://www.w3.org/1999/xlink">
<g id="graph0" class="graph" transform="scale(1 1) rotate(0) translate(4 158)">
<title>src/pybind/adders/py_add_inertia_moment.h</title>
<polygon fill="#ffffff" stroke="transparent" points="-4,4 -4,-158 232,-158 232,4 -4,4"/>
<!-- Node25 -->
<g id="node1" class="node">
<title>Node25</title>
<polygon fill="#bfbfbf" stroke="#000000" points="46,-123.5 46,-153.5 164,-153.5 164,-123.5 46,-123.5"/>
<text text-anchor="start" x="54" y="-141.5" font-family="Helvetica,sans-Serif" font-size="10.00" fill="#000000">src/pybind/adders/py</text>
<text text-anchor="middle" x="105" y="-130.5" font-family="Helvetica,sans-Serif" font-size="10.00" fill="#000000">_add_inertia_moment.h</text>
</g>
<!-- Node26 -->
<g id="node2" class="node">
<title>Node26</title>
<g id="a_node2"><a xlink:href="pybind_8h.html" target="_top" xlink:title="This file includes all the header files containing definitions of functions to bind C++ and Python...">
<polygon fill="#ffffff" stroke="#000000" points="12,-62 12,-81 82,-81 82,-62 12,-62"/>
<text text-anchor="middle" x="47" y="-69" font-family="Helvetica,sans-Serif" font-size="10.00" fill="#000000">src/pybind.h</text>
</a>
</g>
</g>
<!-- Node25&#45;&gt;Node26 -->
<g id="edge1" class="edge">
<title>Node25&#45;&gt;Node26</title>
<path fill="none" stroke="#191970" d="M85.1113,-115.5252C74.9037,-103.7336 63.0197,-90.0055 55.2715,-81.055"/>
<polygon fill="#191970" stroke="#191970" points="82.6476,-118.0268 91.8389,-123.2967 87.9401,-113.4453 82.6476,-118.0268"/>
</g>
<!-- Node28 -->
<g id="node4" class="node">
<title>Node28</title>
<g id="a_node4"><a xlink:href="py__add__inertia__moment_8cpp.html" target="_top" xlink:title="This file is for binding AddInertiaMoment class to Python. ">
<polygon fill="#ffffff" stroke="#000000" points="100,-56.5 100,-86.5 228,-86.5 228,-56.5 100,-56.5"/>
<text text-anchor="start" x="108" y="-74.5" font-family="Helvetica,sans-Serif" font-size="10.00" fill="#000000">src/pybind/adders/py</text>
<text text-anchor="middle" x="164" y="-63.5" font-family="Helvetica,sans-Serif" font-size="10.00" fill="#000000">_add_inertia_moment.cpp</text>
</a>
</g>
</g>
<!-- Node25&#45;&gt;Node28 -->
<g id="edge3" class="edge">
<title>Node25&#45;&gt;Node28</title>
<path fill="none" stroke="#191970" d="M125.1318,-115.6385C133.5619,-106.0653 143.131,-95.1987 150.665,-86.6432"/>
<polygon fill="#191970" stroke="#191970" points="122.3701,-113.4786 118.388,-123.2967 127.6236,-118.1048 122.3701,-113.4786"/>
</g>
<!-- Node27 -->
<g id="node3" class="node">
<title>Node27</title>
<g id="a_node3"><a xlink:href="ppap4lmp_8cpp.html" target="_top" xlink:title="This file has no implementation, only includes a header file to bind C++ and Python. ">
<polygon fill="#ffffff" stroke="#000000" points="0,-.5 0,-19.5 94,-19.5 94,-.5 0,-.5"/>
<text text-anchor="middle" x="47" y="-7.5" font-family="Helvetica,sans-Serif" font-size="10.00" fill="#000000">src/ppap4lmp.cpp</text>
</a>
</g>
</g>
<!-- Node26&#45;&gt;Node27 -->
<g id="edge2" class="edge">
<title>Node26&#45;&gt;Node27</title>
<path fill="none" stroke="#191970" d="M47,-51.7462C47,-41.0519 47,-28.314 47,-19.7449"/>
<polygon fill="#191970" stroke="#191970" points="43.5001,-51.8906 47,-61.8906 50.5001,-51.8907 43.5001,-51.8906"/>
</g>
</g>
</svg>
