<?xml version="1.0" encoding="UTF-8" standalone="no"?>
<!DOCTYPE svg PUBLIC "-//W3C//DTD SVG 1.1//EN"
 "http://www.w3.org/Graphics/SVG/1.1/DTD/svg11.dtd">
<!-- Generated by graphviz version 2.40.1 (20161225.0304)
 -->
<!-- Title: src/pybind/starters/py_sta_dump_box.h Pages: 1 -->
<svg width="226pt" height="162pt"
 viewBox="0.00 0.00 226.00 162.00" xmlns="http://www.w3.org/2000/svg" xmlns:xlink="http://www.w3.org/1999/xlink">
<g id="graph0" class="graph" transform="scale(1 1) rotate(0) translate(4 158)">
<title>src/pybind/starters/py_sta_dump_box.h</title>
<polygon fill="#ffffff" stroke="transparent" points="-4,4 -4,-158 222,-158 222,4 -4,4"/>
<!-- Node26 -->
<g id="node1" class="node">
<title>Node26</title>
<polygon fill="#bfbfbf" stroke="#000000" points="49.5,-123.5 49.5,-153.5 156.5,-153.5 156.5,-123.5 49.5,-123.5"/>
<text text-anchor="start" x="57.5" y="-141.5" font-family="Helvetica,sans-Serif" font-size="10.00" fill="#000000">src/pybind/starters</text>
<text text-anchor="middle" x="103" y="-130.5" font-family="Helvetica,sans-Serif" font-size="10.00" fill="#000000">/py_sta_dump_box.h</text>
</g>
<!-- Node27 -->
<g id="node2" class="node">
<title>Node27</title>
<g id="a_node2"><a xlink:href="pybind_8h.html" target="_top" xlink:title="This file includes all the header files containing definitions of functions to bind C++ and Python...">
<polygon fill="#ffffff" stroke="#000000" points="12,-62 12,-81 82,-81 82,-62 12,-62"/>
<text text-anchor="middle" x="47" y="-69" font-family="Helvetica,sans-Serif" font-size="10.00" fill="#000000">src/pybind.h</text>
</a>
</g>
</g>
<!-- Node26&#45;&gt;Node27 -->
<g id="edge1" class="edge">
<title>Node26&#45;&gt;Node27</title>
<path fill="none" stroke="#191970" d="M83.7971,-115.5252C73.9415,-103.7336 62.4673,-90.0055 54.9862,-81.055"/>
<polygon fill="#191970" stroke="#191970" points="81.1941,-117.8684 90.2927,-123.2967 86.5651,-113.3792 81.1941,-117.8684"/>
</g>
<!-- Node29 -->
<g id="node4" class="node">
<title>Node29</title>
<g id="a_node4"><a xlink:href="py__sta__dump__box_8cpp.html" target="_top" xlink:title="This file is for binding StaDumpBox class to Python. ">
<polygon fill="#ffffff" stroke="#000000" points="100,-56.5 100,-86.5 218,-86.5 218,-56.5 100,-56.5"/>
<text text-anchor="start" x="108" y="-74.5" font-family="Helvetica,sans-Serif" font-size="10.00" fill="#000000">src/pybind/starters</text>
<text text-anchor="middle" x="159" y="-63.5" font-family="Helvetica,sans-Serif" font-size="10.00" fill="#000000">/py_sta_dump_box.cpp</text>
</a>
</g>
</g>
<!-- Node26&#45;&gt;Node29 -->
<g id="edge3" class="edge">
<title>Node26&#45;&gt;Node29</title>
<path fill="none" stroke="#191970" d="M122.3485,-115.3509C130.2911,-105.8482 139.2636,-95.1132 146.343,-86.6432"/>
<polygon fill="#191970" stroke="#191970" points="119.4349,-113.3792 115.7073,-123.2967 124.8059,-117.8684 119.4349,-113.3792"/>
</g>
<!-- Node28 -->
<g id="node3" class="node">
<title>Node28</title>
<g id="a_node3"><a xlink:href="ppap4lmp_8cpp.html" target="_top" xlink:title="This file has no implementation, only includes a header file to bind C++ and Python. ">
<polygon fill="#ffffff" stroke="#000000" points="0,-.5 0,-19.5 94,-19.5 94,-.5 0,-.5"/>
<text text-anchor="middle" x="47" y="-7.5" font-family="Helvetica,sans-Serif" font-size="10.00" fill="#000000">src/ppap4lmp.cpp</text>
</a>
</g>
</g>
<!-- Node27&#45;&gt;Node28 -->
<g id="edge2" class="edge">
<title>Node27&#45;&gt;Node28</title>
<path fill="none" stroke="#191970" d="M47,-51.7462C47,-41.0519 47,-28.314 47,-19.7449"/>
<polygon fill="#191970" stroke="#191970" points="43.5001,-51.8906 47,-61.8906 50.5001,-51.8907 43.5001,-51.8906"/>
</g>
</g>
</svg>
