<?xml version="1.0" encoding="UTF-8" standalone="no"?>
<!DOCTYPE svg PUBLIC "-//W3C//DTD SVG 1.1//EN"
 "http://www.w3.org/Graphics/SVG/1.1/DTD/svg11.dtd">
<!-- Generated by graphviz version 2.40.1 (20161225.0304)
 -->
<!-- Title: src/pybind/processors/py_pro_radial_distribution_function.h Pages: 1 -->
<svg width="238pt" height="184pt"
 viewBox="0.00 0.00 238.00 184.00" xmlns="http://www.w3.org/2000/svg" xmlns:xlink="http://www.w3.org/1999/xlink">
<g id="graph0" class="graph" transform="scale(1 1) rotate(0) translate(4 180)">
<title>src/pybind/processors/py_pro_radial_distribution_function.h</title>
<polygon fill="#ffffff" stroke="transparent" points="-4,4 -4,-180 234,-180 234,4 -4,4"/>
<!-- Node22 -->
<g id="node1" class="node">
<title>Node22</title>
<polygon fill="#bfbfbf" stroke="#000000" points="41,-134.5 41,-175.5 171,-175.5 171,-134.5 41,-134.5"/>
<text text-anchor="start" x="49" y="-163.5" font-family="Helvetica,sans-Serif" font-size="10.00" fill="#000000">src/pybind/processors</text>
<text text-anchor="start" x="49" y="-152.5" font-family="Helvetica,sans-Serif" font-size="10.00" fill="#000000">/py_pro_radial_distribution</text>
<text text-anchor="middle" x="106" y="-141.5" font-family="Helvetica,sans-Serif" font-size="10.00" fill="#000000">_function.h</text>
</g>
<!-- Node23 -->
<g id="node2" class="node">
<title>Node23</title>
<g id="a_node2"><a xlink:href="pybind_8h.html" target="_top" xlink:title="This file includes all the header files containing definitions of functions to bind C++ and Python...">
<polygon fill="#ffffff" stroke="#000000" points="12,-67.5 12,-86.5 82,-86.5 82,-67.5 12,-67.5"/>
<text text-anchor="middle" x="47" y="-74.5" font-family="Helvetica,sans-Serif" font-size="10.00" fill="#000000">src/pybind.h</text>
</a>
</g>
</g>
<!-- Node22&#45;&gt;Node23 -->
<g id="edge1" class="edge">
<title>Node22&#45;&gt;Node23</title>
<path fill="none" stroke="#191970" d="M83.9336,-125.8275C73.5321,-112.0763 61.8117,-96.5815 54.4182,-86.8072"/>
<polygon fill="#191970" stroke="#191970" points="81.365,-128.2335 90.1891,-134.0974 86.9478,-124.0106 81.365,-128.2335"/>
</g>
<!-- Node25 -->
<g id="node4" class="node">
<title>Node25</title>
<g id="a_node4"><a xlink:href="py__pro__radial__distribution__function_8cpp.html" target="_top" xlink:title="This file is for binding ProRadialDistributionFunction class to Python. ">
<polygon fill="#ffffff" stroke="#000000" points="100,-56.5 100,-97.5 230,-97.5 230,-56.5 100,-56.5"/>
<text text-anchor="start" x="108" y="-85.5" font-family="Helvetica,sans-Serif" font-size="10.00" fill="#000000">src/pybind/processors</text>
<text text-anchor="start" x="108" y="-74.5" font-family="Helvetica,sans-Serif" font-size="10.00" fill="#000000">/py_pro_radial_distribution</text>
<text text-anchor="middle" x="165" y="-63.5" font-family="Helvetica,sans-Serif" font-size="10.00" fill="#000000">_function.cpp</text>
</a>
</g>
</g>
<!-- Node22&#45;&gt;Node25 -->
<g id="edge3" class="edge">
<title>Node22&#45;&gt;Node25</title>
<path fill="none" stroke="#191970" d="M127.8674,-126.0905C134.9988,-116.6626 142.7692,-106.3899 149.35,-97.6898"/>
<polygon fill="#191970" stroke="#191970" points="125.0522,-124.0106 121.8109,-134.0974 130.635,-128.2335 125.0522,-124.0106"/>
</g>
<!-- Node24 -->
<g id="node3" class="node">
<title>Node24</title>
<g id="a_node3"><a xlink:href="ppap4lmp_8cpp.html" target="_top" xlink:title="This file has no implementation, only includes a header file to bind C++ and Python. ">
<polygon fill="#ffffff" stroke="#000000" points="0,-.5 0,-19.5 94,-19.5 94,-.5 0,-.5"/>
<text text-anchor="middle" x="47" y="-7.5" font-family="Helvetica,sans-Serif" font-size="10.00" fill="#000000">src/ppap4lmp.cpp</text>
</a>
</g>
</g>
<!-- Node23&#45;&gt;Node24 -->
<g id="edge2" class="edge">
<title>Node23&#45;&gt;Node24</title>
<path fill="none" stroke="#191970" d="M47,-57.1079C47,-44.714 47,-29.3263 47,-19.5817"/>
<polygon fill="#191970" stroke="#191970" points="43.5001,-57.4005 47,-67.4005 50.5001,-57.4006 43.5001,-57.4005"/>
</g>
</g>
</svg>
