<?xml version="1.0" encoding="UTF-8" standalone="no"?>
<!DOCTYPE svg PUBLIC "-//W3C//DTD SVG 1.1//EN"
 "http://www.w3.org/Graphics/SVG/1.1/DTD/svg11.dtd">
<!-- Generated by graphviz version 2.40.1 (20161225.0304)
 -->
<!-- Title: pybind_invoker Pages: 1 -->
<svg width="364pt" height="104pt"
 viewBox="0.00 0.00 364.00 104.00" xmlns="http://www.w3.org/2000/svg" xmlns:xlink="http://www.w3.org/1999/xlink">
<g id="graph0" class="graph" transform="scale(1 1) rotate(0) translate(4 100)">
<title>pybind_invoker</title>
<polygon fill="#ffffff" stroke="transparent" points="-4,4 -4,-100 360,-100 360,4 -4,4"/>
<!-- Node0 -->
<g id="node1" class="node">
<title>Node0</title>
<polygon fill="#bfbfbf" stroke="#000000" points="0,-38.5 0,-57.5 82,-57.5 82,-38.5 0,-38.5"/>
<text text-anchor="middle" x="41" y="-45.5" font-family="Helvetica,sans-Serif" font-size="10.00" fill="#000000">pybind_invoker</text>
</g>
<!-- Node1 -->
<g id="node2" class="node">
<title>Node1</title>
<g id="a_node2"><a xlink:href="classInvoker.html#a72e473312201d41ea0711cea5346476c" target="_top" xlink:title="Execute analysis defined by elements of processors. ">
<polygon fill="#ffffff" stroke="#000000" points="118,-38.5 118,-57.5 207,-57.5 207,-38.5 118,-38.5"/>
<text text-anchor="middle" x="162.5" y="-45.5" font-family="Helvetica,sans-Serif" font-size="10.00" fill="#000000">Invoker::execute</text>
</a>
</g>
</g>
<!-- Node0&#45;&gt;Node1 -->
<g id="edge1" class="edge">
<title>Node0&#45;&gt;Node1</title>
<path fill="none" stroke="#191970" d="M82.1344,-48C90.259,-48 98.908,-48 107.408,-48"/>
<polygon fill="#191970" stroke="#191970" points="107.657,-51.5001 117.657,-48 107.6569,-44.5001 107.657,-51.5001"/>
</g>
<!-- Node2 -->
<g id="node3" class="node">
<title>Node2</title>
<g id="a_node3"><a xlink:href="classInvoker.html#a9a45f01fd7b3dae7a54e0a0fff94dff5" target="_top" xlink:title="Implementation how to execute a computationally expensive part of analysis. ">
<polygon fill="#ffffff" stroke="#000000" points="243,-76.5 243,-95.5 356,-95.5 356,-76.5 243,-76.5"/>
<text text-anchor="middle" x="299.5" y="-83.5" font-family="Helvetica,sans-Serif" font-size="10.00" fill="#000000">Invoker::execute_impl</text>
</a>
</g>
</g>
<!-- Node1&#45;&gt;Node2 -->
<g id="edge2" class="edge">
<title>Node1&#45;&gt;Node2</title>
<path fill="none" stroke="#191970" d="M197.0709,-57.589C214.6752,-62.4719 236.2793,-68.4643 255.101,-73.685"/>
<polygon fill="#191970" stroke="#191970" points="254.3685,-77.1138 264.9402,-76.4141 256.2395,-70.3685 254.3685,-77.1138"/>
</g>
<!-- Node3 -->
<g id="node4" class="node">
<title>Node3</title>
<g id="a_node4"><a xlink:href="namespaceutils.html#acee57b54806ee63ddaa30518fed90adb" target="_top" xlink:title="Raise (for Python) and throw (for C++) a runtime error. ">
<polygon fill="#ffffff" stroke="#000000" points="250.5,-38.5 250.5,-57.5 348.5,-57.5 348.5,-38.5 250.5,-38.5"/>
<text text-anchor="middle" x="299.5" y="-45.5" font-family="Helvetica,sans-Serif" font-size="10.00" fill="#000000">utils::runtime_error</text>
</a>
</g>
</g>
<!-- Node1&#45;&gt;Node3 -->
<g id="edge3" class="edge">
<title>Node1&#45;&gt;Node3</title>
<path fill="none" stroke="#191970" d="M207.3589,-48C217.8744,-48 229.2371,-48 240.2727,-48"/>
<polygon fill="#191970" stroke="#191970" points="240.2818,-51.5001 250.2818,-48 240.2817,-44.5001 240.2818,-51.5001"/>
</g>
<!-- Node4 -->
<g id="node5" class="node">
<title>Node4</title>
<g id="a_node5"><a xlink:href="namespaceutils.html#a26267fe7371b6215c5d61374d716527b" target="_top" xlink:title="Logging a message. ">
<polygon fill="#ffffff" stroke="#000000" points="273,-.5 273,-19.5 326,-19.5 326,-.5 273,-.5"/>
<text text-anchor="middle" x="299.5" y="-7.5" font-family="Helvetica,sans-Serif" font-size="10.00" fill="#000000">utils::log</text>
</a>
</g>
</g>
<!-- Node1&#45;&gt;Node4 -->
<g id="edge4" class="edge">
<title>Node1&#45;&gt;Node4</title>
<path fill="none" stroke="#191970" d="M197.0709,-38.411C217.143,-32.8436 242.4149,-25.8338 262.8338,-20.1702"/>
<polygon fill="#191970" stroke="#191970" points="264.0184,-23.4738 272.719,-17.4283 262.1473,-16.7285 264.0184,-23.4738"/>
</g>
</g>
</svg>
