<?xml version="1.0" encoding="UTF-8" standalone="no"?>
<!DOCTYPE svg PUBLIC "-//W3C//DTD SVG 1.1//EN"
 "http://www.w3.org/Graphics/SVG/1.1/DTD/svg11.dtd">
<!-- Generated by graphviz version 2.40.1 (20161225.0304)
 -->
<!-- Title: src/pybind/starters/py_starter.h Pages: 1 -->
<!--zoomable 218 -->
<svg id="main" version="1.1" xmlns="http://www.w3.org/2000/svg" xmlns:xlink="http://www.w3.org/1999/xlink" xml:space="preserve" onload="init(evt)">
<style type="text/css"><![CDATA[
.edge:hover path { stroke: red; }
.edge:hover polygon { stroke: red; fill: red; }
]]></style>
<script type="text/javascript"><![CDATA[
var edges = document.getElementsByTagName('g');
if (edges && edges.length) {
  for (var i=0;i<edges.length;i++) {
    if (edges[i].id.substr(0,4)=='edge') {
      edges[i].setAttribute('class','edge');
    }
  }
}
]]></script>
        <defs>
                <circle id="rim" cx="0" cy="0" r="7"/>
                <circle id="rim2" cx="0" cy="0" r="3.5"/>
                <g id="zoomPlus">
                        <use xlink:href="#rim" fill="#404040">
                                <set attributeName="fill" to="#808080" begin="zoomplus.mouseover" end="zoomplus.mouseout"/>
                        </use>
                        <path d="M-4,0h8M0,-4v8" fill="none" stroke="white" stroke-width="1.5" pointer-events="none"/>
                </g>
                <g id="zoomMin">
                        <use xlink:href="#rim" fill="#404040">
                                <set attributeName="fill" to="#808080" begin="zoomminus.mouseover" end="zoomminus.mouseout"/>
                        </use>
                        <path d="M-4,0h8" fill="none" stroke="white" stroke-width="1.5" pointer-events="none"/>
                </g>
                <g id="dirArrow">
                        <path fill="none" stroke="white" stroke-width="1.5" d="M0,-3.0v7 M-2.5,-0.5L0,-3.0L2.5,-0.5"/>
                </g>
               <g id="resetDef">
                       <use xlink:href="#rim2" fill="#404040">
                               <set attributeName="fill" to="#808080" begin="reset.mouseover" end="reset.mouseout"/>
                       </use>
               </g>
        </defs>

<script type="text/javascript">
var viewWidth = 857;
var viewHeight = 218;
var sectionId = 'dynsection-1';
</script>
<script xlink:href="svgpan.js"/>
<svg id="graph" class="graph">
<g id="viewport">
<title>src/pybind/starters/py_starter.h</title>
<polygon fill="#ffffff" stroke="transparent" points="-4,4 -4,-214 853.286,-214 853.286,4 -4,4"/>
<!-- Node23 -->
<g id="node1" class="node">
<title>Node23</title>
<polygon fill="#bfbfbf" stroke="#000000" points="305.786,-179.5 305.786,-209.5 403.786,-209.5 403.786,-179.5 305.786,-179.5"/>
<text text-anchor="start" x="313.786" y="-197.5" font-family="Helvetica,sans-Serif" font-size="10.00" fill="#000000">src/pybind/starters</text>
<text text-anchor="middle" x="354.786" y="-186.5" font-family="Helvetica,sans-Serif" font-size="10.00" fill="#000000">/py_starter.h</text>
</g>
<!-- Node24 -->
<g id="node2" class="node">
<title>Node24</title>
<g id="a_node2"><a xlink:href="pybind_8h.html" target="_top" xlink:title="This file includes all the header files containing definitions of functions to bind C++ and Python...">
<polygon fill="#ffffff" stroke="#000000" points="319.786,-56.5 319.786,-75.5 389.786,-75.5 389.786,-56.5 319.786,-56.5"/>
<text text-anchor="middle" x="354.786" y="-63.5" font-family="Helvetica,sans-Serif" font-size="10.00" fill="#000000">src/pybind.h</text>
</a>
</g>
</g>
<!-- Node23&#45;&gt;Node24 -->
<g id="edge1" class="edge">
<title>Node23&#45;&gt;Node24</title>
<path fill="none" stroke="#191970" d="M295.8126,-189.9351C201.4999,-182.0306 25.3851,-164.5541 6.786,-143 -2.215,-132.5689 -2.2956,-122.3611 6.786,-112 27.2476,-88.6557 235.5806,-73.3319 319.7704,-68.0491"/>
<polygon fill="#191970" stroke="#191970" points="295.53,-193.4236 305.7847,-190.7608 296.1077,-186.4475 295.53,-193.4236"/>
</g>
<!-- Node26 -->
<g id="node4" class="node">
<title>Node26</title>
<g id="a_node4"><a xlink:href="py__sta__beads_8h.html" target="_top" xlink:title="This file is for binding StaBeads class to Python. ">
<polygon fill="#ffffff" stroke="#000000" points="15.786,-112.5 15.786,-142.5 113.786,-142.5 113.786,-112.5 15.786,-112.5"/>
<text text-anchor="start" x="23.786" y="-130.5" font-family="Helvetica,sans-Serif" font-size="10.00" fill="#000000">src/pybind/starters</text>
<text text-anchor="middle" x="64.786" y="-119.5" font-family="Helvetica,sans-Serif" font-size="10.00" fill="#000000">/py_sta_beads.h</text>
</a>
</g>
</g>
<!-- Node23&#45;&gt;Node26 -->
<g id="edge3" class="edge">
<title>Node23&#45;&gt;Node26</title>
<path fill="none" stroke="#191970" d="M295.7618,-182.125C248.777,-172.0991 181.4068,-157.3324 122.786,-143 119.8499,-142.2821 116.8347,-141.528 113.796,-140.755"/>
<polygon fill="#191970" stroke="#191970" points="295.2541,-185.5953 305.7636,-184.2534 296.7111,-178.7486 295.2541,-185.5953"/>
</g>
<!-- Node27 -->
<g id="node5" class="node">
<title>Node27</title>
<g id="a_node5"><a xlink:href="py__sta__copy_8h.html" target="_top" xlink:title="This file is for binding StaCopy class to Python. ">
<polygon fill="#ffffff" stroke="#000000" points="131.786,-112.5 131.786,-142.5 229.786,-142.5 229.786,-112.5 131.786,-112.5"/>
<text text-anchor="start" x="139.786" y="-130.5" font-family="Helvetica,sans-Serif" font-size="10.00" fill="#000000">src/pybind/starters</text>
<text text-anchor="middle" x="180.786" y="-119.5" font-family="Helvetica,sans-Serif" font-size="10.00" fill="#000000">/py_sta_copy.h</text>
</a>
</g>
</g>
<!-- Node23&#45;&gt;Node27 -->
<g id="edge5" class="edge">
<title>Node23&#45;&gt;Node27</title>
<path fill="none" stroke="#191970" d="M306.3907,-175.865C279.154,-165.3773 245.5853,-152.4515 220.0053,-142.6017"/>
<polygon fill="#191970" stroke="#191970" points="305.1472,-179.1367 315.737,-179.4639 307.6627,-172.6042 305.1472,-179.1367"/>
</g>
<!-- Node28 -->
<g id="node6" class="node">
<title>Node28</title>
<g id="a_node6"><a xlink:href="py__sta__custom_8h.html" target="_top" xlink:title="This file is for binding StaCustom class to Python. ">
<polygon fill="#ffffff" stroke="#000000" points="247.786,-112.5 247.786,-142.5 345.786,-142.5 345.786,-112.5 247.786,-112.5"/>
<text text-anchor="start" x="255.786" y="-130.5" font-family="Helvetica,sans-Serif" font-size="10.00" fill="#000000">src/pybind/starters</text>
<text text-anchor="middle" x="296.786" y="-119.5" font-family="Helvetica,sans-Serif" font-size="10.00" fill="#000000">/py_sta_custom.h</text>
</a>
</g>
</g>
<!-- Node23&#45;&gt;Node28 -->
<g id="edge7" class="edge">
<title>Node23&#45;&gt;Node28</title>
<path fill="none" stroke="#191970" d="M334.9955,-171.6385C326.7082,-162.0653 317.3014,-151.1987 309.895,-142.6432"/>
<polygon fill="#191970" stroke="#191970" points="332.4337,-174.0268 341.6249,-179.2967 337.7261,-169.4453 332.4337,-174.0268"/>
</g>
<!-- Node29 -->
<g id="node7" class="node">
<title>Node29</title>
<g id="a_node7"><a xlink:href="py__sta__dump_8h.html" target="_top" xlink:title="This file is for binding StaDump class to Python. ">
<polygon fill="#ffffff" stroke="#000000" points="363.786,-112.5 363.786,-142.5 461.786,-142.5 461.786,-112.5 363.786,-112.5"/>
<text text-anchor="start" x="371.786" y="-130.5" font-family="Helvetica,sans-Serif" font-size="10.00" fill="#000000">src/pybind/starters</text>
<text text-anchor="middle" x="412.786" y="-119.5" font-family="Helvetica,sans-Serif" font-size="10.00" fill="#000000">/py_sta_dump.h</text>
</a>
</g>
</g>
<!-- Node23&#45;&gt;Node29 -->
<g id="edge9" class="edge">
<title>Node23&#45;&gt;Node29</title>
<path fill="none" stroke="#191970" d="M374.5766,-171.6385C382.8639,-162.0653 392.2707,-151.1987 399.677,-142.6432"/>
<polygon fill="#191970" stroke="#191970" points="371.8459,-169.4453 367.9471,-179.2967 377.1384,-174.0268 371.8459,-169.4453"/>
</g>
<!-- Node30 -->
<g id="node8" class="node">
<title>Node30</title>
<g id="a_node8"><a xlink:href="py__sta__molecules_8h.html" target="_top" xlink:title="This file is for binding StaMolecules class to Python. ">
<polygon fill="#ffffff" stroke="#000000" points="480.286,-112.5 480.286,-142.5 587.286,-142.5 587.286,-112.5 480.286,-112.5"/>
<text text-anchor="start" x="488.286" y="-130.5" font-family="Helvetica,sans-Serif" font-size="10.00" fill="#000000">src/pybind/starters</text>
<text text-anchor="middle" x="533.786" y="-119.5" font-family="Helvetica,sans-Serif" font-size="10.00" fill="#000000">/py_sta_molecules.h</text>
</a>
</g>
</g>
<!-- Node23&#45;&gt;Node30 -->
<g id="edge11" class="edge">
<title>Node23&#45;&gt;Node30</title>
<path fill="none" stroke="#191970" d="M404.5721,-175.865C432.5914,-165.3773 467.1247,-152.4515 493.4397,-142.6017"/>
<polygon fill="#191970" stroke="#191970" points="403.0956,-172.6804 394.9571,-179.4639 405.5495,-179.2362 403.0956,-172.6804"/>
</g>
<!-- Node31 -->
<g id="node9" class="node">
<title>Node31</title>
<g id="a_node9"><a xlink:href="py__sta__dump__atoms_8h.html" target="_top" xlink:title="This file is for binding StaDumpAtoms class to Python. ">
<polygon fill="#ffffff" stroke="#000000" points="605.286,-112.5 605.286,-142.5 724.286,-142.5 724.286,-112.5 605.286,-112.5"/>
<text text-anchor="start" x="613.286" y="-130.5" font-family="Helvetica,sans-Serif" font-size="10.00" fill="#000000">src/pybind/starters</text>
<text text-anchor="middle" x="664.786" y="-119.5" font-family="Helvetica,sans-Serif" font-size="10.00" fill="#000000">/py_sta_dump_atoms.h</text>
</a>
</g>
</g>
<!-- Node23&#45;&gt;Node31 -->
<g id="edge13" class="edge">
<title>Node23&#45;&gt;Node31</title>
<path fill="none" stroke="#191970" d="M413.7636,-182.1972C462.7962,-171.9093 534.3871,-156.7504 596.786,-143 599.5057,-142.4007 602.2856,-141.7839 605.0929,-141.1577"/>
<polygon fill="#191970" stroke="#191970" points="413.0302,-178.7747 403.961,-184.2521 414.4664,-185.6258 413.0302,-178.7747"/>
</g>
<!-- Node32 -->
<g id="node10" class="node">
<title>Node32</title>
<g id="a_node10"><a xlink:href="py__sta__dump__box_8h.html" target="_top" xlink:title="This file is for binding StaDumpBox class to Python. ">
<polygon fill="#ffffff" stroke="#000000" points="742.286,-112.5 742.286,-142.5 849.286,-142.5 849.286,-112.5 742.286,-112.5"/>
<text text-anchor="start" x="750.286" y="-130.5" font-family="Helvetica,sans-Serif" font-size="10.00" fill="#000000">src/pybind/starters</text>
<text text-anchor="middle" x="795.786" y="-119.5" font-family="Helvetica,sans-Serif" font-size="10.00" fill="#000000">/py_sta_dump_box.h</text>
</a>
</g>
</g>
<!-- Node23&#45;&gt;Node32 -->
<g id="edge15" class="edge">
<title>Node23&#45;&gt;Node32</title>
<path fill="none" stroke="#191970" d="M413.9974,-188.4937C488.8602,-180.4328 621.5284,-164.5914 733.786,-143 736.5099,-142.4761 739.293,-141.9067 742.0979,-141.3057"/>
<polygon fill="#191970" stroke="#191970" points="413.3978,-185.0377 403.8257,-189.5792 414.1407,-191.9982 413.3978,-185.0377"/>
</g>
<!-- Node25 -->
<g id="node3" class="node">
<title>Node25</title>
<g id="a_node3"><a xlink:href="ppap4lmp_8cpp.html" target="_top" xlink:title="This file has no implementation, only includes a header file to bind C++ and Python. ">
<polygon fill="#ffffff" stroke="#000000" points="307.786,-.5 307.786,-19.5 401.786,-19.5 401.786,-.5 307.786,-.5"/>
<text text-anchor="middle" x="354.786" y="-7.5" font-family="Helvetica,sans-Serif" font-size="10.00" fill="#000000">src/ppap4lmp.cpp</text>
</a>
</g>
</g>
<!-- Node24&#45;&gt;Node25 -->
<g id="edge2" class="edge">
<title>Node24&#45;&gt;Node25</title>
<path fill="none" stroke="#191970" d="M354.786,-46.1575C354.786,-37.155 354.786,-26.9199 354.786,-19.6427"/>
<polygon fill="#191970" stroke="#191970" points="351.2861,-46.2455 354.786,-56.2455 358.2861,-46.2456 351.2861,-46.2455"/>
</g>
<!-- Node26&#45;&gt;Node24 -->
<g id="edge4" class="edge">
<title>Node26&#45;&gt;Node24</title>
<path fill="none" stroke="#191970" d="M124.1756,-111.7555C199.1485,-94.557 276.0326,-80.1184 319.6525,-72.2263"/>
<polygon fill="#191970" stroke="#191970" points="123.0457,-108.4244 114.092,-114.0884 124.6236,-115.2443 123.0457,-108.4244"/>
</g>
<!-- Node27&#45;&gt;Node24 -->
<g id="edge6" class="edge">
<title>Node27&#45;&gt;Node24</title>
<path fill="none" stroke="#191970" d="M232.7967,-109.1169C264.0529,-98.0695 302.539,-84.4666 327.8222,-75.5303"/>
<polygon fill="#191970" stroke="#191970" points="231.6132,-105.8229 223.3512,-112.4554 233.946,-112.4228 231.6132,-105.8229"/>
</g>
<!-- Node28&#45;&gt;Node24 -->
<g id="edge8" class="edge">
<title>Node28&#45;&gt;Node24</title>
<path fill="none" stroke="#191970" d="M318.0415,-104.9618C327.4859,-94.9475 338.1128,-83.6794 345.4995,-75.8469"/>
<polygon fill="#191970" stroke="#191970" points="315.4379,-102.6213 311.1231,-112.2977 320.5304,-107.424 315.4379,-102.6213"/>
</g>
<!-- Node29&#45;&gt;Node24 -->
<g id="edge10" class="edge">
<title>Node29&#45;&gt;Node24</title>
<path fill="none" stroke="#191970" d="M391.5305,-104.9618C382.0861,-94.9475 371.4592,-83.6794 364.0726,-75.8469"/>
<polygon fill="#191970" stroke="#191970" points="389.0416,-107.424 398.449,-112.2977 394.1342,-102.6213 389.0416,-107.424"/>
</g>
<!-- Node30&#45;&gt;Node24 -->
<g id="edge12" class="edge">
<title>Node30&#45;&gt;Node24</title>
<path fill="none" stroke="#191970" d="M480.2808,-109.1169C448.1265,-98.0695 408.5344,-84.4666 382.5247,-75.5303"/>
<polygon fill="#191970" stroke="#191970" points="479.403,-112.5161 489.9977,-112.4554 481.6776,-105.8959 479.403,-112.5161"/>
</g>
<!-- Node31&#45;&gt;Node24 -->
<g id="edge14" class="edge">
<title>Node31&#45;&gt;Node24</title>
<path fill="none" stroke="#191970" d="M595.0502,-111.6738C516.5228,-95.4034 435.4041,-80.4687 390.1342,-72.3042"/>
<polygon fill="#191970" stroke="#191970" points="594.6052,-115.1562 605.1087,-113.7684 596.0323,-108.3032 594.6052,-115.1562"/>
</g>
<!-- Node32&#45;&gt;Node24 -->
<g id="edge16" class="edge">
<title>Node32&#45;&gt;Node24</title>
<path fill="none" stroke="#191970" d="M731.8844,-111.7742C600.7041,-88.0744 455.5378,-74.3345 390.0158,-68.8036"/>
<polygon fill="#191970" stroke="#191970" points="731.6399,-115.2876 742.1069,-113.6468 732.9012,-108.4021 731.6399,-115.2876"/>
</g>
</g>
</svg>
        <g id="navigator" transform="translate(0 0)" fill="#404254">
                <rect fill="#f2f5e9" fill-opacity="0.5" stroke="#606060" stroke-width=".5" x="0" y="0" width="60" height="60"/>
                <use id="zoomplus" xlink:href="#zoomPlus" x="17" y="9" onmousedown="handleZoom(evt,'in')"/>
                <use id="zoomminus" xlink:href="#zoomMin" x="42" y="9" onmousedown="handleZoom(evt,'out')"/>
                <use id="reset" xlink:href="#resetDef" x="30" y="36" onmousedown="handleReset()"/>
                <g id="arrowUp" xlink:href="#dirArrow" transform="translate(30 24)" onmousedown="handlePan(0,-1)">
                  <use xlink:href="#rim" fill="#404040">
                        <set attributeName="fill" to="#808080" begin="arrowUp.mouseover" end="arrowUp.mouseout"/>
                  </use>
                  <path fill="none" stroke="white" stroke-width="1.5" d="M0,-3.0v7 M-2.5,-0.5L0,-3.0L2.5,-0.5"/>
                </g>
                <g id="arrowRight" xlink:href="#dirArrow" transform="rotate(90) translate(36 -43)" onmousedown="handlePan(1,0)">
                  <use xlink:href="#rim" fill="#404040">
                        <set attributeName="fill" to="#808080" begin="arrowRight.mouseover" end="arrowRight.mouseout"/>
                  </use>
                  <path fill="none" stroke="white" stroke-width="1.5" d="M0,-3.0v7 M-2.5,-0.5L0,-3.0L2.5,-0.5"/>
                </g>
                <g id="arrowDown" xlink:href="#dirArrow" transform="rotate(180) translate(-30 -48)" onmousedown="handlePan(0,1)">
                  <use xlink:href="#rim" fill="#404040">
                        <set attributeName="fill" to="#808080" begin="arrowDown.mouseover" end="arrowDown.mouseout"/>
                  </use>
                  <path fill="none" stroke="white" stroke-width="1.5" d="M0,-3.0v7 M-2.5,-0.5L0,-3.0L2.5,-0.5"/>
                </g>
                <g id="arrowLeft" xlink:href="#dirArrow" transform="rotate(270) translate(-36 17)" onmousedown="handlePan(-1,0)">
                  <use xlink:href="#rim" fill="#404040">
                        <set attributeName="fill" to="#808080" begin="arrowLeft.mouseover" end="arrowLeft.mouseout"/>
                  </use>
                  <path fill="none" stroke="white" stroke-width="1.5" d="M0,-3.0v7 M-2.5,-0.5L0,-3.0L2.5,-0.5"/>
                </g>
        </g>
        <svg viewBox="0 0 15 15" width="100%" height="30px" preserveAspectRatio="xMaxYMin meet">
         <g id="arrow_out" transform="scale(0.3 0.3)">
          <a xlink:href="py__starter_8h__dep__incl_org.svg" target="_base">
           <rect id="button" ry="5" rx="5" y="6" x="6" height="38" width="38"
                fill="#f2f5e9" fill-opacity="0.5" stroke="#606060" stroke-width="1.0"/>
           <path id="arrow"
             d="M 11.500037,31.436501 C 11.940474,20.09759 22.043105,11.32322 32.158766,21.979434 L 37.068811,17.246167 C 37.068811,17.246167 37.088388,32 37.088388,32 L 22.160133,31.978069 C 22.160133,31.978069 26.997745,27.140456 26.997745,27.140456 C 18.528582,18.264221 13.291696,25.230495 11.500037,31.436501 z"
             style="fill:#404040;"/>
          </a>
         </g>
        </svg>
</svg>
