<?xml version="1.0" encoding="UTF-8" standalone="no"?>
<!DOCTYPE svg PUBLIC "-//W3C//DTD SVG 1.1//EN"
 "http://www.w3.org/Graphics/SVG/1.1/DTD/svg11.dtd">
<!-- Generated by graphviz version 2.40.1 (20161225.0304)
 -->
<!-- Title: src/pybind/processors/py_processor.h Pages: 1 -->
<!--zoomable 229 -->
<svg id="main" version="1.1" xmlns="http://www.w3.org/2000/svg" xmlns:xlink="http://www.w3.org/1999/xlink" xml:space="preserve" onload="init(evt)">
<style type="text/css"><![CDATA[
.edge:hover path { stroke: red; }
.edge:hover polygon { stroke: red; fill: red; }
]]></style>
<script type="text/javascript"><![CDATA[
var edges = document.getElementsByTagName('g');
if (edges && edges.length) {
  for (var i=0;i<edges.length;i++) {
    if (edges[i].id.substr(0,4)=='edge') {
      edges[i].setAttribute('class','edge');
    }
  }
}
]]></script>
        <defs>
                <circle id="rim" cx="0" cy="0" r="7"/>
                <circle id="rim2" cx="0" cy="0" r="3.5"/>
                <g id="zoomPlus">
                        <use xlink:href="#rim" fill="#404040">
                                <set attributeName="fill" to="#808080" begin="zoomplus.mouseover" end="zoomplus.mouseout"/>
                        </use>
                        <path d="M-4,0h8M0,-4v8" fill="none" stroke="white" stroke-width="1.5" pointer-events="none"/>
                </g>
                <g id="zoomMin">
                        <use xlink:href="#rim" fill="#404040">
                                <set attributeName="fill" to="#808080" begin="zoomminus.mouseover" end="zoomminus.mouseout"/>
                        </use>
                        <path d="M-4,0h8" fill="none" stroke="white" stroke-width="1.5" pointer-events="none"/>
                </g>
                <g id="dirArrow">
                        <path fill="none" stroke="white" stroke-width="1.5" d="M0,-3.0v7 M-2.5,-0.5L0,-3.0L2.5,-0.5"/>
                </g>
               <g id="resetDef">
                       <use xlink:href="#rim2" fill="#404040">
                               <set attributeName="fill" to="#808080" begin="reset.mouseover" end="reset.mouseout"/>
                       </use>
               </g>
        </defs>

<script type="text/javascript">
var viewWidth = 1112;
var viewHeight = 229;
var sectionId = 'dynsection-1';
</script>
<script xlink:href="svgpan.js"/>
<svg id="graph" class="graph">
<g id="viewport">
<title>src/pybind/processors/py_processor.h</title>
<polygon fill="#ffffff" stroke="transparent" points="-4,4 -4,-225 1107.828,-225 1107.828,4 -4,4"/>
<!-- Node21 -->
<g id="node1" class="node">
<title>Node21</title>
<polygon fill="#bfbfbf" stroke="#000000" points="380.828,-190.5 380.828,-220.5 493.828,-220.5 493.828,-190.5 380.828,-190.5"/>
<text text-anchor="start" x="388.828" y="-208.5" font-family="Helvetica,sans-Serif" font-size="10.00" fill="#000000">src/pybind/processors</text>
<text text-anchor="middle" x="437.328" y="-197.5" font-family="Helvetica,sans-Serif" font-size="10.00" fill="#000000">/py_processor.h</text>
</g>
<!-- Node22 -->
<g id="node2" class="node">
<title>Node22</title>
<g id="a_node2"><a xlink:href="pybind_8h.html" target="_top" xlink:title="This file includes all the header files containing definitions of functions to bind C++ and Python...">
<polygon fill="#ffffff" stroke="#000000" points="402.328,-56.5 402.328,-75.5 472.328,-75.5 472.328,-56.5 402.328,-56.5"/>
<text text-anchor="middle" x="437.328" y="-63.5" font-family="Helvetica,sans-Serif" font-size="10.00" fill="#000000">src/pybind.h</text>
</a>
</g>
</g>
<!-- Node21&#45;&gt;Node22 -->
<g id="edge1" class="edge">
<title>Node21&#45;&gt;Node22</title>
<path fill="none" stroke="#191970" d="M370.5069,-202.2529C256.142,-196.0056 32.8578,-180.5308 9.328,-154 -3.0578,-140.0345 -3.1461,-125.8867 9.328,-112 35.4223,-82.9509 304.1797,-70.6736 401.9845,-67.1447"/>
<polygon fill="#191970" stroke="#191970" points="370.3821,-205.7512 380.5557,-202.7934 370.7581,-198.7613 370.3821,-205.7512"/>
</g>
<!-- Node24 -->
<g id="node4" class="node">
<title>Node24</title>
<g id="a_node4"><a xlink:href="py__pro__data_8h_source.html" target="_top" xlink:title="src/pybind/processors\l/py_pro_data.h">
<polygon fill="#ffffff" stroke="#000000" points="18.828,-118 18.828,-148 131.828,-148 131.828,-118 18.828,-118"/>
<text text-anchor="start" x="26.828" y="-136" font-family="Helvetica,sans-Serif" font-size="10.00" fill="#000000">src/pybind/processors</text>
<text text-anchor="middle" x="75.328" y="-125" font-family="Helvetica,sans-Serif" font-size="10.00" fill="#000000">/py_pro_data.h</text>
</a>
</g>
</g>
<!-- Node21&#45;&gt;Node24 -->
<g id="edge3" class="edge">
<title>Node21&#45;&gt;Node24</title>
<path fill="none" stroke="#191970" d="M370.5052,-196.5215C310.1596,-187.788 219.1545,-173.0584 141.328,-154 134.3204,-152.284 126.9722,-150.2188 119.8279,-148.0623"/>
<polygon fill="#191970" stroke="#191970" points="370.2667,-200.023 380.662,-197.9767 371.2595,-193.0938 370.2667,-200.023"/>
</g>
<!-- Node25 -->
<g id="node5" class="node">
<title>Node25</title>
<g id="a_node5"><a xlink:href="py__pro__thickness__profile_8h_source.html" target="_top" xlink:title="src/pybind/processors\l/py_pro_thickness_profile.h">
<polygon fill="#ffffff" stroke="#000000" points="150.328,-118 150.328,-148 286.328,-148 286.328,-118 150.328,-118"/>
<text text-anchor="start" x="158.328" y="-136" font-family="Helvetica,sans-Serif" font-size="10.00" fill="#000000">src/pybind/processors</text>
<text text-anchor="middle" x="218.328" y="-125" font-family="Helvetica,sans-Serif" font-size="10.00" fill="#000000">/py_pro_thickness_profile.h</text>
</a>
</g>
</g>
<!-- Node21&#45;&gt;Node25 -->
<g id="edge5" class="edge">
<title>Node21&#45;&gt;Node25</title>
<path fill="none" stroke="#191970" d="M382.4045,-187.3175C345.7504,-175.1832 298.1347,-159.42 263.6468,-148.0028"/>
<polygon fill="#191970" stroke="#191970" points="381.3578,-190.6578 391.9511,-190.478 383.5577,-184.0125 381.3578,-190.6578"/>
</g>
<!-- Node26 -->
<g id="node6" class="node">
<title>Node26</title>
<g id="a_node6"><a xlink:href="py__pro__value__array_8h_source.html" target="_top" xlink:title="src/pybind/processors\l/py_pro_value_array.h">
<polygon fill="#ffffff" stroke="#000000" points="304.828,-118 304.828,-148 417.828,-148 417.828,-118 304.828,-118"/>
<text text-anchor="start" x="312.828" y="-136" font-family="Helvetica,sans-Serif" font-size="10.00" fill="#000000">src/pybind/processors</text>
<text text-anchor="middle" x="361.328" y="-125" font-family="Helvetica,sans-Serif" font-size="10.00" fill="#000000">/py_pro_value_array.h</text>
</a>
</g>
</g>
<!-- Node21&#45;&gt;Node26 -->
<g id="edge7" class="edge">
<title>Node21&#45;&gt;Node26</title>
<path fill="none" stroke="#191970" d="M414.0891,-183.3313C402.0834,-171.8785 387.7502,-158.2054 377.0551,-148.0028"/>
<polygon fill="#191970" stroke="#191970" points="411.9291,-186.1079 421.5808,-190.478 416.7609,-181.0429 411.9291,-186.1079"/>
</g>
<!-- Node27 -->
<g id="node7" class="node">
<title>Node27</title>
<g id="a_node7"><a xlink:href="py__pro__distance__in__molecule_8h_source.html" target="_top" xlink:title="src/pybind/processors\l/py_pro_distance_in_molecule.h">
<polygon fill="#ffffff" stroke="#000000" points="436.328,-118 436.328,-148 592.328,-148 592.328,-118 436.328,-118"/>
<text text-anchor="start" x="444.328" y="-136" font-family="Helvetica,sans-Serif" font-size="10.00" fill="#000000">src/pybind/processors</text>
<text text-anchor="middle" x="514.328" y="-125" font-family="Helvetica,sans-Serif" font-size="10.00" fill="#000000">/py_pro_distance_in_molecule.h</text>
</a>
</g>
</g>
<!-- Node21&#45;&gt;Node27 -->
<g id="edge9" class="edge">
<title>Node21&#45;&gt;Node27</title>
<path fill="none" stroke="#191970" d="M460.8727,-183.3313C473.0363,-171.8785 487.5581,-158.2054 498.394,-148.0028"/>
<polygon fill="#191970" stroke="#191970" points="458.1638,-181.0746 453.2825,-190.478 462.9624,-186.171 458.1638,-181.0746"/>
</g>
<!-- Node28 -->
<g id="node8" class="node">
<title>Node28</title>
<g id="a_node8"><a xlink:href="py__pro__mean__square__displacement_8h_source.html" target="_top" xlink:title="src/pybind/processors\l/py_pro_mean_square_displacement.h">
<polygon fill="#ffffff" stroke="#000000" points="610.328,-118 610.328,-148 794.328,-148 794.328,-118 610.328,-118"/>
<text text-anchor="start" x="618.328" y="-136" font-family="Helvetica,sans-Serif" font-size="10.00" fill="#000000">src/pybind/processors</text>
<text text-anchor="middle" x="702.328" y="-125" font-family="Helvetica,sans-Serif" font-size="10.00" fill="#000000">/py_pro_mean_square_displacement.h</text>
</a>
</g>
</g>
<!-- Node21&#45;&gt;Node28 -->
<g id="edge11" class="edge">
<title>Node21&#45;&gt;Node28</title>
<path fill="none" stroke="#191970" d="M502.0959,-187.7805C546.6675,-175.5864 605.2256,-159.5658 647.4902,-148.0028"/>
<polygon fill="#191970" stroke="#191970" points="500.9581,-184.4631 492.2362,-190.478 502.8054,-191.2149 500.9581,-184.4631"/>
</g>
<!-- Node29 -->
<g id="node9" class="node">
<title>Node29</title>
<g id="a_node9"><a xlink:href="py__pro__radial__distribution__function_8h_source.html" target="_top" xlink:title="src/pybind/processors\l/py_pro_radial_distribution\l_function.h">
<polygon fill="#ffffff" stroke="#000000" points="812.328,-112.5 812.328,-153.5 942.328,-153.5 942.328,-112.5 812.328,-112.5"/>
<text text-anchor="start" x="820.328" y="-141.5" font-family="Helvetica,sans-Serif" font-size="10.00" fill="#000000">src/pybind/processors</text>
<text text-anchor="start" x="820.328" y="-130.5" font-family="Helvetica,sans-Serif" font-size="10.00" fill="#000000">/py_pro_radial_distribution</text>
<text text-anchor="middle" x="877.328" y="-119.5" font-family="Helvetica,sans-Serif" font-size="10.00" fill="#000000">_function.h</text>
</a>
</g>
</g>
<!-- Node21&#45;&gt;Node29 -->
<g id="edge13" class="edge">
<title>Node21&#45;&gt;Node29</title>
<path fill="none" stroke="#191970" d="M503.9354,-198.8966C577.6524,-190.9474 699.7433,-175.8784 803.328,-154 806.2026,-153.3929 809.1296,-152.735 812.0788,-152.0396"/>
<polygon fill="#191970" stroke="#191970" points="503.434,-195.4302 493.8616,-199.971 504.1764,-202.3907 503.434,-195.4302"/>
</g>
<!-- Node30 -->
<g id="node10" class="node">
<title>Node30</title>
<g id="a_node10"><a xlink:href="py__pro__radial__distribution__function__with__deformation_8h_source.html" target="_top" xlink:title="src/pybind/processors\l/py_pro_radial_distribution\l_function_with_deformation.h">
<polygon fill="#ffffff" stroke="#000000" points="960.828,-112.5 960.828,-153.5 1103.828,-153.5 1103.828,-112.5 960.828,-112.5"/>
<text text-anchor="start" x="968.828" y="-141.5" font-family="Helvetica,sans-Serif" font-size="10.00" fill="#000000">src/pybind/processors</text>
<text text-anchor="start" x="968.828" y="-130.5" font-family="Helvetica,sans-Serif" font-size="10.00" fill="#000000">/py_pro_radial_distribution</text>
<text text-anchor="middle" x="1032.328" y="-119.5" font-family="Helvetica,sans-Serif" font-size="10.00" fill="#000000">_function_with_deformation.h</text>
</a>
</g>
</g>
<!-- Node21&#45;&gt;Node30 -->
<g id="edge15" class="edge">
<title>Node21&#45;&gt;Node30</title>
<path fill="none" stroke="#191970" d="M504.1108,-202.0959C602.5949,-196.3351 792.3035,-182.4069 951.328,-154 954.3312,-153.4635 957.3868,-152.8738 960.4659,-152.243"/>
<polygon fill="#191970" stroke="#191970" points="503.7856,-198.6087 494.0031,-202.6771 504.1875,-205.5972 503.7856,-198.6087"/>
</g>
<!-- Node23 -->
<g id="node3" class="node">
<title>Node23</title>
<g id="a_node3"><a xlink:href="ppap4lmp_8cpp.html" target="_top" xlink:title="This file has no implementation, only includes a header file to bind C++ and Python. ">
<polygon fill="#ffffff" stroke="#000000" points="390.328,-.5 390.328,-19.5 484.328,-19.5 484.328,-.5 390.328,-.5"/>
<text text-anchor="middle" x="437.328" y="-7.5" font-family="Helvetica,sans-Serif" font-size="10.00" fill="#000000">src/ppap4lmp.cpp</text>
</a>
</g>
</g>
<!-- Node22&#45;&gt;Node23 -->
<g id="edge2" class="edge">
<title>Node22&#45;&gt;Node23</title>
<path fill="none" stroke="#191970" d="M437.328,-46.1575C437.328,-37.155 437.328,-26.9199 437.328,-19.6427"/>
<polygon fill="#191970" stroke="#191970" points="433.8281,-46.2455 437.328,-56.2455 440.8281,-46.2456 433.8281,-46.2455"/>
</g>
<!-- Node24&#45;&gt;Node22 -->
<g id="edge4" class="edge">
<title>Node24&#45;&gt;Node22</title>
<path fill="none" stroke="#191970" d="M129.0537,-115.1568C133.1866,-114.0141 137.3119,-112.9451 141.328,-112 234.2212,-90.1406 346.0275,-75.984 401.9048,-69.7188"/>
<polygon fill="#191970" stroke="#191970" points="128.0794,-111.795 119.4439,-117.9333 130.0225,-118.52 128.0794,-111.795"/>
</g>
<!-- Node25&#45;&gt;Node22 -->
<g id="edge6" class="edge">
<title>Node25&#45;&gt;Node22</title>
<path fill="none" stroke="#191970" d="M277.2131,-114.9849C318.7697,-102.2713 372.796,-85.7427 406.2585,-75.5053"/>
<polygon fill="#191970" stroke="#191970" points="276.0144,-111.6914 267.4759,-117.9639 278.0623,-118.3852 276.0144,-111.6914"/>
</g>
<!-- Node26&#45;&gt;Node22 -->
<g id="edge8" class="edge">
<title>Node26&#45;&gt;Node22</title>
<path fill="none" stroke="#191970" d="M386.2372,-111.0406C399.8616,-99.0296 416.0438,-84.7637 426.4895,-75.555"/>
<polygon fill="#191970" stroke="#191970" points="383.7603,-108.5582 378.5736,-117.7967 388.3894,-113.8091 383.7603,-108.5582"/>
</g>
<!-- Node27&#45;&gt;Node22 -->
<g id="edge10" class="edge">
<title>Node27&#45;&gt;Node22</title>
<path fill="none" stroke="#191970" d="M489.0911,-111.0406C475.2874,-99.0296 458.8923,-84.7637 448.3091,-75.555"/>
<polygon fill="#191970" stroke="#191970" points="487.0141,-113.8728 496.8555,-117.7967 491.609,-108.592 487.0141,-113.8728"/>
</g>
<!-- Node28&#45;&gt;Node22 -->
<g id="edge12" class="edge">
<title>Node28&#45;&gt;Node22</title>
<path fill="none" stroke="#191970" d="M633.1181,-115.5016C581.6132,-102.4797 513.4323,-85.2415 472.6153,-74.9217"/>
<polygon fill="#191970" stroke="#191970" points="632.304,-118.9059 642.8568,-117.9639 634.0198,-112.1194 632.304,-118.9059"/>
</g>
<!-- Node29&#45;&gt;Node22 -->
<g id="edge14" class="edge">
<title>Node29&#45;&gt;Node22</title>
<path fill="none" stroke="#191970" d="M802.2386,-111.9236C675.8305,-86.857 536.3025,-73.8007 472.4353,-68.6312"/>
<polygon fill="#191970" stroke="#191970" points="801.5957,-115.3643 812.0899,-113.9072 802.9775,-108.502 801.5957,-115.3643"/>
</g>
<!-- Node30&#45;&gt;Node22 -->
<g id="edge16" class="edge">
<title>Node30&#45;&gt;Node22</title>
<path fill="none" stroke="#191970" d="M950.5605,-112.0179C765.4192,-80.7436 554.6021,-70.2764 472.487,-67.1549"/>
<polygon fill="#191970" stroke="#191970" points="950.0254,-115.4771 960.473,-113.7167 951.2079,-108.5777 950.0254,-115.4771"/>
</g>
</g>
</svg>
        <g id="navigator" transform="translate(0 0)" fill="#404254">
                <rect fill="#f2f5e9" fill-opacity="0.5" stroke="#606060" stroke-width=".5" x="0" y="0" width="60" height="60"/>
                <use id="zoomplus" xlink:href="#zoomPlus" x="17" y="9" onmousedown="handleZoom(evt,'in')"/>
                <use id="zoomminus" xlink:href="#zoomMin" x="42" y="9" onmousedown="handleZoom(evt,'out')"/>
                <use id="reset" xlink:href="#resetDef" x="30" y="36" onmousedown="handleReset()"/>
                <g id="arrowUp" xlink:href="#dirArrow" transform="translate(30 24)" onmousedown="handlePan(0,-1)">
                  <use xlink:href="#rim" fill="#404040">
                        <set attributeName="fill" to="#808080" begin="arrowUp.mouseover" end="arrowUp.mouseout"/>
                  </use>
                  <path fill="none" stroke="white" stroke-width="1.5" d="M0,-3.0v7 M-2.5,-0.5L0,-3.0L2.5,-0.5"/>
                </g>
                <g id="arrowRight" xlink:href="#dirArrow" transform="rotate(90) translate(36 -43)" onmousedown="handlePan(1,0)">
                  <use xlink:href="#rim" fill="#404040">
                        <set attributeName="fill" to="#808080" begin="arrowRight.mouseover" end="arrowRight.mouseout"/>
                  </use>
                  <path fill="none" stroke="white" stroke-width="1.5" d="M0,-3.0v7 M-2.5,-0.5L0,-3.0L2.5,-0.5"/>
                </g>
                <g id="arrowDown" xlink:href="#dirArrow" transform="rotate(180) translate(-30 -48)" onmousedown="handlePan(0,1)">
                  <use xlink:href="#rim" fill="#404040">
                        <set attributeName="fill" to="#808080" begin="arrowDown.mouseover" end="arrowDown.mouseout"/>
                  </use>
                  <path fill="none" stroke="white" stroke-width="1.5" d="M0,-3.0v7 M-2.5,-0.5L0,-3.0L2.5,-0.5"/>
                </g>
                <g id="arrowLeft" xlink:href="#dirArrow" transform="rotate(270) translate(-36 17)" onmousedown="handlePan(-1,0)">
                  <use xlink:href="#rim" fill="#404040">
                        <set attributeName="fill" to="#808080" begin="arrowLeft.mouseover" end="arrowLeft.mouseout"/>
                  </use>
                  <path fill="none" stroke="white" stroke-width="1.5" d="M0,-3.0v7 M-2.5,-0.5L0,-3.0L2.5,-0.5"/>
                </g>
        </g>
        <svg viewBox="0 0 15 15" width="100%" height="30px" preserveAspectRatio="xMaxYMin meet">
         <g id="arrow_out" transform="scale(0.3 0.3)">
          <a xlink:href="py__processor_8h__dep__incl_org.svg" target="_base">
           <rect id="button" ry="5" rx="5" y="6" x="6" height="38" width="38"
                fill="#f2f5e9" fill-opacity="0.5" stroke="#606060" stroke-width="1.0"/>
           <path id="arrow"
             d="M 11.500037,31.436501 C 11.940474,20.09759 22.043105,11.32322 32.158766,21.979434 L 37.068811,17.246167 C 37.068811,17.246167 37.088388,32 37.088388,32 L 22.160133,31.978069 C 22.160133,31.978069 26.997745,27.140456 26.997745,27.140456 C 18.528582,18.264221 13.291696,25.230495 11.500037,31.436501 z"
             style="fill:#404040;"/>
          </a>
         </g>
        </svg>
</svg>
