<?xml version="1.0" encoding="UTF-8" standalone="no"?>
<!DOCTYPE svg PUBLIC "-//W3C//DTD SVG 1.1//EN"
 "http://www.w3.org/Graphics/SVG/1.1/DTD/svg11.dtd">
<!-- Generated by graphviz version 2.40.1 (20161225.0304)
 -->
<!-- Title: src/pybind/processors/py_pro_thickness_profile.cpp Pages: 1 -->
<svg width="496pt" height="554pt"
 viewBox="0.00 0.00 496.00 554.00" xmlns="http://www.w3.org/2000/svg" xmlns:xlink="http://www.w3.org/1999/xlink">
<g id="graph0" class="graph" transform="scale(1 1) rotate(0) translate(4 550)">
<title>src/pybind/processors/py_pro_thickness_profile.cpp</title>
<polygon fill="#ffffff" stroke="transparent" points="-4,4 -4,-550 492,-550 492,4 -4,4"/>
<!-- Node0 -->
<g id="node1" class="node">
<title>Node0</title>
<polygon fill="#bfbfbf" stroke="#000000" points="196,-515.5 196,-545.5 342,-545.5 342,-515.5 196,-515.5"/>
<text text-anchor="start" x="204" y="-533.5" font-family="Helvetica,sans-Serif" font-size="10.00" fill="#000000">src/pybind/processors</text>
<text text-anchor="middle" x="269" y="-522.5" font-family="Helvetica,sans-Serif" font-size="10.00" fill="#000000">/py_pro_thickness_profile.cpp</text>
</g>
<!-- Node1 -->
<g id="node2" class="node">
<title>Node1</title>
<g id="a_node2"><a xlink:href="py__pro__thickness__profile_8h.html" target="_top" xlink:title="This file is for binding ProThicknessProfile class to Python. ">
<polygon fill="#ffffff" stroke="#000000" points="202.5,-459.5 202.5,-478.5 335.5,-478.5 335.5,-459.5 202.5,-459.5"/>
<text text-anchor="middle" x="269" y="-466.5" font-family="Helvetica,sans-Serif" font-size="10.00" fill="#000000">py_pro_thickness_profile.h</text>
</a>
</g>
</g>
<!-- Node0&#45;&gt;Node1 -->
<g id="edge1" class="edge">
<title>Node0&#45;&gt;Node1</title>
<path fill="none" stroke="#191970" d="M269,-515.2977C269,-507.3834 269,-497.6043 269,-489.0759"/>
<polygon fill="#191970" stroke="#191970" points="272.5001,-488.8469 269,-478.8469 265.5001,-488.847 272.5001,-488.8469"/>
</g>
<!-- Node2 -->
<g id="node3" class="node">
<title>Node2</title>
<g id="a_node3"><a xlink:href="pro__thickness__profile_8h.html" target="_top" xlink:title="This file has a definition of ProThicknessProfile class, which is a subclass of Processor class...">
<polygon fill="#ffffff" stroke="#000000" points="137,-392.5 137,-422.5 265,-422.5 265,-392.5 137,-392.5"/>
<text text-anchor="start" x="145" y="-410.5" font-family="Helvetica,sans-Serif" font-size="10.00" fill="#000000">processors/pro_thickness</text>
<text text-anchor="middle" x="201" y="-399.5" font-family="Helvetica,sans-Serif" font-size="10.00" fill="#000000">_profile.h</text>
</a>
</g>
</g>
<!-- Node1&#45;&gt;Node2 -->
<g id="edge2" class="edge">
<title>Node1&#45;&gt;Node2</title>
<path fill="none" stroke="#191970" d="M258.375,-459.3906C249.5129,-451.3756 236.5442,-439.6466 225.1777,-429.3666"/>
<polygon fill="#191970" stroke="#191970" points="227.3991,-426.6565 217.6347,-422.5446 222.7036,-431.8482 227.3991,-426.6565"/>
</g>
<!-- Node22 -->
<g id="node23" class="node">
<title>Node22</title>
<g id="a_node23"><a xlink:href="py__processor_8h.html" target="_top" xlink:title="This file is for binding Processor class to Python. ">
<polygon fill="#ffffff" stroke="#000000" points="283,-392.5 283,-422.5 393,-422.5 393,-392.5 283,-392.5"/>
<text text-anchor="start" x="291" y="-410.5" font-family="Helvetica,sans-Serif" font-size="10.00" fill="#000000">pybind/processors/py</text>
<text text-anchor="middle" x="338" y="-399.5" font-family="Helvetica,sans-Serif" font-size="10.00" fill="#000000">_processor.h</text>
</a>
</g>
</g>
<!-- Node1&#45;&gt;Node22 -->
<g id="edge24" class="edge">
<title>Node1&#45;&gt;Node22</title>
<path fill="none" stroke="#191970" d="M279.7813,-459.3906C288.7737,-451.3756 301.9331,-439.6466 313.4667,-429.3666"/>
<polygon fill="#191970" stroke="#191970" points="315.9844,-431.8111 321.1207,-422.5446 311.3267,-426.5855 315.9844,-431.8111"/>
</g>
<!-- Node3 -->
<g id="node4" class="node">
<title>Node3</title>
<g id="a_node4"><a xlink:href="processor_8h.html" target="_top" xlink:title="This file has a definition of Processor class, where an analysis process is programmed. ">
<polygon fill="#ffffff" stroke="#000000" points="156.5,-336.5 156.5,-355.5 275.5,-355.5 275.5,-336.5 156.5,-336.5"/>
<text text-anchor="middle" x="216" y="-343.5" font-family="Helvetica,sans-Serif" font-size="10.00" fill="#000000">processors/processor.h</text>
</a>
</g>
</g>
<!-- Node2&#45;&gt;Node3 -->
<g id="edge3" class="edge">
<title>Node2&#45;&gt;Node3</title>
<path fill="none" stroke="#191970" d="M204.7079,-392.2977C206.6599,-384.2945 209.077,-374.3843 211.1734,-365.7889"/>
<polygon fill="#191970" stroke="#191970" points="214.629,-366.3915 213.5983,-355.8469 207.8284,-364.7328 214.629,-366.3915"/>
</g>
<!-- Node4 -->
<g id="node5" class="node">
<title>Node4</title>
<g id="a_node5"><a xlink:href="generators_8h.html" target="_top" xlink:title="This file includes all the header files of subclasses of Generator class. ">
<polygon fill="#ffffff" stroke="#000000" points="170,-280.5 170,-299.5 262,-299.5 262,-280.5 170,-280.5"/>
<text text-anchor="middle" x="216" y="-287.5" font-family="Helvetica,sans-Serif" font-size="10.00" fill="#000000">core/generators.h</text>
</a>
</g>
</g>
<!-- Node3&#45;&gt;Node4 -->
<g id="edge4" class="edge">
<title>Node3&#45;&gt;Node4</title>
<path fill="none" stroke="#191970" d="M216,-336.2455C216,-328.9382 216,-318.6944 216,-309.7046"/>
<polygon fill="#191970" stroke="#191970" points="219.5001,-309.6426 216,-299.6427 212.5001,-309.6427 219.5001,-309.6426"/>
</g>
<!-- Node5 -->
<g id="node6" class="node">
<title>Node5</title>
<g id="a_node6"><a xlink:href="element_8h.html" target="_top" xlink:title="This file has a definition of Element class, which is one of the cores of this program. ">
<polygon fill="#ffffff" stroke="#000000" points="175.5,-168.5 175.5,-187.5 256.5,-187.5 256.5,-168.5 175.5,-168.5"/>
<text text-anchor="middle" x="216" y="-175.5" font-family="Helvetica,sans-Serif" font-size="10.00" fill="#000000">core/element.h</text>
</a>
</g>
</g>
<!-- Node4&#45;&gt;Node5 -->
<g id="edge5" class="edge">
<title>Node4&#45;&gt;Node5</title>
<path fill="none" stroke="#191970" d="M231.618,-280.4791C243.2472,-272.3972 258.2332,-259.6339 265,-244 273.2546,-224.9287 256.2644,-206.1991 240.0779,-193.593"/>
<polygon fill="#191970" stroke="#191970" points="241.9704,-190.6416 231.8247,-187.5896 237.8528,-196.3025 241.9704,-190.6416"/>
</g>
<!-- Node20 -->
<g id="node21" class="node">
<title>Node20</title>
<g id="a_node21"><a xlink:href="gen__dict_8h.html" target="_top" xlink:title="This file has a definition of GenDict class. ">
<polygon fill="#ffffff" stroke="#000000" points="74.5,-224.5 74.5,-243.5 157.5,-243.5 157.5,-224.5 74.5,-224.5"/>
<text text-anchor="middle" x="116" y="-231.5" font-family="Helvetica,sans-Serif" font-size="10.00" fill="#000000">core/gen_dict.h</text>
</a>
</g>
</g>
<!-- Node4&#45;&gt;Node20 -->
<g id="edge20" class="edge">
<title>Node4&#45;&gt;Node20</title>
<path fill="none" stroke="#191970" d="M198.5813,-280.2455C182.9515,-271.4928 159.7981,-258.527 141.9815,-248.5496"/>
<polygon fill="#191970" stroke="#191970" points="143.6543,-245.475 133.2191,-243.6427 140.234,-251.5825 143.6543,-245.475"/>
</g>
<!-- Node21 -->
<g id="node22" class="node">
<title>Node21</title>
<g id="a_node22"><a xlink:href="gen__list_8h.html" target="_top" xlink:title="This file has a definition of GenList class. ">
<polygon fill="#ffffff" stroke="#000000" points="176,-224.5 176,-243.5 256,-243.5 256,-224.5 176,-224.5"/>
<text text-anchor="middle" x="216" y="-231.5" font-family="Helvetica,sans-Serif" font-size="10.00" fill="#000000">core/gen_list.h</text>
</a>
</g>
</g>
<!-- Node4&#45;&gt;Node21 -->
<g id="edge22" class="edge">
<title>Node4&#45;&gt;Node21</title>
<path fill="none" stroke="#191970" d="M216,-280.2455C216,-272.9382 216,-262.6944 216,-253.7046"/>
<polygon fill="#191970" stroke="#191970" points="219.5001,-253.6426 216,-243.6427 212.5001,-253.6427 219.5001,-253.6426"/>
</g>
<!-- Node6 -->
<g id="node7" class="node">
<title>Node6</title>
<polygon fill="#ffffff" stroke="#bfbfbf" points="130,-112.5 130,-131.5 174,-131.5 174,-112.5 130,-112.5"/>
<text text-anchor="middle" x="152" y="-119.5" font-family="Helvetica,sans-Serif" font-size="10.00" fill="#000000">omp.h</text>
</g>
<!-- Node5&#45;&gt;Node6 -->
<g id="edge6" class="edge">
<title>Node5&#45;&gt;Node6</title>
<path fill="none" stroke="#191970" d="M204.8521,-168.2455C195.4913,-160.0549 181.9142,-148.1749 170.8651,-138.5069"/>
<polygon fill="#191970" stroke="#191970" points="172.8508,-135.5937 163.0202,-131.6427 168.2412,-140.8618 172.8508,-135.5937"/>
</g>
<!-- Node7 -->
<g id="node8" class="node">
<title>Node7</title>
<g id="a_node8"><a xlink:href="eigen_8h.html" target="_top" xlink:title="This file includes Eigen and defines some aliases for the Eigen&#45;Vector, Matrix and Array...">
<polygon fill="#ffffff" stroke="#000000" points="38.5,-112.5 38.5,-131.5 109.5,-131.5 109.5,-112.5 38.5,-112.5"/>
<text text-anchor="middle" x="74" y="-119.5" font-family="Helvetica,sans-Serif" font-size="10.00" fill="#000000">alias/eigen.h</text>
</a>
</g>
</g>
<!-- Node5&#45;&gt;Node7 -->
<g id="edge7" class="edge">
<title>Node5&#45;&gt;Node7</title>
<path fill="none" stroke="#191970" d="M191.5893,-168.3733C168.3858,-159.2226 133.2962,-145.3844 107.4858,-135.2057"/>
<polygon fill="#191970" stroke="#191970" points="108.6789,-131.9139 98.0921,-131.5011 106.1108,-138.4258 108.6789,-131.9139"/>
</g>
<!-- Node9 -->
<g id="node10" class="node">
<title>Node9</title>
<g id="a_node10"><a xlink:href="alias_2pybind_8h.html" target="_top" xlink:title="This file includes pybind11 and defines an alias for the namespace pybind11. ">
<polygon fill="#ffffff" stroke="#000000" points="299.5,-112.5 299.5,-131.5 376.5,-131.5 376.5,-112.5 299.5,-112.5"/>
<text text-anchor="middle" x="338" y="-119.5" font-family="Helvetica,sans-Serif" font-size="10.00" fill="#000000">alias/pybind.h</text>
</a>
</g>
</g>
<!-- Node5&#45;&gt;Node9 -->
<g id="edge9" class="edge">
<title>Node5&#45;&gt;Node9</title>
<path fill="none" stroke="#191970" d="M236.9725,-168.3733C256.5567,-159.3838 285.9961,-145.8706 308.051,-135.7471"/>
<polygon fill="#191970" stroke="#191970" points="309.6729,-138.8538 317.3011,-131.5011 306.7527,-132.4919 309.6729,-138.8538"/>
</g>
<!-- Node11 -->
<g id="node12" class="node">
<title>Node11</title>
<g id="a_node12"><a xlink:href="generator_8h.html" target="_top" xlink:title="This file has a definition of Generator class, which is one of the cores of this program. ">
<polygon fill="#ffffff" stroke="#000000" points="192.5,-112.5 192.5,-131.5 279.5,-131.5 279.5,-112.5 192.5,-112.5"/>
<text text-anchor="middle" x="236" y="-119.5" font-family="Helvetica,sans-Serif" font-size="10.00" fill="#000000">core/generator.h</text>
</a>
</g>
</g>
<!-- Node5&#45;&gt;Node11 -->
<g id="edge11" class="edge">
<title>Node5&#45;&gt;Node11</title>
<path fill="none" stroke="#191970" d="M219.4837,-168.2455C222.1508,-160.7776 225.9133,-150.2427 229.1737,-141.1137"/>
<polygon fill="#191970" stroke="#191970" points="232.4889,-142.2373 232.5562,-131.6427 225.8967,-139.8829 232.4889,-142.2373"/>
</g>
<!-- Node8 -->
<g id="node9" class="node">
<title>Node8</title>
<polygon fill="#ffffff" stroke="#bfbfbf" points="34,-56.5 34,-75.5 106,-75.5 106,-56.5 34,-56.5"/>
<text text-anchor="middle" x="70" y="-63.5" font-family="Helvetica,sans-Serif" font-size="10.00" fill="#000000">Eigen/Dense</text>
</g>
<!-- Node7&#45;&gt;Node8 -->
<g id="edge8" class="edge">
<title>Node7&#45;&gt;Node8</title>
<path fill="none" stroke="#191970" d="M73.3033,-112.2455C72.7813,-104.9382 72.0496,-94.6944 71.4075,-85.7046"/>
<polygon fill="#191970" stroke="#191970" points="74.8924,-85.3679 70.6888,-75.6427 67.9102,-85.8667 74.8924,-85.3679"/>
</g>
<!-- Node10 -->
<g id="node11" class="node">
<title>Node10</title>
<polygon fill="#ffffff" stroke="#bfbfbf" points="288,-56.5 288,-75.5 394,-75.5 394,-56.5 288,-56.5"/>
<text text-anchor="middle" x="341" y="-63.5" font-family="Helvetica,sans-Serif" font-size="10.00" fill="#000000">pybind11/pybind11.h</text>
</g>
<!-- Node9&#45;&gt;Node10 -->
<g id="edge10" class="edge">
<title>Node9&#45;&gt;Node10</title>
<path fill="none" stroke="#191970" d="M338.5226,-112.2455C338.914,-104.9382 339.4628,-94.6944 339.9444,-85.7046"/>
<polygon fill="#191970" stroke="#191970" points="343.4434,-85.8156 340.4834,-75.6427 336.4534,-85.4411 343.4434,-85.8156"/>
</g>
<!-- Node12 -->
<g id="node13" class="node">
<title>Node12</title>
<g id="a_node13"><a xlink:href="std_8h.html" target="_top" xlink:title="This file includes a part of C++ Standard Template Library and defines aliases for them...">
<polygon fill="#ffffff" stroke="#000000" points="208,-56.5 208,-75.5 270,-75.5 270,-56.5 208,-56.5"/>
<text text-anchor="middle" x="239" y="-63.5" font-family="Helvetica,sans-Serif" font-size="10.00" fill="#000000">alias/std.h</text>
</a>
</g>
</g>
<!-- Node11&#45;&gt;Node12 -->
<g id="edge12" class="edge">
<title>Node11&#45;&gt;Node12</title>
<path fill="none" stroke="#191970" d="M236.5226,-112.2455C236.914,-104.9382 237.4628,-94.6944 237.9444,-85.7046"/>
<polygon fill="#191970" stroke="#191970" points="241.4434,-85.8156 238.4834,-75.6427 234.4534,-85.4411 241.4434,-85.8156"/>
</g>
<!-- Node18 -->
<g id="node19" class="node">
<title>Node18</title>
<g id="a_node19"><a xlink:href="json_8h.html" target="_top" xlink:title="This file includes nlohmann/json and defines an alias for a JSON class. ">
<polygon fill="#ffffff" stroke="#000000" points="124,-56.5 124,-75.5 190,-75.5 190,-56.5 124,-56.5"/>
<text text-anchor="middle" x="157" y="-63.5" font-family="Helvetica,sans-Serif" font-size="10.00" fill="#000000">alias/json.h</text>
</a>
</g>
</g>
<!-- Node11&#45;&gt;Node18 -->
<g id="edge18" class="edge">
<title>Node11&#45;&gt;Node18</title>
<path fill="none" stroke="#191970" d="M222.2393,-112.2455C210.3448,-103.814 192.935,-91.4729 179.0915,-81.6598"/>
<polygon fill="#191970" stroke="#191970" points="180.7854,-78.5704 170.6031,-75.6427 176.7372,-84.2811 180.7854,-78.5704"/>
</g>
<!-- Node13 -->
<g id="node14" class="node">
<title>Node13</title>
<polygon fill="#ffffff" stroke="#bfbfbf" points="436,-.5 436,-19.5 488,-19.5 488,-.5 436,-.5"/>
<text text-anchor="middle" x="462" y="-7.5" font-family="Helvetica,sans-Serif" font-size="10.00" fill="#000000">memory</text>
</g>
<!-- Node12&#45;&gt;Node13 -->
<g id="edge13" class="edge">
<title>Node12&#45;&gt;Node13</title>
<path fill="none" stroke="#191970" d="M270.004,-58.2283C273.0432,-57.4727 276.081,-56.7199 279,-56 341.6456,-40.5504 359.8678,-37.5656 425.6032,-20.3015"/>
<polygon fill="#191970" stroke="#191970" points="426.8821,-23.5839 435.6576,-17.6475 425.0955,-16.8157 426.8821,-23.5839"/>
</g>
<!-- Node14 -->
<g id="node15" class="node">
<title>Node14</title>
<polygon fill="#ffffff" stroke="#bfbfbf" points="116.5,-.5 116.5,-19.5 157.5,-19.5 157.5,-.5 116.5,-.5"/>
<text text-anchor="middle" x="137" y="-7.5" font-family="Helvetica,sans-Serif" font-size="10.00" fill="#000000">string</text>
</g>
<!-- Node12&#45;&gt;Node14 -->
<g id="edge14" class="edge">
<title>Node12&#45;&gt;Node14</title>
<path fill="none" stroke="#191970" d="M221.233,-56.2455C205.2905,-47.4928 181.6741,-34.527 163.5011,-24.5496"/>
<polygon fill="#191970" stroke="#191970" points="165.0137,-21.3873 154.5634,-19.6427 161.6448,-27.5233 165.0137,-21.3873"/>
</g>
<!-- Node15 -->
<g id="node16" class="node">
<title>Node15</title>
<polygon fill="#ffffff" stroke="#bfbfbf" points="176,-.5 176,-19.5 220,-19.5 220,-.5 176,-.5"/>
<text text-anchor="middle" x="198" y="-7.5" font-family="Helvetica,sans-Serif" font-size="10.00" fill="#000000">vector</text>
</g>
<!-- Node12&#45;&gt;Node15 -->
<g id="edge15" class="edge">
<title>Node12&#45;&gt;Node15</title>
<path fill="none" stroke="#191970" d="M231.8583,-56.2455C226.1556,-48.4564 218.01,-37.3308 211.1375,-27.9439"/>
<polygon fill="#191970" stroke="#191970" points="213.7913,-25.6437 205.0598,-19.6427 208.1432,-29.7789 213.7913,-25.6437"/>
</g>
<!-- Node16 -->
<g id="node17" class="node">
<title>Node16</title>
<polygon fill="#ffffff" stroke="#bfbfbf" points="238.5,-.5 238.5,-19.5 321.5,-19.5 321.5,-.5 238.5,-.5"/>
<text text-anchor="middle" x="280" y="-7.5" font-family="Helvetica,sans-Serif" font-size="10.00" fill="#000000">unordered_map</text>
</g>
<!-- Node12&#45;&gt;Node16 -->
<g id="edge16" class="edge">
<title>Node12&#45;&gt;Node16</title>
<path fill="none" stroke="#191970" d="M246.1417,-56.2455C251.8444,-48.4564 259.99,-37.3308 266.8625,-27.9439"/>
<polygon fill="#191970" stroke="#191970" points="269.8568,-29.7789 272.9402,-19.6427 264.2087,-25.6437 269.8568,-29.7789"/>
</g>
<!-- Node17 -->
<g id="node18" class="node">
<title>Node17</title>
<polygon fill="#ffffff" stroke="#bfbfbf" points="340,-.5 340,-19.5 418,-19.5 418,-.5 340,-.5"/>
<text text-anchor="middle" x="379" y="-7.5" font-family="Helvetica,sans-Serif" font-size="10.00" fill="#000000">unordered_set</text>
</g>
<!-- Node12&#45;&gt;Node17 -->
<g id="edge17" class="edge">
<title>Node12&#45;&gt;Node17</title>
<path fill="none" stroke="#191970" d="M263.0669,-56.3733C285.8428,-47.2629 320.2344,-33.5062 345.649,-23.3404"/>
<polygon fill="#191970" stroke="#191970" points="347.2623,-26.4648 355.2472,-19.5011 344.6625,-19.9654 347.2623,-26.4648"/>
</g>
<!-- Node19 -->
<g id="node20" class="node">
<title>Node19</title>
<polygon fill="#ffffff" stroke="#bfbfbf" points="0,-.5 0,-19.5 98,-19.5 98,-.5 0,-.5"/>
<text text-anchor="middle" x="49" y="-7.5" font-family="Helvetica,sans-Serif" font-size="10.00" fill="#000000">nlohmann/json.hpp</text>
</g>
<!-- Node18&#45;&gt;Node19 -->
<g id="edge19" class="edge">
<title>Node18&#45;&gt;Node19</title>
<path fill="none" stroke="#191970" d="M138.1878,-56.2455C121.1527,-47.4125 95.8425,-34.2887 76.5319,-24.2758"/>
<polygon fill="#191970" stroke="#191970" points="78.0853,-21.1388 67.5966,-19.6427 74.863,-27.353 78.0853,-21.1388"/>
</g>
<!-- Node20&#45;&gt;Node5 -->
<g id="edge21" class="edge">
<title>Node20&#45;&gt;Node5</title>
<path fill="none" stroke="#191970" d="M133.4187,-224.2455C149.0485,-215.4928 172.2019,-202.527 190.0185,-192.5496"/>
<polygon fill="#191970" stroke="#191970" points="191.766,-195.5825 198.7809,-187.6427 188.3457,-189.475 191.766,-195.5825"/>
</g>
<!-- Node21&#45;&gt;Node5 -->
<g id="edge23" class="edge">
<title>Node21&#45;&gt;Node5</title>
<path fill="none" stroke="#191970" d="M216,-224.2455C216,-216.9382 216,-206.6944 216,-197.7046"/>
<polygon fill="#191970" stroke="#191970" points="219.5001,-197.6426 216,-187.6427 212.5001,-197.6427 219.5001,-197.6426"/>
</g>
<!-- Node22&#45;&gt;Node3 -->
<g id="edge26" class="edge">
<title>Node22&#45;&gt;Node3</title>
<path fill="none" stroke="#191970" d="M308.1554,-392.4554C288.603,-382.599 263.2128,-369.7999 244.0355,-360.1327"/>
<polygon fill="#191970" stroke="#191970" points="245.4108,-356.9064 234.9057,-355.5303 242.2598,-363.1571 245.4108,-356.9064"/>
</g>
<!-- Node22&#45;&gt;Node9 -->
<g id="edge25" class="edge">
<title>Node22&#45;&gt;Node9</title>
<path fill="none" stroke="#191970" d="M338,-392.2899C338,-369.892 338,-326.7188 338,-290 338,-290 338,-290 338,-234 338,-201.7116 338,-164.1872 338,-141.8048"/>
<polygon fill="#191970" stroke="#191970" points="341.5001,-141.5883 338,-131.5884 334.5001,-141.5884 341.5001,-141.5883"/>
</g>
</g>
</svg>
