<?xml version="1.0" encoding="UTF-8" standalone="no"?>
<!DOCTYPE svg PUBLIC "-//W3C//DTD SVG 1.1//EN"
 "http://www.w3.org/Graphics/SVG/1.1/DTD/svg11.dtd">
<!-- Generated by graphviz version 2.40.1 (20161225.0304)
 -->
<!-- Title: src/pybind/py_updater.h Pages: 1 -->
<svg width="2556pt" height="274pt"
 viewBox="0.00 0.00 2555.82 274.00" xmlns="http://www.w3.org/2000/svg" xmlns:xlink="http://www.w3.org/1999/xlink">
<g id="graph0" class="graph" transform="scale(1 1) rotate(0) translate(4 270)">
<title>src/pybind/py_updater.h</title>
<polygon fill="#ffffff" stroke="transparent" points="-4,4 -4,-270 2551.8225,-270 2551.8225,4 -4,4"/>
<!-- Node21 -->
<g id="node1" class="node">
<title>Node21</title>
<polygon fill="#bfbfbf" stroke="#000000" points="1023.8225,-246.5 1023.8225,-265.5 1144.8225,-265.5 1144.8225,-246.5 1023.8225,-246.5"/>
<text text-anchor="middle" x="1084.3225" y="-253.5" font-family="Helvetica,sans-Serif" font-size="10.00" fill="#000000">src/pybind/py_updater.h</text>
</g>
<!-- Node22 -->
<g id="node2" class="node">
<title>Node22</title>
<g id="a_node2"><a xlink:href="pybind_8h.html" target="_top" xlink:title="This file includes all the header files containing definitions of functions to bind C++ and Python...">
<polygon fill="#ffffff" stroke="#000000" points="1289.3225,-56.5 1289.3225,-75.5 1359.3225,-75.5 1359.3225,-56.5 1289.3225,-56.5"/>
<text text-anchor="middle" x="1324.3225" y="-63.5" font-family="Helvetica,sans-Serif" font-size="10.00" fill="#000000">src/pybind.h</text>
</a>
</g>
</g>
<!-- Node21&#45;&gt;Node22 -->
<g id="edge1" class="edge">
<title>Node21&#45;&gt;Node22</title>
<path fill="none" stroke="#191970" d="M1013.4541,-249.1825C923.4233,-240.4525 763.2742,-224.6926 626.3225,-210 363.3319,-181.7855 -144.3311,-302.3456 39.3225,-112 61.6522,-88.8566 1085.5247,-70.097 1289.2777,-66.5894"/>
<polygon fill="#191970" stroke="#191970" points="1013.2547,-252.6795 1023.5456,-250.1601 1013.9297,-245.7121 1013.2547,-252.6795"/>
</g>
<!-- Node24 -->
<g id="node4" class="node">
<title>Node24</title>
<g id="a_node4"><a xlink:href="py__adder_8h.html" target="_top" xlink:title="This file is for binding Adder class to Python. ">
<polygon fill="#ffffff" stroke="#000000" points="635.8225,-179.5 635.8225,-209.5 742.8225,-209.5 742.8225,-179.5 635.8225,-179.5"/>
<text text-anchor="start" x="643.8225" y="-197.5" font-family="Helvetica,sans-Serif" font-size="10.00" fill="#000000">src/pybind/adders/py</text>
<text text-anchor="middle" x="689.3225" y="-186.5" font-family="Helvetica,sans-Serif" font-size="10.00" fill="#000000">_adder.h</text>
</a>
</g>
</g>
<!-- Node21&#45;&gt;Node24 -->
<g id="edge3" class="edge">
<title>Node21&#45;&gt;Node24</title>
<path fill="none" stroke="#191970" d="M1013.2901,-244.9405C935.6297,-232.8491 812.9403,-213.7468 742.9495,-202.8495"/>
<polygon fill="#191970" stroke="#191970" points="1013.0499,-248.4452 1023.4694,-246.5254 1014.1269,-241.5286 1013.0499,-248.4452"/>
</g>
<!-- Node35 -->
<g id="node15" class="node">
<title>Node35</title>
<g id="a_node15"><a xlink:href="py__filter_8h.html" target="_top" xlink:title="This file is for binding Filter class to Python. ">
<polygon fill="#ffffff" stroke="#000000" points="1411.8225,-179.5 1411.8225,-209.5 1500.8225,-209.5 1500.8225,-179.5 1411.8225,-179.5"/>
<text text-anchor="start" x="1419.8225" y="-197.5" font-family="Helvetica,sans-Serif" font-size="10.00" fill="#000000">src/pybind/filters</text>
<text text-anchor="middle" x="1456.3225" y="-186.5" font-family="Helvetica,sans-Serif" font-size="10.00" fill="#000000">/py_filter.h</text>
</a>
</g>
</g>
<!-- Node21&#45;&gt;Node35 -->
<g id="edge25" class="edge">
<title>Node21&#45;&gt;Node35</title>
<path fill="none" stroke="#191970" d="M1151.9148,-244.8255C1227.2936,-232.3636 1347.0818,-212.5599 1411.6214,-201.8901"/>
<polygon fill="#191970" stroke="#191970" points="1151.3345,-241.3738 1142.0393,-246.4581 1152.4763,-248.2801 1151.3345,-241.3738"/>
</g>
<!-- Node38 -->
<g id="node18" class="node">
<title>Node38</title>
<g id="a_node18"><a xlink:href="py__starter_8h.html" target="_top" xlink:title="This file is for binding Starter class to Python. ">
<polygon fill="#ffffff" stroke="#000000" points="1946.3225,-179.5 1946.3225,-209.5 2044.3225,-209.5 2044.3225,-179.5 1946.3225,-179.5"/>
<text text-anchor="start" x="1954.3225" y="-197.5" font-family="Helvetica,sans-Serif" font-size="10.00" fill="#000000">src/pybind/starters</text>
<text text-anchor="middle" x="1995.3225" y="-186.5" font-family="Helvetica,sans-Serif" font-size="10.00" fill="#000000">/py_starter.h</text>
</a>
</g>
</g>
<!-- Node21&#45;&gt;Node38 -->
<g id="edge31" class="edge">
<title>Node21&#45;&gt;Node38</title>
<path fill="none" stroke="#191970" d="M1155.1805,-251.2165C1332.902,-239.2188 1794.1942,-208.0778 1946.0512,-197.8262"/>
<polygon fill="#191970" stroke="#191970" points="1154.8968,-247.7276 1145.1553,-251.8933 1155.3684,-254.7117 1154.8968,-247.7276"/>
</g>
<!-- Node23 -->
<g id="node3" class="node">
<title>Node23</title>
<g id="a_node3"><a xlink:href="ppap4lmp_8cpp.html" target="_top" xlink:title="This file has no implementation, only includes a header file to bind C++ and Python. ">
<polygon fill="#ffffff" stroke="#000000" points="1277.3225,-.5 1277.3225,-19.5 1371.3225,-19.5 1371.3225,-.5 1277.3225,-.5"/>
<text text-anchor="middle" x="1324.3225" y="-7.5" font-family="Helvetica,sans-Serif" font-size="10.00" fill="#000000">src/ppap4lmp.cpp</text>
</a>
</g>
</g>
<!-- Node22&#45;&gt;Node23 -->
<g id="edge2" class="edge">
<title>Node22&#45;&gt;Node23</title>
<path fill="none" stroke="#191970" d="M1324.3225,-46.1575C1324.3225,-37.155 1324.3225,-26.9199 1324.3225,-19.6427"/>
<polygon fill="#191970" stroke="#191970" points="1320.8226,-46.2455 1324.3225,-56.2455 1327.8226,-46.2456 1320.8226,-46.2455"/>
</g>
<!-- Node24&#45;&gt;Node22 -->
<g id="edge4" class="edge">
<title>Node24&#45;&gt;Node22</title>
<path fill="none" stroke="#191970" d="M625.6454,-191.6782C467.7834,-184.3759 69.662,-163.9609 50.3225,-143 40.9796,-132.8739 40.7575,-121.9166 50.3225,-112 72.4458,-89.0635 1086.4675,-70.1563 1289.2482,-66.601"/>
<polygon fill="#191970" stroke="#191970" points="625.5392,-195.1769 635.6895,-192.1401 625.8609,-188.1843 625.5392,-195.1769"/>
</g>
<!-- Node25 -->
<g id="node5" class="node">
<title>Node25</title>
<g id="a_node5"><a xlink:href="py__add__map_8h.html" target="_top" xlink:title="This file is for binding AddMap class to Python. ">
<polygon fill="#ffffff" stroke="#000000" points="59.8225,-112.5 59.8225,-142.5 166.8225,-142.5 166.8225,-112.5 59.8225,-112.5"/>
<text text-anchor="start" x="67.8225" y="-130.5" font-family="Helvetica,sans-Serif" font-size="10.00" fill="#000000">src/pybind/adders/py</text>
<text text-anchor="middle" x="113.3225" y="-119.5" font-family="Helvetica,sans-Serif" font-size="10.00" fill="#000000">_add_map.h</text>
</a>
</g>
</g>
<!-- Node24&#45;&gt;Node25 -->
<g id="edge5" class="edge">
<title>Node24&#45;&gt;Node25</title>
<path fill="none" stroke="#191970" d="M625.7073,-191.1035C528.1991,-185.2283 336.1756,-171.0124 175.3225,-143 172.5898,-142.5241 169.7996,-141.9933 166.9891,-141.423"/>
<polygon fill="#191970" stroke="#191970" points="625.5092,-194.5978 635.6989,-191.6961 625.9237,-187.61 625.5092,-194.5978"/>
</g>
<!-- Node26 -->
<g id="node6" class="node">
<title>Node26</title>
<g id="a_node6"><a xlink:href="py__add__rename_8h.html" target="_top" xlink:title="This file is for binding AddRename class to Python. ">
<polygon fill="#ffffff" stroke="#000000" points="184.8225,-112.5 184.8225,-142.5 291.8225,-142.5 291.8225,-112.5 184.8225,-112.5"/>
<text text-anchor="start" x="192.8225" y="-130.5" font-family="Helvetica,sans-Serif" font-size="10.00" fill="#000000">src/pybind/adders/py</text>
<text text-anchor="middle" x="238.3225" y="-119.5" font-family="Helvetica,sans-Serif" font-size="10.00" fill="#000000">_add_rename.h</text>
</a>
</g>
</g>
<!-- Node24&#45;&gt;Node26 -->
<g id="edge7" class="edge">
<title>Node24&#45;&gt;Node26</title>
<path fill="none" stroke="#191970" d="M625.46,-188.2906C548.0978,-180.2525 414.0012,-164.6626 300.3225,-143 297.5977,-142.4808 294.8138,-141.9151 292.0084,-141.3171"/>
<polygon fill="#191970" stroke="#191970" points="625.2242,-191.7847 635.5301,-189.3274 625.9412,-184.8215 625.2242,-191.7847"/>
</g>
<!-- Node27 -->
<g id="node7" class="node">
<title>Node27</title>
<g id="a_node7"><a xlink:href="py__add__child__ids_8h.html" target="_top" xlink:title="This file is for binding AddChildIDs class to Python. ">
<polygon fill="#ffffff" stroke="#000000" points="309.8225,-112.5 309.8225,-142.5 416.8225,-142.5 416.8225,-112.5 309.8225,-112.5"/>
<text text-anchor="start" x="317.8225" y="-130.5" font-family="Helvetica,sans-Serif" font-size="10.00" fill="#000000">src/pybind/adders/py</text>
<text text-anchor="middle" x="363.3225" y="-119.5" font-family="Helvetica,sans-Serif" font-size="10.00" fill="#000000">_add_child_ids.h</text>
</a>
</g>
</g>
<!-- Node24&#45;&gt;Node27 -->
<g id="edge9" class="edge">
<title>Node24&#45;&gt;Node27</title>
<path fill="none" stroke="#191970" d="M625.7722,-182.9378C572.3955,-173.0155 494.1866,-157.9839 426.3225,-143 423.2428,-142.32 420.0832,-141.6034 416.8979,-140.8662"/>
<polygon fill="#191970" stroke="#191970" points="625.3032,-186.4104 635.7735,-184.7912 626.5787,-179.5276 625.3032,-186.4104"/>
</g>
<!-- Node28 -->
<g id="node8" class="node">
<title>Node28</title>
<g id="a_node8"><a xlink:href="py__add__child__positions_8h.html" target="_top" xlink:title="This file is for binding AddChildPositions class to Python. ">
<polygon fill="#ffffff" stroke="#000000" points="435.3225,-112.5 435.3225,-142.5 551.3225,-142.5 551.3225,-112.5 435.3225,-112.5"/>
<text text-anchor="start" x="443.3225" y="-130.5" font-family="Helvetica,sans-Serif" font-size="10.00" fill="#000000">src/pybind/adders/py</text>
<text text-anchor="middle" x="493.3225" y="-119.5" font-family="Helvetica,sans-Serif" font-size="10.00" fill="#000000">_add_child_positions.h</text>
</a>
</g>
</g>
<!-- Node24&#45;&gt;Node28 -->
<g id="edge11" class="edge">
<title>Node24&#45;&gt;Node28</title>
<path fill="none" stroke="#191970" d="M635.6103,-176.1392C604.7889,-165.6033 566.5664,-152.5375 537.5005,-142.6017"/>
<polygon fill="#191970" stroke="#191970" points="634.7417,-179.5411 645.3362,-179.4639 637.0059,-172.9174 634.7417,-179.5411"/>
</g>
<!-- Node29 -->
<g id="node9" class="node">
<title>Node29</title>
<g id="a_node9"><a xlink:href="py__add__com__position_8h.html" target="_top" xlink:title="This file is for binding AddCoMPosition class to Python. ">
<polygon fill="#ffffff" stroke="#000000" points="569.8225,-112.5 569.8225,-142.5 678.8225,-142.5 678.8225,-112.5 569.8225,-112.5"/>
<text text-anchor="start" x="577.8225" y="-130.5" font-family="Helvetica,sans-Serif" font-size="10.00" fill="#000000">src/pybind/adders/py</text>
<text text-anchor="middle" x="624.3225" y="-119.5" font-family="Helvetica,sans-Serif" font-size="10.00" fill="#000000">_add_com_position.h</text>
</a>
</g>
</g>
<!-- Node24&#45;&gt;Node29 -->
<g id="edge13" class="edge">
<title>Node24&#45;&gt;Node29</title>
<path fill="none" stroke="#191970" d="M667.4216,-171.9253C658.067,-162.2828 647.3968,-151.2843 639.0136,-142.6432"/>
<polygon fill="#191970" stroke="#191970" points="665.0977,-174.5564 674.573,-179.2967 670.1219,-169.6821 665.0977,-174.5564"/>
</g>
<!-- Node30 -->
<g id="node10" class="node">
<title>Node30</title>
<g id="a_node10"><a xlink:href="py__add__gyration__radius_8h.html" target="_top" xlink:title="This file is for binding AddGyrationRadius class to Python. ">
<polygon fill="#ffffff" stroke="#000000" points="696.8225,-112.5 696.8225,-142.5 813.8225,-142.5 813.8225,-112.5 696.8225,-112.5"/>
<text text-anchor="start" x="704.8225" y="-130.5" font-family="Helvetica,sans-Serif" font-size="10.00" fill="#000000">src/pybind/adders/py</text>
<text text-anchor="middle" x="755.3225" y="-119.5" font-family="Helvetica,sans-Serif" font-size="10.00" fill="#000000">_add_gyration_radius.h</text>
</a>
</g>
</g>
<!-- Node24&#45;&gt;Node30 -->
<g id="edge15" class="edge">
<title>Node24&#45;&gt;Node30</title>
<path fill="none" stroke="#191970" d="M711.5602,-171.9253C721.0588,-162.2828 731.8932,-151.2843 740.4053,-142.6432"/>
<polygon fill="#191970" stroke="#191970" points="708.8232,-169.7164 704.2989,-179.2967 713.81,-174.6288 708.8232,-169.7164"/>
</g>
<!-- Node31 -->
<g id="node11" class="node">
<title>Node31</title>
<g id="a_node11"><a xlink:href="py__add__inertia__moment_8h.html" target="_top" xlink:title="This file is for binding AddInertiaMoment class to Python. ">
<polygon fill="#ffffff" stroke="#000000" points="832.3225,-112.5 832.3225,-142.5 950.3225,-142.5 950.3225,-112.5 832.3225,-112.5"/>
<text text-anchor="start" x="840.3225" y="-130.5" font-family="Helvetica,sans-Serif" font-size="10.00" fill="#000000">src/pybind/adders/py</text>
<text text-anchor="middle" x="891.3225" y="-119.5" font-family="Helvetica,sans-Serif" font-size="10.00" fill="#000000">_add_inertia_moment.h</text>
</a>
</g>
</g>
<!-- Node24&#45;&gt;Node31 -->
<g id="edge17" class="edge">
<title>Node24&#45;&gt;Node31</title>
<path fill="none" stroke="#191970" d="M744.2667,-176.2759C776.1025,-165.7165 815.7067,-152.5805 845.792,-142.6017"/>
<polygon fill="#191970" stroke="#191970" points="743.0448,-172.9936 734.6552,-179.4639 745.2486,-179.6377 743.0448,-172.9936"/>
</g>
<!-- Node32 -->
<g id="node12" class="node">
<title>Node32</title>
<g id="a_node12"><a xlink:href="py__add__molecular__orientation_8h.html" target="_top" xlink:title="This file is for binding AddMolecularOrientation class to Python. ">
<polygon fill="#ffffff" stroke="#000000" points="968.8225,-112.5 968.8225,-142.5 1111.8225,-142.5 1111.8225,-112.5 968.8225,-112.5"/>
<text text-anchor="start" x="976.8225" y="-130.5" font-family="Helvetica,sans-Serif" font-size="10.00" fill="#000000">src/pybind/adders/py</text>
<text text-anchor="middle" x="1040.3225" y="-119.5" font-family="Helvetica,sans-Serif" font-size="10.00" fill="#000000">_add_molecular_orientation.h</text>
</a>
</g>
</g>
<!-- Node24&#45;&gt;Node32 -->
<g id="edge19" class="edge">
<title>Node24&#45;&gt;Node32</title>
<path fill="none" stroke="#191970" d="M752.7591,-182.4111C807.476,-171.9812 888.6107,-156.5094 959.3225,-143 962.4164,-142.4089 965.5768,-141.8049 968.7693,-141.1947"/>
<polygon fill="#191970" stroke="#191970" points="752.0259,-178.9877 742.8581,-184.2983 753.3366,-185.8639 752.0259,-178.9877"/>
</g>
<!-- Node33 -->
<g id="node13" class="node">
<title>Node33</title>
<g id="a_node13"><a xlink:href="py__add__special__bonds_8h.html" target="_top" xlink:title="This file is for binding AddSpecialBonds class to Python. ">
<polygon fill="#ffffff" stroke="#000000" points="1129.8225,-112.5 1129.8225,-142.5 1242.8225,-142.5 1242.8225,-112.5 1129.8225,-112.5"/>
<text text-anchor="start" x="1137.8225" y="-130.5" font-family="Helvetica,sans-Serif" font-size="10.00" fill="#000000">src/pybind/adders/py</text>
<text text-anchor="middle" x="1186.3225" y="-119.5" font-family="Helvetica,sans-Serif" font-size="10.00" fill="#000000">_add_special_bonds.h</text>
</a>
</g>
</g>
<!-- Node24&#45;&gt;Node33 -->
<g id="edge21" class="edge">
<title>Node24&#45;&gt;Node33</title>
<path fill="none" stroke="#191970" d="M753.2224,-189.1144C837.6596,-181.485 990.8455,-165.8655 1120.3225,-143 1123.336,-142.4678 1126.4183,-141.8838 1129.5241,-141.2641"/>
<polygon fill="#191970" stroke="#191970" points="752.6707,-185.6497 743.0225,-190.0273 753.2948,-192.6219 752.6707,-185.6497"/>
</g>
<!-- Node34 -->
<g id="node14" class="node">
<title>Node34</title>
<g id="a_node14"><a xlink:href="py__add__wrapped__position_8h.html" target="_top" xlink:title="This file is for binding AddWrappedPosition class to Python. ">
<polygon fill="#ffffff" stroke="#000000" points="1261.3225,-112.5 1261.3225,-142.5 1387.3225,-142.5 1387.3225,-112.5 1261.3225,-112.5"/>
<text text-anchor="start" x="1269.3225" y="-130.5" font-family="Helvetica,sans-Serif" font-size="10.00" fill="#000000">src/pybind/adders/py</text>
<text text-anchor="middle" x="1324.3225" y="-119.5" font-family="Helvetica,sans-Serif" font-size="10.00" fill="#000000">_add_wrapped_position.h</text>
</a>
</g>
</g>
<!-- Node24&#45;&gt;Node34 -->
<g id="edge23" class="edge">
<title>Node24&#45;&gt;Node34</title>
<path fill="none" stroke="#191970" d="M753.1175,-191.1089C857.6598,-185.0024 1071.7879,-170.1894 1251.3225,-143 1254.525,-142.515 1257.7982,-141.9769 1261.0977,-141.4007"/>
<polygon fill="#191970" stroke="#191970" points="752.8255,-187.6198 743.0437,-191.6901 753.2287,-194.6082 752.8255,-187.6198"/>
</g>
<!-- Node25&#45;&gt;Node22 -->
<g id="edge6" class="edge">
<title>Node25&#45;&gt;Node22</title>
<path fill="none" stroke="#191970" d="M177.0756,-111.9728C418.6073,-79.6966 1123.1223,-68.6467 1289.0486,-66.4383"/>
<polygon fill="#191970" stroke="#191970" points="176.3814,-108.5355 166.9573,-113.3768 177.3435,-115.4691 176.3814,-108.5355"/>
</g>
<!-- Node26&#45;&gt;Node22 -->
<g id="edge8" class="edge">
<title>Node26&#45;&gt;Node22</title>
<path fill="none" stroke="#191970" d="M301.9028,-111.9913C517.1765,-82.8065 1135.3618,-69.5535 1289.3057,-66.6322"/>
<polygon fill="#191970" stroke="#191970" points="301.3731,-108.5313 291.9597,-113.3932 302.3504,-115.4628 301.3731,-108.5313"/>
</g>
<!-- Node27&#45;&gt;Node22 -->
<g id="edge10" class="edge">
<title>Node27&#45;&gt;Node22</title>
<path fill="none" stroke="#191970" d="M427.268,-112.1061C617.0115,-86.2363 1147.3035,-70.7042 1289.1099,-66.9088"/>
<polygon fill="#191970" stroke="#191970" points="426.5534,-108.6724 417.1453,-113.5445 427.5382,-115.6028 426.5534,-108.6724"/>
</g>
<!-- Node28&#45;&gt;Node22 -->
<g id="edge12" class="edge">
<title>Node28&#45;&gt;Node22</title>
<path fill="none" stroke="#191970" d="M561.9093,-111.9691C723.3959,-90.4031 1161.7773,-72.2884 1289.193,-67.3333"/>
<polygon fill="#191970" stroke="#191970" points="561.1004,-108.5479 551.6791,-113.3945 562.0665,-115.4809 561.1004,-108.5479"/>
</g>
<!-- Node29&#45;&gt;Node22 -->
<g id="edge14" class="edge">
<title>Node29&#45;&gt;Node22</title>
<path fill="none" stroke="#191970" d="M688.8934,-111.9155C922.6806,-75.8373 1193.9674,-68.1339 1289.2148,-66.4561"/>
<polygon fill="#191970" stroke="#191970" points="688.1821,-108.4841 678.8432,-113.4878 689.2641,-115.4 688.1821,-108.4841"/>
</g>
<!-- Node30&#45;&gt;Node22 -->
<g id="edge16" class="edge">
<title>Node30&#45;&gt;Node22</title>
<path fill="none" stroke="#191970" d="M823.7808,-112.075C1004.4753,-83.9173 1208.6777,-71.679 1289.1987,-67.6208"/>
<polygon fill="#191970" stroke="#191970" points="823.1639,-108.629 813.8319,-113.6454 824.2554,-115.5434 823.1639,-108.629"/>
</g>
<!-- Node31&#45;&gt;Node22 -->
<g id="edge18" class="edge">
<title>Node31&#45;&gt;Node22</title>
<path fill="none" stroke="#191970" d="M960.4464,-111.9012C1086.8878,-89.9989 1225.5415,-75.4239 1289.1696,-69.2641"/>
<polygon fill="#191970" stroke="#191970" points="959.8365,-108.4547 950.5906,-113.6279 961.0446,-115.3496 959.8365,-108.4547"/>
</g>
<!-- Node32&#45;&gt;Node22 -->
<g id="edge20" class="edge">
<title>Node32&#45;&gt;Node22</title>
<path fill="none" stroke="#191970" d="M1119.6452,-110.3227C1175.3431,-98.2614 1247.1357,-82.7147 1289.2114,-73.6033"/>
<polygon fill="#191970" stroke="#191970" points="1118.8294,-106.9182 1109.7967,-112.4554 1120.3109,-113.7596 1118.8294,-106.9182"/>
</g>
<!-- Node33&#45;&gt;Node22 -->
<g id="edge22" class="edge">
<title>Node33&#45;&gt;Node22</title>
<path fill="none" stroke="#191970" d="M1229.5068,-108.2548C1253.9335,-97.369 1283.4037,-84.2355 1302.9374,-75.5303"/>
<polygon fill="#191970" stroke="#191970" points="1227.7904,-105.1878 1220.0811,-112.4554 1230.6398,-111.5817 1227.7904,-105.1878"/>
</g>
<!-- Node34&#45;&gt;Node22 -->
<g id="edge24" class="edge">
<title>Node34&#45;&gt;Node22</title>
<path fill="none" stroke="#191970" d="M1324.3225,-102.2849C1324.3225,-92.9858 1324.3225,-82.9883 1324.3225,-75.8469"/>
<polygon fill="#191970" stroke="#191970" points="1320.8226,-102.2977 1324.3225,-112.2977 1327.8226,-102.2978 1320.8226,-102.2977"/>
</g>
<!-- Node35&#45;&gt;Node22 -->
<g id="edge26" class="edge">
<title>Node35&#45;&gt;Node22</title>
<path fill="none" stroke="#191970" d="M1442.3644,-170.6382C1431.3371,-153.0888 1414.7699,-129.3678 1396.3225,-112 1380.3384,-96.9514 1358.7715,-83.9283 1343.4192,-75.6183"/>
<polygon fill="#191970" stroke="#191970" points="1439.3951,-172.4915 1447.6066,-179.1865 1445.3625,-168.832 1439.3951,-172.4915"/>
</g>
<!-- Node36 -->
<g id="node16" class="node">
<title>Node36</title>
<g id="a_node16"><a xlink:href="py__fil__comparison_8h.html" target="_top" xlink:title="This file is for binding FilComparison class to Python. ">
<polygon fill="#ffffff" stroke="#000000" points="1443.8225,-112.5 1443.8225,-142.5 1550.8225,-142.5 1550.8225,-112.5 1443.8225,-112.5"/>
<text text-anchor="start" x="1451.8225" y="-130.5" font-family="Helvetica,sans-Serif" font-size="10.00" fill="#000000">src/pybind/filters</text>
<text text-anchor="middle" x="1497.3225" y="-119.5" font-family="Helvetica,sans-Serif" font-size="10.00" fill="#000000">/py_fil_comparison.h</text>
</a>
</g>
</g>
<!-- Node35&#45;&gt;Node36 -->
<g id="edge27" class="edge">
<title>Node35&#45;&gt;Node36</title>
<path fill="none" stroke="#191970" d="M1471.019,-170.4837C1476.7003,-161.1996 1483.0297,-150.8565 1488.0557,-142.6432"/>
<polygon fill="#191970" stroke="#191970" points="1467.8603,-168.9401 1465.626,-179.2967 1473.8311,-172.5939 1467.8603,-168.9401"/>
</g>
<!-- Node37 -->
<g id="node17" class="node">
<title>Node37</title>
<g id="a_node17"><a xlink:href="py__fil__set_8h.html" target="_top" xlink:title="This file is for binding FilSet class to Python. ">
<polygon fill="#ffffff" stroke="#000000" points="1568.8225,-112.5 1568.8225,-142.5 1657.8225,-142.5 1657.8225,-112.5 1568.8225,-112.5"/>
<text text-anchor="start" x="1576.8225" y="-130.5" font-family="Helvetica,sans-Serif" font-size="10.00" fill="#000000">src/pybind/filters</text>
<text text-anchor="middle" x="1613.3225" y="-119.5" font-family="Helvetica,sans-Serif" font-size="10.00" fill="#000000">/py_fil_set.h</text>
</a>
</g>
</g>
<!-- Node35&#45;&gt;Node37 -->
<g id="edge29" class="edge">
<title>Node35&#45;&gt;Node37</title>
<path fill="none" stroke="#191970" d="M1500.9583,-175.4516C1525.3575,-165.0392 1555.1565,-152.3224 1577.9349,-142.6017"/>
<polygon fill="#191970" stroke="#191970" points="1499.38,-172.3197 1491.5563,-179.4639 1502.1276,-178.7579 1499.38,-172.3197"/>
</g>
<!-- Node36&#45;&gt;Node22 -->
<g id="edge28" class="edge">
<title>Node36&#45;&gt;Node22</title>
<path fill="none" stroke="#191970" d="M1445.2085,-108.9739C1414.2045,-97.9523 1376.1609,-84.4281 1351.1313,-75.5303"/>
<polygon fill="#191970" stroke="#191970" points="1444.4072,-112.4036 1455.0019,-112.4554 1446.7519,-105.808 1444.4072,-112.4036"/>
</g>
<!-- Node37&#45;&gt;Node22 -->
<g id="edge30" class="edge">
<title>Node37&#45;&gt;Node22</title>
<path fill="none" stroke="#191970" d="M1558.8002,-111.9928C1482.2277,-93.8259 1403.8139,-79.5683 1359.5634,-71.9204"/>
<polygon fill="#191970" stroke="#191970" points="1558.0718,-115.4173 1568.6122,-114.3451 1559.7037,-108.6102 1558.0718,-115.4173"/>
</g>
<!-- Node38&#45;&gt;Node22 -->
<g id="edge32" class="edge">
<title>Node38&#45;&gt;Node22</title>
<path fill="none" stroke="#191970" d="M1935.7428,-187.4268C1863.2437,-178.2146 1745.5304,-161.1335 1705.3225,-143 1685.1381,-133.897 1686.6937,-120.6766 1666.3225,-112 1611.4797,-88.6411 1435.2422,-73.8019 1359.4804,-68.3518"/>
<polygon fill="#191970" stroke="#191970" points="1935.7383,-190.9537 1946.0967,-188.728 1936.6112,-184.0083 1935.7383,-190.9537"/>
</g>
<!-- Node39 -->
<g id="node19" class="node">
<title>Node39</title>
<g id="a_node19"><a xlink:href="py__sta__beads_8h.html" target="_top" xlink:title="This file is for binding StaBeads class to Python. ">
<polygon fill="#ffffff" stroke="#000000" points="1714.3225,-112.5 1714.3225,-142.5 1812.3225,-142.5 1812.3225,-112.5 1714.3225,-112.5"/>
<text text-anchor="start" x="1722.3225" y="-130.5" font-family="Helvetica,sans-Serif" font-size="10.00" fill="#000000">src/pybind/starters</text>
<text text-anchor="middle" x="1763.3225" y="-119.5" font-family="Helvetica,sans-Serif" font-size="10.00" fill="#000000">/py_sta_beads.h</text>
</a>
</g>
</g>
<!-- Node38&#45;&gt;Node39 -->
<g id="edge33" class="edge">
<title>Node38&#45;&gt;Node39</title>
<path fill="none" stroke="#191970" d="M1936.135,-177.4071C1897.8406,-166.3479 1848.5771,-152.121 1812.4528,-141.6885"/>
<polygon fill="#191970" stroke="#191970" points="1935.5427,-180.879 1946.1212,-180.291 1937.485,-174.1538 1935.5427,-180.879"/>
</g>
<!-- Node40 -->
<g id="node20" class="node">
<title>Node40</title>
<g id="a_node20"><a xlink:href="py__sta__copy_8h.html" target="_top" xlink:title="This file is for binding StaCopy class to Python. ">
<polygon fill="#ffffff" stroke="#000000" points="1830.3225,-112.5 1830.3225,-142.5 1928.3225,-142.5 1928.3225,-112.5 1830.3225,-112.5"/>
<text text-anchor="start" x="1838.3225" y="-130.5" font-family="Helvetica,sans-Serif" font-size="10.00" fill="#000000">src/pybind/starters</text>
<text text-anchor="middle" x="1879.3225" y="-119.5" font-family="Helvetica,sans-Serif" font-size="10.00" fill="#000000">/py_sta_copy.h</text>
</a>
</g>
</g>
<!-- Node38&#45;&gt;Node40 -->
<g id="edge35" class="edge">
<title>Node38&#45;&gt;Node40</title>
<path fill="none" stroke="#191970" d="M1960.4465,-174.3561C1942.8619,-164.1995 1921.8863,-152.0843 1905.6696,-142.7177"/>
<polygon fill="#191970" stroke="#191970" points="1958.8799,-177.4931 1969.2898,-179.4639 1962.381,-171.4315 1958.8799,-177.4931"/>
</g>
<!-- Node41 -->
<g id="node21" class="node">
<title>Node41</title>
<g id="a_node21"><a xlink:href="py__sta__custom_8h.html" target="_top" xlink:title="This file is for binding StaCustom class to Python. ">
<polygon fill="#ffffff" stroke="#000000" points="1946.3225,-112.5 1946.3225,-142.5 2044.3225,-142.5 2044.3225,-112.5 1946.3225,-112.5"/>
<text text-anchor="start" x="1954.3225" y="-130.5" font-family="Helvetica,sans-Serif" font-size="10.00" fill="#000000">src/pybind/starters</text>
<text text-anchor="middle" x="1995.3225" y="-119.5" font-family="Helvetica,sans-Serif" font-size="10.00" fill="#000000">/py_sta_custom.h</text>
</a>
</g>
</g>
<!-- Node38&#45;&gt;Node41 -->
<g id="edge37" class="edge">
<title>Node38&#45;&gt;Node41</title>
<path fill="none" stroke="#191970" d="M1995.3225,-169.0249C1995.3225,-160.128 1995.3225,-150.4287 1995.3225,-142.6432"/>
<polygon fill="#191970" stroke="#191970" points="1991.8226,-169.2966 1995.3225,-179.2967 1998.8226,-169.2967 1991.8226,-169.2966"/>
</g>
<!-- Node42 -->
<g id="node22" class="node">
<title>Node42</title>
<g id="a_node22"><a xlink:href="py__sta__dump_8h.html" target="_top" xlink:title="This file is for binding StaDump class to Python. ">
<polygon fill="#ffffff" stroke="#000000" points="2062.3225,-112.5 2062.3225,-142.5 2160.3225,-142.5 2160.3225,-112.5 2062.3225,-112.5"/>
<text text-anchor="start" x="2070.3225" y="-130.5" font-family="Helvetica,sans-Serif" font-size="10.00" fill="#000000">src/pybind/starters</text>
<text text-anchor="middle" x="2111.3225" y="-119.5" font-family="Helvetica,sans-Serif" font-size="10.00" fill="#000000">/py_sta_dump.h</text>
</a>
</g>
</g>
<!-- Node38&#45;&gt;Node42 -->
<g id="edge39" class="edge">
<title>Node38&#45;&gt;Node42</title>
<path fill="none" stroke="#191970" d="M2030.1984,-174.3561C2047.783,-164.1995 2068.7586,-152.0843 2084.9753,-142.7177"/>
<polygon fill="#191970" stroke="#191970" points="2028.264,-171.4315 2021.3551,-179.4639 2031.7651,-177.4931 2028.264,-171.4315"/>
</g>
<!-- Node43 -->
<g id="node23" class="node">
<title>Node43</title>
<g id="a_node23"><a xlink:href="py__sta__molecules_8h.html" target="_top" xlink:title="This file is for binding StaMolecules class to Python. ">
<polygon fill="#ffffff" stroke="#000000" points="2178.8225,-112.5 2178.8225,-142.5 2285.8225,-142.5 2285.8225,-112.5 2178.8225,-112.5"/>
<text text-anchor="start" x="2186.8225" y="-130.5" font-family="Helvetica,sans-Serif" font-size="10.00" fill="#000000">src/pybind/starters</text>
<text text-anchor="middle" x="2232.3225" y="-119.5" font-family="Helvetica,sans-Serif" font-size="10.00" fill="#000000">/py_sta_molecules.h</text>
</a>
</g>
</g>
<!-- Node38&#45;&gt;Node43 -->
<g id="edge41" class="edge">
<title>Node38&#45;&gt;Node43</title>
<path fill="none" stroke="#191970" d="M2054.4061,-177.797C2092.6821,-166.9764 2142.1156,-153.0015 2179.1581,-142.5296"/>
<polygon fill="#191970" stroke="#191970" points="2053.0997,-174.5291 2044.429,-180.6176 2055.004,-181.2651 2053.0997,-174.5291"/>
</g>
<!-- Node44 -->
<g id="node24" class="node">
<title>Node44</title>
<g id="a_node24"><a xlink:href="py__sta__dump__atoms_8h.html" target="_top" xlink:title="This file is for binding StaDumpAtoms class to Python. ">
<polygon fill="#ffffff" stroke="#000000" points="2303.8225,-112.5 2303.8225,-142.5 2422.8225,-142.5 2422.8225,-112.5 2303.8225,-112.5"/>
<text text-anchor="start" x="2311.8225" y="-130.5" font-family="Helvetica,sans-Serif" font-size="10.00" fill="#000000">src/pybind/starters</text>
<text text-anchor="middle" x="2363.3225" y="-119.5" font-family="Helvetica,sans-Serif" font-size="10.00" fill="#000000">/py_sta_dump_atoms.h</text>
</a>
</g>
</g>
<!-- Node38&#45;&gt;Node44 -->
<g id="edge43" class="edge">
<title>Node38&#45;&gt;Node44</title>
<path fill="none" stroke="#191970" d="M2054.734,-185.2733C2115.3851,-175.6262 2212.1646,-159.6026 2295.3225,-143 2298.0535,-142.4547 2300.8427,-141.8824 2303.6575,-141.2921"/>
<polygon fill="#191970" stroke="#191970" points="2053.909,-181.8603 2044.5801,-186.8824 2055.0047,-188.774 2053.909,-181.8603"/>
</g>
<!-- Node45 -->
<g id="node25" class="node">
<title>Node45</title>
<g id="a_node25"><a xlink:href="py__sta__dump__box_8h.html" target="_top" xlink:title="This file is for binding StaDumpBox class to Python. ">
<polygon fill="#ffffff" stroke="#000000" points="2440.8225,-112.5 2440.8225,-142.5 2547.8225,-142.5 2547.8225,-112.5 2440.8225,-112.5"/>
<text text-anchor="start" x="2448.8225" y="-130.5" font-family="Helvetica,sans-Serif" font-size="10.00" fill="#000000">src/pybind/starters</text>
<text text-anchor="middle" x="2494.3225" y="-119.5" font-family="Helvetica,sans-Serif" font-size="10.00" fill="#000000">/py_sta_dump_box.h</text>
</a>
</g>
</g>
<!-- Node38&#45;&gt;Node45 -->
<g id="edge45" class="edge">
<title>Node38&#45;&gt;Node45</title>
<path fill="none" stroke="#191970" d="M2054.6111,-189.9302C2138.9849,-182.8801 2298.3326,-167.5404 2432.3225,-143 2435.0509,-142.5003 2437.8377,-141.9504 2440.6454,-141.3648"/>
<polygon fill="#191970" stroke="#191970" points="2054.1302,-186.4579 2044.4522,-190.7692 2054.7064,-193.4342 2054.1302,-186.4579"/>
</g>
<!-- Node39&#45;&gt;Node22 -->
<g id="edge34" class="edge">
<title>Node39&#45;&gt;Node22</title>
<path fill="none" stroke="#191970" d="M1704.1895,-112.7329C1702.8902,-112.4792 1701.6,-112.2344 1700.3225,-112 1575.9668,-89.1798 1426.3363,-74.6921 1359.525,-68.8916"/>
<polygon fill="#191970" stroke="#191970" points="1703.7609,-116.2186 1714.2642,-114.8292 1705.1869,-109.3654 1703.7609,-116.2186"/>
</g>
<!-- Node40&#45;&gt;Node22 -->
<g id="edge36" class="edge">
<title>Node40&#45;&gt;Node22</title>
<path fill="none" stroke="#191970" d="M1820.0283,-111.9576C1642.1641,-80.9791 1439.7458,-70.425 1359.5438,-67.2175"/>
<polygon fill="#191970" stroke="#191970" points="1819.6321,-115.4418 1830.0888,-113.7366 1820.851,-108.5487 1819.6321,-115.4418"/>
</g>
<!-- Node41&#45;&gt;Node22 -->
<g id="edge38" class="edge">
<title>Node41&#45;&gt;Node22</title>
<path fill="none" stroke="#191970" d="M1936.1286,-112.0019C1712.0245,-74.8881 1452.412,-67.778 1359.502,-66.3554"/>
<polygon fill="#191970" stroke="#191970" points="1935.6574,-115.4717 1946.0991,-113.6771 1936.8173,-108.5684 1935.6574,-115.4717"/>
</g>
<!-- Node42&#45;&gt;Node22 -->
<g id="edge40" class="edge">
<title>Node42&#45;&gt;Node22</title>
<path fill="none" stroke="#191970" d="M2051.9166,-112.0361C1898.0094,-88.9594 1483.3237,-71.9939 1359.5924,-67.2982"/>
<polygon fill="#191970" stroke="#191970" points="2051.6839,-115.5424 2062.1059,-113.6364 2052.7701,-108.6271 2051.6839,-115.5424"/>
</g>
<!-- Node43&#45;&gt;Node22 -->
<g id="edge42" class="edge">
<title>Node43&#45;&gt;Node22</title>
<path fill="none" stroke="#191970" d="M2168.4655,-112.1152C1989.9979,-87.5337 1496.4997,-71.2145 1359.7942,-67.0466"/>
<polygon fill="#191970" stroke="#191970" points="2168.1019,-115.5988 2178.498,-113.5561 2169.0971,-108.6699 2168.1019,-115.5988"/>
</g>
<!-- Node44&#45;&gt;Node22 -->
<g id="edge44" class="edge">
<title>Node44&#45;&gt;Node22</title>
<path fill="none" stroke="#191970" d="M2293.6992,-111.9666C2089.2563,-86.0247 1508.6101,-70.487 1359.5279,-66.833"/>
<polygon fill="#191970" stroke="#191970" points="2293.356,-115.4516 2303.7278,-113.2893 2294.2714,-108.5117 2293.356,-115.4516"/>
</g>
<!-- Node45&#45;&gt;Node22 -->
<g id="edge46" class="edge">
<title>Node45&#45;&gt;Node22</title>
<path fill="none" stroke="#191970" d="M2430.5931,-111.9746C2197.6075,-80.7126 1521.3225,-68.9286 1359.4249,-66.496"/>
<polygon fill="#191970" stroke="#191970" points="2430.2994,-115.4674 2440.6869,-113.3818 2431.266,-108.5344 2430.2994,-115.4674"/>
</g>
</g>
</svg>
