<?xml version="1.0" encoding="UTF-8" standalone="no"?>
<!DOCTYPE svg PUBLIC "-//W3C//DTD SVG 1.1//EN"
 "http://www.w3.org/Graphics/SVG/1.1/DTD/svg11.dtd">
<!-- Generated by graphviz version 2.40.1 (20161225.0304)
 -->
<!-- Title: src/pybind/invokers/py_invoker.h Pages: 1 -->
<svg width="149pt" height="218pt"
 viewBox="0.00 0.00 149.00 218.00" xmlns="http://www.w3.org/2000/svg" xmlns:xlink="http://www.w3.org/1999/xlink">
<g id="graph0" class="graph" transform="scale(1 1) rotate(0) translate(4 214)">
<title>src/pybind/invokers/py_invoker.h</title>
<polygon fill="#ffffff" stroke="transparent" points="-4,4 -4,-214 145,-214 145,4 -4,4"/>
<!-- Node22 -->
<g id="node1" class="node">
<title>Node22</title>
<polygon fill="#bfbfbf" stroke="#000000" points="0,-179.5 0,-209.5 101,-209.5 101,-179.5 0,-179.5"/>
<text text-anchor="start" x="8" y="-197.5" font-family="Helvetica,sans-Serif" font-size="10.00" fill="#000000">src/pybind/invokers</text>
<text text-anchor="middle" x="50.5" y="-186.5" font-family="Helvetica,sans-Serif" font-size="10.00" fill="#000000">/py_invoker.h</text>
</g>
<!-- Node23 -->
<g id="node2" class="node">
<title>Node23</title>
<g id="a_node2"><a xlink:href="pybind_8h.html" target="_top" xlink:title="This file includes all the header files containing definitions of functions to bind C++ and Python...">
<polygon fill="#ffffff" stroke="#000000" points="15.5,-56.5 15.5,-75.5 85.5,-75.5 85.5,-56.5 15.5,-56.5"/>
<text text-anchor="middle" x="50.5" y="-63.5" font-family="Helvetica,sans-Serif" font-size="10.00" fill="#000000">src/pybind.h</text>
</a>
</g>
</g>
<!-- Node22&#45;&gt;Node23 -->
<g id="edge1" class="edge">
<title>Node22&#45;&gt;Node23</title>
<path fill="none" stroke="#191970" d="M38.8483,-169.9823C35.4532,-161.6171 32.2012,-152.0798 30.5,-143 27.9628,-129.4579 27.6944,-125.4891 30.5,-112 33.2308,-98.8702 39.9137,-84.8908 44.8055,-75.8354"/>
<polygon fill="#191970" stroke="#191970" points="35.6368,-171.3741 42.8152,-179.1664 42.063,-168.5983 35.6368,-171.3741"/>
</g>
<!-- Node25 -->
<g id="node4" class="node">
<title>Node25</title>
<g id="a_node4"><a xlink:href="py__inv__omp_8h.html" target="_top" xlink:title="This file is for binding InvOMP class to Python. ">
<polygon fill="#ffffff" stroke="#000000" points="40,-112.5 40,-142.5 141,-142.5 141,-112.5 40,-112.5"/>
<text text-anchor="start" x="48" y="-130.5" font-family="Helvetica,sans-Serif" font-size="10.00" fill="#000000">src/pybind/invokers</text>
<text text-anchor="middle" x="90.5" y="-119.5" font-family="Helvetica,sans-Serif" font-size="10.00" fill="#000000">/py_inv_omp.h</text>
</a>
</g>
</g>
<!-- Node22&#45;&gt;Node25 -->
<g id="edge3" class="edge">
<title>Node22&#45;&gt;Node25</title>
<path fill="none" stroke="#191970" d="M64.8381,-170.4837C70.3808,-161.1996 76.5558,-150.8565 81.4593,-142.6432"/>
<polygon fill="#191970" stroke="#191970" points="61.6976,-168.9163 59.5766,-179.2967 67.7079,-172.5046 61.6976,-168.9163"/>
</g>
<!-- Node24 -->
<g id="node3" class="node">
<title>Node24</title>
<g id="a_node3"><a xlink:href="ppap4lmp_8cpp.html" target="_top" xlink:title="This file has no implementation, only includes a header file to bind C++ and Python. ">
<polygon fill="#ffffff" stroke="#000000" points="3.5,-.5 3.5,-19.5 97.5,-19.5 97.5,-.5 3.5,-.5"/>
<text text-anchor="middle" x="50.5" y="-7.5" font-family="Helvetica,sans-Serif" font-size="10.00" fill="#000000">src/ppap4lmp.cpp</text>
</a>
</g>
</g>
<!-- Node23&#45;&gt;Node24 -->
<g id="edge2" class="edge">
<title>Node23&#45;&gt;Node24</title>
<path fill="none" stroke="#191970" d="M50.5,-46.1575C50.5,-37.155 50.5,-26.9199 50.5,-19.6427"/>
<polygon fill="#191970" stroke="#191970" points="47.0001,-46.2455 50.5,-56.2455 54.0001,-46.2456 47.0001,-46.2455"/>
</g>
<!-- Node25&#45;&gt;Node23 -->
<g id="edge4" class="edge">
<title>Node25&#45;&gt;Node23</title>
<path fill="none" stroke="#191970" d="M75.0712,-103.7782C68.7563,-94.069 61.799,-83.3722 56.9045,-75.8469"/>
<polygon fill="#191970" stroke="#191970" points="72.226,-105.8232 80.6124,-112.2977 78.094,-102.0065 72.226,-105.8232"/>
</g>
</g>
</svg>
