<?xml version="1.0" encoding="UTF-8" standalone="no"?>
<!DOCTYPE svg PUBLIC "-//W3C//DTD SVG 1.1//EN"
 "http://www.w3.org/Graphics/SVG/1.1/DTD/svg11.dtd">
<!-- Generated by graphviz version 2.40.1 (20161225.0304)
 -->
<!-- Title: src/pybind/starters/py_starter.h Pages: 1 -->
<!--zoomable 229 -->
<svg id="main" version="1.1" xmlns="http://www.w3.org/2000/svg" xmlns:xlink="http://www.w3.org/1999/xlink" xml:space="preserve" onload="init(evt)">
<style type="text/css"><![CDATA[
.edge:hover path { stroke: red; }
.edge:hover polygon { stroke: red; fill: red; }
]]></style>
<script type="text/javascript"><![CDATA[
var edges = document.getElementsByTagName('g');
if (edges && edges.length) {
  for (var i=0;i<edges.length;i++) {
    if (edges[i].id.substr(0,4)=='edge') {
      edges[i].setAttribute('class','edge');
    }
  }
}
]]></script>
        <defs>
                <circle id="rim" cx="0" cy="0" r="7"/>
                <circle id="rim2" cx="0" cy="0" r="3.5"/>
                <g id="zoomPlus">
                        <use xlink:href="#rim" fill="#404040">
                                <set attributeName="fill" to="#808080" begin="zoomplus.mouseover" end="zoomplus.mouseout"/>
                        </use>
                        <path d="M-4,0h8M0,-4v8" fill="none" stroke="white" stroke-width="1.5" pointer-events="none"/>
                </g>
                <g id="zoomMin">
                        <use xlink:href="#rim" fill="#404040">
                                <set attributeName="fill" to="#808080" begin="zoomminus.mouseover" end="zoomminus.mouseout"/>
                        </use>
                        <path d="M-4,0h8" fill="none" stroke="white" stroke-width="1.5" pointer-events="none"/>
                </g>
                <g id="dirArrow">
                        <path fill="none" stroke="white" stroke-width="1.5" d="M0,-3.0v7 M-2.5,-0.5L0,-3.0L2.5,-0.5"/>
                </g>
               <g id="resetDef">
                       <use xlink:href="#rim2" fill="#404040">
                               <set attributeName="fill" to="#808080" begin="reset.mouseover" end="reset.mouseout"/>
                       </use>
               </g>
        </defs>

<script type="text/javascript">
var viewWidth = 1031;
var viewHeight = 229;
var sectionId = 'dynsection-1';
</script>
<script xlink:href="svgpan.js"/>
<svg id="graph" class="graph">
<g id="viewport">
<title>src/pybind/starters/py_starter.h</title>
<polygon fill="#ffffff" stroke="transparent" points="-4,4 -4,-225 1026.5,-225 1026.5,4 -4,4"/>
<!-- Node22 -->
<g id="node1" class="node">
<title>Node22</title>
<polygon fill="#bfbfbf" stroke="#000000" points="420.5,-190.5 420.5,-220.5 518.5,-220.5 518.5,-190.5 420.5,-190.5"/>
<text text-anchor="start" x="428.5" y="-208.5" font-family="Helvetica,sans-Serif" font-size="10.00" fill="#000000">src/pybind/starters</text>
<text text-anchor="middle" x="469.5" y="-197.5" font-family="Helvetica,sans-Serif" font-size="10.00" fill="#000000">/py_starter.h</text>
</g>
<!-- Node23 -->
<g id="node2" class="node">
<title>Node23</title>
<g id="a_node2"><a xlink:href="pybind_8h.html" target="_top" xlink:title="This file includes all the header files containing definitions of functions to bind C++ and Python...">
<polygon fill="#ffffff" stroke="#000000" points="357.5,-62 357.5,-81 427.5,-81 427.5,-62 357.5,-62"/>
<text text-anchor="middle" x="392.5" y="-69" font-family="Helvetica,sans-Serif" font-size="10.00" fill="#000000">src/pybind.h</text>
</a>
</g>
</g>
<!-- Node22&#45;&gt;Node23 -->
<g id="edge1" class="edge">
<title>Node22&#45;&gt;Node23</title>
<path fill="none" stroke="#191970" d="M438.6166,-184.1915C428.6053,-175.8522 418.3319,-165.5139 411.5,-154 397.4747,-130.3629 393.8014,-97.2374 392.8401,-81.0978"/>
<polygon fill="#191970" stroke="#191970" points="436.5023,-186.9816 446.5185,-190.4351 440.8421,-181.4892 436.5023,-186.9816"/>
</g>
<!-- Node25 -->
<g id="node4" class="node">
<title>Node25</title>
<g id="a_node4"><a xlink:href="py__sta__beads_8h.html" target="_top" xlink:title="This file is for binding StaBeads class to Python. ">
<polygon fill="#ffffff" stroke="#000000" points="34.5,-123.5 34.5,-153.5 132.5,-153.5 132.5,-123.5 34.5,-123.5"/>
<text text-anchor="start" x="42.5" y="-141.5" font-family="Helvetica,sans-Serif" font-size="10.00" fill="#000000">src/pybind/starters</text>
<text text-anchor="middle" x="83.5" y="-130.5" font-family="Helvetica,sans-Serif" font-size="10.00" fill="#000000">/py_sta_beads.h</text>
</a>
</g>
</g>
<!-- Node22&#45;&gt;Node25 -->
<g id="edge3" class="edge">
<title>Node22&#45;&gt;Node25</title>
<path fill="none" stroke="#191970" d="M410.0987,-198.0906C344.1287,-189.4176 234.6433,-173.7009 141.5,-154 138.6448,-153.3961 135.7203,-152.7389 132.7758,-152.0472"/>
<polygon fill="#191970" stroke="#191970" points="409.9349,-201.5988 420.3037,-199.4216 410.8403,-194.6576 409.9349,-201.5988"/>
</g>
<!-- Node27 -->
<g id="node6" class="node">
<title>Node27</title>
<g id="a_node6"><a xlink:href="py__sta__copy_8h.html" target="_top" xlink:title="This file is for binding StaCopy class to Python. ">
<polygon fill="#ffffff" stroke="#000000" points="150.5,-123.5 150.5,-153.5 248.5,-153.5 248.5,-123.5 150.5,-123.5"/>
<text text-anchor="start" x="158.5" y="-141.5" font-family="Helvetica,sans-Serif" font-size="10.00" fill="#000000">src/pybind/starters</text>
<text text-anchor="middle" x="199.5" y="-130.5" font-family="Helvetica,sans-Serif" font-size="10.00" fill="#000000">/py_sta_copy.h</text>
</a>
</g>
</g>
<!-- Node22&#45;&gt;Node27 -->
<g id="edge6" class="edge">
<title>Node22&#45;&gt;Node27</title>
<path fill="none" stroke="#191970" d="M410.245,-191.4882C367.682,-181.3302 308.9754,-167.1287 257.5,-154 254.5711,-153.253 251.5616,-152.4763 248.5271,-151.6863"/>
<polygon fill="#191970" stroke="#191970" points="409.6194,-194.9371 420.1584,-193.8507 411.2422,-188.1277 409.6194,-194.9371"/>
</g>
<!-- Node29 -->
<g id="node8" class="node">
<title>Node29</title>
<g id="a_node8"><a xlink:href="py__sta__custom_8h.html" target="_top" xlink:title="This file is for binding StaCustom class to Python. ">
<polygon fill="#ffffff" stroke="#000000" points="266.5,-123.5 266.5,-153.5 364.5,-153.5 364.5,-123.5 266.5,-123.5"/>
<text text-anchor="start" x="274.5" y="-141.5" font-family="Helvetica,sans-Serif" font-size="10.00" fill="#000000">src/pybind/starters</text>
<text text-anchor="middle" x="315.5" y="-130.5" font-family="Helvetica,sans-Serif" font-size="10.00" fill="#000000">/py_sta_custom.h</text>
</a>
</g>
</g>
<!-- Node22&#45;&gt;Node29 -->
<g id="edge9" class="edge">
<title>Node22&#45;&gt;Node29</title>
<path fill="none" stroke="#191970" d="M425.7171,-186.4516C401.7841,-176.0392 372.5545,-163.3224 350.2113,-153.6017"/>
<polygon fill="#191970" stroke="#191970" points="424.3733,-189.6838 434.9394,-190.4639 427.166,-183.265 424.3733,-189.6838"/>
</g>
<!-- Node31 -->
<g id="node10" class="node">
<title>Node31</title>
<g id="a_node10"><a xlink:href="py__sta__dump_8h.html" target="_top" xlink:title="This file is for binding StaDump class to Python. ">
<polygon fill="#ffffff" stroke="#000000" points="420.5,-123.5 420.5,-153.5 518.5,-153.5 518.5,-123.5 420.5,-123.5"/>
<text text-anchor="start" x="428.5" y="-141.5" font-family="Helvetica,sans-Serif" font-size="10.00" fill="#000000">src/pybind/starters</text>
<text text-anchor="middle" x="469.5" y="-130.5" font-family="Helvetica,sans-Serif" font-size="10.00" fill="#000000">/py_sta_dump.h</text>
</a>
</g>
</g>
<!-- Node22&#45;&gt;Node31 -->
<g id="edge12" class="edge">
<title>Node22&#45;&gt;Node31</title>
<path fill="none" stroke="#191970" d="M469.5,-180.0249C469.5,-171.128 469.5,-161.4287 469.5,-153.6432"/>
<polygon fill="#191970" stroke="#191970" points="466.0001,-180.2966 469.5,-190.2967 473.0001,-180.2967 466.0001,-180.2966"/>
</g>
<!-- Node33 -->
<g id="node12" class="node">
<title>Node33</title>
<g id="a_node12"><a xlink:href="py__sta__molecules_8h.html" target="_top" xlink:title="This file is for binding StaMolecules class to Python. ">
<polygon fill="#ffffff" stroke="#000000" points="537,-123.5 537,-153.5 644,-153.5 644,-123.5 537,-123.5"/>
<text text-anchor="start" x="545" y="-141.5" font-family="Helvetica,sans-Serif" font-size="10.00" fill="#000000">src/pybind/starters</text>
<text text-anchor="middle" x="590.5" y="-130.5" font-family="Helvetica,sans-Serif" font-size="10.00" fill="#000000">/py_sta_molecules.h</text>
</a>
</g>
</g>
<!-- Node22&#45;&gt;Node33 -->
<g id="edge15" class="edge">
<title>Node22&#45;&gt;Node33</title>
<path fill="none" stroke="#191970" d="M505.6271,-185.4958C524.0209,-175.3107 546.0239,-163.1272 563.0172,-153.7177"/>
<polygon fill="#191970" stroke="#191970" points="503.7077,-182.5578 496.6548,-190.4639 507.0986,-188.6816 503.7077,-182.5578"/>
</g>
<!-- Node35 -->
<g id="node14" class="node">
<title>Node35</title>
<g id="a_node14"><a xlink:href="py__sta__dump__atoms_8h.html" target="_top" xlink:title="This file is for binding StaDumpAtoms class to Python. ">
<polygon fill="#ffffff" stroke="#000000" points="662,-123.5 662,-153.5 781,-153.5 781,-123.5 662,-123.5"/>
<text text-anchor="start" x="670" y="-141.5" font-family="Helvetica,sans-Serif" font-size="10.00" fill="#000000">src/pybind/starters</text>
<text text-anchor="middle" x="721.5" y="-130.5" font-family="Helvetica,sans-Serif" font-size="10.00" fill="#000000">/py_sta_dump_atoms.h</text>
</a>
</g>
</g>
<!-- Node22&#45;&gt;Node35 -->
<g id="edge18" class="edge">
<title>Node22&#45;&gt;Node35</title>
<path fill="none" stroke="#191970" d="M528.5814,-189.7919C569.7537,-178.8453 624.3556,-164.3281 664.9598,-153.5325"/>
<polygon fill="#191970" stroke="#191970" points="527.4513,-186.4706 518.6864,-192.4227 529.25,-193.2356 527.4513,-186.4706"/>
</g>
<!-- Node37 -->
<g id="node16" class="node">
<title>Node37</title>
<g id="a_node16"><a xlink:href="py__sta__dump__box_8h.html" target="_top" xlink:title="This file is for binding StaDumpBox class to Python. ">
<polygon fill="#ffffff" stroke="#000000" points="799,-123.5 799,-153.5 906,-153.5 906,-123.5 799,-123.5"/>
<text text-anchor="start" x="807" y="-141.5" font-family="Helvetica,sans-Serif" font-size="10.00" fill="#000000">src/pybind/starters</text>
<text text-anchor="middle" x="852.5" y="-130.5" font-family="Helvetica,sans-Serif" font-size="10.00" fill="#000000">/py_sta_dump_box.h</text>
</a>
</g>
</g>
<!-- Node22&#45;&gt;Node37 -->
<g id="edge21" class="edge">
<title>Node22&#45;&gt;Node37</title>
<path fill="none" stroke="#191970" d="M528.6857,-197.5588C593.3054,-188.5272 699.6992,-172.5982 790.5,-154 793.2174,-153.4434 795.9953,-152.8477 798.796,-152.2259"/>
<polygon fill="#191970" stroke="#191970" points="528.1054,-194.1057 518.6821,-198.9484 529.0686,-201.0391 528.1054,-194.1057"/>
</g>
<!-- Node39 -->
<g id="node18" class="node">
<title>Node39</title>
<g id="a_node18"><a xlink:href="py__starter_8cpp.html" target="_top" xlink:title="This file is for binding Starter class to Python. ">
<polygon fill="#ffffff" stroke="#000000" points="924.5,-123.5 924.5,-153.5 1022.5,-153.5 1022.5,-123.5 924.5,-123.5"/>
<text text-anchor="start" x="932.5" y="-141.5" font-family="Helvetica,sans-Serif" font-size="10.00" fill="#000000">src/pybind/starters</text>
<text text-anchor="middle" x="973.5" y="-130.5" font-family="Helvetica,sans-Serif" font-size="10.00" fill="#000000">/py_starter.cpp</text>
</a>
</g>
</g>
<!-- Node22&#45;&gt;Node39 -->
<g id="edge24" class="edge">
<title>Node22&#45;&gt;Node39</title>
<path fill="none" stroke="#191970" d="M528.7666,-201.4278C614.6038,-194.9046 778.2735,-180.114 915.5,-154 918.3669,-153.4544 921.3006,-152.8428 924.252,-152.186"/>
<polygon fill="#191970" stroke="#191970" points="528.4021,-197.9452 518.6915,-202.1826 528.925,-204.9257 528.4021,-197.9452"/>
</g>
<!-- Node24 -->
<g id="node3" class="node">
<title>Node24</title>
<g id="a_node3"><a xlink:href="ppap4lmp_8cpp.html" target="_top" xlink:title="This file has no implementation, only includes a header file to bind C++ and Python. ">
<polygon fill="#ffffff" stroke="#000000" points="345.5,-.5 345.5,-19.5 439.5,-19.5 439.5,-.5 345.5,-.5"/>
<text text-anchor="middle" x="392.5" y="-7.5" font-family="Helvetica,sans-Serif" font-size="10.00" fill="#000000">src/ppap4lmp.cpp</text>
</a>
</g>
</g>
<!-- Node23&#45;&gt;Node24 -->
<g id="edge2" class="edge">
<title>Node23&#45;&gt;Node24</title>
<path fill="none" stroke="#191970" d="M392.5,-51.7462C392.5,-41.0519 392.5,-28.314 392.5,-19.7449"/>
<polygon fill="#191970" stroke="#191970" points="389.0001,-51.8906 392.5,-61.8906 396.0001,-51.8907 389.0001,-51.8906"/>
</g>
<!-- Node25&#45;&gt;Node23 -->
<g id="edge4" class="edge">
<title>Node25&#45;&gt;Node23</title>
<path fill="none" stroke="#191970" d="M142.7338,-122.8527C234.0629,-103.4408 260.577,-109.4141 347.5,-87 353.901,-85.3494 360.6959,-83.2168 367.0134,-81.0646"/>
<polygon fill="#191970" stroke="#191970" points="141.8185,-119.4698 132.7885,-125.0114 143.3034,-126.3105 141.8185,-119.4698"/>
</g>
<!-- Node26 -->
<g id="node5" class="node">
<title>Node26</title>
<g id="a_node5"><a xlink:href="py__sta__beads_8cpp.html" target="_top" xlink:title="This file is for binding StaBeads class to Python. ">
<polygon fill="#ffffff" stroke="#000000" points="0,-56.5 0,-86.5 99,-86.5 99,-56.5 0,-56.5"/>
<text text-anchor="start" x="8" y="-74.5" font-family="Helvetica,sans-Serif" font-size="10.00" fill="#000000">src/pybind/starters</text>
<text text-anchor="middle" x="49.5" y="-63.5" font-family="Helvetica,sans-Serif" font-size="10.00" fill="#000000">/py_sta_beads.cpp</text>
</a>
</g>
</g>
<!-- Node25&#45;&gt;Node26 -->
<g id="edge5" class="edge">
<title>Node25&#45;&gt;Node26</title>
<path fill="none" stroke="#191970" d="M71.1652,-114.1932C66.4921,-104.9844 61.3091,-94.771 57.1846,-86.6432"/>
<polygon fill="#191970" stroke="#191970" points="68.1384,-115.963 75.7849,-123.2967 74.3807,-112.7953 68.1384,-115.963"/>
</g>
<!-- Node27&#45;&gt;Node23 -->
<g id="edge7" class="edge">
<title>Node27&#45;&gt;Node23</title>
<path fill="none" stroke="#191970" d="M252.3236,-120.1623C288.8194,-107.4928 335.8782,-91.1563 365.1191,-81.0053"/>
<polygon fill="#191970" stroke="#191970" points="251.1121,-116.8779 242.813,-123.4639 253.4078,-123.4907 251.1121,-116.8779"/>
</g>
<!-- Node28 -->
<g id="node7" class="node">
<title>Node28</title>
<g id="a_node7"><a xlink:href="py__sta__copy_8cpp.html" target="_top" xlink:title="This file is for binding StaCopy class to Python. ">
<polygon fill="#ffffff" stroke="#000000" points="117.5,-56.5 117.5,-86.5 215.5,-86.5 215.5,-56.5 117.5,-56.5"/>
<text text-anchor="start" x="125.5" y="-74.5" font-family="Helvetica,sans-Serif" font-size="10.00" fill="#000000">src/pybind/starters</text>
<text text-anchor="middle" x="166.5" y="-63.5" font-family="Helvetica,sans-Serif" font-size="10.00" fill="#000000">/py_sta_copy.cpp</text>
</a>
</g>
</g>
<!-- Node27&#45;&gt;Node28 -->
<g id="edge8" class="edge">
<title>Node27&#45;&gt;Node28</title>
<path fill="none" stroke="#191970" d="M187.528,-114.1932C182.9923,-104.9844 177.9618,-94.771 173.9586,-86.6432"/>
<polygon fill="#191970" stroke="#191970" points="184.4534,-115.8723 192.0118,-123.2967 190.7331,-112.7793 184.4534,-115.8723"/>
</g>
<!-- Node29&#45;&gt;Node23 -->
<g id="edge10" class="edge">
<title>Node29&#45;&gt;Node23</title>
<path fill="none" stroke="#191970" d="M340.7369,-116.5406C354.5407,-104.5296 370.9357,-90.2637 381.5189,-81.055"/>
<polygon fill="#191970" stroke="#191970" points="338.219,-114.092 332.9725,-123.2967 342.8139,-119.3728 338.219,-114.092"/>
</g>
<!-- Node30 -->
<g id="node9" class="node">
<title>Node30</title>
<g id="a_node9"><a xlink:href="py__sta__custom_8cpp.html" target="_top" xlink:title="This file is for binding StaCustom class to Python. ">
<polygon fill="#ffffff" stroke="#000000" points="234,-56.5 234,-86.5 339,-86.5 339,-56.5 234,-56.5"/>
<text text-anchor="start" x="242" y="-74.5" font-family="Helvetica,sans-Serif" font-size="10.00" fill="#000000">src/pybind/starters</text>
<text text-anchor="middle" x="286.5" y="-63.5" font-family="Helvetica,sans-Serif" font-size="10.00" fill="#000000">/py_sta_custom.cpp</text>
</a>
</g>
</g>
<!-- Node29&#45;&gt;Node30 -->
<g id="edge11" class="edge">
<title>Node29&#45;&gt;Node30</title>
<path fill="none" stroke="#191970" d="M304.8532,-113.9021C300.9003,-104.7696 296.5355,-94.6854 293.0545,-86.6432"/>
<polygon fill="#191970" stroke="#191970" points="301.7351,-115.5097 308.9195,-123.2967 308.1592,-112.7291 301.7351,-115.5097"/>
</g>
<!-- Node31&#45;&gt;Node23 -->
<g id="edge13" class="edge">
<title>Node31&#45;&gt;Node23</title>
<path fill="none" stroke="#191970" d="M444.2631,-116.5406C430.4593,-104.5296 414.0643,-90.2637 403.4811,-81.055"/>
<polygon fill="#191970" stroke="#191970" points="442.1861,-119.3728 452.0275,-123.2967 446.781,-114.092 442.1861,-119.3728"/>
</g>
<!-- Node32 -->
<g id="node11" class="node">
<title>Node32</title>
<g id="a_node11"><a xlink:href="py__sta__dump_8cpp.html" target="_top" xlink:title="This file is for binding StaDump class to Python. ">
<polygon fill="#ffffff" stroke="#000000" points="445.5,-56.5 445.5,-86.5 543.5,-86.5 543.5,-56.5 445.5,-56.5"/>
<text text-anchor="start" x="453.5" y="-74.5" font-family="Helvetica,sans-Serif" font-size="10.00" fill="#000000">src/pybind/starters</text>
<text text-anchor="middle" x="494.5" y="-63.5" font-family="Helvetica,sans-Serif" font-size="10.00" fill="#000000">/py_sta_dump.cpp</text>
</a>
</g>
</g>
<!-- Node31&#45;&gt;Node32 -->
<g id="edge14" class="edge">
<title>Node31&#45;&gt;Node32</title>
<path fill="none" stroke="#191970" d="M478.6783,-113.9021C482.086,-104.7696 485.8487,-94.6854 488.8496,-86.6432"/>
<polygon fill="#191970" stroke="#191970" points="475.3897,-112.704 475.1729,-123.2967 481.948,-115.1512 475.3897,-112.704"/>
</g>
<!-- Node33&#45;&gt;Node23 -->
<g id="edge16" class="edge">
<title>Node33&#45;&gt;Node23</title>
<path fill="none" stroke="#191970" d="M535.2863,-120.2727C505.911,-110.5155 469.1997,-98.2264 436.5,-87 430.9847,-85.1065 425.0913,-83.052 419.4687,-81.0769"/>
<polygon fill="#191970" stroke="#191970" points="534.3573,-123.6521 544.9507,-123.4795 536.5618,-117.0082 534.3573,-123.6521"/>
</g>
<!-- Node34 -->
<g id="node13" class="node">
<title>Node34</title>
<g id="a_node13"><a xlink:href="py__sta__molecules_8cpp.html" target="_top" xlink:title="This file is for binding StaMolecules class to Python. ">
<polygon fill="#ffffff" stroke="#000000" points="562,-56.5 562,-86.5 679,-86.5 679,-56.5 562,-56.5"/>
<text text-anchor="start" x="570" y="-74.5" font-family="Helvetica,sans-Serif" font-size="10.00" fill="#000000">src/pybind/starters</text>
<text text-anchor="middle" x="620.5" y="-63.5" font-family="Helvetica,sans-Serif" font-size="10.00" fill="#000000">/py_sta_molecules.cpp</text>
</a>
</g>
</g>
<!-- Node33&#45;&gt;Node34 -->
<g id="edge17" class="edge">
<title>Node33&#45;&gt;Node34</title>
<path fill="none" stroke="#191970" d="M601.514,-113.9021C605.6032,-104.7696 610.1185,-94.6854 613.7195,-86.6432"/>
<polygon fill="#191970" stroke="#191970" points="598.1998,-112.7395 597.3075,-123.2967 604.5886,-115.6002 598.1998,-112.7395"/>
</g>
<!-- Node35&#45;&gt;Node23 -->
<g id="edge19" class="edge">
<title>Node35&#45;&gt;Node23</title>
<path fill="none" stroke="#191970" d="M651.9965,-122.7856C555.8043,-104.5598 528.1344,-110.5494 436.5,-87 430.2247,-85.3873 423.5746,-83.2689 417.3968,-81.1183"/>
<polygon fill="#191970" stroke="#191970" points="651.3562,-126.2265 661.8388,-124.6889 652.6852,-119.3539 651.3562,-126.2265"/>
</g>
<!-- Node36 -->
<g id="node15" class="node">
<title>Node36</title>
<g id="a_node15"><a xlink:href="py__sta__dump__atoms_8cpp.html" target="_top" xlink:title="This file is for binding StaDumpAtoms class to Python. ">
<polygon fill="#ffffff" stroke="#000000" points="697,-56.5 697,-86.5 826,-86.5 826,-56.5 697,-56.5"/>
<text text-anchor="start" x="705" y="-74.5" font-family="Helvetica,sans-Serif" font-size="10.00" fill="#000000">src/pybind/starters</text>
<text text-anchor="middle" x="761.5" y="-63.5" font-family="Helvetica,sans-Serif" font-size="10.00" fill="#000000">/py_sta_dump_atoms.cpp</text>
</a>
</g>
</g>
<!-- Node35&#45;&gt;Node36 -->
<g id="edge20" class="edge">
<title>Node35&#45;&gt;Node36</title>
<path fill="none" stroke="#191970" d="M735.8381,-114.4837C741.3808,-105.1996 747.5558,-94.8565 752.4593,-86.6432"/>
<polygon fill="#191970" stroke="#191970" points="732.6976,-112.9163 730.5766,-123.2967 738.7079,-116.5046 732.6976,-112.9163"/>
</g>
<!-- Node37&#45;&gt;Node23 -->
<g id="edge22" class="edge">
<title>Node37&#45;&gt;Node23</title>
<path fill="none" stroke="#191970" d="M788.8854,-122.8762C632.8737,-96.7832 587.6673,-120.8075 436.5,-87 429.8608,-85.5152 422.8413,-83.336 416.4059,-81.0779"/>
<polygon fill="#191970" stroke="#191970" points="788.3848,-126.3413 798.8325,-124.582 789.568,-119.442 788.3848,-126.3413"/>
</g>
<!-- Node38 -->
<g id="node17" class="node">
<title>Node38</title>
<g id="a_node17"><a xlink:href="py__sta__dump__box_8cpp.html" target="_top" xlink:title="This file is for binding StaDumpBox class to Python. ">
<polygon fill="#ffffff" stroke="#000000" points="844.5,-56.5 844.5,-86.5 962.5,-86.5 962.5,-56.5 844.5,-56.5"/>
<text text-anchor="start" x="852.5" y="-74.5" font-family="Helvetica,sans-Serif" font-size="10.00" fill="#000000">src/pybind/starters</text>
<text text-anchor="middle" x="903.5" y="-63.5" font-family="Helvetica,sans-Serif" font-size="10.00" fill="#000000">/py_sta_dump_box.cpp</text>
</a>
</g>
</g>
<!-- Node37&#45;&gt;Node38 -->
<g id="edge23" class="edge">
<title>Node37&#45;&gt;Node38</title>
<path fill="none" stroke="#191970" d="M870.3404,-115.0626C877.5193,-105.6315 885.5909,-95.0276 891.9731,-86.6432"/>
<polygon fill="#191970" stroke="#191970" points="867.3446,-113.2197 864.0727,-123.2967 872.9146,-117.4595 867.3446,-113.2197"/>
</g>
</g>
</svg>
        <g id="navigator" transform="translate(0 0)" fill="#404254">
                <rect fill="#f2f5e9" fill-opacity="0.5" stroke="#606060" stroke-width=".5" x="0" y="0" width="60" height="60"/>
                <use id="zoomplus" xlink:href="#zoomPlus" x="17" y="9" onmousedown="handleZoom(evt,'in')"/>
                <use id="zoomminus" xlink:href="#zoomMin" x="42" y="9" onmousedown="handleZoom(evt,'out')"/>
                <use id="reset" xlink:href="#resetDef" x="30" y="36" onmousedown="handleReset()"/>
                <g id="arrowUp" xlink:href="#dirArrow" transform="translate(30 24)" onmousedown="handlePan(0,-1)">
                  <use xlink:href="#rim" fill="#404040">
                        <set attributeName="fill" to="#808080" begin="arrowUp.mouseover" end="arrowUp.mouseout"/>
                  </use>
                  <path fill="none" stroke="white" stroke-width="1.5" d="M0,-3.0v7 M-2.5,-0.5L0,-3.0L2.5,-0.5"/>
                </g>
                <g id="arrowRight" xlink:href="#dirArrow" transform="rotate(90) translate(36 -43)" onmousedown="handlePan(1,0)">
                  <use xlink:href="#rim" fill="#404040">
                        <set attributeName="fill" to="#808080" begin="arrowRight.mouseover" end="arrowRight.mouseout"/>
                  </use>
                  <path fill="none" stroke="white" stroke-width="1.5" d="M0,-3.0v7 M-2.5,-0.5L0,-3.0L2.5,-0.5"/>
                </g>
                <g id="arrowDown" xlink:href="#dirArrow" transform="rotate(180) translate(-30 -48)" onmousedown="handlePan(0,1)">
                  <use xlink:href="#rim" fill="#404040">
                        <set attributeName="fill" to="#808080" begin="arrowDown.mouseover" end="arrowDown.mouseout"/>
                  </use>
                  <path fill="none" stroke="white" stroke-width="1.5" d="M0,-3.0v7 M-2.5,-0.5L0,-3.0L2.5,-0.5"/>
                </g>
                <g id="arrowLeft" xlink:href="#dirArrow" transform="rotate(270) translate(-36 17)" onmousedown="handlePan(-1,0)">
                  <use xlink:href="#rim" fill="#404040">
                        <set attributeName="fill" to="#808080" begin="arrowLeft.mouseover" end="arrowLeft.mouseout"/>
                  </use>
                  <path fill="none" stroke="white" stroke-width="1.5" d="M0,-3.0v7 M-2.5,-0.5L0,-3.0L2.5,-0.5"/>
                </g>
        </g>
        <svg viewBox="0 0 15 15" width="100%" height="30px" preserveAspectRatio="xMaxYMin meet">
         <g id="arrow_out" transform="scale(0.3 0.3)">
          <a xlink:href="py__starter_8h__dep__incl_org.svg" target="_base">
           <rect id="button" ry="5" rx="5" y="6" x="6" height="38" width="38"
                fill="#f2f5e9" fill-opacity="0.5" stroke="#606060" stroke-width="1.0"/>
           <path id="arrow"
             d="M 11.500037,31.436501 C 11.940474,20.09759 22.043105,11.32322 32.158766,21.979434 L 37.068811,17.246167 C 37.068811,17.246167 37.088388,32 37.088388,32 L 22.160133,31.978069 C 22.160133,31.978069 26.997745,27.140456 26.997745,27.140456 C 18.528582,18.264221 13.291696,25.230495 11.500037,31.436501 z"
             style="fill:#404040;"/>
          </a>
         </g>
        </svg>
</svg>
