<?xml version="1.0" encoding="UTF-8" standalone="no"?>
<!DOCTYPE svg PUBLIC "-//W3C//DTD SVG 1.1//EN"
 "http://www.w3.org/Graphics/SVG/1.1/DTD/svg11.dtd">
<!-- Generated by graphviz version 2.40.1 (20161225.0304)
 -->
<!-- Title: src/pybind/processors/py_processor.h Pages: 1 -->
<svg width="1459pt" height="251pt"
 viewBox="0.00 0.00 1459.00 251.00" xmlns="http://www.w3.org/2000/svg" xmlns:xlink="http://www.w3.org/1999/xlink">
<g id="graph0" class="graph" transform="scale(1 1) rotate(0) translate(4 247)">
<title>src/pybind/processors/py_processor.h</title>
<polygon fill="#ffffff" stroke="transparent" points="-4,4 -4,-247 1455,-247 1455,4 -4,4"/>
<!-- Node20 -->
<g id="node1" class="node">
<title>Node20</title>
<polygon fill="#bfbfbf" stroke="#000000" points="661,-212.5 661,-242.5 774,-242.5 774,-212.5 661,-212.5"/>
<text text-anchor="start" x="669" y="-230.5" font-family="Helvetica,sans-Serif" font-size="10.00" fill="#000000">src/pybind/processors</text>
<text text-anchor="middle" x="717.5" y="-219.5" font-family="Helvetica,sans-Serif" font-size="10.00" fill="#000000">/py_processor.h</text>
</g>
<!-- Node21 -->
<g id="node2" class="node">
<title>Node21</title>
<g id="a_node2"><a xlink:href="pybind_8h.html" target="_top" xlink:title="This file includes all the header files containing definitions of functions to bind C++ and Python...">
<polygon fill="#ffffff" stroke="#000000" points="622.5,-67.5 622.5,-86.5 692.5,-86.5 692.5,-67.5 622.5,-67.5"/>
<text text-anchor="middle" x="657.5" y="-74.5" font-family="Helvetica,sans-Serif" font-size="10.00" fill="#000000">src/pybind.h</text>
</a>
</g>
</g>
<!-- Node20&#45;&gt;Node21 -->
<g id="edge1" class="edge">
<title>Node20&#45;&gt;Node21</title>
<path fill="none" stroke="#191970" d="M695.3822,-204.6235C688.3588,-196.2121 681.2036,-186.2291 676.5,-176 662.4619,-145.4706 658.7935,-105.0478 657.8366,-86.7445"/>
<polygon fill="#191970" stroke="#191970" points="692.7675,-206.9504 701.9912,-212.1633 698.0315,-202.3362 692.7675,-206.9504"/>
</g>
<!-- Node23 -->
<g id="node4" class="node">
<title>Node23</title>
<g id="a_node4"><a xlink:href="py__pro__data_8h.html" target="_top" xlink:title="This file is for binding ProData class to Python. ">
<polygon fill="#ffffff" stroke="#000000" points="56,-140 56,-170 169,-170 169,-140 56,-140"/>
<text text-anchor="start" x="64" y="-158" font-family="Helvetica,sans-Serif" font-size="10.00" fill="#000000">src/pybind/processors</text>
<text text-anchor="middle" x="112.5" y="-147" font-family="Helvetica,sans-Serif" font-size="10.00" fill="#000000">/py_pro_data.h</text>
</a>
</g>
</g>
<!-- Node20&#45;&gt;Node23 -->
<g id="edge3" class="edge">
<title>Node20&#45;&gt;Node23</title>
<path fill="none" stroke="#191970" d="M650.4415,-225.6679C547.8309,-221.8402 346.1174,-210.2667 178.5,-176 170.8425,-174.4346 162.8187,-172.3102 155.1082,-170.0117"/>
<polygon fill="#191970" stroke="#191970" points="650.538,-229.1735 660.6574,-226.0354 650.7898,-222.1781 650.538,-229.1735"/>
</g>
<!-- Node25 -->
<g id="node6" class="node">
<title>Node25</title>
<g id="a_node6"><a xlink:href="py__pro__thickness__profile_8h.html" target="_top" xlink:title="This file is for binding ProThicknessProfile class to Python. ">
<polygon fill="#ffffff" stroke="#000000" points="187.5,-140 187.5,-170 323.5,-170 323.5,-140 187.5,-140"/>
<text text-anchor="start" x="195.5" y="-158" font-family="Helvetica,sans-Serif" font-size="10.00" fill="#000000">src/pybind/processors</text>
<text text-anchor="middle" x="255.5" y="-147" font-family="Helvetica,sans-Serif" font-size="10.00" fill="#000000">/py_pro_thickness_profile.h</text>
</a>
</g>
</g>
<!-- Node20&#45;&gt;Node25 -->
<g id="edge6" class="edge">
<title>Node20&#45;&gt;Node25</title>
<path fill="none" stroke="#191970" d="M650.6138,-221.2853C573.4633,-213.4867 443.0407,-198.3633 332.5,-176 324.2155,-174.324 315.5072,-172.2543 307.0474,-170.0738"/>
<polygon fill="#191970" stroke="#191970" points="650.3781,-224.7791 660.6768,-222.2914 651.0746,-217.8138 650.3781,-224.7791"/>
</g>
<!-- Node27 -->
<g id="node8" class="node">
<title>Node27</title>
<g id="a_node8"><a xlink:href="py__pro__value__array_8h.html" target="_top" xlink:title="This file is for binding ProValueArray class to Python. ">
<polygon fill="#ffffff" stroke="#000000" points="342,-140 342,-170 455,-170 455,-140 342,-140"/>
<text text-anchor="start" x="350" y="-158" font-family="Helvetica,sans-Serif" font-size="10.00" fill="#000000">src/pybind/processors</text>
<text text-anchor="middle" x="398.5" y="-147" font-family="Helvetica,sans-Serif" font-size="10.00" fill="#000000">/py_pro_value_array.h</text>
</a>
</g>
</g>
<!-- Node20&#45;&gt;Node27 -->
<g id="edge9" class="edge">
<title>Node20&#45;&gt;Node27</title>
<path fill="none" stroke="#191970" d="M650.8661,-215.955C599.5876,-206.5847 527.1318,-192.2886 464.5,-176 457.7504,-174.2446 450.6714,-172.2067 443.7587,-170.1044"/>
<polygon fill="#191970" stroke="#191970" points="650.3661,-219.4214 660.8303,-217.7625 651.6156,-212.5338 650.3661,-219.4214"/>
</g>
<!-- Node29 -->
<g id="node10" class="node">
<title>Node29</title>
<g id="a_node10"><a xlink:href="py__pro__distance__in__molecule_8h.html" target="_top" xlink:title="This file is for binding ProDistanceInMolecule class to Python. ">
<polygon fill="#ffffff" stroke="#000000" points="473.5,-140 473.5,-170 629.5,-170 629.5,-140 473.5,-140"/>
<text text-anchor="start" x="481.5" y="-158" font-family="Helvetica,sans-Serif" font-size="10.00" fill="#000000">src/pybind/processors</text>
<text text-anchor="middle" x="551.5" y="-147" font-family="Helvetica,sans-Serif" font-size="10.00" fill="#000000">/py_pro_distance_in_molecule.h</text>
</a>
</g>
</g>
<!-- Node20&#45;&gt;Node29 -->
<g id="edge12" class="edge">
<title>Node20&#45;&gt;Node29</title>
<path fill="none" stroke="#191970" d="M673.7244,-208.3811C646.2485,-196.3811 611.3253,-181.1285 585.8512,-170.0028"/>
<polygon fill="#191970" stroke="#191970" points="672.5397,-211.6829 683.1047,-212.478 675.3414,-205.2681 672.5397,-211.6829"/>
</g>
<!-- Node31 -->
<g id="node12" class="node">
<title>Node31</title>
<g id="a_node12"><a xlink:href="py__pro__mean__square__displacement_8h_source.html" target="_top" xlink:title="src/pybind/processors\l/py_pro_mean_square_displacement.h">
<polygon fill="#ffffff" stroke="#000000" points="685.5,-140 685.5,-170 869.5,-170 869.5,-140 685.5,-140"/>
<text text-anchor="start" x="693.5" y="-158" font-family="Helvetica,sans-Serif" font-size="10.00" fill="#000000">src/pybind/processors</text>
<text text-anchor="middle" x="777.5" y="-147" font-family="Helvetica,sans-Serif" font-size="10.00" fill="#000000">/py_pro_mean_square_displacement.h</text>
</a>
</g>
</g>
<!-- Node20&#45;&gt;Node31 -->
<g id="edge15" class="edge">
<title>Node20&#45;&gt;Node31</title>
<path fill="none" stroke="#191970" d="M736.3901,-204.6745C745.7547,-193.3589 756.8012,-180.0111 765.0839,-170.0028"/>
<polygon fill="#191970" stroke="#191970" points="733.6114,-202.5425 729.932,-212.478 739.0041,-207.0055 733.6114,-202.5425"/>
</g>
<!-- Node33 -->
<g id="node14" class="node">
<title>Node33</title>
<g id="a_node14"><a xlink:href="py__pro__radial__distribution__function_8h.html" target="_top" xlink:title="This file is for binding ProRadialDistributionFunction class to Python. ">
<polygon fill="#ffffff" stroke="#000000" points="887.5,-134.5 887.5,-175.5 1017.5,-175.5 1017.5,-134.5 887.5,-134.5"/>
<text text-anchor="start" x="895.5" y="-163.5" font-family="Helvetica,sans-Serif" font-size="10.00" fill="#000000">src/pybind/processors</text>
<text text-anchor="start" x="895.5" y="-152.5" font-family="Helvetica,sans-Serif" font-size="10.00" fill="#000000">/py_pro_radial_distribution</text>
<text text-anchor="middle" x="952.5" y="-141.5" font-family="Helvetica,sans-Serif" font-size="10.00" fill="#000000">_function.h</text>
</a>
</g>
</g>
<!-- Node20&#45;&gt;Node33 -->
<g id="edge18" class="edge">
<title>Node20&#45;&gt;Node33</title>
<path fill="none" stroke="#191970" d="M775.9398,-209.4707C809.7815,-199.0302 852.4564,-185.8645 887.3734,-175.0922"/>
<polygon fill="#191970" stroke="#191970" points="774.7159,-206.1854 766.1922,-212.478 776.7796,-212.8743 774.7159,-206.1854"/>
</g>
<!-- Node35 -->
<g id="node16" class="node">
<title>Node35</title>
<g id="a_node16"><a xlink:href="py__pro__time__correlation__in__molecule_8h.html" target="_top" xlink:title="This file is for binding ProTimeCorrelationInMolecule class to Python. ">
<polygon fill="#ffffff" stroke="#000000" points="1036,-134.5 1036,-175.5 1159,-175.5 1159,-134.5 1036,-134.5"/>
<text text-anchor="start" x="1044" y="-163.5" font-family="Helvetica,sans-Serif" font-size="10.00" fill="#000000">src/pybind/processors</text>
<text text-anchor="start" x="1044" y="-152.5" font-family="Helvetica,sans-Serif" font-size="10.00" fill="#000000">/py_pro_time_correlation</text>
<text text-anchor="middle" x="1097.5" y="-141.5" font-family="Helvetica,sans-Serif" font-size="10.00" fill="#000000">_in_molecule.h</text>
</a>
</g>
</g>
<!-- Node20&#45;&gt;Node35 -->
<g id="edge21" class="edge">
<title>Node20&#45;&gt;Node35</title>
<path fill="none" stroke="#191970" d="M784.1916,-218.7914C847.088,-210.0119 943.7896,-195.049 1026.5,-176 1029.5063,-175.3076 1032.573,-174.5605 1035.6622,-173.775"/>
<polygon fill="#191970" stroke="#191970" points="783.4358,-215.3625 774.0098,-220.1998 784.3951,-222.2965 783.4358,-215.3625"/>
</g>
<!-- Node37 -->
<g id="node18" class="node">
<title>Node37</title>
<g id="a_node18"><a xlink:href="py__pro__radial__distribution__function__with__deformation_8h.html" target="_top" xlink:title="This file is for binding ProRadialDistributionFunctionWithDeformation class to Python. ">
<polygon fill="#ffffff" stroke="#000000" points="1177,-134.5 1177,-175.5 1320,-175.5 1320,-134.5 1177,-134.5"/>
<text text-anchor="start" x="1185" y="-163.5" font-family="Helvetica,sans-Serif" font-size="10.00" fill="#000000">src/pybind/processors</text>
<text text-anchor="start" x="1185" y="-152.5" font-family="Helvetica,sans-Serif" font-size="10.00" fill="#000000">/py_pro_radial_distribution</text>
<text text-anchor="middle" x="1248.5" y="-141.5" font-family="Helvetica,sans-Serif" font-size="10.00" fill="#000000">_function_with_deformation.h</text>
</a>
</g>
</g>
<!-- Node20&#45;&gt;Node37 -->
<g id="edge24" class="edge">
<title>Node20&#45;&gt;Node37</title>
<path fill="none" stroke="#191970" d="M784.2942,-222.8745C872.7258,-216.0674 1033.265,-201.3363 1168.5,-176 1171.1816,-175.4976 1173.9059,-174.9541 1176.6517,-174.3783"/>
<polygon fill="#191970" stroke="#191970" points="783.8415,-219.3988 774.1353,-223.646 784.3716,-226.3787 783.8415,-219.3988"/>
</g>
<!-- Node39 -->
<g id="node20" class="node">
<title>Node39</title>
<g id="a_node20"><a xlink:href="py__processor_8cpp.html" target="_top" xlink:title="This file is for binding Processor class to Python. ">
<polygon fill="#ffffff" stroke="#000000" points="1338,-140 1338,-170 1451,-170 1451,-140 1338,-140"/>
<text text-anchor="start" x="1346" y="-158" font-family="Helvetica,sans-Serif" font-size="10.00" fill="#000000">src/pybind/processors</text>
<text text-anchor="middle" x="1394.5" y="-147" font-family="Helvetica,sans-Serif" font-size="10.00" fill="#000000">/py_processor.cpp</text>
</a>
</g>
</g>
<!-- Node20&#45;&gt;Node39 -->
<g id="edge27" class="edge">
<title>Node20&#45;&gt;Node39</title>
<path fill="none" stroke="#191970" d="M784.4025,-223.8057C920.7844,-215.9573 1226.7252,-196.6433 1329.5,-176 1337.0574,-174.482 1344.9676,-172.381 1352.5641,-170.091"/>
<polygon fill="#191970" stroke="#191970" points="783.8789,-220.3298 774.0952,-224.3956 784.2789,-227.3184 783.8789,-220.3298"/>
</g>
<!-- Node22 -->
<g id="node3" class="node">
<title>Node22</title>
<g id="a_node3"><a xlink:href="ppap4lmp_8cpp.html" target="_top" xlink:title="This file has no implementation, only includes a header file to bind C++ and Python. ">
<polygon fill="#ffffff" stroke="#000000" points="610.5,-.5 610.5,-19.5 704.5,-19.5 704.5,-.5 610.5,-.5"/>
<text text-anchor="middle" x="657.5" y="-7.5" font-family="Helvetica,sans-Serif" font-size="10.00" fill="#000000">src/ppap4lmp.cpp</text>
</a>
</g>
</g>
<!-- Node21&#45;&gt;Node22 -->
<g id="edge2" class="edge">
<title>Node21&#45;&gt;Node22</title>
<path fill="none" stroke="#191970" d="M657.5,-57.1079C657.5,-44.714 657.5,-29.3263 657.5,-19.5817"/>
<polygon fill="#191970" stroke="#191970" points="654.0001,-57.4005 657.5,-67.4005 661.0001,-57.4006 654.0001,-57.4005"/>
</g>
<!-- Node23&#45;&gt;Node21 -->
<g id="edge4" class="edge">
<title>Node23&#45;&gt;Node21</title>
<path fill="none" stroke="#191970" d="M164.9709,-137.1407C169.5141,-135.9496 174.0675,-134.8773 178.5,-134 368.3678,-96.4191 425.4387,-147.701 612.5,-98 622.1654,-95.432 632.311,-90.8794 640.5172,-86.6682"/>
<polygon fill="#191970" stroke="#191970" points="163.7772,-133.8403 155.0922,-139.9083 165.6656,-140.5807 163.7772,-133.8403"/>
</g>
<!-- Node24 -->
<g id="node5" class="node">
<title>Node24</title>
<g id="a_node5"><a xlink:href="py__pro__data_8cpp.html" target="_top" xlink:title="This file is for binding ProData class to Python. ">
<polygon fill="#ffffff" stroke="#000000" points="0,-62 0,-92 113,-92 113,-62 0,-62"/>
<text text-anchor="start" x="8" y="-80" font-family="Helvetica,sans-Serif" font-size="10.00" fill="#000000">src/pybind/processors</text>
<text text-anchor="middle" x="56.5" y="-69" font-family="Helvetica,sans-Serif" font-size="10.00" fill="#000000">/py_pro_data.cpp</text>
</a>
</g>
</g>
<!-- Node23&#45;&gt;Node24 -->
<g id="edge5" class="edge">
<title>Node23&#45;&gt;Node24</title>
<path fill="none" stroke="#191970" d="M95.7319,-131.6445C86.5765,-118.8923 75.5006,-103.4652 67.4553,-92.2592"/>
<polygon fill="#191970" stroke="#191970" points="93.0274,-133.8788 101.7026,-139.9608 98.7137,-129.7963 93.0274,-133.8788"/>
</g>
<!-- Node25&#45;&gt;Node21 -->
<g id="edge7" class="edge">
<title>Node25&#45;&gt;Node21</title>
<path fill="none" stroke="#191970" d="M316.3653,-137.5691C321.799,-136.2654 327.2346,-135.0512 332.5,-134 455.5405,-109.4347 491.9958,-132.9451 612.5,-98 621.9394,-95.2627 631.8955,-90.7989 640.0362,-86.6891"/>
<polygon fill="#191970" stroke="#191970" points="315.4811,-134.1823 306.6241,-139.9964 317.1737,-140.9746 315.4811,-134.1823"/>
</g>
<!-- Node26 -->
<g id="node7" class="node">
<title>Node26</title>
<g id="a_node7"><a xlink:href="py__pro__thickness__profile_8cpp.html" target="_top" xlink:title="This file is for binding ProThicknessProfile class to Python. ">
<polygon fill="#ffffff" stroke="#000000" points="131.5,-62 131.5,-92 277.5,-92 277.5,-62 131.5,-62"/>
<text text-anchor="start" x="139.5" y="-80" font-family="Helvetica,sans-Serif" font-size="10.00" fill="#000000">src/pybind/processors</text>
<text text-anchor="middle" x="204.5" y="-69" font-family="Helvetica,sans-Serif" font-size="10.00" fill="#000000">/py_pro_thickness_profile.cpp</text>
</a>
</g>
</g>
<!-- Node25&#45;&gt;Node26 -->
<g id="edge8" class="edge">
<title>Node25&#45;&gt;Node26</title>
<path fill="none" stroke="#191970" d="M239.9881,-131.2759C231.6974,-118.596 221.7337,-103.3574 214.4771,-92.2592"/>
<polygon fill="#191970" stroke="#191970" points="237.2648,-133.5065 245.6667,-139.9608 243.1235,-129.6757 237.2648,-133.5065"/>
</g>
<!-- Node27&#45;&gt;Node21 -->
<g id="edge10" class="edge">
<title>Node27&#45;&gt;Node21</title>
<path fill="none" stroke="#191970" d="M454.2759,-136.9544C457.7282,-135.9302 461.1569,-134.9372 464.5,-134 529.6827,-115.7262 548.6259,-120.4236 612.5,-98 621.4481,-94.8587 631.0148,-90.5397 639.0165,-86.6351"/>
<polygon fill="#191970" stroke="#191970" points="453.092,-133.6559 444.5351,-139.9033 455.1203,-140.3556 453.092,-133.6559"/>
</g>
<!-- Node28 -->
<g id="node9" class="node">
<title>Node28</title>
<g id="a_node9"><a xlink:href="py__pro__value__array_8cpp.html" target="_top" xlink:title="This file is for binding ProValueArray class to Python. ">
<polygon fill="#ffffff" stroke="#000000" points="296,-62 296,-92 419,-92 419,-62 296,-62"/>
<text text-anchor="start" x="304" y="-80" font-family="Helvetica,sans-Serif" font-size="10.00" fill="#000000">src/pybind/processors</text>
<text text-anchor="middle" x="357.5" y="-69" font-family="Helvetica,sans-Serif" font-size="10.00" fill="#000000">/py_pro_value_array.cpp</text>
</a>
</g>
</g>
<!-- Node27&#45;&gt;Node28 -->
<g id="edge11" class="edge">
<title>Node27&#45;&gt;Node28</title>
<path fill="none" stroke="#191970" d="M385.8351,-130.9059C379.2092,-118.3005 371.2979,-103.2497 365.5208,-92.2592"/>
<polygon fill="#191970" stroke="#191970" points="382.8439,-132.7377 390.5948,-139.9608 389.04,-129.4807 382.8439,-132.7377"/>
</g>
<!-- Node29&#45;&gt;Node21 -->
<g id="edge13" class="edge">
<title>Node29&#45;&gt;Node21</title>
<path fill="none" stroke="#191970" d="M580.1809,-133.8952C601.1291,-118.4805 628.5492,-98.3034 644.4758,-86.5839"/>
<polygon fill="#191970" stroke="#191970" points="577.9179,-131.2149 571.9379,-139.9608 582.0667,-136.853 577.9179,-131.2149"/>
</g>
<!-- Node30 -->
<g id="node11" class="node">
<title>Node30</title>
<g id="a_node11"><a xlink:href="py__pro__distance__in__molecule_8cpp.html" target="_top" xlink:title="This file is for binding ProDistanceInMolecule class to Python. ">
<polygon fill="#ffffff" stroke="#000000" points="437,-62 437,-92 604,-92 604,-62 437,-62"/>
<text text-anchor="start" x="445" y="-80" font-family="Helvetica,sans-Serif" font-size="10.00" fill="#000000">src/pybind/processors</text>
<text text-anchor="middle" x="520.5" y="-69" font-family="Helvetica,sans-Serif" font-size="10.00" fill="#000000">/py_pro_distance_in_molecule.cpp</text>
</a>
</g>
</g>
<!-- Node29&#45;&gt;Node30 -->
<g id="edge14" class="edge">
<title>Node29&#45;&gt;Node30</title>
<path fill="none" stroke="#191970" d="M541.7765,-130.5344C536.7972,-118.0058 530.8897,-103.1419 526.5645,-92.2592"/>
<polygon fill="#191970" stroke="#191970" points="538.5769,-131.9605 545.5229,-139.9608 545.082,-129.3752 538.5769,-131.9605"/>
</g>
<!-- Node31&#45;&gt;Node21 -->
<g id="edge16" class="edge">
<title>Node31&#45;&gt;Node21</title>
<path fill="none" stroke="#191970" d="M745.9757,-134.5092C722.1462,-119.02 690.5149,-98.4597 672.2444,-86.5839"/>
<polygon fill="#191970" stroke="#191970" points="744.0709,-137.4454 754.3628,-139.9608 747.8858,-131.5763 744.0709,-137.4454"/>
</g>
<!-- Node32 -->
<g id="node13" class="node">
<title>Node32</title>
<g id="a_node13"><a xlink:href="py__pro__mean__square__displacement_8cpp.html" target="_top" xlink:title="This file is for binding ProMeanSquareDisplacement class to Python. ">
<polygon fill="#ffffff" stroke="#000000" points="710.5,-62 710.5,-92 904.5,-92 904.5,-62 710.5,-62"/>
<text text-anchor="start" x="718.5" y="-80" font-family="Helvetica,sans-Serif" font-size="10.00" fill="#000000">src/pybind/processors</text>
<text text-anchor="middle" x="807.5" y="-69" font-family="Helvetica,sans-Serif" font-size="10.00" fill="#000000">/py_pro_mean_square_displacement.cpp</text>
</a>
</g>
</g>
<!-- Node31&#45;&gt;Node32 -->
<g id="edge17" class="edge">
<title>Node31&#45;&gt;Node32</title>
<path fill="none" stroke="#191970" d="M786.9098,-130.5344C791.7285,-118.0058 797.4454,-103.1419 801.6311,-92.2592"/>
<polygon fill="#191970" stroke="#191970" points="783.6074,-129.3709 783.2843,-139.9608 790.1409,-131.8838 783.6074,-129.3709"/>
</g>
<!-- Node33&#45;&gt;Node21 -->
<g id="edge19" class="edge">
<title>Node33&#45;&gt;Node21</title>
<path fill="none" stroke="#191970" d="M877.3257,-133.8321C798.6287,-115.6368 774.6528,-122.484 701.5,-98 692.5101,-94.9911 682.9645,-90.5955 675.0702,-86.6024"/>
<polygon fill="#191970" stroke="#191970" points="876.6629,-137.272 887.2012,-136.179 878.2814,-130.4616 876.6629,-137.272"/>
</g>
<!-- Node34 -->
<g id="node15" class="node">
<title>Node34</title>
<g id="a_node15"><a xlink:href="py__pro__radial__distribution__function_8cpp.html" target="_top" xlink:title="This file is for binding ProRadialDistributionFunction class to Python. ">
<polygon fill="#ffffff" stroke="#000000" points="922.5,-56.5 922.5,-97.5 1052.5,-97.5 1052.5,-56.5 922.5,-56.5"/>
<text text-anchor="start" x="930.5" y="-85.5" font-family="Helvetica,sans-Serif" font-size="10.00" fill="#000000">src/pybind/processors</text>
<text text-anchor="start" x="930.5" y="-74.5" font-family="Helvetica,sans-Serif" font-size="10.00" fill="#000000">/py_pro_radial_distribution</text>
<text text-anchor="middle" x="987.5" y="-63.5" font-family="Helvetica,sans-Serif" font-size="10.00" fill="#000000">_function.cpp</text>
</a>
</g>
</g>
<!-- Node33&#45;&gt;Node34 -->
<g id="edge20" class="edge">
<title>Node33&#45;&gt;Node34</title>
<path fill="none" stroke="#191970" d="M965.9868,-124.9438C970.074,-115.8351 974.47,-106.0384 978.2161,-97.6898"/>
<polygon fill="#191970" stroke="#191970" points="962.7801,-123.5409 961.8794,-134.0974 969.1666,-126.4067 962.7801,-123.5409"/>
</g>
<!-- Node35&#45;&gt;Node21 -->
<g id="edge22" class="edge">
<title>Node35&#45;&gt;Node21</title>
<path fill="none" stroke="#191970" d="M1025.6489,-134.0441C882.0679,-106.7047 838.1167,-136.961 701.5,-98 692.0579,-95.3072 682.1385,-90.743 674.113,-86.5562"/>
<polygon fill="#191970" stroke="#191970" points="1025.2188,-137.5264 1035.7062,-136.0214 1026.5693,-130.6579 1025.2188,-137.5264"/>
</g>
<!-- Node36 -->
<g id="node17" class="node">
<title>Node36</title>
<g id="a_node17"><a xlink:href="py__pro__time__correlation__in__molecule_8cpp.html" target="_top" xlink:title="This file is for binding ProTimeCorrelationInMolecule class to Python. ">
<polygon fill="#ffffff" stroke="#000000" points="1071,-56.5 1071,-97.5 1194,-97.5 1194,-56.5 1071,-56.5"/>
<text text-anchor="start" x="1079" y="-85.5" font-family="Helvetica,sans-Serif" font-size="10.00" fill="#000000">src/pybind/processors</text>
<text text-anchor="start" x="1079" y="-74.5" font-family="Helvetica,sans-Serif" font-size="10.00" fill="#000000">/py_pro_time_correlation</text>
<text text-anchor="middle" x="1132.5" y="-63.5" font-family="Helvetica,sans-Serif" font-size="10.00" fill="#000000">_in_molecule.cpp</text>
</a>
</g>
</g>
<!-- Node35&#45;&gt;Node36 -->
<g id="edge23" class="edge">
<title>Node35&#45;&gt;Node36</title>
<path fill="none" stroke="#191970" d="M1110.9868,-124.9438C1115.074,-115.8351 1119.47,-106.0384 1123.2161,-97.6898"/>
<polygon fill="#191970" stroke="#191970" points="1107.7801,-123.5409 1106.8794,-134.0974 1114.1666,-126.4067 1107.7801,-123.5409"/>
</g>
<!-- Node37&#45;&gt;Node21 -->
<g id="edge25" class="edge">
<title>Node37&#45;&gt;Node21</title>
<path fill="none" stroke="#191970" d="M1166.7793,-133.8683C961.2904,-101.042 899.4723,-150.902 701.5,-98 692.0142,-95.4652 682.0907,-90.9158 674.0739,-86.698"/>
<polygon fill="#191970" stroke="#191970" points="1166.239,-137.3264 1176.6742,-135.4947 1167.3743,-130.419 1166.239,-137.3264"/>
</g>
<!-- Node38 -->
<g id="node19" class="node">
<title>Node38</title>
<g id="a_node19"><a xlink:href="py__pro__radial__distribution__function__with__deformation_8cpp.html" target="_top" xlink:title="This file is for binding ProRadialDistributionFunctionWithDeformation class to Python. ">
<polygon fill="#ffffff" stroke="#000000" points="1212.5,-56.5 1212.5,-97.5 1366.5,-97.5 1366.5,-56.5 1212.5,-56.5"/>
<text text-anchor="start" x="1220.5" y="-85.5" font-family="Helvetica,sans-Serif" font-size="10.00" fill="#000000">src/pybind/processors</text>
<text text-anchor="start" x="1220.5" y="-74.5" font-family="Helvetica,sans-Serif" font-size="10.00" fill="#000000">/py_pro_radial_distribution</text>
<text text-anchor="middle" x="1289.5" y="-63.5" font-family="Helvetica,sans-Serif" font-size="10.00" fill="#000000">_function_with_deformation.cpp</text>
</a>
</g>
</g>
<!-- Node37&#45;&gt;Node38 -->
<g id="edge26" class="edge">
<title>Node37&#45;&gt;Node38</title>
<path fill="none" stroke="#191970" d="M1264.1477,-125.2312C1268.9782,-116.0415 1274.19,-106.1263 1278.6246,-97.6898"/>
<polygon fill="#191970" stroke="#191970" points="1261.042,-123.6173 1259.4872,-134.0974 1267.2382,-126.8743 1261.042,-123.6173"/>
</g>
</g>
</svg>
