<?xml version="1.0" encoding="UTF-8" standalone="no"?>
<!DOCTYPE svg PUBLIC "-//W3C//DTD SVG 1.1//EN"
 "http://www.w3.org/Graphics/SVG/1.1/DTD/svg11.dtd">
<!-- Generated by graphviz version 2.40.1 (20161225.0304)
 -->
<!-- Title: src/pybind/adders/py_adder.h Pages: 1 -->
<svg width="1792pt" height="229pt"
 viewBox="0.00 0.00 1792.00 229.00" xmlns="http://www.w3.org/2000/svg" xmlns:xlink="http://www.w3.org/1999/xlink">
<g id="graph0" class="graph" transform="scale(1 1) rotate(0) translate(4 225)">
<title>src/pybind/adders/py_adder.h</title>
<polygon fill="#ffffff" stroke="transparent" points="-4,4 -4,-225 1788,-225 1788,4 -4,4"/>
<!-- Node23 -->
<g id="node1" class="node">
<title>Node23</title>
<polygon fill="#bfbfbf" stroke="#000000" points="800,-190.5 800,-220.5 907,-220.5 907,-190.5 800,-190.5"/>
<text text-anchor="start" x="808" y="-208.5" font-family="Helvetica,sans-Serif" font-size="10.00" fill="#000000">src/pybind/adders/py</text>
<text text-anchor="middle" x="853.5" y="-197.5" font-family="Helvetica,sans-Serif" font-size="10.00" fill="#000000">_adder.h</text>
</g>
<!-- Node24 -->
<g id="node2" class="node">
<title>Node24</title>
<g id="a_node2"><a xlink:href="pybind_8h.html" target="_top" xlink:title="This file includes all the header files containing definitions of functions to bind C++ and Python...">
<polygon fill="#ffffff" stroke="#000000" points="777.5,-62 777.5,-81 847.5,-81 847.5,-62 777.5,-62"/>
<text text-anchor="middle" x="812.5" y="-69" font-family="Helvetica,sans-Serif" font-size="10.00" fill="#000000">src/pybind.h</text>
</a>
</g>
</g>
<!-- Node23&#45;&gt;Node24 -->
<g id="edge1" class="edge">
<title>Node23&#45;&gt;Node24</title>
<path fill="none" stroke="#191970" d="M842.049,-181.1506C838.3483,-172.6802 834.4448,-163.0361 831.5,-154 823.1203,-128.2869 816.971,-96.9168 814.1749,-81.305"/>
<polygon fill="#191970" stroke="#191970" points="838.9368,-182.7637 846.2306,-190.4481 845.3208,-179.8924 838.9368,-182.7637"/>
</g>
<!-- Node26 -->
<g id="node4" class="node">
<title>Node26</title>
<g id="a_node4"><a xlink:href="py__add__angle_8h.html" target="_top" xlink:title="This file is for binding AddAngle class to Python. ">
<polygon fill="#ffffff" stroke="#000000" points="43,-123.5 43,-153.5 150,-153.5 150,-123.5 43,-123.5"/>
<text text-anchor="start" x="51" y="-141.5" font-family="Helvetica,sans-Serif" font-size="10.00" fill="#000000">src/pybind/adders/py</text>
<text text-anchor="middle" x="96.5" y="-130.5" font-family="Helvetica,sans-Serif" font-size="10.00" fill="#000000">_add_angle.h</text>
</a>
</g>
</g>
<!-- Node23&#45;&gt;Node26 -->
<g id="edge3" class="edge">
<title>Node23&#45;&gt;Node26</title>
<path fill="none" stroke="#191970" d="M789.5997,-204.4099C666.6434,-201.5089 388.9035,-191.0576 158.5,-154 155.7614,-153.5595 152.9664,-153.0573 150.1522,-152.5095"/>
<polygon fill="#191970" stroke="#191970" points="789.8743,-207.9169 799.9512,-204.6448 790.0332,-200.9187 789.8743,-207.9169"/>
</g>
<!-- Node28 -->
<g id="node6" class="node">
<title>Node28</title>
<g id="a_node6"><a xlink:href="py__add__map_8h.html" target="_top" xlink:title="This file is for binding AddMap class to Python. ">
<polygon fill="#ffffff" stroke="#000000" points="168,-123.5 168,-153.5 275,-153.5 275,-123.5 168,-123.5"/>
<text text-anchor="start" x="176" y="-141.5" font-family="Helvetica,sans-Serif" font-size="10.00" fill="#000000">src/pybind/adders/py</text>
<text text-anchor="middle" x="221.5" y="-130.5" font-family="Helvetica,sans-Serif" font-size="10.00" fill="#000000">_add_map.h</text>
</a>
</g>
</g>
<!-- Node23&#45;&gt;Node28 -->
<g id="edge6" class="edge">
<title>Node23&#45;&gt;Node28</title>
<path fill="none" stroke="#191970" d="M789.5067,-202.9521C683.6129,-198.0141 465.5407,-184.7882 283.5,-154 280.765,-153.5374 277.973,-153.0174 275.1611,-152.4555"/>
<polygon fill="#191970" stroke="#191970" points="789.5574,-206.4579 799.7067,-203.4181 789.877,-199.4652 789.5574,-206.4579"/>
</g>
<!-- Node30 -->
<g id="node8" class="node">
<title>Node30</title>
<g id="a_node8"><a xlink:href="py__add__rename_8h.html" target="_top" xlink:title="This file is for binding AddRename class to Python. ">
<polygon fill="#ffffff" stroke="#000000" points="293,-123.5 293,-153.5 400,-153.5 400,-123.5 293,-123.5"/>
<text text-anchor="start" x="301" y="-141.5" font-family="Helvetica,sans-Serif" font-size="10.00" fill="#000000">src/pybind/adders/py</text>
<text text-anchor="middle" x="346.5" y="-130.5" font-family="Helvetica,sans-Serif" font-size="10.00" fill="#000000">_add_rename.h</text>
</a>
</g>
</g>
<!-- Node23&#45;&gt;Node30 -->
<g id="edge9" class="edge">
<title>Node23&#45;&gt;Node30</title>
<path fill="none" stroke="#191970" d="M789.5228,-200.7207C702.7286,-193.6405 543.0523,-178.4981 408.5,-154 405.7711,-153.5031 402.9839,-152.9555 400.1758,-152.3717"/>
<polygon fill="#191970" stroke="#191970" points="789.4907,-204.2294 799.7396,-201.5443 790.0532,-197.252 789.4907,-204.2294"/>
</g>
<!-- Node32 -->
<g id="node10" class="node">
<title>Node32</title>
<g id="a_node10"><a xlink:href="py__add__bond__length_8h.html" target="_top" xlink:title="This file is for binding AddBondLength class to Python. ">
<polygon fill="#ffffff" stroke="#000000" points="418,-123.5 418,-153.5 525,-153.5 525,-123.5 418,-123.5"/>
<text text-anchor="start" x="426" y="-141.5" font-family="Helvetica,sans-Serif" font-size="10.00" fill="#000000">src/pybind/adders/py</text>
<text text-anchor="middle" x="471.5" y="-130.5" font-family="Helvetica,sans-Serif" font-size="10.00" fill="#000000">_add_bond_length.h</text>
</a>
</g>
</g>
<!-- Node23&#45;&gt;Node32 -->
<g id="edge12" class="edge">
<title>Node23&#45;&gt;Node32</title>
<path fill="none" stroke="#191970" d="M789.6776,-196.8667C724.8804,-187.7179 621.7967,-172.1078 533.5,-154 530.7828,-153.4428 528.005,-152.8465 525.2043,-152.2242"/>
<polygon fill="#191970" stroke="#191970" points="789.3508,-200.355 799.7402,-198.2789 790.3238,-193.423 789.3508,-200.355"/>
</g>
<!-- Node34 -->
<g id="node12" class="node">
<title>Node34</title>
<g id="a_node12"><a xlink:href="py__add__child__ids_8h.html" target="_top" xlink:title="This file is for binding AddChildIDs class to Python. ">
<polygon fill="#ffffff" stroke="#000000" points="543,-123.5 543,-153.5 650,-153.5 650,-123.5 543,-123.5"/>
<text text-anchor="start" x="551" y="-141.5" font-family="Helvetica,sans-Serif" font-size="10.00" fill="#000000">src/pybind/adders/py</text>
<text text-anchor="middle" x="596.5" y="-130.5" font-family="Helvetica,sans-Serif" font-size="10.00" fill="#000000">_add_child_ids.h</text>
</a>
</g>
</g>
<!-- Node23&#45;&gt;Node34 -->
<g id="edge15" class="edge">
<title>Node23&#45;&gt;Node34</title>
<path fill="none" stroke="#191970" d="M790.1665,-188.9889C747.2708,-177.806 691.1995,-163.1882 650.4356,-152.561"/>
<polygon fill="#191970" stroke="#191970" points="789.3777,-192.4002 799.9372,-191.5362 791.1436,-185.6266 789.3777,-192.4002"/>
</g>
<!-- Node36 -->
<g id="node14" class="node">
<title>Node36</title>
<g id="a_node14"><a xlink:href="py__add__child__positions_8h.html" target="_top" xlink:title="This file is for binding AddChildPositions class to Python. ">
<polygon fill="#ffffff" stroke="#000000" points="668.5,-123.5 668.5,-153.5 784.5,-153.5 784.5,-123.5 668.5,-123.5"/>
<text text-anchor="start" x="676.5" y="-141.5" font-family="Helvetica,sans-Serif" font-size="10.00" fill="#000000">src/pybind/adders/py</text>
<text text-anchor="middle" x="726.5" y="-130.5" font-family="Helvetica,sans-Serif" font-size="10.00" fill="#000000">_add_child_positions.h</text>
</a>
</g>
</g>
<!-- Node23&#45;&gt;Node36 -->
<g id="edge18" class="edge">
<title>Node23&#45;&gt;Node36</title>
<path fill="none" stroke="#191970" d="M816.1095,-185.7743C796.6978,-175.5335 773.3444,-163.2132 755.3456,-153.7177"/>
<polygon fill="#191970" stroke="#191970" points="814.5209,-188.8934 824.9987,-190.4639 817.7872,-182.7021 814.5209,-188.8934"/>
</g>
<!-- Node38 -->
<g id="node16" class="node">
<title>Node38</title>
<g id="a_node16"><a xlink:href="py__add__com__position_8h.html" target="_top" xlink:title="This file is for binding AddCoMPosition class to Python. ">
<polygon fill="#ffffff" stroke="#000000" points="841,-123.5 841,-153.5 950,-153.5 950,-123.5 841,-123.5"/>
<text text-anchor="start" x="849" y="-141.5" font-family="Helvetica,sans-Serif" font-size="10.00" fill="#000000">src/pybind/adders/py</text>
<text text-anchor="middle" x="895.5" y="-130.5" font-family="Helvetica,sans-Serif" font-size="10.00" fill="#000000">_add_com_position.h</text>
</a>
</g>
</g>
<!-- Node23&#45;&gt;Node38 -->
<g id="edge21" class="edge">
<title>Node23&#45;&gt;Node38</title>
<path fill="none" stroke="#191970" d="M868.3733,-181.7735C874.2396,-172.4154 880.805,-161.9421 886.0073,-153.6432"/>
<polygon fill="#191970" stroke="#191970" points="865.3763,-179.9648 863.0305,-190.2967 871.3074,-183.6828 865.3763,-179.9648"/>
</g>
<!-- Node40 -->
<g id="node18" class="node">
<title>Node40</title>
<g id="a_node18"><a xlink:href="py__add__gyration__radius_8h.html" target="_top" xlink:title="This file is for binding AddGyrationRadius class to Python. ">
<polygon fill="#ffffff" stroke="#000000" points="968,-123.5 968,-153.5 1085,-153.5 1085,-123.5 968,-123.5"/>
<text text-anchor="start" x="976" y="-141.5" font-family="Helvetica,sans-Serif" font-size="10.00" fill="#000000">src/pybind/adders/py</text>
<text text-anchor="middle" x="1026.5" y="-130.5" font-family="Helvetica,sans-Serif" font-size="10.00" fill="#000000">_add_gyration_radius.h</text>
</a>
</g>
</g>
<!-- Node23&#45;&gt;Node40 -->
<g id="edge24" class="edge">
<title>Node23&#45;&gt;Node40</title>
<path fill="none" stroke="#191970" d="M901.9724,-186.7275C928.9887,-176.2645 962.1842,-163.4084 987.5061,-153.6017"/>
<polygon fill="#191970" stroke="#191970" points="900.3856,-183.5886 892.3246,-190.4639 902.9137,-190.1162 900.3856,-183.5886"/>
</g>
<!-- Node42 -->
<g id="node20" class="node">
<title>Node42</title>
<g id="a_node20"><a xlink:href="py__add__inertia__moment_8h.html" target="_top" xlink:title="This file is for binding AddInertiaMoment class to Python. ">
<polygon fill="#ffffff" stroke="#000000" points="1103.5,-123.5 1103.5,-153.5 1221.5,-153.5 1221.5,-123.5 1103.5,-123.5"/>
<text text-anchor="start" x="1111.5" y="-141.5" font-family="Helvetica,sans-Serif" font-size="10.00" fill="#000000">src/pybind/adders/py</text>
<text text-anchor="middle" x="1162.5" y="-130.5" font-family="Helvetica,sans-Serif" font-size="10.00" fill="#000000">_add_inertia_moment.h</text>
</a>
</g>
</g>
<!-- Node23&#45;&gt;Node42 -->
<g id="edge27" class="edge">
<title>Node23&#45;&gt;Node42</title>
<path fill="none" stroke="#191970" d="M917.2079,-192.1324C965.8213,-181.8723 1034.4335,-167.2631 1094.5,-154 1097.3377,-153.3734 1100.2409,-152.7281 1103.1725,-152.0731"/>
<polygon fill="#191970" stroke="#191970" points="916.2108,-188.7656 907.1482,-194.2537 917.6552,-195.615 916.2108,-188.7656"/>
</g>
<!-- Node44 -->
<g id="node22" class="node">
<title>Node44</title>
<g id="a_node22"><a xlink:href="py__add__molecular__orientation_8h.html" target="_top" xlink:title="This file is for binding AddMolecularOrientation class to Python. ">
<polygon fill="#ffffff" stroke="#000000" points="1240,-123.5 1240,-153.5 1383,-153.5 1383,-123.5 1240,-123.5"/>
<text text-anchor="start" x="1248" y="-141.5" font-family="Helvetica,sans-Serif" font-size="10.00" fill="#000000">src/pybind/adders/py</text>
<text text-anchor="middle" x="1311.5" y="-130.5" font-family="Helvetica,sans-Serif" font-size="10.00" fill="#000000">_add_molecular_orientation.h</text>
</a>
</g>
</g>
<!-- Node23&#45;&gt;Node44 -->
<g id="edge30" class="edge">
<title>Node23&#45;&gt;Node44</title>
<path fill="none" stroke="#191970" d="M917.2477,-197.8441C992.3381,-188.5826 1120.7643,-171.9815 1230.5,-154 1233.6084,-153.4906 1236.7808,-152.9544 1239.9832,-152.3996"/>
<polygon fill="#191970" stroke="#191970" points="916.5121,-194.4081 907.0136,-199.1016 917.3658,-201.3558 916.5121,-194.4081"/>
</g>
<!-- Node46 -->
<g id="node24" class="node">
<title>Node46</title>
<g id="a_node24"><a xlink:href="py__add__special__bonds_8h.html" target="_top" xlink:title="This file is for binding AddSpecialBonds class to Python. ">
<polygon fill="#ffffff" stroke="#000000" points="1401,-123.5 1401,-153.5 1514,-153.5 1514,-123.5 1401,-123.5"/>
<text text-anchor="start" x="1409" y="-141.5" font-family="Helvetica,sans-Serif" font-size="10.00" fill="#000000">src/pybind/adders/py</text>
<text text-anchor="middle" x="1457.5" y="-130.5" font-family="Helvetica,sans-Serif" font-size="10.00" fill="#000000">_add_special_bonds.h</text>
</a>
</g>
</g>
<!-- Node23&#45;&gt;Node46 -->
<g id="edge33" class="edge">
<title>Node23&#45;&gt;Node46</title>
<path fill="none" stroke="#191970" d="M917.4443,-202.2699C1018.7588,-196.5066 1222.1613,-182.3067 1392.5,-154 1395.2466,-153.5436 1398.0495,-153.0365 1400.874,-152.4923"/>
<polygon fill="#191970" stroke="#191970" points="917.1611,-198.7802 907.3725,-202.8341 917.5527,-205.7692 917.1611,-198.7802"/>
</g>
<!-- Node48 -->
<g id="node26" class="node">
<title>Node48</title>
<g id="a_node26"><a xlink:href="py__add__wrapped__position_8h.html" target="_top" xlink:title="This file is for binding AddWrappedPosition class to Python. ">
<polygon fill="#ffffff" stroke="#000000" points="1532.5,-123.5 1532.5,-153.5 1658.5,-153.5 1658.5,-123.5 1532.5,-123.5"/>
<text text-anchor="start" x="1540.5" y="-141.5" font-family="Helvetica,sans-Serif" font-size="10.00" fill="#000000">src/pybind/adders/py</text>
<text text-anchor="middle" x="1595.5" y="-130.5" font-family="Helvetica,sans-Serif" font-size="10.00" fill="#000000">_add_wrapped_position.h</text>
</a>
</g>
</g>
<!-- Node23&#45;&gt;Node48 -->
<g id="edge36" class="edge">
<title>Node23&#45;&gt;Node48</title>
<path fill="none" stroke="#191970" d="M917.2533,-203.4725C1036.7257,-199.0373 1302.2265,-186.1709 1523.5,-154 1526.4103,-153.5769 1529.3788,-153.1047 1532.3716,-152.5956"/>
<polygon fill="#191970" stroke="#191970" points="917.0498,-199.9775 907.1838,-203.8391 917.3045,-206.9729 917.0498,-199.9775"/>
</g>
<!-- Node50 -->
<g id="node28" class="node">
<title>Node50</title>
<g id="a_node28"><a xlink:href="py__adder_8cpp.html" target="_top" xlink:title="This file is for binding Adder class to Python. ">
<polygon fill="#ffffff" stroke="#000000" points="1677,-123.5 1677,-153.5 1784,-153.5 1784,-123.5 1677,-123.5"/>
<text text-anchor="start" x="1685" y="-141.5" font-family="Helvetica,sans-Serif" font-size="10.00" fill="#000000">src/pybind/adders/py</text>
<text text-anchor="middle" x="1730.5" y="-130.5" font-family="Helvetica,sans-Serif" font-size="10.00" fill="#000000">_adder.cpp</text>
</a>
</g>
</g>
<!-- Node23&#45;&gt;Node50 -->
<g id="edge39" class="edge">
<title>Node23&#45;&gt;Node50</title>
<path fill="none" stroke="#191970" d="M917.29,-202.9352C1082.7995,-196.0448 1523.1224,-176.1473 1667.5,-154 1670.506,-153.5389 1673.5788,-153.0026 1676.6707,-152.4122"/>
<polygon fill="#191970" stroke="#191970" points="917.1072,-199.4397 907.2607,-203.3508 917.3971,-206.4337 917.1072,-199.4397"/>
</g>
<!-- Node25 -->
<g id="node3" class="node">
<title>Node25</title>
<g id="a_node3"><a xlink:href="ppap4lmp_8cpp.html" target="_top" xlink:title="This file has no implementation, only includes a header file to bind C++ and Python. ">
<polygon fill="#ffffff" stroke="#000000" points="765.5,-.5 765.5,-19.5 859.5,-19.5 859.5,-.5 765.5,-.5"/>
<text text-anchor="middle" x="812.5" y="-7.5" font-family="Helvetica,sans-Serif" font-size="10.00" fill="#000000">src/ppap4lmp.cpp</text>
</a>
</g>
</g>
<!-- Node24&#45;&gt;Node25 -->
<g id="edge2" class="edge">
<title>Node24&#45;&gt;Node25</title>
<path fill="none" stroke="#191970" d="M812.5,-51.7462C812.5,-41.0519 812.5,-28.314 812.5,-19.7449"/>
<polygon fill="#191970" stroke="#191970" points="809.0001,-51.8906 812.5,-61.8906 816.0001,-51.8907 809.0001,-51.8906"/>
</g>
<!-- Node26&#45;&gt;Node24 -->
<g id="edge4" class="edge">
<title>Node26&#45;&gt;Node24</title>
<path fill="none" stroke="#191970" d="M160.1919,-122.9268C428.8202,-83.3057 505.5173,-139.9871 768.5,-87 775.3279,-85.6243 782.5339,-83.4236 789.0934,-81.1076"/>
<polygon fill="#191970" stroke="#191970" points="159.5114,-119.4898 150.1443,-124.4403 160.5541,-126.4117 159.5114,-119.4898"/>
</g>
<!-- Node27 -->
<g id="node5" class="node">
<title>Node27</title>
<g id="a_node5"><a xlink:href="py__add__angle_8cpp.html" target="_top" xlink:title="This file is for binding AddAngle class to Python. ">
<polygon fill="#ffffff" stroke="#000000" points="0,-56.5 0,-86.5 107,-86.5 107,-56.5 0,-56.5"/>
<text text-anchor="start" x="8" y="-74.5" font-family="Helvetica,sans-Serif" font-size="10.00" fill="#000000">src/pybind/adders/py</text>
<text text-anchor="middle" x="53.5" y="-63.5" font-family="Helvetica,sans-Serif" font-size="10.00" fill="#000000">_add_angle.cpp</text>
</a>
</g>
</g>
<!-- Node26&#45;&gt;Node27 -->
<g id="edge5" class="edge">
<title>Node26&#45;&gt;Node27</title>
<path fill="none" stroke="#191970" d="M81.2725,-114.7735C75.2666,-105.4154 68.5449,-94.9421 63.2188,-86.6432"/>
<polygon fill="#191970" stroke="#191970" points="78.3958,-116.7712 86.7426,-123.2967 84.2869,-112.9903 78.3958,-116.7712"/>
</g>
<!-- Node28&#45;&gt;Node24 -->
<g id="edge7" class="edge">
<title>Node28&#45;&gt;Node24</title>
<path fill="none" stroke="#191970" d="M285.1119,-122.9173C498.7559,-89.9336 560.1413,-130.6253 768.5,-87 775.3173,-85.5726 782.5198,-83.355 789.0794,-81.0392"/>
<polygon fill="#191970" stroke="#191970" points="284.4835,-119.4731 275.1522,-124.4909 285.5759,-126.3874 284.4835,-119.4731"/>
</g>
<!-- Node29 -->
<g id="node7" class="node">
<title>Node29</title>
<g id="a_node7"><a xlink:href="py__add__map_8cpp.html" target="_top" xlink:title="This file is for binding AddMap class to Python. ">
<polygon fill="#ffffff" stroke="#000000" points="125,-56.5 125,-86.5 232,-86.5 232,-56.5 125,-56.5"/>
<text text-anchor="start" x="133" y="-74.5" font-family="Helvetica,sans-Serif" font-size="10.00" fill="#000000">src/pybind/adders/py</text>
<text text-anchor="middle" x="178.5" y="-63.5" font-family="Helvetica,sans-Serif" font-size="10.00" fill="#000000">_add_map.cpp</text>
</a>
</g>
</g>
<!-- Node28&#45;&gt;Node29 -->
<g id="edge8" class="edge">
<title>Node28&#45;&gt;Node29</title>
<path fill="none" stroke="#191970" d="M206.2725,-114.7735C200.2666,-105.4154 193.5449,-94.9421 188.2188,-86.6432"/>
<polygon fill="#191970" stroke="#191970" points="203.3958,-116.7712 211.7426,-123.2967 209.2869,-112.9903 203.3958,-116.7712"/>
</g>
<!-- Node30&#45;&gt;Node24 -->
<g id="edge10" class="edge">
<title>Node30&#45;&gt;Node24</title>
<path fill="none" stroke="#191970" d="M410.2735,-122.8523C568.7943,-96.4901 614.7677,-121.2457 768.5,-87 775.1404,-85.5208 782.1603,-83.3435 788.5958,-81.0855"/>
<polygon fill="#191970" stroke="#191970" points="409.4356,-119.4446 400.1665,-124.5764 410.6127,-126.3449 409.4356,-119.4446"/>
</g>
<!-- Node31 -->
<g id="node9" class="node">
<title>Node31</title>
<g id="a_node9"><a xlink:href="py__add__rename_8cpp.html" target="_top" xlink:title="This file is for binding AddRename class to Python. ">
<polygon fill="#ffffff" stroke="#000000" points="250,-56.5 250,-86.5 357,-86.5 357,-56.5 250,-56.5"/>
<text text-anchor="start" x="258" y="-74.5" font-family="Helvetica,sans-Serif" font-size="10.00" fill="#000000">src/pybind/adders/py</text>
<text text-anchor="middle" x="303.5" y="-63.5" font-family="Helvetica,sans-Serif" font-size="10.00" fill="#000000">_add_rename.cpp</text>
</a>
</g>
</g>
<!-- Node30&#45;&gt;Node31 -->
<g id="edge11" class="edge">
<title>Node30&#45;&gt;Node31</title>
<path fill="none" stroke="#191970" d="M331.2725,-114.7735C325.2666,-105.4154 318.5449,-94.9421 313.2188,-86.6432"/>
<polygon fill="#191970" stroke="#191970" points="328.3958,-116.7712 336.7426,-123.2967 334.2869,-112.9903 328.3958,-116.7712"/>
</g>
<!-- Node32&#45;&gt;Node24 -->
<g id="edge13" class="edge">
<title>Node32&#45;&gt;Node24</title>
<path fill="none" stroke="#191970" d="M535.1372,-122.7884C638.9062,-102.7667 669.1046,-111.8885 768.5,-87 774.9423,-85.3869 781.7719,-83.2168 788.0797,-81.0122"/>
<polygon fill="#191970" stroke="#191970" points="534.3318,-119.3798 525.1992,-124.7507 535.6878,-126.2472 534.3318,-119.3798"/>
</g>
<!-- Node33 -->
<g id="node11" class="node">
<title>Node33</title>
<g id="a_node11"><a xlink:href="py__add__bond__length_8cpp.html" target="_top" xlink:title="This file is for binding AddBondLength class to Python. ">
<polygon fill="#ffffff" stroke="#000000" points="375.5,-56.5 375.5,-86.5 489.5,-86.5 489.5,-56.5 375.5,-56.5"/>
<text text-anchor="start" x="383.5" y="-74.5" font-family="Helvetica,sans-Serif" font-size="10.00" fill="#000000">src/pybind/adders/py</text>
<text text-anchor="middle" x="432.5" y="-63.5" font-family="Helvetica,sans-Serif" font-size="10.00" fill="#000000">_add_bond_length.cpp</text>
</a>
</g>
</g>
<!-- Node32&#45;&gt;Node33 -->
<g id="edge14" class="edge">
<title>Node32&#45;&gt;Node33</title>
<path fill="none" stroke="#191970" d="M457.5204,-114.4837C452.1162,-105.1996 446.0956,-94.8565 441.3147,-86.6432"/>
<polygon fill="#191970" stroke="#191970" points="454.5947,-116.4149 462.6503,-123.2967 460.6444,-112.8934 454.5947,-116.4149"/>
</g>
<!-- Node34&#45;&gt;Node24 -->
<g id="edge16" class="edge">
<title>Node34&#45;&gt;Node24</title>
<path fill="none" stroke="#191970" d="M658.9088,-120.5936C691.6552,-111.0013 732.3728,-98.7645 768.5,-87 774.1987,-85.1443 780.2794,-83.0662 786.045,-81.0495"/>
<polygon fill="#191970" stroke="#191970" points="657.6341,-117.3195 649.0159,-123.4821 659.5961,-124.039 657.6341,-117.3195"/>
</g>
<!-- Node35 -->
<g id="node13" class="node">
<title>Node35</title>
<g id="a_node13"><a xlink:href="py__add__child__ids_8cpp.html" target="_top" xlink:title="This file is for binding AddChildIDs class to Python. ">
<polygon fill="#ffffff" stroke="#000000" points="508,-56.5 508,-86.5 615,-86.5 615,-56.5 508,-56.5"/>
<text text-anchor="start" x="516" y="-74.5" font-family="Helvetica,sans-Serif" font-size="10.00" fill="#000000">src/pybind/adders/py</text>
<text text-anchor="middle" x="561.5" y="-63.5" font-family="Helvetica,sans-Serif" font-size="10.00" fill="#000000">_add_child_ids.cpp</text>
</a>
</g>
</g>
<!-- Node34&#45;&gt;Node35 -->
<g id="edge17" class="edge">
<title>Node34&#45;&gt;Node35</title>
<path fill="none" stroke="#191970" d="M583.8024,-114.1932C578.9918,-104.9844 573.6565,-94.771 569.4106,-86.6432"/>
<polygon fill="#191970" stroke="#191970" points="580.8255,-116.0537 588.558,-123.2967 587.03,-112.8126 580.8255,-116.0537"/>
</g>
<!-- Node36&#45;&gt;Node24 -->
<g id="edge19" class="edge">
<title>Node36&#45;&gt;Node24</title>
<path fill="none" stroke="#191970" d="M754.2552,-116.8767C769.761,-104.7967 788.3048,-90.3498 800.2354,-81.055"/>
<polygon fill="#191970" stroke="#191970" points="751.7523,-114.3899 746.0147,-123.2967 756.0544,-119.9119 751.7523,-114.3899"/>
</g>
<!-- Node37 -->
<g id="node15" class="node">
<title>Node37</title>
<g id="a_node15"><a xlink:href="py__add__child__positions_8cpp.html" target="_top" xlink:title="This file is for binding AddChildPositions class to Python. ">
<polygon fill="#ffffff" stroke="#000000" points="633.5,-56.5 633.5,-86.5 759.5,-86.5 759.5,-56.5 633.5,-56.5"/>
<text text-anchor="start" x="641.5" y="-74.5" font-family="Helvetica,sans-Serif" font-size="10.00" fill="#000000">src/pybind/adders/py</text>
<text text-anchor="middle" x="696.5" y="-63.5" font-family="Helvetica,sans-Serif" font-size="10.00" fill="#000000">_add_child_positions.cpp</text>
</a>
</g>
</g>
<!-- Node36&#45;&gt;Node37 -->
<g id="edge20" class="edge">
<title>Node36&#45;&gt;Node37</title>
<path fill="none" stroke="#191970" d="M715.486,-113.9021C711.3968,-104.7696 706.8815,-94.6854 703.2805,-86.6432"/>
<polygon fill="#191970" stroke="#191970" points="712.4114,-115.6002 719.6925,-123.2967 718.8002,-112.7395 712.4114,-115.6002"/>
</g>
<!-- Node38&#45;&gt;Node24 -->
<g id="edge22" class="edge">
<title>Node38&#45;&gt;Node24</title>
<path fill="none" stroke="#191970" d="M868.713,-116.8767C853.7481,-104.7967 835.8512,-90.3498 824.3368,-81.055"/>
<polygon fill="#191970" stroke="#191970" points="866.6864,-119.7389 876.666,-123.2967 871.0832,-114.292 866.6864,-119.7389"/>
</g>
<!-- Node39 -->
<g id="node17" class="node">
<title>Node39</title>
<g id="a_node17"><a xlink:href="py__add__com__position_8cpp.html" target="_top" xlink:title="This file is for binding AddCoMPosition class to Python. ">
<polygon fill="#ffffff" stroke="#000000" points="866,-56.5 866,-86.5 985,-86.5 985,-56.5 866,-56.5"/>
<text text-anchor="start" x="874" y="-74.5" font-family="Helvetica,sans-Serif" font-size="10.00" fill="#000000">src/pybind/adders/py</text>
<text text-anchor="middle" x="925.5" y="-63.5" font-family="Helvetica,sans-Serif" font-size="10.00" fill="#000000">_add_com_position.cpp</text>
</a>
</g>
</g>
<!-- Node38&#45;&gt;Node39 -->
<g id="edge23" class="edge">
<title>Node38&#45;&gt;Node39</title>
<path fill="none" stroke="#191970" d="M906.514,-113.9021C910.6032,-104.7696 915.1185,-94.6854 918.7195,-86.6432"/>
<polygon fill="#191970" stroke="#191970" points="903.1998,-112.7395 902.3075,-123.2967 909.5886,-115.6002 903.1998,-112.7395"/>
</g>
<!-- Node40&#45;&gt;Node24 -->
<g id="edge25" class="edge">
<title>Node40&#45;&gt;Node24</title>
<path fill="none" stroke="#191970" d="M965.5911,-120.5152C933.3695,-110.8557 893.1937,-98.5817 857.5,-87 851.6839,-85.1128 845.4702,-83.0216 839.5747,-81.0018"/>
<polygon fill="#191970" stroke="#191970" points="964.7382,-123.9132 975.3218,-123.4254 966.744,-117.2067 964.7382,-123.9132"/>
</g>
<!-- Node41 -->
<g id="node19" class="node">
<title>Node41</title>
<g id="a_node19"><a xlink:href="py__add__gyration__radius_8cpp.html" target="_top" xlink:title="This file is for binding AddGyrationRadius class to Python. ">
<polygon fill="#ffffff" stroke="#000000" points="1003.5,-56.5 1003.5,-86.5 1131.5,-86.5 1131.5,-56.5 1003.5,-56.5"/>
<text text-anchor="start" x="1011.5" y="-74.5" font-family="Helvetica,sans-Serif" font-size="10.00" fill="#000000">src/pybind/adders/py</text>
<text text-anchor="middle" x="1067.5" y="-63.5" font-family="Helvetica,sans-Serif" font-size="10.00" fill="#000000">_add_gyration_radius.cpp</text>
</a>
</g>
</g>
<!-- Node40&#45;&gt;Node41 -->
<g id="edge26" class="edge">
<title>Node40&#45;&gt;Node41</title>
<path fill="none" stroke="#191970" d="M1041.1965,-114.4837C1046.8778,-105.1996 1053.2072,-94.8565 1058.2333,-86.6432"/>
<polygon fill="#191970" stroke="#191970" points="1038.0378,-112.9401 1035.8035,-123.2967 1044.0086,-116.5939 1038.0378,-112.9401"/>
</g>
<!-- Node42&#45;&gt;Node24 -->
<g id="edge28" class="edge">
<title>Node42&#45;&gt;Node24</title>
<path fill="none" stroke="#191970" d="M1093.1453,-122.8414C988.0081,-103.6792 957.8246,-111.6821 857.5,-87 850.9206,-85.3813 843.9391,-83.2093 837.4882,-81.0045"/>
<polygon fill="#191970" stroke="#191970" points="1092.7437,-126.3267 1103.2155,-124.7173 1094.0256,-119.4451 1092.7437,-126.3267"/>
</g>
<!-- Node43 -->
<g id="node21" class="node">
<title>Node43</title>
<g id="a_node21"><a xlink:href="py__add__inertia__moment_8cpp.html" target="_top" xlink:title="This file is for binding AddInertiaMoment class to Python. ">
<polygon fill="#ffffff" stroke="#000000" points="1149.5,-56.5 1149.5,-86.5 1277.5,-86.5 1277.5,-56.5 1149.5,-56.5"/>
<text text-anchor="start" x="1157.5" y="-74.5" font-family="Helvetica,sans-Serif" font-size="10.00" fill="#000000">src/pybind/adders/py</text>
<text text-anchor="middle" x="1213.5" y="-63.5" font-family="Helvetica,sans-Serif" font-size="10.00" fill="#000000">_add_inertia_moment.cpp</text>
</a>
</g>
</g>
<!-- Node42&#45;&gt;Node43 -->
<g id="edge29" class="edge">
<title>Node42&#45;&gt;Node43</title>
<path fill="none" stroke="#191970" d="M1180.3404,-115.0626C1187.5193,-105.6315 1195.5909,-95.0276 1201.9731,-86.6432"/>
<polygon fill="#191970" stroke="#191970" points="1177.3446,-113.2197 1174.0727,-123.2967 1182.9146,-117.4595 1177.3446,-113.2197"/>
</g>
<!-- Node44&#45;&gt;Node24 -->
<g id="edge31" class="edge">
<title>Node44&#45;&gt;Node24</title>
<path fill="none" stroke="#191970" d="M1229.5238,-122.9626C1063.8255,-100.2011 1017.0715,-121.6738 857.5,-87 850.7174,-85.5262 843.5409,-83.3507 836.9593,-81.0928"/>
<polygon fill="#191970" stroke="#191970" points="1229.1793,-126.4486 1239.5695,-124.3764 1230.1549,-119.5169 1229.1793,-126.4486"/>
</g>
<!-- Node45 -->
<g id="node23" class="node">
<title>Node45</title>
<g id="a_node23"><a xlink:href="py__add__molecular__orientation_8cpp.html" target="_top" xlink:title="This file is for binding AddMolecularOrientation class to Python. ">
<polygon fill="#ffffff" stroke="#000000" points="1295.5,-56.5 1295.5,-86.5 1449.5,-86.5 1449.5,-56.5 1295.5,-56.5"/>
<text text-anchor="start" x="1303.5" y="-74.5" font-family="Helvetica,sans-Serif" font-size="10.00" fill="#000000">src/pybind/adders/py</text>
<text text-anchor="middle" x="1372.5" y="-63.5" font-family="Helvetica,sans-Serif" font-size="10.00" fill="#000000">_add_molecular_orientation.cpp</text>
</a>
</g>
</g>
<!-- Node44&#45;&gt;Node45 -->
<g id="edge32" class="edge">
<title>Node44&#45;&gt;Node45</title>
<path fill="none" stroke="#191970" d="M1332.3142,-115.6385C1341.0301,-106.0653 1350.9235,-95.1987 1358.7129,-86.6432"/>
<polygon fill="#191970" stroke="#191970" points="1329.486,-113.5459 1325.3418,-123.2967 1334.6621,-118.2585 1329.486,-113.5459"/>
</g>
<!-- Node46&#45;&gt;Node24 -->
<g id="edge34" class="edge">
<title>Node46&#45;&gt;Node24</title>
<path fill="none" stroke="#191970" d="M1390.9801,-122.9346C1155.053,-88.503 1087.8973,-133.5726 857.5,-87 850.5347,-85.592 843.1708,-83.3808 836.4622,-81.0649"/>
<polygon fill="#191970" stroke="#191970" points="1390.4822,-126.3989 1400.8891,-124.4126 1391.515,-119.4755 1390.4822,-126.3989"/>
</g>
<!-- Node47 -->
<g id="node25" class="node">
<title>Node47</title>
<g id="a_node25"><a xlink:href="py__add__special__bonds_8cpp.html" target="_top" xlink:title="This file is for binding AddSpecialBonds class to Python. ">
<polygon fill="#ffffff" stroke="#000000" points="1467.5,-56.5 1467.5,-86.5 1591.5,-86.5 1591.5,-56.5 1467.5,-56.5"/>
<text text-anchor="start" x="1475.5" y="-74.5" font-family="Helvetica,sans-Serif" font-size="10.00" fill="#000000">src/pybind/adders/py</text>
<text text-anchor="middle" x="1529.5" y="-63.5" font-family="Helvetica,sans-Serif" font-size="10.00" fill="#000000">_add_special_bonds.cpp</text>
</a>
</g>
</g>
<!-- Node46&#45;&gt;Node47 -->
<g id="edge35" class="edge">
<title>Node46&#45;&gt;Node47</title>
<path fill="none" stroke="#191970" d="M1481.452,-116.2113C1491.8871,-106.5009 1503.8488,-95.3698 1513.2267,-86.6432"/>
<polygon fill="#191970" stroke="#191970" points="1478.7743,-113.9221 1473.8379,-123.2967 1483.5429,-119.0466 1478.7743,-113.9221"/>
</g>
<!-- Node48&#45;&gt;Node24 -->
<g id="edge37" class="edge">
<title>Node48&#45;&gt;Node24</title>
<path fill="none" stroke="#191970" d="M1522.2679,-122.9909C1227.8353,-85.0202 1145.169,-143.1779 857.5,-87 850.5256,-85.638 843.1587,-83.4418 836.4501,-81.1257"/>
<polygon fill="#191970" stroke="#191970" points="1522.0118,-126.4872 1532.383,-124.3222 1522.9253,-119.5471 1522.0118,-126.4872"/>
</g>
<!-- Node49 -->
<g id="node27" class="node">
<title>Node49</title>
<g id="a_node27"><a xlink:href="py__add__wrapped__position_8cpp.html" target="_top" xlink:title="This file is for binding AddWrappedPosition class to Python. ">
<polygon fill="#ffffff" stroke="#000000" points="1610,-56.5 1610,-86.5 1747,-86.5 1747,-56.5 1610,-56.5"/>
<text text-anchor="start" x="1618" y="-74.5" font-family="Helvetica,sans-Serif" font-size="10.00" fill="#000000">src/pybind/adders/py</text>
<text text-anchor="middle" x="1678.5" y="-63.5" font-family="Helvetica,sans-Serif" font-size="10.00" fill="#000000">_add_wrapped_position.cpp</text>
</a>
</g>
</g>
<!-- Node48&#45;&gt;Node49 -->
<g id="edge38" class="edge">
<title>Node48&#45;&gt;Node49</title>
<path fill="none" stroke="#191970" d="M1622.4058,-116.7808C1634.5988,-106.9383 1648.7179,-95.541 1659.7405,-86.6432"/>
<polygon fill="#191970" stroke="#191970" points="1619.9168,-114.292 1614.334,-123.2967 1624.3136,-119.7389 1619.9168,-114.292"/>
</g>
</g>
</svg>
