<?xml version="1.0" encoding="UTF-8" standalone="no"?>
<!DOCTYPE svg PUBLIC "-//W3C//DTD SVG 1.1//EN"
 "http://www.w3.org/Graphics/SVG/1.1/DTD/svg11.dtd">
<!-- Generated by graphviz version 2.40.1 (20161225.0304)
 -->
<!-- Title: src/pybind/invokers/py_invoker.h Pages: 1 -->
<svg width="304pt" height="229pt"
 viewBox="0.00 0.00 303.50 229.00" xmlns="http://www.w3.org/2000/svg" xmlns:xlink="http://www.w3.org/1999/xlink">
<g id="graph0" class="graph" transform="scale(1 1) rotate(0) translate(4 225)">
<title>src/pybind/invokers/py_invoker.h</title>
<polygon fill="#ffffff" stroke="transparent" points="-4,4 -4,-225 299.5,-225 299.5,4 -4,4"/>
<!-- Node21 -->
<g id="node1" class="node">
<title>Node21</title>
<polygon fill="#bfbfbf" stroke="#000000" points="75.5,-190.5 75.5,-220.5 176.5,-220.5 176.5,-190.5 75.5,-190.5"/>
<text text-anchor="start" x="83.5" y="-208.5" font-family="Helvetica,sans-Serif" font-size="10.00" fill="#000000">src/pybind/invokers</text>
<text text-anchor="middle" x="126" y="-197.5" font-family="Helvetica,sans-Serif" font-size="10.00" fill="#000000">/py_invoker.h</text>
</g>
<!-- Node22 -->
<g id="node2" class="node">
<title>Node22</title>
<g id="a_node2"><a xlink:href="pybind_8h.html" target="_top" xlink:title="This file includes all the header files containing definitions of functions to bind C++ and Python...">
<polygon fill="#ffffff" stroke="#000000" points="12,-62 12,-81 82,-81 82,-62 12,-62"/>
<text text-anchor="middle" x="47" y="-69" font-family="Helvetica,sans-Serif" font-size="10.00" fill="#000000">src/pybind.h</text>
</a>
</g>
</g>
<!-- Node21&#45;&gt;Node22 -->
<g id="edge1" class="edge">
<title>Node21&#45;&gt;Node22</title>
<path fill="none" stroke="#191970" d="M94.6559,-184.2386C84.4785,-175.9036 74.0137,-165.5559 67,-154 52.7008,-130.4402 48.6201,-97.279 47.4592,-81.1147"/>
<polygon fill="#191970" stroke="#191970" points="92.6408,-187.1052 102.685,-190.4763 96.9353,-181.5773 92.6408,-187.1052"/>
</g>
<!-- Node24 -->
<g id="node4" class="node">
<title>Node24</title>
<g id="a_node4"><a xlink:href="py__inv__omp_8h.html" target="_top" xlink:title="This file is for binding InvOMP class to Python. ">
<polygon fill="#ffffff" stroke="#000000" points="75.5,-123.5 75.5,-153.5 176.5,-153.5 176.5,-123.5 75.5,-123.5"/>
<text text-anchor="start" x="83.5" y="-141.5" font-family="Helvetica,sans-Serif" font-size="10.00" fill="#000000">src/pybind/invokers</text>
<text text-anchor="middle" x="126" y="-130.5" font-family="Helvetica,sans-Serif" font-size="10.00" fill="#000000">/py_inv_omp.h</text>
</a>
</g>
</g>
<!-- Node21&#45;&gt;Node24 -->
<g id="edge3" class="edge">
<title>Node21&#45;&gt;Node24</title>
<path fill="none" stroke="#191970" d="M126,-180.0249C126,-171.128 126,-161.4287 126,-153.6432"/>
<polygon fill="#191970" stroke="#191970" points="122.5001,-180.2966 126,-190.2967 129.5001,-180.2967 122.5001,-180.2966"/>
</g>
<!-- Node26 -->
<g id="node6" class="node">
<title>Node26</title>
<g id="a_node6"><a xlink:href="py__invoker_8cpp.html" target="_top" xlink:title="This file is for binding Invoker class to Python. ">
<polygon fill="#ffffff" stroke="#000000" points="194.5,-123.5 194.5,-153.5 295.5,-153.5 295.5,-123.5 194.5,-123.5"/>
<text text-anchor="start" x="202.5" y="-141.5" font-family="Helvetica,sans-Serif" font-size="10.00" fill="#000000">src/pybind/invokers</text>
<text text-anchor="middle" x="245" y="-130.5" font-family="Helvetica,sans-Serif" font-size="10.00" fill="#000000">/py_invoker.cpp</text>
</a>
</g>
</g>
<!-- Node21&#45;&gt;Node26 -->
<g id="edge6" class="edge">
<title>Node21&#45;&gt;Node26</title>
<path fill="none" stroke="#191970" d="M161.778,-185.3561C179.8173,-175.1995 201.3354,-163.0843 217.9715,-153.7177"/>
<polygon fill="#191970" stroke="#191970" points="159.7026,-182.5079 152.7059,-190.4639 163.1369,-188.6076 159.7026,-182.5079"/>
</g>
<!-- Node23 -->
<g id="node3" class="node">
<title>Node23</title>
<g id="a_node3"><a xlink:href="ppap4lmp_8cpp.html" target="_top" xlink:title="This file has no implementation, only includes a header file to bind C++ and Python. ">
<polygon fill="#ffffff" stroke="#000000" points="0,-.5 0,-19.5 94,-19.5 94,-.5 0,-.5"/>
<text text-anchor="middle" x="47" y="-7.5" font-family="Helvetica,sans-Serif" font-size="10.00" fill="#000000">src/ppap4lmp.cpp</text>
</a>
</g>
</g>
<!-- Node22&#45;&gt;Node23 -->
<g id="edge2" class="edge">
<title>Node22&#45;&gt;Node23</title>
<path fill="none" stroke="#191970" d="M47,-51.7462C47,-41.0519 47,-28.314 47,-19.7449"/>
<polygon fill="#191970" stroke="#191970" points="43.5001,-51.8906 47,-61.8906 50.5001,-51.8907 43.5001,-51.8906"/>
</g>
<!-- Node24&#45;&gt;Node22 -->
<g id="edge4" class="edge">
<title>Node24&#45;&gt;Node22</title>
<path fill="none" stroke="#191970" d="M100.1076,-116.5406C85.9453,-104.5296 69.1244,-90.2637 58.2663,-81.055"/>
<polygon fill="#191970" stroke="#191970" points="98.1833,-119.4979 108.0737,-123.2967 102.711,-114.1593 98.1833,-119.4979"/>
</g>
<!-- Node25 -->
<g id="node5" class="node">
<title>Node25</title>
<g id="a_node5"><a xlink:href="py__inv__omp_8cpp.html" target="_top" xlink:title="This file is for binding InvOMP class to Python. ">
<polygon fill="#ffffff" stroke="#000000" points="100.5,-56.5 100.5,-86.5 201.5,-86.5 201.5,-56.5 100.5,-56.5"/>
<text text-anchor="start" x="108.5" y="-74.5" font-family="Helvetica,sans-Serif" font-size="10.00" fill="#000000">src/pybind/invokers</text>
<text text-anchor="middle" x="151" y="-63.5" font-family="Helvetica,sans-Serif" font-size="10.00" fill="#000000">/py_inv_omp.cpp</text>
</a>
</g>
</g>
<!-- Node24&#45;&gt;Node25 -->
<g id="edge5" class="edge">
<title>Node24&#45;&gt;Node25</title>
<path fill="none" stroke="#191970" d="M135.1783,-113.9021C138.586,-104.7696 142.3487,-94.6854 145.3496,-86.6432"/>
<polygon fill="#191970" stroke="#191970" points="131.8897,-112.704 131.6729,-123.2967 138.448,-115.1512 131.8897,-112.704"/>
</g>
</g>
</svg>
