<?xml version="1.0" encoding="UTF-8" standalone="no"?>
<!DOCTYPE svg PUBLIC "-//W3C//DTD SVG 1.1//EN"
 "http://www.w3.org/Graphics/SVG/1.1/DTD/svg11.dtd">
<!-- Generated by graphviz version 2.40.1 (20161225.0304)
 -->
<!-- Title: src/pybind/filters/py_filter.h Pages: 1 -->
<svg width="235pt" height="218pt"
 viewBox="0.00 0.00 235.06 218.00" xmlns="http://www.w3.org/2000/svg" xmlns:xlink="http://www.w3.org/1999/xlink">
<g id="graph0" class="graph" transform="scale(1 1) rotate(0) translate(4 214)">
<title>src/pybind/filters/py_filter.h</title>
<polygon fill="#ffffff" stroke="transparent" points="-4,4 -4,-214 231.0602,-214 231.0602,4 -4,4"/>
<!-- Node23 -->
<g id="node1" class="node">
<title>Node23</title>
<polygon fill="#bfbfbf" stroke="#000000" points="22.0602,-179.5 22.0602,-209.5 111.0602,-209.5 111.0602,-179.5 22.0602,-179.5"/>
<text text-anchor="start" x="30.0602" y="-197.5" font-family="Helvetica,sans-Serif" font-size="10.00" fill="#000000">src/pybind/filters</text>
<text text-anchor="middle" x="66.5602" y="-186.5" font-family="Helvetica,sans-Serif" font-size="10.00" fill="#000000">/py_filter.h</text>
</g>
<!-- Node24 -->
<g id="node2" class="node">
<title>Node24</title>
<g id="a_node2"><a xlink:href="pybind_8h.html" target="_top" xlink:title="This file includes all the header files containing definitions of functions to bind C++ and Python...">
<polygon fill="#ffffff" stroke="#000000" points="31.5602,-56.5 31.5602,-75.5 101.5602,-75.5 101.5602,-56.5 31.5602,-56.5"/>
<text text-anchor="middle" x="66.5602" y="-63.5" font-family="Helvetica,sans-Serif" font-size="10.00" fill="#000000">src/pybind.h</text>
</a>
</g>
</g>
<!-- Node23&#45;&gt;Node24 -->
<g id="edge1" class="edge">
<title>Node23&#45;&gt;Node24</title>
<path fill="none" stroke="#191970" d="M30.6949,-173.4127C20.3027,-165.3306 10.2365,-155.0941 4.5602,-143 -1.2936,-130.5276 -1.6333,-124.3072 4.5602,-112 12.935,-95.3584 30.4938,-83.227 44.7944,-75.6143"/>
<polygon fill="#191970" stroke="#191970" points="28.8654,-176.4089 39.0213,-179.4269 32.9642,-170.7343 28.8654,-176.4089"/>
</g>
<!-- Node26 -->
<g id="node4" class="node">
<title>Node26</title>
<g id="a_node4"><a xlink:href="py__fil__comparison_8h.html" target="_top" xlink:title="This file is for binding FilComparison class to Python. ">
<polygon fill="#ffffff" stroke="#000000" points="13.0602,-112.5 13.0602,-142.5 120.0602,-142.5 120.0602,-112.5 13.0602,-112.5"/>
<text text-anchor="start" x="21.0602" y="-130.5" font-family="Helvetica,sans-Serif" font-size="10.00" fill="#000000">src/pybind/filters</text>
<text text-anchor="middle" x="66.5602" y="-119.5" font-family="Helvetica,sans-Serif" font-size="10.00" fill="#000000">/py_fil_comparison.h</text>
</a>
</g>
</g>
<!-- Node23&#45;&gt;Node26 -->
<g id="edge3" class="edge">
<title>Node23&#45;&gt;Node26</title>
<path fill="none" stroke="#191970" d="M66.5602,-169.0249C66.5602,-160.128 66.5602,-150.4287 66.5602,-142.6432"/>
<polygon fill="#191970" stroke="#191970" points="63.0603,-169.2966 66.5602,-179.2967 70.0603,-169.2967 63.0603,-169.2966"/>
</g>
<!-- Node27 -->
<g id="node5" class="node">
<title>Node27</title>
<g id="a_node5"><a xlink:href="py__fil__set_8h.html" target="_top" xlink:title="This file is for binding FilSet class to Python. ">
<polygon fill="#ffffff" stroke="#000000" points="138.0602,-112.5 138.0602,-142.5 227.0602,-142.5 227.0602,-112.5 138.0602,-112.5"/>
<text text-anchor="start" x="146.0602" y="-130.5" font-family="Helvetica,sans-Serif" font-size="10.00" fill="#000000">src/pybind/filters</text>
<text text-anchor="middle" x="182.5602" y="-119.5" font-family="Helvetica,sans-Serif" font-size="10.00" fill="#000000">/py_fil_set.h</text>
</a>
</g>
</g>
<!-- Node23&#45;&gt;Node27 -->
<g id="edge5" class="edge">
<title>Node23&#45;&gt;Node27</title>
<path fill="none" stroke="#191970" d="M101.4362,-174.3561C119.0208,-164.1995 139.9964,-152.0843 156.2131,-142.7177"/>
<polygon fill="#191970" stroke="#191970" points="99.5017,-171.4315 92.5929,-179.4639 103.0028,-177.4931 99.5017,-171.4315"/>
</g>
<!-- Node25 -->
<g id="node3" class="node">
<title>Node25</title>
<g id="a_node3"><a xlink:href="ppap4lmp_8cpp.html" target="_top" xlink:title="This file has no implementation, only includes a header file to bind C++ and Python. ">
<polygon fill="#ffffff" stroke="#000000" points="19.5602,-.5 19.5602,-19.5 113.5602,-19.5 113.5602,-.5 19.5602,-.5"/>
<text text-anchor="middle" x="66.5602" y="-7.5" font-family="Helvetica,sans-Serif" font-size="10.00" fill="#000000">src/ppap4lmp.cpp</text>
</a>
</g>
</g>
<!-- Node24&#45;&gt;Node25 -->
<g id="edge2" class="edge">
<title>Node24&#45;&gt;Node25</title>
<path fill="none" stroke="#191970" d="M66.5602,-46.1575C66.5602,-37.155 66.5602,-26.9199 66.5602,-19.6427"/>
<polygon fill="#191970" stroke="#191970" points="63.0603,-46.2455 66.5602,-56.2455 70.0603,-46.2456 63.0603,-46.2455"/>
</g>
<!-- Node26&#45;&gt;Node24 -->
<g id="edge4" class="edge">
<title>Node26&#45;&gt;Node24</title>
<path fill="none" stroke="#191970" d="M66.5602,-102.2849C66.5602,-92.9858 66.5602,-82.9883 66.5602,-75.8469"/>
<polygon fill="#191970" stroke="#191970" points="63.0603,-102.2977 66.5602,-112.2977 70.0603,-102.2978 63.0603,-102.2977"/>
</g>
<!-- Node27&#45;&gt;Node24 -->
<g id="edge6" class="edge">
<title>Node27&#45;&gt;Node24</title>
<path fill="none" stroke="#191970" d="M145.1662,-107.6747C124.8535,-96.9055 100.6651,-84.0814 84.5361,-75.5303"/>
<polygon fill="#191970" stroke="#191970" points="143.7088,-110.8635 154.1834,-112.4554 146.9878,-104.6789 143.7088,-110.8635"/>
</g>
</g>
</svg>
