<?xml version="1.0" encoding="UTF-8" standalone="no"?>
<!DOCTYPE svg PUBLIC "-//W3C//DTD SVG 1.1//EN"
 "http://www.w3.org/Graphics/SVG/1.1/DTD/svg11.dtd">
<!-- Generated by graphviz version 2.40.1 (20161225.0304)
 -->
<!-- Title: src/pybind/adders/py_adder.h Pages: 1 -->
<svg width="1667pt" height="229pt"
 viewBox="0.00 0.00 1667.00 229.00" xmlns="http://www.w3.org/2000/svg" xmlns:xlink="http://www.w3.org/1999/xlink">
<g id="graph0" class="graph" transform="scale(1 1) rotate(0) translate(4 225)">
<title>src/pybind/adders/py_adder.h</title>
<polygon fill="#ffffff" stroke="transparent" points="-4,4 -4,-225 1663,-225 1663,4 -4,4"/>
<!-- Node23 -->
<g id="node1" class="node">
<title>Node23</title>
<polygon fill="#bfbfbf" stroke="#000000" points="717,-190.5 717,-220.5 824,-220.5 824,-190.5 717,-190.5"/>
<text text-anchor="start" x="725" y="-208.5" font-family="Helvetica,sans-Serif" font-size="10.00" fill="#000000">src/pybind/adders/py</text>
<text text-anchor="middle" x="770.5" y="-197.5" font-family="Helvetica,sans-Serif" font-size="10.00" fill="#000000">_adder.h</text>
</g>
<!-- Node24 -->
<g id="node2" class="node">
<title>Node24</title>
<g id="a_node2"><a xlink:href="pybind_8h.html" target="_top" xlink:title="This file includes all the header files containing definitions of functions to bind C++ and Python...">
<polygon fill="#ffffff" stroke="#000000" points="652.5,-62 652.5,-81 722.5,-81 722.5,-62 652.5,-62"/>
<text text-anchor="middle" x="687.5" y="-69" font-family="Helvetica,sans-Serif" font-size="10.00" fill="#000000">src/pybind.h</text>
</a>
</g>
</g>
<!-- Node23&#45;&gt;Node24 -->
<g id="edge1" class="edge">
<title>Node23&#45;&gt;Node24</title>
<path fill="none" stroke="#191970" d="M736.208,-184.6014C725.2245,-176.3372 713.9831,-165.9415 706.5,-154 691.9055,-130.71 688.4945,-97.4245 687.7161,-81.1735"/>
<polygon fill="#191970" stroke="#191970" points="734.3136,-187.5491 744.4904,-190.4958 738.3725,-181.8459 734.3136,-187.5491"/>
</g>
<!-- Node26 -->
<g id="node4" class="node">
<title>Node26</title>
<g id="a_node4"><a xlink:href="py__add__map_8h.html" target="_top" xlink:title="This file is for binding AddMap class to Python. ">
<polygon fill="#ffffff" stroke="#000000" points="43,-123.5 43,-153.5 150,-153.5 150,-123.5 43,-123.5"/>
<text text-anchor="start" x="51" y="-141.5" font-family="Helvetica,sans-Serif" font-size="10.00" fill="#000000">src/pybind/adders/py</text>
<text text-anchor="middle" x="96.5" y="-130.5" font-family="Helvetica,sans-Serif" font-size="10.00" fill="#000000">_add_map.h</text>
</a>
</g>
</g>
<!-- Node23&#45;&gt;Node26 -->
<g id="edge3" class="edge">
<title>Node23&#45;&gt;Node26</title>
<path fill="none" stroke="#191970" d="M706.8466,-203.5177C595.1562,-199.2902 356.8946,-186.9265 158.5,-154 155.7636,-153.5459 152.9704,-153.0326 150.1576,-152.4761"/>
<polygon fill="#191970" stroke="#191970" points="706.8095,-207.0186 716.9319,-203.8902 707.0679,-200.0234 706.8095,-207.0186"/>
</g>
<!-- Node28 -->
<g id="node6" class="node">
<title>Node28</title>
<g id="a_node6"><a xlink:href="py__add__rename_8h.html" target="_top" xlink:title="This file is for binding AddRename class to Python. ">
<polygon fill="#ffffff" stroke="#000000" points="168,-123.5 168,-153.5 275,-153.5 275,-123.5 168,-123.5"/>
<text text-anchor="start" x="176" y="-141.5" font-family="Helvetica,sans-Serif" font-size="10.00" fill="#000000">src/pybind/adders/py</text>
<text text-anchor="middle" x="221.5" y="-130.5" font-family="Helvetica,sans-Serif" font-size="10.00" fill="#000000">_add_rename.h</text>
</a>
</g>
</g>
<!-- Node23&#45;&gt;Node28 -->
<g id="edge6" class="edge">
<title>Node23&#45;&gt;Node28</title>
<path fill="none" stroke="#191970" d="M706.6922,-201.6046C613.2638,-195.2574 433.9943,-180.6348 283.5,-154 280.7687,-153.5166 277.9795,-152.9798 275.1699,-152.4046"/>
<polygon fill="#191970" stroke="#191970" points="706.6198,-205.1075 716.8314,-202.2838 707.0877,-198.1232 706.6198,-205.1075"/>
</g>
<!-- Node30 -->
<g id="node8" class="node">
<title>Node30</title>
<g id="a_node8"><a xlink:href="py__add__bond__length_8h.html" target="_top" xlink:title="This file is for binding AddBondLength class to Python. ">
<polygon fill="#ffffff" stroke="#000000" points="293,-123.5 293,-153.5 400,-153.5 400,-123.5 293,-123.5"/>
<text text-anchor="start" x="301" y="-141.5" font-family="Helvetica,sans-Serif" font-size="10.00" fill="#000000">src/pybind/adders/py</text>
<text text-anchor="middle" x="346.5" y="-130.5" font-family="Helvetica,sans-Serif" font-size="10.00" fill="#000000">_add_bond_length.h</text>
</a>
</g>
</g>
<!-- Node23&#45;&gt;Node30 -->
<g id="edge9" class="edge">
<title>Node23&#45;&gt;Node30</title>
<path fill="none" stroke="#191970" d="M706.4996,-198.429C633.8949,-189.9367 512.1169,-174.266 408.5,-154 405.7778,-153.4676 402.996,-152.8913 400.1922,-152.2849"/>
<polygon fill="#191970" stroke="#191970" points="706.5102,-201.9536 716.847,-199.6296 707.317,-195.0003 706.5102,-201.9536"/>
</g>
<!-- Node32 -->
<g id="node10" class="node">
<title>Node32</title>
<g id="a_node10"><a xlink:href="py__add__child__ids_8h.html" target="_top" xlink:title="This file is for binding AddChildIDs class to Python. ">
<polygon fill="#ffffff" stroke="#000000" points="418,-123.5 418,-153.5 525,-153.5 525,-123.5 418,-123.5"/>
<text text-anchor="start" x="426" y="-141.5" font-family="Helvetica,sans-Serif" font-size="10.00" fill="#000000">src/pybind/adders/py</text>
<text text-anchor="middle" x="471.5" y="-130.5" font-family="Helvetica,sans-Serif" font-size="10.00" fill="#000000">_add_child_ids.h</text>
</a>
</g>
</g>
<!-- Node23&#45;&gt;Node32 -->
<g id="edge12" class="edge">
<title>Node23&#45;&gt;Node32</title>
<path fill="none" stroke="#191970" d="M707.1328,-192.1462C659.5596,-182.0057 592.8511,-167.5423 534.5,-154 531.4278,-153.287 528.274,-152.5445 525.0932,-151.7876"/>
<polygon fill="#191970" stroke="#191970" points="706.4746,-195.5844 716.9841,-194.2425 707.9316,-188.7377 706.4746,-195.5844"/>
</g>
<!-- Node34 -->
<g id="node12" class="node">
<title>Node34</title>
<g id="a_node12"><a xlink:href="py__add__child__positions_8h.html" target="_top" xlink:title="This file is for binding AddChildPositions class to Python. ">
<polygon fill="#ffffff" stroke="#000000" points="543.5,-123.5 543.5,-153.5 659.5,-153.5 659.5,-123.5 543.5,-123.5"/>
<text text-anchor="start" x="551.5" y="-141.5" font-family="Helvetica,sans-Serif" font-size="10.00" fill="#000000">src/pybind/adders/py</text>
<text text-anchor="middle" x="601.5" y="-130.5" font-family="Helvetica,sans-Serif" font-size="10.00" fill="#000000">_add_child_positions.h</text>
</a>
</g>
</g>
<!-- Node23&#45;&gt;Node34 -->
<g id="edge15" class="edge">
<title>Node23&#45;&gt;Node34</title>
<path fill="none" stroke="#191970" d="M723.1484,-186.7275C696.7567,-176.2645 664.3287,-163.4084 639.5923,-153.6017"/>
<polygon fill="#191970" stroke="#191970" points="721.9871,-190.032 732.5731,-190.4639 724.5669,-183.5248 721.9871,-190.032"/>
</g>
<!-- Node36 -->
<g id="node14" class="node">
<title>Node36</title>
<g id="a_node14"><a xlink:href="py__add__com__position_8h.html" target="_top" xlink:title="This file is for binding AddCoMPosition class to Python. ">
<polygon fill="#ffffff" stroke="#000000" points="716,-123.5 716,-153.5 825,-153.5 825,-123.5 716,-123.5"/>
<text text-anchor="start" x="724" y="-141.5" font-family="Helvetica,sans-Serif" font-size="10.00" fill="#000000">src/pybind/adders/py</text>
<text text-anchor="middle" x="770.5" y="-130.5" font-family="Helvetica,sans-Serif" font-size="10.00" fill="#000000">_add_com_position.h</text>
</a>
</g>
</g>
<!-- Node23&#45;&gt;Node36 -->
<g id="edge18" class="edge">
<title>Node23&#45;&gt;Node36</title>
<path fill="none" stroke="#191970" d="M770.5,-180.0249C770.5,-171.128 770.5,-161.4287 770.5,-153.6432"/>
<polygon fill="#191970" stroke="#191970" points="767.0001,-180.2966 770.5,-190.2967 774.0001,-180.2967 767.0001,-180.2966"/>
</g>
<!-- Node38 -->
<g id="node16" class="node">
<title>Node38</title>
<g id="a_node16"><a xlink:href="py__add__gyration__radius_8h.html" target="_top" xlink:title="This file is for binding AddGyrationRadius class to Python. ">
<polygon fill="#ffffff" stroke="#000000" points="843,-123.5 843,-153.5 960,-153.5 960,-123.5 843,-123.5"/>
<text text-anchor="start" x="851" y="-141.5" font-family="Helvetica,sans-Serif" font-size="10.00" fill="#000000">src/pybind/adders/py</text>
<text text-anchor="middle" x="901.5" y="-130.5" font-family="Helvetica,sans-Serif" font-size="10.00" fill="#000000">_add_gyration_radius.h</text>
</a>
</g>
</g>
<!-- Node23&#45;&gt;Node38 -->
<g id="edge21" class="edge">
<title>Node23&#45;&gt;Node38</title>
<path fill="none" stroke="#191970" d="M809.0682,-185.7743C829.0913,-175.5335 853.1802,-163.2132 871.7459,-153.7177"/>
<polygon fill="#191970" stroke="#191970" points="807.2083,-182.7942 799.899,-190.4639 810.3958,-189.0264 807.2083,-182.7942"/>
</g>
<!-- Node40 -->
<g id="node18" class="node">
<title>Node40</title>
<g id="a_node18"><a xlink:href="py__add__inertia__moment_8h.html" target="_top" xlink:title="This file is for binding AddInertiaMoment class to Python. ">
<polygon fill="#ffffff" stroke="#000000" points="978.5,-123.5 978.5,-153.5 1096.5,-153.5 1096.5,-123.5 978.5,-123.5"/>
<text text-anchor="start" x="986.5" y="-141.5" font-family="Helvetica,sans-Serif" font-size="10.00" fill="#000000">src/pybind/adders/py</text>
<text text-anchor="middle" x="1037.5" y="-130.5" font-family="Helvetica,sans-Serif" font-size="10.00" fill="#000000">_add_inertia_moment.h</text>
</a>
</g>
</g>
<!-- Node23&#45;&gt;Node40 -->
<g id="edge24" class="edge">
<title>Node23&#45;&gt;Node40</title>
<path fill="none" stroke="#191970" d="M834.1641,-189.5244C877.9018,-178.549 935.5595,-164.0806 978.3042,-153.3544"/>
<polygon fill="#191970" stroke="#191970" points="833.0576,-186.1934 824.2103,-192.0221 834.7614,-192.9829 833.0576,-186.1934"/>
</g>
<!-- Node42 -->
<g id="node20" class="node">
<title>Node42</title>
<g id="a_node20"><a xlink:href="py__add__molecular__orientation_8h.html" target="_top" xlink:title="This file is for binding AddMolecularOrientation class to Python. ">
<polygon fill="#ffffff" stroke="#000000" points="1115,-123.5 1115,-153.5 1258,-153.5 1258,-123.5 1115,-123.5"/>
<text text-anchor="start" x="1123" y="-141.5" font-family="Helvetica,sans-Serif" font-size="10.00" fill="#000000">src/pybind/adders/py</text>
<text text-anchor="middle" x="1186.5" y="-130.5" font-family="Helvetica,sans-Serif" font-size="10.00" fill="#000000">_add_molecular_orientation.h</text>
</a>
</g>
</g>
<!-- Node23&#45;&gt;Node42 -->
<g id="edge27" class="edge">
<title>Node23&#45;&gt;Node42</title>
<path fill="none" stroke="#191970" d="M834.32,-196.397C901.8063,-186.6055 1011.3223,-170.2443 1105.5,-154 1108.604,-153.4646 1111.7728,-152.9067 1114.9722,-152.3343"/>
<polygon fill="#191970" stroke="#191970" points="833.6623,-192.9556 824.2668,-197.8521 834.6651,-199.8835 833.6623,-192.9556"/>
</g>
<!-- Node44 -->
<g id="node22" class="node">
<title>Node44</title>
<g id="a_node22"><a xlink:href="py__add__special__bonds_8h.html" target="_top" xlink:title="This file is for binding AddSpecialBonds class to Python. ">
<polygon fill="#ffffff" stroke="#000000" points="1276,-123.5 1276,-153.5 1389,-153.5 1389,-123.5 1276,-123.5"/>
<text text-anchor="start" x="1284" y="-141.5" font-family="Helvetica,sans-Serif" font-size="10.00" fill="#000000">src/pybind/adders/py</text>
<text text-anchor="middle" x="1332.5" y="-130.5" font-family="Helvetica,sans-Serif" font-size="10.00" fill="#000000">_add_special_bonds.h</text>
</a>
</g>
</g>
<!-- Node23&#45;&gt;Node44 -->
<g id="edge30" class="edge">
<title>Node23&#45;&gt;Node44</title>
<path fill="none" stroke="#191970" d="M834.147,-201.5806C929.038,-195.134 1113.0014,-180.3095 1267.5,-154 1270.2448,-153.5326 1273.0462,-153.0166 1275.8695,-152.4652"/>
<polygon fill="#191970" stroke="#191970" points="833.8782,-198.0906 824.1349,-202.252 834.3467,-205.075 833.8782,-198.0906"/>
</g>
<!-- Node46 -->
<g id="node24" class="node">
<title>Node46</title>
<g id="a_node24"><a xlink:href="py__add__wrapped__position_8h.html" target="_top" xlink:title="This file is for binding AddWrappedPosition class to Python. ">
<polygon fill="#ffffff" stroke="#000000" points="1407.5,-123.5 1407.5,-153.5 1533.5,-153.5 1533.5,-123.5 1407.5,-123.5"/>
<text text-anchor="start" x="1415.5" y="-141.5" font-family="Helvetica,sans-Serif" font-size="10.00" fill="#000000">src/pybind/adders/py</text>
<text text-anchor="middle" x="1470.5" y="-130.5" font-family="Helvetica,sans-Serif" font-size="10.00" fill="#000000">_add_wrapped_position.h</text>
</a>
</g>
</g>
<!-- Node23&#45;&gt;Node46 -->
<g id="edge33" class="edge">
<title>Node23&#45;&gt;Node46</title>
<path fill="none" stroke="#191970" d="M834.3903,-203.0111C948.2673,-197.9638 1193.6066,-184.324 1398.5,-154 1401.4092,-153.5694 1404.3768,-153.0911 1407.3689,-152.5771"/>
<polygon fill="#191970" stroke="#191970" points="833.9528,-199.5267 824.1147,-203.4589 834.2577,-206.5201 833.9528,-199.5267"/>
</g>
<!-- Node48 -->
<g id="node26" class="node">
<title>Node48</title>
<g id="a_node26"><a xlink:href="py__adder_8cpp.html" target="_top" xlink:title="This file is for binding Adder class to Python. ">
<polygon fill="#ffffff" stroke="#000000" points="1552,-123.5 1552,-153.5 1659,-153.5 1659,-123.5 1552,-123.5"/>
<text text-anchor="start" x="1560" y="-141.5" font-family="Helvetica,sans-Serif" font-size="10.00" fill="#000000">src/pybind/adders/py</text>
<text text-anchor="middle" x="1605.5" y="-130.5" font-family="Helvetica,sans-Serif" font-size="10.00" fill="#000000">_adder.cpp</text>
</a>
</g>
</g>
<!-- Node23&#45;&gt;Node48 -->
<g id="edge36" class="edge">
<title>Node23&#45;&gt;Node48</title>
<path fill="none" stroke="#191970" d="M834.298,-202.6828C993.7416,-195.4108 1406.5259,-175.0968 1542.5,-154 1545.5052,-153.5337 1548.5773,-152.9934 1551.6688,-152.3998"/>
<polygon fill="#191970" stroke="#191970" points="833.9986,-199.1927 824.1677,-203.1428 834.3162,-206.1855 833.9986,-199.1927"/>
</g>
<!-- Node25 -->
<g id="node3" class="node">
<title>Node25</title>
<g id="a_node3"><a xlink:href="ppap4lmp_8cpp.html" target="_top" xlink:title="This file has no implementation, only includes a header file to bind C++ and Python. ">
<polygon fill="#ffffff" stroke="#000000" points="640.5,-.5 640.5,-19.5 734.5,-19.5 734.5,-.5 640.5,-.5"/>
<text text-anchor="middle" x="687.5" y="-7.5" font-family="Helvetica,sans-Serif" font-size="10.00" fill="#000000">src/ppap4lmp.cpp</text>
</a>
</g>
</g>
<!-- Node24&#45;&gt;Node25 -->
<g id="edge2" class="edge">
<title>Node24&#45;&gt;Node25</title>
<path fill="none" stroke="#191970" d="M687.5,-51.7462C687.5,-41.0519 687.5,-28.314 687.5,-19.7449"/>
<polygon fill="#191970" stroke="#191970" points="684.0001,-51.8906 687.5,-61.8906 691.0001,-51.8907 684.0001,-51.8906"/>
</g>
<!-- Node26&#45;&gt;Node24 -->
<g id="edge4" class="edge">
<title>Node26&#45;&gt;Node24</title>
<path fill="none" stroke="#191970" d="M160.1119,-122.9173C373.7559,-89.9336 435.1413,-130.6253 643.5,-87 650.3173,-85.5726 657.5198,-83.355 664.0794,-81.0392"/>
<polygon fill="#191970" stroke="#191970" points="159.4835,-119.4731 150.1522,-124.4909 160.5759,-126.3874 159.4835,-119.4731"/>
</g>
<!-- Node27 -->
<g id="node5" class="node">
<title>Node27</title>
<g id="a_node5"><a xlink:href="py__add__map_8cpp.html" target="_top" xlink:title="This file is for binding AddMap class to Python. ">
<polygon fill="#ffffff" stroke="#000000" points="0,-56.5 0,-86.5 107,-86.5 107,-56.5 0,-56.5"/>
<text text-anchor="start" x="8" y="-74.5" font-family="Helvetica,sans-Serif" font-size="10.00" fill="#000000">src/pybind/adders/py</text>
<text text-anchor="middle" x="53.5" y="-63.5" font-family="Helvetica,sans-Serif" font-size="10.00" fill="#000000">_add_map.cpp</text>
</a>
</g>
</g>
<!-- Node26&#45;&gt;Node27 -->
<g id="edge5" class="edge">
<title>Node26&#45;&gt;Node27</title>
<path fill="none" stroke="#191970" d="M81.2725,-114.7735C75.2666,-105.4154 68.5449,-94.9421 63.2188,-86.6432"/>
<polygon fill="#191970" stroke="#191970" points="78.3958,-116.7712 86.7426,-123.2967 84.2869,-112.9903 78.3958,-116.7712"/>
</g>
<!-- Node28&#45;&gt;Node24 -->
<g id="edge7" class="edge">
<title>Node28&#45;&gt;Node24</title>
<path fill="none" stroke="#191970" d="M285.2735,-122.8523C443.7943,-96.4901 489.7677,-121.2457 643.5,-87 650.1404,-85.5208 657.1603,-83.3435 663.5958,-81.0855"/>
<polygon fill="#191970" stroke="#191970" points="284.4356,-119.4446 275.1665,-124.5764 285.6127,-126.3449 284.4356,-119.4446"/>
</g>
<!-- Node29 -->
<g id="node7" class="node">
<title>Node29</title>
<g id="a_node7"><a xlink:href="py__add__rename_8cpp.html" target="_top" xlink:title="This file is for binding AddRename class to Python. ">
<polygon fill="#ffffff" stroke="#000000" points="125,-56.5 125,-86.5 232,-86.5 232,-56.5 125,-56.5"/>
<text text-anchor="start" x="133" y="-74.5" font-family="Helvetica,sans-Serif" font-size="10.00" fill="#000000">src/pybind/adders/py</text>
<text text-anchor="middle" x="178.5" y="-63.5" font-family="Helvetica,sans-Serif" font-size="10.00" fill="#000000">_add_rename.cpp</text>
</a>
</g>
</g>
<!-- Node28&#45;&gt;Node29 -->
<g id="edge8" class="edge">
<title>Node28&#45;&gt;Node29</title>
<path fill="none" stroke="#191970" d="M206.2725,-114.7735C200.2666,-105.4154 193.5449,-94.9421 188.2188,-86.6432"/>
<polygon fill="#191970" stroke="#191970" points="203.3958,-116.7712 211.7426,-123.2967 209.2869,-112.9903 203.3958,-116.7712"/>
</g>
<!-- Node30&#45;&gt;Node24 -->
<g id="edge10" class="edge">
<title>Node30&#45;&gt;Node24</title>
<path fill="none" stroke="#191970" d="M410.1372,-122.7884C513.9062,-102.7667 544.1046,-111.8885 643.5,-87 649.9423,-85.3869 656.7719,-83.2168 663.0797,-81.0122"/>
<polygon fill="#191970" stroke="#191970" points="409.3318,-119.3798 400.1992,-124.7507 410.6878,-126.2472 409.3318,-119.3798"/>
</g>
<!-- Node31 -->
<g id="node9" class="node">
<title>Node31</title>
<g id="a_node9"><a xlink:href="py__add__bond__length_8cpp.html" target="_top" xlink:title="This file is for binding AddBondLength class to Python. ">
<polygon fill="#ffffff" stroke="#000000" points="250.5,-56.5 250.5,-86.5 364.5,-86.5 364.5,-56.5 250.5,-56.5"/>
<text text-anchor="start" x="258.5" y="-74.5" font-family="Helvetica,sans-Serif" font-size="10.00" fill="#000000">src/pybind/adders/py</text>
<text text-anchor="middle" x="307.5" y="-63.5" font-family="Helvetica,sans-Serif" font-size="10.00" fill="#000000">_add_bond_length.cpp</text>
</a>
</g>
</g>
<!-- Node30&#45;&gt;Node31 -->
<g id="edge11" class="edge">
<title>Node30&#45;&gt;Node31</title>
<path fill="none" stroke="#191970" d="M332.5204,-114.4837C327.1162,-105.1996 321.0956,-94.8565 316.3147,-86.6432"/>
<polygon fill="#191970" stroke="#191970" points="329.5947,-116.4149 337.6503,-123.2967 335.6444,-112.8934 329.5947,-116.4149"/>
</g>
<!-- Node32&#45;&gt;Node24 -->
<g id="edge13" class="edge">
<title>Node32&#45;&gt;Node24</title>
<path fill="none" stroke="#191970" d="M533.9088,-120.5936C566.6552,-111.0013 607.3728,-98.7645 643.5,-87 649.1987,-85.1443 655.2794,-83.0662 661.045,-81.0495"/>
<polygon fill="#191970" stroke="#191970" points="532.6341,-117.3195 524.0159,-123.4821 534.5961,-124.039 532.6341,-117.3195"/>
</g>
<!-- Node33 -->
<g id="node11" class="node">
<title>Node33</title>
<g id="a_node11"><a xlink:href="py__add__child__ids_8cpp.html" target="_top" xlink:title="This file is for binding AddChildIDs class to Python. ">
<polygon fill="#ffffff" stroke="#000000" points="383,-56.5 383,-86.5 490,-86.5 490,-56.5 383,-56.5"/>
<text text-anchor="start" x="391" y="-74.5" font-family="Helvetica,sans-Serif" font-size="10.00" fill="#000000">src/pybind/adders/py</text>
<text text-anchor="middle" x="436.5" y="-63.5" font-family="Helvetica,sans-Serif" font-size="10.00" fill="#000000">_add_child_ids.cpp</text>
</a>
</g>
</g>
<!-- Node32&#45;&gt;Node33 -->
<g id="edge14" class="edge">
<title>Node32&#45;&gt;Node33</title>
<path fill="none" stroke="#191970" d="M458.8024,-114.1932C453.9918,-104.9844 448.6565,-94.771 444.4106,-86.6432"/>
<polygon fill="#191970" stroke="#191970" points="455.8255,-116.0537 463.558,-123.2967 462.03,-112.8126 455.8255,-116.0537"/>
</g>
<!-- Node34&#45;&gt;Node24 -->
<g id="edge16" class="edge">
<title>Node34&#45;&gt;Node24</title>
<path fill="none" stroke="#191970" d="M629.2552,-116.8767C644.761,-104.7967 663.3048,-90.3498 675.2354,-81.055"/>
<polygon fill="#191970" stroke="#191970" points="626.7523,-114.3899 621.0147,-123.2967 631.0544,-119.9119 626.7523,-114.3899"/>
</g>
<!-- Node35 -->
<g id="node13" class="node">
<title>Node35</title>
<g id="a_node13"><a xlink:href="py__add__child__positions_8cpp.html" target="_top" xlink:title="This file is for binding AddChildPositions class to Python. ">
<polygon fill="#ffffff" stroke="#000000" points="508.5,-56.5 508.5,-86.5 634.5,-86.5 634.5,-56.5 508.5,-56.5"/>
<text text-anchor="start" x="516.5" y="-74.5" font-family="Helvetica,sans-Serif" font-size="10.00" fill="#000000">src/pybind/adders/py</text>
<text text-anchor="middle" x="571.5" y="-63.5" font-family="Helvetica,sans-Serif" font-size="10.00" fill="#000000">_add_child_positions.cpp</text>
</a>
</g>
</g>
<!-- Node34&#45;&gt;Node35 -->
<g id="edge17" class="edge">
<title>Node34&#45;&gt;Node35</title>
<path fill="none" stroke="#191970" d="M590.486,-113.9021C586.3968,-104.7696 581.8815,-94.6854 578.2805,-86.6432"/>
<polygon fill="#191970" stroke="#191970" points="587.4114,-115.6002 594.6925,-123.2967 593.8002,-112.7395 587.4114,-115.6002"/>
</g>
<!-- Node36&#45;&gt;Node24 -->
<g id="edge19" class="edge">
<title>Node36&#45;&gt;Node24</title>
<path fill="none" stroke="#191970" d="M743.713,-116.8767C728.7481,-104.7967 710.8512,-90.3498 699.3368,-81.055"/>
<polygon fill="#191970" stroke="#191970" points="741.6864,-119.7389 751.666,-123.2967 746.0832,-114.292 741.6864,-119.7389"/>
</g>
<!-- Node37 -->
<g id="node15" class="node">
<title>Node37</title>
<g id="a_node15"><a xlink:href="py__add__com__position_8cpp.html" target="_top" xlink:title="This file is for binding AddCoMPosition class to Python. ">
<polygon fill="#ffffff" stroke="#000000" points="741,-56.5 741,-86.5 860,-86.5 860,-56.5 741,-56.5"/>
<text text-anchor="start" x="749" y="-74.5" font-family="Helvetica,sans-Serif" font-size="10.00" fill="#000000">src/pybind/adders/py</text>
<text text-anchor="middle" x="800.5" y="-63.5" font-family="Helvetica,sans-Serif" font-size="10.00" fill="#000000">_add_com_position.cpp</text>
</a>
</g>
</g>
<!-- Node36&#45;&gt;Node37 -->
<g id="edge20" class="edge">
<title>Node36&#45;&gt;Node37</title>
<path fill="none" stroke="#191970" d="M781.514,-113.9021C785.6032,-104.7696 790.1185,-94.6854 793.7195,-86.6432"/>
<polygon fill="#191970" stroke="#191970" points="778.1998,-112.7395 777.3075,-123.2967 784.5886,-115.6002 778.1998,-112.7395"/>
</g>
<!-- Node38&#45;&gt;Node24 -->
<g id="edge22" class="edge">
<title>Node38&#45;&gt;Node24</title>
<path fill="none" stroke="#191970" d="M840.5911,-120.5152C808.3695,-110.8557 768.1937,-98.5817 732.5,-87 726.6839,-85.1128 720.4702,-83.0216 714.5747,-81.0018"/>
<polygon fill="#191970" stroke="#191970" points="839.7382,-123.9132 850.3218,-123.4254 841.744,-117.2067 839.7382,-123.9132"/>
</g>
<!-- Node39 -->
<g id="node17" class="node">
<title>Node39</title>
<g id="a_node17"><a xlink:href="py__add__gyration__radius_8cpp.html" target="_top" xlink:title="This file is for binding AddGyrationRadius class to Python. ">
<polygon fill="#ffffff" stroke="#000000" points="878.5,-56.5 878.5,-86.5 1006.5,-86.5 1006.5,-56.5 878.5,-56.5"/>
<text text-anchor="start" x="886.5" y="-74.5" font-family="Helvetica,sans-Serif" font-size="10.00" fill="#000000">src/pybind/adders/py</text>
<text text-anchor="middle" x="942.5" y="-63.5" font-family="Helvetica,sans-Serif" font-size="10.00" fill="#000000">_add_gyration_radius.cpp</text>
</a>
</g>
</g>
<!-- Node38&#45;&gt;Node39 -->
<g id="edge23" class="edge">
<title>Node38&#45;&gt;Node39</title>
<path fill="none" stroke="#191970" d="M916.1965,-114.4837C921.8778,-105.1996 928.2072,-94.8565 933.2333,-86.6432"/>
<polygon fill="#191970" stroke="#191970" points="913.0378,-112.9401 910.8035,-123.2967 919.0086,-116.5939 913.0378,-112.9401"/>
</g>
<!-- Node40&#45;&gt;Node24 -->
<g id="edge25" class="edge">
<title>Node40&#45;&gt;Node24</title>
<path fill="none" stroke="#191970" d="M968.1453,-122.8414C863.0081,-103.6792 832.8246,-111.6821 732.5,-87 725.9206,-85.3813 718.9391,-83.2093 712.4882,-81.0045"/>
<polygon fill="#191970" stroke="#191970" points="967.7437,-126.3267 978.2155,-124.7173 969.0256,-119.4451 967.7437,-126.3267"/>
</g>
<!-- Node41 -->
<g id="node19" class="node">
<title>Node41</title>
<g id="a_node19"><a xlink:href="py__add__inertia__moment_8cpp.html" target="_top" xlink:title="This file is for binding AddInertiaMoment class to Python. ">
<polygon fill="#ffffff" stroke="#000000" points="1024.5,-56.5 1024.5,-86.5 1152.5,-86.5 1152.5,-56.5 1024.5,-56.5"/>
<text text-anchor="start" x="1032.5" y="-74.5" font-family="Helvetica,sans-Serif" font-size="10.00" fill="#000000">src/pybind/adders/py</text>
<text text-anchor="middle" x="1088.5" y="-63.5" font-family="Helvetica,sans-Serif" font-size="10.00" fill="#000000">_add_inertia_moment.cpp</text>
</a>
</g>
</g>
<!-- Node40&#45;&gt;Node41 -->
<g id="edge26" class="edge">
<title>Node40&#45;&gt;Node41</title>
<path fill="none" stroke="#191970" d="M1055.3404,-115.0626C1062.5193,-105.6315 1070.5909,-95.0276 1076.9731,-86.6432"/>
<polygon fill="#191970" stroke="#191970" points="1052.3446,-113.2197 1049.0727,-123.2967 1057.9146,-117.4595 1052.3446,-113.2197"/>
</g>
<!-- Node42&#45;&gt;Node24 -->
<g id="edge28" class="edge">
<title>Node42&#45;&gt;Node24</title>
<path fill="none" stroke="#191970" d="M1104.5238,-122.9626C938.8255,-100.2011 892.0715,-121.6738 732.5,-87 725.7174,-85.5262 718.5409,-83.3507 711.9593,-81.0928"/>
<polygon fill="#191970" stroke="#191970" points="1104.1793,-126.4486 1114.5695,-124.3764 1105.1549,-119.5169 1104.1793,-126.4486"/>
</g>
<!-- Node43 -->
<g id="node21" class="node">
<title>Node43</title>
<g id="a_node21"><a xlink:href="py__add__molecular__orientation_8cpp.html" target="_top" xlink:title="This file is for binding AddMolecularOrientation class to Python. ">
<polygon fill="#ffffff" stroke="#000000" points="1170.5,-56.5 1170.5,-86.5 1324.5,-86.5 1324.5,-56.5 1170.5,-56.5"/>
<text text-anchor="start" x="1178.5" y="-74.5" font-family="Helvetica,sans-Serif" font-size="10.00" fill="#000000">src/pybind/adders/py</text>
<text text-anchor="middle" x="1247.5" y="-63.5" font-family="Helvetica,sans-Serif" font-size="10.00" fill="#000000">_add_molecular_orientation.cpp</text>
</a>
</g>
</g>
<!-- Node42&#45;&gt;Node43 -->
<g id="edge29" class="edge">
<title>Node42&#45;&gt;Node43</title>
<path fill="none" stroke="#191970" d="M1207.3142,-115.6385C1216.0301,-106.0653 1225.9235,-95.1987 1233.7129,-86.6432"/>
<polygon fill="#191970" stroke="#191970" points="1204.486,-113.5459 1200.3418,-123.2967 1209.6621,-118.2585 1204.486,-113.5459"/>
</g>
<!-- Node44&#45;&gt;Node24 -->
<g id="edge31" class="edge">
<title>Node44&#45;&gt;Node24</title>
<path fill="none" stroke="#191970" d="M1265.9801,-122.9346C1030.053,-88.503 962.8973,-133.5726 732.5,-87 725.5347,-85.592 718.1708,-83.3808 711.4622,-81.0649"/>
<polygon fill="#191970" stroke="#191970" points="1265.4822,-126.3989 1275.8891,-124.4126 1266.515,-119.4755 1265.4822,-126.3989"/>
</g>
<!-- Node45 -->
<g id="node23" class="node">
<title>Node45</title>
<g id="a_node23"><a xlink:href="py__add__special__bonds_8cpp.html" target="_top" xlink:title="This file is for binding AddSpecialBonds class to Python. ">
<polygon fill="#ffffff" stroke="#000000" points="1342.5,-56.5 1342.5,-86.5 1466.5,-86.5 1466.5,-56.5 1342.5,-56.5"/>
<text text-anchor="start" x="1350.5" y="-74.5" font-family="Helvetica,sans-Serif" font-size="10.00" fill="#000000">src/pybind/adders/py</text>
<text text-anchor="middle" x="1404.5" y="-63.5" font-family="Helvetica,sans-Serif" font-size="10.00" fill="#000000">_add_special_bonds.cpp</text>
</a>
</g>
</g>
<!-- Node44&#45;&gt;Node45 -->
<g id="edge32" class="edge">
<title>Node44&#45;&gt;Node45</title>
<path fill="none" stroke="#191970" d="M1356.452,-116.2113C1366.8871,-106.5009 1378.8488,-95.3698 1388.2267,-86.6432"/>
<polygon fill="#191970" stroke="#191970" points="1353.7743,-113.9221 1348.8379,-123.2967 1358.5429,-119.0466 1353.7743,-113.9221"/>
</g>
<!-- Node46&#45;&gt;Node24 -->
<g id="edge34" class="edge">
<title>Node46&#45;&gt;Node24</title>
<path fill="none" stroke="#191970" d="M1397.2679,-122.9909C1102.8353,-85.0202 1020.169,-143.1779 732.5,-87 725.5256,-85.638 718.1587,-83.4418 711.4501,-81.1257"/>
<polygon fill="#191970" stroke="#191970" points="1397.0118,-126.4872 1407.383,-124.3222 1397.9253,-119.5471 1397.0118,-126.4872"/>
</g>
<!-- Node47 -->
<g id="node25" class="node">
<title>Node47</title>
<g id="a_node25"><a xlink:href="py__add__wrapped__position_8cpp.html" target="_top" xlink:title="This file is for binding AddWrappedPosition class to Python. ">
<polygon fill="#ffffff" stroke="#000000" points="1485,-56.5 1485,-86.5 1622,-86.5 1622,-56.5 1485,-56.5"/>
<text text-anchor="start" x="1493" y="-74.5" font-family="Helvetica,sans-Serif" font-size="10.00" fill="#000000">src/pybind/adders/py</text>
<text text-anchor="middle" x="1553.5" y="-63.5" font-family="Helvetica,sans-Serif" font-size="10.00" fill="#000000">_add_wrapped_position.cpp</text>
</a>
</g>
</g>
<!-- Node46&#45;&gt;Node47 -->
<g id="edge35" class="edge">
<title>Node46&#45;&gt;Node47</title>
<path fill="none" stroke="#191970" d="M1497.4058,-116.7808C1509.5988,-106.9383 1523.7179,-95.541 1534.7405,-86.6432"/>
<polygon fill="#191970" stroke="#191970" points="1494.9168,-114.292 1489.334,-123.2967 1499.3136,-119.7389 1494.9168,-114.292"/>
</g>
</g>
</svg>
