<?xml version="1.0" encoding="UTF-8" standalone="no"?>
<!DOCTYPE svg PUBLIC "-//W3C//DTD SVG 1.1//EN"
 "http://www.w3.org/Graphics/SVG/1.1/DTD/svg11.dtd">
<!-- Generated by graphviz version 2.40.1 (20161225.0304)
 -->
<!-- Title: src/pybind/processors/py_pro_value_array.h Pages: 1 -->
<svg width="673pt" height="498pt"
 viewBox="0.00 0.00 673.00 498.00" xmlns="http://www.w3.org/2000/svg" xmlns:xlink="http://www.w3.org/1999/xlink">
<g id="graph0" class="graph" transform="scale(1 1) rotate(0) translate(4 494)">
<title>src/pybind/processors/py_pro_value_array.h</title>
<polygon fill="#ffffff" stroke="transparent" points="-4,4 -4,-494 669,-494 669,4 -4,4"/>
<!-- Node0 -->
<g id="node1" class="node">
<title>Node0</title>
<polygon fill="#bfbfbf" stroke="#000000" points="483.5,-459.5 483.5,-489.5 596.5,-489.5 596.5,-459.5 483.5,-459.5"/>
<text text-anchor="start" x="491.5" y="-477.5" font-family="Helvetica,sans-Serif" font-size="10.00" fill="#000000">src/pybind/processors</text>
<text text-anchor="middle" x="540" y="-466.5" font-family="Helvetica,sans-Serif" font-size="10.00" fill="#000000">/py_pro_value_array.h</text>
</g>
<!-- Node1 -->
<g id="node2" class="node">
<title>Node1</title>
<g id="a_node2"><a xlink:href="pro__value__array_8h.html" target="_top" xlink:title="This file has a definition of ProValueArray class, which is a subclass of Processor class...">
<polygon fill="#ffffff" stroke="#000000" points="421,-392.5 421,-422.5 531,-422.5 531,-392.5 421,-392.5"/>
<text text-anchor="start" x="429" y="-410.5" font-family="Helvetica,sans-Serif" font-size="10.00" fill="#000000">processors/pro_value</text>
<text text-anchor="middle" x="476" y="-399.5" font-family="Helvetica,sans-Serif" font-size="10.00" fill="#000000">_array.h</text>
</a>
</g>
</g>
<!-- Node0&#45;&gt;Node1 -->
<g id="edge1" class="edge">
<title>Node0&#45;&gt;Node1</title>
<path fill="none" stroke="#191970" d="M525.4774,-459.2967C517.2128,-450.6446 506.7045,-439.6438 497.4998,-430.0076"/>
<polygon fill="#191970" stroke="#191970" points="499.9034,-427.4567 490.4651,-422.6432 494.8416,-432.2919 499.9034,-427.4567"/>
</g>
<!-- Node22 -->
<g id="node23" class="node">
<title>Node22</title>
<g id="a_node23"><a xlink:href="py__processor_8h.html" target="_top" xlink:title="This file is for binding Processor class to Python. ">
<polygon fill="#ffffff" stroke="#000000" points="549,-392.5 549,-422.5 659,-422.5 659,-392.5 549,-392.5"/>
<text text-anchor="start" x="557" y="-410.5" font-family="Helvetica,sans-Serif" font-size="10.00" fill="#000000">pybind/processors/py</text>
<text text-anchor="middle" x="604" y="-399.5" font-family="Helvetica,sans-Serif" font-size="10.00" fill="#000000">_processor.h</text>
</a>
</g>
</g>
<!-- Node0&#45;&gt;Node22 -->
<g id="edge26" class="edge">
<title>Node0&#45;&gt;Node22</title>
<path fill="none" stroke="#191970" d="M554.5226,-459.2967C562.7872,-450.6446 573.2955,-439.6438 582.5002,-430.0076"/>
<polygon fill="#191970" stroke="#191970" points="585.1584,-432.2919 589.5349,-422.6432 580.0966,-427.4567 585.1584,-432.2919"/>
</g>
<!-- Node2 -->
<g id="node3" class="node">
<title>Node2</title>
<g id="a_node3"><a xlink:href="processor_8h.html" target="_top" xlink:title="This file has a definition of Processor class, where an analysis process is programmed. ">
<polygon fill="#ffffff" stroke="#000000" points="416.5,-336.5 416.5,-355.5 535.5,-355.5 535.5,-336.5 416.5,-336.5"/>
<text text-anchor="middle" x="476" y="-343.5" font-family="Helvetica,sans-Serif" font-size="10.00" fill="#000000">processors/processor.h</text>
</a>
</g>
</g>
<!-- Node1&#45;&gt;Node2 -->
<g id="edge2" class="edge">
<title>Node1&#45;&gt;Node2</title>
<path fill="none" stroke="#191970" d="M476,-392.2977C476,-384.3834 476,-374.6043 476,-366.0759"/>
<polygon fill="#191970" stroke="#191970" points="479.5001,-365.8469 476,-355.8469 472.5001,-365.847 479.5001,-365.8469"/>
</g>
<!-- Node3 -->
<g id="node4" class="node">
<title>Node3</title>
<g id="a_node4"><a xlink:href="generators_8h.html" target="_top" xlink:title="This file includes all the header files of subclasses of Generator class. ">
<polygon fill="#ffffff" stroke="#000000" points="420,-280.5 420,-299.5 512,-299.5 512,-280.5 420,-280.5"/>
<text text-anchor="middle" x="466" y="-287.5" font-family="Helvetica,sans-Serif" font-size="10.00" fill="#000000">core/generators.h</text>
</a>
</g>
</g>
<!-- Node2&#45;&gt;Node3 -->
<g id="edge3" class="edge">
<title>Node2&#45;&gt;Node3</title>
<path fill="none" stroke="#191970" d="M474.2581,-336.2455C472.9533,-328.9382 471.124,-318.6944 469.5187,-309.7046"/>
<polygon fill="#191970" stroke="#191970" points="472.9254,-308.8717 467.7219,-299.6427 466.0344,-310.1022 472.9254,-308.8717"/>
</g>
<!-- Node4 -->
<g id="node5" class="node">
<title>Node4</title>
<g id="a_node5"><a xlink:href="element_8h.html" target="_top" xlink:title="This file has a definition of Element class, which is one of the cores of this program. ">
<polygon fill="#ffffff" stroke="#000000" points="408.5,-168.5 408.5,-187.5 489.5,-187.5 489.5,-168.5 408.5,-168.5"/>
<text text-anchor="middle" x="449" y="-175.5" font-family="Helvetica,sans-Serif" font-size="10.00" fill="#000000">core/element.h</text>
</a>
</g>
</g>
<!-- Node3&#45;&gt;Node4 -->
<g id="edge4" class="edge">
<title>Node3&#45;&gt;Node4</title>
<path fill="none" stroke="#191970" d="M439.399,-280.397C423.4127,-273.0839 404.4002,-261.291 395,-244 384.5614,-224.7989 404.1176,-205.796 422.5469,-193.1474"/>
<polygon fill="#191970" stroke="#191970" points="424.5837,-195.9987 431.0945,-187.6405 420.7925,-190.1142 424.5837,-195.9987"/>
</g>
<!-- Node20 -->
<g id="node21" class="node">
<title>Node20</title>
<g id="a_node21"><a xlink:href="gen__dict_8h.html" target="_top" xlink:title="This file has a definition of GenDict class. ">
<polygon fill="#ffffff" stroke="#000000" points="404.5,-224.5 404.5,-243.5 487.5,-243.5 487.5,-224.5 404.5,-224.5"/>
<text text-anchor="middle" x="446" y="-231.5" font-family="Helvetica,sans-Serif" font-size="10.00" fill="#000000">core/gen_dict.h</text>
</a>
</g>
</g>
<!-- Node3&#45;&gt;Node20 -->
<g id="edge22" class="edge">
<title>Node3&#45;&gt;Node20</title>
<path fill="none" stroke="#191970" d="M462.5163,-280.2455C459.8492,-272.7776 456.0867,-262.2427 452.8263,-253.1137"/>
<polygon fill="#191970" stroke="#191970" points="456.1033,-251.8829 449.4438,-243.6427 449.5111,-254.2373 456.1033,-251.8829"/>
</g>
<!-- Node21 -->
<g id="node22" class="node">
<title>Node21</title>
<g id="a_node22"><a xlink:href="gen__list_8h.html" target="_top" xlink:title="This file has a definition of GenList class. ">
<polygon fill="#ffffff" stroke="#000000" points="506,-224.5 506,-243.5 586,-243.5 586,-224.5 506,-224.5"/>
<text text-anchor="middle" x="546" y="-231.5" font-family="Helvetica,sans-Serif" font-size="10.00" fill="#000000">core/gen_list.h</text>
</a>
</g>
</g>
<!-- Node3&#45;&gt;Node21 -->
<g id="edge24" class="edge">
<title>Node3&#45;&gt;Node21</title>
<path fill="none" stroke="#191970" d="M479.9349,-280.2455C492.0947,-271.7337 509.9464,-259.2375 524.0285,-249.3801"/>
<polygon fill="#191970" stroke="#191970" points="526.0395,-252.2447 532.2248,-243.6427 522.0253,-246.51 526.0395,-252.2447"/>
</g>
<!-- Node5 -->
<g id="node6" class="node">
<title>Node5</title>
<polygon fill="#ffffff" stroke="#bfbfbf" points="505,-112.5 505,-131.5 549,-131.5 549,-112.5 505,-112.5"/>
<text text-anchor="middle" x="527" y="-119.5" font-family="Helvetica,sans-Serif" font-size="10.00" fill="#000000">omp.h</text>
</g>
<!-- Node4&#45;&gt;Node5 -->
<g id="edge5" class="edge">
<title>Node4&#45;&gt;Node5</title>
<path fill="none" stroke="#191970" d="M462.5866,-168.2455C474.3305,-159.814 491.5199,-147.4729 505.1882,-137.6598"/>
<polygon fill="#191970" stroke="#191970" points="507.4871,-140.3179 513.5691,-131.6427 503.4046,-134.6316 507.4871,-140.3179"/>
</g>
<!-- Node6 -->
<g id="node7" class="node">
<title>Node6</title>
<g id="a_node7"><a xlink:href="eigen_8h.html" target="_top" xlink:title="This file includes Eigen and defines some aliases for the Eigen&#45;Vector, Matrix and Array...">
<polygon fill="#ffffff" stroke="#000000" points="415.5,-112.5 415.5,-131.5 486.5,-131.5 486.5,-112.5 415.5,-112.5"/>
<text text-anchor="middle" x="451" y="-119.5" font-family="Helvetica,sans-Serif" font-size="10.00" fill="#000000">alias/eigen.h</text>
</a>
</g>
</g>
<!-- Node4&#45;&gt;Node6 -->
<g id="edge6" class="edge">
<title>Node4&#45;&gt;Node6</title>
<path fill="none" stroke="#191970" d="M449.3484,-168.2455C449.6093,-160.9382 449.9752,-150.6944 450.2963,-141.7046"/>
<polygon fill="#191970" stroke="#191970" points="453.7964,-141.7613 450.6556,-131.6427 446.8008,-141.5113 453.7964,-141.7613"/>
</g>
<!-- Node8 -->
<g id="node9" class="node">
<title>Node8</title>
<g id="a_node9"><a xlink:href="alias_2pybind_8h.html" target="_top" xlink:title="This file includes pybind11 and defines an alias for the namespace pybind11. ">
<polygon fill="#ffffff" stroke="#000000" points="573.5,-112.5 573.5,-131.5 650.5,-131.5 650.5,-112.5 573.5,-112.5"/>
<text text-anchor="middle" x="612" y="-119.5" font-family="Helvetica,sans-Serif" font-size="10.00" fill="#000000">alias/pybind.h</text>
</a>
</g>
</g>
<!-- Node4&#45;&gt;Node8 -->
<g id="edge8" class="edge">
<title>Node4&#45;&gt;Node8</title>
<path fill="none" stroke="#191970" d="M477.0207,-168.3733C504.0078,-159.1016 545.0017,-145.0178 574.7311,-134.804"/>
<polygon fill="#191970" stroke="#191970" points="576.0248,-138.0605 584.3449,-131.5011 573.7503,-131.4403 576.0248,-138.0605"/>
</g>
<!-- Node10 -->
<g id="node11" class="node">
<title>Node10</title>
<g id="a_node11"><a xlink:href="generator_8h.html" target="_top" xlink:title="This file has a definition of Generator class, which is one of the cores of this program. ">
<polygon fill="#ffffff" stroke="#000000" points="310.5,-112.5 310.5,-131.5 397.5,-131.5 397.5,-112.5 310.5,-112.5"/>
<text text-anchor="middle" x="354" y="-119.5" font-family="Helvetica,sans-Serif" font-size="10.00" fill="#000000">core/generator.h</text>
</a>
</g>
</g>
<!-- Node4&#45;&gt;Node10 -->
<g id="edge10" class="edge">
<title>Node4&#45;&gt;Node10</title>
<path fill="none" stroke="#191970" d="M432.4523,-168.2455C417.7401,-159.5731 396.0112,-146.7645 379.1495,-136.825"/>
<polygon fill="#191970" stroke="#191970" points="380.7502,-133.7057 370.3581,-131.6427 377.1954,-139.736 380.7502,-133.7057"/>
</g>
<!-- Node19 -->
<g id="node20" class="node">
<title>Node19</title>
<g id="a_node20"><a xlink:href="data__keys_8h.html" target="_top" xlink:title="This file has a definition of DataKeys class, which is owned by Element class. ">
<polygon fill="#ffffff" stroke="#000000" points="196,-112.5 196,-131.5 292,-131.5 292,-112.5 196,-112.5"/>
<text text-anchor="middle" x="244" y="-119.5" font-family="Helvetica,sans-Serif" font-size="10.00" fill="#000000">class/data_keys.h</text>
</a>
</g>
</g>
<!-- Node4&#45;&gt;Node19 -->
<g id="edge19" class="edge">
<title>Node4&#45;&gt;Node19</title>
<path fill="none" stroke="#191970" d="M413.7592,-168.3733C379.0806,-158.9001 326.0117,-144.4032 288.4538,-134.1435"/>
<polygon fill="#191970" stroke="#191970" points="289.3498,-130.7601 278.7809,-131.5011 287.5051,-137.5126 289.3498,-130.7601"/>
</g>
<!-- Node7 -->
<g id="node8" class="node">
<title>Node7</title>
<polygon fill="#ffffff" stroke="#bfbfbf" points="415,-56.5 415,-75.5 487,-75.5 487,-56.5 415,-56.5"/>
<text text-anchor="middle" x="451" y="-63.5" font-family="Helvetica,sans-Serif" font-size="10.00" fill="#000000">Eigen/Dense</text>
</g>
<!-- Node6&#45;&gt;Node7 -->
<g id="edge7" class="edge">
<title>Node6&#45;&gt;Node7</title>
<path fill="none" stroke="#191970" d="M451,-112.2455C451,-104.9382 451,-94.6944 451,-85.7046"/>
<polygon fill="#191970" stroke="#191970" points="454.5001,-85.6426 451,-75.6427 447.5001,-85.6427 454.5001,-85.6426"/>
</g>
<!-- Node9 -->
<g id="node10" class="node">
<title>Node9</title>
<polygon fill="#ffffff" stroke="#bfbfbf" points="559,-56.5 559,-75.5 665,-75.5 665,-56.5 559,-56.5"/>
<text text-anchor="middle" x="612" y="-63.5" font-family="Helvetica,sans-Serif" font-size="10.00" fill="#000000">pybind11/pybind11.h</text>
</g>
<!-- Node8&#45;&gt;Node9 -->
<g id="edge9" class="edge">
<title>Node8&#45;&gt;Node9</title>
<path fill="none" stroke="#191970" d="M612,-112.2455C612,-104.9382 612,-94.6944 612,-85.7046"/>
<polygon fill="#191970" stroke="#191970" points="615.5001,-85.6426 612,-75.6427 608.5001,-85.6427 615.5001,-85.6426"/>
</g>
<!-- Node11 -->
<g id="node12" class="node">
<title>Node11</title>
<g id="a_node12"><a xlink:href="std_8h.html" target="_top" xlink:title="This file includes a part of C++ Standard Template Library and defines aliases for them...">
<polygon fill="#ffffff" stroke="#000000" points="213,-56.5 213,-75.5 275,-75.5 275,-56.5 213,-56.5"/>
<text text-anchor="middle" x="244" y="-63.5" font-family="Helvetica,sans-Serif" font-size="10.00" fill="#000000">alias/std.h</text>
</a>
</g>
</g>
<!-- Node10&#45;&gt;Node11 -->
<g id="edge11" class="edge">
<title>Node10&#45;&gt;Node11</title>
<path fill="none" stroke="#191970" d="M334.8395,-112.2455C317.4889,-103.4125 291.7099,-90.2887 272.0417,-80.2758"/>
<polygon fill="#191970" stroke="#191970" points="273.4405,-77.0605 262.941,-75.6427 270.2647,-83.2986 273.4405,-77.0605"/>
</g>
<!-- Node17 -->
<g id="node18" class="node">
<title>Node17</title>
<g id="a_node18"><a xlink:href="json_8h.html" target="_top" xlink:title="This file includes nlohmann/json and defines an alias for a JSON class. ">
<polygon fill="#ffffff" stroke="#000000" points="321,-56.5 321,-75.5 387,-75.5 387,-56.5 321,-56.5"/>
<text text-anchor="middle" x="354" y="-63.5" font-family="Helvetica,sans-Serif" font-size="10.00" fill="#000000">alias/json.h</text>
</a>
</g>
</g>
<!-- Node10&#45;&gt;Node17 -->
<g id="edge17" class="edge">
<title>Node10&#45;&gt;Node17</title>
<path fill="none" stroke="#191970" d="M354,-112.2455C354,-104.9382 354,-94.6944 354,-85.7046"/>
<polygon fill="#191970" stroke="#191970" points="357.5001,-85.6426 354,-75.6427 350.5001,-85.6427 357.5001,-85.6426"/>
</g>
<!-- Node12 -->
<g id="node13" class="node">
<title>Node12</title>
<polygon fill="#ffffff" stroke="#bfbfbf" points="260,-.5 260,-19.5 312,-19.5 312,-.5 260,-.5"/>
<text text-anchor="middle" x="286" y="-7.5" font-family="Helvetica,sans-Serif" font-size="10.00" fill="#000000">memory</text>
</g>
<!-- Node11&#45;&gt;Node12 -->
<g id="edge12" class="edge">
<title>Node11&#45;&gt;Node12</title>
<path fill="none" stroke="#191970" d="M251.3158,-56.2455C257.2179,-48.3761 265.6742,-37.101 272.7594,-27.6542"/>
<polygon fill="#191970" stroke="#191970" points="275.568,-29.7427 278.768,-19.6427 269.9679,-25.5427 275.568,-29.7427"/>
</g>
<!-- Node13 -->
<g id="node14" class="node">
<title>Node13</title>
<polygon fill="#ffffff" stroke="#bfbfbf" points="330.5,-.5 330.5,-19.5 371.5,-19.5 371.5,-.5 330.5,-.5"/>
<text text-anchor="middle" x="351" y="-7.5" font-family="Helvetica,sans-Serif" font-size="10.00" fill="#000000">string</text>
</g>
<!-- Node11&#45;&gt;Node13 -->
<g id="edge13" class="edge">
<title>Node11&#45;&gt;Node13</title>
<path fill="none" stroke="#191970" d="M262.638,-56.2455C279.4386,-47.4527 304.3634,-34.4079 323.4618,-24.4125"/>
<polygon fill="#191970" stroke="#191970" points="325.3386,-27.3807 332.5756,-19.6427 322.0927,-21.1787 325.3386,-27.3807"/>
</g>
<!-- Node14 -->
<g id="node15" class="node">
<title>Node14</title>
<polygon fill="#ffffff" stroke="#bfbfbf" points="0,-.5 0,-19.5 44,-19.5 44,-.5 0,-.5"/>
<text text-anchor="middle" x="22" y="-7.5" font-family="Helvetica,sans-Serif" font-size="10.00" fill="#000000">vector</text>
</g>
<!-- Node11&#45;&gt;Node14 -->
<g id="edge14" class="edge">
<title>Node11&#45;&gt;Node14</title>
<path fill="none" stroke="#191970" d="M212.7146,-59.2295C176.6582,-51.2598 115.4395,-37.2196 54.127,-20.174"/>
<polygon fill="#191970" stroke="#191970" points="54.8635,-16.7456 44.2898,-17.413 52.9719,-23.4852 54.8635,-16.7456"/>
</g>
<!-- Node15 -->
<g id="node16" class="node">
<title>Node15</title>
<polygon fill="#ffffff" stroke="#bfbfbf" points="62.5,-.5 62.5,-19.5 145.5,-19.5 145.5,-.5 62.5,-.5"/>
<text text-anchor="middle" x="104" y="-7.5" font-family="Helvetica,sans-Serif" font-size="10.00" fill="#000000">unordered_map</text>
</g>
<!-- Node11&#45;&gt;Node15 -->
<g id="edge15" class="edge">
<title>Node11&#45;&gt;Node15</title>
<path fill="none" stroke="#191970" d="M219.9331,-56.3733C197.1572,-47.2629 162.7656,-33.5062 137.351,-23.3404"/>
<polygon fill="#191970" stroke="#191970" points="138.3375,-19.9654 127.7528,-19.5011 135.7377,-26.4648 138.3375,-19.9654"/>
</g>
<!-- Node16 -->
<g id="node17" class="node">
<title>Node16</title>
<polygon fill="#ffffff" stroke="#bfbfbf" points="164,-.5 164,-19.5 242,-19.5 242,-.5 164,-.5"/>
<text text-anchor="middle" x="203" y="-7.5" font-family="Helvetica,sans-Serif" font-size="10.00" fill="#000000">unordered_set</text>
</g>
<!-- Node11&#45;&gt;Node16 -->
<g id="edge16" class="edge">
<title>Node11&#45;&gt;Node16</title>
<path fill="none" stroke="#191970" d="M236.8583,-56.2455C231.1556,-48.4564 223.01,-37.3308 216.1375,-27.9439"/>
<polygon fill="#191970" stroke="#191970" points="218.7913,-25.6437 210.0598,-19.6427 213.1432,-29.7789 218.7913,-25.6437"/>
</g>
<!-- Node18 -->
<g id="node19" class="node">
<title>Node18</title>
<polygon fill="#ffffff" stroke="#bfbfbf" points="390,-.5 390,-19.5 488,-19.5 488,-.5 390,-.5"/>
<text text-anchor="middle" x="439" y="-7.5" font-family="Helvetica,sans-Serif" font-size="10.00" fill="#000000">nlohmann/json.hpp</text>
</g>
<!-- Node17&#45;&gt;Node18 -->
<g id="edge18" class="edge">
<title>Node17&#45;&gt;Node18</title>
<path fill="none" stroke="#191970" d="M368.8059,-56.2455C381.7256,-47.7337 400.6931,-35.2375 415.6552,-25.3801"/>
<polygon fill="#191970" stroke="#191970" points="417.9387,-28.067 424.3638,-19.6427 414.0876,-22.2216 417.9387,-28.067"/>
</g>
<!-- Node19&#45;&gt;Node11 -->
<g id="edge20" class="edge">
<title>Node19&#45;&gt;Node11</title>
<path fill="none" stroke="#191970" d="M244,-112.2455C244,-104.9382 244,-94.6944 244,-85.7046"/>
<polygon fill="#191970" stroke="#191970" points="247.5001,-85.6426 244,-75.6427 240.5001,-85.6427 247.5001,-85.6426"/>
</g>
<!-- Node19&#45;&gt;Node17 -->
<g id="edge21" class="edge">
<title>Node19&#45;&gt;Node17</title>
<path fill="none" stroke="#191970" d="M263.1605,-112.2455C280.5111,-103.4125 306.2901,-90.2887 325.9583,-80.2758"/>
<polygon fill="#191970" stroke="#191970" points="327.7353,-83.2986 335.059,-75.6427 324.5595,-77.0605 327.7353,-83.2986"/>
</g>
<!-- Node20&#45;&gt;Node4 -->
<g id="edge23" class="edge">
<title>Node20&#45;&gt;Node4</title>
<path fill="none" stroke="#191970" d="M446.5226,-224.2455C446.914,-216.9382 447.4628,-206.6944 447.9444,-197.7046"/>
<polygon fill="#191970" stroke="#191970" points="451.4434,-197.8156 448.4834,-187.6427 444.4534,-197.4411 451.4434,-197.8156"/>
</g>
<!-- Node21&#45;&gt;Node4 -->
<g id="edge25" class="edge">
<title>Node21&#45;&gt;Node4</title>
<path fill="none" stroke="#191970" d="M529.1039,-224.2455C514.082,-215.5731 491.8957,-202.7645 474.679,-192.825"/>
<polygon fill="#191970" stroke="#191970" points="476.1128,-189.6114 465.7025,-187.6427 472.6129,-195.6737 476.1128,-189.6114"/>
</g>
<!-- Node22&#45;&gt;Node2 -->
<g id="edge28" class="edge">
<title>Node22&#45;&gt;Node2</title>
<path fill="none" stroke="#191970" d="M572.6877,-392.4554C551.9862,-382.509 525.0477,-369.5659 504.8647,-359.8686"/>
<polygon fill="#191970" stroke="#191970" points="506.3648,-356.7064 495.8355,-355.5303 503.3333,-363.0159 506.3648,-356.7064"/>
</g>
<!-- Node22&#45;&gt;Node8 -->
<g id="edge27" class="edge">
<title>Node22&#45;&gt;Node8</title>
<path fill="none" stroke="#191970" d="M606.1207,-392.325C609.0562,-369.9708 614,-326.8515 614,-290 614,-290 614,-290 614,-234 614,-201.7064 613.1585,-164.1836 612.5672,-141.8029"/>
<polygon fill="#191970" stroke="#191970" points="616.0599,-141.4874 612.2866,-131.5873 609.0626,-141.6797 616.0599,-141.4874"/>
</g>
</g>
</svg>
