<?xml version="1.0" encoding="UTF-8" standalone="no"?>
<!DOCTYPE svg PUBLIC "-//W3C//DTD SVG 1.1//EN"
 "http://www.w3.org/Graphics/SVG/1.1/DTD/svg11.dtd">
<!-- Generated by graphviz version 2.40.1 (20161225.0304)
 -->
<!-- Title: src/pybind/adders/py_adder.h Pages: 1 -->
<!--zoomable 218 -->
<svg id="main" version="1.1" xmlns="http://www.w3.org/2000/svg" xmlns:xlink="http://www.w3.org/1999/xlink" xml:space="preserve" onload="init(evt)">
<style type="text/css"><![CDATA[
.edge:hover path { stroke: red; }
.edge:hover polygon { stroke: red; fill: red; }
]]></style>
<script type="text/javascript"><![CDATA[
var edges = document.getElementsByTagName('g');
if (edges && edges.length) {
  for (var i=0;i<edges.length;i++) {
    if (edges[i].id.substr(0,4)=='edge') {
      edges[i].setAttribute('class','edge');
    }
  }
}
]]></script>
        <defs>
                <circle id="rim" cx="0" cy="0" r="7"/>
                <circle id="rim2" cx="0" cy="0" r="3.5"/>
                <g id="zoomPlus">
                        <use xlink:href="#rim" fill="#404040">
                                <set attributeName="fill" to="#808080" begin="zoomplus.mouseover" end="zoomplus.mouseout"/>
                        </use>
                        <path d="M-4,0h8M0,-4v8" fill="none" stroke="white" stroke-width="1.5" pointer-events="none"/>
                </g>
                <g id="zoomMin">
                        <use xlink:href="#rim" fill="#404040">
                                <set attributeName="fill" to="#808080" begin="zoomminus.mouseover" end="zoomminus.mouseout"/>
                        </use>
                        <path d="M-4,0h8" fill="none" stroke="white" stroke-width="1.5" pointer-events="none"/>
                </g>
                <g id="dirArrow">
                        <path fill="none" stroke="white" stroke-width="1.5" d="M0,-3.0v7 M-2.5,-0.5L0,-3.0L2.5,-0.5"/>
                </g>
               <g id="resetDef">
                       <use xlink:href="#rim2" fill="#404040">
                               <set attributeName="fill" to="#808080" begin="reset.mouseover" end="reset.mouseout"/>
                       </use>
               </g>
        </defs>

<script type="text/javascript">
var viewWidth = 1352;
var viewHeight = 218;
var sectionId = 'dynsection-1';
</script>
<script xlink:href="svgpan.js"/>
<svg id="graph" class="graph">
<g id="viewport">
<title>src/pybind/adders/py_adder.h</title>
<polygon fill="#ffffff" stroke="transparent" points="-4,4 -4,-214 1347.9938,-214 1347.9938,4 -4,4"/>
<!-- Node23 -->
<g id="node1" class="node">
<title>Node23</title>
<polygon fill="#bfbfbf" stroke="#000000" points="527.4938,-179.5 527.4938,-209.5 634.4938,-209.5 634.4938,-179.5 527.4938,-179.5"/>
<text text-anchor="start" x="535.4938" y="-197.5" font-family="Helvetica,sans-Serif" font-size="10.00" fill="#000000">src/pybind/adders/py</text>
<text text-anchor="middle" x="580.9938" y="-186.5" font-family="Helvetica,sans-Serif" font-size="10.00" fill="#000000">_adder.h</text>
</g>
<!-- Node24 -->
<g id="node2" class="node">
<title>Node24</title>
<g id="a_node2"><a xlink:href="pybind_8h.html" target="_top" xlink:title="This file includes all the header files containing definitions of functions to bind C++ and Python...">
<polygon fill="#ffffff" stroke="#000000" points="545.9938,-56.5 545.9938,-75.5 615.9938,-75.5 615.9938,-56.5 545.9938,-56.5"/>
<text text-anchor="middle" x="580.9938" y="-63.5" font-family="Helvetica,sans-Serif" font-size="10.00" fill="#000000">src/pybind.h</text>
</a>
</g>
</g>
<!-- Node23&#45;&gt;Node24 -->
<g id="edge1" class="edge">
<title>Node23&#45;&gt;Node24</title>
<path fill="none" stroke="#191970" d="M517.0114,-193.5166C374.5163,-190.6631 40.873,-180.055 6.9938,-143 -2.3031,-132.8317 -2.3514,-122.124 6.9938,-112 25.3657,-92.0968 424.1087,-72.921 545.9477,-67.5088"/>
<polygon fill="#191970" stroke="#191970" points="517.2765,-197.0222 527.3424,-193.7165 517.412,-190.0236 517.2765,-197.0222"/>
</g>
<!-- Node26 -->
<g id="node4" class="node">
<title>Node26</title>
<g id="a_node4"><a xlink:href="py__add__map_8h.html" target="_top" xlink:title="This file is for binding AddMap class to Python. ">
<polygon fill="#ffffff" stroke="#000000" points="16.4938,-112.5 16.4938,-142.5 123.4938,-142.5 123.4938,-112.5 16.4938,-112.5"/>
<text text-anchor="start" x="24.4938" y="-130.5" font-family="Helvetica,sans-Serif" font-size="10.00" fill="#000000">src/pybind/adders/py</text>
<text text-anchor="middle" x="69.9938" y="-119.5" font-family="Helvetica,sans-Serif" font-size="10.00" fill="#000000">_add_map.h</text>
</a>
</g>
</g>
<!-- Node23&#45;&gt;Node26 -->
<g id="edge3" class="edge">
<title>Node23&#45;&gt;Node26</title>
<path fill="none" stroke="#191970" d="M517.423,-189.8431C430.0742,-182.8463 268.2614,-167.7388 131.9938,-143 129.2646,-142.5045 126.4772,-141.958 123.6689,-141.3751"/>
<polygon fill="#191970" stroke="#191970" points="517.197,-193.3361 527.442,-190.6362 517.7494,-186.3579 517.197,-193.3361"/>
</g>
<!-- Node27 -->
<g id="node5" class="node">
<title>Node27</title>
<g id="a_node5"><a xlink:href="py__add__rename_8h.html" target="_top" xlink:title="This file is for binding AddRename class to Python. ">
<polygon fill="#ffffff" stroke="#000000" points="141.4938,-112.5 141.4938,-142.5 248.4938,-142.5 248.4938,-112.5 141.4938,-112.5"/>
<text text-anchor="start" x="149.4938" y="-130.5" font-family="Helvetica,sans-Serif" font-size="10.00" fill="#000000">src/pybind/adders/py</text>
<text text-anchor="middle" x="194.9938" y="-119.5" font-family="Helvetica,sans-Serif" font-size="10.00" fill="#000000">_add_rename.h</text>
</a>
</g>
</g>
<!-- Node23&#45;&gt;Node27 -->
<g id="edge5" class="edge">
<title>Node23&#45;&gt;Node27</title>
<path fill="none" stroke="#191970" d="M517.2419,-186.044C451.687,-176.9567 346.7815,-161.3229 256.9938,-143 254.276,-142.4454 251.4978,-141.8513 248.6968,-141.2307"/>
<polygon fill="#191970" stroke="#191970" points="517.0327,-189.5482 527.4168,-187.4457 517.988,-182.6137 517.0327,-189.5482"/>
</g>
<!-- Node28 -->
<g id="node6" class="node">
<title>Node28</title>
<g id="a_node6"><a xlink:href="py__add__child__ids_8h.html" target="_top" xlink:title="This file is for binding AddChildIDs class to Python. ">
<polygon fill="#ffffff" stroke="#000000" points="266.4938,-112.5 266.4938,-142.5 373.4938,-142.5 373.4938,-112.5 266.4938,-112.5"/>
<text text-anchor="start" x="274.4938" y="-130.5" font-family="Helvetica,sans-Serif" font-size="10.00" fill="#000000">src/pybind/adders/py</text>
<text text-anchor="middle" x="319.9938" y="-119.5" font-family="Helvetica,sans-Serif" font-size="10.00" fill="#000000">_add_child_ids.h</text>
</a>
</g>
</g>
<!-- Node23&#45;&gt;Node28 -->
<g id="edge7" class="edge">
<title>Node23&#45;&gt;Node28</title>
<path fill="none" stroke="#191970" d="M517.4902,-178.1983C473.4447,-166.8916 415.4279,-151.9984 373.6869,-141.2833"/>
<polygon fill="#191970" stroke="#191970" points="516.6746,-181.6024 527.2309,-180.6988 518.4152,-174.8222 516.6746,-181.6024"/>
</g>
<!-- Node29 -->
<g id="node7" class="node">
<title>Node29</title>
<g id="a_node7"><a xlink:href="py__add__child__positions_8h.html" target="_top" xlink:title="This file is for binding AddChildPositions class to Python. ">
<polygon fill="#ffffff" stroke="#000000" points="391.9938,-112.5 391.9938,-142.5 507.9938,-142.5 507.9938,-112.5 391.9938,-112.5"/>
<text text-anchor="start" x="399.9938" y="-130.5" font-family="Helvetica,sans-Serif" font-size="10.00" fill="#000000">src/pybind/adders/py</text>
<text text-anchor="middle" x="449.9938" y="-119.5" font-family="Helvetica,sans-Serif" font-size="10.00" fill="#000000">_add_child_positions.h</text>
</a>
</g>
</g>
<!-- Node23&#45;&gt;Node29 -->
<g id="edge9" class="edge">
<title>Node23&#45;&gt;Node29</title>
<path fill="none" stroke="#191970" d="M542.4256,-174.7743C522.4025,-164.5335 498.3136,-152.2132 479.7479,-142.7177"/>
<polygon fill="#191970" stroke="#191970" points="541.0979,-178.0264 551.5948,-179.4639 544.2854,-171.7942 541.0979,-178.0264"/>
</g>
<!-- Node30 -->
<g id="node8" class="node">
<title>Node30</title>
<g id="a_node8"><a xlink:href="py__add__com__position_8h.html" target="_top" xlink:title="This file is for binding AddCoMPosition class to Python. ">
<polygon fill="#ffffff" stroke="#000000" points="526.4938,-112.5 526.4938,-142.5 635.4938,-142.5 635.4938,-112.5 526.4938,-112.5"/>
<text text-anchor="start" x="534.4938" y="-130.5" font-family="Helvetica,sans-Serif" font-size="10.00" fill="#000000">src/pybind/adders/py</text>
<text text-anchor="middle" x="580.9938" y="-119.5" font-family="Helvetica,sans-Serif" font-size="10.00" fill="#000000">_add_com_position.h</text>
</a>
</g>
</g>
<!-- Node23&#45;&gt;Node30 -->
<g id="edge11" class="edge">
<title>Node23&#45;&gt;Node30</title>
<path fill="none" stroke="#191970" d="M580.9938,-169.0249C580.9938,-160.128 580.9938,-150.4287 580.9938,-142.6432"/>
<polygon fill="#191970" stroke="#191970" points="577.4939,-169.2966 580.9938,-179.2967 584.4939,-169.2967 577.4939,-169.2966"/>
</g>
<!-- Node31 -->
<g id="node9" class="node">
<title>Node31</title>
<g id="a_node9"><a xlink:href="py__add__gyration__radius_8h.html" target="_top" xlink:title="This file is for binding AddGyrationRadius class to Python. ">
<polygon fill="#ffffff" stroke="#000000" points="653.4938,-112.5 653.4938,-142.5 770.4938,-142.5 770.4938,-112.5 653.4938,-112.5"/>
<text text-anchor="start" x="661.4938" y="-130.5" font-family="Helvetica,sans-Serif" font-size="10.00" fill="#000000">src/pybind/adders/py</text>
<text text-anchor="middle" x="711.9938" y="-119.5" font-family="Helvetica,sans-Serif" font-size="10.00" fill="#000000">_add_gyration_radius.h</text>
</a>
</g>
</g>
<!-- Node23&#45;&gt;Node31 -->
<g id="edge13" class="edge">
<title>Node23&#45;&gt;Node31</title>
<path fill="none" stroke="#191970" d="M619.5619,-174.7743C639.585,-164.5335 663.674,-152.2132 682.2397,-142.7177"/>
<polygon fill="#191970" stroke="#191970" points="617.7021,-171.7942 610.3927,-179.4639 620.8896,-178.0264 617.7021,-171.7942"/>
</g>
<!-- Node32 -->
<g id="node10" class="node">
<title>Node32</title>
<g id="a_node10"><a xlink:href="py__add__inertia__moment_8h.html" target="_top" xlink:title="This file is for binding AddInertiaMoment class to Python. ">
<polygon fill="#ffffff" stroke="#000000" points="788.9938,-112.5 788.9938,-142.5 906.9938,-142.5 906.9938,-112.5 788.9938,-112.5"/>
<text text-anchor="start" x="796.9938" y="-130.5" font-family="Helvetica,sans-Serif" font-size="10.00" fill="#000000">src/pybind/adders/py</text>
<text text-anchor="middle" x="847.9938" y="-119.5" font-family="Helvetica,sans-Serif" font-size="10.00" fill="#000000">_add_inertia_moment.h</text>
</a>
</g>
</g>
<!-- Node23&#45;&gt;Node32 -->
<g id="edge15" class="edge">
<title>Node23&#45;&gt;Node32</title>
<path fill="none" stroke="#191970" d="M644.6578,-178.5244C688.3956,-167.549 746.0533,-153.0806 788.798,-142.3544"/>
<polygon fill="#191970" stroke="#191970" points="643.5514,-175.1934 634.704,-181.0221 645.2552,-181.9829 643.5514,-175.1934"/>
</g>
<!-- Node33 -->
<g id="node11" class="node">
<title>Node33</title>
<g id="a_node11"><a xlink:href="py__add__molecular__orientation_8h.html" target="_top" xlink:title="This file is for binding AddMolecularOrientation class to Python. ">
<polygon fill="#ffffff" stroke="#000000" points="925.4938,-112.5 925.4938,-142.5 1068.4938,-142.5 1068.4938,-112.5 925.4938,-112.5"/>
<text text-anchor="start" x="933.4938" y="-130.5" font-family="Helvetica,sans-Serif" font-size="10.00" fill="#000000">src/pybind/adders/py</text>
<text text-anchor="middle" x="996.9938" y="-119.5" font-family="Helvetica,sans-Serif" font-size="10.00" fill="#000000">_add_molecular_orientation.h</text>
</a>
</g>
</g>
<!-- Node23&#45;&gt;Node33 -->
<g id="edge17" class="edge">
<title>Node23&#45;&gt;Node33</title>
<path fill="none" stroke="#191970" d="M644.8137,-185.397C712.3001,-175.6055 821.8161,-159.2443 915.9938,-143 919.0978,-142.4646 922.2666,-141.9067 925.466,-141.3343"/>
<polygon fill="#191970" stroke="#191970" points="644.1561,-181.9556 634.7606,-186.8521 645.1589,-188.8835 644.1561,-181.9556"/>
</g>
<!-- Node34 -->
<g id="node12" class="node">
<title>Node34</title>
<g id="a_node12"><a xlink:href="py__add__special__bonds_8h.html" target="_top" xlink:title="This file is for binding AddSpecialBonds class to Python. ">
<polygon fill="#ffffff" stroke="#000000" points="1086.4938,-112.5 1086.4938,-142.5 1199.4938,-142.5 1199.4938,-112.5 1086.4938,-112.5"/>
<text text-anchor="start" x="1094.4938" y="-130.5" font-family="Helvetica,sans-Serif" font-size="10.00" fill="#000000">src/pybind/adders/py</text>
<text text-anchor="middle" x="1142.9938" y="-119.5" font-family="Helvetica,sans-Serif" font-size="10.00" fill="#000000">_add_special_bonds.h</text>
</a>
</g>
</g>
<!-- Node23&#45;&gt;Node34 -->
<g id="edge19" class="edge">
<title>Node23&#45;&gt;Node34</title>
<path fill="none" stroke="#191970" d="M644.6408,-190.5806C739.5317,-184.134 923.4952,-169.3095 1077.9938,-143 1080.7385,-142.5326 1083.5399,-142.0166 1086.3632,-141.4652"/>
<polygon fill="#191970" stroke="#191970" points="644.372,-187.0906 634.6286,-191.252 644.8404,-194.075 644.372,-187.0906"/>
</g>
<!-- Node35 -->
<g id="node13" class="node">
<title>Node35</title>
<g id="a_node13"><a xlink:href="py__add__wrapped__position_8h.html" target="_top" xlink:title="This file is for binding AddWrappedPosition class to Python. ">
<polygon fill="#ffffff" stroke="#000000" points="1217.9938,-112.5 1217.9938,-142.5 1343.9938,-142.5 1343.9938,-112.5 1217.9938,-112.5"/>
<text text-anchor="start" x="1225.9938" y="-130.5" font-family="Helvetica,sans-Serif" font-size="10.00" fill="#000000">src/pybind/adders/py</text>
<text text-anchor="middle" x="1280.9938" y="-119.5" font-family="Helvetica,sans-Serif" font-size="10.00" fill="#000000">_add_wrapped_position.h</text>
</a>
</g>
</g>
<!-- Node23&#45;&gt;Node35 -->
<g id="edge21" class="edge">
<title>Node23&#45;&gt;Node35</title>
<path fill="none" stroke="#191970" d="M644.8841,-192.0111C758.7611,-186.9638 1004.1004,-173.324 1208.9938,-143 1211.9029,-142.5694 1214.8706,-142.0911 1217.8626,-141.5771"/>
<polygon fill="#191970" stroke="#191970" points="644.4466,-188.5267 634.6085,-192.4589 644.7514,-195.5201 644.4466,-188.5267"/>
</g>
<!-- Node25 -->
<g id="node3" class="node">
<title>Node25</title>
<g id="a_node3"><a xlink:href="ppap4lmp_8cpp.html" target="_top" xlink:title="This file has no implementation, only includes a header file to bind C++ and Python. ">
<polygon fill="#ffffff" stroke="#000000" points="533.9938,-.5 533.9938,-19.5 627.9938,-19.5 627.9938,-.5 533.9938,-.5"/>
<text text-anchor="middle" x="580.9938" y="-7.5" font-family="Helvetica,sans-Serif" font-size="10.00" fill="#000000">src/ppap4lmp.cpp</text>
</a>
</g>
</g>
<!-- Node24&#45;&gt;Node25 -->
<g id="edge2" class="edge">
<title>Node24&#45;&gt;Node25</title>
<path fill="none" stroke="#191970" d="M580.9938,-46.1575C580.9938,-37.155 580.9938,-26.9199 580.9938,-19.6427"/>
<polygon fill="#191970" stroke="#191970" points="577.4939,-46.2455 580.9938,-56.2455 584.4939,-46.2456 577.4939,-46.2455"/>
</g>
<!-- Node26&#45;&gt;Node24 -->
<g id="edge4" class="edge">
<title>Node26&#45;&gt;Node24</title>
<path fill="none" stroke="#191970" d="M133.6054,-111.8583C292.3579,-84.6863 471.3937,-72.2522 545.8281,-67.8883"/>
<polygon fill="#191970" stroke="#191970" points="132.9157,-108.4256 123.6617,-113.5845 134.113,-115.3225 132.9157,-108.4256"/>
</g>
<!-- Node27&#45;&gt;Node24 -->
<g id="edge6" class="edge">
<title>Node27&#45;&gt;Node24</title>
<path fill="none" stroke="#191970" d="M258.6099,-111.7904C368.5212,-90.7412 487.8324,-76.274 545.7937,-69.7826"/>
<polygon fill="#191970" stroke="#191970" points="257.8369,-108.375 248.6858,-113.7142 259.1691,-115.247 257.8369,-108.375"/>
</g>
<!-- Node28&#45;&gt;Node24 -->
<g id="edge8" class="edge">
<title>Node28&#45;&gt;Node24</title>
<path fill="none" stroke="#191970" d="M383.7059,-111.8463C446.6377,-96.8359 508.3189,-82.6165 545.9103,-74.0061"/>
<polygon fill="#191970" stroke="#191970" points="382.5113,-108.5331 373.5985,-114.2614 384.1382,-115.3415 382.5113,-108.5331"/>
</g>
<!-- Node29&#45;&gt;Node24 -->
<g id="edge10" class="edge">
<title>Node29&#45;&gt;Node24</title>
<path fill="none" stroke="#191970" d="M491.2957,-108.1102C514.4226,-97.2529 542.2327,-84.197 560.6934,-75.5303"/>
<polygon fill="#191970" stroke="#191970" points="489.6047,-105.0375 482.04,-112.4554 492.5795,-111.3739 489.6047,-105.0375"/>
</g>
<!-- Node30&#45;&gt;Node24 -->
<g id="edge12" class="edge">
<title>Node30&#45;&gt;Node24</title>
<path fill="none" stroke="#191970" d="M580.9938,-102.2849C580.9938,-92.9858 580.9938,-82.9883 580.9938,-75.8469"/>
<polygon fill="#191970" stroke="#191970" points="577.4939,-102.2977 580.9938,-112.2977 584.4939,-102.2978 577.4939,-102.2977"/>
</g>
<!-- Node31&#45;&gt;Node24 -->
<g id="edge14" class="edge">
<title>Node31&#45;&gt;Node24</title>
<path fill="none" stroke="#191970" d="M670.6918,-108.1102C647.5649,-97.2529 619.7549,-84.197 601.2941,-75.5303"/>
<polygon fill="#191970" stroke="#191970" points="669.4081,-111.3739 679.9476,-112.4554 672.3829,-105.0375 669.4081,-111.3739"/>
</g>
<!-- Node32&#45;&gt;Node24 -->
<g id="edge16" class="edge">
<title>Node32&#45;&gt;Node24</title>
<path fill="none" stroke="#191970" d="M778.8999,-111.5851C726.8479,-99.5956 657.6162,-83.649 616.3459,-74.1429"/>
<polygon fill="#191970" stroke="#191970" points="778.2073,-115.0172 788.7378,-113.8512 779.7786,-108.1958 778.2073,-115.0172"/>
</g>
<!-- Node33&#45;&gt;Node24 -->
<g id="edge18" class="edge">
<title>Node33&#45;&gt;Node24</title>
<path fill="none" stroke="#191970" d="M915.3927,-111.955C799.7995,-93.1922 675.7364,-77.4793 616.2939,-70.2269"/>
<polygon fill="#191970" stroke="#191970" points="915.0428,-115.4441 925.4765,-113.6032 916.1721,-108.5358 915.0428,-115.4441"/>
</g>
<!-- Node34&#45;&gt;Node24 -->
<g id="edge20" class="edge">
<title>Node34&#45;&gt;Node24</title>
<path fill="none" stroke="#191970" d="M1076.3088,-111.8573C898.4454,-83.2518 696.248,-71.4101 616.1599,-67.539"/>
<polygon fill="#191970" stroke="#191970" points="1075.9365,-115.3427 1086.3695,-113.4977 1077.0631,-108.4339 1075.9365,-115.3427"/>
</g>
<!-- Node35&#45;&gt;Node24 -->
<g id="edge22" class="edge">
<title>Node35&#45;&gt;Node24</title>
<path fill="none" stroke="#191970" d="M1207.9401,-111.9787C977.0387,-79.5179 710.6303,-69.5513 616.2426,-66.8666"/>
<polygon fill="#191970" stroke="#191970" points="1207.4738,-115.4475 1217.8672,-113.3914 1208.4601,-108.5173 1207.4738,-115.4475"/>
</g>
</g>
</svg>
        <g id="navigator" transform="translate(0 0)" fill="#404254">
                <rect fill="#f2f5e9" fill-opacity="0.5" stroke="#606060" stroke-width=".5" x="0" y="0" width="60" height="60"/>
                <use id="zoomplus" xlink:href="#zoomPlus" x="17" y="9" onmousedown="handleZoom(evt,'in')"/>
                <use id="zoomminus" xlink:href="#zoomMin" x="42" y="9" onmousedown="handleZoom(evt,'out')"/>
                <use id="reset" xlink:href="#resetDef" x="30" y="36" onmousedown="handleReset()"/>
                <g id="arrowUp" xlink:href="#dirArrow" transform="translate(30 24)" onmousedown="handlePan(0,-1)">
                  <use xlink:href="#rim" fill="#404040">
                        <set attributeName="fill" to="#808080" begin="arrowUp.mouseover" end="arrowUp.mouseout"/>
                  </use>
                  <path fill="none" stroke="white" stroke-width="1.5" d="M0,-3.0v7 M-2.5,-0.5L0,-3.0L2.5,-0.5"/>
                </g>
                <g id="arrowRight" xlink:href="#dirArrow" transform="rotate(90) translate(36 -43)" onmousedown="handlePan(1,0)">
                  <use xlink:href="#rim" fill="#404040">
                        <set attributeName="fill" to="#808080" begin="arrowRight.mouseover" end="arrowRight.mouseout"/>
                  </use>
                  <path fill="none" stroke="white" stroke-width="1.5" d="M0,-3.0v7 M-2.5,-0.5L0,-3.0L2.5,-0.5"/>
                </g>
                <g id="arrowDown" xlink:href="#dirArrow" transform="rotate(180) translate(-30 -48)" onmousedown="handlePan(0,1)">
                  <use xlink:href="#rim" fill="#404040">
                        <set attributeName="fill" to="#808080" begin="arrowDown.mouseover" end="arrowDown.mouseout"/>
                  </use>
                  <path fill="none" stroke="white" stroke-width="1.5" d="M0,-3.0v7 M-2.5,-0.5L0,-3.0L2.5,-0.5"/>
                </g>
                <g id="arrowLeft" xlink:href="#dirArrow" transform="rotate(270) translate(-36 17)" onmousedown="handlePan(-1,0)">
                  <use xlink:href="#rim" fill="#404040">
                        <set attributeName="fill" to="#808080" begin="arrowLeft.mouseover" end="arrowLeft.mouseout"/>
                  </use>
                  <path fill="none" stroke="white" stroke-width="1.5" d="M0,-3.0v7 M-2.5,-0.5L0,-3.0L2.5,-0.5"/>
                </g>
        </g>
        <svg viewBox="0 0 15 15" width="100%" height="30px" preserveAspectRatio="xMaxYMin meet">
         <g id="arrow_out" transform="scale(0.3 0.3)">
          <a xlink:href="py__adder_8h__dep__incl_org.svg" target="_base">
           <rect id="button" ry="5" rx="5" y="6" x="6" height="38" width="38"
                fill="#f2f5e9" fill-opacity="0.5" stroke="#606060" stroke-width="1.0"/>
           <path id="arrow"
             d="M 11.500037,31.436501 C 11.940474,20.09759 22.043105,11.32322 32.158766,21.979434 L 37.068811,17.246167 C 37.068811,17.246167 37.088388,32 37.088388,32 L 22.160133,31.978069 C 22.160133,31.978069 26.997745,27.140456 26.997745,27.140456 C 18.528582,18.264221 13.291696,25.230495 11.500037,31.436501 z"
             style="fill:#404040;"/>
          </a>
         </g>
        </svg>
</svg>
