<?xml version="1.0" encoding="UTF-8" standalone="no"?>
<!DOCTYPE svg PUBLIC "-//W3C//DTD SVG 1.1//EN"
 "http://www.w3.org/Graphics/SVG/1.1/DTD/svg11.dtd">
<!-- Generated by graphviz version 2.40.1 (20161225.0304)
 -->
<!-- Title: src/pybind/adders/py_add_bond_length.cpp Pages: 1 -->
<!--zoomable 599 -->
<svg id="main" version="1.1" xmlns="http://www.w3.org/2000/svg" xmlns:xlink="http://www.w3.org/1999/xlink" xml:space="preserve" onload="init(evt)">
<style type="text/css"><![CDATA[
.edge:hover path { stroke: red; }
.edge:hover polygon { stroke: red; fill: red; }
]]></style>
<script type="text/javascript"><![CDATA[
var edges = document.getElementsByTagName('g');
if (edges && edges.length) {
  for (var i=0;i<edges.length;i++) {
    if (edges[i].id.substr(0,4)=='edge') {
      edges[i].setAttribute('class','edge');
    }
  }
}
]]></script>
        <defs>
                <circle id="rim" cx="0" cy="0" r="7"/>
                <circle id="rim2" cx="0" cy="0" r="3.5"/>
                <g id="zoomPlus">
                        <use xlink:href="#rim" fill="#404040">
                                <set attributeName="fill" to="#808080" begin="zoomplus.mouseover" end="zoomplus.mouseout"/>
                        </use>
                        <path d="M-4,0h8M0,-4v8" fill="none" stroke="white" stroke-width="1.5" pointer-events="none"/>
                </g>
                <g id="zoomMin">
                        <use xlink:href="#rim" fill="#404040">
                                <set attributeName="fill" to="#808080" begin="zoomminus.mouseover" end="zoomminus.mouseout"/>
                        </use>
                        <path d="M-4,0h8" fill="none" stroke="white" stroke-width="1.5" pointer-events="none"/>
                </g>
                <g id="dirArrow">
                        <path fill="none" stroke="white" stroke-width="1.5" d="M0,-3.0v7 M-2.5,-0.5L0,-3.0L2.5,-0.5"/>
                </g>
               <g id="resetDef">
                       <use xlink:href="#rim2" fill="#404040">
                               <set attributeName="fill" to="#808080" begin="reset.mouseover" end="reset.mouseout"/>
                       </use>
               </g>
        </defs>

<script type="text/javascript">
var viewWidth = 529;
var viewHeight = 599;
var sectionId = 'dynsection-0';
</script>
<script xlink:href="svgpan.js"/>
<svg id="graph" class="graph">
<g id="viewport">
<title>src/pybind/adders/py_add_bond_length.cpp</title>
<polygon fill="#ffffff" stroke="transparent" points="-4,4 -4,-595 524.5,-595 524.5,4 -4,4"/>
<!-- Node0 -->
<g id="node1" class="node">
<title>Node0</title>
<polygon fill="#bfbfbf" stroke="#000000" points="254.5,-560.5 254.5,-590.5 368.5,-590.5 368.5,-560.5 254.5,-560.5"/>
<text text-anchor="start" x="262.5" y="-578.5" font-family="Helvetica,sans-Serif" font-size="10.00" fill="#000000">src/pybind/adders/py</text>
<text text-anchor="middle" x="311.5" y="-567.5" font-family="Helvetica,sans-Serif" font-size="10.00" fill="#000000">_add_bond_length.cpp</text>
</g>
<!-- Node1 -->
<g id="node2" class="node">
<title>Node1</title>
<g id="a_node2"><a xlink:href="py__add__bond__length_8h.html" target="_top" xlink:title="This file is for binding AddBondLength class to Python. ">
<polygon fill="#ffffff" stroke="#000000" points="254.5,-504.5 254.5,-523.5 368.5,-523.5 368.5,-504.5 254.5,-504.5"/>
<text text-anchor="middle" x="311.5" y="-511.5" font-family="Helvetica,sans-Serif" font-size="10.00" fill="#000000">py_add_bond_length.h</text>
</a>
</g>
</g>
<!-- Node0&#45;&gt;Node1 -->
<g id="edge1" class="edge">
<title>Node0&#45;&gt;Node1</title>
<path fill="none" stroke="#191970" d="M311.5,-560.2977C311.5,-552.3834 311.5,-542.6043 311.5,-534.0759"/>
<polygon fill="#191970" stroke="#191970" points="315.0001,-533.8469 311.5,-523.8469 308.0001,-533.847 315.0001,-533.8469"/>
</g>
<!-- Node2 -->
<g id="node3" class="node">
<title>Node2</title>
<g id="a_node3"><a xlink:href="add__bond__length_8h.html" target="_top" xlink:title="This file has a definition of AddBondLength class, which is a subclass of Adder class. ">
<polygon fill="#ffffff" stroke="#000000" points="172,-448.5 172,-467.5 303,-467.5 303,-448.5 172,-448.5"/>
<text text-anchor="middle" x="237.5" y="-455.5" font-family="Helvetica,sans-Serif" font-size="10.00" fill="#000000">adders/add_bond_length.h</text>
</a>
</g>
</g>
<!-- Node1&#45;&gt;Node2 -->
<g id="edge2" class="edge">
<title>Node1&#45;&gt;Node2</title>
<path fill="none" stroke="#191970" d="M298.6102,-504.2455C287.5746,-495.8943 271.4708,-483.7076 258.5647,-473.9408"/>
<polygon fill="#191970" stroke="#191970" points="260.3283,-470.8862 250.2421,-467.6427 256.1041,-476.4681 260.3283,-470.8862"/>
</g>
<!-- Node24 -->
<g id="node25" class="node">
<title>Node24</title>
<g id="a_node25"><a xlink:href="py__adder_8h.html" target="_top" xlink:title="This file is for binding Adder class to Python. ">
<polygon fill="#ffffff" stroke="#000000" points="321.5,-448.5 321.5,-467.5 449.5,-467.5 449.5,-448.5 321.5,-448.5"/>
<text text-anchor="middle" x="385.5" y="-455.5" font-family="Helvetica,sans-Serif" font-size="10.00" fill="#000000">pybind/adders/py_adder.h</text>
</a>
</g>
</g>
<!-- Node1&#45;&gt;Node24 -->
<g id="edge29" class="edge">
<title>Node1&#45;&gt;Node24</title>
<path fill="none" stroke="#191970" d="M324.3898,-504.2455C335.4254,-495.8943 351.5292,-483.7076 364.4353,-473.9408"/>
<polygon fill="#191970" stroke="#191970" points="366.8959,-476.4681 372.7579,-467.6427 362.6717,-470.8862 366.8959,-476.4681"/>
</g>
<!-- Node3 -->
<g id="node4" class="node">
<title>Node3</title>
<g id="a_node4"><a xlink:href="adder_8h.html" target="_top" xlink:title="This file has a definition of Adder class, which is a subclass of Updater class. ">
<polygon fill="#ffffff" stroke="#000000" points="215,-392.5 215,-411.5 296,-411.5 296,-392.5 215,-392.5"/>
<text text-anchor="middle" x="255.5" y="-399.5" font-family="Helvetica,sans-Serif" font-size="10.00" fill="#000000">adders/adder.h</text>
</a>
</g>
</g>
<!-- Node2&#45;&gt;Node3 -->
<g id="edge3" class="edge">
<title>Node2&#45;&gt;Node3</title>
<path fill="none" stroke="#191970" d="M240.6354,-448.2455C243.01,-440.8579 246.3493,-430.4689 249.2615,-421.4087"/>
<polygon fill="#191970" stroke="#191970" points="252.6725,-422.234 252.4006,-411.6427 246.0083,-420.0919 252.6725,-422.234"/>
</g>
<!-- Node4 -->
<g id="node5" class="node">
<title>Node4</title>
<g id="a_node5"><a xlink:href="updater_8h.html" target="_top" xlink:title="This file has a definition of Updater class, which is one of the cores of this program. ">
<polygon fill="#ffffff" stroke="#000000" points="216,-336.5 216,-355.5 295,-355.5 295,-336.5 216,-336.5"/>
<text text-anchor="middle" x="255.5" y="-343.5" font-family="Helvetica,sans-Serif" font-size="10.00" fill="#000000">core/updater.h</text>
</a>
</g>
</g>
<!-- Node3&#45;&gt;Node4 -->
<g id="edge4" class="edge">
<title>Node3&#45;&gt;Node4</title>
<path fill="none" stroke="#191970" d="M255.5,-392.2455C255.5,-384.9382 255.5,-374.6944 255.5,-365.7046"/>
<polygon fill="#191970" stroke="#191970" points="259.0001,-365.6426 255.5,-355.6427 252.0001,-365.6427 259.0001,-365.6426"/>
</g>
<!-- Node5 -->
<g id="node6" class="node">
<title>Node5</title>
<polygon fill="#ffffff" stroke="#bfbfbf" points="55.5,-112.5 55.5,-131.5 99.5,-131.5 99.5,-112.5 55.5,-112.5"/>
<text text-anchor="middle" x="77.5" y="-119.5" font-family="Helvetica,sans-Serif" font-size="10.00" fill="#000000">omp.h</text>
</g>
<!-- Node4&#45;&gt;Node5 -->
<g id="edge5" class="edge">
<title>Node4&#45;&gt;Node5</title>
<path fill="none" stroke="#191970" d="M241.9569,-336.3144C230.2497,-327.575 213.2508,-313.9793 200.5,-300 152.1174,-246.9558 107.417,-173.8959 87.8704,-140.2767"/>
<polygon fill="#191970" stroke="#191970" points="90.859,-138.4528 82.8378,-131.531 84.7917,-141.9441 90.859,-138.4528"/>
</g>
<!-- Node6 -->
<g id="node7" class="node">
<title>Node6</title>
<g id="a_node7"><a xlink:href="generators_8h.html" target="_top" xlink:title="This file includes all the header files of subclasses of Generator class. ">
<polygon fill="#ffffff" stroke="#000000" points="209.5,-280.5 209.5,-299.5 301.5,-299.5 301.5,-280.5 209.5,-280.5"/>
<text text-anchor="middle" x="255.5" y="-287.5" font-family="Helvetica,sans-Serif" font-size="10.00" fill="#000000">core/generators.h</text>
</a>
</g>
</g>
<!-- Node4&#45;&gt;Node6 -->
<g id="edge6" class="edge">
<title>Node4&#45;&gt;Node6</title>
<path fill="none" stroke="#191970" d="M255.5,-336.2455C255.5,-328.9382 255.5,-318.6944 255.5,-309.7046"/>
<polygon fill="#191970" stroke="#191970" points="259.0001,-309.6426 255.5,-299.6427 252.0001,-309.6427 259.0001,-309.6426"/>
</g>
<!-- Node7 -->
<g id="node8" class="node">
<title>Node7</title>
<g id="a_node8"><a xlink:href="element_8h.html" target="_top" xlink:title="This file has a definition of Element class, which is one of the cores of this program. ">
<polygon fill="#ffffff" stroke="#000000" points="215,-168.5 215,-187.5 296,-187.5 296,-168.5 215,-168.5"/>
<text text-anchor="middle" x="255.5" y="-175.5" font-family="Helvetica,sans-Serif" font-size="10.00" fill="#000000">core/element.h</text>
</a>
</g>
</g>
<!-- Node6&#45;&gt;Node7 -->
<g id="edge7" class="edge">
<title>Node6&#45;&gt;Node7</title>
<path fill="none" stroke="#191970" d="M238.7627,-280.2988C226.7416,-272.2823 211.477,-259.6887 204.5,-244 195.9317,-224.733 213.6122,-206.0303 230.4522,-193.4838"/>
<polygon fill="#191970" stroke="#191970" points="232.8262,-196.0961 239.0384,-187.5136 228.83,-190.3489 232.8262,-196.0961"/>
</g>
<!-- Node22 -->
<g id="node23" class="node">
<title>Node22</title>
<g id="a_node23"><a xlink:href="gen__dict_8h.html" target="_top" xlink:title="This file has a definition of GenDict class. ">
<polygon fill="#ffffff" stroke="#000000" points="214,-224.5 214,-243.5 297,-243.5 297,-224.5 214,-224.5"/>
<text text-anchor="middle" x="255.5" y="-231.5" font-family="Helvetica,sans-Serif" font-size="10.00" fill="#000000">core/gen_dict.h</text>
</a>
</g>
</g>
<!-- Node6&#45;&gt;Node22 -->
<g id="edge25" class="edge">
<title>Node6&#45;&gt;Node22</title>
<path fill="none" stroke="#191970" d="M255.5,-280.2455C255.5,-272.9382 255.5,-262.6944 255.5,-253.7046"/>
<polygon fill="#191970" stroke="#191970" points="259.0001,-253.6426 255.5,-243.6427 252.0001,-253.6427 259.0001,-253.6426"/>
</g>
<!-- Node23 -->
<g id="node24" class="node">
<title>Node23</title>
<g id="a_node24"><a xlink:href="gen__list_8h.html" target="_top" xlink:title="This file has a definition of GenList class. ">
<polygon fill="#ffffff" stroke="#000000" points="315.5,-224.5 315.5,-243.5 395.5,-243.5 395.5,-224.5 315.5,-224.5"/>
<text text-anchor="middle" x="355.5" y="-231.5" font-family="Helvetica,sans-Serif" font-size="10.00" fill="#000000">core/gen_list.h</text>
</a>
</g>
</g>
<!-- Node6&#45;&gt;Node23 -->
<g id="edge27" class="edge">
<title>Node6&#45;&gt;Node23</title>
<path fill="none" stroke="#191970" d="M272.9187,-280.2455C288.5485,-271.4928 311.7019,-258.527 329.5185,-248.5496"/>
<polygon fill="#191970" stroke="#191970" points="331.266,-251.5825 338.2809,-243.6427 327.8457,-245.475 331.266,-251.5825"/>
</g>
<!-- Node7&#45;&gt;Node5 -->
<g id="edge8" class="edge">
<title>Node7&#45;&gt;Node5</title>
<path fill="none" stroke="#191970" d="M224.7867,-168.475C197.0063,-159.8406 154.7277,-146.6533 109.2555,-132.2226"/>
<polygon fill="#191970" stroke="#191970" points="110.0982,-128.818 99.5078,-129.1256 107.9785,-135.4894 110.0982,-128.818"/>
</g>
<!-- Node8 -->
<g id="node9" class="node">
<title>Node8</title>
<g id="a_node9"><a xlink:href="eigen_8h.html" target="_top" xlink:title="This file includes Eigen and defines some aliases for the Eigen&#45;Vector, Matrix and Array...">
<polygon fill="#ffffff" stroke="#000000" points="118,-112.5 118,-131.5 189,-131.5 189,-112.5 118,-112.5"/>
<text text-anchor="middle" x="153.5" y="-119.5" font-family="Helvetica,sans-Serif" font-size="10.00" fill="#000000">alias/eigen.h</text>
</a>
</g>
</g>
<!-- Node7&#45;&gt;Node8 -->
<g id="edge9" class="edge">
<title>Node7&#45;&gt;Node8</title>
<path fill="none" stroke="#191970" d="M237.733,-168.2455C221.7905,-159.4928 198.1741,-146.527 180.0011,-136.5496"/>
<polygon fill="#191970" stroke="#191970" points="181.5137,-133.3873 171.0634,-131.6427 178.1448,-139.5233 181.5137,-133.3873"/>
</g>
<!-- Node10 -->
<g id="node11" class="node">
<title>Node10</title>
<g id="a_node11"><a xlink:href="alias_2pybind_8h.html" target="_top" xlink:title="This file includes pybind11 and defines an alias for the namespace pybind11. ">
<polygon fill="#ffffff" stroke="#000000" points="427,-112.5 427,-131.5 504,-131.5 504,-112.5 427,-112.5"/>
<text text-anchor="middle" x="465.5" y="-119.5" font-family="Helvetica,sans-Serif" font-size="10.00" fill="#000000">alias/pybind.h</text>
</a>
</g>
</g>
<!-- Node7&#45;&gt;Node10 -->
<g id="edge11" class="edge">
<title>Node7&#45;&gt;Node10</title>
<path fill="none" stroke="#191970" d="M291.6003,-168.3733C327.1248,-158.9001 381.488,-144.4032 419.9619,-134.1435"/>
<polygon fill="#191970" stroke="#191970" points="421.1103,-137.4596 429.8708,-131.5011 419.3066,-130.696 421.1103,-137.4596"/>
</g>
<!-- Node12 -->
<g id="node13" class="node">
<title>Node12</title>
<g id="a_node13"><a xlink:href="generator_8h.html" target="_top" xlink:title="This file has a definition of Generator class, which is one of the cores of this program. ">
<polygon fill="#ffffff" stroke="#000000" points="322,-112.5 322,-131.5 409,-131.5 409,-112.5 322,-112.5"/>
<text text-anchor="middle" x="365.5" y="-119.5" font-family="Helvetica,sans-Serif" font-size="10.00" fill="#000000">core/generator.h</text>
</a>
</g>
</g>
<!-- Node7&#45;&gt;Node12 -->
<g id="edge13" class="edge">
<title>Node7&#45;&gt;Node12</title>
<path fill="none" stroke="#191970" d="M274.6605,-168.2455C292.0111,-159.4125 317.7901,-146.2887 337.4583,-136.2758"/>
<polygon fill="#191970" stroke="#191970" points="339.2353,-139.2986 346.559,-131.6427 336.0595,-133.0605 339.2353,-139.2986"/>
</g>
<!-- Node21 -->
<g id="node22" class="node">
<title>Node21</title>
<g id="a_node22"><a xlink:href="data__keys_8h.html" target="_top" xlink:title="This file has a definition of DataKeys class, which is owned by Element class. ">
<polygon fill="#ffffff" stroke="#000000" points="207.5,-112.5 207.5,-131.5 303.5,-131.5 303.5,-112.5 207.5,-112.5"/>
<text text-anchor="middle" x="255.5" y="-119.5" font-family="Helvetica,sans-Serif" font-size="10.00" fill="#000000">class/data_keys.h</text>
</a>
</g>
</g>
<!-- Node7&#45;&gt;Node21 -->
<g id="edge22" class="edge">
<title>Node7&#45;&gt;Node21</title>
<path fill="none" stroke="#191970" d="M255.5,-168.2455C255.5,-160.9382 255.5,-150.6944 255.5,-141.7046"/>
<polygon fill="#191970" stroke="#191970" points="259.0001,-141.6426 255.5,-131.6427 252.0001,-141.6427 259.0001,-141.6426"/>
</g>
<!-- Node9 -->
<g id="node10" class="node">
<title>Node9</title>
<polygon fill="#ffffff" stroke="#bfbfbf" points="125.5,-56.5 125.5,-75.5 181.5,-75.5 181.5,-56.5 125.5,-56.5"/>
<text text-anchor="middle" x="153.5" y="-63.5" font-family="Helvetica,sans-Serif" font-size="10.00" fill="#000000">Eigen/LU</text>
</g>
<!-- Node8&#45;&gt;Node9 -->
<g id="edge10" class="edge">
<title>Node8&#45;&gt;Node9</title>
<path fill="none" stroke="#191970" d="M153.5,-112.2455C153.5,-104.9382 153.5,-94.6944 153.5,-85.7046"/>
<polygon fill="#191970" stroke="#191970" points="157.0001,-85.6426 153.5,-75.6427 150.0001,-85.6427 157.0001,-85.6426"/>
</g>
<!-- Node11 -->
<g id="node12" class="node">
<title>Node11</title>
<polygon fill="#ffffff" stroke="#bfbfbf" points="414.5,-56.5 414.5,-75.5 520.5,-75.5 520.5,-56.5 414.5,-56.5"/>
<text text-anchor="middle" x="467.5" y="-63.5" font-family="Helvetica,sans-Serif" font-size="10.00" fill="#000000">pybind11/pybind11.h</text>
</g>
<!-- Node10&#45;&gt;Node11 -->
<g id="edge12" class="edge">
<title>Node10&#45;&gt;Node11</title>
<path fill="none" stroke="#191970" d="M465.8484,-112.2455C466.1093,-104.9382 466.4752,-94.6944 466.7963,-85.7046"/>
<polygon fill="#191970" stroke="#191970" points="470.2964,-85.7613 467.1556,-75.6427 463.3008,-85.5113 470.2964,-85.7613"/>
</g>
<!-- Node13 -->
<g id="node14" class="node">
<title>Node13</title>
<g id="a_node14"><a xlink:href="std_8h.html" target="_top" xlink:title="This file includes a part of C++ Standard Template Library and defines aliases for them...">
<polygon fill="#ffffff" stroke="#000000" points="224.5,-56.5 224.5,-75.5 286.5,-75.5 286.5,-56.5 224.5,-56.5"/>
<text text-anchor="middle" x="255.5" y="-63.5" font-family="Helvetica,sans-Serif" font-size="10.00" fill="#000000">alias/std.h</text>
</a>
</g>
</g>
<!-- Node12&#45;&gt;Node13 -->
<g id="edge14" class="edge">
<title>Node12&#45;&gt;Node13</title>
<path fill="none" stroke="#191970" d="M346.3395,-112.2455C328.9889,-103.4125 303.2099,-90.2887 283.5417,-80.2758"/>
<polygon fill="#191970" stroke="#191970" points="284.9405,-77.0605 274.441,-75.6427 281.7647,-83.2986 284.9405,-77.0605"/>
</g>
<!-- Node19 -->
<g id="node20" class="node">
<title>Node19</title>
<g id="a_node20"><a xlink:href="json_8h.html" target="_top" xlink:title="This file includes nlohmann/json and defines an alias for a JSON class. ">
<polygon fill="#ffffff" stroke="#000000" points="330.5,-56.5 330.5,-75.5 396.5,-75.5 396.5,-56.5 330.5,-56.5"/>
<text text-anchor="middle" x="363.5" y="-63.5" font-family="Helvetica,sans-Serif" font-size="10.00" fill="#000000">alias/json.h</text>
</a>
</g>
</g>
<!-- Node12&#45;&gt;Node19 -->
<g id="edge20" class="edge">
<title>Node12&#45;&gt;Node19</title>
<path fill="none" stroke="#191970" d="M365.1516,-112.2455C364.8907,-104.9382 364.5248,-94.6944 364.2037,-85.7046"/>
<polygon fill="#191970" stroke="#191970" points="367.6992,-85.5113 363.8444,-75.6427 360.7036,-85.7613 367.6992,-85.5113"/>
</g>
<!-- Node14 -->
<g id="node15" class="node">
<title>Node14</title>
<polygon fill="#ffffff" stroke="#bfbfbf" points="197.5,-.5 197.5,-19.5 249.5,-19.5 249.5,-.5 197.5,-.5"/>
<text text-anchor="middle" x="223.5" y="-7.5" font-family="Helvetica,sans-Serif" font-size="10.00" fill="#000000">memory</text>
</g>
<!-- Node13&#45;&gt;Node14 -->
<g id="edge15" class="edge">
<title>Node13&#45;&gt;Node14</title>
<path fill="none" stroke="#191970" d="M249.926,-56.2455C245.5669,-48.617 239.3789,-37.7881 234.0867,-28.5267"/>
<polygon fill="#191970" stroke="#191970" points="237.0104,-26.5886 229.0101,-19.6427 230.9327,-30.0616 237.0104,-26.5886"/>
</g>
<!-- Node15 -->
<g id="node16" class="node">
<title>Node15</title>
<polygon fill="#ffffff" stroke="#bfbfbf" points="268,-.5 268,-19.5 309,-19.5 309,-.5 268,-.5"/>
<text text-anchor="middle" x="288.5" y="-7.5" font-family="Helvetica,sans-Serif" font-size="10.00" fill="#000000">string</text>
</g>
<!-- Node13&#45;&gt;Node15 -->
<g id="edge16" class="edge">
<title>Node13&#45;&gt;Node15</title>
<path fill="none" stroke="#191970" d="M261.2482,-56.2455C265.7435,-48.617 272.1248,-37.7881 277.5825,-28.5267"/>
<polygon fill="#191970" stroke="#191970" points="280.7561,-30.035 282.8177,-19.6427 274.7253,-26.4811 280.7561,-30.035"/>
</g>
<!-- Node16 -->
<g id="node17" class="node">
<title>Node16</title>
<polygon fill="#ffffff" stroke="#bfbfbf" points="327.5,-.5 327.5,-19.5 371.5,-19.5 371.5,-.5 327.5,-.5"/>
<text text-anchor="middle" x="349.5" y="-7.5" font-family="Helvetica,sans-Serif" font-size="10.00" fill="#000000">vector</text>
</g>
<!-- Node13&#45;&gt;Node16 -->
<g id="edge17" class="edge">
<title>Node13&#45;&gt;Node16</title>
<path fill="none" stroke="#191970" d="M271.8736,-56.2455C286.4308,-47.5731 307.931,-34.7645 324.6152,-24.825"/>
<polygon fill="#191970" stroke="#191970" points="326.5144,-27.7676 333.3141,-19.6427 322.9317,-21.7539 326.5144,-27.7676"/>
</g>
<!-- Node17 -->
<g id="node18" class="node">
<title>Node17</title>
<polygon fill="#ffffff" stroke="#bfbfbf" points="0,-.5 0,-19.5 83,-19.5 83,-.5 0,-.5"/>
<text text-anchor="middle" x="41.5" y="-7.5" font-family="Helvetica,sans-Serif" font-size="10.00" fill="#000000">unordered_map</text>
</g>
<!-- Node13&#45;&gt;Node17 -->
<g id="edge18" class="edge">
<title>Node13&#45;&gt;Node17</title>
<path fill="none" stroke="#191970" d="M224.3826,-57.8571C188.5065,-48.469 129.1819,-32.9448 87.8641,-22.1327"/>
<polygon fill="#191970" stroke="#191970" points="88.5947,-18.706 78.0343,-19.5604 86.8225,-25.478 88.5947,-18.706"/>
</g>
<!-- Node18 -->
<g id="node19" class="node">
<title>Node18</title>
<polygon fill="#ffffff" stroke="#bfbfbf" points="101.5,-.5 101.5,-19.5 179.5,-19.5 179.5,-.5 101.5,-.5"/>
<text text-anchor="middle" x="140.5" y="-7.5" font-family="Helvetica,sans-Serif" font-size="10.00" fill="#000000">unordered_set</text>
</g>
<!-- Node13&#45;&gt;Node18 -->
<g id="edge19" class="edge">
<title>Node13&#45;&gt;Node18</title>
<path fill="none" stroke="#191970" d="M235.7308,-56.3733C217.3531,-47.4241 189.7688,-33.9917 169.0107,-23.8835"/>
<polygon fill="#191970" stroke="#191970" points="170.5343,-20.7325 160.0112,-19.5011 167.4696,-27.026 170.5343,-20.7325"/>
</g>
<!-- Node20 -->
<g id="node21" class="node">
<title>Node20</title>
<polygon fill="#ffffff" stroke="#bfbfbf" points="389.5,-.5 389.5,-19.5 487.5,-19.5 487.5,-.5 389.5,-.5"/>
<text text-anchor="middle" x="438.5" y="-7.5" font-family="Helvetica,sans-Serif" font-size="10.00" fill="#000000">nlohmann/json.hpp</text>
</g>
<!-- Node19&#45;&gt;Node20 -->
<g id="edge21" class="edge">
<title>Node19&#45;&gt;Node20</title>
<path fill="none" stroke="#191970" d="M376.564,-56.2455C387.8562,-47.814 404.3845,-35.4729 417.5271,-25.6598"/>
<polygon fill="#191970" stroke="#191970" points="419.6669,-28.4301 425.5857,-19.6427 415.4789,-22.8211 419.6669,-28.4301"/>
</g>
<!-- Node21&#45;&gt;Node13 -->
<g id="edge23" class="edge">
<title>Node21&#45;&gt;Node13</title>
<path fill="none" stroke="#191970" d="M255.5,-112.2455C255.5,-104.9382 255.5,-94.6944 255.5,-85.7046"/>
<polygon fill="#191970" stroke="#191970" points="259.0001,-85.6426 255.5,-75.6427 252.0001,-85.6427 259.0001,-85.6426"/>
</g>
<!-- Node21&#45;&gt;Node19 -->
<g id="edge24" class="edge">
<title>Node21&#45;&gt;Node19</title>
<path fill="none" stroke="#191970" d="M274.3122,-112.2455C291.3473,-103.4125 316.6575,-90.2887 335.9681,-80.2758"/>
<polygon fill="#191970" stroke="#191970" points="337.637,-83.353 344.9034,-75.6427 334.4147,-77.1388 337.637,-83.353"/>
</g>
<!-- Node22&#45;&gt;Node7 -->
<g id="edge26" class="edge">
<title>Node22&#45;&gt;Node7</title>
<path fill="none" stroke="#191970" d="M255.5,-224.2455C255.5,-216.9382 255.5,-206.6944 255.5,-197.7046"/>
<polygon fill="#191970" stroke="#191970" points="259.0001,-197.6426 255.5,-187.6427 252.0001,-197.6427 259.0001,-197.6426"/>
</g>
<!-- Node23&#45;&gt;Node7 -->
<g id="edge28" class="edge">
<title>Node23&#45;&gt;Node7</title>
<path fill="none" stroke="#191970" d="M338.0813,-224.2455C322.4515,-215.4928 299.2981,-202.527 281.4815,-192.5496"/>
<polygon fill="#191970" stroke="#191970" points="283.1543,-189.475 272.7191,-187.6427 279.734,-195.5825 283.1543,-189.475"/>
</g>
<!-- Node24&#45;&gt;Node3 -->
<g id="edge30" class="edge">
<title>Node24&#45;&gt;Node3</title>
<path fill="none" stroke="#191970" d="M363.1522,-448.3733C342.0967,-439.3032 310.3505,-425.6279 286.7825,-415.4755"/>
<polygon fill="#191970" stroke="#191970" points="288.125,-412.243 277.5562,-411.5011 285.3556,-418.6719 288.125,-412.243"/>
</g>
<!-- Node25 -->
<g id="node26" class="node">
<title>Node25</title>
<g id="a_node26"><a xlink:href="py__updater_8h.html" target="_top" xlink:title="This file is for binding Updater class to Python. ">
<polygon fill="#ffffff" stroke="#000000" points="333.5,-392.5 333.5,-411.5 437.5,-411.5 437.5,-392.5 333.5,-392.5"/>
<text text-anchor="middle" x="385.5" y="-399.5" font-family="Helvetica,sans-Serif" font-size="10.00" fill="#000000">pybind/py_updater.h</text>
</a>
</g>
</g>
<!-- Node24&#45;&gt;Node25 -->
<g id="edge31" class="edge">
<title>Node24&#45;&gt;Node25</title>
<path fill="none" stroke="#191970" d="M385.5,-448.2455C385.5,-440.9382 385.5,-430.6944 385.5,-421.7046"/>
<polygon fill="#191970" stroke="#191970" points="389.0001,-421.6426 385.5,-411.6427 382.0001,-421.6427 389.0001,-421.6426"/>
</g>
<!-- Node25&#45;&gt;Node4 -->
<g id="edge33" class="edge">
<title>Node25&#45;&gt;Node4</title>
<path fill="none" stroke="#191970" d="M363.1522,-392.3733C342.0967,-383.3032 310.3505,-369.6279 286.7825,-359.4755"/>
<polygon fill="#191970" stroke="#191970" points="288.125,-356.243 277.5562,-355.5011 285.3556,-362.6719 288.125,-356.243"/>
</g>
<!-- Node25&#45;&gt;Node10 -->
<g id="edge32" class="edge">
<title>Node25&#45;&gt;Node10</title>
<path fill="none" stroke="#191970" d="M394.7188,-392.4119C411.3125,-374.0983 444.5,-332.1966 444.5,-290 444.5,-290 444.5,-290 444.5,-234 444.5,-201.1675 453.3257,-163.834 459.534,-141.634"/>
<polygon fill="#191970" stroke="#191970" points="462.9701,-142.3521 462.4014,-131.7725 456.2485,-140.3977 462.9701,-142.3521"/>
</g>
</g>
</svg>
        <g id="navigator" transform="translate(0 0)" fill="#404254">
                <rect fill="#f2f5e9" fill-opacity="0.5" stroke="#606060" stroke-width=".5" x="0" y="0" width="60" height="60"/>
                <use id="zoomplus" xlink:href="#zoomPlus" x="17" y="9" onmousedown="handleZoom(evt,'in')"/>
                <use id="zoomminus" xlink:href="#zoomMin" x="42" y="9" onmousedown="handleZoom(evt,'out')"/>
                <use id="reset" xlink:href="#resetDef" x="30" y="36" onmousedown="handleReset()"/>
                <g id="arrowUp" xlink:href="#dirArrow" transform="translate(30 24)" onmousedown="handlePan(0,-1)">
                  <use xlink:href="#rim" fill="#404040">
                        <set attributeName="fill" to="#808080" begin="arrowUp.mouseover" end="arrowUp.mouseout"/>
                  </use>
                  <path fill="none" stroke="white" stroke-width="1.5" d="M0,-3.0v7 M-2.5,-0.5L0,-3.0L2.5,-0.5"/>
                </g>
                <g id="arrowRight" xlink:href="#dirArrow" transform="rotate(90) translate(36 -43)" onmousedown="handlePan(1,0)">
                  <use xlink:href="#rim" fill="#404040">
                        <set attributeName="fill" to="#808080" begin="arrowRight.mouseover" end="arrowRight.mouseout"/>
                  </use>
                  <path fill="none" stroke="white" stroke-width="1.5" d="M0,-3.0v7 M-2.5,-0.5L0,-3.0L2.5,-0.5"/>
                </g>
                <g id="arrowDown" xlink:href="#dirArrow" transform="rotate(180) translate(-30 -48)" onmousedown="handlePan(0,1)">
                  <use xlink:href="#rim" fill="#404040">
                        <set attributeName="fill" to="#808080" begin="arrowDown.mouseover" end="arrowDown.mouseout"/>
                  </use>
                  <path fill="none" stroke="white" stroke-width="1.5" d="M0,-3.0v7 M-2.5,-0.5L0,-3.0L2.5,-0.5"/>
                </g>
                <g id="arrowLeft" xlink:href="#dirArrow" transform="rotate(270) translate(-36 17)" onmousedown="handlePan(-1,0)">
                  <use xlink:href="#rim" fill="#404040">
                        <set attributeName="fill" to="#808080" begin="arrowLeft.mouseover" end="arrowLeft.mouseout"/>
                  </use>
                  <path fill="none" stroke="white" stroke-width="1.5" d="M0,-3.0v7 M-2.5,-0.5L0,-3.0L2.5,-0.5"/>
                </g>
        </g>
        <svg viewBox="0 0 15 15" width="100%" height="30px" preserveAspectRatio="xMaxYMin meet">
         <g id="arrow_out" transform="scale(0.3 0.3)">
          <a xlink:href="py__add__bond__length_8cpp__incl_org.svg" target="_base">
           <rect id="button" ry="5" rx="5" y="6" x="6" height="38" width="38"
                fill="#f2f5e9" fill-opacity="0.5" stroke="#606060" stroke-width="1.0"/>
           <path id="arrow"
             d="M 11.500037,31.436501 C 11.940474,20.09759 22.043105,11.32322 32.158766,21.979434 L 37.068811,17.246167 C 37.068811,17.246167 37.088388,32 37.088388,32 L 22.160133,31.978069 C 22.160133,31.978069 26.997745,27.140456 26.997745,27.140456 C 18.528582,18.264221 13.291696,25.230495 11.500037,31.436501 z"
             style="fill:#404040;"/>
          </a>
         </g>
        </svg>
</svg>
