<?xml version="1.0" encoding="UTF-8" standalone="no"?>
<!DOCTYPE svg PUBLIC "-//W3C//DTD SVG 1.1//EN"
 "http://www.w3.org/Graphics/SVG/1.1/DTD/svg11.dtd">
<!-- Generated by graphviz version 2.40.1 (20161225.0304)
 -->
<!-- Title: src/pybind/py_updater.h Pages: 1 -->
<svg width="2440pt" height="274pt"
 viewBox="0.00 0.00 2439.76 274.00" xmlns="http://www.w3.org/2000/svg" xmlns:xlink="http://www.w3.org/1999/xlink">
<g id="graph0" class="graph" transform="scale(1 1) rotate(0) translate(4 270)">
<title>src/pybind/py_updater.h</title>
<polygon fill="#ffffff" stroke="transparent" points="-4,4 -4,-270 2435.7607,-270 2435.7607,4 -4,4"/>
<!-- Node21 -->
<g id="node1" class="node">
<title>Node21</title>
<polygon fill="#bfbfbf" stroke="#000000" points="1023.7607,-246.5 1023.7607,-265.5 1144.7607,-265.5 1144.7607,-246.5 1023.7607,-246.5"/>
<text text-anchor="middle" x="1084.2607" y="-253.5" font-family="Helvetica,sans-Serif" font-size="10.00" fill="#000000">src/pybind/py_updater.h</text>
</g>
<!-- Node22 -->
<g id="node2" class="node">
<title>Node22</title>
<g id="a_node2"><a xlink:href="pybind_8h.html" target="_top" xlink:title="This file includes all the header files containing definitions of functions to bind C++ and Python...">
<polygon fill="#ffffff" stroke="#000000" points="1220.2607,-56.5 1220.2607,-75.5 1290.2607,-75.5 1290.2607,-56.5 1220.2607,-56.5"/>
<text text-anchor="middle" x="1255.2607" y="-63.5" font-family="Helvetica,sans-Serif" font-size="10.00" fill="#000000">src/pybind.h</text>
</a>
</g>
</g>
<!-- Node21&#45;&gt;Node22 -->
<g id="edge1" class="edge">
<title>Node21&#45;&gt;Node22</title>
<path fill="none" stroke="#191970" d="M1013.3924,-249.1825C923.3615,-240.4525 763.2124,-224.6926 626.2607,-210 363.2701,-181.7855 -144.1997,-302.5318 39.2607,-112 60.3021,-90.1476 1022.9862,-70.4685 1220.1904,-66.6625"/>
<polygon fill="#191970" stroke="#191970" points="1013.1929,-252.6795 1023.4838,-250.1601 1013.8679,-245.7121 1013.1929,-252.6795"/>
</g>
<!-- Node24 -->
<g id="node4" class="node">
<title>Node24</title>
<g id="a_node4"><a xlink:href="py__adder_8h.html" target="_top" xlink:title="This file is for binding Adder class to Python. ">
<polygon fill="#ffffff" stroke="#000000" points="635.7607,-179.5 635.7607,-209.5 742.7607,-209.5 742.7607,-179.5 635.7607,-179.5"/>
<text text-anchor="start" x="643.7607" y="-197.5" font-family="Helvetica,sans-Serif" font-size="10.00" fill="#000000">src/pybind/adders/py</text>
<text text-anchor="middle" x="689.2607" y="-186.5" font-family="Helvetica,sans-Serif" font-size="10.00" fill="#000000">_adder.h</text>
</a>
</g>
</g>
<!-- Node21&#45;&gt;Node24 -->
<g id="edge3" class="edge">
<title>Node21&#45;&gt;Node24</title>
<path fill="none" stroke="#191970" d="M1013.2284,-244.9405C935.5679,-232.8491 812.8785,-213.7468 742.8878,-202.8495"/>
<polygon fill="#191970" stroke="#191970" points="1012.9882,-248.4452 1023.4076,-246.5254 1014.0651,-241.5286 1012.9882,-248.4452"/>
</g>
<!-- Node35 -->
<g id="node15" class="node">
<title>Node35</title>
<g id="a_node15"><a xlink:href="py__filter_8h_source.html" target="_top" xlink:title="src/pybind/filters\l/py_filter.h">
<polygon fill="#ffffff" stroke="#000000" points="1411.7607,-179.5 1411.7607,-209.5 1500.7607,-209.5 1500.7607,-179.5 1411.7607,-179.5"/>
<text text-anchor="start" x="1419.7607" y="-197.5" font-family="Helvetica,sans-Serif" font-size="10.00" fill="#000000">src/pybind/filters</text>
<text text-anchor="middle" x="1456.2607" y="-186.5" font-family="Helvetica,sans-Serif" font-size="10.00" fill="#000000">/py_filter.h</text>
</a>
</g>
</g>
<!-- Node21&#45;&gt;Node35 -->
<g id="edge25" class="edge">
<title>Node21&#45;&gt;Node35</title>
<path fill="none" stroke="#191970" d="M1151.853,-244.8255C1227.2318,-232.3636 1347.0201,-212.5599 1411.5596,-201.8901"/>
<polygon fill="#191970" stroke="#191970" points="1151.2727,-241.3738 1141.9775,-246.4581 1152.4145,-248.2801 1151.2727,-241.3738"/>
</g>
<!-- Node38 -->
<g id="node18" class="node">
<title>Node38</title>
<g id="a_node18"><a xlink:href="py__starter_8h_source.html" target="_top" xlink:title="src/pybind/starters\l/py_starter.h">
<polygon fill="#ffffff" stroke="#000000" points="1888.2607,-179.5 1888.2607,-209.5 1986.2607,-209.5 1986.2607,-179.5 1888.2607,-179.5"/>
<text text-anchor="start" x="1896.2607" y="-197.5" font-family="Helvetica,sans-Serif" font-size="10.00" fill="#000000">src/pybind/starters</text>
<text text-anchor="middle" x="1937.2607" y="-186.5" font-family="Helvetica,sans-Serif" font-size="10.00" fill="#000000">/py_starter.h</text>
</a>
</g>
</g>
<!-- Node21&#45;&gt;Node38 -->
<g id="edge31" class="edge">
<title>Node21&#45;&gt;Node38</title>
<path fill="none" stroke="#191970" d="M1154.9118,-250.9062C1323.1443,-238.7769 1744.1395,-208.4237 1888.0939,-198.0449"/>
<polygon fill="#191970" stroke="#191970" points="1154.6449,-247.4162 1144.9225,-251.6264 1155.1484,-254.3981 1154.6449,-247.4162"/>
</g>
<!-- Node23 -->
<g id="node3" class="node">
<title>Node23</title>
<g id="a_node3"><a xlink:href="ppap4lmp_8cpp.html" target="_top" xlink:title="This file has no implementation, only includes a header file to bind C++ and Python. ">
<polygon fill="#ffffff" stroke="#000000" points="1208.2607,-.5 1208.2607,-19.5 1302.2607,-19.5 1302.2607,-.5 1208.2607,-.5"/>
<text text-anchor="middle" x="1255.2607" y="-7.5" font-family="Helvetica,sans-Serif" font-size="10.00" fill="#000000">src/ppap4lmp.cpp</text>
</a>
</g>
</g>
<!-- Node22&#45;&gt;Node23 -->
<g id="edge2" class="edge">
<title>Node22&#45;&gt;Node23</title>
<path fill="none" stroke="#191970" d="M1255.2607,-46.1575C1255.2607,-37.155 1255.2607,-26.9199 1255.2607,-19.6427"/>
<polygon fill="#191970" stroke="#191970" points="1251.7608,-46.2455 1255.2607,-56.2455 1258.7608,-46.2456 1251.7608,-46.2455"/>
</g>
<!-- Node24&#45;&gt;Node22 -->
<g id="edge4" class="edge">
<title>Node24&#45;&gt;Node22</title>
<path fill="none" stroke="#191970" d="M625.5837,-191.6782C467.7217,-184.3759 69.6002,-163.9609 50.2607,-143 40.9179,-132.8739 40.706,-121.9264 50.2607,-112 71.097,-90.3532 1024.0488,-70.5298 1220.1879,-66.6749"/>
<polygon fill="#191970" stroke="#191970" points="625.4775,-195.1769 635.6277,-192.1401 625.7991,-188.1843 625.4775,-195.1769"/>
</g>
<!-- Node25 -->
<g id="node5" class="node">
<title>Node25</title>
<g id="a_node5"><a xlink:href="py__add__map_8h.html" target="_top" xlink:title="This file is for binding AddMap class to Python. ">
<polygon fill="#ffffff" stroke="#000000" points="59.7607,-112.5 59.7607,-142.5 166.7607,-142.5 166.7607,-112.5 59.7607,-112.5"/>
<text text-anchor="start" x="67.7607" y="-130.5" font-family="Helvetica,sans-Serif" font-size="10.00" fill="#000000">src/pybind/adders/py</text>
<text text-anchor="middle" x="113.2607" y="-119.5" font-family="Helvetica,sans-Serif" font-size="10.00" fill="#000000">_add_map.h</text>
</a>
</g>
</g>
<!-- Node24&#45;&gt;Node25 -->
<g id="edge5" class="edge">
<title>Node24&#45;&gt;Node25</title>
<path fill="none" stroke="#191970" d="M625.6456,-191.1035C528.1374,-185.2283 336.1139,-171.0124 175.2607,-143 172.528,-142.5241 169.7378,-141.9933 166.9274,-141.423"/>
<polygon fill="#191970" stroke="#191970" points="625.4474,-194.5978 635.6371,-191.6961 625.862,-187.61 625.4474,-194.5978"/>
</g>
<!-- Node26 -->
<g id="node6" class="node">
<title>Node26</title>
<g id="a_node6"><a xlink:href="py__add__rename_8h.html" target="_top" xlink:title="This file is for binding AddRename class to Python. ">
<polygon fill="#ffffff" stroke="#000000" points="184.7607,-112.5 184.7607,-142.5 291.7607,-142.5 291.7607,-112.5 184.7607,-112.5"/>
<text text-anchor="start" x="192.7607" y="-130.5" font-family="Helvetica,sans-Serif" font-size="10.00" fill="#000000">src/pybind/adders/py</text>
<text text-anchor="middle" x="238.2607" y="-119.5" font-family="Helvetica,sans-Serif" font-size="10.00" fill="#000000">_add_rename.h</text>
</a>
</g>
</g>
<!-- Node24&#45;&gt;Node26 -->
<g id="edge7" class="edge">
<title>Node24&#45;&gt;Node26</title>
<path fill="none" stroke="#191970" d="M625.3982,-188.2906C548.0361,-180.2525 413.9394,-164.6626 300.2607,-143 297.5359,-142.4808 294.7521,-141.9151 291.9467,-141.3171"/>
<polygon fill="#191970" stroke="#191970" points="625.1624,-191.7847 635.4684,-189.3274 625.8795,-184.8215 625.1624,-191.7847"/>
</g>
<!-- Node27 -->
<g id="node7" class="node">
<title>Node27</title>
<g id="a_node7"><a xlink:href="py__add__child__ids_8h.html" target="_top" xlink:title="This file is for binding AddChildIDs class to Python. ">
<polygon fill="#ffffff" stroke="#000000" points="309.7607,-112.5 309.7607,-142.5 416.7607,-142.5 416.7607,-112.5 309.7607,-112.5"/>
<text text-anchor="start" x="317.7607" y="-130.5" font-family="Helvetica,sans-Serif" font-size="10.00" fill="#000000">src/pybind/adders/py</text>
<text text-anchor="middle" x="363.2607" y="-119.5" font-family="Helvetica,sans-Serif" font-size="10.00" fill="#000000">_add_child_ids.h</text>
</a>
</g>
</g>
<!-- Node24&#45;&gt;Node27 -->
<g id="edge9" class="edge">
<title>Node24&#45;&gt;Node27</title>
<path fill="none" stroke="#191970" d="M625.7104,-182.9378C572.3338,-173.0155 494.1249,-157.9839 426.2607,-143 423.1811,-142.32 420.0214,-141.6034 416.8361,-140.8662"/>
<polygon fill="#191970" stroke="#191970" points="625.2414,-186.4104 635.7118,-184.7912 626.517,-179.5276 625.2414,-186.4104"/>
</g>
<!-- Node28 -->
<g id="node8" class="node">
<title>Node28</title>
<g id="a_node8"><a xlink:href="py__add__child__positions_8h.html" target="_top" xlink:title="This file is for binding AddChildPositions class to Python. ">
<polygon fill="#ffffff" stroke="#000000" points="435.2607,-112.5 435.2607,-142.5 551.2607,-142.5 551.2607,-112.5 435.2607,-112.5"/>
<text text-anchor="start" x="443.2607" y="-130.5" font-family="Helvetica,sans-Serif" font-size="10.00" fill="#000000">src/pybind/adders/py</text>
<text text-anchor="middle" x="493.2607" y="-119.5" font-family="Helvetica,sans-Serif" font-size="10.00" fill="#000000">_add_child_positions.h</text>
</a>
</g>
</g>
<!-- Node24&#45;&gt;Node28 -->
<g id="edge11" class="edge">
<title>Node24&#45;&gt;Node28</title>
<path fill="none" stroke="#191970" d="M635.5486,-176.1392C604.7272,-165.6033 566.5047,-152.5375 537.4388,-142.6017"/>
<polygon fill="#191970" stroke="#191970" points="634.6799,-179.5411 645.2745,-179.4639 636.9442,-172.9174 634.6799,-179.5411"/>
</g>
<!-- Node29 -->
<g id="node9" class="node">
<title>Node29</title>
<g id="a_node9"><a xlink:href="py__add__com__position_8h.html" target="_top" xlink:title="This file is for binding AddCoMPosition class to Python. ">
<polygon fill="#ffffff" stroke="#000000" points="569.7607,-112.5 569.7607,-142.5 678.7607,-142.5 678.7607,-112.5 569.7607,-112.5"/>
<text text-anchor="start" x="577.7607" y="-130.5" font-family="Helvetica,sans-Serif" font-size="10.00" fill="#000000">src/pybind/adders/py</text>
<text text-anchor="middle" x="624.2607" y="-119.5" font-family="Helvetica,sans-Serif" font-size="10.00" fill="#000000">_add_com_position.h</text>
</a>
</g>
</g>
<!-- Node24&#45;&gt;Node29 -->
<g id="edge13" class="edge">
<title>Node24&#45;&gt;Node29</title>
<path fill="none" stroke="#191970" d="M667.3599,-171.9253C658.0052,-162.2828 647.335,-151.2843 638.9518,-142.6432"/>
<polygon fill="#191970" stroke="#191970" points="665.0359,-174.5564 674.5112,-179.2967 670.0601,-169.6821 665.0359,-174.5564"/>
</g>
<!-- Node30 -->
<g id="node10" class="node">
<title>Node30</title>
<g id="a_node10"><a xlink:href="py__add__gyration__radius_8h.html" target="_top" xlink:title="This file is for binding AddGyrationRadius class to Python. ">
<polygon fill="#ffffff" stroke="#000000" points="696.7607,-112.5 696.7607,-142.5 813.7607,-142.5 813.7607,-112.5 696.7607,-112.5"/>
<text text-anchor="start" x="704.7607" y="-130.5" font-family="Helvetica,sans-Serif" font-size="10.00" fill="#000000">src/pybind/adders/py</text>
<text text-anchor="middle" x="755.2607" y="-119.5" font-family="Helvetica,sans-Serif" font-size="10.00" fill="#000000">_add_gyration_radius.h</text>
</a>
</g>
</g>
<!-- Node24&#45;&gt;Node30 -->
<g id="edge15" class="edge">
<title>Node24&#45;&gt;Node30</title>
<path fill="none" stroke="#191970" d="M711.4985,-171.9253C720.997,-162.2828 731.8314,-151.2843 740.3436,-142.6432"/>
<polygon fill="#191970" stroke="#191970" points="708.7614,-169.7164 704.2371,-179.2967 713.7483,-174.6288 708.7614,-169.7164"/>
</g>
<!-- Node31 -->
<g id="node11" class="node">
<title>Node31</title>
<g id="a_node11"><a xlink:href="py__add__inertia__moment_8h.html" target="_top" xlink:title="This file is for binding AddInertiaMoment class to Python. ">
<polygon fill="#ffffff" stroke="#000000" points="832.2607,-112.5 832.2607,-142.5 950.2607,-142.5 950.2607,-112.5 832.2607,-112.5"/>
<text text-anchor="start" x="840.2607" y="-130.5" font-family="Helvetica,sans-Serif" font-size="10.00" fill="#000000">src/pybind/adders/py</text>
<text text-anchor="middle" x="891.2607" y="-119.5" font-family="Helvetica,sans-Serif" font-size="10.00" fill="#000000">_add_inertia_moment.h</text>
</a>
</g>
</g>
<!-- Node24&#45;&gt;Node31 -->
<g id="edge17" class="edge">
<title>Node24&#45;&gt;Node31</title>
<path fill="none" stroke="#191970" d="M744.205,-176.2759C776.0407,-165.7165 815.6449,-152.5805 845.7302,-142.6017"/>
<polygon fill="#191970" stroke="#191970" points="742.9831,-172.9936 734.5935,-179.4639 745.1869,-179.6377 742.9831,-172.9936"/>
</g>
<!-- Node32 -->
<g id="node12" class="node">
<title>Node32</title>
<g id="a_node12"><a xlink:href="py__add__molecular__orientation_8h.html" target="_top" xlink:title="This file is for binding AddMolecularOrientation class to Python. ">
<polygon fill="#ffffff" stroke="#000000" points="968.7607,-112.5 968.7607,-142.5 1111.7607,-142.5 1111.7607,-112.5 968.7607,-112.5"/>
<text text-anchor="start" x="976.7607" y="-130.5" font-family="Helvetica,sans-Serif" font-size="10.00" fill="#000000">src/pybind/adders/py</text>
<text text-anchor="middle" x="1040.2607" y="-119.5" font-family="Helvetica,sans-Serif" font-size="10.00" fill="#000000">_add_molecular_orientation.h</text>
</a>
</g>
</g>
<!-- Node24&#45;&gt;Node32 -->
<g id="edge19" class="edge">
<title>Node24&#45;&gt;Node32</title>
<path fill="none" stroke="#191970" d="M752.6973,-182.4111C807.4143,-171.9812 888.5489,-156.5094 959.2607,-143 962.3546,-142.4089 965.515,-141.8049 968.7075,-141.1947"/>
<polygon fill="#191970" stroke="#191970" points="751.9642,-178.9877 742.7964,-184.2983 753.2749,-185.8639 751.9642,-178.9877"/>
</g>
<!-- Node33 -->
<g id="node13" class="node">
<title>Node33</title>
<g id="a_node13"><a xlink:href="py__add__special__bonds_8h.html" target="_top" xlink:title="This file is for binding AddSpecialBonds class to Python. ">
<polygon fill="#ffffff" stroke="#000000" points="1129.7607,-112.5 1129.7607,-142.5 1242.7607,-142.5 1242.7607,-112.5 1129.7607,-112.5"/>
<text text-anchor="start" x="1137.7607" y="-130.5" font-family="Helvetica,sans-Serif" font-size="10.00" fill="#000000">src/pybind/adders/py</text>
<text text-anchor="middle" x="1186.2607" y="-119.5" font-family="Helvetica,sans-Serif" font-size="10.00" fill="#000000">_add_special_bonds.h</text>
</a>
</g>
</g>
<!-- Node24&#45;&gt;Node33 -->
<g id="edge21" class="edge">
<title>Node24&#45;&gt;Node33</title>
<path fill="none" stroke="#191970" d="M753.1607,-189.1144C837.5979,-181.485 990.7838,-165.8655 1120.2607,-143 1123.2743,-142.4678 1126.3565,-141.8838 1129.4624,-141.2641"/>
<polygon fill="#191970" stroke="#191970" points="752.6089,-185.6497 742.9608,-190.0273 753.233,-192.6219 752.6089,-185.6497"/>
</g>
<!-- Node34 -->
<g id="node14" class="node">
<title>Node34</title>
<g id="a_node14"><a xlink:href="py__add__wrapped__position_8h.html" target="_top" xlink:title="This file is for binding AddWrappedPosition class to Python. ">
<polygon fill="#ffffff" stroke="#000000" points="1261.2607,-112.5 1261.2607,-142.5 1387.2607,-142.5 1387.2607,-112.5 1261.2607,-112.5"/>
<text text-anchor="start" x="1269.2607" y="-130.5" font-family="Helvetica,sans-Serif" font-size="10.00" fill="#000000">src/pybind/adders/py</text>
<text text-anchor="middle" x="1324.2607" y="-119.5" font-family="Helvetica,sans-Serif" font-size="10.00" fill="#000000">_add_wrapped_position.h</text>
</a>
</g>
</g>
<!-- Node24&#45;&gt;Node34 -->
<g id="edge23" class="edge">
<title>Node24&#45;&gt;Node34</title>
<path fill="none" stroke="#191970" d="M753.0558,-191.1089C857.598,-185.0024 1071.7261,-170.1894 1251.2607,-143 1254.4632,-142.515 1257.7364,-141.9769 1261.036,-141.4007"/>
<polygon fill="#191970" stroke="#191970" points="752.7637,-187.6198 742.982,-191.6901 753.167,-194.6082 752.7637,-187.6198"/>
</g>
<!-- Node25&#45;&gt;Node22 -->
<g id="edge6" class="edge">
<title>Node25&#45;&gt;Node22</title>
<path fill="none" stroke="#191970" d="M177.0657,-111.9633C404.2857,-81.4039 1061.0848,-69.1281 1220.2404,-66.5382"/>
<polygon fill="#191970" stroke="#191970" points="176.3157,-108.5341 166.8968,-113.3854 177.2852,-115.4666 176.3157,-108.5341"/>
</g>
<!-- Node26&#45;&gt;Node22 -->
<g id="edge8" class="edge">
<title>Node26&#45;&gt;Node22</title>
<path fill="none" stroke="#191970" d="M302.0424,-111.9605C502.9876,-84.5142 1072.7072,-70.1187 1220.118,-66.7659"/>
<polygon fill="#191970" stroke="#191970" points="301.3066,-108.5299 291.8995,-113.404 302.2929,-115.4601 301.3066,-108.5299"/>
</g>
<!-- Node27&#45;&gt;Node22 -->
<g id="edge10" class="edge">
<title>Node27&#45;&gt;Node22</title>
<path fill="none" stroke="#191970" d="M427.1885,-112.1044C602.4535,-87.9018 1085.2868,-71.352 1219.9935,-67.0829"/>
<polygon fill="#191970" stroke="#191970" points="426.4845,-108.6696 417.0858,-113.5598 427.4827,-115.5981 426.4845,-108.6696"/>
</g>
<!-- Node28&#45;&gt;Node22 -->
<g id="edge12" class="edge">
<title>Node28&#45;&gt;Node22</title>
<path fill="none" stroke="#191970" d="M561.5278,-111.9642C818.9178,-74.7385 1118.785,-67.7041 1219.9729,-66.331"/>
<polygon fill="#191970" stroke="#191970" points="561.0076,-108.503 551.6204,-113.4153 562.0221,-115.4291 561.0076,-108.503"/>
</g>
<!-- Node29&#45;&gt;Node22 -->
<g id="edge14" class="edge">
<title>Node29&#45;&gt;Node22</title>
<path fill="none" stroke="#191970" d="M688.8878,-111.8927C895.0131,-79.2036 1132.1016,-69.5274 1220.1227,-66.8877"/>
<polygon fill="#191970" stroke="#191970" points="688.1036,-108.4738 678.7862,-113.5174 689.2152,-115.385 688.1036,-108.4738"/>
</g>
<!-- Node30&#45;&gt;Node22 -->
<g id="edge16" class="edge">
<title>Node30&#45;&gt;Node22</title>
<path fill="none" stroke="#191970" d="M823.8522,-112.0352C977.1783,-87.0108 1147.7776,-73.4277 1220.0729,-68.3324"/>
<polygon fill="#191970" stroke="#191970" points="823.0745,-108.6162 813.7791,-113.7001 824.216,-115.5225 823.0745,-108.6162"/>
</g>
<!-- Node31&#45;&gt;Node22 -->
<g id="edge18" class="edge">
<title>Node31&#45;&gt;Node22</title>
<path fill="none" stroke="#191970" d="M960.4774,-111.8395C1060.1142,-93.0442 1166.2253,-77.9595 1220.0385,-70.6613"/>
<polygon fill="#191970" stroke="#191970" points="959.7168,-108.4214 950.5475,-113.7293 961.0255,-115.2979 959.7168,-108.4214"/>
</g>
<!-- Node32&#45;&gt;Node22 -->
<g id="edge20" class="edge">
<title>Node32&#45;&gt;Node22</title>
<path fill="none" stroke="#191970" d="M1102.5372,-109.686C1141.5032,-98.5399 1190.1639,-84.6207 1221.9433,-75.5303"/>
<polygon fill="#191970" stroke="#191970" points="1101.5074,-106.3401 1092.8556,-112.4554 1103.4326,-113.0702 1101.5074,-106.3401"/>
</g>
<!-- Node33&#45;&gt;Node22 -->
<g id="edge22" class="edge">
<title>Node33&#45;&gt;Node22</title>
<path fill="none" stroke="#191970" d="M1210.8882,-105.5494C1222.2857,-95.3907 1235.253,-83.8329 1244.2129,-75.8469"/>
<polygon fill="#191970" stroke="#191970" points="1208.4532,-103.0312 1203.3169,-112.2977 1213.1109,-108.2568 1208.4532,-103.0312"/>
</g>
<!-- Node34&#45;&gt;Node22 -->
<g id="edge24" class="edge">
<title>Node34&#45;&gt;Node22</title>
<path fill="none" stroke="#191970" d="M1299.6332,-105.5494C1288.2357,-95.3907 1275.2684,-83.8329 1266.3085,-75.8469"/>
<polygon fill="#191970" stroke="#191970" points="1297.4106,-108.2568 1307.2045,-112.2977 1302.0682,-103.0312 1297.4106,-108.2568"/>
</g>
<!-- Node35&#45;&gt;Node22 -->
<g id="edge26" class="edge">
<title>Node35&#45;&gt;Node22</title>
<path fill="none" stroke="#191970" d="M1444.2307,-170.4934C1433.8548,-152.0598 1417.2411,-127.2547 1396.2607,-112 1364.6053,-88.9837 1320.8327,-77.0824 1290.4918,-71.2113"/>
<polygon fill="#191970" stroke="#191970" points="1441.2461,-172.3326 1449.0781,-179.4679 1447.4051,-169.0059 1441.2461,-172.3326"/>
</g>
<!-- Node36 -->
<g id="node16" class="node">
<title>Node36</title>
<g id="a_node16"><a xlink:href="py__fil__comparison_8h_source.html" target="_top" xlink:title="src/pybind/filters\l/py_fil_comparison.h">
<polygon fill="#ffffff" stroke="#000000" points="1443.7607,-112.5 1443.7607,-142.5 1550.7607,-142.5 1550.7607,-112.5 1443.7607,-112.5"/>
<text text-anchor="start" x="1451.7607" y="-130.5" font-family="Helvetica,sans-Serif" font-size="10.00" fill="#000000">src/pybind/filters</text>
<text text-anchor="middle" x="1497.2607" y="-119.5" font-family="Helvetica,sans-Serif" font-size="10.00" fill="#000000">/py_fil_comparison.h</text>
</a>
</g>
</g>
<!-- Node35&#45;&gt;Node36 -->
<g id="edge27" class="edge">
<title>Node35&#45;&gt;Node36</title>
<path fill="none" stroke="#191970" d="M1470.9572,-170.4837C1476.6385,-161.1996 1482.9679,-150.8565 1487.994,-142.6432"/>
<polygon fill="#191970" stroke="#191970" points="1467.7985,-168.9401 1465.5642,-179.2967 1473.7693,-172.5939 1467.7985,-168.9401"/>
</g>
<!-- Node37 -->
<g id="node17" class="node">
<title>Node37</title>
<g id="a_node17"><a xlink:href="py__fil__set_8h_source.html" target="_top" xlink:title="src/pybind/filters\l/py_fil_set.h">
<polygon fill="#ffffff" stroke="#000000" points="1568.7607,-112.5 1568.7607,-142.5 1657.7607,-142.5 1657.7607,-112.5 1568.7607,-112.5"/>
<text text-anchor="start" x="1576.7607" y="-130.5" font-family="Helvetica,sans-Serif" font-size="10.00" fill="#000000">src/pybind/filters</text>
<text text-anchor="middle" x="1613.2607" y="-119.5" font-family="Helvetica,sans-Serif" font-size="10.00" fill="#000000">/py_fil_set.h</text>
</a>
</g>
</g>
<!-- Node35&#45;&gt;Node37 -->
<g id="edge29" class="edge">
<title>Node35&#45;&gt;Node37</title>
<path fill="none" stroke="#191970" d="M1500.8966,-175.4516C1525.2958,-165.0392 1555.0948,-152.3224 1577.8732,-142.6017"/>
<polygon fill="#191970" stroke="#191970" points="1499.3183,-172.3197 1491.4946,-179.4639 1502.0659,-178.7579 1499.3183,-172.3197"/>
</g>
<!-- Node36&#45;&gt;Node22 -->
<g id="edge28" class="edge">
<title>Node36&#45;&gt;Node22</title>
<path fill="none" stroke="#191970" d="M1433.7268,-111.354C1387.9738,-99.7267 1327.943,-84.4709 1290.486,-74.9519"/>
<polygon fill="#191970" stroke="#191970" points="1432.999,-114.7802 1443.5531,-113.8512 1434.7232,-107.9959 1432.999,-114.7802"/>
</g>
<!-- Node37&#45;&gt;Node22 -->
<g id="edge30" class="edge">
<title>Node37&#45;&gt;Node22</title>
<path fill="none" stroke="#191970" d="M1558.6635,-112.0453C1455.8843,-90.0971 1345.8313,-76.1743 1290.6391,-69.8469"/>
<polygon fill="#191970" stroke="#191970" points="1558.0707,-115.498 1568.5851,-114.1944 1559.5527,-108.6567 1558.0707,-115.498"/>
</g>
<!-- Node38&#45;&gt;Node22 -->
<g id="edge32" class="edge">
<title>Node38&#45;&gt;Node22</title>
<path fill="none" stroke="#191970" d="M1877.9976,-189.0134C1829.5746,-182.7639 1760.3715,-169.7146 1705.2607,-143 1685.6476,-133.4927 1687.3552,-120.4424 1667.2607,-112 1599.4138,-83.4952 1377.0549,-71.1775 1290.3359,-67.3751"/>
<polygon fill="#191970" stroke="#191970" points="1877.6495,-192.4969 1888.0025,-190.2463 1878.5057,-185.5495 1877.6495,-192.4969"/>
</g>
<!-- Node39 -->
<g id="node19" class="node">
<title>Node39</title>
<g id="a_node19"><a xlink:href="py__sta__beads_8h_source.html" target="_top" xlink:title="src/pybind/starters\l/py_sta_beads.h">
<polygon fill="#ffffff" stroke="#000000" points="1714.2607,-112.5 1714.2607,-142.5 1812.2607,-142.5 1812.2607,-112.5 1714.2607,-112.5"/>
<text text-anchor="start" x="1722.2607" y="-130.5" font-family="Helvetica,sans-Serif" font-size="10.00" fill="#000000">src/pybind/starters</text>
<text text-anchor="middle" x="1763.2607" y="-119.5" font-family="Helvetica,sans-Serif" font-size="10.00" fill="#000000">/py_sta_beads.h</text>
</a>
</g>
</g>
<!-- Node38&#45;&gt;Node39 -->
<g id="edge33" class="edge">
<title>Node38&#45;&gt;Node39</title>
<path fill="none" stroke="#191970" d="M1888.8653,-175.865C1861.6287,-165.3773 1828.06,-152.4515 1802.48,-142.6017"/>
<polygon fill="#191970" stroke="#191970" points="1887.6219,-179.1367 1898.2117,-179.4639 1890.1373,-172.6042 1887.6219,-179.1367"/>
</g>
<!-- Node40 -->
<g id="node20" class="node">
<title>Node40</title>
<g id="a_node20"><a xlink:href="py__sta__custom_8h_source.html" target="_top" xlink:title="src/pybind/starters\l/py_sta_custom.h">
<polygon fill="#ffffff" stroke="#000000" points="1830.2607,-112.5 1830.2607,-142.5 1928.2607,-142.5 1928.2607,-112.5 1830.2607,-112.5"/>
<text text-anchor="start" x="1838.2607" y="-130.5" font-family="Helvetica,sans-Serif" font-size="10.00" fill="#000000">src/pybind/starters</text>
<text text-anchor="middle" x="1879.2607" y="-119.5" font-family="Helvetica,sans-Serif" font-size="10.00" fill="#000000">/py_sta_custom.h</text>
</a>
</g>
</g>
<!-- Node38&#45;&gt;Node40 -->
<g id="edge35" class="edge">
<title>Node38&#45;&gt;Node40</title>
<path fill="none" stroke="#191970" d="M1917.4701,-171.6385C1909.1829,-162.0653 1899.776,-151.1987 1892.3697,-142.6432"/>
<polygon fill="#191970" stroke="#191970" points="1914.9083,-174.0268 1924.0996,-179.2967 1920.2008,-169.4453 1914.9083,-174.0268"/>
</g>
<!-- Node41 -->
<g id="node21" class="node">
<title>Node41</title>
<g id="a_node21"><a xlink:href="py__sta__dump_8h_source.html" target="_top" xlink:title="src/pybind/starters\l/py_sta_dump.h">
<polygon fill="#ffffff" stroke="#000000" points="1946.2607,-112.5 1946.2607,-142.5 2044.2607,-142.5 2044.2607,-112.5 1946.2607,-112.5"/>
<text text-anchor="start" x="1954.2607" y="-130.5" font-family="Helvetica,sans-Serif" font-size="10.00" fill="#000000">src/pybind/starters</text>
<text text-anchor="middle" x="1995.2607" y="-119.5" font-family="Helvetica,sans-Serif" font-size="10.00" fill="#000000">/py_sta_dump.h</text>
</a>
</g>
</g>
<!-- Node38&#45;&gt;Node41 -->
<g id="edge37" class="edge">
<title>Node38&#45;&gt;Node41</title>
<path fill="none" stroke="#191970" d="M1957.0513,-171.6385C1965.3385,-162.0653 1974.7454,-151.1987 1982.1517,-142.6432"/>
<polygon fill="#191970" stroke="#191970" points="1954.3206,-169.4453 1950.4218,-179.2967 1959.6131,-174.0268 1954.3206,-169.4453"/>
</g>
<!-- Node42 -->
<g id="node22" class="node">
<title>Node42</title>
<g id="a_node22"><a xlink:href="py__sta__molecules_8h_source.html" target="_top" xlink:title="src/pybind/starters\l/py_sta_molecules.h">
<polygon fill="#ffffff" stroke="#000000" points="2062.7607,-112.5 2062.7607,-142.5 2169.7607,-142.5 2169.7607,-112.5 2062.7607,-112.5"/>
<text text-anchor="start" x="2070.7607" y="-130.5" font-family="Helvetica,sans-Serif" font-size="10.00" fill="#000000">src/pybind/starters</text>
<text text-anchor="middle" x="2116.2607" y="-119.5" font-family="Helvetica,sans-Serif" font-size="10.00" fill="#000000">/py_sta_molecules.h</text>
</a>
</g>
</g>
<!-- Node38&#45;&gt;Node42 -->
<g id="edge39" class="edge">
<title>Node38&#45;&gt;Node42</title>
<path fill="none" stroke="#191970" d="M1987.0468,-175.865C2015.0661,-165.3773 2049.5994,-152.4515 2075.9144,-142.6017"/>
<polygon fill="#191970" stroke="#191970" points="1985.5703,-172.6804 1977.4318,-179.4639 1988.0242,-179.2362 1985.5703,-172.6804"/>
</g>
<!-- Node43 -->
<g id="node23" class="node">
<title>Node43</title>
<g id="a_node23"><a xlink:href="py__sta__dump__atoms_8h_source.html" target="_top" xlink:title="src/pybind/starters\l/py_sta_dump_atoms.h">
<polygon fill="#ffffff" stroke="#000000" points="2187.7607,-112.5 2187.7607,-142.5 2306.7607,-142.5 2306.7607,-112.5 2187.7607,-112.5"/>
<text text-anchor="start" x="2195.7607" y="-130.5" font-family="Helvetica,sans-Serif" font-size="10.00" fill="#000000">src/pybind/starters</text>
<text text-anchor="middle" x="2247.2607" y="-119.5" font-family="Helvetica,sans-Serif" font-size="10.00" fill="#000000">/py_sta_dump_atoms.h</text>
</a>
</g>
</g>
<!-- Node38&#45;&gt;Node43 -->
<g id="edge41" class="edge">
<title>Node38&#45;&gt;Node43</title>
<path fill="none" stroke="#191970" d="M1996.2382,-182.1972C2045.2709,-171.9093 2116.8618,-156.7504 2179.2607,-143 2181.9804,-142.4007 2184.7603,-141.7839 2187.5676,-141.1577"/>
<polygon fill="#191970" stroke="#191970" points="1995.5049,-178.7747 1986.4357,-184.2521 1996.9411,-185.6258 1995.5049,-178.7747"/>
</g>
<!-- Node44 -->
<g id="node24" class="node">
<title>Node44</title>
<g id="a_node24"><a xlink:href="py__sta__dump__box_8h_source.html" target="_top" xlink:title="src/pybind/starters\l/py_sta_dump_box.h">
<polygon fill="#ffffff" stroke="#000000" points="2324.7607,-112.5 2324.7607,-142.5 2431.7607,-142.5 2431.7607,-112.5 2324.7607,-112.5"/>
<text text-anchor="start" x="2332.7607" y="-130.5" font-family="Helvetica,sans-Serif" font-size="10.00" fill="#000000">src/pybind/starters</text>
<text text-anchor="middle" x="2378.2607" y="-119.5" font-family="Helvetica,sans-Serif" font-size="10.00" fill="#000000">/py_sta_dump_box.h</text>
</a>
</g>
</g>
<!-- Node38&#45;&gt;Node44 -->
<g id="edge43" class="edge">
<title>Node38&#45;&gt;Node44</title>
<path fill="none" stroke="#191970" d="M1996.4721,-188.4937C2071.3349,-180.4328 2204.0031,-164.5914 2316.2607,-143 2318.9846,-142.4761 2321.7677,-141.9067 2324.5726,-141.3057"/>
<polygon fill="#191970" stroke="#191970" points="1995.8725,-185.0377 1986.3004,-189.5792 1996.6154,-191.9982 1995.8725,-185.0377"/>
</g>
<!-- Node39&#45;&gt;Node22 -->
<g id="edge34" class="edge">
<title>Node39&#45;&gt;Node22</title>
<path fill="none" stroke="#191970" d="M1704.1336,-112.7001C1702.8326,-112.4563 1701.5404,-112.2225 1700.2607,-112 1548.9406,-85.6941 1365.8685,-72.5807 1290.3909,-67.9751"/>
<polygon fill="#191970" stroke="#191970" points="1703.7232,-116.1879 1714.2185,-114.7391 1705.1105,-109.3267 1703.7232,-116.1879"/>
</g>
<!-- Node40&#45;&gt;Node22 -->
<g id="edge36" class="edge">
<title>Node40&#45;&gt;Node22</title>
<path fill="none" stroke="#191970" d="M1819.9678,-111.9757C1614.5656,-77.3446 1378.1177,-68.7771 1290.315,-66.6598"/>
<polygon fill="#191970" stroke="#191970" points="1819.5866,-115.4613 1830.0338,-113.6983 1820.7674,-108.5616 1819.5866,-115.4613"/>
</g>
<!-- Node41&#45;&gt;Node22 -->
<g id="edge38" class="edge">
<title>Node41&#45;&gt;Node22</title>
<path fill="none" stroke="#191970" d="M1936.0956,-112.0671C1792.1059,-90.1666 1408.4643,-72.5391 1290.3272,-67.4653"/>
<polygon fill="#191970" stroke="#191970" points="1935.6157,-115.5347 1946.0417,-113.6512 1936.7167,-108.6218 1935.6157,-115.5347"/>
</g>
<!-- Node42&#45;&gt;Node22 -->
<g id="edge40" class="edge">
<title>Node42&#45;&gt;Node22</title>
<path fill="none" stroke="#191970" d="M2052.4711,-112.1214C1883.8227,-88.6555 1422.0521,-71.6656 1290.5742,-67.1717"/>
<polygon fill="#191970" stroke="#191970" points="2052.0354,-115.5948 2062.4345,-113.5676 2053.041,-108.6674 2052.0354,-115.5948"/>
</g>
<!-- Node43&#45;&gt;Node22 -->
<g id="edge42" class="edge">
<title>Node43&#45;&gt;Node22</title>
<path fill="none" stroke="#191970" d="M2177.56,-111.9541C1982.9067,-87.0805 1434.9024,-70.8727 1290.4812,-66.9309"/>
<polygon fill="#191970" stroke="#191970" points="2177.2909,-115.449 2187.6649,-113.2976 2178.2135,-108.5101 2177.2909,-115.449"/>
</g>
<!-- Node44&#45;&gt;Node22 -->
<g id="edge44" class="edge">
<title>Node44&#45;&gt;Node22</title>
<path fill="none" stroke="#191970" d="M2314.6445,-111.988C2091.6673,-81.8956 1448.2108,-69.2801 1290.464,-66.5722"/>
<polygon fill="#191970" stroke="#191970" points="2314.235,-115.4647 2324.6242,-113.3879 2315.2074,-108.5326 2314.235,-115.4647"/>
</g>
</g>
</svg>
