<?xml version="1.0" encoding="UTF-8" standalone="no"?>
<!DOCTYPE svg PUBLIC "-//W3C//DTD SVG 1.1//EN"
 "http://www.w3.org/Graphics/SVG/1.1/DTD/svg11.dtd">
<!-- Generated by graphviz version 2.40.1 (20161225.0304)
 -->
<!-- Title: src/pybind/py_element.h Pages: 1 -->
<svg width="242pt" height="140pt"
 viewBox="0.00 0.00 242.00 140.00" xmlns="http://www.w3.org/2000/svg" xmlns:xlink="http://www.w3.org/1999/xlink">
<g id="graph0" class="graph" transform="scale(1 1) rotate(0) translate(4 136)">
<title>src/pybind/py_element.h</title>
<polygon fill="#ffffff" stroke="transparent" points="-4,4 -4,-136 238,-136 238,4 -4,4"/>
<!-- Node17 -->
<g id="node1" class="node">
<title>Node17</title>
<polygon fill="#bfbfbf" stroke="#000000" points="45.5,-112.5 45.5,-131.5 168.5,-131.5 168.5,-112.5 45.5,-112.5"/>
<text text-anchor="middle" x="107" y="-119.5" font-family="Helvetica,sans-Serif" font-size="10.00" fill="#000000">src/pybind/py_element.h</text>
</g>
<!-- Node18 -->
<g id="node2" class="node">
<title>Node18</title>
<g id="a_node2"><a xlink:href="pybind_8h.html" target="_top" xlink:title="This file includes all the header files containing definitions of functions to bind C++ and Python...">
<polygon fill="#ffffff" stroke="#000000" points="12,-56.5 12,-75.5 82,-75.5 82,-56.5 12,-56.5"/>
<text text-anchor="middle" x="47" y="-63.5" font-family="Helvetica,sans-Serif" font-size="10.00" fill="#000000">src/pybind.h</text>
</a>
</g>
</g>
<!-- Node17&#45;&gt;Node18 -->
<g id="edge1" class="edge">
<title>Node17&#45;&gt;Node18</title>
<path fill="none" stroke="#191970" d="M89.1722,-105.3607C78.7922,-95.6727 66.0709,-83.7995 57.3314,-75.6427"/>
<polygon fill="#191970" stroke="#191970" points="86.8501,-107.981 96.5488,-112.2455 91.6263,-102.8636 86.8501,-107.981"/>
</g>
<!-- Node20 -->
<g id="node4" class="node">
<title>Node20</title>
<g id="a_node4"><a xlink:href="py__element_8cpp.html" target="_top" xlink:title="This file is for binding Element class to Python. ">
<polygon fill="#ffffff" stroke="#000000" points="100,-56.5 100,-75.5 234,-75.5 234,-56.5 100,-56.5"/>
<text text-anchor="middle" x="167" y="-63.5" font-family="Helvetica,sans-Serif" font-size="10.00" fill="#000000">src/pybind/py_element.cpp</text>
</a>
</g>
</g>
<!-- Node17&#45;&gt;Node20 -->
<g id="edge3" class="edge">
<title>Node17&#45;&gt;Node20</title>
<path fill="none" stroke="#191970" d="M124.8278,-105.3607C135.2078,-95.6727 147.9291,-83.7995 156.6686,-75.6427"/>
<polygon fill="#191970" stroke="#191970" points="122.3737,-102.8636 117.4512,-112.2455 127.1499,-107.981 122.3737,-102.8636"/>
</g>
<!-- Node19 -->
<g id="node3" class="node">
<title>Node19</title>
<g id="a_node3"><a xlink:href="ppap4lmp_8cpp.html" target="_top" xlink:title="This file has no implementation, only includes a header file to bind C++ and Python. ">
<polygon fill="#ffffff" stroke="#000000" points="0,-.5 0,-19.5 94,-19.5 94,-.5 0,-.5"/>
<text text-anchor="middle" x="47" y="-7.5" font-family="Helvetica,sans-Serif" font-size="10.00" fill="#000000">src/ppap4lmp.cpp</text>
</a>
</g>
</g>
<!-- Node18&#45;&gt;Node19 -->
<g id="edge2" class="edge">
<title>Node18&#45;&gt;Node19</title>
<path fill="none" stroke="#191970" d="M47,-46.1575C47,-37.155 47,-26.9199 47,-19.6427"/>
<polygon fill="#191970" stroke="#191970" points="43.5001,-46.2455 47,-56.2455 50.5001,-46.2456 43.5001,-46.2455"/>
</g>
</g>
</svg>
