<?xml version="1.0" encoding="UTF-8" standalone="no"?>
<!DOCTYPE svg PUBLIC "-//W3C//DTD SVG 1.1//EN"
 "http://www.w3.org/Graphics/SVG/1.1/DTD/svg11.dtd">
<!-- Generated by graphviz version 2.40.1 (20161225.0304)
 -->
<!-- Title: src/utils/pyargs_to_vec.h Pages: 1 -->
<svg width="232pt" height="106pt"
 viewBox="0.00 0.00 231.50 106.00" xmlns="http://www.w3.org/2000/svg" xmlns:xlink="http://www.w3.org/1999/xlink">
<g id="graph0" class="graph" transform="scale(1 1) rotate(0) translate(4 102)">
<title>src/utils/pyargs_to_vec.h</title>
<polygon fill="#ffffff" stroke="transparent" points="-4,4 -4,-102 227.5,-102 227.5,4 -4,4"/>
<!-- Node9 -->
<g id="node1" class="node">
<title>Node9</title>
<polygon fill="#bfbfbf" stroke="#000000" points="65.5,-67.5 65.5,-97.5 162.5,-97.5 162.5,-67.5 65.5,-67.5"/>
<text text-anchor="start" x="73.5" y="-85.5" font-family="Helvetica,sans-Serif" font-size="10.00" fill="#000000">src/utils/pyargs_to</text>
<text text-anchor="middle" x="114" y="-74.5" font-family="Helvetica,sans-Serif" font-size="10.00" fill="#000000">_vec.h</text>
</g>
<!-- Node10 -->
<g id="node2" class="node">
<title>Node10</title>
<g id="a_node2"><a xlink:href="element_8cpp.html" target="_top" xlink:title="This file has an implementation of Element class, which is one of the cores of this program...">
<polygon fill="#ffffff" stroke="#000000" points="0,-6 0,-25 108,-25 108,-6 0,-6"/>
<text text-anchor="middle" x="54" y="-13" font-family="Helvetica,sans-Serif" font-size="10.00" fill="#000000">src/core/element.cpp</text>
</a>
</g>
</g>
<!-- Node9&#45;&gt;Node10 -->
<g id="edge1" class="edge">
<title>Node9&#45;&gt;Node10</title>
<path fill="none" stroke="#191970" d="M93.4255,-59.5252C82.8659,-47.7336 70.5721,-34.0055 62.5567,-25.055"/>
<polygon fill="#191970" stroke="#191970" points="91.1065,-62.1821 100.3851,-67.2967 96.3212,-57.5122 91.1065,-62.1821"/>
</g>
<!-- Node11 -->
<g id="node3" class="node">
<title>Node11</title>
<g id="a_node3"><a xlink:href="pyargs__to__vec_8cpp.html" target="_top" xlink:title="This file has an implementation of utils::pyargs_to_vec. ">
<polygon fill="#ffffff" stroke="#000000" points="126.5,-.5 126.5,-30.5 223.5,-30.5 223.5,-.5 126.5,-.5"/>
<text text-anchor="start" x="134.5" y="-18.5" font-family="Helvetica,sans-Serif" font-size="10.00" fill="#000000">src/utils/pyargs_to</text>
<text text-anchor="middle" x="175" y="-7.5" font-family="Helvetica,sans-Serif" font-size="10.00" fill="#000000">_vec.cpp</text>
</a>
</g>
</g>
<!-- Node9&#45;&gt;Node11 -->
<g id="edge2" class="edge">
<title>Node9&#45;&gt;Node11</title>
<path fill="none" stroke="#191970" d="M134.8142,-59.6385C143.5301,-50.0653 153.4235,-39.1987 161.2129,-30.6432"/>
<polygon fill="#191970" stroke="#191970" points="131.986,-57.5459 127.8418,-67.2967 137.1621,-62.2585 131.986,-57.5459"/>
</g>
</g>
</svg>
