<?xml version="1.0" encoding="UTF-8" standalone="no"?>
<!DOCTYPE svg PUBLIC "-//W3C//DTD SVG 1.1//EN"
 "http://www.w3.org/Graphics/SVG/1.1/DTD/svg11.dtd">
<!-- Generated by graphviz version 2.40.1 (20161225.0304)
 -->
<!-- Title: src/pybind/pyadders/add_special_bonds.h Pages: 1 -->
<svg width="554pt" height="554pt"
 viewBox="0.00 0.00 554.00 554.00" xmlns="http://www.w3.org/2000/svg" xmlns:xlink="http://www.w3.org/1999/xlink">
<g id="graph0" class="graph" transform="scale(1 1) rotate(0) translate(4 550)">
<title>src/pybind/pyadders/add_special_bonds.h</title>
<polygon fill="#ffffff" stroke="transparent" points="-4,4 -4,-550 550,-550 550,4 -4,4"/>
<!-- Node0 -->
<g id="node1" class="node">
<title>Node0</title>
<polygon fill="#bfbfbf" stroke="#000000" points="60,-515.5 60,-545.5 171,-545.5 171,-515.5 60,-515.5"/>
<text text-anchor="start" x="68" y="-533.5" font-family="Helvetica,sans-Serif" font-size="10.00" fill="#000000">src/pybind/pyadders</text>
<text text-anchor="middle" x="115.5" y="-522.5" font-family="Helvetica,sans-Serif" font-size="10.00" fill="#000000">/add_special_bonds.h</text>
</g>
<!-- Node1 -->
<g id="node2" class="node">
<title>Node1</title>
<polygon fill="#ffffff" stroke="#bfbfbf" points="0,-448.5 0,-478.5 101,-478.5 101,-448.5 0,-448.5"/>
<text text-anchor="start" x="8" y="-466.5" font-family="Helvetica,sans-Serif" font-size="10.00" fill="#000000">adders/add_special</text>
<text text-anchor="middle" x="50.5" y="-455.5" font-family="Helvetica,sans-Serif" font-size="10.00" fill="#000000">_bonds.h</text>
</g>
<!-- Node0&#45;&gt;Node1 -->
<g id="edge1" class="edge">
<title>Node0&#45;&gt;Node1</title>
<path fill="none" stroke="#191970" d="M100.7505,-515.2967C92.3567,-506.6446 81.6843,-495.6438 72.3358,-486.0076"/>
<polygon fill="#191970" stroke="#191970" points="74.6664,-483.3835 65.1911,-478.6432 69.6422,-488.2577 74.6664,-483.3835"/>
</g>
<!-- Node2 -->
<g id="node3" class="node">
<title>Node2</title>
<g id="a_node3"><a xlink:href="pybind_2pyadders_2adder_8h.html" target="_top" xlink:title="This file has a function to bind Adder class to Python. ">
<polygon fill="#ffffff" stroke="#000000" points="119,-454 119,-473 242,-473 242,-454 119,-454"/>
<text text-anchor="middle" x="180.5" y="-461" font-family="Helvetica,sans-Serif" font-size="10.00" fill="#000000">pybind/pyadders/adder.h</text>
</a>
</g>
</g>
<!-- Node0&#45;&gt;Node2 -->
<g id="edge2" class="edge">
<title>Node0&#45;&gt;Node2</title>
<path fill="none" stroke="#191970" d="M130.2495,-515.2967C140.3768,-504.8578 153.8212,-490.9997 164.2552,-480.2446"/>
<polygon fill="#191970" stroke="#191970" points="166.7792,-482.6695 171.2303,-473.055 161.755,-477.7953 166.7792,-482.6695"/>
</g>
<!-- Node3 -->
<g id="node4" class="node">
<title>Node3</title>
<polygon fill="#ffffff" stroke="#bfbfbf" points="89,-392.5 89,-411.5 170,-411.5 170,-392.5 89,-392.5"/>
<text text-anchor="middle" x="129.5" y="-399.5" font-family="Helvetica,sans-Serif" font-size="10.00" fill="#000000">adders/adder.h</text>
</g>
<!-- Node2&#45;&gt;Node3 -->
<g id="edge3" class="edge">
<title>Node2&#45;&gt;Node3</title>
<path fill="none" stroke="#191970" d="M172.5313,-453.8906C164.9409,-444.7376 153.3339,-430.7409 144.0868,-419.59"/>
<polygon fill="#191970" stroke="#191970" points="146.6587,-417.2083 137.5811,-411.7449 141.2703,-421.6766 146.6587,-417.2083"/>
</g>
<!-- Node4 -->
<g id="node5" class="node">
<title>Node4</title>
<g id="a_node5"><a xlink:href="pybind_2updater_8h.html" target="_top" xlink:title="This file is for binding Updater class to Python. ">
<polygon fill="#ffffff" stroke="#000000" points="188,-392.5 188,-411.5 277,-411.5 277,-392.5 188,-392.5"/>
<text text-anchor="middle" x="232.5" y="-399.5" font-family="Helvetica,sans-Serif" font-size="10.00" fill="#000000">pybind/updater.h</text>
</a>
</g>
</g>
<!-- Node2&#45;&gt;Node4 -->
<g id="edge4" class="edge">
<title>Node2&#45;&gt;Node4</title>
<path fill="none" stroke="#191970" d="M188.625,-453.8906C196.3642,-444.7376 208.1987,-430.7409 217.6272,-419.59"/>
<polygon fill="#191970" stroke="#191970" points="220.4765,-421.6409 224.2604,-411.7449 215.1311,-417.1213 220.4765,-421.6409"/>
</g>
<!-- Node5 -->
<g id="node6" class="node">
<title>Node5</title>
<g id="a_node6"><a xlink:href="alias_2pybind_8h.html" target="_top" xlink:title="This file includes pybind11 and defines an alias for the namespace pybind11. ">
<polygon fill="#ffffff" stroke="#000000" points="79,-112.5 79,-131.5 156,-131.5 156,-112.5 79,-112.5"/>
<text text-anchor="middle" x="117.5" y="-119.5" font-family="Helvetica,sans-Serif" font-size="10.00" fill="#000000">alias/pybind.h</text>
</a>
</g>
</g>
<!-- Node4&#45;&gt;Node5 -->
<g id="edge5" class="edge">
<title>Node4&#45;&gt;Node5</title>
<path fill="none" stroke="#191970" d="M215.5159,-392.368C188.1905,-375.4638 137.5,-337.6798 137.5,-290 137.5,-290 137.5,-290 137.5,-234 137.5,-201.2193 129.0945,-163.8705 123.1819,-141.6533"/>
<polygon fill="#191970" stroke="#191970" points="126.491,-140.4878 120.4511,-131.7832 119.7445,-142.3545 126.491,-140.4878"/>
</g>
<!-- Node7 -->
<g id="node8" class="node">
<title>Node7</title>
<g id="a_node8"><a xlink:href="core_2updater_8h.html" target="_top" xlink:title="This file has a definition of the Updater class, which is one of the cores of this program...">
<polygon fill="#ffffff" stroke="#000000" points="288,-336.5 288,-355.5 367,-355.5 367,-336.5 288,-336.5"/>
<text text-anchor="middle" x="327.5" y="-343.5" font-family="Helvetica,sans-Serif" font-size="10.00" fill="#000000">core/updater.h</text>
</a>
</g>
</g>
<!-- Node4&#45;&gt;Node7 -->
<g id="edge7" class="edge">
<title>Node4&#45;&gt;Node7</title>
<path fill="none" stroke="#191970" d="M249.0477,-392.2455C263.7599,-383.5731 285.4888,-370.7645 302.3505,-360.825"/>
<polygon fill="#191970" stroke="#191970" points="304.3046,-363.736 311.1419,-355.6427 300.7498,-357.7057 304.3046,-363.736"/>
</g>
<!-- Node6 -->
<g id="node7" class="node">
<title>Node6</title>
<polygon fill="#ffffff" stroke="#bfbfbf" points="62.5,-56.5 62.5,-75.5 168.5,-75.5 168.5,-56.5 62.5,-56.5"/>
<text text-anchor="middle" x="115.5" y="-63.5" font-family="Helvetica,sans-Serif" font-size="10.00" fill="#000000">pybind11/pybind11.h</text>
</g>
<!-- Node5&#45;&gt;Node6 -->
<g id="edge6" class="edge">
<title>Node5&#45;&gt;Node6</title>
<path fill="none" stroke="#191970" d="M117.1516,-112.2455C116.8907,-104.9382 116.5248,-94.6944 116.2037,-85.7046"/>
<polygon fill="#191970" stroke="#191970" points="119.6992,-85.5113 115.8444,-75.6427 112.7036,-85.7613 119.6992,-85.5113"/>
</g>
<!-- Node8 -->
<g id="node9" class="node">
<title>Node8</title>
<polygon fill="#ffffff" stroke="#bfbfbf" points="483.5,-112.5 483.5,-131.5 527.5,-131.5 527.5,-112.5 483.5,-112.5"/>
<text text-anchor="middle" x="505.5" y="-119.5" font-family="Helvetica,sans-Serif" font-size="10.00" fill="#000000">omp.h</text>
</g>
<!-- Node7&#45;&gt;Node8 -->
<g id="edge8" class="edge">
<title>Node7&#45;&gt;Node8</title>
<path fill="none" stroke="#191970" d="M341.0431,-336.3144C352.7503,-327.575 369.7492,-313.9793 382.5,-300 430.8826,-246.9558 475.583,-173.8959 495.1296,-140.2767"/>
<polygon fill="#191970" stroke="#191970" points="498.2083,-141.9441 500.1622,-131.531 492.141,-138.4528 498.2083,-141.9441"/>
</g>
<!-- Node9 -->
<g id="node10" class="node">
<title>Node9</title>
<g id="a_node10"><a xlink:href="generators_8h.html" target="_top" xlink:title="This file includes all the header files of subclasses of Generator. ">
<polygon fill="#ffffff" stroke="#000000" points="281.5,-280.5 281.5,-299.5 373.5,-299.5 373.5,-280.5 281.5,-280.5"/>
<text text-anchor="middle" x="327.5" y="-287.5" font-family="Helvetica,sans-Serif" font-size="10.00" fill="#000000">core/generators.h</text>
</a>
</g>
</g>
<!-- Node7&#45;&gt;Node9 -->
<g id="edge9" class="edge">
<title>Node7&#45;&gt;Node9</title>
<path fill="none" stroke="#191970" d="M327.5,-336.2455C327.5,-328.9382 327.5,-318.6944 327.5,-309.7046"/>
<polygon fill="#191970" stroke="#191970" points="331.0001,-309.6426 327.5,-299.6427 324.0001,-309.6427 331.0001,-309.6426"/>
</g>
<!-- Node10 -->
<g id="node11" class="node">
<title>Node10</title>
<g id="a_node11"><a xlink:href="core_2element_8h.html" target="_top" xlink:title="This file has a definition of the Element class, which is one of the cores of this program...">
<polygon fill="#ffffff" stroke="#000000" points="287,-168.5 287,-187.5 368,-187.5 368,-168.5 287,-168.5"/>
<text text-anchor="middle" x="327.5" y="-175.5" font-family="Helvetica,sans-Serif" font-size="10.00" fill="#000000">core/element.h</text>
</a>
</g>
</g>
<!-- Node9&#45;&gt;Node10 -->
<g id="edge10" class="edge">
<title>Node9&#45;&gt;Node10</title>
<path fill="none" stroke="#191970" d="M343.3247,-280.4104C361.0741,-268.3201 386.1935,-246.3956 376.5,-224 371.2663,-211.9081 361.1158,-201.5335 351.4045,-193.7139"/>
<polygon fill="#191970" stroke="#191970" points="353.2234,-190.7038 343.118,-187.5209 349.0329,-196.3109 353.2234,-190.7038"/>
</g>
<!-- Node23 -->
<g id="node24" class="node">
<title>Node23</title>
<g id="a_node24"><a xlink:href="gen__dict_8h.html" target="_top" xlink:title="This file has a definition of the GenDict class. ">
<polygon fill="#ffffff" stroke="#000000" points="186,-224.5 186,-243.5 269,-243.5 269,-224.5 186,-224.5"/>
<text text-anchor="middle" x="227.5" y="-231.5" font-family="Helvetica,sans-Serif" font-size="10.00" fill="#000000">core/gen_dict.h</text>
</a>
</g>
</g>
<!-- Node9&#45;&gt;Node23 -->
<g id="edge27" class="edge">
<title>Node9&#45;&gt;Node23</title>
<path fill="none" stroke="#191970" d="M310.0813,-280.2455C294.4515,-271.4928 271.2981,-258.527 253.4815,-248.5496"/>
<polygon fill="#191970" stroke="#191970" points="255.1543,-245.475 244.7191,-243.6427 251.734,-251.5825 255.1543,-245.475"/>
</g>
<!-- Node24 -->
<g id="node25" class="node">
<title>Node24</title>
<g id="a_node25"><a xlink:href="gen__list_8h.html" target="_top" xlink:title="This file has a definition of the GenList class. ">
<polygon fill="#ffffff" stroke="#000000" points="287.5,-224.5 287.5,-243.5 367.5,-243.5 367.5,-224.5 287.5,-224.5"/>
<text text-anchor="middle" x="327.5" y="-231.5" font-family="Helvetica,sans-Serif" font-size="10.00" fill="#000000">core/gen_list.h</text>
</a>
</g>
</g>
<!-- Node9&#45;&gt;Node24 -->
<g id="edge29" class="edge">
<title>Node9&#45;&gt;Node24</title>
<path fill="none" stroke="#191970" d="M327.5,-280.2455C327.5,-272.9382 327.5,-262.6944 327.5,-253.7046"/>
<polygon fill="#191970" stroke="#191970" points="331.0001,-253.6426 327.5,-243.6427 324.0001,-253.6427 331.0001,-253.6426"/>
</g>
<!-- Node10&#45;&gt;Node5 -->
<g id="edge14" class="edge">
<title>Node10&#45;&gt;Node5</title>
<path fill="none" stroke="#191970" d="M291.3997,-168.3733C255.8752,-158.9001 201.512,-144.4032 163.0381,-134.1435"/>
<polygon fill="#191970" stroke="#191970" points="163.6934,-130.696 153.1292,-131.5011 161.8897,-137.4596 163.6934,-130.696"/>
</g>
<!-- Node10&#45;&gt;Node8 -->
<g id="edge11" class="edge">
<title>Node10&#45;&gt;Node8</title>
<path fill="none" stroke="#191970" d="M358.2133,-168.475C385.9937,-159.8406 428.2723,-146.6533 473.7445,-132.2226"/>
<polygon fill="#191970" stroke="#191970" points="475.0215,-135.4894 483.4922,-129.1256 472.9018,-128.818 475.0215,-135.4894"/>
</g>
<!-- Node11 -->
<g id="node12" class="node">
<title>Node11</title>
<g id="a_node12"><a xlink:href="eigen_8h.html" target="_top" xlink:title="This file includes Eigen and defines some aliases for the Eigen&#45;Vector, Matrix and Array...">
<polygon fill="#ffffff" stroke="#000000" points="394,-112.5 394,-131.5 465,-131.5 465,-112.5 394,-112.5"/>
<text text-anchor="middle" x="429.5" y="-119.5" font-family="Helvetica,sans-Serif" font-size="10.00" fill="#000000">alias/eigen.h</text>
</a>
</g>
</g>
<!-- Node10&#45;&gt;Node11 -->
<g id="edge12" class="edge">
<title>Node10&#45;&gt;Node11</title>
<path fill="none" stroke="#191970" d="M345.267,-168.2455C361.2095,-159.4928 384.8259,-146.527 402.9989,-136.5496"/>
<polygon fill="#191970" stroke="#191970" points="404.8552,-139.5233 411.9366,-131.6427 401.4863,-133.3873 404.8552,-139.5233"/>
</g>
<!-- Node13 -->
<g id="node14" class="node">
<title>Node13</title>
<g id="a_node14"><a xlink:href="generator_8h.html" target="_top" xlink:title="This file has a definition of the Generator class, which is one of the cores of this program...">
<polygon fill="#ffffff" stroke="#000000" points="174,-112.5 174,-131.5 261,-131.5 261,-112.5 174,-112.5"/>
<text text-anchor="middle" x="217.5" y="-119.5" font-family="Helvetica,sans-Serif" font-size="10.00" fill="#000000">core/generator.h</text>
</a>
</g>
</g>
<!-- Node10&#45;&gt;Node13 -->
<g id="edge15" class="edge">
<title>Node10&#45;&gt;Node13</title>
<path fill="none" stroke="#191970" d="M308.3395,-168.2455C290.9889,-159.4125 265.2099,-146.2887 245.5417,-136.2758"/>
<polygon fill="#191970" stroke="#191970" points="246.9405,-133.0605 236.441,-131.6427 243.7647,-139.2986 246.9405,-133.0605"/>
</g>
<!-- Node22 -->
<g id="node23" class="node">
<title>Node22</title>
<g id="a_node23"><a xlink:href="data__keys_8h.html" target="_top" xlink:title="This file has a definition of the DataKeys class, which is owned by Element class. ">
<polygon fill="#ffffff" stroke="#000000" points="279.5,-112.5 279.5,-131.5 375.5,-131.5 375.5,-112.5 279.5,-112.5"/>
<text text-anchor="middle" x="327.5" y="-119.5" font-family="Helvetica,sans-Serif" font-size="10.00" fill="#000000">class/data_keys.h</text>
</a>
</g>
</g>
<!-- Node10&#45;&gt;Node22 -->
<g id="edge24" class="edge">
<title>Node10&#45;&gt;Node22</title>
<path fill="none" stroke="#191970" d="M327.5,-168.2455C327.5,-160.9382 327.5,-150.6944 327.5,-141.7046"/>
<polygon fill="#191970" stroke="#191970" points="331.0001,-141.6426 327.5,-131.6427 324.0001,-141.6427 331.0001,-141.6426"/>
</g>
<!-- Node12 -->
<g id="node13" class="node">
<title>Node12</title>
<polygon fill="#ffffff" stroke="#bfbfbf" points="401.5,-56.5 401.5,-75.5 457.5,-75.5 457.5,-56.5 401.5,-56.5"/>
<text text-anchor="middle" x="429.5" y="-63.5" font-family="Helvetica,sans-Serif" font-size="10.00" fill="#000000">Eigen/LU</text>
</g>
<!-- Node11&#45;&gt;Node12 -->
<g id="edge13" class="edge">
<title>Node11&#45;&gt;Node12</title>
<path fill="none" stroke="#191970" d="M429.5,-112.2455C429.5,-104.9382 429.5,-94.6944 429.5,-85.7046"/>
<polygon fill="#191970" stroke="#191970" points="433.0001,-85.6426 429.5,-75.6427 426.0001,-85.6427 433.0001,-85.6426"/>
</g>
<!-- Node14 -->
<g id="node15" class="node">
<title>Node14</title>
<g id="a_node15"><a xlink:href="std_8h.html" target="_top" xlink:title="This file includes a part of C++ Standard Template Library and defines aliases for them...">
<polygon fill="#ffffff" stroke="#000000" points="296.5,-56.5 296.5,-75.5 358.5,-75.5 358.5,-56.5 296.5,-56.5"/>
<text text-anchor="middle" x="327.5" y="-63.5" font-family="Helvetica,sans-Serif" font-size="10.00" fill="#000000">alias/std.h</text>
</a>
</g>
</g>
<!-- Node13&#45;&gt;Node14 -->
<g id="edge16" class="edge">
<title>Node13&#45;&gt;Node14</title>
<path fill="none" stroke="#191970" d="M236.6605,-112.2455C254.0111,-103.4125 279.7901,-90.2887 299.4583,-80.2758"/>
<polygon fill="#191970" stroke="#191970" points="301.2353,-83.2986 308.559,-75.6427 298.0595,-77.0605 301.2353,-83.2986"/>
</g>
<!-- Node20 -->
<g id="node21" class="node">
<title>Node20</title>
<g id="a_node21"><a xlink:href="json_8h.html" target="_top" xlink:title="This file includes nlohmann/json and defines an alias for the JSON type. ">
<polygon fill="#ffffff" stroke="#000000" points="186.5,-56.5 186.5,-75.5 252.5,-75.5 252.5,-56.5 186.5,-56.5"/>
<text text-anchor="middle" x="219.5" y="-63.5" font-family="Helvetica,sans-Serif" font-size="10.00" fill="#000000">alias/json.h</text>
</a>
</g>
</g>
<!-- Node13&#45;&gt;Node20 -->
<g id="edge22" class="edge">
<title>Node13&#45;&gt;Node20</title>
<path fill="none" stroke="#191970" d="M217.8484,-112.2455C218.1093,-104.9382 218.4752,-94.6944 218.7963,-85.7046"/>
<polygon fill="#191970" stroke="#191970" points="222.2964,-85.7613 219.1556,-75.6427 215.3008,-85.5113 222.2964,-85.7613"/>
</g>
<!-- Node15 -->
<g id="node16" class="node">
<title>Node15</title>
<polygon fill="#ffffff" stroke="#bfbfbf" points="434.5,-.5 434.5,-19.5 486.5,-19.5 486.5,-.5 434.5,-.5"/>
<text text-anchor="middle" x="460.5" y="-7.5" font-family="Helvetica,sans-Serif" font-size="10.00" fill="#000000">memory</text>
</g>
<!-- Node14&#45;&gt;Node15 -->
<g id="edge17" class="edge">
<title>Node14&#45;&gt;Node15</title>
<path fill="none" stroke="#191970" d="M350.3635,-56.3733C371.905,-47.3032 404.3838,-33.6279 428.4956,-23.4755"/>
<polygon fill="#191970" stroke="#191970" points="430.0767,-26.6075 437.9348,-19.5011 427.3603,-20.156 430.0767,-26.6075"/>
</g>
<!-- Node16 -->
<g id="node17" class="node">
<title>Node16</title>
<polygon fill="#ffffff" stroke="#bfbfbf" points="505,-.5 505,-19.5 546,-19.5 546,-.5 505,-.5"/>
<text text-anchor="middle" x="525.5" y="-7.5" font-family="Helvetica,sans-Serif" font-size="10.00" fill="#000000">string</text>
</g>
<!-- Node14&#45;&gt;Node16 -->
<g id="edge18" class="edge">
<title>Node14&#45;&gt;Node16</title>
<path fill="none" stroke="#191970" d="M358.6089,-58.0248C390.5254,-49.7236 441.8127,-36.056 495.2463,-19.959"/>
<polygon fill="#191970" stroke="#191970" points="496.3368,-23.2858 504.8904,-17.034 494.305,-16.5871 496.3368,-23.2858"/>
</g>
<!-- Node17 -->
<g id="node18" class="node">
<title>Node17</title>
<polygon fill="#ffffff" stroke="#bfbfbf" points="174.5,-.5 174.5,-19.5 218.5,-19.5 218.5,-.5 174.5,-.5"/>
<text text-anchor="middle" x="196.5" y="-7.5" font-family="Helvetica,sans-Serif" font-size="10.00" fill="#000000">vector</text>
</g>
<!-- Node14&#45;&gt;Node17 -->
<g id="edge19" class="edge">
<title>Node14&#45;&gt;Node17</title>
<path fill="none" stroke="#191970" d="M304.9803,-56.3733C283.7628,-47.3032 251.7724,-33.6279 228.0231,-23.4755"/>
<polygon fill="#191970" stroke="#191970" points="229.2967,-20.2136 218.7258,-19.5011 226.5452,-26.6502 229.2967,-20.2136"/>
</g>
<!-- Node18 -->
<g id="node19" class="node">
<title>Node18</title>
<polygon fill="#ffffff" stroke="#bfbfbf" points="237,-.5 237,-19.5 320,-19.5 320,-.5 237,-.5"/>
<text text-anchor="middle" x="278.5" y="-7.5" font-family="Helvetica,sans-Serif" font-size="10.00" fill="#000000">unordered_map</text>
</g>
<!-- Node14&#45;&gt;Node18 -->
<g id="edge20" class="edge">
<title>Node14&#45;&gt;Node18</title>
<path fill="none" stroke="#191970" d="M318.9649,-56.2455C312.0088,-48.2958 302.0117,-36.8706 293.6949,-27.3656"/>
<polygon fill="#191970" stroke="#191970" points="296.1564,-24.8637 286.9373,-19.6427 290.8884,-29.4732 296.1564,-24.8637"/>
</g>
<!-- Node19 -->
<g id="node20" class="node">
<title>Node19</title>
<polygon fill="#ffffff" stroke="#bfbfbf" points="338.5,-.5 338.5,-19.5 416.5,-19.5 416.5,-.5 338.5,-.5"/>
<text text-anchor="middle" x="377.5" y="-7.5" font-family="Helvetica,sans-Serif" font-size="10.00" fill="#000000">unordered_set</text>
</g>
<!-- Node14&#45;&gt;Node19 -->
<g id="edge21" class="edge">
<title>Node14&#45;&gt;Node19</title>
<path fill="none" stroke="#191970" d="M336.2093,-56.2455C343.3073,-48.2958 353.5084,-36.8706 361.995,-27.3656"/>
<polygon fill="#191970" stroke="#191970" points="364.8411,-29.4331 368.8905,-19.6427 359.6195,-24.771 364.8411,-29.4331"/>
</g>
<!-- Node21 -->
<g id="node22" class="node">
<title>Node21</title>
<polygon fill="#ffffff" stroke="#bfbfbf" points="58.5,-.5 58.5,-19.5 156.5,-19.5 156.5,-.5 58.5,-.5"/>
<text text-anchor="middle" x="107.5" y="-7.5" font-family="Helvetica,sans-Serif" font-size="10.00" fill="#000000">nlohmann/json.hpp</text>
</g>
<!-- Node20&#45;&gt;Node21 -->
<g id="edge23" class="edge">
<title>Node20&#45;&gt;Node21</title>
<path fill="none" stroke="#191970" d="M200.2465,-56.3733C182.4288,-47.4644 155.7253,-34.1127 135.5406,-24.0203"/>
<polygon fill="#191970" stroke="#191970" points="137.0118,-20.8428 126.5022,-19.5011 133.8813,-27.1038 137.0118,-20.8428"/>
</g>
<!-- Node22&#45;&gt;Node14 -->
<g id="edge25" class="edge">
<title>Node22&#45;&gt;Node14</title>
<path fill="none" stroke="#191970" d="M327.5,-112.2455C327.5,-104.9382 327.5,-94.6944 327.5,-85.7046"/>
<polygon fill="#191970" stroke="#191970" points="331.0001,-85.6426 327.5,-75.6427 324.0001,-85.6427 331.0001,-85.6426"/>
</g>
<!-- Node22&#45;&gt;Node20 -->
<g id="edge26" class="edge">
<title>Node22&#45;&gt;Node20</title>
<path fill="none" stroke="#191970" d="M308.6878,-112.2455C291.6527,-103.4125 266.3425,-90.2887 247.0319,-80.2758"/>
<polygon fill="#191970" stroke="#191970" points="248.5853,-77.1388 238.0966,-75.6427 245.363,-83.353 248.5853,-77.1388"/>
</g>
<!-- Node23&#45;&gt;Node10 -->
<g id="edge28" class="edge">
<title>Node23&#45;&gt;Node10</title>
<path fill="none" stroke="#191970" d="M244.9187,-224.2455C260.5485,-215.4928 283.7019,-202.527 301.5185,-192.5496"/>
<polygon fill="#191970" stroke="#191970" points="303.266,-195.5825 310.2809,-187.6427 299.8457,-189.475 303.266,-195.5825"/>
</g>
<!-- Node24&#45;&gt;Node10 -->
<g id="edge30" class="edge">
<title>Node24&#45;&gt;Node10</title>
<path fill="none" stroke="#191970" d="M327.5,-224.2455C327.5,-216.9382 327.5,-206.6944 327.5,-197.7046"/>
<polygon fill="#191970" stroke="#191970" points="331.0001,-197.6426 327.5,-187.6427 324.0001,-197.6427 331.0001,-197.6426"/>
</g>
</g>
</svg>
