<?xml version="1.0" encoding="UTF-8" standalone="no"?>
<!DOCTYPE svg PUBLIC "-//W3C//DTD SVG 1.1//EN"
 "http://www.w3.org/Graphics/SVG/1.1/DTD/svg11.dtd">
<!-- Generated by graphviz version 2.40.1 (20161225.0304)
 -->
<!-- Title: src/pybind/processors/pro_mean_square_displacement.h Pages: 1 -->
<svg width="341pt" height="218pt"
 viewBox="0.00 0.00 340.50 218.00" xmlns="http://www.w3.org/2000/svg" xmlns:xlink="http://www.w3.org/1999/xlink">
<g id="graph0" class="graph" transform="scale(1 1) rotate(0) translate(4 214)">
<title>src/pybind/processors/pro_mean_square_displacement.h</title>
<polygon fill="#ffffff" stroke="transparent" points="-4,4 -4,-214 336.5,-214 336.5,4 -4,4"/>
<!-- Node0 -->
<g id="node1" class="node">
<title>Node0</title>
<polygon fill="#bfbfbf" stroke="#000000" points="54,-179.5 54,-209.5 222,-209.5 222,-179.5 54,-179.5"/>
<text text-anchor="start" x="62" y="-197.5" font-family="Helvetica,sans-Serif" font-size="10.00" fill="#000000">src/pybind/processors</text>
<text text-anchor="middle" x="138" y="-186.5" font-family="Helvetica,sans-Serif" font-size="10.00" fill="#000000">/pro_mean_square_displacement.h</text>
</g>
<!-- Node1 -->
<g id="node2" class="node">
<title>Node1</title>
<polygon fill="#ffffff" stroke="#bfbfbf" points="0,-112.5 0,-142.5 122,-142.5 122,-112.5 0,-112.5"/>
<text text-anchor="start" x="8" y="-130.5" font-family="Helvetica,sans-Serif" font-size="10.00" fill="#000000">processors/pro_mean</text>
<text text-anchor="middle" x="61" y="-119.5" font-family="Helvetica,sans-Serif" font-size="10.00" fill="#000000">_square_displacement.h</text>
</g>
<!-- Node0&#45;&gt;Node1 -->
<g id="edge1" class="edge">
<title>Node0&#45;&gt;Node1</title>
<path fill="none" stroke="#191970" d="M120.5275,-179.2967C110.3872,-170.4733 97.4396,-159.2072 86.211,-149.4368"/>
<polygon fill="#191970" stroke="#191970" points="88.2448,-146.567 78.4033,-142.6432 83.6498,-151.8478 88.2448,-146.567"/>
</g>
<!-- Node2 -->
<g id="node3" class="node">
<title>Node2</title>
<g id="a_node3"><a xlink:href="pybind_2processors_2processor_8h.html" target="_top" xlink:title="pybind/processors/processor.h">
<polygon fill="#ffffff" stroke="#000000" points="140,-118 140,-137 290,-137 290,-118 140,-118"/>
<text text-anchor="middle" x="215" y="-125" font-family="Helvetica,sans-Serif" font-size="10.00" fill="#000000">pybind/processors/processor.h</text>
</a>
</g>
</g>
<!-- Node0&#45;&gt;Node2 -->
<g id="edge2" class="edge">
<title>Node0&#45;&gt;Node2</title>
<path fill="none" stroke="#191970" d="M155.4725,-179.2967C167.7024,-168.6551 184.0159,-154.4602 196.4721,-143.6217"/>
<polygon fill="#191970" stroke="#191970" points="198.7724,-146.2596 204.0189,-137.055 194.1775,-140.9788 198.7724,-146.2596"/>
</g>
<!-- Node3 -->
<g id="node4" class="node">
<title>Node3</title>
<g id="a_node4"><a xlink:href="alias_2pybind_8h.html" target="_top" xlink:title="... ">
<polygon fill="#ffffff" stroke="#000000" points="118.5,-56.5 118.5,-75.5 195.5,-75.5 195.5,-56.5 118.5,-56.5"/>
<text text-anchor="middle" x="157" y="-63.5" font-family="Helvetica,sans-Serif" font-size="10.00" fill="#000000">alias/pybind.h</text>
</a>
</g>
</g>
<!-- Node2&#45;&gt;Node3 -->
<g id="edge3" class="edge">
<title>Node2&#45;&gt;Node3</title>
<path fill="none" stroke="#191970" d="M205.9375,-117.8906C197.2207,-108.6478 183.846,-94.466 173.2804,-83.2628"/>
<polygon fill="#191970" stroke="#191970" points="175.5976,-80.6186 166.1903,-75.7449 170.505,-85.4213 175.5976,-80.6186"/>
</g>
<!-- Node5 -->
<g id="node6" class="node">
<title>Node5</title>
<polygon fill="#ffffff" stroke="#bfbfbf" points="213.5,-56.5 213.5,-75.5 332.5,-75.5 332.5,-56.5 213.5,-56.5"/>
<text text-anchor="middle" x="273" y="-63.5" font-family="Helvetica,sans-Serif" font-size="10.00" fill="#000000">processors/processor.h</text>
</g>
<!-- Node2&#45;&gt;Node5 -->
<g id="edge5" class="edge">
<title>Node2&#45;&gt;Node5</title>
<path fill="none" stroke="#191970" d="M224.0625,-117.8906C232.7793,-108.6478 246.154,-94.466 256.7196,-83.2628"/>
<polygon fill="#191970" stroke="#191970" points="259.495,-85.4213 263.8097,-75.7449 254.4024,-80.6186 259.495,-85.4213"/>
</g>
<!-- Node4 -->
<g id="node5" class="node">
<title>Node4</title>
<polygon fill="#ffffff" stroke="#bfbfbf" points="104,-.5 104,-19.5 210,-19.5 210,-.5 104,-.5"/>
<text text-anchor="middle" x="157" y="-7.5" font-family="Helvetica,sans-Serif" font-size="10.00" fill="#000000">pybind11/pybind11.h</text>
</g>
<!-- Node3&#45;&gt;Node4 -->
<g id="edge4" class="edge">
<title>Node3&#45;&gt;Node4</title>
<path fill="none" stroke="#191970" d="M157,-56.2455C157,-48.9382 157,-38.6944 157,-29.7046"/>
<polygon fill="#191970" stroke="#191970" points="160.5001,-29.6426 157,-19.6427 153.5001,-29.6427 160.5001,-29.6426"/>
</g>
</g>
</svg>
