<?xml version="1.0" encoding="UTF-8" standalone="no"?>
<!DOCTYPE svg PUBLIC "-//W3C//DTD SVG 1.1//EN"
 "http://www.w3.org/Graphics/SVG/1.1/DTD/svg11.dtd">
<!-- Generated by graphviz version 2.40.1 (20161225.0304)
 -->
<!-- Title: src/pybind/adders/add_gyration_radius.h Pages: 1 -->
<!--zoomable 554 -->
<svg id="main" version="1.1" xmlns="http://www.w3.org/2000/svg" xmlns:xlink="http://www.w3.org/1999/xlink" xml:space="preserve" onload="init(evt)">
<style type="text/css"><![CDATA[
.edge:hover path { stroke: red; }
.edge:hover polygon { stroke: red; fill: red; }
]]></style>
<script type="text/javascript"><![CDATA[
var edges = document.getElementsByTagName('g');
if (edges && edges.length) {
  for (var i=0;i<edges.length;i++) {
    if (edges[i].id.substr(0,4)=='edge') {
      edges[i].setAttribute('class','edge');
    }
  }
}
]]></script>
        <defs>
                <circle id="rim" cx="0" cy="0" r="7"/>
                <circle id="rim2" cx="0" cy="0" r="3.5"/>
                <g id="zoomPlus">
                        <use xlink:href="#rim" fill="#404040">
                                <set attributeName="fill" to="#808080" begin="zoomplus.mouseover" end="zoomplus.mouseout"/>
                        </use>
                        <path d="M-4,0h8M0,-4v8" fill="none" stroke="white" stroke-width="1.5" pointer-events="none"/>
                </g>
                <g id="zoomMin">
                        <use xlink:href="#rim" fill="#404040">
                                <set attributeName="fill" to="#808080" begin="zoomminus.mouseover" end="zoomminus.mouseout"/>
                        </use>
                        <path d="M-4,0h8" fill="none" stroke="white" stroke-width="1.5" pointer-events="none"/>
                </g>
                <g id="dirArrow">
                        <path fill="none" stroke="white" stroke-width="1.5" d="M0,-3.0v7 M-2.5,-0.5L0,-3.0L2.5,-0.5"/>
                </g>
               <g id="resetDef">
                       <use xlink:href="#rim2" fill="#404040">
                               <set attributeName="fill" to="#808080" begin="reset.mouseover" end="reset.mouseout"/>
                       </use>
               </g>
        </defs>

<script type="text/javascript">
var viewWidth = 553;
var viewHeight = 554;
var sectionId = 'dynsection-0';
</script>
<script xlink:href="svgpan.js"/>
<svg id="graph" class="graph">
<g id="viewport">
<title>src/pybind/adders/add_gyration_radius.h</title>
<polygon fill="#ffffff" stroke="transparent" points="-4,4 -4,-550 548.5,-550 548.5,4 -4,4"/>
<!-- Node0 -->
<g id="node1" class="node">
<title>Node0</title>
<polygon fill="#bfbfbf" stroke="#000000" points="58.5,-515.5 58.5,-545.5 171.5,-545.5 171.5,-515.5 58.5,-515.5"/>
<text text-anchor="start" x="66.5" y="-533.5" font-family="Helvetica,sans-Serif" font-size="10.00" fill="#000000">src/pybind/adders/add</text>
<text text-anchor="middle" x="115" y="-522.5" font-family="Helvetica,sans-Serif" font-size="10.00" fill="#000000">_gyration_radius.h</text>
</g>
<!-- Node1 -->
<g id="node2" class="node">
<title>Node1</title>
<polygon fill="#ffffff" stroke="#bfbfbf" points="0,-448.5 0,-478.5 104,-478.5 104,-448.5 0,-448.5"/>
<text text-anchor="start" x="8" y="-466.5" font-family="Helvetica,sans-Serif" font-size="10.00" fill="#000000">adders/add_gyration</text>
<text text-anchor="middle" x="52" y="-455.5" font-family="Helvetica,sans-Serif" font-size="10.00" fill="#000000">_radius.h</text>
</g>
<!-- Node0&#45;&gt;Node1 -->
<g id="edge1" class="edge">
<title>Node0&#45;&gt;Node1</title>
<path fill="none" stroke="#191970" d="M100.7043,-515.2967C92.5688,-506.6446 82.2248,-495.6438 73.1639,-486.0076"/>
<polygon fill="#191970" stroke="#191970" points="75.6392,-483.5308 66.2391,-478.6432 70.5396,-488.326 75.6392,-483.5308"/>
</g>
<!-- Node2 -->
<g id="node3" class="node">
<title>Node2</title>
<g id="a_node3"><a xlink:href="pybind_2adders_2adder_8h_source.html" target="_top" xlink:title="pybind/adders/adder.h">
<polygon fill="#ffffff" stroke="#000000" points="122.5,-454 122.5,-473 235.5,-473 235.5,-454 122.5,-454"/>
<text text-anchor="middle" x="179" y="-461" font-family="Helvetica,sans-Serif" font-size="10.00" fill="#000000">pybind/adders/adder.h</text>
</a>
</g>
</g>
<!-- Node0&#45;&gt;Node2 -->
<g id="edge2" class="edge">
<title>Node0&#45;&gt;Node2</title>
<path fill="none" stroke="#191970" d="M129.5226,-515.2967C139.3973,-504.9591 152.4749,-491.2684 162.7051,-480.5588"/>
<polygon fill="#191970" stroke="#191970" points="165.4964,-482.7037 169.8729,-473.055 160.4346,-477.8685 165.4964,-482.7037"/>
</g>
<!-- Node3 -->
<g id="node4" class="node">
<title>Node3</title>
<polygon fill="#ffffff" stroke="#bfbfbf" points="87.5,-392.5 87.5,-411.5 168.5,-411.5 168.5,-392.5 87.5,-392.5"/>
<text text-anchor="middle" x="128" y="-399.5" font-family="Helvetica,sans-Serif" font-size="10.00" fill="#000000">adders/adder.h</text>
</g>
<!-- Node2&#45;&gt;Node3 -->
<g id="edge3" class="edge">
<title>Node2&#45;&gt;Node3</title>
<path fill="none" stroke="#191970" d="M171.0313,-453.8906C163.4409,-444.7376 151.8339,-430.7409 142.5868,-419.59"/>
<polygon fill="#191970" stroke="#191970" points="145.1587,-417.2083 136.0811,-411.7449 139.7703,-421.6766 145.1587,-417.2083"/>
</g>
<!-- Node4 -->
<g id="node5" class="node">
<title>Node4</title>
<g id="a_node5"><a xlink:href="pybind_2updater_8h_source.html" target="_top" xlink:title="pybind/updater.h">
<polygon fill="#ffffff" stroke="#000000" points="186.5,-392.5 186.5,-411.5 275.5,-411.5 275.5,-392.5 186.5,-392.5"/>
<text text-anchor="middle" x="231" y="-399.5" font-family="Helvetica,sans-Serif" font-size="10.00" fill="#000000">pybind/updater.h</text>
</a>
</g>
</g>
<!-- Node2&#45;&gt;Node4 -->
<g id="edge4" class="edge">
<title>Node2&#45;&gt;Node4</title>
<path fill="none" stroke="#191970" d="M187.125,-453.8906C194.8642,-444.7376 206.6987,-430.7409 216.1272,-419.59"/>
<polygon fill="#191970" stroke="#191970" points="218.9765,-421.6409 222.7604,-411.7449 213.6311,-417.1213 218.9765,-421.6409"/>
</g>
<!-- Node5 -->
<g id="node6" class="node">
<title>Node5</title>
<g id="a_node6"><a xlink:href="alias_2pybind_8h.html" target="_top" xlink:title="This file includes pybind11 and defines an alias for the namespace pybind11. ">
<polygon fill="#ffffff" stroke="#000000" points="77.5,-112.5 77.5,-131.5 154.5,-131.5 154.5,-112.5 77.5,-112.5"/>
<text text-anchor="middle" x="116" y="-119.5" font-family="Helvetica,sans-Serif" font-size="10.00" fill="#000000">alias/pybind.h</text>
</a>
</g>
</g>
<!-- Node4&#45;&gt;Node5 -->
<g id="edge5" class="edge">
<title>Node4&#45;&gt;Node5</title>
<path fill="none" stroke="#191970" d="M214.0159,-392.368C186.6905,-375.4638 136,-337.6798 136,-290 136,-290 136,-290 136,-234 136,-201.2193 127.5945,-163.8705 121.6819,-141.6533"/>
<polygon fill="#191970" stroke="#191970" points="124.991,-140.4878 118.9511,-131.7832 118.2445,-142.3545 124.991,-140.4878"/>
</g>
<!-- Node7 -->
<g id="node8" class="node">
<title>Node7</title>
<g id="a_node8"><a xlink:href="core_2updater_8h.html" target="_top" xlink:title="This file has a definition of the Updater class, which is one of the cores of this program...">
<polygon fill="#ffffff" stroke="#000000" points="286.5,-336.5 286.5,-355.5 365.5,-355.5 365.5,-336.5 286.5,-336.5"/>
<text text-anchor="middle" x="326" y="-343.5" font-family="Helvetica,sans-Serif" font-size="10.00" fill="#000000">core/updater.h</text>
</a>
</g>
</g>
<!-- Node4&#45;&gt;Node7 -->
<g id="edge7" class="edge">
<title>Node4&#45;&gt;Node7</title>
<path fill="none" stroke="#191970" d="M247.5477,-392.2455C262.2599,-383.5731 283.9888,-370.7645 300.8505,-360.825"/>
<polygon fill="#191970" stroke="#191970" points="302.8046,-363.736 309.6419,-355.6427 299.2498,-357.7057 302.8046,-363.736"/>
</g>
<!-- Node6 -->
<g id="node7" class="node">
<title>Node6</title>
<polygon fill="#ffffff" stroke="#bfbfbf" points="61,-56.5 61,-75.5 167,-75.5 167,-56.5 61,-56.5"/>
<text text-anchor="middle" x="114" y="-63.5" font-family="Helvetica,sans-Serif" font-size="10.00" fill="#000000">pybind11/pybind11.h</text>
</g>
<!-- Node5&#45;&gt;Node6 -->
<g id="edge6" class="edge">
<title>Node5&#45;&gt;Node6</title>
<path fill="none" stroke="#191970" d="M115.6516,-112.2455C115.3907,-104.9382 115.0248,-94.6944 114.7037,-85.7046"/>
<polygon fill="#191970" stroke="#191970" points="118.1992,-85.5113 114.3444,-75.6427 111.2036,-85.7613 118.1992,-85.5113"/>
</g>
<!-- Node8 -->
<g id="node9" class="node">
<title>Node8</title>
<polygon fill="#ffffff" stroke="#bfbfbf" points="482,-112.5 482,-131.5 526,-131.5 526,-112.5 482,-112.5"/>
<text text-anchor="middle" x="504" y="-119.5" font-family="Helvetica,sans-Serif" font-size="10.00" fill="#000000">omp.h</text>
</g>
<!-- Node7&#45;&gt;Node8 -->
<g id="edge8" class="edge">
<title>Node7&#45;&gt;Node8</title>
<path fill="none" stroke="#191970" d="M339.5431,-336.3144C351.2503,-327.575 368.2492,-313.9793 381,-300 429.3826,-246.9558 474.083,-173.8959 493.6296,-140.2767"/>
<polygon fill="#191970" stroke="#191970" points="496.7083,-141.9441 498.6622,-131.531 490.641,-138.4528 496.7083,-141.9441"/>
</g>
<!-- Node9 -->
<g id="node10" class="node">
<title>Node9</title>
<g id="a_node10"><a xlink:href="generators_8h.html" target="_top" xlink:title="This file includes all the header files of subclasses of Generator. ">
<polygon fill="#ffffff" stroke="#000000" points="280,-280.5 280,-299.5 372,-299.5 372,-280.5 280,-280.5"/>
<text text-anchor="middle" x="326" y="-287.5" font-family="Helvetica,sans-Serif" font-size="10.00" fill="#000000">core/generators.h</text>
</a>
</g>
</g>
<!-- Node7&#45;&gt;Node9 -->
<g id="edge9" class="edge">
<title>Node7&#45;&gt;Node9</title>
<path fill="none" stroke="#191970" d="M326,-336.2455C326,-328.9382 326,-318.6944 326,-309.7046"/>
<polygon fill="#191970" stroke="#191970" points="329.5001,-309.6426 326,-299.6427 322.5001,-309.6427 329.5001,-309.6426"/>
</g>
<!-- Node10 -->
<g id="node11" class="node">
<title>Node10</title>
<g id="a_node11"><a xlink:href="core_2element_8h.html" target="_top" xlink:title="This file has a definition of the Element class, which is one of the cores of this program...">
<polygon fill="#ffffff" stroke="#000000" points="285.5,-168.5 285.5,-187.5 366.5,-187.5 366.5,-168.5 285.5,-168.5"/>
<text text-anchor="middle" x="326" y="-175.5" font-family="Helvetica,sans-Serif" font-size="10.00" fill="#000000">core/element.h</text>
</a>
</g>
</g>
<!-- Node9&#45;&gt;Node10 -->
<g id="edge10" class="edge">
<title>Node9&#45;&gt;Node10</title>
<path fill="none" stroke="#191970" d="M341.8247,-280.4104C359.5741,-268.3201 384.6935,-246.3956 375,-224 369.7663,-211.9081 359.6158,-201.5335 349.9045,-193.7139"/>
<polygon fill="#191970" stroke="#191970" points="351.7234,-190.7038 341.618,-187.5209 347.5329,-196.3109 351.7234,-190.7038"/>
</g>
<!-- Node23 -->
<g id="node24" class="node">
<title>Node23</title>
<g id="a_node24"><a xlink:href="gen__dict_8h.html" target="_top" xlink:title="This file has a definition of the GenDict class. ">
<polygon fill="#ffffff" stroke="#000000" points="184.5,-224.5 184.5,-243.5 267.5,-243.5 267.5,-224.5 184.5,-224.5"/>
<text text-anchor="middle" x="226" y="-231.5" font-family="Helvetica,sans-Serif" font-size="10.00" fill="#000000">core/gen_dict.h</text>
</a>
</g>
</g>
<!-- Node9&#45;&gt;Node23 -->
<g id="edge27" class="edge">
<title>Node9&#45;&gt;Node23</title>
<path fill="none" stroke="#191970" d="M308.5813,-280.2455C292.9515,-271.4928 269.7981,-258.527 251.9815,-248.5496"/>
<polygon fill="#191970" stroke="#191970" points="253.6543,-245.475 243.2191,-243.6427 250.234,-251.5825 253.6543,-245.475"/>
</g>
<!-- Node24 -->
<g id="node25" class="node">
<title>Node24</title>
<g id="a_node25"><a xlink:href="gen__list_8h.html" target="_top" xlink:title="This file has a definition of the GenList class. ">
<polygon fill="#ffffff" stroke="#000000" points="286,-224.5 286,-243.5 366,-243.5 366,-224.5 286,-224.5"/>
<text text-anchor="middle" x="326" y="-231.5" font-family="Helvetica,sans-Serif" font-size="10.00" fill="#000000">core/gen_list.h</text>
</a>
</g>
</g>
<!-- Node9&#45;&gt;Node24 -->
<g id="edge29" class="edge">
<title>Node9&#45;&gt;Node24</title>
<path fill="none" stroke="#191970" d="M326,-280.2455C326,-272.9382 326,-262.6944 326,-253.7046"/>
<polygon fill="#191970" stroke="#191970" points="329.5001,-253.6426 326,-243.6427 322.5001,-253.6427 329.5001,-253.6426"/>
</g>
<!-- Node10&#45;&gt;Node5 -->
<g id="edge14" class="edge">
<title>Node10&#45;&gt;Node5</title>
<path fill="none" stroke="#191970" d="M289.8997,-168.3733C254.3752,-158.9001 200.012,-144.4032 161.5381,-134.1435"/>
<polygon fill="#191970" stroke="#191970" points="162.1934,-130.696 151.6292,-131.5011 160.3897,-137.4596 162.1934,-130.696"/>
</g>
<!-- Node10&#45;&gt;Node8 -->
<g id="edge11" class="edge">
<title>Node10&#45;&gt;Node8</title>
<path fill="none" stroke="#191970" d="M356.7133,-168.475C384.4937,-159.8406 426.7723,-146.6533 472.2445,-132.2226"/>
<polygon fill="#191970" stroke="#191970" points="473.5215,-135.4894 481.9922,-129.1256 471.4018,-128.818 473.5215,-135.4894"/>
</g>
<!-- Node11 -->
<g id="node12" class="node">
<title>Node11</title>
<g id="a_node12"><a xlink:href="eigen_8h.html" target="_top" xlink:title="This file includes Eigen and defines some aliases for the Eigen&#45;Vector, Matrix and Array...">
<polygon fill="#ffffff" stroke="#000000" points="392.5,-112.5 392.5,-131.5 463.5,-131.5 463.5,-112.5 392.5,-112.5"/>
<text text-anchor="middle" x="428" y="-119.5" font-family="Helvetica,sans-Serif" font-size="10.00" fill="#000000">alias/eigen.h</text>
</a>
</g>
</g>
<!-- Node10&#45;&gt;Node11 -->
<g id="edge12" class="edge">
<title>Node10&#45;&gt;Node11</title>
<path fill="none" stroke="#191970" d="M343.767,-168.2455C359.7095,-159.4928 383.3259,-146.527 401.4989,-136.5496"/>
<polygon fill="#191970" stroke="#191970" points="403.3552,-139.5233 410.4366,-131.6427 399.9863,-133.3873 403.3552,-139.5233"/>
</g>
<!-- Node13 -->
<g id="node14" class="node">
<title>Node13</title>
<g id="a_node14"><a xlink:href="generator_8h.html" target="_top" xlink:title="This file has a definition of the Generator class, which is one of the cores of this program...">
<polygon fill="#ffffff" stroke="#000000" points="172.5,-112.5 172.5,-131.5 259.5,-131.5 259.5,-112.5 172.5,-112.5"/>
<text text-anchor="middle" x="216" y="-119.5" font-family="Helvetica,sans-Serif" font-size="10.00" fill="#000000">core/generator.h</text>
</a>
</g>
</g>
<!-- Node10&#45;&gt;Node13 -->
<g id="edge15" class="edge">
<title>Node10&#45;&gt;Node13</title>
<path fill="none" stroke="#191970" d="M306.8395,-168.2455C289.4889,-159.4125 263.7099,-146.2887 244.0417,-136.2758"/>
<polygon fill="#191970" stroke="#191970" points="245.4405,-133.0605 234.941,-131.6427 242.2647,-139.2986 245.4405,-133.0605"/>
</g>
<!-- Node22 -->
<g id="node23" class="node">
<title>Node22</title>
<g id="a_node23"><a xlink:href="data__keys_8h.html" target="_top" xlink:title="This file has a definition of the DataKeys class, which is owned by Element class. ">
<polygon fill="#ffffff" stroke="#000000" points="278,-112.5 278,-131.5 374,-131.5 374,-112.5 278,-112.5"/>
<text text-anchor="middle" x="326" y="-119.5" font-family="Helvetica,sans-Serif" font-size="10.00" fill="#000000">class/data_keys.h</text>
</a>
</g>
</g>
<!-- Node10&#45;&gt;Node22 -->
<g id="edge24" class="edge">
<title>Node10&#45;&gt;Node22</title>
<path fill="none" stroke="#191970" d="M326,-168.2455C326,-160.9382 326,-150.6944 326,-141.7046"/>
<polygon fill="#191970" stroke="#191970" points="329.5001,-141.6426 326,-131.6427 322.5001,-141.6427 329.5001,-141.6426"/>
</g>
<!-- Node12 -->
<g id="node13" class="node">
<title>Node12</title>
<polygon fill="#ffffff" stroke="#bfbfbf" points="400,-56.5 400,-75.5 456,-75.5 456,-56.5 400,-56.5"/>
<text text-anchor="middle" x="428" y="-63.5" font-family="Helvetica,sans-Serif" font-size="10.00" fill="#000000">Eigen/LU</text>
</g>
<!-- Node11&#45;&gt;Node12 -->
<g id="edge13" class="edge">
<title>Node11&#45;&gt;Node12</title>
<path fill="none" stroke="#191970" d="M428,-112.2455C428,-104.9382 428,-94.6944 428,-85.7046"/>
<polygon fill="#191970" stroke="#191970" points="431.5001,-85.6426 428,-75.6427 424.5001,-85.6427 431.5001,-85.6426"/>
</g>
<!-- Node14 -->
<g id="node15" class="node">
<title>Node14</title>
<g id="a_node15"><a xlink:href="std_8h.html" target="_top" xlink:title="This file includes a part of C++ Standard Template Library and defines aliases for them...">
<polygon fill="#ffffff" stroke="#000000" points="295,-56.5 295,-75.5 357,-75.5 357,-56.5 295,-56.5"/>
<text text-anchor="middle" x="326" y="-63.5" font-family="Helvetica,sans-Serif" font-size="10.00" fill="#000000">alias/std.h</text>
</a>
</g>
</g>
<!-- Node13&#45;&gt;Node14 -->
<g id="edge16" class="edge">
<title>Node13&#45;&gt;Node14</title>
<path fill="none" stroke="#191970" d="M235.1605,-112.2455C252.5111,-103.4125 278.2901,-90.2887 297.9583,-80.2758"/>
<polygon fill="#191970" stroke="#191970" points="299.7353,-83.2986 307.059,-75.6427 296.5595,-77.0605 299.7353,-83.2986"/>
</g>
<!-- Node20 -->
<g id="node21" class="node">
<title>Node20</title>
<g id="a_node21"><a xlink:href="json_8h.html" target="_top" xlink:title="This file includes nlohmann/json and defines an alias for the JSON type. ">
<polygon fill="#ffffff" stroke="#000000" points="185,-56.5 185,-75.5 251,-75.5 251,-56.5 185,-56.5"/>
<text text-anchor="middle" x="218" y="-63.5" font-family="Helvetica,sans-Serif" font-size="10.00" fill="#000000">alias/json.h</text>
</a>
</g>
</g>
<!-- Node13&#45;&gt;Node20 -->
<g id="edge22" class="edge">
<title>Node13&#45;&gt;Node20</title>
<path fill="none" stroke="#191970" d="M216.3484,-112.2455C216.6093,-104.9382 216.9752,-94.6944 217.2963,-85.7046"/>
<polygon fill="#191970" stroke="#191970" points="220.7964,-85.7613 217.6556,-75.6427 213.8008,-85.5113 220.7964,-85.7613"/>
</g>
<!-- Node15 -->
<g id="node16" class="node">
<title>Node15</title>
<polygon fill="#ffffff" stroke="#bfbfbf" points="433,-.5 433,-19.5 485,-19.5 485,-.5 433,-.5"/>
<text text-anchor="middle" x="459" y="-7.5" font-family="Helvetica,sans-Serif" font-size="10.00" fill="#000000">memory</text>
</g>
<!-- Node14&#45;&gt;Node15 -->
<g id="edge17" class="edge">
<title>Node14&#45;&gt;Node15</title>
<path fill="none" stroke="#191970" d="M348.8635,-56.3733C370.405,-47.3032 402.8838,-33.6279 426.9956,-23.4755"/>
<polygon fill="#191970" stroke="#191970" points="428.5767,-26.6075 436.4348,-19.5011 425.8603,-20.156 428.5767,-26.6075"/>
</g>
<!-- Node16 -->
<g id="node17" class="node">
<title>Node16</title>
<polygon fill="#ffffff" stroke="#bfbfbf" points="503.5,-.5 503.5,-19.5 544.5,-19.5 544.5,-.5 503.5,-.5"/>
<text text-anchor="middle" x="524" y="-7.5" font-family="Helvetica,sans-Serif" font-size="10.00" fill="#000000">string</text>
</g>
<!-- Node14&#45;&gt;Node16 -->
<g id="edge18" class="edge">
<title>Node14&#45;&gt;Node16</title>
<path fill="none" stroke="#191970" d="M357.1089,-58.0248C389.0254,-49.7236 440.3127,-36.056 493.7463,-19.959"/>
<polygon fill="#191970" stroke="#191970" points="494.8368,-23.2858 503.3904,-17.034 492.805,-16.5871 494.8368,-23.2858"/>
</g>
<!-- Node17 -->
<g id="node18" class="node">
<title>Node17</title>
<polygon fill="#ffffff" stroke="#bfbfbf" points="173,-.5 173,-19.5 217,-19.5 217,-.5 173,-.5"/>
<text text-anchor="middle" x="195" y="-7.5" font-family="Helvetica,sans-Serif" font-size="10.00" fill="#000000">vector</text>
</g>
<!-- Node14&#45;&gt;Node17 -->
<g id="edge19" class="edge">
<title>Node14&#45;&gt;Node17</title>
<path fill="none" stroke="#191970" d="M303.4803,-56.3733C282.2628,-47.3032 250.2724,-33.6279 226.5231,-23.4755"/>
<polygon fill="#191970" stroke="#191970" points="227.7967,-20.2136 217.2258,-19.5011 225.0452,-26.6502 227.7967,-20.2136"/>
</g>
<!-- Node18 -->
<g id="node19" class="node">
<title>Node18</title>
<polygon fill="#ffffff" stroke="#bfbfbf" points="235.5,-.5 235.5,-19.5 318.5,-19.5 318.5,-.5 235.5,-.5"/>
<text text-anchor="middle" x="277" y="-7.5" font-family="Helvetica,sans-Serif" font-size="10.00" fill="#000000">unordered_map</text>
</g>
<!-- Node14&#45;&gt;Node18 -->
<g id="edge20" class="edge">
<title>Node14&#45;&gt;Node18</title>
<path fill="none" stroke="#191970" d="M317.4649,-56.2455C310.5088,-48.2958 300.5117,-36.8706 292.1949,-27.3656"/>
<polygon fill="#191970" stroke="#191970" points="294.6564,-24.8637 285.4373,-19.6427 289.3884,-29.4732 294.6564,-24.8637"/>
</g>
<!-- Node19 -->
<g id="node20" class="node">
<title>Node19</title>
<polygon fill="#ffffff" stroke="#bfbfbf" points="337,-.5 337,-19.5 415,-19.5 415,-.5 337,-.5"/>
<text text-anchor="middle" x="376" y="-7.5" font-family="Helvetica,sans-Serif" font-size="10.00" fill="#000000">unordered_set</text>
</g>
<!-- Node14&#45;&gt;Node19 -->
<g id="edge21" class="edge">
<title>Node14&#45;&gt;Node19</title>
<path fill="none" stroke="#191970" d="M334.7093,-56.2455C341.8073,-48.2958 352.0084,-36.8706 360.495,-27.3656"/>
<polygon fill="#191970" stroke="#191970" points="363.3411,-29.4331 367.3905,-19.6427 358.1195,-24.771 363.3411,-29.4331"/>
</g>
<!-- Node21 -->
<g id="node22" class="node">
<title>Node21</title>
<polygon fill="#ffffff" stroke="#bfbfbf" points="57,-.5 57,-19.5 155,-19.5 155,-.5 57,-.5"/>
<text text-anchor="middle" x="106" y="-7.5" font-family="Helvetica,sans-Serif" font-size="10.00" fill="#000000">nlohmann/json.hpp</text>
</g>
<!-- Node20&#45;&gt;Node21 -->
<g id="edge23" class="edge">
<title>Node20&#45;&gt;Node21</title>
<path fill="none" stroke="#191970" d="M198.7465,-56.3733C180.9288,-47.4644 154.2253,-34.1127 134.0406,-24.0203"/>
<polygon fill="#191970" stroke="#191970" points="135.5118,-20.8428 125.0022,-19.5011 132.3813,-27.1038 135.5118,-20.8428"/>
</g>
<!-- Node22&#45;&gt;Node14 -->
<g id="edge25" class="edge">
<title>Node22&#45;&gt;Node14</title>
<path fill="none" stroke="#191970" d="M326,-112.2455C326,-104.9382 326,-94.6944 326,-85.7046"/>
<polygon fill="#191970" stroke="#191970" points="329.5001,-85.6426 326,-75.6427 322.5001,-85.6427 329.5001,-85.6426"/>
</g>
<!-- Node22&#45;&gt;Node20 -->
<g id="edge26" class="edge">
<title>Node22&#45;&gt;Node20</title>
<path fill="none" stroke="#191970" d="M307.1878,-112.2455C290.1527,-103.4125 264.8425,-90.2887 245.5319,-80.2758"/>
<polygon fill="#191970" stroke="#191970" points="247.0853,-77.1388 236.5966,-75.6427 243.863,-83.353 247.0853,-77.1388"/>
</g>
<!-- Node23&#45;&gt;Node10 -->
<g id="edge28" class="edge">
<title>Node23&#45;&gt;Node10</title>
<path fill="none" stroke="#191970" d="M243.4187,-224.2455C259.0485,-215.4928 282.2019,-202.527 300.0185,-192.5496"/>
<polygon fill="#191970" stroke="#191970" points="301.766,-195.5825 308.7809,-187.6427 298.3457,-189.475 301.766,-195.5825"/>
</g>
<!-- Node24&#45;&gt;Node10 -->
<g id="edge30" class="edge">
<title>Node24&#45;&gt;Node10</title>
<path fill="none" stroke="#191970" d="M326,-224.2455C326,-216.9382 326,-206.6944 326,-197.7046"/>
<polygon fill="#191970" stroke="#191970" points="329.5001,-197.6426 326,-187.6427 322.5001,-197.6427 329.5001,-197.6426"/>
</g>
</g>
</svg>
        <g id="navigator" transform="translate(0 0)" fill="#404254">
                <rect fill="#f2f5e9" fill-opacity="0.5" stroke="#606060" stroke-width=".5" x="0" y="0" width="60" height="60"/>
                <use id="zoomplus" xlink:href="#zoomPlus" x="17" y="9" onmousedown="handleZoom(evt,'in')"/>
                <use id="zoomminus" xlink:href="#zoomMin" x="42" y="9" onmousedown="handleZoom(evt,'out')"/>
                <use id="reset" xlink:href="#resetDef" x="30" y="36" onmousedown="handleReset()"/>
                <g id="arrowUp" xlink:href="#dirArrow" transform="translate(30 24)" onmousedown="handlePan(0,-1)">
                  <use xlink:href="#rim" fill="#404040">
                        <set attributeName="fill" to="#808080" begin="arrowUp.mouseover" end="arrowUp.mouseout"/>
                  </use>
                  <path fill="none" stroke="white" stroke-width="1.5" d="M0,-3.0v7 M-2.5,-0.5L0,-3.0L2.5,-0.5"/>
                </g>
                <g id="arrowRight" xlink:href="#dirArrow" transform="rotate(90) translate(36 -43)" onmousedown="handlePan(1,0)">
                  <use xlink:href="#rim" fill="#404040">
                        <set attributeName="fill" to="#808080" begin="arrowRight.mouseover" end="arrowRight.mouseout"/>
                  </use>
                  <path fill="none" stroke="white" stroke-width="1.5" d="M0,-3.0v7 M-2.5,-0.5L0,-3.0L2.5,-0.5"/>
                </g>
                <g id="arrowDown" xlink:href="#dirArrow" transform="rotate(180) translate(-30 -48)" onmousedown="handlePan(0,1)">
                  <use xlink:href="#rim" fill="#404040">
                        <set attributeName="fill" to="#808080" begin="arrowDown.mouseover" end="arrowDown.mouseout"/>
                  </use>
                  <path fill="none" stroke="white" stroke-width="1.5" d="M0,-3.0v7 M-2.5,-0.5L0,-3.0L2.5,-0.5"/>
                </g>
                <g id="arrowLeft" xlink:href="#dirArrow" transform="rotate(270) translate(-36 17)" onmousedown="handlePan(-1,0)">
                  <use xlink:href="#rim" fill="#404040">
                        <set attributeName="fill" to="#808080" begin="arrowLeft.mouseover" end="arrowLeft.mouseout"/>
                  </use>
                  <path fill="none" stroke="white" stroke-width="1.5" d="M0,-3.0v7 M-2.5,-0.5L0,-3.0L2.5,-0.5"/>
                </g>
        </g>
        <svg viewBox="0 0 15 15" width="100%" height="30px" preserveAspectRatio="xMaxYMin meet">
         <g id="arrow_out" transform="scale(0.3 0.3)">
          <a xlink:href="pybind_2adders_2add__gyration__radius_8h__incl_org.svg" target="_base">
           <rect id="button" ry="5" rx="5" y="6" x="6" height="38" width="38"
                fill="#f2f5e9" fill-opacity="0.5" stroke="#606060" stroke-width="1.0"/>
           <path id="arrow"
             d="M 11.500037,31.436501 C 11.940474,20.09759 22.043105,11.32322 32.158766,21.979434 L 37.068811,17.246167 C 37.068811,17.246167 37.088388,32 37.088388,32 L 22.160133,31.978069 C 22.160133,31.978069 26.997745,27.140456 26.997745,27.140456 C 18.528582,18.264221 13.291696,25.230495 11.500037,31.436501 z"
             style="fill:#404040;"/>
          </a>
         </g>
        </svg>
</svg>
