<?xml version="1.0" encoding="UTF-8" standalone="no"?>
<!DOCTYPE svg PUBLIC "-//W3C//DTD SVG 1.1//EN"
 "http://www.w3.org/Graphics/SVG/1.1/DTD/svg11.dtd">
<!-- Generated by graphviz version 2.40.1 (20161225.0304)
 -->
<!-- Title: src/pybind/filters/filter.h Pages: 1 -->
<!--zoomable 218 -->
<svg id="main" version="1.1" xmlns="http://www.w3.org/2000/svg" xmlns:xlink="http://www.w3.org/1999/xlink" xml:space="preserve" onload="init(evt)">
<style type="text/css"><![CDATA[
.edge:hover path { stroke: red; }
.edge:hover polygon { stroke: red; fill: red; }
]]></style>
<script type="text/javascript"><![CDATA[
var edges = document.getElementsByTagName('g');
if (edges && edges.length) {
  for (var i=0;i<edges.length;i++) {
    if (edges[i].id.substr(0,4)=='edge') {
      edges[i].setAttribute('class','edge');
    }
  }
}
]]></script>
        <defs>
                <circle id="rim" cx="0" cy="0" r="7"/>
                <circle id="rim2" cx="0" cy="0" r="3.5"/>
                <g id="zoomPlus">
                        <use xlink:href="#rim" fill="#404040">
                                <set attributeName="fill" to="#808080" begin="zoomplus.mouseover" end="zoomplus.mouseout"/>
                        </use>
                        <path d="M-4,0h8M0,-4v8" fill="none" stroke="white" stroke-width="1.5" pointer-events="none"/>
                </g>
                <g id="zoomMin">
                        <use xlink:href="#rim" fill="#404040">
                                <set attributeName="fill" to="#808080" begin="zoomminus.mouseover" end="zoomminus.mouseout"/>
                        </use>
                        <path d="M-4,0h8" fill="none" stroke="white" stroke-width="1.5" pointer-events="none"/>
                </g>
                <g id="dirArrow">
                        <path fill="none" stroke="white" stroke-width="1.5" d="M0,-3.0v7 M-2.5,-0.5L0,-3.0L2.5,-0.5"/>
                </g>
               <g id="resetDef">
                       <use xlink:href="#rim2" fill="#404040">
                               <set attributeName="fill" to="#808080" begin="reset.mouseover" end="reset.mouseout"/>
                       </use>
               </g>
        </defs>

<script type="text/javascript">
var viewWidth = 557;
var viewHeight = 218;
var sectionId = 'dynsection-1';
</script>
<script xlink:href="svgpan.js"/>
<svg id="graph" class="graph">
<g id="viewport">
<title>src/pybind/filters/filter.h</title>
<polygon fill="#ffffff" stroke="transparent" points="-4,4 -4,-214 552.5,-214 552.5,4 -4,4"/>
<!-- Node23 -->
<g id="node1" class="node">
<title>Node23</title>
<polygon fill="#bfbfbf" stroke="#000000" points="241.5,-179.5 241.5,-209.5 330.5,-209.5 330.5,-179.5 241.5,-179.5"/>
<text text-anchor="start" x="249.5" y="-197.5" font-family="Helvetica,sans-Serif" font-size="10.00" fill="#000000">src/pybind/filters</text>
<text text-anchor="middle" x="286" y="-186.5" font-family="Helvetica,sans-Serif" font-size="10.00" fill="#000000">/filter.h</text>
</g>
<!-- Node23&#45;&gt;Node23 -->
<g id="edge7" class="edge">
<title>Node23&#45;&gt;Node23</title>
<path fill="none" stroke="#191970" d="M340.4682,-204.3191C345.3999,-202.2737 348.5,-199.0006 348.5,-194.5 348.5,-187.4746 340.9463,-183.4405 330.6631,-182.3977"/>
<polygon fill="#191970" stroke="#191970" points="339.6087,-200.9255 330.6631,-206.6023 341.1964,-207.7431 339.6087,-200.9255"/>
</g>
<!-- Node24 -->
<g id="node2" class="node">
<title>Node24</title>
<g id="a_node2"><a xlink:href="filters_2fil__comparison_8h.html" target="_top" xlink:title="src/filters/fil_comparison.h">
<polygon fill="#ffffff" stroke="#000000" points="10.5,-118 10.5,-137 141.5,-137 141.5,-118 10.5,-118"/>
<text text-anchor="middle" x="76" y="-125" font-family="Helvetica,sans-Serif" font-size="10.00" fill="#000000">src/filters/fil_comparison.h</text>
</a>
</g>
</g>
<!-- Node23&#45;&gt;Node24 -->
<g id="edge1" class="edge">
<title>Node23&#45;&gt;Node24</title>
<path fill="none" stroke="#191970" d="M231.8345,-177.2186C191.7535,-164.4309 138.647,-147.4874 105.9275,-137.0483"/>
<polygon fill="#191970" stroke="#191970" points="230.8737,-180.5858 241.4644,-180.291 233.0014,-173.917 230.8737,-180.5858"/>
</g>
<!-- Node26 -->
<g id="node4" class="node">
<title>Node26</title>
<g id="a_node4"><a xlink:href="filters_2fil__set_8h.html" target="_top" xlink:title="src/filters/fil_set.h">
<polygon fill="#ffffff" stroke="#000000" points="162.5,-118 162.5,-137 257.5,-137 257.5,-118 162.5,-118"/>
<text text-anchor="middle" x="210" y="-125" font-family="Helvetica,sans-Serif" font-size="10.00" fill="#000000">src/filters/fil_set.h</text>
</a>
</g>
</g>
<!-- Node23&#45;&gt;Node26 -->
<g id="edge3" class="edge">
<title>Node23&#45;&gt;Node26</title>
<path fill="none" stroke="#191970" d="M261.0908,-172.5406C247.4664,-160.5296 231.2842,-146.2637 220.8385,-137.055"/>
<polygon fill="#191970" stroke="#191970" points="258.9386,-175.3091 268.7544,-179.2967 263.5677,-170.0582 258.9386,-175.3091"/>
</g>
<!-- Node28 -->
<g id="node6" class="node">
<title>Node28</title>
<g id="a_node6"><a xlink:href="pybind_8h.html" target="_top" xlink:title="This file includes all the header files containing definitions of functions to bind C++ and Python...">
<polygon fill="#ffffff" stroke="#000000" points="325,-56.5 325,-75.5 395,-75.5 395,-56.5 325,-56.5"/>
<text text-anchor="middle" x="360" y="-63.5" font-family="Helvetica,sans-Serif" font-size="10.00" fill="#000000">src/pybind.h</text>
</a>
</g>
</g>
<!-- Node23&#45;&gt;Node28 -->
<g id="edge5" class="edge">
<title>Node23&#45;&gt;Node28</title>
<path fill="none" stroke="#191970" d="M287.6366,-169.0236C289.7131,-151.8499 294.4073,-129.265 305,-112 314.5043,-96.5091 331.0568,-83.7257 343.5269,-75.6001"/>
<polygon fill="#191970" stroke="#191970" points="284.11,-169.1228 286.6143,-179.4174 291.0764,-169.8081 284.11,-169.1228"/>
</g>
<!-- Node30 -->
<g id="node8" class="node">
<title>Node30</title>
<g id="a_node8"><a xlink:href="pybind_2filters_2fil__comparison_8h.html" target="_top" xlink:title="src/pybind/filters\l/fil_comparison.h">
<polygon fill="#ffffff" stroke="#000000" points="314.5,-112.5 314.5,-142.5 405.5,-142.5 405.5,-112.5 314.5,-112.5"/>
<text text-anchor="start" x="322.5" y="-130.5" font-family="Helvetica,sans-Serif" font-size="10.00" fill="#000000">src/pybind/filters</text>
<text text-anchor="middle" x="360" y="-119.5" font-family="Helvetica,sans-Serif" font-size="10.00" fill="#000000">/fil_comparison.h</text>
</a>
</g>
</g>
<!-- Node23&#45;&gt;Node30 -->
<g id="edge8" class="edge">
<title>Node23&#45;&gt;Node30</title>
<path fill="none" stroke="#191970" d="M310.3024,-172.4965C321.101,-162.7193 333.5418,-151.4554 343.2747,-142.6432"/>
<polygon fill="#191970" stroke="#191970" points="307.8556,-169.9903 302.7917,-179.2967 312.5539,-175.1794 307.8556,-169.9903"/>
</g>
<!-- Node31 -->
<g id="node9" class="node">
<title>Node31</title>
<g id="a_node9"><a xlink:href="pybind_2filters_2fil__set_8h.html" target="_top" xlink:title="src/pybind/filters\l/fil_set.h">
<polygon fill="#ffffff" stroke="#000000" points="441.5,-112.5 441.5,-142.5 530.5,-142.5 530.5,-112.5 441.5,-112.5"/>
<text text-anchor="start" x="449.5" y="-130.5" font-family="Helvetica,sans-Serif" font-size="10.00" fill="#000000">src/pybind/filters</text>
<text text-anchor="middle" x="486" y="-119.5" font-family="Helvetica,sans-Serif" font-size="10.00" fill="#000000">/fil_set.h</text>
</a>
</g>
</g>
<!-- Node23&#45;&gt;Node31 -->
<g id="edge11" class="edge">
<title>Node23&#45;&gt;Node31</title>
<path fill="none" stroke="#191970" d="M340.4346,-176.2644C372.0714,-165.6661 411.4474,-152.4751 441.2659,-142.4859"/>
<polygon fill="#191970" stroke="#191970" points="339.2542,-172.9686 330.8839,-179.4639 341.4778,-179.6061 339.2542,-172.9686"/>
</g>
<!-- Node25 -->
<g id="node3" class="node">
<title>Node25</title>
<g id="a_node3"><a xlink:href="fil__comparison_8cpp.html" target="_top" xlink:title="src/filters/fil_comparison.cpp">
<polygon fill="#ffffff" stroke="#000000" points="0,-56.5 0,-75.5 142,-75.5 142,-56.5 0,-56.5"/>
<text text-anchor="middle" x="71" y="-63.5" font-family="Helvetica,sans-Serif" font-size="10.00" fill="#000000">src/filters/fil_comparison.cpp</text>
</a>
</g>
</g>
<!-- Node24&#45;&gt;Node25 -->
<g id="edge2" class="edge">
<title>Node24&#45;&gt;Node25</title>
<path fill="none" stroke="#191970" d="M74.394,-107.7462C73.5245,-97.0519 72.4889,-84.314 71.7923,-75.7449"/>
<polygon fill="#191970" stroke="#191970" points="70.9198,-108.2072 75.2188,-117.8906 77.8968,-107.6399 70.9198,-108.2072"/>
</g>
<!-- Node27 -->
<g id="node5" class="node">
<title>Node27</title>
<g id="a_node5"><a xlink:href="fil__set_8cpp.html" target="_top" xlink:title="src/filters/fil_set.cpp">
<polygon fill="#ffffff" stroke="#000000" points="160.5,-56.5 160.5,-75.5 265.5,-75.5 265.5,-56.5 160.5,-56.5"/>
<text text-anchor="middle" x="213" y="-63.5" font-family="Helvetica,sans-Serif" font-size="10.00" fill="#000000">src/filters/fil_set.cpp</text>
</a>
</g>
</g>
<!-- Node26&#45;&gt;Node27 -->
<g id="edge4" class="edge">
<title>Node26&#45;&gt;Node27</title>
<path fill="none" stroke="#191970" d="M210.9636,-107.7462C211.4853,-97.0519 212.1066,-84.314 212.5246,-75.7449"/>
<polygon fill="#191970" stroke="#191970" points="207.4602,-107.7319 210.4688,-117.8906 214.4519,-108.0731 207.4602,-107.7319"/>
</g>
<!-- Node29 -->
<g id="node7" class="node">
<title>Node29</title>
<g id="a_node7"><a xlink:href="ppap4lmp_8cpp.html" target="_top" xlink:title="This file has no implementation, only includes a header file to bind C++ and Python. ">
<polygon fill="#ffffff" stroke="#000000" points="313,-.5 313,-19.5 407,-19.5 407,-.5 313,-.5"/>
<text text-anchor="middle" x="360" y="-7.5" font-family="Helvetica,sans-Serif" font-size="10.00" fill="#000000">src/ppap4lmp.cpp</text>
</a>
</g>
</g>
<!-- Node28&#45;&gt;Node29 -->
<g id="edge6" class="edge">
<title>Node28&#45;&gt;Node29</title>
<path fill="none" stroke="#191970" d="M360,-46.1575C360,-37.155 360,-26.9199 360,-19.6427"/>
<polygon fill="#191970" stroke="#191970" points="356.5001,-46.2455 360,-56.2455 363.5001,-46.2456 356.5001,-46.2455"/>
</g>
<!-- Node30&#45;&gt;Node28 -->
<g id="edge9" class="edge">
<title>Node30&#45;&gt;Node28</title>
<path fill="none" stroke="#191970" d="M360,-102.2849C360,-92.9858 360,-82.9883 360,-75.8469"/>
<polygon fill="#191970" stroke="#191970" points="356.5001,-102.2977 360,-112.2977 363.5001,-102.2978 356.5001,-102.2977"/>
</g>
<!-- Node30&#45;&gt;Node30 -->
<g id="edge10" class="edge">
<title>Node30&#45;&gt;Node30</title>
<path fill="none" stroke="#191970" d="M415.4771,-136.375C420.4079,-134.5123 423.5,-131.554 423.5,-127.5 423.5,-121.1719 415.9656,-117.5134 405.6646,-116.5247"/>
<polygon fill="#191970" stroke="#191970" points="414.7105,-132.9597 405.6646,-138.4753 416.1757,-139.8046 414.7105,-132.9597"/>
</g>
<!-- Node31&#45;&gt;Node28 -->
<g id="edge12" class="edge">
<title>Node31&#45;&gt;Node28</title>
<path fill="none" stroke="#191970" d="M445.9776,-107.9653C423.7927,-97.1369 397.2027,-84.1585 379.5255,-75.5303"/>
<polygon fill="#191970" stroke="#191970" points="444.655,-111.2143 455.1769,-112.4554 447.7255,-104.9237 444.655,-111.2143"/>
</g>
<!-- Node31&#45;&gt;Node31 -->
<g id="edge13" class="edge">
<title>Node31&#45;&gt;Node31</title>
<path fill="none" stroke="#191970" d="M540.4682,-136.4264C545.3999,-134.567 548.5,-131.5915 548.5,-127.5 548.5,-121.1133 540.9463,-117.4459 530.6631,-116.4979"/>
<polygon fill="#191970" stroke="#191970" points="539.7214,-133.0069 530.6631,-138.5021 541.1712,-139.8551 539.7214,-133.0069"/>
</g>
</g>
</svg>
        <g id="navigator" transform="translate(0 0)" fill="#404254">
                <rect fill="#f2f5e9" fill-opacity="0.5" stroke="#606060" stroke-width=".5" x="0" y="0" width="60" height="60"/>
                <use id="zoomplus" xlink:href="#zoomPlus" x="17" y="9" onmousedown="handleZoom(evt,'in')"/>
                <use id="zoomminus" xlink:href="#zoomMin" x="42" y="9" onmousedown="handleZoom(evt,'out')"/>
                <use id="reset" xlink:href="#resetDef" x="30" y="36" onmousedown="handleReset()"/>
                <g id="arrowUp" xlink:href="#dirArrow" transform="translate(30 24)" onmousedown="handlePan(0,-1)">
                  <use xlink:href="#rim" fill="#404040">
                        <set attributeName="fill" to="#808080" begin="arrowUp.mouseover" end="arrowUp.mouseout"/>
                  </use>
                  <path fill="none" stroke="white" stroke-width="1.5" d="M0,-3.0v7 M-2.5,-0.5L0,-3.0L2.5,-0.5"/>
                </g>
                <g id="arrowRight" xlink:href="#dirArrow" transform="rotate(90) translate(36 -43)" onmousedown="handlePan(1,0)">
                  <use xlink:href="#rim" fill="#404040">
                        <set attributeName="fill" to="#808080" begin="arrowRight.mouseover" end="arrowRight.mouseout"/>
                  </use>
                  <path fill="none" stroke="white" stroke-width="1.5" d="M0,-3.0v7 M-2.5,-0.5L0,-3.0L2.5,-0.5"/>
                </g>
                <g id="arrowDown" xlink:href="#dirArrow" transform="rotate(180) translate(-30 -48)" onmousedown="handlePan(0,1)">
                  <use xlink:href="#rim" fill="#404040">
                        <set attributeName="fill" to="#808080" begin="arrowDown.mouseover" end="arrowDown.mouseout"/>
                  </use>
                  <path fill="none" stroke="white" stroke-width="1.5" d="M0,-3.0v7 M-2.5,-0.5L0,-3.0L2.5,-0.5"/>
                </g>
                <g id="arrowLeft" xlink:href="#dirArrow" transform="rotate(270) translate(-36 17)" onmousedown="handlePan(-1,0)">
                  <use xlink:href="#rim" fill="#404040">
                        <set attributeName="fill" to="#808080" begin="arrowLeft.mouseover" end="arrowLeft.mouseout"/>
                  </use>
                  <path fill="none" stroke="white" stroke-width="1.5" d="M0,-3.0v7 M-2.5,-0.5L0,-3.0L2.5,-0.5"/>
                </g>
        </g>
        <svg viewBox="0 0 15 15" width="100%" height="30px" preserveAspectRatio="xMaxYMin meet">
         <g id="arrow_out" transform="scale(0.3 0.3)">
          <a xlink:href="pybind_2filters_2filter_8h__dep__incl_org.svg" target="_base">
           <rect id="button" ry="5" rx="5" y="6" x="6" height="38" width="38"
                fill="#f2f5e9" fill-opacity="0.5" stroke="#606060" stroke-width="1.0"/>
           <path id="arrow"
             d="M 11.500037,31.436501 C 11.940474,20.09759 22.043105,11.32322 32.158766,21.979434 L 37.068811,17.246167 C 37.068811,17.246167 37.088388,32 37.088388,32 L 22.160133,31.978069 C 22.160133,31.978069 26.997745,27.140456 26.997745,27.140456 C 18.528582,18.264221 13.291696,25.230495 11.500037,31.436501 z"
             style="fill:#404040;"/>
          </a>
         </g>
        </svg>
</svg>
