<?xml version="1.0" encoding="UTF-8" standalone="no"?>
<!DOCTYPE svg PUBLIC "-//W3C//DTD SVG 1.1//EN"
 "http://www.w3.org/Graphics/SVG/1.1/DTD/svg11.dtd">
<!-- Generated by graphviz version 2.40.1 (20161225.0304)
 -->
<!-- Title: src/pybind/py_adders/adder.h Pages: 1 -->
<!--zoomable 229 -->
<svg id="main" version="1.1" xmlns="http://www.w3.org/2000/svg" xmlns:xlink="http://www.w3.org/1999/xlink" xml:space="preserve" onload="init(evt)">
<style type="text/css"><![CDATA[
.edge:hover path { stroke: red; }
.edge:hover polygon { stroke: red; fill: red; }
]]></style>
<script type="text/javascript"><![CDATA[
var edges = document.getElementsByTagName('g');
if (edges && edges.length) {
  for (var i=0;i<edges.length;i++) {
    if (edges[i].id.substr(0,4)=='edge') {
      edges[i].setAttribute('class','edge');
    }
  }
}
]]></script>
        <defs>
                <circle id="rim" cx="0" cy="0" r="7"/>
                <circle id="rim2" cx="0" cy="0" r="3.5"/>
                <g id="zoomPlus">
                        <use xlink:href="#rim" fill="#404040">
                                <set attributeName="fill" to="#808080" begin="zoomplus.mouseover" end="zoomplus.mouseout"/>
                        </use>
                        <path d="M-4,0h8M0,-4v8" fill="none" stroke="white" stroke-width="1.5" pointer-events="none"/>
                </g>
                <g id="zoomMin">
                        <use xlink:href="#rim" fill="#404040">
                                <set attributeName="fill" to="#808080" begin="zoomminus.mouseover" end="zoomminus.mouseout"/>
                        </use>
                        <path d="M-4,0h8" fill="none" stroke="white" stroke-width="1.5" pointer-events="none"/>
                </g>
                <g id="dirArrow">
                        <path fill="none" stroke="white" stroke-width="1.5" d="M0,-3.0v7 M-2.5,-0.5L0,-3.0L2.5,-0.5"/>
                </g>
               <g id="resetDef">
                       <use xlink:href="#rim2" fill="#404040">
                               <set attributeName="fill" to="#808080" begin="reset.mouseover" end="reset.mouseout"/>
                       </use>
               </g>
        </defs>

<script type="text/javascript">
var viewWidth = 2897;
var viewHeight = 229;
var sectionId = 'dynsection-1';
</script>
<script xlink:href="svgpan.js"/>
<svg id="graph" class="graph">
<g id="viewport">
<title>src/pybind/py_adders/adder.h</title>
<polygon fill="#ffffff" stroke="transparent" points="-4,4 -4,-225 2892.5,-225 2892.5,4 -4,4"/>
<!-- Node23 -->
<g id="node1" class="node">
<title>Node23</title>
<polygon fill="#bfbfbf" stroke="#000000" points="1300.5,-190.5 1300.5,-220.5 1410.5,-220.5 1410.5,-190.5 1300.5,-190.5"/>
<text text-anchor="start" x="1308.5" y="-208.5" font-family="Helvetica,sans-Serif" font-size="10.00" fill="#000000">src/pybind/py_adders</text>
<text text-anchor="middle" x="1355.5" y="-197.5" font-family="Helvetica,sans-Serif" font-size="10.00" fill="#000000">/adder.h</text>
</g>
<!-- Node23&#45;&gt;Node23 -->
<g id="edge23" class="edge">
<title>Node23&#45;&gt;Node23</title>
<path fill="none" stroke="#191970" d="M1420.5011,-214.7873C1425.4524,-212.7248 1428.5,-209.629 1428.5,-205.5 1428.5,-199.0547 1421.0741,-195.1271 1410.5733,-193.7172"/>
<polygon fill="#191970" stroke="#191970" points="1419.4183,-211.4505 1410.5733,-217.2828 1421.1249,-218.2393 1419.4183,-211.4505"/>
</g>
<!-- Node24 -->
<g id="node2" class="node">
<title>Node24</title>
<g id="a_node2"><a xlink:href="adders_2add__child__ids_8h.html" target="_top" xlink:title="This file has a definition of the AddChildIDs class, which is a subclass of the Adder class...">
<polygon fill="#ffffff" stroke="#000000" points="0,-123.5 0,-153.5 107,-153.5 107,-123.5 0,-123.5"/>
<text text-anchor="start" x="8" y="-141.5" font-family="Helvetica,sans-Serif" font-size="10.00" fill="#000000">src/adders/add_child</text>
<text text-anchor="middle" x="53.5" y="-130.5" font-family="Helvetica,sans-Serif" font-size="10.00" fill="#000000">_ids.h</text>
</a>
</g>
</g>
<!-- Node23&#45;&gt;Node24 -->
<g id="edge1" class="edge">
<title>Node23&#45;&gt;Node24</title>
<path fill="none" stroke="#191970" d="M1290.0899,-204.5393C1068.244,-201.0062 345.4985,-187.173 115.5,-154 112.7546,-153.604 109.9542,-153.1376 107.1356,-152.6182"/>
<polygon fill="#191970" stroke="#191970" points="1290.2175,-208.0417 1300.2714,-204.6998 1290.3279,-201.0426 1290.2175,-208.0417"/>
</g>
<!-- Node26 -->
<g id="node4" class="node">
<title>Node26</title>
<g id="a_node4"><a xlink:href="adders_2add__child__positions_8h.html" target="_top" xlink:title="This file has a definition of the AddChildPositions class, which is a subclass of the Adder class...">
<polygon fill="#ffffff" stroke="#000000" points="125,-123.5 125,-153.5 232,-153.5 232,-123.5 125,-123.5"/>
<text text-anchor="start" x="133" y="-141.5" font-family="Helvetica,sans-Serif" font-size="10.00" fill="#000000">src/adders/add_child</text>
<text text-anchor="middle" x="178.5" y="-130.5" font-family="Helvetica,sans-Serif" font-size="10.00" fill="#000000">_positions.h</text>
</a>
</g>
</g>
<!-- Node23&#45;&gt;Node26 -->
<g id="edge3" class="edge">
<title>Node23&#45;&gt;Node26</title>
<path fill="none" stroke="#191970" d="M1290.1369,-204.1877C1083.361,-199.7676 445.077,-183.9918 240.5,-154 237.7555,-153.5977 234.9558,-153.1261 232.1378,-152.6026"/>
<polygon fill="#191970" stroke="#191970" points="1290.1641,-207.689 1300.2361,-204.4019 1290.3126,-200.6906 1290.1641,-207.689"/>
</g>
<!-- Node28 -->
<g id="node6" class="node">
<title>Node28</title>
<g id="a_node6"><a xlink:href="adders_2add__com__position_8h.html" target="_top" xlink:title="This file has a definition of the AddCoMPosition class, which is a subclass of the Adder class...">
<polygon fill="#ffffff" stroke="#000000" points="250,-123.5 250,-153.5 355,-153.5 355,-123.5 250,-123.5"/>
<text text-anchor="start" x="258" y="-141.5" font-family="Helvetica,sans-Serif" font-size="10.00" fill="#000000">src/adders/add_com</text>
<text text-anchor="middle" x="302.5" y="-130.5" font-family="Helvetica,sans-Serif" font-size="10.00" fill="#000000">_position.h</text>
</a>
</g>
</g>
<!-- Node23&#45;&gt;Node28 -->
<g id="edge5" class="edge">
<title>Node23&#45;&gt;Node28</title>
<path fill="none" stroke="#191970" d="M1290.3105,-203.7928C1099.3101,-198.5251 543.1713,-181.2191 363.5,-154 360.7991,-153.5908 358.044,-153.1138 355.271,-152.586"/>
<polygon fill="#191970" stroke="#191970" points="1290.3855,-207.2961 1300.4776,-204.0713 1290.5772,-200.2987 1290.3855,-207.2961"/>
</g>
<!-- Node30 -->
<g id="node8" class="node">
<title>Node30</title>
<g id="a_node8"><a xlink:href="adders_2add__gyration__radius_8h.html" target="_top" xlink:title="This file has a definition of the AddGyrationRadius class, which is a subclass of the Adder class...">
<polygon fill="#ffffff" stroke="#000000" points="373,-123.5 373,-153.5 494,-153.5 494,-123.5 373,-123.5"/>
<text text-anchor="start" x="381" y="-141.5" font-family="Helvetica,sans-Serif" font-size="10.00" fill="#000000">src/adders/add_gyration</text>
<text text-anchor="middle" x="433.5" y="-130.5" font-family="Helvetica,sans-Serif" font-size="10.00" fill="#000000">_radius.h</text>
</a>
</g>
</g>
<!-- Node23&#45;&gt;Node30 -->
<g id="edge7" class="edge">
<title>Node23&#45;&gt;Node30</title>
<path fill="none" stroke="#191970" d="M1290.2476,-202.8895C1118.2488,-195.7949 655.3163,-175.2615 503.5,-154 500.4183,-153.5684 497.2709,-153.0733 494.1001,-152.5312"/>
<polygon fill="#191970" stroke="#191970" points="1290.284,-206.3939 1300.4193,-203.3074 1290.5714,-199.3998 1290.284,-206.3939"/>
</g>
<!-- Node32 -->
<g id="node10" class="node">
<title>Node32</title>
<g id="a_node10"><a xlink:href="adders_2add__inertia__moment_8h.html" target="_top" xlink:title="This file has a definition of the AddInertiaMoment class, which is a subclass of the Adder class...">
<polygon fill="#ffffff" stroke="#000000" points="513,-123.5 513,-153.5 626,-153.5 626,-123.5 513,-123.5"/>
<text text-anchor="start" x="521" y="-141.5" font-family="Helvetica,sans-Serif" font-size="10.00" fill="#000000">src/adders/add_inertia</text>
<text text-anchor="middle" x="569.5" y="-130.5" font-family="Helvetica,sans-Serif" font-size="10.00" fill="#000000">_moment.h</text>
</a>
</g>
</g>
<!-- Node23&#45;&gt;Node32 -->
<g id="edge9" class="edge">
<title>Node23&#45;&gt;Node32</title>
<path fill="none" stroke="#191970" d="M1289.9378,-204.138C1163.2272,-200.7687 876.1555,-189.5466 637.5,-154 633.7874,-153.447 629.9767,-152.8007 626.1463,-152.0917"/>
<polygon fill="#191970" stroke="#191970" points="1290.1524,-207.6446 1300.2394,-204.4039 1290.3331,-200.6469 1290.1524,-207.6446"/>
</g>
<!-- Node34 -->
<g id="node12" class="node">
<title>Node34</title>
<g id="a_node12"><a xlink:href="adders_2add__map_8h.html" target="_top" xlink:title="This file has a definition of the AddMap class, which is a subclass of the Adder class. ">
<polygon fill="#ffffff" stroke="#000000" points="647,-129 647,-148 760,-148 760,-129 647,-129"/>
<text text-anchor="middle" x="703.5" y="-136" font-family="Helvetica,sans-Serif" font-size="10.00" fill="#000000">src/adders/add_map.h</text>
</a>
</g>
</g>
<!-- Node23&#45;&gt;Node34 -->
<g id="edge11" class="edge">
<title>Node23&#45;&gt;Node34</title>
<path fill="none" stroke="#191970" d="M1290.0885,-202.8072C1181.4158,-197.6512 957.0575,-184.107 769.5,-154 759.8543,-152.4517 749.5255,-150.278 739.9704,-148.0473"/>
<polygon fill="#191970" stroke="#191970" points="1290.0868,-206.3109 1300.2389,-203.2803 1290.4128,-199.3184 1290.0868,-206.3109"/>
</g>
<!-- Node36 -->
<g id="node14" class="node">
<title>Node36</title>
<g id="a_node14"><a xlink:href="adders_2add__molecular__orientation_8h.html" target="_top" xlink:title="This file has a definition of the AddMolecularOrientation class, which is a subclass of the Adder cla...">
<polygon fill="#ffffff" stroke="#000000" points="778.5,-123.5 778.5,-153.5 906.5,-153.5 906.5,-123.5 778.5,-123.5"/>
<text text-anchor="start" x="786.5" y="-141.5" font-family="Helvetica,sans-Serif" font-size="10.00" fill="#000000">src/adders/add_molecular</text>
<text text-anchor="middle" x="842.5" y="-130.5" font-family="Helvetica,sans-Serif" font-size="10.00" fill="#000000">_orientation.h</text>
</a>
</g>
</g>
<!-- Node23&#45;&gt;Node36 -->
<g id="edge13" class="edge">
<title>Node23&#45;&gt;Node36</title>
<path fill="none" stroke="#191970" d="M1290.2431,-199.769C1204.1002,-191.7683 1047.8643,-175.7506 915.5,-154 912.5595,-153.5168 909.5582,-152.9953 906.5306,-152.4463"/>
<polygon fill="#191970" stroke="#191970" points="1290.1155,-203.272 1300.3946,-200.7048 1290.7581,-196.3015 1290.1155,-203.272"/>
</g>
<!-- Node38 -->
<g id="node16" class="node">
<title>Node38</title>
<g id="a_node16"><a xlink:href="adders_2add__rename_8h.html" target="_top" xlink:title="This file has a definition of the AddRename class, which is a subclass of the Adder class...">
<polygon fill="#ffffff" stroke="#000000" points="925,-129 925,-148 1052,-148 1052,-129 925,-129"/>
<text text-anchor="middle" x="988.5" y="-136" font-family="Helvetica,sans-Serif" font-size="10.00" fill="#000000">src/adders/add_rename.h</text>
</a>
</g>
</g>
<!-- Node23&#45;&gt;Node38 -->
<g id="edge15" class="edge">
<title>Node23&#45;&gt;Node38</title>
<path fill="none" stroke="#191970" d="M1290.401,-194.8885C1230.5362,-184.9515 1139.3715,-169.3681 1060.5,-154 1051.0872,-152.1659 1041.01,-150.0761 1031.4654,-148.0379"/>
<polygon fill="#191970" stroke="#191970" points="1290.0306,-198.3747 1300.468,-196.5552 1291.1741,-191.4687 1290.0306,-198.3747"/>
</g>
<!-- Node40 -->
<g id="node18" class="node">
<title>Node40</title>
<g id="a_node18"><a xlink:href="adders_2add__special__bonds_8h.html" target="_top" xlink:title="This file has a definition of the AddSpecialBonds class, which is a subclass of the Adder class...">
<polygon fill="#ffffff" stroke="#000000" points="1070,-123.5 1070,-153.5 1187,-153.5 1187,-123.5 1070,-123.5"/>
<text text-anchor="start" x="1078" y="-141.5" font-family="Helvetica,sans-Serif" font-size="10.00" fill="#000000">src/adders/add_special</text>
<text text-anchor="middle" x="1128.5" y="-130.5" font-family="Helvetica,sans-Serif" font-size="10.00" fill="#000000">_bonds.h</text>
</a>
</g>
</g>
<!-- Node23&#45;&gt;Node40 -->
<g id="edge17" class="edge">
<title>Node23&#45;&gt;Node40</title>
<path fill="none" stroke="#191970" d="M1294.679,-187.5484C1258.748,-176.9432 1213.7656,-163.6665 1179.6654,-153.6017"/>
<polygon fill="#191970" stroke="#191970" points="1293.975,-190.9898 1304.5568,-190.4639 1295.9566,-184.2762 1293.975,-190.9898"/>
</g>
<!-- Node42 -->
<g id="node20" class="node">
<title>Node42</title>
<g id="a_node20"><a xlink:href="adders_2add__wrapped__position_8h.html" target="_top" xlink:title="This file has a definition of the AddWrappedPosition class, which is a subclass of the Adder class...">
<polygon fill="#ffffff" stroke="#000000" points="1205.5,-123.5 1205.5,-153.5 1327.5,-153.5 1327.5,-123.5 1205.5,-123.5"/>
<text text-anchor="start" x="1213.5" y="-141.5" font-family="Helvetica,sans-Serif" font-size="10.00" fill="#000000">src/adders/add_wrapped</text>
<text text-anchor="middle" x="1266.5" y="-130.5" font-family="Helvetica,sans-Serif" font-size="10.00" fill="#000000">_position.h</text>
</a>
</g>
</g>
<!-- Node23&#45;&gt;Node42 -->
<g id="edge19" class="edge">
<title>Node23&#45;&gt;Node42</title>
<path fill="none" stroke="#191970" d="M1327.0257,-184.0643C1313.8662,-174.1577 1298.5487,-162.6265 1286.6156,-153.6432"/>
<polygon fill="#191970" stroke="#191970" points="1325.2103,-187.0785 1335.3045,-190.2967 1329.4203,-181.486 1325.2103,-187.0785"/>
</g>
<!-- Node44 -->
<g id="node22" class="node">
<title>Node44</title>
<g id="a_node22"><a xlink:href="pybind_8h.html" target="_top" xlink:title="This file includes all the header files containing definitions of functions to bind C++ and Python...">
<polygon fill="#ffffff" stroke="#000000" points="1991.5,-62 1991.5,-81 2061.5,-81 2061.5,-62 1991.5,-62"/>
<text text-anchor="middle" x="2026.5" y="-69" font-family="Helvetica,sans-Serif" font-size="10.00" fill="#000000">src/pybind.h</text>
</a>
</g>
</g>
<!-- Node23&#45;&gt;Node44 -->
<g id="edge21" class="edge">
<title>Node23&#45;&gt;Node44</title>
<path fill="none" stroke="#191970" d="M1354.0189,-180.121C1354.4295,-161.4071 1358.4032,-136.8814 1374.5,-123 1421.4176,-82.5396 1862.2255,-73.636 1991.2092,-71.8899"/>
<polygon fill="#191970" stroke="#191970" points="1350.5213,-180.38 1354.1242,-190.3434 1357.5209,-180.3079 1350.5213,-180.38"/>
</g>
<!-- Node46 -->
<g id="node24" class="node">
<title>Node46</title>
<g id="a_node24"><a xlink:href="pybind_2py__adders_2add__map_8h.html" target="_top" xlink:title="This file has a function to bind AddMap class to Python. ">
<polygon fill="#ffffff" stroke="#000000" points="1383.5,-123.5 1383.5,-153.5 1493.5,-153.5 1493.5,-123.5 1383.5,-123.5"/>
<text text-anchor="start" x="1391.5" y="-141.5" font-family="Helvetica,sans-Serif" font-size="10.00" fill="#000000">src/pybind/py_adders</text>
<text text-anchor="middle" x="1438.5" y="-130.5" font-family="Helvetica,sans-Serif" font-size="10.00" fill="#000000">/add_map.h</text>
</a>
</g>
</g>
<!-- Node23&#45;&gt;Node46 -->
<g id="edge24" class="edge">
<title>Node23&#45;&gt;Node46</title>
<path fill="none" stroke="#191970" d="M1382.4058,-183.7808C1394.5988,-173.9383 1408.7179,-162.541 1419.7405,-153.6432"/>
<polygon fill="#191970" stroke="#191970" points="1379.9168,-181.292 1374.334,-190.2967 1384.3136,-186.7389 1379.9168,-181.292"/>
</g>
<!-- Node47 -->
<g id="node25" class="node">
<title>Node47</title>
<g id="a_node25"><a xlink:href="pybind_2py__adders_2add__rename_8h.html" target="_top" xlink:title="This file has a function to bind AddRename class to Python. ">
<polygon fill="#ffffff" stroke="#000000" points="1529.5,-123.5 1529.5,-153.5 1639.5,-153.5 1639.5,-123.5 1529.5,-123.5"/>
<text text-anchor="start" x="1537.5" y="-141.5" font-family="Helvetica,sans-Serif" font-size="10.00" fill="#000000">src/pybind/py_adders</text>
<text text-anchor="middle" x="1584.5" y="-130.5" font-family="Helvetica,sans-Serif" font-size="10.00" fill="#000000">/add_rename.h</text>
</a>
</g>
</g>
<!-- Node23&#45;&gt;Node47 -->
<g id="edge27" class="edge">
<title>Node23&#45;&gt;Node47</title>
<path fill="none" stroke="#191970" d="M1416.8569,-187.5484C1453.1045,-176.9432 1498.4831,-163.6665 1532.8838,-153.6017"/>
<polygon fill="#191970" stroke="#191970" points="1415.5069,-184.2966 1406.8921,-190.4639 1417.4726,-191.015 1415.5069,-184.2966"/>
</g>
<!-- Node48 -->
<g id="node26" class="node">
<title>Node48</title>
<g id="a_node26"><a xlink:href="pybind_2py__adders_2add__child__ids_8h.html" target="_top" xlink:title="This file has a function to bind AddChildIDs class to Python. ">
<polygon fill="#ffffff" stroke="#000000" points="1675.5,-123.5 1675.5,-153.5 1785.5,-153.5 1785.5,-123.5 1675.5,-123.5"/>
<text text-anchor="start" x="1683.5" y="-141.5" font-family="Helvetica,sans-Serif" font-size="10.00" fill="#000000">src/pybind/py_adders</text>
<text text-anchor="middle" x="1730.5" y="-130.5" font-family="Helvetica,sans-Serif" font-size="10.00" fill="#000000">/add_child_ids.h</text>
</a>
</g>
</g>
<!-- Node23&#45;&gt;Node48 -->
<g id="edge30" class="edge">
<title>Node23&#45;&gt;Node48</title>
<path fill="none" stroke="#191970" d="M1420.987,-196.0866C1484.1013,-186.6772 1582.172,-171.1696 1666.5,-154 1669.4126,-153.407 1672.3938,-152.7745 1675.3996,-152.1168"/>
<polygon fill="#191970" stroke="#191970" points="1420.1579,-192.6712 1410.7797,-197.6006 1421.185,-199.5955 1420.1579,-192.6712"/>
</g>
<!-- Node49 -->
<g id="node27" class="node">
<title>Node49</title>
<g id="a_node27"><a xlink:href="pybind_2py__adders_2add__child__positions_8h.html" target="_top" xlink:title="This file has a function to bind AddChildPositions class to Python. ">
<polygon fill="#ffffff" stroke="#000000" points="1822,-123.5 1822,-153.5 1935,-153.5 1935,-123.5 1822,-123.5"/>
<text text-anchor="start" x="1830" y="-141.5" font-family="Helvetica,sans-Serif" font-size="10.00" fill="#000000">src/pybind/py_adders</text>
<text text-anchor="middle" x="1878.5" y="-130.5" font-family="Helvetica,sans-Serif" font-size="10.00" fill="#000000">/add_child_positions.h</text>
</a>
</g>
</g>
<!-- Node23&#45;&gt;Node49 -->
<g id="edge33" class="edge">
<title>Node23&#45;&gt;Node49</title>
<path fill="none" stroke="#191970" d="M1420.8825,-200.5827C1509.9005,-193.3307 1674.0136,-177.9779 1812.5,-154 1815.5154,-153.4779 1818.599,-152.902 1821.706,-152.2886"/>
<polygon fill="#191970" stroke="#191970" points="1420.3546,-197.1138 1410.6682,-201.4061 1420.9171,-204.0912 1420.3546,-197.1138"/>
</g>
<!-- Node50 -->
<g id="node28" class="node">
<title>Node50</title>
<g id="a_node28"><a xlink:href="pybind_2py__adders_2add__com__position_8h.html" target="_top" xlink:title="This file has a function to bind AddCoMPosition class to Python. ">
<polygon fill="#ffffff" stroke="#000000" points="1971.5,-123.5 1971.5,-153.5 2081.5,-153.5 2081.5,-123.5 1971.5,-123.5"/>
<text text-anchor="start" x="1979.5" y="-141.5" font-family="Helvetica,sans-Serif" font-size="10.00" fill="#000000">src/pybind/py_adders</text>
<text text-anchor="middle" x="2026.5" y="-130.5" font-family="Helvetica,sans-Serif" font-size="10.00" fill="#000000">/add_com_position.h</text>
</a>
</g>
</g>
<!-- Node23&#45;&gt;Node50 -->
<g id="edge36" class="edge">
<title>Node23&#45;&gt;Node50</title>
<path fill="none" stroke="#191970" d="M1420.6396,-203.155C1532.0622,-198.4332 1766.1388,-185.414 1961.5,-154 1964.7071,-153.4843 1967.9903,-152.896 1971.2945,-152.2571"/>
<polygon fill="#191970" stroke="#191970" points="1420.414,-199.6612 1410.5678,-203.5732 1420.7045,-206.6552 1420.414,-199.6612"/>
</g>
<!-- Node51 -->
<g id="node29" class="node">
<title>Node51</title>
<g id="a_node29"><a xlink:href="pybind_2py__adders_2add__gyration__radius_8h.html" target="_top" xlink:title="This file has a function to bind AddGyrationRadius class to Python. ">
<polygon fill="#ffffff" stroke="#000000" points="2118,-123.5 2118,-153.5 2233,-153.5 2233,-123.5 2118,-123.5"/>
<text text-anchor="start" x="2126" y="-141.5" font-family="Helvetica,sans-Serif" font-size="10.00" fill="#000000">src/pybind/py_adders</text>
<text text-anchor="middle" x="2175.5" y="-130.5" font-family="Helvetica,sans-Serif" font-size="10.00" fill="#000000">/add_gyration_radius.h</text>
</a>
</g>
</g>
<!-- Node23&#45;&gt;Node51 -->
<g id="edge39" class="edge">
<title>Node23&#45;&gt;Node51</title>
<path fill="none" stroke="#191970" d="M1420.8892,-204.5198C1552.0098,-201.7865 1856.1234,-191.5792 2108.5,-154 2111.5703,-153.5428 2114.7081,-153.0186 2117.8679,-152.4457"/>
<polygon fill="#191970" stroke="#191970" points="1420.5493,-201.0259 1410.6216,-204.7259 1420.6898,-208.0244 1420.5493,-201.0259"/>
</g>
<!-- Node52 -->
<g id="node30" class="node">
<title>Node52</title>
<g id="a_node30"><a xlink:href="pybind_2py__adders_2add__inertia__moment_8h.html" target="_top" xlink:title="This file has a function to bind AddInertiaMoment class to Python. ">
<polygon fill="#ffffff" stroke="#000000" points="2269.5,-123.5 2269.5,-153.5 2385.5,-153.5 2385.5,-123.5 2269.5,-123.5"/>
<text text-anchor="start" x="2277.5" y="-141.5" font-family="Helvetica,sans-Serif" font-size="10.00" fill="#000000">src/pybind/py_adders</text>
<text text-anchor="middle" x="2327.5" y="-130.5" font-family="Helvetica,sans-Serif" font-size="10.00" fill="#000000">/add_inertia_moment.h</text>
</a>
</g>
</g>
<!-- Node23&#45;&gt;Node52 -->
<g id="edge42" class="edge">
<title>Node23&#45;&gt;Node52</title>
<path fill="none" stroke="#191970" d="M1420.7553,-203.2342C1600.1374,-196.7748 2098.1292,-177.2285 2260.5,-154 2263.3365,-153.5942 2266.2301,-153.1283 2269.145,-152.617"/>
<polygon fill="#191970" stroke="#191970" points="1420.5417,-199.7395 1410.6735,-203.5955 1420.7925,-206.735 1420.5417,-199.7395"/>
</g>
<!-- Node53 -->
<g id="node31" class="node">
<title>Node53</title>
<g id="a_node31"><a xlink:href="pybind_2py__adders_2add__molecular__orientation_8h.html" target="_top" xlink:title="This file has a function to bind AddMolecularOrientation class to Python. ">
<polygon fill="#ffffff" stroke="#000000" points="2422,-123.5 2422,-153.5 2563,-153.5 2563,-123.5 2422,-123.5"/>
<text text-anchor="start" x="2430" y="-141.5" font-family="Helvetica,sans-Serif" font-size="10.00" fill="#000000">src/pybind/py_adders</text>
<text text-anchor="middle" x="2492.5" y="-130.5" font-family="Helvetica,sans-Serif" font-size="10.00" fill="#000000">/add_molecular_orientation.h</text>
</a>
</g>
</g>
<!-- Node23&#45;&gt;Node53 -->
<g id="edge45" class="edge">
<title>Node23&#45;&gt;Node53</title>
<path fill="none" stroke="#191970" d="M1420.7817,-203.5418C1620.1078,-197.3695 2218.9837,-177.3403 2412.5,-154 2415.59,-153.6273 2418.7397,-153.2042 2421.9161,-152.7421"/>
<polygon fill="#191970" stroke="#191970" points="1420.6386,-200.0444 1410.7512,-203.8511 1420.8544,-207.0411 1420.6386,-200.0444"/>
</g>
<!-- Node54 -->
<g id="node32" class="node">
<title>Node54</title>
<g id="a_node32"><a xlink:href="pybind_2py__adders_2add__special__bonds_8h.html" target="_top" xlink:title="This file has a function to bind AddSpecialBonds class to Python. ">
<polygon fill="#ffffff" stroke="#000000" points="2599,-123.5 2599,-153.5 2710,-153.5 2710,-123.5 2599,-123.5"/>
<text text-anchor="start" x="2607" y="-141.5" font-family="Helvetica,sans-Serif" font-size="10.00" fill="#000000">src/pybind/py_adders</text>
<text text-anchor="middle" x="2654.5" y="-130.5" font-family="Helvetica,sans-Serif" font-size="10.00" fill="#000000">/add_special_bonds.h</text>
</a>
</g>
</g>
<!-- Node23&#45;&gt;Node54 -->
<g id="edge48" class="edge">
<title>Node23&#45;&gt;Node54</title>
<path fill="none" stroke="#191970" d="M1421.016,-204.4617C1642.3812,-200.688 2361.4406,-186.1964 2590.5,-154 2593.217,-153.6181 2595.9872,-153.1716 2598.7765,-152.6759"/>
<polygon fill="#191970" stroke="#191970" points="1420.7944,-200.9648 1410.855,-204.6333 1420.9127,-207.9638 1420.7944,-200.9648"/>
</g>
<!-- Node55 -->
<g id="node33" class="node">
<title>Node55</title>
<g id="a_node33"><a xlink:href="pybind_2py__adders_2add__wrapped__position_8h.html" target="_top" xlink:title="This file has a function to bind AddWrappedPosition class to Python. ">
<polygon fill="#ffffff" stroke="#000000" points="2746.5,-123.5 2746.5,-153.5 2870.5,-153.5 2870.5,-123.5 2746.5,-123.5"/>
<text text-anchor="start" x="2754.5" y="-141.5" font-family="Helvetica,sans-Serif" font-size="10.00" fill="#000000">src/pybind/py_adders</text>
<text text-anchor="middle" x="2808.5" y="-130.5" font-family="Helvetica,sans-Serif" font-size="10.00" fill="#000000">/add_wrapped_position.h</text>
</a>
</g>
</g>
<!-- Node23&#45;&gt;Node55 -->
<g id="edge51" class="edge">
<title>Node23&#45;&gt;Node55</title>
<path fill="none" stroke="#191970" d="M1421.0237,-204.6027C1659.1117,-201.1015 2478.0078,-186.8946 2737.5,-154 2740.3788,-153.6351 2743.3134,-153.2106 2746.2706,-152.7402"/>
<polygon fill="#191970" stroke="#191970" points="1420.742,-201.1063 1410.7941,-204.7518 1420.8441,-208.1056 1420.742,-201.1063"/>
</g>
<!-- Node25 -->
<g id="node3" class="node">
<title>Node25</title>
<g id="a_node3"><a xlink:href="add__child__ids_8cpp.html" target="_top" xlink:title="This file has an implementation of the AddChildIDs class, which is a subclass of the Adder class...">
<polygon fill="#ffffff" stroke="#000000" points="0,-56.5 0,-86.5 107,-86.5 107,-56.5 0,-56.5"/>
<text text-anchor="start" x="8" y="-74.5" font-family="Helvetica,sans-Serif" font-size="10.00" fill="#000000">src/adders/add_child</text>
<text text-anchor="middle" x="53.5" y="-63.5" font-family="Helvetica,sans-Serif" font-size="10.00" fill="#000000">_ids.cpp</text>
</a>
</g>
</g>
<!-- Node24&#45;&gt;Node25 -->
<g id="edge2" class="edge">
<title>Node24&#45;&gt;Node25</title>
<path fill="none" stroke="#191970" d="M53.5,-113.0249C53.5,-104.128 53.5,-94.4287 53.5,-86.6432"/>
<polygon fill="#191970" stroke="#191970" points="50.0001,-113.2966 53.5,-123.2967 57.0001,-113.2967 50.0001,-113.2966"/>
</g>
<!-- Node27 -->
<g id="node5" class="node">
<title>Node27</title>
<g id="a_node5"><a xlink:href="add__child__positions_8cpp.html" target="_top" xlink:title="This file has an implementation of the AddChildPositions class, which is a subclass of the Adder clas...">
<polygon fill="#ffffff" stroke="#000000" points="125,-56.5 125,-86.5 232,-86.5 232,-56.5 125,-56.5"/>
<text text-anchor="start" x="133" y="-74.5" font-family="Helvetica,sans-Serif" font-size="10.00" fill="#000000">src/adders/add_child</text>
<text text-anchor="middle" x="178.5" y="-63.5" font-family="Helvetica,sans-Serif" font-size="10.00" fill="#000000">_positions.cpp</text>
</a>
</g>
</g>
<!-- Node26&#45;&gt;Node27 -->
<g id="edge4" class="edge">
<title>Node26&#45;&gt;Node27</title>
<path fill="none" stroke="#191970" d="M178.5,-113.0249C178.5,-104.128 178.5,-94.4287 178.5,-86.6432"/>
<polygon fill="#191970" stroke="#191970" points="175.0001,-113.2966 178.5,-123.2967 182.0001,-113.2967 175.0001,-113.2966"/>
</g>
<!-- Node29 -->
<g id="node7" class="node">
<title>Node29</title>
<g id="a_node7"><a xlink:href="add__com__position_8cpp.html" target="_top" xlink:title="This file has an implementation of the AddCoMPosition class, which is a subclass of the Adder class...">
<polygon fill="#ffffff" stroke="#000000" points="250,-56.5 250,-86.5 355,-86.5 355,-56.5 250,-56.5"/>
<text text-anchor="start" x="258" y="-74.5" font-family="Helvetica,sans-Serif" font-size="10.00" fill="#000000">src/adders/add_com</text>
<text text-anchor="middle" x="302.5" y="-63.5" font-family="Helvetica,sans-Serif" font-size="10.00" fill="#000000">_position.cpp</text>
</a>
</g>
</g>
<!-- Node28&#45;&gt;Node29 -->
<g id="edge6" class="edge">
<title>Node28&#45;&gt;Node29</title>
<path fill="none" stroke="#191970" d="M302.5,-113.0249C302.5,-104.128 302.5,-94.4287 302.5,-86.6432"/>
<polygon fill="#191970" stroke="#191970" points="299.0001,-113.2966 302.5,-123.2967 306.0001,-113.2967 299.0001,-113.2966"/>
</g>
<!-- Node31 -->
<g id="node9" class="node">
<title>Node31</title>
<g id="a_node9"><a xlink:href="add__gyration__radius_8cpp.html" target="_top" xlink:title="This file has an implementation of the AddGyrationRadius class, which is a subclass of the Adder clas...">
<polygon fill="#ffffff" stroke="#000000" points="373,-56.5 373,-86.5 494,-86.5 494,-56.5 373,-56.5"/>
<text text-anchor="start" x="381" y="-74.5" font-family="Helvetica,sans-Serif" font-size="10.00" fill="#000000">src/adders/add_gyration</text>
<text text-anchor="middle" x="433.5" y="-63.5" font-family="Helvetica,sans-Serif" font-size="10.00" fill="#000000">_radius.cpp</text>
</a>
</g>
</g>
<!-- Node30&#45;&gt;Node31 -->
<g id="edge8" class="edge">
<title>Node30&#45;&gt;Node31</title>
<path fill="none" stroke="#191970" d="M433.5,-113.0249C433.5,-104.128 433.5,-94.4287 433.5,-86.6432"/>
<polygon fill="#191970" stroke="#191970" points="430.0001,-113.2966 433.5,-123.2967 437.0001,-113.2967 430.0001,-113.2966"/>
</g>
<!-- Node33 -->
<g id="node11" class="node">
<title>Node33</title>
<g id="a_node11"><a xlink:href="add__inertia__moment_8cpp.html" target="_top" xlink:title="This file has an implementation of the AddInertiaMoment class, which is a subclass of the Adder class...">
<polygon fill="#ffffff" stroke="#000000" points="512,-56.5 512,-86.5 625,-86.5 625,-56.5 512,-56.5"/>
<text text-anchor="start" x="520" y="-74.5" font-family="Helvetica,sans-Serif" font-size="10.00" fill="#000000">src/adders/add_inertia</text>
<text text-anchor="middle" x="568.5" y="-63.5" font-family="Helvetica,sans-Serif" font-size="10.00" fill="#000000">_moment.cpp</text>
</a>
</g>
</g>
<!-- Node32&#45;&gt;Node33 -->
<g id="edge10" class="edge">
<title>Node32&#45;&gt;Node33</title>
<path fill="none" stroke="#191970" d="M569.1198,-113.0249C568.987,-104.128 568.8422,-94.4287 568.726,-86.6432"/>
<polygon fill="#191970" stroke="#191970" points="565.6241,-113.35 569.2731,-123.2967 572.6234,-113.2455 565.6241,-113.35"/>
</g>
<!-- Node35 -->
<g id="node13" class="node">
<title>Node35</title>
<g id="a_node13"><a xlink:href="add__map_8cpp.html" target="_top" xlink:title="This file has an implementation of the AddMap class, which is a subclass of the Adder class...">
<polygon fill="#ffffff" stroke="#000000" points="643.5,-62 643.5,-81 767.5,-81 767.5,-62 643.5,-62"/>
<text text-anchor="middle" x="705.5" y="-69" font-family="Helvetica,sans-Serif" font-size="10.00" fill="#000000">src/adders/add_map.cpp</text>
</a>
</g>
</g>
<!-- Node34&#45;&gt;Node35 -->
<g id="edge12" class="edge">
<title>Node34&#45;&gt;Node35</title>
<path fill="none" stroke="#191970" d="M704.0938,-118.6079C704.4638,-106.214 704.9231,-90.8263 705.214,-81.0817"/>
<polygon fill="#191970" stroke="#191970" points="700.5866,-118.8005 703.7866,-128.9005 707.5835,-119.0094 700.5866,-118.8005"/>
</g>
<!-- Node37 -->
<g id="node15" class="node">
<title>Node37</title>
<g id="a_node15"><a xlink:href="add__molecular__orientation_8cpp.html" target="_top" xlink:title="This file has an implementation of the AddMolecularOrientation class, which is a subclass of the Adde...">
<polygon fill="#ffffff" stroke="#000000" points="785.5,-56.5 785.5,-86.5 913.5,-86.5 913.5,-56.5 785.5,-56.5"/>
<text text-anchor="start" x="793.5" y="-74.5" font-family="Helvetica,sans-Serif" font-size="10.00" fill="#000000">src/adders/add_molecular</text>
<text text-anchor="middle" x="849.5" y="-63.5" font-family="Helvetica,sans-Serif" font-size="10.00" fill="#000000">_orientation.cpp</text>
</a>
</g>
</g>
<!-- Node36&#45;&gt;Node37 -->
<g id="edge14" class="edge">
<title>Node36&#45;&gt;Node37</title>
<path fill="none" stroke="#191970" d="M845.131,-113.3179C846.0688,-104.3414 847.0955,-94.5143 847.9179,-86.6432"/>
<polygon fill="#191970" stroke="#191970" points="841.6466,-112.9871 844.0884,-123.2967 848.6087,-113.7145 841.6466,-112.9871"/>
</g>
<!-- Node39 -->
<g id="node17" class="node">
<title>Node39</title>
<g id="a_node17"><a xlink:href="add__rename_8cpp.html" target="_top" xlink:title="This file has an implementation of the AddRename class, which is a subclass of the Adder class...">
<polygon fill="#ffffff" stroke="#000000" points="932,-62 932,-81 1069,-81 1069,-62 932,-62"/>
<text text-anchor="middle" x="1000.5" y="-69" font-family="Helvetica,sans-Serif" font-size="10.00" fill="#000000">src/adders/add_rename.cpp</text>
</a>
</g>
</g>
<!-- Node38&#45;&gt;Node39 -->
<g id="edge16" class="edge">
<title>Node38&#45;&gt;Node39</title>
<path fill="none" stroke="#191970" d="M991.995,-118.9863C994.2262,-106.5286 997.0208,-90.9258 998.7839,-81.0817"/>
<polygon fill="#191970" stroke="#191970" points="988.5372,-118.4401 990.2193,-128.9005 995.4276,-119.6742 988.5372,-118.4401"/>
</g>
<!-- Node41 -->
<g id="node19" class="node">
<title>Node41</title>
<g id="a_node19"><a xlink:href="add__special__bonds_8cpp.html" target="_top" xlink:title="This file has an implementation of the AddSpecialBonds class, which is a subclass of the Adder class...">
<polygon fill="#ffffff" stroke="#000000" points="1087,-56.5 1087,-86.5 1204,-86.5 1204,-56.5 1087,-56.5"/>
<text text-anchor="start" x="1095" y="-74.5" font-family="Helvetica,sans-Serif" font-size="10.00" fill="#000000">src/adders/add_special</text>
<text text-anchor="middle" x="1145.5" y="-63.5" font-family="Helvetica,sans-Serif" font-size="10.00" fill="#000000">_bonds.cpp</text>
</a>
</g>
</g>
<!-- Node40&#45;&gt;Node41 -->
<g id="edge18" class="edge">
<title>Node40&#45;&gt;Node41</title>
<path fill="none" stroke="#191970" d="M1134.8895,-113.3179C1137.1671,-104.3414 1139.6606,-94.5143 1141.6577,-86.6432"/>
<polygon fill="#191970" stroke="#191970" points="1131.4245,-112.743 1132.3576,-123.2967 1138.2095,-114.4646 1131.4245,-112.743"/>
</g>
<!-- Node43 -->
<g id="node21" class="node">
<title>Node43</title>
<g id="a_node21"><a xlink:href="add__wrapped__position_8cpp.html" target="_top" xlink:title="This file has an implementation of the AddWrappedPosition class, which is a subclass of the Adder cla...">
<polygon fill="#ffffff" stroke="#000000" points="1222.5,-56.5 1222.5,-86.5 1344.5,-86.5 1344.5,-56.5 1222.5,-56.5"/>
<text text-anchor="start" x="1230.5" y="-74.5" font-family="Helvetica,sans-Serif" font-size="10.00" fill="#000000">src/adders/add_wrapped</text>
<text text-anchor="middle" x="1283.5" y="-63.5" font-family="Helvetica,sans-Serif" font-size="10.00" fill="#000000">_position.cpp</text>
</a>
</g>
</g>
<!-- Node42&#45;&gt;Node43 -->
<g id="edge20" class="edge">
<title>Node42&#45;&gt;Node43</title>
<path fill="none" stroke="#191970" d="M1272.8895,-113.3179C1275.1671,-104.3414 1277.6606,-94.5143 1279.6577,-86.6432"/>
<polygon fill="#191970" stroke="#191970" points="1269.4245,-112.743 1270.3576,-123.2967 1276.2095,-114.4646 1269.4245,-112.743"/>
</g>
<!-- Node45 -->
<g id="node23" class="node">
<title>Node45</title>
<g id="a_node23"><a xlink:href="ppap4lmp_8cpp.html" target="_top" xlink:title="This file has no implementation, only includes a header file to bind C++ and Python. ">
<polygon fill="#ffffff" stroke="#000000" points="1979.5,-.5 1979.5,-19.5 2073.5,-19.5 2073.5,-.5 1979.5,-.5"/>
<text text-anchor="middle" x="2026.5" y="-7.5" font-family="Helvetica,sans-Serif" font-size="10.00" fill="#000000">src/ppap4lmp.cpp</text>
</a>
</g>
</g>
<!-- Node44&#45;&gt;Node45 -->
<g id="edge22" class="edge">
<title>Node44&#45;&gt;Node45</title>
<path fill="none" stroke="#191970" d="M2026.5,-51.7462C2026.5,-41.0519 2026.5,-28.314 2026.5,-19.7449"/>
<polygon fill="#191970" stroke="#191970" points="2023.0001,-51.8906 2026.5,-61.8906 2030.0001,-51.8907 2023.0001,-51.8906"/>
</g>
<!-- Node46&#45;&gt;Node44 -->
<g id="edge25" class="edge">
<title>Node46&#45;&gt;Node44</title>
<path fill="none" stroke="#191970" d="M1503.7074,-125.6528C1509.3768,-124.6942 1515.0336,-123.7933 1520.5,-123 1696.5819,-97.4451 1908.9602,-80.2128 1991.4064,-74.0339"/>
<polygon fill="#191970" stroke="#191970" points="1502.7764,-122.2624 1493.5274,-127.4302 1503.9804,-129.158 1502.7764,-122.2624"/>
</g>
<!-- Node46&#45;&gt;Node46 -->
<g id="edge26" class="edge">
<title>Node46&#45;&gt;Node46</title>
<path fill="none" stroke="#191970" d="M1503.5011,-147.7873C1508.4524,-145.7248 1511.5,-142.629 1511.5,-138.5 1511.5,-132.0547 1504.0741,-128.1271 1493.5733,-126.7172"/>
<polygon fill="#191970" stroke="#191970" points="1502.4183,-144.4505 1493.5733,-150.2828 1504.1249,-151.2393 1502.4183,-144.4505"/>
</g>
<!-- Node47&#45;&gt;Node44 -->
<g id="edge28" class="edge">
<title>Node47&#45;&gt;Node44</title>
<path fill="none" stroke="#191970" d="M1649.7449,-125.894C1655.4061,-124.883 1661.0509,-123.9043 1666.5,-123 1785.3075,-103.2833 1926.9359,-84.3563 1991.4148,-75.9889"/>
<polygon fill="#191970" stroke="#191970" points="1648.7899,-122.51 1639.5755,-127.7393 1650.0397,-129.3975 1648.7899,-122.51"/>
</g>
<!-- Node47&#45;&gt;Node47 -->
<g id="edge29" class="edge">
<title>Node47&#45;&gt;Node47</title>
<path fill="none" stroke="#191970" d="M1649.5011,-147.7873C1654.4524,-145.7248 1657.5,-142.629 1657.5,-138.5 1657.5,-132.0547 1650.0741,-128.1271 1639.5733,-126.7172"/>
<polygon fill="#191970" stroke="#191970" points="1648.4183,-144.4505 1639.5733,-150.2828 1650.1249,-151.2393 1648.4183,-144.4505"/>
</g>
<!-- Node48&#45;&gt;Node44 -->
<g id="edge31" class="edge">
<title>Node48&#45;&gt;Node44</title>
<path fill="none" stroke="#191970" d="M1795.6326,-123.7572C1855.9136,-110.1125 1943.2588,-90.3418 1991.3871,-79.4478"/>
<polygon fill="#191970" stroke="#191970" points="1794.8087,-120.355 1785.8281,-125.9764 1796.3541,-127.1823 1794.8087,-120.355"/>
</g>
<!-- Node48&#45;&gt;Node48 -->
<g id="edge32" class="edge">
<title>Node48&#45;&gt;Node48</title>
<path fill="none" stroke="#191970" d="M1795.5011,-147.7873C1800.4524,-145.7248 1803.5,-142.629 1803.5,-138.5 1803.5,-132.0547 1796.0741,-128.1271 1785.5733,-126.7172"/>
<polygon fill="#191970" stroke="#191970" points="1794.4183,-144.4505 1785.5733,-150.2828 1796.1249,-151.2393 1794.4183,-144.4505"/>
</g>
<!-- Node49&#45;&gt;Node44 -->
<g id="edge34" class="edge">
<title>Node49&#45;&gt;Node44</title>
<path fill="none" stroke="#191970" d="M1921.1373,-119.198C1948.7113,-106.7152 1983.414,-91.0051 2005.2854,-81.1039"/>
<polygon fill="#191970" stroke="#191970" points="1919.3806,-116.1512 1911.7141,-123.4639 1922.2675,-122.5282 1919.3806,-116.1512"/>
</g>
<!-- Node49&#45;&gt;Node49 -->
<g id="edge35" class="edge">
<title>Node49&#45;&gt;Node49</title>
<path fill="none" stroke="#191970" d="M1944.9878,-147.7251C1949.9517,-145.6628 1953,-142.5877 1953,-138.5 1953,-132.1191 1945.5723,-128.2059 1935.0255,-126.7602"/>
<polygon fill="#191970" stroke="#191970" points="1943.8648,-144.3987 1935.0255,-150.2398 1945.578,-151.1858 1943.8648,-144.3987"/>
</g>
<!-- Node50&#45;&gt;Node44 -->
<g id="edge37" class="edge">
<title>Node50&#45;&gt;Node44</title>
<path fill="none" stroke="#191970" d="M2026.5,-113.1199C2026.5,-101.9072 2026.5,-89.4031 2026.5,-81.055"/>
<polygon fill="#191970" stroke="#191970" points="2023.0001,-113.2966 2026.5,-123.2967 2030.0001,-113.2967 2023.0001,-113.2966"/>
</g>
<!-- Node50&#45;&gt;Node50 -->
<g id="edge38" class="edge">
<title>Node50&#45;&gt;Node50</title>
<path fill="none" stroke="#191970" d="M2091.5011,-147.7873C2096.4524,-145.7248 2099.5,-142.629 2099.5,-138.5 2099.5,-132.0547 2092.0741,-128.1271 2081.5733,-126.7172"/>
<polygon fill="#191970" stroke="#191970" points="2090.4183,-144.4505 2081.5733,-150.2828 2092.1249,-151.2393 2090.4183,-144.4505"/>
</g>
<!-- Node51&#45;&gt;Node44 -->
<g id="edge40" class="edge">
<title>Node51&#45;&gt;Node44</title>
<path fill="none" stroke="#191970" d="M2132.9378,-119.3613C2105.1197,-106.8525 2069.9733,-91.0484 2047.858,-81.1039"/>
<polygon fill="#191970" stroke="#191970" points="2131.5057,-122.5549 2142.0615,-123.4639 2134.3765,-116.1706 2131.5057,-122.5549"/>
</g>
<!-- Node51&#45;&gt;Node51 -->
<g id="edge41" class="edge">
<title>Node51&#45;&gt;Node51</title>
<path fill="none" stroke="#191970" d="M2243.0321,-147.6623C2247.9728,-145.6005 2251,-142.5464 2251,-138.5 2251,-132.1836 2243.6239,-128.2852 2233.1071,-126.8048"/>
<polygon fill="#191970" stroke="#191970" points="2241.9311,-144.331 2233.1071,-150.1952 2243.6621,-151.1136 2241.9311,-144.331"/>
</g>
<!-- Node52&#45;&gt;Node44 -->
<g id="edge43" class="edge">
<title>Node52&#45;&gt;Node44</title>
<path fill="none" stroke="#191970" d="M2259.6327,-122.8162C2183.3973,-105.6465 2105.7631,-88.695 2061.8085,-79.1476"/>
<polygon fill="#191970" stroke="#191970" points="2258.879,-126.234 2269.404,-125.0198 2260.4191,-119.4055 2258.879,-126.234"/>
</g>
<!-- Node52&#45;&gt;Node52 -->
<g id="edge44" class="edge">
<title>Node52&#45;&gt;Node52</title>
<path fill="none" stroke="#191970" d="M2395.631,-147.5989C2400.5147,-145.5381 2403.5,-142.5052 2403.5,-138.5 2403.5,-132.248 2396.2258,-128.365 2385.8117,-126.8509"/>
<polygon fill="#191970" stroke="#191970" points="2394.6108,-144.2476 2385.8117,-150.1491 2396.3705,-151.0229 2394.6108,-144.2476"/>
</g>
<!-- Node53&#45;&gt;Node44 -->
<g id="edge46" class="edge">
<title>Node53&#45;&gt;Node44</title>
<path fill="none" stroke="#191970" d="M2411.7252,-122.932C2276.2575,-101.0521 2128.0662,-83.1775 2061.7286,-75.4978"/>
<polygon fill="#191970" stroke="#191970" points="2411.4378,-126.4312 2421.87,-124.5821 2412.5617,-119.522 2411.4378,-126.4312"/>
</g>
<!-- Node53&#45;&gt;Node53 -->
<g id="edge47" class="edge">
<title>Node53&#45;&gt;Node53</title>
<path fill="none" stroke="#191970" d="M2573.198,-147.0692C2578.0734,-145.0312 2581,-142.1748 2581,-138.5 2581,-132.7637 2573.869,-129.0216 2563.3256,-127.2738"/>
<polygon fill="#191970" stroke="#191970" points="2572.0724,-143.7475 2563.3256,-149.7262 2573.8917,-150.5069 2572.0724,-143.7475"/>
</g>
<!-- Node54&#45;&gt;Node44 -->
<g id="edge49" class="edge">
<title>Node54&#45;&gt;Node44</title>
<path fill="none" stroke="#191970" d="M2588.7372,-122.8434C2384.398,-89.682 2149.351,-76.8373 2061.7085,-72.9203"/>
<polygon fill="#191970" stroke="#191970" points="2588.316,-126.3211 2598.7512,-124.4891 2589.4512,-119.4137 2588.316,-126.3211"/>
</g>
<!-- Node54&#45;&gt;Node54 -->
<g id="edge50" class="edge">
<title>Node54&#45;&gt;Node54</title>
<path fill="none" stroke="#191970" d="M2720.0953,-147.7251C2724.9926,-145.6628 2728,-142.5877 2728,-138.5 2728,-132.1191 2720.672,-128.2059 2710.2668,-126.7602"/>
<polygon fill="#191970" stroke="#191970" points="2719.0871,-144.3702 2710.2668,-150.2398 2720.8223,-151.1518 2719.0871,-144.3702"/>
</g>
<!-- Node55&#45;&gt;Node44 -->
<g id="edge52" class="edge">
<title>Node55&#45;&gt;Node44</title>
<path fill="none" stroke="#191970" d="M2736.0894,-122.9273C2472.0305,-85.4837 2164.5523,-74.917 2061.8322,-72.2781"/>
<polygon fill="#191970" stroke="#191970" points="2735.858,-126.4298 2746.2536,-124.385 2736.8518,-119.5007 2735.858,-126.4298"/>
</g>
<!-- Node55&#45;&gt;Node55 -->
<g id="edge53" class="edge">
<title>Node55&#45;&gt;Node55</title>
<path fill="none" stroke="#191970" d="M2880.5322,-147.4702C2885.4858,-145.4126 2888.5,-142.4226 2888.5,-138.5 2888.5,-132.377 2881.1554,-128.5261 2870.5546,-126.9475"/>
<polygon fill="#191970" stroke="#191970" points="2879.3587,-144.1585 2870.5546,-150.0525 2881.1126,-150.9352 2879.3587,-144.1585"/>
</g>
</g>
</svg>
        <g id="navigator" transform="translate(0 0)" fill="#404254">
                <rect fill="#f2f5e9" fill-opacity="0.5" stroke="#606060" stroke-width=".5" x="0" y="0" width="60" height="60"/>
                <use id="zoomplus" xlink:href="#zoomPlus" x="17" y="9" onmousedown="handleZoom(evt,'in')"/>
                <use id="zoomminus" xlink:href="#zoomMin" x="42" y="9" onmousedown="handleZoom(evt,'out')"/>
                <use id="reset" xlink:href="#resetDef" x="30" y="36" onmousedown="handleReset()"/>
                <g id="arrowUp" xlink:href="#dirArrow" transform="translate(30 24)" onmousedown="handlePan(0,-1)">
                  <use xlink:href="#rim" fill="#404040">
                        <set attributeName="fill" to="#808080" begin="arrowUp.mouseover" end="arrowUp.mouseout"/>
                  </use>
                  <path fill="none" stroke="white" stroke-width="1.5" d="M0,-3.0v7 M-2.5,-0.5L0,-3.0L2.5,-0.5"/>
                </g>
                <g id="arrowRight" xlink:href="#dirArrow" transform="rotate(90) translate(36 -43)" onmousedown="handlePan(1,0)">
                  <use xlink:href="#rim" fill="#404040">
                        <set attributeName="fill" to="#808080" begin="arrowRight.mouseover" end="arrowRight.mouseout"/>
                  </use>
                  <path fill="none" stroke="white" stroke-width="1.5" d="M0,-3.0v7 M-2.5,-0.5L0,-3.0L2.5,-0.5"/>
                </g>
                <g id="arrowDown" xlink:href="#dirArrow" transform="rotate(180) translate(-30 -48)" onmousedown="handlePan(0,1)">
                  <use xlink:href="#rim" fill="#404040">
                        <set attributeName="fill" to="#808080" begin="arrowDown.mouseover" end="arrowDown.mouseout"/>
                  </use>
                  <path fill="none" stroke="white" stroke-width="1.5" d="M0,-3.0v7 M-2.5,-0.5L0,-3.0L2.5,-0.5"/>
                </g>
                <g id="arrowLeft" xlink:href="#dirArrow" transform="rotate(270) translate(-36 17)" onmousedown="handlePan(-1,0)">
                  <use xlink:href="#rim" fill="#404040">
                        <set attributeName="fill" to="#808080" begin="arrowLeft.mouseover" end="arrowLeft.mouseout"/>
                  </use>
                  <path fill="none" stroke="white" stroke-width="1.5" d="M0,-3.0v7 M-2.5,-0.5L0,-3.0L2.5,-0.5"/>
                </g>
        </g>
        <svg viewBox="0 0 15 15" width="100%" height="30px" preserveAspectRatio="xMaxYMin meet">
         <g id="arrow_out" transform="scale(0.3 0.3)">
          <a xlink:href="pybind_2py__adders_2adder_8h__dep__incl_org.svg" target="_base">
           <rect id="button" ry="5" rx="5" y="6" x="6" height="38" width="38"
                fill="#f2f5e9" fill-opacity="0.5" stroke="#606060" stroke-width="1.0"/>
           <path id="arrow"
             d="M 11.500037,31.436501 C 11.940474,20.09759 22.043105,11.32322 32.158766,21.979434 L 37.068811,17.246167 C 37.068811,17.246167 37.088388,32 37.088388,32 L 22.160133,31.978069 C 22.160133,31.978069 26.997745,27.140456 26.997745,27.140456 C 18.528582,18.264221 13.291696,25.230495 11.500037,31.436501 z"
             style="fill:#404040;"/>
          </a>
         </g>
        </svg>
</svg>
