<?xml version="1.0" encoding="UTF-8" standalone="no"?>
<!DOCTYPE svg PUBLIC "-//W3C//DTD SVG 1.1//EN"
 "http://www.w3.org/Graphics/SVG/1.1/DTD/svg11.dtd">
<!-- Generated by graphviz version 2.40.1 (20161225.0304)
 -->
<!-- Title: pybind_add_gyration_radius Pages: 1 -->
<svg width="257pt" height="88pt"
 viewBox="0.00 0.00 257.00 88.00" xmlns="http://www.w3.org/2000/svg" xmlns:xlink="http://www.w3.org/1999/xlink">
<g id="graph0" class="graph" transform="scale(1 1) rotate(0) translate(4 84)">
<title>pybind_add_gyration_radius</title>
<polygon fill="#ffffff" stroke="transparent" points="-4,4 -4,-84 253,-84 253,4 -4,4"/>
<!-- Node0 -->
<g id="node1" class="node">
<title>Node0</title>
<polygon fill="#bfbfbf" stroke="#000000" points="0,-24.5 0,-54.5 106,-54.5 106,-24.5 0,-24.5"/>
<text text-anchor="start" x="8" y="-42.5" font-family="Helvetica,sans-Serif" font-size="10.00" fill="#000000">pybind_add_gyration</text>
<text text-anchor="middle" x="53" y="-31.5" font-family="Helvetica,sans-Serif" font-size="10.00" fill="#000000">_radius</text>
</g>
<!-- Node1 -->
<g id="node2" class="node">
<title>Node1</title>
<g id="a_node2"><a xlink:href="classAddGyrationRadius.html#a36cdb31db55a78681aada61ac5651bc9" target="_top" xlink:title="AddGyrationRadius::\lwith_squared">
<polygon fill="#ffffff" stroke="#000000" points="142,-49.5 142,-79.5 249,-79.5 249,-49.5 142,-49.5"/>
<text text-anchor="start" x="150" y="-67.5" font-family="Helvetica,sans-Serif" font-size="10.00" fill="#000000">AddGyrationRadius::</text>
<text text-anchor="middle" x="195.5" y="-56.5" font-family="Helvetica,sans-Serif" font-size="10.00" fill="#000000">with_squared</text>
</a>
</g>
</g>
<!-- Node0&#45;&gt;Node1 -->
<g id="edge1" class="edge">
<title>Node0&#45;&gt;Node1</title>
<path fill="none" stroke="#191970" d="M106.0617,-48.8091C114.4792,-50.2858 123.2597,-51.8263 131.889,-53.3402"/>
<polygon fill="#191970" stroke="#191970" points="131.4643,-56.819 141.9187,-55.0998 132.674,-49.9243 131.4643,-56.819"/>
</g>
<!-- Node2 -->
<g id="node3" class="node">
<title>Node2</title>
<g id="a_node3"><a xlink:href="classAddGyrationRadius.html#a0919259a47f76c08c86f54156bdb2ac6" target="_top" xlink:title="AddGyrationRadius::\lwithout_sqrted">
<polygon fill="#ffffff" stroke="#000000" points="142,-.5 142,-30.5 249,-30.5 249,-.5 142,-.5"/>
<text text-anchor="start" x="150" y="-18.5" font-family="Helvetica,sans-Serif" font-size="10.00" fill="#000000">AddGyrationRadius::</text>
<text text-anchor="middle" x="195.5" y="-7.5" font-family="Helvetica,sans-Serif" font-size="10.00" fill="#000000">without_sqrted</text>
</a>
</g>
</g>
<!-- Node0&#45;&gt;Node2 -->
<g id="edge2" class="edge">
<title>Node0&#45;&gt;Node2</title>
<path fill="none" stroke="#191970" d="M106.0617,-30.5633C114.4792,-29.1456 123.2597,-27.6668 131.889,-26.2134"/>
<polygon fill="#191970" stroke="#191970" points="132.6389,-29.6365 141.9187,-24.5242 131.4763,-22.7337 132.6389,-29.6365"/>
</g>
</g>
</svg>
