<?xml version="1.0" encoding="UTF-8" standalone="no"?>
<!DOCTYPE svg PUBLIC "-//W3C//DTD SVG 1.1//EN"
 "http://www.w3.org/Graphics/SVG/1.1/DTD/svg11.dtd">
<!-- Generated by graphviz version 2.40.1 (20161225.0304)
 -->
<!-- Title: src/pybind/invokers/inv_omp.h Pages: 1 -->
<svg width="292pt" height="207pt"
 viewBox="0.00 0.00 291.50 207.00" xmlns="http://www.w3.org/2000/svg" xmlns:xlink="http://www.w3.org/1999/xlink">
<g id="graph0" class="graph" transform="scale(1 1) rotate(0) translate(4 203)">
<title>src/pybind/invokers/inv_omp.h</title>
<polygon fill="#ffffff" stroke="transparent" points="-4,4 -4,-203 287.5,-203 287.5,4 -4,4"/>
<!-- Node0 -->
<g id="node1" class="node">
<title>Node0</title>
<polygon fill="#bfbfbf" stroke="#000000" points="66,-168.5 66,-198.5 167,-198.5 167,-168.5 66,-168.5"/>
<text text-anchor="start" x="74" y="-186.5" font-family="Helvetica,sans-Serif" font-size="10.00" fill="#000000">src/pybind/invokers</text>
<text text-anchor="middle" x="116.5" y="-175.5" font-family="Helvetica,sans-Serif" font-size="10.00" fill="#000000">/inv_omp.h</text>
</g>
<!-- Node1 -->
<g id="node2" class="node">
<title>Node1</title>
<polygon fill="#ffffff" stroke="#bfbfbf" points="0,-112.5 0,-131.5 101,-131.5 101,-112.5 0,-112.5"/>
<text text-anchor="middle" x="50.5" y="-119.5" font-family="Helvetica,sans-Serif" font-size="10.00" fill="#000000">invokers/inv_omp.h</text>
</g>
<!-- Node0&#45;&gt;Node1 -->
<g id="edge1" class="edge">
<title>Node0&#45;&gt;Node1</title>
<path fill="none" stroke="#191970" d="M100.1854,-168.2977C90.5467,-159.3163 78.3309,-147.9334 68.4241,-138.702"/>
<polygon fill="#191970" stroke="#191970" points="70.7696,-136.1036 61.0674,-131.8469 65.9975,-141.2249 70.7696,-136.1036"/>
</g>
<!-- Node2 -->
<g id="node3" class="node">
<title>Node2</title>
<g id="a_node3"><a xlink:href="pybind_2invokers_2invoker_8h.html" target="_top" xlink:title="pybind/invokers/invoker.h">
<polygon fill="#ffffff" stroke="#000000" points="119.5,-112.5 119.5,-131.5 247.5,-131.5 247.5,-112.5 119.5,-112.5"/>
<text text-anchor="middle" x="183.5" y="-119.5" font-family="Helvetica,sans-Serif" font-size="10.00" fill="#000000">pybind/invokers/invoker.h</text>
</a>
</g>
</g>
<!-- Node0&#45;&gt;Node2 -->
<g id="edge2" class="edge">
<title>Node0&#45;&gt;Node2</title>
<path fill="none" stroke="#191970" d="M133.0618,-168.2977C142.8465,-159.3163 155.2474,-147.9334 165.3043,-138.702"/>
<polygon fill="#191970" stroke="#191970" points="167.7722,-141.1876 172.7725,-131.8469 163.0387,-136.0307 167.7722,-141.1876"/>
</g>
<!-- Node3 -->
<g id="node4" class="node">
<title>Node3</title>
<g id="a_node4"><a xlink:href="alias_2pybind_8h.html" target="_top" xlink:title="... ">
<polygon fill="#ffffff" stroke="#000000" points="92,-56.5 92,-75.5 169,-75.5 169,-56.5 92,-56.5"/>
<text text-anchor="middle" x="130.5" y="-63.5" font-family="Helvetica,sans-Serif" font-size="10.00" fill="#000000">alias/pybind.h</text>
</a>
</g>
</g>
<!-- Node2&#45;&gt;Node3 -->
<g id="edge3" class="edge">
<title>Node2&#45;&gt;Node3</title>
<path fill="none" stroke="#191970" d="M174.2681,-112.2455C166.6683,-104.2155 155.7123,-92.6394 146.6632,-83.0781"/>
<polygon fill="#191970" stroke="#191970" points="149.042,-80.4998 139.6261,-75.6427 143.9579,-85.3115 149.042,-80.4998"/>
</g>
<!-- Node5 -->
<g id="node6" class="node">
<title>Node5</title>
<polygon fill="#ffffff" stroke="#bfbfbf" points="187.5,-56.5 187.5,-75.5 283.5,-75.5 283.5,-56.5 187.5,-56.5"/>
<text text-anchor="middle" x="235.5" y="-63.5" font-family="Helvetica,sans-Serif" font-size="10.00" fill="#000000">invokers/invoker.h</text>
</g>
<!-- Node2&#45;&gt;Node5 -->
<g id="edge5" class="edge">
<title>Node2&#45;&gt;Node5</title>
<path fill="none" stroke="#191970" d="M192.5577,-112.2455C200.0142,-104.2155 210.7634,-92.6394 219.6417,-83.0781"/>
<polygon fill="#191970" stroke="#191970" points="222.3063,-85.3522 226.5461,-75.6427 217.1768,-80.589 222.3063,-85.3522"/>
</g>
<!-- Node4 -->
<g id="node5" class="node">
<title>Node4</title>
<polygon fill="#ffffff" stroke="#bfbfbf" points="77.5,-.5 77.5,-19.5 183.5,-19.5 183.5,-.5 77.5,-.5"/>
<text text-anchor="middle" x="130.5" y="-7.5" font-family="Helvetica,sans-Serif" font-size="10.00" fill="#000000">pybind11/pybind11.h</text>
</g>
<!-- Node3&#45;&gt;Node4 -->
<g id="edge4" class="edge">
<title>Node3&#45;&gt;Node4</title>
<path fill="none" stroke="#191970" d="M130.5,-56.2455C130.5,-48.9382 130.5,-38.6944 130.5,-29.7046"/>
<polygon fill="#191970" stroke="#191970" points="134.0001,-29.6426 130.5,-19.6427 127.0001,-29.6427 134.0001,-29.6426"/>
</g>
</g>
</svg>
