<?xml version="1.0" encoding="UTF-8" standalone="no"?>
<!DOCTYPE svg PUBLIC "-//W3C//DTD SVG 1.1//EN"
 "http://www.w3.org/Graphics/SVG/1.1/DTD/svg11.dtd">
<!-- Generated by graphviz version 2.40.1 (20161225.0304)
 -->
<!-- Title: src/pybind/adders/add_gyration_radius.h Pages: 1 -->
<svg width="139pt" height="151pt"
 viewBox="0.00 0.00 139.00 151.00" xmlns="http://www.w3.org/2000/svg" xmlns:xlink="http://www.w3.org/1999/xlink">
<g id="graph0" class="graph" transform="scale(1 1) rotate(0) translate(4 147)">
<title>src/pybind/adders/add_gyration_radius.h</title>
<polygon fill="#ffffff" stroke="transparent" points="-4,4 -4,-147 135,-147 135,4 -4,4"/>
<!-- Node25 -->
<g id="node1" class="node">
<title>Node25</title>
<polygon fill="#bfbfbf" stroke="#000000" points="0,-112.5 0,-142.5 113,-142.5 113,-112.5 0,-112.5"/>
<text text-anchor="start" x="8" y="-130.5" font-family="Helvetica,sans-Serif" font-size="10.00" fill="#000000">src/pybind/adders/add</text>
<text text-anchor="middle" x="56.5" y="-119.5" font-family="Helvetica,sans-Serif" font-size="10.00" fill="#000000">_gyration_radius.h</text>
</g>
<!-- Node25&#45;&gt;Node25 -->
<g id="edge3" class="edge">
<title>Node25&#45;&gt;Node25</title>
<path fill="none" stroke="#191970" d="M122.9878,-135.8865C127.9517,-134.0116 131,-131.2161 131,-127.5 131,-121.6992 123.5723,-118.1417 113.0255,-116.8275"/>
<polygon fill="#191970" stroke="#191970" points="121.9893,-132.5245 113.0255,-138.1725 123.555,-139.3472 121.9893,-132.5245"/>
</g>
<!-- Node26 -->
<g id="node2" class="node">
<title>Node26</title>
<g id="a_node2"><a xlink:href="pybind_8h.html" target="_top" xlink:title="This file includes all the header files containing definitions of functions to bind C++ and Python...">
<polygon fill="#ffffff" stroke="#000000" points="21.5,-56.5 21.5,-75.5 91.5,-75.5 91.5,-56.5 21.5,-56.5"/>
<text text-anchor="middle" x="56.5" y="-63.5" font-family="Helvetica,sans-Serif" font-size="10.00" fill="#000000">src/pybind.h</text>
</a>
</g>
</g>
<!-- Node25&#45;&gt;Node26 -->
<g id="edge1" class="edge">
<title>Node25&#45;&gt;Node26</title>
<path fill="none" stroke="#191970" d="M56.5,-102.2849C56.5,-92.9858 56.5,-82.9883 56.5,-75.8469"/>
<polygon fill="#191970" stroke="#191970" points="53.0001,-102.2977 56.5,-112.2977 60.0001,-102.2978 53.0001,-102.2977"/>
</g>
<!-- Node27 -->
<g id="node3" class="node">
<title>Node27</title>
<g id="a_node3"><a xlink:href="ppap4lmp_8cpp.html" target="_top" xlink:title="This file has no implementation, only includes a header file to bind C++ and Python. ">
<polygon fill="#ffffff" stroke="#000000" points="9.5,-.5 9.5,-19.5 103.5,-19.5 103.5,-.5 9.5,-.5"/>
<text text-anchor="middle" x="56.5" y="-7.5" font-family="Helvetica,sans-Serif" font-size="10.00" fill="#000000">src/ppap4lmp.cpp</text>
</a>
</g>
</g>
<!-- Node26&#45;&gt;Node27 -->
<g id="edge2" class="edge">
<title>Node26&#45;&gt;Node27</title>
<path fill="none" stroke="#191970" d="M56.5,-46.1575C56.5,-37.155 56.5,-26.9199 56.5,-19.6427"/>
<polygon fill="#191970" stroke="#191970" points="53.0001,-46.2455 56.5,-56.2455 60.0001,-46.2456 53.0001,-46.2455"/>
</g>
</g>
</svg>
