<?xml version="1.0" encoding="UTF-8" standalone="no"?>
<!DOCTYPE svg PUBLIC "-//W3C//DTD SVG 1.1//EN"
 "http://www.w3.org/Graphics/SVG/1.1/DTD/svg11.dtd">
<!-- Generated by graphviz version 2.40.1 (20161225.0304)
 -->
<!-- Title: src/pybind/processors/pro_mean_square_displacement.h Pages: 1 -->
<svg width="194pt" height="151pt"
 viewBox="0.00 0.00 194.00 151.00" xmlns="http://www.w3.org/2000/svg" xmlns:xlink="http://www.w3.org/1999/xlink">
<g id="graph0" class="graph" transform="scale(1 1) rotate(0) translate(4 147)">
<title>src/pybind/processors/pro_mean_square_displacement.h</title>
<polygon fill="#ffffff" stroke="transparent" points="-4,4 -4,-147 190,-147 190,4 -4,4"/>
<!-- Node6 -->
<g id="node1" class="node">
<title>Node6</title>
<polygon fill="#bfbfbf" stroke="#000000" points="0,-112.5 0,-142.5 168,-142.5 168,-112.5 0,-112.5"/>
<text text-anchor="start" x="8" y="-130.5" font-family="Helvetica,sans-Serif" font-size="10.00" fill="#000000">src/pybind/processors</text>
<text text-anchor="middle" x="84" y="-119.5" font-family="Helvetica,sans-Serif" font-size="10.00" fill="#000000">/pro_mean_square_displacement.h</text>
</g>
<!-- Node6&#45;&gt;Node6 -->
<g id="edge3" class="edge">
<title>Node6&#45;&gt;Node6</title>
<path fill="none" stroke="#191970" d="M178.1133,-134.9053C183.0665,-133.084 186,-130.6155 186,-127.5 186,-122.6367 178.852,-119.3502 168.0322,-117.6405"/>
<polygon fill="#191970" stroke="#191970" points="176.9205,-131.5934 168.0322,-137.3595 178.5764,-138.3947 176.9205,-131.5934"/>
</g>
<!-- Node7 -->
<g id="node2" class="node">
<title>Node7</title>
<g id="a_node2"><a xlink:href="pybind_8h.html" target="_top" xlink:title="This file includes all the header files containing definitions of functions to bind C++ and Python...">
<polygon fill="#ffffff" stroke="#000000" points="49,-56.5 49,-75.5 119,-75.5 119,-56.5 49,-56.5"/>
<text text-anchor="middle" x="84" y="-63.5" font-family="Helvetica,sans-Serif" font-size="10.00" fill="#000000">src/pybind.h</text>
</a>
</g>
</g>
<!-- Node6&#45;&gt;Node7 -->
<g id="edge1" class="edge">
<title>Node6&#45;&gt;Node7</title>
<path fill="none" stroke="#191970" d="M84,-102.2849C84,-92.9858 84,-82.9883 84,-75.8469"/>
<polygon fill="#191970" stroke="#191970" points="80.5001,-102.2977 84,-112.2977 87.5001,-102.2978 80.5001,-102.2977"/>
</g>
<!-- Node8 -->
<g id="node3" class="node">
<title>Node8</title>
<g id="a_node3"><a xlink:href="ppap4lmp_8cpp.html" target="_top" xlink:title="This file has no implementation, only includes a header file to bind C++ and Python. ">
<polygon fill="#ffffff" stroke="#000000" points="37,-.5 37,-19.5 131,-19.5 131,-.5 37,-.5"/>
<text text-anchor="middle" x="84" y="-7.5" font-family="Helvetica,sans-Serif" font-size="10.00" fill="#000000">src/ppap4lmp.cpp</text>
</a>
</g>
</g>
<!-- Node7&#45;&gt;Node8 -->
<g id="edge2" class="edge">
<title>Node7&#45;&gt;Node8</title>
<path fill="none" stroke="#191970" d="M84,-46.1575C84,-37.155 84,-26.9199 84,-19.6427"/>
<polygon fill="#191970" stroke="#191970" points="80.5001,-46.2455 84,-56.2455 87.5001,-46.2456 80.5001,-46.2455"/>
</g>
</g>
</svg>
