<?xml version="1.0" encoding="UTF-8" standalone="no"?>
<!DOCTYPE svg PUBLIC "-//W3C//DTD SVG 1.1//EN"
 "http://www.w3.org/Graphics/SVG/1.1/DTD/svg11.dtd">
<!-- Generated by graphviz version 2.40.1 (20161225.0304)
 -->
<!-- Title: src/pybind/py_adders/add_special_bonds.h Pages: 1 -->
<svg width="557pt" height="554pt"
 viewBox="0.00 0.00 557.00 554.00" xmlns="http://www.w3.org/2000/svg" xmlns:xlink="http://www.w3.org/1999/xlink">
<g id="graph0" class="graph" transform="scale(1 1) rotate(0) translate(4 550)">
<title>src/pybind/py_adders/add_special_bonds.h</title>
<polygon fill="#ffffff" stroke="transparent" points="-4,4 -4,-550 553,-550 553,4 -4,4"/>
<!-- Node0 -->
<g id="node1" class="node">
<title>Node0</title>
<polygon fill="#bfbfbf" stroke="#000000" points="61,-515.5 61,-545.5 172,-545.5 172,-515.5 61,-515.5"/>
<text text-anchor="start" x="69" y="-533.5" font-family="Helvetica,sans-Serif" font-size="10.00" fill="#000000">src/pybind/py_adders</text>
<text text-anchor="middle" x="116.5" y="-522.5" font-family="Helvetica,sans-Serif" font-size="10.00" fill="#000000">/add_special_bonds.h</text>
</g>
<!-- Node1 -->
<g id="node2" class="node">
<title>Node1</title>
<polygon fill="#ffffff" stroke="#bfbfbf" points="0,-448.5 0,-478.5 101,-478.5 101,-448.5 0,-448.5"/>
<text text-anchor="start" x="8" y="-466.5" font-family="Helvetica,sans-Serif" font-size="10.00" fill="#000000">adders/add_special</text>
<text text-anchor="middle" x="50.5" y="-455.5" font-family="Helvetica,sans-Serif" font-size="10.00" fill="#000000">_bonds.h</text>
</g>
<!-- Node0&#45;&gt;Node1 -->
<g id="edge1" class="edge">
<title>Node0&#45;&gt;Node1</title>
<path fill="none" stroke="#191970" d="M101.5236,-515.2967C93.0007,-506.6446 82.164,-495.6438 72.6717,-486.0076"/>
<polygon fill="#191970" stroke="#191970" points="74.9283,-483.311 65.4172,-478.6432 69.9415,-488.2234 74.9283,-483.311"/>
</g>
<!-- Node2 -->
<g id="node3" class="node">
<title>Node2</title>
<g id="a_node3"><a xlink:href="pybind_2py__adders_2adder_8h.html" target="_top" xlink:title="This file has a function to bind Adder class to Python. ">
<polygon fill="#ffffff" stroke="#000000" points="119.5,-454 119.5,-473 247.5,-473 247.5,-454 119.5,-454"/>
<text text-anchor="middle" x="183.5" y="-461" font-family="Helvetica,sans-Serif" font-size="10.00" fill="#000000">pybind/py_adders/adder.h</text>
</a>
</g>
</g>
<!-- Node0&#45;&gt;Node2 -->
<g id="edge2" class="edge">
<title>Node0&#45;&gt;Node2</title>
<path fill="none" stroke="#191970" d="M131.7033,-515.2967C142.1422,-504.8578 156.0003,-490.9997 166.7554,-480.2446"/>
<polygon fill="#191970" stroke="#191970" points="169.3488,-482.601 173.945,-473.055 164.399,-477.6512 169.3488,-482.601"/>
</g>
<!-- Node3 -->
<g id="node4" class="node">
<title>Node3</title>
<polygon fill="#ffffff" stroke="#bfbfbf" points="92,-392.5 92,-411.5 173,-411.5 173,-392.5 92,-392.5"/>
<text text-anchor="middle" x="132.5" y="-399.5" font-family="Helvetica,sans-Serif" font-size="10.00" fill="#000000">adders/adder.h</text>
</g>
<!-- Node2&#45;&gt;Node3 -->
<g id="edge3" class="edge">
<title>Node2&#45;&gt;Node3</title>
<path fill="none" stroke="#191970" d="M175.5313,-453.8906C167.9409,-444.7376 156.3339,-430.7409 147.0868,-419.59"/>
<polygon fill="#191970" stroke="#191970" points="149.6587,-417.2083 140.5811,-411.7449 144.2703,-421.6766 149.6587,-417.2083"/>
</g>
<!-- Node4 -->
<g id="node5" class="node">
<title>Node4</title>
<g id="a_node5"><a xlink:href="pybind_2updater_8h.html" target="_top" xlink:title="This file is for binding Updater class to Python. ">
<polygon fill="#ffffff" stroke="#000000" points="191,-392.5 191,-411.5 280,-411.5 280,-392.5 191,-392.5"/>
<text text-anchor="middle" x="235.5" y="-399.5" font-family="Helvetica,sans-Serif" font-size="10.00" fill="#000000">pybind/updater.h</text>
</a>
</g>
</g>
<!-- Node2&#45;&gt;Node4 -->
<g id="edge4" class="edge">
<title>Node2&#45;&gt;Node4</title>
<path fill="none" stroke="#191970" d="M191.625,-453.8906C199.3642,-444.7376 211.1987,-430.7409 220.6272,-419.59"/>
<polygon fill="#191970" stroke="#191970" points="223.4765,-421.6409 227.2604,-411.7449 218.1311,-417.1213 223.4765,-421.6409"/>
</g>
<!-- Node5 -->
<g id="node6" class="node">
<title>Node5</title>
<g id="a_node6"><a xlink:href="alias_2pybind_8h.html" target="_top" xlink:title="This file includes pybind11 and defines an alias for the namespace pybind11. ">
<polygon fill="#ffffff" stroke="#000000" points="82,-112.5 82,-131.5 159,-131.5 159,-112.5 82,-112.5"/>
<text text-anchor="middle" x="120.5" y="-119.5" font-family="Helvetica,sans-Serif" font-size="10.00" fill="#000000">alias/pybind.h</text>
</a>
</g>
</g>
<!-- Node4&#45;&gt;Node5 -->
<g id="edge5" class="edge">
<title>Node4&#45;&gt;Node5</title>
<path fill="none" stroke="#191970" d="M218.5159,-392.368C191.1905,-375.4638 140.5,-337.6798 140.5,-290 140.5,-290 140.5,-290 140.5,-234 140.5,-201.2193 132.0945,-163.8705 126.1819,-141.6533"/>
<polygon fill="#191970" stroke="#191970" points="129.491,-140.4878 123.4511,-131.7832 122.7445,-142.3545 129.491,-140.4878"/>
</g>
<!-- Node7 -->
<g id="node8" class="node">
<title>Node7</title>
<g id="a_node8"><a xlink:href="core_2updater_8h.html" target="_top" xlink:title="This file has a definition of the Updater class, which is one of the cores of this program...">
<polygon fill="#ffffff" stroke="#000000" points="291,-336.5 291,-355.5 370,-355.5 370,-336.5 291,-336.5"/>
<text text-anchor="middle" x="330.5" y="-343.5" font-family="Helvetica,sans-Serif" font-size="10.00" fill="#000000">core/updater.h</text>
</a>
</g>
</g>
<!-- Node4&#45;&gt;Node7 -->
<g id="edge7" class="edge">
<title>Node4&#45;&gt;Node7</title>
<path fill="none" stroke="#191970" d="M252.0477,-392.2455C266.7599,-383.5731 288.4888,-370.7645 305.3505,-360.825"/>
<polygon fill="#191970" stroke="#191970" points="307.3046,-363.736 314.1419,-355.6427 303.7498,-357.7057 307.3046,-363.736"/>
</g>
<!-- Node6 -->
<g id="node7" class="node">
<title>Node6</title>
<polygon fill="#ffffff" stroke="#bfbfbf" points="65.5,-56.5 65.5,-75.5 171.5,-75.5 171.5,-56.5 65.5,-56.5"/>
<text text-anchor="middle" x="118.5" y="-63.5" font-family="Helvetica,sans-Serif" font-size="10.00" fill="#000000">pybind11/pybind11.h</text>
</g>
<!-- Node5&#45;&gt;Node6 -->
<g id="edge6" class="edge">
<title>Node5&#45;&gt;Node6</title>
<path fill="none" stroke="#191970" d="M120.1516,-112.2455C119.8907,-104.9382 119.5248,-94.6944 119.2037,-85.7046"/>
<polygon fill="#191970" stroke="#191970" points="122.6992,-85.5113 118.8444,-75.6427 115.7036,-85.7613 122.6992,-85.5113"/>
</g>
<!-- Node8 -->
<g id="node9" class="node">
<title>Node8</title>
<polygon fill="#ffffff" stroke="#bfbfbf" points="486.5,-112.5 486.5,-131.5 530.5,-131.5 530.5,-112.5 486.5,-112.5"/>
<text text-anchor="middle" x="508.5" y="-119.5" font-family="Helvetica,sans-Serif" font-size="10.00" fill="#000000">omp.h</text>
</g>
<!-- Node7&#45;&gt;Node8 -->
<g id="edge8" class="edge">
<title>Node7&#45;&gt;Node8</title>
<path fill="none" stroke="#191970" d="M344.0431,-336.3144C355.7503,-327.575 372.7492,-313.9793 385.5,-300 433.8826,-246.9558 478.583,-173.8959 498.1296,-140.2767"/>
<polygon fill="#191970" stroke="#191970" points="501.2083,-141.9441 503.1622,-131.531 495.141,-138.4528 501.2083,-141.9441"/>
</g>
<!-- Node9 -->
<g id="node10" class="node">
<title>Node9</title>
<g id="a_node10"><a xlink:href="generators_8h.html" target="_top" xlink:title="This file includes all the header files of subclasses of Generator. ">
<polygon fill="#ffffff" stroke="#000000" points="284.5,-280.5 284.5,-299.5 376.5,-299.5 376.5,-280.5 284.5,-280.5"/>
<text text-anchor="middle" x="330.5" y="-287.5" font-family="Helvetica,sans-Serif" font-size="10.00" fill="#000000">core/generators.h</text>
</a>
</g>
</g>
<!-- Node7&#45;&gt;Node9 -->
<g id="edge9" class="edge">
<title>Node7&#45;&gt;Node9</title>
<path fill="none" stroke="#191970" d="M330.5,-336.2455C330.5,-328.9382 330.5,-318.6944 330.5,-309.7046"/>
<polygon fill="#191970" stroke="#191970" points="334.0001,-309.6426 330.5,-299.6427 327.0001,-309.6427 334.0001,-309.6426"/>
</g>
<!-- Node10 -->
<g id="node11" class="node">
<title>Node10</title>
<g id="a_node11"><a xlink:href="core_2element_8h.html" target="_top" xlink:title="This file has a definition of the Element class, which is one of the cores of this program...">
<polygon fill="#ffffff" stroke="#000000" points="290,-168.5 290,-187.5 371,-187.5 371,-168.5 290,-168.5"/>
<text text-anchor="middle" x="330.5" y="-175.5" font-family="Helvetica,sans-Serif" font-size="10.00" fill="#000000">core/element.h</text>
</a>
</g>
</g>
<!-- Node9&#45;&gt;Node10 -->
<g id="edge10" class="edge">
<title>Node9&#45;&gt;Node10</title>
<path fill="none" stroke="#191970" d="M346.3247,-280.4104C364.0741,-268.3201 389.1935,-246.3956 379.5,-224 374.2663,-211.9081 364.1158,-201.5335 354.4045,-193.7139"/>
<polygon fill="#191970" stroke="#191970" points="356.2234,-190.7038 346.118,-187.5209 352.0329,-196.3109 356.2234,-190.7038"/>
</g>
<!-- Node23 -->
<g id="node24" class="node">
<title>Node23</title>
<g id="a_node24"><a xlink:href="gen__dict_8h.html" target="_top" xlink:title="This file has a definition of the GenDict class. ">
<polygon fill="#ffffff" stroke="#000000" points="189,-224.5 189,-243.5 272,-243.5 272,-224.5 189,-224.5"/>
<text text-anchor="middle" x="230.5" y="-231.5" font-family="Helvetica,sans-Serif" font-size="10.00" fill="#000000">core/gen_dict.h</text>
</a>
</g>
</g>
<!-- Node9&#45;&gt;Node23 -->
<g id="edge27" class="edge">
<title>Node9&#45;&gt;Node23</title>
<path fill="none" stroke="#191970" d="M313.0813,-280.2455C297.4515,-271.4928 274.2981,-258.527 256.4815,-248.5496"/>
<polygon fill="#191970" stroke="#191970" points="258.1543,-245.475 247.7191,-243.6427 254.734,-251.5825 258.1543,-245.475"/>
</g>
<!-- Node24 -->
<g id="node25" class="node">
<title>Node24</title>
<g id="a_node25"><a xlink:href="gen__list_8h.html" target="_top" xlink:title="This file has a definition of the GenList class. ">
<polygon fill="#ffffff" stroke="#000000" points="290.5,-224.5 290.5,-243.5 370.5,-243.5 370.5,-224.5 290.5,-224.5"/>
<text text-anchor="middle" x="330.5" y="-231.5" font-family="Helvetica,sans-Serif" font-size="10.00" fill="#000000">core/gen_list.h</text>
</a>
</g>
</g>
<!-- Node9&#45;&gt;Node24 -->
<g id="edge29" class="edge">
<title>Node9&#45;&gt;Node24</title>
<path fill="none" stroke="#191970" d="M330.5,-280.2455C330.5,-272.9382 330.5,-262.6944 330.5,-253.7046"/>
<polygon fill="#191970" stroke="#191970" points="334.0001,-253.6426 330.5,-243.6427 327.0001,-253.6427 334.0001,-253.6426"/>
</g>
<!-- Node10&#45;&gt;Node5 -->
<g id="edge14" class="edge">
<title>Node10&#45;&gt;Node5</title>
<path fill="none" stroke="#191970" d="M294.3997,-168.3733C258.8752,-158.9001 204.512,-144.4032 166.0381,-134.1435"/>
<polygon fill="#191970" stroke="#191970" points="166.6934,-130.696 156.1292,-131.5011 164.8897,-137.4596 166.6934,-130.696"/>
</g>
<!-- Node10&#45;&gt;Node8 -->
<g id="edge11" class="edge">
<title>Node10&#45;&gt;Node8</title>
<path fill="none" stroke="#191970" d="M361.2133,-168.475C388.9937,-159.8406 431.2723,-146.6533 476.7445,-132.2226"/>
<polygon fill="#191970" stroke="#191970" points="478.0215,-135.4894 486.4922,-129.1256 475.9018,-128.818 478.0215,-135.4894"/>
</g>
<!-- Node11 -->
<g id="node12" class="node">
<title>Node11</title>
<g id="a_node12"><a xlink:href="eigen_8h.html" target="_top" xlink:title="This file includes Eigen and defines some aliases for the Eigen&#45;Vector, Matrix and Array...">
<polygon fill="#ffffff" stroke="#000000" points="397,-112.5 397,-131.5 468,-131.5 468,-112.5 397,-112.5"/>
<text text-anchor="middle" x="432.5" y="-119.5" font-family="Helvetica,sans-Serif" font-size="10.00" fill="#000000">alias/eigen.h</text>
</a>
</g>
</g>
<!-- Node10&#45;&gt;Node11 -->
<g id="edge12" class="edge">
<title>Node10&#45;&gt;Node11</title>
<path fill="none" stroke="#191970" d="M348.267,-168.2455C364.2095,-159.4928 387.8259,-146.527 405.9989,-136.5496"/>
<polygon fill="#191970" stroke="#191970" points="407.8552,-139.5233 414.9366,-131.6427 404.4863,-133.3873 407.8552,-139.5233"/>
</g>
<!-- Node13 -->
<g id="node14" class="node">
<title>Node13</title>
<g id="a_node14"><a xlink:href="generator_8h.html" target="_top" xlink:title="This file has a definition of the Generator class, which is one of the cores of this program...">
<polygon fill="#ffffff" stroke="#000000" points="177,-112.5 177,-131.5 264,-131.5 264,-112.5 177,-112.5"/>
<text text-anchor="middle" x="220.5" y="-119.5" font-family="Helvetica,sans-Serif" font-size="10.00" fill="#000000">core/generator.h</text>
</a>
</g>
</g>
<!-- Node10&#45;&gt;Node13 -->
<g id="edge15" class="edge">
<title>Node10&#45;&gt;Node13</title>
<path fill="none" stroke="#191970" d="M311.3395,-168.2455C293.9889,-159.4125 268.2099,-146.2887 248.5417,-136.2758"/>
<polygon fill="#191970" stroke="#191970" points="249.9405,-133.0605 239.441,-131.6427 246.7647,-139.2986 249.9405,-133.0605"/>
</g>
<!-- Node22 -->
<g id="node23" class="node">
<title>Node22</title>
<g id="a_node23"><a xlink:href="data__keys_8h.html" target="_top" xlink:title="This file has a definition of the DataKeys class, which is owned by Element class. ">
<polygon fill="#ffffff" stroke="#000000" points="282.5,-112.5 282.5,-131.5 378.5,-131.5 378.5,-112.5 282.5,-112.5"/>
<text text-anchor="middle" x="330.5" y="-119.5" font-family="Helvetica,sans-Serif" font-size="10.00" fill="#000000">class/data_keys.h</text>
</a>
</g>
</g>
<!-- Node10&#45;&gt;Node22 -->
<g id="edge24" class="edge">
<title>Node10&#45;&gt;Node22</title>
<path fill="none" stroke="#191970" d="M330.5,-168.2455C330.5,-160.9382 330.5,-150.6944 330.5,-141.7046"/>
<polygon fill="#191970" stroke="#191970" points="334.0001,-141.6426 330.5,-131.6427 327.0001,-141.6427 334.0001,-141.6426"/>
</g>
<!-- Node12 -->
<g id="node13" class="node">
<title>Node12</title>
<polygon fill="#ffffff" stroke="#bfbfbf" points="404.5,-56.5 404.5,-75.5 460.5,-75.5 460.5,-56.5 404.5,-56.5"/>
<text text-anchor="middle" x="432.5" y="-63.5" font-family="Helvetica,sans-Serif" font-size="10.00" fill="#000000">Eigen/LU</text>
</g>
<!-- Node11&#45;&gt;Node12 -->
<g id="edge13" class="edge">
<title>Node11&#45;&gt;Node12</title>
<path fill="none" stroke="#191970" d="M432.5,-112.2455C432.5,-104.9382 432.5,-94.6944 432.5,-85.7046"/>
<polygon fill="#191970" stroke="#191970" points="436.0001,-85.6426 432.5,-75.6427 429.0001,-85.6427 436.0001,-85.6426"/>
</g>
<!-- Node14 -->
<g id="node15" class="node">
<title>Node14</title>
<g id="a_node15"><a xlink:href="std_8h.html" target="_top" xlink:title="This file includes a part of C++ Standard Template Library and defines aliases for them...">
<polygon fill="#ffffff" stroke="#000000" points="299.5,-56.5 299.5,-75.5 361.5,-75.5 361.5,-56.5 299.5,-56.5"/>
<text text-anchor="middle" x="330.5" y="-63.5" font-family="Helvetica,sans-Serif" font-size="10.00" fill="#000000">alias/std.h</text>
</a>
</g>
</g>
<!-- Node13&#45;&gt;Node14 -->
<g id="edge16" class="edge">
<title>Node13&#45;&gt;Node14</title>
<path fill="none" stroke="#191970" d="M239.6605,-112.2455C257.0111,-103.4125 282.7901,-90.2887 302.4583,-80.2758"/>
<polygon fill="#191970" stroke="#191970" points="304.2353,-83.2986 311.559,-75.6427 301.0595,-77.0605 304.2353,-83.2986"/>
</g>
<!-- Node20 -->
<g id="node21" class="node">
<title>Node20</title>
<g id="a_node21"><a xlink:href="json_8h.html" target="_top" xlink:title="This file includes nlohmann/json and defines an alias for the JSON type. ">
<polygon fill="#ffffff" stroke="#000000" points="189.5,-56.5 189.5,-75.5 255.5,-75.5 255.5,-56.5 189.5,-56.5"/>
<text text-anchor="middle" x="222.5" y="-63.5" font-family="Helvetica,sans-Serif" font-size="10.00" fill="#000000">alias/json.h</text>
</a>
</g>
</g>
<!-- Node13&#45;&gt;Node20 -->
<g id="edge22" class="edge">
<title>Node13&#45;&gt;Node20</title>
<path fill="none" stroke="#191970" d="M220.8484,-112.2455C221.1093,-104.9382 221.4752,-94.6944 221.7963,-85.7046"/>
<polygon fill="#191970" stroke="#191970" points="225.2964,-85.7613 222.1556,-75.6427 218.3008,-85.5113 225.2964,-85.7613"/>
</g>
<!-- Node15 -->
<g id="node16" class="node">
<title>Node15</title>
<polygon fill="#ffffff" stroke="#bfbfbf" points="437.5,-.5 437.5,-19.5 489.5,-19.5 489.5,-.5 437.5,-.5"/>
<text text-anchor="middle" x="463.5" y="-7.5" font-family="Helvetica,sans-Serif" font-size="10.00" fill="#000000">memory</text>
</g>
<!-- Node14&#45;&gt;Node15 -->
<g id="edge17" class="edge">
<title>Node14&#45;&gt;Node15</title>
<path fill="none" stroke="#191970" d="M353.3635,-56.3733C374.905,-47.3032 407.3838,-33.6279 431.4956,-23.4755"/>
<polygon fill="#191970" stroke="#191970" points="433.0767,-26.6075 440.9348,-19.5011 430.3603,-20.156 433.0767,-26.6075"/>
</g>
<!-- Node16 -->
<g id="node17" class="node">
<title>Node16</title>
<polygon fill="#ffffff" stroke="#bfbfbf" points="508,-.5 508,-19.5 549,-19.5 549,-.5 508,-.5"/>
<text text-anchor="middle" x="528.5" y="-7.5" font-family="Helvetica,sans-Serif" font-size="10.00" fill="#000000">string</text>
</g>
<!-- Node14&#45;&gt;Node16 -->
<g id="edge18" class="edge">
<title>Node14&#45;&gt;Node16</title>
<path fill="none" stroke="#191970" d="M361.6089,-58.0248C393.5254,-49.7236 444.8127,-36.056 498.2463,-19.959"/>
<polygon fill="#191970" stroke="#191970" points="499.3368,-23.2858 507.8904,-17.034 497.305,-16.5871 499.3368,-23.2858"/>
</g>
<!-- Node17 -->
<g id="node18" class="node">
<title>Node17</title>
<polygon fill="#ffffff" stroke="#bfbfbf" points="177.5,-.5 177.5,-19.5 221.5,-19.5 221.5,-.5 177.5,-.5"/>
<text text-anchor="middle" x="199.5" y="-7.5" font-family="Helvetica,sans-Serif" font-size="10.00" fill="#000000">vector</text>
</g>
<!-- Node14&#45;&gt;Node17 -->
<g id="edge19" class="edge">
<title>Node14&#45;&gt;Node17</title>
<path fill="none" stroke="#191970" d="M307.9803,-56.3733C286.7628,-47.3032 254.7724,-33.6279 231.0231,-23.4755"/>
<polygon fill="#191970" stroke="#191970" points="232.2967,-20.2136 221.7258,-19.5011 229.5452,-26.6502 232.2967,-20.2136"/>
</g>
<!-- Node18 -->
<g id="node19" class="node">
<title>Node18</title>
<polygon fill="#ffffff" stroke="#bfbfbf" points="240,-.5 240,-19.5 323,-19.5 323,-.5 240,-.5"/>
<text text-anchor="middle" x="281.5" y="-7.5" font-family="Helvetica,sans-Serif" font-size="10.00" fill="#000000">unordered_map</text>
</g>
<!-- Node14&#45;&gt;Node18 -->
<g id="edge20" class="edge">
<title>Node14&#45;&gt;Node18</title>
<path fill="none" stroke="#191970" d="M321.9649,-56.2455C315.0088,-48.2958 305.0117,-36.8706 296.6949,-27.3656"/>
<polygon fill="#191970" stroke="#191970" points="299.1564,-24.8637 289.9373,-19.6427 293.8884,-29.4732 299.1564,-24.8637"/>
</g>
<!-- Node19 -->
<g id="node20" class="node">
<title>Node19</title>
<polygon fill="#ffffff" stroke="#bfbfbf" points="341.5,-.5 341.5,-19.5 419.5,-19.5 419.5,-.5 341.5,-.5"/>
<text text-anchor="middle" x="380.5" y="-7.5" font-family="Helvetica,sans-Serif" font-size="10.00" fill="#000000">unordered_set</text>
</g>
<!-- Node14&#45;&gt;Node19 -->
<g id="edge21" class="edge">
<title>Node14&#45;&gt;Node19</title>
<path fill="none" stroke="#191970" d="M339.2093,-56.2455C346.3073,-48.2958 356.5084,-36.8706 364.995,-27.3656"/>
<polygon fill="#191970" stroke="#191970" points="367.8411,-29.4331 371.8905,-19.6427 362.6195,-24.771 367.8411,-29.4331"/>
</g>
<!-- Node21 -->
<g id="node22" class="node">
<title>Node21</title>
<polygon fill="#ffffff" stroke="#bfbfbf" points="61.5,-.5 61.5,-19.5 159.5,-19.5 159.5,-.5 61.5,-.5"/>
<text text-anchor="middle" x="110.5" y="-7.5" font-family="Helvetica,sans-Serif" font-size="10.00" fill="#000000">nlohmann/json.hpp</text>
</g>
<!-- Node20&#45;&gt;Node21 -->
<g id="edge23" class="edge">
<title>Node20&#45;&gt;Node21</title>
<path fill="none" stroke="#191970" d="M203.2465,-56.3733C185.4288,-47.4644 158.7253,-34.1127 138.5406,-24.0203"/>
<polygon fill="#191970" stroke="#191970" points="140.0118,-20.8428 129.5022,-19.5011 136.8813,-27.1038 140.0118,-20.8428"/>
</g>
<!-- Node22&#45;&gt;Node14 -->
<g id="edge25" class="edge">
<title>Node22&#45;&gt;Node14</title>
<path fill="none" stroke="#191970" d="M330.5,-112.2455C330.5,-104.9382 330.5,-94.6944 330.5,-85.7046"/>
<polygon fill="#191970" stroke="#191970" points="334.0001,-85.6426 330.5,-75.6427 327.0001,-85.6427 334.0001,-85.6426"/>
</g>
<!-- Node22&#45;&gt;Node20 -->
<g id="edge26" class="edge">
<title>Node22&#45;&gt;Node20</title>
<path fill="none" stroke="#191970" d="M311.6878,-112.2455C294.6527,-103.4125 269.3425,-90.2887 250.0319,-80.2758"/>
<polygon fill="#191970" stroke="#191970" points="251.5853,-77.1388 241.0966,-75.6427 248.363,-83.353 251.5853,-77.1388"/>
</g>
<!-- Node23&#45;&gt;Node10 -->
<g id="edge28" class="edge">
<title>Node23&#45;&gt;Node10</title>
<path fill="none" stroke="#191970" d="M247.9187,-224.2455C263.5485,-215.4928 286.7019,-202.527 304.5185,-192.5496"/>
<polygon fill="#191970" stroke="#191970" points="306.266,-195.5825 313.2809,-187.6427 302.8457,-189.475 306.266,-195.5825"/>
</g>
<!-- Node24&#45;&gt;Node10 -->
<g id="edge30" class="edge">
<title>Node24&#45;&gt;Node10</title>
<path fill="none" stroke="#191970" d="M330.5,-224.2455C330.5,-216.9382 330.5,-206.6944 330.5,-197.7046"/>
<polygon fill="#191970" stroke="#191970" points="334.0001,-197.6426 330.5,-187.6427 327.0001,-197.6427 334.0001,-197.6426"/>
</g>
</g>
</svg>
