<?xml version="1.0" encoding="UTF-8" standalone="no"?>
<!DOCTYPE svg PUBLIC "-//W3C//DTD SVG 1.1//EN"
 "http://www.w3.org/Graphics/SVG/1.1/DTD/svg11.dtd">
<!-- Generated by graphviz version 2.40.1 (20161225.0304)
 -->
<!-- Title: src/pybind/py_adders/add_rename.h Pages: 1 -->
<svg width="566pt" height="543pt"
 viewBox="0.00 0.00 565.50 543.00" xmlns="http://www.w3.org/2000/svg" xmlns:xlink="http://www.w3.org/1999/xlink">
<g id="graph0" class="graph" transform="scale(1 1) rotate(0) translate(4 539)">
<title>src/pybind/py_adders/add_rename.h</title>
<polygon fill="#ffffff" stroke="transparent" points="-4,4 -4,-539 561.5,-539 561.5,4 -4,4"/>
<!-- Node0 -->
<g id="node1" class="node">
<title>Node0</title>
<polygon fill="#bfbfbf" stroke="#000000" points="68,-504.5 68,-534.5 178,-534.5 178,-504.5 68,-504.5"/>
<text text-anchor="start" x="76" y="-522.5" font-family="Helvetica,sans-Serif" font-size="10.00" fill="#000000">src/pybind/py_adders</text>
<text text-anchor="middle" x="123" y="-511.5" font-family="Helvetica,sans-Serif" font-size="10.00" fill="#000000">/add_rename.h</text>
</g>
<!-- Node1 -->
<g id="node2" class="node">
<title>Node1</title>
<polygon fill="#ffffff" stroke="#bfbfbf" points="0,-448.5 0,-467.5 110,-467.5 110,-448.5 0,-448.5"/>
<text text-anchor="middle" x="55" y="-455.5" font-family="Helvetica,sans-Serif" font-size="10.00" fill="#000000">adders/add_rename.h</text>
</g>
<!-- Node0&#45;&gt;Node1 -->
<g id="edge1" class="edge">
<title>Node0&#45;&gt;Node1</title>
<path fill="none" stroke="#191970" d="M106.191,-504.2977C96.2603,-495.3163 83.6743,-483.9334 73.4673,-474.702"/>
<polygon fill="#191970" stroke="#191970" points="75.652,-471.9588 65.8877,-467.8469 70.9566,-477.1505 75.652,-471.9588"/>
</g>
<!-- Node2 -->
<g id="node3" class="node">
<title>Node2</title>
<g id="a_node3"><a xlink:href="pybind_2py__adders_2adder_8h.html" target="_top" xlink:title="This file has a function to bind Adder class to Python. ">
<polygon fill="#ffffff" stroke="#000000" points="128,-448.5 128,-467.5 256,-467.5 256,-448.5 128,-448.5"/>
<text text-anchor="middle" x="192" y="-455.5" font-family="Helvetica,sans-Serif" font-size="10.00" fill="#000000">pybind/py_adders/adder.h</text>
</a>
</g>
</g>
<!-- Node0&#45;&gt;Node2 -->
<g id="edge2" class="edge">
<title>Node0&#45;&gt;Node2</title>
<path fill="none" stroke="#191970" d="M140.0562,-504.2977C150.1329,-495.3163 162.904,-483.9334 173.2611,-474.702"/>
<polygon fill="#191970" stroke="#191970" points="175.8159,-477.1135 180.9522,-467.8469 171.1583,-471.8879 175.8159,-477.1135"/>
</g>
<!-- Node3 -->
<g id="node4" class="node">
<title>Node3</title>
<polygon fill="#ffffff" stroke="#bfbfbf" points="100.5,-392.5 100.5,-411.5 181.5,-411.5 181.5,-392.5 100.5,-392.5"/>
<text text-anchor="middle" x="141" y="-399.5" font-family="Helvetica,sans-Serif" font-size="10.00" fill="#000000">adders/adder.h</text>
</g>
<!-- Node2&#45;&gt;Node3 -->
<g id="edge3" class="edge">
<title>Node2&#45;&gt;Node3</title>
<path fill="none" stroke="#191970" d="M183.1165,-448.2455C175.8034,-440.2155 165.2609,-428.6394 156.5533,-419.0781"/>
<polygon fill="#191970" stroke="#191970" points="159.1028,-416.6795 149.7817,-411.6427 153.9273,-421.3928 159.1028,-416.6795"/>
</g>
<!-- Node4 -->
<g id="node5" class="node">
<title>Node4</title>
<g id="a_node5"><a xlink:href="pybind_2updater_8h.html" target="_top" xlink:title="This file is for binding Updater class to Python. ">
<polygon fill="#ffffff" stroke="#000000" points="199.5,-392.5 199.5,-411.5 288.5,-411.5 288.5,-392.5 199.5,-392.5"/>
<text text-anchor="middle" x="244" y="-399.5" font-family="Helvetica,sans-Serif" font-size="10.00" fill="#000000">pybind/updater.h</text>
</a>
</g>
</g>
<!-- Node2&#45;&gt;Node4 -->
<g id="edge4" class="edge">
<title>Node2&#45;&gt;Node4</title>
<path fill="none" stroke="#191970" d="M201.0577,-448.2455C208.5142,-440.2155 219.2634,-428.6394 228.1417,-419.0781"/>
<polygon fill="#191970" stroke="#191970" points="230.8063,-421.3522 235.0461,-411.6427 225.6768,-416.589 230.8063,-421.3522"/>
</g>
<!-- Node5 -->
<g id="node6" class="node">
<title>Node5</title>
<g id="a_node6"><a xlink:href="alias_2pybind_8h.html" target="_top" xlink:title="This file includes pybind11 and defines an alias for the namespace pybind11. ">
<polygon fill="#ffffff" stroke="#000000" points="90.5,-112.5 90.5,-131.5 167.5,-131.5 167.5,-112.5 90.5,-112.5"/>
<text text-anchor="middle" x="129" y="-119.5" font-family="Helvetica,sans-Serif" font-size="10.00" fill="#000000">alias/pybind.h</text>
</a>
</g>
</g>
<!-- Node4&#45;&gt;Node5 -->
<g id="edge5" class="edge">
<title>Node4&#45;&gt;Node5</title>
<path fill="none" stroke="#191970" d="M227.0159,-392.368C199.6905,-375.4638 149,-337.6798 149,-290 149,-290 149,-290 149,-234 149,-201.2193 140.5945,-163.8705 134.6819,-141.6533"/>
<polygon fill="#191970" stroke="#191970" points="137.991,-140.4878 131.9511,-131.7832 131.2445,-142.3545 137.991,-140.4878"/>
</g>
<!-- Node7 -->
<g id="node8" class="node">
<title>Node7</title>
<g id="a_node8"><a xlink:href="core_2updater_8h.html" target="_top" xlink:title="This file has a definition of the Updater class, which is one of the cores of this program...">
<polygon fill="#ffffff" stroke="#000000" points="299.5,-336.5 299.5,-355.5 378.5,-355.5 378.5,-336.5 299.5,-336.5"/>
<text text-anchor="middle" x="339" y="-343.5" font-family="Helvetica,sans-Serif" font-size="10.00" fill="#000000">core/updater.h</text>
</a>
</g>
</g>
<!-- Node4&#45;&gt;Node7 -->
<g id="edge7" class="edge">
<title>Node4&#45;&gt;Node7</title>
<path fill="none" stroke="#191970" d="M260.5477,-392.2455C275.2599,-383.5731 296.9888,-370.7645 313.8505,-360.825"/>
<polygon fill="#191970" stroke="#191970" points="315.8046,-363.736 322.6419,-355.6427 312.2498,-357.7057 315.8046,-363.736"/>
</g>
<!-- Node6 -->
<g id="node7" class="node">
<title>Node6</title>
<polygon fill="#ffffff" stroke="#bfbfbf" points="74,-56.5 74,-75.5 180,-75.5 180,-56.5 74,-56.5"/>
<text text-anchor="middle" x="127" y="-63.5" font-family="Helvetica,sans-Serif" font-size="10.00" fill="#000000">pybind11/pybind11.h</text>
</g>
<!-- Node5&#45;&gt;Node6 -->
<g id="edge6" class="edge">
<title>Node5&#45;&gt;Node6</title>
<path fill="none" stroke="#191970" d="M128.6516,-112.2455C128.3907,-104.9382 128.0248,-94.6944 127.7037,-85.7046"/>
<polygon fill="#191970" stroke="#191970" points="131.1992,-85.5113 127.3444,-75.6427 124.2036,-85.7613 131.1992,-85.5113"/>
</g>
<!-- Node8 -->
<g id="node9" class="node">
<title>Node8</title>
<polygon fill="#ffffff" stroke="#bfbfbf" points="495,-112.5 495,-131.5 539,-131.5 539,-112.5 495,-112.5"/>
<text text-anchor="middle" x="517" y="-119.5" font-family="Helvetica,sans-Serif" font-size="10.00" fill="#000000">omp.h</text>
</g>
<!-- Node7&#45;&gt;Node8 -->
<g id="edge8" class="edge">
<title>Node7&#45;&gt;Node8</title>
<path fill="none" stroke="#191970" d="M352.5431,-336.3144C364.2503,-327.575 381.2492,-313.9793 394,-300 442.3826,-246.9558 487.083,-173.8959 506.6296,-140.2767"/>
<polygon fill="#191970" stroke="#191970" points="509.7083,-141.9441 511.6622,-131.531 503.641,-138.4528 509.7083,-141.9441"/>
</g>
<!-- Node9 -->
<g id="node10" class="node">
<title>Node9</title>
<g id="a_node10"><a xlink:href="generators_8h.html" target="_top" xlink:title="This file includes all the header files of subclasses of Generator. ">
<polygon fill="#ffffff" stroke="#000000" points="293,-280.5 293,-299.5 385,-299.5 385,-280.5 293,-280.5"/>
<text text-anchor="middle" x="339" y="-287.5" font-family="Helvetica,sans-Serif" font-size="10.00" fill="#000000">core/generators.h</text>
</a>
</g>
</g>
<!-- Node7&#45;&gt;Node9 -->
<g id="edge9" class="edge">
<title>Node7&#45;&gt;Node9</title>
<path fill="none" stroke="#191970" d="M339,-336.2455C339,-328.9382 339,-318.6944 339,-309.7046"/>
<polygon fill="#191970" stroke="#191970" points="342.5001,-309.6426 339,-299.6427 335.5001,-309.6427 342.5001,-309.6426"/>
</g>
<!-- Node10 -->
<g id="node11" class="node">
<title>Node10</title>
<g id="a_node11"><a xlink:href="core_2element_8h.html" target="_top" xlink:title="This file has a definition of the Element class, which is one of the cores of this program...">
<polygon fill="#ffffff" stroke="#000000" points="298.5,-168.5 298.5,-187.5 379.5,-187.5 379.5,-168.5 298.5,-168.5"/>
<text text-anchor="middle" x="339" y="-175.5" font-family="Helvetica,sans-Serif" font-size="10.00" fill="#000000">core/element.h</text>
</a>
</g>
</g>
<!-- Node9&#45;&gt;Node10 -->
<g id="edge10" class="edge">
<title>Node9&#45;&gt;Node10</title>
<path fill="none" stroke="#191970" d="M354.8247,-280.4104C372.5741,-268.3201 397.6935,-246.3956 388,-224 382.7663,-211.9081 372.6158,-201.5335 362.9045,-193.7139"/>
<polygon fill="#191970" stroke="#191970" points="364.7234,-190.7038 354.618,-187.5209 360.5329,-196.3109 364.7234,-190.7038"/>
</g>
<!-- Node23 -->
<g id="node24" class="node">
<title>Node23</title>
<g id="a_node24"><a xlink:href="gen__dict_8h.html" target="_top" xlink:title="This file has a definition of the GenDict class. ">
<polygon fill="#ffffff" stroke="#000000" points="197.5,-224.5 197.5,-243.5 280.5,-243.5 280.5,-224.5 197.5,-224.5"/>
<text text-anchor="middle" x="239" y="-231.5" font-family="Helvetica,sans-Serif" font-size="10.00" fill="#000000">core/gen_dict.h</text>
</a>
</g>
</g>
<!-- Node9&#45;&gt;Node23 -->
<g id="edge27" class="edge">
<title>Node9&#45;&gt;Node23</title>
<path fill="none" stroke="#191970" d="M321.5813,-280.2455C305.9515,-271.4928 282.7981,-258.527 264.9815,-248.5496"/>
<polygon fill="#191970" stroke="#191970" points="266.6543,-245.475 256.2191,-243.6427 263.234,-251.5825 266.6543,-245.475"/>
</g>
<!-- Node24 -->
<g id="node25" class="node">
<title>Node24</title>
<g id="a_node25"><a xlink:href="gen__list_8h.html" target="_top" xlink:title="This file has a definition of the GenList class. ">
<polygon fill="#ffffff" stroke="#000000" points="299,-224.5 299,-243.5 379,-243.5 379,-224.5 299,-224.5"/>
<text text-anchor="middle" x="339" y="-231.5" font-family="Helvetica,sans-Serif" font-size="10.00" fill="#000000">core/gen_list.h</text>
</a>
</g>
</g>
<!-- Node9&#45;&gt;Node24 -->
<g id="edge29" class="edge">
<title>Node9&#45;&gt;Node24</title>
<path fill="none" stroke="#191970" d="M339,-280.2455C339,-272.9382 339,-262.6944 339,-253.7046"/>
<polygon fill="#191970" stroke="#191970" points="342.5001,-253.6426 339,-243.6427 335.5001,-253.6427 342.5001,-253.6426"/>
</g>
<!-- Node10&#45;&gt;Node5 -->
<g id="edge14" class="edge">
<title>Node10&#45;&gt;Node5</title>
<path fill="none" stroke="#191970" d="M302.8997,-168.3733C267.3752,-158.9001 213.012,-144.4032 174.5381,-134.1435"/>
<polygon fill="#191970" stroke="#191970" points="175.1934,-130.696 164.6292,-131.5011 173.3897,-137.4596 175.1934,-130.696"/>
</g>
<!-- Node10&#45;&gt;Node8 -->
<g id="edge11" class="edge">
<title>Node10&#45;&gt;Node8</title>
<path fill="none" stroke="#191970" d="M369.7133,-168.475C397.4937,-159.8406 439.7723,-146.6533 485.2445,-132.2226"/>
<polygon fill="#191970" stroke="#191970" points="486.5215,-135.4894 494.9922,-129.1256 484.4018,-128.818 486.5215,-135.4894"/>
</g>
<!-- Node11 -->
<g id="node12" class="node">
<title>Node11</title>
<g id="a_node12"><a xlink:href="eigen_8h.html" target="_top" xlink:title="This file includes Eigen and defines some aliases for the Eigen&#45;Vector, Matrix and Array...">
<polygon fill="#ffffff" stroke="#000000" points="405.5,-112.5 405.5,-131.5 476.5,-131.5 476.5,-112.5 405.5,-112.5"/>
<text text-anchor="middle" x="441" y="-119.5" font-family="Helvetica,sans-Serif" font-size="10.00" fill="#000000">alias/eigen.h</text>
</a>
</g>
</g>
<!-- Node10&#45;&gt;Node11 -->
<g id="edge12" class="edge">
<title>Node10&#45;&gt;Node11</title>
<path fill="none" stroke="#191970" d="M356.767,-168.2455C372.7095,-159.4928 396.3259,-146.527 414.4989,-136.5496"/>
<polygon fill="#191970" stroke="#191970" points="416.3552,-139.5233 423.4366,-131.6427 412.9863,-133.3873 416.3552,-139.5233"/>
</g>
<!-- Node13 -->
<g id="node14" class="node">
<title>Node13</title>
<g id="a_node14"><a xlink:href="generator_8h.html" target="_top" xlink:title="This file has a definition of the Generator class, which is one of the cores of this program...">
<polygon fill="#ffffff" stroke="#000000" points="185.5,-112.5 185.5,-131.5 272.5,-131.5 272.5,-112.5 185.5,-112.5"/>
<text text-anchor="middle" x="229" y="-119.5" font-family="Helvetica,sans-Serif" font-size="10.00" fill="#000000">core/generator.h</text>
</a>
</g>
</g>
<!-- Node10&#45;&gt;Node13 -->
<g id="edge15" class="edge">
<title>Node10&#45;&gt;Node13</title>
<path fill="none" stroke="#191970" d="M319.8395,-168.2455C302.4889,-159.4125 276.7099,-146.2887 257.0417,-136.2758"/>
<polygon fill="#191970" stroke="#191970" points="258.4405,-133.0605 247.941,-131.6427 255.2647,-139.2986 258.4405,-133.0605"/>
</g>
<!-- Node22 -->
<g id="node23" class="node">
<title>Node22</title>
<g id="a_node23"><a xlink:href="data__keys_8h.html" target="_top" xlink:title="This file has a definition of the DataKeys class, which is owned by Element class. ">
<polygon fill="#ffffff" stroke="#000000" points="291,-112.5 291,-131.5 387,-131.5 387,-112.5 291,-112.5"/>
<text text-anchor="middle" x="339" y="-119.5" font-family="Helvetica,sans-Serif" font-size="10.00" fill="#000000">class/data_keys.h</text>
</a>
</g>
</g>
<!-- Node10&#45;&gt;Node22 -->
<g id="edge24" class="edge">
<title>Node10&#45;&gt;Node22</title>
<path fill="none" stroke="#191970" d="M339,-168.2455C339,-160.9382 339,-150.6944 339,-141.7046"/>
<polygon fill="#191970" stroke="#191970" points="342.5001,-141.6426 339,-131.6427 335.5001,-141.6427 342.5001,-141.6426"/>
</g>
<!-- Node12 -->
<g id="node13" class="node">
<title>Node12</title>
<polygon fill="#ffffff" stroke="#bfbfbf" points="413,-56.5 413,-75.5 469,-75.5 469,-56.5 413,-56.5"/>
<text text-anchor="middle" x="441" y="-63.5" font-family="Helvetica,sans-Serif" font-size="10.00" fill="#000000">Eigen/LU</text>
</g>
<!-- Node11&#45;&gt;Node12 -->
<g id="edge13" class="edge">
<title>Node11&#45;&gt;Node12</title>
<path fill="none" stroke="#191970" d="M441,-112.2455C441,-104.9382 441,-94.6944 441,-85.7046"/>
<polygon fill="#191970" stroke="#191970" points="444.5001,-85.6426 441,-75.6427 437.5001,-85.6427 444.5001,-85.6426"/>
</g>
<!-- Node14 -->
<g id="node15" class="node">
<title>Node14</title>
<g id="a_node15"><a xlink:href="std_8h.html" target="_top" xlink:title="This file includes a part of C++ Standard Template Library and defines aliases for them...">
<polygon fill="#ffffff" stroke="#000000" points="308,-56.5 308,-75.5 370,-75.5 370,-56.5 308,-56.5"/>
<text text-anchor="middle" x="339" y="-63.5" font-family="Helvetica,sans-Serif" font-size="10.00" fill="#000000">alias/std.h</text>
</a>
</g>
</g>
<!-- Node13&#45;&gt;Node14 -->
<g id="edge16" class="edge">
<title>Node13&#45;&gt;Node14</title>
<path fill="none" stroke="#191970" d="M248.1605,-112.2455C265.5111,-103.4125 291.2901,-90.2887 310.9583,-80.2758"/>
<polygon fill="#191970" stroke="#191970" points="312.7353,-83.2986 320.059,-75.6427 309.5595,-77.0605 312.7353,-83.2986"/>
</g>
<!-- Node20 -->
<g id="node21" class="node">
<title>Node20</title>
<g id="a_node21"><a xlink:href="json_8h.html" target="_top" xlink:title="This file includes nlohmann/json and defines an alias for the JSON type. ">
<polygon fill="#ffffff" stroke="#000000" points="198,-56.5 198,-75.5 264,-75.5 264,-56.5 198,-56.5"/>
<text text-anchor="middle" x="231" y="-63.5" font-family="Helvetica,sans-Serif" font-size="10.00" fill="#000000">alias/json.h</text>
</a>
</g>
</g>
<!-- Node13&#45;&gt;Node20 -->
<g id="edge22" class="edge">
<title>Node13&#45;&gt;Node20</title>
<path fill="none" stroke="#191970" d="M229.3484,-112.2455C229.6093,-104.9382 229.9752,-94.6944 230.2963,-85.7046"/>
<polygon fill="#191970" stroke="#191970" points="233.7964,-85.7613 230.6556,-75.6427 226.8008,-85.5113 233.7964,-85.7613"/>
</g>
<!-- Node15 -->
<g id="node16" class="node">
<title>Node15</title>
<polygon fill="#ffffff" stroke="#bfbfbf" points="446,-.5 446,-19.5 498,-19.5 498,-.5 446,-.5"/>
<text text-anchor="middle" x="472" y="-7.5" font-family="Helvetica,sans-Serif" font-size="10.00" fill="#000000">memory</text>
</g>
<!-- Node14&#45;&gt;Node15 -->
<g id="edge17" class="edge">
<title>Node14&#45;&gt;Node15</title>
<path fill="none" stroke="#191970" d="M361.8635,-56.3733C383.405,-47.3032 415.8838,-33.6279 439.9956,-23.4755"/>
<polygon fill="#191970" stroke="#191970" points="441.5767,-26.6075 449.4348,-19.5011 438.8603,-20.156 441.5767,-26.6075"/>
</g>
<!-- Node16 -->
<g id="node17" class="node">
<title>Node16</title>
<polygon fill="#ffffff" stroke="#bfbfbf" points="516.5,-.5 516.5,-19.5 557.5,-19.5 557.5,-.5 516.5,-.5"/>
<text text-anchor="middle" x="537" y="-7.5" font-family="Helvetica,sans-Serif" font-size="10.00" fill="#000000">string</text>
</g>
<!-- Node14&#45;&gt;Node16 -->
<g id="edge18" class="edge">
<title>Node14&#45;&gt;Node16</title>
<path fill="none" stroke="#191970" d="M370.1089,-58.0248C402.0254,-49.7236 453.3127,-36.056 506.7463,-19.959"/>
<polygon fill="#191970" stroke="#191970" points="507.8368,-23.2858 516.3904,-17.034 505.805,-16.5871 507.8368,-23.2858"/>
</g>
<!-- Node17 -->
<g id="node18" class="node">
<title>Node17</title>
<polygon fill="#ffffff" stroke="#bfbfbf" points="186,-.5 186,-19.5 230,-19.5 230,-.5 186,-.5"/>
<text text-anchor="middle" x="208" y="-7.5" font-family="Helvetica,sans-Serif" font-size="10.00" fill="#000000">vector</text>
</g>
<!-- Node14&#45;&gt;Node17 -->
<g id="edge19" class="edge">
<title>Node14&#45;&gt;Node17</title>
<path fill="none" stroke="#191970" d="M316.4803,-56.3733C295.2628,-47.3032 263.2724,-33.6279 239.5231,-23.4755"/>
<polygon fill="#191970" stroke="#191970" points="240.7967,-20.2136 230.2258,-19.5011 238.0452,-26.6502 240.7967,-20.2136"/>
</g>
<!-- Node18 -->
<g id="node19" class="node">
<title>Node18</title>
<polygon fill="#ffffff" stroke="#bfbfbf" points="248.5,-.5 248.5,-19.5 331.5,-19.5 331.5,-.5 248.5,-.5"/>
<text text-anchor="middle" x="290" y="-7.5" font-family="Helvetica,sans-Serif" font-size="10.00" fill="#000000">unordered_map</text>
</g>
<!-- Node14&#45;&gt;Node18 -->
<g id="edge20" class="edge">
<title>Node14&#45;&gt;Node18</title>
<path fill="none" stroke="#191970" d="M330.4649,-56.2455C323.5088,-48.2958 313.5117,-36.8706 305.1949,-27.3656"/>
<polygon fill="#191970" stroke="#191970" points="307.6564,-24.8637 298.4373,-19.6427 302.3884,-29.4732 307.6564,-24.8637"/>
</g>
<!-- Node19 -->
<g id="node20" class="node">
<title>Node19</title>
<polygon fill="#ffffff" stroke="#bfbfbf" points="350,-.5 350,-19.5 428,-19.5 428,-.5 350,-.5"/>
<text text-anchor="middle" x="389" y="-7.5" font-family="Helvetica,sans-Serif" font-size="10.00" fill="#000000">unordered_set</text>
</g>
<!-- Node14&#45;&gt;Node19 -->
<g id="edge21" class="edge">
<title>Node14&#45;&gt;Node19</title>
<path fill="none" stroke="#191970" d="M347.7093,-56.2455C354.8073,-48.2958 365.0084,-36.8706 373.495,-27.3656"/>
<polygon fill="#191970" stroke="#191970" points="376.3411,-29.4331 380.3905,-19.6427 371.1195,-24.771 376.3411,-29.4331"/>
</g>
<!-- Node21 -->
<g id="node22" class="node">
<title>Node21</title>
<polygon fill="#ffffff" stroke="#bfbfbf" points="70,-.5 70,-19.5 168,-19.5 168,-.5 70,-.5"/>
<text text-anchor="middle" x="119" y="-7.5" font-family="Helvetica,sans-Serif" font-size="10.00" fill="#000000">nlohmann/json.hpp</text>
</g>
<!-- Node20&#45;&gt;Node21 -->
<g id="edge23" class="edge">
<title>Node20&#45;&gt;Node21</title>
<path fill="none" stroke="#191970" d="M211.7465,-56.3733C193.9288,-47.4644 167.2253,-34.1127 147.0406,-24.0203"/>
<polygon fill="#191970" stroke="#191970" points="148.5118,-20.8428 138.0022,-19.5011 145.3813,-27.1038 148.5118,-20.8428"/>
</g>
<!-- Node22&#45;&gt;Node14 -->
<g id="edge25" class="edge">
<title>Node22&#45;&gt;Node14</title>
<path fill="none" stroke="#191970" d="M339,-112.2455C339,-104.9382 339,-94.6944 339,-85.7046"/>
<polygon fill="#191970" stroke="#191970" points="342.5001,-85.6426 339,-75.6427 335.5001,-85.6427 342.5001,-85.6426"/>
</g>
<!-- Node22&#45;&gt;Node20 -->
<g id="edge26" class="edge">
<title>Node22&#45;&gt;Node20</title>
<path fill="none" stroke="#191970" d="M320.1878,-112.2455C303.1527,-103.4125 277.8425,-90.2887 258.5319,-80.2758"/>
<polygon fill="#191970" stroke="#191970" points="260.0853,-77.1388 249.5966,-75.6427 256.863,-83.353 260.0853,-77.1388"/>
</g>
<!-- Node23&#45;&gt;Node10 -->
<g id="edge28" class="edge">
<title>Node23&#45;&gt;Node10</title>
<path fill="none" stroke="#191970" d="M256.4187,-224.2455C272.0485,-215.4928 295.2019,-202.527 313.0185,-192.5496"/>
<polygon fill="#191970" stroke="#191970" points="314.766,-195.5825 321.7809,-187.6427 311.3457,-189.475 314.766,-195.5825"/>
</g>
<!-- Node24&#45;&gt;Node10 -->
<g id="edge30" class="edge">
<title>Node24&#45;&gt;Node10</title>
<path fill="none" stroke="#191970" d="M339,-224.2455C339,-216.9382 339,-206.6944 339,-197.7046"/>
<polygon fill="#191970" stroke="#191970" points="342.5001,-197.6426 339,-187.6427 335.5001,-197.6427 342.5001,-197.6426"/>
</g>
</g>
</svg>
