<?xml version="1.0" encoding="UTF-8" standalone="no"?>
<!DOCTYPE svg PUBLIC "-//W3C//DTD SVG 1.1//EN"
 "http://www.w3.org/Graphics/SVG/1.1/DTD/svg11.dtd">
<!-- Generated by graphviz version 2.40.1 (20161225.0304)
 -->
<!-- Title: src/pybind/py_adders/add_inertia_moment.h Pages: 1 -->
<svg width="552pt" height="554pt"
 viewBox="0.00 0.00 551.50 554.00" xmlns="http://www.w3.org/2000/svg" xmlns:xlink="http://www.w3.org/1999/xlink">
<g id="graph0" class="graph" transform="scale(1 1) rotate(0) translate(4 550)">
<title>src/pybind/py_adders/add_inertia_moment.h</title>
<polygon fill="#ffffff" stroke="transparent" points="-4,4 -4,-550 547.5,-550 547.5,4 -4,4"/>
<!-- Node0 -->
<g id="node1" class="node">
<title>Node0</title>
<polygon fill="#bfbfbf" stroke="#000000" points="55,-515.5 55,-545.5 171,-545.5 171,-515.5 55,-515.5"/>
<text text-anchor="start" x="63" y="-533.5" font-family="Helvetica,sans-Serif" font-size="10.00" fill="#000000">src/pybind/py_adders</text>
<text text-anchor="middle" x="113" y="-522.5" font-family="Helvetica,sans-Serif" font-size="10.00" fill="#000000">/add_inertia_moment.h</text>
</g>
<!-- Node1 -->
<g id="node2" class="node">
<title>Node1</title>
<polygon fill="#ffffff" stroke="#bfbfbf" points="0,-448.5 0,-478.5 96,-478.5 96,-448.5 0,-448.5"/>
<text text-anchor="start" x="8" y="-466.5" font-family="Helvetica,sans-Serif" font-size="10.00" fill="#000000">adders/add_inertia</text>
<text text-anchor="middle" x="48" y="-455.5" font-family="Helvetica,sans-Serif" font-size="10.00" fill="#000000">_moment.h</text>
</g>
<!-- Node0&#45;&gt;Node1 -->
<g id="edge1" class="edge">
<title>Node0&#45;&gt;Node1</title>
<path fill="none" stroke="#191970" d="M98.2505,-515.2967C89.8567,-506.6446 79.1843,-495.6438 69.8358,-486.0076"/>
<polygon fill="#191970" stroke="#191970" points="72.1664,-483.3835 62.6911,-478.6432 67.1422,-488.2577 72.1664,-483.3835"/>
</g>
<!-- Node2 -->
<g id="node3" class="node">
<title>Node2</title>
<g id="a_node3"><a xlink:href="pybind_2py__adders_2adder_8h.html" target="_top" xlink:title="This file has a function to bind Adder class to Python. ">
<polygon fill="#ffffff" stroke="#000000" points="114,-454 114,-473 242,-473 242,-454 114,-454"/>
<text text-anchor="middle" x="178" y="-461" font-family="Helvetica,sans-Serif" font-size="10.00" fill="#000000">pybind/py_adders/adder.h</text>
</a>
</g>
</g>
<!-- Node0&#45;&gt;Node2 -->
<g id="edge2" class="edge">
<title>Node0&#45;&gt;Node2</title>
<path fill="none" stroke="#191970" d="M127.7495,-515.2967C137.8768,-504.8578 151.3212,-490.9997 161.7552,-480.2446"/>
<polygon fill="#191970" stroke="#191970" points="164.2792,-482.6695 168.7303,-473.055 159.255,-477.7953 164.2792,-482.6695"/>
</g>
<!-- Node3 -->
<g id="node4" class="node">
<title>Node3</title>
<polygon fill="#ffffff" stroke="#bfbfbf" points="86.5,-392.5 86.5,-411.5 167.5,-411.5 167.5,-392.5 86.5,-392.5"/>
<text text-anchor="middle" x="127" y="-399.5" font-family="Helvetica,sans-Serif" font-size="10.00" fill="#000000">adders/adder.h</text>
</g>
<!-- Node2&#45;&gt;Node3 -->
<g id="edge3" class="edge">
<title>Node2&#45;&gt;Node3</title>
<path fill="none" stroke="#191970" d="M170.0313,-453.8906C162.4409,-444.7376 150.8339,-430.7409 141.5868,-419.59"/>
<polygon fill="#191970" stroke="#191970" points="144.1587,-417.2083 135.0811,-411.7449 138.7703,-421.6766 144.1587,-417.2083"/>
</g>
<!-- Node4 -->
<g id="node5" class="node">
<title>Node4</title>
<g id="a_node5"><a xlink:href="pybind_2updater_8h.html" target="_top" xlink:title="This file is for binding Updater class to Python. ">
<polygon fill="#ffffff" stroke="#000000" points="185.5,-392.5 185.5,-411.5 274.5,-411.5 274.5,-392.5 185.5,-392.5"/>
<text text-anchor="middle" x="230" y="-399.5" font-family="Helvetica,sans-Serif" font-size="10.00" fill="#000000">pybind/updater.h</text>
</a>
</g>
</g>
<!-- Node2&#45;&gt;Node4 -->
<g id="edge4" class="edge">
<title>Node2&#45;&gt;Node4</title>
<path fill="none" stroke="#191970" d="M186.125,-453.8906C193.8642,-444.7376 205.6987,-430.7409 215.1272,-419.59"/>
<polygon fill="#191970" stroke="#191970" points="217.9765,-421.6409 221.7604,-411.7449 212.6311,-417.1213 217.9765,-421.6409"/>
</g>
<!-- Node5 -->
<g id="node6" class="node">
<title>Node5</title>
<g id="a_node6"><a xlink:href="alias_2pybind_8h.html" target="_top" xlink:title="This file includes pybind11 and defines an alias for the namespace pybind11. ">
<polygon fill="#ffffff" stroke="#000000" points="76.5,-112.5 76.5,-131.5 153.5,-131.5 153.5,-112.5 76.5,-112.5"/>
<text text-anchor="middle" x="115" y="-119.5" font-family="Helvetica,sans-Serif" font-size="10.00" fill="#000000">alias/pybind.h</text>
</a>
</g>
</g>
<!-- Node4&#45;&gt;Node5 -->
<g id="edge5" class="edge">
<title>Node4&#45;&gt;Node5</title>
<path fill="none" stroke="#191970" d="M213.0159,-392.368C185.6905,-375.4638 135,-337.6798 135,-290 135,-290 135,-290 135,-234 135,-201.2193 126.5945,-163.8705 120.6819,-141.6533"/>
<polygon fill="#191970" stroke="#191970" points="123.991,-140.4878 117.9511,-131.7832 117.2445,-142.3545 123.991,-140.4878"/>
</g>
<!-- Node7 -->
<g id="node8" class="node">
<title>Node7</title>
<g id="a_node8"><a xlink:href="core_2updater_8h.html" target="_top" xlink:title="This file has a definition of the Updater class, which is one of the cores of this program...">
<polygon fill="#ffffff" stroke="#000000" points="285.5,-336.5 285.5,-355.5 364.5,-355.5 364.5,-336.5 285.5,-336.5"/>
<text text-anchor="middle" x="325" y="-343.5" font-family="Helvetica,sans-Serif" font-size="10.00" fill="#000000">core/updater.h</text>
</a>
</g>
</g>
<!-- Node4&#45;&gt;Node7 -->
<g id="edge7" class="edge">
<title>Node4&#45;&gt;Node7</title>
<path fill="none" stroke="#191970" d="M246.5477,-392.2455C261.2599,-383.5731 282.9888,-370.7645 299.8505,-360.825"/>
<polygon fill="#191970" stroke="#191970" points="301.8046,-363.736 308.6419,-355.6427 298.2498,-357.7057 301.8046,-363.736"/>
</g>
<!-- Node6 -->
<g id="node7" class="node">
<title>Node6</title>
<polygon fill="#ffffff" stroke="#bfbfbf" points="60,-56.5 60,-75.5 166,-75.5 166,-56.5 60,-56.5"/>
<text text-anchor="middle" x="113" y="-63.5" font-family="Helvetica,sans-Serif" font-size="10.00" fill="#000000">pybind11/pybind11.h</text>
</g>
<!-- Node5&#45;&gt;Node6 -->
<g id="edge6" class="edge">
<title>Node5&#45;&gt;Node6</title>
<path fill="none" stroke="#191970" d="M114.6516,-112.2455C114.3907,-104.9382 114.0248,-94.6944 113.7037,-85.7046"/>
<polygon fill="#191970" stroke="#191970" points="117.1992,-85.5113 113.3444,-75.6427 110.2036,-85.7613 117.1992,-85.5113"/>
</g>
<!-- Node8 -->
<g id="node9" class="node">
<title>Node8</title>
<polygon fill="#ffffff" stroke="#bfbfbf" points="481,-112.5 481,-131.5 525,-131.5 525,-112.5 481,-112.5"/>
<text text-anchor="middle" x="503" y="-119.5" font-family="Helvetica,sans-Serif" font-size="10.00" fill="#000000">omp.h</text>
</g>
<!-- Node7&#45;&gt;Node8 -->
<g id="edge8" class="edge">
<title>Node7&#45;&gt;Node8</title>
<path fill="none" stroke="#191970" d="M338.5431,-336.3144C350.2503,-327.575 367.2492,-313.9793 380,-300 428.3826,-246.9558 473.083,-173.8959 492.6296,-140.2767"/>
<polygon fill="#191970" stroke="#191970" points="495.7083,-141.9441 497.6622,-131.531 489.641,-138.4528 495.7083,-141.9441"/>
</g>
<!-- Node9 -->
<g id="node10" class="node">
<title>Node9</title>
<g id="a_node10"><a xlink:href="generators_8h.html" target="_top" xlink:title="This file includes all the header files of subclasses of Generator. ">
<polygon fill="#ffffff" stroke="#000000" points="279,-280.5 279,-299.5 371,-299.5 371,-280.5 279,-280.5"/>
<text text-anchor="middle" x="325" y="-287.5" font-family="Helvetica,sans-Serif" font-size="10.00" fill="#000000">core/generators.h</text>
</a>
</g>
</g>
<!-- Node7&#45;&gt;Node9 -->
<g id="edge9" class="edge">
<title>Node7&#45;&gt;Node9</title>
<path fill="none" stroke="#191970" d="M325,-336.2455C325,-328.9382 325,-318.6944 325,-309.7046"/>
<polygon fill="#191970" stroke="#191970" points="328.5001,-309.6426 325,-299.6427 321.5001,-309.6427 328.5001,-309.6426"/>
</g>
<!-- Node10 -->
<g id="node11" class="node">
<title>Node10</title>
<g id="a_node11"><a xlink:href="core_2element_8h.html" target="_top" xlink:title="This file has a definition of the Element class, which is one of the cores of this program...">
<polygon fill="#ffffff" stroke="#000000" points="284.5,-168.5 284.5,-187.5 365.5,-187.5 365.5,-168.5 284.5,-168.5"/>
<text text-anchor="middle" x="325" y="-175.5" font-family="Helvetica,sans-Serif" font-size="10.00" fill="#000000">core/element.h</text>
</a>
</g>
</g>
<!-- Node9&#45;&gt;Node10 -->
<g id="edge10" class="edge">
<title>Node9&#45;&gt;Node10</title>
<path fill="none" stroke="#191970" d="M340.8247,-280.4104C358.5741,-268.3201 383.6935,-246.3956 374,-224 368.7663,-211.9081 358.6158,-201.5335 348.9045,-193.7139"/>
<polygon fill="#191970" stroke="#191970" points="350.7234,-190.7038 340.618,-187.5209 346.5329,-196.3109 350.7234,-190.7038"/>
</g>
<!-- Node23 -->
<g id="node24" class="node">
<title>Node23</title>
<g id="a_node24"><a xlink:href="gen__dict_8h.html" target="_top" xlink:title="This file has a definition of the GenDict class. ">
<polygon fill="#ffffff" stroke="#000000" points="183.5,-224.5 183.5,-243.5 266.5,-243.5 266.5,-224.5 183.5,-224.5"/>
<text text-anchor="middle" x="225" y="-231.5" font-family="Helvetica,sans-Serif" font-size="10.00" fill="#000000">core/gen_dict.h</text>
</a>
</g>
</g>
<!-- Node9&#45;&gt;Node23 -->
<g id="edge27" class="edge">
<title>Node9&#45;&gt;Node23</title>
<path fill="none" stroke="#191970" d="M307.5813,-280.2455C291.9515,-271.4928 268.7981,-258.527 250.9815,-248.5496"/>
<polygon fill="#191970" stroke="#191970" points="252.6543,-245.475 242.2191,-243.6427 249.234,-251.5825 252.6543,-245.475"/>
</g>
<!-- Node24 -->
<g id="node25" class="node">
<title>Node24</title>
<g id="a_node25"><a xlink:href="gen__list_8h.html" target="_top" xlink:title="This file has a definition of the GenList class. ">
<polygon fill="#ffffff" stroke="#000000" points="285,-224.5 285,-243.5 365,-243.5 365,-224.5 285,-224.5"/>
<text text-anchor="middle" x="325" y="-231.5" font-family="Helvetica,sans-Serif" font-size="10.00" fill="#000000">core/gen_list.h</text>
</a>
</g>
</g>
<!-- Node9&#45;&gt;Node24 -->
<g id="edge29" class="edge">
<title>Node9&#45;&gt;Node24</title>
<path fill="none" stroke="#191970" d="M325,-280.2455C325,-272.9382 325,-262.6944 325,-253.7046"/>
<polygon fill="#191970" stroke="#191970" points="328.5001,-253.6426 325,-243.6427 321.5001,-253.6427 328.5001,-253.6426"/>
</g>
<!-- Node10&#45;&gt;Node5 -->
<g id="edge14" class="edge">
<title>Node10&#45;&gt;Node5</title>
<path fill="none" stroke="#191970" d="M288.8997,-168.3733C253.3752,-158.9001 199.012,-144.4032 160.5381,-134.1435"/>
<polygon fill="#191970" stroke="#191970" points="161.1934,-130.696 150.6292,-131.5011 159.3897,-137.4596 161.1934,-130.696"/>
</g>
<!-- Node10&#45;&gt;Node8 -->
<g id="edge11" class="edge">
<title>Node10&#45;&gt;Node8</title>
<path fill="none" stroke="#191970" d="M355.7133,-168.475C383.4937,-159.8406 425.7723,-146.6533 471.2445,-132.2226"/>
<polygon fill="#191970" stroke="#191970" points="472.5215,-135.4894 480.9922,-129.1256 470.4018,-128.818 472.5215,-135.4894"/>
</g>
<!-- Node11 -->
<g id="node12" class="node">
<title>Node11</title>
<g id="a_node12"><a xlink:href="eigen_8h.html" target="_top" xlink:title="This file includes Eigen and defines some aliases for the Eigen&#45;Vector, Matrix and Array...">
<polygon fill="#ffffff" stroke="#000000" points="391.5,-112.5 391.5,-131.5 462.5,-131.5 462.5,-112.5 391.5,-112.5"/>
<text text-anchor="middle" x="427" y="-119.5" font-family="Helvetica,sans-Serif" font-size="10.00" fill="#000000">alias/eigen.h</text>
</a>
</g>
</g>
<!-- Node10&#45;&gt;Node11 -->
<g id="edge12" class="edge">
<title>Node10&#45;&gt;Node11</title>
<path fill="none" stroke="#191970" d="M342.767,-168.2455C358.7095,-159.4928 382.3259,-146.527 400.4989,-136.5496"/>
<polygon fill="#191970" stroke="#191970" points="402.3552,-139.5233 409.4366,-131.6427 398.9863,-133.3873 402.3552,-139.5233"/>
</g>
<!-- Node13 -->
<g id="node14" class="node">
<title>Node13</title>
<g id="a_node14"><a xlink:href="generator_8h.html" target="_top" xlink:title="This file has a definition of the Generator class, which is one of the cores of this program...">
<polygon fill="#ffffff" stroke="#000000" points="171.5,-112.5 171.5,-131.5 258.5,-131.5 258.5,-112.5 171.5,-112.5"/>
<text text-anchor="middle" x="215" y="-119.5" font-family="Helvetica,sans-Serif" font-size="10.00" fill="#000000">core/generator.h</text>
</a>
</g>
</g>
<!-- Node10&#45;&gt;Node13 -->
<g id="edge15" class="edge">
<title>Node10&#45;&gt;Node13</title>
<path fill="none" stroke="#191970" d="M305.8395,-168.2455C288.4889,-159.4125 262.7099,-146.2887 243.0417,-136.2758"/>
<polygon fill="#191970" stroke="#191970" points="244.4405,-133.0605 233.941,-131.6427 241.2647,-139.2986 244.4405,-133.0605"/>
</g>
<!-- Node22 -->
<g id="node23" class="node">
<title>Node22</title>
<g id="a_node23"><a xlink:href="data__keys_8h.html" target="_top" xlink:title="This file has a definition of the DataKeys class, which is owned by Element class. ">
<polygon fill="#ffffff" stroke="#000000" points="277,-112.5 277,-131.5 373,-131.5 373,-112.5 277,-112.5"/>
<text text-anchor="middle" x="325" y="-119.5" font-family="Helvetica,sans-Serif" font-size="10.00" fill="#000000">class/data_keys.h</text>
</a>
</g>
</g>
<!-- Node10&#45;&gt;Node22 -->
<g id="edge24" class="edge">
<title>Node10&#45;&gt;Node22</title>
<path fill="none" stroke="#191970" d="M325,-168.2455C325,-160.9382 325,-150.6944 325,-141.7046"/>
<polygon fill="#191970" stroke="#191970" points="328.5001,-141.6426 325,-131.6427 321.5001,-141.6427 328.5001,-141.6426"/>
</g>
<!-- Node12 -->
<g id="node13" class="node">
<title>Node12</title>
<polygon fill="#ffffff" stroke="#bfbfbf" points="399,-56.5 399,-75.5 455,-75.5 455,-56.5 399,-56.5"/>
<text text-anchor="middle" x="427" y="-63.5" font-family="Helvetica,sans-Serif" font-size="10.00" fill="#000000">Eigen/LU</text>
</g>
<!-- Node11&#45;&gt;Node12 -->
<g id="edge13" class="edge">
<title>Node11&#45;&gt;Node12</title>
<path fill="none" stroke="#191970" d="M427,-112.2455C427,-104.9382 427,-94.6944 427,-85.7046"/>
<polygon fill="#191970" stroke="#191970" points="430.5001,-85.6426 427,-75.6427 423.5001,-85.6427 430.5001,-85.6426"/>
</g>
<!-- Node14 -->
<g id="node15" class="node">
<title>Node14</title>
<g id="a_node15"><a xlink:href="std_8h.html" target="_top" xlink:title="This file includes a part of C++ Standard Template Library and defines aliases for them...">
<polygon fill="#ffffff" stroke="#000000" points="294,-56.5 294,-75.5 356,-75.5 356,-56.5 294,-56.5"/>
<text text-anchor="middle" x="325" y="-63.5" font-family="Helvetica,sans-Serif" font-size="10.00" fill="#000000">alias/std.h</text>
</a>
</g>
</g>
<!-- Node13&#45;&gt;Node14 -->
<g id="edge16" class="edge">
<title>Node13&#45;&gt;Node14</title>
<path fill="none" stroke="#191970" d="M234.1605,-112.2455C251.5111,-103.4125 277.2901,-90.2887 296.9583,-80.2758"/>
<polygon fill="#191970" stroke="#191970" points="298.7353,-83.2986 306.059,-75.6427 295.5595,-77.0605 298.7353,-83.2986"/>
</g>
<!-- Node20 -->
<g id="node21" class="node">
<title>Node20</title>
<g id="a_node21"><a xlink:href="json_8h.html" target="_top" xlink:title="This file includes nlohmann/json and defines an alias for the JSON type. ">
<polygon fill="#ffffff" stroke="#000000" points="184,-56.5 184,-75.5 250,-75.5 250,-56.5 184,-56.5"/>
<text text-anchor="middle" x="217" y="-63.5" font-family="Helvetica,sans-Serif" font-size="10.00" fill="#000000">alias/json.h</text>
</a>
</g>
</g>
<!-- Node13&#45;&gt;Node20 -->
<g id="edge22" class="edge">
<title>Node13&#45;&gt;Node20</title>
<path fill="none" stroke="#191970" d="M215.3484,-112.2455C215.6093,-104.9382 215.9752,-94.6944 216.2963,-85.7046"/>
<polygon fill="#191970" stroke="#191970" points="219.7964,-85.7613 216.6556,-75.6427 212.8008,-85.5113 219.7964,-85.7613"/>
</g>
<!-- Node15 -->
<g id="node16" class="node">
<title>Node15</title>
<polygon fill="#ffffff" stroke="#bfbfbf" points="432,-.5 432,-19.5 484,-19.5 484,-.5 432,-.5"/>
<text text-anchor="middle" x="458" y="-7.5" font-family="Helvetica,sans-Serif" font-size="10.00" fill="#000000">memory</text>
</g>
<!-- Node14&#45;&gt;Node15 -->
<g id="edge17" class="edge">
<title>Node14&#45;&gt;Node15</title>
<path fill="none" stroke="#191970" d="M347.8635,-56.3733C369.405,-47.3032 401.8838,-33.6279 425.9956,-23.4755"/>
<polygon fill="#191970" stroke="#191970" points="427.5767,-26.6075 435.4348,-19.5011 424.8603,-20.156 427.5767,-26.6075"/>
</g>
<!-- Node16 -->
<g id="node17" class="node">
<title>Node16</title>
<polygon fill="#ffffff" stroke="#bfbfbf" points="502.5,-.5 502.5,-19.5 543.5,-19.5 543.5,-.5 502.5,-.5"/>
<text text-anchor="middle" x="523" y="-7.5" font-family="Helvetica,sans-Serif" font-size="10.00" fill="#000000">string</text>
</g>
<!-- Node14&#45;&gt;Node16 -->
<g id="edge18" class="edge">
<title>Node14&#45;&gt;Node16</title>
<path fill="none" stroke="#191970" d="M356.1089,-58.0248C388.0254,-49.7236 439.3127,-36.056 492.7463,-19.959"/>
<polygon fill="#191970" stroke="#191970" points="493.8368,-23.2858 502.3904,-17.034 491.805,-16.5871 493.8368,-23.2858"/>
</g>
<!-- Node17 -->
<g id="node18" class="node">
<title>Node17</title>
<polygon fill="#ffffff" stroke="#bfbfbf" points="172,-.5 172,-19.5 216,-19.5 216,-.5 172,-.5"/>
<text text-anchor="middle" x="194" y="-7.5" font-family="Helvetica,sans-Serif" font-size="10.00" fill="#000000">vector</text>
</g>
<!-- Node14&#45;&gt;Node17 -->
<g id="edge19" class="edge">
<title>Node14&#45;&gt;Node17</title>
<path fill="none" stroke="#191970" d="M302.4803,-56.3733C281.2628,-47.3032 249.2724,-33.6279 225.5231,-23.4755"/>
<polygon fill="#191970" stroke="#191970" points="226.7967,-20.2136 216.2258,-19.5011 224.0452,-26.6502 226.7967,-20.2136"/>
</g>
<!-- Node18 -->
<g id="node19" class="node">
<title>Node18</title>
<polygon fill="#ffffff" stroke="#bfbfbf" points="234.5,-.5 234.5,-19.5 317.5,-19.5 317.5,-.5 234.5,-.5"/>
<text text-anchor="middle" x="276" y="-7.5" font-family="Helvetica,sans-Serif" font-size="10.00" fill="#000000">unordered_map</text>
</g>
<!-- Node14&#45;&gt;Node18 -->
<g id="edge20" class="edge">
<title>Node14&#45;&gt;Node18</title>
<path fill="none" stroke="#191970" d="M316.4649,-56.2455C309.5088,-48.2958 299.5117,-36.8706 291.1949,-27.3656"/>
<polygon fill="#191970" stroke="#191970" points="293.6564,-24.8637 284.4373,-19.6427 288.3884,-29.4732 293.6564,-24.8637"/>
</g>
<!-- Node19 -->
<g id="node20" class="node">
<title>Node19</title>
<polygon fill="#ffffff" stroke="#bfbfbf" points="336,-.5 336,-19.5 414,-19.5 414,-.5 336,-.5"/>
<text text-anchor="middle" x="375" y="-7.5" font-family="Helvetica,sans-Serif" font-size="10.00" fill="#000000">unordered_set</text>
</g>
<!-- Node14&#45;&gt;Node19 -->
<g id="edge21" class="edge">
<title>Node14&#45;&gt;Node19</title>
<path fill="none" stroke="#191970" d="M333.7093,-56.2455C340.8073,-48.2958 351.0084,-36.8706 359.495,-27.3656"/>
<polygon fill="#191970" stroke="#191970" points="362.3411,-29.4331 366.3905,-19.6427 357.1195,-24.771 362.3411,-29.4331"/>
</g>
<!-- Node21 -->
<g id="node22" class="node">
<title>Node21</title>
<polygon fill="#ffffff" stroke="#bfbfbf" points="56,-.5 56,-19.5 154,-19.5 154,-.5 56,-.5"/>
<text text-anchor="middle" x="105" y="-7.5" font-family="Helvetica,sans-Serif" font-size="10.00" fill="#000000">nlohmann/json.hpp</text>
</g>
<!-- Node20&#45;&gt;Node21 -->
<g id="edge23" class="edge">
<title>Node20&#45;&gt;Node21</title>
<path fill="none" stroke="#191970" d="M197.7465,-56.3733C179.9288,-47.4644 153.2253,-34.1127 133.0406,-24.0203"/>
<polygon fill="#191970" stroke="#191970" points="134.5118,-20.8428 124.0022,-19.5011 131.3813,-27.1038 134.5118,-20.8428"/>
</g>
<!-- Node22&#45;&gt;Node14 -->
<g id="edge25" class="edge">
<title>Node22&#45;&gt;Node14</title>
<path fill="none" stroke="#191970" d="M325,-112.2455C325,-104.9382 325,-94.6944 325,-85.7046"/>
<polygon fill="#191970" stroke="#191970" points="328.5001,-85.6426 325,-75.6427 321.5001,-85.6427 328.5001,-85.6426"/>
</g>
<!-- Node22&#45;&gt;Node20 -->
<g id="edge26" class="edge">
<title>Node22&#45;&gt;Node20</title>
<path fill="none" stroke="#191970" d="M306.1878,-112.2455C289.1527,-103.4125 263.8425,-90.2887 244.5319,-80.2758"/>
<polygon fill="#191970" stroke="#191970" points="246.0853,-77.1388 235.5966,-75.6427 242.863,-83.353 246.0853,-77.1388"/>
</g>
<!-- Node23&#45;&gt;Node10 -->
<g id="edge28" class="edge">
<title>Node23&#45;&gt;Node10</title>
<path fill="none" stroke="#191970" d="M242.4187,-224.2455C258.0485,-215.4928 281.2019,-202.527 299.0185,-192.5496"/>
<polygon fill="#191970" stroke="#191970" points="300.766,-195.5825 307.7809,-187.6427 297.3457,-189.475 300.766,-195.5825"/>
</g>
<!-- Node24&#45;&gt;Node10 -->
<g id="edge30" class="edge">
<title>Node24&#45;&gt;Node10</title>
<path fill="none" stroke="#191970" d="M325,-224.2455C325,-216.9382 325,-206.6944 325,-197.7046"/>
<polygon fill="#191970" stroke="#191970" points="328.5001,-197.6426 325,-187.6427 321.5001,-197.6427 328.5001,-197.6426"/>
</g>
</g>
</svg>
