<?xml version="1.0" encoding="UTF-8" standalone="no"?>
<!DOCTYPE svg PUBLIC "-//W3C//DTD SVG 1.1//EN"
 "http://www.w3.org/Graphics/SVG/1.1/DTD/svg11.dtd">
<!-- Generated by graphviz version 2.40.1 (20161225.0304)
 -->
<!-- Title: src/pybind/processors/pro_radial_distribution_function.h Pages: 1 -->
<svg width="274pt" height="206pt"
 viewBox="0.00 0.00 274.00 206.00" xmlns="http://www.w3.org/2000/svg" xmlns:xlink="http://www.w3.org/1999/xlink">
<g id="graph0" class="graph" transform="scale(1 1) rotate(0) translate(4 202)">
<title>src/pybind/processors/pro_radial_distribution_function.h</title>
<polygon fill="#ffffff" stroke="transparent" points="-4,4 -4,-202 270,-202 270,4 -4,4"/>
<!-- Node6 -->
<g id="node1" class="node">
<title>Node6</title>
<polygon fill="#bfbfbf" stroke="#000000" points="60,-156.5 60,-197.5 174,-197.5 174,-156.5 60,-156.5"/>
<text text-anchor="start" x="68" y="-185.5" font-family="Helvetica,sans-Serif" font-size="10.00" fill="#000000">src/pybind/processors</text>
<text text-anchor="start" x="68" y="-174.5" font-family="Helvetica,sans-Serif" font-size="10.00" fill="#000000">/pro_radial_distribution</text>
<text text-anchor="middle" x="117" y="-163.5" font-family="Helvetica,sans-Serif" font-size="10.00" fill="#000000">_function.h</text>
</g>
<!-- Node6&#45;&gt;Node6 -->
<g id="edge3" class="edge">
<title>Node6&#45;&gt;Node6</title>
<path fill="none" stroke="#191970" d="M184.0848,-187.8282C188.9929,-185.3916 192,-181.7822 192,-177 192,-169.5352 184.6727,-164.9279 174.2256,-163.1784"/>
<polygon fill="#191970" stroke="#191970" points="182.7775,-184.5673 174.2256,-190.8216 184.8112,-191.2654 182.7775,-184.5673"/>
</g>
<!-- Node7 -->
<g id="node2" class="node">
<title>Node7</title>
<g id="a_node2"><a xlink:href="pybind_8h.html" target="_top" xlink:title="This file includes all the header files containing definitions of functions to bind C++ and Python...">
<polygon fill="#ffffff" stroke="#000000" points="20,-89.5 20,-108.5 90,-108.5 90,-89.5 20,-89.5"/>
<text text-anchor="middle" x="55" y="-96.5" font-family="Helvetica,sans-Serif" font-size="10.00" fill="#000000">src/pybind.h</text>
</a>
</g>
</g>
<!-- Node6&#45;&gt;Node7 -->
<g id="edge1" class="edge">
<title>Node6&#45;&gt;Node7</title>
<path fill="none" stroke="#191970" d="M94.1206,-148.2162C83.114,-134.3692 70.6381,-118.6737 62.7954,-108.8072"/>
<polygon fill="#191970" stroke="#191970" points="91.4228,-150.447 100.3851,-156.0974 96.9025,-146.0913 91.4228,-150.447"/>
</g>
<!-- Node9 -->
<g id="node4" class="node">
<title>Node9</title>
<g id="a_node4"><a xlink:href="processors_2pro__radial__distribution__function__with__deformation_8h.html" target="_top" xlink:title="src/processors/pro\l_radial_distribution\l_function_with_deformation.h">
<polygon fill="#ffffff" stroke="#000000" points="112.5,-78.5 112.5,-119.5 255.5,-119.5 255.5,-78.5 112.5,-78.5"/>
<text text-anchor="start" x="120.5" y="-107.5" font-family="Helvetica,sans-Serif" font-size="10.00" fill="#000000">src/processors/pro</text>
<text text-anchor="start" x="120.5" y="-96.5" font-family="Helvetica,sans-Serif" font-size="10.00" fill="#000000">_radial_distribution</text>
<text text-anchor="middle" x="184" y="-85.5" font-family="Helvetica,sans-Serif" font-size="10.00" fill="#000000">_function_with_deformation.h</text>
</a>
</g>
</g>
<!-- Node6&#45;&gt;Node9 -->
<g id="edge4" class="edge">
<title>Node6&#45;&gt;Node9</title>
<path fill="none" stroke="#191970" d="M141.5873,-148.376C149.7524,-138.8703 158.6793,-128.4778 166.228,-119.6898"/>
<polygon fill="#191970" stroke="#191970" points="138.8157,-146.2311 134.9548,-156.0974 144.1257,-150.7923 138.8157,-146.2311"/>
</g>
<!-- Node8 -->
<g id="node3" class="node">
<title>Node8</title>
<g id="a_node3"><a xlink:href="ppap4lmp_8cpp.html" target="_top" xlink:title="This file has no implementation, only includes a header file to bind C++ and Python. ">
<polygon fill="#ffffff" stroke="#000000" points="0,-11.5 0,-30.5 94,-30.5 94,-11.5 0,-11.5"/>
<text text-anchor="middle" x="47" y="-18.5" font-family="Helvetica,sans-Serif" font-size="10.00" fill="#000000">src/ppap4lmp.cpp</text>
</a>
</g>
</g>
<!-- Node7&#45;&gt;Node8 -->
<g id="edge2" class="edge">
<title>Node7&#45;&gt;Node8</title>
<path fill="none" stroke="#191970" d="M52.9781,-79.2866C51.3835,-63.7395 49.2285,-42.7276 47.989,-30.6426"/>
<polygon fill="#191970" stroke="#191970" points="49.5169,-79.845 54.019,-89.4357 56.4804,-79.1307 49.5169,-79.845"/>
</g>
<!-- Node10 -->
<g id="node5" class="node">
<title>Node10</title>
<g id="a_node5"><a xlink:href="pro__radial__distribution__function__with__deformation_8cpp.html" target="_top" xlink:title="src/processors/pro\l_radial_distribution\l_function_with_deformation.cpp">
<polygon fill="#ffffff" stroke="#000000" points="112,-.5 112,-41.5 266,-41.5 266,-.5 112,-.5"/>
<text text-anchor="start" x="120" y="-29.5" font-family="Helvetica,sans-Serif" font-size="10.00" fill="#000000">src/processors/pro</text>
<text text-anchor="start" x="120" y="-18.5" font-family="Helvetica,sans-Serif" font-size="10.00" fill="#000000">_radial_distribution</text>
<text text-anchor="middle" x="189" y="-7.5" font-family="Helvetica,sans-Serif" font-size="10.00" fill="#000000">_function_with_deformation.cpp</text>
</a>
</g>
</g>
<!-- Node9&#45;&gt;Node10 -->
<g id="edge5" class="edge">
<title>Node9&#45;&gt;Node10</title>
<path fill="none" stroke="#191970" d="M185.9821,-68.0789C186.5501,-59.2178 187.1555,-49.7747 187.6737,-41.6898"/>
<polygon fill="#191970" stroke="#191970" points="182.4869,-67.894 185.3399,-78.0974 189.4725,-68.3418 182.4869,-67.894"/>
</g>
</g>
</svg>
