<?xml version="1.0" encoding="UTF-8" standalone="no"?>
<!DOCTYPE svg PUBLIC "-//W3C//DTD SVG 1.1//EN"
 "http://www.w3.org/Graphics/SVG/1.1/DTD/svg11.dtd">
<!-- Generated by graphviz version 2.40.1 (20161225.0304)
 -->
<!-- Title: src/pybind/adders/add_rename.h Pages: 1 -->
<!--zoomable 543 -->
<svg id="main" version="1.1" xmlns="http://www.w3.org/2000/svg" xmlns:xlink="http://www.w3.org/1999/xlink" xml:space="preserve" onload="init(evt)">
<style type="text/css"><![CDATA[
.edge:hover path { stroke: red; }
.edge:hover polygon { stroke: red; fill: red; }
]]></style>
<script type="text/javascript"><![CDATA[
var edges = document.getElementsByTagName('g');
if (edges && edges.length) {
  for (var i=0;i<edges.length;i++) {
    if (edges[i].id.substr(0,4)=='edge') {
      edges[i].setAttribute('class','edge');
    }
  }
}
]]></script>
        <defs>
                <circle id="rim" cx="0" cy="0" r="7"/>
                <circle id="rim2" cx="0" cy="0" r="3.5"/>
                <g id="zoomPlus">
                        <use xlink:href="#rim" fill="#404040">
                                <set attributeName="fill" to="#808080" begin="zoomplus.mouseover" end="zoomplus.mouseout"/>
                        </use>
                        <path d="M-4,0h8M0,-4v8" fill="none" stroke="white" stroke-width="1.5" pointer-events="none"/>
                </g>
                <g id="zoomMin">
                        <use xlink:href="#rim" fill="#404040">
                                <set attributeName="fill" to="#808080" begin="zoomminus.mouseover" end="zoomminus.mouseout"/>
                        </use>
                        <path d="M-4,0h8" fill="none" stroke="white" stroke-width="1.5" pointer-events="none"/>
                </g>
                <g id="dirArrow">
                        <path fill="none" stroke="white" stroke-width="1.5" d="M0,-3.0v7 M-2.5,-0.5L0,-3.0L2.5,-0.5"/>
                </g>
               <g id="resetDef">
                       <use xlink:href="#rim2" fill="#404040">
                               <set attributeName="fill" to="#808080" begin="reset.mouseover" end="reset.mouseout"/>
                       </use>
               </g>
        </defs>

<script type="text/javascript">
var viewWidth = 559;
var viewHeight = 543;
var sectionId = 'dynsection-0';
</script>
<script xlink:href="svgpan.js"/>
<svg id="graph" class="graph">
<g id="viewport">
<title>src/pybind/adders/add_rename.h</title>
<polygon fill="#ffffff" stroke="transparent" points="-4,4 -4,-539 554.5,-539 554.5,4 -4,4"/>
<!-- Node0 -->
<g id="node1" class="node">
<title>Node0</title>
<polygon fill="#bfbfbf" stroke="#000000" points="63.5,-504.5 63.5,-534.5 176.5,-534.5 176.5,-504.5 63.5,-504.5"/>
<text text-anchor="start" x="71.5" y="-522.5" font-family="Helvetica,sans-Serif" font-size="10.00" fill="#000000">src/pybind/adders/add</text>
<text text-anchor="middle" x="120" y="-511.5" font-family="Helvetica,sans-Serif" font-size="10.00" fill="#000000">_rename.h</text>
</g>
<!-- Node1 -->
<g id="node2" class="node">
<title>Node1</title>
<polygon fill="#ffffff" stroke="#bfbfbf" points="0,-448.5 0,-467.5 110,-467.5 110,-448.5 0,-448.5"/>
<text text-anchor="middle" x="55" y="-455.5" font-family="Helvetica,sans-Serif" font-size="10.00" fill="#000000">adders/add_rename.h</text>
</g>
<!-- Node0&#45;&gt;Node1 -->
<g id="edge1" class="edge">
<title>Node0&#45;&gt;Node1</title>
<path fill="none" stroke="#191970" d="M103.9326,-504.2977C94.534,-495.4052 82.6473,-484.1586 72.943,-474.9769"/>
<polygon fill="#191970" stroke="#191970" points="75.0768,-472.1774 65.4073,-467.8469 70.2658,-477.2621 75.0768,-472.1774"/>
</g>
<!-- Node2 -->
<g id="node3" class="node">
<title>Node2</title>
<g id="a_node3"><a xlink:href="pybind_2adders_2adder_8h.html" target="_top" xlink:title="pybind/adders/adder.h">
<polygon fill="#ffffff" stroke="#000000" points="128.5,-448.5 128.5,-467.5 241.5,-467.5 241.5,-448.5 128.5,-448.5"/>
<text text-anchor="middle" x="185" y="-455.5" font-family="Helvetica,sans-Serif" font-size="10.00" fill="#000000">pybind/adders/adder.h</text>
</a>
</g>
</g>
<!-- Node0&#45;&gt;Node2 -->
<g id="edge2" class="edge">
<title>Node0&#45;&gt;Node2</title>
<path fill="none" stroke="#191970" d="M136.0674,-504.2977C145.466,-495.4052 157.3527,-484.1586 167.057,-474.9769"/>
<polygon fill="#191970" stroke="#191970" points="169.7342,-477.2621 174.5927,-467.8469 164.9232,-472.1774 169.7342,-477.2621"/>
</g>
<!-- Node3 -->
<g id="node4" class="node">
<title>Node3</title>
<polygon fill="#ffffff" stroke="#bfbfbf" points="93.5,-392.5 93.5,-411.5 174.5,-411.5 174.5,-392.5 93.5,-392.5"/>
<text text-anchor="middle" x="134" y="-399.5" font-family="Helvetica,sans-Serif" font-size="10.00" fill="#000000">adders/adder.h</text>
</g>
<!-- Node2&#45;&gt;Node3 -->
<g id="edge3" class="edge">
<title>Node2&#45;&gt;Node3</title>
<path fill="none" stroke="#191970" d="M176.1165,-448.2455C168.8034,-440.2155 158.2609,-428.6394 149.5533,-419.0781"/>
<polygon fill="#191970" stroke="#191970" points="152.1028,-416.6795 142.7817,-411.6427 146.9273,-421.3928 152.1028,-416.6795"/>
</g>
<!-- Node4 -->
<g id="node5" class="node">
<title>Node4</title>
<g id="a_node5"><a xlink:href="pybind_2updater_8h.html" target="_top" xlink:title="pybind/updater.h">
<polygon fill="#ffffff" stroke="#000000" points="192.5,-392.5 192.5,-411.5 281.5,-411.5 281.5,-392.5 192.5,-392.5"/>
<text text-anchor="middle" x="237" y="-399.5" font-family="Helvetica,sans-Serif" font-size="10.00" fill="#000000">pybind/updater.h</text>
</a>
</g>
</g>
<!-- Node2&#45;&gt;Node4 -->
<g id="edge4" class="edge">
<title>Node2&#45;&gt;Node4</title>
<path fill="none" stroke="#191970" d="M194.0577,-448.2455C201.5142,-440.2155 212.2634,-428.6394 221.1417,-419.0781"/>
<polygon fill="#191970" stroke="#191970" points="223.8063,-421.3522 228.0461,-411.6427 218.6768,-416.589 223.8063,-421.3522"/>
</g>
<!-- Node5 -->
<g id="node6" class="node">
<title>Node5</title>
<g id="a_node6"><a xlink:href="alias_2pybind_8h.html" target="_top" xlink:title="... ">
<polygon fill="#ffffff" stroke="#000000" points="83.5,-112.5 83.5,-131.5 160.5,-131.5 160.5,-112.5 83.5,-112.5"/>
<text text-anchor="middle" x="122" y="-119.5" font-family="Helvetica,sans-Serif" font-size="10.00" fill="#000000">alias/pybind.h</text>
</a>
</g>
</g>
<!-- Node4&#45;&gt;Node5 -->
<g id="edge5" class="edge">
<title>Node4&#45;&gt;Node5</title>
<path fill="none" stroke="#191970" d="M220.0159,-392.368C192.6905,-375.4638 142,-337.6798 142,-290 142,-290 142,-290 142,-234 142,-201.2193 133.5945,-163.8705 127.6819,-141.6533"/>
<polygon fill="#191970" stroke="#191970" points="130.991,-140.4878 124.9511,-131.7832 124.2445,-142.3545 130.991,-140.4878"/>
</g>
<!-- Node7 -->
<g id="node8" class="node">
<title>Node7</title>
<g id="a_node8"><a xlink:href="core_2updater_8h.html" target="_top" xlink:title="This file has a definition of the Updater class, which is one of the cores of this program...">
<polygon fill="#ffffff" stroke="#000000" points="292.5,-336.5 292.5,-355.5 371.5,-355.5 371.5,-336.5 292.5,-336.5"/>
<text text-anchor="middle" x="332" y="-343.5" font-family="Helvetica,sans-Serif" font-size="10.00" fill="#000000">core/updater.h</text>
</a>
</g>
</g>
<!-- Node4&#45;&gt;Node7 -->
<g id="edge7" class="edge">
<title>Node4&#45;&gt;Node7</title>
<path fill="none" stroke="#191970" d="M253.5477,-392.2455C268.2599,-383.5731 289.9888,-370.7645 306.8505,-360.825"/>
<polygon fill="#191970" stroke="#191970" points="308.8046,-363.736 315.6419,-355.6427 305.2498,-357.7057 308.8046,-363.736"/>
</g>
<!-- Node6 -->
<g id="node7" class="node">
<title>Node6</title>
<polygon fill="#ffffff" stroke="#bfbfbf" points="67,-56.5 67,-75.5 173,-75.5 173,-56.5 67,-56.5"/>
<text text-anchor="middle" x="120" y="-63.5" font-family="Helvetica,sans-Serif" font-size="10.00" fill="#000000">pybind11/pybind11.h</text>
</g>
<!-- Node5&#45;&gt;Node6 -->
<g id="edge6" class="edge">
<title>Node5&#45;&gt;Node6</title>
<path fill="none" stroke="#191970" d="M121.6516,-112.2455C121.3907,-104.9382 121.0248,-94.6944 120.7037,-85.7046"/>
<polygon fill="#191970" stroke="#191970" points="124.1992,-85.5113 120.3444,-75.6427 117.2036,-85.7613 124.1992,-85.5113"/>
</g>
<!-- Node8 -->
<g id="node9" class="node">
<title>Node8</title>
<polygon fill="#ffffff" stroke="#bfbfbf" points="488,-112.5 488,-131.5 532,-131.5 532,-112.5 488,-112.5"/>
<text text-anchor="middle" x="510" y="-119.5" font-family="Helvetica,sans-Serif" font-size="10.00" fill="#000000">omp.h</text>
</g>
<!-- Node7&#45;&gt;Node8 -->
<g id="edge8" class="edge">
<title>Node7&#45;&gt;Node8</title>
<path fill="none" stroke="#191970" d="M345.5431,-336.3144C357.2503,-327.575 374.2492,-313.9793 387,-300 435.3826,-246.9558 480.083,-173.8959 499.6296,-140.2767"/>
<polygon fill="#191970" stroke="#191970" points="502.7083,-141.9441 504.6622,-131.531 496.641,-138.4528 502.7083,-141.9441"/>
</g>
<!-- Node9 -->
<g id="node10" class="node">
<title>Node9</title>
<g id="a_node10"><a xlink:href="generators_8h.html" target="_top" xlink:title="This file includes all the header files of subclasses of Generator. ">
<polygon fill="#ffffff" stroke="#000000" points="286,-280.5 286,-299.5 378,-299.5 378,-280.5 286,-280.5"/>
<text text-anchor="middle" x="332" y="-287.5" font-family="Helvetica,sans-Serif" font-size="10.00" fill="#000000">core/generators.h</text>
</a>
</g>
</g>
<!-- Node7&#45;&gt;Node9 -->
<g id="edge9" class="edge">
<title>Node7&#45;&gt;Node9</title>
<path fill="none" stroke="#191970" d="M332,-336.2455C332,-328.9382 332,-318.6944 332,-309.7046"/>
<polygon fill="#191970" stroke="#191970" points="335.5001,-309.6426 332,-299.6427 328.5001,-309.6427 335.5001,-309.6426"/>
</g>
<!-- Node10 -->
<g id="node11" class="node">
<title>Node10</title>
<g id="a_node11"><a xlink:href="core_2element_8h.html" target="_top" xlink:title="This file has a definition of the Element class, which is one of the cores of this program...">
<polygon fill="#ffffff" stroke="#000000" points="291.5,-168.5 291.5,-187.5 372.5,-187.5 372.5,-168.5 291.5,-168.5"/>
<text text-anchor="middle" x="332" y="-175.5" font-family="Helvetica,sans-Serif" font-size="10.00" fill="#000000">core/element.h</text>
</a>
</g>
</g>
<!-- Node9&#45;&gt;Node10 -->
<g id="edge10" class="edge">
<title>Node9&#45;&gt;Node10</title>
<path fill="none" stroke="#191970" d="M347.8247,-280.4104C365.5741,-268.3201 390.6935,-246.3956 381,-224 375.7663,-211.9081 365.6158,-201.5335 355.9045,-193.7139"/>
<polygon fill="#191970" stroke="#191970" points="357.7234,-190.7038 347.618,-187.5209 353.5329,-196.3109 357.7234,-190.7038"/>
</g>
<!-- Node23 -->
<g id="node24" class="node">
<title>Node23</title>
<g id="a_node24"><a xlink:href="gen__dict_8h.html" target="_top" xlink:title="This file has a definition of the GenDict class. ">
<polygon fill="#ffffff" stroke="#000000" points="190.5,-224.5 190.5,-243.5 273.5,-243.5 273.5,-224.5 190.5,-224.5"/>
<text text-anchor="middle" x="232" y="-231.5" font-family="Helvetica,sans-Serif" font-size="10.00" fill="#000000">core/gen_dict.h</text>
</a>
</g>
</g>
<!-- Node9&#45;&gt;Node23 -->
<g id="edge27" class="edge">
<title>Node9&#45;&gt;Node23</title>
<path fill="none" stroke="#191970" d="M314.5813,-280.2455C298.9515,-271.4928 275.7981,-258.527 257.9815,-248.5496"/>
<polygon fill="#191970" stroke="#191970" points="259.6543,-245.475 249.2191,-243.6427 256.234,-251.5825 259.6543,-245.475"/>
</g>
<!-- Node24 -->
<g id="node25" class="node">
<title>Node24</title>
<g id="a_node25"><a xlink:href="gen__list_8h.html" target="_top" xlink:title="This file has a definition of the GenList class. ">
<polygon fill="#ffffff" stroke="#000000" points="292,-224.5 292,-243.5 372,-243.5 372,-224.5 292,-224.5"/>
<text text-anchor="middle" x="332" y="-231.5" font-family="Helvetica,sans-Serif" font-size="10.00" fill="#000000">core/gen_list.h</text>
</a>
</g>
</g>
<!-- Node9&#45;&gt;Node24 -->
<g id="edge29" class="edge">
<title>Node9&#45;&gt;Node24</title>
<path fill="none" stroke="#191970" d="M332,-280.2455C332,-272.9382 332,-262.6944 332,-253.7046"/>
<polygon fill="#191970" stroke="#191970" points="335.5001,-253.6426 332,-243.6427 328.5001,-253.6427 335.5001,-253.6426"/>
</g>
<!-- Node10&#45;&gt;Node5 -->
<g id="edge14" class="edge">
<title>Node10&#45;&gt;Node5</title>
<path fill="none" stroke="#191970" d="M295.8997,-168.3733C260.3752,-158.9001 206.012,-144.4032 167.5381,-134.1435"/>
<polygon fill="#191970" stroke="#191970" points="168.1934,-130.696 157.6292,-131.5011 166.3897,-137.4596 168.1934,-130.696"/>
</g>
<!-- Node10&#45;&gt;Node8 -->
<g id="edge11" class="edge">
<title>Node10&#45;&gt;Node8</title>
<path fill="none" stroke="#191970" d="M362.7133,-168.475C390.4937,-159.8406 432.7723,-146.6533 478.2445,-132.2226"/>
<polygon fill="#191970" stroke="#191970" points="479.5215,-135.4894 487.9922,-129.1256 477.4018,-128.818 479.5215,-135.4894"/>
</g>
<!-- Node11 -->
<g id="node12" class="node">
<title>Node11</title>
<g id="a_node12"><a xlink:href="eigen_8h.html" target="_top" xlink:title="This file includes Eigen and defines some aliases for the Eigen&#45; Vector, Matrix and Array...">
<polygon fill="#ffffff" stroke="#000000" points="398.5,-112.5 398.5,-131.5 469.5,-131.5 469.5,-112.5 398.5,-112.5"/>
<text text-anchor="middle" x="434" y="-119.5" font-family="Helvetica,sans-Serif" font-size="10.00" fill="#000000">alias/eigen.h</text>
</a>
</g>
</g>
<!-- Node10&#45;&gt;Node11 -->
<g id="edge12" class="edge">
<title>Node10&#45;&gt;Node11</title>
<path fill="none" stroke="#191970" d="M349.767,-168.2455C365.7095,-159.4928 389.3259,-146.527 407.4989,-136.5496"/>
<polygon fill="#191970" stroke="#191970" points="409.3552,-139.5233 416.4366,-131.6427 405.9863,-133.3873 409.3552,-139.5233"/>
</g>
<!-- Node13 -->
<g id="node14" class="node">
<title>Node13</title>
<g id="a_node14"><a xlink:href="generator_8h.html" target="_top" xlink:title="This file has a definition of the Generator class, which is one of the cores of this program...">
<polygon fill="#ffffff" stroke="#000000" points="178.5,-112.5 178.5,-131.5 265.5,-131.5 265.5,-112.5 178.5,-112.5"/>
<text text-anchor="middle" x="222" y="-119.5" font-family="Helvetica,sans-Serif" font-size="10.00" fill="#000000">core/generator.h</text>
</a>
</g>
</g>
<!-- Node10&#45;&gt;Node13 -->
<g id="edge15" class="edge">
<title>Node10&#45;&gt;Node13</title>
<path fill="none" stroke="#191970" d="M312.8395,-168.2455C295.4889,-159.4125 269.7099,-146.2887 250.0417,-136.2758"/>
<polygon fill="#191970" stroke="#191970" points="251.4405,-133.0605 240.941,-131.6427 248.2647,-139.2986 251.4405,-133.0605"/>
</g>
<!-- Node22 -->
<g id="node23" class="node">
<title>Node22</title>
<g id="a_node23"><a xlink:href="data__keys_8h.html" target="_top" xlink:title="... ">
<polygon fill="#ffffff" stroke="#000000" points="284,-112.5 284,-131.5 380,-131.5 380,-112.5 284,-112.5"/>
<text text-anchor="middle" x="332" y="-119.5" font-family="Helvetica,sans-Serif" font-size="10.00" fill="#000000">class/data_keys.h</text>
</a>
</g>
</g>
<!-- Node10&#45;&gt;Node22 -->
<g id="edge24" class="edge">
<title>Node10&#45;&gt;Node22</title>
<path fill="none" stroke="#191970" d="M332,-168.2455C332,-160.9382 332,-150.6944 332,-141.7046"/>
<polygon fill="#191970" stroke="#191970" points="335.5001,-141.6426 332,-131.6427 328.5001,-141.6427 335.5001,-141.6426"/>
</g>
<!-- Node12 -->
<g id="node13" class="node">
<title>Node12</title>
<polygon fill="#ffffff" stroke="#bfbfbf" points="406,-56.5 406,-75.5 462,-75.5 462,-56.5 406,-56.5"/>
<text text-anchor="middle" x="434" y="-63.5" font-family="Helvetica,sans-Serif" font-size="10.00" fill="#000000">Eigen/LU</text>
</g>
<!-- Node11&#45;&gt;Node12 -->
<g id="edge13" class="edge">
<title>Node11&#45;&gt;Node12</title>
<path fill="none" stroke="#191970" d="M434,-112.2455C434,-104.9382 434,-94.6944 434,-85.7046"/>
<polygon fill="#191970" stroke="#191970" points="437.5001,-85.6426 434,-75.6427 430.5001,-85.6427 437.5001,-85.6426"/>
</g>
<!-- Node14 -->
<g id="node15" class="node">
<title>Node14</title>
<g id="a_node15"><a xlink:href="std_8h.html" target="_top" xlink:title="This file includes a part of C++ Standard Template Library and defines aliases for them...">
<polygon fill="#ffffff" stroke="#000000" points="301,-56.5 301,-75.5 363,-75.5 363,-56.5 301,-56.5"/>
<text text-anchor="middle" x="332" y="-63.5" font-family="Helvetica,sans-Serif" font-size="10.00" fill="#000000">alias/std.h</text>
</a>
</g>
</g>
<!-- Node13&#45;&gt;Node14 -->
<g id="edge16" class="edge">
<title>Node13&#45;&gt;Node14</title>
<path fill="none" stroke="#191970" d="M241.1605,-112.2455C258.5111,-103.4125 284.2901,-90.2887 303.9583,-80.2758"/>
<polygon fill="#191970" stroke="#191970" points="305.7353,-83.2986 313.059,-75.6427 302.5595,-77.0605 305.7353,-83.2986"/>
</g>
<!-- Node20 -->
<g id="node21" class="node">
<title>Node20</title>
<g id="a_node21"><a xlink:href="json_8h.html" target="_top" xlink:title="This file includes nlohmann/json and defines an alias for the JSON type. ">
<polygon fill="#ffffff" stroke="#000000" points="191,-56.5 191,-75.5 257,-75.5 257,-56.5 191,-56.5"/>
<text text-anchor="middle" x="224" y="-63.5" font-family="Helvetica,sans-Serif" font-size="10.00" fill="#000000">alias/json.h</text>
</a>
</g>
</g>
<!-- Node13&#45;&gt;Node20 -->
<g id="edge22" class="edge">
<title>Node13&#45;&gt;Node20</title>
<path fill="none" stroke="#191970" d="M222.3484,-112.2455C222.6093,-104.9382 222.9752,-94.6944 223.2963,-85.7046"/>
<polygon fill="#191970" stroke="#191970" points="226.7964,-85.7613 223.6556,-75.6427 219.8008,-85.5113 226.7964,-85.7613"/>
</g>
<!-- Node15 -->
<g id="node16" class="node">
<title>Node15</title>
<polygon fill="#ffffff" stroke="#bfbfbf" points="439,-.5 439,-19.5 491,-19.5 491,-.5 439,-.5"/>
<text text-anchor="middle" x="465" y="-7.5" font-family="Helvetica,sans-Serif" font-size="10.00" fill="#000000">memory</text>
</g>
<!-- Node14&#45;&gt;Node15 -->
<g id="edge17" class="edge">
<title>Node14&#45;&gt;Node15</title>
<path fill="none" stroke="#191970" d="M354.8635,-56.3733C376.405,-47.3032 408.8838,-33.6279 432.9956,-23.4755"/>
<polygon fill="#191970" stroke="#191970" points="434.5767,-26.6075 442.4348,-19.5011 431.8603,-20.156 434.5767,-26.6075"/>
</g>
<!-- Node16 -->
<g id="node17" class="node">
<title>Node16</title>
<polygon fill="#ffffff" stroke="#bfbfbf" points="509.5,-.5 509.5,-19.5 550.5,-19.5 550.5,-.5 509.5,-.5"/>
<text text-anchor="middle" x="530" y="-7.5" font-family="Helvetica,sans-Serif" font-size="10.00" fill="#000000">string</text>
</g>
<!-- Node14&#45;&gt;Node16 -->
<g id="edge18" class="edge">
<title>Node14&#45;&gt;Node16</title>
<path fill="none" stroke="#191970" d="M363.1089,-58.0248C395.0254,-49.7236 446.3127,-36.056 499.7463,-19.959"/>
<polygon fill="#191970" stroke="#191970" points="500.8368,-23.2858 509.3904,-17.034 498.805,-16.5871 500.8368,-23.2858"/>
</g>
<!-- Node17 -->
<g id="node18" class="node">
<title>Node17</title>
<polygon fill="#ffffff" stroke="#bfbfbf" points="179,-.5 179,-19.5 223,-19.5 223,-.5 179,-.5"/>
<text text-anchor="middle" x="201" y="-7.5" font-family="Helvetica,sans-Serif" font-size="10.00" fill="#000000">vector</text>
</g>
<!-- Node14&#45;&gt;Node17 -->
<g id="edge19" class="edge">
<title>Node14&#45;&gt;Node17</title>
<path fill="none" stroke="#191970" d="M309.4803,-56.3733C288.2628,-47.3032 256.2724,-33.6279 232.5231,-23.4755"/>
<polygon fill="#191970" stroke="#191970" points="233.7967,-20.2136 223.2258,-19.5011 231.0452,-26.6502 233.7967,-20.2136"/>
</g>
<!-- Node18 -->
<g id="node19" class="node">
<title>Node18</title>
<polygon fill="#ffffff" stroke="#bfbfbf" points="241.5,-.5 241.5,-19.5 324.5,-19.5 324.5,-.5 241.5,-.5"/>
<text text-anchor="middle" x="283" y="-7.5" font-family="Helvetica,sans-Serif" font-size="10.00" fill="#000000">unordered_map</text>
</g>
<!-- Node14&#45;&gt;Node18 -->
<g id="edge20" class="edge">
<title>Node14&#45;&gt;Node18</title>
<path fill="none" stroke="#191970" d="M323.4649,-56.2455C316.5088,-48.2958 306.5117,-36.8706 298.1949,-27.3656"/>
<polygon fill="#191970" stroke="#191970" points="300.6564,-24.8637 291.4373,-19.6427 295.3884,-29.4732 300.6564,-24.8637"/>
</g>
<!-- Node19 -->
<g id="node20" class="node">
<title>Node19</title>
<polygon fill="#ffffff" stroke="#bfbfbf" points="343,-.5 343,-19.5 421,-19.5 421,-.5 343,-.5"/>
<text text-anchor="middle" x="382" y="-7.5" font-family="Helvetica,sans-Serif" font-size="10.00" fill="#000000">unordered_set</text>
</g>
<!-- Node14&#45;&gt;Node19 -->
<g id="edge21" class="edge">
<title>Node14&#45;&gt;Node19</title>
<path fill="none" stroke="#191970" d="M340.7093,-56.2455C347.8073,-48.2958 358.0084,-36.8706 366.495,-27.3656"/>
<polygon fill="#191970" stroke="#191970" points="369.3411,-29.4331 373.3905,-19.6427 364.1195,-24.771 369.3411,-29.4331"/>
</g>
<!-- Node21 -->
<g id="node22" class="node">
<title>Node21</title>
<polygon fill="#ffffff" stroke="#bfbfbf" points="63,-.5 63,-19.5 161,-19.5 161,-.5 63,-.5"/>
<text text-anchor="middle" x="112" y="-7.5" font-family="Helvetica,sans-Serif" font-size="10.00" fill="#000000">nlohmann/json.hpp</text>
</g>
<!-- Node20&#45;&gt;Node21 -->
<g id="edge23" class="edge">
<title>Node20&#45;&gt;Node21</title>
<path fill="none" stroke="#191970" d="M204.7465,-56.3733C186.9288,-47.4644 160.2253,-34.1127 140.0406,-24.0203"/>
<polygon fill="#191970" stroke="#191970" points="141.5118,-20.8428 131.0022,-19.5011 138.3813,-27.1038 141.5118,-20.8428"/>
</g>
<!-- Node22&#45;&gt;Node14 -->
<g id="edge25" class="edge">
<title>Node22&#45;&gt;Node14</title>
<path fill="none" stroke="#191970" d="M332,-112.2455C332,-104.9382 332,-94.6944 332,-85.7046"/>
<polygon fill="#191970" stroke="#191970" points="335.5001,-85.6426 332,-75.6427 328.5001,-85.6427 335.5001,-85.6426"/>
</g>
<!-- Node22&#45;&gt;Node20 -->
<g id="edge26" class="edge">
<title>Node22&#45;&gt;Node20</title>
<path fill="none" stroke="#191970" d="M313.1878,-112.2455C296.1527,-103.4125 270.8425,-90.2887 251.5319,-80.2758"/>
<polygon fill="#191970" stroke="#191970" points="253.0853,-77.1388 242.5966,-75.6427 249.863,-83.353 253.0853,-77.1388"/>
</g>
<!-- Node23&#45;&gt;Node10 -->
<g id="edge28" class="edge">
<title>Node23&#45;&gt;Node10</title>
<path fill="none" stroke="#191970" d="M249.4187,-224.2455C265.0485,-215.4928 288.2019,-202.527 306.0185,-192.5496"/>
<polygon fill="#191970" stroke="#191970" points="307.766,-195.5825 314.7809,-187.6427 304.3457,-189.475 307.766,-195.5825"/>
</g>
<!-- Node24&#45;&gt;Node10 -->
<g id="edge30" class="edge">
<title>Node24&#45;&gt;Node10</title>
<path fill="none" stroke="#191970" d="M332,-224.2455C332,-216.9382 332,-206.6944 332,-197.7046"/>
<polygon fill="#191970" stroke="#191970" points="335.5001,-197.6426 332,-187.6427 328.5001,-197.6427 335.5001,-197.6426"/>
</g>
</g>
</svg>
        <g id="navigator" transform="translate(0 0)" fill="#404254">
                <rect fill="#f2f5e9" fill-opacity="0.5" stroke="#606060" stroke-width=".5" x="0" y="0" width="60" height="60"/>
                <use id="zoomplus" xlink:href="#zoomPlus" x="17" y="9" onmousedown="handleZoom(evt,'in')"/>
                <use id="zoomminus" xlink:href="#zoomMin" x="42" y="9" onmousedown="handleZoom(evt,'out')"/>
                <use id="reset" xlink:href="#resetDef" x="30" y="36" onmousedown="handleReset()"/>
                <g id="arrowUp" xlink:href="#dirArrow" transform="translate(30 24)" onmousedown="handlePan(0,-1)">
                  <use xlink:href="#rim" fill="#404040">
                        <set attributeName="fill" to="#808080" begin="arrowUp.mouseover" end="arrowUp.mouseout"/>
                  </use>
                  <path fill="none" stroke="white" stroke-width="1.5" d="M0,-3.0v7 M-2.5,-0.5L0,-3.0L2.5,-0.5"/>
                </g>
                <g id="arrowRight" xlink:href="#dirArrow" transform="rotate(90) translate(36 -43)" onmousedown="handlePan(1,0)">
                  <use xlink:href="#rim" fill="#404040">
                        <set attributeName="fill" to="#808080" begin="arrowRight.mouseover" end="arrowRight.mouseout"/>
                  </use>
                  <path fill="none" stroke="white" stroke-width="1.5" d="M0,-3.0v7 M-2.5,-0.5L0,-3.0L2.5,-0.5"/>
                </g>
                <g id="arrowDown" xlink:href="#dirArrow" transform="rotate(180) translate(-30 -48)" onmousedown="handlePan(0,1)">
                  <use xlink:href="#rim" fill="#404040">
                        <set attributeName="fill" to="#808080" begin="arrowDown.mouseover" end="arrowDown.mouseout"/>
                  </use>
                  <path fill="none" stroke="white" stroke-width="1.5" d="M0,-3.0v7 M-2.5,-0.5L0,-3.0L2.5,-0.5"/>
                </g>
                <g id="arrowLeft" xlink:href="#dirArrow" transform="rotate(270) translate(-36 17)" onmousedown="handlePan(-1,0)">
                  <use xlink:href="#rim" fill="#404040">
                        <set attributeName="fill" to="#808080" begin="arrowLeft.mouseover" end="arrowLeft.mouseout"/>
                  </use>
                  <path fill="none" stroke="white" stroke-width="1.5" d="M0,-3.0v7 M-2.5,-0.5L0,-3.0L2.5,-0.5"/>
                </g>
        </g>
        <svg viewBox="0 0 15 15" width="100%" height="30px" preserveAspectRatio="xMaxYMin meet">
         <g id="arrow_out" transform="scale(0.3 0.3)">
          <a xlink:href="pybind_2adders_2add__rename_8h__incl_org.svg" target="_base">
           <rect id="button" ry="5" rx="5" y="6" x="6" height="38" width="38"
                fill="#f2f5e9" fill-opacity="0.5" stroke="#606060" stroke-width="1.0"/>
           <path id="arrow"
             d="M 11.500037,31.436501 C 11.940474,20.09759 22.043105,11.32322 32.158766,21.979434 L 37.068811,17.246167 C 37.068811,17.246167 37.088388,32 37.088388,32 L 22.160133,31.978069 C 22.160133,31.978069 26.997745,27.140456 26.997745,27.140456 C 18.528582,18.264221 13.291696,25.230495 11.500037,31.436501 z"
             style="fill:#404040;"/>
          </a>
         </g>
        </svg>
</svg>
