<?xml version="1.0" encoding="UTF-8" standalone="no"?>
<!DOCTYPE svg PUBLIC "-//W3C//DTD SVG 1.1//EN"
 "http://www.w3.org/Graphics/SVG/1.1/DTD/svg11.dtd">
<!-- Generated by graphviz version 2.40.1 (20161225.0304)
 -->
<!-- Title: src/pybind/pyadders/add_child_positions.h Pages: 1 -->
<svg width="596pt" height="543pt"
 viewBox="0.00 0.00 596.00 543.00" xmlns="http://www.w3.org/2000/svg" xmlns:xlink="http://www.w3.org/1999/xlink">
<g id="graph0" class="graph" transform="scale(1 1) rotate(0) translate(4 539)">
<title>src/pybind/pyadders/add_child_positions.h</title>
<polygon fill="#ffffff" stroke="transparent" points="-4,4 -4,-539 592,-539 592,4 -4,4"/>
<!-- Node0 -->
<g id="node1" class="node">
<title>Node0</title>
<polygon fill="#bfbfbf" stroke="#000000" points="90,-504.5 90,-534.5 203,-534.5 203,-504.5 90,-504.5"/>
<text text-anchor="start" x="98" y="-522.5" font-family="Helvetica,sans-Serif" font-size="10.00" fill="#000000">src/pybind/pyadders</text>
<text text-anchor="middle" x="146.5" y="-511.5" font-family="Helvetica,sans-Serif" font-size="10.00" fill="#000000">/add_child_positions.h</text>
</g>
<!-- Node1 -->
<g id="node2" class="node">
<title>Node1</title>
<polygon fill="#ffffff" stroke="#bfbfbf" points="0,-448.5 0,-467.5 143,-467.5 143,-448.5 0,-448.5"/>
<text text-anchor="middle" x="71.5" y="-455.5" font-family="Helvetica,sans-Serif" font-size="10.00" fill="#000000">adders/add_child_positions.h</text>
</g>
<!-- Node0&#45;&gt;Node1 -->
<g id="edge1" class="edge">
<title>Node0&#45;&gt;Node1</title>
<path fill="none" stroke="#191970" d="M127.9607,-504.2977C116.8992,-495.2274 102.8509,-483.7077 91.5347,-474.4285"/>
<polygon fill="#191970" stroke="#191970" points="93.4604,-471.4813 83.5084,-467.8469 89.0219,-476.8942 93.4604,-471.4813"/>
</g>
<!-- Node2 -->
<g id="node3" class="node">
<title>Node2</title>
<g id="a_node3"><a xlink:href="pybind_2pyadders_2adder_8h.html" target="_top" xlink:title="This file has a function to bind Adder class to Python. ">
<polygon fill="#ffffff" stroke="#000000" points="161,-448.5 161,-467.5 284,-467.5 284,-448.5 161,-448.5"/>
<text text-anchor="middle" x="222.5" y="-455.5" font-family="Helvetica,sans-Serif" font-size="10.00" fill="#000000">pybind/pyadders/adder.h</text>
</a>
</g>
</g>
<!-- Node0&#45;&gt;Node2 -->
<g id="edge2" class="edge">
<title>Node0&#45;&gt;Node2</title>
<path fill="none" stroke="#191970" d="M165.2865,-504.2977C176.6053,-495.1384 191.0105,-483.4816 202.5346,-474.1562"/>
<polygon fill="#191970" stroke="#191970" points="204.7595,-476.8583 210.3314,-467.8469 200.3561,-471.4167 204.7595,-476.8583"/>
</g>
<!-- Node3 -->
<g id="node4" class="node">
<title>Node3</title>
<polygon fill="#ffffff" stroke="#bfbfbf" points="131,-392.5 131,-411.5 212,-411.5 212,-392.5 131,-392.5"/>
<text text-anchor="middle" x="171.5" y="-399.5" font-family="Helvetica,sans-Serif" font-size="10.00" fill="#000000">adders/adder.h</text>
</g>
<!-- Node2&#45;&gt;Node3 -->
<g id="edge3" class="edge">
<title>Node2&#45;&gt;Node3</title>
<path fill="none" stroke="#191970" d="M213.6165,-448.2455C206.3034,-440.2155 195.7609,-428.6394 187.0533,-419.0781"/>
<polygon fill="#191970" stroke="#191970" points="189.6028,-416.6795 180.2817,-411.6427 184.4273,-421.3928 189.6028,-416.6795"/>
</g>
<!-- Node4 -->
<g id="node5" class="node">
<title>Node4</title>
<g id="a_node5"><a xlink:href="pybind_2updater_8h.html" target="_top" xlink:title="This file is for binding Updater class to Python. ">
<polygon fill="#ffffff" stroke="#000000" points="230,-392.5 230,-411.5 319,-411.5 319,-392.5 230,-392.5"/>
<text text-anchor="middle" x="274.5" y="-399.5" font-family="Helvetica,sans-Serif" font-size="10.00" fill="#000000">pybind/updater.h</text>
</a>
</g>
</g>
<!-- Node2&#45;&gt;Node4 -->
<g id="edge4" class="edge">
<title>Node2&#45;&gt;Node4</title>
<path fill="none" stroke="#191970" d="M231.5577,-448.2455C239.0142,-440.2155 249.7634,-428.6394 258.6417,-419.0781"/>
<polygon fill="#191970" stroke="#191970" points="261.3063,-421.3522 265.5461,-411.6427 256.1768,-416.589 261.3063,-421.3522"/>
</g>
<!-- Node5 -->
<g id="node6" class="node">
<title>Node5</title>
<g id="a_node6"><a xlink:href="alias_2pybind_8h.html" target="_top" xlink:title="This file includes pybind11 and defines an alias for the namespace pybind11. ">
<polygon fill="#ffffff" stroke="#000000" points="121,-112.5 121,-131.5 198,-131.5 198,-112.5 121,-112.5"/>
<text text-anchor="middle" x="159.5" y="-119.5" font-family="Helvetica,sans-Serif" font-size="10.00" fill="#000000">alias/pybind.h</text>
</a>
</g>
</g>
<!-- Node4&#45;&gt;Node5 -->
<g id="edge5" class="edge">
<title>Node4&#45;&gt;Node5</title>
<path fill="none" stroke="#191970" d="M257.5159,-392.368C230.1905,-375.4638 179.5,-337.6798 179.5,-290 179.5,-290 179.5,-290 179.5,-234 179.5,-201.2193 171.0945,-163.8705 165.1819,-141.6533"/>
<polygon fill="#191970" stroke="#191970" points="168.491,-140.4878 162.4511,-131.7832 161.7445,-142.3545 168.491,-140.4878"/>
</g>
<!-- Node7 -->
<g id="node8" class="node">
<title>Node7</title>
<g id="a_node8"><a xlink:href="core_2updater_8h.html" target="_top" xlink:title="This file has a definition of the Updater class, which is one of the cores of this program...">
<polygon fill="#ffffff" stroke="#000000" points="330,-336.5 330,-355.5 409,-355.5 409,-336.5 330,-336.5"/>
<text text-anchor="middle" x="369.5" y="-343.5" font-family="Helvetica,sans-Serif" font-size="10.00" fill="#000000">core/updater.h</text>
</a>
</g>
</g>
<!-- Node4&#45;&gt;Node7 -->
<g id="edge7" class="edge">
<title>Node4&#45;&gt;Node7</title>
<path fill="none" stroke="#191970" d="M291.0477,-392.2455C305.7599,-383.5731 327.4888,-370.7645 344.3505,-360.825"/>
<polygon fill="#191970" stroke="#191970" points="346.3046,-363.736 353.1419,-355.6427 342.7498,-357.7057 346.3046,-363.736"/>
</g>
<!-- Node6 -->
<g id="node7" class="node">
<title>Node6</title>
<polygon fill="#ffffff" stroke="#bfbfbf" points="104.5,-56.5 104.5,-75.5 210.5,-75.5 210.5,-56.5 104.5,-56.5"/>
<text text-anchor="middle" x="157.5" y="-63.5" font-family="Helvetica,sans-Serif" font-size="10.00" fill="#000000">pybind11/pybind11.h</text>
</g>
<!-- Node5&#45;&gt;Node6 -->
<g id="edge6" class="edge">
<title>Node5&#45;&gt;Node6</title>
<path fill="none" stroke="#191970" d="M159.1516,-112.2455C158.8907,-104.9382 158.5248,-94.6944 158.2037,-85.7046"/>
<polygon fill="#191970" stroke="#191970" points="161.6992,-85.5113 157.8444,-75.6427 154.7036,-85.7613 161.6992,-85.5113"/>
</g>
<!-- Node8 -->
<g id="node9" class="node">
<title>Node8</title>
<polygon fill="#ffffff" stroke="#bfbfbf" points="525.5,-112.5 525.5,-131.5 569.5,-131.5 569.5,-112.5 525.5,-112.5"/>
<text text-anchor="middle" x="547.5" y="-119.5" font-family="Helvetica,sans-Serif" font-size="10.00" fill="#000000">omp.h</text>
</g>
<!-- Node7&#45;&gt;Node8 -->
<g id="edge8" class="edge">
<title>Node7&#45;&gt;Node8</title>
<path fill="none" stroke="#191970" d="M383.0431,-336.3144C394.7503,-327.575 411.7492,-313.9793 424.5,-300 472.8826,-246.9558 517.583,-173.8959 537.1296,-140.2767"/>
<polygon fill="#191970" stroke="#191970" points="540.2083,-141.9441 542.1622,-131.531 534.141,-138.4528 540.2083,-141.9441"/>
</g>
<!-- Node9 -->
<g id="node10" class="node">
<title>Node9</title>
<g id="a_node10"><a xlink:href="generators_8h.html" target="_top" xlink:title="This file includes all the header files of subclasses of Generator. ">
<polygon fill="#ffffff" stroke="#000000" points="323.5,-280.5 323.5,-299.5 415.5,-299.5 415.5,-280.5 323.5,-280.5"/>
<text text-anchor="middle" x="369.5" y="-287.5" font-family="Helvetica,sans-Serif" font-size="10.00" fill="#000000">core/generators.h</text>
</a>
</g>
</g>
<!-- Node7&#45;&gt;Node9 -->
<g id="edge9" class="edge">
<title>Node7&#45;&gt;Node9</title>
<path fill="none" stroke="#191970" d="M369.5,-336.2455C369.5,-328.9382 369.5,-318.6944 369.5,-309.7046"/>
<polygon fill="#191970" stroke="#191970" points="373.0001,-309.6426 369.5,-299.6427 366.0001,-309.6427 373.0001,-309.6426"/>
</g>
<!-- Node10 -->
<g id="node11" class="node">
<title>Node10</title>
<g id="a_node11"><a xlink:href="core_2element_8h.html" target="_top" xlink:title="This file has a definition of the Element class, which is one of the cores of this program...">
<polygon fill="#ffffff" stroke="#000000" points="329,-168.5 329,-187.5 410,-187.5 410,-168.5 329,-168.5"/>
<text text-anchor="middle" x="369.5" y="-175.5" font-family="Helvetica,sans-Serif" font-size="10.00" fill="#000000">core/element.h</text>
</a>
</g>
</g>
<!-- Node9&#45;&gt;Node10 -->
<g id="edge10" class="edge">
<title>Node9&#45;&gt;Node10</title>
<path fill="none" stroke="#191970" d="M385.3247,-280.4104C403.0741,-268.3201 428.1935,-246.3956 418.5,-224 413.2663,-211.9081 403.1158,-201.5335 393.4045,-193.7139"/>
<polygon fill="#191970" stroke="#191970" points="395.2234,-190.7038 385.118,-187.5209 391.0329,-196.3109 395.2234,-190.7038"/>
</g>
<!-- Node23 -->
<g id="node24" class="node">
<title>Node23</title>
<g id="a_node24"><a xlink:href="gen__dict_8h.html" target="_top" xlink:title="This file has a definition of the GenDict class. ">
<polygon fill="#ffffff" stroke="#000000" points="228,-224.5 228,-243.5 311,-243.5 311,-224.5 228,-224.5"/>
<text text-anchor="middle" x="269.5" y="-231.5" font-family="Helvetica,sans-Serif" font-size="10.00" fill="#000000">core/gen_dict.h</text>
</a>
</g>
</g>
<!-- Node9&#45;&gt;Node23 -->
<g id="edge27" class="edge">
<title>Node9&#45;&gt;Node23</title>
<path fill="none" stroke="#191970" d="M352.0813,-280.2455C336.4515,-271.4928 313.2981,-258.527 295.4815,-248.5496"/>
<polygon fill="#191970" stroke="#191970" points="297.1543,-245.475 286.7191,-243.6427 293.734,-251.5825 297.1543,-245.475"/>
</g>
<!-- Node24 -->
<g id="node25" class="node">
<title>Node24</title>
<g id="a_node25"><a xlink:href="gen__list_8h.html" target="_top" xlink:title="This file has a definition of the GenList class. ">
<polygon fill="#ffffff" stroke="#000000" points="329.5,-224.5 329.5,-243.5 409.5,-243.5 409.5,-224.5 329.5,-224.5"/>
<text text-anchor="middle" x="369.5" y="-231.5" font-family="Helvetica,sans-Serif" font-size="10.00" fill="#000000">core/gen_list.h</text>
</a>
</g>
</g>
<!-- Node9&#45;&gt;Node24 -->
<g id="edge29" class="edge">
<title>Node9&#45;&gt;Node24</title>
<path fill="none" stroke="#191970" d="M369.5,-280.2455C369.5,-272.9382 369.5,-262.6944 369.5,-253.7046"/>
<polygon fill="#191970" stroke="#191970" points="373.0001,-253.6426 369.5,-243.6427 366.0001,-253.6427 373.0001,-253.6426"/>
</g>
<!-- Node10&#45;&gt;Node5 -->
<g id="edge14" class="edge">
<title>Node10&#45;&gt;Node5</title>
<path fill="none" stroke="#191970" d="M333.3997,-168.3733C297.8752,-158.9001 243.512,-144.4032 205.0381,-134.1435"/>
<polygon fill="#191970" stroke="#191970" points="205.6934,-130.696 195.1292,-131.5011 203.8897,-137.4596 205.6934,-130.696"/>
</g>
<!-- Node10&#45;&gt;Node8 -->
<g id="edge11" class="edge">
<title>Node10&#45;&gt;Node8</title>
<path fill="none" stroke="#191970" d="M400.2133,-168.475C427.9937,-159.8406 470.2723,-146.6533 515.7445,-132.2226"/>
<polygon fill="#191970" stroke="#191970" points="517.0215,-135.4894 525.4922,-129.1256 514.9018,-128.818 517.0215,-135.4894"/>
</g>
<!-- Node11 -->
<g id="node12" class="node">
<title>Node11</title>
<g id="a_node12"><a xlink:href="eigen_8h.html" target="_top" xlink:title="This file includes Eigen and defines some aliases for the Eigen&#45;Vector, Matrix and Array...">
<polygon fill="#ffffff" stroke="#000000" points="436,-112.5 436,-131.5 507,-131.5 507,-112.5 436,-112.5"/>
<text text-anchor="middle" x="471.5" y="-119.5" font-family="Helvetica,sans-Serif" font-size="10.00" fill="#000000">alias/eigen.h</text>
</a>
</g>
</g>
<!-- Node10&#45;&gt;Node11 -->
<g id="edge12" class="edge">
<title>Node10&#45;&gt;Node11</title>
<path fill="none" stroke="#191970" d="M387.267,-168.2455C403.2095,-159.4928 426.8259,-146.527 444.9989,-136.5496"/>
<polygon fill="#191970" stroke="#191970" points="446.8552,-139.5233 453.9366,-131.6427 443.4863,-133.3873 446.8552,-139.5233"/>
</g>
<!-- Node13 -->
<g id="node14" class="node">
<title>Node13</title>
<g id="a_node14"><a xlink:href="generator_8h.html" target="_top" xlink:title="This file has a definition of the Generator class, which is one of the cores of this program...">
<polygon fill="#ffffff" stroke="#000000" points="216,-112.5 216,-131.5 303,-131.5 303,-112.5 216,-112.5"/>
<text text-anchor="middle" x="259.5" y="-119.5" font-family="Helvetica,sans-Serif" font-size="10.00" fill="#000000">core/generator.h</text>
</a>
</g>
</g>
<!-- Node10&#45;&gt;Node13 -->
<g id="edge15" class="edge">
<title>Node10&#45;&gt;Node13</title>
<path fill="none" stroke="#191970" d="M350.3395,-168.2455C332.9889,-159.4125 307.2099,-146.2887 287.5417,-136.2758"/>
<polygon fill="#191970" stroke="#191970" points="288.9405,-133.0605 278.441,-131.6427 285.7647,-139.2986 288.9405,-133.0605"/>
</g>
<!-- Node22 -->
<g id="node23" class="node">
<title>Node22</title>
<g id="a_node23"><a xlink:href="data__keys_8h.html" target="_top" xlink:title="This file has a definition of the DataKeys class, which is owned by Element class. ">
<polygon fill="#ffffff" stroke="#000000" points="321.5,-112.5 321.5,-131.5 417.5,-131.5 417.5,-112.5 321.5,-112.5"/>
<text text-anchor="middle" x="369.5" y="-119.5" font-family="Helvetica,sans-Serif" font-size="10.00" fill="#000000">class/data_keys.h</text>
</a>
</g>
</g>
<!-- Node10&#45;&gt;Node22 -->
<g id="edge24" class="edge">
<title>Node10&#45;&gt;Node22</title>
<path fill="none" stroke="#191970" d="M369.5,-168.2455C369.5,-160.9382 369.5,-150.6944 369.5,-141.7046"/>
<polygon fill="#191970" stroke="#191970" points="373.0001,-141.6426 369.5,-131.6427 366.0001,-141.6427 373.0001,-141.6426"/>
</g>
<!-- Node12 -->
<g id="node13" class="node">
<title>Node12</title>
<polygon fill="#ffffff" stroke="#bfbfbf" points="443.5,-56.5 443.5,-75.5 499.5,-75.5 499.5,-56.5 443.5,-56.5"/>
<text text-anchor="middle" x="471.5" y="-63.5" font-family="Helvetica,sans-Serif" font-size="10.00" fill="#000000">Eigen/LU</text>
</g>
<!-- Node11&#45;&gt;Node12 -->
<g id="edge13" class="edge">
<title>Node11&#45;&gt;Node12</title>
<path fill="none" stroke="#191970" d="M471.5,-112.2455C471.5,-104.9382 471.5,-94.6944 471.5,-85.7046"/>
<polygon fill="#191970" stroke="#191970" points="475.0001,-85.6426 471.5,-75.6427 468.0001,-85.6427 475.0001,-85.6426"/>
</g>
<!-- Node14 -->
<g id="node15" class="node">
<title>Node14</title>
<g id="a_node15"><a xlink:href="std_8h.html" target="_top" xlink:title="This file includes a part of C++ Standard Template Library and defines aliases for them...">
<polygon fill="#ffffff" stroke="#000000" points="338.5,-56.5 338.5,-75.5 400.5,-75.5 400.5,-56.5 338.5,-56.5"/>
<text text-anchor="middle" x="369.5" y="-63.5" font-family="Helvetica,sans-Serif" font-size="10.00" fill="#000000">alias/std.h</text>
</a>
</g>
</g>
<!-- Node13&#45;&gt;Node14 -->
<g id="edge16" class="edge">
<title>Node13&#45;&gt;Node14</title>
<path fill="none" stroke="#191970" d="M278.6605,-112.2455C296.0111,-103.4125 321.7901,-90.2887 341.4583,-80.2758"/>
<polygon fill="#191970" stroke="#191970" points="343.2353,-83.2986 350.559,-75.6427 340.0595,-77.0605 343.2353,-83.2986"/>
</g>
<!-- Node20 -->
<g id="node21" class="node">
<title>Node20</title>
<g id="a_node21"><a xlink:href="json_8h.html" target="_top" xlink:title="This file includes nlohmann/json and defines an alias for the JSON type. ">
<polygon fill="#ffffff" stroke="#000000" points="228.5,-56.5 228.5,-75.5 294.5,-75.5 294.5,-56.5 228.5,-56.5"/>
<text text-anchor="middle" x="261.5" y="-63.5" font-family="Helvetica,sans-Serif" font-size="10.00" fill="#000000">alias/json.h</text>
</a>
</g>
</g>
<!-- Node13&#45;&gt;Node20 -->
<g id="edge22" class="edge">
<title>Node13&#45;&gt;Node20</title>
<path fill="none" stroke="#191970" d="M259.8484,-112.2455C260.1093,-104.9382 260.4752,-94.6944 260.7963,-85.7046"/>
<polygon fill="#191970" stroke="#191970" points="264.2964,-85.7613 261.1556,-75.6427 257.3008,-85.5113 264.2964,-85.7613"/>
</g>
<!-- Node15 -->
<g id="node16" class="node">
<title>Node15</title>
<polygon fill="#ffffff" stroke="#bfbfbf" points="476.5,-.5 476.5,-19.5 528.5,-19.5 528.5,-.5 476.5,-.5"/>
<text text-anchor="middle" x="502.5" y="-7.5" font-family="Helvetica,sans-Serif" font-size="10.00" fill="#000000">memory</text>
</g>
<!-- Node14&#45;&gt;Node15 -->
<g id="edge17" class="edge">
<title>Node14&#45;&gt;Node15</title>
<path fill="none" stroke="#191970" d="M392.3635,-56.3733C413.905,-47.3032 446.3838,-33.6279 470.4956,-23.4755"/>
<polygon fill="#191970" stroke="#191970" points="472.0767,-26.6075 479.9348,-19.5011 469.3603,-20.156 472.0767,-26.6075"/>
</g>
<!-- Node16 -->
<g id="node17" class="node">
<title>Node16</title>
<polygon fill="#ffffff" stroke="#bfbfbf" points="547,-.5 547,-19.5 588,-19.5 588,-.5 547,-.5"/>
<text text-anchor="middle" x="567.5" y="-7.5" font-family="Helvetica,sans-Serif" font-size="10.00" fill="#000000">string</text>
</g>
<!-- Node14&#45;&gt;Node16 -->
<g id="edge18" class="edge">
<title>Node14&#45;&gt;Node16</title>
<path fill="none" stroke="#191970" d="M400.6089,-58.0248C432.5254,-49.7236 483.8127,-36.056 537.2463,-19.959"/>
<polygon fill="#191970" stroke="#191970" points="538.3368,-23.2858 546.8904,-17.034 536.305,-16.5871 538.3368,-23.2858"/>
</g>
<!-- Node17 -->
<g id="node18" class="node">
<title>Node17</title>
<polygon fill="#ffffff" stroke="#bfbfbf" points="216.5,-.5 216.5,-19.5 260.5,-19.5 260.5,-.5 216.5,-.5"/>
<text text-anchor="middle" x="238.5" y="-7.5" font-family="Helvetica,sans-Serif" font-size="10.00" fill="#000000">vector</text>
</g>
<!-- Node14&#45;&gt;Node17 -->
<g id="edge19" class="edge">
<title>Node14&#45;&gt;Node17</title>
<path fill="none" stroke="#191970" d="M346.9803,-56.3733C325.7628,-47.3032 293.7724,-33.6279 270.0231,-23.4755"/>
<polygon fill="#191970" stroke="#191970" points="271.2967,-20.2136 260.7258,-19.5011 268.5452,-26.6502 271.2967,-20.2136"/>
</g>
<!-- Node18 -->
<g id="node19" class="node">
<title>Node18</title>
<polygon fill="#ffffff" stroke="#bfbfbf" points="279,-.5 279,-19.5 362,-19.5 362,-.5 279,-.5"/>
<text text-anchor="middle" x="320.5" y="-7.5" font-family="Helvetica,sans-Serif" font-size="10.00" fill="#000000">unordered_map</text>
</g>
<!-- Node14&#45;&gt;Node18 -->
<g id="edge20" class="edge">
<title>Node14&#45;&gt;Node18</title>
<path fill="none" stroke="#191970" d="M360.9649,-56.2455C354.0088,-48.2958 344.0117,-36.8706 335.6949,-27.3656"/>
<polygon fill="#191970" stroke="#191970" points="338.1564,-24.8637 328.9373,-19.6427 332.8884,-29.4732 338.1564,-24.8637"/>
</g>
<!-- Node19 -->
<g id="node20" class="node">
<title>Node19</title>
<polygon fill="#ffffff" stroke="#bfbfbf" points="380.5,-.5 380.5,-19.5 458.5,-19.5 458.5,-.5 380.5,-.5"/>
<text text-anchor="middle" x="419.5" y="-7.5" font-family="Helvetica,sans-Serif" font-size="10.00" fill="#000000">unordered_set</text>
</g>
<!-- Node14&#45;&gt;Node19 -->
<g id="edge21" class="edge">
<title>Node14&#45;&gt;Node19</title>
<path fill="none" stroke="#191970" d="M378.2093,-56.2455C385.3073,-48.2958 395.5084,-36.8706 403.995,-27.3656"/>
<polygon fill="#191970" stroke="#191970" points="406.8411,-29.4331 410.8905,-19.6427 401.6195,-24.771 406.8411,-29.4331"/>
</g>
<!-- Node21 -->
<g id="node22" class="node">
<title>Node21</title>
<polygon fill="#ffffff" stroke="#bfbfbf" points="100.5,-.5 100.5,-19.5 198.5,-19.5 198.5,-.5 100.5,-.5"/>
<text text-anchor="middle" x="149.5" y="-7.5" font-family="Helvetica,sans-Serif" font-size="10.00" fill="#000000">nlohmann/json.hpp</text>
</g>
<!-- Node20&#45;&gt;Node21 -->
<g id="edge23" class="edge">
<title>Node20&#45;&gt;Node21</title>
<path fill="none" stroke="#191970" d="M242.2465,-56.3733C224.4288,-47.4644 197.7253,-34.1127 177.5406,-24.0203"/>
<polygon fill="#191970" stroke="#191970" points="179.0118,-20.8428 168.5022,-19.5011 175.8813,-27.1038 179.0118,-20.8428"/>
</g>
<!-- Node22&#45;&gt;Node14 -->
<g id="edge25" class="edge">
<title>Node22&#45;&gt;Node14</title>
<path fill="none" stroke="#191970" d="M369.5,-112.2455C369.5,-104.9382 369.5,-94.6944 369.5,-85.7046"/>
<polygon fill="#191970" stroke="#191970" points="373.0001,-85.6426 369.5,-75.6427 366.0001,-85.6427 373.0001,-85.6426"/>
</g>
<!-- Node22&#45;&gt;Node20 -->
<g id="edge26" class="edge">
<title>Node22&#45;&gt;Node20</title>
<path fill="none" stroke="#191970" d="M350.6878,-112.2455C333.6527,-103.4125 308.3425,-90.2887 289.0319,-80.2758"/>
<polygon fill="#191970" stroke="#191970" points="290.5853,-77.1388 280.0966,-75.6427 287.363,-83.353 290.5853,-77.1388"/>
</g>
<!-- Node23&#45;&gt;Node10 -->
<g id="edge28" class="edge">
<title>Node23&#45;&gt;Node10</title>
<path fill="none" stroke="#191970" d="M286.9187,-224.2455C302.5485,-215.4928 325.7019,-202.527 343.5185,-192.5496"/>
<polygon fill="#191970" stroke="#191970" points="345.266,-195.5825 352.2809,-187.6427 341.8457,-189.475 345.266,-195.5825"/>
</g>
<!-- Node24&#45;&gt;Node10 -->
<g id="edge30" class="edge">
<title>Node24&#45;&gt;Node10</title>
<path fill="none" stroke="#191970" d="M369.5,-224.2455C369.5,-216.9382 369.5,-206.6944 369.5,-197.7046"/>
<polygon fill="#191970" stroke="#191970" points="373.0001,-197.6426 369.5,-187.6427 366.0001,-197.6427 373.0001,-197.6426"/>
</g>
</g>
</svg>
