<?xml version="1.0" encoding="UTF-8" standalone="no"?>
<!DOCTYPE svg PUBLIC "-//W3C//DTD SVG 1.1//EN"
 "http://www.w3.org/Graphics/SVG/1.1/DTD/svg11.dtd">
<!-- Generated by graphviz version 2.40.1 (20161225.0304)
 -->
<!-- Title: src/pybind/adders/add_child_ids.h Pages: 1 -->
<!--zoomable 543 -->
<svg id="main" version="1.1" xmlns="http://www.w3.org/2000/svg" xmlns:xlink="http://www.w3.org/1999/xlink" xml:space="preserve" onload="init(evt)">
<style type="text/css"><![CDATA[
.edge:hover path { stroke: red; }
.edge:hover polygon { stroke: red; fill: red; }
]]></style>
<script type="text/javascript"><![CDATA[
var edges = document.getElementsByTagName('g');
if (edges && edges.length) {
  for (var i=0;i<edges.length;i++) {
    if (edges[i].id.substr(0,4)=='edge') {
      edges[i].setAttribute('class','edge');
    }
  }
}
]]></script>
        <defs>
                <circle id="rim" cx="0" cy="0" r="7"/>
                <circle id="rim2" cx="0" cy="0" r="3.5"/>
                <g id="zoomPlus">
                        <use xlink:href="#rim" fill="#404040">
                                <set attributeName="fill" to="#808080" begin="zoomplus.mouseover" end="zoomplus.mouseout"/>
                        </use>
                        <path d="M-4,0h8M0,-4v8" fill="none" stroke="white" stroke-width="1.5" pointer-events="none"/>
                </g>
                <g id="zoomMin">
                        <use xlink:href="#rim" fill="#404040">
                                <set attributeName="fill" to="#808080" begin="zoomminus.mouseover" end="zoomminus.mouseout"/>
                        </use>
                        <path d="M-4,0h8" fill="none" stroke="white" stroke-width="1.5" pointer-events="none"/>
                </g>
                <g id="dirArrow">
                        <path fill="none" stroke="white" stroke-width="1.5" d="M0,-3.0v7 M-2.5,-0.5L0,-3.0L2.5,-0.5"/>
                </g>
               <g id="resetDef">
                       <use xlink:href="#rim2" fill="#404040">
                               <set attributeName="fill" to="#808080" begin="reset.mouseover" end="reset.mouseout"/>
                       </use>
               </g>
        </defs>

<script type="text/javascript">
var viewWidth = 565;
var viewHeight = 543;
var sectionId = 'dynsection-0';
</script>
<script xlink:href="svgpan.js"/>
<svg id="graph" class="graph">
<g id="viewport">
<title>src/pybind/adders/add_child_ids.h</title>
<polygon fill="#ffffff" stroke="transparent" points="-4,4 -4,-539 560.5,-539 560.5,4 -4,4"/>
<!-- Node0 -->
<g id="node1" class="node">
<title>Node0</title>
<polygon fill="#bfbfbf" stroke="#000000" points="67.5,-504.5 67.5,-534.5 180.5,-534.5 180.5,-504.5 67.5,-504.5"/>
<text text-anchor="start" x="75.5" y="-522.5" font-family="Helvetica,sans-Serif" font-size="10.00" fill="#000000">src/pybind/adders/add</text>
<text text-anchor="middle" x="124" y="-511.5" font-family="Helvetica,sans-Serif" font-size="10.00" fill="#000000">_child_ids.h</text>
</g>
<!-- Node1 -->
<g id="node2" class="node">
<title>Node1</title>
<polygon fill="#ffffff" stroke="#bfbfbf" points="0,-448.5 0,-467.5 116,-467.5 116,-448.5 0,-448.5"/>
<text text-anchor="middle" x="58" y="-455.5" font-family="Helvetica,sans-Serif" font-size="10.00" fill="#000000">adders/add_child_ids.h</text>
</g>
<!-- Node0&#45;&gt;Node1 -->
<g id="edge1" class="edge">
<title>Node0&#45;&gt;Node1</title>
<path fill="none" stroke="#191970" d="M107.6854,-504.2977C98.0467,-495.3163 85.8309,-483.9334 75.9241,-474.702"/>
<polygon fill="#191970" stroke="#191970" points="78.2696,-472.1036 68.5674,-467.8469 73.4975,-477.2249 78.2696,-472.1036"/>
</g>
<!-- Node2 -->
<g id="node3" class="node">
<title>Node2</title>
<g id="a_node3"><a xlink:href="pybind_2adders_2adder_8h.html" target="_top" xlink:title="pybind/adders/adder.h">
<polygon fill="#ffffff" stroke="#000000" points="134.5,-448.5 134.5,-467.5 247.5,-467.5 247.5,-448.5 134.5,-448.5"/>
<text text-anchor="middle" x="191" y="-455.5" font-family="Helvetica,sans-Serif" font-size="10.00" fill="#000000">pybind/adders/adder.h</text>
</a>
</g>
</g>
<!-- Node0&#45;&gt;Node2 -->
<g id="edge2" class="edge">
<title>Node0&#45;&gt;Node2</title>
<path fill="none" stroke="#191970" d="M140.5618,-504.2977C150.3465,-495.3163 162.7474,-483.9334 172.8043,-474.702"/>
<polygon fill="#191970" stroke="#191970" points="175.2722,-477.1876 180.2725,-467.8469 170.5387,-472.0307 175.2722,-477.1876"/>
</g>
<!-- Node3 -->
<g id="node4" class="node">
<title>Node3</title>
<polygon fill="#ffffff" stroke="#bfbfbf" points="99.5,-392.5 99.5,-411.5 180.5,-411.5 180.5,-392.5 99.5,-392.5"/>
<text text-anchor="middle" x="140" y="-399.5" font-family="Helvetica,sans-Serif" font-size="10.00" fill="#000000">adders/adder.h</text>
</g>
<!-- Node2&#45;&gt;Node3 -->
<g id="edge3" class="edge">
<title>Node2&#45;&gt;Node3</title>
<path fill="none" stroke="#191970" d="M182.1165,-448.2455C174.8034,-440.2155 164.2609,-428.6394 155.5533,-419.0781"/>
<polygon fill="#191970" stroke="#191970" points="158.1028,-416.6795 148.7817,-411.6427 152.9273,-421.3928 158.1028,-416.6795"/>
</g>
<!-- Node4 -->
<g id="node5" class="node">
<title>Node4</title>
<g id="a_node5"><a xlink:href="pybind_2updater_8h.html" target="_top" xlink:title="pybind/updater.h">
<polygon fill="#ffffff" stroke="#000000" points="198.5,-392.5 198.5,-411.5 287.5,-411.5 287.5,-392.5 198.5,-392.5"/>
<text text-anchor="middle" x="243" y="-399.5" font-family="Helvetica,sans-Serif" font-size="10.00" fill="#000000">pybind/updater.h</text>
</a>
</g>
</g>
<!-- Node2&#45;&gt;Node4 -->
<g id="edge4" class="edge">
<title>Node2&#45;&gt;Node4</title>
<path fill="none" stroke="#191970" d="M200.0577,-448.2455C207.5142,-440.2155 218.2634,-428.6394 227.1417,-419.0781"/>
<polygon fill="#191970" stroke="#191970" points="229.8063,-421.3522 234.0461,-411.6427 224.6768,-416.589 229.8063,-421.3522"/>
</g>
<!-- Node5 -->
<g id="node6" class="node">
<title>Node5</title>
<g id="a_node6"><a xlink:href="alias_2pybind_8h.html" target="_top" xlink:title="... ">
<polygon fill="#ffffff" stroke="#000000" points="89.5,-112.5 89.5,-131.5 166.5,-131.5 166.5,-112.5 89.5,-112.5"/>
<text text-anchor="middle" x="128" y="-119.5" font-family="Helvetica,sans-Serif" font-size="10.00" fill="#000000">alias/pybind.h</text>
</a>
</g>
</g>
<!-- Node4&#45;&gt;Node5 -->
<g id="edge5" class="edge">
<title>Node4&#45;&gt;Node5</title>
<path fill="none" stroke="#191970" d="M226.0159,-392.368C198.6905,-375.4638 148,-337.6798 148,-290 148,-290 148,-290 148,-234 148,-201.2193 139.5945,-163.8705 133.6819,-141.6533"/>
<polygon fill="#191970" stroke="#191970" points="136.991,-140.4878 130.9511,-131.7832 130.2445,-142.3545 136.991,-140.4878"/>
</g>
<!-- Node7 -->
<g id="node8" class="node">
<title>Node7</title>
<g id="a_node8"><a xlink:href="core_2updater_8h.html" target="_top" xlink:title="This file has a definition of the Updater class, which is one of the cores of this program...">
<polygon fill="#ffffff" stroke="#000000" points="298.5,-336.5 298.5,-355.5 377.5,-355.5 377.5,-336.5 298.5,-336.5"/>
<text text-anchor="middle" x="338" y="-343.5" font-family="Helvetica,sans-Serif" font-size="10.00" fill="#000000">core/updater.h</text>
</a>
</g>
</g>
<!-- Node4&#45;&gt;Node7 -->
<g id="edge7" class="edge">
<title>Node4&#45;&gt;Node7</title>
<path fill="none" stroke="#191970" d="M259.5477,-392.2455C274.2599,-383.5731 295.9888,-370.7645 312.8505,-360.825"/>
<polygon fill="#191970" stroke="#191970" points="314.8046,-363.736 321.6419,-355.6427 311.2498,-357.7057 314.8046,-363.736"/>
</g>
<!-- Node6 -->
<g id="node7" class="node">
<title>Node6</title>
<polygon fill="#ffffff" stroke="#bfbfbf" points="73,-56.5 73,-75.5 179,-75.5 179,-56.5 73,-56.5"/>
<text text-anchor="middle" x="126" y="-63.5" font-family="Helvetica,sans-Serif" font-size="10.00" fill="#000000">pybind11/pybind11.h</text>
</g>
<!-- Node5&#45;&gt;Node6 -->
<g id="edge6" class="edge">
<title>Node5&#45;&gt;Node6</title>
<path fill="none" stroke="#191970" d="M127.6516,-112.2455C127.3907,-104.9382 127.0248,-94.6944 126.7037,-85.7046"/>
<polygon fill="#191970" stroke="#191970" points="130.1992,-85.5113 126.3444,-75.6427 123.2036,-85.7613 130.1992,-85.5113"/>
</g>
<!-- Node8 -->
<g id="node9" class="node">
<title>Node8</title>
<polygon fill="#ffffff" stroke="#bfbfbf" points="494,-112.5 494,-131.5 538,-131.5 538,-112.5 494,-112.5"/>
<text text-anchor="middle" x="516" y="-119.5" font-family="Helvetica,sans-Serif" font-size="10.00" fill="#000000">omp.h</text>
</g>
<!-- Node7&#45;&gt;Node8 -->
<g id="edge8" class="edge">
<title>Node7&#45;&gt;Node8</title>
<path fill="none" stroke="#191970" d="M351.5431,-336.3144C363.2503,-327.575 380.2492,-313.9793 393,-300 441.3826,-246.9558 486.083,-173.8959 505.6296,-140.2767"/>
<polygon fill="#191970" stroke="#191970" points="508.7083,-141.9441 510.6622,-131.531 502.641,-138.4528 508.7083,-141.9441"/>
</g>
<!-- Node9 -->
<g id="node10" class="node">
<title>Node9</title>
<g id="a_node10"><a xlink:href="generators_8h.html" target="_top" xlink:title="This file includes all the header files of subclasses of Generator. ">
<polygon fill="#ffffff" stroke="#000000" points="292,-280.5 292,-299.5 384,-299.5 384,-280.5 292,-280.5"/>
<text text-anchor="middle" x="338" y="-287.5" font-family="Helvetica,sans-Serif" font-size="10.00" fill="#000000">core/generators.h</text>
</a>
</g>
</g>
<!-- Node7&#45;&gt;Node9 -->
<g id="edge9" class="edge">
<title>Node7&#45;&gt;Node9</title>
<path fill="none" stroke="#191970" d="M338,-336.2455C338,-328.9382 338,-318.6944 338,-309.7046"/>
<polygon fill="#191970" stroke="#191970" points="341.5001,-309.6426 338,-299.6427 334.5001,-309.6427 341.5001,-309.6426"/>
</g>
<!-- Node10 -->
<g id="node11" class="node">
<title>Node10</title>
<g id="a_node11"><a xlink:href="core_2element_8h.html" target="_top" xlink:title="This file has a definition of the Element class, which is one of the cores of this program...">
<polygon fill="#ffffff" stroke="#000000" points="297.5,-168.5 297.5,-187.5 378.5,-187.5 378.5,-168.5 297.5,-168.5"/>
<text text-anchor="middle" x="338" y="-175.5" font-family="Helvetica,sans-Serif" font-size="10.00" fill="#000000">core/element.h</text>
</a>
</g>
</g>
<!-- Node9&#45;&gt;Node10 -->
<g id="edge10" class="edge">
<title>Node9&#45;&gt;Node10</title>
<path fill="none" stroke="#191970" d="M353.8247,-280.4104C371.5741,-268.3201 396.6935,-246.3956 387,-224 381.7663,-211.9081 371.6158,-201.5335 361.9045,-193.7139"/>
<polygon fill="#191970" stroke="#191970" points="363.7234,-190.7038 353.618,-187.5209 359.5329,-196.3109 363.7234,-190.7038"/>
</g>
<!-- Node23 -->
<g id="node24" class="node">
<title>Node23</title>
<g id="a_node24"><a xlink:href="gen__dict_8h.html" target="_top" xlink:title="This file has a definition of the GenDict class. ">
<polygon fill="#ffffff" stroke="#000000" points="196.5,-224.5 196.5,-243.5 279.5,-243.5 279.5,-224.5 196.5,-224.5"/>
<text text-anchor="middle" x="238" y="-231.5" font-family="Helvetica,sans-Serif" font-size="10.00" fill="#000000">core/gen_dict.h</text>
</a>
</g>
</g>
<!-- Node9&#45;&gt;Node23 -->
<g id="edge27" class="edge">
<title>Node9&#45;&gt;Node23</title>
<path fill="none" stroke="#191970" d="M320.5813,-280.2455C304.9515,-271.4928 281.7981,-258.527 263.9815,-248.5496"/>
<polygon fill="#191970" stroke="#191970" points="265.6543,-245.475 255.2191,-243.6427 262.234,-251.5825 265.6543,-245.475"/>
</g>
<!-- Node24 -->
<g id="node25" class="node">
<title>Node24</title>
<g id="a_node25"><a xlink:href="gen__list_8h.html" target="_top" xlink:title="This file has a definition of the GenList class. ">
<polygon fill="#ffffff" stroke="#000000" points="298,-224.5 298,-243.5 378,-243.5 378,-224.5 298,-224.5"/>
<text text-anchor="middle" x="338" y="-231.5" font-family="Helvetica,sans-Serif" font-size="10.00" fill="#000000">core/gen_list.h</text>
</a>
</g>
</g>
<!-- Node9&#45;&gt;Node24 -->
<g id="edge29" class="edge">
<title>Node9&#45;&gt;Node24</title>
<path fill="none" stroke="#191970" d="M338,-280.2455C338,-272.9382 338,-262.6944 338,-253.7046"/>
<polygon fill="#191970" stroke="#191970" points="341.5001,-253.6426 338,-243.6427 334.5001,-253.6427 341.5001,-253.6426"/>
</g>
<!-- Node10&#45;&gt;Node5 -->
<g id="edge14" class="edge">
<title>Node10&#45;&gt;Node5</title>
<path fill="none" stroke="#191970" d="M301.8997,-168.3733C266.3752,-158.9001 212.012,-144.4032 173.5381,-134.1435"/>
<polygon fill="#191970" stroke="#191970" points="174.1934,-130.696 163.6292,-131.5011 172.3897,-137.4596 174.1934,-130.696"/>
</g>
<!-- Node10&#45;&gt;Node8 -->
<g id="edge11" class="edge">
<title>Node10&#45;&gt;Node8</title>
<path fill="none" stroke="#191970" d="M368.7133,-168.475C396.4937,-159.8406 438.7723,-146.6533 484.2445,-132.2226"/>
<polygon fill="#191970" stroke="#191970" points="485.5215,-135.4894 493.9922,-129.1256 483.4018,-128.818 485.5215,-135.4894"/>
</g>
<!-- Node11 -->
<g id="node12" class="node">
<title>Node11</title>
<g id="a_node12"><a xlink:href="eigen_8h.html" target="_top" xlink:title="This file includes Eigen and defines some aliases for the Eigen&#45; Vector, Matrix and Array...">
<polygon fill="#ffffff" stroke="#000000" points="404.5,-112.5 404.5,-131.5 475.5,-131.5 475.5,-112.5 404.5,-112.5"/>
<text text-anchor="middle" x="440" y="-119.5" font-family="Helvetica,sans-Serif" font-size="10.00" fill="#000000">alias/eigen.h</text>
</a>
</g>
</g>
<!-- Node10&#45;&gt;Node11 -->
<g id="edge12" class="edge">
<title>Node10&#45;&gt;Node11</title>
<path fill="none" stroke="#191970" d="M355.767,-168.2455C371.7095,-159.4928 395.3259,-146.527 413.4989,-136.5496"/>
<polygon fill="#191970" stroke="#191970" points="415.3552,-139.5233 422.4366,-131.6427 411.9863,-133.3873 415.3552,-139.5233"/>
</g>
<!-- Node13 -->
<g id="node14" class="node">
<title>Node13</title>
<g id="a_node14"><a xlink:href="generator_8h.html" target="_top" xlink:title="This file has a definition of the Generator class, which is one of the cores of this program...">
<polygon fill="#ffffff" stroke="#000000" points="184.5,-112.5 184.5,-131.5 271.5,-131.5 271.5,-112.5 184.5,-112.5"/>
<text text-anchor="middle" x="228" y="-119.5" font-family="Helvetica,sans-Serif" font-size="10.00" fill="#000000">core/generator.h</text>
</a>
</g>
</g>
<!-- Node10&#45;&gt;Node13 -->
<g id="edge15" class="edge">
<title>Node10&#45;&gt;Node13</title>
<path fill="none" stroke="#191970" d="M318.8395,-168.2455C301.4889,-159.4125 275.7099,-146.2887 256.0417,-136.2758"/>
<polygon fill="#191970" stroke="#191970" points="257.4405,-133.0605 246.941,-131.6427 254.2647,-139.2986 257.4405,-133.0605"/>
</g>
<!-- Node22 -->
<g id="node23" class="node">
<title>Node22</title>
<g id="a_node23"><a xlink:href="data__keys_8h.html" target="_top" xlink:title="... ">
<polygon fill="#ffffff" stroke="#000000" points="290,-112.5 290,-131.5 386,-131.5 386,-112.5 290,-112.5"/>
<text text-anchor="middle" x="338" y="-119.5" font-family="Helvetica,sans-Serif" font-size="10.00" fill="#000000">class/data_keys.h</text>
</a>
</g>
</g>
<!-- Node10&#45;&gt;Node22 -->
<g id="edge24" class="edge">
<title>Node10&#45;&gt;Node22</title>
<path fill="none" stroke="#191970" d="M338,-168.2455C338,-160.9382 338,-150.6944 338,-141.7046"/>
<polygon fill="#191970" stroke="#191970" points="341.5001,-141.6426 338,-131.6427 334.5001,-141.6427 341.5001,-141.6426"/>
</g>
<!-- Node12 -->
<g id="node13" class="node">
<title>Node12</title>
<polygon fill="#ffffff" stroke="#bfbfbf" points="412,-56.5 412,-75.5 468,-75.5 468,-56.5 412,-56.5"/>
<text text-anchor="middle" x="440" y="-63.5" font-family="Helvetica,sans-Serif" font-size="10.00" fill="#000000">Eigen/LU</text>
</g>
<!-- Node11&#45;&gt;Node12 -->
<g id="edge13" class="edge">
<title>Node11&#45;&gt;Node12</title>
<path fill="none" stroke="#191970" d="M440,-112.2455C440,-104.9382 440,-94.6944 440,-85.7046"/>
<polygon fill="#191970" stroke="#191970" points="443.5001,-85.6426 440,-75.6427 436.5001,-85.6427 443.5001,-85.6426"/>
</g>
<!-- Node14 -->
<g id="node15" class="node">
<title>Node14</title>
<g id="a_node15"><a xlink:href="std_8h.html" target="_top" xlink:title="This file includes a part of C++ Standard Template Library and defines aliases for them...">
<polygon fill="#ffffff" stroke="#000000" points="307,-56.5 307,-75.5 369,-75.5 369,-56.5 307,-56.5"/>
<text text-anchor="middle" x="338" y="-63.5" font-family="Helvetica,sans-Serif" font-size="10.00" fill="#000000">alias/std.h</text>
</a>
</g>
</g>
<!-- Node13&#45;&gt;Node14 -->
<g id="edge16" class="edge">
<title>Node13&#45;&gt;Node14</title>
<path fill="none" stroke="#191970" d="M247.1605,-112.2455C264.5111,-103.4125 290.2901,-90.2887 309.9583,-80.2758"/>
<polygon fill="#191970" stroke="#191970" points="311.7353,-83.2986 319.059,-75.6427 308.5595,-77.0605 311.7353,-83.2986"/>
</g>
<!-- Node20 -->
<g id="node21" class="node">
<title>Node20</title>
<g id="a_node21"><a xlink:href="json_8h.html" target="_top" xlink:title="This file includes nlohmann/json and defines an alias for the JSON type. ">
<polygon fill="#ffffff" stroke="#000000" points="197,-56.5 197,-75.5 263,-75.5 263,-56.5 197,-56.5"/>
<text text-anchor="middle" x="230" y="-63.5" font-family="Helvetica,sans-Serif" font-size="10.00" fill="#000000">alias/json.h</text>
</a>
</g>
</g>
<!-- Node13&#45;&gt;Node20 -->
<g id="edge22" class="edge">
<title>Node13&#45;&gt;Node20</title>
<path fill="none" stroke="#191970" d="M228.3484,-112.2455C228.6093,-104.9382 228.9752,-94.6944 229.2963,-85.7046"/>
<polygon fill="#191970" stroke="#191970" points="232.7964,-85.7613 229.6556,-75.6427 225.8008,-85.5113 232.7964,-85.7613"/>
</g>
<!-- Node15 -->
<g id="node16" class="node">
<title>Node15</title>
<polygon fill="#ffffff" stroke="#bfbfbf" points="445,-.5 445,-19.5 497,-19.5 497,-.5 445,-.5"/>
<text text-anchor="middle" x="471" y="-7.5" font-family="Helvetica,sans-Serif" font-size="10.00" fill="#000000">memory</text>
</g>
<!-- Node14&#45;&gt;Node15 -->
<g id="edge17" class="edge">
<title>Node14&#45;&gt;Node15</title>
<path fill="none" stroke="#191970" d="M360.8635,-56.3733C382.405,-47.3032 414.8838,-33.6279 438.9956,-23.4755"/>
<polygon fill="#191970" stroke="#191970" points="440.5767,-26.6075 448.4348,-19.5011 437.8603,-20.156 440.5767,-26.6075"/>
</g>
<!-- Node16 -->
<g id="node17" class="node">
<title>Node16</title>
<polygon fill="#ffffff" stroke="#bfbfbf" points="515.5,-.5 515.5,-19.5 556.5,-19.5 556.5,-.5 515.5,-.5"/>
<text text-anchor="middle" x="536" y="-7.5" font-family="Helvetica,sans-Serif" font-size="10.00" fill="#000000">string</text>
</g>
<!-- Node14&#45;&gt;Node16 -->
<g id="edge18" class="edge">
<title>Node14&#45;&gt;Node16</title>
<path fill="none" stroke="#191970" d="M369.1089,-58.0248C401.0254,-49.7236 452.3127,-36.056 505.7463,-19.959"/>
<polygon fill="#191970" stroke="#191970" points="506.8368,-23.2858 515.3904,-17.034 504.805,-16.5871 506.8368,-23.2858"/>
</g>
<!-- Node17 -->
<g id="node18" class="node">
<title>Node17</title>
<polygon fill="#ffffff" stroke="#bfbfbf" points="185,-.5 185,-19.5 229,-19.5 229,-.5 185,-.5"/>
<text text-anchor="middle" x="207" y="-7.5" font-family="Helvetica,sans-Serif" font-size="10.00" fill="#000000">vector</text>
</g>
<!-- Node14&#45;&gt;Node17 -->
<g id="edge19" class="edge">
<title>Node14&#45;&gt;Node17</title>
<path fill="none" stroke="#191970" d="M315.4803,-56.3733C294.2628,-47.3032 262.2724,-33.6279 238.5231,-23.4755"/>
<polygon fill="#191970" stroke="#191970" points="239.7967,-20.2136 229.2258,-19.5011 237.0452,-26.6502 239.7967,-20.2136"/>
</g>
<!-- Node18 -->
<g id="node19" class="node">
<title>Node18</title>
<polygon fill="#ffffff" stroke="#bfbfbf" points="247.5,-.5 247.5,-19.5 330.5,-19.5 330.5,-.5 247.5,-.5"/>
<text text-anchor="middle" x="289" y="-7.5" font-family="Helvetica,sans-Serif" font-size="10.00" fill="#000000">unordered_map</text>
</g>
<!-- Node14&#45;&gt;Node18 -->
<g id="edge20" class="edge">
<title>Node14&#45;&gt;Node18</title>
<path fill="none" stroke="#191970" d="M329.4649,-56.2455C322.5088,-48.2958 312.5117,-36.8706 304.1949,-27.3656"/>
<polygon fill="#191970" stroke="#191970" points="306.6564,-24.8637 297.4373,-19.6427 301.3884,-29.4732 306.6564,-24.8637"/>
</g>
<!-- Node19 -->
<g id="node20" class="node">
<title>Node19</title>
<polygon fill="#ffffff" stroke="#bfbfbf" points="349,-.5 349,-19.5 427,-19.5 427,-.5 349,-.5"/>
<text text-anchor="middle" x="388" y="-7.5" font-family="Helvetica,sans-Serif" font-size="10.00" fill="#000000">unordered_set</text>
</g>
<!-- Node14&#45;&gt;Node19 -->
<g id="edge21" class="edge">
<title>Node14&#45;&gt;Node19</title>
<path fill="none" stroke="#191970" d="M346.7093,-56.2455C353.8073,-48.2958 364.0084,-36.8706 372.495,-27.3656"/>
<polygon fill="#191970" stroke="#191970" points="375.3411,-29.4331 379.3905,-19.6427 370.1195,-24.771 375.3411,-29.4331"/>
</g>
<!-- Node21 -->
<g id="node22" class="node">
<title>Node21</title>
<polygon fill="#ffffff" stroke="#bfbfbf" points="69,-.5 69,-19.5 167,-19.5 167,-.5 69,-.5"/>
<text text-anchor="middle" x="118" y="-7.5" font-family="Helvetica,sans-Serif" font-size="10.00" fill="#000000">nlohmann/json.hpp</text>
</g>
<!-- Node20&#45;&gt;Node21 -->
<g id="edge23" class="edge">
<title>Node20&#45;&gt;Node21</title>
<path fill="none" stroke="#191970" d="M210.7465,-56.3733C192.9288,-47.4644 166.2253,-34.1127 146.0406,-24.0203"/>
<polygon fill="#191970" stroke="#191970" points="147.5118,-20.8428 137.0022,-19.5011 144.3813,-27.1038 147.5118,-20.8428"/>
</g>
<!-- Node22&#45;&gt;Node14 -->
<g id="edge25" class="edge">
<title>Node22&#45;&gt;Node14</title>
<path fill="none" stroke="#191970" d="M338,-112.2455C338,-104.9382 338,-94.6944 338,-85.7046"/>
<polygon fill="#191970" stroke="#191970" points="341.5001,-85.6426 338,-75.6427 334.5001,-85.6427 341.5001,-85.6426"/>
</g>
<!-- Node22&#45;&gt;Node20 -->
<g id="edge26" class="edge">
<title>Node22&#45;&gt;Node20</title>
<path fill="none" stroke="#191970" d="M319.1878,-112.2455C302.1527,-103.4125 276.8425,-90.2887 257.5319,-80.2758"/>
<polygon fill="#191970" stroke="#191970" points="259.0853,-77.1388 248.5966,-75.6427 255.863,-83.353 259.0853,-77.1388"/>
</g>
<!-- Node23&#45;&gt;Node10 -->
<g id="edge28" class="edge">
<title>Node23&#45;&gt;Node10</title>
<path fill="none" stroke="#191970" d="M255.4187,-224.2455C271.0485,-215.4928 294.2019,-202.527 312.0185,-192.5496"/>
<polygon fill="#191970" stroke="#191970" points="313.766,-195.5825 320.7809,-187.6427 310.3457,-189.475 313.766,-195.5825"/>
</g>
<!-- Node24&#45;&gt;Node10 -->
<g id="edge30" class="edge">
<title>Node24&#45;&gt;Node10</title>
<path fill="none" stroke="#191970" d="M338,-224.2455C338,-216.9382 338,-206.6944 338,-197.7046"/>
<polygon fill="#191970" stroke="#191970" points="341.5001,-197.6426 338,-187.6427 334.5001,-197.6427 341.5001,-197.6426"/>
</g>
</g>
</svg>
        <g id="navigator" transform="translate(0 0)" fill="#404254">
                <rect fill="#f2f5e9" fill-opacity="0.5" stroke="#606060" stroke-width=".5" x="0" y="0" width="60" height="60"/>
                <use id="zoomplus" xlink:href="#zoomPlus" x="17" y="9" onmousedown="handleZoom(evt,'in')"/>
                <use id="zoomminus" xlink:href="#zoomMin" x="42" y="9" onmousedown="handleZoom(evt,'out')"/>
                <use id="reset" xlink:href="#resetDef" x="30" y="36" onmousedown="handleReset()"/>
                <g id="arrowUp" xlink:href="#dirArrow" transform="translate(30 24)" onmousedown="handlePan(0,-1)">
                  <use xlink:href="#rim" fill="#404040">
                        <set attributeName="fill" to="#808080" begin="arrowUp.mouseover" end="arrowUp.mouseout"/>
                  </use>
                  <path fill="none" stroke="white" stroke-width="1.5" d="M0,-3.0v7 M-2.5,-0.5L0,-3.0L2.5,-0.5"/>
                </g>
                <g id="arrowRight" xlink:href="#dirArrow" transform="rotate(90) translate(36 -43)" onmousedown="handlePan(1,0)">
                  <use xlink:href="#rim" fill="#404040">
                        <set attributeName="fill" to="#808080" begin="arrowRight.mouseover" end="arrowRight.mouseout"/>
                  </use>
                  <path fill="none" stroke="white" stroke-width="1.5" d="M0,-3.0v7 M-2.5,-0.5L0,-3.0L2.5,-0.5"/>
                </g>
                <g id="arrowDown" xlink:href="#dirArrow" transform="rotate(180) translate(-30 -48)" onmousedown="handlePan(0,1)">
                  <use xlink:href="#rim" fill="#404040">
                        <set attributeName="fill" to="#808080" begin="arrowDown.mouseover" end="arrowDown.mouseout"/>
                  </use>
                  <path fill="none" stroke="white" stroke-width="1.5" d="M0,-3.0v7 M-2.5,-0.5L0,-3.0L2.5,-0.5"/>
                </g>
                <g id="arrowLeft" xlink:href="#dirArrow" transform="rotate(270) translate(-36 17)" onmousedown="handlePan(-1,0)">
                  <use xlink:href="#rim" fill="#404040">
                        <set attributeName="fill" to="#808080" begin="arrowLeft.mouseover" end="arrowLeft.mouseout"/>
                  </use>
                  <path fill="none" stroke="white" stroke-width="1.5" d="M0,-3.0v7 M-2.5,-0.5L0,-3.0L2.5,-0.5"/>
                </g>
        </g>
        <svg viewBox="0 0 15 15" width="100%" height="30px" preserveAspectRatio="xMaxYMin meet">
         <g id="arrow_out" transform="scale(0.3 0.3)">
          <a xlink:href="pybind_2adders_2add__child__ids_8h__incl_org.svg" target="_base">
           <rect id="button" ry="5" rx="5" y="6" x="6" height="38" width="38"
                fill="#f2f5e9" fill-opacity="0.5" stroke="#606060" stroke-width="1.0"/>
           <path id="arrow"
             d="M 11.500037,31.436501 C 11.940474,20.09759 22.043105,11.32322 32.158766,21.979434 L 37.068811,17.246167 C 37.068811,17.246167 37.088388,32 37.088388,32 L 22.160133,31.978069 C 22.160133,31.978069 26.997745,27.140456 26.997745,27.140456 C 18.528582,18.264221 13.291696,25.230495 11.500037,31.436501 z"
             style="fill:#404040;"/>
          </a>
         </g>
        </svg>
</svg>
