<?xml version="1.0" encoding="UTF-8" standalone="no"?>
<!DOCTYPE svg PUBLIC "-//W3C//DTD SVG 1.1//EN"
 "http://www.w3.org/Graphics/SVG/1.1/DTD/svg11.dtd">
<!-- Generated by graphviz version 2.40.1 (20161225.0304)
 -->
<!-- Title: src/pybind/processors/processor.h Pages: 1 -->
<!--zoomable 273 -->
<svg id="main" version="1.1" xmlns="http://www.w3.org/2000/svg" xmlns:xlink="http://www.w3.org/1999/xlink" xml:space="preserve" onload="init(evt)">
<style type="text/css"><![CDATA[
.edge:hover path { stroke: red; }
.edge:hover polygon { stroke: red; fill: red; }
]]></style>
<script type="text/javascript"><![CDATA[
var edges = document.getElementsByTagName('g');
if (edges && edges.length) {
  for (var i=0;i<edges.length;i++) {
    if (edges[i].id.substr(0,4)=='edge') {
      edges[i].setAttribute('class','edge');
    }
  }
}
]]></script>
        <defs>
                <circle id="rim" cx="0" cy="0" r="7"/>
                <circle id="rim2" cx="0" cy="0" r="3.5"/>
                <g id="zoomPlus">
                        <use xlink:href="#rim" fill="#404040">
                                <set attributeName="fill" to="#808080" begin="zoomplus.mouseover" end="zoomplus.mouseout"/>
                        </use>
                        <path d="M-4,0h8M0,-4v8" fill="none" stroke="white" stroke-width="1.5" pointer-events="none"/>
                </g>
                <g id="zoomMin">
                        <use xlink:href="#rim" fill="#404040">
                                <set attributeName="fill" to="#808080" begin="zoomminus.mouseover" end="zoomminus.mouseout"/>
                        </use>
                        <path d="M-4,0h8" fill="none" stroke="white" stroke-width="1.5" pointer-events="none"/>
                </g>
                <g id="dirArrow">
                        <path fill="none" stroke="white" stroke-width="1.5" d="M0,-3.0v7 M-2.5,-0.5L0,-3.0L2.5,-0.5"/>
                </g>
               <g id="resetDef">
                       <use xlink:href="#rim2" fill="#404040">
                               <set attributeName="fill" to="#808080" begin="reset.mouseover" end="reset.mouseout"/>
                       </use>
               </g>
        </defs>

<script type="text/javascript">
var viewWidth = 2128;
var viewHeight = 273;
var sectionId = 'dynsection-1';
</script>
<script xlink:href="svgpan.js"/>
<svg id="graph" class="graph">
<g id="viewport">
<title>src/pybind/processors/processor.h</title>
<polygon fill="#ffffff" stroke="transparent" points="-4,4 -4,-269 2123.5,-269 2123.5,4 -4,4"/>
<!-- Node4 -->
<g id="node1" class="node">
<title>Node4</title>
<polygon fill="#bfbfbf" stroke="#000000" points="1026,-234.5 1026,-264.5 1139,-264.5 1139,-234.5 1026,-234.5"/>
<text text-anchor="start" x="1034" y="-252.5" font-family="Helvetica,sans-Serif" font-size="10.00" fill="#000000">src/pybind/processors</text>
<text text-anchor="middle" x="1082.5" y="-241.5" font-family="Helvetica,sans-Serif" font-size="10.00" fill="#000000">/processor.h</text>
</g>
<!-- Node4&#45;&gt;Node4 -->
<g id="edge5" class="edge">
<title>Node4&#45;&gt;Node4</title>
<path fill="none" stroke="#191970" d="M1148.9878,-259.5638C1153.9517,-257.3139 1157,-253.9594 1157,-249.5 1157,-242.5391 1149.5723,-238.2701 1139.0255,-236.693"/>
<polygon fill="#191970" stroke="#191970" points="1147.7374,-256.2777 1139.0255,-262.307 1149.5959,-263.0265 1147.7374,-256.2777"/>
</g>
<!-- Node5 -->
<g id="node2" class="node">
<title>Node5</title>
<g id="a_node2"><a xlink:href="invokers_2invoker_8h.html" target="_top" xlink:title="src/invokers/invoker.h">
<polygon fill="#ffffff" stroke="#000000" points="5,-167.5 5,-186.5 118,-186.5 118,-167.5 5,-167.5"/>
<text text-anchor="middle" x="61.5" y="-174.5" font-family="Helvetica,sans-Serif" font-size="10.00" fill="#000000">src/invokers/invoker.h</text>
</a>
</g>
</g>
<!-- Node4&#45;&gt;Node5 -->
<g id="edge1" class="edge">
<title>Node4&#45;&gt;Node5</title>
<path fill="none" stroke="#191970" d="M1015.5221,-247.9008C828.3895,-243.1096 302.6309,-227.3559 132.5,-198 117.6795,-195.4427 101.5756,-190.8365 88.457,-186.5884"/>
<polygon fill="#191970" stroke="#191970" points="1015.6822,-251.4059 1025.7678,-248.1608 1015.8598,-244.4082 1015.6822,-251.4059"/>
</g>
<!-- Node7 -->
<g id="node4" class="node">
<title>Node7</title>
<g id="a_node4"><a xlink:href="pybind_8h.html" target="_top" xlink:title="This file includes all the header files containing definitions of functions to bind C++ and Python...">
<polygon fill="#ffffff" stroke="#000000" points="583.5,-89.5 583.5,-108.5 653.5,-108.5 653.5,-89.5 583.5,-89.5"/>
<text text-anchor="middle" x="618.5" y="-96.5" font-family="Helvetica,sans-Serif" font-size="10.00" fill="#000000">src/pybind.h</text>
</a>
</g>
</g>
<!-- Node4&#45;&gt;Node7 -->
<g id="edge3" class="edge">
<title>Node4&#45;&gt;Node7</title>
<path fill="none" stroke="#191970" d="M1015.771,-248.2347C809.5705,-244.0024 194.6529,-228.8361 165.5,-198 152.6761,-184.4357 153.1521,-169.999 165.5,-156 193.0935,-124.7169 481.5913,-106.3409 583.2716,-100.7971"/>
<polygon fill="#191970" stroke="#191970" points="1015.7908,-251.7357 1025.8599,-248.4397 1015.9331,-244.7371 1015.7908,-251.7357"/>
</g>
<!-- Node9 -->
<g id="node6" class="node">
<title>Node9</title>
<g id="a_node6"><a xlink:href="pybind_2processors_2pro__data_8h.html" target="_top" xlink:title="src/pybind/processors\l/pro_data.h">
<polygon fill="#ffffff" stroke="#000000" points="175,-162 175,-192 288,-192 288,-162 175,-162"/>
<text text-anchor="start" x="183" y="-180" font-family="Helvetica,sans-Serif" font-size="10.00" fill="#000000">src/pybind/processors</text>
<text text-anchor="middle" x="231.5" y="-169" font-family="Helvetica,sans-Serif" font-size="10.00" fill="#000000">/pro_data.h</text>
</a>
</g>
</g>
<!-- Node4&#45;&gt;Node9 -->
<g id="edge6" class="edge">
<title>Node4&#45;&gt;Node9</title>
<path fill="none" stroke="#191970" d="M1015.6669,-246.5429C854.8258,-239.1791 449.5858,-219.0903 315.5,-198 305.8478,-196.4818 295.6817,-194.3807 285.885,-192.0906"/>
<polygon fill="#191970" stroke="#191970" points="1015.7533,-250.0503 1025.9024,-247.0094 1016.0721,-243.0576 1015.7533,-250.0503"/>
</g>
<!-- Node10 -->
<g id="node7" class="node">
<title>Node10</title>
<g id="a_node7"><a xlink:href="pybind_2processors_2pro__thickness__profile_8h.html" target="_top" xlink:title="src/pybind/processors\l/pro_thickness_profile.h">
<polygon fill="#ffffff" stroke="#000000" points="324.5,-162 324.5,-192 444.5,-192 444.5,-162 324.5,-162"/>
<text text-anchor="start" x="332.5" y="-180" font-family="Helvetica,sans-Serif" font-size="10.00" fill="#000000">src/pybind/processors</text>
<text text-anchor="middle" x="384.5" y="-169" font-family="Helvetica,sans-Serif" font-size="10.00" fill="#000000">/pro_thickness_profile.h</text>
</a>
</g>
</g>
<!-- Node4&#45;&gt;Node10 -->
<g id="edge9" class="edge">
<title>Node4&#45;&gt;Node10</title>
<path fill="none" stroke="#191970" d="M1015.4996,-247.2006C902.6258,-242.5806 667.6644,-229.7513 471.5,-198 461.6835,-196.4111 451.3377,-194.3041 441.3409,-192.0375"/>
<polygon fill="#191970" stroke="#191970" points="1015.5769,-250.7065 1025.709,-247.6097 1015.8572,-243.7121 1015.5769,-250.7065"/>
</g>
<!-- Node11 -->
<g id="node8" class="node">
<title>Node11</title>
<g id="a_node8"><a xlink:href="pybind_2processors_2pro__value__array_8h.html" target="_top" xlink:title="src/pybind/processors\l/pro_value_array.h">
<polygon fill="#ffffff" stroke="#000000" points="481,-162 481,-192 594,-192 594,-162 481,-162"/>
<text text-anchor="start" x="489" y="-180" font-family="Helvetica,sans-Serif" font-size="10.00" fill="#000000">src/pybind/processors</text>
<text text-anchor="middle" x="537.5" y="-169" font-family="Helvetica,sans-Serif" font-size="10.00" fill="#000000">/pro_value_array.h</text>
</a>
</g>
</g>
<!-- Node4&#45;&gt;Node11 -->
<g id="edge12" class="edge">
<title>Node4&#45;&gt;Node11</title>
<path fill="none" stroke="#191970" d="M1015.6582,-244.8522C925.6135,-237.9499 760.5882,-223.0391 621.5,-198 612.3275,-196.3487 602.6709,-194.2656 593.3028,-192.0565"/>
<polygon fill="#191970" stroke="#191970" points="1015.4935,-248.3497 1025.7292,-245.6147 1016.022,-241.3696 1015.4935,-248.3497"/>
</g>
<!-- Node12 -->
<g id="node9" class="node">
<title>Node12</title>
<g id="a_node9"><a xlink:href="pybind_2processors_2pro__distance__in__molecule_8h.html" target="_top" xlink:title="src/pybind/processors\l/pro_distance_in_molecule.h">
<polygon fill="#ffffff" stroke="#000000" points="630.5,-162 630.5,-192 770.5,-192 770.5,-162 630.5,-162"/>
<text text-anchor="start" x="638.5" y="-180" font-family="Helvetica,sans-Serif" font-size="10.00" fill="#000000">src/pybind/processors</text>
<text text-anchor="middle" x="700.5" y="-169" font-family="Helvetica,sans-Serif" font-size="10.00" fill="#000000">/pro_distance_in_molecule.h</text>
</a>
</g>
</g>
<!-- Node4&#45;&gt;Node12 -->
<g id="edge15" class="edge">
<title>Node4&#45;&gt;Node12</title>
<path fill="none" stroke="#191970" d="M1015.7778,-238.1121C957.9416,-228.0811 872.0555,-212.802 797.5,-198 788.1202,-196.1378 778.2483,-194.096 768.5386,-192.04"/>
<polygon fill="#191970" stroke="#191970" points="1015.4332,-241.6044 1025.8836,-239.8609 1016.6269,-234.7069 1015.4332,-241.6044"/>
</g>
<!-- Node13 -->
<g id="node10" class="node">
<title>Node13</title>
<g id="a_node10"><a xlink:href="pybind_2processors_2pro__mean__square__displacement_8h.html" target="_top" xlink:title="src/pybind/processors\l/pro_mean_square_displacement.h">
<polygon fill="#ffffff" stroke="#000000" points="806.5,-162 806.5,-192 974.5,-192 974.5,-162 806.5,-162"/>
<text text-anchor="start" x="814.5" y="-180" font-family="Helvetica,sans-Serif" font-size="10.00" fill="#000000">src/pybind/processors</text>
<text text-anchor="middle" x="890.5" y="-169" font-family="Helvetica,sans-Serif" font-size="10.00" fill="#000000">/pro_mean_square_displacement.h</text>
</a>
</g>
</g>
<!-- Node4&#45;&gt;Node13 -->
<g id="edge18" class="edge">
<title>Node4&#45;&gt;Node13</title>
<path fill="none" stroke="#191970" d="M1033.1125,-230.8511C1001.1488,-218.7814 960.0815,-203.2743 930.2316,-192.0028"/>
<polygon fill="#191970" stroke="#191970" points="1032.1258,-234.2196 1042.7175,-234.478 1034.5986,-227.671 1032.1258,-234.2196"/>
</g>
<!-- Node14 -->
<g id="node11" class="node">
<title>Node14</title>
<g id="a_node11"><a xlink:href="pybind_2processors_2pro__radial__distribution__function_8h.html" target="_top" xlink:title="src/pybind/processors\l/pro_radial_distribution\l_function.h">
<polygon fill="#ffffff" stroke="#000000" points="1190.5,-156.5 1190.5,-197.5 1304.5,-197.5 1304.5,-156.5 1190.5,-156.5"/>
<text text-anchor="start" x="1198.5" y="-185.5" font-family="Helvetica,sans-Serif" font-size="10.00" fill="#000000">src/pybind/processors</text>
<text text-anchor="start" x="1198.5" y="-174.5" font-family="Helvetica,sans-Serif" font-size="10.00" fill="#000000">/pro_radial_distribution</text>
<text text-anchor="middle" x="1247.5" y="-163.5" font-family="Helvetica,sans-Serif" font-size="10.00" fill="#000000">_function.h</text>
</a>
</g>
</g>
<!-- Node4&#45;&gt;Node14 -->
<g id="edge21" class="edge">
<title>Node4&#45;&gt;Node14</title>
<path fill="none" stroke="#191970" d="M1125.8903,-230.4346C1148.9484,-220.303 1177.3095,-207.8413 1200.8414,-197.5015"/>
<polygon fill="#191970" stroke="#191970" points="1124.4353,-227.2508 1116.6881,-234.478 1127.2513,-233.6595 1124.4353,-227.2508"/>
</g>
<!-- Node17 -->
<g id="node14" class="node">
<title>Node17</title>
<g id="a_node14"><a xlink:href="pybind_2processors_2pro__radial__distribution__function__with__deformation_8h.html" target="_top" xlink:title="src/pybind/processors\l/pro_radial_distribution\l_function_with_deformation.h">
<polygon fill="#ffffff" stroke="#000000" points="1011,-156.5 1011,-197.5 1154,-197.5 1154,-156.5 1011,-156.5"/>
<text text-anchor="start" x="1019" y="-185.5" font-family="Helvetica,sans-Serif" font-size="10.00" fill="#000000">src/pybind/processors</text>
<text text-anchor="start" x="1019" y="-174.5" font-family="Helvetica,sans-Serif" font-size="10.00" fill="#000000">/pro_radial_distribution</text>
<text text-anchor="middle" x="1082.5" y="-163.5" font-family="Helvetica,sans-Serif" font-size="10.00" fill="#000000">_function_with_deformation.h</text>
</a>
</g>
</g>
<!-- Node4&#45;&gt;Node17 -->
<g id="edge26" class="edge">
<title>Node4&#45;&gt;Node17</title>
<path fill="none" stroke="#191970" d="M1082.5,-224.4016C1082.5,-215.6173 1082.5,-205.8652 1082.5,-197.5015"/>
<polygon fill="#191970" stroke="#191970" points="1079.0001,-224.4779 1082.5,-234.478 1086.0001,-224.478 1079.0001,-224.4779"/>
</g>
<!-- Node18 -->
<g id="node15" class="node">
<title>Node18</title>
<g id="a_node15"><a xlink:href="processors_2pro__data_8h.html" target="_top" xlink:title="src/processors/pro\l_data.h">
<polygon fill="#ffffff" stroke="#000000" points="1340.5,-162 1340.5,-192 1438.5,-192 1438.5,-162 1340.5,-162"/>
<text text-anchor="start" x="1348.5" y="-180" font-family="Helvetica,sans-Serif" font-size="10.00" fill="#000000">src/processors/pro</text>
<text text-anchor="middle" x="1389.5" y="-169" font-family="Helvetica,sans-Serif" font-size="10.00" fill="#000000">_data.h</text>
</a>
</g>
</g>
<!-- Node4&#45;&gt;Node18 -->
<g id="edge29" class="edge">
<title>Node4&#45;&gt;Node18</title>
<path fill="none" stroke="#191970" d="M1149.5634,-238.3254C1200.044,-229.2654 1270.6985,-215.199 1331.5,-198 1337.6829,-196.251 1344.1536,-194.1683 1350.4375,-192.0044"/>
<polygon fill="#191970" stroke="#191970" points="1148.6608,-234.9308 1139.4272,-240.126 1149.8852,-241.8229 1148.6608,-234.9308"/>
</g>
<!-- Node20 -->
<g id="node17" class="node">
<title>Node20</title>
<g id="a_node17"><a xlink:href="processors_2pro__distance__in__molecule_8h.html" target="_top" xlink:title="src/processors/pro\l_distance_in_molecule.h">
<polygon fill="#ffffff" stroke="#000000" points="1456.5,-162 1456.5,-192 1580.5,-192 1580.5,-162 1456.5,-162"/>
<text text-anchor="start" x="1464.5" y="-180" font-family="Helvetica,sans-Serif" font-size="10.00" fill="#000000">src/processors/pro</text>
<text text-anchor="middle" x="1518.5" y="-169" font-family="Helvetica,sans-Serif" font-size="10.00" fill="#000000">_distance_in_molecule.h</text>
</a>
</g>
</g>
<!-- Node4&#45;&gt;Node20 -->
<g id="edge31" class="edge">
<title>Node4&#45;&gt;Node20</title>
<path fill="none" stroke="#191970" d="M1149.2909,-243.0645C1222.8795,-235.2825 1344.4686,-220.3779 1447.5,-198 1455.1624,-196.3358 1463.2045,-194.2723 1471.0102,-192.0943"/>
<polygon fill="#191970" stroke="#191970" points="1148.8149,-239.5951 1139.2327,-244.1154 1149.5423,-246.5572 1148.8149,-239.5951"/>
</g>
<!-- Node22 -->
<g id="node19" class="node">
<title>Node22</title>
<g id="a_node19"><a xlink:href="processors_2pro__mean__square__displacement_8h.html" target="_top" xlink:title="src/processors/pro\l_mean_square_displacement.h">
<polygon fill="#ffffff" stroke="#000000" points="1598.5,-162 1598.5,-192 1750.5,-192 1750.5,-162 1598.5,-162"/>
<text text-anchor="start" x="1606.5" y="-180" font-family="Helvetica,sans-Serif" font-size="10.00" fill="#000000">src/processors/pro</text>
<text text-anchor="middle" x="1674.5" y="-169" font-family="Helvetica,sans-Serif" font-size="10.00" fill="#000000">_mean_square_displacement.h</text>
</a>
</g>
</g>
<!-- Node4&#45;&gt;Node22 -->
<g id="edge33" class="edge">
<title>Node4&#45;&gt;Node22</title>
<path fill="none" stroke="#191970" d="M1149.1136,-245.7365C1246.4234,-239.5611 1432.901,-225.1586 1589.5,-198 1598.9356,-196.3636 1608.8748,-194.2608 1618.4985,-192.0203"/>
<polygon fill="#191970" stroke="#191970" points="1148.8847,-242.2439 1139.1227,-246.3615 1149.3218,-249.2303 1148.8847,-242.2439"/>
</g>
<!-- Node24 -->
<g id="node21" class="node">
<title>Node24</title>
<g id="a_node21"><a xlink:href="processors_2pro__radial__distribution__function_8h.html" target="_top" xlink:title="src/processors/pro\l_radial_distribution\l_function.h">
<polygon fill="#ffffff" stroke="#000000" points="1771.5,-156.5 1771.5,-197.5 1869.5,-197.5 1869.5,-156.5 1771.5,-156.5"/>
<text text-anchor="start" x="1779.5" y="-185.5" font-family="Helvetica,sans-Serif" font-size="10.00" fill="#000000">src/processors/pro</text>
<text text-anchor="start" x="1779.5" y="-174.5" font-family="Helvetica,sans-Serif" font-size="10.00" fill="#000000">_radial_distribution</text>
<text text-anchor="middle" x="1820.5" y="-163.5" font-family="Helvetica,sans-Serif" font-size="10.00" fill="#000000">_function.h</text>
</a>
</g>
</g>
<!-- Node4&#45;&gt;Node24 -->
<g id="edge35" class="edge">
<title>Node4&#45;&gt;Node24</title>
<path fill="none" stroke="#191970" d="M1149.3189,-246.5915C1296.3836,-239.8366 1644.1623,-221.8295 1759.5,-198 1763.339,-197.2068 1767.2685,-196.238 1771.192,-195.1564"/>
<polygon fill="#191970" stroke="#191970" points="1148.9132,-243.1063 1139.0831,-247.0584 1149.2322,-250.099 1148.9132,-243.1063"/>
</g>
<!-- Node26 -->
<g id="node23" class="node">
<title>Node26</title>
<g id="a_node23"><a xlink:href="processors_2pro__thickness__profile_8h.html" target="_top" xlink:title="src/processors/pro\l_thickness_profile.h">
<polygon fill="#ffffff" stroke="#000000" points="1891.5,-162 1891.5,-192 1995.5,-192 1995.5,-162 1891.5,-162"/>
<text text-anchor="start" x="1899.5" y="-180" font-family="Helvetica,sans-Serif" font-size="10.00" fill="#000000">src/processors/pro</text>
<text text-anchor="middle" x="1943.5" y="-169" font-family="Helvetica,sans-Serif" font-size="10.00" fill="#000000">_thickness_profile.h</text>
</a>
</g>
</g>
<!-- Node4&#45;&gt;Node26 -->
<g id="edge37" class="edge">
<title>Node4&#45;&gt;Node26</title>
<path fill="none" stroke="#191970" d="M1149.073,-247.316C1314.2096,-241.5572 1739.3481,-224.5525 1878.5,-198 1886.3047,-196.5107 1894.4765,-194.3626 1902.2885,-192.0024"/>
<polygon fill="#191970" stroke="#191970" points="1148.9204,-243.8191 1139.0474,-247.6629 1149.1625,-250.8149 1148.9204,-243.8191"/>
</g>
<!-- Node28 -->
<g id="node25" class="node">
<title>Node28</title>
<g id="a_node25"><a xlink:href="processors_2pro__value__array_8h.html" target="_top" xlink:title="src/processors/pro\l_value_array.h">
<polygon fill="#ffffff" stroke="#000000" points="2019.5,-162 2019.5,-192 2117.5,-192 2117.5,-162 2019.5,-162"/>
<text text-anchor="start" x="2027.5" y="-180" font-family="Helvetica,sans-Serif" font-size="10.00" fill="#000000">src/processors/pro</text>
<text text-anchor="middle" x="2068.5" y="-169" font-family="Helvetica,sans-Serif" font-size="10.00" fill="#000000">_value_array.h</text>
</a>
</g>
</g>
<!-- Node4&#45;&gt;Node28 -->
<g id="edge39" class="edge">
<title>Node4&#45;&gt;Node28</title>
<path fill="none" stroke="#191970" d="M1149.1573,-248.0342C1332.2786,-243.6482 1840.3151,-228.9682 2004.5,-198 2012.1992,-196.5478 2020.2521,-194.4173 2027.9463,-192.063"/>
<polygon fill="#191970" stroke="#191970" points="1149.0385,-244.536 1139.1243,-248.272 1149.2044,-251.534 1149.0385,-244.536"/>
</g>
<!-- Node6 -->
<g id="node3" class="node">
<title>Node6</title>
<g id="a_node3"><a xlink:href="invoker_8cpp.html" target="_top" xlink:title="src/invokers/invoker.cpp">
<polygon fill="#ffffff" stroke="#000000" points="0,-89.5 0,-108.5 123,-108.5 123,-89.5 0,-89.5"/>
<text text-anchor="middle" x="61.5" y="-96.5" font-family="Helvetica,sans-Serif" font-size="10.00" fill="#000000">src/invokers/invoker.cpp</text>
</a>
</g>
</g>
<!-- Node5&#45;&gt;Node6 -->
<g id="edge2" class="edge">
<title>Node5&#45;&gt;Node6</title>
<path fill="none" stroke="#191970" d="M61.5,-157.2866C61.5,-141.7395 61.5,-120.7276 61.5,-108.6426"/>
<polygon fill="#191970" stroke="#191970" points="58.0001,-157.4356 61.5,-167.4357 65.0001,-157.4357 58.0001,-157.4356"/>
</g>
<!-- Node8 -->
<g id="node5" class="node">
<title>Node8</title>
<g id="a_node5"><a xlink:href="ppap4lmp_8cpp.html" target="_top" xlink:title="This file has no implementation, only includes a header file to bind C++ and Python. ">
<polygon fill="#ffffff" stroke="#000000" points="571.5,-11.5 571.5,-30.5 665.5,-30.5 665.5,-11.5 571.5,-11.5"/>
<text text-anchor="middle" x="618.5" y="-18.5" font-family="Helvetica,sans-Serif" font-size="10.00" fill="#000000">src/ppap4lmp.cpp</text>
</a>
</g>
</g>
<!-- Node7&#45;&gt;Node8 -->
<g id="edge4" class="edge">
<title>Node7&#45;&gt;Node8</title>
<path fill="none" stroke="#191970" d="M618.5,-79.2866C618.5,-63.7395 618.5,-42.7276 618.5,-30.6426"/>
<polygon fill="#191970" stroke="#191970" points="615.0001,-79.4356 618.5,-89.4357 622.0001,-79.4357 615.0001,-79.4356"/>
</g>
<!-- Node9&#45;&gt;Node7 -->
<g id="edge7" class="edge">
<title>Node9&#45;&gt;Node7</title>
<path fill="none" stroke="#191970" d="M298.1576,-159.9548C304.0125,-158.5731 309.8556,-157.2353 315.5,-156 411.9736,-134.8858 526.7717,-114.5992 583.3716,-104.9143"/>
<polygon fill="#191970" stroke="#191970" points="297.2349,-156.5767 288.3261,-162.311 298.8664,-163.3839 297.2349,-156.5767"/>
</g>
<!-- Node9&#45;&gt;Node9 -->
<g id="edge8" class="edge">
<title>Node9&#45;&gt;Node9</title>
<path fill="none" stroke="#191970" d="M297.9878,-187.0638C302.9517,-184.8139 306,-181.4594 306,-177 306,-170.0391 298.5723,-165.7701 288.0255,-164.193"/>
<polygon fill="#191970" stroke="#191970" points="296.7374,-183.7777 288.0255,-189.807 298.5959,-190.5265 296.7374,-183.7777"/>
</g>
<!-- Node10&#45;&gt;Node7 -->
<g id="edge10" class="edge">
<title>Node10&#45;&gt;Node7</title>
<path fill="none" stroke="#191970" d="M439.3577,-158.7141C486.4275,-143.0242 552.402,-121.0327 589.7484,-108.5839"/>
<polygon fill="#191970" stroke="#191970" points="437.9976,-155.4781 429.6176,-161.9608 440.2112,-162.1189 437.9976,-155.4781"/>
</g>
<!-- Node10&#45;&gt;Node10 -->
<g id="edge11" class="edge">
<title>Node10&#45;&gt;Node10</title>
<path fill="none" stroke="#191970" d="M454.5783,-186.8562C459.4989,-184.6096 462.5,-181.3242 462.5,-177 462.5,-170.25 455.1875,-166.0313 444.6758,-164.3438"/>
<polygon fill="#191970" stroke="#191970" points="453.3461,-183.5673 444.6758,-189.6563 455.2508,-190.3032 453.3461,-183.5673"/>
</g>
<!-- Node11&#45;&gt;Node7 -->
<g id="edge13" class="edge">
<title>Node11&#45;&gt;Node7</title>
<path fill="none" stroke="#191970" d="M560.4909,-154.8606C576.351,-139.5879 596.6476,-120.043 608.5475,-108.5839"/>
<polygon fill="#191970" stroke="#191970" points="557.8931,-152.5032 553.1176,-161.9608 562.7486,-157.5455 557.8931,-152.5032"/>
</g>
<!-- Node11&#45;&gt;Node11 -->
<g id="edge14" class="edge">
<title>Node11&#45;&gt;Node11</title>
<path fill="none" stroke="#191970" d="M603.9878,-187.0638C608.9517,-184.8139 612,-181.4594 612,-177 612,-170.0391 604.5723,-165.7701 594.0255,-164.193"/>
<polygon fill="#191970" stroke="#191970" points="602.7374,-183.7777 594.0255,-189.807 604.5959,-190.5265 602.7374,-183.7777"/>
</g>
<!-- Node12&#45;&gt;Node7 -->
<g id="edge16" class="edge">
<title>Node12&#45;&gt;Node7</title>
<path fill="none" stroke="#191970" d="M677.2253,-154.8606C661.1693,-139.5879 640.6221,-120.043 628.5753,-108.5839"/>
<polygon fill="#191970" stroke="#191970" points="675.0317,-157.6046 684.6896,-161.9608 679.8562,-152.5327 675.0317,-157.6046"/>
</g>
<!-- Node12&#45;&gt;Node12 -->
<g id="edge17" class="edge">
<title>Node12&#45;&gt;Node12</title>
<path fill="none" stroke="#191970" d="M780.2125,-186.5842C785.3773,-184.3476 788.5,-181.1528 788.5,-177 788.5,-170.6719 781.249,-166.5685 770.5708,-164.6898"/>
<polygon fill="#191970" stroke="#191970" points="779.2413,-183.2214 770.5708,-189.3102 781.1459,-189.9574 779.2413,-183.2214"/>
</g>
<!-- Node13&#45;&gt;Node7 -->
<g id="edge19" class="edge">
<title>Node13&#45;&gt;Node7</title>
<path fill="none" stroke="#191970" d="M828.1027,-159.1067C773.306,-143.3929 695.6951,-121.1368 651.9207,-108.5839"/>
<polygon fill="#191970" stroke="#191970" points="827.4783,-162.5686 838.0557,-161.9608 829.4079,-155.8398 827.4783,-162.5686"/>
</g>
<!-- Node13&#45;&gt;Node13 -->
<g id="edge20" class="edge">
<title>Node13&#45;&gt;Node13</title>
<path fill="none" stroke="#191970" d="M984.2473,-186.0449C989.4216,-183.8448 992.5,-180.8298 992.5,-177 992.5,-171.1641 985.352,-167.2202 974.5322,-165.1685"/>
<polygon fill="#191970" stroke="#191970" points="983.1796,-182.7099 974.5322,-188.8315 985.1097,-189.4386 983.1796,-182.7099"/>
</g>
<!-- Node14&#45;&gt;Node7 -->
<g id="edge22" class="edge">
<title>Node14&#45;&gt;Node7</title>
<path fill="none" stroke="#191970" d="M1180.8024,-156.0623C1180.7016,-156.0414 1180.6008,-156.0207 1180.5,-156 984.041,-115.6834 742.8289,-103.4057 653.7295,-100.0974"/>
<polygon fill="#191970" stroke="#191970" points="1179.7895,-159.4209 1190.3183,-158.2398 1181.351,-152.5973 1179.7895,-159.4209"/>
</g>
<!-- Node14&#45;&gt;Node14 -->
<g id="edge23" class="edge">
<title>Node14&#45;&gt;Node14</title>
<path fill="none" stroke="#191970" d="M1314.5848,-186.9952C1319.4929,-184.7461 1322.5,-181.4143 1322.5,-177 1322.5,-170.1094 1315.1727,-165.8566 1304.7256,-164.2416"/>
<polygon fill="#191970" stroke="#191970" points="1313.4101,-183.6895 1304.7256,-189.7584 1315.2992,-190.4298 1313.4101,-183.6895"/>
</g>
<!-- Node15 -->
<g id="node12" class="node">
<title>Node15</title>
<g id="a_node12"><a xlink:href="processors_2pro__radial__distribution__function__with__deformation_8h.html" target="_top" xlink:title="src/processors/pro\l_radial_distribution\l_function_with_deformation.h">
<polygon fill="#ffffff" stroke="#000000" points="1164,-78.5 1164,-119.5 1307,-119.5 1307,-78.5 1164,-78.5"/>
<text text-anchor="start" x="1172" y="-107.5" font-family="Helvetica,sans-Serif" font-size="10.00" fill="#000000">src/processors/pro</text>
<text text-anchor="start" x="1172" y="-96.5" font-family="Helvetica,sans-Serif" font-size="10.00" fill="#000000">_radial_distribution</text>
<text text-anchor="middle" x="1235.5" y="-85.5" font-family="Helvetica,sans-Serif" font-size="10.00" fill="#000000">_function_with_deformation.h</text>
</a>
</g>
</g>
<!-- Node14&#45;&gt;Node15 -->
<g id="edge24" class="edge">
<title>Node14&#45;&gt;Node15</title>
<path fill="none" stroke="#191970" d="M1242.7429,-146.0789C1241.3797,-137.2178 1239.9269,-127.7747 1238.683,-119.6898"/>
<polygon fill="#191970" stroke="#191970" points="1239.3043,-146.7459 1244.2842,-156.0974 1246.2229,-145.6815 1239.3043,-146.7459"/>
</g>
<!-- Node16 -->
<g id="node13" class="node">
<title>Node16</title>
<g id="a_node13"><a xlink:href="pro__radial__distribution__function__with__deformation_8cpp.html" target="_top" xlink:title="src/processors/pro\l_radial_distribution\l_function_with_deformation.cpp">
<polygon fill="#ffffff" stroke="#000000" points="1158.5,-.5 1158.5,-41.5 1312.5,-41.5 1312.5,-.5 1158.5,-.5"/>
<text text-anchor="start" x="1166.5" y="-29.5" font-family="Helvetica,sans-Serif" font-size="10.00" fill="#000000">src/processors/pro</text>
<text text-anchor="start" x="1166.5" y="-18.5" font-family="Helvetica,sans-Serif" font-size="10.00" fill="#000000">_radial_distribution</text>
<text text-anchor="middle" x="1235.5" y="-7.5" font-family="Helvetica,sans-Serif" font-size="10.00" fill="#000000">_function_with_deformation.cpp</text>
</a>
</g>
</g>
<!-- Node15&#45;&gt;Node16 -->
<g id="edge25" class="edge">
<title>Node15&#45;&gt;Node16</title>
<path fill="none" stroke="#191970" d="M1235.5,-68.0789C1235.5,-59.2178 1235.5,-49.7747 1235.5,-41.6898"/>
<polygon fill="#191970" stroke="#191970" points="1232.0001,-68.0974 1235.5,-78.0974 1239.0001,-68.0975 1232.0001,-68.0974"/>
</g>
<!-- Node17&#45;&gt;Node7 -->
<g id="edge27" class="edge">
<title>Node17&#45;&gt;Node7</title>
<path fill="none" stroke="#191970" d="M1000.5958,-155.9171C866.9337,-129.1999 719.5836,-110.6784 653.5698,-102.9575"/>
<polygon fill="#191970" stroke="#191970" points="1000.1083,-159.3893 1010.6033,-157.9383 1001.4941,-152.5278 1000.1083,-159.3893"/>
</g>
<!-- Node17&#45;&gt;Node17 -->
<g id="edge28" class="edge">
<title>Node17&#45;&gt;Node17</title>
<path fill="none" stroke="#191970" d="M1163.7455,-186.5093C1168.8942,-184.2764 1172,-181.1067 1172,-177 1172,-170.7422 1164.7884,-166.6599 1154.1259,-164.7533"/>
<polygon fill="#191970" stroke="#191970" points="1162.7861,-183.1433 1154.1259,-189.2467 1164.7021,-189.8759 1162.7861,-183.1433"/>
</g>
<!-- Node19 -->
<g id="node16" class="node">
<title>Node19</title>
<g id="a_node16"><a xlink:href="pro__data_8cpp.html" target="_top" xlink:title="src/processors/pro\l_data.cpp">
<polygon fill="#ffffff" stroke="#000000" points="1325.5,-84 1325.5,-114 1423.5,-114 1423.5,-84 1325.5,-84"/>
<text text-anchor="start" x="1333.5" y="-102" font-family="Helvetica,sans-Serif" font-size="10.00" fill="#000000">src/processors/pro</text>
<text text-anchor="middle" x="1374.5" y="-91" font-family="Helvetica,sans-Serif" font-size="10.00" fill="#000000">_data.cpp</text>
</a>
</g>
</g>
<!-- Node18&#45;&gt;Node19 -->
<g id="edge30" class="edge">
<title>Node18&#45;&gt;Node19</title>
<path fill="none" stroke="#191970" d="M1384.6514,-151.7875C1382.2728,-139.4187 1379.4858,-124.9264 1377.4345,-114.2592"/>
<polygon fill="#191970" stroke="#191970" points="1381.2823,-152.8017 1386.6078,-161.9608 1388.1563,-151.4798 1381.2823,-152.8017"/>
</g>
<!-- Node21 -->
<g id="node18" class="node">
<title>Node21</title>
<g id="a_node18"><a xlink:href="pro__distance__in__molecule_8cpp.html" target="_top" xlink:title="src/processors/pro\l_distance_in_molecule.cpp">
<polygon fill="#ffffff" stroke="#000000" points="1441.5,-84 1441.5,-114 1575.5,-114 1575.5,-84 1441.5,-84"/>
<text text-anchor="start" x="1449.5" y="-102" font-family="Helvetica,sans-Serif" font-size="10.00" fill="#000000">src/processors/pro</text>
<text text-anchor="middle" x="1508.5" y="-91" font-family="Helvetica,sans-Serif" font-size="10.00" fill="#000000">_distance_in_molecule.cpp</text>
</a>
</g>
</g>
<!-- Node20&#45;&gt;Node21 -->
<g id="edge32" class="edge">
<title>Node20&#45;&gt;Node21</title>
<path fill="none" stroke="#191970" d="M1515.2676,-151.7875C1513.6819,-139.4187 1511.8239,-124.9264 1510.4563,-114.2592"/>
<polygon fill="#191970" stroke="#191970" points="1511.8286,-152.4871 1516.5719,-161.9608 1518.7718,-151.5969 1511.8286,-152.4871"/>
</g>
<!-- Node23 -->
<g id="node20" class="node">
<title>Node23</title>
<g id="a_node20"><a xlink:href="pro__mean__square__displacement_8cpp.html" target="_top" xlink:title="src/processors/pro\l_mean_square_displacement.cpp">
<polygon fill="#ffffff" stroke="#000000" points="1593.5,-84 1593.5,-114 1755.5,-114 1755.5,-84 1593.5,-84"/>
<text text-anchor="start" x="1601.5" y="-102" font-family="Helvetica,sans-Serif" font-size="10.00" fill="#000000">src/processors/pro</text>
<text text-anchor="middle" x="1674.5" y="-91" font-family="Helvetica,sans-Serif" font-size="10.00" fill="#000000">_mean_square_displacement.cpp</text>
</a>
</g>
</g>
<!-- Node22&#45;&gt;Node23 -->
<g id="edge34" class="edge">
<title>Node22&#45;&gt;Node23</title>
<path fill="none" stroke="#191970" d="M1674.5,-151.7875C1674.5,-139.4187 1674.5,-124.9264 1674.5,-114.2592"/>
<polygon fill="#191970" stroke="#191970" points="1671.0001,-151.9608 1674.5,-161.9608 1678.0001,-151.9608 1671.0001,-151.9608"/>
</g>
<!-- Node25 -->
<g id="node22" class="node">
<title>Node25</title>
<g id="a_node22"><a xlink:href="pro__radial__distribution__function_8cpp.html" target="_top" xlink:title="src/processors/pro\l_radial_distribution\l_function.cpp">
<polygon fill="#ffffff" stroke="#000000" points="1773.5,-78.5 1773.5,-119.5 1871.5,-119.5 1871.5,-78.5 1773.5,-78.5"/>
<text text-anchor="start" x="1781.5" y="-107.5" font-family="Helvetica,sans-Serif" font-size="10.00" fill="#000000">src/processors/pro</text>
<text text-anchor="start" x="1781.5" y="-96.5" font-family="Helvetica,sans-Serif" font-size="10.00" fill="#000000">_radial_distribution</text>
<text text-anchor="middle" x="1822.5" y="-85.5" font-family="Helvetica,sans-Serif" font-size="10.00" fill="#000000">_function.cpp</text>
</a>
</g>
</g>
<!-- Node24&#45;&gt;Node25 -->
<g id="edge36" class="edge">
<title>Node24&#45;&gt;Node25</title>
<path fill="none" stroke="#191970" d="M1821.2928,-146.0789C1821.5201,-137.2178 1821.7622,-127.7747 1821.9695,-119.6898"/>
<polygon fill="#191970" stroke="#191970" points="1817.7935,-146.011 1821.036,-156.0974 1824.7912,-146.1905 1817.7935,-146.011"/>
</g>
<!-- Node27 -->
<g id="node24" class="node">
<title>Node27</title>
<g id="a_node24"><a xlink:href="pro__thickness__profile_8cpp.html" target="_top" xlink:title="src/processors/pro\l_thickness_profile.cpp">
<polygon fill="#ffffff" stroke="#000000" points="1889.5,-84 1889.5,-114 2003.5,-114 2003.5,-84 1889.5,-84"/>
<text text-anchor="start" x="1897.5" y="-102" font-family="Helvetica,sans-Serif" font-size="10.00" fill="#000000">src/processors/pro</text>
<text text-anchor="middle" x="1946.5" y="-91" font-family="Helvetica,sans-Serif" font-size="10.00" fill="#000000">_thickness_profile.cpp</text>
</a>
</g>
</g>
<!-- Node26&#45;&gt;Node27 -->
<g id="edge38" class="edge">
<title>Node26&#45;&gt;Node27</title>
<path fill="none" stroke="#191970" d="M1944.4697,-151.7875C1944.9454,-139.4187 1945.5028,-124.9264 1945.9131,-114.2592"/>
<polygon fill="#191970" stroke="#191970" points="1940.9654,-151.8337 1944.0784,-161.9608 1947.9603,-152.1028 1940.9654,-151.8337"/>
</g>
<!-- Node29 -->
<g id="node26" class="node">
<title>Node29</title>
<g id="a_node26"><a xlink:href="pro__value__array_8cpp.html" target="_top" xlink:title="src/processors/pro\l_value_array.cpp">
<polygon fill="#ffffff" stroke="#000000" points="2021.5,-84 2021.5,-114 2119.5,-114 2119.5,-84 2021.5,-84"/>
<text text-anchor="start" x="2029.5" y="-102" font-family="Helvetica,sans-Serif" font-size="10.00" fill="#000000">src/processors/pro</text>
<text text-anchor="middle" x="2070.5" y="-91" font-family="Helvetica,sans-Serif" font-size="10.00" fill="#000000">_value_array.cpp</text>
</a>
</g>
</g>
<!-- Node28&#45;&gt;Node29 -->
<g id="edge40" class="edge">
<title>Node28&#45;&gt;Node29</title>
<path fill="none" stroke="#191970" d="M2069.1465,-151.7875C2069.4636,-139.4187 2069.8352,-124.9264 2070.1087,-114.2592"/>
<polygon fill="#191970" stroke="#191970" points="2065.6432,-151.8744 2068.8856,-161.9608 2072.6409,-152.0538 2065.6432,-151.8744"/>
</g>
</g>
</svg>
        <g id="navigator" transform="translate(0 0)" fill="#404254">
                <rect fill="#f2f5e9" fill-opacity="0.5" stroke="#606060" stroke-width=".5" x="0" y="0" width="60" height="60"/>
                <use id="zoomplus" xlink:href="#zoomPlus" x="17" y="9" onmousedown="handleZoom(evt,'in')"/>
                <use id="zoomminus" xlink:href="#zoomMin" x="42" y="9" onmousedown="handleZoom(evt,'out')"/>
                <use id="reset" xlink:href="#resetDef" x="30" y="36" onmousedown="handleReset()"/>
                <g id="arrowUp" xlink:href="#dirArrow" transform="translate(30 24)" onmousedown="handlePan(0,-1)">
                  <use xlink:href="#rim" fill="#404040">
                        <set attributeName="fill" to="#808080" begin="arrowUp.mouseover" end="arrowUp.mouseout"/>
                  </use>
                  <path fill="none" stroke="white" stroke-width="1.5" d="M0,-3.0v7 M-2.5,-0.5L0,-3.0L2.5,-0.5"/>
                </g>
                <g id="arrowRight" xlink:href="#dirArrow" transform="rotate(90) translate(36 -43)" onmousedown="handlePan(1,0)">
                  <use xlink:href="#rim" fill="#404040">
                        <set attributeName="fill" to="#808080" begin="arrowRight.mouseover" end="arrowRight.mouseout"/>
                  </use>
                  <path fill="none" stroke="white" stroke-width="1.5" d="M0,-3.0v7 M-2.5,-0.5L0,-3.0L2.5,-0.5"/>
                </g>
                <g id="arrowDown" xlink:href="#dirArrow" transform="rotate(180) translate(-30 -48)" onmousedown="handlePan(0,1)">
                  <use xlink:href="#rim" fill="#404040">
                        <set attributeName="fill" to="#808080" begin="arrowDown.mouseover" end="arrowDown.mouseout"/>
                  </use>
                  <path fill="none" stroke="white" stroke-width="1.5" d="M0,-3.0v7 M-2.5,-0.5L0,-3.0L2.5,-0.5"/>
                </g>
                <g id="arrowLeft" xlink:href="#dirArrow" transform="rotate(270) translate(-36 17)" onmousedown="handlePan(-1,0)">
                  <use xlink:href="#rim" fill="#404040">
                        <set attributeName="fill" to="#808080" begin="arrowLeft.mouseover" end="arrowLeft.mouseout"/>
                  </use>
                  <path fill="none" stroke="white" stroke-width="1.5" d="M0,-3.0v7 M-2.5,-0.5L0,-3.0L2.5,-0.5"/>
                </g>
        </g>
        <svg viewBox="0 0 15 15" width="100%" height="30px" preserveAspectRatio="xMaxYMin meet">
         <g id="arrow_out" transform="scale(0.3 0.3)">
          <a xlink:href="pybind_2processors_2processor_8h__dep__incl_org.svg" target="_base">
           <rect id="button" ry="5" rx="5" y="6" x="6" height="38" width="38"
                fill="#f2f5e9" fill-opacity="0.5" stroke="#606060" stroke-width="1.0"/>
           <path id="arrow"
             d="M 11.500037,31.436501 C 11.940474,20.09759 22.043105,11.32322 32.158766,21.979434 L 37.068811,17.246167 C 37.068811,17.246167 37.088388,32 37.088388,32 L 22.160133,31.978069 C 22.160133,31.978069 26.997745,27.140456 26.997745,27.140456 C 18.528582,18.264221 13.291696,25.230495 11.500037,31.436501 z"
             style="fill:#404040;"/>
          </a>
         </g>
        </svg>
</svg>
