<?xml version="1.0" encoding="UTF-8" standalone="no"?>
<!DOCTYPE svg PUBLIC "-//W3C//DTD SVG 1.1//EN"
 "http://www.w3.org/Graphics/SVG/1.1/DTD/svg11.dtd">
<!-- Generated by graphviz version 2.40.1 (20161225.0304)
 -->
<!-- Title: src/pybind/adders_py/adder.h Pages: 1 -->
<!--zoomable 218 -->
<svg id="main" version="1.1" xmlns="http://www.w3.org/2000/svg" xmlns:xlink="http://www.w3.org/1999/xlink" xml:space="preserve" onload="init(evt)">
<style type="text/css"><![CDATA[
.edge:hover path { stroke: red; }
.edge:hover polygon { stroke: red; fill: red; }
]]></style>
<script type="text/javascript"><![CDATA[
var edges = document.getElementsByTagName('g');
if (edges && edges.length) {
  for (var i=0;i<edges.length;i++) {
    if (edges[i].id.substr(0,4)=='edge') {
      edges[i].setAttribute('class','edge');
    }
  }
}
]]></script>
        <defs>
                <circle id="rim" cx="0" cy="0" r="7"/>
                <circle id="rim2" cx="0" cy="0" r="3.5"/>
                <g id="zoomPlus">
                        <use xlink:href="#rim" fill="#404040">
                                <set attributeName="fill" to="#808080" begin="zoomplus.mouseover" end="zoomplus.mouseout"/>
                        </use>
                        <path d="M-4,0h8M0,-4v8" fill="none" stroke="white" stroke-width="1.5" pointer-events="none"/>
                </g>
                <g id="zoomMin">
                        <use xlink:href="#rim" fill="#404040">
                                <set attributeName="fill" to="#808080" begin="zoomminus.mouseover" end="zoomminus.mouseout"/>
                        </use>
                        <path d="M-4,0h8" fill="none" stroke="white" stroke-width="1.5" pointer-events="none"/>
                </g>
                <g id="dirArrow">
                        <path fill="none" stroke="white" stroke-width="1.5" d="M0,-3.0v7 M-2.5,-0.5L0,-3.0L2.5,-0.5"/>
                </g>
               <g id="resetDef">
                       <use xlink:href="#rim2" fill="#404040">
                               <set attributeName="fill" to="#808080" begin="reset.mouseover" end="reset.mouseout"/>
                       </use>
               </g>
        </defs>

<script type="text/javascript">
var viewWidth = 1349;
var viewHeight = 218;
var sectionId = 'dynsection-1';
</script>
<script xlink:href="svgpan.js"/>
<svg id="graph" class="graph">
<g id="viewport">
<title>src/pybind/adders_py/adder.h</title>
<polygon fill="#ffffff" stroke="transparent" points="-4,4 -4,-214 1344.9971,-214 1344.9971,4 -4,4"/>
<!-- Node23 -->
<g id="node1" class="node">
<title>Node23</title>
<polygon fill="#bfbfbf" stroke="#000000" points="531.9971,-179.5 531.9971,-209.5 641.9971,-209.5 641.9971,-179.5 531.9971,-179.5"/>
<text text-anchor="start" x="539.9971" y="-197.5" font-family="Helvetica,sans-Serif" font-size="10.00" fill="#000000">src/pybind/adders_py</text>
<text text-anchor="middle" x="586.9971" y="-186.5" font-family="Helvetica,sans-Serif" font-size="10.00" fill="#000000">/adder.h</text>
</g>
<!-- Node24 -->
<g id="node2" class="node">
<title>Node24</title>
<g id="a_node2"><a xlink:href="pybind_8h.html" target="_top" xlink:title="This file includes all the header files containing definitions of functions to bind C++ and Python...">
<polygon fill="#ffffff" stroke="#000000" points="551.9971,-56.5 551.9971,-75.5 621.9971,-75.5 621.9971,-56.5 551.9971,-56.5"/>
<text text-anchor="middle" x="586.9971" y="-63.5" font-family="Helvetica,sans-Serif" font-size="10.00" fill="#000000">src/pybind.h</text>
</a>
</g>
</g>
<!-- Node23&#45;&gt;Node24 -->
<g id="edge1" class="edge">
<title>Node23&#45;&gt;Node24</title>
<path fill="none" stroke="#191970" d="M521.7283,-193.5562C377.4029,-190.7924 41.1958,-180.3699 6.9971,-143 -2.3045,-132.8359 -2.3522,-122.1202 6.9971,-112 25.5681,-91.8978 428.4743,-72.86 551.5851,-67.4948"/>
<polygon fill="#191970" stroke="#191970" points="521.7183,-197.0566 531.7814,-193.7423 521.8479,-190.0578 521.7183,-197.0566"/>
</g>
<!-- Node26 -->
<g id="node4" class="node">
<title>Node26</title>
<g id="a_node4"><a xlink:href="pybind_2adders__py_2add__map_8h.html" target="_top" xlink:title="This file has a function to bind AddMap class to Python. ">
<polygon fill="#ffffff" stroke="#000000" points="15.9971,-112.5 15.9971,-142.5 125.9971,-142.5 125.9971,-112.5 15.9971,-112.5"/>
<text text-anchor="start" x="23.9971" y="-130.5" font-family="Helvetica,sans-Serif" font-size="10.00" fill="#000000">src/pybind/adders_py</text>
<text text-anchor="middle" x="70.9971" y="-119.5" font-family="Helvetica,sans-Serif" font-size="10.00" fill="#000000">/add_map.h</text>
</a>
</g>
</g>
<!-- Node23&#45;&gt;Node26 -->
<g id="edge3" class="edge">
<title>Node23&#45;&gt;Node26</title>
<path fill="none" stroke="#191970" d="M521.5832,-189.612C433.3495,-182.4352 271.5153,-167.2123 134.9971,-143 132.0703,-142.4809 129.0779,-141.9074 126.0634,-141.2959"/>
<polygon fill="#191970" stroke="#191970" points="521.463,-193.1135 531.7115,-190.4266 522.0243,-186.136 521.463,-193.1135"/>
</g>
<!-- Node27 -->
<g id="node5" class="node">
<title>Node27</title>
<g id="a_node5"><a xlink:href="pybind_2adders__py_2add__rename_8h.html" target="_top" xlink:title="This file has a function to bind AddRename class to Python. ">
<polygon fill="#ffffff" stroke="#000000" points="143.9971,-112.5 143.9971,-142.5 253.9971,-142.5 253.9971,-112.5 143.9971,-112.5"/>
<text text-anchor="start" x="151.9971" y="-130.5" font-family="Helvetica,sans-Serif" font-size="10.00" fill="#000000">src/pybind/adders_py</text>
<text text-anchor="middle" x="198.9971" y="-119.5" font-family="Helvetica,sans-Serif" font-size="10.00" fill="#000000">/add_rename.h</text>
</a>
</g>
</g>
<!-- Node23&#45;&gt;Node27 -->
<g id="edge5" class="edge">
<title>Node23&#45;&gt;Node27</title>
<path fill="none" stroke="#191970" d="M521.5238,-185.6614C455.8847,-176.4325 352.0565,-160.8329 262.9971,-143 260.0825,-142.4164 257.0998,-141.7915 254.0929,-141.1396"/>
<polygon fill="#191970" stroke="#191970" points="521.3342,-189.1688 531.7225,-187.0872 522.3034,-182.2362 521.3342,-189.1688"/>
</g>
<!-- Node28 -->
<g id="node6" class="node">
<title>Node28</title>
<g id="a_node6"><a xlink:href="pybind_2adders__py_2add__child__ids_8h.html" target="_top" xlink:title="This file has a function to bind AddChildIDs class to Python. ">
<polygon fill="#ffffff" stroke="#000000" points="271.9971,-112.5 271.9971,-142.5 381.9971,-142.5 381.9971,-112.5 271.9971,-112.5"/>
<text text-anchor="start" x="279.9971" y="-130.5" font-family="Helvetica,sans-Serif" font-size="10.00" fill="#000000">src/pybind/adders_py</text>
<text text-anchor="middle" x="326.9971" y="-119.5" font-family="Helvetica,sans-Serif" font-size="10.00" fill="#000000">/add_child_ids.h</text>
</a>
</g>
</g>
<!-- Node23&#45;&gt;Node28 -->
<g id="edge7" class="edge">
<title>Node23&#45;&gt;Node28</title>
<path fill="none" stroke="#191970" d="M522.0318,-177.7589C478.9265,-166.651 422.9717,-152.2319 382.0569,-141.6885"/>
<polygon fill="#191970" stroke="#191970" points="521.3007,-181.1848 531.8577,-180.291 523.0475,-174.4063 521.3007,-181.1848"/>
</g>
<!-- Node29 -->
<g id="node7" class="node">
<title>Node29</title>
<g id="a_node7"><a xlink:href="pybind_2adders__py_2add__child__positions_8h.html" target="_top" xlink:title="This file has a function to bind AddChildPositions class to Python. ">
<polygon fill="#ffffff" stroke="#000000" points="400.4971,-112.5 400.4971,-142.5 513.4971,-142.5 513.4971,-112.5 400.4971,-112.5"/>
<text text-anchor="start" x="408.4971" y="-130.5" font-family="Helvetica,sans-Serif" font-size="10.00" fill="#000000">src/pybind/adders_py</text>
<text text-anchor="middle" x="456.9971" y="-119.5" font-family="Helvetica,sans-Serif" font-size="10.00" fill="#000000">/add_child_positions.h</text>
</a>
</g>
</g>
<!-- Node23&#45;&gt;Node29 -->
<g id="edge9" class="edge">
<title>Node23&#45;&gt;Node29</title>
<path fill="none" stroke="#191970" d="M548.7233,-174.7743C528.8531,-164.5335 504.948,-152.2132 486.524,-142.7177"/>
<polygon fill="#191970" stroke="#191970" points="547.3302,-177.9938 557.8225,-179.4639 550.537,-171.7715 547.3302,-177.9938"/>
</g>
<!-- Node30 -->
<g id="node8" class="node">
<title>Node30</title>
<g id="a_node8"><a xlink:href="pybind_2adders__py_2add__com__position_8h.html" target="_top" xlink:title="This file has a function to bind AddCoMPosition class to Python. ">
<polygon fill="#ffffff" stroke="#000000" points="531.9971,-112.5 531.9971,-142.5 641.9971,-142.5 641.9971,-112.5 531.9971,-112.5"/>
<text text-anchor="start" x="539.9971" y="-130.5" font-family="Helvetica,sans-Serif" font-size="10.00" fill="#000000">src/pybind/adders_py</text>
<text text-anchor="middle" x="586.9971" y="-119.5" font-family="Helvetica,sans-Serif" font-size="10.00" fill="#000000">/add_com_position.h</text>
</a>
</g>
</g>
<!-- Node23&#45;&gt;Node30 -->
<g id="edge11" class="edge">
<title>Node23&#45;&gt;Node30</title>
<path fill="none" stroke="#191970" d="M586.9971,-169.0249C586.9971,-160.128 586.9971,-150.4287 586.9971,-142.6432"/>
<polygon fill="#191970" stroke="#191970" points="583.4972,-169.2966 586.9971,-179.2967 590.4972,-169.2967 583.4972,-169.2966"/>
</g>
<!-- Node31 -->
<g id="node9" class="node">
<title>Node31</title>
<g id="a_node9"><a xlink:href="pybind_2adders__py_2add__gyration__radius_8h.html" target="_top" xlink:title="This file has a function to bind AddGyrationRadius class to Python. ">
<polygon fill="#ffffff" stroke="#000000" points="660.4971,-112.5 660.4971,-142.5 775.4971,-142.5 775.4971,-112.5 660.4971,-112.5"/>
<text text-anchor="start" x="668.4971" y="-130.5" font-family="Helvetica,sans-Serif" font-size="10.00" fill="#000000">src/pybind/adders_py</text>
<text text-anchor="middle" x="717.9971" y="-119.5" font-family="Helvetica,sans-Serif" font-size="10.00" fill="#000000">/add_gyration_radius.h</text>
</a>
</g>
</g>
<!-- Node23&#45;&gt;Node31 -->
<g id="edge13" class="edge">
<title>Node23&#45;&gt;Node31</title>
<path fill="none" stroke="#191970" d="M625.5652,-174.7743C645.5883,-164.5335 669.6773,-152.2132 688.243,-142.7177"/>
<polygon fill="#191970" stroke="#191970" points="623.7054,-171.7942 616.396,-179.4639 626.8929,-178.0264 623.7054,-171.7942"/>
</g>
<!-- Node32 -->
<g id="node10" class="node">
<title>Node32</title>
<g id="a_node10"><a xlink:href="pybind_2adders__py_2add__inertia__moment_8h.html" target="_top" xlink:title="This file has a function to bind AddInertiaMoment class to Python. ">
<polygon fill="#ffffff" stroke="#000000" points="793.9971,-112.5 793.9971,-142.5 909.9971,-142.5 909.9971,-112.5 793.9971,-112.5"/>
<text text-anchor="start" x="801.9971" y="-130.5" font-family="Helvetica,sans-Serif" font-size="10.00" fill="#000000">src/pybind/adders_py</text>
<text text-anchor="middle" x="851.9971" y="-119.5" font-family="Helvetica,sans-Serif" font-size="10.00" fill="#000000">/add_inertia_moment.h</text>
</a>
</g>
</g>
<!-- Node23&#45;&gt;Node32 -->
<g id="edge15" class="edge">
<title>Node23&#45;&gt;Node32</title>
<path fill="none" stroke="#191970" d="M652.0941,-178.0415C695.3926,-167.0943 751.7796,-152.838 793.6239,-142.2585"/>
<polygon fill="#191970" stroke="#191970" points="651.0642,-174.6917 642.2272,-180.5362 652.78,-181.4781 651.0642,-174.6917"/>
</g>
<!-- Node33 -->
<g id="node11" class="node">
<title>Node33</title>
<g id="a_node11"><a xlink:href="pybind_2adders__py_2add__molecular__orientation_8h.html" target="_top" xlink:title="This file has a function to bind AddMolecularOrientation class to Python. ">
<polygon fill="#ffffff" stroke="#000000" points="928.4971,-112.5 928.4971,-142.5 1069.4971,-142.5 1069.4971,-112.5 928.4971,-112.5"/>
<text text-anchor="start" x="936.4971" y="-130.5" font-family="Helvetica,sans-Serif" font-size="10.00" fill="#000000">src/pybind/adders_py</text>
<text text-anchor="middle" x="998.9971" y="-119.5" font-family="Helvetica,sans-Serif" font-size="10.00" fill="#000000">/add_molecular_orientation.h</text>
</a>
</g>
</g>
<!-- Node23&#45;&gt;Node33 -->
<g id="edge17" class="edge">
<title>Node23&#45;&gt;Node33</title>
<path fill="none" stroke="#191970" d="M652.0219,-185.1493C719.0407,-175.3393 826.4927,-159.1302 918.9971,-143 922.0632,-142.4654 925.1931,-141.9081 928.3533,-141.3362"/>
<polygon fill="#191970" stroke="#191970" points="651.4172,-181.7004 642.0278,-186.6086 652.4286,-188.6269 651.4172,-181.7004"/>
</g>
<!-- Node34 -->
<g id="node12" class="node">
<title>Node34</title>
<g id="a_node12"><a xlink:href="pybind_2adders__py_2add__special__bonds_8h.html" target="_top" xlink:title="This file has a function to bind AddSpecialBonds class to Python. ">
<polygon fill="#ffffff" stroke="#000000" points="1087.4971,-112.5 1087.4971,-142.5 1198.4971,-142.5 1198.4971,-112.5 1087.4971,-112.5"/>
<text text-anchor="start" x="1095.4971" y="-130.5" font-family="Helvetica,sans-Serif" font-size="10.00" fill="#000000">src/pybind/adders_py</text>
<text text-anchor="middle" x="1142.9971" y="-119.5" font-family="Helvetica,sans-Serif" font-size="10.00" fill="#000000">/add_special_bonds.h</text>
</a>
</g>
</g>
<!-- Node23&#45;&gt;Node34 -->
<g id="edge19" class="edge">
<title>Node23&#45;&gt;Node34</title>
<path fill="none" stroke="#191970" d="M652.2898,-190.4474C746.8816,-183.9476 927.3209,-169.1852 1078.9971,-143 1081.7008,-142.5332 1084.4601,-142.0177 1087.2408,-141.4668"/>
<polygon fill="#191970" stroke="#191970" points="652.0374,-186.9563 642.2972,-191.1251 652.5112,-193.9403 652.0374,-186.9563"/>
</g>
<!-- Node35 -->
<g id="node13" class="node">
<title>Node35</title>
<g id="a_node13"><a xlink:href="pybind_2adders__py_2add__wrapped__position_8h.html" target="_top" xlink:title="This file has a function to bind AddWrappedPosition class to Python. ">
<polygon fill="#ffffff" stroke="#000000" points="1216.9971,-112.5 1216.9971,-142.5 1340.9971,-142.5 1340.9971,-112.5 1216.9971,-112.5"/>
<text text-anchor="start" x="1224.9971" y="-130.5" font-family="Helvetica,sans-Serif" font-size="10.00" fill="#000000">src/pybind/adders_py</text>
<text text-anchor="middle" x="1278.9971" y="-119.5" font-family="Helvetica,sans-Serif" font-size="10.00" fill="#000000">/add_wrapped_position.h</text>
</a>
</g>
</g>
<!-- Node23&#45;&gt;Node35 -->
<g id="edge21" class="edge">
<title>Node23&#45;&gt;Node35</title>
<path fill="none" stroke="#191970" d="M652.3628,-191.9237C765.9098,-186.8151 1006.7266,-173.1802 1207.9971,-143 1210.8668,-142.5697 1213.794,-142.0916 1216.7452,-141.5777"/>
<polygon fill="#191970" stroke="#191970" points="651.9412,-188.4388 642.1057,-192.3774 652.2506,-195.432 651.9412,-188.4388"/>
</g>
<!-- Node25 -->
<g id="node3" class="node">
<title>Node25</title>
<g id="a_node3"><a xlink:href="ppap4lmp_8cpp.html" target="_top" xlink:title="This file has no implementation, only includes a header file to bind C++ and Python. ">
<polygon fill="#ffffff" stroke="#000000" points="539.9971,-.5 539.9971,-19.5 633.9971,-19.5 633.9971,-.5 539.9971,-.5"/>
<text text-anchor="middle" x="586.9971" y="-7.5" font-family="Helvetica,sans-Serif" font-size="10.00" fill="#000000">src/ppap4lmp.cpp</text>
</a>
</g>
</g>
<!-- Node24&#45;&gt;Node25 -->
<g id="edge2" class="edge">
<title>Node24&#45;&gt;Node25</title>
<path fill="none" stroke="#191970" d="M586.9971,-46.1575C586.9971,-37.155 586.9971,-26.9199 586.9971,-19.6427"/>
<polygon fill="#191970" stroke="#191970" points="583.4972,-46.2455 586.9971,-56.2455 590.4972,-46.2456 583.4972,-46.2455"/>
</g>
<!-- Node26&#45;&gt;Node24 -->
<g id="edge4" class="edge">
<title>Node26&#45;&gt;Node24</title>
<path fill="none" stroke="#191970" d="M136.1172,-111.955C296.7326,-85.0846 477.1744,-72.4167 551.9004,-67.939"/>
<polygon fill="#191970" stroke="#191970" points="135.3299,-108.5385 126.056,-113.6615 136.5005,-115.4399 135.3299,-108.5385"/>
</g>
<!-- Node27&#45;&gt;Node24 -->
<g id="edge6" class="edge">
<title>Node27&#45;&gt;Node24</title>
<path fill="none" stroke="#191970" d="M264.0636,-111.9028C374.5968,-91.115 493.875,-76.4775 551.8132,-69.8663"/>
<polygon fill="#191970" stroke="#191970" points="263.2511,-108.4945 254.0814,-113.8018 264.5593,-115.3712 263.2511,-108.4945"/>
</g>
<!-- Node28&#45;&gt;Node24 -->
<g id="edge8" class="edge">
<title>Node28&#45;&gt;Node24</title>
<path fill="none" stroke="#191970" d="M392.0682,-111.7528C453.8437,-97.0459 514.6896,-82.8247 551.9276,-74.1516"/>
<polygon fill="#191970" stroke="#191970" points="391.0653,-108.3937 382.1491,-114.1166 392.6881,-115.2031 391.0653,-108.3937"/>
</g>
<!-- Node29&#45;&gt;Node24 -->
<g id="edge10" class="edge">
<title>Node29&#45;&gt;Node24</title>
<path fill="none" stroke="#191970" d="M497.9837,-108.1102C520.9341,-97.2529 548.5318,-84.197 566.8517,-75.5303"/>
<polygon fill="#191970" stroke="#191970" points="496.3414,-105.0151 488.7986,-112.4554 499.3349,-111.3428 496.3414,-105.0151"/>
</g>
<!-- Node30&#45;&gt;Node24 -->
<g id="edge12" class="edge">
<title>Node30&#45;&gt;Node24</title>
<path fill="none" stroke="#191970" d="M586.9971,-102.2849C586.9971,-92.9858 586.9971,-82.9883 586.9971,-75.8469"/>
<polygon fill="#191970" stroke="#191970" points="583.4972,-102.2977 586.9971,-112.2977 590.4972,-102.2978 583.4972,-102.2977"/>
</g>
<!-- Node31&#45;&gt;Node24 -->
<g id="edge14" class="edge">
<title>Node31&#45;&gt;Node24</title>
<path fill="none" stroke="#191970" d="M676.6951,-108.1102C653.5682,-97.2529 625.7582,-84.197 607.2974,-75.5303"/>
<polygon fill="#191970" stroke="#191970" points="675.4113,-111.3739 685.9509,-112.4554 678.3861,-105.0375 675.4113,-111.3739"/>
</g>
<!-- Node32&#45;&gt;Node24 -->
<g id="edge16" class="edge">
<title>Node32&#45;&gt;Node24</title>
<path fill="none" stroke="#191970" d="M784.0815,-111.7385C732.4211,-99.7494 663.4214,-83.7362 622.264,-74.1846"/>
<polygon fill="#191970" stroke="#191970" points="783.3093,-115.1522 793.8417,-114.0036 784.8918,-108.3334 783.3093,-115.1522"/>
</g>
<!-- Node33&#45;&gt;Node24 -->
<g id="edge18" class="edge">
<title>Node33&#45;&gt;Node24</title>
<path fill="none" stroke="#191970" d="M918.3987,-111.9548C804.1653,-93.2099 681.5758,-77.5486 622.469,-70.2796"/>
<polygon fill="#191970" stroke="#191970" points="917.927,-115.4242 928.3639,-113.6015 919.0683,-108.5179 917.927,-115.4242"/>
</g>
<!-- Node34&#45;&gt;Node24 -->
<g id="edge20" class="edge">
<title>Node34&#45;&gt;Node24</title>
<path fill="none" stroke="#191970" d="M1077.3043,-111.8527C901.5246,-83.1923 701.6214,-71.399 622.1181,-67.5402"/>
<polygon fill="#191970" stroke="#191970" points="1076.8101,-115.3184 1087.2471,-113.4963 1077.9518,-108.4121 1076.8101,-115.3184"/>
</g>
<!-- Node35&#45;&gt;Node24 -->
<g id="edge22" class="edge">
<title>Node35&#45;&gt;Node24</title>
<path fill="none" stroke="#191970" d="M1206.6088,-111.9293C978.6904,-79.4923 715.8059,-69.5536 622.2015,-66.8704"/>
<polygon fill="#191970" stroke="#191970" points="1206.3528,-115.4284 1216.7498,-113.3909 1207.3514,-108.5 1206.3528,-115.4284"/>
</g>
</g>
</svg>
        <g id="navigator" transform="translate(0 0)" fill="#404254">
                <rect fill="#f2f5e9" fill-opacity="0.5" stroke="#606060" stroke-width=".5" x="0" y="0" width="60" height="60"/>
                <use id="zoomplus" xlink:href="#zoomPlus" x="17" y="9" onmousedown="handleZoom(evt,'in')"/>
                <use id="zoomminus" xlink:href="#zoomMin" x="42" y="9" onmousedown="handleZoom(evt,'out')"/>
                <use id="reset" xlink:href="#resetDef" x="30" y="36" onmousedown="handleReset()"/>
                <g id="arrowUp" xlink:href="#dirArrow" transform="translate(30 24)" onmousedown="handlePan(0,-1)">
                  <use xlink:href="#rim" fill="#404040">
                        <set attributeName="fill" to="#808080" begin="arrowUp.mouseover" end="arrowUp.mouseout"/>
                  </use>
                  <path fill="none" stroke="white" stroke-width="1.5" d="M0,-3.0v7 M-2.5,-0.5L0,-3.0L2.5,-0.5"/>
                </g>
                <g id="arrowRight" xlink:href="#dirArrow" transform="rotate(90) translate(36 -43)" onmousedown="handlePan(1,0)">
                  <use xlink:href="#rim" fill="#404040">
                        <set attributeName="fill" to="#808080" begin="arrowRight.mouseover" end="arrowRight.mouseout"/>
                  </use>
                  <path fill="none" stroke="white" stroke-width="1.5" d="M0,-3.0v7 M-2.5,-0.5L0,-3.0L2.5,-0.5"/>
                </g>
                <g id="arrowDown" xlink:href="#dirArrow" transform="rotate(180) translate(-30 -48)" onmousedown="handlePan(0,1)">
                  <use xlink:href="#rim" fill="#404040">
                        <set attributeName="fill" to="#808080" begin="arrowDown.mouseover" end="arrowDown.mouseout"/>
                  </use>
                  <path fill="none" stroke="white" stroke-width="1.5" d="M0,-3.0v7 M-2.5,-0.5L0,-3.0L2.5,-0.5"/>
                </g>
                <g id="arrowLeft" xlink:href="#dirArrow" transform="rotate(270) translate(-36 17)" onmousedown="handlePan(-1,0)">
                  <use xlink:href="#rim" fill="#404040">
                        <set attributeName="fill" to="#808080" begin="arrowLeft.mouseover" end="arrowLeft.mouseout"/>
                  </use>
                  <path fill="none" stroke="white" stroke-width="1.5" d="M0,-3.0v7 M-2.5,-0.5L0,-3.0L2.5,-0.5"/>
                </g>
        </g>
        <svg viewBox="0 0 15 15" width="100%" height="30px" preserveAspectRatio="xMaxYMin meet">
         <g id="arrow_out" transform="scale(0.3 0.3)">
          <a xlink:href="pybind_2adders__py_2adder_8h__dep__incl_org.svg" target="_base">
           <rect id="button" ry="5" rx="5" y="6" x="6" height="38" width="38"
                fill="#f2f5e9" fill-opacity="0.5" stroke="#606060" stroke-width="1.0"/>
           <path id="arrow"
             d="M 11.500037,31.436501 C 11.940474,20.09759 22.043105,11.32322 32.158766,21.979434 L 37.068811,17.246167 C 37.068811,17.246167 37.088388,32 37.088388,32 L 22.160133,31.978069 C 22.160133,31.978069 26.997745,27.140456 26.997745,27.140456 C 18.528582,18.264221 13.291696,25.230495 11.500037,31.436501 z"
             style="fill:#404040;"/>
          </a>
         </g>
        </svg>
</svg>
