<?xml version="1.0" encoding="UTF-8" standalone="no"?>
<!DOCTYPE svg PUBLIC "-//W3C//DTD SVG 1.1//EN"
 "http://www.w3.org/Graphics/SVG/1.1/DTD/svg11.dtd">
<!-- Generated by graphviz version 2.40.1 (20161225.0304)
 -->
<!-- Title: src/pybind/processors/processor.h Pages: 1 -->
<svg width="237pt" height="151pt"
 viewBox="0.00 0.00 236.50 151.00" xmlns="http://www.w3.org/2000/svg" xmlns:xlink="http://www.w3.org/1999/xlink">
<g id="graph0" class="graph" transform="scale(1 1) rotate(0) translate(4 147)">
<title>src/pybind/processors/processor.h</title>
<polygon fill="#ffffff" stroke="transparent" points="-4,4 -4,-147 232.5,-147 232.5,4 -4,4"/>
<!-- Node0 -->
<g id="node1" class="node">
<title>Node0</title>
<polygon fill="#bfbfbf" stroke="#000000" points="54.5,-112.5 54.5,-142.5 167.5,-142.5 167.5,-112.5 54.5,-112.5"/>
<text text-anchor="start" x="62.5" y="-130.5" font-family="Helvetica,sans-Serif" font-size="10.00" fill="#000000">src/pybind/processors</text>
<text text-anchor="middle" x="111" y="-119.5" font-family="Helvetica,sans-Serif" font-size="10.00" fill="#000000">/processor.h</text>
</g>
<!-- Node1 -->
<g id="node2" class="node">
<title>Node1</title>
<g id="a_node2"><a xlink:href="alias_2pybind_8h.html" target="_top" xlink:title="... ">
<polygon fill="#ffffff" stroke="#000000" points="14.5,-56.5 14.5,-75.5 91.5,-75.5 91.5,-56.5 14.5,-56.5"/>
<text text-anchor="middle" x="53" y="-63.5" font-family="Helvetica,sans-Serif" font-size="10.00" fill="#000000">alias/pybind.h</text>
</a>
</g>
</g>
<!-- Node0&#45;&gt;Node1 -->
<g id="edge1" class="edge">
<title>Node0&#45;&gt;Node1</title>
<path fill="none" stroke="#191970" d="M96.6629,-112.2977C88.3603,-103.4941 77.8818,-92.3833 69.2711,-83.2529"/>
<polygon fill="#191970" stroke="#191970" points="71.6939,-80.7206 62.2865,-75.8469 66.6013,-85.5234 71.6939,-80.7206"/>
</g>
<!-- Node3 -->
<g id="node4" class="node">
<title>Node3</title>
<polygon fill="#ffffff" stroke="#bfbfbf" points="109.5,-56.5 109.5,-75.5 228.5,-75.5 228.5,-56.5 109.5,-56.5"/>
<text text-anchor="middle" x="169" y="-63.5" font-family="Helvetica,sans-Serif" font-size="10.00" fill="#000000">processors/processor.h</text>
</g>
<!-- Node0&#45;&gt;Node3 -->
<g id="edge3" class="edge">
<title>Node0&#45;&gt;Node3</title>
<path fill="none" stroke="#191970" d="M125.3371,-112.2977C133.6397,-103.4941 144.1182,-92.3833 152.7289,-83.2529"/>
<polygon fill="#191970" stroke="#191970" points="155.3987,-85.5234 159.7135,-75.8469 150.3061,-80.7206 155.3987,-85.5234"/>
</g>
<!-- Node2 -->
<g id="node3" class="node">
<title>Node2</title>
<polygon fill="#ffffff" stroke="#bfbfbf" points="0,-.5 0,-19.5 106,-19.5 106,-.5 0,-.5"/>
<text text-anchor="middle" x="53" y="-7.5" font-family="Helvetica,sans-Serif" font-size="10.00" fill="#000000">pybind11/pybind11.h</text>
</g>
<!-- Node1&#45;&gt;Node2 -->
<g id="edge2" class="edge">
<title>Node1&#45;&gt;Node2</title>
<path fill="none" stroke="#191970" d="M53,-56.2455C53,-48.9382 53,-38.6944 53,-29.7046"/>
<polygon fill="#191970" stroke="#191970" points="56.5001,-29.6426 53,-19.6427 49.5001,-29.6427 56.5001,-29.6426"/>
</g>
</g>
</svg>
