<?xml version="1.0" encoding="UTF-8" standalone="no"?>
<!DOCTYPE svg PUBLIC "-//W3C//DTD SVG 1.1//EN"
 "http://www.w3.org/Graphics/SVG/1.1/DTD/svg11.dtd">
<!-- Generated by graphviz version 2.40.1 (20161225.0304)
 -->
<!-- Title: src/pybind/filters/fil_comparison.h Pages: 1 -->
<svg width="555pt" height="543pt"
 viewBox="0.00 0.00 555.00 543.00" xmlns="http://www.w3.org/2000/svg" xmlns:xlink="http://www.w3.org/1999/xlink">
<g id="graph0" class="graph" transform="scale(1 1) rotate(0) translate(4 539)">
<title>src/pybind/filters/fil_comparison.h</title>
<polygon fill="#ffffff" stroke="transparent" points="-4,4 -4,-539 551,-539 551,4 -4,4"/>
<!-- Node0 -->
<g id="node1" class="node">
<title>Node0</title>
<polygon fill="#bfbfbf" stroke="#000000" points="75,-504.5 75,-534.5 166,-534.5 166,-504.5 75,-504.5"/>
<text text-anchor="start" x="83" y="-522.5" font-family="Helvetica,sans-Serif" font-size="10.00" fill="#000000">src/pybind/filters</text>
<text text-anchor="middle" x="120.5" y="-511.5" font-family="Helvetica,sans-Serif" font-size="10.00" fill="#000000">/fil_comparison.h</text>
</g>
<!-- Node1 -->
<g id="node2" class="node">
<title>Node1</title>
<polygon fill="#ffffff" stroke="#bfbfbf" points="0,-448.5 0,-467.5 115,-467.5 115,-448.5 0,-448.5"/>
<text text-anchor="middle" x="57.5" y="-455.5" font-family="Helvetica,sans-Serif" font-size="10.00" fill="#000000">filters/fil_comparison.h</text>
</g>
<!-- Node0&#45;&gt;Node1 -->
<g id="edge1" class="edge">
<title>Node0&#45;&gt;Node1</title>
<path fill="none" stroke="#191970" d="M104.927,-504.2977C95.8175,-495.4052 84.2966,-484.1586 74.8909,-474.9769"/>
<polygon fill="#191970" stroke="#191970" points="77.1878,-472.3278 67.5871,-467.8469 72.298,-477.3368 77.1878,-472.3278"/>
</g>
<!-- Node2 -->
<g id="node3" class="node">
<title>Node2</title>
<g id="a_node3"><a xlink:href="pybind_2filters_2filter_8h.html" target="_top" xlink:title="pybind/filters/filter.h">
<polygon fill="#ffffff" stroke="#000000" points="133.5,-448.5 133.5,-467.5 235.5,-467.5 235.5,-448.5 133.5,-448.5"/>
<text text-anchor="middle" x="184.5" y="-455.5" font-family="Helvetica,sans-Serif" font-size="10.00" fill="#000000">pybind/filters/filter.h</text>
</a>
</g>
</g>
<!-- Node0&#45;&gt;Node2 -->
<g id="edge2" class="edge">
<title>Node0&#45;&gt;Node2</title>
<path fill="none" stroke="#191970" d="M136.3202,-504.2977C145.5742,-495.4052 157.2781,-484.1586 166.833,-474.9769"/>
<polygon fill="#191970" stroke="#191970" points="169.4674,-477.2995 174.2528,-467.8469 164.6172,-472.2521 169.4674,-477.2995"/>
</g>
<!-- Node3 -->
<g id="node4" class="node">
<title>Node3</title>
<polygon fill="#ffffff" stroke="#bfbfbf" points="100,-392.5 100,-411.5 171,-411.5 171,-392.5 100,-392.5"/>
<text text-anchor="middle" x="135.5" y="-399.5" font-family="Helvetica,sans-Serif" font-size="10.00" fill="#000000">filters/filter.h</text>
</g>
<!-- Node2&#45;&gt;Node3 -->
<g id="edge3" class="edge">
<title>Node2&#45;&gt;Node3</title>
<path fill="none" stroke="#191970" d="M175.9649,-448.2455C169.0088,-440.2958 159.0117,-428.8706 150.6949,-419.3656"/>
<polygon fill="#191970" stroke="#191970" points="153.1564,-416.8637 143.9373,-411.6427 147.8884,-421.4732 153.1564,-416.8637"/>
</g>
<!-- Node4 -->
<g id="node5" class="node">
<title>Node4</title>
<g id="a_node5"><a xlink:href="pybind_2updater_8h.html" target="_top" xlink:title="pybind/updater.h">
<polygon fill="#ffffff" stroke="#000000" points="189,-392.5 189,-411.5 278,-411.5 278,-392.5 189,-392.5"/>
<text text-anchor="middle" x="233.5" y="-399.5" font-family="Helvetica,sans-Serif" font-size="10.00" fill="#000000">pybind/updater.h</text>
</a>
</g>
</g>
<!-- Node2&#45;&gt;Node4 -->
<g id="edge4" class="edge">
<title>Node2&#45;&gt;Node4</title>
<path fill="none" stroke="#191970" d="M193.0351,-448.2455C199.9912,-440.2958 209.9883,-428.8706 218.3051,-419.3656"/>
<polygon fill="#191970" stroke="#191970" points="221.1116,-421.4732 225.0627,-411.6427 215.8436,-416.8637 221.1116,-421.4732"/>
</g>
<!-- Node5 -->
<g id="node6" class="node">
<title>Node5</title>
<g id="a_node6"><a xlink:href="alias_2pybind_8h.html" target="_top" xlink:title="... ">
<polygon fill="#ffffff" stroke="#000000" points="80,-112.5 80,-131.5 157,-131.5 157,-112.5 80,-112.5"/>
<text text-anchor="middle" x="118.5" y="-119.5" font-family="Helvetica,sans-Serif" font-size="10.00" fill="#000000">alias/pybind.h</text>
</a>
</g>
</g>
<!-- Node4&#45;&gt;Node5 -->
<g id="edge5" class="edge">
<title>Node4&#45;&gt;Node5</title>
<path fill="none" stroke="#191970" d="M216.5159,-392.368C189.1905,-375.4638 138.5,-337.6798 138.5,-290 138.5,-290 138.5,-290 138.5,-234 138.5,-201.2193 130.0945,-163.8705 124.1819,-141.6533"/>
<polygon fill="#191970" stroke="#191970" points="127.491,-140.4878 121.4511,-131.7832 120.7445,-142.3545 127.491,-140.4878"/>
</g>
<!-- Node7 -->
<g id="node8" class="node">
<title>Node7</title>
<g id="a_node8"><a xlink:href="core_2updater_8h.html" target="_top" xlink:title="This file has a definition of the Updater class, which is one of the cores of this program...">
<polygon fill="#ffffff" stroke="#000000" points="289,-336.5 289,-355.5 368,-355.5 368,-336.5 289,-336.5"/>
<text text-anchor="middle" x="328.5" y="-343.5" font-family="Helvetica,sans-Serif" font-size="10.00" fill="#000000">core/updater.h</text>
</a>
</g>
</g>
<!-- Node4&#45;&gt;Node7 -->
<g id="edge7" class="edge">
<title>Node4&#45;&gt;Node7</title>
<path fill="none" stroke="#191970" d="M250.0477,-392.2455C264.7599,-383.5731 286.4888,-370.7645 303.3505,-360.825"/>
<polygon fill="#191970" stroke="#191970" points="305.3046,-363.736 312.1419,-355.6427 301.7498,-357.7057 305.3046,-363.736"/>
</g>
<!-- Node6 -->
<g id="node7" class="node">
<title>Node6</title>
<polygon fill="#ffffff" stroke="#bfbfbf" points="63.5,-56.5 63.5,-75.5 169.5,-75.5 169.5,-56.5 63.5,-56.5"/>
<text text-anchor="middle" x="116.5" y="-63.5" font-family="Helvetica,sans-Serif" font-size="10.00" fill="#000000">pybind11/pybind11.h</text>
</g>
<!-- Node5&#45;&gt;Node6 -->
<g id="edge6" class="edge">
<title>Node5&#45;&gt;Node6</title>
<path fill="none" stroke="#191970" d="M118.1516,-112.2455C117.8907,-104.9382 117.5248,-94.6944 117.2037,-85.7046"/>
<polygon fill="#191970" stroke="#191970" points="120.6992,-85.5113 116.8444,-75.6427 113.7036,-85.7613 120.6992,-85.5113"/>
</g>
<!-- Node8 -->
<g id="node9" class="node">
<title>Node8</title>
<polygon fill="#ffffff" stroke="#bfbfbf" points="484.5,-112.5 484.5,-131.5 528.5,-131.5 528.5,-112.5 484.5,-112.5"/>
<text text-anchor="middle" x="506.5" y="-119.5" font-family="Helvetica,sans-Serif" font-size="10.00" fill="#000000">omp.h</text>
</g>
<!-- Node7&#45;&gt;Node8 -->
<g id="edge8" class="edge">
<title>Node7&#45;&gt;Node8</title>
<path fill="none" stroke="#191970" d="M342.0431,-336.3144C353.7503,-327.575 370.7492,-313.9793 383.5,-300 431.8826,-246.9558 476.583,-173.8959 496.1296,-140.2767"/>
<polygon fill="#191970" stroke="#191970" points="499.2083,-141.9441 501.1622,-131.531 493.141,-138.4528 499.2083,-141.9441"/>
</g>
<!-- Node9 -->
<g id="node10" class="node">
<title>Node9</title>
<g id="a_node10"><a xlink:href="generators_8h.html" target="_top" xlink:title="This file includes all the header files of subclasses of Generator. ">
<polygon fill="#ffffff" stroke="#000000" points="282.5,-280.5 282.5,-299.5 374.5,-299.5 374.5,-280.5 282.5,-280.5"/>
<text text-anchor="middle" x="328.5" y="-287.5" font-family="Helvetica,sans-Serif" font-size="10.00" fill="#000000">core/generators.h</text>
</a>
</g>
</g>
<!-- Node7&#45;&gt;Node9 -->
<g id="edge9" class="edge">
<title>Node7&#45;&gt;Node9</title>
<path fill="none" stroke="#191970" d="M328.5,-336.2455C328.5,-328.9382 328.5,-318.6944 328.5,-309.7046"/>
<polygon fill="#191970" stroke="#191970" points="332.0001,-309.6426 328.5,-299.6427 325.0001,-309.6427 332.0001,-309.6426"/>
</g>
<!-- Node10 -->
<g id="node11" class="node">
<title>Node10</title>
<g id="a_node11"><a xlink:href="core_2element_8h.html" target="_top" xlink:title="This file has a definition of the Element class, which is one of the cores of this program...">
<polygon fill="#ffffff" stroke="#000000" points="288,-168.5 288,-187.5 369,-187.5 369,-168.5 288,-168.5"/>
<text text-anchor="middle" x="328.5" y="-175.5" font-family="Helvetica,sans-Serif" font-size="10.00" fill="#000000">core/element.h</text>
</a>
</g>
</g>
<!-- Node9&#45;&gt;Node10 -->
<g id="edge10" class="edge">
<title>Node9&#45;&gt;Node10</title>
<path fill="none" stroke="#191970" d="M344.3247,-280.4104C362.0741,-268.3201 387.1935,-246.3956 377.5,-224 372.2663,-211.9081 362.1158,-201.5335 352.4045,-193.7139"/>
<polygon fill="#191970" stroke="#191970" points="354.2234,-190.7038 344.118,-187.5209 350.0329,-196.3109 354.2234,-190.7038"/>
</g>
<!-- Node23 -->
<g id="node24" class="node">
<title>Node23</title>
<g id="a_node24"><a xlink:href="gen__dict_8h.html" target="_top" xlink:title="This file has a definition of the GenDict class. ">
<polygon fill="#ffffff" stroke="#000000" points="187,-224.5 187,-243.5 270,-243.5 270,-224.5 187,-224.5"/>
<text text-anchor="middle" x="228.5" y="-231.5" font-family="Helvetica,sans-Serif" font-size="10.00" fill="#000000">core/gen_dict.h</text>
</a>
</g>
</g>
<!-- Node9&#45;&gt;Node23 -->
<g id="edge27" class="edge">
<title>Node9&#45;&gt;Node23</title>
<path fill="none" stroke="#191970" d="M311.0813,-280.2455C295.4515,-271.4928 272.2981,-258.527 254.4815,-248.5496"/>
<polygon fill="#191970" stroke="#191970" points="256.1543,-245.475 245.7191,-243.6427 252.734,-251.5825 256.1543,-245.475"/>
</g>
<!-- Node24 -->
<g id="node25" class="node">
<title>Node24</title>
<g id="a_node25"><a xlink:href="gen__list_8h.html" target="_top" xlink:title="This file has a definition of the GenList class. ">
<polygon fill="#ffffff" stroke="#000000" points="288.5,-224.5 288.5,-243.5 368.5,-243.5 368.5,-224.5 288.5,-224.5"/>
<text text-anchor="middle" x="328.5" y="-231.5" font-family="Helvetica,sans-Serif" font-size="10.00" fill="#000000">core/gen_list.h</text>
</a>
</g>
</g>
<!-- Node9&#45;&gt;Node24 -->
<g id="edge29" class="edge">
<title>Node9&#45;&gt;Node24</title>
<path fill="none" stroke="#191970" d="M328.5,-280.2455C328.5,-272.9382 328.5,-262.6944 328.5,-253.7046"/>
<polygon fill="#191970" stroke="#191970" points="332.0001,-253.6426 328.5,-243.6427 325.0001,-253.6427 332.0001,-253.6426"/>
</g>
<!-- Node10&#45;&gt;Node5 -->
<g id="edge14" class="edge">
<title>Node10&#45;&gt;Node5</title>
<path fill="none" stroke="#191970" d="M292.3997,-168.3733C256.8752,-158.9001 202.512,-144.4032 164.0381,-134.1435"/>
<polygon fill="#191970" stroke="#191970" points="164.6934,-130.696 154.1292,-131.5011 162.8897,-137.4596 164.6934,-130.696"/>
</g>
<!-- Node10&#45;&gt;Node8 -->
<g id="edge11" class="edge">
<title>Node10&#45;&gt;Node8</title>
<path fill="none" stroke="#191970" d="M359.2133,-168.475C386.9937,-159.8406 429.2723,-146.6533 474.7445,-132.2226"/>
<polygon fill="#191970" stroke="#191970" points="476.0215,-135.4894 484.4922,-129.1256 473.9018,-128.818 476.0215,-135.4894"/>
</g>
<!-- Node11 -->
<g id="node12" class="node">
<title>Node11</title>
<g id="a_node12"><a xlink:href="eigen_8h.html" target="_top" xlink:title="This file includes Eigen and defines some aliases for the Eigen&#45; Vector, Matrix and Array...">
<polygon fill="#ffffff" stroke="#000000" points="395,-112.5 395,-131.5 466,-131.5 466,-112.5 395,-112.5"/>
<text text-anchor="middle" x="430.5" y="-119.5" font-family="Helvetica,sans-Serif" font-size="10.00" fill="#000000">alias/eigen.h</text>
</a>
</g>
</g>
<!-- Node10&#45;&gt;Node11 -->
<g id="edge12" class="edge">
<title>Node10&#45;&gt;Node11</title>
<path fill="none" stroke="#191970" d="M346.267,-168.2455C362.2095,-159.4928 385.8259,-146.527 403.9989,-136.5496"/>
<polygon fill="#191970" stroke="#191970" points="405.8552,-139.5233 412.9366,-131.6427 402.4863,-133.3873 405.8552,-139.5233"/>
</g>
<!-- Node13 -->
<g id="node14" class="node">
<title>Node13</title>
<g id="a_node14"><a xlink:href="generator_8h.html" target="_top" xlink:title="This file has a definition of the Generator class, which is one of the cores of this program...">
<polygon fill="#ffffff" stroke="#000000" points="175,-112.5 175,-131.5 262,-131.5 262,-112.5 175,-112.5"/>
<text text-anchor="middle" x="218.5" y="-119.5" font-family="Helvetica,sans-Serif" font-size="10.00" fill="#000000">core/generator.h</text>
</a>
</g>
</g>
<!-- Node10&#45;&gt;Node13 -->
<g id="edge15" class="edge">
<title>Node10&#45;&gt;Node13</title>
<path fill="none" stroke="#191970" d="M309.3395,-168.2455C291.9889,-159.4125 266.2099,-146.2887 246.5417,-136.2758"/>
<polygon fill="#191970" stroke="#191970" points="247.9405,-133.0605 237.441,-131.6427 244.7647,-139.2986 247.9405,-133.0605"/>
</g>
<!-- Node22 -->
<g id="node23" class="node">
<title>Node22</title>
<g id="a_node23"><a xlink:href="data__keys_8h.html" target="_top" xlink:title="... ">
<polygon fill="#ffffff" stroke="#000000" points="280.5,-112.5 280.5,-131.5 376.5,-131.5 376.5,-112.5 280.5,-112.5"/>
<text text-anchor="middle" x="328.5" y="-119.5" font-family="Helvetica,sans-Serif" font-size="10.00" fill="#000000">class/data_keys.h</text>
</a>
</g>
</g>
<!-- Node10&#45;&gt;Node22 -->
<g id="edge24" class="edge">
<title>Node10&#45;&gt;Node22</title>
<path fill="none" stroke="#191970" d="M328.5,-168.2455C328.5,-160.9382 328.5,-150.6944 328.5,-141.7046"/>
<polygon fill="#191970" stroke="#191970" points="332.0001,-141.6426 328.5,-131.6427 325.0001,-141.6427 332.0001,-141.6426"/>
</g>
<!-- Node12 -->
<g id="node13" class="node">
<title>Node12</title>
<polygon fill="#ffffff" stroke="#bfbfbf" points="402.5,-56.5 402.5,-75.5 458.5,-75.5 458.5,-56.5 402.5,-56.5"/>
<text text-anchor="middle" x="430.5" y="-63.5" font-family="Helvetica,sans-Serif" font-size="10.00" fill="#000000">Eigen/LU</text>
</g>
<!-- Node11&#45;&gt;Node12 -->
<g id="edge13" class="edge">
<title>Node11&#45;&gt;Node12</title>
<path fill="none" stroke="#191970" d="M430.5,-112.2455C430.5,-104.9382 430.5,-94.6944 430.5,-85.7046"/>
<polygon fill="#191970" stroke="#191970" points="434.0001,-85.6426 430.5,-75.6427 427.0001,-85.6427 434.0001,-85.6426"/>
</g>
<!-- Node14 -->
<g id="node15" class="node">
<title>Node14</title>
<g id="a_node15"><a xlink:href="std_8h.html" target="_top" xlink:title="This file includes a part of C++ Standard Template Library and defines aliases for them...">
<polygon fill="#ffffff" stroke="#000000" points="297.5,-56.5 297.5,-75.5 359.5,-75.5 359.5,-56.5 297.5,-56.5"/>
<text text-anchor="middle" x="328.5" y="-63.5" font-family="Helvetica,sans-Serif" font-size="10.00" fill="#000000">alias/std.h</text>
</a>
</g>
</g>
<!-- Node13&#45;&gt;Node14 -->
<g id="edge16" class="edge">
<title>Node13&#45;&gt;Node14</title>
<path fill="none" stroke="#191970" d="M237.6605,-112.2455C255.0111,-103.4125 280.7901,-90.2887 300.4583,-80.2758"/>
<polygon fill="#191970" stroke="#191970" points="302.2353,-83.2986 309.559,-75.6427 299.0595,-77.0605 302.2353,-83.2986"/>
</g>
<!-- Node20 -->
<g id="node21" class="node">
<title>Node20</title>
<g id="a_node21"><a xlink:href="json_8h.html" target="_top" xlink:title="This file includes nlohmann/json and defines an alias for the JSON type. ">
<polygon fill="#ffffff" stroke="#000000" points="187.5,-56.5 187.5,-75.5 253.5,-75.5 253.5,-56.5 187.5,-56.5"/>
<text text-anchor="middle" x="220.5" y="-63.5" font-family="Helvetica,sans-Serif" font-size="10.00" fill="#000000">alias/json.h</text>
</a>
</g>
</g>
<!-- Node13&#45;&gt;Node20 -->
<g id="edge22" class="edge">
<title>Node13&#45;&gt;Node20</title>
<path fill="none" stroke="#191970" d="M218.8484,-112.2455C219.1093,-104.9382 219.4752,-94.6944 219.7963,-85.7046"/>
<polygon fill="#191970" stroke="#191970" points="223.2964,-85.7613 220.1556,-75.6427 216.3008,-85.5113 223.2964,-85.7613"/>
</g>
<!-- Node15 -->
<g id="node16" class="node">
<title>Node15</title>
<polygon fill="#ffffff" stroke="#bfbfbf" points="435.5,-.5 435.5,-19.5 487.5,-19.5 487.5,-.5 435.5,-.5"/>
<text text-anchor="middle" x="461.5" y="-7.5" font-family="Helvetica,sans-Serif" font-size="10.00" fill="#000000">memory</text>
</g>
<!-- Node14&#45;&gt;Node15 -->
<g id="edge17" class="edge">
<title>Node14&#45;&gt;Node15</title>
<path fill="none" stroke="#191970" d="M351.3635,-56.3733C372.905,-47.3032 405.3838,-33.6279 429.4956,-23.4755"/>
<polygon fill="#191970" stroke="#191970" points="431.0767,-26.6075 438.9348,-19.5011 428.3603,-20.156 431.0767,-26.6075"/>
</g>
<!-- Node16 -->
<g id="node17" class="node">
<title>Node16</title>
<polygon fill="#ffffff" stroke="#bfbfbf" points="506,-.5 506,-19.5 547,-19.5 547,-.5 506,-.5"/>
<text text-anchor="middle" x="526.5" y="-7.5" font-family="Helvetica,sans-Serif" font-size="10.00" fill="#000000">string</text>
</g>
<!-- Node14&#45;&gt;Node16 -->
<g id="edge18" class="edge">
<title>Node14&#45;&gt;Node16</title>
<path fill="none" stroke="#191970" d="M359.6089,-58.0248C391.5254,-49.7236 442.8127,-36.056 496.2463,-19.959"/>
<polygon fill="#191970" stroke="#191970" points="497.3368,-23.2858 505.8904,-17.034 495.305,-16.5871 497.3368,-23.2858"/>
</g>
<!-- Node17 -->
<g id="node18" class="node">
<title>Node17</title>
<polygon fill="#ffffff" stroke="#bfbfbf" points="175.5,-.5 175.5,-19.5 219.5,-19.5 219.5,-.5 175.5,-.5"/>
<text text-anchor="middle" x="197.5" y="-7.5" font-family="Helvetica,sans-Serif" font-size="10.00" fill="#000000">vector</text>
</g>
<!-- Node14&#45;&gt;Node17 -->
<g id="edge19" class="edge">
<title>Node14&#45;&gt;Node17</title>
<path fill="none" stroke="#191970" d="M305.9803,-56.3733C284.7628,-47.3032 252.7724,-33.6279 229.0231,-23.4755"/>
<polygon fill="#191970" stroke="#191970" points="230.2967,-20.2136 219.7258,-19.5011 227.5452,-26.6502 230.2967,-20.2136"/>
</g>
<!-- Node18 -->
<g id="node19" class="node">
<title>Node18</title>
<polygon fill="#ffffff" stroke="#bfbfbf" points="238,-.5 238,-19.5 321,-19.5 321,-.5 238,-.5"/>
<text text-anchor="middle" x="279.5" y="-7.5" font-family="Helvetica,sans-Serif" font-size="10.00" fill="#000000">unordered_map</text>
</g>
<!-- Node14&#45;&gt;Node18 -->
<g id="edge20" class="edge">
<title>Node14&#45;&gt;Node18</title>
<path fill="none" stroke="#191970" d="M319.9649,-56.2455C313.0088,-48.2958 303.0117,-36.8706 294.6949,-27.3656"/>
<polygon fill="#191970" stroke="#191970" points="297.1564,-24.8637 287.9373,-19.6427 291.8884,-29.4732 297.1564,-24.8637"/>
</g>
<!-- Node19 -->
<g id="node20" class="node">
<title>Node19</title>
<polygon fill="#ffffff" stroke="#bfbfbf" points="339.5,-.5 339.5,-19.5 417.5,-19.5 417.5,-.5 339.5,-.5"/>
<text text-anchor="middle" x="378.5" y="-7.5" font-family="Helvetica,sans-Serif" font-size="10.00" fill="#000000">unordered_set</text>
</g>
<!-- Node14&#45;&gt;Node19 -->
<g id="edge21" class="edge">
<title>Node14&#45;&gt;Node19</title>
<path fill="none" stroke="#191970" d="M337.2093,-56.2455C344.3073,-48.2958 354.5084,-36.8706 362.995,-27.3656"/>
<polygon fill="#191970" stroke="#191970" points="365.8411,-29.4331 369.8905,-19.6427 360.6195,-24.771 365.8411,-29.4331"/>
</g>
<!-- Node21 -->
<g id="node22" class="node">
<title>Node21</title>
<polygon fill="#ffffff" stroke="#bfbfbf" points="59.5,-.5 59.5,-19.5 157.5,-19.5 157.5,-.5 59.5,-.5"/>
<text text-anchor="middle" x="108.5" y="-7.5" font-family="Helvetica,sans-Serif" font-size="10.00" fill="#000000">nlohmann/json.hpp</text>
</g>
<!-- Node20&#45;&gt;Node21 -->
<g id="edge23" class="edge">
<title>Node20&#45;&gt;Node21</title>
<path fill="none" stroke="#191970" d="M201.2465,-56.3733C183.4288,-47.4644 156.7253,-34.1127 136.5406,-24.0203"/>
<polygon fill="#191970" stroke="#191970" points="138.0118,-20.8428 127.5022,-19.5011 134.8813,-27.1038 138.0118,-20.8428"/>
</g>
<!-- Node22&#45;&gt;Node14 -->
<g id="edge25" class="edge">
<title>Node22&#45;&gt;Node14</title>
<path fill="none" stroke="#191970" d="M328.5,-112.2455C328.5,-104.9382 328.5,-94.6944 328.5,-85.7046"/>
<polygon fill="#191970" stroke="#191970" points="332.0001,-85.6426 328.5,-75.6427 325.0001,-85.6427 332.0001,-85.6426"/>
</g>
<!-- Node22&#45;&gt;Node20 -->
<g id="edge26" class="edge">
<title>Node22&#45;&gt;Node20</title>
<path fill="none" stroke="#191970" d="M309.6878,-112.2455C292.6527,-103.4125 267.3425,-90.2887 248.0319,-80.2758"/>
<polygon fill="#191970" stroke="#191970" points="249.5853,-77.1388 239.0966,-75.6427 246.363,-83.353 249.5853,-77.1388"/>
</g>
<!-- Node23&#45;&gt;Node10 -->
<g id="edge28" class="edge">
<title>Node23&#45;&gt;Node10</title>
<path fill="none" stroke="#191970" d="M245.9187,-224.2455C261.5485,-215.4928 284.7019,-202.527 302.5185,-192.5496"/>
<polygon fill="#191970" stroke="#191970" points="304.266,-195.5825 311.2809,-187.6427 300.8457,-189.475 304.266,-195.5825"/>
</g>
<!-- Node24&#45;&gt;Node10 -->
<g id="edge30" class="edge">
<title>Node24&#45;&gt;Node10</title>
<path fill="none" stroke="#191970" d="M328.5,-224.2455C328.5,-216.9382 328.5,-206.6944 328.5,-197.7046"/>
<polygon fill="#191970" stroke="#191970" points="332.0001,-197.6426 328.5,-187.6427 325.0001,-197.6427 332.0001,-197.6426"/>
</g>
</g>
</svg>
