<?xml version="1.0" encoding="UTF-8" standalone="no"?>
<!DOCTYPE svg PUBLIC "-//W3C//DTD SVG 1.1//EN"
 "http://www.w3.org/Graphics/SVG/1.1/DTD/svg11.dtd">
<!-- Generated by graphviz version 2.40.1 (20161225.0304)
 -->
<!-- Title: src/pybind/pyadders/add_com_position.h Pages: 1 -->
<!--zoomable 543 -->
<svg id="main" version="1.1" xmlns="http://www.w3.org/2000/svg" xmlns:xlink="http://www.w3.org/1999/xlink" xml:space="preserve" onload="init(evt)">
<style type="text/css"><![CDATA[
.edge:hover path { stroke: red; }
.edge:hover polygon { stroke: red; fill: red; }
]]></style>
<script type="text/javascript"><![CDATA[
var edges = document.getElementsByTagName('g');
if (edges && edges.length) {
  for (var i=0;i<edges.length;i++) {
    if (edges[i].id.substr(0,4)=='edge') {
      edges[i].setAttribute('class','edge');
    }
  }
}
]]></script>
        <defs>
                <circle id="rim" cx="0" cy="0" r="7"/>
                <circle id="rim2" cx="0" cy="0" r="3.5"/>
                <g id="zoomPlus">
                        <use xlink:href="#rim" fill="#404040">
                                <set attributeName="fill" to="#808080" begin="zoomplus.mouseover" end="zoomplus.mouseout"/>
                        </use>
                        <path d="M-4,0h8M0,-4v8" fill="none" stroke="white" stroke-width="1.5" pointer-events="none"/>
                </g>
                <g id="zoomMin">
                        <use xlink:href="#rim" fill="#404040">
                                <set attributeName="fill" to="#808080" begin="zoomminus.mouseover" end="zoomminus.mouseout"/>
                        </use>
                        <path d="M-4,0h8" fill="none" stroke="white" stroke-width="1.5" pointer-events="none"/>
                </g>
                <g id="dirArrow">
                        <path fill="none" stroke="white" stroke-width="1.5" d="M0,-3.0v7 M-2.5,-0.5L0,-3.0L2.5,-0.5"/>
                </g>
               <g id="resetDef">
                       <use xlink:href="#rim2" fill="#404040">
                               <set attributeName="fill" to="#808080" begin="reset.mouseover" end="reset.mouseout"/>
                       </use>
               </g>
        </defs>

<script type="text/javascript">
var viewWidth = 590;
var viewHeight = 543;
var sectionId = 'dynsection-0';
</script>
<script xlink:href="svgpan.js"/>
<svg id="graph" class="graph">
<g id="viewport">
<title>src/pybind/pyadders/add_com_position.h</title>
<polygon fill="#ffffff" stroke="transparent" points="-4,4 -4,-539 585.5,-539 585.5,4 -4,4"/>
<!-- Node0 -->
<g id="node1" class="node">
<title>Node0</title>
<polygon fill="#bfbfbf" stroke="#000000" points="88.5,-504.5 88.5,-534.5 195.5,-534.5 195.5,-504.5 88.5,-504.5"/>
<text text-anchor="start" x="96.5" y="-522.5" font-family="Helvetica,sans-Serif" font-size="10.00" fill="#000000">src/pybind/pyadders</text>
<text text-anchor="middle" x="142" y="-511.5" font-family="Helvetica,sans-Serif" font-size="10.00" fill="#000000">/add_com_position.h</text>
</g>
<!-- Node1 -->
<g id="node2" class="node">
<title>Node1</title>
<polygon fill="#ffffff" stroke="#bfbfbf" points="0,-448.5 0,-467.5 136,-467.5 136,-448.5 0,-448.5"/>
<text text-anchor="middle" x="68" y="-455.5" font-family="Helvetica,sans-Serif" font-size="10.00" fill="#000000">adders/add_com_position.h</text>
</g>
<!-- Node0&#45;&gt;Node1 -->
<g id="edge1" class="edge">
<title>Node0&#45;&gt;Node1</title>
<path fill="none" stroke="#191970" d="M123.7079,-504.2977C112.7939,-495.2274 98.9329,-483.7077 87.7676,-474.4285"/>
<polygon fill="#191970" stroke="#191970" points="89.7762,-471.5468 79.8483,-467.8469 85.302,-476.9303 89.7762,-471.5468"/>
</g>
<!-- Node2 -->
<g id="node3" class="node">
<title>Node2</title>
<g id="a_node3"><a xlink:href="pybind_2pyadders_2adder_8h.html" target="_top" xlink:title="This file has a function to bind Adder class to Python. ">
<polygon fill="#ffffff" stroke="#000000" points="154.5,-448.5 154.5,-467.5 277.5,-467.5 277.5,-448.5 154.5,-448.5"/>
<text text-anchor="middle" x="216" y="-455.5" font-family="Helvetica,sans-Serif" font-size="10.00" fill="#000000">pybind/pyadders/adder.h</text>
</a>
</g>
</g>
<!-- Node0&#45;&gt;Node2 -->
<g id="edge2" class="edge">
<title>Node0&#45;&gt;Node2</title>
<path fill="none" stroke="#191970" d="M160.2921,-504.2977C171.2061,-495.2274 185.0671,-483.7077 196.2324,-474.4285"/>
<polygon fill="#191970" stroke="#191970" points="198.698,-476.9303 204.1517,-467.8469 194.2238,-471.5468 198.698,-476.9303"/>
</g>
<!-- Node3 -->
<g id="node4" class="node">
<title>Node3</title>
<polygon fill="#ffffff" stroke="#bfbfbf" points="124.5,-392.5 124.5,-411.5 205.5,-411.5 205.5,-392.5 124.5,-392.5"/>
<text text-anchor="middle" x="165" y="-399.5" font-family="Helvetica,sans-Serif" font-size="10.00" fill="#000000">adders/adder.h</text>
</g>
<!-- Node2&#45;&gt;Node3 -->
<g id="edge3" class="edge">
<title>Node2&#45;&gt;Node3</title>
<path fill="none" stroke="#191970" d="M207.1165,-448.2455C199.8034,-440.2155 189.2609,-428.6394 180.5533,-419.0781"/>
<polygon fill="#191970" stroke="#191970" points="183.1028,-416.6795 173.7817,-411.6427 177.9273,-421.3928 183.1028,-416.6795"/>
</g>
<!-- Node4 -->
<g id="node5" class="node">
<title>Node4</title>
<g id="a_node5"><a xlink:href="pybind_2updater_8h.html" target="_top" xlink:title="This file is for binding Updater class to Python. ">
<polygon fill="#ffffff" stroke="#000000" points="223.5,-392.5 223.5,-411.5 312.5,-411.5 312.5,-392.5 223.5,-392.5"/>
<text text-anchor="middle" x="268" y="-399.5" font-family="Helvetica,sans-Serif" font-size="10.00" fill="#000000">pybind/updater.h</text>
</a>
</g>
</g>
<!-- Node2&#45;&gt;Node4 -->
<g id="edge4" class="edge">
<title>Node2&#45;&gt;Node4</title>
<path fill="none" stroke="#191970" d="M225.0577,-448.2455C232.5142,-440.2155 243.2634,-428.6394 252.1417,-419.0781"/>
<polygon fill="#191970" stroke="#191970" points="254.8063,-421.3522 259.0461,-411.6427 249.6768,-416.589 254.8063,-421.3522"/>
</g>
<!-- Node5 -->
<g id="node6" class="node">
<title>Node5</title>
<g id="a_node6"><a xlink:href="alias_2pybind_8h.html" target="_top" xlink:title="This file includes pybind11 and defines an alias for the namespace pybind11. ">
<polygon fill="#ffffff" stroke="#000000" points="114.5,-112.5 114.5,-131.5 191.5,-131.5 191.5,-112.5 114.5,-112.5"/>
<text text-anchor="middle" x="153" y="-119.5" font-family="Helvetica,sans-Serif" font-size="10.00" fill="#000000">alias/pybind.h</text>
</a>
</g>
</g>
<!-- Node4&#45;&gt;Node5 -->
<g id="edge5" class="edge">
<title>Node4&#45;&gt;Node5</title>
<path fill="none" stroke="#191970" d="M251.0159,-392.368C223.6905,-375.4638 173,-337.6798 173,-290 173,-290 173,-290 173,-234 173,-201.2193 164.5945,-163.8705 158.6819,-141.6533"/>
<polygon fill="#191970" stroke="#191970" points="161.991,-140.4878 155.9511,-131.7832 155.2445,-142.3545 161.991,-140.4878"/>
</g>
<!-- Node7 -->
<g id="node8" class="node">
<title>Node7</title>
<g id="a_node8"><a xlink:href="core_2updater_8h.html" target="_top" xlink:title="This file has a definition of the Updater class, which is one of the cores of this program...">
<polygon fill="#ffffff" stroke="#000000" points="323.5,-336.5 323.5,-355.5 402.5,-355.5 402.5,-336.5 323.5,-336.5"/>
<text text-anchor="middle" x="363" y="-343.5" font-family="Helvetica,sans-Serif" font-size="10.00" fill="#000000">core/updater.h</text>
</a>
</g>
</g>
<!-- Node4&#45;&gt;Node7 -->
<g id="edge7" class="edge">
<title>Node4&#45;&gt;Node7</title>
<path fill="none" stroke="#191970" d="M284.5477,-392.2455C299.2599,-383.5731 320.9888,-370.7645 337.8505,-360.825"/>
<polygon fill="#191970" stroke="#191970" points="339.8046,-363.736 346.6419,-355.6427 336.2498,-357.7057 339.8046,-363.736"/>
</g>
<!-- Node6 -->
<g id="node7" class="node">
<title>Node6</title>
<polygon fill="#ffffff" stroke="#bfbfbf" points="98,-56.5 98,-75.5 204,-75.5 204,-56.5 98,-56.5"/>
<text text-anchor="middle" x="151" y="-63.5" font-family="Helvetica,sans-Serif" font-size="10.00" fill="#000000">pybind11/pybind11.h</text>
</g>
<!-- Node5&#45;&gt;Node6 -->
<g id="edge6" class="edge">
<title>Node5&#45;&gt;Node6</title>
<path fill="none" stroke="#191970" d="M152.6516,-112.2455C152.3907,-104.9382 152.0248,-94.6944 151.7037,-85.7046"/>
<polygon fill="#191970" stroke="#191970" points="155.1992,-85.5113 151.3444,-75.6427 148.2036,-85.7613 155.1992,-85.5113"/>
</g>
<!-- Node8 -->
<g id="node9" class="node">
<title>Node8</title>
<polygon fill="#ffffff" stroke="#bfbfbf" points="519,-112.5 519,-131.5 563,-131.5 563,-112.5 519,-112.5"/>
<text text-anchor="middle" x="541" y="-119.5" font-family="Helvetica,sans-Serif" font-size="10.00" fill="#000000">omp.h</text>
</g>
<!-- Node7&#45;&gt;Node8 -->
<g id="edge8" class="edge">
<title>Node7&#45;&gt;Node8</title>
<path fill="none" stroke="#191970" d="M376.5431,-336.3144C388.2503,-327.575 405.2492,-313.9793 418,-300 466.3826,-246.9558 511.083,-173.8959 530.6296,-140.2767"/>
<polygon fill="#191970" stroke="#191970" points="533.7083,-141.9441 535.6622,-131.531 527.641,-138.4528 533.7083,-141.9441"/>
</g>
<!-- Node9 -->
<g id="node10" class="node">
<title>Node9</title>
<g id="a_node10"><a xlink:href="generators_8h.html" target="_top" xlink:title="This file includes all the header files of subclasses of Generator. ">
<polygon fill="#ffffff" stroke="#000000" points="317,-280.5 317,-299.5 409,-299.5 409,-280.5 317,-280.5"/>
<text text-anchor="middle" x="363" y="-287.5" font-family="Helvetica,sans-Serif" font-size="10.00" fill="#000000">core/generators.h</text>
</a>
</g>
</g>
<!-- Node7&#45;&gt;Node9 -->
<g id="edge9" class="edge">
<title>Node7&#45;&gt;Node9</title>
<path fill="none" stroke="#191970" d="M363,-336.2455C363,-328.9382 363,-318.6944 363,-309.7046"/>
<polygon fill="#191970" stroke="#191970" points="366.5001,-309.6426 363,-299.6427 359.5001,-309.6427 366.5001,-309.6426"/>
</g>
<!-- Node10 -->
<g id="node11" class="node">
<title>Node10</title>
<g id="a_node11"><a xlink:href="core_2element_8h.html" target="_top" xlink:title="This file has a definition of the Element class, which is one of the cores of this program...">
<polygon fill="#ffffff" stroke="#000000" points="322.5,-168.5 322.5,-187.5 403.5,-187.5 403.5,-168.5 322.5,-168.5"/>
<text text-anchor="middle" x="363" y="-175.5" font-family="Helvetica,sans-Serif" font-size="10.00" fill="#000000">core/element.h</text>
</a>
</g>
</g>
<!-- Node9&#45;&gt;Node10 -->
<g id="edge10" class="edge">
<title>Node9&#45;&gt;Node10</title>
<path fill="none" stroke="#191970" d="M378.8247,-280.4104C396.5741,-268.3201 421.6935,-246.3956 412,-224 406.7663,-211.9081 396.6158,-201.5335 386.9045,-193.7139"/>
<polygon fill="#191970" stroke="#191970" points="388.7234,-190.7038 378.618,-187.5209 384.5329,-196.3109 388.7234,-190.7038"/>
</g>
<!-- Node23 -->
<g id="node24" class="node">
<title>Node23</title>
<g id="a_node24"><a xlink:href="gen__dict_8h.html" target="_top" xlink:title="This file has a definition of the GenDict class. ">
<polygon fill="#ffffff" stroke="#000000" points="221.5,-224.5 221.5,-243.5 304.5,-243.5 304.5,-224.5 221.5,-224.5"/>
<text text-anchor="middle" x="263" y="-231.5" font-family="Helvetica,sans-Serif" font-size="10.00" fill="#000000">core/gen_dict.h</text>
</a>
</g>
</g>
<!-- Node9&#45;&gt;Node23 -->
<g id="edge27" class="edge">
<title>Node9&#45;&gt;Node23</title>
<path fill="none" stroke="#191970" d="M345.5813,-280.2455C329.9515,-271.4928 306.7981,-258.527 288.9815,-248.5496"/>
<polygon fill="#191970" stroke="#191970" points="290.6543,-245.475 280.2191,-243.6427 287.234,-251.5825 290.6543,-245.475"/>
</g>
<!-- Node24 -->
<g id="node25" class="node">
<title>Node24</title>
<g id="a_node25"><a xlink:href="gen__list_8h.html" target="_top" xlink:title="This file has a definition of the GenList class. ">
<polygon fill="#ffffff" stroke="#000000" points="323,-224.5 323,-243.5 403,-243.5 403,-224.5 323,-224.5"/>
<text text-anchor="middle" x="363" y="-231.5" font-family="Helvetica,sans-Serif" font-size="10.00" fill="#000000">core/gen_list.h</text>
</a>
</g>
</g>
<!-- Node9&#45;&gt;Node24 -->
<g id="edge29" class="edge">
<title>Node9&#45;&gt;Node24</title>
<path fill="none" stroke="#191970" d="M363,-280.2455C363,-272.9382 363,-262.6944 363,-253.7046"/>
<polygon fill="#191970" stroke="#191970" points="366.5001,-253.6426 363,-243.6427 359.5001,-253.6427 366.5001,-253.6426"/>
</g>
<!-- Node10&#45;&gt;Node5 -->
<g id="edge14" class="edge">
<title>Node10&#45;&gt;Node5</title>
<path fill="none" stroke="#191970" d="M326.8997,-168.3733C291.3752,-158.9001 237.012,-144.4032 198.5381,-134.1435"/>
<polygon fill="#191970" stroke="#191970" points="199.1934,-130.696 188.6292,-131.5011 197.3897,-137.4596 199.1934,-130.696"/>
</g>
<!-- Node10&#45;&gt;Node8 -->
<g id="edge11" class="edge">
<title>Node10&#45;&gt;Node8</title>
<path fill="none" stroke="#191970" d="M393.7133,-168.475C421.4937,-159.8406 463.7723,-146.6533 509.2445,-132.2226"/>
<polygon fill="#191970" stroke="#191970" points="510.5215,-135.4894 518.9922,-129.1256 508.4018,-128.818 510.5215,-135.4894"/>
</g>
<!-- Node11 -->
<g id="node12" class="node">
<title>Node11</title>
<g id="a_node12"><a xlink:href="eigen_8h.html" target="_top" xlink:title="This file includes Eigen and defines some aliases for the Eigen&#45;Vector, Matrix and Array...">
<polygon fill="#ffffff" stroke="#000000" points="429.5,-112.5 429.5,-131.5 500.5,-131.5 500.5,-112.5 429.5,-112.5"/>
<text text-anchor="middle" x="465" y="-119.5" font-family="Helvetica,sans-Serif" font-size="10.00" fill="#000000">alias/eigen.h</text>
</a>
</g>
</g>
<!-- Node10&#45;&gt;Node11 -->
<g id="edge12" class="edge">
<title>Node10&#45;&gt;Node11</title>
<path fill="none" stroke="#191970" d="M380.767,-168.2455C396.7095,-159.4928 420.3259,-146.527 438.4989,-136.5496"/>
<polygon fill="#191970" stroke="#191970" points="440.3552,-139.5233 447.4366,-131.6427 436.9863,-133.3873 440.3552,-139.5233"/>
</g>
<!-- Node13 -->
<g id="node14" class="node">
<title>Node13</title>
<g id="a_node14"><a xlink:href="generator_8h.html" target="_top" xlink:title="This file has a definition of the Generator class, which is one of the cores of this program...">
<polygon fill="#ffffff" stroke="#000000" points="209.5,-112.5 209.5,-131.5 296.5,-131.5 296.5,-112.5 209.5,-112.5"/>
<text text-anchor="middle" x="253" y="-119.5" font-family="Helvetica,sans-Serif" font-size="10.00" fill="#000000">core/generator.h</text>
</a>
</g>
</g>
<!-- Node10&#45;&gt;Node13 -->
<g id="edge15" class="edge">
<title>Node10&#45;&gt;Node13</title>
<path fill="none" stroke="#191970" d="M343.8395,-168.2455C326.4889,-159.4125 300.7099,-146.2887 281.0417,-136.2758"/>
<polygon fill="#191970" stroke="#191970" points="282.4405,-133.0605 271.941,-131.6427 279.2647,-139.2986 282.4405,-133.0605"/>
</g>
<!-- Node22 -->
<g id="node23" class="node">
<title>Node22</title>
<g id="a_node23"><a xlink:href="data__keys_8h.html" target="_top" xlink:title="This file has a definition of the DataKeys class, which is owned by Element class. ">
<polygon fill="#ffffff" stroke="#000000" points="315,-112.5 315,-131.5 411,-131.5 411,-112.5 315,-112.5"/>
<text text-anchor="middle" x="363" y="-119.5" font-family="Helvetica,sans-Serif" font-size="10.00" fill="#000000">class/data_keys.h</text>
</a>
</g>
</g>
<!-- Node10&#45;&gt;Node22 -->
<g id="edge24" class="edge">
<title>Node10&#45;&gt;Node22</title>
<path fill="none" stroke="#191970" d="M363,-168.2455C363,-160.9382 363,-150.6944 363,-141.7046"/>
<polygon fill="#191970" stroke="#191970" points="366.5001,-141.6426 363,-131.6427 359.5001,-141.6427 366.5001,-141.6426"/>
</g>
<!-- Node12 -->
<g id="node13" class="node">
<title>Node12</title>
<polygon fill="#ffffff" stroke="#bfbfbf" points="437,-56.5 437,-75.5 493,-75.5 493,-56.5 437,-56.5"/>
<text text-anchor="middle" x="465" y="-63.5" font-family="Helvetica,sans-Serif" font-size="10.00" fill="#000000">Eigen/LU</text>
</g>
<!-- Node11&#45;&gt;Node12 -->
<g id="edge13" class="edge">
<title>Node11&#45;&gt;Node12</title>
<path fill="none" stroke="#191970" d="M465,-112.2455C465,-104.9382 465,-94.6944 465,-85.7046"/>
<polygon fill="#191970" stroke="#191970" points="468.5001,-85.6426 465,-75.6427 461.5001,-85.6427 468.5001,-85.6426"/>
</g>
<!-- Node14 -->
<g id="node15" class="node">
<title>Node14</title>
<g id="a_node15"><a xlink:href="std_8h.html" target="_top" xlink:title="This file includes a part of C++ Standard Template Library and defines aliases for them...">
<polygon fill="#ffffff" stroke="#000000" points="332,-56.5 332,-75.5 394,-75.5 394,-56.5 332,-56.5"/>
<text text-anchor="middle" x="363" y="-63.5" font-family="Helvetica,sans-Serif" font-size="10.00" fill="#000000">alias/std.h</text>
</a>
</g>
</g>
<!-- Node13&#45;&gt;Node14 -->
<g id="edge16" class="edge">
<title>Node13&#45;&gt;Node14</title>
<path fill="none" stroke="#191970" d="M272.1605,-112.2455C289.5111,-103.4125 315.2901,-90.2887 334.9583,-80.2758"/>
<polygon fill="#191970" stroke="#191970" points="336.7353,-83.2986 344.059,-75.6427 333.5595,-77.0605 336.7353,-83.2986"/>
</g>
<!-- Node20 -->
<g id="node21" class="node">
<title>Node20</title>
<g id="a_node21"><a xlink:href="json_8h.html" target="_top" xlink:title="This file includes nlohmann/json and defines an alias for the JSON type. ">
<polygon fill="#ffffff" stroke="#000000" points="222,-56.5 222,-75.5 288,-75.5 288,-56.5 222,-56.5"/>
<text text-anchor="middle" x="255" y="-63.5" font-family="Helvetica,sans-Serif" font-size="10.00" fill="#000000">alias/json.h</text>
</a>
</g>
</g>
<!-- Node13&#45;&gt;Node20 -->
<g id="edge22" class="edge">
<title>Node13&#45;&gt;Node20</title>
<path fill="none" stroke="#191970" d="M253.3484,-112.2455C253.6093,-104.9382 253.9752,-94.6944 254.2963,-85.7046"/>
<polygon fill="#191970" stroke="#191970" points="257.7964,-85.7613 254.6556,-75.6427 250.8008,-85.5113 257.7964,-85.7613"/>
</g>
<!-- Node15 -->
<g id="node16" class="node">
<title>Node15</title>
<polygon fill="#ffffff" stroke="#bfbfbf" points="470,-.5 470,-19.5 522,-19.5 522,-.5 470,-.5"/>
<text text-anchor="middle" x="496" y="-7.5" font-family="Helvetica,sans-Serif" font-size="10.00" fill="#000000">memory</text>
</g>
<!-- Node14&#45;&gt;Node15 -->
<g id="edge17" class="edge">
<title>Node14&#45;&gt;Node15</title>
<path fill="none" stroke="#191970" d="M385.8635,-56.3733C407.405,-47.3032 439.8838,-33.6279 463.9956,-23.4755"/>
<polygon fill="#191970" stroke="#191970" points="465.5767,-26.6075 473.4348,-19.5011 462.8603,-20.156 465.5767,-26.6075"/>
</g>
<!-- Node16 -->
<g id="node17" class="node">
<title>Node16</title>
<polygon fill="#ffffff" stroke="#bfbfbf" points="540.5,-.5 540.5,-19.5 581.5,-19.5 581.5,-.5 540.5,-.5"/>
<text text-anchor="middle" x="561" y="-7.5" font-family="Helvetica,sans-Serif" font-size="10.00" fill="#000000">string</text>
</g>
<!-- Node14&#45;&gt;Node16 -->
<g id="edge18" class="edge">
<title>Node14&#45;&gt;Node16</title>
<path fill="none" stroke="#191970" d="M394.1089,-58.0248C426.0254,-49.7236 477.3127,-36.056 530.7463,-19.959"/>
<polygon fill="#191970" stroke="#191970" points="531.8368,-23.2858 540.3904,-17.034 529.805,-16.5871 531.8368,-23.2858"/>
</g>
<!-- Node17 -->
<g id="node18" class="node">
<title>Node17</title>
<polygon fill="#ffffff" stroke="#bfbfbf" points="210,-.5 210,-19.5 254,-19.5 254,-.5 210,-.5"/>
<text text-anchor="middle" x="232" y="-7.5" font-family="Helvetica,sans-Serif" font-size="10.00" fill="#000000">vector</text>
</g>
<!-- Node14&#45;&gt;Node17 -->
<g id="edge19" class="edge">
<title>Node14&#45;&gt;Node17</title>
<path fill="none" stroke="#191970" d="M340.4803,-56.3733C319.2628,-47.3032 287.2724,-33.6279 263.5231,-23.4755"/>
<polygon fill="#191970" stroke="#191970" points="264.7967,-20.2136 254.2258,-19.5011 262.0452,-26.6502 264.7967,-20.2136"/>
</g>
<!-- Node18 -->
<g id="node19" class="node">
<title>Node18</title>
<polygon fill="#ffffff" stroke="#bfbfbf" points="272.5,-.5 272.5,-19.5 355.5,-19.5 355.5,-.5 272.5,-.5"/>
<text text-anchor="middle" x="314" y="-7.5" font-family="Helvetica,sans-Serif" font-size="10.00" fill="#000000">unordered_map</text>
</g>
<!-- Node14&#45;&gt;Node18 -->
<g id="edge20" class="edge">
<title>Node14&#45;&gt;Node18</title>
<path fill="none" stroke="#191970" d="M354.4649,-56.2455C347.5088,-48.2958 337.5117,-36.8706 329.1949,-27.3656"/>
<polygon fill="#191970" stroke="#191970" points="331.6564,-24.8637 322.4373,-19.6427 326.3884,-29.4732 331.6564,-24.8637"/>
</g>
<!-- Node19 -->
<g id="node20" class="node">
<title>Node19</title>
<polygon fill="#ffffff" stroke="#bfbfbf" points="374,-.5 374,-19.5 452,-19.5 452,-.5 374,-.5"/>
<text text-anchor="middle" x="413" y="-7.5" font-family="Helvetica,sans-Serif" font-size="10.00" fill="#000000">unordered_set</text>
</g>
<!-- Node14&#45;&gt;Node19 -->
<g id="edge21" class="edge">
<title>Node14&#45;&gt;Node19</title>
<path fill="none" stroke="#191970" d="M371.7093,-56.2455C378.8073,-48.2958 389.0084,-36.8706 397.495,-27.3656"/>
<polygon fill="#191970" stroke="#191970" points="400.3411,-29.4331 404.3905,-19.6427 395.1195,-24.771 400.3411,-29.4331"/>
</g>
<!-- Node21 -->
<g id="node22" class="node">
<title>Node21</title>
<polygon fill="#ffffff" stroke="#bfbfbf" points="94,-.5 94,-19.5 192,-19.5 192,-.5 94,-.5"/>
<text text-anchor="middle" x="143" y="-7.5" font-family="Helvetica,sans-Serif" font-size="10.00" fill="#000000">nlohmann/json.hpp</text>
</g>
<!-- Node20&#45;&gt;Node21 -->
<g id="edge23" class="edge">
<title>Node20&#45;&gt;Node21</title>
<path fill="none" stroke="#191970" d="M235.7465,-56.3733C217.9288,-47.4644 191.2253,-34.1127 171.0406,-24.0203"/>
<polygon fill="#191970" stroke="#191970" points="172.5118,-20.8428 162.0022,-19.5011 169.3813,-27.1038 172.5118,-20.8428"/>
</g>
<!-- Node22&#45;&gt;Node14 -->
<g id="edge25" class="edge">
<title>Node22&#45;&gt;Node14</title>
<path fill="none" stroke="#191970" d="M363,-112.2455C363,-104.9382 363,-94.6944 363,-85.7046"/>
<polygon fill="#191970" stroke="#191970" points="366.5001,-85.6426 363,-75.6427 359.5001,-85.6427 366.5001,-85.6426"/>
</g>
<!-- Node22&#45;&gt;Node20 -->
<g id="edge26" class="edge">
<title>Node22&#45;&gt;Node20</title>
<path fill="none" stroke="#191970" d="M344.1878,-112.2455C327.1527,-103.4125 301.8425,-90.2887 282.5319,-80.2758"/>
<polygon fill="#191970" stroke="#191970" points="284.0853,-77.1388 273.5966,-75.6427 280.863,-83.353 284.0853,-77.1388"/>
</g>
<!-- Node23&#45;&gt;Node10 -->
<g id="edge28" class="edge">
<title>Node23&#45;&gt;Node10</title>
<path fill="none" stroke="#191970" d="M280.4187,-224.2455C296.0485,-215.4928 319.2019,-202.527 337.0185,-192.5496"/>
<polygon fill="#191970" stroke="#191970" points="338.766,-195.5825 345.7809,-187.6427 335.3457,-189.475 338.766,-195.5825"/>
</g>
<!-- Node24&#45;&gt;Node10 -->
<g id="edge30" class="edge">
<title>Node24&#45;&gt;Node10</title>
<path fill="none" stroke="#191970" d="M363,-224.2455C363,-216.9382 363,-206.6944 363,-197.7046"/>
<polygon fill="#191970" stroke="#191970" points="366.5001,-197.6426 363,-187.6427 359.5001,-197.6427 366.5001,-197.6426"/>
</g>
</g>
</svg>
        <g id="navigator" transform="translate(0 0)" fill="#404254">
                <rect fill="#f2f5e9" fill-opacity="0.5" stroke="#606060" stroke-width=".5" x="0" y="0" width="60" height="60"/>
                <use id="zoomplus" xlink:href="#zoomPlus" x="17" y="9" onmousedown="handleZoom(evt,'in')"/>
                <use id="zoomminus" xlink:href="#zoomMin" x="42" y="9" onmousedown="handleZoom(evt,'out')"/>
                <use id="reset" xlink:href="#resetDef" x="30" y="36" onmousedown="handleReset()"/>
                <g id="arrowUp" xlink:href="#dirArrow" transform="translate(30 24)" onmousedown="handlePan(0,-1)">
                  <use xlink:href="#rim" fill="#404040">
                        <set attributeName="fill" to="#808080" begin="arrowUp.mouseover" end="arrowUp.mouseout"/>
                  </use>
                  <path fill="none" stroke="white" stroke-width="1.5" d="M0,-3.0v7 M-2.5,-0.5L0,-3.0L2.5,-0.5"/>
                </g>
                <g id="arrowRight" xlink:href="#dirArrow" transform="rotate(90) translate(36 -43)" onmousedown="handlePan(1,0)">
                  <use xlink:href="#rim" fill="#404040">
                        <set attributeName="fill" to="#808080" begin="arrowRight.mouseover" end="arrowRight.mouseout"/>
                  </use>
                  <path fill="none" stroke="white" stroke-width="1.5" d="M0,-3.0v7 M-2.5,-0.5L0,-3.0L2.5,-0.5"/>
                </g>
                <g id="arrowDown" xlink:href="#dirArrow" transform="rotate(180) translate(-30 -48)" onmousedown="handlePan(0,1)">
                  <use xlink:href="#rim" fill="#404040">
                        <set attributeName="fill" to="#808080" begin="arrowDown.mouseover" end="arrowDown.mouseout"/>
                  </use>
                  <path fill="none" stroke="white" stroke-width="1.5" d="M0,-3.0v7 M-2.5,-0.5L0,-3.0L2.5,-0.5"/>
                </g>
                <g id="arrowLeft" xlink:href="#dirArrow" transform="rotate(270) translate(-36 17)" onmousedown="handlePan(-1,0)">
                  <use xlink:href="#rim" fill="#404040">
                        <set attributeName="fill" to="#808080" begin="arrowLeft.mouseover" end="arrowLeft.mouseout"/>
                  </use>
                  <path fill="none" stroke="white" stroke-width="1.5" d="M0,-3.0v7 M-2.5,-0.5L0,-3.0L2.5,-0.5"/>
                </g>
        </g>
        <svg viewBox="0 0 15 15" width="100%" height="30px" preserveAspectRatio="xMaxYMin meet">
         <g id="arrow_out" transform="scale(0.3 0.3)">
          <a xlink:href="pybind_2pyadders_2add__com__position_8h__incl_org.svg" target="_base">
           <rect id="button" ry="5" rx="5" y="6" x="6" height="38" width="38"
                fill="#f2f5e9" fill-opacity="0.5" stroke="#606060" stroke-width="1.0"/>
           <path id="arrow"
             d="M 11.500037,31.436501 C 11.940474,20.09759 22.043105,11.32322 32.158766,21.979434 L 37.068811,17.246167 C 37.068811,17.246167 37.088388,32 37.088388,32 L 22.160133,31.978069 C 22.160133,31.978069 26.997745,27.140456 26.997745,27.140456 C 18.528582,18.264221 13.291696,25.230495 11.500037,31.436501 z"
             style="fill:#404040;"/>
          </a>
         </g>
        </svg>
</svg>
