<?xml version="1.0" encoding="UTF-8" standalone="no"?>
<!DOCTYPE svg PUBLIC "-//W3C//DTD SVG 1.1//EN"
 "http://www.w3.org/Graphics/SVG/1.1/DTD/svg11.dtd">
<!-- Generated by graphviz version 2.40.1 (20161225.0304)
 -->
<!-- Title: src/pybind/adders/add_map.h Pages: 1 -->
<!--zoomable 543 -->
<svg id="main" version="1.1" xmlns="http://www.w3.org/2000/svg" xmlns:xlink="http://www.w3.org/1999/xlink" xml:space="preserve" onload="init(evt)">
<style type="text/css"><![CDATA[
.edge:hover path { stroke: red; }
.edge:hover polygon { stroke: red; fill: red; }
]]></style>
<script type="text/javascript"><![CDATA[
var edges = document.getElementsByTagName('g');
if (edges && edges.length) {
  for (var i=0;i<edges.length;i++) {
    if (edges[i].id.substr(0,4)=='edge') {
      edges[i].setAttribute('class','edge');
    }
  }
}
]]></script>
        <defs>
                <circle id="rim" cx="0" cy="0" r="7"/>
                <circle id="rim2" cx="0" cy="0" r="3.5"/>
                <g id="zoomPlus">
                        <use xlink:href="#rim" fill="#404040">
                                <set attributeName="fill" to="#808080" begin="zoomplus.mouseover" end="zoomplus.mouseout"/>
                        </use>
                        <path d="M-4,0h8M0,-4v8" fill="none" stroke="white" stroke-width="1.5" pointer-events="none"/>
                </g>
                <g id="zoomMin">
                        <use xlink:href="#rim" fill="#404040">
                                <set attributeName="fill" to="#808080" begin="zoomminus.mouseover" end="zoomminus.mouseout"/>
                        </use>
                        <path d="M-4,0h8" fill="none" stroke="white" stroke-width="1.5" pointer-events="none"/>
                </g>
                <g id="dirArrow">
                        <path fill="none" stroke="white" stroke-width="1.5" d="M0,-3.0v7 M-2.5,-0.5L0,-3.0L2.5,-0.5"/>
                </g>
               <g id="resetDef">
                       <use xlink:href="#rim2" fill="#404040">
                               <set attributeName="fill" to="#808080" begin="reset.mouseover" end="reset.mouseout"/>
                       </use>
               </g>
        </defs>

<script type="text/javascript">
var viewWidth = 545;
var viewHeight = 543;
var sectionId = 'dynsection-0';
</script>
<script xlink:href="svgpan.js"/>
<svg id="graph" class="graph">
<g id="viewport">
<title>src/pybind/adders/add_map.h</title>
<polygon fill="#ffffff" stroke="transparent" points="-4,4 -4,-539 541,-539 541,4 -4,4"/>
<!-- Node0 -->
<g id="node1" class="node">
<title>Node0</title>
<polygon fill="#bfbfbf" stroke="#000000" points="53,-504.5 53,-534.5 166,-534.5 166,-504.5 53,-504.5"/>
<text text-anchor="start" x="61" y="-522.5" font-family="Helvetica,sans-Serif" font-size="10.00" fill="#000000">src/pybind/adders/add</text>
<text text-anchor="middle" x="109.5" y="-511.5" font-family="Helvetica,sans-Serif" font-size="10.00" fill="#000000">_map.h</text>
</g>
<!-- Node1 -->
<g id="node2" class="node">
<title>Node1</title>
<polygon fill="#ffffff" stroke="#bfbfbf" points="0,-448.5 0,-467.5 97,-467.5 97,-448.5 0,-448.5"/>
<text text-anchor="middle" x="48.5" y="-455.5" font-family="Helvetica,sans-Serif" font-size="10.00" fill="#000000">adders/add_map.h</text>
</g>
<!-- Node0&#45;&gt;Node1 -->
<g id="edge1" class="edge">
<title>Node0&#45;&gt;Node1</title>
<path fill="none" stroke="#191970" d="M94.4213,-504.2977C85.6011,-495.4052 74.4459,-484.1586 65.3388,-474.9769"/>
<polygon fill="#191970" stroke="#191970" points="67.794,-472.4821 58.2669,-467.8469 62.8241,-477.4116 67.794,-472.4821"/>
</g>
<!-- Node2 -->
<g id="node3" class="node">
<title>Node2</title>
<g id="a_node3"><a xlink:href="pybind_2adders_2adder_8h.html" target="_top" xlink:title="pybind/adders/adder.h">
<polygon fill="#ffffff" stroke="#000000" points="115,-448.5 115,-467.5 228,-467.5 228,-448.5 115,-448.5"/>
<text text-anchor="middle" x="171.5" y="-455.5" font-family="Helvetica,sans-Serif" font-size="10.00" fill="#000000">pybind/adders/adder.h</text>
</a>
</g>
</g>
<!-- Node0&#45;&gt;Node2 -->
<g id="edge2" class="edge">
<title>Node0&#45;&gt;Node2</title>
<path fill="none" stroke="#191970" d="M124.8258,-504.2977C133.7907,-495.4052 145.1288,-484.1586 154.3851,-474.9769"/>
<polygon fill="#191970" stroke="#191970" points="156.9382,-477.3742 161.573,-467.8469 152.0085,-472.4045 156.9382,-477.3742"/>
</g>
<!-- Node3 -->
<g id="node4" class="node">
<title>Node3</title>
<polygon fill="#ffffff" stroke="#bfbfbf" points="80,-392.5 80,-411.5 161,-411.5 161,-392.5 80,-392.5"/>
<text text-anchor="middle" x="120.5" y="-399.5" font-family="Helvetica,sans-Serif" font-size="10.00" fill="#000000">adders/adder.h</text>
</g>
<!-- Node2&#45;&gt;Node3 -->
<g id="edge3" class="edge">
<title>Node2&#45;&gt;Node3</title>
<path fill="none" stroke="#191970" d="M162.6165,-448.2455C155.3034,-440.2155 144.7609,-428.6394 136.0533,-419.0781"/>
<polygon fill="#191970" stroke="#191970" points="138.6028,-416.6795 129.2817,-411.6427 133.4273,-421.3928 138.6028,-416.6795"/>
</g>
<!-- Node4 -->
<g id="node5" class="node">
<title>Node4</title>
<g id="a_node5"><a xlink:href="pybind_2updater_8h.html" target="_top" xlink:title="pybind/updater.h">
<polygon fill="#ffffff" stroke="#000000" points="179,-392.5 179,-411.5 268,-411.5 268,-392.5 179,-392.5"/>
<text text-anchor="middle" x="223.5" y="-399.5" font-family="Helvetica,sans-Serif" font-size="10.00" fill="#000000">pybind/updater.h</text>
</a>
</g>
</g>
<!-- Node2&#45;&gt;Node4 -->
<g id="edge4" class="edge">
<title>Node2&#45;&gt;Node4</title>
<path fill="none" stroke="#191970" d="M180.5577,-448.2455C188.0142,-440.2155 198.7634,-428.6394 207.6417,-419.0781"/>
<polygon fill="#191970" stroke="#191970" points="210.3063,-421.3522 214.5461,-411.6427 205.1768,-416.589 210.3063,-421.3522"/>
</g>
<!-- Node5 -->
<g id="node6" class="node">
<title>Node5</title>
<g id="a_node6"><a xlink:href="alias_2pybind_8h.html" target="_top" xlink:title="... ">
<polygon fill="#ffffff" stroke="#000000" points="70,-112.5 70,-131.5 147,-131.5 147,-112.5 70,-112.5"/>
<text text-anchor="middle" x="108.5" y="-119.5" font-family="Helvetica,sans-Serif" font-size="10.00" fill="#000000">alias/pybind.h</text>
</a>
</g>
</g>
<!-- Node4&#45;&gt;Node5 -->
<g id="edge5" class="edge">
<title>Node4&#45;&gt;Node5</title>
<path fill="none" stroke="#191970" d="M206.5159,-392.368C179.1905,-375.4638 128.5,-337.6798 128.5,-290 128.5,-290 128.5,-290 128.5,-234 128.5,-201.2193 120.0945,-163.8705 114.1819,-141.6533"/>
<polygon fill="#191970" stroke="#191970" points="117.491,-140.4878 111.4511,-131.7832 110.7445,-142.3545 117.491,-140.4878"/>
</g>
<!-- Node7 -->
<g id="node8" class="node">
<title>Node7</title>
<g id="a_node8"><a xlink:href="core_2updater_8h.html" target="_top" xlink:title="This file has a definition of the Updater class, which is one of the cores of this program...">
<polygon fill="#ffffff" stroke="#000000" points="279,-336.5 279,-355.5 358,-355.5 358,-336.5 279,-336.5"/>
<text text-anchor="middle" x="318.5" y="-343.5" font-family="Helvetica,sans-Serif" font-size="10.00" fill="#000000">core/updater.h</text>
</a>
</g>
</g>
<!-- Node4&#45;&gt;Node7 -->
<g id="edge7" class="edge">
<title>Node4&#45;&gt;Node7</title>
<path fill="none" stroke="#191970" d="M240.0477,-392.2455C254.7599,-383.5731 276.4888,-370.7645 293.3505,-360.825"/>
<polygon fill="#191970" stroke="#191970" points="295.3046,-363.736 302.1419,-355.6427 291.7498,-357.7057 295.3046,-363.736"/>
</g>
<!-- Node6 -->
<g id="node7" class="node">
<title>Node6</title>
<polygon fill="#ffffff" stroke="#bfbfbf" points="53.5,-56.5 53.5,-75.5 159.5,-75.5 159.5,-56.5 53.5,-56.5"/>
<text text-anchor="middle" x="106.5" y="-63.5" font-family="Helvetica,sans-Serif" font-size="10.00" fill="#000000">pybind11/pybind11.h</text>
</g>
<!-- Node5&#45;&gt;Node6 -->
<g id="edge6" class="edge">
<title>Node5&#45;&gt;Node6</title>
<path fill="none" stroke="#191970" d="M108.1516,-112.2455C107.8907,-104.9382 107.5248,-94.6944 107.2037,-85.7046"/>
<polygon fill="#191970" stroke="#191970" points="110.6992,-85.5113 106.8444,-75.6427 103.7036,-85.7613 110.6992,-85.5113"/>
</g>
<!-- Node8 -->
<g id="node9" class="node">
<title>Node8</title>
<polygon fill="#ffffff" stroke="#bfbfbf" points="474.5,-112.5 474.5,-131.5 518.5,-131.5 518.5,-112.5 474.5,-112.5"/>
<text text-anchor="middle" x="496.5" y="-119.5" font-family="Helvetica,sans-Serif" font-size="10.00" fill="#000000">omp.h</text>
</g>
<!-- Node7&#45;&gt;Node8 -->
<g id="edge8" class="edge">
<title>Node7&#45;&gt;Node8</title>
<path fill="none" stroke="#191970" d="M332.0431,-336.3144C343.7503,-327.575 360.7492,-313.9793 373.5,-300 421.8826,-246.9558 466.583,-173.8959 486.1296,-140.2767"/>
<polygon fill="#191970" stroke="#191970" points="489.2083,-141.9441 491.1622,-131.531 483.141,-138.4528 489.2083,-141.9441"/>
</g>
<!-- Node9 -->
<g id="node10" class="node">
<title>Node9</title>
<g id="a_node10"><a xlink:href="generators_8h.html" target="_top" xlink:title="This file includes all the header files of subclasses of Generator. ">
<polygon fill="#ffffff" stroke="#000000" points="272.5,-280.5 272.5,-299.5 364.5,-299.5 364.5,-280.5 272.5,-280.5"/>
<text text-anchor="middle" x="318.5" y="-287.5" font-family="Helvetica,sans-Serif" font-size="10.00" fill="#000000">core/generators.h</text>
</a>
</g>
</g>
<!-- Node7&#45;&gt;Node9 -->
<g id="edge9" class="edge">
<title>Node7&#45;&gt;Node9</title>
<path fill="none" stroke="#191970" d="M318.5,-336.2455C318.5,-328.9382 318.5,-318.6944 318.5,-309.7046"/>
<polygon fill="#191970" stroke="#191970" points="322.0001,-309.6426 318.5,-299.6427 315.0001,-309.6427 322.0001,-309.6426"/>
</g>
<!-- Node10 -->
<g id="node11" class="node">
<title>Node10</title>
<g id="a_node11"><a xlink:href="core_2element_8h.html" target="_top" xlink:title="This file has a definition of the Element class, which is one of the cores of this program...">
<polygon fill="#ffffff" stroke="#000000" points="278,-168.5 278,-187.5 359,-187.5 359,-168.5 278,-168.5"/>
<text text-anchor="middle" x="318.5" y="-175.5" font-family="Helvetica,sans-Serif" font-size="10.00" fill="#000000">core/element.h</text>
</a>
</g>
</g>
<!-- Node9&#45;&gt;Node10 -->
<g id="edge10" class="edge">
<title>Node9&#45;&gt;Node10</title>
<path fill="none" stroke="#191970" d="M334.3247,-280.4104C352.0741,-268.3201 377.1935,-246.3956 367.5,-224 362.2663,-211.9081 352.1158,-201.5335 342.4045,-193.7139"/>
<polygon fill="#191970" stroke="#191970" points="344.2234,-190.7038 334.118,-187.5209 340.0329,-196.3109 344.2234,-190.7038"/>
</g>
<!-- Node23 -->
<g id="node24" class="node">
<title>Node23</title>
<g id="a_node24"><a xlink:href="gen__dict_8h.html" target="_top" xlink:title="This file has a definition of the GenDict class. ">
<polygon fill="#ffffff" stroke="#000000" points="177,-224.5 177,-243.5 260,-243.5 260,-224.5 177,-224.5"/>
<text text-anchor="middle" x="218.5" y="-231.5" font-family="Helvetica,sans-Serif" font-size="10.00" fill="#000000">core/gen_dict.h</text>
</a>
</g>
</g>
<!-- Node9&#45;&gt;Node23 -->
<g id="edge27" class="edge">
<title>Node9&#45;&gt;Node23</title>
<path fill="none" stroke="#191970" d="M301.0813,-280.2455C285.4515,-271.4928 262.2981,-258.527 244.4815,-248.5496"/>
<polygon fill="#191970" stroke="#191970" points="246.1543,-245.475 235.7191,-243.6427 242.734,-251.5825 246.1543,-245.475"/>
</g>
<!-- Node24 -->
<g id="node25" class="node">
<title>Node24</title>
<g id="a_node25"><a xlink:href="gen__list_8h.html" target="_top" xlink:title="This file has a definition of the GenList class. ">
<polygon fill="#ffffff" stroke="#000000" points="278.5,-224.5 278.5,-243.5 358.5,-243.5 358.5,-224.5 278.5,-224.5"/>
<text text-anchor="middle" x="318.5" y="-231.5" font-family="Helvetica,sans-Serif" font-size="10.00" fill="#000000">core/gen_list.h</text>
</a>
</g>
</g>
<!-- Node9&#45;&gt;Node24 -->
<g id="edge29" class="edge">
<title>Node9&#45;&gt;Node24</title>
<path fill="none" stroke="#191970" d="M318.5,-280.2455C318.5,-272.9382 318.5,-262.6944 318.5,-253.7046"/>
<polygon fill="#191970" stroke="#191970" points="322.0001,-253.6426 318.5,-243.6427 315.0001,-253.6427 322.0001,-253.6426"/>
</g>
<!-- Node10&#45;&gt;Node5 -->
<g id="edge14" class="edge">
<title>Node10&#45;&gt;Node5</title>
<path fill="none" stroke="#191970" d="M282.3997,-168.3733C246.8752,-158.9001 192.512,-144.4032 154.0381,-134.1435"/>
<polygon fill="#191970" stroke="#191970" points="154.6934,-130.696 144.1292,-131.5011 152.8897,-137.4596 154.6934,-130.696"/>
</g>
<!-- Node10&#45;&gt;Node8 -->
<g id="edge11" class="edge">
<title>Node10&#45;&gt;Node8</title>
<path fill="none" stroke="#191970" d="M349.2133,-168.475C376.9937,-159.8406 419.2723,-146.6533 464.7445,-132.2226"/>
<polygon fill="#191970" stroke="#191970" points="466.0215,-135.4894 474.4922,-129.1256 463.9018,-128.818 466.0215,-135.4894"/>
</g>
<!-- Node11 -->
<g id="node12" class="node">
<title>Node11</title>
<g id="a_node12"><a xlink:href="eigen_8h.html" target="_top" xlink:title="This file includes Eigen and defines some aliases for the Eigen&#45; Vector, Matrix and Array...">
<polygon fill="#ffffff" stroke="#000000" points="385,-112.5 385,-131.5 456,-131.5 456,-112.5 385,-112.5"/>
<text text-anchor="middle" x="420.5" y="-119.5" font-family="Helvetica,sans-Serif" font-size="10.00" fill="#000000">alias/eigen.h</text>
</a>
</g>
</g>
<!-- Node10&#45;&gt;Node11 -->
<g id="edge12" class="edge">
<title>Node10&#45;&gt;Node11</title>
<path fill="none" stroke="#191970" d="M336.267,-168.2455C352.2095,-159.4928 375.8259,-146.527 393.9989,-136.5496"/>
<polygon fill="#191970" stroke="#191970" points="395.8552,-139.5233 402.9366,-131.6427 392.4863,-133.3873 395.8552,-139.5233"/>
</g>
<!-- Node13 -->
<g id="node14" class="node">
<title>Node13</title>
<g id="a_node14"><a xlink:href="generator_8h.html" target="_top" xlink:title="This file has a definition of the Generator class, which is one of the cores of this program...">
<polygon fill="#ffffff" stroke="#000000" points="165,-112.5 165,-131.5 252,-131.5 252,-112.5 165,-112.5"/>
<text text-anchor="middle" x="208.5" y="-119.5" font-family="Helvetica,sans-Serif" font-size="10.00" fill="#000000">core/generator.h</text>
</a>
</g>
</g>
<!-- Node10&#45;&gt;Node13 -->
<g id="edge15" class="edge">
<title>Node10&#45;&gt;Node13</title>
<path fill="none" stroke="#191970" d="M299.3395,-168.2455C281.9889,-159.4125 256.2099,-146.2887 236.5417,-136.2758"/>
<polygon fill="#191970" stroke="#191970" points="237.9405,-133.0605 227.441,-131.6427 234.7647,-139.2986 237.9405,-133.0605"/>
</g>
<!-- Node22 -->
<g id="node23" class="node">
<title>Node22</title>
<g id="a_node23"><a xlink:href="data__keys_8h.html" target="_top" xlink:title="... ">
<polygon fill="#ffffff" stroke="#000000" points="270.5,-112.5 270.5,-131.5 366.5,-131.5 366.5,-112.5 270.5,-112.5"/>
<text text-anchor="middle" x="318.5" y="-119.5" font-family="Helvetica,sans-Serif" font-size="10.00" fill="#000000">class/data_keys.h</text>
</a>
</g>
</g>
<!-- Node10&#45;&gt;Node22 -->
<g id="edge24" class="edge">
<title>Node10&#45;&gt;Node22</title>
<path fill="none" stroke="#191970" d="M318.5,-168.2455C318.5,-160.9382 318.5,-150.6944 318.5,-141.7046"/>
<polygon fill="#191970" stroke="#191970" points="322.0001,-141.6426 318.5,-131.6427 315.0001,-141.6427 322.0001,-141.6426"/>
</g>
<!-- Node12 -->
<g id="node13" class="node">
<title>Node12</title>
<polygon fill="#ffffff" stroke="#bfbfbf" points="392.5,-56.5 392.5,-75.5 448.5,-75.5 448.5,-56.5 392.5,-56.5"/>
<text text-anchor="middle" x="420.5" y="-63.5" font-family="Helvetica,sans-Serif" font-size="10.00" fill="#000000">Eigen/LU</text>
</g>
<!-- Node11&#45;&gt;Node12 -->
<g id="edge13" class="edge">
<title>Node11&#45;&gt;Node12</title>
<path fill="none" stroke="#191970" d="M420.5,-112.2455C420.5,-104.9382 420.5,-94.6944 420.5,-85.7046"/>
<polygon fill="#191970" stroke="#191970" points="424.0001,-85.6426 420.5,-75.6427 417.0001,-85.6427 424.0001,-85.6426"/>
</g>
<!-- Node14 -->
<g id="node15" class="node">
<title>Node14</title>
<g id="a_node15"><a xlink:href="std_8h.html" target="_top" xlink:title="This file includes a part of C++ Standard Template Library and defines aliases for them...">
<polygon fill="#ffffff" stroke="#000000" points="287.5,-56.5 287.5,-75.5 349.5,-75.5 349.5,-56.5 287.5,-56.5"/>
<text text-anchor="middle" x="318.5" y="-63.5" font-family="Helvetica,sans-Serif" font-size="10.00" fill="#000000">alias/std.h</text>
</a>
</g>
</g>
<!-- Node13&#45;&gt;Node14 -->
<g id="edge16" class="edge">
<title>Node13&#45;&gt;Node14</title>
<path fill="none" stroke="#191970" d="M227.6605,-112.2455C245.0111,-103.4125 270.7901,-90.2887 290.4583,-80.2758"/>
<polygon fill="#191970" stroke="#191970" points="292.2353,-83.2986 299.559,-75.6427 289.0595,-77.0605 292.2353,-83.2986"/>
</g>
<!-- Node20 -->
<g id="node21" class="node">
<title>Node20</title>
<g id="a_node21"><a xlink:href="json_8h.html" target="_top" xlink:title="This file includes nlohmann/json and defines an alias for the JSON type. ">
<polygon fill="#ffffff" stroke="#000000" points="177.5,-56.5 177.5,-75.5 243.5,-75.5 243.5,-56.5 177.5,-56.5"/>
<text text-anchor="middle" x="210.5" y="-63.5" font-family="Helvetica,sans-Serif" font-size="10.00" fill="#000000">alias/json.h</text>
</a>
</g>
</g>
<!-- Node13&#45;&gt;Node20 -->
<g id="edge22" class="edge">
<title>Node13&#45;&gt;Node20</title>
<path fill="none" stroke="#191970" d="M208.8484,-112.2455C209.1093,-104.9382 209.4752,-94.6944 209.7963,-85.7046"/>
<polygon fill="#191970" stroke="#191970" points="213.2964,-85.7613 210.1556,-75.6427 206.3008,-85.5113 213.2964,-85.7613"/>
</g>
<!-- Node15 -->
<g id="node16" class="node">
<title>Node15</title>
<polygon fill="#ffffff" stroke="#bfbfbf" points="425.5,-.5 425.5,-19.5 477.5,-19.5 477.5,-.5 425.5,-.5"/>
<text text-anchor="middle" x="451.5" y="-7.5" font-family="Helvetica,sans-Serif" font-size="10.00" fill="#000000">memory</text>
</g>
<!-- Node14&#45;&gt;Node15 -->
<g id="edge17" class="edge">
<title>Node14&#45;&gt;Node15</title>
<path fill="none" stroke="#191970" d="M341.3635,-56.3733C362.905,-47.3032 395.3838,-33.6279 419.4956,-23.4755"/>
<polygon fill="#191970" stroke="#191970" points="421.0767,-26.6075 428.9348,-19.5011 418.3603,-20.156 421.0767,-26.6075"/>
</g>
<!-- Node16 -->
<g id="node17" class="node">
<title>Node16</title>
<polygon fill="#ffffff" stroke="#bfbfbf" points="496,-.5 496,-19.5 537,-19.5 537,-.5 496,-.5"/>
<text text-anchor="middle" x="516.5" y="-7.5" font-family="Helvetica,sans-Serif" font-size="10.00" fill="#000000">string</text>
</g>
<!-- Node14&#45;&gt;Node16 -->
<g id="edge18" class="edge">
<title>Node14&#45;&gt;Node16</title>
<path fill="none" stroke="#191970" d="M349.6089,-58.0248C381.5254,-49.7236 432.8127,-36.056 486.2463,-19.959"/>
<polygon fill="#191970" stroke="#191970" points="487.3368,-23.2858 495.8904,-17.034 485.305,-16.5871 487.3368,-23.2858"/>
</g>
<!-- Node17 -->
<g id="node18" class="node">
<title>Node17</title>
<polygon fill="#ffffff" stroke="#bfbfbf" points="165.5,-.5 165.5,-19.5 209.5,-19.5 209.5,-.5 165.5,-.5"/>
<text text-anchor="middle" x="187.5" y="-7.5" font-family="Helvetica,sans-Serif" font-size="10.00" fill="#000000">vector</text>
</g>
<!-- Node14&#45;&gt;Node17 -->
<g id="edge19" class="edge">
<title>Node14&#45;&gt;Node17</title>
<path fill="none" stroke="#191970" d="M295.9803,-56.3733C274.7628,-47.3032 242.7724,-33.6279 219.0231,-23.4755"/>
<polygon fill="#191970" stroke="#191970" points="220.2967,-20.2136 209.7258,-19.5011 217.5452,-26.6502 220.2967,-20.2136"/>
</g>
<!-- Node18 -->
<g id="node19" class="node">
<title>Node18</title>
<polygon fill="#ffffff" stroke="#bfbfbf" points="228,-.5 228,-19.5 311,-19.5 311,-.5 228,-.5"/>
<text text-anchor="middle" x="269.5" y="-7.5" font-family="Helvetica,sans-Serif" font-size="10.00" fill="#000000">unordered_map</text>
</g>
<!-- Node14&#45;&gt;Node18 -->
<g id="edge20" class="edge">
<title>Node14&#45;&gt;Node18</title>
<path fill="none" stroke="#191970" d="M309.9649,-56.2455C303.0088,-48.2958 293.0117,-36.8706 284.6949,-27.3656"/>
<polygon fill="#191970" stroke="#191970" points="287.1564,-24.8637 277.9373,-19.6427 281.8884,-29.4732 287.1564,-24.8637"/>
</g>
<!-- Node19 -->
<g id="node20" class="node">
<title>Node19</title>
<polygon fill="#ffffff" stroke="#bfbfbf" points="329.5,-.5 329.5,-19.5 407.5,-19.5 407.5,-.5 329.5,-.5"/>
<text text-anchor="middle" x="368.5" y="-7.5" font-family="Helvetica,sans-Serif" font-size="10.00" fill="#000000">unordered_set</text>
</g>
<!-- Node14&#45;&gt;Node19 -->
<g id="edge21" class="edge">
<title>Node14&#45;&gt;Node19</title>
<path fill="none" stroke="#191970" d="M327.2093,-56.2455C334.3073,-48.2958 344.5084,-36.8706 352.995,-27.3656"/>
<polygon fill="#191970" stroke="#191970" points="355.8411,-29.4331 359.8905,-19.6427 350.6195,-24.771 355.8411,-29.4331"/>
</g>
<!-- Node21 -->
<g id="node22" class="node">
<title>Node21</title>
<polygon fill="#ffffff" stroke="#bfbfbf" points="49.5,-.5 49.5,-19.5 147.5,-19.5 147.5,-.5 49.5,-.5"/>
<text text-anchor="middle" x="98.5" y="-7.5" font-family="Helvetica,sans-Serif" font-size="10.00" fill="#000000">nlohmann/json.hpp</text>
</g>
<!-- Node20&#45;&gt;Node21 -->
<g id="edge23" class="edge">
<title>Node20&#45;&gt;Node21</title>
<path fill="none" stroke="#191970" d="M191.2465,-56.3733C173.4288,-47.4644 146.7253,-34.1127 126.5406,-24.0203"/>
<polygon fill="#191970" stroke="#191970" points="128.0118,-20.8428 117.5022,-19.5011 124.8813,-27.1038 128.0118,-20.8428"/>
</g>
<!-- Node22&#45;&gt;Node14 -->
<g id="edge25" class="edge">
<title>Node22&#45;&gt;Node14</title>
<path fill="none" stroke="#191970" d="M318.5,-112.2455C318.5,-104.9382 318.5,-94.6944 318.5,-85.7046"/>
<polygon fill="#191970" stroke="#191970" points="322.0001,-85.6426 318.5,-75.6427 315.0001,-85.6427 322.0001,-85.6426"/>
</g>
<!-- Node22&#45;&gt;Node20 -->
<g id="edge26" class="edge">
<title>Node22&#45;&gt;Node20</title>
<path fill="none" stroke="#191970" d="M299.6878,-112.2455C282.6527,-103.4125 257.3425,-90.2887 238.0319,-80.2758"/>
<polygon fill="#191970" stroke="#191970" points="239.5853,-77.1388 229.0966,-75.6427 236.363,-83.353 239.5853,-77.1388"/>
</g>
<!-- Node23&#45;&gt;Node10 -->
<g id="edge28" class="edge">
<title>Node23&#45;&gt;Node10</title>
<path fill="none" stroke="#191970" d="M235.9187,-224.2455C251.5485,-215.4928 274.7019,-202.527 292.5185,-192.5496"/>
<polygon fill="#191970" stroke="#191970" points="294.266,-195.5825 301.2809,-187.6427 290.8457,-189.475 294.266,-195.5825"/>
</g>
<!-- Node24&#45;&gt;Node10 -->
<g id="edge30" class="edge">
<title>Node24&#45;&gt;Node10</title>
<path fill="none" stroke="#191970" d="M318.5,-224.2455C318.5,-216.9382 318.5,-206.6944 318.5,-197.7046"/>
<polygon fill="#191970" stroke="#191970" points="322.0001,-197.6426 318.5,-187.6427 315.0001,-197.6427 322.0001,-197.6426"/>
</g>
</g>
</svg>
        <g id="navigator" transform="translate(0 0)" fill="#404254">
                <rect fill="#f2f5e9" fill-opacity="0.5" stroke="#606060" stroke-width=".5" x="0" y="0" width="60" height="60"/>
                <use id="zoomplus" xlink:href="#zoomPlus" x="17" y="9" onmousedown="handleZoom(evt,'in')"/>
                <use id="zoomminus" xlink:href="#zoomMin" x="42" y="9" onmousedown="handleZoom(evt,'out')"/>
                <use id="reset" xlink:href="#resetDef" x="30" y="36" onmousedown="handleReset()"/>
                <g id="arrowUp" xlink:href="#dirArrow" transform="translate(30 24)" onmousedown="handlePan(0,-1)">
                  <use xlink:href="#rim" fill="#404040">
                        <set attributeName="fill" to="#808080" begin="arrowUp.mouseover" end="arrowUp.mouseout"/>
                  </use>
                  <path fill="none" stroke="white" stroke-width="1.5" d="M0,-3.0v7 M-2.5,-0.5L0,-3.0L2.5,-0.5"/>
                </g>
                <g id="arrowRight" xlink:href="#dirArrow" transform="rotate(90) translate(36 -43)" onmousedown="handlePan(1,0)">
                  <use xlink:href="#rim" fill="#404040">
                        <set attributeName="fill" to="#808080" begin="arrowRight.mouseover" end="arrowRight.mouseout"/>
                  </use>
                  <path fill="none" stroke="white" stroke-width="1.5" d="M0,-3.0v7 M-2.5,-0.5L0,-3.0L2.5,-0.5"/>
                </g>
                <g id="arrowDown" xlink:href="#dirArrow" transform="rotate(180) translate(-30 -48)" onmousedown="handlePan(0,1)">
                  <use xlink:href="#rim" fill="#404040">
                        <set attributeName="fill" to="#808080" begin="arrowDown.mouseover" end="arrowDown.mouseout"/>
                  </use>
                  <path fill="none" stroke="white" stroke-width="1.5" d="M0,-3.0v7 M-2.5,-0.5L0,-3.0L2.5,-0.5"/>
                </g>
                <g id="arrowLeft" xlink:href="#dirArrow" transform="rotate(270) translate(-36 17)" onmousedown="handlePan(-1,0)">
                  <use xlink:href="#rim" fill="#404040">
                        <set attributeName="fill" to="#808080" begin="arrowLeft.mouseover" end="arrowLeft.mouseout"/>
                  </use>
                  <path fill="none" stroke="white" stroke-width="1.5" d="M0,-3.0v7 M-2.5,-0.5L0,-3.0L2.5,-0.5"/>
                </g>
        </g>
        <svg viewBox="0 0 15 15" width="100%" height="30px" preserveAspectRatio="xMaxYMin meet">
         <g id="arrow_out" transform="scale(0.3 0.3)">
          <a xlink:href="pybind_2adders_2add__map_8h__incl_org.svg" target="_base">
           <rect id="button" ry="5" rx="5" y="6" x="6" height="38" width="38"
                fill="#f2f5e9" fill-opacity="0.5" stroke="#606060" stroke-width="1.0"/>
           <path id="arrow"
             d="M 11.500037,31.436501 C 11.940474,20.09759 22.043105,11.32322 32.158766,21.979434 L 37.068811,17.246167 C 37.068811,17.246167 37.088388,32 37.088388,32 L 22.160133,31.978069 C 22.160133,31.978069 26.997745,27.140456 26.997745,27.140456 C 18.528582,18.264221 13.291696,25.230495 11.500037,31.436501 z"
             style="fill:#404040;"/>
          </a>
         </g>
        </svg>
</svg>
