<?xml version="1.0" encoding="UTF-8" standalone="no"?>
<!DOCTYPE svg PUBLIC "-//W3C//DTD SVG 1.1//EN"
 "http://www.w3.org/Graphics/SVG/1.1/DTD/svg11.dtd">
<!-- Generated by graphviz version 2.40.1 (20161225.0304)
 -->
<!-- Title: src/pybind/processors/pro_data.h Pages: 1 -->
<svg width="332pt" height="207pt"
 viewBox="0.00 0.00 332.00 207.00" xmlns="http://www.w3.org/2000/svg" xmlns:xlink="http://www.w3.org/1999/xlink">
<g id="graph0" class="graph" transform="scale(1 1) rotate(0) translate(4 203)">
<title>src/pybind/processors/pro_data.h</title>
<polygon fill="#ffffff" stroke="transparent" points="-4,4 -4,-203 328,-203 328,4 -4,4"/>
<!-- Node0 -->
<g id="node1" class="node">
<title>Node0</title>
<polygon fill="#bfbfbf" stroke="#000000" points="75,-168.5 75,-198.5 188,-198.5 188,-168.5 75,-168.5"/>
<text text-anchor="start" x="83" y="-186.5" font-family="Helvetica,sans-Serif" font-size="10.00" fill="#000000">src/pybind/processors</text>
<text text-anchor="middle" x="131.5" y="-175.5" font-family="Helvetica,sans-Serif" font-size="10.00" fill="#000000">/pro_data.h</text>
</g>
<!-- Node1 -->
<g id="node2" class="node">
<title>Node1</title>
<polygon fill="#ffffff" stroke="#bfbfbf" points="0,-112.5 0,-131.5 113,-131.5 113,-112.5 0,-112.5"/>
<text text-anchor="middle" x="56.5" y="-119.5" font-family="Helvetica,sans-Serif" font-size="10.00" fill="#000000">processors/pro_data.h</text>
</g>
<!-- Node0&#45;&gt;Node1 -->
<g id="edge1" class="edge">
<title>Node0&#45;&gt;Node1</title>
<path fill="none" stroke="#191970" d="M112.9607,-168.2977C101.8992,-159.2274 87.8509,-147.7077 76.5347,-138.4285"/>
<polygon fill="#191970" stroke="#191970" points="78.4604,-135.4813 68.5084,-131.8469 74.0219,-140.8942 78.4604,-135.4813"/>
</g>
<!-- Node2 -->
<g id="node3" class="node">
<title>Node2</title>
<g id="a_node3"><a xlink:href="pybind_2processors_2processor_8h.html" target="_top" xlink:title="pybind/processors/processor.h">
<polygon fill="#ffffff" stroke="#000000" points="131.5,-112.5 131.5,-131.5 281.5,-131.5 281.5,-112.5 131.5,-112.5"/>
<text text-anchor="middle" x="206.5" y="-119.5" font-family="Helvetica,sans-Serif" font-size="10.00" fill="#000000">pybind/processors/processor.h</text>
</a>
</g>
</g>
<!-- Node0&#45;&gt;Node2 -->
<g id="edge2" class="edge">
<title>Node0&#45;&gt;Node2</title>
<path fill="none" stroke="#191970" d="M150.0393,-168.2977C161.1008,-159.2274 175.1491,-147.7077 186.4653,-138.4285"/>
<polygon fill="#191970" stroke="#191970" points="188.9781,-140.8942 194.4916,-131.8469 184.5396,-135.4813 188.9781,-140.8942"/>
</g>
<!-- Node3 -->
<g id="node4" class="node">
<title>Node3</title>
<g id="a_node4"><a xlink:href="alias_2pybind_8h.html" target="_top" xlink:title="... ">
<polygon fill="#ffffff" stroke="#000000" points="110,-56.5 110,-75.5 187,-75.5 187,-56.5 110,-56.5"/>
<text text-anchor="middle" x="148.5" y="-63.5" font-family="Helvetica,sans-Serif" font-size="10.00" fill="#000000">alias/pybind.h</text>
</a>
</g>
</g>
<!-- Node2&#45;&gt;Node3 -->
<g id="edge3" class="edge">
<title>Node2&#45;&gt;Node3</title>
<path fill="none" stroke="#191970" d="M196.3972,-112.2455C187.9972,-104.1352 175.8506,-92.4075 165.8916,-82.7919"/>
<polygon fill="#191970" stroke="#191970" points="168.1122,-80.0707 158.4871,-75.6427 163.25,-85.1066 168.1122,-80.0707"/>
</g>
<!-- Node5 -->
<g id="node6" class="node">
<title>Node5</title>
<polygon fill="#ffffff" stroke="#bfbfbf" points="205,-56.5 205,-75.5 324,-75.5 324,-56.5 205,-56.5"/>
<text text-anchor="middle" x="264.5" y="-63.5" font-family="Helvetica,sans-Serif" font-size="10.00" fill="#000000">processors/processor.h</text>
</g>
<!-- Node2&#45;&gt;Node5 -->
<g id="edge5" class="edge">
<title>Node2&#45;&gt;Node5</title>
<path fill="none" stroke="#191970" d="M216.6028,-112.2455C225.0028,-104.1352 237.1494,-92.4075 247.1084,-82.7919"/>
<polygon fill="#191970" stroke="#191970" points="249.75,-85.1066 254.5129,-75.6427 244.8878,-80.0707 249.75,-85.1066"/>
</g>
<!-- Node4 -->
<g id="node5" class="node">
<title>Node4</title>
<polygon fill="#ffffff" stroke="#bfbfbf" points="95.5,-.5 95.5,-19.5 201.5,-19.5 201.5,-.5 95.5,-.5"/>
<text text-anchor="middle" x="148.5" y="-7.5" font-family="Helvetica,sans-Serif" font-size="10.00" fill="#000000">pybind11/pybind11.h</text>
</g>
<!-- Node3&#45;&gt;Node4 -->
<g id="edge4" class="edge">
<title>Node3&#45;&gt;Node4</title>
<path fill="none" stroke="#191970" d="M148.5,-56.2455C148.5,-48.9382 148.5,-38.6944 148.5,-29.7046"/>
<polygon fill="#191970" stroke="#191970" points="152.0001,-29.6426 148.5,-19.6427 145.0001,-29.6427 152.0001,-29.6426"/>
</g>
</g>
</svg>
