<?xml version="1.0" encoding="UTF-8" standalone="no"?>
<!DOCTYPE svg PUBLIC "-//W3C//DTD SVG 1.1//EN"
 "http://www.w3.org/Graphics/SVG/1.1/DTD/svg11.dtd">
<!-- Generated by graphviz version 2.40.1 (20161225.0304)
 -->
<!-- Title: src/pybind/pyadders/add_map.h Pages: 1 -->
<svg width="550pt" height="543pt"
 viewBox="0.00 0.00 550.00 543.00" xmlns="http://www.w3.org/2000/svg" xmlns:xlink="http://www.w3.org/1999/xlink">
<g id="graph0" class="graph" transform="scale(1 1) rotate(0) translate(4 539)">
<title>src/pybind/pyadders/add_map.h</title>
<polygon fill="#ffffff" stroke="transparent" points="-4,4 -4,-539 546,-539 546,4 -4,4"/>
<!-- Node0 -->
<g id="node1" class="node">
<title>Node0</title>
<polygon fill="#bfbfbf" stroke="#000000" points="60.5,-504.5 60.5,-534.5 164.5,-534.5 164.5,-504.5 60.5,-504.5"/>
<text text-anchor="start" x="68.5" y="-522.5" font-family="Helvetica,sans-Serif" font-size="10.00" fill="#000000">src/pybind/pyadders</text>
<text text-anchor="middle" x="112.5" y="-511.5" font-family="Helvetica,sans-Serif" font-size="10.00" fill="#000000">/add_map.h</text>
</g>
<!-- Node1 -->
<g id="node2" class="node">
<title>Node1</title>
<polygon fill="#ffffff" stroke="#bfbfbf" points="0,-448.5 0,-467.5 97,-467.5 97,-448.5 0,-448.5"/>
<text text-anchor="middle" x="48.5" y="-455.5" font-family="Helvetica,sans-Serif" font-size="10.00" fill="#000000">adders/add_map.h</text>
</g>
<!-- Node0&#45;&gt;Node1 -->
<g id="edge1" class="edge">
<title>Node0&#45;&gt;Node1</title>
<path fill="none" stroke="#191970" d="M96.6798,-504.2977C87.4258,-495.4052 75.7219,-484.1586 66.167,-474.9769"/>
<polygon fill="#191970" stroke="#191970" points="68.3828,-472.2521 58.7472,-467.8469 63.5326,-477.2995 68.3828,-472.2521"/>
</g>
<!-- Node2 -->
<g id="node3" class="node">
<title>Node2</title>
<g id="a_node3"><a xlink:href="pybind_2pyadders_2adder_8h.html" target="_top" xlink:title="This file has a function to bind Adder class to Python. ">
<polygon fill="#ffffff" stroke="#000000" points="115,-448.5 115,-467.5 238,-467.5 238,-448.5 115,-448.5"/>
<text text-anchor="middle" x="176.5" y="-455.5" font-family="Helvetica,sans-Serif" font-size="10.00" fill="#000000">pybind/pyadders/adder.h</text>
</a>
</g>
</g>
<!-- Node0&#45;&gt;Node2 -->
<g id="edge2" class="edge">
<title>Node0&#45;&gt;Node2</title>
<path fill="none" stroke="#191970" d="M128.3202,-504.2977C137.5742,-495.4052 149.2781,-484.1586 158.833,-474.9769"/>
<polygon fill="#191970" stroke="#191970" points="161.4674,-477.2995 166.2528,-467.8469 156.6172,-472.2521 161.4674,-477.2995"/>
</g>
<!-- Node3 -->
<g id="node4" class="node">
<title>Node3</title>
<polygon fill="#ffffff" stroke="#bfbfbf" points="85,-392.5 85,-411.5 166,-411.5 166,-392.5 85,-392.5"/>
<text text-anchor="middle" x="125.5" y="-399.5" font-family="Helvetica,sans-Serif" font-size="10.00" fill="#000000">adders/adder.h</text>
</g>
<!-- Node2&#45;&gt;Node3 -->
<g id="edge3" class="edge">
<title>Node2&#45;&gt;Node3</title>
<path fill="none" stroke="#191970" d="M167.6165,-448.2455C160.3034,-440.2155 149.7609,-428.6394 141.0533,-419.0781"/>
<polygon fill="#191970" stroke="#191970" points="143.6028,-416.6795 134.2817,-411.6427 138.4273,-421.3928 143.6028,-416.6795"/>
</g>
<!-- Node4 -->
<g id="node5" class="node">
<title>Node4</title>
<g id="a_node5"><a xlink:href="pybind_2updater_8h.html" target="_top" xlink:title="This file is for binding Updater class to Python. ">
<polygon fill="#ffffff" stroke="#000000" points="184,-392.5 184,-411.5 273,-411.5 273,-392.5 184,-392.5"/>
<text text-anchor="middle" x="228.5" y="-399.5" font-family="Helvetica,sans-Serif" font-size="10.00" fill="#000000">pybind/updater.h</text>
</a>
</g>
</g>
<!-- Node2&#45;&gt;Node4 -->
<g id="edge4" class="edge">
<title>Node2&#45;&gt;Node4</title>
<path fill="none" stroke="#191970" d="M185.5577,-448.2455C193.0142,-440.2155 203.7634,-428.6394 212.6417,-419.0781"/>
<polygon fill="#191970" stroke="#191970" points="215.3063,-421.3522 219.5461,-411.6427 210.1768,-416.589 215.3063,-421.3522"/>
</g>
<!-- Node5 -->
<g id="node6" class="node">
<title>Node5</title>
<g id="a_node6"><a xlink:href="alias_2pybind_8h.html" target="_top" xlink:title="This file includes pybind11 and defines an alias for the namespace pybind11. ">
<polygon fill="#ffffff" stroke="#000000" points="75,-112.5 75,-131.5 152,-131.5 152,-112.5 75,-112.5"/>
<text text-anchor="middle" x="113.5" y="-119.5" font-family="Helvetica,sans-Serif" font-size="10.00" fill="#000000">alias/pybind.h</text>
</a>
</g>
</g>
<!-- Node4&#45;&gt;Node5 -->
<g id="edge5" class="edge">
<title>Node4&#45;&gt;Node5</title>
<path fill="none" stroke="#191970" d="M211.5159,-392.368C184.1905,-375.4638 133.5,-337.6798 133.5,-290 133.5,-290 133.5,-290 133.5,-234 133.5,-201.2193 125.0945,-163.8705 119.1819,-141.6533"/>
<polygon fill="#191970" stroke="#191970" points="122.491,-140.4878 116.4511,-131.7832 115.7445,-142.3545 122.491,-140.4878"/>
</g>
<!-- Node7 -->
<g id="node8" class="node">
<title>Node7</title>
<g id="a_node8"><a xlink:href="core_2updater_8h.html" target="_top" xlink:title="This file has a definition of the Updater class, which is one of the cores of this program...">
<polygon fill="#ffffff" stroke="#000000" points="284,-336.5 284,-355.5 363,-355.5 363,-336.5 284,-336.5"/>
<text text-anchor="middle" x="323.5" y="-343.5" font-family="Helvetica,sans-Serif" font-size="10.00" fill="#000000">core/updater.h</text>
</a>
</g>
</g>
<!-- Node4&#45;&gt;Node7 -->
<g id="edge7" class="edge">
<title>Node4&#45;&gt;Node7</title>
<path fill="none" stroke="#191970" d="M245.0477,-392.2455C259.7599,-383.5731 281.4888,-370.7645 298.3505,-360.825"/>
<polygon fill="#191970" stroke="#191970" points="300.3046,-363.736 307.1419,-355.6427 296.7498,-357.7057 300.3046,-363.736"/>
</g>
<!-- Node6 -->
<g id="node7" class="node">
<title>Node6</title>
<polygon fill="#ffffff" stroke="#bfbfbf" points="58.5,-56.5 58.5,-75.5 164.5,-75.5 164.5,-56.5 58.5,-56.5"/>
<text text-anchor="middle" x="111.5" y="-63.5" font-family="Helvetica,sans-Serif" font-size="10.00" fill="#000000">pybind11/pybind11.h</text>
</g>
<!-- Node5&#45;&gt;Node6 -->
<g id="edge6" class="edge">
<title>Node5&#45;&gt;Node6</title>
<path fill="none" stroke="#191970" d="M113.1516,-112.2455C112.8907,-104.9382 112.5248,-94.6944 112.2037,-85.7046"/>
<polygon fill="#191970" stroke="#191970" points="115.6992,-85.5113 111.8444,-75.6427 108.7036,-85.7613 115.6992,-85.5113"/>
</g>
<!-- Node8 -->
<g id="node9" class="node">
<title>Node8</title>
<polygon fill="#ffffff" stroke="#bfbfbf" points="479.5,-112.5 479.5,-131.5 523.5,-131.5 523.5,-112.5 479.5,-112.5"/>
<text text-anchor="middle" x="501.5" y="-119.5" font-family="Helvetica,sans-Serif" font-size="10.00" fill="#000000">omp.h</text>
</g>
<!-- Node7&#45;&gt;Node8 -->
<g id="edge8" class="edge">
<title>Node7&#45;&gt;Node8</title>
<path fill="none" stroke="#191970" d="M337.0431,-336.3144C348.7503,-327.575 365.7492,-313.9793 378.5,-300 426.8826,-246.9558 471.583,-173.8959 491.1296,-140.2767"/>
<polygon fill="#191970" stroke="#191970" points="494.2083,-141.9441 496.1622,-131.531 488.141,-138.4528 494.2083,-141.9441"/>
</g>
<!-- Node9 -->
<g id="node10" class="node">
<title>Node9</title>
<g id="a_node10"><a xlink:href="generators_8h.html" target="_top" xlink:title="This file includes all the header files of subclasses of Generator. ">
<polygon fill="#ffffff" stroke="#000000" points="277.5,-280.5 277.5,-299.5 369.5,-299.5 369.5,-280.5 277.5,-280.5"/>
<text text-anchor="middle" x="323.5" y="-287.5" font-family="Helvetica,sans-Serif" font-size="10.00" fill="#000000">core/generators.h</text>
</a>
</g>
</g>
<!-- Node7&#45;&gt;Node9 -->
<g id="edge9" class="edge">
<title>Node7&#45;&gt;Node9</title>
<path fill="none" stroke="#191970" d="M323.5,-336.2455C323.5,-328.9382 323.5,-318.6944 323.5,-309.7046"/>
<polygon fill="#191970" stroke="#191970" points="327.0001,-309.6426 323.5,-299.6427 320.0001,-309.6427 327.0001,-309.6426"/>
</g>
<!-- Node10 -->
<g id="node11" class="node">
<title>Node10</title>
<g id="a_node11"><a xlink:href="core_2element_8h.html" target="_top" xlink:title="This file has a definition of the Element class, which is one of the cores of this program...">
<polygon fill="#ffffff" stroke="#000000" points="283,-168.5 283,-187.5 364,-187.5 364,-168.5 283,-168.5"/>
<text text-anchor="middle" x="323.5" y="-175.5" font-family="Helvetica,sans-Serif" font-size="10.00" fill="#000000">core/element.h</text>
</a>
</g>
</g>
<!-- Node9&#45;&gt;Node10 -->
<g id="edge10" class="edge">
<title>Node9&#45;&gt;Node10</title>
<path fill="none" stroke="#191970" d="M339.3247,-280.4104C357.0741,-268.3201 382.1935,-246.3956 372.5,-224 367.2663,-211.9081 357.1158,-201.5335 347.4045,-193.7139"/>
<polygon fill="#191970" stroke="#191970" points="349.2234,-190.7038 339.118,-187.5209 345.0329,-196.3109 349.2234,-190.7038"/>
</g>
<!-- Node23 -->
<g id="node24" class="node">
<title>Node23</title>
<g id="a_node24"><a xlink:href="gen__dict_8h.html" target="_top" xlink:title="This file has a definition of the GenDict class. ">
<polygon fill="#ffffff" stroke="#000000" points="182,-224.5 182,-243.5 265,-243.5 265,-224.5 182,-224.5"/>
<text text-anchor="middle" x="223.5" y="-231.5" font-family="Helvetica,sans-Serif" font-size="10.00" fill="#000000">core/gen_dict.h</text>
</a>
</g>
</g>
<!-- Node9&#45;&gt;Node23 -->
<g id="edge27" class="edge">
<title>Node9&#45;&gt;Node23</title>
<path fill="none" stroke="#191970" d="M306.0813,-280.2455C290.4515,-271.4928 267.2981,-258.527 249.4815,-248.5496"/>
<polygon fill="#191970" stroke="#191970" points="251.1543,-245.475 240.7191,-243.6427 247.734,-251.5825 251.1543,-245.475"/>
</g>
<!-- Node24 -->
<g id="node25" class="node">
<title>Node24</title>
<g id="a_node25"><a xlink:href="gen__list_8h.html" target="_top" xlink:title="This file has a definition of the GenList class. ">
<polygon fill="#ffffff" stroke="#000000" points="283.5,-224.5 283.5,-243.5 363.5,-243.5 363.5,-224.5 283.5,-224.5"/>
<text text-anchor="middle" x="323.5" y="-231.5" font-family="Helvetica,sans-Serif" font-size="10.00" fill="#000000">core/gen_list.h</text>
</a>
</g>
</g>
<!-- Node9&#45;&gt;Node24 -->
<g id="edge29" class="edge">
<title>Node9&#45;&gt;Node24</title>
<path fill="none" stroke="#191970" d="M323.5,-280.2455C323.5,-272.9382 323.5,-262.6944 323.5,-253.7046"/>
<polygon fill="#191970" stroke="#191970" points="327.0001,-253.6426 323.5,-243.6427 320.0001,-253.6427 327.0001,-253.6426"/>
</g>
<!-- Node10&#45;&gt;Node5 -->
<g id="edge14" class="edge">
<title>Node10&#45;&gt;Node5</title>
<path fill="none" stroke="#191970" d="M287.3997,-168.3733C251.8752,-158.9001 197.512,-144.4032 159.0381,-134.1435"/>
<polygon fill="#191970" stroke="#191970" points="159.6934,-130.696 149.1292,-131.5011 157.8897,-137.4596 159.6934,-130.696"/>
</g>
<!-- Node10&#45;&gt;Node8 -->
<g id="edge11" class="edge">
<title>Node10&#45;&gt;Node8</title>
<path fill="none" stroke="#191970" d="M354.2133,-168.475C381.9937,-159.8406 424.2723,-146.6533 469.7445,-132.2226"/>
<polygon fill="#191970" stroke="#191970" points="471.0215,-135.4894 479.4922,-129.1256 468.9018,-128.818 471.0215,-135.4894"/>
</g>
<!-- Node11 -->
<g id="node12" class="node">
<title>Node11</title>
<g id="a_node12"><a xlink:href="eigen_8h.html" target="_top" xlink:title="This file includes Eigen and defines some aliases for the Eigen&#45;Vector, Matrix and Array...">
<polygon fill="#ffffff" stroke="#000000" points="390,-112.5 390,-131.5 461,-131.5 461,-112.5 390,-112.5"/>
<text text-anchor="middle" x="425.5" y="-119.5" font-family="Helvetica,sans-Serif" font-size="10.00" fill="#000000">alias/eigen.h</text>
</a>
</g>
</g>
<!-- Node10&#45;&gt;Node11 -->
<g id="edge12" class="edge">
<title>Node10&#45;&gt;Node11</title>
<path fill="none" stroke="#191970" d="M341.267,-168.2455C357.2095,-159.4928 380.8259,-146.527 398.9989,-136.5496"/>
<polygon fill="#191970" stroke="#191970" points="400.8552,-139.5233 407.9366,-131.6427 397.4863,-133.3873 400.8552,-139.5233"/>
</g>
<!-- Node13 -->
<g id="node14" class="node">
<title>Node13</title>
<g id="a_node14"><a xlink:href="generator_8h.html" target="_top" xlink:title="This file has a definition of the Generator class, which is one of the cores of this program...">
<polygon fill="#ffffff" stroke="#000000" points="170,-112.5 170,-131.5 257,-131.5 257,-112.5 170,-112.5"/>
<text text-anchor="middle" x="213.5" y="-119.5" font-family="Helvetica,sans-Serif" font-size="10.00" fill="#000000">core/generator.h</text>
</a>
</g>
</g>
<!-- Node10&#45;&gt;Node13 -->
<g id="edge15" class="edge">
<title>Node10&#45;&gt;Node13</title>
<path fill="none" stroke="#191970" d="M304.3395,-168.2455C286.9889,-159.4125 261.2099,-146.2887 241.5417,-136.2758"/>
<polygon fill="#191970" stroke="#191970" points="242.9405,-133.0605 232.441,-131.6427 239.7647,-139.2986 242.9405,-133.0605"/>
</g>
<!-- Node22 -->
<g id="node23" class="node">
<title>Node22</title>
<g id="a_node23"><a xlink:href="data__keys_8h.html" target="_top" xlink:title="This file has a definition of the DataKeys class, which is owned by Element class. ">
<polygon fill="#ffffff" stroke="#000000" points="275.5,-112.5 275.5,-131.5 371.5,-131.5 371.5,-112.5 275.5,-112.5"/>
<text text-anchor="middle" x="323.5" y="-119.5" font-family="Helvetica,sans-Serif" font-size="10.00" fill="#000000">class/data_keys.h</text>
</a>
</g>
</g>
<!-- Node10&#45;&gt;Node22 -->
<g id="edge24" class="edge">
<title>Node10&#45;&gt;Node22</title>
<path fill="none" stroke="#191970" d="M323.5,-168.2455C323.5,-160.9382 323.5,-150.6944 323.5,-141.7046"/>
<polygon fill="#191970" stroke="#191970" points="327.0001,-141.6426 323.5,-131.6427 320.0001,-141.6427 327.0001,-141.6426"/>
</g>
<!-- Node12 -->
<g id="node13" class="node">
<title>Node12</title>
<polygon fill="#ffffff" stroke="#bfbfbf" points="397.5,-56.5 397.5,-75.5 453.5,-75.5 453.5,-56.5 397.5,-56.5"/>
<text text-anchor="middle" x="425.5" y="-63.5" font-family="Helvetica,sans-Serif" font-size="10.00" fill="#000000">Eigen/LU</text>
</g>
<!-- Node11&#45;&gt;Node12 -->
<g id="edge13" class="edge">
<title>Node11&#45;&gt;Node12</title>
<path fill="none" stroke="#191970" d="M425.5,-112.2455C425.5,-104.9382 425.5,-94.6944 425.5,-85.7046"/>
<polygon fill="#191970" stroke="#191970" points="429.0001,-85.6426 425.5,-75.6427 422.0001,-85.6427 429.0001,-85.6426"/>
</g>
<!-- Node14 -->
<g id="node15" class="node">
<title>Node14</title>
<g id="a_node15"><a xlink:href="std_8h.html" target="_top" xlink:title="This file includes a part of C++ Standard Template Library and defines aliases for them...">
<polygon fill="#ffffff" stroke="#000000" points="292.5,-56.5 292.5,-75.5 354.5,-75.5 354.5,-56.5 292.5,-56.5"/>
<text text-anchor="middle" x="323.5" y="-63.5" font-family="Helvetica,sans-Serif" font-size="10.00" fill="#000000">alias/std.h</text>
</a>
</g>
</g>
<!-- Node13&#45;&gt;Node14 -->
<g id="edge16" class="edge">
<title>Node13&#45;&gt;Node14</title>
<path fill="none" stroke="#191970" d="M232.6605,-112.2455C250.0111,-103.4125 275.7901,-90.2887 295.4583,-80.2758"/>
<polygon fill="#191970" stroke="#191970" points="297.2353,-83.2986 304.559,-75.6427 294.0595,-77.0605 297.2353,-83.2986"/>
</g>
<!-- Node20 -->
<g id="node21" class="node">
<title>Node20</title>
<g id="a_node21"><a xlink:href="json_8h.html" target="_top" xlink:title="This file includes nlohmann/json and defines an alias for the JSON type. ">
<polygon fill="#ffffff" stroke="#000000" points="182.5,-56.5 182.5,-75.5 248.5,-75.5 248.5,-56.5 182.5,-56.5"/>
<text text-anchor="middle" x="215.5" y="-63.5" font-family="Helvetica,sans-Serif" font-size="10.00" fill="#000000">alias/json.h</text>
</a>
</g>
</g>
<!-- Node13&#45;&gt;Node20 -->
<g id="edge22" class="edge">
<title>Node13&#45;&gt;Node20</title>
<path fill="none" stroke="#191970" d="M213.8484,-112.2455C214.1093,-104.9382 214.4752,-94.6944 214.7963,-85.7046"/>
<polygon fill="#191970" stroke="#191970" points="218.2964,-85.7613 215.1556,-75.6427 211.3008,-85.5113 218.2964,-85.7613"/>
</g>
<!-- Node15 -->
<g id="node16" class="node">
<title>Node15</title>
<polygon fill="#ffffff" stroke="#bfbfbf" points="430.5,-.5 430.5,-19.5 482.5,-19.5 482.5,-.5 430.5,-.5"/>
<text text-anchor="middle" x="456.5" y="-7.5" font-family="Helvetica,sans-Serif" font-size="10.00" fill="#000000">memory</text>
</g>
<!-- Node14&#45;&gt;Node15 -->
<g id="edge17" class="edge">
<title>Node14&#45;&gt;Node15</title>
<path fill="none" stroke="#191970" d="M346.3635,-56.3733C367.905,-47.3032 400.3838,-33.6279 424.4956,-23.4755"/>
<polygon fill="#191970" stroke="#191970" points="426.0767,-26.6075 433.9348,-19.5011 423.3603,-20.156 426.0767,-26.6075"/>
</g>
<!-- Node16 -->
<g id="node17" class="node">
<title>Node16</title>
<polygon fill="#ffffff" stroke="#bfbfbf" points="501,-.5 501,-19.5 542,-19.5 542,-.5 501,-.5"/>
<text text-anchor="middle" x="521.5" y="-7.5" font-family="Helvetica,sans-Serif" font-size="10.00" fill="#000000">string</text>
</g>
<!-- Node14&#45;&gt;Node16 -->
<g id="edge18" class="edge">
<title>Node14&#45;&gt;Node16</title>
<path fill="none" stroke="#191970" d="M354.6089,-58.0248C386.5254,-49.7236 437.8127,-36.056 491.2463,-19.959"/>
<polygon fill="#191970" stroke="#191970" points="492.3368,-23.2858 500.8904,-17.034 490.305,-16.5871 492.3368,-23.2858"/>
</g>
<!-- Node17 -->
<g id="node18" class="node">
<title>Node17</title>
<polygon fill="#ffffff" stroke="#bfbfbf" points="170.5,-.5 170.5,-19.5 214.5,-19.5 214.5,-.5 170.5,-.5"/>
<text text-anchor="middle" x="192.5" y="-7.5" font-family="Helvetica,sans-Serif" font-size="10.00" fill="#000000">vector</text>
</g>
<!-- Node14&#45;&gt;Node17 -->
<g id="edge19" class="edge">
<title>Node14&#45;&gt;Node17</title>
<path fill="none" stroke="#191970" d="M300.9803,-56.3733C279.7628,-47.3032 247.7724,-33.6279 224.0231,-23.4755"/>
<polygon fill="#191970" stroke="#191970" points="225.2967,-20.2136 214.7258,-19.5011 222.5452,-26.6502 225.2967,-20.2136"/>
</g>
<!-- Node18 -->
<g id="node19" class="node">
<title>Node18</title>
<polygon fill="#ffffff" stroke="#bfbfbf" points="233,-.5 233,-19.5 316,-19.5 316,-.5 233,-.5"/>
<text text-anchor="middle" x="274.5" y="-7.5" font-family="Helvetica,sans-Serif" font-size="10.00" fill="#000000">unordered_map</text>
</g>
<!-- Node14&#45;&gt;Node18 -->
<g id="edge20" class="edge">
<title>Node14&#45;&gt;Node18</title>
<path fill="none" stroke="#191970" d="M314.9649,-56.2455C308.0088,-48.2958 298.0117,-36.8706 289.6949,-27.3656"/>
<polygon fill="#191970" stroke="#191970" points="292.1564,-24.8637 282.9373,-19.6427 286.8884,-29.4732 292.1564,-24.8637"/>
</g>
<!-- Node19 -->
<g id="node20" class="node">
<title>Node19</title>
<polygon fill="#ffffff" stroke="#bfbfbf" points="334.5,-.5 334.5,-19.5 412.5,-19.5 412.5,-.5 334.5,-.5"/>
<text text-anchor="middle" x="373.5" y="-7.5" font-family="Helvetica,sans-Serif" font-size="10.00" fill="#000000">unordered_set</text>
</g>
<!-- Node14&#45;&gt;Node19 -->
<g id="edge21" class="edge">
<title>Node14&#45;&gt;Node19</title>
<path fill="none" stroke="#191970" d="M332.2093,-56.2455C339.3073,-48.2958 349.5084,-36.8706 357.995,-27.3656"/>
<polygon fill="#191970" stroke="#191970" points="360.8411,-29.4331 364.8905,-19.6427 355.6195,-24.771 360.8411,-29.4331"/>
</g>
<!-- Node21 -->
<g id="node22" class="node">
<title>Node21</title>
<polygon fill="#ffffff" stroke="#bfbfbf" points="54.5,-.5 54.5,-19.5 152.5,-19.5 152.5,-.5 54.5,-.5"/>
<text text-anchor="middle" x="103.5" y="-7.5" font-family="Helvetica,sans-Serif" font-size="10.00" fill="#000000">nlohmann/json.hpp</text>
</g>
<!-- Node20&#45;&gt;Node21 -->
<g id="edge23" class="edge">
<title>Node20&#45;&gt;Node21</title>
<path fill="none" stroke="#191970" d="M196.2465,-56.3733C178.4288,-47.4644 151.7253,-34.1127 131.5406,-24.0203"/>
<polygon fill="#191970" stroke="#191970" points="133.0118,-20.8428 122.5022,-19.5011 129.8813,-27.1038 133.0118,-20.8428"/>
</g>
<!-- Node22&#45;&gt;Node14 -->
<g id="edge25" class="edge">
<title>Node22&#45;&gt;Node14</title>
<path fill="none" stroke="#191970" d="M323.5,-112.2455C323.5,-104.9382 323.5,-94.6944 323.5,-85.7046"/>
<polygon fill="#191970" stroke="#191970" points="327.0001,-85.6426 323.5,-75.6427 320.0001,-85.6427 327.0001,-85.6426"/>
</g>
<!-- Node22&#45;&gt;Node20 -->
<g id="edge26" class="edge">
<title>Node22&#45;&gt;Node20</title>
<path fill="none" stroke="#191970" d="M304.6878,-112.2455C287.6527,-103.4125 262.3425,-90.2887 243.0319,-80.2758"/>
<polygon fill="#191970" stroke="#191970" points="244.5853,-77.1388 234.0966,-75.6427 241.363,-83.353 244.5853,-77.1388"/>
</g>
<!-- Node23&#45;&gt;Node10 -->
<g id="edge28" class="edge">
<title>Node23&#45;&gt;Node10</title>
<path fill="none" stroke="#191970" d="M240.9187,-224.2455C256.5485,-215.4928 279.7019,-202.527 297.5185,-192.5496"/>
<polygon fill="#191970" stroke="#191970" points="299.266,-195.5825 306.2809,-187.6427 295.8457,-189.475 299.266,-195.5825"/>
</g>
<!-- Node24&#45;&gt;Node10 -->
<g id="edge30" class="edge">
<title>Node24&#45;&gt;Node10</title>
<path fill="none" stroke="#191970" d="M323.5,-224.2455C323.5,-216.9382 323.5,-206.6944 323.5,-197.7046"/>
<polygon fill="#191970" stroke="#191970" points="327.0001,-197.6426 323.5,-187.6427 320.0001,-197.6427 327.0001,-197.6426"/>
</g>
</g>
</svg>
