<?xml version="1.0" encoding="UTF-8" standalone="no"?>
<!DOCTYPE svg PUBLIC "-//W3C//DTD SVG 1.1//EN"
 "http://www.w3.org/Graphics/SVG/1.1/DTD/svg11.dtd">
<!-- Generated by graphviz version 2.40.1 (20161225.0304)
 -->
<!-- Title: src/pybind/starters/starter.h Pages: 1 -->
<svg width="708pt" height="218pt"
 viewBox="0.00 0.00 707.68 218.00" xmlns="http://www.w3.org/2000/svg" xmlns:xlink="http://www.w3.org/1999/xlink">
<g id="graph0" class="graph" transform="scale(1 1) rotate(0) translate(4 214)">
<title>src/pybind/starters/starter.h</title>
<polygon fill="#ffffff" stroke="transparent" points="-4,4 -4,-214 703.6797,-214 703.6797,4 -4,4"/>
<!-- Node23 -->
<g id="node1" class="node">
<title>Node23</title>
<polygon fill="#bfbfbf" stroke="#000000" points="247.6797,-179.5 247.6797,-209.5 345.6797,-209.5 345.6797,-179.5 247.6797,-179.5"/>
<text text-anchor="start" x="255.6797" y="-197.5" font-family="Helvetica,sans-Serif" font-size="10.00" fill="#000000">src/pybind/starters</text>
<text text-anchor="middle" x="296.6797" y="-186.5" font-family="Helvetica,sans-Serif" font-size="10.00" fill="#000000">/starter.h</text>
</g>
<!-- Node24 -->
<g id="node2" class="node">
<title>Node24</title>
<g id="a_node2"><a xlink:href="pybind_8h.html" target="_top" xlink:title="This file includes all the header files containing definitions of functions to bind C++ and Python...">
<polygon fill="#ffffff" stroke="#000000" points="261.6797,-56.5 261.6797,-75.5 331.6797,-75.5 331.6797,-56.5 261.6797,-56.5"/>
<text text-anchor="middle" x="296.6797" y="-63.5" font-family="Helvetica,sans-Serif" font-size="10.00" fill="#000000">src/pybind.h</text>
</a>
</g>
</g>
<!-- Node23&#45;&gt;Node24 -->
<g id="edge1" class="edge">
<title>Node23&#45;&gt;Node24</title>
<path fill="none" stroke="#191970" d="M237.2316,-192.627C161.0921,-188.8317 35.5005,-177.3899 6.6797,-143 -2.17,-132.4402 -2.267,-122.4777 6.6797,-112 23.086,-92.7862 187.9998,-75.7443 261.5693,-69.0332"/>
<polygon fill="#191970" stroke="#191970" points="237.4792,-196.1423 247.6318,-193.1134 237.8062,-189.15 237.4792,-196.1423"/>
</g>
<!-- Node26 -->
<g id="node4" class="node">
<title>Node26</title>
<g id="a_node4"><a xlink:href="pybind_2starters_2sta__beads_8h.html" target="_top" xlink:title="src/pybind/starters\l/sta_beads.h">
<polygon fill="#ffffff" stroke="#000000" points="15.6797,-112.5 15.6797,-142.5 113.6797,-142.5 113.6797,-112.5 15.6797,-112.5"/>
<text text-anchor="start" x="23.6797" y="-130.5" font-family="Helvetica,sans-Serif" font-size="10.00" fill="#000000">src/pybind/starters</text>
<text text-anchor="middle" x="64.6797" y="-119.5" font-family="Helvetica,sans-Serif" font-size="10.00" fill="#000000">/sta_beads.h</text>
</a>
</g>
</g>
<!-- Node23&#45;&gt;Node26 -->
<g id="edge3" class="edge">
<title>Node23&#45;&gt;Node26</title>
<path fill="none" stroke="#191970" d="M237.4923,-177.4071C199.1979,-166.3479 149.9344,-152.121 113.8101,-141.6885"/>
<polygon fill="#191970" stroke="#191970" points="236.9,-180.879 247.4785,-180.291 238.8422,-174.1538 236.9,-180.879"/>
</g>
<!-- Node27 -->
<g id="node5" class="node">
<title>Node27</title>
<g id="a_node5"><a xlink:href="pybind_2starters_2sta__custom_8h.html" target="_top" xlink:title="src/pybind/starters\l/sta_custom.h">
<polygon fill="#ffffff" stroke="#000000" points="131.6797,-112.5 131.6797,-142.5 229.6797,-142.5 229.6797,-112.5 131.6797,-112.5"/>
<text text-anchor="start" x="139.6797" y="-130.5" font-family="Helvetica,sans-Serif" font-size="10.00" fill="#000000">src/pybind/starters</text>
<text text-anchor="middle" x="180.6797" y="-119.5" font-family="Helvetica,sans-Serif" font-size="10.00" fill="#000000">/sta_custom.h</text>
</a>
</g>
</g>
<!-- Node23&#45;&gt;Node27 -->
<g id="edge5" class="edge">
<title>Node23&#45;&gt;Node27</title>
<path fill="none" stroke="#191970" d="M261.8038,-174.3561C244.2192,-164.1995 223.2436,-152.0843 207.0269,-142.7177"/>
<polygon fill="#191970" stroke="#191970" points="260.2371,-177.4931 270.6471,-179.4639 263.7383,-171.4315 260.2371,-177.4931"/>
</g>
<!-- Node28 -->
<g id="node6" class="node">
<title>Node28</title>
<g id="a_node6"><a xlink:href="pybind_2starters_2sta__dump_8h.html" target="_top" xlink:title="src/pybind/starters\l/sta_dump.h">
<polygon fill="#ffffff" stroke="#000000" points="247.6797,-112.5 247.6797,-142.5 345.6797,-142.5 345.6797,-112.5 247.6797,-112.5"/>
<text text-anchor="start" x="255.6797" y="-130.5" font-family="Helvetica,sans-Serif" font-size="10.00" fill="#000000">src/pybind/starters</text>
<text text-anchor="middle" x="296.6797" y="-119.5" font-family="Helvetica,sans-Serif" font-size="10.00" fill="#000000">/sta_dump.h</text>
</a>
</g>
</g>
<!-- Node23&#45;&gt;Node28 -->
<g id="edge7" class="edge">
<title>Node23&#45;&gt;Node28</title>
<path fill="none" stroke="#191970" d="M296.6797,-169.0249C296.6797,-160.128 296.6797,-150.4287 296.6797,-142.6432"/>
<polygon fill="#191970" stroke="#191970" points="293.1798,-169.2966 296.6797,-179.2967 300.1798,-169.2967 293.1798,-169.2966"/>
</g>
<!-- Node29 -->
<g id="node7" class="node">
<title>Node29</title>
<g id="a_node7"><a xlink:href="pybind_2starters_2sta__molecules_8h.html" target="_top" xlink:title="src/pybind/starters\l/sta_molecules.h">
<polygon fill="#ffffff" stroke="#000000" points="363.6797,-112.5 363.6797,-142.5 461.6797,-142.5 461.6797,-112.5 363.6797,-112.5"/>
<text text-anchor="start" x="371.6797" y="-130.5" font-family="Helvetica,sans-Serif" font-size="10.00" fill="#000000">src/pybind/starters</text>
<text text-anchor="middle" x="412.6797" y="-119.5" font-family="Helvetica,sans-Serif" font-size="10.00" fill="#000000">/sta_molecules.h</text>
</a>
</g>
</g>
<!-- Node23&#45;&gt;Node29 -->
<g id="edge9" class="edge">
<title>Node23&#45;&gt;Node29</title>
<path fill="none" stroke="#191970" d="M331.5557,-174.3561C349.1403,-164.1995 370.1159,-152.0843 386.3326,-142.7177"/>
<polygon fill="#191970" stroke="#191970" points="329.6212,-171.4315 322.7124,-179.4639 333.1223,-177.4931 329.6212,-171.4315"/>
</g>
<!-- Node30 -->
<g id="node8" class="node">
<title>Node30</title>
<g id="a_node8"><a xlink:href="pybind_2starters_2sta__dump__atoms_8h.html" target="_top" xlink:title="src/pybind/starters\l/sta_dump_atoms.h">
<polygon fill="#ffffff" stroke="#000000" points="480.1797,-112.5 480.1797,-142.5 583.1797,-142.5 583.1797,-112.5 480.1797,-112.5"/>
<text text-anchor="start" x="488.1797" y="-130.5" font-family="Helvetica,sans-Serif" font-size="10.00" fill="#000000">src/pybind/starters</text>
<text text-anchor="middle" x="531.6797" y="-119.5" font-family="Helvetica,sans-Serif" font-size="10.00" fill="#000000">/sta_dump_atoms.h</text>
</a>
</g>
</g>
<!-- Node23&#45;&gt;Node30 -->
<g id="edge11" class="edge">
<title>Node23&#45;&gt;Node30</title>
<path fill="none" stroke="#191970" d="M355.9127,-177.6123C394.1473,-166.7114 443.4027,-152.6683 480.0399,-142.2229"/>
<polygon fill="#191970" stroke="#191970" points="354.6006,-174.3469 345.9434,-180.4546 356.5199,-181.0786 354.6006,-174.3469"/>
</g>
<!-- Node31 -->
<g id="node9" class="node">
<title>Node31</title>
<g id="a_node9"><a xlink:href="pybind_2starters_2sta__dump__box_8h.html" target="_top" xlink:title="src/pybind/starters\l/sta_dump_box.h">
<polygon fill="#ffffff" stroke="#000000" points="601.6797,-112.5 601.6797,-142.5 699.6797,-142.5 699.6797,-112.5 601.6797,-112.5"/>
<text text-anchor="start" x="609.6797" y="-130.5" font-family="Helvetica,sans-Serif" font-size="10.00" fill="#000000">src/pybind/starters</text>
<text text-anchor="middle" x="650.6797" y="-119.5" font-family="Helvetica,sans-Serif" font-size="10.00" fill="#000000">/sta_dump_box.h</text>
</a>
</g>
</g>
<!-- Node23&#45;&gt;Node31 -->
<g id="edge13" class="edge">
<title>Node23&#45;&gt;Node31</title>
<path fill="none" stroke="#191970" d="M355.9574,-185.7742C415.9326,-176.5741 511.1772,-160.9434 592.6797,-143 595.5299,-142.3725 598.4504,-141.6969 601.3918,-140.9911"/>
<polygon fill="#191970" stroke="#191970" points="355.2704,-182.3384 345.9121,-187.3056 356.3254,-189.2585 355.2704,-182.3384"/>
</g>
<!-- Node25 -->
<g id="node3" class="node">
<title>Node25</title>
<g id="a_node3"><a xlink:href="ppap4lmp_8cpp.html" target="_top" xlink:title="This file has no implementation, only includes a header file to bind C++ and Python. ">
<polygon fill="#ffffff" stroke="#000000" points="249.6797,-.5 249.6797,-19.5 343.6797,-19.5 343.6797,-.5 249.6797,-.5"/>
<text text-anchor="middle" x="296.6797" y="-7.5" font-family="Helvetica,sans-Serif" font-size="10.00" fill="#000000">src/ppap4lmp.cpp</text>
</a>
</g>
</g>
<!-- Node24&#45;&gt;Node25 -->
<g id="edge2" class="edge">
<title>Node24&#45;&gt;Node25</title>
<path fill="none" stroke="#191970" d="M296.6797,-46.1575C296.6797,-37.155 296.6797,-26.9199 296.6797,-19.6427"/>
<polygon fill="#191970" stroke="#191970" points="293.1798,-46.2455 296.6797,-56.2455 300.1798,-46.2456 293.1798,-46.2455"/>
</g>
<!-- Node26&#45;&gt;Node24 -->
<g id="edge4" class="edge">
<title>Node26&#45;&gt;Node24</title>
<path fill="none" stroke="#191970" d="M123.4137,-111.8083C177.0878,-97.549 228.5268,-83.9666 261.6785,-75.2237"/>
<polygon fill="#191970" stroke="#191970" points="122.4905,-108.4321 113.725,-114.3832 124.2885,-115.1973 122.4905,-108.4321"/>
</g>
<!-- Node27&#45;&gt;Node24 -->
<g id="edge6" class="edge">
<title>Node27&#45;&gt;Node24</title>
<path fill="none" stroke="#191970" d="M218.0738,-107.6747C238.3865,-96.9055 262.5749,-84.0814 278.7039,-75.5303"/>
<polygon fill="#191970" stroke="#191970" points="216.2522,-104.6789 209.0565,-112.4554 219.5311,-110.8635 216.2522,-104.6789"/>
</g>
<!-- Node28&#45;&gt;Node24 -->
<g id="edge8" class="edge">
<title>Node28&#45;&gt;Node24</title>
<path fill="none" stroke="#191970" d="M296.6797,-102.2849C296.6797,-92.9858 296.6797,-82.9883 296.6797,-75.8469"/>
<polygon fill="#191970" stroke="#191970" points="293.1798,-102.2977 296.6797,-112.2977 300.1798,-102.2978 293.1798,-102.2977"/>
</g>
<!-- Node29&#45;&gt;Node24 -->
<g id="edge10" class="edge">
<title>Node29&#45;&gt;Node24</title>
<path fill="none" stroke="#191970" d="M375.2857,-107.6747C354.973,-96.9055 330.7846,-84.0814 314.6556,-75.5303"/>
<polygon fill="#191970" stroke="#191970" points="373.8284,-110.8635 384.303,-112.4554 377.1073,-104.6789 373.8284,-110.8635"/>
</g>
<!-- Node30&#45;&gt;Node24 -->
<g id="edge12" class="edge">
<title>Node30&#45;&gt;Node24</title>
<path fill="none" stroke="#191970" d="M470.35,-111.4499C426.2307,-99.9037 368.2948,-84.7418 331.7654,-75.182"/>
<polygon fill="#191970" stroke="#191970" points="469.5476,-114.8577 480.108,-114.0036 471.3199,-108.0858 469.5476,-114.8577"/>
</g>
<!-- Node31&#45;&gt;Node24 -->
<g id="edge14" class="edge">
<title>Node31&#45;&gt;Node24</title>
<path fill="none" stroke="#191970" d="M591.5061,-111.8774C492.1648,-91.3604 385.9088,-76.9967 331.9858,-70.2445"/>
<polygon fill="#191970" stroke="#191970" points="590.9003,-115.3264 601.405,-113.9475 592.3332,-108.4746 590.9003,-115.3264"/>
</g>
</g>
</svg>
