<?xml version="1.0" encoding="UTF-8" standalone="no"?>
<!DOCTYPE svg PUBLIC "-//W3C//DTD SVG 1.1//EN"
 "http://www.w3.org/Graphics/SVG/1.1/DTD/svg11.dtd">
<!-- Generated by graphviz version 2.40.1 (20161225.0304)
 -->
<!-- Title: src/pybind/py_adders/add_gyration_radius.h Pages: 1 -->
<svg width="560pt" height="554pt"
 viewBox="0.00 0.00 559.50 554.00" xmlns="http://www.w3.org/2000/svg" xmlns:xlink="http://www.w3.org/1999/xlink">
<g id="graph0" class="graph" transform="scale(1 1) rotate(0) translate(4 550)">
<title>src/pybind/py_adders/add_gyration_radius.h</title>
<polygon fill="#ffffff" stroke="transparent" points="-4,4 -4,-550 555.5,-550 555.5,4 -4,4"/>
<!-- Node0 -->
<g id="node1" class="node">
<title>Node0</title>
<polygon fill="#bfbfbf" stroke="#000000" points="61.5,-515.5 61.5,-545.5 176.5,-545.5 176.5,-515.5 61.5,-515.5"/>
<text text-anchor="start" x="69.5" y="-533.5" font-family="Helvetica,sans-Serif" font-size="10.00" fill="#000000">src/pybind/py_adders</text>
<text text-anchor="middle" x="119" y="-522.5" font-family="Helvetica,sans-Serif" font-size="10.00" fill="#000000">/add_gyration_radius.h</text>
</g>
<!-- Node1 -->
<g id="node2" class="node">
<title>Node1</title>
<polygon fill="#ffffff" stroke="#bfbfbf" points="0,-448.5 0,-478.5 104,-478.5 104,-448.5 0,-448.5"/>
<text text-anchor="start" x="8" y="-466.5" font-family="Helvetica,sans-Serif" font-size="10.00" fill="#000000">adders/add_gyration</text>
<text text-anchor="middle" x="52" y="-455.5" font-family="Helvetica,sans-Serif" font-size="10.00" fill="#000000">_radius.h</text>
</g>
<!-- Node0&#45;&gt;Node1 -->
<g id="edge1" class="edge">
<title>Node0&#45;&gt;Node1</title>
<path fill="none" stroke="#191970" d="M103.7967,-515.2967C95.059,-506.559 83.9257,-495.4257 74.2218,-485.7218"/>
<polygon fill="#191970" stroke="#191970" points="76.6892,-483.2394 67.1432,-478.6432 71.7394,-488.1892 76.6892,-483.2394"/>
</g>
<!-- Node2 -->
<g id="node3" class="node">
<title>Node2</title>
<g id="a_node3"><a xlink:href="pybind_2py__adders_2adder_8h.html" target="_top" xlink:title="This file has a function to bind Adder class to Python. ">
<polygon fill="#ffffff" stroke="#000000" points="122,-454 122,-473 250,-473 250,-454 122,-454"/>
<text text-anchor="middle" x="186" y="-461" font-family="Helvetica,sans-Serif" font-size="10.00" fill="#000000">pybind/py_adders/adder.h</text>
</a>
</g>
</g>
<!-- Node0&#45;&gt;Node2 -->
<g id="edge2" class="edge">
<title>Node0&#45;&gt;Node2</title>
<path fill="none" stroke="#191970" d="M134.2033,-515.2967C144.6422,-504.8578 158.5003,-490.9997 169.2554,-480.2446"/>
<polygon fill="#191970" stroke="#191970" points="171.8488,-482.601 176.445,-473.055 166.899,-477.6512 171.8488,-482.601"/>
</g>
<!-- Node3 -->
<g id="node4" class="node">
<title>Node3</title>
<polygon fill="#ffffff" stroke="#bfbfbf" points="94.5,-392.5 94.5,-411.5 175.5,-411.5 175.5,-392.5 94.5,-392.5"/>
<text text-anchor="middle" x="135" y="-399.5" font-family="Helvetica,sans-Serif" font-size="10.00" fill="#000000">adders/adder.h</text>
</g>
<!-- Node2&#45;&gt;Node3 -->
<g id="edge3" class="edge">
<title>Node2&#45;&gt;Node3</title>
<path fill="none" stroke="#191970" d="M178.0313,-453.8906C170.4409,-444.7376 158.8339,-430.7409 149.5868,-419.59"/>
<polygon fill="#191970" stroke="#191970" points="152.1587,-417.2083 143.0811,-411.7449 146.7703,-421.6766 152.1587,-417.2083"/>
</g>
<!-- Node4 -->
<g id="node5" class="node">
<title>Node4</title>
<g id="a_node5"><a xlink:href="pybind_2updater_8h.html" target="_top" xlink:title="This file is for binding Updater class to Python. ">
<polygon fill="#ffffff" stroke="#000000" points="193.5,-392.5 193.5,-411.5 282.5,-411.5 282.5,-392.5 193.5,-392.5"/>
<text text-anchor="middle" x="238" y="-399.5" font-family="Helvetica,sans-Serif" font-size="10.00" fill="#000000">pybind/updater.h</text>
</a>
</g>
</g>
<!-- Node2&#45;&gt;Node4 -->
<g id="edge4" class="edge">
<title>Node2&#45;&gt;Node4</title>
<path fill="none" stroke="#191970" d="M194.125,-453.8906C201.8642,-444.7376 213.6987,-430.7409 223.1272,-419.59"/>
<polygon fill="#191970" stroke="#191970" points="225.9765,-421.6409 229.7604,-411.7449 220.6311,-417.1213 225.9765,-421.6409"/>
</g>
<!-- Node5 -->
<g id="node6" class="node">
<title>Node5</title>
<g id="a_node6"><a xlink:href="alias_2pybind_8h.html" target="_top" xlink:title="This file includes pybind11 and defines an alias for the namespace pybind11. ">
<polygon fill="#ffffff" stroke="#000000" points="84.5,-112.5 84.5,-131.5 161.5,-131.5 161.5,-112.5 84.5,-112.5"/>
<text text-anchor="middle" x="123" y="-119.5" font-family="Helvetica,sans-Serif" font-size="10.00" fill="#000000">alias/pybind.h</text>
</a>
</g>
</g>
<!-- Node4&#45;&gt;Node5 -->
<g id="edge5" class="edge">
<title>Node4&#45;&gt;Node5</title>
<path fill="none" stroke="#191970" d="M221.0159,-392.368C193.6905,-375.4638 143,-337.6798 143,-290 143,-290 143,-290 143,-234 143,-201.2193 134.5945,-163.8705 128.6819,-141.6533"/>
<polygon fill="#191970" stroke="#191970" points="131.991,-140.4878 125.9511,-131.7832 125.2445,-142.3545 131.991,-140.4878"/>
</g>
<!-- Node7 -->
<g id="node8" class="node">
<title>Node7</title>
<g id="a_node8"><a xlink:href="core_2updater_8h.html" target="_top" xlink:title="This file has a definition of the Updater class, which is one of the cores of this program...">
<polygon fill="#ffffff" stroke="#000000" points="293.5,-336.5 293.5,-355.5 372.5,-355.5 372.5,-336.5 293.5,-336.5"/>
<text text-anchor="middle" x="333" y="-343.5" font-family="Helvetica,sans-Serif" font-size="10.00" fill="#000000">core/updater.h</text>
</a>
</g>
</g>
<!-- Node4&#45;&gt;Node7 -->
<g id="edge7" class="edge">
<title>Node4&#45;&gt;Node7</title>
<path fill="none" stroke="#191970" d="M254.5477,-392.2455C269.2599,-383.5731 290.9888,-370.7645 307.8505,-360.825"/>
<polygon fill="#191970" stroke="#191970" points="309.8046,-363.736 316.6419,-355.6427 306.2498,-357.7057 309.8046,-363.736"/>
</g>
<!-- Node6 -->
<g id="node7" class="node">
<title>Node6</title>
<polygon fill="#ffffff" stroke="#bfbfbf" points="68,-56.5 68,-75.5 174,-75.5 174,-56.5 68,-56.5"/>
<text text-anchor="middle" x="121" y="-63.5" font-family="Helvetica,sans-Serif" font-size="10.00" fill="#000000">pybind11/pybind11.h</text>
</g>
<!-- Node5&#45;&gt;Node6 -->
<g id="edge6" class="edge">
<title>Node5&#45;&gt;Node6</title>
<path fill="none" stroke="#191970" d="M122.6516,-112.2455C122.3907,-104.9382 122.0248,-94.6944 121.7037,-85.7046"/>
<polygon fill="#191970" stroke="#191970" points="125.1992,-85.5113 121.3444,-75.6427 118.2036,-85.7613 125.1992,-85.5113"/>
</g>
<!-- Node8 -->
<g id="node9" class="node">
<title>Node8</title>
<polygon fill="#ffffff" stroke="#bfbfbf" points="489,-112.5 489,-131.5 533,-131.5 533,-112.5 489,-112.5"/>
<text text-anchor="middle" x="511" y="-119.5" font-family="Helvetica,sans-Serif" font-size="10.00" fill="#000000">omp.h</text>
</g>
<!-- Node7&#45;&gt;Node8 -->
<g id="edge8" class="edge">
<title>Node7&#45;&gt;Node8</title>
<path fill="none" stroke="#191970" d="M346.5431,-336.3144C358.2503,-327.575 375.2492,-313.9793 388,-300 436.3826,-246.9558 481.083,-173.8959 500.6296,-140.2767"/>
<polygon fill="#191970" stroke="#191970" points="503.7083,-141.9441 505.6622,-131.531 497.641,-138.4528 503.7083,-141.9441"/>
</g>
<!-- Node9 -->
<g id="node10" class="node">
<title>Node9</title>
<g id="a_node10"><a xlink:href="generators_8h.html" target="_top" xlink:title="This file includes all the header files of subclasses of Generator. ">
<polygon fill="#ffffff" stroke="#000000" points="287,-280.5 287,-299.5 379,-299.5 379,-280.5 287,-280.5"/>
<text text-anchor="middle" x="333" y="-287.5" font-family="Helvetica,sans-Serif" font-size="10.00" fill="#000000">core/generators.h</text>
</a>
</g>
</g>
<!-- Node7&#45;&gt;Node9 -->
<g id="edge9" class="edge">
<title>Node7&#45;&gt;Node9</title>
<path fill="none" stroke="#191970" d="M333,-336.2455C333,-328.9382 333,-318.6944 333,-309.7046"/>
<polygon fill="#191970" stroke="#191970" points="336.5001,-309.6426 333,-299.6427 329.5001,-309.6427 336.5001,-309.6426"/>
</g>
<!-- Node10 -->
<g id="node11" class="node">
<title>Node10</title>
<g id="a_node11"><a xlink:href="core_2element_8h.html" target="_top" xlink:title="This file has a definition of the Element class, which is one of the cores of this program...">
<polygon fill="#ffffff" stroke="#000000" points="292.5,-168.5 292.5,-187.5 373.5,-187.5 373.5,-168.5 292.5,-168.5"/>
<text text-anchor="middle" x="333" y="-175.5" font-family="Helvetica,sans-Serif" font-size="10.00" fill="#000000">core/element.h</text>
</a>
</g>
</g>
<!-- Node9&#45;&gt;Node10 -->
<g id="edge10" class="edge">
<title>Node9&#45;&gt;Node10</title>
<path fill="none" stroke="#191970" d="M348.8247,-280.4104C366.5741,-268.3201 391.6935,-246.3956 382,-224 376.7663,-211.9081 366.6158,-201.5335 356.9045,-193.7139"/>
<polygon fill="#191970" stroke="#191970" points="358.7234,-190.7038 348.618,-187.5209 354.5329,-196.3109 358.7234,-190.7038"/>
</g>
<!-- Node23 -->
<g id="node24" class="node">
<title>Node23</title>
<g id="a_node24"><a xlink:href="gen__dict_8h.html" target="_top" xlink:title="This file has a definition of the GenDict class. ">
<polygon fill="#ffffff" stroke="#000000" points="191.5,-224.5 191.5,-243.5 274.5,-243.5 274.5,-224.5 191.5,-224.5"/>
<text text-anchor="middle" x="233" y="-231.5" font-family="Helvetica,sans-Serif" font-size="10.00" fill="#000000">core/gen_dict.h</text>
</a>
</g>
</g>
<!-- Node9&#45;&gt;Node23 -->
<g id="edge27" class="edge">
<title>Node9&#45;&gt;Node23</title>
<path fill="none" stroke="#191970" d="M315.5813,-280.2455C299.9515,-271.4928 276.7981,-258.527 258.9815,-248.5496"/>
<polygon fill="#191970" stroke="#191970" points="260.6543,-245.475 250.2191,-243.6427 257.234,-251.5825 260.6543,-245.475"/>
</g>
<!-- Node24 -->
<g id="node25" class="node">
<title>Node24</title>
<g id="a_node25"><a xlink:href="gen__list_8h.html" target="_top" xlink:title="This file has a definition of the GenList class. ">
<polygon fill="#ffffff" stroke="#000000" points="293,-224.5 293,-243.5 373,-243.5 373,-224.5 293,-224.5"/>
<text text-anchor="middle" x="333" y="-231.5" font-family="Helvetica,sans-Serif" font-size="10.00" fill="#000000">core/gen_list.h</text>
</a>
</g>
</g>
<!-- Node9&#45;&gt;Node24 -->
<g id="edge29" class="edge">
<title>Node9&#45;&gt;Node24</title>
<path fill="none" stroke="#191970" d="M333,-280.2455C333,-272.9382 333,-262.6944 333,-253.7046"/>
<polygon fill="#191970" stroke="#191970" points="336.5001,-253.6426 333,-243.6427 329.5001,-253.6427 336.5001,-253.6426"/>
</g>
<!-- Node10&#45;&gt;Node5 -->
<g id="edge14" class="edge">
<title>Node10&#45;&gt;Node5</title>
<path fill="none" stroke="#191970" d="M296.8997,-168.3733C261.3752,-158.9001 207.012,-144.4032 168.5381,-134.1435"/>
<polygon fill="#191970" stroke="#191970" points="169.1934,-130.696 158.6292,-131.5011 167.3897,-137.4596 169.1934,-130.696"/>
</g>
<!-- Node10&#45;&gt;Node8 -->
<g id="edge11" class="edge">
<title>Node10&#45;&gt;Node8</title>
<path fill="none" stroke="#191970" d="M363.7133,-168.475C391.4937,-159.8406 433.7723,-146.6533 479.2445,-132.2226"/>
<polygon fill="#191970" stroke="#191970" points="480.5215,-135.4894 488.9922,-129.1256 478.4018,-128.818 480.5215,-135.4894"/>
</g>
<!-- Node11 -->
<g id="node12" class="node">
<title>Node11</title>
<g id="a_node12"><a xlink:href="eigen_8h.html" target="_top" xlink:title="This file includes Eigen and defines some aliases for the Eigen&#45;Vector, Matrix and Array...">
<polygon fill="#ffffff" stroke="#000000" points="399.5,-112.5 399.5,-131.5 470.5,-131.5 470.5,-112.5 399.5,-112.5"/>
<text text-anchor="middle" x="435" y="-119.5" font-family="Helvetica,sans-Serif" font-size="10.00" fill="#000000">alias/eigen.h</text>
</a>
</g>
</g>
<!-- Node10&#45;&gt;Node11 -->
<g id="edge12" class="edge">
<title>Node10&#45;&gt;Node11</title>
<path fill="none" stroke="#191970" d="M350.767,-168.2455C366.7095,-159.4928 390.3259,-146.527 408.4989,-136.5496"/>
<polygon fill="#191970" stroke="#191970" points="410.3552,-139.5233 417.4366,-131.6427 406.9863,-133.3873 410.3552,-139.5233"/>
</g>
<!-- Node13 -->
<g id="node14" class="node">
<title>Node13</title>
<g id="a_node14"><a xlink:href="generator_8h.html" target="_top" xlink:title="This file has a definition of the Generator class, which is one of the cores of this program...">
<polygon fill="#ffffff" stroke="#000000" points="179.5,-112.5 179.5,-131.5 266.5,-131.5 266.5,-112.5 179.5,-112.5"/>
<text text-anchor="middle" x="223" y="-119.5" font-family="Helvetica,sans-Serif" font-size="10.00" fill="#000000">core/generator.h</text>
</a>
</g>
</g>
<!-- Node10&#45;&gt;Node13 -->
<g id="edge15" class="edge">
<title>Node10&#45;&gt;Node13</title>
<path fill="none" stroke="#191970" d="M313.8395,-168.2455C296.4889,-159.4125 270.7099,-146.2887 251.0417,-136.2758"/>
<polygon fill="#191970" stroke="#191970" points="252.4405,-133.0605 241.941,-131.6427 249.2647,-139.2986 252.4405,-133.0605"/>
</g>
<!-- Node22 -->
<g id="node23" class="node">
<title>Node22</title>
<g id="a_node23"><a xlink:href="data__keys_8h.html" target="_top" xlink:title="This file has a definition of the DataKeys class, which is owned by Element class. ">
<polygon fill="#ffffff" stroke="#000000" points="285,-112.5 285,-131.5 381,-131.5 381,-112.5 285,-112.5"/>
<text text-anchor="middle" x="333" y="-119.5" font-family="Helvetica,sans-Serif" font-size="10.00" fill="#000000">class/data_keys.h</text>
</a>
</g>
</g>
<!-- Node10&#45;&gt;Node22 -->
<g id="edge24" class="edge">
<title>Node10&#45;&gt;Node22</title>
<path fill="none" stroke="#191970" d="M333,-168.2455C333,-160.9382 333,-150.6944 333,-141.7046"/>
<polygon fill="#191970" stroke="#191970" points="336.5001,-141.6426 333,-131.6427 329.5001,-141.6427 336.5001,-141.6426"/>
</g>
<!-- Node12 -->
<g id="node13" class="node">
<title>Node12</title>
<polygon fill="#ffffff" stroke="#bfbfbf" points="407,-56.5 407,-75.5 463,-75.5 463,-56.5 407,-56.5"/>
<text text-anchor="middle" x="435" y="-63.5" font-family="Helvetica,sans-Serif" font-size="10.00" fill="#000000">Eigen/LU</text>
</g>
<!-- Node11&#45;&gt;Node12 -->
<g id="edge13" class="edge">
<title>Node11&#45;&gt;Node12</title>
<path fill="none" stroke="#191970" d="M435,-112.2455C435,-104.9382 435,-94.6944 435,-85.7046"/>
<polygon fill="#191970" stroke="#191970" points="438.5001,-85.6426 435,-75.6427 431.5001,-85.6427 438.5001,-85.6426"/>
</g>
<!-- Node14 -->
<g id="node15" class="node">
<title>Node14</title>
<g id="a_node15"><a xlink:href="std_8h.html" target="_top" xlink:title="This file includes a part of C++ Standard Template Library and defines aliases for them...">
<polygon fill="#ffffff" stroke="#000000" points="302,-56.5 302,-75.5 364,-75.5 364,-56.5 302,-56.5"/>
<text text-anchor="middle" x="333" y="-63.5" font-family="Helvetica,sans-Serif" font-size="10.00" fill="#000000">alias/std.h</text>
</a>
</g>
</g>
<!-- Node13&#45;&gt;Node14 -->
<g id="edge16" class="edge">
<title>Node13&#45;&gt;Node14</title>
<path fill="none" stroke="#191970" d="M242.1605,-112.2455C259.5111,-103.4125 285.2901,-90.2887 304.9583,-80.2758"/>
<polygon fill="#191970" stroke="#191970" points="306.7353,-83.2986 314.059,-75.6427 303.5595,-77.0605 306.7353,-83.2986"/>
</g>
<!-- Node20 -->
<g id="node21" class="node">
<title>Node20</title>
<g id="a_node21"><a xlink:href="json_8h.html" target="_top" xlink:title="This file includes nlohmann/json and defines an alias for the JSON type. ">
<polygon fill="#ffffff" stroke="#000000" points="192,-56.5 192,-75.5 258,-75.5 258,-56.5 192,-56.5"/>
<text text-anchor="middle" x="225" y="-63.5" font-family="Helvetica,sans-Serif" font-size="10.00" fill="#000000">alias/json.h</text>
</a>
</g>
</g>
<!-- Node13&#45;&gt;Node20 -->
<g id="edge22" class="edge">
<title>Node13&#45;&gt;Node20</title>
<path fill="none" stroke="#191970" d="M223.3484,-112.2455C223.6093,-104.9382 223.9752,-94.6944 224.2963,-85.7046"/>
<polygon fill="#191970" stroke="#191970" points="227.7964,-85.7613 224.6556,-75.6427 220.8008,-85.5113 227.7964,-85.7613"/>
</g>
<!-- Node15 -->
<g id="node16" class="node">
<title>Node15</title>
<polygon fill="#ffffff" stroke="#bfbfbf" points="440,-.5 440,-19.5 492,-19.5 492,-.5 440,-.5"/>
<text text-anchor="middle" x="466" y="-7.5" font-family="Helvetica,sans-Serif" font-size="10.00" fill="#000000">memory</text>
</g>
<!-- Node14&#45;&gt;Node15 -->
<g id="edge17" class="edge">
<title>Node14&#45;&gt;Node15</title>
<path fill="none" stroke="#191970" d="M355.8635,-56.3733C377.405,-47.3032 409.8838,-33.6279 433.9956,-23.4755"/>
<polygon fill="#191970" stroke="#191970" points="435.5767,-26.6075 443.4348,-19.5011 432.8603,-20.156 435.5767,-26.6075"/>
</g>
<!-- Node16 -->
<g id="node17" class="node">
<title>Node16</title>
<polygon fill="#ffffff" stroke="#bfbfbf" points="510.5,-.5 510.5,-19.5 551.5,-19.5 551.5,-.5 510.5,-.5"/>
<text text-anchor="middle" x="531" y="-7.5" font-family="Helvetica,sans-Serif" font-size="10.00" fill="#000000">string</text>
</g>
<!-- Node14&#45;&gt;Node16 -->
<g id="edge18" class="edge">
<title>Node14&#45;&gt;Node16</title>
<path fill="none" stroke="#191970" d="M364.1089,-58.0248C396.0254,-49.7236 447.3127,-36.056 500.7463,-19.959"/>
<polygon fill="#191970" stroke="#191970" points="501.8368,-23.2858 510.3904,-17.034 499.805,-16.5871 501.8368,-23.2858"/>
</g>
<!-- Node17 -->
<g id="node18" class="node">
<title>Node17</title>
<polygon fill="#ffffff" stroke="#bfbfbf" points="180,-.5 180,-19.5 224,-19.5 224,-.5 180,-.5"/>
<text text-anchor="middle" x="202" y="-7.5" font-family="Helvetica,sans-Serif" font-size="10.00" fill="#000000">vector</text>
</g>
<!-- Node14&#45;&gt;Node17 -->
<g id="edge19" class="edge">
<title>Node14&#45;&gt;Node17</title>
<path fill="none" stroke="#191970" d="M310.4803,-56.3733C289.2628,-47.3032 257.2724,-33.6279 233.5231,-23.4755"/>
<polygon fill="#191970" stroke="#191970" points="234.7967,-20.2136 224.2258,-19.5011 232.0452,-26.6502 234.7967,-20.2136"/>
</g>
<!-- Node18 -->
<g id="node19" class="node">
<title>Node18</title>
<polygon fill="#ffffff" stroke="#bfbfbf" points="242.5,-.5 242.5,-19.5 325.5,-19.5 325.5,-.5 242.5,-.5"/>
<text text-anchor="middle" x="284" y="-7.5" font-family="Helvetica,sans-Serif" font-size="10.00" fill="#000000">unordered_map</text>
</g>
<!-- Node14&#45;&gt;Node18 -->
<g id="edge20" class="edge">
<title>Node14&#45;&gt;Node18</title>
<path fill="none" stroke="#191970" d="M324.4649,-56.2455C317.5088,-48.2958 307.5117,-36.8706 299.1949,-27.3656"/>
<polygon fill="#191970" stroke="#191970" points="301.6564,-24.8637 292.4373,-19.6427 296.3884,-29.4732 301.6564,-24.8637"/>
</g>
<!-- Node19 -->
<g id="node20" class="node">
<title>Node19</title>
<polygon fill="#ffffff" stroke="#bfbfbf" points="344,-.5 344,-19.5 422,-19.5 422,-.5 344,-.5"/>
<text text-anchor="middle" x="383" y="-7.5" font-family="Helvetica,sans-Serif" font-size="10.00" fill="#000000">unordered_set</text>
</g>
<!-- Node14&#45;&gt;Node19 -->
<g id="edge21" class="edge">
<title>Node14&#45;&gt;Node19</title>
<path fill="none" stroke="#191970" d="M341.7093,-56.2455C348.8073,-48.2958 359.0084,-36.8706 367.495,-27.3656"/>
<polygon fill="#191970" stroke="#191970" points="370.3411,-29.4331 374.3905,-19.6427 365.1195,-24.771 370.3411,-29.4331"/>
</g>
<!-- Node21 -->
<g id="node22" class="node">
<title>Node21</title>
<polygon fill="#ffffff" stroke="#bfbfbf" points="64,-.5 64,-19.5 162,-19.5 162,-.5 64,-.5"/>
<text text-anchor="middle" x="113" y="-7.5" font-family="Helvetica,sans-Serif" font-size="10.00" fill="#000000">nlohmann/json.hpp</text>
</g>
<!-- Node20&#45;&gt;Node21 -->
<g id="edge23" class="edge">
<title>Node20&#45;&gt;Node21</title>
<path fill="none" stroke="#191970" d="M205.7465,-56.3733C187.9288,-47.4644 161.2253,-34.1127 141.0406,-24.0203"/>
<polygon fill="#191970" stroke="#191970" points="142.5118,-20.8428 132.0022,-19.5011 139.3813,-27.1038 142.5118,-20.8428"/>
</g>
<!-- Node22&#45;&gt;Node14 -->
<g id="edge25" class="edge">
<title>Node22&#45;&gt;Node14</title>
<path fill="none" stroke="#191970" d="M333,-112.2455C333,-104.9382 333,-94.6944 333,-85.7046"/>
<polygon fill="#191970" stroke="#191970" points="336.5001,-85.6426 333,-75.6427 329.5001,-85.6427 336.5001,-85.6426"/>
</g>
<!-- Node22&#45;&gt;Node20 -->
<g id="edge26" class="edge">
<title>Node22&#45;&gt;Node20</title>
<path fill="none" stroke="#191970" d="M314.1878,-112.2455C297.1527,-103.4125 271.8425,-90.2887 252.5319,-80.2758"/>
<polygon fill="#191970" stroke="#191970" points="254.0853,-77.1388 243.5966,-75.6427 250.863,-83.353 254.0853,-77.1388"/>
</g>
<!-- Node23&#45;&gt;Node10 -->
<g id="edge28" class="edge">
<title>Node23&#45;&gt;Node10</title>
<path fill="none" stroke="#191970" d="M250.4187,-224.2455C266.0485,-215.4928 289.2019,-202.527 307.0185,-192.5496"/>
<polygon fill="#191970" stroke="#191970" points="308.766,-195.5825 315.7809,-187.6427 305.3457,-189.475 308.766,-195.5825"/>
</g>
<!-- Node24&#45;&gt;Node10 -->
<g id="edge30" class="edge">
<title>Node24&#45;&gt;Node10</title>
<path fill="none" stroke="#191970" d="M333,-224.2455C333,-216.9382 333,-206.6944 333,-197.7046"/>
<polygon fill="#191970" stroke="#191970" points="336.5001,-197.6426 333,-187.6427 329.5001,-197.6427 336.5001,-197.6426"/>
</g>
</g>
</svg>
