<?xml version="1.0" encoding="UTF-8" standalone="no"?>
<!DOCTYPE svg PUBLIC "-//W3C//DTD SVG 1.1//EN"
 "http://www.w3.org/Graphics/SVG/1.1/DTD/svg11.dtd">
<!-- Generated by graphviz version 2.40.1 (20161225.0304)
 -->
<!-- Title: src/pybind/py_adders/add_wrapped_position.h Pages: 1 -->
<svg width="150pt" height="151pt"
 viewBox="0.00 0.00 150.00 151.00" xmlns="http://www.w3.org/2000/svg" xmlns:xlink="http://www.w3.org/1999/xlink">
<g id="graph0" class="graph" transform="scale(1 1) rotate(0) translate(4 147)">
<title>src/pybind/py_adders/add_wrapped_position.h</title>
<polygon fill="#ffffff" stroke="transparent" points="-4,4 -4,-147 146,-147 146,4 -4,4"/>
<!-- Node25 -->
<g id="node1" class="node">
<title>Node25</title>
<polygon fill="#bfbfbf" stroke="#000000" points="0,-112.5 0,-142.5 124,-142.5 124,-112.5 0,-112.5"/>
<text text-anchor="start" x="8" y="-130.5" font-family="Helvetica,sans-Serif" font-size="10.00" fill="#000000">src/pybind/py_adders</text>
<text text-anchor="middle" x="62" y="-119.5" font-family="Helvetica,sans-Serif" font-size="10.00" fill="#000000">/add_wrapped_position.h</text>
</g>
<!-- Node25&#45;&gt;Node25 -->
<g id="edge3" class="edge">
<title>Node25&#45;&gt;Node25</title>
<path fill="none" stroke="#191970" d="M134.0322,-135.6547C138.9858,-133.7842 142,-131.066 142,-127.5 142,-121.9336 134.6554,-118.4328 124.0546,-116.9978"/>
<polygon fill="#191970" stroke="#191970" points="132.9872,-132.3049 124.0546,-138.0022 134.5904,-139.1189 132.9872,-132.3049"/>
</g>
<!-- Node26 -->
<g id="node2" class="node">
<title>Node26</title>
<g id="a_node2"><a xlink:href="pybind_8h.html" target="_top" xlink:title="This file includes all the header files containing definitions of functions to bind C++ and Python...">
<polygon fill="#ffffff" stroke="#000000" points="27,-56.5 27,-75.5 97,-75.5 97,-56.5 27,-56.5"/>
<text text-anchor="middle" x="62" y="-63.5" font-family="Helvetica,sans-Serif" font-size="10.00" fill="#000000">src/pybind.h</text>
</a>
</g>
</g>
<!-- Node25&#45;&gt;Node26 -->
<g id="edge1" class="edge">
<title>Node25&#45;&gt;Node26</title>
<path fill="none" stroke="#191970" d="M62,-102.2849C62,-92.9858 62,-82.9883 62,-75.8469"/>
<polygon fill="#191970" stroke="#191970" points="58.5001,-102.2977 62,-112.2977 65.5001,-102.2978 58.5001,-102.2977"/>
</g>
<!-- Node27 -->
<g id="node3" class="node">
<title>Node27</title>
<g id="a_node3"><a xlink:href="ppap4lmp_8cpp.html" target="_top" xlink:title="This file has no implementation, only includes a header file to bind C++ and Python. ">
<polygon fill="#ffffff" stroke="#000000" points="15,-.5 15,-19.5 109,-19.5 109,-.5 15,-.5"/>
<text text-anchor="middle" x="62" y="-7.5" font-family="Helvetica,sans-Serif" font-size="10.00" fill="#000000">src/ppap4lmp.cpp</text>
</a>
</g>
</g>
<!-- Node26&#45;&gt;Node27 -->
<g id="edge2" class="edge">
<title>Node26&#45;&gt;Node27</title>
<path fill="none" stroke="#191970" d="M62,-46.1575C62,-37.155 62,-26.9199 62,-19.6427"/>
<polygon fill="#191970" stroke="#191970" points="58.5001,-46.2455 62,-56.2455 65.5001,-46.2456 58.5001,-46.2455"/>
</g>
</g>
</svg>
