<?xml version="1.0" encoding="UTF-8" standalone="no"?>
<!DOCTYPE svg PUBLIC "-//W3C//DTD SVG 1.1//EN"
 "http://www.w3.org/Graphics/SVG/1.1/DTD/svg11.dtd">
<!-- Generated by graphviz version 2.40.1 (20161225.0304)
 -->
<!-- Title: src/utils/runtime_error.cpp Pages: 1 -->
<svg width="383pt" height="196pt"
 viewBox="0.00 0.00 383.00 196.00" xmlns="http://www.w3.org/2000/svg" xmlns:xlink="http://www.w3.org/1999/xlink">
<g id="graph0" class="graph" transform="scale(1 1) rotate(0) translate(4 192)">
<title>src/utils/runtime_error.cpp</title>
<polygon fill="#ffffff" stroke="transparent" points="-4,4 -4,-192 379,-192 379,4 -4,4"/>
<!-- Node0 -->
<g id="node1" class="node">
<title>Node0</title>
<polygon fill="#bfbfbf" stroke="#000000" points="39,-168.5 39,-187.5 169,-187.5 169,-168.5 39,-168.5"/>
<text text-anchor="middle" x="104" y="-175.5" font-family="Helvetica,sans-Serif" font-size="10.00" fill="#000000">src/utils/runtime_error.cpp</text>
</g>
<!-- Node1 -->
<g id="node2" class="node">
<title>Node1</title>
<g id="a_node2"><a xlink:href="alias_2pybind_8h.html" target="_top" xlink:title="... ">
<polygon fill="#ffffff" stroke="#000000" points="16.5,-112.5 16.5,-131.5 93.5,-131.5 93.5,-112.5 16.5,-112.5"/>
<text text-anchor="middle" x="55" y="-119.5" font-family="Helvetica,sans-Serif" font-size="10.00" fill="#000000">alias/pybind.h</text>
</a>
</g>
</g>
<!-- Node0&#45;&gt;Node1 -->
<g id="edge1" class="edge">
<title>Node0&#45;&gt;Node1</title>
<path fill="none" stroke="#191970" d="M95.4649,-168.2455C88.5088,-160.2958 78.5117,-148.8706 70.1949,-139.3656"/>
<polygon fill="#191970" stroke="#191970" points="72.6564,-136.8637 63.4373,-131.6427 67.3884,-141.4732 72.6564,-136.8637"/>
</g>
<!-- Node3 -->
<g id="node4" class="node">
<title>Node3</title>
<g id="a_node4"><a xlink:href="runtime__error_8h.html" target="_top" xlink:title="runtime_error.h">
<polygon fill="#ffffff" stroke="#000000" points="113,-112.5 113,-131.5 195,-131.5 195,-112.5 113,-112.5"/>
<text text-anchor="middle" x="154" y="-119.5" font-family="Helvetica,sans-Serif" font-size="10.00" fill="#000000">runtime_error.h</text>
</a>
</g>
</g>
<!-- Node0&#45;&gt;Node3 -->
<g id="edge3" class="edge">
<title>Node0&#45;&gt;Node3</title>
<path fill="none" stroke="#191970" d="M112.7093,-168.2455C119.8073,-160.2958 130.0084,-148.8706 138.495,-139.3656"/>
<polygon fill="#191970" stroke="#191970" points="141.3411,-141.4331 145.3905,-131.6427 136.1195,-136.771 141.3411,-141.4331"/>
</g>
<!-- Node2 -->
<g id="node3" class="node">
<title>Node2</title>
<polygon fill="#ffffff" stroke="#bfbfbf" points="0,-56.5 0,-75.5 106,-75.5 106,-56.5 0,-56.5"/>
<text text-anchor="middle" x="53" y="-63.5" font-family="Helvetica,sans-Serif" font-size="10.00" fill="#000000">pybind11/pybind11.h</text>
</g>
<!-- Node1&#45;&gt;Node2 -->
<g id="edge2" class="edge">
<title>Node1&#45;&gt;Node2</title>
<path fill="none" stroke="#191970" d="M54.6516,-112.2455C54.3907,-104.9382 54.0248,-94.6944 53.7037,-85.7046"/>
<polygon fill="#191970" stroke="#191970" points="57.1992,-85.5113 53.3444,-75.6427 50.2036,-85.7613 57.1992,-85.5113"/>
</g>
<!-- Node4 -->
<g id="node5" class="node">
<title>Node4</title>
<g id="a_node5"><a xlink:href="std_8h.html" target="_top" xlink:title="This file includes a part of C++ Standard Template Library and defines aliases for them...">
<polygon fill="#ffffff" stroke="#000000" points="124,-56.5 124,-75.5 186,-75.5 186,-56.5 124,-56.5"/>
<text text-anchor="middle" x="155" y="-63.5" font-family="Helvetica,sans-Serif" font-size="10.00" fill="#000000">alias/std.h</text>
</a>
</g>
</g>
<!-- Node3&#45;&gt;Node4 -->
<g id="edge4" class="edge">
<title>Node3&#45;&gt;Node4</title>
<path fill="none" stroke="#191970" d="M154.1742,-112.2455C154.3047,-104.9382 154.4876,-94.6944 154.6481,-85.7046"/>
<polygon fill="#191970" stroke="#191970" points="158.1486,-85.7036 154.8278,-75.6427 151.1497,-85.5786 158.1486,-85.7036"/>
</g>
<!-- Node5 -->
<g id="node6" class="node">
<title>Node5</title>
<polygon fill="#ffffff" stroke="#bfbfbf" points="3,-.5 3,-19.5 55,-19.5 55,-.5 3,-.5"/>
<text text-anchor="middle" x="29" y="-7.5" font-family="Helvetica,sans-Serif" font-size="10.00" fill="#000000">memory</text>
</g>
<!-- Node4&#45;&gt;Node5 -->
<g id="edge5" class="edge">
<title>Node4&#45;&gt;Node5</title>
<path fill="none" stroke="#191970" d="M133.3398,-56.3733C113.0228,-47.3435 82.436,-33.7494 59.625,-23.6111"/>
<polygon fill="#191970" stroke="#191970" points="60.9372,-20.3642 50.3775,-19.5011 58.0941,-26.7609 60.9372,-20.3642"/>
</g>
<!-- Node6 -->
<g id="node7" class="node">
<title>Node6</title>
<polygon fill="#ffffff" stroke="#bfbfbf" points="73.5,-.5 73.5,-19.5 114.5,-19.5 114.5,-.5 73.5,-.5"/>
<text text-anchor="middle" x="94" y="-7.5" font-family="Helvetica,sans-Serif" font-size="10.00" fill="#000000">string</text>
</g>
<!-- Node4&#45;&gt;Node6 -->
<g id="edge6" class="edge">
<title>Node4&#45;&gt;Node6</title>
<path fill="none" stroke="#191970" d="M144.3746,-56.2455C135.4527,-48.0549 122.512,-36.1749 111.9808,-26.5069"/>
<polygon fill="#191970" stroke="#191970" points="114.2371,-23.8271 104.5036,-19.6427 109.5032,-28.9837 114.2371,-23.8271"/>
</g>
<!-- Node7 -->
<g id="node8" class="node">
<title>Node7</title>
<polygon fill="#ffffff" stroke="#bfbfbf" points="133,-.5 133,-19.5 177,-19.5 177,-.5 133,-.5"/>
<text text-anchor="middle" x="155" y="-7.5" font-family="Helvetica,sans-Serif" font-size="10.00" fill="#000000">vector</text>
</g>
<!-- Node4&#45;&gt;Node7 -->
<g id="edge7" class="edge">
<title>Node4&#45;&gt;Node7</title>
<path fill="none" stroke="#191970" d="M155,-56.2455C155,-48.9382 155,-38.6944 155,-29.7046"/>
<polygon fill="#191970" stroke="#191970" points="158.5001,-29.6426 155,-19.6427 151.5001,-29.6427 158.5001,-29.6426"/>
</g>
<!-- Node8 -->
<g id="node9" class="node">
<title>Node8</title>
<polygon fill="#ffffff" stroke="#bfbfbf" points="195.5,-.5 195.5,-19.5 278.5,-19.5 278.5,-.5 195.5,-.5"/>
<text text-anchor="middle" x="237" y="-7.5" font-family="Helvetica,sans-Serif" font-size="10.00" fill="#000000">unordered_map</text>
</g>
<!-- Node4&#45;&gt;Node8 -->
<g id="edge8" class="edge">
<title>Node4&#45;&gt;Node8</title>
<path fill="none" stroke="#191970" d="M169.2833,-56.2455C181.747,-47.7337 200.0451,-35.2375 214.4792,-25.3801"/>
<polygon fill="#191970" stroke="#191970" points="216.5962,-28.1726 222.8804,-19.6427 212.6485,-22.392 216.5962,-28.1726"/>
</g>
<!-- Node9 -->
<g id="node10" class="node">
<title>Node9</title>
<polygon fill="#ffffff" stroke="#bfbfbf" points="297,-.5 297,-19.5 375,-19.5 375,-.5 297,-.5"/>
<text text-anchor="middle" x="336" y="-7.5" font-family="Helvetica,sans-Serif" font-size="10.00" fill="#000000">unordered_set</text>
</g>
<!-- Node4&#45;&gt;Node9 -->
<g id="edge9" class="edge">
<title>Node4&#45;&gt;Node9</title>
<path fill="none" stroke="#191970" d="M186.115,-56.3733C216.3429,-47.021 262.396,-32.7725 295.4739,-22.5385"/>
<polygon fill="#191970" stroke="#191970" points="296.7723,-25.8005 305.291,-19.5011 294.7033,-19.1133 296.7723,-25.8005"/>
</g>
</g>
</svg>
