<?xml version="1.0" encoding="UTF-8" standalone="no"?>
<!DOCTYPE svg PUBLIC "-//W3C//DTD SVG 1.1//EN"
 "http://www.w3.org/Graphics/SVG/1.1/DTD/svg11.dtd">
<!-- Generated by graphviz version 2.40.1 (20161225.0304)
 -->
<!-- Title: src/utils/runtime_error.h Pages: 1 -->
<svg width="1622pt" height="95pt"
 viewBox="0.00 0.00 1621.50 95.00" xmlns="http://www.w3.org/2000/svg" xmlns:xlink="http://www.w3.org/1999/xlink">
<g id="graph0" class="graph" transform="scale(1 1) rotate(0) translate(4 91)">
<title>src/utils/runtime_error.h</title>
<polygon fill="#ffffff" stroke="transparent" points="-4,4 -4,-91 1617.5,-91 1617.5,4 -4,4"/>
<!-- Node7 -->
<g id="node1" class="node">
<title>Node7</title>
<polygon fill="#bfbfbf" stroke="#000000" points="745,-67.5 745,-86.5 864,-86.5 864,-67.5 745,-67.5"/>
<text text-anchor="middle" x="804.5" y="-74.5" font-family="Helvetica,sans-Serif" font-size="10.00" fill="#000000">src/utils/runtime_error.h</text>
</g>
<!-- Node8 -->
<g id="node2" class="node">
<title>Node8</title>
<g id="a_node2"><a xlink:href="add__child__ids_8cpp.html" target="_top" xlink:title="This file has an implementation of AddChildIDs class, which is a subclass of Adder class...">
<polygon fill="#ffffff" stroke="#000000" points="0,-.5 0,-30.5 107,-30.5 107,-.5 0,-.5"/>
<text text-anchor="start" x="8" y="-18.5" font-family="Helvetica,sans-Serif" font-size="10.00" fill="#000000">src/adders/add_child</text>
<text text-anchor="middle" x="53.5" y="-7.5" font-family="Helvetica,sans-Serif" font-size="10.00" fill="#000000">_ids.cpp</text>
</a>
</g>
</g>
<!-- Node7&#45;&gt;Node8 -->
<g id="edge1" class="edge">
<title>Node7&#45;&gt;Node8</title>
<path fill="none" stroke="#191970" d="M734.8802,-73.9327C584.4942,-67.0488 233.3701,-49.5168 115.5,-31 112.7598,-30.5695 109.9635,-30.0753 107.1483,-29.5339"/>
<polygon fill="#191970" stroke="#191970" points="734.7743,-77.4314 744.9233,-74.3902 735.0929,-70.4386 734.7743,-77.4314"/>
</g>
<!-- Node9 -->
<g id="node3" class="node">
<title>Node9</title>
<g id="a_node3"><a xlink:href="add__child__positions_8cpp.html" target="_top" xlink:title="This file has an implementation of AddChildPositions class, which is a subclass of Adder class...">
<polygon fill="#ffffff" stroke="#000000" points="125,-.5 125,-30.5 232,-30.5 232,-.5 125,-.5"/>
<text text-anchor="start" x="133" y="-18.5" font-family="Helvetica,sans-Serif" font-size="10.00" fill="#000000">src/adders/add_child</text>
<text text-anchor="middle" x="178.5" y="-7.5" font-family="Helvetica,sans-Serif" font-size="10.00" fill="#000000">_positions.cpp</text>
</a>
</g>
</g>
<!-- Node7&#45;&gt;Node9 -->
<g id="edge2" class="edge">
<title>Node7&#45;&gt;Node9</title>
<path fill="none" stroke="#191970" d="M734.9483,-74.8887C628.193,-70.8455 417.7869,-59.6992 241.5,-31 238.4983,-30.5113 235.429,-29.9533 232.3398,-29.346"/>
<polygon fill="#191970" stroke="#191970" points="734.8288,-78.3865 744.9512,-75.2581 735.0873,-71.3913 734.8288,-78.3865"/>
</g>
<!-- Node10 -->
<g id="node4" class="node">
<title>Node10</title>
<g id="a_node4"><a xlink:href="add__map_8cpp.html" target="_top" xlink:title="This file has an implementation of AddMap class, which is a subclass of Adder class. ">
<polygon fill="#ffffff" stroke="#000000" points="250.5,-6 250.5,-25 374.5,-25 374.5,-6 250.5,-6"/>
<text text-anchor="middle" x="312.5" y="-13" font-family="Helvetica,sans-Serif" font-size="10.00" fill="#000000">src/adders/add_map.cpp</text>
</a>
</g>
</g>
<!-- Node7&#45;&gt;Node10 -->
<g id="edge3" class="edge">
<title>Node7&#45;&gt;Node10</title>
<path fill="none" stroke="#191970" d="M734.8132,-71.6654C651.0658,-64.7295 506.4474,-51.079 383.5,-31 373.4141,-29.3528 362.6027,-27.1963 352.5345,-25.0175"/>
<polygon fill="#191970" stroke="#191970" points="734.716,-75.1691 744.9686,-72.4982 735.2882,-68.1925 734.716,-75.1691"/>
</g>
<!-- Node11 -->
<g id="node5" class="node">
<title>Node11</title>
<g id="a_node5"><a xlink:href="add__rename_8cpp.html" target="_top" xlink:title="This file has an implementation of AddRename class, which is a subclass of Adder class. ">
<polygon fill="#ffffff" stroke="#000000" points="393,-6 393,-25 530,-25 530,-6 393,-6"/>
<text text-anchor="middle" x="461.5" y="-13" font-family="Helvetica,sans-Serif" font-size="10.00" fill="#000000">src/adders/add_rename.cpp</text>
</a>
</g>
</g>
<!-- Node7&#45;&gt;Node11 -->
<g id="edge4" class="edge">
<title>Node7&#45;&gt;Node11</title>
<path fill="none" stroke="#191970" d="M736.7172,-65.8047C682.9073,-56.7902 605.7967,-43.5898 538.5,-31 528.5813,-29.1444 517.9629,-27.0665 507.8782,-25.0497"/>
<polygon fill="#191970" stroke="#191970" points="736.3817,-69.2971 746.822,-67.4941 737.5361,-62.3929 736.3817,-69.2971"/>
</g>
<!-- Node12 -->
<g id="node6" class="node">
<title>Node12</title>
<g id="a_node6"><a xlink:href="add__special__bonds_8cpp.html" target="_top" xlink:title="This file has an implementation of AddSpecialBonds class, which is a subclass of Adder class...">
<polygon fill="#ffffff" stroke="#000000" points="548,-.5 548,-30.5 665,-30.5 665,-.5 548,-.5"/>
<text text-anchor="start" x="556" y="-18.5" font-family="Helvetica,sans-Serif" font-size="10.00" fill="#000000">src/adders/add_special</text>
<text text-anchor="middle" x="606.5" y="-7.5" font-family="Helvetica,sans-Serif" font-size="10.00" fill="#000000">_bonds.cpp</text>
</a>
</g>
</g>
<!-- Node7&#45;&gt;Node12 -->
<g id="edge5" class="edge">
<title>Node7&#45;&gt;Node12</title>
<path fill="none" stroke="#191970" d="M763.7687,-64.3486C732.1854,-54.5386 688.3184,-40.9133 654.9362,-30.5446"/>
<polygon fill="#191970" stroke="#191970" points="762.9743,-67.7668 773.5625,-67.3906 765.0508,-61.0818 762.9743,-67.7668"/>
</g>
<!-- Node13 -->
<g id="node7" class="node">
<title>Node13</title>
<g id="a_node7"><a xlink:href="adder_8cpp.html" target="_top" xlink:title="This file has an implementation of Adder class, which is a subclass of Updater class. ">
<polygon fill="#ffffff" stroke="#000000" points="683.5,-6 683.5,-25 791.5,-25 791.5,-6 683.5,-6"/>
<text text-anchor="middle" x="737.5" y="-13" font-family="Helvetica,sans-Serif" font-size="10.00" fill="#000000">src/adders/adder.cpp</text>
</a>
</g>
</g>
<!-- Node7&#45;&gt;Node13 -->
<g id="edge6" class="edge">
<title>Node7&#45;&gt;Node13</title>
<path fill="none" stroke="#191970" d="M786.5769,-60.5482C774.3007,-49.2798 758.4345,-34.716 748.1163,-25.2449"/>
<polygon fill="#191970" stroke="#191970" points="784.2975,-63.2068 794.0313,-67.3906 789.031,-58.0499 784.2975,-63.2068"/>
</g>
<!-- Node14 -->
<g id="node8" class="node">
<title>Node14</title>
<g id="a_node8"><a xlink:href="data__keys_8cpp.html" target="_top" xlink:title="This file has an implementation of DataKeys class, which is owned by Element class. ">
<polygon fill="#ffffff" stroke="#000000" points="810,-6 810,-25 933,-25 933,-6 810,-6"/>
<text text-anchor="middle" x="871.5" y="-13" font-family="Helvetica,sans-Serif" font-size="10.00" fill="#000000">src/class/data_keys.cpp</text>
</a>
</g>
</g>
<!-- Node7&#45;&gt;Node14 -->
<g id="edge7" class="edge">
<title>Node7&#45;&gt;Node14</title>
<path fill="none" stroke="#191970" d="M822.4231,-60.5482C834.6993,-49.2798 850.5655,-34.716 860.8837,-25.2449"/>
<polygon fill="#191970" stroke="#191970" points="819.969,-58.0499 814.9688,-67.3906 824.7025,-63.2068 819.969,-58.0499"/>
</g>
<!-- Node15 -->
<g id="node9" class="node">
<title>Node15</title>
<g id="a_node9"><a xlink:href="element_8cpp.html" target="_top" xlink:title="This file has an implementation of Element class, which is one of the cores of this program...">
<polygon fill="#ffffff" stroke="#000000" points="951.5,-6 951.5,-25 1059.5,-25 1059.5,-6 951.5,-6"/>
<text text-anchor="middle" x="1005.5" y="-13" font-family="Helvetica,sans-Serif" font-size="10.00" fill="#000000">src/core/element.cpp</text>
</a>
</g>
</g>
<!-- Node7&#45;&gt;Node15 -->
<g id="edge8" class="edge">
<title>Node7&#45;&gt;Node15</title>
<path fill="none" stroke="#191970" d="M845.6803,-64.4001C883.8303,-52.7273 939.7412,-35.6202 974.3143,-25.0419"/>
<polygon fill="#191970" stroke="#191970" points="844.4446,-61.1179 835.9063,-67.3906 846.4927,-67.8116 844.4446,-61.1179"/>
</g>
<!-- Node16 -->
<g id="node10" class="node">
<title>Node16</title>
<g id="a_node10"><a xlink:href="gen__dict_8cpp.html" target="_top" xlink:title="This file has an implementation of GenDict class. ">
<polygon fill="#ffffff" stroke="#000000" points="1077.5,-6 1077.5,-25 1187.5,-25 1187.5,-6 1077.5,-6"/>
<text text-anchor="middle" x="1132.5" y="-13" font-family="Helvetica,sans-Serif" font-size="10.00" fill="#000000">src/core/gen_dict.cpp</text>
</a>
</g>
</g>
<!-- Node7&#45;&gt;Node16 -->
<g id="edge9" class="edge">
<title>Node7&#45;&gt;Node16</title>
<path fill="none" stroke="#191970" d="M874.2475,-66.1183C927.607,-57.4862 1002.9224,-44.6392 1068.5,-31 1077.1185,-29.2075 1086.3424,-27.091 1095.0279,-25.0076"/>
<polygon fill="#191970" stroke="#191970" points="873.5292,-62.6888 864.2127,-67.7338 874.6419,-69.5998 873.5292,-62.6888"/>
</g>
<!-- Node17 -->
<g id="node11" class="node">
<title>Node17</title>
<g id="a_node11"><a xlink:href="gen__list_8cpp.html" target="_top" xlink:title="This file has an implementation of GenList class. ">
<polygon fill="#ffffff" stroke="#000000" points="1206,-6 1206,-25 1313,-25 1313,-6 1206,-6"/>
<text text-anchor="middle" x="1259.5" y="-13" font-family="Helvetica,sans-Serif" font-size="10.00" fill="#000000">src/core/gen_list.cpp</text>
</a>
</g>
</g>
<!-- Node7&#45;&gt;Node17 -->
<g id="edge10" class="edge">
<title>Node7&#45;&gt;Node17</title>
<path fill="none" stroke="#191970" d="M874.5574,-71.4275C953.283,-64.5524 1084.7016,-51.2315 1196.5,-31 1205.4778,-29.3753 1215.0814,-27.227 1224.016,-25.0491"/>
<polygon fill="#191970" stroke="#191970" points="873.9407,-67.9677 864.2787,-72.3146 874.5427,-74.9417 873.9407,-67.9677"/>
</g>
<!-- Node18 -->
<g id="node12" class="node">
<title>Node18</title>
<g id="a_node12"><a xlink:href="map__to__index_8cpp.html" target="_top" xlink:title="This file has an implementation of utils::map_to_index. ">
<polygon fill="#ffffff" stroke="#000000" points="1331.5,-6 1331.5,-25 1465.5,-25 1465.5,-6 1331.5,-6"/>
<text text-anchor="middle" x="1398.5" y="-13" font-family="Helvetica,sans-Serif" font-size="10.00" fill="#000000">src/utils/map_to_index.cpp</text>
</a>
</g>
</g>
<!-- Node7&#45;&gt;Node18 -->
<g id="edge11" class="edge">
<title>Node7&#45;&gt;Node18</title>
<path fill="none" stroke="#191970" d="M874.4406,-73.2958C974.2423,-67.442 1163.0884,-54.2584 1322.5,-31 1333.4265,-29.4058 1345.1508,-27.2426 1356.0408,-25.0385"/>
<polygon fill="#191970" stroke="#191970" points="873.9655,-69.8174 864.1847,-73.8899 874.3704,-76.8057 873.9655,-69.8174"/>
</g>
<!-- Node19 -->
<g id="node13" class="node">
<title>Node19</title>
<g id="a_node13"><a xlink:href="runtime__error_8cpp.html" target="_top" xlink:title="This file has an implementation of utils::runtime_error. ">
<polygon fill="#ffffff" stroke="#000000" points="1483.5,-6 1483.5,-25 1613.5,-25 1613.5,-6 1483.5,-6"/>
<text text-anchor="middle" x="1548.5" y="-13" font-family="Helvetica,sans-Serif" font-size="10.00" fill="#000000">src/utils/runtime_error.cpp</text>
</a>
</g>
</g>
<!-- Node7&#45;&gt;Node19 -->
<g id="edge12" class="edge">
<title>Node7&#45;&gt;Node19</title>
<path fill="none" stroke="#191970" d="M874.7325,-75.3624C997.0901,-71.8006 1257.0701,-61.0891 1474.5,-31 1485.4218,-29.4886 1497.1434,-27.3002 1507.9641,-25.0419"/>
<polygon fill="#191970" stroke="#191970" points="874.2858,-71.8736 864.3891,-75.656 874.4844,-78.8708 874.2858,-71.8736"/>
</g>
</g>
</svg>
