<?xml version="1.0" encoding="UTF-8" standalone="no"?>
<!DOCTYPE svg PUBLIC "-//W3C//DTD SVG 1.1//EN"
 "http://www.w3.org/Graphics/SVG/1.1/DTD/svg11.dtd">
<!-- Generated by graphviz version 2.40.1 (20161225.0304)
 -->
<!-- Title: src/utils/runtime_error.h Pages: 1 -->
<svg width="3374pt" height="106pt"
 viewBox="0.00 0.00 3373.50 106.00" xmlns="http://www.w3.org/2000/svg" xmlns:xlink="http://www.w3.org/1999/xlink">
<g id="graph0" class="graph" transform="scale(1 1) rotate(0) translate(4 102)">
<title>src/utils/runtime_error.h</title>
<polygon fill="#ffffff" stroke="transparent" points="-4,4 -4,-102 3369.5,-102 3369.5,4 -4,4"/>
<!-- Node7 -->
<g id="node1" class="node">
<title>Node7</title>
<polygon fill="#bfbfbf" stroke="#000000" points="1582,-78.5 1582,-97.5 1701,-97.5 1701,-78.5 1582,-78.5"/>
<text text-anchor="middle" x="1641.5" y="-85.5" font-family="Helvetica,sans-Serif" font-size="10.00" fill="#000000">src/utils/runtime_error.h</text>
</g>
<!-- Node8 -->
<g id="node2" class="node">
<title>Node8</title>
<g id="a_node2"><a xlink:href="add__child__ids_8cpp.html" target="_top" xlink:title="This file has an implementation of AddChildIDs class, which is a subclass of Adder class...">
<polygon fill="#ffffff" stroke="#000000" points="0,-6 0,-36 107,-36 107,-6 0,-6"/>
<text text-anchor="start" x="8" y="-24" font-family="Helvetica,sans-Serif" font-size="10.00" fill="#000000">src/adders/add_child</text>
<text text-anchor="middle" x="53.5" y="-13" font-family="Helvetica,sans-Serif" font-size="10.00" fill="#000000">_ids.cpp</text>
</a>
</g>
</g>
<!-- Node7&#45;&gt;Node8 -->
<g id="edge1" class="edge">
<title>Node7&#45;&gt;Node8</title>
<path fill="none" stroke="#191970" d="M1571.8799,-87.1134C1292.3401,-83.3884 259.6297,-67.9828 115.5,-42 107.7828,-40.6088 99.7216,-38.442 92.0624,-36.0186"/>
<polygon fill="#191970" stroke="#191970" points="1571.8498,-90.6133 1581.8953,-87.2462 1571.9426,-83.6139 1571.8498,-90.6133"/>
</g>
<!-- Node9 -->
<g id="node3" class="node">
<title>Node9</title>
<g id="a_node3"><a xlink:href="add__child__positions_8cpp.html" target="_top" xlink:title="This file has an implementation of AddChildPositions class, which is a subclass of Adder class...">
<polygon fill="#ffffff" stroke="#000000" points="125,-6 125,-36 232,-36 232,-6 125,-6"/>
<text text-anchor="start" x="133" y="-24" font-family="Helvetica,sans-Serif" font-size="10.00" fill="#000000">src/adders/add_child</text>
<text text-anchor="middle" x="178.5" y="-13" font-family="Helvetica,sans-Serif" font-size="10.00" fill="#000000">_positions.cpp</text>
</a>
</g>
</g>
<!-- Node7&#45;&gt;Node9 -->
<g id="edge2" class="edge">
<title>Node7&#45;&gt;Node9</title>
<path fill="none" stroke="#191970" d="M1571.5955,-86.8859C1306.6644,-82.5016 372.749,-65.5171 241.5,-42 233.7831,-40.6173 225.7207,-38.4875 218.0409,-36.105"/>
<polygon fill="#191970" stroke="#191970" points="1571.7956,-90.3896 1581.852,-87.0549 1571.911,-83.3906 1571.7956,-90.3896"/>
</g>
<!-- Node10 -->
<g id="node4" class="node">
<title>Node10</title>
<g id="a_node4"><a xlink:href="add__map_8cpp.html" target="_top" xlink:title="This file has an implementation of AddMap class, which is a subclass of Adder class. ">
<polygon fill="#ffffff" stroke="#000000" points="250.5,-11.5 250.5,-30.5 374.5,-30.5 374.5,-11.5 250.5,-11.5"/>
<text text-anchor="middle" x="312.5" y="-18.5" font-family="Helvetica,sans-Serif" font-size="10.00" fill="#000000">src/adders/add_map.cpp</text>
</a>
</g>
</g>
<!-- Node7&#45;&gt;Node10 -->
<g id="edge3" class="edge">
<title>Node7&#45;&gt;Node10</title>
<path fill="none" stroke="#191970" d="M1571.5243,-87.7483C1342.2139,-86.5617 614.9053,-79.834 383.5,-42 368.5307,-39.5526 352.2764,-34.8996 339.102,-30.5944"/>
<polygon fill="#191970" stroke="#191970" points="1571.7235,-91.2493 1581.7408,-87.7992 1571.7584,-84.2494 1571.7235,-91.2493"/>
</g>
<!-- Node11 -->
<g id="node5" class="node">
<title>Node11</title>
<g id="a_node5"><a xlink:href="add__rename_8cpp.html" target="_top" xlink:title="This file has an implementation of AddRename class, which is a subclass of Adder class. ">
<polygon fill="#ffffff" stroke="#000000" points="393,-11.5 393,-30.5 530,-30.5 530,-11.5 393,-11.5"/>
<text text-anchor="middle" x="461.5" y="-18.5" font-family="Helvetica,sans-Serif" font-size="10.00" fill="#000000">src/adders/add_rename.cpp</text>
</a>
</g>
</g>
<!-- Node7&#45;&gt;Node11 -->
<g id="edge4" class="edge">
<title>Node7&#45;&gt;Node11</title>
<path fill="none" stroke="#191970" d="M1571.4165,-87.1332C1361.3084,-84.2095 738.8331,-73.0906 538.5,-42 522.343,-39.4925 504.721,-34.8349 490.4174,-30.542"/>
<polygon fill="#191970" stroke="#191970" points="1571.6538,-90.6367 1581.7009,-87.2743 1571.7499,-83.6374 1571.6538,-90.6367"/>
</g>
<!-- Node12 -->
<g id="node6" class="node">
<title>Node12</title>
<g id="a_node6"><a xlink:href="add__special__bonds_8cpp.html" target="_top" xlink:title="This file has an implementation of AddSpecialBonds class, which is a subclass of Adder class...">
<polygon fill="#ffffff" stroke="#000000" points="548,-6 548,-36 665,-36 665,-6 548,-6"/>
<text text-anchor="start" x="556" y="-24" font-family="Helvetica,sans-Serif" font-size="10.00" fill="#000000">src/adders/add_special</text>
<text text-anchor="middle" x="606.5" y="-13" font-family="Helvetica,sans-Serif" font-size="10.00" fill="#000000">_bonds.cpp</text>
</a>
</g>
</g>
<!-- Node7&#45;&gt;Node12 -->
<g id="edge5" class="edge">
<title>Node7&#45;&gt;Node12</title>
<path fill="none" stroke="#191970" d="M1571.5709,-86.9574C1379.5561,-83.7308 847.0132,-72.2409 674.5,-42 666.346,-40.5706 657.8024,-38.451 649.6315,-36.1004"/>
<polygon fill="#191970" stroke="#191970" points="1571.7627,-90.4609 1581.8193,-87.1272 1571.8787,-83.4619 1571.7627,-90.4609"/>
</g>
<!-- Node13 -->
<g id="node7" class="node">
<title>Node13</title>
<g id="a_node7"><a xlink:href="adder_8cpp.html" target="_top" xlink:title="This file has an implementation of Adder class, which is a subclass of Updater class. ">
<polygon fill="#ffffff" stroke="#000000" points="683.5,-11.5 683.5,-30.5 791.5,-30.5 791.5,-11.5 683.5,-11.5"/>
<text text-anchor="middle" x="737.5" y="-18.5" font-family="Helvetica,sans-Serif" font-size="10.00" fill="#000000">src/adders/adder.cpp</text>
</a>
</g>
</g>
<!-- Node7&#45;&gt;Node13 -->
<g id="edge6" class="edge">
<title>Node7&#45;&gt;Node13</title>
<path fill="none" stroke="#191970" d="M1571.6752,-86.5774C1397.5561,-82.6448 947.5875,-70.0128 800.5,-42 787.1358,-39.4548 772.7066,-34.7942 761.0335,-30.5091"/>
<polygon fill="#191970" stroke="#191970" points="1571.6721,-90.0781 1581.7477,-86.8021 1571.8283,-83.0798 1571.6721,-90.0781"/>
</g>
<!-- Node14 -->
<g id="node8" class="node">
<title>Node14</title>
<g id="a_node8"><a xlink:href="data__keys_8cpp.html" target="_top" xlink:title="This file has an implementation of DataKeys class, which is owned by Element class. ">
<polygon fill="#ffffff" stroke="#000000" points="810,-11.5 810,-30.5 933,-30.5 933,-11.5 810,-11.5"/>
<text text-anchor="middle" x="871.5" y="-18.5" font-family="Helvetica,sans-Serif" font-size="10.00" fill="#000000">src/class/data_keys.cpp</text>
</a>
</g>
</g>
<!-- Node7&#45;&gt;Node14 -->
<g id="edge7" class="edge">
<title>Node7&#45;&gt;Node14</title>
<path fill="none" stroke="#191970" d="M1571.6483,-85.3748C1419.4259,-79.3327 1061.8757,-63.3092 942.5,-42 927.6945,-39.3571 911.5919,-34.7436 898.4703,-30.5127"/>
<polygon fill="#191970" stroke="#191970" points="1571.6804,-88.8787 1581.8105,-85.7754 1571.9562,-81.8841 1571.6804,-88.8787"/>
</g>
<!-- Node15 -->
<g id="node9" class="node">
<title>Node15</title>
<g id="a_node9"><a xlink:href="element_8cpp.html" target="_top" xlink:title="This file has an implementation of Element class, which is one of the cores of this program...">
<polygon fill="#ffffff" stroke="#000000" points="951.5,-11.5 951.5,-30.5 1059.5,-30.5 1059.5,-11.5 951.5,-11.5"/>
<text text-anchor="middle" x="1005.5" y="-18.5" font-family="Helvetica,sans-Serif" font-size="10.00" fill="#000000">src/core/element.cpp</text>
</a>
</g>
</g>
<!-- Node7&#45;&gt;Node15 -->
<g id="edge8" class="edge">
<title>Node7&#45;&gt;Node15</title>
<path fill="none" stroke="#191970" d="M1571.6654,-84.5082C1440.6911,-77.6093 1162.8798,-61.223 1068.5,-42 1055.3953,-39.3309 1041.2314,-34.7689 1029.6589,-30.5774"/>
<polygon fill="#191970" stroke="#191970" points="1571.8073,-88.0203 1581.9766,-85.0477 1572.1731,-81.0299 1571.8073,-88.0203"/>
</g>
<!-- Node16 -->
<g id="node10" class="node">
<title>Node16</title>
<g id="a_node10"><a xlink:href="gen__dict_8cpp.html" target="_top" xlink:title="This file has an implementation of GenDict class. ">
<polygon fill="#ffffff" stroke="#000000" points="1077.5,-11.5 1077.5,-30.5 1187.5,-30.5 1187.5,-11.5 1077.5,-11.5"/>
<text text-anchor="middle" x="1132.5" y="-18.5" font-family="Helvetica,sans-Serif" font-size="10.00" fill="#000000">src/core/gen_dict.cpp</text>
</a>
</g>
</g>
<!-- Node7&#45;&gt;Node16 -->
<g id="edge9" class="edge">
<title>Node7&#45;&gt;Node16</title>
<path fill="none" stroke="#191970" d="M1571.6898,-85.4023C1483.4532,-81.0668 1327.293,-69.8817 1196.5,-42 1183.3475,-39.1962 1169.0966,-34.6737 1157.3884,-30.5424"/>
<polygon fill="#191970" stroke="#191970" points="1571.6903,-88.9062 1581.8454,-85.8856 1572.0232,-81.9141 1571.6903,-88.9062"/>
</g>
<!-- Node17 -->
<g id="node11" class="node">
<title>Node17</title>
<g id="a_node11"><a xlink:href="gen__list_8cpp.html" target="_top" xlink:title="This file has an implementation of GenList class. ">
<polygon fill="#ffffff" stroke="#000000" points="1206,-11.5 1206,-30.5 1313,-30.5 1313,-11.5 1206,-11.5"/>
<text text-anchor="middle" x="1259.5" y="-18.5" font-family="Helvetica,sans-Serif" font-size="10.00" fill="#000000">src/core/gen_list.cpp</text>
</a>
</g>
</g>
<!-- Node7&#45;&gt;Node17 -->
<g id="edge10" class="edge">
<title>Node7&#45;&gt;Node17</title>
<path fill="none" stroke="#191970" d="M1571.6752,-81.5579C1506.5933,-74.7012 1407.1333,-62.038 1322.5,-42 1309.8226,-38.9985 1296.062,-34.5551 1284.6447,-30.5276"/>
<polygon fill="#191970" stroke="#191970" points="1571.5103,-85.0595 1581.8178,-82.6088 1572.2318,-78.0968 1571.5103,-85.0595"/>
</g>
<!-- Node18 -->
<g id="node12" class="node">
<title>Node18</title>
<g id="a_node12"><a xlink:href="fil__comparison_8cpp.html" target="_top" xlink:title="This file has an implementation of FilComparison class, which is a subclass of Filter class...">
<polygon fill="#ffffff" stroke="#000000" points="1331.5,-11.5 1331.5,-30.5 1473.5,-30.5 1473.5,-11.5 1331.5,-11.5"/>
<text text-anchor="middle" x="1402.5" y="-18.5" font-family="Helvetica,sans-Serif" font-size="10.00" fill="#000000">src/filters/fil_comparison.cpp</text>
</a>
</g>
</g>
<!-- Node7&#45;&gt;Node18 -->
<g id="edge11" class="edge">
<title>Node7&#45;&gt;Node18</title>
<path fill="none" stroke="#191970" d="M1597.7458,-75.7342C1551.3857,-62.7378 1479.1485,-42.4872 1436.7588,-30.6039"/>
<polygon fill="#191970" stroke="#191970" points="1596.9374,-79.1424 1607.5109,-78.4717 1598.8269,-72.4022 1596.9374,-79.1424"/>
</g>
<!-- Node19 -->
<g id="node13" class="node">
<title>Node19</title>
<g id="a_node13"><a xlink:href="pro__distance__in__molecule_8cpp.html" target="_top" xlink:title="This file has an implementation of ProDistanceInMolecule class, which is a subclass of Processor clas...">
<polygon fill="#ffffff" stroke="#000000" points="1491.5,-6 1491.5,-36 1625.5,-36 1625.5,-6 1491.5,-6"/>
<text text-anchor="start" x="1499.5" y="-24" font-family="Helvetica,sans-Serif" font-size="10.00" fill="#000000">src/processors/pro</text>
<text text-anchor="middle" x="1558.5" y="-13" font-family="Helvetica,sans-Serif" font-size="10.00" fill="#000000">_distance_in_molecule.cpp</text>
</a>
</g>
</g>
<!-- Node7&#45;&gt;Node19 -->
<g id="edge12" class="edge">
<title>Node7&#45;&gt;Node19</title>
<path fill="none" stroke="#191970" d="M1621.8172,-72.1115C1608.2783,-61.1825 1590.4107,-46.7592 1577.1091,-36.0218"/>
<polygon fill="#191970" stroke="#191970" points="1619.6285,-74.8427 1629.6081,-78.4005 1624.0254,-69.3959 1619.6285,-74.8427"/>
</g>
<!-- Node20 -->
<g id="node14" class="node">
<title>Node20</title>
<g id="a_node14"><a xlink:href="pro__mean__square__displacement_8cpp.html" target="_top" xlink:title="This file has an implementation of ProMeanSquareDisplacement class, which is a subclass of Processor ...">
<polygon fill="#ffffff" stroke="#000000" points="1643.5,-6 1643.5,-36 1805.5,-36 1805.5,-6 1643.5,-6"/>
<text text-anchor="start" x="1651.5" y="-24" font-family="Helvetica,sans-Serif" font-size="10.00" fill="#000000">src/processors/pro</text>
<text text-anchor="middle" x="1724.5" y="-13" font-family="Helvetica,sans-Serif" font-size="10.00" fill="#000000">_mean_square_displacement.cpp</text>
</a>
</g>
</g>
<!-- Node7&#45;&gt;Node20 -->
<g id="edge13" class="edge">
<title>Node7&#45;&gt;Node20</title>
<path fill="none" stroke="#191970" d="M1661.1828,-72.1115C1674.7217,-61.1825 1692.5893,-46.7592 1705.8909,-36.0218"/>
<polygon fill="#191970" stroke="#191970" points="1658.9746,-69.3959 1653.3919,-78.4005 1663.3715,-74.8427 1658.9746,-69.3959"/>
</g>
<!-- Node21 -->
<g id="node15" class="node">
<title>Node21</title>
<g id="a_node15"><a xlink:href="pro__radial__distribution__function__with__deformation_8cpp.html" target="_top" xlink:title="This file has an implementation of ProRadialDistributionFunctionWithDeformation class, which is a subclass of Processor class. ">
<polygon fill="#ffffff" stroke="#000000" points="1823.5,-.5 1823.5,-41.5 1977.5,-41.5 1977.5,-.5 1823.5,-.5"/>
<text text-anchor="start" x="1831.5" y="-29.5" font-family="Helvetica,sans-Serif" font-size="10.00" fill="#000000">src/processors/pro</text>
<text text-anchor="start" x="1831.5" y="-18.5" font-family="Helvetica,sans-Serif" font-size="10.00" fill="#000000">_radial_distribution</text>
<text text-anchor="middle" x="1900.5" y="-7.5" font-family="Helvetica,sans-Serif" font-size="10.00" fill="#000000">_function_with_deformation.cpp</text>
</a>
</g>
</g>
<!-- Node7&#45;&gt;Node21 -->
<g id="edge14" class="edge">
<title>Node7&#45;&gt;Node21</title>
<path fill="none" stroke="#191970" d="M1688.4818,-75.8464C1726.0292,-66.1334 1779.4393,-52.3169 1823.258,-40.9815"/>
<polygon fill="#191970" stroke="#191970" points="1687.1381,-72.5787 1678.3333,-78.4717 1688.8912,-79.3556 1687.1381,-72.5787"/>
</g>
<!-- Node22 -->
<g id="node16" class="node">
<title>Node22</title>
<g id="a_node16"><a xlink:href="pro__time__correlation__in__molecule_8cpp.html" target="_top" xlink:title="This file has an implementation of ProTimeCorrelationInMolecule class, which is a subclass of Process...">
<polygon fill="#ffffff" stroke="#000000" points="1995.5,-.5 1995.5,-41.5 2099.5,-41.5 2099.5,-.5 1995.5,-.5"/>
<text text-anchor="start" x="2003.5" y="-29.5" font-family="Helvetica,sans-Serif" font-size="10.00" fill="#000000">src/processors/pro</text>
<text text-anchor="start" x="2003.5" y="-18.5" font-family="Helvetica,sans-Serif" font-size="10.00" fill="#000000">_time_correlation_in</text>
<text text-anchor="middle" x="2047.5" y="-7.5" font-family="Helvetica,sans-Serif" font-size="10.00" fill="#000000">_molecule.cpp</text>
</a>
</g>
</g>
<!-- Node7&#45;&gt;Node22 -->
<g id="edge15" class="edge">
<title>Node7&#45;&gt;Node22</title>
<path fill="none" stroke="#191970" d="M1711.1151,-82.8123C1781.3244,-76.627 1892.4766,-64.2187 1986.5,-42 1989.443,-41.3045 1992.4438,-40.5222 1995.4574,-39.679"/>
<polygon fill="#191970" stroke="#191970" points="1710.7223,-79.3331 1701.0603,-83.6802 1711.3243,-86.3072 1710.7223,-79.3331"/>
</g>
<!-- Node23 -->
<g id="node17" class="node">
<title>Node23</title>
<g id="a_node17"><a xlink:href="pro__value__array_8cpp.html" target="_top" xlink:title="This file has an implementation of ProValueArray class, which is a subclass of Processor class...">
<polygon fill="#ffffff" stroke="#000000" points="2117.5,-6 2117.5,-36 2215.5,-36 2215.5,-6 2117.5,-6"/>
<text text-anchor="start" x="2125.5" y="-24" font-family="Helvetica,sans-Serif" font-size="10.00" fill="#000000">src/processors/pro</text>
<text text-anchor="middle" x="2166.5" y="-13" font-family="Helvetica,sans-Serif" font-size="10.00" fill="#000000">_value_array.cpp</text>
</a>
</g>
</g>
<!-- Node7&#45;&gt;Node23 -->
<g id="edge16" class="edge">
<title>Node7&#45;&gt;Node23</title>
<path fill="none" stroke="#191970" d="M1711.1135,-83.2799C1822.2443,-75.3845 2034.7247,-58.7135 2108.5,-42 2115.2889,-40.462 2122.3695,-38.3512 2129.156,-36.0576"/>
<polygon fill="#191970" stroke="#191970" points="1710.7377,-79.7977 1701.0091,-83.9935 1711.2308,-86.7803 1710.7377,-79.7977"/>
</g>
<!-- Node24 -->
<g id="node18" class="node">
<title>Node24</title>
<g id="a_node18"><a xlink:href="sta__beads_8cpp.html" target="_top" xlink:title="This file has an implementation of StaBeads class, which is a subclass of Starter class...">
<polygon fill="#ffffff" stroke="#000000" points="2234,-11.5 2234,-30.5 2367,-30.5 2367,-11.5 2234,-11.5"/>
<text text-anchor="middle" x="2300.5" y="-18.5" font-family="Helvetica,sans-Serif" font-size="10.00" fill="#000000">src/starters/sta_beads.cpp</text>
</a>
</g>
</g>
<!-- Node7&#45;&gt;Node24 -->
<g id="edge17" class="edge">
<title>Node7&#45;&gt;Node24</title>
<path fill="none" stroke="#191970" d="M1711.4377,-86.7818C1821.4201,-83.9034 2041.1753,-74.2554 2224.5,-42 2240.1389,-39.2484 2257.2095,-34.6787 2271.2034,-30.5034"/>
<polygon fill="#191970" stroke="#191970" points="1711.051,-83.2903 1701.1418,-87.0398 1711.2263,-90.2881 1711.051,-83.2903"/>
</g>
<!-- Node25 -->
<g id="node19" class="node">
<title>Node25</title>
<g id="a_node19"><a xlink:href="sta__copy_8cpp.html" target="_top" xlink:title="This file has an implementation of StaCopy class, which is a subclass of Starter class. ">
<polygon fill="#ffffff" stroke="#000000" points="2385.5,-11.5 2385.5,-30.5 2513.5,-30.5 2513.5,-11.5 2385.5,-11.5"/>
<text text-anchor="middle" x="2449.5" y="-18.5" font-family="Helvetica,sans-Serif" font-size="10.00" fill="#000000">src/starters/sta_copy.cpp</text>
</a>
</g>
</g>
<!-- Node7&#45;&gt;Node25 -->
<g id="edge18" class="edge">
<title>Node7&#45;&gt;Node25</title>
<path fill="none" stroke="#191970" d="M1711.256,-85.5725C1869.1321,-79.7637 2249.9112,-63.9 2376.5,-42 2391.7036,-39.3698 2408.2583,-34.7573 2421.7533,-30.5239"/>
<polygon fill="#191970" stroke="#191970" points="1711.0499,-82.0776 1701.1844,-85.9405 1711.3056,-89.0729 1711.0499,-82.0776"/>
</g>
<!-- Node26 -->
<g id="node20" class="node">
<title>Node26</title>
<g id="a_node20"><a xlink:href="sta__custom_8cpp.html" target="_top" xlink:title="This file has an implementation of StaCustom class, which is a subclass of Starter class...">
<polygon fill="#ffffff" stroke="#000000" points="2532,-11.5 2532,-30.5 2671,-30.5 2671,-11.5 2532,-11.5"/>
<text text-anchor="middle" x="2601.5" y="-18.5" font-family="Helvetica,sans-Serif" font-size="10.00" fill="#000000">src/starters/sta_custom.cpp</text>
</a>
</g>
</g>
<!-- Node7&#45;&gt;Node26 -->
<g id="edge19" class="edge">
<title>Node7&#45;&gt;Node26</title>
<path fill="none" stroke="#191970" d="M1711.3576,-86.226C1891.154,-81.3598 2366.6602,-66.5086 2522.5,-42 2538.9025,-39.4204 2556.8135,-34.8123 2571.4279,-30.5687"/>
<polygon fill="#191970" stroke="#191970" points="1711.1278,-82.7308 1701.2254,-86.4981 1711.3158,-89.7283 1711.1278,-82.7308"/>
</g>
<!-- Node27 -->
<g id="node21" class="node">
<title>Node27</title>
<g id="a_node21"><a xlink:href="sta__dump__atoms_8cpp.html" target="_top" xlink:title="This file has an implementation of StaDumpAtoms class, which is a subclass of Starter class...">
<polygon fill="#ffffff" stroke="#000000" points="2689.5,-6 2689.5,-36 2801.5,-36 2801.5,-6 2689.5,-6"/>
<text text-anchor="start" x="2697.5" y="-24" font-family="Helvetica,sans-Serif" font-size="10.00" fill="#000000">src/starters/sta_dump</text>
<text text-anchor="middle" x="2745.5" y="-13" font-family="Helvetica,sans-Serif" font-size="10.00" fill="#000000">_atoms.cpp</text>
</a>
</g>
</g>
<!-- Node7&#45;&gt;Node27 -->
<g id="edge20" class="edge">
<title>Node7&#45;&gt;Node27</title>
<path fill="none" stroke="#191970" d="M1711.3778,-87.3434C1913.0777,-85.062 2493.7259,-75.6724 2680.5,-42 2688.4362,-40.5692 2696.7425,-38.4169 2704.6623,-36.0272"/>
<polygon fill="#191970" stroke="#191970" points="1711.1653,-83.8455 1701.2047,-87.4561 1711.2428,-90.845 1711.1653,-83.8455"/>
</g>
<!-- Node28 -->
<g id="node22" class="node">
<title>Node28</title>
<g id="a_node22"><a xlink:href="sta__dump__box_8cpp.html" target="_top" xlink:title="This file has an implementation of StaDumpBox class, which is a subclass of Starter class...">
<polygon fill="#ffffff" stroke="#000000" points="2819.5,-6 2819.5,-36 2931.5,-36 2931.5,-6 2819.5,-6"/>
<text text-anchor="start" x="2827.5" y="-24" font-family="Helvetica,sans-Serif" font-size="10.00" fill="#000000">src/starters/sta_dump</text>
<text text-anchor="middle" x="2875.5" y="-13" font-family="Helvetica,sans-Serif" font-size="10.00" fill="#000000">_box.cpp</text>
</a>
</g>
</g>
<!-- Node7&#45;&gt;Node28 -->
<g id="edge21" class="edge">
<title>Node7&#45;&gt;Node28</title>
<path fill="none" stroke="#191970" d="M1711.3569,-87.7465C1929.7207,-86.5614 2597.5335,-79.8543 2810.5,-42 2818.4397,-40.5887 2826.7476,-38.4455 2834.6679,-36.0588"/>
<polygon fill="#191970" stroke="#191970" points="1711.2836,-84.2468 1701.302,-87.7989 1711.3201,-91.2467 1711.2836,-84.2468"/>
</g>
<!-- Node29 -->
<g id="node23" class="node">
<title>Node29</title>
<g id="a_node23"><a xlink:href="starter_8cpp.html" target="_top" xlink:title="This file has an implementation of Starter class, which is a subclass of Updater class. ">
<polygon fill="#ffffff" stroke="#000000" points="2949.5,-11.5 2949.5,-30.5 3065.5,-30.5 3065.5,-11.5 2949.5,-11.5"/>
<text text-anchor="middle" x="3007.5" y="-18.5" font-family="Helvetica,sans-Serif" font-size="10.00" fill="#000000">src/starters/starter.cpp</text>
</a>
</g>
</g>
<!-- Node7&#45;&gt;Node29 -->
<g id="edge22" class="edge">
<title>Node7&#45;&gt;Node29</title>
<path fill="none" stroke="#191970" d="M1711.3575,-86.6219C1963.6687,-81.4938 2819.3585,-62.7406 2940.5,-42 2954.798,-39.552 2970.2806,-34.8423 2982.7571,-30.5024"/>
<polygon fill="#191970" stroke="#191970" points="1711.1438,-83.1254 1701.2167,-86.8273 1711.2856,-90.124 1711.1438,-83.1254"/>
</g>
<!-- Node30 -->
<g id="node24" class="node">
<title>Node30</title>
<g id="a_node24"><a xlink:href="map__to__index_8cpp.html" target="_top" xlink:title="This file has an implementation of utils::map_to_index. ">
<polygon fill="#ffffff" stroke="#000000" points="3083.5,-11.5 3083.5,-30.5 3217.5,-30.5 3217.5,-11.5 3083.5,-11.5"/>
<text text-anchor="middle" x="3150.5" y="-18.5" font-family="Helvetica,sans-Serif" font-size="10.00" fill="#000000">src/utils/map_to_index.cpp</text>
</a>
</g>
</g>
<!-- Node7&#45;&gt;Node30 -->
<g id="edge23" class="edge">
<title>Node7&#45;&gt;Node30</title>
<path fill="none" stroke="#191970" d="M1711.251,-86.7336C1979.8845,-81.7229 2939.2762,-62.5532 3074.5,-42 3090.6048,-39.5522 3108.1592,-34.8424 3122.3357,-30.5025"/>
<polygon fill="#191970" stroke="#191970" points="1711.1673,-83.2344 1701.2341,-86.9198 1711.2975,-90.2332 1711.1673,-83.2344"/>
</g>
<!-- Node31 -->
<g id="node25" class="node">
<title>Node31</title>
<g id="a_node25"><a xlink:href="runtime__error_8cpp.html" target="_top" xlink:title="This file has an implementation of utils::runtime_error. ">
<polygon fill="#ffffff" stroke="#000000" points="3235.5,-11.5 3235.5,-30.5 3365.5,-30.5 3365.5,-11.5 3235.5,-11.5"/>
<text text-anchor="middle" x="3300.5" y="-18.5" font-family="Helvetica,sans-Serif" font-size="10.00" fill="#000000">src/utils/runtime_error.cpp</text>
</a>
</g>
</g>
<!-- Node7&#45;&gt;Node31 -->
<g id="edge24" class="edge">
<title>Node7&#45;&gt;Node31</title>
<path fill="none" stroke="#191970" d="M1711.3626,-86.9907C1997.9886,-82.7108 3075.7412,-65.2113 3226.5,-42 3242.2068,-39.5817 3259.3011,-34.874 3273.099,-30.5279"/>
<polygon fill="#191970" stroke="#191970" points="1711.0488,-83.4948 1701.102,-87.1432 1711.153,-90.4941 1711.0488,-83.4948"/>
</g>
</g>
</svg>
