<?xml version="1.0" encoding="UTF-8" standalone="no"?>
<!DOCTYPE svg PUBLIC "-//W3C//DTD SVG 1.1//EN"
 "http://www.w3.org/Graphics/SVG/1.1/DTD/svg11.dtd">
<!-- Generated by graphviz version 2.40.1 (20161225.0304)
 -->
<!-- Title: src/starters/sta_custom.h Pages: 1 -->
<svg width="315pt" height="218pt"
 viewBox="0.00 0.00 314.50 218.00" xmlns="http://www.w3.org/2000/svg" xmlns:xlink="http://www.w3.org/1999/xlink">
<g id="graph0" class="graph" transform="scale(1 1) rotate(0) translate(4 214)">
<title>src/starters/sta_custom.h</title>
<polygon fill="#ffffff" stroke="transparent" points="-4,4 -4,-214 310.5,-214 310.5,4 -4,4"/>
<!-- Node22 -->
<g id="node1" class="node">
<title>Node22</title>
<polygon fill="#bfbfbf" stroke="#000000" points="104,-190.5 104,-209.5 232,-209.5 232,-190.5 104,-190.5"/>
<text text-anchor="middle" x="168" y="-197.5" font-family="Helvetica,sans-Serif" font-size="10.00" fill="#000000">src/starters/sta_custom.h</text>
</g>
<!-- Node23 -->
<g id="node2" class="node">
<title>Node23</title>
<g id="a_node2"><a xlink:href="py__sta__custom_8h.html" target="_top" xlink:title="This file is for binding StaCustom class to Python. ">
<polygon fill="#ffffff" stroke="#000000" points="51,-123.5 51,-153.5 149,-153.5 149,-123.5 51,-123.5"/>
<text text-anchor="start" x="59" y="-141.5" font-family="Helvetica,sans-Serif" font-size="10.00" fill="#000000">src/pybind/starters</text>
<text text-anchor="middle" x="100" y="-130.5" font-family="Helvetica,sans-Serif" font-size="10.00" fill="#000000">/py_sta_custom.h</text>
</a>
</g>
</g>
<!-- Node22&#45;&gt;Node23 -->
<g id="edge1" class="edge">
<title>Node22&#45;&gt;Node23</title>
<path fill="none" stroke="#191970" d="M149.7423,-183.4875C139.4388,-174.1689 126.66,-162.6116 116.6347,-153.5446"/>
<polygon fill="#191970" stroke="#191970" points="147.6106,-186.2787 157.375,-190.3906 152.306,-181.0871 147.6106,-186.2787"/>
</g>
<!-- Node27 -->
<g id="node6" class="node">
<title>Node27</title>
<g id="a_node6"><a xlink:href="sta__custom_8cpp.html" target="_top" xlink:title="This file has an implementation of StaCustom class, which is a subclass of Starter class...">
<polygon fill="#ffffff" stroke="#000000" points="167.5,-129 167.5,-148 306.5,-148 306.5,-129 167.5,-129"/>
<text text-anchor="middle" x="237" y="-136" font-family="Helvetica,sans-Serif" font-size="10.00" fill="#000000">src/starters/sta_custom.cpp</text>
</a>
</g>
</g>
<!-- Node22&#45;&gt;Node27 -->
<g id="edge5" class="edge">
<title>Node22&#45;&gt;Node27</title>
<path fill="none" stroke="#191970" d="M186.4581,-183.5482C199.1008,-172.2798 215.4406,-157.716 226.0667,-148.2449"/>
<polygon fill="#191970" stroke="#191970" points="183.9176,-181.1241 178.7813,-190.3906 188.5752,-186.3497 183.9176,-181.1241"/>
</g>
<!-- Node24 -->
<g id="node3" class="node">
<title>Node24</title>
<g id="a_node3"><a xlink:href="pybind_8h.html" target="_top" xlink:title="This file includes all the header files containing definitions of functions to bind C++ and Python...">
<polygon fill="#ffffff" stroke="#000000" points="12,-62 12,-81 82,-81 82,-62 12,-62"/>
<text text-anchor="middle" x="47" y="-69" font-family="Helvetica,sans-Serif" font-size="10.00" fill="#000000">src/pybind.h</text>
</a>
</g>
</g>
<!-- Node23&#45;&gt;Node24 -->
<g id="edge2" class="edge">
<title>Node23&#45;&gt;Node24</title>
<path fill="none" stroke="#191970" d="M81.5564,-115.1845C72.2897,-103.47 61.5706,-89.9195 54.5584,-81.055"/>
<polygon fill="#191970" stroke="#191970" points="79.0244,-117.6252 87.9735,-123.2967 84.5144,-113.2824 79.0244,-117.6252"/>
</g>
<!-- Node26 -->
<g id="node5" class="node">
<title>Node26</title>
<g id="a_node5"><a xlink:href="py__sta__custom_8cpp.html" target="_top" xlink:title="This file is for binding StaCustom class to Python. ">
<polygon fill="#ffffff" stroke="#000000" points="100.5,-56.5 100.5,-86.5 205.5,-86.5 205.5,-56.5 100.5,-56.5"/>
<text text-anchor="start" x="108.5" y="-74.5" font-family="Helvetica,sans-Serif" font-size="10.00" fill="#000000">src/pybind/starters</text>
<text text-anchor="middle" x="153" y="-63.5" font-family="Helvetica,sans-Serif" font-size="10.00" fill="#000000">/py_sta_custom.cpp</text>
</a>
</g>
</g>
<!-- Node23&#45;&gt;Node26 -->
<g id="edge4" class="edge">
<title>Node23&#45;&gt;Node26</title>
<path fill="none" stroke="#191970" d="M118.312,-115.3509C125.8291,-105.8482 134.3209,-95.1132 141.0211,-86.6432"/>
<polygon fill="#191970" stroke="#191970" points="115.4856,-113.2824 112.0265,-123.2967 120.9756,-117.6252 115.4856,-113.2824"/>
</g>
<!-- Node25 -->
<g id="node4" class="node">
<title>Node25</title>
<g id="a_node4"><a xlink:href="ppap4lmp_8cpp.html" target="_top" xlink:title="This file has no implementation, only includes a header file to bind C++ and Python. ">
<polygon fill="#ffffff" stroke="#000000" points="0,-.5 0,-19.5 94,-19.5 94,-.5 0,-.5"/>
<text text-anchor="middle" x="47" y="-7.5" font-family="Helvetica,sans-Serif" font-size="10.00" fill="#000000">src/ppap4lmp.cpp</text>
</a>
</g>
</g>
<!-- Node24&#45;&gt;Node25 -->
<g id="edge3" class="edge">
<title>Node24&#45;&gt;Node25</title>
<path fill="none" stroke="#191970" d="M47,-51.7462C47,-41.0519 47,-28.314 47,-19.7449"/>
<polygon fill="#191970" stroke="#191970" points="43.5001,-51.8906 47,-61.8906 50.5001,-51.8907 43.5001,-51.8906"/>
</g>
</g>
</svg>
