<?xml version="1.0" encoding="UTF-8" standalone="no"?>
<!DOCTYPE svg PUBLIC "-//W3C//DTD SVG 1.1//EN"
 "http://www.w3.org/Graphics/SVG/1.1/DTD/svg11.dtd">
<!-- Generated by graphviz version 2.40.1 (20161225.0304)
 -->
<!-- Title: src/starters/sta_dump_box.h Pages: 1 -->
<svg width="295pt" height="229pt"
 viewBox="0.00 0.00 295.00 229.00" xmlns="http://www.w3.org/2000/svg" xmlns:xlink="http://www.w3.org/1999/xlink">
<g id="graph0" class="graph" transform="scale(1 1) rotate(0) translate(4 225)">
<title>src/starters/sta_dump_box.h</title>
<polygon fill="#ffffff" stroke="transparent" points="-4,4 -4,-225 291,-225 291,4 -4,4"/>
<!-- Node23 -->
<g id="node1" class="node">
<title>Node23</title>
<polygon fill="#bfbfbf" stroke="#000000" points="111,-190.5 111,-220.5 223,-220.5 223,-190.5 111,-190.5"/>
<text text-anchor="start" x="119" y="-208.5" font-family="Helvetica,sans-Serif" font-size="10.00" fill="#000000">src/starters/sta_dump</text>
<text text-anchor="middle" x="167" y="-197.5" font-family="Helvetica,sans-Serif" font-size="10.00" fill="#000000">_box.h</text>
</g>
<!-- Node24 -->
<g id="node2" class="node">
<title>Node24</title>
<g id="a_node2"><a xlink:href="py__sta__dump__box_8h.html" target="_top" xlink:title="This file is for binding StaDumpBox class to Python. ">
<polygon fill="#ffffff" stroke="#000000" points="49.5,-123.5 49.5,-153.5 156.5,-153.5 156.5,-123.5 49.5,-123.5"/>
<text text-anchor="start" x="57.5" y="-141.5" font-family="Helvetica,sans-Serif" font-size="10.00" fill="#000000">src/pybind/starters</text>
<text text-anchor="middle" x="103" y="-130.5" font-family="Helvetica,sans-Serif" font-size="10.00" fill="#000000">/py_sta_dump_box.h</text>
</a>
</g>
</g>
<!-- Node23&#45;&gt;Node24 -->
<g id="edge1" class="edge">
<title>Node23&#45;&gt;Node24</title>
<path fill="none" stroke="#191970" d="M145.4361,-182.9253C136.2254,-173.2828 125.7193,-162.2843 117.4651,-153.6432"/>
<polygon fill="#191970" stroke="#191970" points="143.0392,-185.4831 152.4774,-190.2967 148.101,-180.648 143.0392,-185.4831"/>
</g>
<!-- Node28 -->
<g id="node6" class="node">
<title>Node28</title>
<g id="a_node6"><a xlink:href="sta__dump__box_8cpp.html" target="_top" xlink:title="This file has an implementation of StaDumpBox class, which is a subclass of Starter class...">
<polygon fill="#ffffff" stroke="#000000" points="175,-123.5 175,-153.5 287,-153.5 287,-123.5 175,-123.5"/>
<text text-anchor="start" x="183" y="-141.5" font-family="Helvetica,sans-Serif" font-size="10.00" fill="#000000">src/starters/sta_dump</text>
<text text-anchor="middle" x="231" y="-130.5" font-family="Helvetica,sans-Serif" font-size="10.00" fill="#000000">_box.cpp</text>
</a>
</g>
</g>
<!-- Node23&#45;&gt;Node28 -->
<g id="edge5" class="edge">
<title>Node23&#45;&gt;Node28</title>
<path fill="none" stroke="#191970" d="M188.5639,-182.9253C197.7746,-173.2828 208.2807,-162.2843 216.5349,-153.6432"/>
<polygon fill="#191970" stroke="#191970" points="185.899,-180.648 181.5226,-190.2967 190.9608,-185.4831 185.899,-180.648"/>
</g>
<!-- Node25 -->
<g id="node3" class="node">
<title>Node25</title>
<g id="a_node3"><a xlink:href="pybind_8h.html" target="_top" xlink:title="This file includes all the header files containing definitions of functions to bind C++ and Python...">
<polygon fill="#ffffff" stroke="#000000" points="12,-62 12,-81 82,-81 82,-62 12,-62"/>
<text text-anchor="middle" x="47" y="-69" font-family="Helvetica,sans-Serif" font-size="10.00" fill="#000000">src/pybind.h</text>
</a>
</g>
</g>
<!-- Node24&#45;&gt;Node25 -->
<g id="edge2" class="edge">
<title>Node24&#45;&gt;Node25</title>
<path fill="none" stroke="#191970" d="M83.7971,-115.5252C73.9415,-103.7336 62.4673,-90.0055 54.9862,-81.055"/>
<polygon fill="#191970" stroke="#191970" points="81.1941,-117.8684 90.2927,-123.2967 86.5651,-113.3792 81.1941,-117.8684"/>
</g>
<!-- Node27 -->
<g id="node5" class="node">
<title>Node27</title>
<g id="a_node5"><a xlink:href="py__sta__dump__box_8cpp.html" target="_top" xlink:title="This file is for binding StaDumpBox class to Python. ">
<polygon fill="#ffffff" stroke="#000000" points="100,-56.5 100,-86.5 218,-86.5 218,-56.5 100,-56.5"/>
<text text-anchor="start" x="108" y="-74.5" font-family="Helvetica,sans-Serif" font-size="10.00" fill="#000000">src/pybind/starters</text>
<text text-anchor="middle" x="159" y="-63.5" font-family="Helvetica,sans-Serif" font-size="10.00" fill="#000000">/py_sta_dump_box.cpp</text>
</a>
</g>
</g>
<!-- Node24&#45;&gt;Node27 -->
<g id="edge4" class="edge">
<title>Node24&#45;&gt;Node27</title>
<path fill="none" stroke="#191970" d="M122.3485,-115.3509C130.2911,-105.8482 139.2636,-95.1132 146.343,-86.6432"/>
<polygon fill="#191970" stroke="#191970" points="119.4349,-113.3792 115.7073,-123.2967 124.8059,-117.8684 119.4349,-113.3792"/>
</g>
<!-- Node26 -->
<g id="node4" class="node">
<title>Node26</title>
<g id="a_node4"><a xlink:href="ppap4lmp_8cpp.html" target="_top" xlink:title="This file has no implementation, only includes a header file to bind C++ and Python. ">
<polygon fill="#ffffff" stroke="#000000" points="0,-.5 0,-19.5 94,-19.5 94,-.5 0,-.5"/>
<text text-anchor="middle" x="47" y="-7.5" font-family="Helvetica,sans-Serif" font-size="10.00" fill="#000000">src/ppap4lmp.cpp</text>
</a>
</g>
</g>
<!-- Node25&#45;&gt;Node26 -->
<g id="edge3" class="edge">
<title>Node25&#45;&gt;Node26</title>
<path fill="none" stroke="#191970" d="M47,-51.7462C47,-41.0519 47,-28.314 47,-19.7449"/>
<polygon fill="#191970" stroke="#191970" points="43.5001,-51.8906 47,-61.8906 50.5001,-51.8907 43.5001,-51.8906"/>
</g>
</g>
</svg>
