<?xml version="1.0" encoding="UTF-8" standalone="no"?>
<!DOCTYPE svg PUBLIC "-//W3C//DTD SVG 1.1//EN"
 "http://www.w3.org/Graphics/SVG/1.1/DTD/svg11.dtd">
<!-- Generated by graphviz version 2.40.1 (20161225.0304)
 -->
<!-- Title: src/starters/sta_dump_atoms.h Pages: 1 -->
<svg width="258pt" height="218pt"
 viewBox="0.00 0.00 257.50 218.00" xmlns="http://www.w3.org/2000/svg" xmlns:xlink="http://www.w3.org/1999/xlink">
<g id="graph0" class="graph" transform="scale(1 1) rotate(0) translate(4 214)">
<title>src/starters/sta_dump_atoms.h</title>
<polygon fill="#ffffff" stroke="transparent" points="-4,4 -4,-214 253.5,-214 253.5,4 -4,4"/>
<!-- Node23 -->
<g id="node1" class="node">
<title>Node23</title>
<polygon fill="#bfbfbf" stroke="#000000" points="70.5,-179.5 70.5,-209.5 182.5,-209.5 182.5,-179.5 70.5,-179.5"/>
<text text-anchor="start" x="78.5" y="-197.5" font-family="Helvetica,sans-Serif" font-size="10.00" fill="#000000">src/starters/sta_dump</text>
<text text-anchor="middle" x="126.5" y="-186.5" font-family="Helvetica,sans-Serif" font-size="10.00" fill="#000000">_atoms.h</text>
</g>
<!-- Node24 -->
<g id="node2" class="node">
<title>Node24</title>
<g id="a_node2"><a xlink:href="py__sta__dump__atoms_8h.html" target="_top" xlink:title="This file is for binding StaDumpAtoms class to Python. ">
<polygon fill="#ffffff" stroke="#000000" points="0,-112.5 0,-142.5 119,-142.5 119,-112.5 0,-112.5"/>
<text text-anchor="start" x="8" y="-130.5" font-family="Helvetica,sans-Serif" font-size="10.00" fill="#000000">src/pybind/starters</text>
<text text-anchor="middle" x="59.5" y="-119.5" font-family="Helvetica,sans-Serif" font-size="10.00" fill="#000000">/py_sta_dump_atoms.h</text>
</a>
</g>
</g>
<!-- Node23&#45;&gt;Node24 -->
<g id="edge1" class="edge">
<title>Node23&#45;&gt;Node24</title>
<path fill="none" stroke="#191970" d="M104.2113,-172.2113C94.5009,-162.5009 83.3698,-151.3698 74.6432,-142.6432"/>
<polygon fill="#191970" stroke="#191970" points="101.7507,-174.7004 111.2967,-179.2967 106.7004,-169.7507 101.7507,-174.7004"/>
</g>
<!-- Node27 -->
<g id="node5" class="node">
<title>Node27</title>
<g id="a_node5"><a xlink:href="sta__dump__atoms_8cpp.html" target="_top" xlink:title="This file has an implementation of StaDumpAtoms class, which is a subclass of Starter class...">
<polygon fill="#ffffff" stroke="#000000" points="137.5,-112.5 137.5,-142.5 249.5,-142.5 249.5,-112.5 137.5,-112.5"/>
<text text-anchor="start" x="145.5" y="-130.5" font-family="Helvetica,sans-Serif" font-size="10.00" fill="#000000">src/starters/sta_dump</text>
<text text-anchor="middle" x="193.5" y="-119.5" font-family="Helvetica,sans-Serif" font-size="10.00" fill="#000000">_atoms.cpp</text>
</a>
</g>
</g>
<!-- Node23&#45;&gt;Node27 -->
<g id="edge4" class="edge">
<title>Node23&#45;&gt;Node27</title>
<path fill="none" stroke="#191970" d="M148.7887,-172.2113C158.4991,-162.5009 169.6302,-151.3698 178.3568,-142.6432"/>
<polygon fill="#191970" stroke="#191970" points="146.2996,-169.7507 141.7033,-179.2967 151.2493,-174.7004 146.2996,-169.7507"/>
</g>
<!-- Node25 -->
<g id="node3" class="node">
<title>Node25</title>
<g id="a_node3"><a xlink:href="pybind_8h.html" target="_top" xlink:title="This file includes all the header files containing definitions of functions to bind C++ and Python...">
<polygon fill="#ffffff" stroke="#000000" points="24.5,-56.5 24.5,-75.5 94.5,-75.5 94.5,-56.5 24.5,-56.5"/>
<text text-anchor="middle" x="59.5" y="-63.5" font-family="Helvetica,sans-Serif" font-size="10.00" fill="#000000">src/pybind.h</text>
</a>
</g>
</g>
<!-- Node24&#45;&gt;Node25 -->
<g id="edge2" class="edge">
<title>Node24&#45;&gt;Node25</title>
<path fill="none" stroke="#191970" d="M59.5,-102.2849C59.5,-92.9858 59.5,-82.9883 59.5,-75.8469"/>
<polygon fill="#191970" stroke="#191970" points="56.0001,-102.2977 59.5,-112.2977 63.0001,-102.2978 56.0001,-102.2977"/>
</g>
<!-- Node26 -->
<g id="node4" class="node">
<title>Node26</title>
<g id="a_node4"><a xlink:href="ppap4lmp_8cpp.html" target="_top" xlink:title="This file has no implementation, only includes a header file to bind C++ and Python. ">
<polygon fill="#ffffff" stroke="#000000" points="12.5,-.5 12.5,-19.5 106.5,-19.5 106.5,-.5 12.5,-.5"/>
<text text-anchor="middle" x="59.5" y="-7.5" font-family="Helvetica,sans-Serif" font-size="10.00" fill="#000000">src/ppap4lmp.cpp</text>
</a>
</g>
</g>
<!-- Node25&#45;&gt;Node26 -->
<g id="edge3" class="edge">
<title>Node25&#45;&gt;Node26</title>
<path fill="none" stroke="#191970" d="M59.5,-46.1575C59.5,-37.155 59.5,-26.9199 59.5,-19.6427"/>
<polygon fill="#191970" stroke="#191970" points="56.0001,-46.2455 59.5,-56.2455 63.0001,-46.2456 56.0001,-46.2455"/>
</g>
</g>
</svg>
