<?xml version="1.0" encoding="UTF-8" standalone="no"?>
<!DOCTYPE svg PUBLIC "-//W3C//DTD SVG 1.1//EN"
 "http://www.w3.org/Graphics/SVG/1.1/DTD/svg11.dtd">
<!-- Generated by graphviz version 2.40.1 (20161225.0304)
 -->
<!-- Title: src/starters/sta_dump.cpp Pages: 1 -->
<svg width="602pt" height="532pt"
 viewBox="0.00 0.00 601.50 532.00" xmlns="http://www.w3.org/2000/svg" xmlns:xlink="http://www.w3.org/1999/xlink">
<g id="graph0" class="graph" transform="scale(1 1) rotate(0) translate(4 528)">
<title>src/starters/sta_dump.cpp</title>
<polygon fill="#ffffff" stroke="transparent" points="-4,4 -4,-528 597.5,-528 597.5,4 -4,4"/>
<!-- Node0 -->
<g id="node1" class="node">
<title>Node0</title>
<polygon fill="#bfbfbf" stroke="#000000" points="0,-504.5 0,-523.5 131,-523.5 131,-504.5 0,-504.5"/>
<text text-anchor="middle" x="65.5" y="-511.5" font-family="Helvetica,sans-Serif" font-size="10.00" fill="#000000">src/starters/sta_dump.cpp</text>
</g>
<!-- Node1 -->
<g id="node2" class="node">
<title>Node1</title>
<g id="a_node2"><a xlink:href="sta__dump_8h.html" target="_top" xlink:title="This file has a definition of StaDump class, which is a subclass of Starter class. ">
<polygon fill="#ffffff" stroke="#000000" points="31.5,-448.5 31.5,-467.5 99.5,-467.5 99.5,-448.5 31.5,-448.5"/>
<text text-anchor="middle" x="65.5" y="-455.5" font-family="Helvetica,sans-Serif" font-size="10.00" fill="#000000">sta_dump.h</text>
</a>
</g>
</g>
<!-- Node0&#45;&gt;Node1 -->
<g id="edge1" class="edge">
<title>Node0&#45;&gt;Node1</title>
<path fill="none" stroke="#191970" d="M65.5,-504.2455C65.5,-496.9382 65.5,-486.6944 65.5,-477.7046"/>
<polygon fill="#191970" stroke="#191970" points="69.0001,-477.6426 65.5,-467.6427 62.0001,-477.6427 69.0001,-477.6426"/>
</g>
<!-- Node2 -->
<g id="node3" class="node">
<title>Node2</title>
<g id="a_node3"><a xlink:href="starter_8h.html" target="_top" xlink:title="This file has a definition of Starter class, which is a subclass of Updater class. ">
<polygon fill="#ffffff" stroke="#000000" points="21,-392.5 21,-411.5 110,-411.5 110,-392.5 21,-392.5"/>
<text text-anchor="middle" x="65.5" y="-399.5" font-family="Helvetica,sans-Serif" font-size="10.00" fill="#000000">starters/starter.h</text>
</a>
</g>
</g>
<!-- Node1&#45;&gt;Node2 -->
<g id="edge2" class="edge">
<title>Node1&#45;&gt;Node2</title>
<path fill="none" stroke="#191970" d="M65.5,-448.2455C65.5,-440.9382 65.5,-430.6944 65.5,-421.7046"/>
<polygon fill="#191970" stroke="#191970" points="69.0001,-421.6426 65.5,-411.6427 62.0001,-421.6427 69.0001,-421.6426"/>
</g>
<!-- Node3 -->
<g id="node4" class="node">
<title>Node3</title>
<g id="a_node4"><a xlink:href="updater_8h.html" target="_top" xlink:title="This file has a definition of Updater class, which is one of the cores of this program. ">
<polygon fill="#ffffff" stroke="#000000" points="26,-336.5 26,-355.5 105,-355.5 105,-336.5 26,-336.5"/>
<text text-anchor="middle" x="65.5" y="-343.5" font-family="Helvetica,sans-Serif" font-size="10.00" fill="#000000">core/updater.h</text>
</a>
</g>
</g>
<!-- Node2&#45;&gt;Node3 -->
<g id="edge3" class="edge">
<title>Node2&#45;&gt;Node3</title>
<path fill="none" stroke="#191970" d="M65.5,-392.2455C65.5,-384.9382 65.5,-374.6944 65.5,-365.7046"/>
<polygon fill="#191970" stroke="#191970" points="69.0001,-365.6426 65.5,-355.6427 62.0001,-365.6427 69.0001,-365.6426"/>
</g>
<!-- Node4 -->
<g id="node5" class="node">
<title>Node4</title>
<polygon fill="#ffffff" stroke="#bfbfbf" points="6.5,-112.5 6.5,-131.5 50.5,-131.5 50.5,-112.5 6.5,-112.5"/>
<text text-anchor="middle" x="28.5" y="-119.5" font-family="Helvetica,sans-Serif" font-size="10.00" fill="#000000">omp.h</text>
</g>
<!-- Node3&#45;&gt;Node4 -->
<g id="edge4" class="edge">
<title>Node3&#45;&gt;Node4</title>
<path fill="none" stroke="#191970" d="M63.9102,-336.375C58.3004,-302.4133 39.36,-187.7472 31.7275,-141.5392"/>
<polygon fill="#191970" stroke="#191970" points="35.1669,-140.885 30.0839,-131.5891 28.2605,-142.0259 35.1669,-140.885"/>
</g>
<!-- Node5 -->
<g id="node6" class="node">
<title>Node5</title>
<g id="a_node6"><a xlink:href="generators_8h.html" target="_top" xlink:title="This file includes all the header files of subclasses of Generator class. ">
<polygon fill="#ffffff" stroke="#000000" points="73.5,-280.5 73.5,-299.5 165.5,-299.5 165.5,-280.5 73.5,-280.5"/>
<text text-anchor="middle" x="119.5" y="-287.5" font-family="Helvetica,sans-Serif" font-size="10.00" fill="#000000">core/generators.h</text>
</a>
</g>
</g>
<!-- Node3&#45;&gt;Node5 -->
<g id="edge5" class="edge">
<title>Node3&#45;&gt;Node5</title>
<path fill="none" stroke="#191970" d="M74.9061,-336.2455C82.6493,-328.2155 93.812,-316.6394 103.0318,-307.0781"/>
<polygon fill="#191970" stroke="#191970" points="105.7798,-309.2706 110.2017,-299.6427 100.7409,-304.4117 105.7798,-309.2706"/>
</g>
<!-- Node6 -->
<g id="node7" class="node">
<title>Node6</title>
<g id="a_node7"><a xlink:href="element_8h.html" target="_top" xlink:title="This file has a definition of Element class, which is one of the cores of this program. ">
<polygon fill="#ffffff" stroke="#000000" points="96,-168.5 96,-187.5 177,-187.5 177,-168.5 96,-168.5"/>
<text text-anchor="middle" x="136.5" y="-175.5" font-family="Helvetica,sans-Serif" font-size="10.00" fill="#000000">core/element.h</text>
</a>
</g>
</g>
<!-- Node5&#45;&gt;Node6 -->
<g id="edge6" class="edge">
<title>Node5&#45;&gt;Node6</title>
<path fill="none" stroke="#191970" d="M108.4645,-280.3308C95.3689,-267.6184 76.3867,-244.4925 85.5,-224 90.9508,-211.7432 101.4599,-201.3755 111.5289,-193.6036"/>
<polygon fill="#191970" stroke="#191970" points="113.6744,-196.3721 119.7627,-187.7012 109.596,-190.6828 113.6744,-196.3721"/>
</g>
<!-- Node20 -->
<g id="node21" class="node">
<title>Node20</title>
<g id="a_node21"><a xlink:href="gen__dict_8h.html" target="_top" xlink:title="This file has a definition of GenDict class. ">
<polygon fill="#ffffff" stroke="#000000" points="95,-224.5 95,-243.5 178,-243.5 178,-224.5 95,-224.5"/>
<text text-anchor="middle" x="136.5" y="-231.5" font-family="Helvetica,sans-Serif" font-size="10.00" fill="#000000">core/gen_dict.h</text>
</a>
</g>
</g>
<!-- Node5&#45;&gt;Node20 -->
<g id="edge21" class="edge">
<title>Node5&#45;&gt;Node20</title>
<path fill="none" stroke="#191970" d="M122.4612,-280.2455C124.7038,-272.8579 127.8577,-262.4689 130.6081,-253.4087"/>
<polygon fill="#191970" stroke="#191970" points="134.017,-254.2282 133.5728,-243.6427 127.3188,-252.1948 134.017,-254.2282"/>
</g>
<!-- Node21 -->
<g id="node22" class="node">
<title>Node21</title>
<g id="a_node22"><a xlink:href="gen__list_8h.html" target="_top" xlink:title="This file has a definition of GenList class. ">
<polygon fill="#ffffff" stroke="#000000" points="196.5,-224.5 196.5,-243.5 276.5,-243.5 276.5,-224.5 196.5,-224.5"/>
<text text-anchor="middle" x="236.5" y="-231.5" font-family="Helvetica,sans-Serif" font-size="10.00" fill="#000000">core/gen_list.h</text>
</a>
</g>
</g>
<!-- Node5&#45;&gt;Node21 -->
<g id="edge23" class="edge">
<title>Node5&#45;&gt;Node21</title>
<path fill="none" stroke="#191970" d="M139.613,-280.3733C158.3103,-271.4241 186.3744,-257.9917 207.4934,-247.8835"/>
<polygon fill="#191970" stroke="#191970" points="209.1405,-250.9755 216.6494,-243.5011 206.1183,-244.6614 209.1405,-250.9755"/>
</g>
<!-- Node6&#45;&gt;Node4 -->
<g id="edge7" class="edge">
<title>Node6&#45;&gt;Node4</title>
<path fill="none" stroke="#191970" d="M117.6878,-168.2455C100.6527,-159.4125 75.3425,-146.2887 56.0319,-136.2758"/>
<polygon fill="#191970" stroke="#191970" points="57.5853,-133.1388 47.0966,-131.6427 54.363,-139.353 57.5853,-133.1388"/>
</g>
<!-- Node7 -->
<g id="node8" class="node">
<title>Node7</title>
<g id="a_node8"><a xlink:href="eigen_8h.html" target="_top" xlink:title="This file includes Eigen and defines some aliases for the Eigen&#45;Vector, Matrix and Array...">
<polygon fill="#ffffff" stroke="#000000" points="69,-112.5 69,-131.5 140,-131.5 140,-112.5 69,-112.5"/>
<text text-anchor="middle" x="104.5" y="-119.5" font-family="Helvetica,sans-Serif" font-size="10.00" fill="#000000">alias/eigen.h</text>
</a>
</g>
</g>
<!-- Node6&#45;&gt;Node7 -->
<g id="edge8" class="edge">
<title>Node6&#45;&gt;Node7</title>
<path fill="none" stroke="#191970" d="M130.926,-168.2455C126.5669,-160.617 120.3789,-149.7881 115.0867,-140.5267"/>
<polygon fill="#191970" stroke="#191970" points="118.0104,-138.5886 110.0101,-131.6427 111.9327,-142.0616 118.0104,-138.5886"/>
</g>
<!-- Node9 -->
<g id="node10" class="node">
<title>Node9</title>
<g id="a_node10"><a xlink:href="alias_2pybind_8h.html" target="_top" xlink:title="This file includes pybind11 and defines an alias for the namespace pybind11. ">
<polygon fill="#ffffff" stroke="#000000" points="158,-112.5 158,-131.5 235,-131.5 235,-112.5 158,-112.5"/>
<text text-anchor="middle" x="196.5" y="-119.5" font-family="Helvetica,sans-Serif" font-size="10.00" fill="#000000">alias/pybind.h</text>
</a>
</g>
</g>
<!-- Node6&#45;&gt;Node9 -->
<g id="edge10" class="edge">
<title>Node6&#45;&gt;Node9</title>
<path fill="none" stroke="#191970" d="M146.9512,-168.2455C155.7269,-160.0549 168.4554,-148.1749 178.814,-138.5069"/>
<polygon fill="#191970" stroke="#191970" points="181.2461,-141.0246 186.1686,-131.6427 176.4699,-135.9072 181.2461,-141.0246"/>
</g>
<!-- Node11 -->
<g id="node12" class="node">
<title>Node11</title>
<g id="a_node12"><a xlink:href="generator_8h.html" target="_top" xlink:title="This file has a definition of Generator class, which is one of the cores of this program. ">
<polygon fill="#ffffff" stroke="#000000" points="255,-112.5 255,-131.5 342,-131.5 342,-112.5 255,-112.5"/>
<text text-anchor="middle" x="298.5" y="-119.5" font-family="Helvetica,sans-Serif" font-size="10.00" fill="#000000">core/generator.h</text>
</a>
</g>
</g>
<!-- Node6&#45;&gt;Node11 -->
<g id="edge12" class="edge">
<title>Node6&#45;&gt;Node11</title>
<path fill="none" stroke="#191970" d="M164.3488,-168.3733C191.1703,-159.1016 231.9127,-145.0178 261.4598,-134.804"/>
<polygon fill="#191970" stroke="#191970" points="262.7069,-138.0762 271.0146,-131.5011 260.4198,-131.4603 262.7069,-138.0762"/>
</g>
<!-- Node8 -->
<g id="node9" class="node">
<title>Node8</title>
<polygon fill="#ffffff" stroke="#bfbfbf" points="53.5,-56.5 53.5,-75.5 125.5,-75.5 125.5,-56.5 53.5,-56.5"/>
<text text-anchor="middle" x="89.5" y="-63.5" font-family="Helvetica,sans-Serif" font-size="10.00" fill="#000000">Eigen/Dense</text>
</g>
<!-- Node7&#45;&gt;Node8 -->
<g id="edge9" class="edge">
<title>Node7&#45;&gt;Node8</title>
<path fill="none" stroke="#191970" d="M101.8872,-112.2455C99.9084,-104.8579 97.1256,-94.4689 94.6988,-85.4087"/>
<polygon fill="#191970" stroke="#191970" points="98.0511,-84.3966 92.0829,-75.6427 91.2895,-86.2078 98.0511,-84.3966"/>
</g>
<!-- Node10 -->
<g id="node11" class="node">
<title>Node10</title>
<polygon fill="#ffffff" stroke="#bfbfbf" points="143.5,-56.5 143.5,-75.5 249.5,-75.5 249.5,-56.5 143.5,-56.5"/>
<text text-anchor="middle" x="196.5" y="-63.5" font-family="Helvetica,sans-Serif" font-size="10.00" fill="#000000">pybind11/pybind11.h</text>
</g>
<!-- Node9&#45;&gt;Node10 -->
<g id="edge11" class="edge">
<title>Node9&#45;&gt;Node10</title>
<path fill="none" stroke="#191970" d="M196.5,-112.2455C196.5,-104.9382 196.5,-94.6944 196.5,-85.7046"/>
<polygon fill="#191970" stroke="#191970" points="200.0001,-85.6426 196.5,-75.6427 193.0001,-85.6427 200.0001,-85.6426"/>
</g>
<!-- Node12 -->
<g id="node13" class="node">
<title>Node12</title>
<g id="a_node13"><a xlink:href="std_8h.html" target="_top" xlink:title="This file includes a part of C++ Standard Template Library and defines aliases for them...">
<polygon fill="#ffffff" stroke="#000000" points="267.5,-56.5 267.5,-75.5 329.5,-75.5 329.5,-56.5 267.5,-56.5"/>
<text text-anchor="middle" x="298.5" y="-63.5" font-family="Helvetica,sans-Serif" font-size="10.00" fill="#000000">alias/std.h</text>
</a>
</g>
</g>
<!-- Node11&#45;&gt;Node12 -->
<g id="edge13" class="edge">
<title>Node11&#45;&gt;Node12</title>
<path fill="none" stroke="#191970" d="M298.5,-112.2455C298.5,-104.9382 298.5,-94.6944 298.5,-85.7046"/>
<polygon fill="#191970" stroke="#191970" points="302.0001,-85.6426 298.5,-75.6427 295.0001,-85.6427 302.0001,-85.6426"/>
</g>
<!-- Node18 -->
<g id="node19" class="node">
<title>Node18</title>
<g id="a_node19"><a xlink:href="json_8h.html" target="_top" xlink:title="This file includes nlohmann/json and defines an alias for a JSON class. ">
<polygon fill="#ffffff" stroke="#000000" points="429.5,-56.5 429.5,-75.5 495.5,-75.5 495.5,-56.5 429.5,-56.5"/>
<text text-anchor="middle" x="462.5" y="-63.5" font-family="Helvetica,sans-Serif" font-size="10.00" fill="#000000">alias/json.h</text>
</a>
</g>
</g>
<!-- Node11&#45;&gt;Node18 -->
<g id="edge19" class="edge">
<title>Node11&#45;&gt;Node18</title>
<path fill="none" stroke="#191970" d="M326.6926,-112.3733C353.8453,-103.1016 395.0907,-89.0178 425.0025,-78.804"/>
<polygon fill="#191970" stroke="#191970" points="426.3428,-82.0449 434.6753,-75.5011 424.0808,-75.4204 426.3428,-82.0449"/>
</g>
<!-- Node13 -->
<g id="node14" class="node">
<title>Node13</title>
<polygon fill="#ffffff" stroke="#bfbfbf" points="105.5,-.5 105.5,-19.5 157.5,-19.5 157.5,-.5 105.5,-.5"/>
<text text-anchor="middle" x="131.5" y="-7.5" font-family="Helvetica,sans-Serif" font-size="10.00" fill="#000000">memory</text>
</g>
<!-- Node12&#45;&gt;Node13 -->
<g id="edge14" class="edge">
<title>Node12&#45;&gt;Node13</title>
<path fill="none" stroke="#191970" d="M269.7917,-56.3733C241.472,-46.8769 198.0976,-32.3321 167.489,-22.0682"/>
<polygon fill="#191970" stroke="#191970" points="168.2321,-18.6259 157.6382,-18.7649 166.0066,-25.2627 168.2321,-18.6259"/>
</g>
<!-- Node14 -->
<g id="node15" class="node">
<title>Node14</title>
<polygon fill="#ffffff" stroke="#bfbfbf" points="176,-.5 176,-19.5 217,-19.5 217,-.5 176,-.5"/>
<text text-anchor="middle" x="196.5" y="-7.5" font-family="Helvetica,sans-Serif" font-size="10.00" fill="#000000">string</text>
</g>
<!-- Node12&#45;&gt;Node14 -->
<g id="edge15" class="edge">
<title>Node12&#45;&gt;Node14</title>
<path fill="none" stroke="#191970" d="M280.733,-56.2455C264.7905,-47.4928 241.1741,-34.527 223.0011,-24.5496"/>
<polygon fill="#191970" stroke="#191970" points="224.5137,-21.3873 214.0634,-19.6427 221.1448,-27.5233 224.5137,-21.3873"/>
</g>
<!-- Node15 -->
<g id="node16" class="node">
<title>Node15</title>
<polygon fill="#ffffff" stroke="#bfbfbf" points="235.5,-.5 235.5,-19.5 279.5,-19.5 279.5,-.5 235.5,-.5"/>
<text text-anchor="middle" x="257.5" y="-7.5" font-family="Helvetica,sans-Serif" font-size="10.00" fill="#000000">vector</text>
</g>
<!-- Node12&#45;&gt;Node15 -->
<g id="edge16" class="edge">
<title>Node12&#45;&gt;Node15</title>
<path fill="none" stroke="#191970" d="M291.3583,-56.2455C285.6556,-48.4564 277.51,-37.3308 270.6375,-27.9439"/>
<polygon fill="#191970" stroke="#191970" points="273.2913,-25.6437 264.5598,-19.6427 267.6432,-29.7789 273.2913,-25.6437"/>
</g>
<!-- Node16 -->
<g id="node17" class="node">
<title>Node16</title>
<polygon fill="#ffffff" stroke="#bfbfbf" points="298,-.5 298,-19.5 381,-19.5 381,-.5 298,-.5"/>
<text text-anchor="middle" x="339.5" y="-7.5" font-family="Helvetica,sans-Serif" font-size="10.00" fill="#000000">unordered_map</text>
</g>
<!-- Node12&#45;&gt;Node16 -->
<g id="edge17" class="edge">
<title>Node12&#45;&gt;Node16</title>
<path fill="none" stroke="#191970" d="M305.6417,-56.2455C311.3444,-48.4564 319.49,-37.3308 326.3625,-27.9439"/>
<polygon fill="#191970" stroke="#191970" points="329.3568,-29.7789 332.4402,-19.6427 323.7087,-25.6437 329.3568,-29.7789"/>
</g>
<!-- Node17 -->
<g id="node18" class="node">
<title>Node17</title>
<polygon fill="#ffffff" stroke="#bfbfbf" points="399.5,-.5 399.5,-19.5 477.5,-19.5 477.5,-.5 399.5,-.5"/>
<text text-anchor="middle" x="438.5" y="-7.5" font-family="Helvetica,sans-Serif" font-size="10.00" fill="#000000">unordered_set</text>
</g>
<!-- Node12&#45;&gt;Node17 -->
<g id="edge18" class="edge">
<title>Node12&#45;&gt;Node17</title>
<path fill="none" stroke="#191970" d="M322.5669,-56.3733C345.3428,-47.2629 379.7344,-33.5062 405.149,-23.3404"/>
<polygon fill="#191970" stroke="#191970" points="406.7623,-26.4648 414.7472,-19.5011 404.1625,-19.9654 406.7623,-26.4648"/>
</g>
<!-- Node19 -->
<g id="node20" class="node">
<title>Node19</title>
<polygon fill="#ffffff" stroke="#bfbfbf" points="495.5,-.5 495.5,-19.5 593.5,-19.5 593.5,-.5 495.5,-.5"/>
<text text-anchor="middle" x="544.5" y="-7.5" font-family="Helvetica,sans-Serif" font-size="10.00" fill="#000000">nlohmann/json.hpp</text>
</g>
<!-- Node18&#45;&gt;Node19 -->
<g id="edge20" class="edge">
<title>Node18&#45;&gt;Node19</title>
<path fill="none" stroke="#191970" d="M476.7833,-56.2455C489.247,-47.7337 507.5451,-35.2375 521.9792,-25.3801"/>
<polygon fill="#191970" stroke="#191970" points="524.0962,-28.1726 530.3804,-19.6427 520.1485,-22.392 524.0962,-28.1726"/>
</g>
<!-- Node20&#45;&gt;Node6 -->
<g id="edge22" class="edge">
<title>Node20&#45;&gt;Node6</title>
<path fill="none" stroke="#191970" d="M136.5,-224.2455C136.5,-216.9382 136.5,-206.6944 136.5,-197.7046"/>
<polygon fill="#191970" stroke="#191970" points="140.0001,-197.6426 136.5,-187.6427 133.0001,-197.6427 140.0001,-197.6426"/>
</g>
<!-- Node21&#45;&gt;Node6 -->
<g id="edge24" class="edge">
<title>Node21&#45;&gt;Node6</title>
<path fill="none" stroke="#191970" d="M219.0813,-224.2455C203.4515,-215.4928 180.2981,-202.527 162.4815,-192.5496"/>
<polygon fill="#191970" stroke="#191970" points="164.1543,-189.475 153.7191,-187.6427 160.734,-195.5825 164.1543,-189.475"/>
</g>
</g>
</svg>
