<?xml version="1.0" encoding="UTF-8" standalone="no"?>
<!DOCTYPE svg PUBLIC "-//W3C//DTD SVG 1.1//EN"
 "http://www.w3.org/Graphics/SVG/1.1/DTD/svg11.dtd">
<!-- Generated by graphviz version 2.40.1 (20161225.0304)
 -->
<!-- Title: src/starters/sta_copy.h Pages: 1 -->
<svg width="252pt" height="207pt"
 viewBox="0.00 0.00 252.00 207.00" xmlns="http://www.w3.org/2000/svg" xmlns:xlink="http://www.w3.org/1999/xlink">
<g id="graph0" class="graph" transform="scale(1 1) rotate(0) translate(4 203)">
<title>src/starters/sta_copy.h</title>
<polygon fill="#ffffff" stroke="transparent" points="-4,4 -4,-203 248,-203 248,4 -4,4"/>
<!-- Node22 -->
<g id="node1" class="node">
<title>Node22</title>
<polygon fill="#bfbfbf" stroke="#000000" points="55.5,-179.5 55.5,-198.5 172.5,-198.5 172.5,-179.5 55.5,-179.5"/>
<text text-anchor="middle" x="114" y="-186.5" font-family="Helvetica,sans-Serif" font-size="10.00" fill="#000000">src/starters/sta_copy.h</text>
</g>
<!-- Node23 -->
<g id="node2" class="node">
<title>Node23</title>
<g id="a_node2"><a xlink:href="py__sta__copy_8h.html" target="_top" xlink:title="This file is for binding StaCopy class to Python. ">
<polygon fill="#ffffff" stroke="#000000" points="0,-112.5 0,-142.5 98,-142.5 98,-112.5 0,-112.5"/>
<text text-anchor="start" x="8" y="-130.5" font-family="Helvetica,sans-Serif" font-size="10.00" fill="#000000">src/pybind/starters</text>
<text text-anchor="middle" x="49" y="-119.5" font-family="Helvetica,sans-Serif" font-size="10.00" fill="#000000">/py_sta_copy.h</text>
</a>
</g>
</g>
<!-- Node22&#45;&gt;Node23 -->
<g id="edge1" class="edge">
<title>Node22&#45;&gt;Node23</title>
<path fill="none" stroke="#191970" d="M96.5478,-172.4875C86.6988,-163.1689 74.4838,-151.6116 64.9008,-142.5446"/>
<polygon fill="#191970" stroke="#191970" points="94.1743,-175.0602 103.8438,-179.3906 98.9853,-169.9754 94.1743,-175.0602"/>
</g>
<!-- Node26 -->
<g id="node5" class="node">
<title>Node26</title>
<g id="a_node5"><a xlink:href="sta__copy_8cpp.html" target="_top" xlink:title="This file has an implementation of StaCopy class, which is a subclass of Starter class. ">
<polygon fill="#ffffff" stroke="#000000" points="116,-118 116,-137 244,-137 244,-118 116,-118"/>
<text text-anchor="middle" x="180" y="-125" font-family="Helvetica,sans-Serif" font-size="10.00" fill="#000000">src/starters/sta_copy.cpp</text>
</a>
</g>
</g>
<!-- Node22&#45;&gt;Node26 -->
<g id="edge4" class="edge">
<title>Node22&#45;&gt;Node26</title>
<path fill="none" stroke="#191970" d="M131.6556,-172.5482C143.7485,-161.2798 159.3779,-146.716 169.5421,-137.2449"/>
<polygon fill="#191970" stroke="#191970" points="129.2426,-170.0127 124.3125,-179.3906 134.0147,-175.134 129.2426,-170.0127"/>
</g>
<!-- Node24 -->
<g id="node3" class="node">
<title>Node24</title>
<g id="a_node3"><a xlink:href="pybind_8h.html" target="_top" xlink:title="This file includes all the header files containing definitions of functions to bind C++ and Python...">
<polygon fill="#ffffff" stroke="#000000" points="14,-56.5 14,-75.5 84,-75.5 84,-56.5 14,-56.5"/>
<text text-anchor="middle" x="49" y="-63.5" font-family="Helvetica,sans-Serif" font-size="10.00" fill="#000000">src/pybind.h</text>
</a>
</g>
</g>
<!-- Node23&#45;&gt;Node24 -->
<g id="edge2" class="edge">
<title>Node23&#45;&gt;Node24</title>
<path fill="none" stroke="#191970" d="M49,-102.2849C49,-92.9858 49,-82.9883 49,-75.8469"/>
<polygon fill="#191970" stroke="#191970" points="45.5001,-102.2977 49,-112.2977 52.5001,-102.2978 45.5001,-102.2977"/>
</g>
<!-- Node25 -->
<g id="node4" class="node">
<title>Node25</title>
<g id="a_node4"><a xlink:href="ppap4lmp_8cpp.html" target="_top" xlink:title="This file has no implementation, only includes a header file to bind C++ and Python. ">
<polygon fill="#ffffff" stroke="#000000" points="2,-.5 2,-19.5 96,-19.5 96,-.5 2,-.5"/>
<text text-anchor="middle" x="49" y="-7.5" font-family="Helvetica,sans-Serif" font-size="10.00" fill="#000000">src/ppap4lmp.cpp</text>
</a>
</g>
</g>
<!-- Node24&#45;&gt;Node25 -->
<g id="edge3" class="edge">
<title>Node24&#45;&gt;Node25</title>
<path fill="none" stroke="#191970" d="M49,-46.1575C49,-37.155 49,-26.9199 49,-19.6427"/>
<polygon fill="#191970" stroke="#191970" points="45.5001,-46.2455 49,-56.2455 52.5001,-46.2456 45.5001,-46.2455"/>
</g>
</g>
</svg>
