<?xml version="1.0" encoding="UTF-8" standalone="no"?>
<!DOCTYPE svg PUBLIC "-//W3C//DTD SVG 1.1//EN"
 "http://www.w3.org/Graphics/SVG/1.1/DTD/svg11.dtd">
<!-- Generated by graphviz version 2.40.1 (20161225.0304)
 -->
<!-- Title: src/starters/sta_dump.h Pages: 1 -->
<!--zoomable 285 -->
<svg id="main" version="1.1" xmlns="http://www.w3.org/2000/svg" xmlns:xlink="http://www.w3.org/1999/xlink" xml:space="preserve" onload="init(evt)">
<style type="text/css"><![CDATA[
.edge:hover path { stroke: red; }
.edge:hover polygon { stroke: red; fill: red; }
]]></style>
<script type="text/javascript"><![CDATA[
var edges = document.getElementsByTagName('g');
if (edges && edges.length) {
  for (var i=0;i<edges.length;i++) {
    if (edges[i].id.substr(0,4)=='edge') {
      edges[i].setAttribute('class','edge');
    }
  }
}
]]></script>
        <defs>
                <circle id="rim" cx="0" cy="0" r="7"/>
                <circle id="rim2" cx="0" cy="0" r="3.5"/>
                <g id="zoomPlus">
                        <use xlink:href="#rim" fill="#404040">
                                <set attributeName="fill" to="#808080" begin="zoomplus.mouseover" end="zoomplus.mouseout"/>
                        </use>
                        <path d="M-4,0h8M0,-4v8" fill="none" stroke="white" stroke-width="1.5" pointer-events="none"/>
                </g>
                <g id="zoomMin">
                        <use xlink:href="#rim" fill="#404040">
                                <set attributeName="fill" to="#808080" begin="zoomminus.mouseover" end="zoomminus.mouseout"/>
                        </use>
                        <path d="M-4,0h8" fill="none" stroke="white" stroke-width="1.5" pointer-events="none"/>
                </g>
                <g id="dirArrow">
                        <path fill="none" stroke="white" stroke-width="1.5" d="M0,-3.0v7 M-2.5,-0.5L0,-3.0L2.5,-0.5"/>
                </g>
               <g id="resetDef">
                       <use xlink:href="#rim2" fill="#404040">
                               <set attributeName="fill" to="#808080" begin="reset.mouseover" end="reset.mouseout"/>
                       </use>
               </g>
        </defs>

<script type="text/javascript">
var viewWidth = 690;
var viewHeight = 285;
var sectionId = 'dynsection-1';
</script>
<script xlink:href="svgpan.js"/>
<svg id="graph" class="graph">
<g id="viewport">
<title>src/starters/sta_dump.h</title>
<polygon fill="#ffffff" stroke="transparent" points="-4,4 -4,-281 685.5,-281 685.5,4 -4,4"/>
<!-- Node22 -->
<g id="node1" class="node">
<title>Node22</title>
<polygon fill="#bfbfbf" stroke="#000000" points="351,-257.5 351,-276.5 471,-276.5 471,-257.5 351,-257.5"/>
<text text-anchor="middle" x="411" y="-264.5" font-family="Helvetica,sans-Serif" font-size="10.00" fill="#000000">src/starters/sta_dump.h</text>
</g>
<!-- Node23 -->
<g id="node2" class="node">
<title>Node23</title>
<g id="a_node2"><a xlink:href="py__sta__dump_8h.html" target="_top" xlink:title="This file is for binding StaDump class to Python. ">
<polygon fill="#ffffff" stroke="#000000" points="77,-190.5 77,-220.5 175,-220.5 175,-190.5 77,-190.5"/>
<text text-anchor="start" x="85" y="-208.5" font-family="Helvetica,sans-Serif" font-size="10.00" fill="#000000">src/pybind/starters</text>
<text text-anchor="middle" x="126" y="-197.5" font-family="Helvetica,sans-Serif" font-size="10.00" fill="#000000">/py_sta_dump.h</text>
</a>
</g>
</g>
<!-- Node22&#45;&gt;Node23 -->
<g id="edge1" class="edge">
<title>Node22&#45;&gt;Node23</title>
<path fill="none" stroke="#191970" d="M356.9943,-255.3461C304.5965,-244.0393 225.7763,-227.0307 175.1073,-216.0968"/>
<polygon fill="#191970" stroke="#191970" points="356.2681,-258.7699 366.7815,-257.4581 357.7447,-251.9274 356.2681,-258.7699"/>
</g>
<!-- Node27 -->
<g id="node6" class="node">
<title>Node27</title>
<g id="a_node6"><a xlink:href="sta__dump_8cpp.html" target="_top" xlink:title="This file has an implementation of StaDump class, which is a subclass of Starter class. ">
<polygon fill="#ffffff" stroke="#000000" points="550.5,-196 550.5,-215 681.5,-215 681.5,-196 550.5,-196"/>
<text text-anchor="middle" x="616" y="-203" font-family="Helvetica,sans-Serif" font-size="10.00" fill="#000000">src/starters/sta_dump.cpp</text>
</a>
</g>
</g>
<!-- Node22&#45;&gt;Node27 -->
<g id="edge5" class="edge">
<title>Node22&#45;&gt;Node27</title>
<path fill="none" stroke="#191970" d="M452.9998,-254.4001C491.909,-242.7273 548.9326,-225.6202 584.1937,-215.0419"/>
<polygon fill="#191970" stroke="#191970" points="451.6038,-251.1647 443.0313,-257.3906 453.6153,-257.8695 451.6038,-251.1647"/>
</g>
<!-- Node28 -->
<g id="node7" class="node">
<title>Node28</title>
<g id="a_node7"><a xlink:href="sta__dump__atoms_8h.html" target="_top" xlink:title="This file has a definition of StaDumpAtoms class, which is a subclass of Starter class. ">
<polygon fill="#ffffff" stroke="#000000" points="290,-190.5 290,-220.5 402,-220.5 402,-190.5 290,-190.5"/>
<text text-anchor="start" x="298" y="-208.5" font-family="Helvetica,sans-Serif" font-size="10.00" fill="#000000">src/starters/sta_dump</text>
<text text-anchor="middle" x="346" y="-197.5" font-family="Helvetica,sans-Serif" font-size="10.00" fill="#000000">_atoms.h</text>
</a>
</g>
</g>
<!-- Node22&#45;&gt;Node28 -->
<g id="edge6" class="edge">
<title>Node22&#45;&gt;Node28</title>
<path fill="none" stroke="#191970" d="M393.5478,-250.4875C383.6988,-241.1689 371.4838,-229.6116 361.9008,-220.5446"/>
<polygon fill="#191970" stroke="#191970" points="391.1743,-253.0602 400.8438,-257.3906 395.9853,-247.9754 391.1743,-253.0602"/>
</g>
<!-- Node32 -->
<g id="node11" class="node">
<title>Node32</title>
<g id="a_node11"><a xlink:href="sta__dump__box_8h.html" target="_top" xlink:title="This file has a definition of StaDumpBox class, which is a subclass of Starter class. ">
<polygon fill="#ffffff" stroke="#000000" points="420,-190.5 420,-220.5 532,-220.5 532,-190.5 420,-190.5"/>
<text text-anchor="start" x="428" y="-208.5" font-family="Helvetica,sans-Serif" font-size="10.00" fill="#000000">src/starters/sta_dump</text>
<text text-anchor="middle" x="476" y="-197.5" font-family="Helvetica,sans-Serif" font-size="10.00" fill="#000000">_box.h</text>
</a>
</g>
</g>
<!-- Node22&#45;&gt;Node32 -->
<g id="edge11" class="edge">
<title>Node22&#45;&gt;Node32</title>
<path fill="none" stroke="#191970" d="M428.4522,-250.4875C438.3012,-241.1689 450.5162,-229.6116 460.0992,-220.5446"/>
<polygon fill="#191970" stroke="#191970" points="426.0147,-247.9754 421.1563,-257.3906 430.8257,-253.0602 426.0147,-247.9754"/>
</g>
<!-- Node24 -->
<g id="node3" class="node">
<title>Node24</title>
<g id="a_node3"><a xlink:href="pybind_8h.html" target="_top" xlink:title="This file includes all the header files containing definitions of functions to bind C++ and Python...">
<polygon fill="#ffffff" stroke="#000000" points="135,-62 135,-81 205,-81 205,-62 135,-62"/>
<text text-anchor="middle" x="170" y="-69" font-family="Helvetica,sans-Serif" font-size="10.00" fill="#000000">src/pybind.h</text>
</a>
</g>
</g>
<!-- Node23&#45;&gt;Node24 -->
<g id="edge2" class="edge">
<title>Node23&#45;&gt;Node24</title>
<path fill="none" stroke="#191970" d="M130.2726,-180.3005C133.4506,-163.7453 138.3818,-141.7606 145,-123 150.3564,-107.8163 158.9449,-91.2262 164.5299,-81.09"/>
<polygon fill="#191970" stroke="#191970" points="126.7988,-179.8397 128.4372,-190.307 133.6839,-181.1026 126.7988,-179.8397"/>
</g>
<!-- Node26 -->
<g id="node5" class="node">
<title>Node26</title>
<g id="a_node5"><a xlink:href="py__sta__dump_8cpp.html" target="_top" xlink:title="This file is for binding StaDump class to Python. ">
<polygon fill="#ffffff" stroke="#000000" points="0,-123.5 0,-153.5 98,-153.5 98,-123.5 0,-123.5"/>
<text text-anchor="start" x="8" y="-141.5" font-family="Helvetica,sans-Serif" font-size="10.00" fill="#000000">src/pybind/starters</text>
<text text-anchor="middle" x="49" y="-130.5" font-family="Helvetica,sans-Serif" font-size="10.00" fill="#000000">/py_sta_dump.cpp</text>
</a>
</g>
</g>
<!-- Node23&#45;&gt;Node26 -->
<g id="edge4" class="edge">
<title>Node23&#45;&gt;Node26</title>
<path fill="none" stroke="#191970" d="M100.7124,-183.4965C89.476,-173.7193 76.5308,-162.4554 66.4033,-153.6432"/>
<polygon fill="#191970" stroke="#191970" points="98.6861,-186.3728 108.5275,-190.2967 103.281,-181.092 98.6861,-186.3728"/>
</g>
<!-- Node25 -->
<g id="node4" class="node">
<title>Node25</title>
<g id="a_node4"><a xlink:href="ppap4lmp_8cpp.html" target="_top" xlink:title="This file has no implementation, only includes a header file to bind C++ and Python. ">
<polygon fill="#ffffff" stroke="#000000" points="123,-.5 123,-19.5 217,-19.5 217,-.5 123,-.5"/>
<text text-anchor="middle" x="170" y="-7.5" font-family="Helvetica,sans-Serif" font-size="10.00" fill="#000000">src/ppap4lmp.cpp</text>
</a>
</g>
</g>
<!-- Node24&#45;&gt;Node25 -->
<g id="edge3" class="edge">
<title>Node24&#45;&gt;Node25</title>
<path fill="none" stroke="#191970" d="M170,-51.7462C170,-41.0519 170,-28.314 170,-19.7449"/>
<polygon fill="#191970" stroke="#191970" points="166.5001,-51.8906 170,-61.8906 173.5001,-51.8907 166.5001,-51.8906"/>
</g>
<!-- Node29 -->
<g id="node8" class="node">
<title>Node29</title>
<g id="a_node8"><a xlink:href="py__sta__dump__atoms_8h.html" target="_top" xlink:title="This file is for binding StaDumpAtoms class to Python. ">
<polygon fill="#ffffff" stroke="#000000" points="154.5,-123.5 154.5,-153.5 273.5,-153.5 273.5,-123.5 154.5,-123.5"/>
<text text-anchor="start" x="162.5" y="-141.5" font-family="Helvetica,sans-Serif" font-size="10.00" fill="#000000">src/pybind/starters</text>
<text text-anchor="middle" x="214" y="-130.5" font-family="Helvetica,sans-Serif" font-size="10.00" fill="#000000">/py_sta_dump_atoms.h</text>
</a>
</g>
</g>
<!-- Node28&#45;&gt;Node29 -->
<g id="edge7" class="edge">
<title>Node28&#45;&gt;Node29</title>
<path fill="none" stroke="#191970" d="M307.411,-185.9132C287.1813,-175.645 262.7733,-163.2561 243.9812,-153.7177"/>
<polygon fill="#191970" stroke="#191970" points="305.8754,-189.0587 316.3766,-190.4639 309.0437,-182.8168 305.8754,-189.0587"/>
</g>
<!-- Node31 -->
<g id="node10" class="node">
<title>Node31</title>
<g id="a_node10"><a xlink:href="sta__dump__atoms_8cpp.html" target="_top" xlink:title="This file has an implementation of StaDumpAtoms class, which is a subclass of Starter class...">
<polygon fill="#ffffff" stroke="#000000" points="292,-123.5 292,-153.5 404,-153.5 404,-123.5 292,-123.5"/>
<text text-anchor="start" x="300" y="-141.5" font-family="Helvetica,sans-Serif" font-size="10.00" fill="#000000">src/starters/sta_dump</text>
<text text-anchor="middle" x="348" y="-130.5" font-family="Helvetica,sans-Serif" font-size="10.00" fill="#000000">_atoms.cpp</text>
</a>
</g>
</g>
<!-- Node28&#45;&gt;Node31 -->
<g id="edge10" class="edge">
<title>Node28&#45;&gt;Node31</title>
<path fill="none" stroke="#191970" d="M346.7605,-180.0249C347.026,-171.128 347.3156,-161.4287 347.548,-153.6432"/>
<polygon fill="#191970" stroke="#191970" points="343.2539,-180.1967 346.4538,-190.2967 350.2507,-180.4056 343.2539,-180.1967"/>
</g>
<!-- Node29&#45;&gt;Node24 -->
<g id="edge8" class="edge">
<title>Node29&#45;&gt;Node24</title>
<path fill="none" stroke="#191970" d="M198.4639,-114.8428C190.8227,-103.2073 182.0398,-89.8334 176.2749,-81.055"/>
<polygon fill="#191970" stroke="#191970" points="195.6008,-116.8592 204.0157,-123.2967 201.4519,-113.0167 195.6008,-116.8592"/>
</g>
<!-- Node30 -->
<g id="node9" class="node">
<title>Node30</title>
<g id="a_node9"><a xlink:href="py__sta__dump__atoms_8cpp.html" target="_top" xlink:title="This file is for binding StaDumpAtoms class to Python. ">
<polygon fill="#ffffff" stroke="#000000" points="223.5,-56.5 223.5,-86.5 352.5,-86.5 352.5,-56.5 223.5,-56.5"/>
<text text-anchor="start" x="231.5" y="-74.5" font-family="Helvetica,sans-Serif" font-size="10.00" fill="#000000">src/pybind/starters</text>
<text text-anchor="middle" x="288" y="-63.5" font-family="Helvetica,sans-Serif" font-size="10.00" fill="#000000">/py_sta_dump_atoms.cpp</text>
</a>
</g>
</g>
<!-- Node29&#45;&gt;Node30 -->
<g id="edge9" class="edge">
<title>Node29&#45;&gt;Node30</title>
<path fill="none" stroke="#191970" d="M238.3024,-116.4965C249.101,-106.7193 261.5418,-95.4554 271.2747,-86.6432"/>
<polygon fill="#191970" stroke="#191970" points="235.8556,-113.9903 230.7917,-123.2967 240.5539,-119.1794 235.8556,-113.9903"/>
</g>
<!-- Node33 -->
<g id="node12" class="node">
<title>Node33</title>
<g id="a_node12"><a xlink:href="py__sta__dump__box_8h.html" target="_top" xlink:title="This file is for binding StaDumpBox class to Python. ">
<polygon fill="#ffffff" stroke="#000000" points="422.5,-123.5 422.5,-153.5 529.5,-153.5 529.5,-123.5 422.5,-123.5"/>
<text text-anchor="start" x="430.5" y="-141.5" font-family="Helvetica,sans-Serif" font-size="10.00" fill="#000000">src/pybind/starters</text>
<text text-anchor="middle" x="476" y="-130.5" font-family="Helvetica,sans-Serif" font-size="10.00" fill="#000000">/py_sta_dump_box.h</text>
</a>
</g>
</g>
<!-- Node32&#45;&gt;Node33 -->
<g id="edge12" class="edge">
<title>Node32&#45;&gt;Node33</title>
<path fill="none" stroke="#191970" d="M476,-180.0249C476,-171.128 476,-161.4287 476,-153.6432"/>
<polygon fill="#191970" stroke="#191970" points="472.5001,-180.2966 476,-190.2967 479.5001,-180.2967 472.5001,-180.2966"/>
</g>
<!-- Node35 -->
<g id="node14" class="node">
<title>Node35</title>
<g id="a_node14"><a xlink:href="sta__dump__box_8cpp.html" target="_top" xlink:title="This file has an implementation of StaDumpBox class, which is a subclass of Starter class...">
<polygon fill="#ffffff" stroke="#000000" points="548,-123.5 548,-153.5 660,-153.5 660,-123.5 548,-123.5"/>
<text text-anchor="start" x="556" y="-141.5" font-family="Helvetica,sans-Serif" font-size="10.00" fill="#000000">src/starters/sta_dump</text>
<text text-anchor="middle" x="604" y="-130.5" font-family="Helvetica,sans-Serif" font-size="10.00" fill="#000000">_box.cpp</text>
</a>
</g>
</g>
<!-- Node32&#45;&gt;Node35 -->
<g id="edge15" class="edge">
<title>Node32&#45;&gt;Node35</title>
<path fill="none" stroke="#191970" d="M513.6849,-185.7743C533.2495,-175.5335 556.7868,-163.2132 574.9273,-153.7177"/>
<polygon fill="#191970" stroke="#191970" points="511.9622,-182.7255 504.7257,-190.4639 515.2085,-188.9272 511.9622,-182.7255"/>
</g>
<!-- Node33&#45;&gt;Node24 -->
<g id="edge13" class="edge">
<title>Node33&#45;&gt;Node24</title>
<path fill="none" stroke="#191970" d="M412.435,-122.9806C323.3168,-104.6232 297.8315,-109.1963 214,-87 207.7366,-85.3416 201.091,-83.2061 194.9136,-81.0535"/>
<polygon fill="#191970" stroke="#191970" points="411.9302,-126.4508 422.4361,-125.081 413.369,-119.6003 411.9302,-126.4508"/>
</g>
<!-- Node34 -->
<g id="node13" class="node">
<title>Node34</title>
<g id="a_node13"><a xlink:href="py__sta__dump__box_8cpp.html" target="_top" xlink:title="This file is for binding StaDumpBox class to Python. ">
<polygon fill="#ffffff" stroke="#000000" points="417,-56.5 417,-86.5 535,-86.5 535,-56.5 417,-56.5"/>
<text text-anchor="start" x="425" y="-74.5" font-family="Helvetica,sans-Serif" font-size="10.00" fill="#000000">src/pybind/starters</text>
<text text-anchor="middle" x="476" y="-63.5" font-family="Helvetica,sans-Serif" font-size="10.00" fill="#000000">/py_sta_dump_box.cpp</text>
</a>
</g>
</g>
<!-- Node33&#45;&gt;Node34 -->
<g id="edge14" class="edge">
<title>Node33&#45;&gt;Node34</title>
<path fill="none" stroke="#191970" d="M476,-113.0249C476,-104.128 476,-94.4287 476,-86.6432"/>
<polygon fill="#191970" stroke="#191970" points="472.5001,-113.2966 476,-123.2967 479.5001,-113.2967 472.5001,-113.2966"/>
</g>
</g>
</svg>
        <g id="navigator" transform="translate(0 0)" fill="#404254">
                <rect fill="#f2f5e9" fill-opacity="0.5" stroke="#606060" stroke-width=".5" x="0" y="0" width="60" height="60"/>
                <use id="zoomplus" xlink:href="#zoomPlus" x="17" y="9" onmousedown="handleZoom(evt,'in')"/>
                <use id="zoomminus" xlink:href="#zoomMin" x="42" y="9" onmousedown="handleZoom(evt,'out')"/>
                <use id="reset" xlink:href="#resetDef" x="30" y="36" onmousedown="handleReset()"/>
                <g id="arrowUp" xlink:href="#dirArrow" transform="translate(30 24)" onmousedown="handlePan(0,-1)">
                  <use xlink:href="#rim" fill="#404040">
                        <set attributeName="fill" to="#808080" begin="arrowUp.mouseover" end="arrowUp.mouseout"/>
                  </use>
                  <path fill="none" stroke="white" stroke-width="1.5" d="M0,-3.0v7 M-2.5,-0.5L0,-3.0L2.5,-0.5"/>
                </g>
                <g id="arrowRight" xlink:href="#dirArrow" transform="rotate(90) translate(36 -43)" onmousedown="handlePan(1,0)">
                  <use xlink:href="#rim" fill="#404040">
                        <set attributeName="fill" to="#808080" begin="arrowRight.mouseover" end="arrowRight.mouseout"/>
                  </use>
                  <path fill="none" stroke="white" stroke-width="1.5" d="M0,-3.0v7 M-2.5,-0.5L0,-3.0L2.5,-0.5"/>
                </g>
                <g id="arrowDown" xlink:href="#dirArrow" transform="rotate(180) translate(-30 -48)" onmousedown="handlePan(0,1)">
                  <use xlink:href="#rim" fill="#404040">
                        <set attributeName="fill" to="#808080" begin="arrowDown.mouseover" end="arrowDown.mouseout"/>
                  </use>
                  <path fill="none" stroke="white" stroke-width="1.5" d="M0,-3.0v7 M-2.5,-0.5L0,-3.0L2.5,-0.5"/>
                </g>
                <g id="arrowLeft" xlink:href="#dirArrow" transform="rotate(270) translate(-36 17)" onmousedown="handlePan(-1,0)">
                  <use xlink:href="#rim" fill="#404040">
                        <set attributeName="fill" to="#808080" begin="arrowLeft.mouseover" end="arrowLeft.mouseout"/>
                  </use>
                  <path fill="none" stroke="white" stroke-width="1.5" d="M0,-3.0v7 M-2.5,-0.5L0,-3.0L2.5,-0.5"/>
                </g>
        </g>
        <svg viewBox="0 0 15 15" width="100%" height="30px" preserveAspectRatio="xMaxYMin meet">
         <g id="arrow_out" transform="scale(0.3 0.3)">
          <a xlink:href="sta__dump_8h__dep__incl_org.svg" target="_base">
           <rect id="button" ry="5" rx="5" y="6" x="6" height="38" width="38"
                fill="#f2f5e9" fill-opacity="0.5" stroke="#606060" stroke-width="1.0"/>
           <path id="arrow"
             d="M 11.500037,31.436501 C 11.940474,20.09759 22.043105,11.32322 32.158766,21.979434 L 37.068811,17.246167 C 37.068811,17.246167 37.088388,32 37.088388,32 L 22.160133,31.978069 C 22.160133,31.978069 26.997745,27.140456 26.997745,27.140456 C 18.528582,18.264221 13.291696,25.230495 11.500037,31.436501 z"
             style="fill:#404040;"/>
          </a>
         </g>
        </svg>
</svg>
