<?xml version="1.0" encoding="UTF-8" standalone="no"?>
<!DOCTYPE svg PUBLIC "-//W3C//DTD SVG 1.1//EN"
 "http://www.w3.org/Graphics/SVG/1.1/DTD/svg11.dtd">
<!-- Generated by graphviz version 2.40.1 (20161225.0304)
 -->
<!-- Title: src/starters/sta_beads.h Pages: 1 -->
<svg width="307pt" height="218pt"
 viewBox="0.00 0.00 306.50 218.00" xmlns="http://www.w3.org/2000/svg" xmlns:xlink="http://www.w3.org/1999/xlink">
<g id="graph0" class="graph" transform="scale(1 1) rotate(0) translate(4 214)">
<title>src/starters/sta_beads.h</title>
<polygon fill="#ffffff" stroke="transparent" points="-4,4 -4,-214 302.5,-214 302.5,4 -4,4"/>
<!-- Node22 -->
<g id="node1" class="node">
<title>Node22</title>
<polygon fill="#bfbfbf" stroke="#000000" points="104,-190.5 104,-209.5 226,-209.5 226,-190.5 104,-190.5"/>
<text text-anchor="middle" x="165" y="-197.5" font-family="Helvetica,sans-Serif" font-size="10.00" fill="#000000">src/starters/sta_beads.h</text>
</g>
<!-- Node23 -->
<g id="node2" class="node">
<title>Node23</title>
<g id="a_node2"><a xlink:href="py__sta__beads_8h.html" target="_top" xlink:title="This file is for binding StaBeads class to Python. ">
<polygon fill="#ffffff" stroke="#000000" points="49,-123.5 49,-153.5 147,-153.5 147,-123.5 49,-123.5"/>
<text text-anchor="start" x="57" y="-141.5" font-family="Helvetica,sans-Serif" font-size="10.00" fill="#000000">src/pybind/starters</text>
<text text-anchor="middle" x="98" y="-130.5" font-family="Helvetica,sans-Serif" font-size="10.00" fill="#000000">/py_sta_beads.h</text>
</a>
</g>
</g>
<!-- Node22&#45;&gt;Node23 -->
<g id="edge1" class="edge">
<title>Node22&#45;&gt;Node23</title>
<path fill="none" stroke="#191970" d="M147.0108,-183.4875C136.8588,-174.1689 124.2679,-162.6116 114.39,-153.5446"/>
<polygon fill="#191970" stroke="#191970" points="144.7975,-186.2068 154.5313,-190.3906 149.531,-181.0499 144.7975,-186.2068"/>
</g>
<!-- Node27 -->
<g id="node6" class="node">
<title>Node27</title>
<g id="a_node6"><a xlink:href="sta__beads_8cpp.html" target="_top" xlink:title="This file has an implementation of StaBeads class, which is a subclass of Starter class...">
<polygon fill="#ffffff" stroke="#000000" points="165.5,-129 165.5,-148 298.5,-148 298.5,-129 165.5,-129"/>
<text text-anchor="middle" x="232" y="-136" font-family="Helvetica,sans-Serif" font-size="10.00" fill="#000000">src/starters/sta_beads.cpp</text>
</a>
</g>
</g>
<!-- Node22&#45;&gt;Node27 -->
<g id="edge5" class="edge">
<title>Node22&#45;&gt;Node27</title>
<path fill="none" stroke="#191970" d="M182.9231,-183.5482C195.1993,-172.2798 211.0655,-157.716 221.3837,-148.2449"/>
<polygon fill="#191970" stroke="#191970" points="180.469,-181.0499 175.4688,-190.3906 185.2025,-186.2068 180.469,-181.0499"/>
</g>
<!-- Node24 -->
<g id="node3" class="node">
<title>Node24</title>
<g id="a_node3"><a xlink:href="pybind_8h.html" target="_top" xlink:title="This file includes all the header files containing definitions of functions to bind C++ and Python...">
<polygon fill="#ffffff" stroke="#000000" points="12,-62 12,-81 82,-81 82,-62 12,-62"/>
<text text-anchor="middle" x="47" y="-69" font-family="Helvetica,sans-Serif" font-size="10.00" fill="#000000">src/pybind.h</text>
</a>
</g>
</g>
<!-- Node23&#45;&gt;Node24 -->
<g id="edge2" class="edge">
<title>Node23&#45;&gt;Node24</title>
<path fill="none" stroke="#191970" d="M80.2524,-115.1845C71.3354,-103.47 61.0208,-89.9195 54.2732,-81.055"/>
<polygon fill="#191970" stroke="#191970" points="77.5854,-117.4595 86.4273,-123.2967 83.1554,-113.2197 77.5854,-117.4595"/>
</g>
<!-- Node26 -->
<g id="node5" class="node">
<title>Node26</title>
<g id="a_node5"><a xlink:href="py__sta__beads_8cpp.html" target="_top" xlink:title="This file is for binding StaBeads class to Python. ">
<polygon fill="#ffffff" stroke="#000000" points="100.5,-56.5 100.5,-86.5 199.5,-86.5 199.5,-56.5 100.5,-56.5"/>
<text text-anchor="start" x="108.5" y="-74.5" font-family="Helvetica,sans-Serif" font-size="10.00" fill="#000000">src/pybind/starters</text>
<text text-anchor="middle" x="150" y="-63.5" font-family="Helvetica,sans-Serif" font-size="10.00" fill="#000000">/py_sta_beads.cpp</text>
</a>
</g>
</g>
<!-- Node23&#45;&gt;Node26 -->
<g id="edge4" class="edge">
<title>Node23&#45;&gt;Node26</title>
<path fill="none" stroke="#191970" d="M115.9665,-115.3509C123.3417,-105.8482 131.6734,-95.1132 138.2471,-86.6432"/>
<polygon fill="#191970" stroke="#191970" points="113.1659,-113.2508 109.7996,-123.2967 118.6958,-117.5427 113.1659,-113.2508"/>
</g>
<!-- Node25 -->
<g id="node4" class="node">
<title>Node25</title>
<g id="a_node4"><a xlink:href="ppap4lmp_8cpp.html" target="_top" xlink:title="This file has no implementation, only includes a header file to bind C++ and Python. ">
<polygon fill="#ffffff" stroke="#000000" points="0,-.5 0,-19.5 94,-19.5 94,-.5 0,-.5"/>
<text text-anchor="middle" x="47" y="-7.5" font-family="Helvetica,sans-Serif" font-size="10.00" fill="#000000">src/ppap4lmp.cpp</text>
</a>
</g>
</g>
<!-- Node24&#45;&gt;Node25 -->
<g id="edge3" class="edge">
<title>Node24&#45;&gt;Node25</title>
<path fill="none" stroke="#191970" d="M47,-51.7462C47,-41.0519 47,-28.314 47,-19.7449"/>
<polygon fill="#191970" stroke="#191970" points="43.5001,-51.8906 47,-61.8906 50.5001,-51.8907 43.5001,-51.8906"/>
</g>
</g>
</svg>
