<?xml version="1.0" encoding="UTF-8" standalone="no"?>
<!DOCTYPE svg PUBLIC "-//W3C//DTD SVG 1.1//EN"
 "http://www.w3.org/Graphics/SVG/1.1/DTD/svg11.dtd">
<!-- Generated by graphviz version 2.40.1 (20161225.0304)
 -->
<!-- Title: src/starters/sta_dump_atoms.h Pages: 1 -->
<svg width="242pt" height="218pt"
 viewBox="0.00 0.00 241.50 218.00" xmlns="http://www.w3.org/2000/svg" xmlns:xlink="http://www.w3.org/1999/xlink">
<g id="graph0" class="graph" transform="scale(1 1) rotate(0) translate(4 214)">
<title>src/starters/sta_dump_atoms.h</title>
<polygon fill="#ffffff" stroke="transparent" points="-4,4 -4,-214 237.5,-214 237.5,4 -4,4"/>
<!-- Node2 -->
<g id="node1" class="node">
<title>Node2</title>
<polygon fill="#bfbfbf" stroke="#000000" points="58.5,-179.5 58.5,-209.5 170.5,-209.5 170.5,-179.5 58.5,-179.5"/>
<text text-anchor="start" x="66.5" y="-197.5" font-family="Helvetica,sans-Serif" font-size="10.00" fill="#000000">src/starters/sta_dump</text>
<text text-anchor="middle" x="114.5" y="-186.5" font-family="Helvetica,sans-Serif" font-size="10.00" fill="#000000">_atoms.h</text>
</g>
<!-- Node3 -->
<g id="node2" class="node">
<title>Node3</title>
<g id="a_node2"><a xlink:href="pybind_2starters_2sta__dump__atoms_8h.html" target="_top" xlink:title="src/pybind/starters\l/sta_dump_atoms.h">
<polygon fill="#ffffff" stroke="#000000" points="0,-112.5 0,-142.5 103,-142.5 103,-112.5 0,-112.5"/>
<text text-anchor="start" x="8" y="-130.5" font-family="Helvetica,sans-Serif" font-size="10.00" fill="#000000">src/pybind/starters</text>
<text text-anchor="middle" x="51.5" y="-119.5" font-family="Helvetica,sans-Serif" font-size="10.00" fill="#000000">/sta_dump_atoms.h</text>
</a>
</g>
</g>
<!-- Node2&#45;&gt;Node3 -->
<g id="edge1" class="edge">
<title>Node2&#45;&gt;Node3</title>
<path fill="none" stroke="#191970" d="M93.273,-171.9253C84.2062,-162.2828 73.8643,-151.2843 65.7391,-142.6432"/>
<polygon fill="#191970" stroke="#191970" points="90.8042,-174.409 100.2043,-179.2967 95.9039,-169.6138 90.8042,-174.409"/>
</g>
<!-- Node6 -->
<g id="node5" class="node">
<title>Node6</title>
<g id="a_node5"><a xlink:href="sta__dump__atoms_8cpp.html" target="_top" xlink:title="src/starters/sta_dump\l_atoms.cpp">
<polygon fill="#ffffff" stroke="#000000" points="121.5,-112.5 121.5,-142.5 233.5,-142.5 233.5,-112.5 121.5,-112.5"/>
<text text-anchor="start" x="129.5" y="-130.5" font-family="Helvetica,sans-Serif" font-size="10.00" fill="#000000">src/starters/sta_dump</text>
<text text-anchor="middle" x="177.5" y="-119.5" font-family="Helvetica,sans-Serif" font-size="10.00" fill="#000000">_atoms.cpp</text>
</a>
</g>
</g>
<!-- Node2&#45;&gt;Node6 -->
<g id="edge4" class="edge">
<title>Node2&#45;&gt;Node6</title>
<path fill="none" stroke="#191970" d="M135.727,-171.9253C144.7938,-162.2828 155.1357,-151.2843 163.2609,-142.6432"/>
<polygon fill="#191970" stroke="#191970" points="133.0961,-169.6138 128.7957,-179.2967 138.1958,-174.409 133.0961,-169.6138"/>
</g>
<!-- Node4 -->
<g id="node3" class="node">
<title>Node4</title>
<g id="a_node3"><a xlink:href="pybind_8h.html" target="_top" xlink:title="This file includes all the header files containing definitions of functions to bind C++ and Python...">
<polygon fill="#ffffff" stroke="#000000" points="16.5,-56.5 16.5,-75.5 86.5,-75.5 86.5,-56.5 16.5,-56.5"/>
<text text-anchor="middle" x="51.5" y="-63.5" font-family="Helvetica,sans-Serif" font-size="10.00" fill="#000000">src/pybind.h</text>
</a>
</g>
</g>
<!-- Node3&#45;&gt;Node4 -->
<g id="edge2" class="edge">
<title>Node3&#45;&gt;Node4</title>
<path fill="none" stroke="#191970" d="M51.5,-102.2849C51.5,-92.9858 51.5,-82.9883 51.5,-75.8469"/>
<polygon fill="#191970" stroke="#191970" points="48.0001,-102.2977 51.5,-112.2977 55.0001,-102.2978 48.0001,-102.2977"/>
</g>
<!-- Node5 -->
<g id="node4" class="node">
<title>Node5</title>
<g id="a_node4"><a xlink:href="ppap4lmp_8cpp.html" target="_top" xlink:title="This file has no implementation, only includes a header file to bind C++ and Python. ">
<polygon fill="#ffffff" stroke="#000000" points="4.5,-.5 4.5,-19.5 98.5,-19.5 98.5,-.5 4.5,-.5"/>
<text text-anchor="middle" x="51.5" y="-7.5" font-family="Helvetica,sans-Serif" font-size="10.00" fill="#000000">src/ppap4lmp.cpp</text>
</a>
</g>
</g>
<!-- Node4&#45;&gt;Node5 -->
<g id="edge3" class="edge">
<title>Node4&#45;&gt;Node5</title>
<path fill="none" stroke="#191970" d="M51.5,-46.1575C51.5,-37.155 51.5,-26.9199 51.5,-19.6427"/>
<polygon fill="#191970" stroke="#191970" points="48.0001,-46.2455 51.5,-56.2455 55.0001,-46.2456 48.0001,-46.2455"/>
</g>
</g>
</svg>
