<?xml version="1.0" encoding="UTF-8" standalone="no"?>
<!DOCTYPE svg PUBLIC "-//W3C//DTD SVG 1.1//EN"
 "http://www.w3.org/Graphics/SVG/1.1/DTD/svg11.dtd">
<!-- Generated by graphviz version 2.40.1 (20161225.0304)
 -->
<!-- Title: src/starters/sta_dump.h Pages: 1 -->
<svg width="632pt" height="274pt"
 viewBox="0.00 0.00 632.00 274.00" xmlns="http://www.w3.org/2000/svg" xmlns:xlink="http://www.w3.org/1999/xlink">
<g id="graph0" class="graph" transform="scale(1 1) rotate(0) translate(4 270)">
<title>src/starters/sta_dump.h</title>
<polygon fill="#ffffff" stroke="transparent" points="-4,4 -4,-270 628,-270 628,4 -4,4"/>
<!-- Node2 -->
<g id="node1" class="node">
<title>Node2</title>
<polygon fill="#bfbfbf" stroke="#000000" points="192,-246.5 192,-265.5 312,-265.5 312,-246.5 192,-246.5"/>
<text text-anchor="middle" x="252" y="-253.5" font-family="Helvetica,sans-Serif" font-size="10.00" fill="#000000">src/starters/sta_dump.h</text>
</g>
<!-- Node3 -->
<g id="node2" class="node">
<title>Node3</title>
<g id="a_node2"><a xlink:href="pybind_2starters_2sta__dump_8h.html" target="_top" xlink:title="src/pybind/starters\l/sta_dump.h">
<polygon fill="#ffffff" stroke="#000000" points="0,-179.5 0,-209.5 98,-209.5 98,-179.5 0,-179.5"/>
<text text-anchor="start" x="8" y="-197.5" font-family="Helvetica,sans-Serif" font-size="10.00" fill="#000000">src/pybind/starters</text>
<text text-anchor="middle" x="49" y="-186.5" font-family="Helvetica,sans-Serif" font-size="10.00" fill="#000000">/sta_dump.h</text>
</a>
</g>
</g>
<!-- Node2&#45;&gt;Node3 -->
<g id="edge1" class="edge">
<title>Node2&#45;&gt;Node3</title>
<path fill="none" stroke="#191970" d="M210.6255,-243.4654C178.0943,-233.6099 132.6787,-219.8509 98.2702,-209.4267"/>
<polygon fill="#191970" stroke="#191970" points="209.696,-246.8408 220.2813,-246.3906 211.7256,-240.1415 209.696,-246.8408"/>
</g>
<!-- Node6 -->
<g id="node5" class="node">
<title>Node6</title>
<g id="a_node5"><a xlink:href="sta__dump_8cpp.html" target="_top" xlink:title="src/starters/sta_dump.cpp">
<polygon fill="#ffffff" stroke="#000000" points="116.5,-185 116.5,-204 247.5,-204 247.5,-185 116.5,-185"/>
<text text-anchor="middle" x="182" y="-192" font-family="Helvetica,sans-Serif" font-size="10.00" fill="#000000">src/starters/sta_dump.cpp</text>
</a>
</g>
</g>
<!-- Node2&#45;&gt;Node6 -->
<g id="edge4" class="edge">
<title>Node2&#45;&gt;Node6</title>
<path fill="none" stroke="#191970" d="M233.2743,-239.5482C220.4485,-228.2798 203.8719,-213.716 193.0917,-204.2449"/>
<polygon fill="#191970" stroke="#191970" points="231.2399,-242.4197 241.0625,-246.3906 235.8601,-237.161 231.2399,-242.4197"/>
</g>
<!-- Node7 -->
<g id="node6" class="node">
<title>Node7</title>
<g id="a_node6"><a xlink:href="starters_2sta__dump__atoms_8h.html" target="_top" xlink:title="src/starters/sta_dump\l_atoms.h">
<polygon fill="#ffffff" stroke="#000000" points="266,-179.5 266,-209.5 378,-209.5 378,-179.5 266,-179.5"/>
<text text-anchor="start" x="274" y="-197.5" font-family="Helvetica,sans-Serif" font-size="10.00" fill="#000000">src/starters/sta_dump</text>
<text text-anchor="middle" x="322" y="-186.5" font-family="Helvetica,sans-Serif" font-size="10.00" fill="#000000">_atoms.h</text>
</a>
</g>
</g>
<!-- Node2&#45;&gt;Node7 -->
<g id="edge5" class="edge">
<title>Node2&#45;&gt;Node7</title>
<path fill="none" stroke="#191970" d="M270.4804,-239.7637C281.1405,-230.398 294.4537,-218.7014 304.8761,-209.5446"/>
<polygon fill="#191970" stroke="#191970" points="268.1399,-237.161 262.9375,-246.3906 272.7601,-242.4197 268.1399,-237.161"/>
</g>
<!-- Node10 -->
<g id="node9" class="node">
<title>Node10</title>
<g id="a_node9"><a xlink:href="starters_2sta__dump__box_8h.html" target="_top" xlink:title="src/starters/sta_dump\l_box.h">
<polygon fill="#ffffff" stroke="#000000" points="396,-179.5 396,-209.5 508,-209.5 508,-179.5 396,-179.5"/>
<text text-anchor="start" x="404" y="-197.5" font-family="Helvetica,sans-Serif" font-size="10.00" fill="#000000">src/starters/sta_dump</text>
<text text-anchor="middle" x="452" y="-186.5" font-family="Helvetica,sans-Serif" font-size="10.00" fill="#000000">_box.h</text>
</a>
</g>
</g>
<!-- Node2&#45;&gt;Node10 -->
<g id="edge9" class="edge">
<title>Node2&#45;&gt;Node10</title>
<path fill="none" stroke="#191970" d="M293.1428,-243.3486C325.045,-233.5386 369.3551,-219.9133 403.0745,-209.5446"/>
<polygon fill="#191970" stroke="#191970" points="291.7796,-240.106 283.25,-246.3906 293.837,-246.7968 291.7796,-240.106"/>
</g>
<!-- Node4 -->
<g id="node3" class="node">
<title>Node4</title>
<g id="a_node3"><a xlink:href="pybind_8h.html" target="_top" xlink:title="This file includes all the header files containing definitions of functions to bind C++ and Python...">
<polygon fill="#ffffff" stroke="#000000" points="161,-56.5 161,-75.5 231,-75.5 231,-56.5 161,-56.5"/>
<text text-anchor="middle" x="196" y="-63.5" font-family="Helvetica,sans-Serif" font-size="10.00" fill="#000000">src/pybind.h</text>
</a>
</g>
</g>
<!-- Node3&#45;&gt;Node4 -->
<g id="edge2" class="edge">
<title>Node3&#45;&gt;Node4</title>
<path fill="none" stroke="#191970" d="M70.9707,-172.0188C87.9567,-154.9892 112.3237,-131.3093 135,-112 150.5521,-98.7571 169.4676,-84.8007 182.0719,-75.7816"/>
<polygon fill="#191970" stroke="#191970" points="68.2722,-169.7695 63.7183,-179.3357 73.2438,-174.6973 68.2722,-169.7695"/>
</g>
<!-- Node5 -->
<g id="node4" class="node">
<title>Node5</title>
<g id="a_node4"><a xlink:href="ppap4lmp_8cpp.html" target="_top" xlink:title="This file has no implementation, only includes a header file to bind C++ and Python. ">
<polygon fill="#ffffff" stroke="#000000" points="149,-.5 149,-19.5 243,-19.5 243,-.5 149,-.5"/>
<text text-anchor="middle" x="196" y="-7.5" font-family="Helvetica,sans-Serif" font-size="10.00" fill="#000000">src/ppap4lmp.cpp</text>
</a>
</g>
</g>
<!-- Node4&#45;&gt;Node5 -->
<g id="edge3" class="edge">
<title>Node4&#45;&gt;Node5</title>
<path fill="none" stroke="#191970" d="M196,-46.1575C196,-37.155 196,-26.9199 196,-19.6427"/>
<polygon fill="#191970" stroke="#191970" points="192.5001,-46.2455 196,-56.2455 199.5001,-46.2456 192.5001,-46.2455"/>
</g>
<!-- Node8 -->
<g id="node7" class="node">
<title>Node8</title>
<g id="a_node7"><a xlink:href="pybind_2starters_2sta__dump__atoms_8h.html" target="_top" xlink:title="src/pybind/starters\l/sta_dump_atoms.h">
<polygon fill="#ffffff" stroke="#000000" points="144.5,-112.5 144.5,-142.5 247.5,-142.5 247.5,-112.5 144.5,-112.5"/>
<text text-anchor="start" x="152.5" y="-130.5" font-family="Helvetica,sans-Serif" font-size="10.00" fill="#000000">src/pybind/starters</text>
<text text-anchor="middle" x="196" y="-119.5" font-family="Helvetica,sans-Serif" font-size="10.00" fill="#000000">/sta_dump_atoms.h</text>
</a>
</g>
</g>
<!-- Node7&#45;&gt;Node8 -->
<g id="edge6" class="edge">
<title>Node7&#45;&gt;Node8</title>
<path fill="none" stroke="#191970" d="M284.6422,-174.6352C265.4355,-164.422 242.3947,-152.1702 224.6184,-142.7177"/>
<polygon fill="#191970" stroke="#191970" points="283.2505,-177.8591 293.7231,-179.4639 286.537,-171.6786 283.2505,-177.8591"/>
</g>
<!-- Node9 -->
<g id="node8" class="node">
<title>Node9</title>
<g id="a_node8"><a xlink:href="sta__dump__atoms_8cpp.html" target="_top" xlink:title="src/starters/sta_dump\l_atoms.cpp">
<polygon fill="#ffffff" stroke="#000000" points="266,-112.5 266,-142.5 378,-142.5 378,-112.5 266,-112.5"/>
<text text-anchor="start" x="274" y="-130.5" font-family="Helvetica,sans-Serif" font-size="10.00" fill="#000000">src/starters/sta_dump</text>
<text text-anchor="middle" x="322" y="-119.5" font-family="Helvetica,sans-Serif" font-size="10.00" fill="#000000">_atoms.cpp</text>
</a>
</g>
</g>
<!-- Node7&#45;&gt;Node9 -->
<g id="edge8" class="edge">
<title>Node7&#45;&gt;Node9</title>
<path fill="none" stroke="#191970" d="M322,-169.0249C322,-160.128 322,-150.4287 322,-142.6432"/>
<polygon fill="#191970" stroke="#191970" points="318.5001,-169.2966 322,-179.2967 325.5001,-169.2967 318.5001,-169.2966"/>
</g>
<!-- Node8&#45;&gt;Node4 -->
<g id="edge7" class="edge">
<title>Node8&#45;&gt;Node4</title>
<path fill="none" stroke="#191970" d="M196,-102.2849C196,-92.9858 196,-82.9883 196,-75.8469"/>
<polygon fill="#191970" stroke="#191970" points="192.5001,-102.2977 196,-112.2977 199.5001,-102.2978 192.5001,-102.2977"/>
</g>
<!-- Node11 -->
<g id="node10" class="node">
<title>Node11</title>
<g id="a_node10"><a xlink:href="pybind_2starters_2sta__dump__box_8h.html" target="_top" xlink:title="src/pybind/starters\l/sta_dump_box.h">
<polygon fill="#ffffff" stroke="#000000" points="396,-112.5 396,-142.5 494,-142.5 494,-112.5 396,-112.5"/>
<text text-anchor="start" x="404" y="-130.5" font-family="Helvetica,sans-Serif" font-size="10.00" fill="#000000">src/pybind/starters</text>
<text text-anchor="middle" x="445" y="-119.5" font-family="Helvetica,sans-Serif" font-size="10.00" fill="#000000">/sta_dump_box.h</text>
</a>
</g>
</g>
<!-- Node10&#45;&gt;Node11 -->
<g id="edge10" class="edge">
<title>Node10&#45;&gt;Node11</title>
<path fill="none" stroke="#191970" d="M449.369,-169.3179C448.4312,-160.3414 447.4045,-150.5143 446.5821,-142.6432"/>
<polygon fill="#191970" stroke="#191970" points="445.8913,-169.7145 450.4116,-179.2967 452.8534,-168.9871 445.8913,-169.7145"/>
</g>
<!-- Node12 -->
<g id="node11" class="node">
<title>Node12</title>
<g id="a_node11"><a xlink:href="sta__dump__box_8cpp.html" target="_top" xlink:title="src/starters/sta_dump\l_box.cpp">
<polygon fill="#ffffff" stroke="#000000" points="512,-112.5 512,-142.5 624,-142.5 624,-112.5 512,-112.5"/>
<text text-anchor="start" x="520" y="-130.5" font-family="Helvetica,sans-Serif" font-size="10.00" fill="#000000">src/starters/sta_dump</text>
<text text-anchor="middle" x="568" y="-119.5" font-family="Helvetica,sans-Serif" font-size="10.00" fill="#000000">_box.cpp</text>
</a>
</g>
</g>
<!-- Node10&#45;&gt;Node12 -->
<g id="edge12" class="edge">
<title>Node10&#45;&gt;Node12</title>
<path fill="none" stroke="#191970" d="M486.876,-174.3561C504.4605,-164.1995 525.4362,-152.0843 541.6529,-142.7177"/>
<polygon fill="#191970" stroke="#191970" points="484.9415,-171.4315 478.0327,-179.4639 488.4426,-177.4931 484.9415,-171.4315"/>
</g>
<!-- Node11&#45;&gt;Node4 -->
<g id="edge11" class="edge">
<title>Node11&#45;&gt;Node4</title>
<path fill="none" stroke="#191970" d="M385.9818,-111.773C326.1944,-96.6635 267.6224,-82.749 231.2674,-74.2173"/>
<polygon fill="#191970" stroke="#191970" points="385.4211,-115.2415 395.9746,-114.3069 387.1416,-108.4563 385.4211,-115.2415"/>
</g>
</g>
</svg>
