<?xml version="1.0" encoding="UTF-8" standalone="no"?>
<!DOCTYPE svg PUBLIC "-//W3C//DTD SVG 1.1//EN"
 "http://www.w3.org/Graphics/SVG/1.1/DTD/svg11.dtd">
<!-- Generated by graphviz version 2.40.1 (20161225.0304)
 -->
<!-- Title: src/starters/sta_dump_box.h Pages: 1 -->
<svg width="236pt" height="218pt"
 viewBox="0.00 0.00 236.00 218.00" xmlns="http://www.w3.org/2000/svg" xmlns:xlink="http://www.w3.org/1999/xlink">
<g id="graph0" class="graph" transform="scale(1 1) rotate(0) translate(4 214)">
<title>src/starters/sta_dump_box.h</title>
<polygon fill="#ffffff" stroke="transparent" points="-4,4 -4,-214 232,-214 232,4 -4,4"/>
<!-- Node2 -->
<g id="node1" class="node">
<title>Node2</title>
<polygon fill="#bfbfbf" stroke="#000000" points="54,-179.5 54,-209.5 166,-209.5 166,-179.5 54,-179.5"/>
<text text-anchor="start" x="62" y="-197.5" font-family="Helvetica,sans-Serif" font-size="10.00" fill="#000000">src/starters/sta_dump</text>
<text text-anchor="middle" x="110" y="-186.5" font-family="Helvetica,sans-Serif" font-size="10.00" fill="#000000">_box.h</text>
</g>
<!-- Node3 -->
<g id="node2" class="node">
<title>Node3</title>
<g id="a_node2"><a xlink:href="pybind_2starters_2sta__dump__box_8h.html" target="_top" xlink:title="src/pybind/starters\l/sta_dump_box.h">
<polygon fill="#ffffff" stroke="#000000" points="0,-112.5 0,-142.5 98,-142.5 98,-112.5 0,-112.5"/>
<text text-anchor="start" x="8" y="-130.5" font-family="Helvetica,sans-Serif" font-size="10.00" fill="#000000">src/pybind/starters</text>
<text text-anchor="middle" x="49" y="-119.5" font-family="Helvetica,sans-Serif" font-size="10.00" fill="#000000">/sta_dump_box.h</text>
</a>
</g>
</g>
<!-- Node2&#45;&gt;Node3 -->
<g id="edge1" class="edge">
<title>Node2&#45;&gt;Node3</title>
<path fill="none" stroke="#191970" d="M89.1858,-171.6385C80.4699,-162.0653 70.5765,-151.1987 62.7871,-142.6432"/>
<polygon fill="#191970" stroke="#191970" points="86.8379,-174.2585 96.1582,-179.2967 92.014,-169.5459 86.8379,-174.2585"/>
</g>
<!-- Node6 -->
<g id="node5" class="node">
<title>Node6</title>
<g id="a_node5"><a xlink:href="sta__dump__box_8cpp.html" target="_top" xlink:title="src/starters/sta_dump\l_box.cpp">
<polygon fill="#ffffff" stroke="#000000" points="116,-112.5 116,-142.5 228,-142.5 228,-112.5 116,-112.5"/>
<text text-anchor="start" x="124" y="-130.5" font-family="Helvetica,sans-Serif" font-size="10.00" fill="#000000">src/starters/sta_dump</text>
<text text-anchor="middle" x="172" y="-119.5" font-family="Helvetica,sans-Serif" font-size="10.00" fill="#000000">_box.cpp</text>
</a>
</g>
</g>
<!-- Node2&#45;&gt;Node6 -->
<g id="edge4" class="edge">
<title>Node2&#45;&gt;Node6</title>
<path fill="none" stroke="#191970" d="M130.89,-171.9253C139.8129,-162.2828 149.9907,-151.2843 157.9869,-142.6432"/>
<polygon fill="#191970" stroke="#191970" points="128.2918,-169.5798 124.0688,-179.2967 133.4296,-174.3342 128.2918,-169.5798"/>
</g>
<!-- Node4 -->
<g id="node3" class="node">
<title>Node4</title>
<g id="a_node3"><a xlink:href="pybind_8h.html" target="_top" xlink:title="This file includes all the header files containing definitions of functions to bind C++ and Python...">
<polygon fill="#ffffff" stroke="#000000" points="14,-56.5 14,-75.5 84,-75.5 84,-56.5 14,-56.5"/>
<text text-anchor="middle" x="49" y="-63.5" font-family="Helvetica,sans-Serif" font-size="10.00" fill="#000000">src/pybind.h</text>
</a>
</g>
</g>
<!-- Node3&#45;&gt;Node4 -->
<g id="edge2" class="edge">
<title>Node3&#45;&gt;Node4</title>
<path fill="none" stroke="#191970" d="M49,-102.2849C49,-92.9858 49,-82.9883 49,-75.8469"/>
<polygon fill="#191970" stroke="#191970" points="45.5001,-102.2977 49,-112.2977 52.5001,-102.2978 45.5001,-102.2977"/>
</g>
<!-- Node5 -->
<g id="node4" class="node">
<title>Node5</title>
<g id="a_node4"><a xlink:href="ppap4lmp_8cpp.html" target="_top" xlink:title="This file has no implementation, only includes a header file to bind C++ and Python. ">
<polygon fill="#ffffff" stroke="#000000" points="2,-.5 2,-19.5 96,-19.5 96,-.5 2,-.5"/>
<text text-anchor="middle" x="49" y="-7.5" font-family="Helvetica,sans-Serif" font-size="10.00" fill="#000000">src/ppap4lmp.cpp</text>
</a>
</g>
</g>
<!-- Node4&#45;&gt;Node5 -->
<g id="edge3" class="edge">
<title>Node4&#45;&gt;Node5</title>
<path fill="none" stroke="#191970" d="M49,-46.1575C49,-37.155 49,-26.9199 49,-19.6427"/>
<polygon fill="#191970" stroke="#191970" points="45.5001,-46.2455 49,-56.2455 52.5001,-46.2456 45.5001,-46.2455"/>
</g>
</g>
</svg>
