<?xml version="1.0" encoding="UTF-8" standalone="no"?>
<!DOCTYPE svg PUBLIC "-//W3C//DTD SVG 1.1//EN"
 "http://www.w3.org/Graphics/SVG/1.1/DTD/svg11.dtd">
<!-- Generated by graphviz version 2.40.1 (20161225.0304)
 -->
<!-- Title: src/starters/starter.h Pages: 1 -->
<svg width="1765pt" height="330pt"
 viewBox="0.00 0.00 1765.00 330.00" xmlns="http://www.w3.org/2000/svg" xmlns:xlink="http://www.w3.org/1999/xlink">
<g id="graph0" class="graph" transform="scale(1 1) rotate(0) translate(4 326)">
<title>src/starters/starter.h</title>
<polygon fill="#ffffff" stroke="transparent" points="-4,4 -4,-326 1761,-326 1761,4 -4,4"/>
<!-- Node21 -->
<g id="node1" class="node">
<title>Node21</title>
<polygon fill="#bfbfbf" stroke="#000000" points="761,-302.5 761,-321.5 866,-321.5 866,-302.5 761,-302.5"/>
<text text-anchor="middle" x="813.5" y="-309.5" font-family="Helvetica,sans-Serif" font-size="10.00" fill="#000000">src/starters/starter.h</text>
</g>
<!-- Node22 -->
<g id="node2" class="node">
<title>Node22</title>
<g id="a_node2"><a xlink:href="py__starter_8h.html" target="_top" xlink:title="This file is for binding Starter class to Python. ">
<polygon fill="#ffffff" stroke="#000000" points="764.5,-179.5 764.5,-209.5 862.5,-209.5 862.5,-179.5 764.5,-179.5"/>
<text text-anchor="start" x="772.5" y="-197.5" font-family="Helvetica,sans-Serif" font-size="10.00" fill="#000000">src/pybind/starters</text>
<text text-anchor="middle" x="813.5" y="-186.5" font-family="Helvetica,sans-Serif" font-size="10.00" fill="#000000">/py_starter.h</text>
</a>
</g>
</g>
<!-- Node21&#45;&gt;Node22 -->
<g id="edge1" class="edge">
<title>Node21&#45;&gt;Node22</title>
<path fill="none" stroke="#191970" d="M813.5,-292.3022C813.5,-269.0339 813.5,-230.8278 813.5,-209.7143"/>
<polygon fill="#191970" stroke="#191970" points="810.0001,-292.3844 813.5,-302.3845 817.0001,-292.3845 810.0001,-292.3844"/>
</g>
<!-- Node32 -->
<g id="node12" class="node">
<title>Node32</title>
<g id="a_node12"><a xlink:href="sta__beads_8h.html" target="_top" xlink:title="This file has a definition of StaBeads class, which is a subclass of Starter class. ">
<polygon fill="#ffffff" stroke="#000000" points="139.5,-185 139.5,-204 261.5,-204 261.5,-185 139.5,-185"/>
<text text-anchor="middle" x="200.5" y="-192" font-family="Helvetica,sans-Serif" font-size="10.00" fill="#000000">src/starters/sta_beads.h</text>
</a>
</g>
</g>
<!-- Node21&#45;&gt;Node32 -->
<g id="edge18" class="edge">
<title>Node21&#45;&gt;Node32</title>
<path fill="none" stroke="#191970" d="M753.6856,-300.5348C632.9168,-277.3858 361.9648,-225.4496 250.18,-204.0227"/>
<polygon fill="#191970" stroke="#191970" points="753.3748,-304.0388 763.8549,-302.484 754.6926,-297.164 753.3748,-304.0388"/>
</g>
<!-- Node34 -->
<g id="node14" class="node">
<title>Node34</title>
<g id="a_node14"><a xlink:href="sta__copy_8h.html" target="_top" xlink:title="This file has a definition of StaCopy class, which is a subclass of Starter class. ">
<polygon fill="#ffffff" stroke="#000000" points="404,-185 404,-204 521,-204 521,-185 404,-185"/>
<text text-anchor="middle" x="462.5" y="-192" font-family="Helvetica,sans-Serif" font-size="10.00" fill="#000000">src/starters/sta_copy.h</text>
</a>
</g>
</g>
<!-- Node21&#45;&gt;Node34 -->
<g id="edge21" class="edge">
<title>Node21&#45;&gt;Node34</title>
<path fill="none" stroke="#191970" d="M775.2093,-299.1819C704.3179,-275.4504 554.1265,-225.1727 491.1918,-204.1048"/>
<polygon fill="#191970" stroke="#191970" points="774.4797,-302.6285 785.0735,-302.484 776.7018,-295.9905 774.4797,-302.6285"/>
</g>
<!-- Node36 -->
<g id="node16" class="node">
<title>Node36</title>
<g id="a_node16"><a xlink:href="sta__custom_8h.html" target="_top" xlink:title="This file has a definition of StaCustom class, which is a subclass of Starter class. ">
<polygon fill="#ffffff" stroke="#000000" points="618.5,-185 618.5,-204 746.5,-204 746.5,-185 618.5,-185"/>
<text text-anchor="middle" x="682.5" y="-192" font-family="Helvetica,sans-Serif" font-size="10.00" fill="#000000">src/starters/sta_custom.h</text>
</a>
</g>
</g>
<!-- Node21&#45;&gt;Node36 -->
<g id="edge24" class="edge">
<title>Node21&#45;&gt;Node36</title>
<path fill="none" stroke="#191970" d="M794.9914,-295.3987C767.2501,-270.5163 715.7593,-224.3318 693.3684,-204.2484"/>
<polygon fill="#191970" stroke="#191970" points="792.9985,-298.3129 802.7797,-302.3845 797.6725,-293.1019 792.9985,-298.3129"/>
</g>
<!-- Node38 -->
<g id="node18" class="node">
<title>Node38</title>
<g id="a_node18"><a xlink:href="sta__dump_8h.html" target="_top" xlink:title="This file has a definition of StaDump class, which is a subclass of Starter class. ">
<polygon fill="#ffffff" stroke="#000000" points="882.5,-246.5 882.5,-265.5 1002.5,-265.5 1002.5,-246.5 882.5,-246.5"/>
<text text-anchor="middle" x="942.5" y="-253.5" font-family="Helvetica,sans-Serif" font-size="10.00" fill="#000000">src/starters/sta_dump.h</text>
</a>
</g>
</g>
<!-- Node21&#45;&gt;Node38 -->
<g id="edge27" class="edge">
<title>Node21&#45;&gt;Node38</title>
<path fill="none" stroke="#191970" d="M844.8671,-298.3833C868.3284,-288.1985 899.8185,-274.5284 920.6135,-265.5011"/>
<polygon fill="#191970" stroke="#191970" points="843.4551,-295.1806 835.6759,-302.3733 846.2426,-301.6017 843.4551,-295.1806"/>
</g>
<!-- Node44 -->
<g id="node24" class="node">
<title>Node44</title>
<g id="a_node24"><a xlink:href="sta__molecules_8h.html" target="_top" xlink:title="This file has a definition of StaMolecules class, which is a subclass of Starter class. ">
<polygon fill="#ffffff" stroke="#000000" points="1464.5,-185 1464.5,-204 1604.5,-204 1604.5,-185 1464.5,-185"/>
<text text-anchor="middle" x="1534.5" y="-192" font-family="Helvetica,sans-Serif" font-size="10.00" fill="#000000">src/starters/sta_molecules.h</text>
</a>
</g>
</g>
<!-- Node21&#45;&gt;Node44 -->
<g id="edge36" class="edge">
<title>Node21&#45;&gt;Node44</title>
<path fill="none" stroke="#191970" d="M876.3024,-301.6755C915.8438,-294.1389 967.5364,-282.3664 1011.5,-266 1029.3861,-259.3415 1031.2399,-251.5513 1049.5,-246 1088.184,-234.2396 1339.1223,-211.3601 1464.0581,-200.4998"/>
<polygon fill="#191970" stroke="#191970" points="875.4543,-298.2732 866.2657,-303.5476 876.7379,-305.1545 875.4543,-298.2732"/>
</g>
<!-- Node46 -->
<g id="node26" class="node">
<title>Node46</title>
<g id="a_node26"><a xlink:href="starter_8cpp.html" target="_top" xlink:title="This file has an implementation of Starter class, which is a subclass of Updater class. ">
<polygon fill="#ffffff" stroke="#000000" points="1058.5,-246.5 1058.5,-265.5 1174.5,-265.5 1174.5,-246.5 1058.5,-246.5"/>
<text text-anchor="middle" x="1116.5" y="-253.5" font-family="Helvetica,sans-Serif" font-size="10.00" fill="#000000">src/starters/starter.cpp</text>
</a>
</g>
</g>
<!-- Node21&#45;&gt;Node46 -->
<g id="edge39" class="edge">
<title>Node21&#45;&gt;Node46</title>
<path fill="none" stroke="#191970" d="M875.3694,-300.5654C931.2517,-290.2373 1012.5385,-275.214 1064.9701,-265.5237"/>
<polygon fill="#191970" stroke="#191970" points="874.4406,-297.1777 865.2433,-302.4369 875.7129,-304.0611 874.4406,-297.1777"/>
</g>
<!-- Node23 -->
<g id="node3" class="node">
<title>Node23</title>
<g id="a_node3"><a xlink:href="pybind_8h.html" target="_top" xlink:title="This file includes all the header files containing definitions of functions to bind C++ and Python...">
<polygon fill="#ffffff" stroke="#000000" points="816.5,-56.5 816.5,-75.5 886.5,-75.5 886.5,-56.5 816.5,-56.5"/>
<text text-anchor="middle" x="851.5" y="-63.5" font-family="Helvetica,sans-Serif" font-size="10.00" fill="#000000">src/pybind.h</text>
</a>
</g>
</g>
<!-- Node22&#45;&gt;Node23 -->
<g id="edge2" class="edge">
<title>Node22&#45;&gt;Node23</title>
<path fill="none" stroke="#191970" d="M818.151,-169.4276C821.4859,-152.9251 826.4497,-130.9514 832.5,-112 836.5995,-99.1593 842.7581,-84.8866 846.9441,-75.6955"/>
<polygon fill="#191970" stroke="#191970" points="814.6861,-168.909 816.1997,-179.3952 821.5557,-170.2539 814.6861,-168.909"/>
</g>
<!-- Node25 -->
<g id="node5" class="node">
<title>Node25</title>
<g id="a_node5"><a xlink:href="py__sta__beads_8h.html" target="_top" xlink:title="This file is for binding StaBeads class to Python. ">
<polygon fill="#ffffff" stroke="#000000" points="151.5,-112.5 151.5,-142.5 249.5,-142.5 249.5,-112.5 151.5,-112.5"/>
<text text-anchor="start" x="159.5" y="-130.5" font-family="Helvetica,sans-Serif" font-size="10.00" fill="#000000">src/pybind/starters</text>
<text text-anchor="middle" x="200.5" y="-119.5" font-family="Helvetica,sans-Serif" font-size="10.00" fill="#000000">/py_sta_beads.h</text>
</a>
</g>
</g>
<!-- Node22&#45;&gt;Node25 -->
<g id="edge4" class="edge">
<title>Node22&#45;&gt;Node25</title>
<path fill="none" stroke="#191970" d="M754.4014,-179.0282C535.3055,-143.3298 473.6975,-179.2147 258.5,-143 255.6221,-142.5157 252.6799,-141.9519 249.7218,-141.3318"/>
<polygon fill="#191970" stroke="#191970" points="753.8399,-182.4828 764.2782,-180.6682 754.9866,-175.5773 753.8399,-182.4828"/>
</g>
<!-- Node26 -->
<g id="node6" class="node">
<title>Node26</title>
<g id="a_node6"><a xlink:href="py__sta__copy_8h.html" target="_top" xlink:title="This file is for binding StaCopy class to Python. ">
<polygon fill="#ffffff" stroke="#000000" points="413.5,-112.5 413.5,-142.5 511.5,-142.5 511.5,-112.5 413.5,-112.5"/>
<text text-anchor="start" x="421.5" y="-130.5" font-family="Helvetica,sans-Serif" font-size="10.00" fill="#000000">src/pybind/starters</text>
<text text-anchor="middle" x="462.5" y="-119.5" font-family="Helvetica,sans-Serif" font-size="10.00" fill="#000000">/py_sta_copy.h</text>
</a>
</g>
</g>
<!-- Node22&#45;&gt;Node26 -->
<g id="edge6" class="edge">
<title>Node22&#45;&gt;Node26</title>
<path fill="none" stroke="#191970" d="M754.2684,-178.8791C650.3092,-157.7458 620.7856,-164.0162 520.5,-143 517.6437,-142.4014 514.7183,-141.7483 511.7732,-141.0599"/>
<polygon fill="#191970" stroke="#191970" points="753.725,-182.3407 764.2268,-180.9401 755.1437,-175.486 753.725,-182.3407"/>
</g>
<!-- Node27 -->
<g id="node7" class="node">
<title>Node27</title>
<g id="a_node7"><a xlink:href="py__sta__custom_8h.html" target="_top" xlink:title="This file is for binding StaCustom class to Python. ">
<polygon fill="#ffffff" stroke="#000000" points="687.5,-112.5 687.5,-142.5 785.5,-142.5 785.5,-112.5 687.5,-112.5"/>
<text text-anchor="start" x="695.5" y="-130.5" font-family="Helvetica,sans-Serif" font-size="10.00" fill="#000000">src/pybind/starters</text>
<text text-anchor="middle" x="736.5" y="-119.5" font-family="Helvetica,sans-Serif" font-size="10.00" fill="#000000">/py_sta_custom.h</text>
</a>
</g>
</g>
<!-- Node22&#45;&gt;Node27 -->
<g id="edge8" class="edge">
<title>Node22&#45;&gt;Node27</title>
<path fill="none" stroke="#191970" d="M788.2124,-172.4965C776.976,-162.7193 764.0308,-151.4554 753.9033,-142.6432"/>
<polygon fill="#191970" stroke="#191970" points="786.1861,-175.3728 796.0275,-179.2967 790.781,-170.092 786.1861,-175.3728"/>
</g>
<!-- Node28 -->
<g id="node8" class="node">
<title>Node28</title>
<g id="a_node8"><a xlink:href="py__sta__dump_8h.html" target="_top" xlink:title="This file is for binding StaDump class to Python. ">
<polygon fill="#ffffff" stroke="#000000" points="841.5,-112.5 841.5,-142.5 939.5,-142.5 939.5,-112.5 841.5,-112.5"/>
<text text-anchor="start" x="849.5" y="-130.5" font-family="Helvetica,sans-Serif" font-size="10.00" fill="#000000">src/pybind/starters</text>
<text text-anchor="middle" x="890.5" y="-119.5" font-family="Helvetica,sans-Serif" font-size="10.00" fill="#000000">/py_sta_dump.h</text>
</a>
</g>
</g>
<!-- Node22&#45;&gt;Node28 -->
<g id="edge10" class="edge">
<title>Node22&#45;&gt;Node28</title>
<path fill="none" stroke="#191970" d="M838.7876,-172.4965C850.024,-162.7193 862.9692,-151.4554 873.0967,-142.6432"/>
<polygon fill="#191970" stroke="#191970" points="836.219,-170.092 830.9725,-179.2967 840.8139,-175.3728 836.219,-170.092"/>
</g>
<!-- Node29 -->
<g id="node9" class="node">
<title>Node29</title>
<g id="a_node9"><a xlink:href="py__sta__molecules_8h.html" target="_top" xlink:title="This file is for binding StaMolecules class to Python. ">
<polygon fill="#ffffff" stroke="#000000" points="1481,-112.5 1481,-142.5 1588,-142.5 1588,-112.5 1481,-112.5"/>
<text text-anchor="start" x="1489" y="-130.5" font-family="Helvetica,sans-Serif" font-size="10.00" fill="#000000">src/pybind/starters</text>
<text text-anchor="middle" x="1534.5" y="-119.5" font-family="Helvetica,sans-Serif" font-size="10.00" fill="#000000">/py_sta_molecules.h</text>
</a>
</g>
</g>
<!-- Node22&#45;&gt;Node29 -->
<g id="edge12" class="edge">
<title>Node22&#45;&gt;Node29</title>
<path fill="none" stroke="#191970" d="M872.7335,-184.0222C884.8664,-182.1337 897.5728,-180.3417 909.5,-179 1158.2209,-151.0204 1224.119,-181.0474 1471.5,-143 1474.5058,-142.5377 1477.5784,-142.0005 1480.6703,-141.4093"/>
<polygon fill="#191970" stroke="#191970" points="872.0293,-180.5903 862.7064,-185.6236 873.1333,-187.5027 872.0293,-180.5903"/>
</g>
<!-- Node30 -->
<g id="node10" class="node">
<title>Node30</title>
<g id="a_node10"><a xlink:href="py__sta__dump__atoms_8h.html" target="_top" xlink:title="This file is for binding StaDumpAtoms class to Python. ">
<polygon fill="#ffffff" stroke="#000000" points="1083,-112.5 1083,-142.5 1202,-142.5 1202,-112.5 1083,-112.5"/>
<text text-anchor="start" x="1091" y="-130.5" font-family="Helvetica,sans-Serif" font-size="10.00" fill="#000000">src/pybind/starters</text>
<text text-anchor="middle" x="1142.5" y="-119.5" font-family="Helvetica,sans-Serif" font-size="10.00" fill="#000000">/py_sta_dump_atoms.h</text>
</a>
</g>
</g>
<!-- Node22&#45;&gt;Node30 -->
<g id="edge14" class="edge">
<title>Node22&#45;&gt;Node30</title>
<path fill="none" stroke="#191970" d="M872.7968,-183.1997C925.5522,-173.04 1004.7695,-157.5242 1073.5,-143 1076.5031,-142.3654 1079.5777,-141.7069 1082.6812,-141.0352"/>
<polygon fill="#191970" stroke="#191970" points="872.0956,-179.7703 862.9363,-185.0956 873.4173,-186.6444 872.0956,-179.7703"/>
</g>
<!-- Node31 -->
<g id="node11" class="node">
<title>Node31</title>
<g id="a_node11"><a xlink:href="py__sta__dump__box_8h.html" target="_top" xlink:title="This file is for binding StaDumpBox class to Python. ">
<polygon fill="#ffffff" stroke="#000000" points="958,-112.5 958,-142.5 1065,-142.5 1065,-112.5 958,-112.5"/>
<text text-anchor="start" x="966" y="-130.5" font-family="Helvetica,sans-Serif" font-size="10.00" fill="#000000">src/pybind/starters</text>
<text text-anchor="middle" x="1011.5" y="-119.5" font-family="Helvetica,sans-Serif" font-size="10.00" fill="#000000">/py_sta_dump_box.h</text>
</a>
</g>
</g>
<!-- Node22&#45;&gt;Node31 -->
<g id="edge16" class="edge">
<title>Node22&#45;&gt;Node31</title>
<path fill="none" stroke="#191970" d="M867.7602,-176.1392C898.8961,-165.6033 937.5087,-152.5375 966.8711,-142.6017"/>
<polygon fill="#191970" stroke="#191970" points="866.2856,-172.9432 857.9351,-179.4639 868.5293,-179.5739 866.2856,-172.9432"/>
</g>
<!-- Node24 -->
<g id="node4" class="node">
<title>Node24</title>
<g id="a_node4"><a xlink:href="ppap4lmp_8cpp.html" target="_top" xlink:title="This file has no implementation, only includes a header file to bind C++ and Python. ">
<polygon fill="#ffffff" stroke="#000000" points="804.5,-.5 804.5,-19.5 898.5,-19.5 898.5,-.5 804.5,-.5"/>
<text text-anchor="middle" x="851.5" y="-7.5" font-family="Helvetica,sans-Serif" font-size="10.00" fill="#000000">src/ppap4lmp.cpp</text>
</a>
</g>
</g>
<!-- Node23&#45;&gt;Node24 -->
<g id="edge3" class="edge">
<title>Node23&#45;&gt;Node24</title>
<path fill="none" stroke="#191970" d="M851.5,-46.1575C851.5,-37.155 851.5,-26.9199 851.5,-19.6427"/>
<polygon fill="#191970" stroke="#191970" points="848.0001,-46.2455 851.5,-56.2455 855.0001,-46.2456 848.0001,-46.2455"/>
</g>
<!-- Node25&#45;&gt;Node23 -->
<g id="edge5" class="edge">
<title>Node25&#45;&gt;Node23</title>
<path fill="none" stroke="#191970" d="M259.67,-112.002C475.8953,-75.9243 725.7793,-68.189 816.4685,-66.4777"/>
<polygon fill="#191970" stroke="#191970" points="259.0003,-108.5655 249.7248,-113.6857 260.1687,-115.4673 259.0003,-108.5655"/>
</g>
<!-- Node26&#45;&gt;Node23 -->
<g id="edge7" class="edge">
<title>Node26&#45;&gt;Node23</title>
<path fill="none" stroke="#191970" d="M521.6175,-111.9157C634.6254,-89.5477 757.5231,-75.5244 816.4732,-69.4346"/>
<polygon fill="#191970" stroke="#191970" points="520.8795,-108.4939 511.7634,-113.8928 522.2566,-115.3572 520.8795,-108.4939"/>
</g>
<!-- Node27&#45;&gt;Node23 -->
<g id="edge9" class="edge">
<title>Node27&#45;&gt;Node23</title>
<path fill="none" stroke="#191970" d="M773.5717,-107.6747C793.7092,-96.9055 817.6892,-84.0814 833.6791,-75.5303"/>
<polygon fill="#191970" stroke="#191970" points="771.7998,-104.6531 764.6322,-112.4554 775.101,-110.8259 771.7998,-104.6531"/>
</g>
<!-- Node28&#45;&gt;Node23 -->
<g id="edge11" class="edge">
<title>Node28&#45;&gt;Node23</title>
<path fill="none" stroke="#191970" d="M875.4569,-103.7782C869.2999,-94.069 862.5165,-83.3722 857.7444,-75.8469"/>
<polygon fill="#191970" stroke="#191970" points="872.5483,-105.7271 880.8595,-112.2977 878.4599,-101.9782 872.5483,-105.7271"/>
</g>
<!-- Node29&#45;&gt;Node23 -->
<g id="edge13" class="edge">
<title>Node29&#45;&gt;Node23</title>
<path fill="none" stroke="#191970" d="M1470.5404,-112.0322C1242.9968,-76.6775 980.2689,-68.4678 886.6963,-66.5554"/>
<polygon fill="#191970" stroke="#191970" points="1470.2417,-115.5282 1480.6646,-113.627 1471.331,-108.6135 1470.2417,-115.5282"/>
</g>
<!-- Node30&#45;&gt;Node23 -->
<g id="edge15" class="edge">
<title>Node30&#45;&gt;Node23</title>
<path fill="none" stroke="#191970" d="M1072.5365,-111.8112C1000.6481,-96.3481 928.3419,-81.5518 886.5277,-73.0704"/>
<polygon fill="#191970" stroke="#191970" points="1072.1612,-115.3106 1082.6743,-113.9969 1073.6366,-108.4678 1072.1612,-115.3106"/>
</g>
<!-- Node31&#45;&gt;Node23 -->
<g id="edge17" class="edge">
<title>Node31&#45;&gt;Node23</title>
<path fill="none" stroke="#191970" d="M962.9293,-108.8306C934.3235,-97.8353 899.3429,-84.3896 876.2943,-75.5303"/>
<polygon fill="#191970" stroke="#191970" points="961.7696,-112.1345 972.3596,-112.4554 964.2811,-105.6005 961.7696,-112.1345"/>
</g>
<!-- Node32&#45;&gt;Node25 -->
<g id="edge19" class="edge">
<title>Node32&#45;&gt;Node25</title>
<path fill="none" stroke="#191970" d="M200.5,-174.7758C200.5,-164.4641 200.5,-152.0437 200.5,-142.5218"/>
<polygon fill="#191970" stroke="#191970" points="197.0001,-174.9005 200.5,-184.9005 204.0001,-174.9006 197.0001,-174.9005"/>
</g>
<!-- Node33 -->
<g id="node13" class="node">
<title>Node33</title>
<g id="a_node13"><a xlink:href="sta__beads_8cpp.html" target="_top" xlink:title="This file has an implementation of StaBeads class, which is a subclass of Starter class...">
<polygon fill="#ffffff" stroke="#000000" points="0,-118 0,-137 133,-137 133,-118 0,-118"/>
<text text-anchor="middle" x="66.5" y="-125" font-family="Helvetica,sans-Serif" font-size="10.00" fill="#000000">src/starters/sta_beads.cpp</text>
</a>
</g>
</g>
<!-- Node32&#45;&gt;Node33 -->
<g id="edge20" class="edge">
<title>Node32&#45;&gt;Node33</title>
<path fill="none" stroke="#191970" d="M172.3026,-180.4013C146.2779,-167.389 108.3346,-148.4173 85.6633,-137.0817"/>
<polygon fill="#191970" stroke="#191970" points="170.7915,-183.5588 181.3011,-184.9005 173.9221,-177.2978 170.7915,-183.5588"/>
</g>
<!-- Node34&#45;&gt;Node26 -->
<g id="edge22" class="edge">
<title>Node34&#45;&gt;Node26</title>
<path fill="none" stroke="#191970" d="M462.5,-174.7758C462.5,-164.4641 462.5,-152.0437 462.5,-142.5218"/>
<polygon fill="#191970" stroke="#191970" points="459.0001,-174.9005 462.5,-184.9005 466.0001,-174.9006 459.0001,-174.9005"/>
</g>
<!-- Node35 -->
<g id="node15" class="node">
<title>Node35</title>
<g id="a_node15"><a xlink:href="sta__copy_8cpp.html" target="_top" xlink:title="This file has an implementation of StaCopy class, which is a subclass of Starter class. ">
<polygon fill="#ffffff" stroke="#000000" points="267.5,-118 267.5,-137 395.5,-137 395.5,-118 267.5,-118"/>
<text text-anchor="middle" x="331.5" y="-125" font-family="Helvetica,sans-Serif" font-size="10.00" fill="#000000">src/starters/sta_copy.cpp</text>
</a>
</g>
</g>
<!-- Node34&#45;&gt;Node35 -->
<g id="edge23" class="edge">
<title>Node34&#45;&gt;Node35</title>
<path fill="none" stroke="#191970" d="M434.5985,-180.2298C409.1668,-167.2227 372.3008,-148.3676 350.2343,-137.0817"/>
<polygon fill="#191970" stroke="#191970" points="433.234,-183.4631 443.7309,-184.9005 436.4215,-177.2309 433.234,-183.4631"/>
</g>
<!-- Node36&#45;&gt;Node27 -->
<g id="edge25" class="edge">
<title>Node36&#45;&gt;Node27</title>
<path fill="none" stroke="#191970" d="M696.5703,-177.0423C705.2042,-166.33 716.147,-152.7528 724.3929,-142.5218"/>
<polygon fill="#191970" stroke="#191970" points="693.7871,-174.9182 690.2369,-184.9005 699.2373,-179.3109 693.7871,-174.9182"/>
</g>
<!-- Node37 -->
<g id="node17" class="node">
<title>Node37</title>
<g id="a_node17"><a xlink:href="sta__custom_8cpp.html" target="_top" xlink:title="This file has an implementation of StaCustom class, which is a subclass of Starter class...">
<polygon fill="#ffffff" stroke="#000000" points="530,-118 530,-137 669,-137 669,-118 530,-118"/>
<text text-anchor="middle" x="599.5" y="-125" font-family="Helvetica,sans-Serif" font-size="10.00" fill="#000000">src/starters/sta_custom.cpp</text>
</a>
</g>
</g>
<!-- Node36&#45;&gt;Node37 -->
<g id="edge26" class="edge">
<title>Node36&#45;&gt;Node37</title>
<path fill="none" stroke="#191970" d="M662.4303,-178.2992C646.467,-165.4131 624.6734,-147.8207 611.3698,-137.0817"/>
<polygon fill="#191970" stroke="#191970" points="660.6285,-181.3427 670.6081,-184.9005 665.0254,-175.8959 660.6285,-181.3427"/>
</g>
<!-- Node38&#45;&gt;Node28 -->
<g id="edge28" class="edge">
<title>Node38&#45;&gt;Node28</title>
<path fill="none" stroke="#191970" d="M927.409,-238.4703C921.0497,-230.2869 914.0764,-220.1297 909.5,-210 899.4549,-187.7653 894.4481,-159.6774 892.1692,-142.6762"/>
<polygon fill="#191970" stroke="#191970" points="924.9001,-240.9325 933.9261,-246.4808 930.3301,-236.5148 924.9001,-240.9325"/>
</g>
<!-- Node39 -->
<g id="node19" class="node">
<title>Node39</title>
<g id="a_node19"><a xlink:href="sta__dump_8cpp.html" target="_top" xlink:title="This file has an implementation of StaDump class, which is a subclass of Starter class. ">
<polygon fill="#ffffff" stroke="#000000" points="919,-185 919,-204 1050,-204 1050,-185 919,-185"/>
<text text-anchor="middle" x="984.5" y="-192" font-family="Helvetica,sans-Serif" font-size="10.00" fill="#000000">src/starters/sta_dump.cpp</text>
</a>
</g>
</g>
<!-- Node38&#45;&gt;Node39 -->
<g id="edge29" class="edge">
<title>Node38&#45;&gt;Node39</title>
<path fill="none" stroke="#191970" d="M954.8494,-237.9169C962.3702,-226.9043 971.6849,-213.265 977.845,-204.2449"/>
<polygon fill="#191970" stroke="#191970" points="951.8118,-236.1587 949.0625,-246.3906 957.5925,-240.1065 951.8118,-236.1587"/>
</g>
<!-- Node40 -->
<g id="node20" class="node">
<title>Node40</title>
<g id="a_node20"><a xlink:href="sta__dump__atoms_8h.html" target="_top" xlink:title="This file has a definition of StaDumpAtoms class, which is a subclass of Starter class. ">
<polygon fill="#ffffff" stroke="#000000" points="1198.5,-179.5 1198.5,-209.5 1310.5,-209.5 1310.5,-179.5 1198.5,-179.5"/>
<text text-anchor="start" x="1206.5" y="-197.5" font-family="Helvetica,sans-Serif" font-size="10.00" fill="#000000">src/starters/sta_dump</text>
<text text-anchor="middle" x="1254.5" y="-186.5" font-family="Helvetica,sans-Serif" font-size="10.00" fill="#000000">_atoms.h</text>
</a>
</g>
</g>
<!-- Node38&#45;&gt;Node40 -->
<g id="edge30" class="edge">
<title>Node38&#45;&gt;Node40</title>
<path fill="none" stroke="#191970" d="M1008.092,-244.7049C1057.9698,-235.8931 1128.2245,-223.0033 1189.5,-210 1192.3371,-209.3979 1195.24,-208.7656 1198.1687,-208.1148"/>
<polygon fill="#191970" stroke="#191970" points="1007.3247,-241.286 998.083,-246.4667 1008.5383,-248.18 1007.3247,-241.286"/>
</g>
<!-- Node42 -->
<g id="node22" class="node">
<title>Node42</title>
<g id="a_node22"><a xlink:href="sta__dump__box_8h_source.html" target="_top" xlink:title="src/starters/sta_dump\l_box.h">
<polygon fill="#ffffff" stroke="#000000" points="1068.5,-179.5 1068.5,-209.5 1180.5,-209.5 1180.5,-179.5 1068.5,-179.5"/>
<text text-anchor="start" x="1076.5" y="-197.5" font-family="Helvetica,sans-Serif" font-size="10.00" fill="#000000">src/starters/sta_dump</text>
<text text-anchor="middle" x="1124.5" y="-186.5" font-family="Helvetica,sans-Serif" font-size="10.00" fill="#000000">_box.h</text>
</a>
</g>
</g>
<!-- Node38&#45;&gt;Node42 -->
<g id="edge33" class="edge">
<title>Node38&#45;&gt;Node42</title>
<path fill="none" stroke="#191970" d="M980.6965,-243.0929C1009.6685,-233.303 1049.5588,-219.8235 1079.9778,-209.5446"/>
<polygon fill="#191970" stroke="#191970" points="979.2908,-239.8735 970.9375,-246.3906 981.5317,-246.5051 979.2908,-239.8735"/>
</g>
<!-- Node40&#45;&gt;Node30 -->
<g id="edge31" class="edge">
<title>Node40&#45;&gt;Node30</title>
<path fill="none" stroke="#191970" d="M1220.3585,-174.0761C1203.4772,-163.9774 1183.4525,-151.9983 1167.9386,-142.7177"/>
<polygon fill="#191970" stroke="#191970" points="1218.9865,-177.3338 1229.365,-179.4639 1222.5801,-171.3266 1218.9865,-177.3338"/>
</g>
<!-- Node41 -->
<g id="node21" class="node">
<title>Node41</title>
<g id="a_node21"><a xlink:href="sta__dump__atoms_8cpp.html" target="_top" xlink:title="This file has an implementation of StaDumpAtoms class, which is a subclass of Starter class...">
<polygon fill="#ffffff" stroke="#000000" points="1350.5,-112.5 1350.5,-142.5 1462.5,-142.5 1462.5,-112.5 1350.5,-112.5"/>
<text text-anchor="start" x="1358.5" y="-130.5" font-family="Helvetica,sans-Serif" font-size="10.00" fill="#000000">src/starters/sta_dump</text>
<text text-anchor="middle" x="1406.5" y="-119.5" font-family="Helvetica,sans-Serif" font-size="10.00" fill="#000000">_atoms.cpp</text>
</a>
</g>
</g>
<!-- Node40&#45;&gt;Node41 -->
<g id="edge32" class="edge">
<title>Node40&#45;&gt;Node41</title>
<path fill="none" stroke="#191970" d="M1298.0282,-175.3132C1321.5917,-164.9267 1350.284,-152.2794 1372.2395,-142.6017"/>
<polygon fill="#191970" stroke="#191970" points="1296.3505,-172.2277 1288.6118,-179.4639 1299.174,-178.6331 1296.3505,-172.2277"/>
</g>
<!-- Node42&#45;&gt;Node31 -->
<g id="edge34" class="edge">
<title>Node42&#45;&gt;Node31</title>
<path fill="none" stroke="#191970" d="M1090.526,-174.3561C1073.3962,-164.1995 1052.963,-152.0843 1037.1657,-142.7177"/>
<polygon fill="#191970" stroke="#191970" points="1088.7538,-177.3743 1099.1406,-179.4639 1092.324,-171.3531 1088.7538,-177.3743"/>
</g>
<!-- Node43 -->
<g id="node23" class="node">
<title>Node43</title>
<g id="a_node23"><a xlink:href="sta__dump__box_8cpp.html" target="_top" xlink:title="This file has an implementation of StaDumpBox class, which is a subclass of Starter class...">
<polygon fill="#ffffff" stroke="#000000" points="1220.5,-112.5 1220.5,-142.5 1332.5,-142.5 1332.5,-112.5 1220.5,-112.5"/>
<text text-anchor="start" x="1228.5" y="-130.5" font-family="Helvetica,sans-Serif" font-size="10.00" fill="#000000">src/starters/sta_dump</text>
<text text-anchor="middle" x="1276.5" y="-119.5" font-family="Helvetica,sans-Serif" font-size="10.00" fill="#000000">_box.cpp</text>
</a>
</g>
</g>
<!-- Node42&#45;&gt;Node43 -->
<g id="edge35" class="edge">
<title>Node42&#45;&gt;Node43</title>
<path fill="none" stroke="#191970" d="M1168.0282,-175.3132C1191.5917,-164.9267 1220.284,-152.2794 1242.2395,-142.6017"/>
<polygon fill="#191970" stroke="#191970" points="1166.3505,-172.2277 1158.6118,-179.4639 1169.174,-178.6331 1166.3505,-172.2277"/>
</g>
<!-- Node44&#45;&gt;Node29 -->
<g id="edge37" class="edge">
<title>Node44&#45;&gt;Node29</title>
<path fill="none" stroke="#191970" d="M1534.5,-174.7758C1534.5,-164.4641 1534.5,-152.0437 1534.5,-142.5218"/>
<polygon fill="#191970" stroke="#191970" points="1531.0001,-174.9005 1534.5,-184.9005 1538.0001,-174.9006 1531.0001,-174.9005"/>
</g>
<!-- Node45 -->
<g id="node25" class="node">
<title>Node45</title>
<g id="a_node25"><a xlink:href="sta__molecules_8cpp.html" target="_top" xlink:title="This file has an implementation of StaMolecules class, which is a subclass of Starter class...">
<polygon fill="#ffffff" stroke="#000000" points="1606,-118 1606,-137 1757,-137 1757,-118 1606,-118"/>
<text text-anchor="middle" x="1681.5" y="-125" font-family="Helvetica,sans-Serif" font-size="10.00" fill="#000000">src/starters/sta_molecules.cpp</text>
</a>
</g>
</g>
<!-- Node44&#45;&gt;Node45 -->
<g id="edge38" class="edge">
<title>Node44&#45;&gt;Node45</title>
<path fill="none" stroke="#191970" d="M1564.6847,-180.7424C1593.2509,-167.7224 1635.3887,-148.5167 1660.4776,-137.0817"/>
<polygon fill="#191970" stroke="#191970" points="1563.2094,-177.5683 1555.5615,-184.9005 1566.1125,-183.9379 1563.2094,-177.5683"/>
</g>
</g>
</svg>
